<?xml version="1.0" encoding="UTF-8" standalone="no"?>
<!-- Created with Inkscape (http://www.inkscape.org/) -->

<svg
   width="313.51474mm"
   height="123.86019mm"
   viewBox="0 0 313.51474 123.86019"
   version="1.1"
   id="svg1"
   xmlns="http://www.w3.org/2000/svg"
   xmlns:svg="http://www.w3.org/2000/svg">
  <defs
     id="defs1">
    <clipPath
       id="clip0">
      <rect
         x="608"
         y="350"
         width="1252"
         height="517"
         id="rect1" />
    </clipPath>
    <clipPath
       id="clip1">
      <rect
         x="1570"
         y="644"
         width="63"
         height="137"
         id="rect2" />
    </clipPath>
    <clipPath
       id="clip2">
      <rect
         x="1570"
         y="644"
         width="63"
         height="137"
         id="rect3" />
    </clipPath>
    <clipPath
       id="clip3">
      <rect
         x="1570"
         y="644"
         width="63"
         height="137"
         id="rect4" />
    </clipPath>
    <clipPath
       id="clip4">
      <rect
         x="1568"
         y="489"
         width="63"
         height="138"
         id="rect5" />
    </clipPath>
    <clipPath
       id="clip5">
      <rect
         x="1568"
         y="489"
         width="63"
         height="138"
         id="rect6" />
    </clipPath>
    <clipPath
       id="clip6">
      <rect
         x="1568"
         y="489"
         width="63"
         height="138"
         id="rect7" />
    </clipPath>
    <clipPath
       id="clip7">
      <rect
         x="1526"
         y="384"
         width="138"
         height="63"
         id="rect8" />
    </clipPath>
    <clipPath
       id="clip8">
      <rect
         x="1526"
         y="384"
         width="138"
         height="63"
         id="rect9" />
    </clipPath>
    <clipPath
       id="clip9">
      <rect
         x="1526"
         y="384"
         width="138"
         height="63"
         id="rect10" />
    </clipPath>
    <clipPath
       id="clip10">
      <rect
         x="876"
         y="407"
         width="62"
         height="137"
         id="rect11" />
    </clipPath>
    <clipPath
       id="clip11">
      <rect
         x="876"
         y="407"
         width="62"
         height="137"
         id="rect12" />
    </clipPath>
    <clipPath
       id="clip12">
      <rect
         x="876"
         y="407"
         width="62"
         height="137"
         id="rect13" />
    </clipPath>
    <clipPath
       id="clip13">
      <rect
         x="874"
         y="630"
         width="63"
         height="137"
         id="rect14" />
    </clipPath>
    <clipPath
       id="clip14">
      <rect
         x="874"
         y="630"
         width="63"
         height="137"
         id="rect15" />
    </clipPath>
    <clipPath
       id="clip15">
      <rect
         x="874"
         y="630"
         width="63"
         height="137"
         id="rect16" />
    </clipPath>
    <clipPath
       id="clip16">
      <rect
         x="640"
         y="630"
         width="138"
         height="63"
         id="rect17" />
    </clipPath>
    <clipPath
       id="clip17">
      <rect
         x="640"
         y="630"
         width="138"
         height="63"
         id="rect18" />
    </clipPath>
    <clipPath
       id="clip18">
      <rect
         x="640"
         y="630"
         width="138"
         height="63"
         id="rect19" />
    </clipPath>
    <clipPath
       id="clip19">
      <rect
         x="1070"
         y="628"
         width="138"
         height="63"
         id="rect20" />
    </clipPath>
    <clipPath
       id="clip20">
      <rect
         x="1070"
         y="628"
         width="138"
         height="63"
         id="rect21" />
    </clipPath>
    <clipPath
       id="clip21">
      <rect
         x="1070"
         y="628"
         width="138"
         height="63"
         id="rect22" />
    </clipPath>
    <clipPath
       id="clip22">
      <rect
         x="1246"
         y="466"
         width="138"
         height="63"
         id="rect23" />
    </clipPath>
    <clipPath
       id="clip23">
      <rect
         x="1246"
         y="466"
         width="138"
         height="63"
         id="rect24" />
    </clipPath>
    <clipPath
       id="clip24">
      <rect
         x="1246"
         y="466"
         width="138"
         height="63"
         id="rect25" />
    </clipPath>
    <clipPath
       id="clip25">
      <rect
         x="1302"
         y="627"
         width="62"
         height="137"
         id="rect26" />
    </clipPath>
    <clipPath
       id="clip26">
      <rect
         x="1302"
         y="627"
         width="62"
         height="137"
         id="rect27" />
    </clipPath>
    <clipPath
       id="clip27">
      <rect
         x="1302"
         y="627"
         width="62"
         height="137"
         id="rect28" />
    </clipPath>
  </defs>
  <g
     id="layer1"
     transform="translate(10.583338,-160.73432)">
    <g
       clip-path="url(#clip0)"
       transform="matrix(0.26458333,0,0,0.26458333,-179.91667,61.9125)"
       id="g89">
      <g
         clip-path="url(#clip1)"
         id="g32">
        <g
           clip-path="url(#clip2)"
           id="g31">
          <g
             clip-path="url(#clip3)"
             id="g30">
            <path
               d="m 58.4656,74.6239 c 0,30.8271 -11.627,55.8171 -25.9696,55.8171 -14.3426,0 -25.96957,-24.99 -25.96957,-55.8171 0,-30.8269 11.62697,-55.817 25.96957,-55.817 14.3426,0 25.9696,24.9901 25.9696,55.817 z"
               stroke="#000000"
               stroke-width="9.96364"
               stroke-miterlimit="3.5"
               fill="#030303"
               transform="matrix(1.01168,0,0,1,1568.44,642.748)"
               id="path28" />
            <path
               d="m 8.02203,95.6406 c 0,-4.4249 2.78167,-8.1433 6.09187,-8.1433 h 36.7642 c 3.3103,0 6.0919,3.7184 6.0919,8.1433 v 29.9424 c 0,4.425 -2.7816,8.143 -6.0919,8.143 H 14.1139 c -3.3102,0 -6.09187,-3.718 -6.09187,-8.143 z"
               stroke="#000000"
               stroke-width="9.9652"
               stroke-miterlimit="1.3"
               fill="#030303"
               transform="matrix(1.01168,0,0,1,1568.44,642.748)"
               id="path29" />
            <path
               d="m 55.2618,45.3113 c -1.3077,1.8664 -2.0709,1.6022 -9.0892,-3.1452 -3.5438,-2.3971 -6.5476,-4.3607 -6.6751,-4.3633 -0.1277,-0.0026 -0.3638,6.411 -0.525,14.2523 l -0.293,14.2573 -6.7267,-0.1383 -6.7266,-0.1382 0.2953,-14.3702 c 0.2276,-11.0802 0.0902,-14.2506 -0.6008,-13.8481 -0.493,0.2871 -3.7649,2.2476 -7.2711,4.3565 C 11.0405,46.1494 9.29076,46.1122 8.83295,41.9865 8.60512,39.9333 29.9984,8.48013 32.3357,7.43195 40.3825,18.2206 48.7729,31.0914 56.1607,42.9404 56.148,43.557 55.7434,44.6238 55.2618,45.3113 Z"
               stroke="#000000"
               stroke-width="9.96364"
               fill="#030303"
               transform="matrix(1.01168,0,0,1,1568.44,642.748)"
               id="path30" />
          </g>
        </g>
      </g>
      <g
         clip-path="url(#clip4)"
         id="g36">
        <g
           clip-path="url(#clip5)"
           id="g35">
          <g
             clip-path="url(#clip6)"
             id="g34">
            <path
               d="m 58.8924,75.1686 c 0,31.0524 -11.7119,56.2244 -26.1592,56.2244 -14.4473,0 -26.15913,-25.172 -26.15913,-56.2244 0,-31.0519 11.71183,-56.2245 26.15913,-56.2245 14.4473,0 26.1592,25.1726 26.1592,56.2245 z"
               stroke="#000000"
               stroke-width="10.0364"
               stroke-miterlimit="3.5"
               fill="#030303"
               transform="matrix(1.00435,0,0,1,1566.44,487.739)"
               id="path32" />
            <path
               d="m 8.08059,96.3387 c 0,-4.4572 2.80201,-8.2027 6.13631,-8.2027 h 37.0325 c 3.3345,0 6.1364,3.7455 6.1364,8.2027 V 126.5 c 0,4.457 -2.8019,8.202 -6.1364,8.202 H 14.2169 c -3.3343,0 -6.13631,-3.745 -6.13631,-8.202 z"
               stroke="#000000"
               stroke-width="10.0379"
               stroke-miterlimit="1.3"
               fill="#030303"
               transform="matrix(1.00435,0,0,1,1566.44,487.739)"
               id="path33" />
            <path
               d="M 55.6652,45.642 C 54.3479,47.5221 53.5791,47.256 46.5096,42.4739 42.94,40.0593 39.9142,38.0814 39.7858,38.0787 39.6572,38.0761 39.4193,44.5365 39.257,52.4351 L 38.9618,66.7964 32.186,66.6571 25.4103,66.5179 25.7078,52.0428 C 25.9371,40.8817 25.7986,37.6882 25.1026,38.0936 24.606,38.3828 21.3102,40.3576 17.7784,42.4819 11.1211,46.4863 9.35857,46.4488 8.89742,42.293 8.66793,40.2247 30.2174,8.54202 32.5718,7.4862 c 8.1055,10.8674 16.5571,23.8321 23.9988,35.7676 -0.0128,0.6212 -0.4203,1.6957 -0.9054,2.3882 z"
               stroke="#000000"
               stroke-width="10.0364"
               fill="#030303"
               transform="matrix(1.00435,0,0,1,1566.44,487.739)"
               id="path34" />
          </g>
        </g>
      </g>
      <g
         clip-path="url(#clip7)"
         id="g40">
        <g
           clip-path="url(#clip8)"
           id="g39">
          <g
             clip-path="url(#clip9)"
             id="g38">
            <path
               d="m 58.8924,75.1686 c 0,31.0524 -11.7119,56.2244 -26.1592,56.2244 -14.4473,0 -26.15913,-25.172 -26.15913,-56.2244 0,-31.0519 11.71183,-56.2245 26.15913,-56.2245 14.4473,0 26.1592,25.1726 26.1592,56.2245 z"
               stroke="#000000"
               stroke-width="10.0364"
               stroke-miterlimit="3.5"
               fill="#030303"
               transform="matrix(0,-1.00435,1,0,1524.74,448.563)"
               id="path36" />
            <path
               d="m 8.08059,96.3387 c 0,-4.4572 2.80201,-8.2027 6.13631,-8.2027 h 37.0325 c 3.3345,0 6.1364,3.7455 6.1364,8.2027 V 126.5 c 0,4.457 -2.8019,8.202 -6.1364,8.202 H 14.2169 c -3.3343,0 -6.13631,-3.745 -6.13631,-8.202 z"
               stroke="#000000"
               stroke-width="10.0379"
               stroke-miterlimit="1.3"
               fill="#030303"
               transform="matrix(0,-1.00435,1,0,1524.74,448.563)"
               id="path37" />
            <path
               d="M 55.6652,45.642 C 54.3479,47.5221 53.5791,47.256 46.5096,42.4739 42.94,40.0593 39.9142,38.0814 39.7858,38.0787 39.6572,38.0761 39.4193,44.5365 39.257,52.4351 L 38.9618,66.7964 32.186,66.6571 25.4103,66.5179 25.7078,52.0428 C 25.9371,40.8817 25.7986,37.6882 25.1026,38.0936 24.606,38.3828 21.3102,40.3576 17.7784,42.4819 11.1211,46.4863 9.35857,46.4488 8.89742,42.293 8.66793,40.2247 30.2174,8.54202 32.5718,7.4862 c 8.1055,10.8674 16.5571,23.8321 23.9988,35.7676 -0.0128,0.6212 -0.4203,1.6957 -0.9054,2.3882 z"
               stroke="#000000"
               stroke-width="10.0364"
               fill="#030303"
               transform="matrix(0,-1.00435,1,0,1524.74,448.563)"
               id="path38" />
          </g>
        </g>
      </g>
      <g
         clip-path="url(#clip10)"
         id="g44">
        <g
           clip-path="url(#clip11)"
           id="g43">
          <g
             clip-path="url(#clip12)"
             id="g42">
            <path
               d="m 58.2096,74.2971 c 0,30.6919 -11.5761,55.5729 -25.8559,55.5729 -14.2798,0 -25.85585,-24.881 -25.85585,-55.5729 0,-30.6919 11.57605,-55.5726 25.85585,-55.5726 14.2798,0 25.8559,24.8807 25.8559,55.5726 z"
               stroke="#000000"
               stroke-width="9.92"
               stroke-miterlimit="3.5"
               fill="#030303"
               transform="matrix(1,0,0,1.0044,874.462,405.748)"
               id="path40" />
            <path
               d="m 7.9869,95.2217 c 0,-4.4055 2.7695,-8.1076 6.0652,-8.1076 h 36.6031 c 3.2958,0 6.0653,3.7021 6.0653,8.1076 v 29.8113 c 0,4.406 -2.7695,8.107 -6.0653,8.107 H 14.0521 c -3.2957,0 -6.0652,-3.701 -6.0652,-8.107 z"
               stroke="#000000"
               stroke-width="9.92156"
               stroke-miterlimit="1.3"
               fill="#030303"
               transform="matrix(1,0,0,1.0044,874.462,405.748)"
               id="path41" />
            <path
               d="m 55.0198,45.1128 c -1.302,1.8583 -2.0619,1.5953 -9.0494,-3.1314 -3.5283,-2.3866 -6.5189,-4.3416 -6.6459,-4.3442 -0.1271,-0.0026 -0.3622,6.3829 -0.5227,14.19 l -0.2917,14.1947 -6.6973,-0.1376 -6.6971,-0.1376 0.294,-14.3073 C 25.6364,40.4078 25.4995,37.2512 24.8115,37.652 24.3207,37.9378 21.0631,39.8897 17.5723,41.9894 10.9921,45.9473 9.25007,45.9103 8.79427,41.8026 8.56743,39.7584 29.867,8.44299 32.1941,7.3994 c 8.0115,10.7414 16.3652,23.5558 23.7206,35.3529 -0.0126,0.614 -0.4154,1.676 -0.8949,2.3605 z"
               stroke="#000000"
               stroke-width="9.92"
               fill="#030303"
               transform="matrix(1,0,0,1.0044,874.462,405.748)"
               id="path42" />
          </g>
        </g>
      </g>
      <g
         clip-path="url(#clip13)"
         id="g48">
        <g
           clip-path="url(#clip14)"
           id="g47">
          <g
             clip-path="url(#clip15)"
             id="g46">
            <path
               d="m 58.4656,74.6239 c 0,30.8271 -11.627,55.8171 -25.9696,55.8171 -14.3426,0 -25.96957,-24.99 -25.96957,-55.8171 0,-30.8269 11.62697,-55.817 25.96957,-55.817 14.3426,0 25.9696,24.9901 25.9696,55.817 z"
               stroke="#000000"
               stroke-width="9.96364"
               stroke-miterlimit="3.5"
               fill="#030303"
               transform="matrix(1.01168,0,0,1,872.437,628.748)"
               id="path44" />
            <path
               d="m 8.02203,95.6406 c 0,-4.4249 2.78167,-8.1433 6.09187,-8.1433 h 36.7642 c 3.3103,0 6.0919,3.7184 6.0919,8.1433 v 29.9424 c 0,4.425 -2.7816,8.143 -6.0919,8.143 H 14.1139 c -3.3102,0 -6.09187,-3.718 -6.09187,-8.143 z"
               stroke="#000000"
               stroke-width="9.9652"
               stroke-miterlimit="1.3"
               fill="#030303"
               transform="matrix(1.01168,0,0,1,872.437,628.748)"
               id="path45" />
            <path
               d="m 55.2618,45.3113 c -1.3077,1.8664 -2.0709,1.6022 -9.0892,-3.1452 -3.5438,-2.3971 -6.5476,-4.3607 -6.6751,-4.3633 -0.1277,-0.0026 -0.3638,6.411 -0.525,14.2523 l -0.293,14.2573 -6.7267,-0.1383 -6.7266,-0.1382 0.2953,-14.3702 c 0.2276,-11.0802 0.0902,-14.2506 -0.6008,-13.8481 -0.493,0.2871 -3.7649,2.2476 -7.2711,4.3565 C 11.0405,46.1494 9.29076,46.1122 8.83295,41.9865 8.60512,39.9333 29.9984,8.48013 32.3357,7.43195 40.3825,18.2206 48.7729,31.0914 56.1607,42.9404 56.148,43.557 55.7434,44.6238 55.2618,45.3113 Z"
               stroke="#000000"
               stroke-width="9.96364"
               fill="#030303"
               transform="matrix(1.01168,0,0,1,872.437,628.748)"
               id="path46" />
          </g>
        </g>
      </g>
      <g
         clip-path="url(#clip16)"
         id="g52">
        <g
           clip-path="url(#clip17)"
           id="g51">
          <g
             clip-path="url(#clip18)"
             id="g50">
            <path
               d="m 58.8924,75.1686 c 0,31.0524 -11.7119,56.2244 -26.1592,56.2244 -14.4473,0 -26.15913,-25.172 -26.15913,-56.2244 0,-31.0519 11.71183,-56.2245 26.15913,-56.2245 14.4473,0 26.1592,25.1726 26.1592,56.2245 z"
               stroke="#000000"
               stroke-width="10.0364"
               stroke-miterlimit="3.5"
               fill="#030303"
               transform="matrix(0,1.00435,-1,0,779.261,628.437)"
               id="path48" />
            <path
               d="m 8.08059,96.3387 c 0,-4.4572 2.80201,-8.2027 6.13631,-8.2027 h 37.0325 c 3.3345,0 6.1364,3.7455 6.1364,8.2027 V 126.5 c 0,4.457 -2.8019,8.202 -6.1364,8.202 H 14.2169 c -3.3343,0 -6.13631,-3.745 -6.13631,-8.202 z"
               stroke="#000000"
               stroke-width="10.0379"
               stroke-miterlimit="1.3"
               fill="#030303"
               transform="matrix(0,1.00435,-1,0,779.261,628.437)"
               id="path49" />
            <path
               d="M 55.6652,45.642 C 54.3479,47.5221 53.5791,47.256 46.5096,42.4739 42.94,40.0593 39.9142,38.0814 39.7858,38.0787 39.6572,38.0761 39.4193,44.5365 39.257,52.4351 L 38.9618,66.7964 32.186,66.6571 25.4103,66.5179 25.7078,52.0428 C 25.9371,40.8817 25.7986,37.6882 25.1026,38.0936 24.606,38.3828 21.3102,40.3576 17.7784,42.4819 11.1211,46.4863 9.35857,46.4488 8.89742,42.293 8.66793,40.2247 30.2174,8.54202 32.5718,7.4862 c 8.1055,10.8674 16.5571,23.8321 23.9988,35.7676 -0.0128,0.6212 -0.4203,1.6957 -0.9054,2.3882 z"
               stroke="#000000"
               stroke-width="10.0364"
               fill="#030303"
               transform="matrix(0,1.00435,-1,0,779.261,628.437)"
               id="path50" />
          </g>
        </g>
      </g>
      <g
         clip-path="url(#clip19)"
         id="g56">
        <g
           clip-path="url(#clip20)"
           id="g55">
          <g
             clip-path="url(#clip21)"
             id="g54">
            <path
               d="m 58.8924,75.1686 c 0,31.0524 -11.7119,56.2244 -26.1592,56.2244 -14.4473,0 -26.15913,-25.172 -26.15913,-56.2244 0,-31.0519 11.71183,-56.2245 26.15913,-56.2245 14.4473,0 26.1592,25.1726 26.1592,56.2245 z"
               stroke="#000000"
               stroke-width="10.0364"
               stroke-miterlimit="3.5"
               fill="#030303"
               transform="matrix(0,1.00435,-1,0,1209.26,626.437)"
               id="path52" />
            <path
               d="m 8.08059,96.3387 c 0,-4.4572 2.80201,-8.2027 6.13631,-8.2027 h 37.0325 c 3.3345,0 6.1364,3.7455 6.1364,8.2027 V 126.5 c 0,4.457 -2.8019,8.202 -6.1364,8.202 H 14.2169 c -3.3343,0 -6.13631,-3.745 -6.13631,-8.202 z"
               stroke="#000000"
               stroke-width="10.0379"
               stroke-miterlimit="1.3"
               fill="#030303"
               transform="matrix(0,1.00435,-1,0,1209.26,626.437)"
               id="path53" />
            <path
               d="M 55.6652,45.642 C 54.3479,47.5221 53.5791,47.256 46.5096,42.4739 42.94,40.0593 39.9142,38.0814 39.7858,38.0787 39.6572,38.0761 39.4193,44.5365 39.257,52.4351 L 38.9618,66.7964 32.186,66.6571 25.4103,66.5179 25.7078,52.0428 C 25.9371,40.8817 25.7986,37.6882 25.1026,38.0936 24.606,38.3828 21.3102,40.3576 17.7784,42.4819 11.1211,46.4863 9.35857,46.4488 8.89742,42.293 8.66793,40.2247 30.2174,8.54202 32.5718,7.4862 c 8.1055,10.8674 16.5571,23.8321 23.9988,35.7676 -0.0128,0.6212 -0.4203,1.6957 -0.9054,2.3882 z"
               stroke="#000000"
               stroke-width="10.0364"
               fill="#030303"
               transform="matrix(0,1.00435,-1,0,1209.26,626.437)"
               id="path54" />
          </g>
        </g>
      </g>
      <g
         clip-path="url(#clip22)"
         id="g60">
        <g
           clip-path="url(#clip23)"
           id="g59">
          <g
             clip-path="url(#clip24)"
             id="g58">
            <path
               d="m 58.8924,75.1686 c 0,31.0524 -11.7119,56.2244 -26.1592,56.2244 -14.4473,0 -26.15913,-25.172 -26.15913,-56.2244 0,-31.0519 11.71183,-56.2245 26.15913,-56.2245 14.4473,0 26.1592,25.1726 26.1592,56.2245 z"
               stroke="#000000"
               stroke-width="10.0364"
               stroke-miterlimit="3.5"
               fill="#030303"
               transform="matrix(0,-1.00435,1,0,1244.74,530.563)"
               id="path56" />
            <path
               d="m 8.08059,96.3387 c 0,-4.4572 2.80201,-8.2027 6.13631,-8.2027 h 37.0325 c 3.3345,0 6.1364,3.7455 6.1364,8.2027 V 126.5 c 0,4.457 -2.8019,8.202 -6.1364,8.202 H 14.2169 c -3.3343,0 -6.13631,-3.745 -6.13631,-8.202 z"
               stroke="#000000"
               stroke-width="10.0379"
               stroke-miterlimit="1.3"
               fill="#030303"
               transform="matrix(0,-1.00435,1,0,1244.74,530.563)"
               id="path57" />
            <path
               d="M 55.6652,45.642 C 54.3479,47.5221 53.5791,47.256 46.5096,42.4739 42.94,40.0593 39.9142,38.0814 39.7858,38.0787 39.6572,38.0761 39.4193,44.5365 39.257,52.4351 L 38.9618,66.7964 32.186,66.6571 25.4103,66.5179 25.7078,52.0428 C 25.9371,40.8817 25.7986,37.6882 25.1026,38.0936 24.606,38.3828 21.3102,40.3576 17.7784,42.4819 11.1211,46.4863 9.35857,46.4488 8.89742,42.293 8.66793,40.2247 30.2174,8.54202 32.5718,7.4862 c 8.1055,10.8674 16.5571,23.8321 23.9988,35.7676 -0.0128,0.6212 -0.4203,1.6957 -0.9054,2.3882 z"
               stroke="#000000"
               stroke-width="10.0364"
               fill="#030303"
               transform="matrix(0,-1.00435,1,0,1244.74,530.563)"
               id="path58" />
          </g>
        </g>
      </g>
      <g
         clip-path="url(#clip25)"
         id="g64">
        <g
           clip-path="url(#clip26)"
           id="g63">
          <g
             clip-path="url(#clip27)"
             id="g62">
            <path
               d="m 58.2096,74.2971 c 0,30.6919 -11.5761,55.5729 -25.8559,55.5729 -14.2798,0 -25.85585,-24.881 -25.85585,-55.5729 0,-30.6919 11.57605,-55.5726 25.85585,-55.5726 14.2798,0 25.8559,24.8807 25.8559,55.5726 z"
               stroke="#000000"
               stroke-width="9.92"
               stroke-miterlimit="3.5"
               fill="#030303"
               transform="matrix(1,0,0,1.0044,1300.46,625.748)"
               id="path60" />
            <path
               d="m 7.9869,95.2217 c 0,-4.4055 2.7695,-8.1076 6.0652,-8.1076 h 36.6031 c 3.2958,0 6.0653,3.7021 6.0653,8.1076 v 29.8113 c 0,4.406 -2.7695,8.107 -6.0653,8.107 H 14.0521 c -3.2957,0 -6.0652,-3.701 -6.0652,-8.107 z"
               stroke="#000000"
               stroke-width="9.92156"
               stroke-miterlimit="1.3"
               fill="#030303"
               transform="matrix(1,0,0,1.0044,1300.46,625.748)"
               id="path61" />
            <path
               d="m 55.0198,45.1128 c -1.302,1.8583 -2.0619,1.5953 -9.0494,-3.1314 -3.5283,-2.3866 -6.5189,-4.3416 -6.6459,-4.3442 -0.1271,-0.0026 -0.3622,6.3829 -0.5227,14.19 l -0.2917,14.1947 -6.6973,-0.1376 -6.6971,-0.1376 0.294,-14.3073 C 25.6364,40.4078 25.4995,37.2512 24.8115,37.652 24.3207,37.9378 21.0631,39.8897 17.5723,41.9894 10.9921,45.9473 9.25007,45.9103 8.79427,41.8026 8.56743,39.7584 29.867,8.44299 32.1941,7.3994 c 8.0115,10.7414 16.3652,23.5558 23.7206,35.3529 -0.0126,0.614 -0.4154,1.676 -0.8949,2.3605 z"
               stroke="#000000"
               stroke-width="9.92"
               fill="#030303"
               transform="matrix(1,0,0,1.0044,1300.46,625.748)"
               id="path62" />
          </g>
        </g>
      </g>
      <path
         d="m 894,695.5 c 0,-5.799 4.701,-10.5 10.5,-10.5 5.799,0 10.5,4.701 10.5,10.5 0,5.799 -4.701,10.5 -10.5,10.5 -5.799,0 -10.5,-4.701 -10.5,-10.5 z"
         stroke="#0000ff"
         stroke-width="1.66667"
         stroke-miterlimit="8"
         fill="#0000ff"
         fill-rule="evenodd"
         id="path64" />
      <path
         d="M 2.70813,-0.0329162 2.77397,5.38335 -2.6423,5.44918 -2.70813,0.0329162 Z M 2.8398,10.7996 2.90563,16.2159 -2.51064,16.2817 -2.57647,10.8654 Z M 2.97146,21.6322 3.0373,27.0484 -2.37897,27.1143 -2.4448,21.698 Z m 0.13167,10.8325 0.06583,5.4163 -5.41627,0.0658 -0.06583,-5.4163 z m 0.13166,10.8325 0.06584,5.4163 -5.41627,0.0658 -0.06583,-5.4163 z m 0.13167,10.8325 0.06583,5.4163 -5.41627,0.0658 -0.06583,-5.4162 z m 0.13166,10.8326 0.06584,5.4162 -5.41627,0.0659 -0.06583,-5.4163 z m 0.13167,10.8325 0.06583,5.4163 -5.41627,0.0658 -0.06583,-5.4163 z m 0.13166,10.8326 0.06584,5.4162 -5.41627,0.0659 -0.06583,-5.4163 z M 1.12324,92.4126 9.11597,81.4813 1.32073,108.661 -7.13283,81.6788 Z"
         fill="#0000ff"
         transform="matrix(1,0,0,-1,905.5,673.161)"
         id="path65" />
      <path
         d="m 712.5,650 c 5.799,0 10.5,4.701 10.5,10.5 0,5.799 -4.701,10.5 -10.5,10.5 -5.799,0 -10.5,-4.701 -10.5,-10.5 0,-5.799 4.701,-10.5 10.5,-10.5 z"
         stroke="#ff0000"
         stroke-width="1.66667"
         stroke-miterlimit="8"
         fill="#ff0000"
         fill-rule="evenodd"
         id="path66" />
      <path
         d="m 901.793,696.039 0.187,-5.414 5.413,0.187 -0.186,5.413 z m 0.523,-11.023 0.598,-5.384 5.383,0.598 -0.598,5.384 z m 1.471,-10.92 0.975,-5.328 5.328,0.976 -0.975,5.328 z m 2.332,-10.755 0.901,-3.579 0.58,-1.808 5.158,1.655 -0.554,1.726 0.047,-0.167 -0.88,3.496 z m 3.136,-10.545 0.507,-1.58 1.46,-3.663 5.032,2.005 -1.425,3.577 0.062,-0.175 -0.478,1.491 z m 4.086,-10.425 2.341,-4.885 4.885,2.342 -2.342,4.884 z m 4.956,-9.835 2.52,-4.449 0.278,-0.417 4.506,3.005 -0.222,0.334 0.103,-0.167 -2.472,4.363 z m 5.802,-9.373 1.212,-1.817 2.16,-2.708 4.234,3.379 -2.088,2.617 0.137,-0.187 -1.148,1.721 z m 6.97,-8.858 3.71,-3.947 3.947,3.709 -3.71,3.947 z m 8.042,-7.693 1.515,-1.278 3.135,-2.066 2.98,4.523 -3.001,1.978 0.256,-0.192 -1.393,1.175 z m 9.66,-6.196 3.254,-1.571 2.162,-0.631 1.519,5.199 -1.946,0.569 0.417,-0.161 -3.051,1.473 z m 11.16,-3.519 3.952,-0.4 1.5,-0.118 0.425,5.4 -1.471,0.116 0.061,-0.006 -3.922,0.397 z m 10.474,-1.063 4.28,-0.913 -0.37,0.107 0.977,-0.36 1.87,5.084 -1.158,0.426 -4.468,0.954 z m 9.678,-2.987 4.717,-2.331 -0.27,0.154 0.13,-0.084 2.94,4.549 -0.261,0.169 -4.856,2.4 z m 9.126,-5.201 0.446,-0.289 -0.202,0.145 3.844,-3.017 3.344,4.261 -3.942,3.093 -0.549,0.356 z m 7.917,-6.623 1.7,-1.608 -0.165,0.171 2.039,-2.303 4.05,3.593 -2.11,2.392 -1.79,1.69 z m 6.914,-7.722 2.86,-3.798 -0.12,0.173 0.35,-0.559 4.57,2.912 -0.41,0.648 -2.92,3.882 z m 6.01,-8.751 0.35,-0.561 -0.1,0.185 2.23,-4.196 4.78,2.541 -2.28,4.291 -0.42,0.651 z m 4.65,-9.271 1.37,-3.208 -0.07,0.19 0.62,-1.828 5.13,1.743 -0.66,1.924 -1.4,3.301 z m 3.55,-9.756 0.87,-3.584 5.26,1.279 -0.87,3.584 z m 3.5,-2.944 -9.36,9.787 11.3,-25.921 4.84,27.858 z"
         fill="#0000ff"
         id="path67" />
      <path
         d="m 719.593,658.793 9.166,0.316 9.197,1.022 3.58,0.656 -0.976,5.328 -3.485,-0.638 0.188,0.027 -9,-1 0.206,0.015 -9.062,-0.312 z m 38.085,5.807 6.738,2.162 8.172,3.256 5.558,2.664 -2.342,4.885 -5.475,-2.625 0.169,0.074 -8,-3.188 0.174,0.063 -6.649,-2.133 z m 34.791,16.499 1.817,1.212 6.051,4.828 5.382,5.057 3.301,3.915 -4.14,3.492 -3.2,-3.794 0.215,0.227 -5.187,-4.875 0.165,0.144 -5.875,-4.688 0.187,0.136 -1.721,-1.147 z m 24.949,30.088 1.127,3.855 0.59,5.841 0.44,5.592 -0.051,-0.353 1.187,5.563 -0.107,-0.37 0.36,0.977 -5.084,1.87 -0.426,-1.158 -1.265,-5.926 -0.452,-5.741 0.006,0.06 -0.563,-5.562 0.095,0.487 -1.056,-3.616 z m 10.569,35.022 0.288,0.446 -0.144,-0.202 3.875,4.937 -0.163,-0.189 4.375,4.625 -0.172,-0.166 4.938,4.375 -0.167,-0.136 1.514,1.14 -3.258,4.328 -1.601,-1.206 -5.107,-4.526 -4.543,-4.802 -4.029,-5.134 -0.356,-0.55 z m 27.667,23.316 1.804,0.958 -0.21,-0.1 6.313,2.688 -0.19,-0.073 6.438,2.188 -0.232,-0.068 4.116,1 -1.279,5.264 -4.233,-1.029 -6.649,-2.259 -6.512,-2.773 -1.907,-1.012 z m 17.399,9.225 -9.787,-9.359 25.922,11.297 -27.859,4.838 z"
         fill="#ff0000"
         id="path68" />
      <text
         fill="#0000ff"
         font-family="'Times New Roman', 'Times New Roman_MSFontService', sans-serif"
         font-weight="700"
         font-size="47px"
         transform="translate(938.663,690)"
         id="text69">OS<tspan
   fill="#ff0000"
   font-size="47px"
   x="-257.06699"
   y="-68"
   id="tspan68">TS</tspan><tspan
   fill="#ff0000"
   font-size="31px"
   x="-199.983"
   y="-57"
   id="tspan69">1</tspan></text>
      <path
         d="m 896,472.5 c 0,-5.799 4.701,-10.5 10.5,-10.5 5.799,0 10.5,4.701 10.5,10.5 0,5.799 -4.701,10.5 -10.5,10.5 -5.799,0 -10.5,-4.701 -10.5,-10.5 z"
         stroke="#008000"
         stroke-width="1.66667"
         stroke-miterlimit="8"
         fill="#008000"
         fill-rule="evenodd"
         id="path69" />
      <text
         fill="#181f2b"
         font-family="'Times New Roman', 'Times New Roman_MSFontService', sans-serif"
         font-weight="400"
         font-size="40px"
         transform="translate(651.699,833)"
         id="text71">Crossing and overtaking<tspan
   fill="#008000"
   font-weight="700"
   font-size="47px"
   x="291.43799"
   y="-366"
   id="tspan70">TS</tspan><tspan
   fill="#008000"
   font-weight="700"
   font-size="31px"
   x="348.521"
   y="-355"
   id="tspan71">2</tspan></text>
      <path
         d="M 2.70833,-3.84433e-6 2.70844,76.2042 H -2.70823 L -2.70833,3.84433e-6 Z M 1.08168e-4,76.2042 8.12509,65.3709 1.31234e-4,92.4542 -8.12491,65.3709 Z"
         fill="#008000"
         transform="matrix(1,0,0,-1,906.5,465.954)"
         id="path71" />
      <path
         d="m 1322,693.5 c 0,-5.799 4.7,-10.5 10.5,-10.5 5.8,0 10.5,4.701 10.5,10.5 0,5.799 -4.7,10.5 -10.5,10.5 -5.8,0 -10.5,-4.701 -10.5,-10.5 z"
         stroke="#0000ff"
         stroke-width="1.66667"
         stroke-miterlimit="8"
         fill="#0000ff"
         fill-rule="evenodd"
         id="path72" />
      <path
         d="M 2.70813,-0.0329162 2.77397,5.38335 -2.6423,5.44918 -2.70813,0.0329162 Z M 2.8398,10.7996 2.90563,16.2159 -2.51064,16.2817 -2.57647,10.8654 Z M 2.97146,21.6322 3.0373,27.0484 -2.37897,27.1143 -2.4448,21.698 Z m 0.13167,10.8325 0.06583,5.4163 -5.41627,0.0658 -0.06583,-5.4163 z m 0.13166,10.8325 0.06584,5.4163 -5.41627,0.0658 -0.06583,-5.4163 z m 0.13167,10.8325 0.06583,5.4163 -5.41627,0.0658 -0.06583,-5.4162 z m 0.13166,10.8326 0.06584,5.4162 -5.41627,0.0659 -0.06583,-5.4163 z m 0.13167,10.8325 0.06583,5.4163 -5.41627,0.0658 -0.06583,-5.4163 z m 0.13166,10.8326 0.06584,5.4162 -5.41627,0.0659 -0.06583,-5.4163 z M 1.12324,92.4126 9.11597,81.4813 1.32073,108.661 -7.13283,81.6788 Z"
         fill="#0000ff"
         transform="matrix(1,0,0,-1,1333.5,671.161)"
         id="path73" />
      <path
         d="m 1141.5,648 c 5.8,0 10.5,4.701 10.5,10.5 0,5.799 -4.7,10.5 -10.5,10.5 -5.8,0 -10.5,-4.701 -10.5,-10.5 0,-5.799 4.7,-10.5 10.5,-10.5 z"
         stroke="#ff0000"
         stroke-width="1.66667"
         stroke-miterlimit="8"
         fill="#ff0000"
         fill-rule="evenodd"
         id="path74" />
      <path
         d="m 1330.79,694.039 0.19,-5.414 5.41,0.187 -0.18,5.413 z m 0.53,-11.023 0.59,-5.384 5.39,0.598 -0.6,5.384 z m 1.47,-10.92 0.97,-5.328 5.33,0.976 -0.98,5.328 z m 2.33,-10.755 0.9,-3.579 0.58,-1.808 5.16,1.655 -0.56,1.726 0.05,-0.167 -0.88,3.496 z m 3.14,-10.545 0.5,-1.58 1.46,-3.663 5.03,2.005 -1.42,3.577 0.06,-0.175 -0.48,1.491 z m 4.08,-10.425 2.34,-4.885 4.89,2.342 -2.34,4.884 z m 4.96,-9.835 2.52,-4.449 0.27,-0.417 4.51,3.005 -0.22,0.334 0.1,-0.167 -2.47,4.363 z m 5.8,-9.373 1.21,-1.817 2.16,-2.708 4.24,3.379 -2.09,2.617 0.13,-0.187 -1.14,1.721 z m 6.97,-8.858 3.71,-3.947 3.95,3.709 -3.71,3.947 z m 8.04,-7.693 1.52,-1.278 3.13,-2.066 2.98,4.523 -3,1.978 0.26,-0.192 -1.4,1.175 z m 9.66,-6.196 3.26,-1.571 2.16,-0.631 1.52,5.199 -1.95,0.569 0.42,-0.161 -3.05,1.473 z m 11.16,-3.519 3.95,-0.4 1.5,-0.118 0.43,5.4 -1.47,0.116 0.06,-0.006 -3.92,0.397 z m 10.48,-1.063 4.27,-0.913 -0.36,0.107 0.97,-0.36 1.87,5.084 -1.16,0.426 -4.46,0.954 z m 9.67,-2.987 4.72,-2.331 -0.27,0.154 0.13,-0.084 2.94,4.549 -0.26,0.169 -4.86,2.4 z m 9.13,-5.201 0.45,-0.289 -0.21,0.145 3.85,-3.017 3.34,4.261 -3.94,3.093 -0.55,0.356 z m 7.92,-6.623 1.7,-1.608 -0.17,0.171 2.04,-2.303 4.05,3.593 -2.11,2.392 -1.79,1.69 z m 6.91,-7.722 2.86,-3.798 -0.12,0.173 0.36,-0.559 4.56,2.912 -0.41,0.648 -2.92,3.882 z m 6.01,-8.751 0.35,-0.561 -0.1,0.185 2.23,-4.196 4.78,2.541 -2.28,4.291 -0.42,0.651 z m 4.65,-9.271 1.37,-3.208 -0.07,0.19 0.62,-1.828 5.13,1.743 -0.66,1.924 -1.4,3.301 z m 3.55,-9.756 0.87,-3.584 5.26,1.279 -0.87,3.584 z m 3.5,-2.944 -9.36,9.787 11.3,-25.921 4.84,27.858 z"
         fill="#0000ff"
         id="path75" />
      <path
         d="m 1149.59,656.793 9.17,0.316 9.2,1.022 3.58,0.656 -0.98,5.328 -3.49,-0.638 0.19,0.027 -9,-1 0.21,0.015 -9.06,-0.312 z m 38.09,5.807 6.74,2.162 8.17,3.256 5.56,2.664 -2.35,4.885 -5.47,-2.625 0.17,0.074 -8,-3.188 0.17,0.063 -6.65,-2.133 z m 34.79,16.499 1.82,1.212 6.05,4.828 5.38,5.057 3.3,3.915 -4.14,3.492 -3.2,-3.794 0.22,0.227 -5.19,-4.875 0.16,0.144 -5.87,-4.688 0.19,0.136 -1.73,-1.147 z m 24.95,30.088 1.12,3.855 0.6,5.841 0.43,5.592 -0.05,-0.353 1.19,5.563 -0.11,-0.37 0.36,0.977 -5.08,1.87 -0.43,-1.158 -1.26,-5.926 -0.45,-5.741 v 0.06 l -0.56,-5.562 0.1,0.487 -1.06,-3.616 z m 10.57,35.022 0.28,0.446 -0.14,-0.202 3.88,4.937 -0.17,-0.189 4.38,4.625 -0.17,-0.166 4.93,4.375 -0.16,-0.136 1.51,1.14 -3.26,4.328 -1.6,-1.206 -5.11,-4.526 -4.54,-4.802 -4.03,-5.134 -0.35,-0.55 z m 27.66,23.316 1.81,0.958 -0.21,-0.1 6.31,2.688 -0.19,-0.073 6.44,2.188 -0.23,-0.068 4.11,1 -1.28,5.264 -4.23,-1.029 -6.65,-2.259 -6.51,-2.773 -1.91,-1.012 z m 17.4,9.225 -9.78,-9.359 25.92,11.297 -27.86,4.838 z"
         fill="#ff0000"
         id="path76" />
      <text
         fill="#0000ff"
         font-family="'Times New Roman', 'Times New Roman_MSFontService', sans-serif"
         font-weight="700"
         font-size="47px"
         transform="translate(1363.17,689)"
         id="text77">OS<tspan
   fill="#ff0000"
   font-size="47px"
   x="-258.20099"
   y="-75"
   id="tspan76">TS</tspan><tspan
   fill="#ff0000"
   font-size="31px"
   x="-201.118"
   y="-64"
   id="tspan77">1</tspan></text>
      <path
         d="m 1304,496.5 c 0,-5.799 4.7,-10.5 10.5,-10.5 5.8,0 10.5,4.701 10.5,10.5 0,5.799 -4.7,10.5 -10.5,10.5 -5.8,0 -10.5,-4.701 -10.5,-10.5 z"
         stroke="#008000"
         stroke-width="1.66667"
         stroke-miterlimit="8"
         fill="#008000"
         fill-rule="evenodd"
         id="path77" />
      <text
         font-family="'Times New Roman', 'Times New Roman_MSFontService', sans-serif"
         font-weight="400"
         font-size="40px"
         transform="translate(1081.93,833)"
         id="text81">Two<tspan
   font-size="40px"
   x="70.541702"
   y="0"
   id="tspan78">-</tspan><tspan
   font-size="40px"
   x="83.875"
   y="0"
   id="tspan79">way crossing</tspan><tspan
   fill="#008000"
   font-weight="700"
   font-size="47px"
   x="201.93201"
   y="-378"
   id="tspan80">TS</tspan><tspan
   fill="#008000"
   font-weight="700"
   font-size="31px"
   x="259.01501"
   y="-367"
   id="tspan81">2</tspan></text>
      <path
         d="M 3.32428e-6,-2.70833 90.6676,-2.70822 V 2.70844 L -3.32428e-6,2.70833 Z M 90.6676,1.11288e-4 79.8343,-8.1249 106.918,1.31234e-4 79.8342,8.1251 Z"
         fill="#008000"
         transform="matrix(-1,0,0,1,1314.42,496.5)"
         id="path81" />
      <path
         d="m 1588,566.5 c 0,-5.799 4.7,-10.5 10.5,-10.5 5.8,0 10.5,4.701 10.5,10.5 0,5.799 -4.7,10.5 -10.5,10.5 -5.8,0 -10.5,-4.701 -10.5,-10.5 z"
         stroke="#0000ff"
         stroke-width="1.66667"
         stroke-miterlimit="8"
         fill="#0000ff"
         fill-rule="evenodd"
         id="path82" />
      <path
         d="M 2.70821,-0.0256673 2.75955,5.39076 -2.65688,5.44209 -2.70821,0.0256673 Z M 2.81088,10.8072 l 0.05134,5.4164 -5.41643,0.0513 -0.05133,-5.4164 z m 0.10267,10.8328 0.05133,5.4164 -5.41642,0.0514 -0.05133,-5.4164 z m 0.10267,10.8329 0.05133,5.4164 -5.41642,0.0513 -0.05133,-5.4164 z m 0.10267,10.8328 0.05133,5.4164 -5.41642,0.0514 -0.05133,-5.4164 z m 0.10267,10.8329 0.05133,5.4164 -5.41642,0.0513 -0.05134,-5.4164 z m 0.10267,10.8328 0.05133,5.4164 -5.41642,0.0514 -0.05134,-5.4164 z M 3.4269,75.8043 3.47823,81.2207 -1.93819,81.272 -1.98953,75.8556 Z M 0.771455,81.3978 8.79342,70.488 0.925459,97.6471 -7.45585,70.642 Z"
         fill="#0000ff"
         transform="matrix(1,0,0,-1,1598.5,556.147)"
         id="path83" />
      <text
         fill="#0000ff"
         font-family="'Times New Roman', 'Times New Roman_MSFontService', sans-serif"
         font-weight="700"
         font-size="47px"
         transform="translate(1631.67,571)"
         id="text83">OS</text>
      <path
         d="m 1591,708.5 c 0,-5.799 4.7,-10.5 10.5,-10.5 5.8,0 10.5,4.701 10.5,10.5 0,5.799 -4.7,10.5 -10.5,10.5 -5.8,0 -10.5,-4.701 -10.5,-10.5 z"
         stroke="#ff0000"
         stroke-width="1.66667"
         stroke-miterlimit="8"
         fill="#ff0000"
         fill-rule="evenodd"
         id="path84" />
      <path
         d="m 1598.79,702.022 0.32,-7.809 1.03,-7.857 1.36,-6.25 5.29,1.147 -1.33,6.14 0.04,-0.221 -1,7.625 0.02,-0.242 -0.31,7.687 z m 7.87,-37.732 0.16,-0.407 3.27,-6.933 3.73,-6.616 3.68,-5.467 4.49,3.026 -3.62,5.377 0.11,-0.184 -3.62,6.437 0.09,-0.172 -3.19,6.75 0.08,-0.193 -0.11,0.309 z m 21.98,-32.114 3.73,-3.35 5.43,-3.858 5.57,-3.15 4.17,-1.723 2.07,5.005 -4.01,1.66 0.29,-0.145 -5.31,3 0.24,-0.15 -5.19,3.687 0.24,-0.192 -3.62,3.247 z m 35.63,-14.984 2.18,-0.195 -0.47,0.083 5.56,-1.5 -0.35,0.122 5.44,-2.312 -0.36,0.182 5.32,-3.25 -0.24,0.162 1.26,-0.968 3.3,4.296 -1.37,1.055 -5.61,3.429 -5.79,2.464 -5.97,1.611 -2.41,0.216 z m 29.75,-18.408 1.62,-1.868 -0.13,0.172 4.37,-5.937 -0.11,0.167 4,-6.375 -0.1,0.176 2,-3.794 4.79,2.526 -2.05,3.884 -4.11,6.547 -4.5,6.108 -1.7,1.95 z m 17.93,-32.002 1.06,-2.994 -0.06,0.182 2.19,-7.875 -0.04,0.185 1.62,-8 -0.03,0.211 0.02,-0.176 5.37,0.657 -0.03,0.282 -1.66,8.198 -2.24,8.059 -1.1,3.085 z m 7.45,-18.139 -8.96,10.154 10.25,-26.352 5.95,27.643 z"
         fill="#ff0000"
         id="path85" />
      <text
         fill="#ff0000"
         font-family="'Times New Roman', 'Times New Roman_MSFontService', sans-serif"
         font-weight="700"
         font-size="47px"
         transform="translate(1625.4,703)"
         id="text85">TS<tspan
   font-size="31px"
   x="57.083401"
   y="11"
   id="tspan85">1</tspan></text>
      <path
         d="m 1595.8,554.699 0.32,-5.407 5.41,0.324 -0.33,5.407 z m 1.13,-11.034 0.29,-1.806 0.99,-3.727 5.24,1.389 -0.96,3.597 0.06,-0.262 -0.27,1.673 z m 3.03,-10.945 1.3,-3.436 0.88,-1.791 4.86,2.38 -0.82,1.678 0.1,-0.23 -1.25,3.318 z m 4.72,-10.248 2.76,-4.663 4.66,2.756 -2.76,4.663 z m 5.98,-9.278 0.69,-0.989 2.88,-3.399 4.13,3.499 -2.79,3.305 0.15,-0.192 -0.63,0.889 z m 7.46,-8.496 2.17,-2.145 1.94,-1.66 3.52,4.117 -1.86,1.597 0.14,-0.13 -2.11,2.078 z m 8.52,-7.361 3.85,-2.706 0.86,-0.484 2.66,4.717 -0.74,0.418 0.23,-0.144 -3.74,2.629 z m 9.65,-5.953 4.95,-2.215 2.21,4.942 -4.94,2.216 z m 10.36,-4.022 0.98,-0.314 4.61,-0.922 1.06,5.312 -4.46,0.891 0.3,-0.078 -0.83,0.267 z m 11.33,-1.791 1.53,-0.1 3.87,-0.253 0.36,5.405 -3.88,0.253 -1.53,0.1 z m 10.4,-1.116 2.22,-0.438 -0.31,0.081 3,-0.977 1.67,5.15 -3.15,1.028 -2.38,0.47 z m 9.7,-3.173 3.01,-1.335 -0.25,0.125 1.85,-1.053 2.68,4.703 -1.96,1.121 -3.14,1.391 z m 9.02,-4.932 3.84,-2.704 -0.19,0.145 0.55,-0.463 3.5,4.139 -0.64,0.54 -3.94,2.773 z m 8.34,-6.516 0.13,-0.105 -0.19,0.168 3.69,-3.741 3.86,3.803 -3.78,3.829 -0.22,0.185 z m 7.05,-7.606 1.32,-1.554 -0.14,0.18 1.96,-2.755 4.41,3.138 -2.02,2.849 -1.39,1.641 z m 6.01,-8.474 2.05,-3.415 -0.12,0.228 0.62,-1.289 4.88,2.337 -0.67,1.407 -2.12,3.527 z m 4.75,-9.161 1.91,-5.072 5.07,1.902 -1.9,5.072 z m 5.27,-7.028 -9.6,9.544 11.96,-25.623 4.12,27.974 z"
         fill="#0000ff"
         id="path86" />
      <path
         d="m 1584,414.5 c 0,-5.799 4.7,-10.5 10.5,-10.5 5.8,0 10.5,4.701 10.5,10.5 0,5.799 -4.7,10.5 -10.5,10.5 -5.8,0 -10.5,-4.701 -10.5,-10.5 z"
         stroke="#008000"
         stroke-width="1.66667"
         stroke-miterlimit="8"
         fill="#008000"
         fill-rule="evenodd"
         id="path87" />
      <text
         fill="#008000"
         font-family="'Times New Roman', 'Times New Roman_MSFontService', sans-serif"
         font-weight="700"
         font-size="47px"
         transform="translate(1478.77,460)"
         id="text87">TS<tspan
   font-size="31px"
   x="57.083401"
   y="11"
   id="tspan87">2</tspan></text>
      <path
         d="M 3.32428e-6,-2.70833 90.6676,-2.70822 V 2.70844 L -3.32428e-6,2.70833 Z M 90.6676,1.11288e-4 79.8343,-8.1249 106.918,1.31234e-4 79.8342,8.1251 Z"
         fill="#008000"
         transform="matrix(-1,0,0,1,1589.42,416.5)"
         id="path88" />
      <text
         font-family="'Times New Roman', 'Times New Roman_MSFontService', sans-serif"
         font-weight="400"
         font-size="40px"
         transform="translate(1434.84,831)"
         id="text89">Overtaking<tspan
   font-size="40px"
   x="189.79201"
   y="0"
   id="tspan88">and</tspan><tspan
   font-size="40px"
   x="257.5"
   y="0"
   id="tspan89">crossing</tspan></text>
    </g>
  </g>
</svg>
