<?xml version="1.0" encoding="UTF-8" standalone="no"?>
<!-- Created with Inkscape (http://www.inkscape.org/) -->

<svg
   width="188.63031mm"
   height="188.49487mm"
   viewBox="0 0 188.63031 188.49487"
   version="1.1"
   id="svg1"
   sodipodi:docname="angles.svg"
   inkscape:version="1.4 (86a8ad7, 2024-10-11)"
   xmlns:inkscape="http://www.inkscape.org/namespaces/inkscape"
   xmlns:sodipodi="http://sodipodi.sourceforge.net/DTD/sodipodi-0.dtd"
   xmlns="http://www.w3.org/2000/svg"
   xmlns:svg="http://www.w3.org/2000/svg">
  <sodipodi:namedview
     id="namedview1"
     pagecolor="#ffffff"
     bordercolor="#000000"
     borderopacity="0.25"
     inkscape:showpageshadow="2"
     inkscape:pageopacity="0.0"
     inkscape:pagecheckerboard="0"
     inkscape:deskcolor="#d1d1d1"
     inkscape:document-units="mm"
     inkscape:zoom="0.59725873"
     inkscape:cx="386.76706"
     inkscape:cy="432.81075"
     inkscape:window-width="1920"
     inkscape:window-height="1111"
     inkscape:window-x="-9"
     inkscape:window-y="-9"
     inkscape:window-maximized="1"
     inkscape:current-layer="svg1" />
  <defs
     id="defs1">
    <clipPath
       id="clip1-4">
      <rect
         x="1329"
         y="413"
         width="48"
         height="104"
         id="rect2-8" />
    </clipPath>
    <clipPath
       id="clip2-8">
      <rect
         x="1329"
         y="413"
         width="48"
         height="104"
         id="rect3-2" />
    </clipPath>
    <clipPath
       id="clip3-4">
      <rect
         x="1329"
         y="413"
         width="48"
         height="104"
         id="rect4-5" />
    </clipPath>
    <clipPath
       id="clip4-5">
      <path
         d="m 1239.8,567.176 43.6,18.182 -40,95.932 -43.6,-18.182 z"
         fill-rule="evenodd"
         clip-rule="evenodd"
         id="path4" />
    </clipPath>
    <clipPath
       id="clip5-1">
      <path
         d="m 1239.8,567.176 43.6,18.182 -40,95.932 -43.6,-18.182 z"
         fill-rule="evenodd"
         clip-rule="evenodd"
         id="path5" />
    </clipPath>
    <clipPath
       id="clip6-7">
      <path
         d="m 1239.8,567.176 43.6,18.182 -40,95.932 -43.6,-18.182 z"
         fill-rule="evenodd"
         clip-rule="evenodd"
         id="path6" />
    </clipPath>
    <clipPath
       id="clip7-1">
      <rect
         x="1329"
         y="189"
         width="48"
         height="104"
         id="rect6-1" />
    </clipPath>
    <clipPath
       id="clip8-5">
      <rect
         x="1329"
         y="189"
         width="48"
         height="104"
         id="rect7-2" />
    </clipPath>
    <clipPath
       id="clip9-7">
      <rect
         x="1329"
         y="189"
         width="48"
         height="104"
         id="rect8-6" />
    </clipPath>
    <clipPath
       id="clip10-1">
      <path
         d="m 1504.25,295.919 28.31,-37.827 83.21,62.271 -28.3,37.827 z"
         fill-rule="evenodd"
         clip-rule="evenodd"
         id="path8" />
    </clipPath>
    <clipPath
       id="clip11-4">
      <path
         d="m 1504.25,295.919 28.31,-37.827 83.21,62.271 -28.3,37.827 z"
         fill-rule="evenodd"
         clip-rule="evenodd"
         id="path9" />
    </clipPath>
    <clipPath
       id="clip12-2">
      <path
         d="m 1504.25,295.919 28.31,-37.827 83.21,62.271 -28.3,37.827 z"
         fill-rule="evenodd"
         clip-rule="evenodd"
         id="path10" />
    </clipPath>
    <clipPath
       clipPathUnits="userSpaceOnUse"
       id="clipPath1">
      <rect
         x="997"
         y="111"
         width="717"
         height="715"
         id="rect1"
         style="stroke-width:0.999999" />
    </clipPath>
    <clipPath
       clipPathUnits="userSpaceOnUse"
       id="clipPath2">
      <rect
         x="997"
         y="111"
         width="717"
         height="715"
         id="rect2"
         style="stroke-width:0.999999" />
    </clipPath>
    <clipPath
       clipPathUnits="userSpaceOnUse"
       id="clipPath3">
      <rect
         x="997"
         y="111"
         width="717"
         height="715"
         id="rect3"
         style="stroke-width:0.999999" />
    </clipPath>
    <clipPath
       clipPathUnits="userSpaceOnUse"
       id="clipPath4">
      <rect
         x="997"
         y="111"
         width="717"
         height="715"
         id="rect4"
         style="stroke-width:0.999999" />
    </clipPath>
    <clipPath
       id="clip0">
      <rect
         x="997"
         y="111"
         width="717"
         height="715"
         id="rect1-0" />
    </clipPath>
    <clipPath
       id="clip1">
      <rect
         x="1329"
         y="413"
         width="48"
         height="104"
         id="rect2-9" />
    </clipPath>
    <clipPath
       id="clip2">
      <rect
         x="1329"
         y="413"
         width="48"
         height="104"
         id="rect3-4" />
    </clipPath>
    <clipPath
       id="clip3">
      <rect
         x="1329"
         y="413"
         width="48"
         height="104"
         id="rect4-8" />
    </clipPath>
    <clipPath
       id="clip4">
      <path
         d="M1276.6 536.776 1320.2 554.958 1280.2 650.89 1236.6 632.708Z"
         fill-rule="evenodd"
         clip-rule="evenodd"
         id="path4-8" />
    </clipPath>
    <clipPath
       id="clip5">
      <path
         d="M1276.6 536.776 1320.2 554.958 1280.2 650.89 1236.6 632.708Z"
         fill-rule="evenodd"
         clip-rule="evenodd"
         id="path5-2" />
    </clipPath>
    <clipPath
       id="clip6">
      <path
         d="M1276.6 536.776 1320.2 554.958 1280.2 650.89 1236.6 632.708Z"
         fill-rule="evenodd"
         clip-rule="evenodd"
         id="path6-4" />
    </clipPath>
    <clipPath
       id="clip7">
      <rect
         x="1329"
         y="189"
         width="48"
         height="104"
         id="rect6" />
    </clipPath>
    <clipPath
       id="clip8">
      <rect
         x="1329"
         y="189"
         width="48"
         height="104"
         id="rect7" />
    </clipPath>
    <clipPath
       id="clip9">
      <rect
         x="1329"
         y="189"
         width="48"
         height="104"
         id="rect8" />
    </clipPath>
    <clipPath
       id="clip10">
      <path
         d="M1504.25 295.919 1532.56 258.092 1615.77 320.363 1587.47 358.19Z"
         fill-rule="evenodd"
         clip-rule="evenodd"
         id="path8-5" />
    </clipPath>
    <clipPath
       id="clip11">
      <path
         d="M1504.25 295.919 1532.56 258.092 1615.77 320.363 1587.47 358.19Z"
         fill-rule="evenodd"
         clip-rule="evenodd"
         id="path9-5" />
    </clipPath>
    <clipPath
       id="clip12">
      <path
         d="M1504.25 295.919 1532.56 258.092 1615.77 320.363 1587.47 358.19Z"
         fill-rule="evenodd"
         clip-rule="evenodd"
         id="path10-1" />
    </clipPath>
    <clipPath
       clipPathUnits="userSpaceOnUse"
       id="clipPath5">
      <rect
         style="fill:#2f5597;fill-opacity:0.431373;stroke-width:0;stroke-opacity:0.307385"
         id="rect9"
         width="723.30469"
         height="550.84998"
         x="993.24017"
         y="110.72366" />
    </clipPath>
  </defs>
  <g
     clip-path="url(#clipPath5)"
     transform="matrix(0.26458333,0,0,0.26458333,-264.12378,-29.381805)"
     id="g47"
     inkscape:export-filename="angles.pdf"
     inkscape:export-xdpi="96"
     inkscape:export-ydpi="96">
    <path
       d="m 1680.86,603.92 c -74.41,181.051 -281.29,267.416 -462.09,192.902 -88.41,-36.438 -158.34,-107.135 -193.89,-196.01 L 1353.5,469 Z"
       stroke="#000000"
       stroke-width="3.33333"
       stroke-miterlimit="8"
       fill="#2f5597"
       fill-rule="evenodd"
       fill-opacity="0.431373"
       id="path11" />
    <path
       d="m 1024.32,600.88 c -72.66,-181.7 15.73,-387.904 197.43,-460.568 41.44,-16.571 85.63,-25.165 130.26,-25.33 l 1.31,354.328 z"
       stroke="#000000"
       stroke-width="3.33333"
       stroke-miterlimit="8"
       fill="#2f5597"
       fill-rule="evenodd"
       fill-opacity="0.431373"
       id="path12" />
    <path
       d="m 1352.8,114.976 c 195.69,-0.361 354.62,157.986 354.98,353.677 0.09,46.05 -8.81,91.675 -26.18,134.323 l -328.15,-133.67 z"
       stroke="#000000"
       stroke-width="3.33333"
       stroke-miterlimit="8"
       fill="#2f5597"
       fill-rule="evenodd"
       fill-opacity="0.431373"
       id="path13" />
    <path
       d="m 1311.95,117.788 c 27.37,-3.206 55.02,-3.208 82.39,-0.006 l -41.17,351.931 z"
       fill="#000000"
       fill-rule="evenodd"
       fill-opacity="0.4"
       id="path14" />
    <path
       d="m 999.5,469 c 0,-195.785 158.72,-354.5 354.5,-354.5 195.78,0 354.5,158.715 354.5,354.5 0,195.785 -158.72,354.5 -354.5,354.5 -195.78,0 -354.5,-158.715 -354.5,-354.5 z"
       stroke="#000000"
       stroke-width="3.33333"
       stroke-miterlimit="8"
       fill="none"
       fill-rule="evenodd"
       id="path15" />
    <g
       clip-path="url(#clip1)"
       id="g20">
      <g
         clip-path="url(#clip2)"
         id="g19">
        <g
           clip-path="url(#clip3)"
           id="g18">
          <path
             d="m 44.3827,56.6488 c 0,23.4014 -8.8264,42.3721 -19.7142,42.3721 -10.8878,0 -19.71413,-18.9707 -19.71413,-42.3721 0,-23.4014 8.82633,-42.3721 19.71413,-42.3721 10.8878,0 19.7142,18.9707 19.7142,42.3721 z"
             stroke="#000000"
             stroke-width="7.56364"
             stroke-miterlimit="3.5"
             fill="#030303"
             transform="matrix(1.01538,0,0,1,1327.81,412.05)"
             id="path16" />
          <path
             d="m 6.08972,72.6031 c 0,-3.3591 2.11164,-6.1818 4.62448,-6.1818 h 27.9086 c 2.5129,0 4.6245,2.8227 4.6245,6.1818 V 95.333 c 0,3.3592 -2.1116,6.181 -4.6245,6.181 H 10.7142 c -2.51284,0 -4.62448,-2.8218 -4.62448,-6.181 z"
             stroke="#000000"
             stroke-width="7.56483"
             stroke-miterlimit="1.3"
             fill="#030303"
             transform="matrix(1.01538,0,0,1,1327.81,412.05)"
             id="path17" />
          <path
             d="m 41.9506,34.3969 c -0.9928,1.4168 -1.5721,1.2163 -6.8999,-2.3876 -2.6902,-1.8197 -4.9704,-3.3103 -5.0672,-3.3123 -0.0969,-0.002 -0.2762,4.8667 -0.3985,10.8193 l -0.2225,10.823 -5.1064,-0.1049 -5.1063,-0.105 0.2242,-10.9087 c 0.1728,-8.4113 0.0684,-10.818 -0.4561,-10.5124 -0.3742,0.2179 -2.858,1.7061 -5.5197,3.3071 C 8.38109,35.0332 7.05284,35.0049 6.70531,31.873 6.53235,30.3143 22.7725,6.43747 24.5468,5.64177 30.6553,13.8317 37.0247,23.6022 42.6329,32.5971 c -0.0096,0.4681 -0.3167,1.2779 -0.6823,1.7998 z"
             stroke="#000000"
             stroke-width="7.56364"
             fill="#030303"
             transform="matrix(1.01538,0,0,1,1327.81,412.05)"
             id="path18" />
        </g>
      </g>
    </g>
    <path
       d="m 1343,473.5 c 0,-5.799 4.7,-10.5 10.5,-10.5 5.8,0 10.5,4.701 10.5,10.5 0,5.799 -4.7,10.5 -10.5,10.5 -5.8,0 -10.5,-4.701 -10.5,-10.5 z"
       stroke="#0000ff"
       stroke-width="1.66667"
       stroke-miterlimit="8"
       fill="#0000ff"
       fill-rule="evenodd"
       id="path20" />
    <text
       fill="#0000ff"
       font-family="'Times New Roman', 'Times New Roman_MSFontService', sans-serif"
       font-weight="700"
       font-size="30px"
       transform="translate(1281.19,472)"
       id="text28">OS<tspan
   fill="#000000"
   font-size="34px"
   x="-31.118299"
   y="-317"
   id="tspan20">355⁰</tspan><tspan
   fill="#000000"
   font-size="34px"
   x="117.059"
   y="-316"
   id="tspan21">5⁰</tspan><tspan
   fill="#000000"
   font-size="34px"
   x="327.62601"
   y="96"
   id="tspan22">112.5⁰</tspan><tspan
   fill="#000000"
   font-size="34px"
   x="-260.254"
   y="93"
   id="tspan23">247.5⁰</tspan><tspan
   fill="#000000"
   font-size="34px"
   x="36.846199"
   y="170"
   id="tspan24">Stern sector</tspan><tspan
   fill="#000000"
   font-size="34px"
   x="-139.295"
   y="-227"
   id="tspan25">Bow sector</tspan><tspan
   fill="#000000"
   font-size="34px"
   x="-229.759"
   y="-54"
   id="tspan26">Port side sector</tspan><tspan
   fill="#000000"
   font-size="34px"
   x="142.97501"
   y="-53"
   id="tspan27">Starboard side</tspan><tspan
   fill="#000000"
   font-size="34px"
   x="206.30901"
   y="-13"
   id="tspan28">sector</tspan></text>
    <path
       d="M 0,0 99.7354,63.0045"
       stroke="#000000"
       stroke-width="0.833333"
       stroke-miterlimit="8"
       fill="none"
       fill-rule="evenodd"
       transform="matrix(1,0,0,-1,1263.5,211.504)"
       id="path28" />
    <g
       clip-path="url(#clip4)"
       id="g33">
      <g
         clip-path="url(#clip5)"
         id="g32">
        <g
           clip-path="url(#clip6)"
           id="g31">
          <path
             d="m 44.3557,56.6143 c 0,23.3872 -8.821,42.3463 -19.7022,42.3463 -10.8812,0 -19.70214,-18.9591 -19.70214,-42.3463 0,-23.3872 8.82094,-42.3462 19.70214,-42.3462 10.8812,0 19.7022,18.959 19.7022,42.3462 z"
             stroke="#000000"
             stroke-width="7.55903"
             stroke-miterlimit="3.5"
             fill="#030303"
             transform="matrix(0.922983,0.384841,-0.384842,0.922985,1275.88,535.449)"
             id="path29" />
          <path
             d="m 6.08601,72.5589 c 0,-3.357 2.11036,-6.178 4.62169,-6.178 h 27.8916 c 2.5114,0 4.6217,2.821 4.6217,6.178 V 95.275 c 0,3.3572 -2.1103,6.178 -4.6217,6.178 H 10.7077 c -2.51133,0 -4.62169,-2.8208 -4.62169,-6.178 z"
             stroke="#000000"
             stroke-width="7.56022"
             stroke-miterlimit="1.3"
             fill="#030303"
             transform="matrix(0.922983,0.384841,-0.384842,0.922985,1275.88,535.449)"
             id="path30" />
          <path
             d="m 41.925,34.3759 c -0.9921,1.416 -1.5711,1.2156 -6.8956,-2.3861 -2.6885,-1.8186 -4.9674,-3.3083 -5.0642,-3.3103 -0.0968,-0.0019 -0.276,4.8638 -0.3982,10.8128 l -0.2224,10.8164 -5.1032,-0.1049 -5.1032,-0.1049 0.224,-10.9021 c 0.1727,-8.4061 0.0684,-10.8114 -0.4558,-10.506 -0.374,0.2178 -2.8563,1.7051 -5.5163,3.3051 C 8.376,35.0118 7.04854,34.9836 6.70123,31.8536 6.52838,30.2959 22.7586,6.43355 24.5319,5.63834 30.6367,13.8233 37.0021,23.5879 42.607,32.5773 c -0.0097,0.4678 -0.3166,1.2771 -0.682,1.7986 z"
             stroke="#000000"
             stroke-width="7.55903"
             fill="#030303"
             transform="matrix(0.922983,0.384841,-0.384842,0.922985,1275.88,535.449)"
             id="path31" />
        </g>
      </g>
    </g>
    <g
       clip-path="url(#clip7)"
       id="g37">
      <g
         clip-path="url(#clip8)"
         id="g36">
        <g
           clip-path="url(#clip9)"
           id="g35">
          <path
             d="m 44.3827,56.6488 c 0,23.4014 -8.8264,42.3721 -19.7142,42.3721 -10.8878,0 -19.71413,-18.9707 -19.71413,-42.3721 0,-23.4014 8.82633,-42.3721 19.71413,-42.3721 10.8878,0 19.7142,18.9707 19.7142,42.3721 z"
             stroke="#000000"
             stroke-width="7.56364"
             stroke-miterlimit="3.5"
             fill="#030303"
             transform="matrix(-1.01538,0,0,-1,1378.19,293.95)"
             id="path33" />
          <path
             d="m 6.08972,72.6031 c 0,-3.3591 2.11164,-6.1818 4.62448,-6.1818 h 27.9086 c 2.5129,0 4.6245,2.8227 4.6245,6.1818 V 95.333 c 0,3.3592 -2.1116,6.181 -4.6245,6.181 H 10.7142 c -2.51284,0 -4.62448,-2.8218 -4.62448,-6.181 z"
             stroke="#000000"
             stroke-width="7.56483"
             stroke-miterlimit="1.3"
             fill="#030303"
             transform="matrix(-1.01538,0,0,-1,1378.19,293.95)"
             id="path34" />
          <path
             d="m 41.9506,34.3969 c -0.9928,1.4168 -1.5721,1.2163 -6.8999,-2.3876 -2.6902,-1.8197 -4.9704,-3.3103 -5.0672,-3.3123 -0.0969,-0.002 -0.2762,4.8667 -0.3985,10.8193 l -0.2225,10.823 -5.1064,-0.1049 -5.1063,-0.105 0.2242,-10.9087 c 0.1728,-8.4113 0.0684,-10.818 -0.4561,-10.5124 -0.3742,0.2179 -2.858,1.7061 -5.5197,3.3071 C 8.38109,35.0332 7.05284,35.0049 6.70531,31.873 6.53235,30.3143 22.7725,6.43747 24.5468,5.64177 30.6553,13.8317 37.0247,23.6022 42.6329,32.5971 c -0.0096,0.4681 -0.3167,1.2779 -0.6823,1.7998 z"
             stroke="#000000"
             stroke-width="7.56364"
             fill="#030303"
             transform="matrix(-1.01538,0,0,-1,1378.19,293.95)"
             id="path35" />
        </g>
      </g>
    </g>
    <g
       clip-path="url(#clip10)"
       id="g41">
      <g
         clip-path="url(#clip11)"
         id="g40">
        <g
           clip-path="url(#clip12)"
           id="g39">
          <path
             d="m 44.3557,56.6143 c 0,23.3872 -8.821,42.3463 -19.7022,42.3463 -10.8812,0 -19.70214,-18.9591 -19.70214,-42.3463 0,-23.3872 8.82094,-42.3462 19.70214,-42.3462 10.8812,0 19.7022,18.959 19.7022,42.3462 z"
             stroke="#000000"
             stroke-width="7.55903"
             stroke-miterlimit="3.5"
             fill="#030303"
             transform="matrix(0.599122,-0.800658,0.80066,0.599124,1502.79,296.288)"
             id="path37" />
          <path
             d="m 6.08601,72.5589 c 0,-3.357 2.11036,-6.178 4.62169,-6.178 h 27.8916 c 2.5114,0 4.6217,2.821 4.6217,6.178 V 95.275 c 0,3.3572 -2.1103,6.178 -4.6217,6.178 H 10.7077 c -2.51133,0 -4.62169,-2.8208 -4.62169,-6.178 z"
             stroke="#000000"
             stroke-width="7.56022"
             stroke-miterlimit="1.3"
             fill="#030303"
             transform="matrix(0.599122,-0.800658,0.80066,0.599124,1502.79,296.288)"
             id="path38" />
          <path
             d="m 41.925,34.3759 c -0.9921,1.416 -1.5711,1.2156 -6.8956,-2.3861 -2.6885,-1.8186 -4.9674,-3.3083 -5.0642,-3.3103 -0.0968,-0.0019 -0.276,4.8638 -0.3982,10.8128 l -0.2224,10.8164 -5.1032,-0.1049 -5.1032,-0.1049 0.224,-10.9021 c 0.1727,-8.4061 0.0684,-10.8114 -0.4558,-10.506 -0.374,0.2178 -2.8563,1.7051 -5.5163,3.3051 C 8.376,35.0118 7.04854,34.9836 6.70123,31.8536 6.52838,30.2959 22.7586,6.43355 24.5319,5.63834 30.6367,13.8233 37.0021,23.5879 42.607,32.5773 c -0.0097,0.4678 -0.3166,1.2771 -0.682,1.7986 z"
             stroke="#000000"
             stroke-width="7.55903"
             fill="#030303"
             transform="matrix(0.599122,-0.800658,0.80066,0.599124,1502.79,296.288)"
             id="path39" />
        </g>
      </g>
    </g>
    <text
       fill="#ff0000"
       font-family="'Times New Roman', 'Times New Roman_MSFontService', sans-serif"
       font-weight="700"
       font-size="30px"
       transform="translate(1207.79,579)"
       id="text41">TS<tspan
   font-size="20px"
   x="36.666698"
   y="7"
   id="tspan41">1</tspan></text>
    <path
       d="m 1343,236.5 c 0,-5.799 4.7,-10.5 10.5,-10.5 5.8,0 10.5,4.701 10.5,10.5 0,5.799 -4.7,10.5 -10.5,10.5 -5.8,0 -10.5,-4.701 -10.5,-10.5 z"
       stroke="#008000"
       stroke-width="1.66667"
       stroke-miterlimit="8"
       fill="#008000"
       fill-rule="evenodd"
       id="path41" />
    <text
       fill="#843c0c"
       font-family="'Times New Roman', 'Times New Roman_MSFontService', sans-serif"
       font-weight="700"
       font-size="30px"
       transform="translate(1577.53,286)"
       id="text42">TS<tspan
   font-size="20px"
   x="36.666698"
   y="7"
   id="tspan42">3</tspan></text>
    <path
       d="m 1555,310.5 c 0,-5.799 4.7,-10.5 10.5,-10.5 5.8,0 10.5,4.701 10.5,10.5 0,5.799 -4.7,10.5 -10.5,10.5 -5.8,0 -10.5,-4.701 -10.5,-10.5 z"
       fill="#843c0c"
       fill-rule="evenodd"
       id="path42" />
    <text
       fill="#008000"
       font-family="'Times New Roman', 'Times New Roman_MSFontService', sans-serif"
       font-weight="700"
       font-size="30px"
       transform="translate(1382.21,247)"
       id="text43">TS<tspan
   font-size="20px"
   x="36.666599"
   y="7"
   id="tspan43">2</tspan></text>
    <path
       d="m 1353.01,466.74 0.69,-11.032 2.06,-10.792 3.15,-10.152 4.05,-9.07 2.36,-4.069 2.55,-3.729 2.72,-3.316 2.89,-2.822 3.02,-2.329 3.17,-1.763 3.41,-1.162 3.15,-0.342 2.87,-0.312 -0.55,0.124 2.88,-1 -0.39,0.176 2.81,-1.563 -0.29,0.191 2.81,-2.125 -0.26,0.227 2.62,-2.625 -0.16,0.182 2.56,-3.125 -0.12,0.157 2.44,-3.5 -0.12,0.188 2.25,-3.937 -0.11,0.207 4,-8.813 -0.11,0.303 3,-9.813 -0.07,0.263 1.23,-6.446 4.91,0.936 -1.25,6.579 -3.09,10.097 -4.11,9.066 -2.36,4.136 -2.56,3.672 -2.7,3.296 -2.84,2.835 -3.09,2.335 -3.15,1.752 -3.35,1.165 -3.16,0.343 -2.87,0.312 0.53,-0.118 -2.94,1 0.41,-0.182 -2.81,1.563 0.31,-0.207 -2.75,2.125 0.22,-0.19 -2.69,2.625 0.19,-0.203 -2.56,3.125 0.13,-0.174 -2.44,3.563 0.1,-0.157 -2.25,3.875 0.12,-0.235 -3.94,8.812 0.11,-0.279 -3.06,9.875 0.06,-0.273 -2,10.5 0.04,-0.31 -0.68,10.875 z m 62.97,-101.351 -8.44,9.222 9.9,-24.151 5.03,25.611 z"
       fill="#0000ff"
       id="path43" />
    <path
       d="m 1557.54,308.085 -66.06,-45.066 2.82,-4.13 66.05,45.066 z m -64.65,-47.131 4.03,11.831 -16.42,-20.285 24.88,7.894 z"
       fill="#843c0c"
       id="path44" />
    <path
       d="m 1273.07,603.917 2.25,-9.397 2.4,-9.26 2.73,-8.965 3.34,-8.343 4.03,-7.669 5.02,-6.678 6.11,-5.372 3.57,-2.198 3.96,-1.778 4.53,-1.165 5.01,-0.468 5.49,0.065 5.81,0.58 6.12,0.957 6.34,1.269 13.01,3.078 12.84,3.319 -0.05,-0.012 12.12,2.875 -0.11,-0.023 5.57,1.062 -0.11,-0.018 5.12,0.75 -0.19,-0.02 4.57,0.312 -0.29,-0.003 3.93,-0.187 -0.37,0.046 3.44,-0.688 -0.33,0.09 3.06,-1.063 -0.46,0.216 5.13,-3.063 -0.46,0.351 4.06,-3.937 -0.3,0.356 3.12,-4.438 -0.15,0.249 0.57,-1.066 4.4,2.381 -0.65,1.195 -3.34,4.75 -4.44,4.303 -5.6,3.343 -3.46,1.202 -3.79,0.758 -4.27,0.204 -4.8,-0.329 -5.28,-0.772 -5.67,-1.083 -12.2,-2.894 -12.84,-3.319 0.05,0.013 -12.94,-3.063 0.09,0.019 -6.25,-1.25 0.1,0.019 -6,-0.938 0.14,0.018 -5.62,-0.563 0.22,0.012 -5.25,-0.062 0.26,-0.011 -4.69,0.438 0.39,-0.069 -4.12,1.063 0.4,-0.14 -3.63,1.625 0.29,-0.152 -3.25,2 0.34,-0.253 -5.75,5.063 0.35,-0.373 -4.75,6.312 0.21,-0.34 -3.87,7.375 0.1,-0.235 -3.25,8.125 0.07,-0.199 -2.68,8.813 0.03,-0.104 -2.38,9.188 0.01,-0.043 -2.25,9.375 z m 142.63,-59.046 -11.21,5.516 18.01,-18.887 -4.64,25.684 z"
       fill="#ff3b3b"
       id="path45" />
    <path
       d="m 1275.5,590 c 5.8,0 10.5,4.701 10.5,10.5 0,5.799 -4.7,10.5 -10.5,10.5 -5.8,0 -10.5,-4.701 -10.5,-10.5 0,-5.799 4.7,-10.5 10.5,-10.5 z"
       stroke="#ff0000"
       stroke-width="1.66667"
       stroke-miterlimit="8"
       fill="#ff0000"
       fill-rule="evenodd"
       id="path46" />
    <path
       d="m 1354.22,242.591 -0.19,5.218 -0.59,5.279 -2.19,10.215 -3.36,9.563 -4.38,8.511 -2.51,3.892 -2.76,3.489 -2.9,3.097 -3.03,2.691 -3.29,2.195 -3.33,1.595 -3.48,1.064 -3.37,0.338 -3.12,0.312 0.48,-0.097 -3.06,0.937 0.35,-0.136 -3,1.438 0.3,-0.174 -3,2 0.28,-0.212 -2.82,2.5 0.17,-0.16 -2.75,2.937 0.13,-0.155 -2.62,3.312 0.14,-0.199 -2.38,3.688 0.13,-0.209 -4.25,8.25 0.13,-0.316 -3.25,9.25 0.09,-0.306 -1.12,5.228 -4.89,-1.046 1.15,-5.384 3.36,-9.563 4.39,-8.51 2.5,-3.892 2.77,-3.489 2.9,-3.097 3.02,-2.691 3.3,-2.195 3.32,-1.595 3.48,-1.065 3.37,-0.337 3.13,-0.312 -0.48,0.097 3.06,-0.938 -0.35,0.136 3,-1.437 -0.31,0.174 3,-2 -0.27,0.212 2.81,-2.5 -0.16,0.16 2.75,-2.938 -0.14,0.156 2.63,-3.312 -0.14,0.199 2.37,-3.688 -0.12,0.209 4.25,-8.25 -0.14,0.316 3.25,-9.25 -0.08,0.306 2.12,-9.937 -0.04,0.246 0.57,-5.062 -0.02,0.185 0.19,-5.125 z m -66.99,94.512 8.61,-9.052 -10.37,23.949 -4.52,-25.706 z"
       fill="#008000"
       id="path47" />
  </g>
</svg>
