<?xml version="1.0" encoding="UTF-8" standalone="no"?>
<!-- Created with Inkscape (http://www.inkscape.org/) -->

<svg
   width="210mm"
   height="297mm"
   viewBox="0 0 210 297"
   version="1.1"
   id="svg1"
   inkscape:version="1.4 (86a8ad7, 2024-10-11)"
   sodipodi:docname="angles2.svg"
   xmlns:inkscape="http://www.inkscape.org/namespaces/inkscape"
   xmlns:sodipodi="http://sodipodi.sourceforge.net/DTD/sodipodi-0.dtd"
   xmlns="http://www.w3.org/2000/svg"
   xmlns:svg="http://www.w3.org/2000/svg">
  <sodipodi:namedview
     id="namedview1"
     pagecolor="#ffffff"
     bordercolor="#000000"
     borderopacity="0.25"
     inkscape:showpageshadow="2"
     inkscape:pageopacity="0.0"
     inkscape:pagecheckerboard="0"
     inkscape:deskcolor="#d1d1d1"
     inkscape:document-units="mm"
     inkscape:zoom="1.0396254"
     inkscape:cx="396.77752"
     inkscape:cy="561.25984"
     inkscape:window-width="2560"
     inkscape:window-height="1369"
     inkscape:window-x="2552"
     inkscape:window-y="-8"
     inkscape:window-maximized="1"
     inkscape:current-layer="layer1" />
  <defs
     id="defs1">
    <clipPath
       id="clip0">
      <rect
         x="94"
         y="303"
         width="634"
         height="267"
         id="rect1" />
    </clipPath>
    <clipPath
       id="clip1">
      <rect
         x="399"
         y="418"
         width="23"
         height="49"
         id="rect2" />
    </clipPath>
    <clipPath
       id="clip2">
      <rect
         x="399"
         y="418"
         width="23"
         height="49"
         id="rect3" />
    </clipPath>
    <clipPath
       id="clip3">
      <rect
         x="399"
         y="418"
         width="23"
         height="49"
         id="rect4" />
    </clipPath>
    <clipPath
       id="clip4">
      <path
         d="M345.29 485.283 365.903 493.878 346.994 539.227 326.381 530.633Z"
         fill-rule="evenodd"
         clip-rule="evenodd"
         id="path4" />
    </clipPath>
    <clipPath
       id="clip5">
      <path
         d="M345.29 485.283 365.903 493.878 346.994 539.227 326.381 530.633Z"
         fill-rule="evenodd"
         clip-rule="evenodd"
         id="path5" />
    </clipPath>
    <clipPath
       id="clip6">
      <path
         d="M345.29 485.283 365.903 493.878 346.994 539.227 326.381 530.633Z"
         fill-rule="evenodd"
         clip-rule="evenodd"
         id="path6" />
    </clipPath>
    <clipPath
       id="clip7">
      <rect
         x="400"
         y="331"
         width="22"
         height="49"
         id="rect6" />
    </clipPath>
    <clipPath
       id="clip8">
      <rect
         x="400"
         y="331"
         width="22"
         height="49"
         id="rect7" />
    </clipPath>
    <clipPath
       id="clip9">
      <rect
         x="400"
         y="331"
         width="22"
         height="49"
         id="rect8" />
    </clipPath>
    <clipPath
       id="clip10">
      <path
         d="M560.021 418.72 573.402 400.838 612.741 430.276 599.361 448.157Z"
         fill-rule="evenodd"
         clip-rule="evenodd"
         id="path8" />
    </clipPath>
    <clipPath
       id="clip11">
      <path
         d="M560.021 418.72 573.402 400.838 612.741 430.276 599.361 448.157Z"
         fill-rule="evenodd"
         clip-rule="evenodd"
         id="path9" />
    </clipPath>
    <clipPath
       id="clip12">
      <path
         d="M560.021 418.72 573.402 400.838 612.741 430.276 599.361 448.157Z"
         fill-rule="evenodd"
         clip-rule="evenodd"
         id="path10" />
    </clipPath>
    <clipPath
       id="clip0-0">
      <rect
         x="94"
         y="303"
         width="634"
         height="264"
         id="rect1-9" />
    </clipPath>
    <clipPath
       id="clip1-4">
      <rect
         x="399"
         y="418"
         width="23"
         height="49"
         id="rect2-8" />
    </clipPath>
    <clipPath
       id="clip2-8">
      <rect
         x="399"
         y="418"
         width="23"
         height="49"
         id="rect3-2" />
    </clipPath>
    <clipPath
       id="clip3-4">
      <rect
         x="399"
         y="418"
         width="23"
         height="49"
         id="rect4-5" />
    </clipPath>
    <clipPath
       id="clip4-5">
      <path
         d="M345.29 485.283 365.903 493.878 346.994 539.227 326.381 530.633Z"
         fill-rule="evenodd"
         clip-rule="evenodd"
         id="path4-1" />
    </clipPath>
    <clipPath
       id="clip5-7">
      <path
         d="M345.29 485.283 365.903 493.878 346.994 539.227 326.381 530.633Z"
         fill-rule="evenodd"
         clip-rule="evenodd"
         id="path5-1" />
    </clipPath>
    <clipPath
       id="clip6-1">
      <path
         d="M345.29 485.283 365.903 493.878 346.994 539.227 326.381 530.633Z"
         fill-rule="evenodd"
         clip-rule="evenodd"
         id="path6-5" />
    </clipPath>
    <clipPath
       id="clip7-2">
      <rect
         x="400"
         y="331"
         width="22"
         height="49"
         id="rect6-7" />
    </clipPath>
    <clipPath
       id="clip8-6">
      <rect
         x="400"
         y="331"
         width="22"
         height="49"
         id="rect7-1" />
    </clipPath>
    <clipPath
       id="clip9-4">
      <rect
         x="400"
         y="331"
         width="22"
         height="49"
         id="rect8-2" />
    </clipPath>
    <clipPath
       id="clip10-3">
      <path
         d="M560.021 418.72 573.402 400.838 612.741 430.276 599.361 448.157Z"
         fill-rule="evenodd"
         clip-rule="evenodd"
         id="path8-2" />
    </clipPath>
    <clipPath
       id="clip11-2">
      <path
         d="M560.021 418.72 573.402 400.838 612.741 430.276 599.361 448.157Z"
         fill-rule="evenodd"
         clip-rule="evenodd"
         id="path9-1" />
    </clipPath>
    <clipPath
       id="clip12-6">
      <path
         d="M560.021 418.72 573.402 400.838 612.741 430.276 599.361 448.157Z"
         fill-rule="evenodd"
         clip-rule="evenodd"
         id="path10-8" />
    </clipPath>
  </defs>
  <g
     inkscape:label="Réteg 1"
     inkscape:groupmode="layer"
     id="layer1">
    <g
       clip-path="url(#clip0-0)"
       transform="matrix(0.26458333,0,0,0.26458333,10.054167,24.60625)"
       id="g49"
       inkscape:export-filename="angles2.pdf"
       inkscape:export-xdpi="96"
       inkscape:export-ydpi="96">
      <rect
         x="105"
         y="314"
         width="609"
         height="242"
         fill="#a5b6d2"
         id="rect10" />
      <path
         d="M 440,315 411,446 382,315 Z"
         fill="#3b3838"
         fill-rule="evenodd"
         fill-opacity="0.478431"
         id="path11" />
      <path
         d="m 410.5,314.5 1.354,134.36"
         stroke="#000000"
         stroke-width="3.33333"
         stroke-miterlimit="8"
         fill="none"
         fill-rule="evenodd"
         id="path12" />
      <path
         d="M 0,0 264.18,105.771"
         stroke="#000000"
         stroke-width="3.33333"
         stroke-miterlimit="8"
         fill="none"
         fill-rule="evenodd"
         transform="matrix(-1,0,0,1,411.68,448.5)"
         id="path13" />
      <path
         d="M 673.823,555.188 411.5,448.5"
         stroke="#000000"
         stroke-width="3.33333"
         stroke-miterlimit="8"
         fill="none"
         fill-rule="evenodd"
         id="path14" />
      <g
         clip-path="url(#clip1-4)"
         id="g19">
        <g
           clip-path="url(#clip2-8)"
           id="g18">
          <g
             clip-path="url(#clip3-4)"
             id="g17">
            <path
               d="m 20.9111,26.6903 c 0,11.0257 -4.1586,19.9638 -9.2884,19.9638 -5.12987,0 -9.28843,-8.9381 -9.28843,-19.9638 0,-11.0257 4.15856,-19.96376 9.28843,-19.96376 5.1298,0 9.2884,8.93806 9.2884,19.96376 z"
               stroke="#000000"
               stroke-width="3.56364"
               stroke-miterlimit="3.5"
               fill="#030303"
               transform="matrix(1.03265,0,0,1,398.43,417.552)"
               id="path15" />
            <path
               d="m 2.86919,34.2072 c 0,-1.5826 0.99491,-2.9125 2.17883,-2.9125 H 18.1973 c 1.1839,0 2.1788,1.3299 2.1788,2.9125 v 10.7093 c 0,1.5827 -0.9949,2.9124 -2.1788,2.9124 H 5.04802 c -1.18392,0 -2.17883,-1.3297 -2.17883,-2.9124 z"
               stroke="#000000"
               stroke-width="3.5642"
               stroke-miterlimit="1.3"
               fill="#030303"
               transform="matrix(1.03265,0,0,1,398.43,417.552)"
               id="path16" />
            <path
               d="m 19.7652,16.2062 c -0.4678,0.6676 -0.7407,0.5731 -3.2509,-1.1249 -1.2675,-0.8574 -2.3419,-1.5597 -2.3875,-1.5606 -0.0456,-9e-4 -0.1301,2.293 -0.1877,5.0976 L 13.8343,23.7176 11.4284,23.6681 9.0225,23.6187 9.12812,18.479 C 9.20955,14.516 9.16037,13.382 8.91323,13.526 8.73692,13.6287 7.56667,14.3299 6.31263,15.0842 3.94879,16.506 3.32297,16.4927 3.15923,15.0171 3.07774,14.2827 10.7294,3.03304 11.5653,2.65814 c 2.8781,3.85873 5.879,8.46216 8.5214,12.70006 -0.0046,0.2206 -0.1493,0.6021 -0.3215,0.848 z"
               stroke="#000000"
               stroke-width="3.56364"
               fill="#030303"
               transform="matrix(1.03265,0,0,1,398.43,417.552)"
               id="path17" />
          </g>
        </g>
      </g>
      <path
         d="m 404.5,448 c 0,-3.038 2.686,-5.5 6,-5.5 3.314,0 6,2.462 6,5.5 0,3.038 -2.686,5.5 -6,5.5 -3.314,0 -6,-2.462 -6,-5.5 z"
         stroke="#0000ff"
         stroke-width="1.33333"
         stroke-miterlimit="8"
         fill="#0000ff"
         fill-rule="evenodd"
         id="path19" />
      <text
         fill="#0000ff"
         font-family="'Times New Roman', 'Times New Roman_MSFontService', sans-serif"
         font-weight="700"
         font-size="24px"
         transform="translate(363.99,450)"
         id="text30">OS<tspan
   fill="#000000"
   font-size="27px"
   x="-37.845901"
   y="-112"
   id="tspan19">355⁰</tspan><tspan
   fill="#000000"
   font-size="27px"
   x="77.875603"
   y="-113"
   id="tspan20">5⁰</tspan><tspan
   fill="#000000"
   font-size="27px"
   x="279.845"
   y="83"
   id="tspan21">112.5⁰</tspan><tspan
   fill="#000000"
   font-size="27px"
   x="-253.638"
   y="82"
   id="tspan22">247.5⁰</tspan><tspan
   fill="#000000"
   font-size="27px"
   x="58.221001"
   y="94"
   id="tspan23">Stern sector</tspan><tspan
   fill="#000000"
   font-size="27px"
   x="-107.824"
   y="-55"
   id="tspan24">Bow</tspan><tspan
   fill="#000000"
   font-size="27px"
   x="-116.824"
   y="-34"
   id="tspan25">sector</tspan><tspan
   fill="#000000"
   font-size="27px"
   x="-250.659"
   y="-112"
   id="tspan26">Port</tspan><tspan
   fill="#000000"
   font-size="27px"
   x="-192.825"
   y="-112"
   id="tspan27">side</tspan><tspan
   fill="#000000"
   font-size="27px"
   x="-233.739"
   y="-91"
   id="tspan28">sector</tspan><tspan
   fill="#000000"
   font-size="27px"
   x="170.375"
   y="-112"
   id="tspan29">Starboard side</tspan><tspan
   fill="#000000"
   font-size="27px"
   x="221.04201"
   y="-91"
   id="tspan30">sector</tspan></text>
      <path
         d="M 0,0 71.7328,53.0765"
         stroke="#000000"
         stroke-width="0.666667"
         stroke-miterlimit="8"
         fill="none"
         fill-rule="evenodd"
         transform="matrix(1,0,0,-1,322.5,393.577)"
         id="path30" />
      <g
         clip-path="url(#clip4-5)"
         id="g35">
        <g
           clip-path="url(#clip5-7)"
           id="g34">
          <g
             clip-path="url(#clip6-1)"
             id="g33">
            <path
               d="m 20.9681,26.7631 c 0,11.0557 -4.1699,20.0181 -9.3138,20.0181 -5.14377,0 -9.31367,-8.9624 -9.31367,-20.0181 0,-11.0558 4.1699,-20.01822 9.31367,-20.01822 5.1439,0 9.3138,8.96242 9.3138,20.01822 z"
               stroke="#000000"
               stroke-width="3.57335"
               stroke-miterlimit="3.5"
               fill="#030303"
               transform="matrix(0.922983,0.384841,-0.384844,0.922988,344.951,484.655)"
               id="path31" />
            <path
               d="m 2.87702,34.3005 c 0,-1.587 0.99762,-2.9205 2.18476,-2.9205 H 18.2469 c 1.1872,0 2.1848,1.3335 2.1848,2.9205 V 45.039 c 0,1.587 -0.9976,2.9203 -2.1848,2.9203 H 5.06178 c -1.18714,0 -2.18476,-1.3333 -2.18476,-2.9203 z"
               stroke="#000000"
               stroke-width="3.57391"
               stroke-miterlimit="1.3"
               fill="#030303"
               transform="matrix(0.922983,0.384841,-0.384844,0.922988,344.951,484.655)"
               id="path32" />
            <path
               d="m 19.8191,16.2504 c -0.4691,0.6694 -0.7428,0.5746 -3.2598,-1.128 -1.2709,-0.8597 -2.3482,-1.5639 -2.394,-1.5648 -0.0457,-0.001 -0.1304,2.2992 -0.1882,5.1114 L 13.872,23.7822 11.4595,23.7326 9.0471,23.683 9.153,18.5293 C 9.23465,14.5556 9.18534,13.4185 8.93753,13.5629 8.76074,13.6658 7.58729,14.3689 6.32983,15.1253 3.95955,16.551 3.33203,16.5376 3.16784,15.058 3.08613,14.3216 10.7586,3.04131 11.5969,2.66539 c 2.8858,3.86924 5.895,8.48521 8.5445,12.73471 -0.0045,0.2212 -0.1496,0.6037 -0.3223,0.8503 z"
               stroke="#000000"
               stroke-width="3.57335"
               fill="#030303"
               transform="matrix(0.922983,0.384841,-0.384844,0.922988,344.951,484.655)"
               id="path33" />
          </g>
        </g>
      </g>
      <g
         clip-path="url(#clip7-2)"
         id="g39">
        <g
           clip-path="url(#clip8-6)"
           id="g38">
          <g
             clip-path="url(#clip9-4)"
             id="g37">
            <path
               d="m 20.655,26.3635 c 0,10.8907 -4.1076,19.7193 -9.1747,19.7193 -5.06698,0 -9.17461,-8.8287 -9.17461,-19.7193 0,-10.8907 4.10763,-19.71933 9.17461,-19.71933 5.0671,0 9.1747,8.82863 9.1747,19.71933 z"
               stroke="#000000"
               stroke-width="3.52"
               stroke-miterlimit="3.5"
               fill="#030303"
               transform="matrix(-1,0,0,-1.0124,422.546,380.448)"
               id="path35" />
            <path
               d="m 2.83406,33.7883 c 0,-1.5632 0.98273,-2.8768 2.15215,-2.8768 H 17.9744 c 1.1695,0 2.1522,1.3136 2.1522,2.8768 v 10.5782 c 0,1.5633 -0.9827,2.8767 -2.1522,2.8767 H 4.98621 c -1.16942,0 -2.15215,-1.3134 -2.15215,-2.8767 z"
               stroke="#000000"
               stroke-width="3.52055"
               stroke-miterlimit="1.3"
               fill="#030303"
               transform="matrix(-1,0,0,-1.0124,422.546,380.448)"
               id="path36" />
            <path
               d="m 19.5232,16.0078 c -0.462,0.6594 -0.7317,0.566 -3.2111,-1.1112 -1.252,-0.8468 -2.3132,-1.5405 -2.3582,-1.5415 -0.0451,-9e-4 -0.1286,2.2649 -0.1855,5.0352 L 13.6649,23.4271 11.2884,23.3783 8.91202,23.3295 9.01635,18.2527 C 9.09678,14.3382 9.0482,13.2182 8.80409,13.3604 8.62994,13.4618 7.47402,14.1544 6.23533,14.8995 3.90043,16.3039 3.28228,16.2907 3.12055,14.8332 3.04006,14.1078 10.598,2.9959 11.4237,2.62559 c 2.8428,3.81148 5.807,8.35851 8.417,12.54461 -0.0045,0.2178 -0.1474,0.5947 -0.3175,0.8376 z"
               stroke="#000000"
               stroke-width="3.52"
               fill="#030303"
               transform="matrix(-1,0,0,-1.0124,422.546,380.448)"
               id="path37" />
          </g>
        </g>
      </g>
      <g
         clip-path="url(#clip10-3)"
         id="g43">
        <g
           clip-path="url(#clip11-2)"
           id="g42">
          <g
             clip-path="url(#clip12-6)"
             id="g41">
            <path
               d="m 20.9681,26.7631 c 0,11.0557 -4.1699,20.0181 -9.3138,20.0181 -5.14377,0 -9.31367,-8.9624 -9.31367,-20.0181 0,-11.0558 4.1699,-20.01822 9.31367,-20.01822 5.1439,0 9.3138,8.96242 9.3138,20.01822 z"
               stroke="#000000"
               stroke-width="3.57335"
               stroke-miterlimit="3.5"
               fill="#030303"
               transform="matrix(0.599122,-0.800658,0.800662,0.599126,559.33,418.894)"
               id="path39" />
            <path
               d="m 2.87702,34.3005 c 0,-1.587 0.99762,-2.9205 2.18476,-2.9205 H 18.2469 c 1.1872,0 2.1848,1.3335 2.1848,2.9205 V 45.039 c 0,1.587 -0.9976,2.9203 -2.1848,2.9203 H 5.06178 c -1.18714,0 -2.18476,-1.3333 -2.18476,-2.9203 z"
               stroke="#000000"
               stroke-width="3.57391"
               stroke-miterlimit="1.3"
               fill="#030303"
               transform="matrix(0.599122,-0.800658,0.800662,0.599126,559.33,418.894)"
               id="path40" />
            <path
               d="m 19.8191,16.2504 c -0.4691,0.6694 -0.7428,0.5746 -3.2598,-1.128 -1.2709,-0.8597 -2.3482,-1.5639 -2.394,-1.5648 -0.0457,-0.001 -0.1304,2.2992 -0.1882,5.1114 L 13.872,23.7822 11.4595,23.7326 9.0471,23.683 9.153,18.5293 C 9.23465,14.5556 9.18534,13.4185 8.93753,13.5629 8.76074,13.6658 7.58729,14.3689 6.32983,15.1253 3.95955,16.551 3.33203,16.5376 3.16784,15.058 3.08613,14.3216 10.7586,3.04131 11.5969,2.66539 c 2.8858,3.86924 5.895,8.48521 8.5445,12.73471 -0.0045,0.2212 -0.1496,0.6037 -0.3223,0.8503 z"
               stroke="#000000"
               stroke-width="3.57335"
               fill="#030303"
               transform="matrix(0.599122,-0.800658,0.800662,0.599126,559.33,418.894)"
               id="path41" />
          </g>
        </g>
      </g>
      <text
         fill="#ff0000"
         font-family="'Times New Roman', 'Times New Roman_MSFontService', sans-serif"
         font-weight="700"
         font-size="24px"
         transform="translate(290.761,518)"
         id="text43">TS<tspan
   font-size="16px"
   x="29.3333"
   y="5"
   id="tspan43">1</tspan></text>
      <path
         d="m 405.5,355.5 c 0,-3.314 2.462,-6 5.5,-6 3.038,0 5.5,2.686 5.5,6 0,3.314 -2.462,6 -5.5,6 -3.038,0 -5.5,-2.686 -5.5,-6 z"
         stroke="#008000"
         stroke-width="1.33333"
         stroke-miterlimit="8"
         fill="#008000"
         fill-rule="evenodd"
         id="path43" />
      <text
         fill="#843c0c"
         font-family="'Times New Roman', 'Times New Roman_MSFontService', sans-serif"
         font-weight="700"
         font-size="24px"
         transform="translate(580.152,404)"
         id="text44">TS<tspan
   font-size="16px"
   x="29.3333"
   y="5"
   id="tspan44">3</tspan></text>
      <path
         d="m 584,426.5 c 0,-3.038 2.462,-5.5 5.5,-5.5 3.038,0 5.5,2.462 5.5,5.5 0,3.038 -2.462,5.5 -5.5,5.5 -3.038,0 -5.5,-2.462 -5.5,-5.5 z"
         fill="#843c0c"
         fill-rule="evenodd"
         id="path44" />
      <text
         fill="#008000"
         font-family="'Times New Roman', 'Times New Roman_MSFontService', sans-serif"
         font-weight="700"
         font-size="24px"
         transform="translate(424.616,372)"
         id="text45">TS<tspan
   font-size="16px"
   x="29.3333"
   y="5"
   id="tspan45">2</tspan></text>
      <path
         d="m 410.841,447.827 0.578,-5.905 1.71,-5.853 2.687,-5.44 3.467,-4.841 4.07,-4.135 4.583,-3.255 4.992,-2.091 5.024,-0.718 4.812,-0.687 -0.408,0.113 4.625,-1.938 -0.321,0.178 4.313,-3.062 -0.223,0.19 3.875,-3.938 -0.167,0.199 3.312,-4.625 -0.139,0.232 2.562,-5.187 -0.105,0.27 0.429,-1.468 3.199,0.935 -0.47,1.608 -2.687,5.44 -3.467,4.842 -4.07,4.135 -4.583,3.254 -4.992,2.092 -5.024,0.717 -4.812,0.688 0.408,-0.113 -4.625,1.938 0.321,-0.179 -4.312,3.063 0.222,-0.19 -3.875,3.937 0.168,-0.198 -3.313,4.625 0.139,-0.233 -2.562,5.188 0.105,-0.271 -1.625,5.563 0.059,-0.305 -0.562,5.75 z m 51.276,-51.494 -6.095,5.684 7.853,-15.528 1.991,17.287 z"
         fill="#0000ff"
         id="path45" />
      <path
         d="m 586.317,426.693 -54.496,-37.18 1.879,-2.754 54.496,37.18 z m -53.556,-38.557 2.689,7.887 -10.95,-13.523 16.586,5.263 z"
         fill="#843c0c"
         id="path46" />
      <path
         d="m 342.927,515.948 3.333,-9.496 1.996,-4.57 2.402,-4.286 2.905,-3.96 3.667,-3.401 4.343,-2.739 5.23,-1.92 3.181,-0.609 3.566,-0.198 7.903,0.319 8.856,1.138 9.226,1.569 9.193,1.626 -0.007,-10e-4 8.688,1.5 -0.074,-0.011 3.938,0.5 -0.042,-0.005 3.688,0.375 -0.073,-0.005 3.25,0.187 -0.17,-0.001 2.813,-0.125 -0.236,0.027 4.625,-0.875 -0.341,0.103 3.688,-1.562 -0.302,0.166 2.875,-2 -0.226,0.19 1.535,-1.536 2.357,2.357 -1.64,1.641 -3.139,2.184 -4.012,1.699 -4.918,0.931 -3.016,0.134 -3.371,-0.195 -3.745,-0.38 -3.995,-0.508 -8.727,-1.507 -9.191,-1.625 0.011,0.002 -9.188,-1.563 0.067,0.01 -8.75,-1.125 0.145,0.012 -7.75,-0.312 0.16,-0.001 -3.375,0.187 0.221,-0.027 -2.937,0.562 0.26,-0.072 -4.937,1.813 0.315,-0.155 -4.063,2.562 0.244,-0.187 -3.437,3.187 0.211,-0.236 -2.75,3.75 0.109,-0.171 -2.312,4.125 0.073,-0.148 -1.937,4.437 0.045,-0.114 -3.312,9.437 z m 100.609,-28.421 -7.99,2.369 13.954,-10.396 -5.927,16.36 z"
         fill="#ff3b3b"
         id="path47" />
      <path
         d="m 344,510.5 c 3.038,0 5.5,2.686 5.5,6 0,3.314 -2.462,6 -5.5,6 -3.037,0 -5.5,-2.686 -5.5,-6 0,-3.314 2.463,-6 5.5,-6 z"
         stroke="#ff0000"
         stroke-width="1.33333"
         stroke-miterlimit="8"
         fill="#ff0000"
         fill-rule="evenodd"
         id="path48" />
      <path
         d="m 411.585,355.644 -0.575,6.647 -1.761,6.52 -2.727,6.103 -3.452,5.471 -4.2,4.66 -4.7,3.574 -5.07,2.402 -2.735,0.631 -2.563,0.197 -2.437,0.188 0.247,-0.038 -2.438,0.563 0.339,-0.118 -4.75,2.25 0.295,-0.18 -4.437,3.375 0.238,-0.22 -3.938,4.437 0.155,-0.205 -3.375,5.25 0.126,-0.235 -2.562,5.875 0.081,-0.231 -0.756,2.799 -3.218,-0.869 0.788,-2.918 2.665,-6.111 3.517,-5.471 4.131,-4.655 4.706,-3.579 5.07,-2.402 2.735,-0.631 2.563,-0.197 2.437,-0.188 -0.247,0.038 2.438,-0.562 -0.339,0.117 4.75,-2.25 -0.296,0.18 4.438,-3.375 -0.229,0.211 4,-4.438 -0.172,0.227 3.313,-5.25 -0.112,0.209 2.625,-5.875 -0.088,0.246 1.688,-6.25 -0.052,0.29 0.563,-6.5 z m -52.604,59.281 5.94,-5.845 -7.434,15.733 -2.454,-17.227 z"
         fill="#008000"
         id="path49" />
    </g>
  </g>
</svg>
