<?xml version="1.0" encoding="UTF-8" standalone="no"?>
<!-- Created with Inkscape (http://www.inkscape.org/) -->

<svg
   width="246.61369mm"
   height="57.200146mm"
   viewBox="0 0 246.61369 57.200146"
   version="1.1"
   id="svg1"
   xmlns="http://www.w3.org/2000/svg"
   xmlns:svg="http://www.w3.org/2000/svg">
  <defs
     id="defs1">
    <clipPath
       id="clip0">
      <rect
         x="568"
         y="585"
         width="947"
         height="232"
         id="rect1" />
    </clipPath>
  </defs>
  <g
     id="layer1"
     transform="translate(-20.421072,-89.264725)">
    <g
       clip-path="url(#clip0)"
       transform="matrix(0.26458333,0,0,0.26458333,-133.80896,-69.463227)"
       id="g29">
      <path
         d="m 585,659.06 c 0,-3.347 2.713,-6.06 6.06,-6.06 h 204.88 c 3.347,0 6.06,2.713 6.06,6.06 v 32.88 c 0,3.347 -2.713,6.06 -6.06,6.06 H 591.06 c -3.347,0 -6.06,-2.713 -6.06,-6.06 z"
         stroke="#000000"
         stroke-width="4.16667"
         stroke-miterlimit="8"
         fill="none"
         fill-rule="evenodd"
         id="path1" />
      <text
         font-family="'Cambria Math', 'Cambria Math_MSFontService', sans-serif"
         font-weight="400"
         font-size="30px"
         transform="translate(599.048,685)"
         id="text8">𝑂𝑃<tspan
   font-size="30px"
   x="39.483299"
   y="0"
   id="tspan1" /><tspan
   font-size="30px"
   x="54.483299"
   y="0"
   id="tspan2">≔</tspan><tspan
   font-family="'Times New Roman', 'Times New Roman_MSFontService', sans-serif"
   font-style="italic"
   font-size="30px"
   x="90.941704"
   y="0"
   id="tspan3" /><tspan
   font-family="'Times New Roman', 'Times New Roman_MSFontService', sans-serif"
   font-style="italic"
   font-size="30px"
   x="98.441704"
   y="0"
   id="tspan4">l</tspan><tspan
   font-family="'Times New Roman', 'Times New Roman_MSFontService', sans-serif"
   font-style="italic"
   font-size="30px"
   x="106.775"
   y="0"
   id="tspan5">2</tspan><tspan
   font-family="'Times New Roman', 'Times New Roman_MSFontService', sans-serif"
   font-style="italic"
   font-size="30px"
   x="121.775"
   y="0"
   id="tspan6">o</tspan><tspan
   font-family="'Times New Roman', 'Times New Roman_MSFontService', sans-serif"
   font-style="italic"
   font-size="30px"
   x="136.77499"
   y="0"
   id="tspan7">(</tspan>𝑁<tspan
   font-family="'Times New Roman', 'Times New Roman_MSFontService', sans-serif"
   font-style="italic"
   font-size="30px"
   x="168.64999"
   y="0"
   id="tspan8">)</tspan></text>
      <text
         font-family="'Times New Roman', 'Times New Roman_MSFontService', sans-serif"
         font-weight="700"
         font-size="30px"
         transform="translate(586.479,624)"
         id="text9">(a) SB</text>
      <path
         d="m 585,754.06 c 0,-3.347 2.713,-6.06 6.06,-6.06 h 204.88 c 3.347,0 6.06,2.713 6.06,6.06 v 32.88 c 0,3.347 -2.713,6.06 -6.06,6.06 H 591.06 c -3.347,0 -6.06,-2.713 -6.06,-6.06 z"
         stroke="#000000"
         stroke-width="4.16667"
         stroke-miterlimit="8"
         fill="none"
         fill-rule="evenodd"
         id="path9" />
      <text
         font-family="'Cambria Math', 'Cambria Math_MSFontService', sans-serif"
         font-weight="400"
         font-size="30px"
         transform="translate(609.986,779)"
         id="text10">𝑁𝑆𝐺𝐴3<tspan
   font-size="30px"
   x="92.291702"
   y="0"
   id="tspan9">(</tspan>𝑂𝑃<tspan
   font-size="30px"
   x="144.27499"
   y="0"
   id="tspan10">)</tspan></text>
      <path
         d="m 1120,608.195 c 0,-3.422 2.77,-6.195 6.19,-6.195 h 379.62 c 3.42,0 6.19,2.773 6.19,6.195 v 33.61 c 0,3.422 -2.77,6.195 -6.19,6.195 h -379.62 c -3.42,0 -6.19,-2.773 -6.19,-6.195 z"
         stroke="#000000"
         stroke-width="4.16667"
         stroke-miterlimit="8"
         fill="none"
         fill-rule="evenodd"
         id="path10" />
      <text
         font-family="'Cambria Math', 'Cambria Math_MSFontService', sans-serif"
         font-weight="400"
         font-size="30px"
         transform="translate(1133.73,634)"
         id="text16">𝑠𝑐𝑒𝑛𝑖𝑐𝐹𝑖𝑙𝑒<tspan
   font-size="30px"
   x="135.867"
   y="0"
   id="tspan11" /><tspan
   font-size="30px"
   x="150.867"
   y="0"
   id="tspan12">≔</tspan><tspan
   font-size="30px"
   x="187.325"
   y="0"
   id="tspan13" /><tspan
   font-size="30px"
   x="193.992"
   y="0"
   id="tspan14">𝐺𝑒𝑛𝑆𝑐𝑒𝑛</tspan><tspan
   font-size="30px"
   x="307.21701"
   y="0"
   id="tspan15">(</tspan>𝑁<tspan
   font-size="30px"
   x="342.32501"
   y="0"
   id="tspan16">)</tspan></text>
      <text
         font-family="'Times New Roman', 'Times New Roman_MSFontService', sans-serif"
         font-weight="700"
         font-size="30px"
         transform="translate(961.998,624)"
         id="text17">(b) RS</text>
      <path
         d="m 1222,688.464 c 0,-3.57 2.89,-6.464 6.46,-6.464 h 278.08 c 3.57,0 6.46,2.894 6.46,6.464 v 35.072 c 0,3.57 -2.89,6.464 -6.46,6.464 h -278.08 c -3.57,0 -6.46,-2.894 -6.46,-6.464 z"
         stroke="#000000"
         stroke-width="4.16667"
         stroke-miterlimit="8"
         fill="none"
         fill-rule="evenodd"
         id="path17" />
      <text
         font-family="'Cambria Math', 'Cambria Math_MSFontService', sans-serif"
         font-weight="400"
         font-size="30px"
         transform="translate(1231.03,715)"
         id="text18">𝑆𝑐𝑒𝑛𝑖𝑐3<tspan
   font-size="30px"
   x="101.667"
   y="0"
   id="tspan17">(</tspan>𝑠𝑐𝑒𝑛𝑖𝑐𝐹𝑖𝑙𝑒<tspan
   font-size="30px"
   x="250.033"
   y="0"
   id="tspan18">)</tspan></text>
      <path
         d="m 946.5,754.5 130,-60 130,60 -130,60 z"
         stroke="#000000"
         stroke-width="2.91667"
         stroke-miterlimit="8"
         fill="none"
         fill-rule="evenodd"
         id="path18" />
      <text
         font-family="Calibri, Calibri_MSFontService, sans-serif"
         font-weight="400"
         font-size="30px"
         transform="translate(1026.79,746)"
         id="text19">Satisfies</text>
      <text
         font-family="'Cambria Math', 'Cambria Math_MSFontService', sans-serif"
         font-weight="400"
         font-size="30px"
         transform="translate(1048.6,782)"
         id="text20">𝐶<tspan
   font-size="22px"
   x="16.1583"
   y="6"
   id="tspan19">𝑁</tspan></text>
      <text
         font-family="Calibri, Calibri_MSFontService, sans-serif"
         font-weight="400"
         font-size="30px"
         transform="translate(1089.84,782)"
         id="text21">?</text>
      <path
         d="m 695.917,698 v 37.815 h -5.834 V 698 Z m -2.917,37.815 8.75,-5.833 -8.75,17.5 -8.75,-17.5 z"
         id="path21" />
      <text
         font-family="'Times New Roman', 'Times New Roman_MSFontService', sans-serif"
         font-weight="400"
         font-size="27px"
         transform="translate(919.904,779)"
         id="text22">Yes<tspan
   font-size="27px"
   x="112.229"
   y="-92"
   id="tspan21">No</tspan></text>
      <path
         d="M 0.0171643,-2.91662 60.2896,-2.56191 60.2781,-0.617503 0.00572142,-0.972205 Z M -0.00572142,0.972205 60.2667,1.32691 60.2552,3.27132 -0.0171643,2.91662 Z M 60.2724,0.354703 54.4906,-8.42947 71.9388,0.42336 54.3877,9.07022 Z"
         transform="matrix(1,0,0,-1,802,770.423)"
         id="path22" />
      <path
         d="m 1369.92,730 v 20.35 h -1.95 V 730 Z m -3.89,0 v 20.35 h -1.95 V 730 Z m 0.97,20.35 8.75,-5.833 -8.75,17.5 -8.75,-17.5 z"
         id="path23" />
      <path
         d="m 1073.08,693.749 v -71.666 h 35.08 v 5.834 H 1076 l 2.92,-2.917 v 68.749 z m 35.08,-68.749 -5.84,-8.75 17.5,8.75 -17.5,8.75 z"
         id="path24" />
      <path
         d="m 1435,808 v 0 0 0 h -135 v -46 h 135 v 46"
         stroke="#000000"
         stroke-width="4.16667"
         stroke-miterlimit="8"
         stroke-dasharray="16.6667, 12.5"
         fill="none"
         fill-rule="evenodd"
         id="path25" />
      <text
         font-family="'Cambria Math', 'Cambria Math_MSFontService', sans-serif"
         font-weight="400"
         font-size="30px"
         transform="translate(1326.45,796)"
         id="text25">𝑠𝑐𝑒𝑛𝑒</text>
      <path
         d="M 0,-2.91667 H 15.807 V 51.1549 l -2.9167,-2.9167 h 9.2236 v 5.8333 H 9.97365 V 0 L 12.8903,2.91667 H 0 Z m 22.1139,54.07157 -5.8333,-8.75 17.5,8.75 -17.5,8.75 z"
         transform="matrix(0,1,1,0,1316,648)"
         id="path26" />
      <path
         d="m 1299.46,788.517 h -49.65 V 754 l 2.92,2.917 h -35.06 v -5.834 h 37.98 v 34.518 l -2.92,-2.917 h 46.73 z M 1217.67,754 l 5.83,8.75 -17.5,-8.75 17.5,-8.75 z"
         id="path27" />
      <text
         font-family="'Cambria Math', 'Cambria Math_MSFontService', sans-serif"
         font-weight="400"
         font-size="30px"
         transform="translate(829.697,620)"
         id="text27">𝑠𝑐𝑒𝑛𝑒<tspan
   font-size="22px"
   x="73.708397"
   y="6"
   id="tspan27">𝑁</tspan></text>
      <path
         d="M 874,633 V 813.538"
         stroke="#000000"
         stroke-width="3.75"
         stroke-miterlimit="8"
         fill="none"
         fill-rule="evenodd"
         id="path28" />
      <path
         d="M 5.55417e-6,-2.91667 57.2482,-2.91656 v 1.944447 L 1.85139e-6,-0.972222 Z M -1.85139e-6,0.972222 57.2482,0.972331 V 2.91678 L -5.55417e-6,2.91667 Z M 57.2482,1.09017e-4 51.4148,-8.7499 68.9148,1.31234e-4 51.4148,8.7501 Z"
         transform="matrix(-1,0,0,1,945.915,754)"
         id="path29" />
    </g>
  </g>
</svg>
