<?xml version="1.0" encoding="UTF-8" standalone="no"?>
<!-- Created with Inkscape (http://www.inkscape.org/) -->

<svg
   width="164.57083mm"
   height="46.875347mm"
   viewBox="0 0 164.57083 46.875347"
   version="1.1"
   id="svg1"
   xmlns="http://www.w3.org/2000/svg"
   xmlns:svg="http://www.w3.org/2000/svg">
  <defs
     id="defs1">
    <clipPath
       id="clip0-6">
      <rect
         x="322"
         y="354"
         width="622"
         height="180"
         id="rect1-1" />
    </clipPath>
    <linearGradient
       x1="621"
       y1="359.5"
       x2="621"
       y2="481.5"
       gradientUnits="userSpaceOnUse"
       spreadMethod="reflect"
       id="fill1">
      <stop
         offset="0"
         stop-color="#0000FF"
         stop-opacity="0.360784"
         id="stop1" />
      <stop
         offset="0.3"
         stop-color="#0000FF"
         stop-opacity="0.360784"
         id="stop2" />
      <stop
         offset="0.32"
         stop-color="#FFFFFF"
         id="stop3" />
      <stop
         offset="1"
         stop-color="#FFFFFF"
         id="stop4" />
    </linearGradient>
    <linearGradient
       x1="868.5"
       y1="452.5"
       x2="868.5"
       y2="531.5"
       gradientUnits="userSpaceOnUse"
       spreadMethod="reflect"
       id="fill2">
      <stop
         offset="0"
         stop-color="#FFA3A3"
         id="stop5" />
      <stop
         offset="0.5"
         stop-color="#FFA3A3"
         id="stop6" />
      <stop
         offset="0.52"
         stop-color="#FFFFFF"
         id="stop7" />
      <stop
         offset="1"
         stop-color="#FFFFFF"
         id="stop8" />
    </linearGradient>
    <linearGradient
       x1="395"
       y1="382.5"
       x2="395"
       y2="461.5"
       gradientUnits="userSpaceOnUse"
       spreadMethod="reflect"
       id="fill3">
      <stop
         offset="0"
         stop-color="#A3D1A3"
         id="stop9" />
      <stop
         offset="0.5"
         stop-color="#A3D1A3"
         id="stop10" />
      <stop
         offset="0.52"
         stop-color="#FFFFFF"
         id="stop11" />
      <stop
         offset="1"
         stop-color="#FFFFFF"
         id="stop12" />
    </linearGradient>
    <linearGradient
       x1="870.5"
       y1="359.5"
       x2="870.5"
       y2="438.5"
       gradientUnits="userSpaceOnUse"
       spreadMethod="reflect"
       id="fill4">
      <stop
         offset="0"
         stop-color="#C55A11"
         stop-opacity="0.811765"
         id="stop13" />
      <stop
         offset="0.5"
         stop-color="#C55A11"
         stop-opacity="0.811765"
         id="stop14" />
      <stop
         offset="0.52"
         stop-color="#FFFFFF"
         id="stop15" />
      <stop
         offset="1"
         stop-color="#FFFFFF"
         id="stop16" />
    </linearGradient>
  </defs>
  <g
     id="layer1"
     transform="translate(-48.947915,-122.98717)">
    <g
       clip-path="url(#clip0-6)"
       transform="matrix(0.26458333,0,0,0.26458333,-36.247916,28.575)"
       id="g38">
      <text
         fill="#181f2b"
         font-family="Calibri, Calibri_MSFontService, sans-serif"
         font-style="italic"
         font-weight="400"
         font-size="19px"
         transform="translate(684.451,495)"
         id="text16">overtak<tspan
   font-size="19px"
   x="56.5467"
   y="0"
   id="tspan16">eStar</tspan></text>
      <path
         d="m 796.402,493.269 -88.682,-54.161 1.042,-1.707 88.683,54.161 z M 705.904,444.639 698,432 l 14.854,1.26 z"
         id="path16" />
      <path
         d="m 558.5,379.834 c 0,-11.23 9.104,-20.334 20.334,-20.334 h 84.332 c 11.23,0 20.334,9.104 20.334,20.334 v 81.332 c 0,11.23 -9.104,20.334 -20.334,20.334 h -84.332 c -11.23,0 -20.334,-9.104 -20.334,-20.334 z"
         stroke="#000000"
         stroke-width="5.33333"
         stroke-miterlimit="8"
         fill="url(#fill1)"
         fill-rule="evenodd"
         id="path17"
         style="fill:url(#fill1)" />
      <path
         d="m 577.5,387.5 v -11 h 16 l 4,5.5 -4,5.5 z"
         stroke="#000000"
         stroke-width="1.33333"
         stroke-linecap="round"
         stroke-linejoin="round"
         stroke-miterlimit="10"
         fill-rule="evenodd"
         id="path18" />
      <path
         d="m 577.5,419.5 v -11 h 16 l 4,5.5 -4,5.5 z"
         stroke="#000000"
         stroke-width="1.33333"
         stroke-linecap="round"
         stroke-linejoin="round"
         stroke-miterlimit="10"
         fill-rule="evenodd"
         id="path19" />
      <path
         d="m 577.5,444.5 v -11 h 16 l 4,5.5 -4,5.5 z"
         stroke="#000000"
         stroke-width="1.33333"
         stroke-linecap="round"
         stroke-linejoin="round"
         stroke-miterlimit="10"
         fill-rule="evenodd"
         id="path20" />
      <path
         d="m 577.5,467.5 v -10 h 16 l 4,5 -4,5 z"
         stroke="#000000"
         stroke-width="1.33333"
         stroke-linecap="round"
         stroke-linejoin="round"
         stroke-miterlimit="10"
         fill-rule="evenodd"
         id="path21" />
      <text
         fill="#181f2b"
         font-family="'Times New Roman', 'Times New Roman_MSFontService', sans-serif"
         font-style="italic"
         font-weight="700"
         font-size="24px"
         transform="translate(608.335,389)"
         id="text23">OS<tspan
   fill="#000000"
   font-family="Calibri, Calibri_MSFontService, sans-serif"
   font-weight="400"
   font-size="19px"
   x="-3.7973599"
   y="29"
   id="tspan21">standOn</tspan><tspan
   fill="#000000"
   font-family="Calibri, Calibri_MSFontService, sans-serif"
   font-weight="400"
   font-size="19px"
   x="-3.2000101"
   y="53"
   id="tspan22">giveWay</tspan><tspan
   font-family="Calibri, Calibri_MSFontService, sans-serif"
   font-weight="400"
   font-size="19px"
   x="-4.0976"
   y="76"
   id="tspan23">ambig</tspan></text>
      <path
         d="M 1.22978e-6,-1 73.3704,-0.99991 v 2 L -1.22978e-6,1 Z M 72.0371,-6.66658 85.3704,1.04987e-4 72.037,6.66676 Z"
         transform="matrix(-1,0,0,1,559.37,417)"
         id="path23" />
      <text
         fill="#181f2b"
         font-family="Calibri, Calibri_MSFontService, sans-serif"
         font-style="italic"
         font-weight="400"
         font-size="19px"
         transform="translate(480.758,401)"
         id="text24">headOn</text>
      <path
         d="m 556,398 126.448,0.937"
         stroke="#000000"
         stroke-width="2.33333"
         stroke-miterlimit="8"
         stroke-dasharray="9.33333, 7"
         fill="none"
         fill-rule="evenodd"
         id="path24" />
      <path
         d="m 797.5,465.667 c 0,-7.272 5.895,-13.167 13.167,-13.167 h 115.666 c 7.272,0 13.167,5.895 13.167,13.167 v 52.666 c 0,7.272 -5.895,13.167 -13.167,13.167 H 810.667 c -7.272,0 -13.167,-5.895 -13.167,-13.167 z"
         stroke="#000000"
         stroke-width="5.33333"
         stroke-miterlimit="8"
         fill="url(#fill2)"
         fill-rule="evenodd"
         id="path25"
         style="fill:url(#fill2)" />
      <path
         d="m 816.5,480.5 v -11 h 16 l 4,5.5 -4,5.5 z"
         stroke="#000000"
         stroke-width="1.33333"
         stroke-linecap="round"
         stroke-linejoin="round"
         stroke-miterlimit="10"
         fill-rule="evenodd"
         id="path26" />
      <path
         d="m 816.5,516.5 v -10 h 16.8 l 4.2,5 -4.2,5 z"
         stroke="#000000"
         stroke-width="1.33333"
         stroke-linecap="round"
         stroke-linejoin="round"
         stroke-miterlimit="10"
         fill-rule="evenodd"
         id="path27" />
      <text
         fill="#181f2b"
         font-family="Calibri, Calibri_MSFontService, sans-serif"
         font-style="italic"
         font-weight="700"
         font-size="24px"
         transform="translate(847.553,481)"
         id="text28">TS<tspan
   font-size="16px"
   x="23"
   y="5"
   id="tspan27">1</tspan><tspan
   fill="#000000"
   font-weight="400"
   font-size="19px"
   x="-3.79742"
   y="34"
   id="tspan28">giveWay</tspan></text>
      <path
         d="M 795,493 H 938.622"
         stroke="#000000"
         stroke-width="2.33333"
         stroke-miterlimit="8"
         stroke-dasharray="9.33333, 7"
         fill="none"
         fill-rule="evenodd"
         id="path28" />
      <path
         d="m 324.5,395.667 c 0,-7.272 5.895,-13.167 13.167,-13.167 h 114.666 c 7.272,0 13.167,5.895 13.167,13.167 v 52.666 c 0,7.272 -5.895,13.167 -13.167,13.167 H 337.667 c -7.272,0 -13.167,-5.895 -13.167,-13.167 z"
         stroke="#000000"
         stroke-width="5.33333"
         stroke-miterlimit="8"
         fill="url(#fill3)"
         fill-rule="evenodd"
         id="path29"
         style="fill:url(#fill3)" />
      <path
         d="m 342.5,410.5 v -11 h 16.8 l 4.2,5.5 -4.2,5.5 z"
         stroke="#000000"
         stroke-width="1.33333"
         stroke-linecap="round"
         stroke-linejoin="round"
         stroke-miterlimit="10"
         fill-rule="evenodd"
         id="path30" />
      <path
         d="m 342.5,448.5 v -11 h 16.8 l 4.2,5.5 -4.2,5.5 z"
         stroke="#000000"
         stroke-width="1.33333"
         stroke-linecap="round"
         stroke-linejoin="round"
         stroke-miterlimit="10"
         fill-rule="evenodd"
         id="path31" />
      <text
         fill="#181f2b"
         font-family="Calibri, Calibri_MSFontService, sans-serif"
         font-style="italic"
         font-weight="700"
         font-size="24px"
         transform="translate(373.685,411)"
         id="text32">TS<tspan
   font-size="16px"
   x="23"
   y="5"
   id="tspan31">2</tspan><tspan
   fill="#000000"
   font-weight="400"
   font-size="19px"
   x="-3.7973599"
   y="36"
   id="tspan32">giveWay</tspan></text>
      <path
         d="M 322,422 H 465.622"
         stroke="#000000"
         stroke-width="2.33333"
         stroke-miterlimit="8"
         stroke-dasharray="9.33333, 7"
         fill="none"
         fill-rule="evenodd"
         id="path32" />
      <text
         fill="#181f2b"
         font-family="Calibri, Calibri_MSFontService, sans-serif"
         font-style="italic"
         font-weight="400"
         font-size="19px"
         transform="translate(481.398,451)"
         id="text33">headOn</text>
      <path
         d="m 467,430 h 68.167 v 2 H 467 Z m 66.834,-5.667 13.333,6.667 -13.333,6.667 z"
         id="path33" />
      <text
         fill="#181f2b"
         font-family="Calibri, Calibri_MSFontService, sans-serif"
         font-style="italic"
         font-weight="400"
         font-size="19px"
         transform="translate(699.91,378)"
         id="text34">crossing</text>
      <path
         d="m 684,387 h 83.476 v 2 H 684 Z m 82.143,-5.667 13.333,6.667 -13.333,6.667 z"
         id="path34" />
      <path
         d="m 799.5,372.667 c 0,-7.272 5.895,-13.167 13.167,-13.167 h 115.666 c 7.272,0 13.167,5.895 13.167,13.167 v 52.666 c 0,7.272 -5.895,13.167 -13.167,13.167 H 812.667 c -7.272,0 -13.167,-5.895 -13.167,-13.167 z"
         stroke="#000000"
         stroke-width="5.33333"
         stroke-miterlimit="8"
         fill="url(#fill4)"
         fill-rule="evenodd"
         id="path35"
         style="fill:url(#fill4)" />
      <path
         d="m 818.5,387.5 v -11 h 16 l 4,5.5 -4,5.5 z"
         stroke="#000000"
         stroke-width="1.33333"
         stroke-linecap="round"
         stroke-linejoin="round"
         stroke-miterlimit="10"
         fill-rule="evenodd"
         id="path36" />
      <path
         d="m 818.5,423.5 v -11 h 16 l 4,5.5 -4,5.5 z"
         stroke="#000000"
         stroke-width="1.33333"
         stroke-linecap="round"
         stroke-linejoin="round"
         stroke-miterlimit="10"
         fill-rule="evenodd"
         id="path37" />
      <text
         fill="#181f2b"
         font-family="Calibri, Calibri_MSFontService, sans-serif"
         font-style="italic"
         font-weight="700"
         font-size="24px"
         transform="translate(849.523,388)"
         id="text38">TS<tspan
   font-size="16px"
   x="23"
   y="5"
   id="tspan37">3</tspan><tspan
   fill="#000000"
   font-weight="400"
   font-size="19px"
   x="-3.7973599"
   y="34"
   id="tspan38">standOn</tspan></text>
      <path
         d="M 797,399 H 940.622"
         stroke="#000000"
         stroke-width="2.33333"
         stroke-miterlimit="8"
         stroke-dasharray="9.33333, 7"
         fill="none"
         fill-rule="evenodd"
         id="path38" />
    </g>
  </g>
</svg>
