<?xml version="1.0" encoding="UTF-8" standalone="no"?>
<!-- Created with Inkscape (http://www.inkscape.org/) -->

<svg
   width="203.90555mm"
   height="45.155567mm"
   viewBox="0 0 203.90555 45.155567"
   version="1.1"
   id="svg1"
   xmlns="http://www.w3.org/2000/svg"
   xmlns:svg="http://www.w3.org/2000/svg">
  <defs
     id="defs1">
    <clipPath
       id="clip0-4">
      <rect
         x="1395"
         y="41"
         width="771"
         height="173"
         id="rect1-8" />
    </clipPath>
  </defs>
  <g
     id="layer1"
     transform="translate(-52.696173,-86.562847)">
    <g
       clip-path="url(#clip0-4)"
       transform="matrix(0.26458333,0,0,0.26458333,-316.44167,75.670833)"
       id="g13">
      <text
         fill="#181f2b"
         font-family="Calibri, Calibri_MSFontService, sans-serif"
         font-style="italic"
         font-weight="400"
         font-size="27px"
         transform="translate(1596.28,173)"
         id="text1">headO<tspan
   font-size="27px"
   x="71.458397"
   y="0"
   id="tspan1">n</tspan></text>
      <path
         d="m 1722.5,115 c 0,-5.247 4.25,-9.5 9.5,-9.5 h 112 c 5.25,0 9.5,4.253 9.5,9.5 v 38 c 0,5.247 -4.25,9.5 -9.5,9.5 h -112 c -5.25,0 -9.5,-4.253 -9.5,-9.5 z"
         stroke="#000000"
         stroke-width="6.66667"
         stroke-miterlimit="8"
         fill="#a3a3ff"
         fill-rule="evenodd"
         id="path1" />
      <path
         d="m 1745,140 v -13 h 20 l 5,6.5 -5,6.5 z"
         stroke="#000000"
         stroke-width="1.66667"
         stroke-linecap="round"
         stroke-linejoin="round"
         stroke-miterlimit="10"
         fill-rule="evenodd"
         id="path2" />
      <text
         fill="#181f2b"
         font-family="'Times New Roman', 'Times New Roman_MSFontService', sans-serif"
         font-style="italic"
         font-weight="700"
         font-size="30px"
         transform="translate(1784.41,143)"
         id="text2">OS</text>
      <path
         d="m 2031.5,161.833 c 0,-5.154 4.18,-9.333 9.33,-9.333 h 112.34 c 5.15,0 9.33,4.179 9.33,9.333 v 37.334 c 0,5.154 -4.18,9.333 -9.33,9.333 h -112.34 c -5.15,0 -9.33,-4.179 -9.33,-9.333 z"
         stroke="#000000"
         stroke-width="6.66667"
         stroke-miterlimit="8"
         fill="#ffa3a3"
         fill-rule="evenodd"
         id="path3" />
      <path
         d="m 2054,186 v -13 h 20.8 l 5.2,6.5 -5.2,6.5 z"
         stroke="#000000"
         stroke-width="1.66667"
         stroke-linecap="round"
         stroke-linejoin="round"
         stroke-miterlimit="10"
         fill-rule="evenodd"
         id="path4" />
      <text
         fill="#181f2b"
         font-family="Calibri, Calibri_MSFontService, sans-serif"
         font-style="italic"
         font-weight="700"
         font-size="30px"
         transform="translate(2093.59,188)"
         id="text4">TS<tspan
   font-size="20px"
   x="28.75"
   y="7"
   id="tspan4">1</tspan></text>
      <path
         d="m 1398.5,112.834 c 0,-5.155 4.18,-9.334 9.33,-9.334 h 113.34 c 5.15,0 9.33,4.179 9.33,9.334 v 37.332 c 0,5.155 -4.18,9.334 -9.33,9.334 h -113.34 c -5.15,0 -9.33,-4.179 -9.33,-9.334 z"
         stroke="#000000"
         stroke-width="6.66667"
         stroke-miterlimit="8"
         fill="#a3d1a3"
         fill-rule="evenodd"
         id="path5" />
      <path
         d="m 1422,138 v -14 h 20 l 5,7 -5,7 z"
         stroke="#000000"
         stroke-width="1.66667"
         stroke-linecap="round"
         stroke-linejoin="round"
         stroke-miterlimit="10"
         fill-rule="evenodd"
         id="path6" />
      <text
         fill="#181f2b"
         font-family="Calibri, Calibri_MSFontService, sans-serif"
         font-style="italic"
         font-weight="700"
         font-size="30px"
         transform="translate(1460.81,139)"
         id="text6">TS<tspan
   font-size="20px"
   x="28.75"
   y="7"
   id="tspan6">2</tspan></text>
      <path
         d="M 0.00164174,-1.25 150.968,-1.05172 l -0.004,2.5 L -0.00164174,1.25 Z M 149.31,-8.13724 165.966,0.217979 149.288,8.52942 Z"
         transform="matrix(-1,0,0,1,1718.47,149.5)"
         id="path7" />
      <path
         d="M 0.00602565,-1.24999 136.751,-0.590798 136.738,1.90917 -0.00602565,1.24999 Z M 135.118,-7.68208 151.744,0.731496 135.038,8.98439 Z"
         transform="matrix(1,0,0,-1,1530.5,113.231)"
         id="path8" />
      <path
         d="M 0.207463,-1.23266 145.422,23.2076 145.007,25.6729 -0.207463,1.23266 Z M 144.954,15.9459 l 15.052,10.9839 -17.818,5.4516 z"
         transform="matrix(1,0,0,-1,1853.5,112.43)"
         id="path9" />
      <text
         fill="#181f2b"
         font-family="Calibri, Calibri_MSFontService, sans-serif"
         font-style="italic"
         font-weight="400"
         font-size="27px"
         transform="translate(1877.98,91)"
         id="text9">cross</text>
      <path
         d="m 2029.5,54.0001 c 0,-5.2467 4.25,-9.5001 9.5,-9.5001 h 113 c 5.25,0 9.5,4.2534 9.5,9.5001 v 37.9998 c 0,5.2467 -4.25,9.5001 -9.5,9.5001 h -113 c -5.25,0 -9.5,-4.2534 -9.5,-9.5001 z"
         stroke="#000000"
         stroke-width="6.66667"
         stroke-miterlimit="8"
         fill="#d0793e"
         fill-rule="evenodd"
         id="path10" />
      <path
         d="M 2052,79 V 66 h 20.8 l 5.2,6.5 -5.2,6.5 z"
         stroke="#000000"
         stroke-width="1.66667"
         stroke-linecap="round"
         stroke-linejoin="round"
         stroke-miterlimit="10"
         fill-rule="evenodd"
         id="path11" />
      <text
         fill="#181f2b"
         font-family="Calibri, Calibri_MSFontService, sans-serif"
         font-style="italic"
         font-weight="700"
         font-size="30px"
         transform="translate(2091.69,81)"
         id="text11">TS<tspan
   font-size="20px"
   x="28.75"
   y="7"
   id="tspan11">3</tspan></text>
      <path
         d="m 2030.75,181.02 -143.88,-32.039 0.54,-2.441 143.88,32.04 z m -143.79,-24.763 -14.46,-11.757 18.08,-4.511 z"
         id="path12" />
      <text
         fill="#181f2b"
         font-family="Calibri, Calibri_MSFontService, sans-serif"
         font-style="italic"
         font-weight="400"
         font-size="27px"
         transform="translate(1927.52,149)"
         id="text13">ovtkStar<tspan
   font-size="27px"
   x="-373.67499"
   y="-50"
   id="tspan12">headO</tspan><tspan
   font-size="27px"
   x="-302.21701"
   y="-50"
   id="tspan13">n</tspan></text>
    </g>
  </g>
</svg>
