<?xml version="1.0" encoding="UTF-8" standalone="no"?>
<!-- Created with Inkscape (http://www.inkscape.org/) -->

<svg
   width="163.55661mm"
   height="53.798607mm"
   viewBox="0 0 163.55661 53.798607"
   version="1.1"
   id="svg1"
   xmlns="http://www.w3.org/2000/svg"
   xmlns:svg="http://www.w3.org/2000/svg">
  <defs
     id="defs1">
    <clipPath
       id="clip0">
      <rect
         x="1109"
         y="376"
         width="622"
         height="207"
         id="rect1" />
    </clipPath>
  </defs>
  <g
     id="layer1"
     transform="translate(-24.696251,-95.708471)">
    <g
       clip-path="url(#clip0)"
       transform="matrix(0.26458333,0,0,0.26458333,-269.7409,-4.5245148)"
       id="g38">
      <text
         fill="#181f2b"
         font-family="Calibri, Calibri_MSFontService, sans-serif"
         font-style="italic"
         font-weight="400"
         font-size="19px"
         transform="translate(1126.56,510)"
         id="text10">atVis<tspan
   font-size="19px"
   x="38.333401"
   y="0"
   id="tspan1">,</tspan><tspan
   font-size="19px"
   x="47.166599"
   y="0"
   id="tspan2">mayCol</tspan><tspan
   font-size="19px"
   x="103.667"
   y="0"
   id="tspan3">,</tspan><tspan
   font-size="19px"
   x="112.5"
   y="0"
   id="tspan4">inBow</tspan><tspan
   font-size="19px"
   x="158.313"
   y="0"
   id="tspan5">,</tspan><tspan
   font-size="19px"
   x="167.147"
   y="0"
   id="tspan6">inPort</tspan><tspan
   font-size="19px"
   x="430.93701"
   y="-45"
   id="tspan7">atVis</tspan><tspan
   font-size="19px"
   x="469.26999"
   y="-45"
   id="tspan8">,</tspan><tspan
   font-size="19px"
   x="478.103"
   y="-45"
   id="tspan9">mayCol</tspan>, <tspan
   font-size="19px"
   x="543.43701"
   y="-45"
   id="tspan10">inStar</tspan></text>
      <path
         d="m 1374.5,438 c 0,-4.142 3.36,-7.5 7.5,-7.5 h 90 c 4.14,0 7.5,3.358 7.5,7.5 v 30 c 0,4.142 -3.36,7.5 -7.5,7.5 h -90 c -4.14,0 -7.5,-3.358 -7.5,-7.5 z"
         stroke="#000000"
         stroke-width="5.33333"
         stroke-miterlimit="8"
         fill="#a3a3ff"
         fill-rule="evenodd"
         id="path10" />
      <path
         d="m 1393.5,458.5 v -11 h 16 l 4,5.5 -4,5.5 z"
         stroke="#000000"
         stroke-width="1.33333"
         stroke-linecap="round"
         stroke-linejoin="round"
         stroke-miterlimit="10"
         fill-rule="evenodd"
         id="path11" />
      <text
         fill="#181f2b"
         font-family="'Times New Roman', 'Times New Roman_MSFontService', sans-serif"
         font-style="italic"
         font-weight="700"
         font-size="24px"
         transform="translate(1424.02,459)"
         id="text11">OS</text>
      <path
         d="m 1477.5,542 c 0,-4.142 3.36,-7.5 7.5,-7.5 h 90 c 4.14,0 7.5,3.358 7.5,7.5 v 30 c 0,4.142 -3.36,7.5 -7.5,7.5 h -90 c -4.14,0 -7.5,-3.358 -7.5,-7.5 z"
         stroke="#000000"
         stroke-width="5.33333"
         stroke-miterlimit="8"
         fill="#ffa3a3"
         fill-rule="evenodd"
         id="path12" />
      <path
         d="m 1496.5,561.5 v -10 h 16 l 4,5 -4,5 z"
         stroke="#000000"
         stroke-width="1.33333"
         stroke-linecap="round"
         stroke-linejoin="round"
         stroke-miterlimit="10"
         fill-rule="evenodd"
         id="path13" />
      <text
         fill="#181f2b"
         font-family="Calibri, Calibri_MSFontService, sans-serif"
         font-style="italic"
         font-weight="700"
         font-size="24px"
         transform="translate(1527.26,562)"
         id="text13">TS<tspan
   font-size="16px"
   x="23"
   y="5"
   id="tspan13">1</tspan></text>
      <path
         d="m 1115.5,436 c 0,-4.142 3.36,-7.5 7.5,-7.5 h 90 c 4.14,0 7.5,3.358 7.5,7.5 v 30 c 0,4.142 -3.36,7.5 -7.5,7.5 h -90 c -4.14,0 -7.5,-3.358 -7.5,-7.5 z"
         stroke="#000000"
         stroke-width="5.33333"
         stroke-miterlimit="8"
         fill="#a3d1a3"
         fill-rule="evenodd"
         id="path14" />
      <path
         d="m 1134.5,456.5 v -11 h 16 l 4,5.5 -4,5.5 z"
         stroke="#000000"
         stroke-width="1.33333"
         stroke-linecap="round"
         stroke-linejoin="round"
         stroke-miterlimit="10"
         fill-rule="evenodd"
         id="path15" />
      <text
         fill="#181f2b"
         font-family="Calibri, Calibri_MSFontService, sans-serif"
         font-style="italic"
         font-weight="700"
         font-size="24px"
         transform="translate(1165.14,457)"
         id="text15">TS<tspan
   font-size="16px"
   x="23"
   y="5"
   id="tspan15">2</tspan></text>
      <path
         d="M 0.0013134,-0.999999 120.774,-0.841376 120.771,1.15862 -0.0013134,0.999999 Z M 119.448,-6.50979 132.773,0.174383 119.431,6.82353 Z"
         transform="matrix(-1,0,0,1,1370.77,464)"
         id="path16" />
      <path
         d="M 0.00482052,-0.999988 109.4,-0.472638 109.391,1.52734 -0.00482052,0.999988 Z M 108.095,-6.14567 121.396,0.585197 108.03,7.18751 Z"
         transform="matrix(1,0,0,-1,1220,435.585)"
         id="path17" />
      <text
         fill="#181f2b"
         font-family="Calibri, Calibri_MSFontService, sans-serif"
         font-style="italic"
         font-weight="400"
         font-size="19px"
         transform="translate(1127,402)"
         id="text21">atVis<tspan
   font-size="19px"
   x="38.333302"
   y="0"
   id="tspan17">,</tspan><tspan
   font-size="19px"
   x="47.166599"
   y="0"
   id="tspan18">mayCol</tspan>, <tspan
   font-size="19px"
   x="112.5"
   y="0"
   id="tspan19">inBow</tspan><tspan
   font-size="19px"
   x="158.313"
   y="0"
   id="tspan20">,</tspan><tspan
   font-size="19px"
   x="167.147"
   y="0"
   id="tspan21">inStar</tspan></text>
      <path
         d="M 0.178253,-0.983985 119.201,20.5774 118.844,22.5454 -0.178253,0.983985 Z M 118.899,14.7639 l 11.931,8.9366 -14.308,4.1832 z"
         transform="matrix(-1,0,0,1,1625.83,427)"
         id="path21" />
      <path
         d="M 0.16597,-0.986131 116.338,18.5661 116.006,20.5383 -0.16597,0.986131 Z M 115.963,12.7567 l 12.042,8.7871 -14.255,4.3613 z"
         transform="matrix(1,0,0,-1,1479,434.544)"
         id="path22" />
      <text
         fill="#181f2b"
         font-family="Calibri, Calibri_MSFontService, sans-serif"
         font-style="italic"
         font-weight="400"
         font-size="19px"
         transform="translate(1423.18,400)"
         id="text24">atVis<tspan
   font-size="19px"
   x="38.333302"
   y="0"
   id="tspan22">,</tspan><tspan
   font-size="19px"
   x="47.166599"
   y="0"
   id="tspan23">mayCol</tspan>, <tspan
   font-size="19px"
   x="112.5"
   y="0"
   id="tspan24">inPort</tspan></text>
      <path
         d="m 1623.5,389 c 0,-4.142 3.36,-7.5 7.5,-7.5 h 90 c 4.14,0 7.5,3.358 7.5,7.5 v 30 c 0,4.142 -3.36,7.5 -7.5,7.5 h -90 c -4.14,0 -7.5,-3.358 -7.5,-7.5 z"
         stroke="#000000"
         stroke-width="5.33333"
         stroke-miterlimit="8"
         fill="#d0793e"
         fill-rule="evenodd"
         id="path24" />
      <path
         d="m 1642.5,409.5 v -11 h 16 l 4,5.5 -4,5.5 z"
         stroke="#000000"
         stroke-width="1.33333"
         stroke-linecap="round"
         stroke-linejoin="round"
         stroke-miterlimit="10"
         fill-rule="evenodd"
         id="path25" />
      <text
         fill="#181f2b"
         font-family="Calibri, Calibri_MSFontService, sans-serif"
         font-style="italic"
         font-weight="700"
         font-size="24px"
         transform="translate(1673.35,410)"
         id="text25">TS<tspan
   font-size="16px"
   x="23"
   y="5"
   id="tspan25">3</tspan></text>
      <path
         d="m 1529.01,534.819 -54.27,-43.531 1.25,-1.56 54.27,43.531 z M 1472.23,496.543 1466,483 l 14.57,3.142 z"
         id="path26" />
      <path
         d="m 1427.68,474.263 46.34,42.527 -1.35,1.474 -46.35,-42.527 z m 49.19,37.451 5.32,13.926 -14.33,-4.102 z"
         id="path27" />
      <text
         fill="#181f2b"
         font-family="Calibri, Calibri_MSFontService, sans-serif"
         font-style="italic"
         font-weight="400"
         font-size="19px"
         transform="translate(1547.98,511)"
         id="text33">atVis<tspan
   font-size="19px"
   x="38.333401"
   y="0"
   id="tspan27">,</tspan><tspan
   font-size="19px"
   x="47.166698"
   y="0"
   id="tspan28">mayCol</tspan>, <tspan
   font-size="19px"
   x="112.5"
   y="0"
   id="tspan29">inStern</tspan><tspan
   font-size="19px"
   x="-269.79599"
   y="51"
   id="tspan30">atVis</tspan><tspan
   font-size="19px"
   x="-231.463"
   y="51"
   id="tspan31">,</tspan><tspan
   font-size="19px"
   x="-222.63"
   y="51"
   id="tspan32">mayCol</tspan>, <tspan
   font-size="19px"
   x="-157.29601"
   y="51"
   id="tspan33">inStar</tspan></text>
      <path
         d="m 1346.5,523.5 h -37.83 v 0 h -56.75 -132.42 v -19.833 0 -8.5 -5.667 h 132.42 l 64.81,-24.023 -8.06,24.023 h 37.83 v 5.667 8.5 0 z"
         stroke="#000000"
         stroke-width="1.33333"
         stroke-miterlimit="8"
         stroke-dasharray="4, 1.33333"
         fill="none"
         fill-rule="evenodd"
         id="path33" />
      <path
         d="M 0,0 H 37.8333 V 0 H 94.5833 227 v 18.6667 0 7.9999 V 32 H 94.5833 L 88.1735,51.4713 37.8333,32 H 0 v -5.3334 -7.9999 0 z"
         stroke="#000000"
         stroke-width="1.33333"
         stroke-miterlimit="8"
         stroke-dasharray="4, 1.33333"
         fill="none"
         fill-rule="evenodd"
         transform="matrix(-1,0,0,1,1346.5,382.5)"
         id="path34" />
      <path
         d="m 1447.5,574.5 h -29.33 v 0 h -44 -102.67 v -19.833 0 -8.5 -5.667 h 102.67 l 66.09,-50.947 -22.09,50.947 h 29.33 v 5.667 8.5 0 z"
         stroke="#000000"
         stroke-width="1.33333"
         stroke-miterlimit="8"
         stroke-dasharray="4, 1.33333"
         fill="none"
         fill-rule="evenodd"
         id="path35" />
      <path
         d="m 1420.5,381.5 h 99.75 v 0 h 42.75 28.5 v 15.75 0 6.75 4.5 H 1563 l -15.3,15.133 -27.45,-15.133 h -99.75 v -4.5 -6.75 0 z"
         stroke="#000000"
         stroke-width="1.33333"
         stroke-miterlimit="8"
         stroke-dasharray="4, 1.33333"
         fill="none"
         fill-rule="evenodd"
         id="path36" />
      <path
         d="m 1719.5,522.5 h -102.67 v 0 h -44 -29.33 v -5.667 l -34.58,-2.996 34.58,-5.504 V 488.5 h 29.33 44 v 0 h 102.67 v 19.833 8.5 0 z"
         stroke="#000000"
         stroke-width="1.33333"
         stroke-miterlimit="8"
         stroke-dasharray="4, 1.33333"
         fill="none"
         fill-rule="evenodd"
         id="path37" />
      <path
         d="m 1728.5,474.5 h -103.25 v 0 H 1581 1551.5 v -16.917 0 -7.25 -4.833 h 29.5 l 22.54,-13.577 21.71,13.577 h 103.25 v 4.833 7.25 0 z"
         stroke="#000000"
         stroke-width="1.33333"
         stroke-miterlimit="8"
         stroke-dasharray="4, 1.33333"
         fill="none"
         fill-rule="evenodd"
         id="path38" />
    </g>
  </g>
</svg>
