<?xml version="1.0" encoding="UTF-8" standalone="no"?>
<!-- Created with Inkscape (http://www.inkscape.org/) -->

<svg
   width="865.50067mm"
   height="367.33456mm"
   viewBox="0 0 865.50067 367.33456"
   version="1.1"
   id="svg1"
   sodipodi:docname="msr_overview.svg"
   inkscape:version="1.4 (86a8ad7, 2024-10-11)"
   inkscape:export-filename="msr_overview.png"
   inkscape:export-xdpi="96"
   inkscape:export-ydpi="96"
   xmlns:inkscape="http://www.inkscape.org/namespaces/inkscape"
   xmlns:sodipodi="http://sodipodi.sourceforge.net/DTD/sodipodi-0.dtd"
   xmlns="http://www.w3.org/2000/svg"
   xmlns:svg="http://www.w3.org/2000/svg">
  <sodipodi:namedview
     id="namedview1"
     pagecolor="#ffffff"
     bordercolor="#000000"
     borderopacity="0.25"
     inkscape:showpageshadow="2"
     inkscape:pageopacity="0.0"
     inkscape:pagecheckerboard="0"
     inkscape:deskcolor="#d1d1d1"
     inkscape:document-units="mm"
     inkscape:zoom="0.29743942"
     inkscape:cx="1539.8094"
     inkscape:cy="838.82627"
     inkscape:window-width="1920"
     inkscape:window-height="1111"
     inkscape:window-x="-9"
     inkscape:window-y="-9"
     inkscape:window-maximized="1"
     inkscape:current-layer="svg1"
     inkscape:export-bgcolor="#ffffffff">
    <inkscape:page
       x="0"
       y="0"
       width="865.50067"
       height="367.33456"
       id="page2"
       margin="0"
       bleed="0" />
  </sodipodi:namedview>
  <defs
     id="defs1">
    <clipPath
       id="clip0-4">
      <rect
         x="54"
         y="57"
         width="1087"
         height="405"
         id="rect1-8" />
    </clipPath>
    <clipPath
       id="clip0">
      <rect
         x="54"
         y="57"
         width="1087"
         height="405"
         id="rect1" />
    </clipPath>
    <clipPath
       id="clip0-48">
      <rect
         x="54"
         y="57"
         width="1082"
         height="405"
         id="rect1-82" />
    </clipPath>
    <clipPath
       id="clip0-9">
      <rect
         x="48"
         y="57"
         width="1094"
         height="374"
         id="rect1-4" />
    </clipPath>
    <clipPath
       id="clip0-8">
      <rect
         x="1058"
         y="345"
         width="1702"
         height="210"
         id="rect1-2" />
    </clipPath>
    <linearGradient
       x1="2277.5"
       y1="347"
       x2="2277.5"
       y2="553"
       gradientUnits="userSpaceOnUse"
       spreadMethod="reflect"
       id="fill1">
      <stop
         offset="0"
         stop-color="#F6F8FC"
         stop-opacity="0.65098"
         id="stop1" />
      <stop
         offset="0.64"
         stop-color="#F6F8FC"
         stop-opacity="0.65098"
         id="stop2" />
      <stop
         offset="0.64"
         stop-color="#C55A11"
         stop-opacity="0.760784"
         id="stop3" />
      <stop
         offset="1"
         stop-color="#C55A11"
         stop-opacity="0.760784"
         id="stop4" />
    </linearGradient>
    <clipPath
       id="clip0-45">
      <rect
         x="1353"
         y="302"
         width="1407"
         height="331"
         id="rect1-5" />
    </clipPath>
    <linearGradient
       x1="2353"
       y1="304"
       x2="2353"
       y2="631"
       gradientUnits="userSpaceOnUse"
       spreadMethod="reflect"
       id="fill1-1">
      <stop
         offset="0"
         stop-color="#F6F8FC"
         stop-opacity="0.65098"
         id="stop1-7" />
      <stop
         offset="0.6"
         stop-color="#F6F8FC"
         stop-opacity="0.65098"
         id="stop2-1" />
      <stop
         offset="0.6"
         stop-color="#C55A11"
         stop-opacity="0.760784"
         id="stop3-1" />
      <stop
         offset="1"
         stop-color="#C55A11"
         stop-opacity="0.760784"
         id="stop4-5" />
    </linearGradient>
    <clipPath
       id="clip0-1">
      <rect
         x="1353"
         y="302"
         width="1407"
         height="331"
         id="rect1-42" />
    </clipPath>
    <linearGradient
       x1="2353"
       y1="304"
       x2="2353"
       y2="631"
       gradientUnits="userSpaceOnUse"
       spreadMethod="reflect"
       id="fill1-3">
      <stop
         offset="0"
         stop-color="#F6F8FC"
         stop-opacity="0.65098"
         id="stop1-2" />
      <stop
         offset="0.6"
         stop-color="#F6F8FC"
         stop-opacity="0.65098"
         id="stop2-2" />
      <stop
         offset="0.6"
         stop-color="#FFA3A3"
         id="stop3-16" />
      <stop
         offset="1"
         stop-color="#FFA3A3"
         id="stop4-8" />
    </linearGradient>
    <clipPath
       id="clip0-92">
      <rect
         x="-12"
         y="121"
         width="2136"
         height="738"
         id="rect1-7" />
    </clipPath>
    <clipPath
       id="clip0-5">
      <rect
         x="23"
         y="121"
         width="2101"
         height="725"
         id="rect1-43" />
    </clipPath>
    <clipPath
       id="clip0-94">
      <rect
         x="89"
         y="120"
         width="1781"
         height="558"
         id="rect1-88" />
    </clipPath>
    <clipPath
       id="clip0-455">
      <rect
         x="74"
         y="57"
         width="1980"
         height="585"
         id="rect1-1" />
    </clipPath>
    <clipPath
       id="clip0-11">
      <rect
         x="107"
         y="57"
         width="1947"
         height="585"
         id="rect1-52" />
    </clipPath>
    <clipPath
       id="clip0-2">
      <rect
         x="107"
         y="57"
         width="1947"
         height="587"
         id="rect1-3" />
    </clipPath>
    <clipPath
       id="clip0-948">
      <rect
         x="129"
         y="73"
         width="2498"
         height="732"
         id="rect1-824" />
    </clipPath>
    <clipPath
       id="clip0-51">
      <rect
         x="129"
         y="73"
         width="2498"
         height="732"
         id="rect1-71" />
    </clipPath>
    <clipPath
       id="clip0-9488">
      <rect
         x="129"
         y="73"
         width="2498"
         height="732"
         id="rect1-24" />
    </clipPath>
    <clipPath
       id="clip0-82">
      <rect
         x="129"
         y="73"
         width="2498"
         height="732"
         id="rect1-45" />
    </clipPath>
    <clipPath
       id="clip0-94882">
      <rect
         x="129"
         y="73"
         width="2438"
         height="731"
         id="rect1-455" />
    </clipPath>
    <clipPath
       id="clip0-3">
      <rect
         x="129"
         y="73"
         width="2438"
         height="731"
         id="rect1-59" />
    </clipPath>
    <clipPath
       id="clip0-948824">
      <rect
         x="129"
         y="73"
         width="2438"
         height="731"
         id="rect1-55" />
    </clipPath>
    <clipPath
       id="clip0-9488245">
      <rect
         x="90"
         y="142"
         width="1745"
         height="497"
         id="rect1-51" />
    </clipPath>
    <clipPath
       id="clip0-115">
      <rect
         x="90"
         y="142"
         width="1745"
         height="497"
         id="rect1-27" />
    </clipPath>
    <clipPath
       id="clip0-94882455">
      <rect
         x="113"
         y="175"
         width="2180"
         height="623"
         id="rect1-17" />
    </clipPath>
  </defs>
  <g
     clip-path="url(#clip0-94882455)"
     transform="matrix(0.26458333,0,0,0.26458333,125.69133,44.069698)"
     id="g107"
     inkscape:export-filename="msr_overview.pdf"
     inkscape:export-xdpi="96"
     inkscape:export-ydpi="96">
    <path
       d="m 1780,784 h -506 v -209.578 0 V 180 h 506 z"
       fill="#a6a6a6"
       fill-rule="evenodd"
       fill-opacity="0.678431"
       id="path1" />
    <rect
       x="972"
       y="180"
       width="303"
       height="321"
       fill="#e7e6e6"
       id="rect2" />
    <rect
       x="652"
       y="180"
       width="328"
       height="317"
       fill="#a6a6a6"
       fill-opacity="0.678431"
       id="rect3" />
    <rect
       x="191"
       y="180"
       width="463"
       height="474"
       fill="#e7e6e6"
       id="rect4" />
    <path
       d="M 0,0 2114.05,0.929921"
       stroke="#000000"
       stroke-width="8.33333"
       stroke-miterlimit="8"
       fill="none"
       fill-rule="evenodd"
       transform="matrix(-1,0,0,1,2285.05,496)"
       id="path4" />
    <path
       d="m 1709,545 h 115 v 63.333 L 1811.33,621 H 1709 Z"
       fill="#db996c"
       fill-rule="evenodd"
       id="path5" />
    <path
       d="m 1811.33,621 2.54,-10.134 10.13,-2.533 z"
       fill="#b07b57"
       fill-rule="evenodd"
       id="path6" />
    <path
       d="m 1811.33,621 2.54,-10.134 L 1824,608.333 1811.33,621 H 1709 v -76 h 115 v 63.333"
       stroke="#000000"
       stroke-width="4.16667"
       stroke-miterlimit="8"
       stroke-dasharray="4.16667, 4.16667"
       fill="none"
       fill-rule="evenodd"
       id="path7" />
    <text
       font-family="'Cambria Math', 'Cambria Math_MSFontService', sans-serif"
       font-weight="400"
       font-size="47px"
       transform="translate(1731.12,594)"
       id="text7">IS<tspan
   font-size="34px"
   x="37.2584"
   y="9"
   id="tspan7">1</tspan></text>
    <path
       d="m 1709,708 h 120 v 63.333 L 1816.33,784 H 1709 Z"
       fill="#db996c"
       fill-rule="evenodd"
       id="path8" />
    <path
       d="m 1816.33,784 2.54,-10.134 10.13,-2.533 z"
       fill="#b07b57"
       fill-rule="evenodd"
       id="path9" />
    <path
       d="m 1816.33,784 2.54,-10.134 L 1829,771.333 1816.33,784 H 1709 v -76 h 120 v 63.333"
       stroke="#000000"
       stroke-width="4.16667"
       stroke-miterlimit="8"
       stroke-dasharray="4.16667, 4.16667"
       fill="none"
       fill-rule="evenodd"
       id="path10" />
    <text
       font-family="'Cambria Math', 'Cambria Math_MSFontService', sans-serif"
       font-weight="400"
       font-size="47px"
       transform="translate(1731.53,757)"
       id="text10">IS<tspan
   font-size="34px"
   x="38.333401"
   y="9"
   id="tspan10">𝑛</tspan></text>
    <path
       d="m 1766.31,681.092 c 0.9,0 1.65,0.315 2.25,0.945 0.61,0.63 0.91,1.428 0.91,2.394 0,0.966 -0.3,1.764 -0.91,2.394 -0.6,0.629 -1.35,0.944 -2.25,0.944 -0.9,0 -1.65,-0.315 -2.25,-0.944 -0.61,-0.63 -0.91,-1.428 -0.91,-2.394 0,-0.966 0.3,-1.764 0.91,-2.394 0.6,-0.63 1.35,-0.945 2.25,-0.945 z m 0,-13.767 c 0.9,0 1.65,0.315 2.25,0.944 0.61,0.63 0.91,1.428 0.91,2.394 0,0.966 -0.3,1.764 -0.91,2.394 -0.6,0.63 -1.35,0.945 -2.25,0.945 -0.9,0 -1.65,-0.315 -2.25,-0.945 -0.61,-0.63 -0.91,-1.428 -0.91,-2.394 0,-0.966 0.3,-1.764 0.91,-2.394 0.6,-0.629 1.35,-0.944 2.25,-0.944 z m 0,-13.768 c 0.9,0 1.65,0.315 2.25,0.945 0.61,0.63 0.91,1.428 0.91,2.394 0,0.966 -0.3,1.764 -0.91,2.393 -0.6,0.63 -1.35,0.945 -2.25,0.945 -0.9,0 -1.65,-0.315 -2.25,-0.945 -0.61,-0.629 -0.91,-1.427 -0.91,-2.393 0,-0.966 0.3,-1.764 0.91,-2.394 0.6,-0.63 1.35,-0.945 2.25,-0.945 z"
       fill-rule="evenodd"
       id="path11" />
    <text
       fill="#000000"
       fill-opacity="0"
       font-family="Arial, Arial_MSFontService, sans-serif"
       font-size="34.2119px"
       x="1763.15"
       y="683.49298"
       id="text11">⋮</text>
    <path
       d="m 1708,209 h 120 v 64.166 L 1815.17,286 H 1708 Z"
       fill="#db996c"
       fill-rule="evenodd"
       id="path12" />
    <path
       d="m 1815.17,286 2.56,-10.267 10.27,-2.567 z"
       fill="#b07b57"
       fill-rule="evenodd"
       id="path13" />
    <path
       d="m 1815.17,286 2.56,-10.267 L 1828,273.166 1815.17,286 H 1708 v -77 h 120 v 64.166"
       stroke="#000000"
       stroke-width="4.16667"
       stroke-miterlimit="8"
       stroke-dasharray="4.16667, 4.16667"
       fill="none"
       fill-rule="evenodd"
       id="path14" />
    <text
       font-family="'Times New Roman', 'Times New Roman_MSFontService', sans-serif"
       font-weight="400"
       font-size="47px"
       transform="translate(1731.35,258)"
       id="text14">IS<tspan
   font-family="'Cambria Math', 'Cambria Math_MSFontService', sans-serif"
   font-size="34px"
   x="40.591702"
   y="10"
   id="tspan14">1</tspan></text>
    <path
       d="m 1708,373 h 115 v 63.333 L 1810.33,449 H 1708 Z"
       fill="#db996c"
       fill-rule="evenodd"
       id="path15" />
    <path
       d="m 1810.33,449 2.54,-10.134 10.13,-2.533 z"
       fill="#b07b57"
       fill-rule="evenodd"
       id="path16" />
    <path
       d="m 1810.33,449 2.54,-10.134 L 1823,436.333 1810.33,449 H 1708 v -76 h 115 v 63.333"
       stroke="#000000"
       stroke-width="4.16667"
       stroke-miterlimit="8"
       stroke-dasharray="4.16667, 4.16667"
       fill="none"
       fill-rule="evenodd"
       id="path17" />
    <text
       font-family="'Times New Roman', 'Times New Roman_MSFontService', sans-serif"
       font-weight="400"
       font-size="47px"
       transform="translate(1728.97,421)"
       id="text18">I<tspan
   font-family="'Cambria Math', 'Cambria Math_MSFontService', sans-serif"
   font-size="47px"
   x="15.625"
   y="0"
   id="tspan17">S</tspan><tspan
   font-family="'Cambria Math', 'Cambria Math_MSFontService', sans-serif"
   font-size="34px"
   x="38.75"
   y="10"
   id="tspan18">𝑘</tspan></text>
    <path
       d="m 1768.23,346.141 c 0.9,0 1.65,0.315 2.25,0.944 0.61,0.63 0.91,1.428 0.91,2.394 0,0.966 -0.3,1.764 -0.91,2.394 -0.6,0.63 -1.35,0.945 -2.25,0.945 -0.9,0 -1.65,-0.315 -2.25,-0.945 -0.6,-0.63 -0.91,-1.428 -0.91,-2.394 0,-0.966 0.31,-1.764 0.91,-2.394 0.6,-0.629 1.35,-0.944 2.25,-0.944 z m 0,-13.768 c 0.9,0 1.65,0.315 2.25,0.945 0.61,0.629 0.91,1.427 0.91,2.394 0,0.966 -0.3,1.764 -0.91,2.393 -0.6,0.63 -1.35,0.945 -2.25,0.945 -0.9,0 -1.65,-0.315 -2.25,-0.945 -0.6,-0.629 -0.91,-1.427 -0.91,-2.393 0,-0.967 0.31,-1.765 0.91,-2.394 0.6,-0.63 1.35,-0.945 2.25,-0.945 z m 0,-13.767 c 0.9,0 1.65,0.314 2.25,0.944 0.61,0.63 0.91,1.428 0.91,2.394 0,0.966 -0.3,1.764 -0.91,2.394 -0.6,0.629 -1.35,0.944 -2.25,0.944 -0.9,0 -1.65,-0.315 -2.25,-0.944 -0.6,-0.63 -0.91,-1.428 -0.91,-2.394 0,-0.966 0.31,-1.764 0.91,-2.394 0.6,-0.63 1.35,-0.944 2.25,-0.944 z"
       fill-rule="evenodd"
       id="path18" />
    <text
       fill="#000000"
       fill-opacity="0"
       font-family="Arial, Arial_MSFontService, sans-serif"
       font-size="34.2119px"
       x="1765.0699"
       y="348.54099"
       id="text19">⋮</text>
    <path
       d="m 2141,547 h 140 v 63.333 L 2268.33,623 H 2141 Z"
       fill="#c7e7a6"
       fill-rule="evenodd"
       id="path19" />
    <path
       d="m 2268.33,623 2.54,-10.133 10.13,-2.534 z"
       fill="#a0ba85"
       fill-rule="evenodd"
       id="path20" />
    <path
       d="m 2268.33,623 2.54,-10.133 L 2281,610.333 2268.33,623 H 2141 v -76 h 140 v 63.333"
       stroke="#000000"
       stroke-width="4.16667"
       stroke-miterlimit="8"
       stroke-dasharray="4.16667, 4.16667"
       fill="none"
       fill-rule="evenodd"
       id="path21" />
    <text
       font-family="'Cambria Math', 'Cambria Math_MSFontService', sans-serif"
       font-weight="400"
       font-size="47px"
       transform="translate(2156.52,596)"
       id="text21">FEC<tspan
   font-size="34px"
   x="77.050003"
   y="9"
   id="tspan21">1</tspan></text>
    <path
       d="m 2141,708 h 141 v 63.333 L 2269.33,784 H 2141 Z"
       fill="#c7e7a6"
       fill-rule="evenodd"
       id="path22" />
    <path
       d="m 2269.33,784 2.54,-10.134 10.13,-2.533 z"
       fill="#a0ba85"
       fill-rule="evenodd"
       id="path23" />
    <path
       d="m 2269.33,784 2.54,-10.134 L 2282,771.333 2269.33,784 H 2141 v -76 h 141 v 63.333"
       stroke="#000000"
       stroke-width="4.16667"
       stroke-miterlimit="8"
       stroke-dasharray="4.16667, 4.16667"
       fill="none"
       fill-rule="evenodd"
       id="path24" />
    <text
       font-family="'Cambria Math', 'Cambria Math_MSFontService', sans-serif"
       font-weight="400"
       font-size="47px"
       transform="translate(2154.68,757)"
       id="text24">FEC<tspan
   font-size="34px"
   x="78.125"
   y="9"
   id="tspan24">n</tspan></text>
    <path
       d="m 2215.88,681.705 c 0.89,0 1.64,0.315 2.25,0.945 0.6,0.629 0.9,1.427 0.9,2.394 0,0.966 -0.3,1.764 -0.9,2.393 -0.61,0.63 -1.36,0.945 -2.25,0.945 -0.9,0 -1.65,-0.315 -2.26,-0.945 -0.6,-0.629 -0.9,-1.427 -0.9,-2.393 0,-0.967 0.3,-1.765 0.9,-2.394 0.61,-0.63 1.36,-0.945 2.26,-0.945 z m 0,-13.767 c 0.89,0 1.64,0.315 2.25,0.944 0.6,0.63 0.9,1.428 0.9,2.394 0,0.966 -0.3,1.764 -0.9,2.394 -0.61,0.629 -1.36,0.944 -2.25,0.944 -0.9,0 -1.65,-0.315 -2.26,-0.944 -0.6,-0.63 -0.9,-1.428 -0.9,-2.394 0,-0.966 0.3,-1.764 0.9,-2.394 0.61,-0.629 1.36,-0.944 2.26,-0.944 z m 0,-13.768 c 0.89,0 1.64,0.315 2.25,0.945 0.6,0.629 0.9,1.427 0.9,2.393 0,0.967 -0.3,1.765 -0.9,2.394 -0.61,0.63 -1.36,0.945 -2.25,0.945 -0.9,0 -1.65,-0.315 -2.26,-0.945 -0.6,-0.629 -0.9,-1.427 -0.9,-2.394 0,-0.966 0.3,-1.764 0.9,-2.393 0.61,-0.63 1.36,-0.945 2.26,-0.945 z"
       fill-rule="evenodd"
       id="path25" />
    <text
       fill="#000000"
       fill-opacity="0"
       font-family="Arial, Arial_MSFontService, sans-serif"
       font-size="34.2119px"
       x="2212.72"
       y="684.10498"
       id="text25">⋮</text>
    <path
       d="m 1824.02,579.875 297.96,1.725 -0.03,6.25 -297.97,-1.725 z m 297.94,4.85 -12.41,-15.697 31.16,15.805 -31.34,15.444 z"
       id="path26" />
    <path
       d="m 1829,742.875 h 293.47 v 6.25 H 1829 Z m 293.47,3.125 -12.5,-15.625 31.25,15.625 -31.25,15.625 z"
       id="path27" />
    <path
       d="m 1198,210 h 133 v 63.333 L 1318.33,286 H 1198 Z"
       fill="#a2b1ce"
       fill-rule="evenodd"
       id="path28" />
    <path
       d="m 1318.33,286 2.54,-10.134 10.13,-2.533 z"
       fill="#828ea6"
       fill-rule="evenodd"
       id="path29" />
    <path
       d="m 1318.33,286 2.54,-10.134 L 1331,273.333 1318.33,286 H 1198 v -76 h 133 v 63.333"
       stroke="#000000"
       stroke-width="4.16667"
       stroke-miterlimit="8"
       stroke-dasharray="4.16667, 4.16667"
       fill="none"
       fill-rule="evenodd"
       id="path30" />
    <text
       font-family="'Cambria Math', 'Cambria Math_MSFontService', sans-serif"
       font-weight="400"
       font-size="47px"
       transform="translate(1205.11,258)"
       id="text30">LSM<tspan
   font-size="34px"
   x="85.174896"
   y="10"
   id="tspan30">1</tspan></text>
    <path
       d="m 1197,373 h 139 v 63.333 L 1323.33,449 H 1197 Z"
       fill="#a2b1ce"
       fill-rule="evenodd"
       id="path31" />
    <path
       d="m 1323.33,449 2.54,-10.134 10.13,-2.533 z"
       fill="#828ea6"
       fill-rule="evenodd"
       id="path32" />
    <path
       d="m 1323.33,449 2.54,-10.134 L 1336,436.333 1323.33,449 H 1197 v -76 h 139 v 63.333"
       stroke="#000000"
       stroke-width="4.16667"
       stroke-miterlimit="8"
       stroke-dasharray="4.16667, 4.16667"
       fill="none"
       fill-rule="evenodd"
       id="path33" />
    <text
       font-family="'Cambria Math', 'Cambria Math_MSFontService', sans-serif"
       font-weight="400"
       font-size="47px"
       transform="translate(1205.65,421)"
       id="text33">LSM<tspan
   font-size="34px"
   x="86.250099"
   y="10"
   id="tspan33">𝑘</tspan></text>
    <path
       d="m 1267.51,345.641 c 0.9,0 1.65,0.315 2.26,0.945 0.6,0.629 0.9,1.427 0.9,2.394 0,0.966 -0.3,1.764 -0.9,2.393 -0.61,0.63 -1.36,0.945 -2.26,0.945 -0.89,0 -1.64,-0.315 -2.25,-0.945 -0.6,-0.629 -0.9,-1.427 -0.9,-2.393 0,-0.967 0.3,-1.765 0.9,-2.394 0.61,-0.63 1.36,-0.945 2.25,-0.945 z m 0,-13.767 c 0.9,0 1.65,0.314 2.26,0.944 0.6,0.63 0.9,1.428 0.9,2.394 0,0.966 -0.3,1.764 -0.9,2.394 -0.61,0.629 -1.36,0.944 -2.26,0.944 -0.89,0 -1.64,-0.315 -2.25,-0.944 -0.6,-0.63 -0.9,-1.428 -0.9,-2.394 0,-0.966 0.3,-1.764 0.9,-2.394 0.61,-0.63 1.36,-0.944 2.25,-0.944 z m 0,-13.768 c 0.9,0 1.65,0.315 2.26,0.945 0.6,0.629 0.9,1.427 0.9,2.393 0,0.967 -0.3,1.764 -0.9,2.394 -0.61,0.63 -1.36,0.945 -2.26,0.945 -0.89,0 -1.64,-0.315 -2.25,-0.945 -0.6,-0.63 -0.9,-1.427 -0.9,-2.394 0,-0.966 0.3,-1.764 0.9,-2.393 0.61,-0.63 1.36,-0.945 2.25,-0.945 z"
       fill-rule="evenodd"
       id="path34" />
    <text
       fill="#000000"
       fill-opacity="0"
       font-family="Arial, Arial_MSFontService, sans-serif"
       font-size="34.2119px"
       x="1264.36"
       y="348.04099"
       id="text34">⋮</text>
    <path
       d="M 7.22869e-4,-3.125 358.525,-3.04207 358.523,3.20793 -7.22869e-4,3.125 Z M 358.524,0.0829331 346.028,-15.545 377.274,0.0872703 346.021,15.705 Z"
       fill="#ff0000"
       transform="matrix(1,0,0,-1,1331,248.087)"
       id="path35" />
    <path
       d="M 7.32101e-4,-3.125 353.768,-3.04212 353.766,3.20788 -7.32101e-4,3.125 Z M 353.767,0.0828777 341.27,-15.545 372.517,0.0872703 341.263,15.7049 Z"
       fill="#ff0000"
       transform="matrix(1,0,0,-1,1336,411.087)"
       id="path36" />
    <path
       d="m 899.5,209.5 h 141 v 63.333 L 1027.83,285.5 H 899.5 Z"
       fill="#92d050"
       fill-rule="evenodd"
       id="path37" />
    <path
       d="m 1027.83,285.5 2.54,-10.134 10.13,-2.533 z"
       fill="#75a740"
       fill-rule="evenodd"
       id="path38" />
    <path
       d="m 1027.83,285.5 2.54,-10.134 10.13,-2.533 -12.67,12.667 H 899.5 v -76 h 141 v 63.333"
       stroke="#ff0000"
       stroke-width="5"
       stroke-miterlimit="8"
       stroke-dasharray="5, 5"
       fill="none"
       fill-rule="evenodd"
       id="path39" />
    <text
       font-family="'Times New Roman', 'Times New Roman_MSFontService', sans-serif"
       font-weight="400"
       font-size="47px"
       transform="translate(908.204,258)"
       id="text40">FS<tspan
   font-family="'Cambria Math', 'Cambria Math_MSFontService', sans-serif"
   font-size="47px"
   x="52.083302"
   y="0"
   id="tspan39">M</tspan><tspan
   font-family="'Cambria Math', 'Cambria Math_MSFontService', sans-serif"
   font-size="34px"
   x="89.1334"
   y="9"
   id="tspan40">1</tspan></text>
    <path
       d="m 899.5,373.5 h 141 v 63.333 L 1027.83,449.5 H 899.5 Z"
       fill="#92d050"
       fill-rule="evenodd"
       id="path40" />
    <path
       d="m 1027.83,449.5 2.54,-10.134 10.13,-2.533 z"
       fill="#75a740"
       fill-rule="evenodd"
       id="path41" />
    <path
       d="m 1027.83,449.5 2.54,-10.134 10.13,-2.533 -12.67,12.667 H 899.5 v -76 h 141 v 63.333"
       stroke="#ff0000"
       stroke-width="5"
       stroke-miterlimit="8"
       stroke-dasharray="5, 5"
       fill="none"
       fill-rule="evenodd"
       id="path42" />
    <text
       font-family="'Cambria Math', 'Cambria Math_MSFontService', sans-serif"
       font-weight="400"
       font-size="47px"
       transform="translate(909.541,421)"
       id="text42">FSM<tspan
   font-size="34px"
   x="86.25"
   y="10"
   id="tspan42">k</tspan></text>
    <path
       d="m 970.225,347.415 c 0.898,0 1.648,0.315 2.252,0.944 0.604,0.63 0.906,1.428 0.906,2.394 0,0.966 -0.302,1.764 -0.906,2.394 -0.604,0.63 -1.354,0.945 -2.252,0.945 -0.897,0 -1.647,-0.315 -2.251,-0.945 -0.604,-0.63 -0.906,-1.428 -0.906,-2.394 0,-0.966 0.302,-1.764 0.906,-2.394 0.604,-0.629 1.354,-0.944 2.251,-0.944 z m 0,-13.768 c 0.898,0 1.648,0.315 2.252,0.945 0.604,0.63 0.906,1.428 0.906,2.394 0,0.966 -0.302,1.764 -0.906,2.393 -0.604,0.63 -1.354,0.945 -2.252,0.945 -0.897,0 -1.647,-0.315 -2.251,-0.945 -0.604,-0.629 -0.906,-1.427 -0.906,-2.393 0,-0.966 0.302,-1.764 0.906,-2.394 0.604,-0.63 1.354,-0.945 2.251,-0.945 z m 0,-13.767 c 0.898,0 1.648,0.315 2.252,0.944 0.604,0.63 0.906,1.428 0.906,2.394 0,0.966 -0.302,1.764 -0.906,2.394 -0.604,0.63 -1.354,0.944 -2.252,0.944 -0.897,0 -1.647,-0.314 -2.251,-0.944 -0.604,-0.63 -0.906,-1.428 -0.906,-2.394 0,-0.966 0.302,-1.764 0.906,-2.394 0.604,-0.629 1.354,-0.944 2.251,-0.944 z"
       fill-rule="evenodd"
       id="path43" />
    <text
       fill="#000000"
       fill-opacity="0"
       font-family="Arial, Arial_MSFontService, sans-serif"
       font-size="34.2119px"
       x="967.06799"
       y="349.815"
       id="text43">⋮</text>
    <path
       d="m 1040.02,243.875 138.97,0.716 -0.03,6.25 -138.98,-0.716 z m 138.96,3.841 -12.42,-15.689 31.17,15.785 -31.33,15.464 z"
       fill="#ff0000"
       id="path44" />
    <path
       d="m 1040,407.875 138.2,0.077 v 6.25 L 1040,414.125 Z m 138.2,3.202 -12.49,-15.632 31.24,15.642 -31.26,15.608 z"
       fill="#ff0000"
       id="path45" />
    <path
       d="m 1071.5,222.331 c 0,-5.43 4.4,-9.831 9.83,-9.831 h 53.34 c 5.43,0 9.83,4.401 9.83,9.831 v 56.338 c 0,5.43 -4.4,9.831 -9.83,9.831 h -53.34 c -5.43,0 -9.83,-4.401 -9.83,-9.831 z"
       stroke="#ff0000"
       stroke-width="5"
       stroke-miterlimit="8"
       fill="#ffffff"
       fill-rule="evenodd"
       id="path46" />
    <text
       font-family="'Times New Roman', 'Times New Roman_MSFontService', sans-serif"
       font-weight="400"
       font-size="47px"
       transform="translate(1081.8,267)"
       id="text46">f2l</text>
    <path
       d="m 1195,564 h 137 v 63.333 L 1319.33,640 H 1195 Z"
       fill="#a2b1ce"
       fill-rule="evenodd"
       id="path47" />
    <path
       d="m 1319.33,640 2.54,-10.134 10.13,-2.533 z"
       fill="#828ea6"
       fill-rule="evenodd"
       id="path48" />
    <path
       d="m 1319.33,640 2.54,-10.134 L 1332,627.333 1319.33,640 H 1195 v -76 h 137 v 63.333"
       stroke="#000000"
       stroke-width="4.16667"
       stroke-miterlimit="8"
       stroke-dasharray="4.16667, 4.16667"
       fill="none"
       fill-rule="evenodd"
       id="path49" />
    <text
       font-family="'Cambria Math', 'Cambria Math_MSFontService', sans-serif"
       font-weight="400"
       font-size="47px"
       transform="translate(1215.12,613)"
       id="text49">LSM</text>
    <path
       d="m 1873,555.562 c 0,-5.281 4.28,-9.562 9.56,-9.562 h 171.88 c 5.28,0 9.56,4.281 9.56,9.562 v 51.876 c 0,5.281 -4.28,9.562 -9.56,9.562 h -171.88 c -5.28,0 -9.56,-4.281 -9.56,-9.562 z"
       stroke="#000000"
       stroke-width="4.16667"
       stroke-miterlimit="8"
       fill="#ffffff"
       fill-rule="evenodd"
       id="path50" />
    <text
       font-family="'Times New Roman', 'Times New Roman_MSFontService', sans-serif"
       font-weight="400"
       font-size="47px"
       transform="translate(1934.66,598)"
       id="text50">QA</text>
    <path
       d="m 233,368.39 c 0,-6.843 5.547,-12.39 12.39,-12.39 h 148.22 c 6.843,0 12.39,5.547 12.39,12.39 v 67.22 c 0,6.843 -5.547,12.39 -12.39,12.39 H 245.39 C 238.547,448 233,442.453 233,435.61 Z"
       stroke="#000000"
       stroke-width="4.16667"
       stroke-miterlimit="8"
       fill="#ffffff"
       fill-rule="evenodd"
       id="path51" />
    <text
       font-family="'Times New Roman', 'Times New Roman_MSFontService', sans-serif"
       font-weight="400"
       font-size="40px"
       transform="translate(266.988,393)"
       id="text51">Model <tspan
   font-size="40px"
   x="-27.7083"
   y="40"
   id="tspan51">Generator</tspan></text>
    <path
       d="m 322.125,300.994 0.071,36.222 -6.25,0.012 -0.071,-36.222 z m -3.054,36.228 15.601,-12.53 -15.564,31.28 -15.686,-31.219 z"
       id="path52" />
    <text
       font-family="'Times New Roman', 'Times New Roman_MSFontService', sans-serif"
       font-weight="700"
       font-size="40px"
       transform="translate(1333.67,341)"
       id="text52">k<tspan
   font-weight="400"
   font-size="40px"
   x="32.291599"
   y="0"
   id="tspan52">equivalence classes</tspan></text>
    <text
       font-family="'Times New Roman', 'Times New Roman_MSFontService', sans-serif"
       font-weight="700"
       font-size="53px"
       transform="rotate(-90,300.4155,117.5845)"
       id="text53">MSR<tspan
   font-size="53px"
   x="-306"
   y="-1.5799299"
   id="tspan53">Base</tspan></text>
    <text
       font-family="'Times New Roman', 'Times New Roman_MSFontService', sans-serif"
       font-weight="700"
       font-size="40px"
       transform="translate(1350.78,689)"
       id="text54">n<tspan
   font-weight="400"
   font-size="40px"
   x="32.291599"
   y="0"
   id="tspan54">generated scenes</tspan></text>
    <path
       d="m 1075.5,383.792 c 0,-5.132 4.16,-9.292 9.29,-9.292 h 50.42 c 5.13,0 9.29,4.16 9.29,9.292 v 57.416 c 0,5.132 -4.16,9.292 -9.29,9.292 h -50.42 c -5.13,0 -9.29,-4.16 -9.29,-9.292 z"
       stroke="#ff0000"
       stroke-width="5"
       stroke-miterlimit="8"
       fill="#ffffff"
       fill-rule="evenodd"
       id="path54" />
    <text
       font-family="'Times New Roman', 'Times New Roman_MSFontService', sans-serif"
       font-weight="400"
       font-size="47px"
       transform="translate(1083.78,429)"
       id="text55">f2l</text>
    <path
       d="m 1873,715.562 c 0,-5.281 4.28,-9.562 9.56,-9.562 h 171.88 c 5.28,0 9.56,4.281 9.56,9.562 v 51.876 c 0,5.281 -4.28,9.562 -9.56,9.562 h -171.88 c -5.28,0 -9.56,-4.281 -9.56,-9.562 z"
       stroke="#000000"
       stroke-width="4.16667"
       stroke-miterlimit="8"
       fill="#ffffff"
       fill-rule="evenodd"
       id="path55" />
    <text
       font-family="'Times New Roman', 'Times New Roman_MSFontService', sans-serif"
       font-weight="400"
       font-size="47px"
       transform="translate(1934.66,759)"
       id="text57">QA<tspan
   font-size="40px"
   x="-1244.1801"
   y="-170"
   id="tspan55">Hand</tspan><tspan
   font-size="40px"
   x="-1157.51"
   y="-170"
   id="tspan56">-</tspan><tspan
   font-size="40px"
   x="-1144.1801"
   y="-170"
   id="tspan57">crafted formalization</tspan></text>
    <rect
       x="210"
       y="217"
       width="218"
       height="84"
       stroke="#000000"
       stroke-width="4.16667"
       stroke-miterlimit="8"
       fill="#ffffff"
       id="rect57" />
    <text
       font-family="'Times New Roman', 'Times New Roman_MSFontService', sans-serif"
       font-weight="400"
       font-size="40px"
       transform="translate(227.922,254)"
       id="text58">COLREGS <tspan
   font-size="40px"
   x="4.5833302"
   y="40"
   id="tspan58">constraints</tspan></text>
    <path
       d="m 571,208 h 140 v 63.333 L 698.333,284 H 571 Z"
       fill="#c7e7a6"
       fill-rule="evenodd"
       id="path58" />
    <path
       d="M 698.333,284 700.867,273.867 711,271.333 Z"
       fill="#a0ba85"
       fill-rule="evenodd"
       id="path59" />
    <path
       d="M 698.333,284 700.867,273.867 711,271.333 698.333,284 H 571 v -76 h 140 v 63.333"
       stroke="#000000"
       stroke-width="4.16667"
       stroke-miterlimit="8"
       stroke-dasharray="4.16667, 4.16667"
       fill="none"
       fill-rule="evenodd"
       id="path60" />
    <text
       font-family="'Cambria Math', 'Cambria Math_MSFontService', sans-serif"
       font-weight="400"
       font-size="47px"
       transform="translate(585.774,256)"
       id="text60">FEC<tspan
   font-size="34px"
   x="77.050003"
   y="10"
   id="tspan60">1</tspan></text>
    <path
       d="m 571,373 h 140 v 63.333 L 698.333,449 H 571 Z"
       fill="#c7e7a6"
       fill-rule="evenodd"
       id="path61" />
    <path
       d="M 698.333,449 700.867,438.867 711,436.333 Z"
       fill="#a0ba85"
       fill-rule="evenodd"
       id="path62" />
    <path
       d="M 698.333,449 700.867,438.867 711,436.333 698.333,449 H 571 v -76 h 140 v 63.333"
       stroke="#000000"
       stroke-width="4.16667"
       stroke-miterlimit="8"
       stroke-dasharray="4.16667, 4.16667"
       fill="none"
       fill-rule="evenodd"
       id="path63" />
    <text
       font-family="'Cambria Math', 'Cambria Math_MSFontService', sans-serif"
       font-weight="400"
       font-size="47px"
       transform="translate(584.32,421)"
       id="text63">FEC<tspan
   font-size="34px"
   x="78.125"
   y="10"
   id="tspan63">𝑘</tspan></text>
    <path
       d="m 645.863,348.133 c 0.897,0 1.647,0.315 2.251,0.944 0.604,0.63 0.906,1.428 0.906,2.394 0,0.966 -0.302,1.764 -0.906,2.394 -0.604,0.63 -1.354,0.945 -2.251,0.945 -0.897,0 -1.648,-0.315 -2.252,-0.945 -0.604,-0.63 -0.906,-1.428 -0.906,-2.394 0,-0.966 0.302,-1.764 0.906,-2.394 0.604,-0.629 1.355,-0.944 2.252,-0.944 z m 0,-13.768 c 0.897,0 1.647,0.315 2.251,0.945 0.604,0.629 0.906,1.427 0.906,2.394 0,0.966 -0.302,1.764 -0.906,2.393 -0.604,0.63 -1.354,0.945 -2.251,0.945 -0.897,0 -1.648,-0.315 -2.252,-0.945 -0.604,-0.629 -0.906,-1.427 -0.906,-2.393 0,-0.967 0.302,-1.765 0.906,-2.394 0.604,-0.63 1.355,-0.945 2.252,-0.945 z m 0,-13.767 c 0.897,0 1.647,0.314 2.251,0.944 0.604,0.63 0.906,1.428 0.906,2.394 0,0.966 -0.302,1.764 -0.906,2.394 -0.604,0.63 -1.354,0.944 -2.251,0.944 -0.897,0 -1.648,-0.314 -2.252,-0.944 -0.604,-0.63 -0.906,-1.428 -0.906,-2.394 0,-0.966 0.302,-1.764 0.906,-2.394 0.604,-0.63 1.355,-0.944 2.252,-0.944 z"
       fill-rule="evenodd"
       id="path64" />
    <text
       fill="#000000"
       fill-opacity="0"
       font-family="Arial, Arial_MSFontService, sans-serif"
       font-size="34.2119px"
       x="642.70502"
       y="350.53299"
       id="text64">⋮</text>
    <path
       d="m 711,407.875 h 168.963 v 6.25 H 711 Z m 168.963,3.125 -12.5,-15.625 31.25,15.625 -31.25,15.625 z"
       fill="#ff0000"
       id="path65" />
    <path
       d="m 711.018,242.875 168.963,0.984 -0.036,6.249 -168.963,-0.983 z m 168.945,4.109 -12.409,-15.698 31.159,15.807 -31.341,15.442 z"
       fill="#ff0000"
       id="path66" />
    <path
       d="m 744.5,221.927 c 0,-5.206 4.221,-9.427 9.427,-9.427 h 80.146 c 5.206,0 9.427,4.221 9.427,9.427 v 51.146 c 0,5.206 -4.221,9.427 -9.427,9.427 h -80.146 c -5.206,0 -9.427,-4.221 -9.427,-9.427 z"
       stroke="#ff0000"
       stroke-width="5"
       stroke-miterlimit="8"
       fill="#ffffff"
       fill-rule="evenodd"
       id="path67" />
    <text
       font-family="'Times New Roman', 'Times New Roman_MSFontService', sans-serif"
       font-weight="400"
       font-size="47px"
       transform="translate(753.477,264)"
       id="text67">ec2f</text>
    <path
       d="m 744.5,385.062 c 0,-5.281 4.281,-9.562 9.562,-9.562 h 80.876 c 5.281,0 9.562,4.281 9.562,9.562 v 51.876 c 0,5.281 -4.281,9.562 -9.562,9.562 h -80.876 c -5.281,0 -9.562,-4.281 -9.562,-9.562 z"
       stroke="#ff0000"
       stroke-width="5"
       stroke-miterlimit="8"
       fill="#ffffff"
       fill-rule="evenodd"
       id="path68" />
    <text
       font-family="'Times New Roman', 'Times New Roman_MSFontService', sans-serif"
       font-weight="400"
       font-size="47px"
       transform="translate(753.829,428)"
       id="text68">ec2f</text>
    <path
       d="m 577,465 c -17.673,0 -32,-2.388 -32,-5.333 V 410.17 c 0,-2.945 -14.327,-5.333 -32,-5.333 17.673,0 32,-2.388 32,-5.333 V 202.333 C 545,199.388 559.327,197 577,197"
       stroke="#000000"
       stroke-width="4.16667"
       stroke-miterlimit="8"
       fill="none"
       fill-rule="evenodd"
       id="path69" />
    <rect
       x="212"
       y="556"
       width="335"
       height="93"
       stroke="#000000"
       stroke-width="4.16667"
       stroke-miterlimit="8"
       fill="#ffffff"
       id="rect69" />
    <text
       font-family="'Times New Roman', 'Times New Roman_MSFontService', sans-serif"
       font-weight="400"
       font-size="40px"
       transform="translate(237.393,594)"
       id="text69">Test requirements <tspan
   font-size="40px"
   x="34.025002"
   y="40"
   id="tspan69">as constraints</tspan></text>
    <path
       d="m 406,386.5 h 42 V 369 l 35,35 -35,35 v -17.5 h -42 z"
       fill-rule="evenodd"
       id="path70" />
    <text
       font-family="'Times New Roman', 'Times New Roman_MSFontService', sans-serif"
       font-weight="700"
       font-size="33px"
       transform="translate(1857.82,410)"
       id="text74">CD<tspan
   font-size="33px"
   x="48.333199"
   y="0"
   id="tspan70">-</tspan><tspan
   font-size="33px"
   x="59.375"
   y="0"
   id="tspan71">RS</tspan><tspan
   font-weight="400"
   font-size="33px"
   x="110.417"
   y="0"
   id="tspan72">: Condition</tspan><tspan
   font-weight="400"
   font-size="33px"
   x="261.04199"
   y="0"
   id="tspan73">-</tspan><tspan
   font-weight="400"
   font-size="33px"
   x="272.08301"
   y="0"
   id="tspan74">driven RS</tspan></text>
    <path
       d="m 1427.5,254.368 c 0,-3.793 3.07,-6.868 6.87,-6.868 h 128.26 c 3.8,0 6.87,3.075 6.87,6.868 v 37.264 c 0,3.793 -3.07,6.868 -6.87,6.868 h -128.26 c -3.8,0 -6.87,-3.075 -6.87,-6.868 z"
       stroke="#ff0000"
       stroke-width="5"
       stroke-miterlimit="8"
       fill="#ffffff"
       fill-rule="evenodd"
       id="path74" />
    <text
       font-family="'Times New Roman', 'Times New Roman_MSFontService', sans-serif"
       font-weight="700"
       font-size="40px"
       transform="translate(1436.69,288)"
       id="text76">CD<tspan
   font-size="40px"
   x="57.916698"
   y="0"
   id="tspan75">-</tspan><tspan
   font-size="40px"
   x="71.25"
   y="0"
   id="tspan76">RS</tspan></text>
    <path
       d="m 1332,598.875 h 341.92 v 70.594 l -3.12,-3.125 h 40.04 v 6.25 h -43.17 V 602 l 3.13,3.125 H 1332 Z m 378.84,70.594 -12.5,-15.625 31.25,15.625 -31.25,15.625 z"
       id="path76" />
    <path
       d="M 0.0021942,-3.125 629.25,-2.68318 629.246,3.56682 -0.0021942,3.125 Z M 629.247,0.441822 616.758,-15.192 647.997,0.454987 616.736,16.058 Z"
       transform="matrix(1,0,0,-1,547,602.455)"
       id="path77" />
    <text
       font-family="'Times New Roman', 'Times New Roman_MSFontService', sans-serif"
       font-weight="700"
       font-size="33px"
       transform="translate(1858.32,218)"
       id="text92">SB<tspan
   font-weight="400"
   font-size="33px"
   x="49.166599"
   y="0"
   id="tspan77">: Genetic search</tspan><tspan
   font-weight="400"
   font-size="33px"
   x="263.54199"
   y="0"
   id="tspan78">-</tspan><tspan
   font-weight="400"
   font-size="33px"
   x="274.58301"
   y="0"
   id="tspan79">based</tspan><tspan
   font-weight="400"
   font-size="33px"
   x="0"
   y="40"
   id="tspan80">constraint satisfaction</tspan><tspan
   font-size="33px"
   x="0.79748499"
   y="93"
   id="tspan81">RS</tspan><tspan
   font-weight="400"
   font-size="33px"
   x="51.839199"
   y="93"
   id="tspan82">: Rejection sampling</tspan><tspan
   font-weight="400"
   font-size="33px"
   x="327.048"
   y="93"
   id="tspan83">-</tspan><tspan
   font-weight="400"
   font-size="33px"
   x="0.79748499"
   y="133"
   id="tspan84">based constraint satisfaction</tspan><tspan
   font-size="33px"
   x="-1620.7"
   y="489"
   id="tspan85">FEC</tspan><tspan
   font-weight="400"
   font-size="33px"
   x="-1545.49"
   y="489"
   id="tspan86">: Functional equivalence class</tspan><tspan
   font-size="33px"
   x="-1619.97"
   y="532"
   id="tspan87">LSM</tspan><tspan
   font-weight="400"
   font-size="33px"
   x="-1539.35"
   y="532"
   id="tspan88">: Logical scenario model</tspan><tspan
   font-size="33px"
   x="-1067.53"
   y="489"
   id="tspan89">FSM</tspan><tspan
   font-weight="400"
   font-size="33px"
   x="-988.784"
   y="489"
   id="tspan90">: Functional scenario model</tspan><tspan
   font-size="33px"
   x="-1067.42"
   y="533"
   id="tspan91">IS</tspan><tspan
   font-weight="400"
   font-size="33px"
   x="-1027.63"
   y="533"
   id="tspan92">: Initial scene</tspan></text>
    <path
       d="m 228.5,675.5 h 328.541 v 0 H 1249.5 v 90 h -1021 z"
       stroke="#000000"
       stroke-width="2.5"
       stroke-miterlimit="8"
       stroke-dasharray="10, 7.5"
       fill="none"
       fill-rule="evenodd"
       id="path92" />
    <path
       d="m 0,-3.125 h 35.4629 v 63.5927 l -3.125,-3.125 h 56.9212 v 6.25 H 29.2129 V 0 l 3.125,3.125 H 0 Z m 89.2591,63.5927 -12.5,-15.625 31.2499,15.625 -31.2499,15.625 z"
       transform="matrix(0,-1,-1,0,379.468,556.009)"
       id="path93" />
    <path
       d="m 1847.5,180.5 h 424 v 0 0 296 h -424 z"
       stroke="#000000"
       stroke-width="2.5"
       stroke-miterlimit="8"
       stroke-dasharray="10, 7.5"
       fill="none"
       fill-rule="evenodd"
       id="path94" />
    <path
       d="m 1426.5,420.368 c 0,-3.793 3.07,-6.868 6.87,-6.868 h 128.26 c 3.8,0 6.87,3.075 6.87,6.868 v 37.264 c 0,3.793 -3.07,6.868 -6.87,6.868 h -128.26 c -3.8,0 -6.87,-3.075 -6.87,-6.868 z"
       stroke="#ff0000"
       stroke-width="5"
       stroke-miterlimit="8"
       fill="#ffffff"
       fill-rule="evenodd"
       id="path95" />
    <text
       font-family="'Times New Roman', 'Times New Roman_MSFontService', sans-serif"
       font-weight="700"
       font-size="40px"
       transform="translate(1435.68,454)"
       id="text96">CD<tspan
   font-size="40px"
   x="57.916599"
   y="0"
   id="tspan95">-</tspan><tspan
   font-size="40px"
   x="71.25"
   y="0"
   id="tspan96">RS</tspan></text>
    <path
       d="m 1428,555.734 c 0,-3.719 3.01,-6.734 6.73,-6.734 h 128.54 c 3.72,0 6.73,3.015 6.73,6.734 v 36.532 c 0,3.719 -3.01,6.734 -6.73,6.734 h -128.54 c -3.72,0 -6.73,-3.015 -6.73,-6.734 z"
       stroke="#000000"
       stroke-width="4.16667"
       stroke-miterlimit="8"
       fill="#ffffff"
       fill-rule="evenodd"
       id="path96" />
    <text
       font-family="'Times New Roman', 'Times New Roman_MSFontService', sans-serif"
       font-weight="700"
       font-size="47px"
       transform="translate(1470.39,591)"
       id="text97">SB</text>
    <path
       d="m 1428,608.734 c 0,-3.719 3.01,-6.734 6.73,-6.734 h 128.54 c 3.72,0 6.73,3.015 6.73,6.734 v 36.532 c 0,3.719 -3.01,6.734 -6.73,6.734 h -128.54 c -3.72,0 -6.73,-3.015 -6.73,-6.734 z"
       stroke="#000000"
       stroke-width="4.16667"
       stroke-miterlimit="8"
       fill="#ffffff"
       fill-rule="evenodd"
       id="path97" />
    <text
       font-family="'Times New Roman', 'Times New Roman_MSFontService', sans-serif"
       font-weight="700"
       font-size="40px"
       transform="translate(1473.13,642)"
       id="text98">RS<tspan
   font-size="33px"
   x="385.36099"
   y="-181"
   id="tspan97">QA</tspan><tspan
   font-weight="400"
   font-size="33px"
   x="443.694"
   y="-181"
   id="tspan98">: Qualitative abstraction</tspan></text>
    <path
       d="m 473.5,260 c 0,-11.322 9.178,-20.5 20.5,-20.5 11.322,0 20.5,9.178 20.5,20.5 0,11.322 -9.178,20.5 -20.5,20.5 -11.322,0 -20.5,-9.178 -20.5,-20.5 z"
       stroke="#000000"
       stroke-width="3.33333"
       stroke-miterlimit="8"
       fill="none"
       fill-rule="evenodd"
       id="path98" />
    <text
       font-family="'Times New Roman', 'Times New Roman_MSFontService', sans-serif"
       font-weight="400"
       font-size="30px"
       transform="translate(486.36,270)"
       id="text99">1</text>
    <path
       d="M 3.53092e-4,-3.125 26.5476,-3.122 26.5469,3.128 -3.53092e-4,3.125 Z M 26.5472,0.00299956 14.049,-15.6234 45.2972,0.00511811 14.0455,15.6266 Z"
       transform="matrix(1,0,0,-1,428,259.005)"
       id="path99" />
    <path
       d="m 773.5,329.5 c 0,-11.598 9.178,-21 20.5,-21 11.322,0 20.5,9.402 20.5,21 0,11.598 -9.178,21 -20.5,21 -11.322,0 -20.5,-9.402 -20.5,-21 z"
       stroke="#000000"
       stroke-width="3.33333"
       stroke-miterlimit="8"
       fill="none"
       fill-rule="evenodd"
       id="path100" />
    <text
       font-family="'Times New Roman', 'Times New Roman_MSFontService', sans-serif"
       font-weight="400"
       font-size="30px"
       transform="translate(785.956,340)"
       id="text100">1</text>
    <path
       d="M 1.66665,-0.00800506 1.74381,16.058 -1.58948,16.074 -1.66665,0.00800506 Z M 0.0771665,16.066 8.37838,9.35938 0.125197,26.0659 -8.28809,9.43943 Z"
       transform="matrix(1,0,0,-1,793.5,308.566)"
       id="path101" />
    <path
       d="m 795.166,350.469 0.293,15.901 -3.332,0.061 -0.293,-15.9 z m -1.373,15.932 8.209,-6.82 -8.025,16.818 -8.639,-16.511 z"
       id="path102" />
    <path
       d="m 1948.5,661.5 c 0,-11.598 9.18,-21 20.5,-21 11.32,0 20.5,9.402 20.5,21 0,11.598 -9.18,21 -20.5,21 -11.32,0 -20.5,-9.402 -20.5,-21 z"
       stroke="#000000"
       stroke-width="3.33333"
       stroke-miterlimit="8"
       fill="none"
       fill-rule="evenodd"
       id="path103" />
    <text
       font-family="'Times New Roman', 'Times New Roman_MSFontService', sans-serif"
       font-weight="400"
       font-size="30px"
       transform="translate(1960.91,672)"
       id="text103">1</text>
    <path
       d="M 1.66667,-9.24114e-6 1.66674,13.6684 H -1.66659 L -1.66667,9.24114e-6 Z M 7.57868e-5,13.6684 8.33337,7.00166 1.31234e-4,23.6684 -8.33329,7.00175 Z"
       transform="matrix(1,0,0,-1,1968.5,641.168)"
       id="path104" />
    <path
       d="m 1970.17,682.5 v 14.744 h -3.34 V 682.5 Z m -1.67,14.744 8.33,-6.666 -8.33,16.666 -8.33,-16.666 z"
       id="path105" />
    <path
       d="m 1428,200.868 c 0,-3.793 3.07,-6.868 6.87,-6.868 h 127.26 c 3.8,0 6.87,3.075 6.87,6.868 v 37.264 c 0,3.793 -3.07,6.868 -6.87,6.868 h -127.26 c -3.8,0 -6.87,-3.075 -6.87,-6.868 z"
       stroke="#000000"
       stroke-width="4.16667"
       stroke-miterlimit="8"
       fill="#ffffff"
       fill-rule="evenodd"
       id="path106" />
    <text
       font-family="'Times New Roman', 'Times New Roman_MSFontService', sans-serif"
       font-weight="700"
       font-size="47px"
       transform="translate(1469.58,237)"
       id="text106">SB</text>
    <path
       d="m 1427,366.868 c 0,-3.793 3.07,-6.868 6.87,-6.868 h 127.26 c 3.8,0 6.87,3.075 6.87,6.868 v 37.264 c 0,3.793 -3.07,6.868 -6.87,6.868 h -127.26 c -3.8,0 -6.87,-3.075 -6.87,-6.868 z"
       stroke="#000000"
       stroke-width="4.16667"
       stroke-miterlimit="8"
       fill="#ffffff"
       fill-rule="evenodd"
       id="path107" />
    <text
       font-family="'Times New Roman', 'Times New Roman_MSFontService', sans-serif"
       font-weight="700"
       font-size="47px"
       transform="translate(1468.57,403)"
       id="text107">SB</text>
  </g>
</svg>
