<?xml version="1.0" encoding="UTF-8" standalone="no"?>
<!-- Created with Inkscape (http://www.inkscape.org/) -->

<svg
   width="286.03665mm"
   height="101.87561mm"
   viewBox="0 0 286.03665 101.87561"
   version="1.1"
   id="svg1"
   sodipodi:docname="msr_overview.svg"
   inkscape:version="1.4 (86a8ad7, 2024-10-11)"
   xmlns:inkscape="http://www.inkscape.org/namespaces/inkscape"
   xmlns:sodipodi="http://sodipodi.sourceforge.net/DTD/sodipodi-0.dtd"
   xmlns="http://www.w3.org/2000/svg"
   xmlns:svg="http://www.w3.org/2000/svg">
  <sodipodi:namedview
     id="namedview1"
     pagecolor="#ffffff"
     bordercolor="#000000"
     borderopacity="0.25"
     inkscape:showpageshadow="2"
     inkscape:pageopacity="0.0"
     inkscape:pagecheckerboard="0"
     inkscape:deskcolor="#d1d1d1"
     inkscape:document-units="mm"
     inkscape:zoom="0.42064285"
     inkscape:cx="815.4186"
     inkscape:cy="227.03346"
     inkscape:window-width="1920"
     inkscape:window-height="1111"
     inkscape:window-x="-9"
     inkscape:window-y="-9"
     inkscape:window-maximized="1"
     inkscape:current-layer="svg1" />
  <defs
     id="defs1">
    <clipPath
       id="clip0-4">
      <rect
         x="54"
         y="57"
         width="1087"
         height="405"
         id="rect1-8" />
    </clipPath>
    <clipPath
       id="clip0">
      <rect
         x="54"
         y="57"
         width="1087"
         height="405"
         id="rect1" />
    </clipPath>
    <clipPath
       id="clip0-48">
      <rect
         x="54"
         y="57"
         width="1082"
         height="405"
         id="rect1-82" />
    </clipPath>
    <clipPath
       id="clip0-9">
      <rect
         x="48"
         y="57"
         width="1094"
         height="374"
         id="rect1-4" />
    </clipPath>
    <clipPath
       id="clip0-8">
      <rect
         x="1058"
         y="345"
         width="1702"
         height="210"
         id="rect1-2" />
    </clipPath>
    <linearGradient
       x1="2277.5"
       y1="347"
       x2="2277.5"
       y2="553"
       gradientUnits="userSpaceOnUse"
       spreadMethod="reflect"
       id="fill1">
      <stop
         offset="0"
         stop-color="#F6F8FC"
         stop-opacity="0.65098"
         id="stop1" />
      <stop
         offset="0.64"
         stop-color="#F6F8FC"
         stop-opacity="0.65098"
         id="stop2" />
      <stop
         offset="0.64"
         stop-color="#C55A11"
         stop-opacity="0.760784"
         id="stop3" />
      <stop
         offset="1"
         stop-color="#C55A11"
         stop-opacity="0.760784"
         id="stop4" />
    </linearGradient>
    <clipPath
       id="clip0-45">
      <rect
         x="1353"
         y="302"
         width="1407"
         height="331"
         id="rect1-5" />
    </clipPath>
    <linearGradient
       x1="2353"
       y1="304"
       x2="2353"
       y2="631"
       gradientUnits="userSpaceOnUse"
       spreadMethod="reflect"
       id="fill1-1">
      <stop
         offset="0"
         stop-color="#F6F8FC"
         stop-opacity="0.65098"
         id="stop1-7" />
      <stop
         offset="0.6"
         stop-color="#F6F8FC"
         stop-opacity="0.65098"
         id="stop2-1" />
      <stop
         offset="0.6"
         stop-color="#C55A11"
         stop-opacity="0.760784"
         id="stop3-1" />
      <stop
         offset="1"
         stop-color="#C55A11"
         stop-opacity="0.760784"
         id="stop4-5" />
    </linearGradient>
    <clipPath
       id="clip0-1">
      <rect
         x="1353"
         y="302"
         width="1407"
         height="331"
         id="rect1-42" />
    </clipPath>
    <linearGradient
       x1="2353"
       y1="304"
       x2="2353"
       y2="631"
       gradientUnits="userSpaceOnUse"
       spreadMethod="reflect"
       id="fill1-3">
      <stop
         offset="0"
         stop-color="#F6F8FC"
         stop-opacity="0.65098"
         id="stop1-2" />
      <stop
         offset="0.6"
         stop-color="#F6F8FC"
         stop-opacity="0.65098"
         id="stop2-2" />
      <stop
         offset="0.6"
         stop-color="#FFA3A3"
         id="stop3-16" />
      <stop
         offset="1"
         stop-color="#FFA3A3"
         id="stop4-8" />
    </linearGradient>
    <clipPath
       id="clip0-92">
      <rect
         x="-12"
         y="121"
         width="2136"
         height="738"
         id="rect1-7" />
    </clipPath>
    <clipPath
       id="clip0-5">
      <rect
         x="23"
         y="121"
         width="2101"
         height="725"
         id="rect1-43" />
    </clipPath>
  </defs>
  <g
     clip-path="url(#clip0-5)"
     transform="matrix(0.26458333,0,0,0.26458333,-89.356835,-77.18663)"
     id="g90"
     inkscape:export-filename="msr_overview.pdf"
     inkscape:export-xdpi="96"
     inkscape:export-ydpi="96">
    <path
       d="m 780.003,355.875 590.607,0.508 -0.01,6.25 -590.603,-0.508 z m 590.607,3.633 -12.49,-15.636 31.24,15.652 -31.27,15.598 z"
       id="path1" />
    <path
       d="M 0,0 2073.46,1.31234e-4"
       stroke="#000000"
       stroke-width="6.25"
       stroke-miterlimit="8"
       fill="none"
       fill-rule="evenodd"
       transform="matrix(-1,0,0,1,2099.46,525)"
       id="path2" />
    <path
       d="m 1471.17,315 2.56,-10.267 L 1484,302.166 1471.17,315 H 1369 v -77 h 115 v 64.166"
       stroke="#000000"
       stroke-width="4.16667"
       stroke-miterlimit="8"
       stroke-dasharray="4.16667, 4.16667"
       fill="none"
       fill-rule="evenodd"
       id="path3" />
    <text
       font-family="'Cambria Math', 'Cambria Math_MSFontService', sans-serif"
       font-weight="400"
       font-size="47px"
       transform="translate(1390.63,287)"
       id="text3">IS<tspan
   font-size="34px"
   x="38.333401"
   y="10"
   id="tspan3">1</tspan></text>
    <path
       d="m 1475.33,478 2.54,-10.133 L 1488,465.333 1475.33,478 H 1369 v -76 h 119 v 63.333"
       stroke="#000000"
       stroke-width="4.16667"
       stroke-miterlimit="8"
       stroke-dasharray="4.16667, 4.16667"
       fill="none"
       fill-rule="evenodd"
       id="path4" />
    <text
       font-family="'Cambria Math', 'Cambria Math_MSFontService', sans-serif"
       font-weight="400"
       font-size="47px"
       transform="translate(1391.15,450)"
       id="text5">IS<tspan
   font-size="34px"
   x="38.333302"
   y="10"
   id="tspan4">𝑛</tspan><tspan
   font-size="47px"
   x="27.595501"
   y="-75"
   id="tspan5">⋮</tspan></text>
    <path
       d="m 1475.33,661 2.54,-10.133 L 1488,648.333 1475.33,661 H 1369 v -76 h 119 v 63.333"
       stroke="#000000"
       stroke-width="4.16667"
       stroke-miterlimit="8"
       stroke-dasharray="4.16667, 4.16667"
       fill="none"
       fill-rule="evenodd"
       id="path5" />
    <text
       font-family="'Times New Roman', 'Times New Roman_MSFontService', sans-serif"
       font-weight="400"
       font-size="47px"
       transform="translate(1391.46,634)"
       id="text6">IS<tspan
   font-family="'Cambria Math', 'Cambria Math_MSFontService', sans-serif"
   font-size="34px"
   x="40.591702"
   y="9"
   id="tspan6">1</tspan></text>
    <path
       d="m 1471.17,825 2.56,-10.267 L 1484,812.166 1471.17,825 H 1369 v -77 h 115 v 64.166"
       stroke="#000000"
       stroke-width="4.16667"
       stroke-miterlimit="8"
       stroke-dasharray="4.16667, 4.16667"
       fill="none"
       fill-rule="evenodd"
       id="path6" />
    <text
       font-family="'Times New Roman', 'Times New Roman_MSFontService', sans-serif"
       font-weight="400"
       font-size="47px"
       transform="translate(1389.09,797)"
       id="text9">I<tspan
   font-family="'Cambria Math', 'Cambria Math_MSFontService', sans-serif"
   font-size="47px"
   x="15.625"
   y="0"
   id="tspan7">S</tspan><tspan
   font-family="'Cambria Math', 'Cambria Math_MSFontService', sans-serif"
   font-size="34px"
   x="38.75"
   y="10"
   id="tspan8">𝑘</tspan><tspan
   font-family="'Cambria Math', 'Cambria Math_MSFontService', sans-serif"
   font-size="47px"
   x="32.069698"
   y="-75"
   id="tspan9">⋮</tspan></text>
    <path
       d="m 1794.17,317 2.56,-10.267 L 1807,304.166 1794.17,317 H 1666 v -77 h 141 v 64.166"
       stroke="#000000"
       stroke-width="4.16667"
       stroke-miterlimit="8"
       stroke-dasharray="4.16667, 4.16667"
       fill="none"
       fill-rule="evenodd"
       id="path9" />
    <text
       font-family="'Times New Roman', 'Times New Roman_MSFontService', sans-serif"
       font-weight="400"
       font-size="47px"
       transform="translate(1674.93,289)"
       id="text11">FS<tspan
   font-family="'Cambria Math', 'Cambria Math_MSFontService', sans-serif"
   font-size="47px"
   x="52.083401"
   y="0"
   id="tspan10">M</tspan><tspan
   font-family="'Cambria Math', 'Cambria Math_MSFontService', sans-serif"
   font-size="34px"
   x="89.1334"
   y="10"
   id="tspan11">1</tspan></text>
    <path
       d="m 1794.33,478 2.54,-10.134 L 1807,465.333 1794.33,478 H 1666 v -76 h 141 v 63.333"
       stroke="#000000"
       stroke-width="4.16667"
       stroke-miterlimit="8"
       stroke-dasharray="4.16667, 4.16667"
       fill="none"
       fill-rule="evenodd"
       id="path11" />
    <text
       font-family="'Cambria Math', 'Cambria Math_MSFontService', sans-serif"
       font-weight="400"
       font-size="47px"
       transform="translate(1675.8,450)"
       id="text13">FSM<tspan
   font-size="34px"
   x="86.25"
   y="10"
   id="tspan12">n</tspan><tspan
   font-size="47px"
   x="58.0718"
   y="-71"
   id="tspan13">⋮</tspan></text>
    <rect
       x="1914"
       y="303"
       width="184"
       height="110"
       stroke="#000000"
       stroke-width="4.16667"
       stroke-miterlimit="8"
       fill="none"
       id="rect13" />
    <text
       font-family="'Times New Roman', 'Times New Roman_MSFontService', sans-serif"
       font-weight="400"
       font-size="40px"
       transform="translate(1929.43,373)"
       id="text14">Coverage</text>
    <path
       d="m 1863.5,344 h 23.5 v -15.5 l 23.5,31 -23.5,31 V 375 h -23.5 z"
       stroke="#000000"
       stroke-width="3.33333"
       stroke-miterlimit="8"
       fill="none"
       fill-rule="evenodd"
       id="path14" />
    <path
       d="m 1484.03,273.875 163.52,1.645 -0.06,6.249 -163.52,-1.644 z m 163.49,4.77 -12.34,-15.75 31.09,15.938 -31.41,15.31 z"
       id="path15" />
    <path
       d="m 1488,436.875 h 159.02 v 6.25 H 1488 Z m 159.02,3.125 -12.5,-15.625 31.25,15.625 -31.25,15.625 z"
       id="path16" />
    <path
       d="M 1562.09,825.5 H 2068 l 52.5,-168.315 -85.91,-112.685 -509.09,2.853 6.36,278.147 z"
       stroke="#000000"
       stroke-width="5"
       stroke-miterlimit="8"
       fill="none"
       fill-rule="evenodd"
       id="path17" />
    <path
       d="M 0,0 1.31234e-4,277.096"
       stroke="#000000"
       stroke-width="3.75"
       stroke-miterlimit="8"
       stroke-dasharray="15, 11.25"
       fill="none"
       fill-rule="evenodd"
       transform="matrix(1,0,0,-1,1615,824.096)"
       id="path18" />
    <path
       d="M 1756.49,824.096 1741,541"
       stroke="#000000"
       stroke-width="3.75"
       stroke-miterlimit="8"
       stroke-dasharray="15, 11.25"
       fill="none"
       fill-rule="evenodd"
       id="path19" />
    <path
       d="M 0,0 24.3925,275.096"
       stroke="#000000"
       stroke-width="3.75"
       stroke-miterlimit="8"
       stroke-dasharray="15, 11.25"
       fill="none"
       fill-rule="evenodd"
       transform="matrix(1,0,0,-1,1976,824.096)"
       id="path20" />
    <path
       d="M 0,0 575.004,8.77861"
       stroke="#000000"
       stroke-width="3.75"
       stroke-miterlimit="8"
       stroke-dasharray="15, 11.25"
       fill="none"
       fill-rule="evenodd"
       transform="matrix(1,0,0,-1,1525,630.779)"
       id="path21" />
    <path
       d="m 1531,727 568.89,1.607"
       stroke="#000000"
       stroke-width="3.75"
       stroke-miterlimit="8"
       stroke-dasharray="15, 11.25"
       fill="none"
       fill-rule="evenodd"
       id="path22" />
    <text
       font-family="Calibri, Calibri_MSFontService, sans-serif"
       font-weight="400"
       font-size="33px"
       transform="translate(1536.31,585)"
       id="text30">EC<tspan
   font-size="22px"
   x="33.566601"
   y="7"
   id="tspan22">1</tspan><tspan
   font-size="33px"
   x="110.228"
   y="-3"
   id="tspan23">EC</tspan><tspan
   font-size="22px"
   x="143.795"
   y="4"
   id="tspan24">2</tspan><tspan
   font-size="33px"
   x="487.28299"
   y="228"
   id="tspan25">EC</tspan><tspan
   font-size="22px"
   x="520.849"
   y="235"
   id="tspan26">k</tspan><tspan
   font-size="33px"
   x="368.44"
   y="228"
   id="tspan27">EC</tspan><tspan
   font-size="22px"
   x="402.00601"
   y="235"
   id="tspan28">k</tspan><tspan
   font-size="22px"
   x="412.00601"
   y="235"
   id="tspan29">-</tspan><tspan
   font-size="22px"
   x="418.88101"
   y="235"
   id="tspan30">1</tspan></text>
    <path
       d="m 2027.19,780.487 c -2.86,-0.222 -3.43,-4.792 -5.72,-6.666 -1.16,-0.944 -12.01,-5.292 -12.88,-5.333 -25.73,-1.219 -51.52,-0.889 -77.28,-1.334 -8.59,-1.777 -17.12,-3.785 -25.76,-5.332 -3.77,-0.677 -7.6,-1.193 -11.45,-1.334 -20.5,-0.749 -41.02,-0.889 -61.53,-1.333 l -166,1.333 c -2.43,0.038 -4.76,0.928 -7.16,1.334 -2.85,0.483 -5.7,1.017 -8.58,1.333 -5.24,0.573 -10.5,0.889 -15.74,1.333 -14.79,-0.444 -29.62,-0.156 -44.37,-1.333 -2.12,-0.17 -3.7,-2.038 -5.72,-2.667 -2.31,-0.716 -4.77,-0.889 -7.16,-1.333 -2.38,-1.333 -5.04,-2.313 -7.15,-4 -2.59,-2.067 -3.29,-5.199 -4.29,-7.999 0.45,-1.709 1.83,-7.42 2.86,-9.333 1.24,-2.318 2.48,-4.698 4.29,-6.666 1.12,-1.217 2.86,-1.778 4.29,-2.666 1.91,-2.667 5.44,-4.806 5.73,-8 1.24,-13.911 0.91,-31.732 -2.86,-46.663 -1.35,-5.351 -1.09,-11.384 -4.3,-15.999 -2.44,-3.52 -7.55,-4.566 -11.44,-6.666 -18.92,-10.201 -11.05,-3.623 -20.04,-11.999 -0.48,-1.778 -1.43,-3.501 -1.43,-5.333 0,-3.583 0.42,-7.21 1.43,-10.666 0.7,-2.399 7.38,-8.66 8.59,-9.333 2.49,-1.391 10.85,-3.194 14.31,-4 10.07,1.043 14.49,1.445 24.33,2.667 3.34,0.415 6.66,1.004 10.01,1.333 5.71,0.56 11.45,0.889 17.17,1.333 20.52,-0.888 41.09,-0.934 61.54,-2.666 5.88,-0.498 11.47,-2.601 17.17,-4 15.8,-3.874 4.09,-1.746 18.61,-4 1.43,-1.333 2.45,-3.219 4.29,-3.999 2.71,-1.149 14.45,-3.226 18.6,-4 10.5,0.444 20.98,1.152 31.48,1.333 133.45,2.303 81.88,-4.149 133.09,2.667 2.39,1.333 4.53,3.137 7.16,3.999 5.56,1.83 11.44,2.667 17.17,4 1.91,0.445 3.86,0.754 5.72,1.333 1.43,0.445 2.82,1.029 4.3,1.334 7.12,1.474 21.46,3.999 21.46,3.999 1.91,0.889 4.22,1.261 5.73,2.667 1.06,0.994 0.24,3.137 1.43,4 3.36,2.44 11.44,5.332 11.44,5.332 0.96,1.778 2.82,3.346 2.87,5.333 1.1,44.196 2.81,36.195 -2.87,57.33 0.48,7.999 0.9,16.002 1.44,23.998 0.41,6.226 0.26,12.523 1.43,18.665 0.31,1.68 5.96,7.443 7.15,8 3.11,1.447 6.67,1.815 10.02,2.666 1.9,0.482 3.83,0.83 5.72,1.333 14.37,3.826 -7.87,-1.501 10.02,2.667 3.56,2.21 5.87,3.883 10.02,5.333 1.84,0.643 3.91,0.628 5.72,1.333 3.94,1.529 11.45,5.333 11.45,5.333 -0.95,5.333 0.02,11.305 -2.86,15.999 -1.81,2.947 -8.59,5.555 -11.45,5.333 z"
       stroke="#2f528f"
       stroke-width="3.33333"
       stroke-miterlimit="8"
       fill="#4472c4"
       fill-rule="evenodd"
       fill-opacity="0.521569"
       id="path30" />
    <path
       d="m 1560,610.5 c 0,-3.59 2.91,-6.5 6.5,-6.5 3.59,0 6.5,2.91 6.5,6.5 0,3.59 -2.91,6.5 -6.5,6.5 -3.59,0 -6.5,-2.91 -6.5,-6.5 z"
       stroke="#ff0000"
       stroke-width="1.66667"
       stroke-miterlimit="8"
       fill="#ff0000"
       fill-rule="evenodd"
       id="path31" />
    <path
       d="m 1591,686 c 0,-3.866 2.91,-7 6.5,-7 3.59,0 6.5,3.134 6.5,7 0,3.866 -2.91,7 -6.5,7 -3.59,0 -6.5,-3.134 -6.5,-7 z"
       stroke="#ff0000"
       stroke-width="1.66667"
       stroke-miterlimit="8"
       fill="#ff0000"
       fill-rule="evenodd"
       id="path32" />
    <path
       d="m 1584,748 c 0,-3.866 3.13,-7 7,-7 3.87,0 7,3.134 7,7 0,3.866 -3.13,7 -7,7 -3.87,0 -7,-3.134 -7,-7 z"
       stroke="#ff0000"
       stroke-width="1.66667"
       stroke-miterlimit="8"
       fill="#ff0000"
       fill-rule="evenodd"
       id="path33" />
    <path
       d="m 1687,746.5 c 0,-3.59 2.91,-6.5 6.5,-6.5 3.59,0 6.5,2.91 6.5,6.5 0,3.59 -2.91,6.5 -6.5,6.5 -3.59,0 -6.5,-2.91 -6.5,-6.5 z"
       stroke="#ff0000"
       stroke-width="1.66667"
       stroke-miterlimit="8"
       fill="#ff0000"
       fill-rule="evenodd"
       id="path34" />
    <path
       d="m 1722,612 c 0,-3.866 2.91,-7 6.5,-7 3.59,0 6.5,3.134 6.5,7 0,3.866 -2.91,7 -6.5,7 -3.59,0 -6.5,-3.134 -6.5,-7 z"
       stroke="#ff0000"
       stroke-width="1.66667"
       stroke-miterlimit="8"
       fill="#ff0000"
       fill-rule="evenodd"
       id="path35" />
    <path
       d="m 1873,608.5 c 0,-3.59 2.91,-6.5 6.5,-6.5 3.59,0 6.5,2.91 6.5,6.5 0,3.59 -2.91,6.5 -6.5,6.5 -3.59,0 -6.5,-2.91 -6.5,-6.5 z"
       stroke="#ff0000"
       stroke-width="1.66667"
       stroke-miterlimit="8"
       fill="#ff0000"
       fill-rule="evenodd"
       id="path36" />
    <path
       d="m 1859,677.5 c 0,-3.59 2.91,-6.5 6.5,-6.5 3.59,0 6.5,2.91 6.5,6.5 0,3.59 -2.91,6.5 -6.5,6.5 -3.59,0 -6.5,-2.91 -6.5,-6.5 z"
       stroke="#ff0000"
       stroke-width="1.66667"
       stroke-miterlimit="8"
       fill="#ff0000"
       fill-rule="evenodd"
       id="path37" />
    <path
       d="m 1676,679 c 0,-3.866 2.91,-7 6.5,-7 3.59,0 6.5,3.134 6.5,7 0,3.866 -2.91,7 -6.5,7 -3.59,0 -6.5,-3.134 -6.5,-7 z"
       stroke="#ff0000"
       stroke-width="1.66667"
       stroke-miterlimit="8"
       fill="#ff0000"
       fill-rule="evenodd"
       id="path38" />
    <path
       d="m 1853,746.5 c 0,-3.59 2.91,-6.5 6.5,-6.5 3.59,0 6.5,2.91 6.5,6.5 0,3.59 -2.91,6.5 -6.5,6.5 -3.59,0 -6.5,-2.91 -6.5,-6.5 z"
       stroke="#ff0000"
       stroke-width="1.66667"
       stroke-miterlimit="8"
       fill="#ff0000"
       fill-rule="evenodd"
       id="path39" />
    <path
       d="m 2022,764 c 0,-3.866 3.13,-7 7,-7 3.87,0 7,3.134 7,7 0,3.866 -3.13,7 -7,7 -3.87,0 -7,-3.134 -7,-7 z"
       stroke="#ff0000"
       stroke-width="1.66667"
       stroke-miterlimit="8"
       fill="#ff0000"
       fill-rule="evenodd"
       id="path40" />
    <path
       d="m 1785,658.5 c 0,-3.59 3.13,-6.5 7,-6.5 3.87,0 7,2.91 7,6.5 0,3.59 -3.13,6.5 -7,6.5 -3.87,0 -7,-2.91 -7,-6.5 z"
       stroke="#000000"
       stroke-width="1.66667"
       stroke-miterlimit="8"
       fill-rule="evenodd"
       id="path41" />
    <path
       d="m 1776,685.5 c 0,-3.59 2.91,-6.5 6.5,-6.5 3.59,0 6.5,2.91 6.5,6.5 0,3.59 -2.91,6.5 -6.5,6.5 -3.59,0 -6.5,-2.91 -6.5,-6.5 z"
       stroke="#000000"
       stroke-width="1.66667"
       stroke-miterlimit="8"
       fill-rule="evenodd"
       id="path42" />
    <path
       d="m 1813,681.5 c 0,-3.59 2.91,-6.5 6.5,-6.5 3.59,0 6.5,2.91 6.5,6.5 0,3.59 -2.91,6.5 -6.5,6.5 -3.59,0 -6.5,-2.91 -6.5,-6.5 z"
       stroke="#000000"
       stroke-width="1.66667"
       stroke-miterlimit="8"
       fill-rule="evenodd"
       id="path43" />
    <path
       d="m 1653,699 c 0,-3.866 2.91,-7 6.5,-7 3.59,0 6.5,3.134 6.5,7 0,3.866 -2.91,7 -6.5,7 -3.59,0 -6.5,-3.134 -6.5,-7 z"
       stroke="#000000"
       stroke-width="1.66667"
       stroke-miterlimit="8"
       fill-rule="evenodd"
       id="path44" />
    <path
       d="m 1644,663.5 c 0,-3.59 2.91,-6.5 6.5,-6.5 3.59,0 6.5,2.91 6.5,6.5 0,3.59 -2.91,6.5 -6.5,6.5 -3.59,0 -6.5,-2.91 -6.5,-6.5 z"
       stroke="#000000"
       stroke-width="1.66667"
       stroke-miterlimit="8"
       fill-rule="evenodd"
       id="path45" />
    <path
       d="m 1709,657.5 c 0,-3.59 2.91,-6.5 6.5,-6.5 3.59,0 6.5,2.91 6.5,6.5 0,3.59 -2.91,6.5 -6.5,6.5 -3.59,0 -6.5,-2.91 -6.5,-6.5 z"
       stroke="#000000"
       stroke-width="1.66667"
       stroke-miterlimit="8"
       fill-rule="evenodd"
       id="path46" />
    <path
       d="m 1932,746.5 c 0,-3.59 2.91,-6.5 6.5,-6.5 3.59,0 6.5,2.91 6.5,6.5 0,3.59 -2.91,6.5 -6.5,6.5 -3.59,0 -6.5,-2.91 -6.5,-6.5 z"
       stroke="#000000"
       stroke-width="1.66667"
       stroke-miterlimit="8"
       fill-rule="evenodd"
       id="path47" />
    <path
       d="m 1933,658.5 c 0,-3.59 2.91,-6.5 6.5,-6.5 3.59,0 6.5,2.91 6.5,6.5 0,3.59 -2.91,6.5 -6.5,6.5 -3.59,0 -6.5,-2.91 -6.5,-6.5 z"
       stroke="#000000"
       stroke-width="1.66667"
       stroke-miterlimit="8"
       fill-rule="evenodd"
       id="path48" />
    <text
       fill="#203864"
       font-family="'Times New Roman', 'Times New Roman_MSFontService', sans-serif"
       font-weight="400"
       font-size="33px"
       transform="translate(1753.22,587)"
       id="text55">Solution space<tspan
   fill="#000000"
   font-size="40px"
   x="-1696.14"
   y="-406"
   id="tspan48">IS : Initial Scene</tspan><tspan
   fill="#000000"
   font-size="40px"
   x="-1696.14"
   y="-358"
   id="tspan49">LSM :</tspan><tspan
   fill="#000000"
   font-size="40px"
   x="-1582.8"
   y="-358"
   id="tspan50">Logical</tspan><tspan
   fill="#000000"
   font-size="40px"
   x="-1450.9301"
   y="-358"
   id="tspan51">Scenario Model</tspan><tspan
   fill="#000000"
   font-size="40px"
   x="-1696.14"
   y="-310"
   id="tspan52">FSM :</tspan><tspan
   fill="#000000"
   font-size="40px"
   x="-1584.89"
   y="-310"
   id="tspan53">Functional</tspan><tspan
   fill="#000000"
   font-size="40px"
   x="-1404.05"
   y="-310"
   id="tspan54">Scenario Model</tspan><tspan
   fill="#000000"
   font-size="40px"
   x="-1696.14"
   y="-262"
   id="tspan55">EC : Equivalence Class</tspan></text>
    <path
       d="m 1052.33,661 2.54,-10.134 L 1065,648.333 1052.33,661 H 932 v -76 h 133 v 63.333"
       stroke="#000000"
       stroke-width="4.16667"
       stroke-miterlimit="8"
       stroke-dasharray="4.16667, 4.16667"
       fill="none"
       fill-rule="evenodd"
       id="path55" />
    <text
       font-family="'Cambria Math', 'Cambria Math_MSFontService', sans-serif"
       font-weight="400"
       font-size="47px"
       transform="translate(939.109,634)"
       id="text56">LSM<tspan
   font-size="34px"
   x="86.25"
   y="10"
   id="tspan56">1</tspan></text>
    <path
       d="m 1057.17,825 2.56,-10.267 L 1070,812.166 1057.17,825 H 931 v -77 h 139 v 64.166"
       stroke="#000000"
       stroke-width="4.16667"
       stroke-miterlimit="8"
       stroke-dasharray="4.16667, 4.16667"
       fill="none"
       fill-rule="evenodd"
       id="path56" />
    <text
       font-family="'Cambria Math', 'Cambria Math_MSFontService', sans-serif"
       font-weight="400"
       font-size="47px"
       transform="translate(939.768,797)"
       id="text58">LSM<tspan
   font-size="34px"
   x="86.250099"
   y="10"
   id="tspan57">𝑘</tspan><tspan
   font-size="47px"
   x="54.676498"
   y="-75"
   id="tspan58">⋮</tspan></text>
    <path
       d="M 8.99265e-4,-3.125 284.52,-3.04313 284.519,3.20687 -8.99265e-4,3.125 Z M 284.52,0.0818748 272.024,-15.5467 303.27,0.0872703 272.015,15.7033 Z"
       transform="matrix(1,0,0,-1,1065,623.087)"
       id="path58" />
    <path
       d="M 9.13597e-4,-3.125 279.763,-3.04321 279.761,3.20679 -9.13597e-4,3.125 Z M 279.762,0.0817888 267.267,-15.5469 298.512,0.0872703 267.258,15.7031 Z"
       transform="matrix(1,0,0,-1,1070,786.087)"
       id="path59" />
    <path
       d="M 736.166,661 738.733,650.733 749,648.166 736.166,661 H 608 v -77 h 141 v 64.166"
       stroke="#000000"
       stroke-width="4.16667"
       stroke-miterlimit="8"
       stroke-dasharray="4.16667, 4.16667"
       fill="none"
       fill-rule="evenodd"
       id="path60" />
    <text
       font-family="'Times New Roman', 'Times New Roman_MSFontService', sans-serif"
       font-weight="400"
       font-size="47px"
       transform="translate(617.561,633)"
       id="text61">FS<tspan
   font-family="'Cambria Math', 'Cambria Math_MSFontService', sans-serif"
   font-size="47px"
   x="52.083401"
   y="0"
   id="tspan60">M</tspan><tspan
   font-family="'Cambria Math', 'Cambria Math_MSFontService', sans-serif"
   font-size="34px"
   x="89.1334"
   y="10"
   id="tspan61">1</tspan></text>
    <path
       d="M 736.166,825 738.733,814.733 749,812.166 736.166,825 H 608 v -77 h 141 v 64.166"
       stroke="#000000"
       stroke-width="4.16667"
       stroke-miterlimit="8"
       stroke-dasharray="4.16667, 4.16667"
       fill="none"
       fill-rule="evenodd"
       id="path61" />
    <text
       font-family="'Cambria Math', 'Cambria Math_MSFontService', sans-serif"
       font-weight="400"
       font-size="47px"
       transform="translate(618.898,797)"
       id="text63">FSM<tspan
   font-size="34px"
   x="86.25"
   y="10"
   id="tspan62">k</tspan><tspan
   font-size="47px"
   x="53.496498"
   y="-74"
   id="tspan63">⋮</tspan></text>
    <path
       d="m 749.014,619.875 163.737,0.729 -0.028,6.25 -163.737,-0.729 z m 163.723,3.854 -12.43,-15.681 31.18,15.764 -31.319,15.486 z"
       id="path63" />
    <path
       d="m 749.002,782.875 162.962,0.078 -0.003,6.25 -162.963,-0.078 z m 162.961,3.203 -12.493,-15.631 31.243,15.64 -31.258,15.61 z"
       id="path64" />
    <path
       d="m 1143,562.814 c 0,-8.182 6.63,-14.814 14.81,-14.814 h 99.38 c 8.18,0 14.81,6.632 14.81,14.814 v 80.372 c 0,8.182 -6.63,14.814 -14.81,14.814 h -99.38 c -8.18,0 -14.81,-6.632 -14.81,-14.814 z"
       stroke="#000000"
       stroke-width="4.16667"
       stroke-miterlimit="8"
       fill="#ffffff"
       fill-rule="evenodd"
       id="path65" />
    <text
       font-family="'Times New Roman', 'Times New Roman_MSFontService', sans-serif"
       font-weight="700"
       font-size="40px"
       transform="translate(1183.07,594)"
       id="text65">SB<tspan
   fill="#ff0000"
   font-size="40px"
   x="-1.15002"
   y="48"
   id="tspan65">RS</tspan></text>
    <path
       d="M 784,591.235 C 784,585.582 788.582,581 794.235,581 h 79.53 c 5.653,0 10.235,4.582 10.235,10.235 v 55.53 C 884,652.418 879.418,657 873.765,657 h -79.53 C 788.582,657 784,652.418 784,646.765 Z"
       stroke="#000000"
       stroke-width="4.16667"
       stroke-miterlimit="8"
       fill="#ffffff"
       fill-rule="evenodd"
       id="path66" />
    <text
       fill="#ff0000"
       font-family="'Times New Roman', 'Times New Roman_MSFontService', sans-serif"
       font-weight="400"
       font-size="47px"
       transform="translate(807.964,636)"
       id="text66">f2l</text>
    <path
       d="M 767.166,397 769.733,386.733 780,384.166 767.166,397 H 591 v -77 h 189 v 64.166"
       stroke="#000000"
       stroke-width="4.16667"
       stroke-miterlimit="8"
       stroke-dasharray="4.16667, 4.16667"
       fill="none"
       fill-rule="evenodd"
       id="path67" />
    <text
       font-family="'Cambria Math', 'Cambria Math_MSFontService', sans-serif"
       font-weight="400"
       font-size="47px"
       transform="translate(636.641,369)"
       id="text67">LSM</text>
    <path
       d="M 862,289.756 C 862,281.054 869.054,274 877.756,274 h 372.484 c 8.71,0 15.76,7.054 15.76,15.756 v 85.488 c 0,8.702 -7.05,15.756 -15.76,15.756 H 877.756 C 869.054,391 862,383.946 862,375.244 Z"
       stroke="#000000"
       stroke-width="4.16667"
       stroke-miterlimit="8"
       fill="#ffffff"
       fill-rule="evenodd"
       id="path68" />
    <text
       font-family="'Times New Roman', 'Times New Roman_MSFontService', sans-serif"
       font-weight="400"
       font-size="33px"
       transform="translate(923.169,320)"
       id="text70">Genetic search<tspan
   font-weight="700"
   font-size="40px"
   x="205.20799"
   y="0"
   id="tspan68">(SB)</tspan><tspan
   font-size="33px"
   x="-25.725"
   y="54"
   id="tspan69">Rejection sampling</tspan><tspan
   font-weight="700"
   font-size="40px"
   x="240.317"
   y="54"
   id="tspan70">(RS)</tspan></text>
    <path
       d="M 0,0 0.981234,689.646"
       stroke="#000000"
       stroke-width="4.16667"
       stroke-miterlimit="8"
       stroke-dasharray="16.6667, 12.5"
       fill="none"
       fill-rule="evenodd"
       transform="matrix(-1,0,0,1,1307.98,139)"
       id="path70" />
    <path
       d="m 1519,249.427 c 0,-5.206 4.22,-9.427 9.43,-9.427 h 74.14 c 5.21,0 9.43,4.221 9.43,9.427 v 51.146 c 0,5.206 -4.22,9.427 -9.43,9.427 h -74.14 c -5.21,0 -9.43,-4.221 -9.43,-9.427 z"
       stroke="#000000"
       stroke-width="4.16667"
       stroke-miterlimit="8"
       fill="#ffffff"
       fill-rule="evenodd"
       id="path71" />
    <text
       font-family="'Times New Roman', 'Times New Roman_MSFontService', sans-serif"
       font-weight="400"
       font-size="47px"
       transform="translate(1539.67,292)"
       id="text71">l2f</text>
    <path
       d="M 0.0140633,-3.12497 58.2786,-2.86276 58.2504,3.38718 -0.0140633,3.12497 Z M 58.2645,0.262208 45.8349,-15.4189 77.0143,0.346588 45.6943,15.8308 Z"
       fill="#ff0000"
       transform="matrix(1,0,0,-1,566,708.347)"
       id="path72" />
    <path
       d="M 354,667.814 C 354,659.632 360.632,653 368.814,653 h 182.372 c 8.182,0 14.814,6.632 14.814,14.814 v 80.372 C 566,756.368 559.368,763 551.186,763 H 368.814 C 360.632,763 354,756.368 354,748.186 Z"
       stroke="#000000"
       stroke-width="4.16667"
       stroke-miterlimit="8"
       fill="none"
       fill-rule="evenodd"
       id="path73" />
    <text
       font-family="'Times New Roman', 'Times New Roman_MSFontService', sans-serif"
       font-weight="400"
       font-size="40px"
       transform="translate(410.012,699)"
       id="text73">Graph <tspan
   font-size="40px"
   x="-25.4167"
   y="48"
   id="tspan73">generator</tspan></text>
    <rect
       x="219"
       y="441"
       width="354"
       height="111"
       stroke="#000000"
       stroke-width="4.16667"
       stroke-miterlimit="8"
       fill="#ffffff"
       id="rect73" />
    <text
       font-family="'Times New Roman', 'Times New Roman_MSFontService', sans-serif"
       font-weight="400"
       font-size="40px"
       transform="translate(292.602,488)"
       id="text74">Relevant test <tspan
   font-size="40px"
   x="-45.525002"
   y="48"
   id="tspan74">scenario definition</tspan></text>
    <rect
       x="38"
       y="653"
       width="211"
       height="110"
       stroke="#000000"
       stroke-width="4.16667"
       stroke-miterlimit="8"
       fill="none"
       id="rect74" />
    <text
       font-family="'Times New Roman', 'Times New Roman_MSFontService', sans-serif"
       font-weight="400"
       font-size="40px"
       transform="translate(52.5364,699)"
       id="text75">COLREGS <tspan
   font-size="40px"
   x="21.25"
   y="48"
   id="tspan75">concepts</tspan></text>
    <path
       d="m 249.001,704.875 86.42,0.036 -0.003,6.25 -86.419,-0.036 z m 86.418,3.161 -12.493,-15.63 31.243,15.638 -31.256,15.612 z"
       id="path75" />
    <path
       d="m 1466,602.5 c 0,-3.59 2.91,-6.5 6.5,-6.5 3.59,0 6.5,2.91 6.5,6.5 0,3.59 -2.91,6.5 -6.5,6.5 -3.59,0 -6.5,-2.91 -6.5,-6.5 z"
       stroke="#ff0000"
       stroke-width="1.66667"
       stroke-miterlimit="8"
       fill="#ff0000"
       fill-rule="evenodd"
       id="path76" />
    <path
       d="m 1463,764 c 0,-3.866 2.91,-7 6.5,-7 3.59,0 6.5,3.134 6.5,7 0,3.866 -2.91,7 -6.5,7 -3.59,0 -6.5,-3.134 -6.5,-7 z"
       stroke="#ff0000"
       stroke-width="1.66667"
       stroke-miterlimit="8"
       fill="#ff0000"
       fill-rule="evenodd"
       id="path77" />
    <path
       d="m 1463,256.5 c 0,-3.59 2.91,-6.5 6.5,-6.5 3.59,0 6.5,2.91 6.5,6.5 0,3.59 -2.91,6.5 -6.5,6.5 -3.59,0 -6.5,-2.91 -6.5,-6.5 z"
       stroke="#000000"
       stroke-width="1.66667"
       stroke-miterlimit="8"
       fill-rule="evenodd"
       id="path78" />
    <path
       d="m 1464,419 c 0,-3.866 2.91,-7 6.5,-7 3.59,0 6.5,3.134 6.5,7 0,3.866 -2.91,7 -6.5,7 -3.59,0 -6.5,-3.134 -6.5,-7 z"
       stroke="#000000"
       stroke-width="1.66667"
       stroke-miterlimit="8"
       fill-rule="evenodd"
       id="path79" />
    <text
       font-family="'Times New Roman', 'Times New Roman_MSFontService', sans-serif"
       font-weight="400"
       font-size="53px"
       transform="translate(1045.12,195)"
       id="text79">Generator<tspan
   font-size="53px"
   x="303.323"
   y="-5"
   id="tspan79">Abstractor / Test scenario analysis</tspan></text>
    <path
       d="m 392.875,441.686 v -85.811 h 179.619 v 6.25 H 396 L 399.125,359 v 82.686 z M 572.494,359 l -12.5,-15.625 31.25,15.625 -31.25,15.625 z"
       id="path80" />
    <text
       font-family="'Times New Roman', 'Times New Roman_MSFontService', sans-serif"
       font-weight="400"
       font-size="47px"
       transform="translate(637.206,570)"
       id="text84">k equivalence classes<tspan
   font-weight="700"
   font-size="53px"
   x="-580.448"
   y="21"
   id="tspan80">MSR</tspan><tspan
   font-weight="700"
   font-size="53px"
   x="-568.39099"
   y="-77"
   id="tspan81">O</tspan><tspan
   font-size="47px"
   x="259.112"
   y="-128"
   id="tspan82">n generated</tspan><tspan
   font-size="47px"
   x="486.82001"
   y="-128"
   id="tspan83">scene</tspan><tspan
   font-size="47px"
   x="590.15399"
   y="-128"
   id="tspan84">s</tspan></text>
    <path
       d="M 788,761.235 C 788,755.582 792.582,751 798.235,751 h 79.53 c 5.653,0 10.235,4.582 10.235,10.235 v 55.53 C 888,822.418 883.418,827 877.765,827 h -79.53 C 792.582,827 788,822.418 788,816.765 Z"
       stroke="#000000"
       stroke-width="4.16667"
       stroke-miterlimit="8"
       fill="#ffffff"
       fill-rule="evenodd"
       id="path84" />
    <text
       fill="#ff0000"
       font-family="'Times New Roman', 'Times New Roman_MSFontService', sans-serif"
       font-weight="400"
       font-size="47px"
       transform="translate(811.918,806)"
       id="text85">f2l</text>
    <path
       d="m 1519,409.427 c 0,-5.206 4.22,-9.427 9.43,-9.427 h 74.14 c 5.21,0 9.43,4.221 9.43,9.427 v 51.146 c 0,5.206 -4.22,9.427 -9.43,9.427 h -74.14 c -5.21,0 -9.43,-4.221 -9.43,-9.427 z"
       stroke="#000000"
       stroke-width="4.16667"
       stroke-miterlimit="8"
       fill="#ffffff"
       fill-rule="evenodd"
       id="path85" />
    <text
       font-family="'Times New Roman', 'Times New Roman_MSFontService', sans-serif"
       font-weight="400"
       font-size="47px"
       transform="translate(1539.67,452)"
       id="text86">l2f</text>
    <path
       d="M 0,0 404.022,1.31234e-4"
       stroke="#000000"
       stroke-width="2.91667"
       stroke-miterlimit="8"
       fill="none"
       fill-rule="evenodd"
       transform="matrix(-1,0,0,1,1266.52,333.5)"
       id="path86" />
    <path
       d="m 1143.5,603.5 h 128.96"
       stroke="#000000"
       stroke-width="2.91667"
       stroke-miterlimit="8"
       fill="none"
       fill-rule="evenodd"
       id="path87" />
    <path
       d="m 1143,730.679 c 0,-8.107 6.57,-14.679 14.68,-14.679 h 99.64 c 8.11,0 14.68,6.572 14.68,14.679 v 79.642 c 0,8.107 -6.57,14.679 -14.68,14.679 h -99.64 c -8.11,0 -14.68,-6.572 -14.68,-14.679 z"
       stroke="#000000"
       stroke-width="4.16667"
       stroke-miterlimit="8"
       fill="#ffffff"
       fill-rule="evenodd"
       id="path88" />
    <text
       font-family="'Times New Roman', 'Times New Roman_MSFontService', sans-serif"
       font-weight="700"
       font-size="40px"
       transform="translate(1183.07,762)"
       id="text88">SB<tspan
   fill="#ff0000"
   font-size="40px"
   x="-1.15002"
   y="48"
   id="tspan88">RS</tspan></text>
    <path
       d="m 1143.5,771.5 h 128.96"
       stroke="#000000"
       stroke-width="2.91667"
       stroke-miterlimit="8"
       fill="none"
       fill-rule="evenodd"
       id="path89" />
    <path
       d="m 0,-3.125 h 53.4189 v 66.8931 l -3.125,-3.125 h 31.5439 v 6.25 H 47.1689 V 0 l 3.125,3.125 H 0 Z m 81.8378,66.8931 -12.5,-15.625 31.2502,15.625 -31.2502,15.625 z"
       transform="matrix(0,1,1,0,396,552)"
       id="path90" />
  </g>
</svg>
