<?xml version="1.0" encoding="UTF-8" standalone="no"?>
<!-- Created with Inkscape (http://www.inkscape.org/) -->

<svg
   width="865.50067mm"
   height="367.33456mm"
   viewBox="0 0 865.50067 367.33456"
   version="1.1"
   id="svg1"
   sodipodi:docname="msr_overview.svg"
   inkscape:version="1.4 (86a8ad7, 2024-10-11)"
   inkscape:export-filename="msr_overview.png"
   inkscape:export-xdpi="96"
   inkscape:export-ydpi="96"
   xmlns:inkscape="http://www.inkscape.org/namespaces/inkscape"
   xmlns:sodipodi="http://sodipodi.sourceforge.net/DTD/sodipodi-0.dtd"
   xmlns="http://www.w3.org/2000/svg"
   xmlns:svg="http://www.w3.org/2000/svg">
  <sodipodi:namedview
     id="namedview1"
     pagecolor="#ffffff"
     bordercolor="#000000"
     borderopacity="0.25"
     inkscape:showpageshadow="2"
     inkscape:pageopacity="0.0"
     inkscape:pagecheckerboard="0"
     inkscape:deskcolor="#d1d1d1"
     inkscape:document-units="mm"
     inkscape:zoom="0.29743942"
     inkscape:cx="1541.4904"
     inkscape:cy="838.82627"
     inkscape:window-width="2560"
     inkscape:window-height="1369"
     inkscape:window-x="-8"
     inkscape:window-y="-8"
     inkscape:window-maximized="1"
     inkscape:current-layer="svg1"
     inkscape:export-bgcolor="#ffffffff">
    <inkscape:page
       x="0"
       y="0"
       width="865.50067"
       height="367.33456"
       id="page2"
       margin="0"
       bleed="0" />
  </sodipodi:namedview>
  <defs
     id="defs1">
    <clipPath
       id="clip0-4">
      <rect
         x="54"
         y="57"
         width="1087"
         height="405"
         id="rect1-8" />
    </clipPath>
    <clipPath
       id="clip0">
      <rect
         x="54"
         y="57"
         width="1087"
         height="405"
         id="rect1" />
    </clipPath>
    <clipPath
       id="clip0-48">
      <rect
         x="54"
         y="57"
         width="1082"
         height="405"
         id="rect1-82" />
    </clipPath>
    <clipPath
       id="clip0-9">
      <rect
         x="48"
         y="57"
         width="1094"
         height="374"
         id="rect1-4" />
    </clipPath>
    <clipPath
       id="clip0-8">
      <rect
         x="1058"
         y="345"
         width="1702"
         height="210"
         id="rect1-2" />
    </clipPath>
    <linearGradient
       x1="2277.5"
       y1="347"
       x2="2277.5"
       y2="553"
       gradientUnits="userSpaceOnUse"
       spreadMethod="reflect"
       id="fill1">
      <stop
         offset="0"
         stop-color="#F6F8FC"
         stop-opacity="0.65098"
         id="stop1" />
      <stop
         offset="0.64"
         stop-color="#F6F8FC"
         stop-opacity="0.65098"
         id="stop2" />
      <stop
         offset="0.64"
         stop-color="#C55A11"
         stop-opacity="0.760784"
         id="stop3" />
      <stop
         offset="1"
         stop-color="#C55A11"
         stop-opacity="0.760784"
         id="stop4" />
    </linearGradient>
    <clipPath
       id="clip0-45">
      <rect
         x="1353"
         y="302"
         width="1407"
         height="331"
         id="rect1-5" />
    </clipPath>
    <linearGradient
       x1="2353"
       y1="304"
       x2="2353"
       y2="631"
       gradientUnits="userSpaceOnUse"
       spreadMethod="reflect"
       id="fill1-1">
      <stop
         offset="0"
         stop-color="#F6F8FC"
         stop-opacity="0.65098"
         id="stop1-7" />
      <stop
         offset="0.6"
         stop-color="#F6F8FC"
         stop-opacity="0.65098"
         id="stop2-1" />
      <stop
         offset="0.6"
         stop-color="#C55A11"
         stop-opacity="0.760784"
         id="stop3-1" />
      <stop
         offset="1"
         stop-color="#C55A11"
         stop-opacity="0.760784"
         id="stop4-5" />
    </linearGradient>
    <clipPath
       id="clip0-1">
      <rect
         x="1353"
         y="302"
         width="1407"
         height="331"
         id="rect1-42" />
    </clipPath>
    <linearGradient
       x1="2353"
       y1="304"
       x2="2353"
       y2="631"
       gradientUnits="userSpaceOnUse"
       spreadMethod="reflect"
       id="fill1-3">
      <stop
         offset="0"
         stop-color="#F6F8FC"
         stop-opacity="0.65098"
         id="stop1-2" />
      <stop
         offset="0.6"
         stop-color="#F6F8FC"
         stop-opacity="0.65098"
         id="stop2-2" />
      <stop
         offset="0.6"
         stop-color="#FFA3A3"
         id="stop3-16" />
      <stop
         offset="1"
         stop-color="#FFA3A3"
         id="stop4-8" />
    </linearGradient>
    <clipPath
       id="clip0-92">
      <rect
         x="-12"
         y="121"
         width="2136"
         height="738"
         id="rect1-7" />
    </clipPath>
    <clipPath
       id="clip0-5">
      <rect
         x="23"
         y="121"
         width="2101"
         height="725"
         id="rect1-43" />
    </clipPath>
    <clipPath
       id="clip0-94">
      <rect
         x="89"
         y="120"
         width="1781"
         height="558"
         id="rect1-88" />
    </clipPath>
    <clipPath
       id="clip0-455">
      <rect
         x="74"
         y="57"
         width="1980"
         height="585"
         id="rect1-1" />
    </clipPath>
    <clipPath
       id="clip0-11">
      <rect
         x="107"
         y="57"
         width="1947"
         height="585"
         id="rect1-52" />
    </clipPath>
    <clipPath
       id="clip0-2">
      <rect
         x="107"
         y="57"
         width="1947"
         height="587"
         id="rect1-3" />
    </clipPath>
    <clipPath
       id="clip0-948">
      <rect
         x="129"
         y="73"
         width="2498"
         height="732"
         id="rect1-824" />
    </clipPath>
    <clipPath
       id="clip0-51">
      <rect
         x="129"
         y="73"
         width="2498"
         height="732"
         id="rect1-71" />
    </clipPath>
    <clipPath
       id="clip0-9488">
      <rect
         x="129"
         y="73"
         width="2498"
         height="732"
         id="rect1-24" />
    </clipPath>
    <clipPath
       id="clip0-82">
      <rect
         x="129"
         y="73"
         width="2498"
         height="732"
         id="rect1-45" />
    </clipPath>
    <clipPath
       id="clip0-94882">
      <rect
         x="129"
         y="73"
         width="2438"
         height="731"
         id="rect1-455" />
    </clipPath>
    <clipPath
       id="clip0-3">
      <rect
         x="129"
         y="73"
         width="2438"
         height="731"
         id="rect1-59" />
    </clipPath>
    <clipPath
       id="clip0-948824">
      <rect
         x="129"
         y="73"
         width="2438"
         height="731"
         id="rect1-55" />
    </clipPath>
    <clipPath
       id="clip0-9488245">
      <rect
         x="90"
         y="142"
         width="1745"
         height="497"
         id="rect1-51" />
    </clipPath>
    <clipPath
       id="clip0-115">
      <rect
         x="90"
         y="142"
         width="1745"
         height="497"
         id="rect1-27" />
    </clipPath>
  </defs>
  <g
     clip-path="url(#clip0-115)"
     transform="matrix(0.26458333,0,0,0.26458333,134.10186,80.060152)"
     id="g102"
     inkscape:export-filename="msr_overview.pdf"
     inkscape:export-xdpi="96"
     inkscape:export-ydpi="96">
    <path
       d="m 1424,627 h -405 v -167.307 0 V 144 h 405 z"
       fill="#a6a6a6"
       fill-rule="evenodd"
       fill-opacity="0.678431"
       id="path1" />
    <rect
       x="778"
       y="144"
       width="242"
       height="257"
       fill="#e7e6e6"
       id="rect2" />
    <rect
       x="522"
       y="144"
       width="262"
       height="254"
       fill="#a6a6a6"
       fill-opacity="0.678431"
       id="rect3" />
    <rect
       x="153"
       y="144"
       width="370"
       height="380"
       fill="#e7e6e6"
       id="rect4" />
    <path
       d="M 0,0 1691.24,0.743937"
       stroke="#000000"
       stroke-width="6.66667"
       stroke-miterlimit="8"
       fill="none"
       fill-rule="evenodd"
       transform="matrix(-1,0,0,1,1828.74,397.5)"
       id="path4" />
    <path
       d="m 1367.5,436.5 h 92 v 50.833 l -10.17,10.167 h -81.83 z"
       fill="#db996c"
       fill-rule="evenodd"
       id="path5" />
    <path
       d="m 1449.33,497.5 2.04,-8.133 8.13,-2.034 z"
       fill="#b07b57"
       fill-rule="evenodd"
       id="path6" />
    <path
       d="m 1449.33,497.5 2.04,-8.133 8.13,-2.034 -10.17,10.167 h -81.83 v -61 h 92 v 50.833"
       stroke="#000000"
       stroke-width="3.33333"
       stroke-miterlimit="8"
       stroke-dasharray="3.33333, 3.33333"
       fill="none"
       fill-rule="evenodd"
       id="path7" />
    <text
       font-family="'Cambria Math', 'Cambria Math_MSFontService', sans-serif"
       font-weight="400"
       font-size="37px"
       transform="translate(1384.9,475)"
       id="text7">IS<tspan
   font-size="27px"
   x="29.806801"
   y="8"
   id="tspan7">1</tspan></text>
    <path
       d="m 1367.5,567.5 h 96 v 50.833 l -10.17,10.167 h -85.83 z"
       fill="#db996c"
       fill-rule="evenodd"
       id="path8" />
    <path
       d="m 1453.33,628.5 2.04,-8.133 8.13,-2.034 z"
       fill="#b07b57"
       fill-rule="evenodd"
       id="path9" />
    <path
       d="m 1453.33,628.5 2.04,-8.133 8.13,-2.034 -10.17,10.167 h -85.83 v -61 h 96 v 50.833"
       stroke="#000000"
       stroke-width="3.33333"
       stroke-miterlimit="8"
       stroke-dasharray="3.33333, 3.33333"
       fill="none"
       fill-rule="evenodd"
       id="path10" />
    <text
       font-family="'Cambria Math', 'Cambria Math_MSFontService', sans-serif"
       font-weight="400"
       font-size="37px"
       transform="translate(1385.22,606)"
       id="text11">IS<tspan
   font-size="27px"
   x="30.666599"
   y="7"
   id="tspan10">𝑛</tspan><tspan
   font-size="43px"
   x="21.243"
   y="-56"
   id="tspan11">⋮</tspan></text>
    <path
       d="m 1367.5,168.5 h 96 v 50.833 l -10.17,10.167 h -85.83 z"
       fill="#db996c"
       fill-rule="evenodd"
       id="path11" />
    <path
       d="m 1453.33,229.5 2.04,-8.133 8.13,-2.034 z"
       fill="#b07b57"
       fill-rule="evenodd"
       id="path12" />
    <path
       d="m 1453.33,229.5 2.04,-8.133 8.13,-2.034 -10.17,10.167 h -85.83 v -61 h 96 v 50.833"
       stroke="#000000"
       stroke-width="3.33333"
       stroke-miterlimit="8"
       stroke-dasharray="3.33333, 3.33333"
       fill="none"
       fill-rule="evenodd"
       id="path13" />
    <text
       font-family="'Times New Roman', 'Times New Roman_MSFontService', sans-serif"
       font-weight="400"
       font-size="37px"
       transform="translate(1385.08,207)"
       id="text13">IS<tspan
   font-family="'Cambria Math', 'Cambria Math_MSFontService', sans-serif"
   font-size="27px"
   x="32.473301"
   y="7"
   id="tspan13">1</tspan></text>
    <path
       d="m 1367.5,298.5 h 92 v 50.833 l -10.17,10.167 h -81.83 z"
       fill="#db996c"
       fill-rule="evenodd"
       id="path14" />
    <path
       d="m 1449.33,359.5 2.04,-8.133 8.13,-2.034 z"
       fill="#b07b57"
       fill-rule="evenodd"
       id="path15" />
    <path
       d="m 1449.33,359.5 2.04,-8.133 8.13,-2.034 -10.17,10.167 h -81.83 v -61 h 92 v 50.833"
       stroke="#000000"
       stroke-width="3.33333"
       stroke-miterlimit="8"
       stroke-dasharray="3.33333, 3.33333"
       fill="none"
       fill-rule="evenodd"
       id="path16" />
    <text
       font-family="'Times New Roman', 'Times New Roman_MSFontService', sans-serif"
       font-weight="400"
       font-size="37px"
       transform="translate(1383.18,337)"
       id="text18">I<tspan
   font-family="'Cambria Math', 'Cambria Math_MSFontService', sans-serif"
   font-size="37px"
   x="12.5"
   y="0"
   id="tspan16">S</tspan><tspan
   font-family="'Cambria Math', 'Cambria Math_MSFontService', sans-serif"
   font-size="27px"
   x="31"
   y="8"
   id="tspan17">𝑘</tspan><tspan
   font-family="'Cambria Math', 'Cambria Math_MSFontService', sans-serif"
   font-size="43px"
   x="24.822399"
   y="-55"
   id="tspan18">⋮</tspan></text>
    <path
       d="m 1713.5,437.5 h 112 v 50.833 L 1815.33,498.5 H 1713.5 Z"
       fill="#c7e7a6"
       fill-rule="evenodd"
       id="path18" />
    <path
       d="m 1815.33,498.5 2.04,-8.133 8.13,-2.034 z"
       fill="#a0ba85"
       fill-rule="evenodd"
       id="path19" />
    <path
       d="m 1815.33,498.5 2.04,-8.133 8.13,-2.034 -10.17,10.167 H 1713.5 v -61 h 112 v 50.833"
       stroke="#000000"
       stroke-width="3.33333"
       stroke-miterlimit="8"
       stroke-dasharray="3.33333, 3.33333"
       fill="none"
       fill-rule="evenodd"
       id="path20" />
    <text
       font-family="'Cambria Math', 'Cambria Math_MSFontService', sans-serif"
       font-weight="400"
       font-size="37px"
       transform="translate(1725.21,476)"
       id="text20">FEC<tspan
   font-size="27px"
   x="61.639999"
   y="8"
   id="tspan20">1</tspan></text>
    <path
       d="m 1713.5,567.5 h 112 v 50.833 L 1815.33,628.5 H 1713.5 Z"
       fill="#c7e7a6"
       fill-rule="evenodd"
       id="path21" />
    <path
       d="m 1815.33,628.5 2.04,-8.133 8.13,-2.034 z"
       fill="#a0ba85"
       fill-rule="evenodd"
       id="path22" />
    <path
       d="m 1815.33,628.5 2.04,-8.133 8.13,-2.034 -10.17,10.167 H 1713.5 v -61 h 112 v 50.833"
       stroke="#000000"
       stroke-width="3.33333"
       stroke-miterlimit="8"
       stroke-dasharray="3.33333, 3.33333"
       fill="none"
       fill-rule="evenodd"
       id="path23" />
    <text
       font-family="'Cambria Math', 'Cambria Math_MSFontService', sans-serif"
       font-weight="400"
       font-size="37px"
       transform="translate(1723.74,606)"
       id="text24">FEC<tspan
   font-size="27px"
   x="62.5"
   y="7"
   id="tspan23">n</tspan><tspan
   font-size="43px"
   x="42.3741"
   y="-56"
   id="tspan24">⋮</tspan></text>
    <path
       d="m 1459.51,465 238.38,1.38 -0.03,5 -238.37,-1.38 z m 238.36,3.88 -9.93,-12.558 24.93,12.645 -25.07,12.355 z"
       id="path24" />
    <path
       d="m 1463.5,595 h 234.77 v 5 H 1463.5 Z m 234.77,2.5 -10,-12.5 25,12.5 -25,12.5 z"
       id="path25" />
    <path
       d="m 958.5,168.5 h 107 v 50.833 L 1055.33,229.5 H 958.5 Z"
       fill="#a2b1ce"
       fill-rule="evenodd"
       id="path26" />
    <path
       d="m 1055.33,229.5 2.04,-8.133 8.13,-2.034 z"
       fill="#828ea6"
       fill-rule="evenodd"
       id="path27" />
    <path
       d="m 1055.33,229.5 2.04,-8.133 8.13,-2.034 -10.17,10.167 H 958.5 v -61 h 107 v 50.833"
       stroke="#000000"
       stroke-width="3.33333"
       stroke-miterlimit="8"
       stroke-dasharray="3.33333, 3.33333"
       fill="none"
       fill-rule="evenodd"
       id="path28" />
    <text
       font-family="'Cambria Math', 'Cambria Math_MSFontService', sans-serif"
       font-weight="400"
       font-size="37px"
       transform="translate(964.09,207)"
       id="text28">LSM<tspan
   font-size="27px"
   x="68.139999"
   y="7"
   id="tspan28">1</tspan></text>
    <path
       d="m 957.5,298.5 h 112 v 50.833 L 1059.33,359.5 H 957.5 Z"
       fill="#a2b1ce"
       fill-rule="evenodd"
       id="path29" />
    <path
       d="m 1059.33,359.5 2.04,-8.133 8.13,-2.034 z"
       fill="#828ea6"
       fill-rule="evenodd"
       id="path30" />
    <path
       d="m 1059.33,359.5 2.04,-8.133 8.13,-2.034 -10.17,10.167 H 957.5 v -61 h 112 v 50.833"
       stroke="#000000"
       stroke-width="3.33333"
       stroke-miterlimit="8"
       stroke-dasharray="3.33333, 3.33333"
       fill="none"
       fill-rule="evenodd"
       id="path31" />
    <text
       font-family="'Cambria Math', 'Cambria Math_MSFontService', sans-serif"
       font-weight="400"
       font-size="37px"
       transform="translate(964.52,337)"
       id="text32">LSM<tspan
   font-size="27px"
   x="69"
   y="8"
   id="tspan31">𝑘</tspan><tspan
   font-size="43px"
   x="42.907799"
   y="-55"
   id="tspan32">⋮</tspan></text>
    <path
       d="M 5.78295e-4,-2.5 286.82,-2.43365 l -10e-4,5 L -5.78295e-4,2.5 Z M 286.82,0.0663465 276.822,-12.436 301.82,0.0698163 276.817,12.564 Z"
       transform="matrix(1,0,0,-1,1065.5,198.57)"
       id="path32" />
    <path
       d="M 5.85681e-4,-2.5 283.014,-2.4337 l -0.001,5 L -5.85681e-4,2.5 Z M 283.013,0.0663022 273.016,-12.436 298.013,0.0698163 273.01,12.564 Z"
       transform="matrix(1,0,0,-1,1069.5,329.57)"
       id="path33" />
    <path
       d="m 719.5,167.5 h 113 v 50.833 L 822.333,228.5 H 719.5 Z"
       fill="#92d050"
       fill-rule="evenodd"
       id="path34" />
    <path
       d="m 822.333,228.5 2.034,-8.134 8.133,-2.033 z"
       fill="#75a740"
       fill-rule="evenodd"
       id="path35" />
    <path
       d="m 822.333,228.5 2.034,-8.134 8.133,-2.033 -10.167,10.167 H 719.5 v -61 h 113 v 50.833"
       stroke="#000000"
       stroke-width="3.33333"
       stroke-miterlimit="8"
       stroke-dasharray="3.33333, 3.33333"
       fill="none"
       fill-rule="evenodd"
       id="path36" />
    <text
       font-family="'Times New Roman', 'Times New Roman_MSFontService', sans-serif"
       font-weight="400"
       font-size="37px"
       transform="translate(726.563,206)"
       id="text37">FS<tspan
   font-family="'Cambria Math', 'Cambria Math_MSFontService', sans-serif"
   font-size="37px"
   x="41.666698"
   y="0"
   id="tspan36">M</tspan><tspan
   font-family="'Cambria Math', 'Cambria Math_MSFontService', sans-serif"
   font-size="27px"
   x="71.306702"
   y="8"
   id="tspan37">1</tspan></text>
    <path
       d="m 719.5,298.5 h 113 v 50.833 L 822.333,359.5 H 719.5 Z"
       fill="#92d050"
       fill-rule="evenodd"
       id="path37" />
    <path
       d="m 822.333,359.5 2.034,-8.133 8.133,-2.034 z"
       fill="#75a740"
       fill-rule="evenodd"
       id="path38" />
    <path
       d="m 822.333,359.5 2.034,-8.133 8.133,-2.034 -10.167,10.167 H 719.5 v -61 h 113 v 50.833"
       stroke="#000000"
       stroke-width="3.33333"
       stroke-miterlimit="8"
       stroke-dasharray="3.33333, 3.33333"
       fill="none"
       fill-rule="evenodd"
       id="path39" />
    <text
       font-family="'Cambria Math', 'Cambria Math_MSFontService', sans-serif"
       font-weight="400"
       font-size="37px"
       transform="translate(727.633,337)"
       id="text40">FSM<tspan
   font-size="27px"
   x="69"
   y="8"
   id="tspan39">k</tspan><tspan
   font-size="43px"
   x="41.963902"
   y="-54"
   id="tspan40">⋮</tspan></text>
    <path
       d="m 832.513,196 111.181,0.573 -0.025,5 L 832.487,201 Z m 111.168,3.073 -9.935,-12.552 24.935,12.629 -25.064,12.371 z"
       id="path40" />
    <path
       d="m 832.501,327 110.562,0.062 -0.003,5 L 832.499,332 Z m 110.561,2.562 -9.993,-12.506 24.993,12.514 -25.007,12.486 z"
       id="path41" />
    <path
       d="m 857.5,178.311 c 0,-4.314 3.497,-7.811 7.811,-7.811 h 42.378 c 4.314,0 7.811,3.497 7.811,7.811 v 45.378 c 0,4.314 -3.497,7.811 -7.811,7.811 h -42.378 c -4.314,0 -7.811,-3.497 -7.811,-7.811 z"
       stroke="#000000"
       stroke-width="3.33333"
       stroke-miterlimit="8"
       fill="#ffffff"
       fill-rule="evenodd"
       id="path42" />
    <text
       fill="#ff0000"
       font-family="'Times New Roman', 'Times New Roman_MSFontService', sans-serif"
       font-weight="400"
       font-size="37px"
       transform="translate(865.442,214)"
       id="text42">f2l</text>
    <path
       d="m 956.5,451.5 h 109 v 50.833 L 1055.33,512.5 H 956.5 Z"
       fill="#a2b1ce"
       fill-rule="evenodd"
       id="path43" />
    <path
       d="m 1055.33,512.5 2.04,-8.133 8.13,-2.034 z"
       fill="#828ea6"
       fill-rule="evenodd"
       id="path44" />
    <path
       d="m 1055.33,512.5 2.04,-8.133 8.13,-2.034 -10.17,10.167 H 956.5 v -61 h 109 v 50.833"
       stroke="#000000"
       stroke-width="3.33333"
       stroke-miterlimit="8"
       stroke-dasharray="3.33333, 3.33333"
       fill="none"
       fill-rule="evenodd"
       id="path45" />
    <text
       font-family="'Cambria Math', 'Cambria Math_MSFontService', sans-serif"
       font-weight="400"
       font-size="37px"
       transform="translate(972.094,490)"
       id="text45">LSM</text>
    <path
       d="m 1498.5,445.042 c 0,-4.165 3.38,-7.542 7.54,-7.542 h 137.92 c 4.16,0 7.54,3.377 7.54,7.542 v 40.916 c 0,4.166 -3.38,7.542 -7.54,7.542 h -137.92 c -4.16,0 -7.54,-3.376 -7.54,-7.542 z"
       stroke="#000000"
       stroke-width="3.33333"
       stroke-miterlimit="8"
       fill="#ffffff"
       fill-rule="evenodd"
       id="path46" />
    <text
       font-family="'Times New Roman', 'Times New Roman_MSFontService', sans-serif"
       font-weight="400"
       font-size="37px"
       transform="translate(1547.73,479)"
       id="text46">QA</text>
    <path
       d="m 186.5,295.331 c 0,-5.43 4.401,-9.831 9.831,-9.831 h 118.338 c 5.43,0 9.831,4.401 9.831,9.831 v 53.338 c 0,5.43 -4.401,9.831 -9.831,9.831 H 196.331 c -5.43,0 -9.831,-4.401 -9.831,-9.831 z"
       stroke="#000000"
       stroke-width="3.33333"
       stroke-miterlimit="8"
       fill="#ffffff"
       fill-rule="evenodd"
       id="path47" />
    <text
       font-family="'Times New Roman', 'Times New Roman_MSFontService', sans-serif"
       font-weight="400"
       font-size="32px"
       transform="translate(213.59,314)"
       id="text47">Model <tspan
   font-size="32px"
   x="-22.1667"
   y="32"
   id="tspan47">Generator</tspan></text>
    <path
       d="m 258,241.495 0.057,28.978 -5,0.01 L 253,241.505 Z m -2.443,28.983 12.48,-10.025 -12.451,25.025 -12.549,-24.976 z"
       id="path48" />
    <text
       font-family="'Times New Roman', 'Times New Roman_MSFontService', sans-serif"
       font-weight="700"
       font-size="32px"
       transform="translate(1066.94,273)"
       id="text48">k<tspan
   font-weight="400"
   font-size="32px"
   x="25.833401"
   y="0"
   id="tspan48">equivalence classes</tspan></text>
    <text
       font-family="'Times New Roman', 'Times New Roman_MSFontService', sans-serif"
       font-weight="700"
       font-size="43px"
       transform="rotate(-90,239.8325,94.1675)"
       id="text49">MSR<tspan
   font-size="43px"
   x="-245"
   y="-1.26393"
   id="tspan49">Base</tspan></text>
    <text
       font-family="'Times New Roman', 'Times New Roman_MSFontService', sans-serif"
       font-weight="700"
       font-size="32px"
       transform="translate(1080.62,551)"
       id="text50">n<tspan
   font-weight="400"
   font-size="32px"
   x="25.8333"
   y="0"
   id="tspan50">generated scenes</tspan></text>
    <path
       d="m 860.5,306.907 c 0,-4.091 3.316,-7.407 7.407,-7.407 h 40.186 c 4.091,0 7.407,3.316 7.407,7.407 v 46.186 c 0,4.091 -3.316,7.407 -7.407,7.407 h -40.186 c -4.091,0 -7.407,-3.316 -7.407,-7.407 z"
       stroke="#000000"
       stroke-width="3.33333"
       stroke-miterlimit="8"
       fill="#ffffff"
       fill-rule="evenodd"
       id="path50" />
    <text
       fill="#ff0000"
       font-family="'Times New Roman', 'Times New Roman_MSFontService', sans-serif"
       font-weight="400"
       font-size="37px"
       transform="translate(867.023,343)"
       id="text51">f2l</text>
    <path
       d="m 1498.5,573.042 c 0,-4.165 3.38,-7.542 7.54,-7.542 h 137.92 c 4.16,0 7.54,3.377 7.54,7.542 v 40.916 c 0,4.166 -3.38,7.542 -7.54,7.542 h -137.92 c -4.16,0 -7.54,-3.376 -7.54,-7.542 z"
       stroke="#000000"
       stroke-width="3.33333"
       stroke-miterlimit="8"
       fill="#ffffff"
       fill-rule="evenodd"
       id="path51" />
    <text
       font-family="'Times New Roman', 'Times New Roman_MSFontService', sans-serif"
       font-weight="400"
       font-size="37px"
       transform="translate(1547.73,607)"
       id="text53">QA<tspan
   font-size="32px"
   x="-995.34399"
   y="-136"
   id="tspan51">Hand</tspan><tspan
   font-size="32px"
   x="-926.01001"
   y="-136"
   id="tspan52">-</tspan><tspan
   font-size="32px"
   x="-915.34399"
   y="-136"
   id="tspan53">crafted formalization</tspan></text>
    <rect
       x="168.5"
       y="174.5"
       width="174"
       height="67"
       stroke="#000000"
       stroke-width="3.33333"
       stroke-miterlimit="8"
       fill="#ffffff"
       id="rect53" />
    <text
       font-family="'Times New Roman', 'Times New Roman_MSFontService', sans-serif"
       font-weight="400"
       font-size="32px"
       transform="translate(182.337,204)"
       id="text54">COLREGS <tspan
   font-size="32px"
   x="3.6666701"
   y="32"
   id="tspan54">constraints</tspan></text>
    <path
       d="m 456.5,166.5 h 113 v 50.833 L 559.333,227.5 H 456.5 Z"
       fill="#c7e7a6"
       fill-rule="evenodd"
       id="path54" />
    <path
       d="m 559.333,227.5 2.034,-8.134 8.133,-2.033 z"
       fill="#a0ba85"
       fill-rule="evenodd"
       id="path55" />
    <path
       d="m 559.333,227.5 2.034,-8.134 8.133,-2.033 -10.167,10.167 H 456.5 v -61 h 113 v 50.833"
       stroke="#000000"
       stroke-width="3.33333"
       stroke-miterlimit="8"
       stroke-dasharray="3.33333, 3.33333"
       fill="none"
       fill-rule="evenodd"
       id="path56" />
    <text
       font-family="'Cambria Math', 'Cambria Math_MSFontService', sans-serif"
       font-weight="400"
       font-size="37px"
       transform="translate(468.619,205)"
       id="text56">FEC<tspan
   font-size="27px"
   x="61.639999"
   y="8"
   id="tspan56">1</tspan></text>
    <path
       d="m 456.5,298.5 h 113 v 50.833 L 559.333,359.5 H 456.5 Z"
       fill="#c7e7a6"
       fill-rule="evenodd"
       id="path57" />
    <path
       d="m 559.333,359.5 2.034,-8.133 8.133,-2.034 z"
       fill="#a0ba85"
       fill-rule="evenodd"
       id="path58" />
    <path
       d="m 559.333,359.5 2.034,-8.133 8.133,-2.034 -10.167,10.167 H 456.5 v -61 h 113 v 50.833"
       stroke="#000000"
       stroke-width="3.33333"
       stroke-miterlimit="8"
       stroke-dasharray="3.33333, 3.33333"
       fill="none"
       fill-rule="evenodd"
       id="path59" />
    <text
       font-family="'Cambria Math', 'Cambria Math_MSFontService', sans-serif"
       font-weight="400"
       font-size="37px"
       transform="translate(467.456,337)"
       id="text60">FEC<tspan
   font-size="27px"
   x="62.5"
   y="8"
   id="tspan59">𝑘</tspan><tspan
   font-size="43px"
   x="42.650398"
   y="-53"
   id="tspan60">⋮</tspan></text>
    <path
       d="m 569.5,327 h 135.17 v 5 H 569.5 Z m 135.17,2.5 -10,-12.5 25,12.5 -25,12.5 z"
       id="path60" />
    <path
       d="m 569.515,195 135.17,0.787 -0.029,5 L 569.486,200 Z m 135.156,3.287 -9.927,-12.558 24.926,12.645 -25.072,12.354 z"
       id="path61" />
    <path
       d="m 595.5,177.176 c 0,-4.239 3.437,-7.676 7.676,-7.676 h 64.648 c 4.239,0 7.676,3.437 7.676,7.676 v 41.648 c 0,4.239 -3.437,7.676 -7.676,7.676 h -64.648 c -4.239,0 -7.676,-3.437 -7.676,-7.676 z"
       stroke="#000000"
       stroke-width="3.33333"
       stroke-miterlimit="8"
       fill="#ffffff"
       fill-rule="evenodd"
       id="path62" />
    <text
       fill="#ff0000"
       font-family="'Times New Roman', 'Times New Roman_MSFontService', sans-serif"
       font-weight="400"
       font-size="37px"
       transform="translate(602.781,211)"
       id="text62">ec2f</text>
    <path
       d="m 595.5,308.176 c 0,-4.239 3.437,-7.676 7.676,-7.676 h 64.648 c 4.239,0 7.676,3.437 7.676,7.676 v 41.648 c 0,4.239 -3.437,7.676 -7.676,7.676 h -64.648 c -4.239,0 -7.676,-3.437 -7.676,-7.676 z"
       stroke="#000000"
       stroke-width="3.33333"
       stroke-miterlimit="8"
       fill="#ffffff"
       fill-rule="evenodd"
       id="path63" />
    <text
       fill="#ff0000"
       font-family="'Times New Roman', 'Times New Roman_MSFontService', sans-serif"
       font-weight="400"
       font-size="37px"
       transform="translate(603.063,342)"
       id="text63">ec2f</text>
    <path
       d="m 461.5,372.5 c -14.083,0 -25.5,-1.903 -25.5,-4.25 v -39.765 c 0,-2.348 -11.417,-4.25 -25.5,-4.25 14.083,0 25.5,-1.903 25.5,-4.25 V 161.75 c 0,-2.347 11.417,-4.25 25.5,-4.25"
       stroke="#000000"
       stroke-width="3.33333"
       stroke-miterlimit="8"
       fill="none"
       fill-rule="evenodd"
       id="path64" />
    <rect
       x="170.5"
       y="445.5"
       width="267"
       height="74"
       stroke="#000000"
       stroke-width="3.33333"
       stroke-miterlimit="8"
       fill="#ffffff"
       id="rect64" />
    <text
       font-family="'Times New Roman', 'Times New Roman_MSFontService', sans-serif"
       font-weight="400"
       font-size="32px"
       transform="translate(189.914,475)"
       id="text64">Test requirements <tspan
   font-size="32px"
   x="27.219999"
   y="32"
   id="tspan64">as constraints</tspan></text>
    <path
       d="m 324,309 h 35 v -14 l 28,28 -28,28 v -14 h -35 z"
       fill-rule="evenodd"
       id="path65" />
    <text
       font-family="'Times New Roman', 'Times New Roman_MSFontService', sans-serif"
       font-weight="700"
       font-size="27px"
       transform="translate(1486.26,328)"
       id="text69">CD<tspan
   font-size="27px"
   x="38.666599"
   y="0"
   id="tspan65">-</tspan><tspan
   font-size="27px"
   x="47.5"
   y="0"
   id="tspan66">RS</tspan><tspan
   font-weight="400"
   font-size="27px"
   x="88.333298"
   y="0"
   id="tspan67">: Condition</tspan><tspan
   font-weight="400"
   font-size="27px"
   x="208.83299"
   y="0"
   id="tspan68">-</tspan><tspan
   font-weight="400"
   font-size="27px"
   x="217.66701"
   y="0"
   id="tspan69">driven RS</tspan></text>
    <path
       d="m 1142.5,161.887 c 0,-2.975 2.41,-5.387 5.39,-5.387 h 102.22 c 2.98,0 5.39,2.412 5.39,5.387 v 29.226 c 0,2.975 -2.41,5.387 -5.39,5.387 h -102.22 c -2.98,0 -5.39,-2.412 -5.39,-5.387 z"
       stroke="#000000"
       stroke-width="3.33333"
       stroke-miterlimit="8"
       fill="#ffffff"
       fill-rule="evenodd"
       id="path69" />
    <text
       font-family="'Times New Roman', 'Times New Roman_MSFontService', sans-serif"
       font-weight="700"
       font-size="37px"
       transform="translate(1175.66,189)"
       id="text70">SB</text>
    <path
       d="m 1142.5,203.887 c 0,-2.975 2.41,-5.387 5.39,-5.387 h 102.22 c 2.98,0 5.39,2.412 5.39,5.387 v 29.226 c 0,2.975 -2.41,5.387 -5.39,5.387 h -102.22 c -2.98,0 -5.39,-2.412 -5.39,-5.387 z"
       stroke="#000000"
       stroke-width="3.33333"
       stroke-miterlimit="8"
       fill="#ffffff"
       fill-rule="evenodd"
       id="path70" />
    <text
       fill="#ff0000"
       font-family="'Times New Roman', 'Times New Roman_MSFontService', sans-serif"
       font-weight="700"
       font-size="32px"
       transform="translate(1149.35,230)"
       id="text71">CD<tspan
   font-size="32px"
   x="46.333401"
   y="0"
   id="tspan70">-</tspan><tspan
   font-size="32px"
   x="57"
   y="0"
   id="tspan71">RS</tspan></text>
    <path
       d="m 1065.5,480 h 273.54 v 56.475 l -2.5,-2.5 h 32.03 v 5 h -34.53 V 482.5 l 2.5,2.5 H 1065.5 Z m 303.07,56.475 -10,-12.5 25,12.5 -25,12.5 z"
       id="path71" />
    <path
       d="M 0.00175536,-2.5 503.4,-2.14654 l -0.003,5 L -0.00175536,2.5 Z M 503.398,0.353457 493.406,-12.1536 518.398,0.36399 493.389,12.8464 Z"
       transform="matrix(1,0,0,-1,437.5,482.864)"
       id="path72" />
    <text
       font-family="'Times New Roman', 'Times New Roman_MSFontService', sans-serif"
       font-weight="700"
       font-size="27px"
       transform="translate(1486.66,179)"
       id="text87">SB<tspan
   font-weight="400"
   font-size="27px"
   x="39.333302"
   y="0"
   id="tspan72">: Genetic search</tspan><tspan
   font-weight="400"
   font-size="27px"
   x="210.83299"
   y="0"
   id="tspan73">-</tspan><tspan
   font-weight="400"
   font-size="27px"
   x="219.66701"
   y="0"
   id="tspan74">based</tspan><tspan
   font-weight="400"
   font-size="27px"
   x="0"
   y="32"
   id="tspan75">constraint satisfaction</tspan><tspan
   font-size="27px"
   x="0.63793898"
   y="73"
   id="tspan76">RS</tspan><tspan
   font-weight="400"
   font-size="27px"
   x="41.471298"
   y="73"
   id="tspan77">: Rejection sampling</tspan><tspan
   font-weight="400"
   font-size="27px"
   x="261.638"
   y="73"
   id="tspan78">-</tspan><tspan
   font-weight="400"
   font-size="27px"
   x="0.63793898"
   y="105"
   id="tspan79">based constraint satisfaction</tspan><tspan
   font-size="27px"
   x="-1297.9"
   y="387"
   id="tspan80">FEC</tspan><tspan
   font-weight="400"
   font-size="27px"
   x="-1237.73"
   y="387"
   id="tspan81">: Functional equivalence class</tspan><tspan
   font-size="27px"
   x="-1297.3101"
   y="421"
   id="tspan82">LSM</tspan><tspan
   font-weight="400"
   font-size="27px"
   x="-1232.8101"
   y="421"
   id="tspan83">: Logical scenario model</tspan><tspan
   font-size="27px"
   x="-855.36102"
   y="387"
   id="tspan84">FSM</tspan><tspan
   font-weight="400"
   font-size="27px"
   x="-792.36102"
   y="387"
   id="tspan85">: Functional scenario model</tspan><tspan
   font-size="27px"
   x="-855.26898"
   y="422"
   id="tspan86">IS</tspan><tspan
   font-weight="400"
   font-size="27px"
   x="-823.43597"
   y="422"
   id="tspan87">: Initial scene</tspan></text>
    <path
       d="m 182,540 h 262.834 v 0 H 995 v 72 H 182 Z"
       stroke="#000000"
       stroke-width="2"
       stroke-miterlimit="8"
       stroke-dasharray="8, 6"
       fill="none"
       fill-rule="evenodd"
       id="path87" />
    <path
       d="m 0,-2.5 h 28.3703 v 50.8742 l -2.5,-2.5 h 45.5369 v 5 H 23.3703 V 0 l 2.5,2.5 H 0 Z m 71.4072,50.8742 -10,-12.5 25,12.5 -25,12.5 z"
       transform="matrix(0,-1,-1,0,303.874,444.907)"
       id="path88" />
    <path
       d="m 1478,148 h 339 v 0 0 238 h -339 z"
       stroke="#000000"
       stroke-width="2"
       stroke-miterlimit="8"
       stroke-dasharray="8, 6"
       fill="none"
       fill-rule="evenodd"
       id="path89" />
    <path
       d="m 1141.5,294.022 c 0,-3.05 2.47,-5.522 5.52,-5.522 h 101.96 c 3.05,0 5.52,2.472 5.52,5.522 v 29.957 c 0,3.049 -2.47,5.521 -5.52,5.521 h -101.96 c -3.05,0 -5.52,-2.472 -5.52,-5.521 z"
       stroke="#000000"
       stroke-width="3.33333"
       stroke-miterlimit="8"
       fill="#ffffff"
       fill-rule="evenodd"
       id="path90" />
    <text
       font-family="'Times New Roman', 'Times New Roman_MSFontService', sans-serif"
       font-weight="700"
       font-size="37px"
       transform="translate(1174.86,322)"
       id="text90">SB</text>
    <path
       d="m 1141.5,336.887 c 0,-2.975 2.41,-5.387 5.39,-5.387 h 102.22 c 2.98,0 5.39,2.412 5.39,5.387 v 29.226 c 0,2.975 -2.41,5.387 -5.39,5.387 h -102.22 c -2.98,0 -5.39,-2.412 -5.39,-5.387 z"
       stroke="#000000"
       stroke-width="3.33333"
       stroke-miterlimit="8"
       fill="#ffffff"
       fill-rule="evenodd"
       id="path91" />
    <text
       fill="#ff0000"
       font-family="'Times New Roman', 'Times New Roman_MSFontService', sans-serif"
       font-weight="700"
       font-size="32px"
       transform="translate(1148.54,363)"
       id="text92">CD<tspan
   font-size="32px"
   x="46.333401"
   y="0"
   id="tspan91">-</tspan><tspan
   font-size="32px"
   x="57"
   y="0"
   id="tspan92">RS</tspan></text>
    <path
       d="m 1143.5,445.022 c 0,-3.05 2.47,-5.522 5.52,-5.522 h 101.96 c 3.05,0 5.52,2.472 5.52,5.522 v 29.957 c 0,3.049 -2.47,5.521 -5.52,5.521 h -101.96 c -3.05,0 -5.52,-2.472 -5.52,-5.521 z"
       stroke="#000000"
       stroke-width="3.33333"
       stroke-miterlimit="8"
       fill="#ffffff"
       fill-rule="evenodd"
       id="path92" />
    <text
       font-family="'Times New Roman', 'Times New Roman_MSFontService', sans-serif"
       font-weight="700"
       font-size="37px"
       transform="translate(1176.31,473)"
       id="text93">SB</text>
    <path
       d="m 1142.5,487.887 c 0,-2.975 2.41,-5.387 5.39,-5.387 h 103.22 c 2.98,0 5.39,2.412 5.39,5.387 v 29.226 c 0,2.975 -2.41,5.387 -5.39,5.387 h -103.22 c -2.98,0 -5.39,-2.412 -5.39,-5.387 z"
       stroke="#000000"
       stroke-width="3.33333"
       stroke-miterlimit="8"
       fill="#ffffff"
       fill-rule="evenodd"
       id="path93" />
    <text
       font-family="'Times New Roman', 'Times New Roman_MSFontService', sans-serif"
       font-weight="700"
       font-size="32px"
       transform="translate(1178.5,514)"
       id="text95">RS<tspan
   font-size="27px"
   x="308.289"
   y="-138"
   id="tspan93">QA</tspan><tspan
   font-weight="400"
   font-size="27px"
   x="354.95499"
   y="-138"
   id="tspan94">:</tspan><tspan
   font-weight="400"
   font-size="27px"
   x="368.95499"
   y="-138"
   id="tspan95">Qualitative abstraction</tspan></text>
    <path
       d="m 379.5,208 c 0,-9.113 7.387,-16.5 16.5,-16.5 9.113,0 16.5,7.387 16.5,16.5 0,9.113 -7.387,16.5 -16.5,16.5 -9.113,0 -16.5,-7.387 -16.5,-16.5 z"
       stroke="#000000"
       stroke-width="2.66667"
       stroke-miterlimit="8"
       fill="none"
       fill-rule="evenodd"
       id="path95" />
    <text
       font-family="'Times New Roman', 'Times New Roman_MSFontService', sans-serif"
       font-weight="400"
       font-size="24px"
       transform="translate(389.088,216)"
       id="text96">1</text>
    <path
       d="M 2.82474e-4,-2.5 21.2381,-2.4976 l -6e-4,5 L -2.82474e-4,2.5 Z M 21.2378,0.00239965 11.2392,-12.4987 36.2378,0.00409449 11.2364,12.5013 Z"
       transform="matrix(1,0,0,-1,342.5,207.504)"
       id="path96" />
    <path
       d="m 618.5,264 c 0,-9.113 7.387,-16.5 16.5,-16.5 9.113,0 16.5,7.387 16.5,16.5 0,9.113 -7.387,16.5 -16.5,16.5 -9.113,0 -16.5,-7.387 -16.5,-16.5 z"
       stroke="#000000"
       stroke-width="2.66667"
       stroke-miterlimit="8"
       fill="none"
       fill-rule="evenodd"
       id="path97" />
    <text
       font-family="'Times New Roman', 'Times New Roman_MSFontService', sans-serif"
       font-weight="400"
       font-size="24px"
       transform="translate(628.765,272)"
       id="text97">1</text>
    <path
       d="M 1.33332,-0.00640405 1.39505,12.8464 -1.27158,12.8592 -1.33332,0.00640405 Z M 0.0617332,12.8528 6.70271,7.4875 0.100157,20.8527 -6.63047,7.55154 Z"
       transform="matrix(1,0,0,-1,635.5,247.353)"
       id="path98" />
    <path
       d="m 636.833,280.475 0.235,12.721 -2.667,0.049 -0.234,-12.72 z m -1.099,12.745 6.568,-5.455 -6.42,13.454 -6.911,-13.208 z"
       id="path99" />
    <path
       d="m 1558.5,529 c 0,-9.113 7.39,-16.5 16.5,-16.5 9.11,0 16.5,7.387 16.5,16.5 0,9.113 -7.39,16.5 -16.5,16.5 -9.11,0 -16.5,-7.387 -16.5,-16.5 z"
       stroke="#000000"
       stroke-width="2.66667"
       stroke-miterlimit="8"
       fill="none"
       fill-rule="evenodd"
       id="path100" />
    <text
       font-family="'Times New Roman', 'Times New Roman_MSFontService', sans-serif"
       font-weight="400"
       font-size="24px"
       transform="translate(1568.73,537)"
       id="text100">1</text>
    <path
       d="M 1.33333,-7.39291e-6 1.33339,10.9347 H -1.33327 L -1.33333,7.39291e-6 Z M 6.06294e-5,10.9347 6.6667,5.60133 1.04987e-4,18.9347 -6.66664,5.6014 Z"
       transform="matrix(1,0,0,-1,1575.5,512.435)"
       id="path101" />
    <path
       d="m 1576.83,545.5 v 11.796 h -2.66 V 545.5 Z m -1.33,11.796 6.67,-5.334 -6.67,13.334 -6.67,-13.334 z"
       id="path102" />
  </g>
</svg>
