<?xml version="1.0" encoding="UTF-8" standalone="no"?>
<!-- Created with Inkscape (http://www.inkscape.org/) -->

<svg
   width="220.86334mm"
   height="64.029953mm"
   viewBox="0 0 220.86334 64.029953"
   version="1.1"
   id="svg1"
   sodipodi:docname="solution_space.svg"
   inkscape:version="1.4 (86a8ad7, 2024-10-11)"
   xmlns:inkscape="http://www.inkscape.org/namespaces/inkscape"
   xmlns:sodipodi="http://sodipodi.sourceforge.net/DTD/sodipodi-0.dtd"
   xmlns="http://www.w3.org/2000/svg"
   xmlns:svg="http://www.w3.org/2000/svg">
  <sodipodi:namedview
     id="namedview1"
     pagecolor="#ffffff"
     bordercolor="#000000"
     borderopacity="0.25"
     inkscape:showpageshadow="2"
     inkscape:pageopacity="0.0"
     inkscape:pagecheckerboard="0"
     inkscape:deskcolor="#d1d1d1"
     inkscape:document-units="mm"
     inkscape:zoom="0.54476795"
     inkscape:cx="-192.74262"
     inkscape:cy="245.05847"
     inkscape:window-width="1920"
     inkscape:window-height="1111"
     inkscape:window-x="-9"
     inkscape:window-y="-9"
     inkscape:window-maximized="1"
     inkscape:current-layer="svg1" />
  <defs
     id="defs1">
    <clipPath
       id="clip0">
      <rect
         x="756"
         y="341"
         width="843"
         height="263"
         id="rect1" />
    </clipPath>
    <clipPath
       id="clip0-9">
      <rect
         x="763"
         y="346"
         width="836"
         height="253"
         id="rect1-4" />
    </clipPath>
  </defs>
  <g
     clip-path="url(#clip0-9)"
     transform="matrix(0.26458333,0,0,0.26458333,-199.46543,-94.761183)"
     id="g37"
     inkscape:export-filename="solution_space.pdf"
     inkscape:export-xdpi="96"
     inkscape:export-ydpi="96">
    <path
       d="m 1425.37,570.488 c -3.42,-0.208 -4.1,-4.48 -6.85,-6.232 -1.38,-0.882 -14.37,-4.946 -15.41,-4.985 -30.79,-1.139 -61.66,-0.831 -92.48,-1.246 -10.28,-1.662 -20.49,-3.539 -30.83,-4.985 -4.52,-0.633 -9.1,-1.115 -13.7,-1.247 -24.54,-0.7 -49.1,-0.83 -73.65,-1.246 l -198.663,1.246 c -2.91,0.035 -5.699,0.868 -8.563,1.247 -3.416,0.452 -6.827,0.951 -10.276,1.246 -6.262,0.536 -12.559,0.831 -18.839,1.246 -17.697,-0.415 -35.45,-0.146 -53.092,-1.246 -2.543,-0.159 -4.428,-1.905 -6.85,-2.493 -2.762,-0.669 -5.709,-0.83 -8.564,-1.246 -2.854,-1.246 -6.035,-2.162 -8.563,-3.739 -3.098,-1.932 -3.939,-4.86 -5.138,-7.477 0.549,-1.598 2.197,-6.936 3.426,-8.724 1.488,-2.167 2.971,-4.393 5.138,-6.232 1.339,-1.137 3.425,-1.662 5.137,-2.492 2.284,-2.493 6.509,-4.493 6.851,-7.478 1.489,-13.004 1.088,-29.663 -3.425,-43.62 -1.618,-5.002 -1.302,-10.642 -5.138,-14.956 -2.926,-3.29 -9.04,-4.268 -13.701,-6.231 -22.633,-9.536 -13.217,-3.386 -23.977,-11.217 -0.571,-1.662 -1.713,-3.272 -1.713,-4.985 0,-3.349 0.502,-6.739 1.713,-9.97 0.84,-2.243 8.835,-8.095 10.276,-8.724 2.978,-1.301 12.986,-2.986 17.126,-3.739 12.057,0.975 17.346,1.351 29.115,2.492 4.001,0.389 7.974,0.939 11.988,1.247 6.837,0.523 13.702,0.831 20.552,1.246 24.548,-0.831 49.17,-0.873 73.64,-2.493 7.04,-0.465 13.73,-2.431 20.56,-3.738 18.91,-3.622 4.89,-1.633 22.26,-3.739 1.71,-1.247 2.93,-3.01 5.14,-3.739 3.24,-1.074 17.29,-3.016 22.26,-3.739 12.56,0.415 25.11,1.077 37.68,1.246 159.71,2.152 97.99,-3.878 159.28,2.493 2.85,1.246 5.42,2.933 8.56,3.739 6.66,1.71 13.7,2.492 20.55,3.739 2.28,0.415 4.62,0.704 6.85,1.246 1.71,0.415 3.38,0.961 5.14,1.246 8.52,1.379 25.69,3.739 25.69,3.739 2.28,0.831 5.04,1.179 6.85,2.493 1.28,0.929 0.29,2.932 1.71,3.738 4.03,2.282 13.7,4.986 13.7,4.986 1.15,1.661 3.37,3.127 3.43,4.985 1.32,41.313 3.36,33.833 -3.43,53.59 0.57,7.478 1.07,14.959 1.72,22.433 0.5,5.82 0.32,11.706 1.71,17.448 0.38,1.57 7.13,6.958 8.56,7.478 3.72,1.353 7.98,1.697 11.99,2.493 2.27,0.45 4.59,0.775 6.85,1.246 17.2,3.576 -9.43,-1.404 11.99,2.493 4.26,2.066 7.02,3.629 11.99,4.985 2.2,0.601 4.68,0.587 6.85,1.246 4.71,1.429 13.7,4.985 13.7,4.985 -1.14,4.985 0.02,10.568 -3.43,14.956 -2.16,2.755 -10.27,5.192 -13.7,4.985 z"
       stroke="#2f528f"
       stroke-width="3.33333"
       stroke-miterlimit="8"
       fill="#4472c4"
       fill-rule="evenodd"
       fill-opacity="0.521569"
       id="path1" />
    <path
       d="M 817.481,586.5 H 1522.35 L 1595.5,444.541 1475.8,349.5 766.5,351.906 775.366,586.5 Z"
       stroke="#000000"
       stroke-width="5"
       stroke-miterlimit="8"
       fill="none"
       fill-rule="evenodd"
       id="path2" />
    <path
       d="M 0,0 1.31234e-4,232.886"
       stroke="#000000"
       stroke-width="3.75"
       stroke-miterlimit="8"
       stroke-dasharray="15, 11.25"
       fill="none"
       fill-rule="evenodd"
       transform="matrix(1,0,0,-1,931,581.886)"
       id="path3" />
    <path
       d="M 1145.55,582.482 1129,350"
       stroke="#000000"
       stroke-width="3.75"
       stroke-miterlimit="8"
       stroke-dasharray="15, 11.25"
       fill="none"
       fill-rule="evenodd"
       id="path4" />
    <path
       d="M 0,0 26.477,235.149"
       stroke="#000000"
       stroke-width="3.75"
       stroke-miterlimit="8"
       stroke-dasharray="15, 11.25"
       fill="none"
       fill-rule="evenodd"
       transform="matrix(1,0,0,-1,1365,585.149)"
       id="path5" />
    <path
       d="M 0,0 803.125,14.3525"
       stroke="#000000"
       stroke-width="3.75"
       stroke-miterlimit="8"
       stroke-dasharray="15, 11.25"
       fill="none"
       fill-rule="evenodd"
       transform="matrix(1,0,0,-1,770,441.353)"
       id="path6" />
    <path
       d="M 0,0 776,2.21575"
       stroke="#000000"
       stroke-width="3.75"
       stroke-miterlimit="8"
       stroke-dasharray="15, 11.25"
       fill="none"
       fill-rule="evenodd"
       transform="matrix(1,0,0,-1,774,532.216)"
       id="path7" />
    <text
       font-family="Calibri, Calibri_MSFontService, sans-serif"
       font-weight="400"
       font-size="33px"
       transform="translate(791.741,519)"
       id="text13">FEC<tspan
   font-size="22px"
   x="48.983299"
   y="7"
   id="tspan7">1</tspan><tspan
   font-size="33px"
   x="169.412"
   y="0"
   id="tspan8">FEC</tspan><tspan
   font-size="22px"
   x="218.395"
   y="7"
   id="tspan9">2</tspan><tspan
   font-size="33px"
   x="664.05701"
   y="50"
   id="tspan10">FEC</tspan><tspan
   font-size="22px"
   x="713.03998"
   y="57"
   id="tspan11">k</tspan><tspan
   font-size="33px"
   x="660.96002"
   y="-5"
   id="tspan12">FEC</tspan><tspan
   font-size="22px"
   x="709.94397"
   y="2"
   id="tspan13">4</tspan></text>
    <path
       d="m 870,424 c 0,-3.866 3.134,-7 7,-7 3.866,0 7,3.134 7,7 0,3.866 -3.134,7 -7,7 -3.866,0 -7,-3.134 -7,-7 z"
       stroke="#ff0000"
       stroke-width="1.66667"
       stroke-miterlimit="8"
       fill="#ff0000"
       fill-rule="evenodd"
       id="path13" />
    <path
       d="m 912,487.5 c 0,-3.59 2.91,-6.5 6.5,-6.5 3.59,0 6.5,2.91 6.5,6.5 0,3.59 -2.91,6.5 -6.5,6.5 -3.59,0 -6.5,-2.91 -6.5,-6.5 z"
       stroke="#ff0000"
       stroke-width="1.66667"
       stroke-miterlimit="8"
       fill="#ff0000"
       fill-rule="evenodd"
       id="path14" />
    <path
       d="m 876,544 c 0,-3.866 2.91,-7 6.5,-7 3.59,0 6.5,3.134 6.5,7 0,3.866 -2.91,7 -6.5,7 -3.59,0 -6.5,-3.134 -6.5,-7 z"
       stroke="#ff0000"
       stroke-width="1.66667"
       stroke-miterlimit="8"
       fill="#ff0000"
       fill-rule="evenodd"
       id="path15" />
    <path
       d="m 940,544 c 0,-3.866 3.134,-7 7,-7 3.866,0 7,3.134 7,7 0,3.866 -3.134,7 -7,7 -3.866,0 -7,-3.134 -7,-7 z"
       stroke="#ff0000"
       stroke-width="1.66667"
       stroke-miterlimit="8"
       fill="#ff0000"
       fill-rule="evenodd"
       id="path16" />
    <path
       d="m 1051,415 c 0,-3.866 2.91,-7 6.5,-7 3.59,0 6.5,3.134 6.5,7 0,3.866 -2.91,7 -6.5,7 -3.59,0 -6.5,-3.134 -6.5,-7 z"
       stroke="#ff0000"
       stroke-width="1.66667"
       stroke-miterlimit="8"
       fill="#ff0000"
       fill-rule="evenodd"
       id="path17" />
    <path
       d="m 1210,414 c 0,-3.866 2.91,-7 6.5,-7 3.59,0 6.5,3.134 6.5,7 0,3.866 -2.91,7 -6.5,7 -3.59,0 -6.5,-3.134 -6.5,-7 z"
       stroke="#ff0000"
       stroke-width="1.66667"
       stroke-miterlimit="8"
       fill="#ff0000"
       fill-rule="evenodd"
       id="path18" />
    <path
       d="m 1259,479.5 c 0,-3.59 3.13,-6.5 7,-6.5 3.87,0 7,2.91 7,6.5 0,3.59 -3.13,6.5 -7,6.5 -3.87,0 -7,-2.91 -7,-6.5 z"
       stroke="#ff0000"
       stroke-width="1.66667"
       stroke-miterlimit="8"
       fill="#ff0000"
       fill-rule="evenodd"
       id="path19" />
    <path
       d="m 1010,469 c 0,-3.866 2.91,-7 6.5,-7 3.59,0 6.5,3.134 6.5,7 0,3.866 -2.91,7 -6.5,7 -3.59,0 -6.5,-3.134 -6.5,-7 z"
       stroke="#ff0000"
       stroke-width="1.66667"
       stroke-miterlimit="8"
       fill="#ff0000"
       fill-rule="evenodd"
       id="path20" />
    <path
       d="m 1297,545.5 c 0,-3.59 2.91,-6.5 6.5,-6.5 3.59,0 6.5,2.91 6.5,6.5 0,3.59 -2.91,6.5 -6.5,6.5 -3.59,0 -6.5,-2.91 -6.5,-6.5 z"
       stroke="#ff0000"
       stroke-width="1.66667"
       stroke-miterlimit="8"
       fill="#ff0000"
       fill-rule="evenodd"
       id="path21" />
    <path
       d="m 1420,557.5 c 0,-3.59 2.91,-6.5 6.5,-6.5 3.59,0 6.5,2.91 6.5,6.5 0,3.59 -2.91,6.5 -6.5,6.5 -3.59,0 -6.5,-2.91 -6.5,-6.5 z"
       stroke="#ff0000"
       stroke-width="1.66667"
       stroke-miterlimit="8"
       fill="#ff0000"
       fill-rule="evenodd"
       id="path22" />
    <path
       d="m 1038,484.5 c 0,-3.59 2.91,-6.5 6.5,-6.5 3.59,0 6.5,2.91 6.5,6.5 0,3.59 -2.91,6.5 -6.5,6.5 -3.59,0 -6.5,-2.91 -6.5,-6.5 z"
       stroke="#000000"
       stroke-width="1.66667"
       stroke-miterlimit="8"
       fill-rule="evenodd"
       id="path23" />
    <path
       d="m 893,453.5 c 0,-3.59 3.134,-6.5 7,-6.5 3.866,0 7,2.91 7,6.5 0,3.59 -3.134,6.5 -7,6.5 -3.866,0 -7,-2.91 -7,-6.5 z"
       stroke="#000000"
       stroke-width="1.66667"
       stroke-miterlimit="8"
       fill-rule="evenodd"
       id="path24" />
    <path
       d="m 911,517 c 0,-3.866 2.91,-7 6.5,-7 3.59,0 6.5,3.134 6.5,7 0,3.866 -2.91,7 -6.5,7 -3.59,0 -6.5,-3.134 -6.5,-7 z"
       stroke="#000000"
       stroke-width="1.66667"
       stroke-miterlimit="8"
       fill-rule="evenodd"
       id="path25" />
    <path
       d="m 1053,501 c 0,-3.866 3.13,-7 7,-7 3.87,0 7,3.134 7,7 0,3.866 -3.13,7 -7,7 -3.87,0 -7,-3.134 -7,-7 z"
       stroke="#000000"
       stroke-width="1.66667"
       stroke-miterlimit="8"
       fill-rule="evenodd"
       id="path26" />
    <path
       d="m 1055,463.5 c 0,-3.59 3.13,-6.5 7,-6.5 3.87,0 7,2.91 7,6.5 0,3.59 -3.13,6.5 -7,6.5 -3.87,0 -7,-2.91 -7,-6.5 z"
       stroke="#000000"
       stroke-width="1.66667"
       stroke-miterlimit="8"
       fill-rule="evenodd"
       id="path27" />
    <path
       d="m 1084,474.5 c 0,-3.59 2.91,-6.5 6.5,-6.5 3.59,0 6.5,2.91 6.5,6.5 0,3.59 -2.91,6.5 -6.5,6.5 -3.59,0 -6.5,-2.91 -6.5,-6.5 z"
       stroke="#000000"
       stroke-width="1.66667"
       stroke-miterlimit="8"
       fill-rule="evenodd"
       id="path28" />
    <path
       d="m 911,463 c 0,-3.866 2.91,-7 6.5,-7 3.59,0 6.5,3.134 6.5,7 0,3.866 -2.91,7 -6.5,7 -3.59,0 -6.5,-3.134 -6.5,-7 z"
       stroke="#000000"
       stroke-width="1.66667"
       stroke-miterlimit="8"
       fill-rule="evenodd"
       id="path29" />
    <path
       d="m 900,499 c 0,-3.866 2.91,-7 6.5,-7 3.59,0 6.5,3.134 6.5,7 0,3.866 -2.91,7 -6.5,7 -3.59,0 -6.5,-3.134 -6.5,-7 z"
       stroke="#000000"
       stroke-width="1.66667"
       stroke-miterlimit="8"
       fill-rule="evenodd"
       id="path30" />
    <text
       fill="#203864"
       font-family="'Times New Roman', 'Times New Roman_MSFontService', sans-serif"
       font-weight="400"
       font-size="33px"
       transform="translate(1139.85,394)"
       id="text30">Solution space</text>
    <path
       d="m 1537.01,468.753 c -1.71,-0.591 -3.33,1.684 -8.42,-1.329 -0.16,-0.443 -0.25,-0.911 -0.47,-1.329 -0.25,-0.476 -0.54,-0.953 -0.93,-1.329 -0.91,-0.859 -1.67,-0.969 -2.81,-1.329 -1.19,-1.503 -1.96,-1.937 -1.87,-3.988 0.12,-3.113 0.08,-6.295 0.93,-9.303 0.29,-1.009 1.61,-1.435 2.34,-2.216 0.52,-0.551 0.81,-1.291 1.41,-1.772 0.53,-0.43 1.23,-0.618 1.87,-0.886 4.3,-1.81 3.73,-1.032 10.76,-1.772 l 16.85,0.443 c 0.69,0.086 0.69,1.154 0.94,1.772 0.22,0.57 0.3,1.185 0.47,1.772 0.29,1.038 0.63,2.064 0.93,3.102 0.17,0.587 0.27,1.194 0.47,1.772 0.43,1.232 1.19,2.829 1.87,3.987 0.44,0.753 0.85,1.536 1.41,2.215 0.54,0.66 1.34,1.104 1.87,1.772 0.42,0.529 0.71,1.146 0.93,1.773 0.41,1.155 0.94,3.544 0.94,3.544 -0.31,2.067 -0.43,4.169 -0.94,6.202 -0.12,0.519 -0.65,0.867 -0.93,1.33 -0.35,0.573 -0.48,1.275 -0.94,1.772 -2.5,2.711 -1.5,1.153 -3.74,2.215 -0.51,0.238 -0.86,0.746 -1.41,0.886 -1.21,0.313 -2.49,0.295 -3.74,0.443 -2.03,-0.148 -4.06,-0.218 -6.08,-0.443 -0.64,-0.071 -1.35,-0.094 -1.88,-0.443 -1.08,-0.719 -2.07,-1.616 -2.8,-2.658 -0.32,-0.443 -0.5,-0.997 -0.94,-1.329 -0.39,-0.292 -0.94,-0.296 -1.41,-0.443 -0.65,-0.617 -1.83,-1.907 -2.8,-2.216 -0.45,-0.14 -0.16,-1.624 -1.88,-2.215 z"
       stroke="#2f528f"
       stroke-width="3.33333"
       stroke-miterlimit="8"
       fill="#4472c4"
       fill-rule="evenodd"
       fill-opacity="0.521569"
       id="path31" />
    <path
       d="m 1539,458.5 c 0,-3.59 3.13,-6.5 7,-6.5 3.87,0 7,2.91 7,6.5 0,3.59 -3.13,6.5 -7,6.5 -3.87,0 -7,-2.91 -7,-6.5 z"
       stroke="#ff0000"
       stroke-width="1.66667"
       stroke-miterlimit="8"
       fill="#ff0000"
       fill-rule="evenodd"
       id="path32" />
    <path
       d="m 1083,504.5 c 0,-3.59 2.91,-6.5 6.5,-6.5 3.59,0 6.5,2.91 6.5,6.5 0,3.59 -2.91,6.5 -6.5,6.5 -3.59,0 -6.5,-2.91 -6.5,-6.5 z"
       stroke="#000000"
       stroke-width="1.66667"
       stroke-miterlimit="8"
       fill-rule="evenodd"
       id="path33" />
    <path
       d="m 898,475.5 c 0,-3.59 3.134,-6.5 7,-6.5 3.866,0 7,2.91 7,6.5 0,3.59 -3.134,6.5 -7,6.5 -3.866,0 -7,-2.91 -7,-6.5 z"
       stroke="#000000"
       stroke-width="1.66667"
       stroke-miterlimit="8"
       fill-rule="evenodd"
       id="path34" />
    <text
       font-family="Calibri, Calibri_MSFontService, sans-serif"
       font-weight="400"
       font-size="33px"
       transform="translate(1174.32,518)"
       id="text34">FEC<tspan
   font-size="22px"
   x="48.983299"
   y="7"
   id="tspan34">3</tspan></text>
    <path
       d="m 1083,416.5 c 0,-3.59 3.13,-6.5 7,-6.5 3.87,0 7,2.91 7,6.5 0,3.59 -3.13,6.5 -7,6.5 -3.87,0 -7,-2.91 -7,-6.5 z"
       stroke="#000000"
       stroke-width="1.66667"
       stroke-miterlimit="8"
       fill-rule="evenodd"
       id="path35" />
    <path
       d="m 1328,545.5 c 0,-3.59 2.91,-6.5 6.5,-6.5 3.59,0 6.5,2.91 6.5,6.5 0,3.59 -2.91,6.5 -6.5,6.5 -3.59,0 -6.5,-2.91 -6.5,-6.5 z"
       stroke="#000000"
       stroke-width="1.66667"
       stroke-miterlimit="8"
       fill-rule="evenodd"
       id="path36" />
    <path
       d="m 973,467.5 c 0,-3.59 2.91,-6.5 6.5,-6.5 3.59,0 6.5,2.91 6.5,6.5 0,3.59 -2.91,6.5 -6.5,6.5 -3.59,0 -6.5,-2.91 -6.5,-6.5 z"
       stroke="#000000"
       stroke-width="1.66667"
       stroke-miterlimit="8"
       fill-rule="evenodd"
       id="path37" />
  </g>
</svg>
