<?xml version="1.0" encoding="utf-8" standalone="no"?>
<!DOCTYPE svg PUBLIC "-//W3C//DTD SVG 1.1//EN"
  "http://www.w3.org/Graphics/SVG/1.1/DTD/svg11.dtd">
<svg xmlns:xlink="http://www.w3.org/1999/xlink" width="862.331009pt" height="203.608253pt" viewBox="0 0 862.331009 203.608253" xmlns="http://www.w3.org/2000/svg" version="1.1">
 <metadata>
  <rdf:RDF xmlns:dc="http://purl.org/dc/elements/1.1/" xmlns:cc="http://creativecommons.org/ns#" xmlns:rdf="http://www.w3.org/1999/02/22-rdf-syntax-ns#">
   <cc:Work>
    <dc:type rdf:resource="http://purl.org/dc/dcmitype/StillImage"/>
    <dc:date>2024-10-22T17:40:20.169927</dc:date>
    <dc:format>image/svg+xml</dc:format>
    <dc:creator>
     <cc:Agent>
      <dc:title>Matplotlib v3.9.0, https://matplotlib.org/</dc:title>
     </cc:Agent>
    </dc:creator>
   </cc:Work>
  </rdf:RDF>
 </metadata>
 <defs>
  <style type="text/css">*{stroke-linejoin: round; stroke-linecap: butt}</style>
 </defs>
 <g id="figure_1">
  <g id="patch_1">
   <path d="M 0 203.608253 
L 862.331009 203.608253 
L 862.331009 0 
L 0 0 
z
" style="fill: #ffffff"/>
  </g>
  <g id="axes_1">
   <g id="patch_2">
    <path d="M 59.099375 163.609503 
L 210.841875 163.609503 
L 210.841875 8.852501 
L 59.099375 8.852501 
z
" style="fill: #ffffff"/>
   </g>
   <g id="matplotlib.axis_1">
    <g id="xtick_1">
     <g id="line2d_1">
      <defs>
       <path id="m07ecac6c41" d="M 0 0 
L 0 3.5 
" style="stroke: #000000; stroke-width: 0.8"/>
      </defs>
      <g>
       <use xlink:href="#m07ecac6c41" x="60.508194" y="163.609503" style="stroke: #000000; stroke-width: 0.8"/>
      </g>
     </g>
     <g id="text_1">
      <!-- 0 -->
      <g transform="translate(57.508194 178.942003) scale(0.12 -0.12)">
       <defs>
        <path id="TimesNewRomanPSMT-30" d="M 231 2094 
Q 231 2819 450 3342 
Q 669 3866 1031 4122 
Q 1313 4325 1613 4325 
Q 2100 4325 2488 3828 
Q 2972 3213 2972 2159 
Q 2972 1422 2759 906 
Q 2547 391 2217 158 
Q 1888 -75 1581 -75 
Q 975 -75 572 641 
Q 231 1244 231 2094 
z
M 844 2016 
Q 844 1141 1059 588 
Q 1238 122 1591 122 
Q 1759 122 1940 273 
Q 2122 425 2216 781 
Q 2359 1319 2359 2297 
Q 2359 3022 2209 3506 
Q 2097 3866 1919 4016 
Q 1791 4119 1609 4119 
Q 1397 4119 1231 3928 
Q 1006 3669 925 3112 
Q 844 2556 844 2016 
z
" transform="scale(0.015625)"/>
       </defs>
       <use xlink:href="#TimesNewRomanPSMT-30"/>
      </g>
     </g>
    </g>
    <g id="xtick_2">
     <g id="line2d_2">
      <g>
       <use xlink:href="#m07ecac6c41" x="135.643865" y="163.609503" style="stroke: #000000; stroke-width: 0.8"/>
      </g>
     </g>
     <g id="text_2">
      <!-- 1000 -->
      <g transform="translate(123.643865 178.942003) scale(0.12 -0.12)">
       <defs>
        <path id="TimesNewRomanPSMT-31" d="M 750 3822 
L 1781 4325 
L 1884 4325 
L 1884 747 
Q 1884 391 1914 303 
Q 1944 216 2037 169 
Q 2131 122 2419 116 
L 2419 0 
L 825 0 
L 825 116 
Q 1125 122 1212 167 
Q 1300 213 1334 289 
Q 1369 366 1369 747 
L 1369 3034 
Q 1369 3497 1338 3628 
Q 1316 3728 1258 3775 
Q 1200 3822 1119 3822 
Q 1003 3822 797 3725 
L 750 3822 
z
" transform="scale(0.015625)"/>
       </defs>
       <use xlink:href="#TimesNewRomanPSMT-31"/>
       <use xlink:href="#TimesNewRomanPSMT-30" x="50"/>
       <use xlink:href="#TimesNewRomanPSMT-30" x="100"/>
       <use xlink:href="#TimesNewRomanPSMT-30" x="150"/>
      </g>
     </g>
    </g>
    <g id="xtick_3">
     <g id="line2d_3">
      <g>
       <use xlink:href="#m07ecac6c41" x="210.779537" y="163.609503" style="stroke: #000000; stroke-width: 0.8"/>
      </g>
     </g>
     <g id="text_3">
      <!-- 2000 -->
      <g transform="translate(198.779537 178.942003) scale(0.12 -0.12)">
       <defs>
        <path id="TimesNewRomanPSMT-32" d="M 2934 816 
L 2638 0 
L 138 0 
L 138 116 
Q 1241 1122 1691 1759 
Q 2141 2397 2141 2925 
Q 2141 3328 1894 3587 
Q 1647 3847 1303 3847 
Q 991 3847 742 3664 
Q 494 3481 375 3128 
L 259 3128 
Q 338 3706 661 4015 
Q 984 4325 1469 4325 
Q 1984 4325 2329 3994 
Q 2675 3663 2675 3213 
Q 2675 2891 2525 2569 
Q 2294 2063 1775 1497 
Q 997 647 803 472 
L 1909 472 
Q 2247 472 2383 497 
Q 2519 522 2628 598 
Q 2738 675 2819 816 
L 2934 816 
z
" transform="scale(0.015625)"/>
       </defs>
       <use xlink:href="#TimesNewRomanPSMT-32"/>
       <use xlink:href="#TimesNewRomanPSMT-30" x="50"/>
       <use xlink:href="#TimesNewRomanPSMT-30" x="100"/>
       <use xlink:href="#TimesNewRomanPSMT-30" x="150"/>
      </g>
     </g>
    </g>
    <g id="text_4">
     <!-- Time (s) -->
     <g transform="translate(114.687812 193.841378) scale(0.12 -0.12)">
      <defs>
       <path id="TimesNewRomanPSMT-54" d="M 3703 4238 
L 3750 3244 
L 3631 3244 
Q 3597 3506 3538 3619 
Q 3441 3800 3280 3886 
Q 3119 3972 2856 3972 
L 2259 3972 
L 2259 734 
Q 2259 344 2344 247 
Q 2463 116 2709 116 
L 2856 116 
L 2856 0 
L 1059 0 
L 1059 116 
L 1209 116 
Q 1478 116 1591 278 
Q 1659 378 1659 734 
L 1659 3972 
L 1150 3972 
Q 853 3972 728 3928 
Q 566 3869 450 3700 
Q 334 3531 313 3244 
L 194 3244 
L 244 4238 
L 3703 4238 
z
" transform="scale(0.015625)"/>
       <path id="TimesNewRomanPSMT-69" d="M 928 4444 
Q 1059 4444 1151 4351 
Q 1244 4259 1244 4128 
Q 1244 3997 1151 3903 
Q 1059 3809 928 3809 
Q 797 3809 703 3903 
Q 609 3997 609 4128 
Q 609 4259 701 4351 
Q 794 4444 928 4444 
z
M 1188 2947 
L 1188 647 
Q 1188 378 1227 289 
Q 1266 200 1342 156 
Q 1419 113 1622 113 
L 1622 0 
L 231 0 
L 231 113 
Q 441 113 512 153 
Q 584 194 626 287 
Q 669 381 669 647 
L 669 1750 
Q 669 2216 641 2353 
Q 619 2453 572 2492 
Q 525 2531 444 2531 
Q 356 2531 231 2484 
L 188 2597 
L 1050 2947 
L 1188 2947 
z
" transform="scale(0.015625)"/>
       <path id="TimesNewRomanPSMT-6d" d="M 1050 2338 
Q 1363 2650 1419 2697 
Q 1559 2816 1721 2881 
Q 1884 2947 2044 2947 
Q 2313 2947 2506 2790 
Q 2700 2634 2766 2338 
Q 3088 2713 3309 2830 
Q 3531 2947 3766 2947 
Q 3994 2947 4170 2830 
Q 4347 2713 4450 2447 
Q 4519 2266 4519 1878 
L 4519 647 
Q 4519 378 4559 278 
Q 4591 209 4675 161 
Q 4759 113 4950 113 
L 4950 0 
L 3538 0 
L 3538 113 
L 3597 113 
Q 3781 113 3884 184 
Q 3956 234 3988 344 
Q 4000 397 4000 647 
L 4000 1878 
Q 4000 2228 3916 2372 
Q 3794 2572 3525 2572 
Q 3359 2572 3192 2489 
Q 3025 2406 2788 2181 
L 2781 2147 
L 2788 2013 
L 2788 647 
Q 2788 353 2820 281 
Q 2853 209 2943 161 
Q 3034 113 3253 113 
L 3253 0 
L 1806 0 
L 1806 113 
Q 2044 113 2133 169 
Q 2222 225 2256 338 
Q 2272 391 2272 647 
L 2272 1878 
Q 2272 2228 2169 2381 
Q 2031 2581 1784 2581 
Q 1616 2581 1450 2491 
Q 1191 2353 1050 2181 
L 1050 647 
Q 1050 366 1089 281 
Q 1128 197 1204 155 
Q 1281 113 1516 113 
L 1516 0 
L 100 0 
L 100 113 
Q 297 113 375 155 
Q 453 197 493 289 
Q 534 381 534 647 
L 534 1741 
Q 534 2213 506 2350 
Q 484 2453 437 2492 
Q 391 2531 309 2531 
Q 222 2531 100 2484 
L 53 2597 
L 916 2947 
L 1050 2947 
L 1050 2338 
z
" transform="scale(0.015625)"/>
       <path id="TimesNewRomanPSMT-65" d="M 681 1784 
Q 678 1147 991 784 
Q 1303 422 1725 422 
Q 2006 422 2214 576 
Q 2422 731 2563 1106 
L 2659 1044 
Q 2594 616 2278 264 
Q 1963 -88 1488 -88 
Q 972 -88 605 314 
Q 238 716 238 1394 
Q 238 2128 614 2539 
Q 991 2950 1559 2950 
Q 2041 2950 2350 2633 
Q 2659 2316 2659 1784 
L 681 1784 
z
M 681 1966 
L 2006 1966 
Q 1991 2241 1941 2353 
Q 1863 2528 1708 2628 
Q 1553 2728 1384 2728 
Q 1125 2728 920 2526 
Q 716 2325 681 1966 
z
" transform="scale(0.015625)"/>
       <path id="TimesNewRomanPSMT-20" transform="scale(0.015625)"/>
       <path id="TimesNewRomanPSMT-28" d="M 1988 -1253 
L 1988 -1369 
Q 1516 -1131 1200 -813 
Q 750 -359 506 256 
Q 263 872 263 1534 
Q 263 2503 741 3301 
Q 1219 4100 1988 4444 
L 1988 4313 
Q 1603 4100 1356 3731 
Q 1109 3363 987 2797 
Q 866 2231 866 1616 
Q 866 947 969 400 
Q 1050 -31 1165 -292 
Q 1281 -553 1476 -793 
Q 1672 -1034 1988 -1253 
z
" transform="scale(0.015625)"/>
       <path id="TimesNewRomanPSMT-73" d="M 2050 2947 
L 2050 1972 
L 1947 1972 
Q 1828 2431 1642 2597 
Q 1456 2763 1169 2763 
Q 950 2763 815 2647 
Q 681 2531 681 2391 
Q 681 2216 781 2091 
Q 878 1963 1175 1819 
L 1631 1597 
Q 2266 1288 2266 781 
Q 2266 391 1970 151 
Q 1675 -88 1309 -88 
Q 1047 -88 709 6 
Q 606 38 541 38 
Q 469 38 428 -44 
L 325 -44 
L 325 978 
L 428 978 
Q 516 541 762 319 
Q 1009 97 1316 97 
Q 1531 97 1667 223 
Q 1803 350 1803 528 
Q 1803 744 1651 891 
Q 1500 1038 1047 1263 
Q 594 1488 453 1669 
Q 313 1847 313 2119 
Q 313 2472 555 2709 
Q 797 2947 1181 2947 
Q 1350 2947 1591 2875 
Q 1750 2828 1803 2828 
Q 1853 2828 1881 2850 
Q 1909 2872 1947 2947 
L 2050 2947 
z
" transform="scale(0.015625)"/>
       <path id="TimesNewRomanPSMT-29" d="M 144 4313 
L 144 4444 
Q 619 4209 934 3891 
Q 1381 3434 1625 2820 
Q 1869 2206 1869 1541 
Q 1869 572 1392 -226 
Q 916 -1025 144 -1369 
L 144 -1253 
Q 528 -1038 776 -670 
Q 1025 -303 1145 264 
Q 1266 831 1266 1447 
Q 1266 2113 1163 2663 
Q 1084 3094 967 3353 
Q 850 3613 656 3853 
Q 463 4094 144 4313 
z
" transform="scale(0.015625)"/>
      </defs>
      <use xlink:href="#TimesNewRomanPSMT-54"/>
      <use xlink:href="#TimesNewRomanPSMT-69" x="57.583984"/>
      <use xlink:href="#TimesNewRomanPSMT-6d" x="85.367188"/>
      <use xlink:href="#TimesNewRomanPSMT-65" x="163.150391"/>
      <use xlink:href="#TimesNewRomanPSMT-20" x="207.535156"/>
      <use xlink:href="#TimesNewRomanPSMT-28" x="232.535156"/>
      <use xlink:href="#TimesNewRomanPSMT-73" x="265.835938"/>
      <use xlink:href="#TimesNewRomanPSMT-29" x="304.751953"/>
     </g>
    </g>
   </g>
   <g id="matplotlib.axis_2">
    <g id="ytick_1">
     <g id="line2d_4">
      <defs>
       <path id="mb02aeba8bd" d="M 0 0 
L -3.5 0 
" style="stroke: #000000; stroke-width: 0.8"/>
      </defs>
      <g>
       <use xlink:href="#mb02aeba8bd" x="59.099375" y="156.789962" style="stroke: #000000; stroke-width: 0.8"/>
      </g>
     </g>
     <g id="text_5">
      <!-- 0 -->
      <g transform="translate(46.099375 160.956212) scale(0.12 -0.12)">
       <use xlink:href="#TimesNewRomanPSMT-30"/>
      </g>
     </g>
    </g>
    <g id="ytick_2">
     <g id="line2d_5">
      <g>
       <use xlink:href="#mb02aeba8bd" x="59.099375" y="105.520961" style="stroke: #000000; stroke-width: 0.8"/>
      </g>
     </g>
     <g id="text_6">
      <!-- 5000 -->
      <g transform="translate(28.099375 109.687211) scale(0.12 -0.12)">
       <defs>
        <path id="TimesNewRomanPSMT-35" d="M 2778 4238 
L 2534 3706 
L 1259 3706 
L 981 3138 
Q 1809 3016 2294 2522 
Q 2709 2097 2709 1522 
Q 2709 1188 2573 903 
Q 2438 619 2231 419 
Q 2025 219 1772 97 
Q 1413 -75 1034 -75 
Q 653 -75 479 54 
Q 306 184 306 341 
Q 306 428 378 495 
Q 450 563 559 563 
Q 641 563 702 538 
Q 763 513 909 409 
Q 1144 247 1384 247 
Q 1750 247 2026 523 
Q 2303 800 2303 1197 
Q 2303 1581 2056 1914 
Q 1809 2247 1375 2428 
Q 1034 2569 447 2591 
L 1259 4238 
L 2778 4238 
z
" transform="scale(0.015625)"/>
       </defs>
       <use xlink:href="#TimesNewRomanPSMT-35"/>
       <use xlink:href="#TimesNewRomanPSMT-30" x="50"/>
       <use xlink:href="#TimesNewRomanPSMT-30" x="100"/>
       <use xlink:href="#TimesNewRomanPSMT-30" x="150"/>
      </g>
     </g>
    </g>
    <g id="ytick_3">
     <g id="line2d_6">
      <g>
       <use xlink:href="#mb02aeba8bd" x="59.099375" y="54.251959" style="stroke: #000000; stroke-width: 0.8"/>
      </g>
     </g>
     <g id="text_7">
      <!-- 10000 -->
      <g transform="translate(22.099375 58.418209) scale(0.12 -0.12)">
       <use xlink:href="#TimesNewRomanPSMT-31"/>
       <use xlink:href="#TimesNewRomanPSMT-30" x="50"/>
       <use xlink:href="#TimesNewRomanPSMT-30" x="100"/>
       <use xlink:href="#TimesNewRomanPSMT-30" x="150"/>
       <use xlink:href="#TimesNewRomanPSMT-30" x="200"/>
      </g>
     </g>
    </g>
    <g id="text_8">
     <!-- Distance (m) -->
     <g transform="translate(15.5325 117.386002) rotate(-90) scale(0.12 -0.12)">
      <defs>
       <path id="TimesNewRomanPSMT-44" d="M 109 0 
L 109 116 
L 269 116 
Q 538 116 650 288 
Q 719 391 719 750 
L 719 3488 
Q 719 3884 631 3984 
Q 509 4122 269 4122 
L 109 4122 
L 109 4238 
L 1834 4238 
Q 2784 4238 3279 4022 
Q 3775 3806 4076 3303 
Q 4378 2800 4378 2141 
Q 4378 1256 3841 663 
Q 3238 0 2003 0 
L 109 0 
z
M 1319 306 
Q 1716 219 1984 219 
Q 2709 219 3187 728 
Q 3666 1238 3666 2109 
Q 3666 2988 3187 3494 
Q 2709 4000 1959 4000 
Q 1678 4000 1319 3909 
L 1319 306 
z
" transform="scale(0.015625)"/>
       <path id="TimesNewRomanPSMT-74" d="M 1031 3803 
L 1031 2863 
L 1700 2863 
L 1700 2644 
L 1031 2644 
L 1031 788 
Q 1031 509 1111 412 
Q 1191 316 1316 316 
Q 1419 316 1516 380 
Q 1613 444 1666 569 
L 1788 569 
Q 1678 263 1478 108 
Q 1278 -47 1066 -47 
Q 922 -47 784 33 
Q 647 113 581 261 
Q 516 409 516 719 
L 516 2644 
L 63 2644 
L 63 2747 
Q 234 2816 414 2980 
Q 594 3144 734 3369 
Q 806 3488 934 3803 
L 1031 3803 
z
" transform="scale(0.015625)"/>
       <path id="TimesNewRomanPSMT-61" d="M 1822 413 
Q 1381 72 1269 19 
Q 1100 -59 909 -59 
Q 613 -59 420 144 
Q 228 347 228 678 
Q 228 888 322 1041 
Q 450 1253 767 1440 
Q 1084 1628 1822 1897 
L 1822 2009 
Q 1822 2438 1686 2597 
Q 1550 2756 1291 2756 
Q 1094 2756 978 2650 
Q 859 2544 859 2406 
L 866 2225 
Q 866 2081 792 2003 
Q 719 1925 600 1925 
Q 484 1925 411 2006 
Q 338 2088 338 2228 
Q 338 2497 613 2722 
Q 888 2947 1384 2947 
Q 1766 2947 2009 2819 
Q 2194 2722 2281 2516 
Q 2338 2381 2338 1966 
L 2338 994 
Q 2338 584 2353 492 
Q 2369 400 2405 369 
Q 2441 338 2488 338 
Q 2538 338 2575 359 
Q 2641 400 2828 588 
L 2828 413 
Q 2478 -56 2159 -56 
Q 2006 -56 1915 50 
Q 1825 156 1822 413 
z
M 1822 616 
L 1822 1706 
Q 1350 1519 1213 1441 
Q 966 1303 859 1153 
Q 753 1003 753 825 
Q 753 600 887 451 
Q 1022 303 1197 303 
Q 1434 303 1822 616 
z
" transform="scale(0.015625)"/>
       <path id="TimesNewRomanPSMT-6e" d="M 1034 2341 
Q 1538 2947 1994 2947 
Q 2228 2947 2397 2830 
Q 2566 2713 2666 2444 
Q 2734 2256 2734 1869 
L 2734 647 
Q 2734 375 2778 278 
Q 2813 200 2889 156 
Q 2966 113 3172 113 
L 3172 0 
L 1756 0 
L 1756 113 
L 1816 113 
Q 2016 113 2095 173 
Q 2175 234 2206 353 
Q 2219 400 2219 647 
L 2219 1819 
Q 2219 2209 2117 2386 
Q 2016 2563 1775 2563 
Q 1403 2563 1034 2156 
L 1034 647 
Q 1034 356 1069 288 
Q 1113 197 1189 155 
Q 1266 113 1500 113 
L 1500 0 
L 84 0 
L 84 113 
L 147 113 
Q 366 113 442 223 
Q 519 334 519 647 
L 519 1709 
Q 519 2225 495 2337 
Q 472 2450 423 2490 
Q 375 2531 294 2531 
Q 206 2531 84 2484 
L 38 2597 
L 900 2947 
L 1034 2947 
L 1034 2341 
z
" transform="scale(0.015625)"/>
       <path id="TimesNewRomanPSMT-63" d="M 2631 1088 
Q 2516 522 2178 217 
Q 1841 -88 1431 -88 
Q 944 -88 581 321 
Q 219 731 219 1428 
Q 219 2103 620 2525 
Q 1022 2947 1584 2947 
Q 2006 2947 2278 2723 
Q 2550 2500 2550 2259 
Q 2550 2141 2473 2067 
Q 2397 1994 2259 1994 
Q 2075 1994 1981 2113 
Q 1928 2178 1911 2362 
Q 1894 2547 1784 2644 
Q 1675 2738 1481 2738 
Q 1169 2738 978 2506 
Q 725 2200 725 1697 
Q 725 1184 976 792 
Q 1228 400 1656 400 
Q 1963 400 2206 609 
Q 2378 753 2541 1131 
L 2631 1088 
z
" transform="scale(0.015625)"/>
      </defs>
      <use xlink:href="#TimesNewRomanPSMT-44"/>
      <use xlink:href="#TimesNewRomanPSMT-69" x="72.216797"/>
      <use xlink:href="#TimesNewRomanPSMT-73" x="100"/>
      <use xlink:href="#TimesNewRomanPSMT-74" x="138.916016"/>
      <use xlink:href="#TimesNewRomanPSMT-61" x="166.699219"/>
      <use xlink:href="#TimesNewRomanPSMT-6e" x="211.083984"/>
      <use xlink:href="#TimesNewRomanPSMT-63" x="261.083984"/>
      <use xlink:href="#TimesNewRomanPSMT-65" x="305.46875"/>
      <use xlink:href="#TimesNewRomanPSMT-20" x="349.853516"/>
      <use xlink:href="#TimesNewRomanPSMT-28" x="374.853516"/>
      <use xlink:href="#TimesNewRomanPSMT-6d" x="408.154297"/>
      <use xlink:href="#TimesNewRomanPSMT-29" x="485.9375"/>
     </g>
    </g>
   </g>
   <g id="line2d_7">
    <path d="M 60.508194 99.568286 
L 81.471046 156.768043 
L 81.996996 155.375945 
L 139.305651 -1 
L 139.305651 -1 
" clip-path="url(#pf53c8bbc55)" style="fill: none; stroke: #fa8072; stroke-width: 1.3; stroke-linecap: square"/>
   </g>
   <g id="line2d_8">
    <path d="M 60.508194 61.867316 
L 137.597393 156.429878 
L 137.8228 156.490257 
L 138.123343 156.265265 
L 139.400649 154.763692 
L 155.17914 135.397422 
L 210.854672 66.995973 
L 210.854672 66.995973 
" clip-path="url(#pf53c8bbc55)" style="fill: none; stroke: #90ee90; stroke-width: 1.3; stroke-linecap: square"/>
   </g>
   <g id="line2d_9">
    <path d="M 60.508194 99.568286 
L 62.687128 105.214741 
L 72.454766 127.814447 
L 75.460193 135.185492 
L 78.315348 141.141046 
L 80.043468 144.286496 
L 81.245639 146.0626 
L 82.147267 147.038868 
L 82.898624 147.538208 
L 83.499709 147.696124 
L 84.100795 147.626265 
L 84.70188 147.333678 
L 85.453237 146.685566 
L 86.279729 145.662777 
L 87.256493 143.971159 
L 88.684071 140.995116 
L 89.510563 139.408181 
L 91.238684 135.968693 
L 93.718161 130.493851 
L 97.399809 121.771005 
L 105.063647 103.407941 
L 111.675586 88.334102 
L 120.241053 67.528185 
L 125.350278 54.101424 
L 145.556904 -1 
L 145.556904 -1 
" clip-path="url(#pf53c8bbc55)" style="fill: none; stroke: #ff0000; stroke-width: 1.7; stroke-linecap: square"/>
   </g>
   <g id="line2d_10">
    <path d="M 60.508194 155.770666 
L 210.854672 155.770666 
L 210.854672 155.770666 
" clip-path="url(#pf53c8bbc55)" style="fill: none; stroke-dasharray: 3.7,1.6; stroke-dashoffset: 0; stroke: #fa8072"/>
   </g>
   <g id="line2d_11">
    <path d="M 60.508194 61.867316 
L 62.236314 63.857883 
L 69.674746 68.489909 
L 71.703409 69.833171 
L 75.610464 72.778646 
L 80.344011 76.031116 
L 86.805679 79.327275 
L 89.510563 81.527103 
L 92.140312 84.305204 
L 99.127929 92.303133 
L 102.659306 95.125909 
L 109.045838 97.650451 
L 110.623687 98.427022 
L 119.790239 104.455337 
L 122.72053 107.090528 
L 124.298379 108.705462 
L 124.44865 109.506473 
L 127.003263 111.667808 
L 129.933554 113.755513 
L 133.164388 115.441339 
L 136.169815 116.997391 
L 139.024971 118.563704 
L 141.729855 119.794871 
L 144.284468 120.713864 
L 147.89098 121.805925 
L 151.87317 122.762093 
L 154.127241 123.116921 
L 157.508346 123.360611 
L 159.837552 123.25631 
L 162.166757 122.928409 
L 164.871642 122.319637 
L 167.726797 121.442157 
L 170.732224 120.276798 
L 173.887922 118.811059 
L 175.3155 117.978006 
L 178.245791 116.057227 
L 181.476625 113.662727 
L 182.453389 111.812024 
L 185.759358 109.448847 
L 189.741549 106.585131 
L 200.035136 99.06477 
L 205.294633 94.713904 
L 206.947618 93.436962 
L 209.201688 92.090773 
L 210.854672 90.758519 
L 210.854672 90.758519 
" clip-path="url(#pf53c8bbc55)" style="fill: none; stroke: #008000; stroke-width: 1.7; stroke-linecap: square"/>
   </g>
   <g id="line2d_12">
    <path d="M 60.508194 154.94681 
L 210.854672 154.94681 
L 210.854672 154.94681 
" clip-path="url(#pf53c8bbc55)" style="fill: none; stroke-dasharray: 3.7,1.6; stroke-dashoffset: 0; stroke: #90ee90"/>
   </g>
   <g id="line2d_13">
    <path d="M 60.508194 137.799914 
L 210.854672 137.799914 
L 210.854672 137.799914 
" clip-path="url(#pf53c8bbc55)" style="fill: none; stroke-dasharray: 3.7,1.6; stroke-dashoffset: 0; stroke: #000000"/>
   </g>
   <g id="patch_3">
    <path d="M 59.099375 163.609503 
L 59.099375 8.852501 
" style="fill: none; stroke: #000000; stroke-width: 0.8; stroke-linejoin: miter; stroke-linecap: square"/>
   </g>
   <g id="patch_4">
    <path d="M 210.841875 163.609503 
L 210.841875 8.852501 
" style="fill: none; stroke: #000000; stroke-width: 0.8; stroke-linejoin: miter; stroke-linecap: square"/>
   </g>
   <g id="patch_5">
    <path d="M 59.099375 163.609503 
L 210.841875 163.609503 
" style="fill: none; stroke: #000000; stroke-width: 0.8; stroke-linejoin: miter; stroke-linecap: square"/>
   </g>
   <g id="patch_6">
    <path d="M 59.099375 8.852501 
L 210.841875 8.852501 
" style="fill: none; stroke: #000000; stroke-width: 0.8; stroke-linejoin: miter; stroke-linecap: square"/>
   </g>
   <g id="text_9">
    <!-- 1 NM -->
    <g transform="translate(193.074355 134.506868) scale(0.1 -0.1)">
     <defs>
      <path id="TimesNewRomanPSMT-4e" d="M -84 4238 
L 1066 4238 
L 3656 1059 
L 3656 3503 
Q 3656 3894 3569 3991 
Q 3453 4122 3203 4122 
L 3056 4122 
L 3056 4238 
L 4531 4238 
L 4531 4122 
L 4381 4122 
Q 4113 4122 4000 3959 
Q 3931 3859 3931 3503 
L 3931 -69 
L 3819 -69 
L 1025 3344 
L 1025 734 
Q 1025 344 1109 247 
Q 1228 116 1475 116 
L 1625 116 
L 1625 0 
L 150 0 
L 150 116 
L 297 116 
Q 569 116 681 278 
Q 750 378 750 734 
L 750 3681 
Q 566 3897 470 3965 
Q 375 4034 191 4094 
Q 100 4122 -84 4122 
L -84 4238 
z
" transform="scale(0.015625)"/>
      <path id="TimesNewRomanPSMT-4d" d="M 2619 0 
L 981 3566 
L 981 734 
Q 981 344 1066 247 
Q 1181 116 1431 116 
L 1581 116 
L 1581 0 
L 106 0 
L 106 116 
L 256 116 
Q 525 116 638 278 
Q 706 378 706 734 
L 706 3503 
Q 706 3784 644 3909 
Q 600 4000 483 4061 
Q 366 4122 106 4122 
L 106 4238 
L 1306 4238 
L 2844 922 
L 4356 4238 
L 5556 4238 
L 5556 4122 
L 5409 4122 
Q 5138 4122 5025 3959 
Q 4956 3859 4956 3503 
L 4956 734 
Q 4956 344 5044 247 
Q 5159 116 5409 116 
L 5556 116 
L 5556 0 
L 3756 0 
L 3756 116 
L 3906 116 
Q 4178 116 4288 278 
Q 4356 378 4356 734 
L 4356 3566 
L 2722 0 
L 2619 0 
z
" transform="scale(0.015625)"/>
     </defs>
     <use xlink:href="#TimesNewRomanPSMT-31"/>
     <use xlink:href="#TimesNewRomanPSMT-20" x="50"/>
     <use xlink:href="#TimesNewRomanPSMT-4e" x="75"/>
     <use xlink:href="#TimesNewRomanPSMT-4d" x="147.216797"/>
    </g>
   </g>
   <g id="legend_1">
    <g id="patch_7">
     <path d="M 113.281875 52.532501 
L 202.441875 52.532501 
Q 204.841875 52.532501 204.841875 50.132501 
L 204.841875 17.252501 
Q 204.841875 14.852501 202.441875 14.852501 
L 113.281875 14.852501 
Q 110.881875 14.852501 110.881875 17.252501 
L 110.881875 50.132501 
Q 110.881875 52.532501 113.281875 52.532501 
z
" style="fill: #ffffff; opacity: 0.8; stroke: #cccccc; stroke-linejoin: miter"/>
    </g>
    <g id="line2d_14">
     <path d="M 115.681875 23.925626 
L 127.681875 23.925626 
L 139.681875 23.925626 
" style="fill: none; stroke: #ff0000; stroke-width: 1.7; stroke-linecap: square"/>
    </g>
    <g id="text_10">
     <!-- OS$\rightarrow$$TS_1$ -->
     <g transform="translate(149.281875 28.125626) scale(0.12 -0.12)">
      <defs>
       <path id="TimesNewRomanPSMT-4f" d="M 2341 4334 
Q 3166 4334 3770 3707 
Q 4375 3081 4375 2144 
Q 4375 1178 3765 540 
Q 3156 -97 2291 -97 
Q 1416 -97 820 525 
Q 225 1147 225 2134 
Q 225 3144 913 3781 
Q 1509 4334 2341 4334 
z
M 2281 4106 
Q 1713 4106 1369 3684 
Q 941 3159 941 2147 
Q 941 1109 1384 550 
Q 1725 125 2284 125 
Q 2881 125 3270 590 
Q 3659 1056 3659 2059 
Q 3659 3147 3231 3681 
Q 2888 4106 2281 4106 
z
" transform="scale(0.015625)"/>
       <path id="TimesNewRomanPSMT-53" d="M 2934 4334 
L 2934 2869 
L 2819 2869 
Q 2763 3291 2617 3541 
Q 2472 3791 2203 3937 
Q 1934 4084 1647 4084 
Q 1322 4084 1109 3886 
Q 897 3688 897 3434 
Q 897 3241 1031 3081 
Q 1225 2847 1953 2456 
Q 2547 2138 2764 1967 
Q 2981 1797 3098 1565 
Q 3216 1334 3216 1081 
Q 3216 600 2842 251 
Q 2469 -97 1881 -97 
Q 1697 -97 1534 -69 
Q 1438 -53 1133 45 
Q 828 144 747 144 
Q 669 144 623 97 
Q 578 50 556 -97 
L 441 -97 
L 441 1356 
L 556 1356 
Q 638 900 775 673 
Q 913 447 1195 297 
Q 1478 147 1816 147 
Q 2206 147 2432 353 
Q 2659 559 2659 841 
Q 2659 997 2573 1156 
Q 2488 1316 2306 1453 
Q 2184 1547 1640 1851 
Q 1097 2156 867 2337 
Q 638 2519 519 2737 
Q 400 2956 400 3219 
Q 400 3675 750 4004 
Q 1100 4334 1641 4334 
Q 1978 4334 2356 4169 
Q 2531 4091 2603 4091 
Q 2684 4091 2736 4139 
Q 2788 4188 2819 4334 
L 2934 4334 
z
" transform="scale(0.015625)"/>
       <path id="DejaVuSans-2192" d="M 5050 2147 
L 5050 1866 
L 3822 638 
L 3447 1013 
L 4175 1741 
L 366 1741 
L 366 2272 
L 4175 2272 
L 3447 3000 
L 3822 3375 
L 5050 2147 
z
" transform="scale(0.015625)"/>
       <path id="DejaVuSans-Oblique-54" d="M 378 4666 
L 4325 4666 
L 4225 4134 
L 2559 4134 
L 1759 0 
L 1125 0 
L 1925 4134 
L 275 4134 
L 378 4666 
z
" transform="scale(0.015625)"/>
       <path id="DejaVuSans-Oblique-53" d="M 3859 4513 
L 3738 3897 
Q 3422 4066 3111 4152 
Q 2800 4238 2509 4238 
Q 1944 4238 1609 3991 
Q 1275 3744 1275 3334 
Q 1275 3109 1398 2989 
Q 1522 2869 2034 2731 
L 2413 2638 
Q 3053 2472 3303 2217 
Q 3553 1963 3553 1503 
Q 3553 797 2998 353 
Q 2444 -91 1538 -91 
Q 1166 -91 791 -17 
Q 416 56 38 206 
L 166 856 
Q 513 641 861 531 
Q 1209 422 1556 422 
Q 2147 422 2503 684 
Q 2859 947 2859 1369 
Q 2859 1650 2717 1795 
Q 2575 1941 2106 2059 
L 1728 2156 
Q 1081 2325 845 2545 
Q 609 2766 609 3163 
Q 609 3859 1145 4304 
Q 1681 4750 2541 4750 
Q 2875 4750 3203 4690 
Q 3531 4631 3859 4513 
z
" transform="scale(0.015625)"/>
       <path id="DejaVuSans-31" d="M 794 531 
L 1825 531 
L 1825 4091 
L 703 3866 
L 703 4441 
L 1819 4666 
L 2450 4666 
L 2450 531 
L 3481 531 
L 3481 0 
L 794 0 
L 794 531 
z
" transform="scale(0.015625)"/>
      </defs>
      <use xlink:href="#TimesNewRomanPSMT-4f" transform="translate(0 0.78125)"/>
      <use xlink:href="#TimesNewRomanPSMT-53" transform="translate(72.216797 0.78125)"/>
      <use xlink:href="#DejaVuSans-2192" transform="translate(147.314453 0.78125)"/>
      <use xlink:href="#DejaVuSans-Oblique-54" transform="translate(250.585938 0.78125)"/>
      <use xlink:href="#DejaVuSans-Oblique-53" transform="translate(311.669922 0.78125)"/>
      <use xlink:href="#DejaVuSans-31" transform="translate(375.146484 -15.625) scale(0.7)"/>
     </g>
    </g>
    <g id="line2d_15">
     <path d="M 115.681875 40.965626 
L 127.681875 40.965626 
L 139.681875 40.965626 
" style="fill: none; stroke: #008000; stroke-width: 1.7; stroke-linecap: square"/>
    </g>
    <g id="text_11">
     <!-- $TS_2$$\rightarrow$OS -->
     <g transform="translate(149.281875 45.165626) scale(0.12 -0.12)">
      <defs>
       <path id="DejaVuSans-32" d="M 1228 531 
L 3431 531 
L 3431 0 
L 469 0 
L 469 531 
Q 828 903 1448 1529 
Q 2069 2156 2228 2338 
Q 2531 2678 2651 2914 
Q 2772 3150 2772 3378 
Q 2772 3750 2511 3984 
Q 2250 4219 1831 4219 
Q 1534 4219 1204 4116 
Q 875 4013 500 3803 
L 500 4441 
Q 881 4594 1212 4672 
Q 1544 4750 1819 4750 
Q 2544 4750 2975 4387 
Q 3406 4025 3406 3419 
Q 3406 3131 3298 2873 
Q 3191 2616 2906 2266 
Q 2828 2175 2409 1742 
Q 1991 1309 1228 531 
z
" transform="scale(0.015625)"/>
      </defs>
      <use xlink:href="#DejaVuSans-Oblique-54" transform="translate(0 0.78125)"/>
      <use xlink:href="#DejaVuSans-Oblique-53" transform="translate(61.083984 0.78125)"/>
      <use xlink:href="#DejaVuSans-32" transform="translate(124.560547 -15.625) scale(0.7)"/>
      <use xlink:href="#DejaVuSans-2192" transform="translate(191.313477 0.78125)"/>
      <use xlink:href="#TimesNewRomanPSMT-4f" transform="translate(294.584961 0.78125)"/>
      <use xlink:href="#TimesNewRomanPSMT-53" transform="translate(366.801758 0.78125)"/>
     </g>
    </g>
   </g>
  </g>
  <g id="axes_2">
   <g id="patch_8">
    <path d="M 270.351875 163.609503 
L 422.094375 163.609503 
L 422.094375 8.852501 
L 270.351875 8.852501 
z
" style="fill: #ffffff"/>
   </g>
   <g id="matplotlib.axis_3">
    <g id="xtick_4">
     <g id="line2d_16">
      <g>
       <use xlink:href="#m07ecac6c41" x="274.223344" y="163.609503" style="stroke: #000000; stroke-width: 0.8"/>
      </g>
     </g>
     <g id="text_12">
      <!-- 0 -->
      <g transform="translate(271.223344 178.942003) scale(0.12 -0.12)">
       <use xlink:href="#TimesNewRomanPSMT-30"/>
      </g>
     </g>
    </g>
    <g id="xtick_5">
     <g id="line2d_17">
      <g>
       <use xlink:href="#m07ecac6c41" x="343.696006" y="163.609503" style="stroke: #000000; stroke-width: 0.8"/>
      </g>
     </g>
     <g id="text_13">
      <!-- 1000 -->
      <g transform="translate(331.696006 178.942003) scale(0.12 -0.12)">
       <use xlink:href="#TimesNewRomanPSMT-31"/>
       <use xlink:href="#TimesNewRomanPSMT-30" x="50"/>
       <use xlink:href="#TimesNewRomanPSMT-30" x="100"/>
       <use xlink:href="#TimesNewRomanPSMT-30" x="150"/>
      </g>
     </g>
    </g>
    <g id="xtick_6">
     <g id="line2d_18">
      <g>
       <use xlink:href="#m07ecac6c41" x="413.168668" y="163.609503" style="stroke: #000000; stroke-width: 0.8"/>
      </g>
     </g>
     <g id="text_14">
      <!-- 2000 -->
      <g transform="translate(401.168668 178.942003) scale(0.12 -0.12)">
       <use xlink:href="#TimesNewRomanPSMT-32"/>
       <use xlink:href="#TimesNewRomanPSMT-30" x="50"/>
       <use xlink:href="#TimesNewRomanPSMT-30" x="100"/>
       <use xlink:href="#TimesNewRomanPSMT-30" x="150"/>
      </g>
     </g>
    </g>
    <g id="text_15">
     <!-- Time (s) -->
     <g transform="translate(325.940312 193.841378) scale(0.12 -0.12)">
      <use xlink:href="#TimesNewRomanPSMT-54"/>
      <use xlink:href="#TimesNewRomanPSMT-69" x="57.583984"/>
      <use xlink:href="#TimesNewRomanPSMT-6d" x="85.367188"/>
      <use xlink:href="#TimesNewRomanPSMT-65" x="163.150391"/>
      <use xlink:href="#TimesNewRomanPSMT-20" x="207.535156"/>
      <use xlink:href="#TimesNewRomanPSMT-28" x="232.535156"/>
      <use xlink:href="#TimesNewRomanPSMT-73" x="265.835938"/>
      <use xlink:href="#TimesNewRomanPSMT-29" x="304.751953"/>
     </g>
    </g>
   </g>
   <g id="matplotlib.axis_4">
    <g id="ytick_4">
     <g id="line2d_19">
      <g>
       <use xlink:href="#mb02aeba8bd" x="270.351875" y="155.133972" style="stroke: #000000; stroke-width: 0.8"/>
      </g>
     </g>
     <g id="text_16">
      <!-- 0 -->
      <g transform="translate(257.351875 159.300222) scale(0.12 -0.12)">
       <use xlink:href="#TimesNewRomanPSMT-30"/>
      </g>
     </g>
    </g>
    <g id="ytick_5">
     <g id="line2d_20">
      <g>
       <use xlink:href="#mb02aeba8bd" x="270.351875" y="126.914322" style="stroke: #000000; stroke-width: 0.8"/>
      </g>
     </g>
     <g id="text_17">
      <!-- 500 -->
      <g transform="translate(245.351875 131.080572) scale(0.12 -0.12)">
       <use xlink:href="#TimesNewRomanPSMT-35"/>
       <use xlink:href="#TimesNewRomanPSMT-30" x="50"/>
       <use xlink:href="#TimesNewRomanPSMT-30" x="100"/>
      </g>
     </g>
    </g>
    <g id="ytick_6">
     <g id="line2d_21">
      <g>
       <use xlink:href="#mb02aeba8bd" x="270.351875" y="98.694673" style="stroke: #000000; stroke-width: 0.8"/>
      </g>
     </g>
     <g id="text_18">
      <!-- 1000 -->
      <g transform="translate(239.351875 102.860923) scale(0.12 -0.12)">
       <use xlink:href="#TimesNewRomanPSMT-31"/>
       <use xlink:href="#TimesNewRomanPSMT-30" x="50"/>
       <use xlink:href="#TimesNewRomanPSMT-30" x="100"/>
       <use xlink:href="#TimesNewRomanPSMT-30" x="150"/>
      </g>
     </g>
    </g>
    <g id="ytick_7">
     <g id="line2d_22">
      <g>
       <use xlink:href="#mb02aeba8bd" x="270.351875" y="70.475024" style="stroke: #000000; stroke-width: 0.8"/>
      </g>
     </g>
     <g id="text_19">
      <!-- 1500 -->
      <g transform="translate(239.351875 74.641274) scale(0.12 -0.12)">
       <use xlink:href="#TimesNewRomanPSMT-31"/>
       <use xlink:href="#TimesNewRomanPSMT-35" x="50"/>
       <use xlink:href="#TimesNewRomanPSMT-30" x="100"/>
       <use xlink:href="#TimesNewRomanPSMT-30" x="150"/>
      </g>
     </g>
    </g>
    <g id="ytick_8">
     <g id="line2d_23">
      <g>
       <use xlink:href="#mb02aeba8bd" x="270.351875" y="42.255375" style="stroke: #000000; stroke-width: 0.8"/>
      </g>
     </g>
     <g id="text_20">
      <!-- 2000 -->
      <g transform="translate(239.351875 46.421625) scale(0.12 -0.12)">
       <use xlink:href="#TimesNewRomanPSMT-32"/>
       <use xlink:href="#TimesNewRomanPSMT-30" x="50"/>
       <use xlink:href="#TimesNewRomanPSMT-30" x="100"/>
       <use xlink:href="#TimesNewRomanPSMT-30" x="150"/>
      </g>
     </g>
    </g>
    <g id="ytick_9">
     <g id="line2d_24">
      <g>
       <use xlink:href="#mb02aeba8bd" x="270.351875" y="14.035726" style="stroke: #000000; stroke-width: 0.8"/>
      </g>
     </g>
     <g id="text_21">
      <!-- 2500 -->
      <g transform="translate(239.351875 18.201976) scale(0.12 -0.12)">
       <use xlink:href="#TimesNewRomanPSMT-32"/>
       <use xlink:href="#TimesNewRomanPSMT-35" x="50"/>
       <use xlink:href="#TimesNewRomanPSMT-30" x="100"/>
       <use xlink:href="#TimesNewRomanPSMT-30" x="150"/>
      </g>
     </g>
    </g>
    <g id="text_22">
     <!-- DCPA (m) -->
     <g transform="translate(232.785 111.521002) rotate(-90) scale(0.12 -0.12)">
      <defs>
       <path id="TimesNewRomanPSMT-43" d="M 3853 4334 
L 3950 2894 
L 3853 2894 
Q 3659 3541 3300 3825 
Q 2941 4109 2438 4109 
Q 2016 4109 1675 3895 
Q 1334 3681 1139 3212 
Q 944 2744 944 2047 
Q 944 1472 1128 1050 
Q 1313 628 1683 403 
Q 2053 178 2528 178 
Q 2941 178 3256 354 
Q 3572 531 3950 1056 
L 4047 994 
Q 3728 428 3303 165 
Q 2878 -97 2294 -97 
Q 1241 -97 663 684 
Q 231 1266 231 2053 
Q 231 2688 515 3219 
Q 800 3750 1298 4042 
Q 1797 4334 2388 4334 
Q 2847 4334 3294 4109 
Q 3425 4041 3481 4041 
Q 3566 4041 3628 4100 
Q 3709 4184 3744 4334 
L 3853 4334 
z
" transform="scale(0.015625)"/>
       <path id="TimesNewRomanPSMT-50" d="M 1313 1984 
L 1313 750 
Q 1313 350 1400 253 
Q 1519 116 1759 116 
L 1922 116 
L 1922 0 
L 106 0 
L 106 116 
L 266 116 
Q 534 116 650 291 
Q 713 388 713 750 
L 713 3488 
Q 713 3888 628 3984 
Q 506 4122 266 4122 
L 106 4122 
L 106 4238 
L 1659 4238 
Q 2228 4238 2556 4120 
Q 2884 4003 3109 3725 
Q 3334 3447 3334 3066 
Q 3334 2547 2992 2222 
Q 2650 1897 2025 1897 
Q 1872 1897 1694 1919 
Q 1516 1941 1313 1984 
z
M 1313 2163 
Q 1478 2131 1606 2115 
Q 1734 2100 1825 2100 
Q 2150 2100 2386 2351 
Q 2622 2603 2622 3003 
Q 2622 3278 2509 3514 
Q 2397 3750 2190 3867 
Q 1984 3984 1722 3984 
Q 1563 3984 1313 3925 
L 1313 2163 
z
" transform="scale(0.015625)"/>
       <path id="TimesNewRomanPSMT-41" d="M 2928 1419 
L 1288 1419 
L 1000 750 
Q 894 503 894 381 
Q 894 284 986 211 
Q 1078 138 1384 116 
L 1384 0 
L 50 0 
L 50 116 
Q 316 163 394 238 
Q 553 388 747 847 
L 2238 4334 
L 2347 4334 
L 3822 809 
Q 4000 384 4145 257 
Q 4291 131 4550 116 
L 4550 0 
L 2878 0 
L 2878 116 
Q 3131 128 3220 200 
Q 3309 272 3309 375 
Q 3309 513 3184 809 
L 2928 1419 
z
M 2841 1650 
L 2122 3363 
L 1384 1650 
L 2841 1650 
z
" transform="scale(0.015625)"/>
      </defs>
      <use xlink:href="#TimesNewRomanPSMT-44"/>
      <use xlink:href="#TimesNewRomanPSMT-43" x="72.216797"/>
      <use xlink:href="#TimesNewRomanPSMT-50" x="138.916016"/>
      <use xlink:href="#TimesNewRomanPSMT-41" x="185.40625"/>
      <use xlink:href="#TimesNewRomanPSMT-20" x="252.123047"/>
      <use xlink:href="#TimesNewRomanPSMT-28" x="277.123047"/>
      <use xlink:href="#TimesNewRomanPSMT-6d" x="310.423828"/>
      <use xlink:href="#TimesNewRomanPSMT-29" x="388.207031"/>
     </g>
    </g>
   </g>
   <g id="line2d_25">
    <path d="M 274.223344 155.101968 
L 293.606216 155.101968 
L 294.370416 142.837011 
L 303.225486 -1 
L 303.225486 -1 
" clip-path="url(#p37e67172da)" style="fill: none; stroke: #fa8072; stroke-width: 1.3; stroke-linecap: square"/>
   </g>
   <g id="line2d_26">
    <path d="M 274.223344 153.525499 
L 345.710713 153.484325 
L 345.919131 152.65174 
L 346.613858 147.979197 
L 352.032725 108.502401 
L 367.007534 -1 
L 367.007534 -1 
" clip-path="url(#p37e67172da)" style="fill: none; stroke: #90ee90; stroke-width: 1.3; stroke-linecap: square"/>
   </g>
   <g id="line2d_27">
    <path d="M 274.223344 155.101968 
L 275.543324 155.101968 
L 275.612797 102.199432 
L 275.68227 102.232764 
L 283.880044 106.16586 
L 284.018989 99.471245 
L 287.492622 99.487227 
L 287.631567 101.28739 
L 295.690396 105.082601 
L 295.968287 104.811399 
L 296.31565 104.037687 
L 296.732486 102.501523 
L 297.288268 99.517027 
L 297.982994 94.513434 
L 298.816666 86.133037 
L 299.997701 71.84189 
L 301.178737 57.913845 
L 302.84608 37.906126 
L 305.208151 6.589653 
L 305.757381 -1 
L 305.757381 -1 
" clip-path="url(#p37e67172da)" style="fill: none; stroke: #ff0000; stroke-width: 1.7; stroke-linecap: square"/>
   </g>
   <g id="line2d_28">
    <path d="M 274.223344 149.523527 
L 422.130641 149.523527 
L 422.130641 149.523527 
" clip-path="url(#p37e67172da)" style="fill: none; stroke-dasharray: 3.7,1.6; stroke-dashoffset: 0; stroke: #fa8072"/>
   </g>
   <g id="line2d_29">
    <path d="M 274.223344 153.525499 
L 275.543324 153.525499 
L 275.585467 -1 
M 300.438635 -1 
L 300.553483 105.181744 
L 302.56819 105.528657 
L 302.707135 70.949601 
L 306.806022 70.682518 
L 306.875495 80.145041 
L 306.944968 80.144123 
L 309.09862 80.115662 
L 309.152627 -1 
M 316.00886 -1 
L 316.045886 53.582701 
L 316.090998 -1 
M 330.850823 -1 
L 330.913036 89.377283 
L 331.051981 12.908022 
L 333.136161 12.012164 
L 333.158318 -1 
L 333.158318 -1 
" clip-path="url(#p37e67172da)" style="fill: none; stroke: #008000; stroke-width: 1.7; stroke-linecap: square"/>
   </g>
   <g id="line2d_30">
    <path d="M 274.223344 144.988834 
L 422.130641 144.988834 
L 422.130641 144.988834 
" clip-path="url(#p37e67172da)" style="fill: none; stroke-dasharray: 3.7,1.6; stroke-dashoffset: 0; stroke: #90ee90"/>
   </g>
   <g id="line2d_31">
    <path d="M 274.223344 50.608334 
L 422.130641 50.608334 
L 422.130641 50.608334 
" clip-path="url(#p37e67172da)" style="fill: none; stroke-dasharray: 3.7,1.6; stroke-dashoffset: 0; stroke: #000000"/>
   </g>
   <g id="patch_9">
    <path d="M 270.351875 163.609503 
L 270.351875 8.852501 
" style="fill: none; stroke: #000000; stroke-width: 0.8; stroke-linejoin: miter; stroke-linecap: square"/>
   </g>
   <g id="patch_10">
    <path d="M 422.094375 163.609503 
L 422.094375 8.852501 
" style="fill: none; stroke: #000000; stroke-width: 0.8; stroke-linejoin: miter; stroke-linecap: square"/>
   </g>
   <g id="patch_11">
    <path d="M 270.351875 163.609503 
L 422.094375 163.609503 
" style="fill: none; stroke: #000000; stroke-width: 0.8; stroke-linejoin: miter; stroke-linecap: square"/>
   </g>
   <g id="patch_12">
    <path d="M 270.351875 8.852501 
L 422.094375 8.852501 
" style="fill: none; stroke: #000000; stroke-width: 0.8; stroke-linejoin: miter; stroke-linecap: square"/>
   </g>
   <g id="text_23">
    <!-- 1 NM -->
    <g transform="translate(395.908033 49.561163) scale(0.1 -0.1)">
     <use xlink:href="#TimesNewRomanPSMT-31"/>
     <use xlink:href="#TimesNewRomanPSMT-20" x="50"/>
     <use xlink:href="#TimesNewRomanPSMT-4e" x="75"/>
     <use xlink:href="#TimesNewRomanPSMT-4d" x="147.216797"/>
    </g>
   </g>
   <g id="legend_2">
    <g id="patch_13">
     <path d="M 324.534375 105.071002 
L 413.694375 105.071002 
Q 416.094375 105.071002 416.094375 102.671002 
L 416.094375 69.791002 
Q 416.094375 67.391002 413.694375 67.391002 
L 324.534375 67.391002 
Q 322.134375 67.391002 322.134375 69.791002 
L 322.134375 102.671002 
Q 322.134375 105.071002 324.534375 105.071002 
z
" style="fill: #ffffff; opacity: 0.8; stroke: #cccccc; stroke-linejoin: miter"/>
    </g>
    <g id="line2d_32">
     <path d="M 326.934375 76.464127 
L 338.934375 76.464127 
L 350.934375 76.464127 
" style="fill: none; stroke: #ff0000; stroke-width: 1.7; stroke-linecap: square"/>
    </g>
    <g id="text_24">
     <!-- OS$\rightarrow$$TS_1$ -->
     <g transform="translate(360.534375 80.664127) scale(0.12 -0.12)">
      <use xlink:href="#TimesNewRomanPSMT-4f" transform="translate(0 0.78125)"/>
      <use xlink:href="#TimesNewRomanPSMT-53" transform="translate(72.216797 0.78125)"/>
      <use xlink:href="#DejaVuSans-2192" transform="translate(147.314453 0.78125)"/>
      <use xlink:href="#DejaVuSans-Oblique-54" transform="translate(250.585938 0.78125)"/>
      <use xlink:href="#DejaVuSans-Oblique-53" transform="translate(311.669922 0.78125)"/>
      <use xlink:href="#DejaVuSans-31" transform="translate(375.146484 -15.625) scale(0.7)"/>
     </g>
    </g>
    <g id="line2d_33">
     <path d="M 326.934375 93.504127 
L 338.934375 93.504127 
L 350.934375 93.504127 
" style="fill: none; stroke: #008000; stroke-width: 1.7; stroke-linecap: square"/>
    </g>
    <g id="text_25">
     <!-- $TS_2$$\rightarrow$OS -->
     <g transform="translate(360.534375 97.704127) scale(0.12 -0.12)">
      <use xlink:href="#DejaVuSans-Oblique-54" transform="translate(0 0.78125)"/>
      <use xlink:href="#DejaVuSans-Oblique-53" transform="translate(61.083984 0.78125)"/>
      <use xlink:href="#DejaVuSans-32" transform="translate(124.560547 -15.625) scale(0.7)"/>
      <use xlink:href="#DejaVuSans-2192" transform="translate(191.313477 0.78125)"/>
      <use xlink:href="#TimesNewRomanPSMT-4f" transform="translate(294.584961 0.78125)"/>
      <use xlink:href="#TimesNewRomanPSMT-53" transform="translate(366.801758 0.78125)"/>
     </g>
    </g>
   </g>
  </g>
  <g id="axes_3">
   <g id="patch_14">
    <path d="M 481.604375 163.609503 
L 633.346875 163.609503 
L 633.346875 8.852501 
L 481.604375 8.852501 
z
" style="fill: #ffffff"/>
   </g>
   <g id="matplotlib.axis_5">
    <g id="xtick_7">
     <g id="line2d_34">
      <g>
       <use xlink:href="#m07ecac6c41" x="481.604375" y="163.609503" style="stroke: #000000; stroke-width: 0.8"/>
      </g>
     </g>
     <g id="text_26">
      <!-- 0 -->
      <g transform="translate(478.604375 178.942003) scale(0.12 -0.12)">
       <use xlink:href="#TimesNewRomanPSMT-30"/>
      </g>
     </g>
    </g>
    <g id="xtick_8">
     <g id="line2d_35">
      <g>
       <use xlink:href="#m07ecac6c41" x="556.466842" y="163.609503" style="stroke: #000000; stroke-width: 0.8"/>
      </g>
     </g>
     <g id="text_27">
      <!-- 1000 -->
      <g transform="translate(544.466842 178.942003) scale(0.12 -0.12)">
       <use xlink:href="#TimesNewRomanPSMT-31"/>
       <use xlink:href="#TimesNewRomanPSMT-30" x="50"/>
       <use xlink:href="#TimesNewRomanPSMT-30" x="100"/>
       <use xlink:href="#TimesNewRomanPSMT-30" x="150"/>
      </g>
     </g>
    </g>
    <g id="xtick_9">
     <g id="line2d_36">
      <g>
       <use xlink:href="#m07ecac6c41" x="631.329309" y="163.609503" style="stroke: #000000; stroke-width: 0.8"/>
      </g>
     </g>
     <g id="text_28">
      <!-- 2000 -->
      <g transform="translate(619.329309 178.942003) scale(0.12 -0.12)">
       <use xlink:href="#TimesNewRomanPSMT-32"/>
       <use xlink:href="#TimesNewRomanPSMT-30" x="50"/>
       <use xlink:href="#TimesNewRomanPSMT-30" x="100"/>
       <use xlink:href="#TimesNewRomanPSMT-30" x="150"/>
      </g>
     </g>
    </g>
    <g id="text_29">
     <!-- Time (s) -->
     <g transform="translate(537.192812 193.841378) scale(0.12 -0.12)">
      <use xlink:href="#TimesNewRomanPSMT-54"/>
      <use xlink:href="#TimesNewRomanPSMT-69" x="57.583984"/>
      <use xlink:href="#TimesNewRomanPSMT-6d" x="85.367188"/>
      <use xlink:href="#TimesNewRomanPSMT-65" x="163.150391"/>
      <use xlink:href="#TimesNewRomanPSMT-20" x="207.535156"/>
      <use xlink:href="#TimesNewRomanPSMT-28" x="232.535156"/>
      <use xlink:href="#TimesNewRomanPSMT-73" x="265.835938"/>
      <use xlink:href="#TimesNewRomanPSMT-29" x="304.751953"/>
     </g>
    </g>
   </g>
   <g id="matplotlib.axis_6">
    <g id="ytick_10">
     <g id="line2d_37">
      <g>
       <use xlink:href="#mb02aeba8bd" x="481.604375" y="152.687931" style="stroke: #000000; stroke-width: 0.8"/>
      </g>
     </g>
     <g id="text_30">
      <!-- 0 -->
      <g transform="translate(468.604375 156.854181) scale(0.12 -0.12)">
       <use xlink:href="#TimesNewRomanPSMT-30"/>
      </g>
     </g>
    </g>
    <g id="ytick_11">
     <g id="line2d_38">
      <g>
       <use xlink:href="#mb02aeba8bd" x="481.604375" y="120.897079" style="stroke: #000000; stroke-width: 0.8"/>
      </g>
     </g>
     <g id="text_31">
      <!-- 250 -->
      <g transform="translate(456.604375 125.063329) scale(0.12 -0.12)">
       <use xlink:href="#TimesNewRomanPSMT-32"/>
       <use xlink:href="#TimesNewRomanPSMT-35" x="50"/>
       <use xlink:href="#TimesNewRomanPSMT-30" x="100"/>
      </g>
     </g>
    </g>
    <g id="ytick_12">
     <g id="line2d_39">
      <g>
       <use xlink:href="#mb02aeba8bd" x="481.604375" y="89.106227" style="stroke: #000000; stroke-width: 0.8"/>
      </g>
     </g>
     <g id="text_32">
      <!-- 500 -->
      <g transform="translate(456.604375 93.272477) scale(0.12 -0.12)">
       <use xlink:href="#TimesNewRomanPSMT-35"/>
       <use xlink:href="#TimesNewRomanPSMT-30" x="50"/>
       <use xlink:href="#TimesNewRomanPSMT-30" x="100"/>
      </g>
     </g>
    </g>
    <g id="ytick_13">
     <g id="line2d_40">
      <g>
       <use xlink:href="#mb02aeba8bd" x="481.604375" y="57.315375" style="stroke: #000000; stroke-width: 0.8"/>
      </g>
     </g>
     <g id="text_33">
      <!-- 750 -->
      <g transform="translate(456.604375 61.481625) scale(0.12 -0.12)">
       <defs>
        <path id="TimesNewRomanPSMT-37" d="M 644 4238 
L 2916 4238 
L 2916 4119 
L 1503 -88 
L 1153 -88 
L 2419 3728 
L 1253 3728 
Q 900 3728 750 3644 
Q 488 3500 328 3200 
L 238 3234 
L 644 4238 
z
" transform="scale(0.015625)"/>
       </defs>
       <use xlink:href="#TimesNewRomanPSMT-37"/>
       <use xlink:href="#TimesNewRomanPSMT-35" x="50"/>
       <use xlink:href="#TimesNewRomanPSMT-30" x="100"/>
      </g>
     </g>
    </g>
    <g id="ytick_14">
     <g id="line2d_41">
      <g>
       <use xlink:href="#mb02aeba8bd" x="481.604375" y="25.524523" style="stroke: #000000; stroke-width: 0.8"/>
      </g>
     </g>
     <g id="text_34">
      <!-- 1000 -->
      <g transform="translate(450.604375 29.690773) scale(0.12 -0.12)">
       <use xlink:href="#TimesNewRomanPSMT-31"/>
       <use xlink:href="#TimesNewRomanPSMT-30" x="50"/>
       <use xlink:href="#TimesNewRomanPSMT-30" x="100"/>
       <use xlink:href="#TimesNewRomanPSMT-30" x="150"/>
      </g>
     </g>
    </g>
    <g id="text_35">
     <!-- TCPA (s) -->
     <g transform="translate(444.0375 108.521002) rotate(-90) scale(0.12 -0.12)">
      <use xlink:href="#TimesNewRomanPSMT-54"/>
      <use xlink:href="#TimesNewRomanPSMT-43" x="61.083984"/>
      <use xlink:href="#TimesNewRomanPSMT-50" x="127.783203"/>
      <use xlink:href="#TimesNewRomanPSMT-41" x="174.273438"/>
      <use xlink:href="#TimesNewRomanPSMT-20" x="240.990234"/>
      <use xlink:href="#TimesNewRomanPSMT-28" x="265.990234"/>
      <use xlink:href="#TimesNewRomanPSMT-73" x="299.291016"/>
      <use xlink:href="#TimesNewRomanPSMT-29" x="338.207031"/>
     </g>
    </g>
   </g>
   <g id="line2d_42">
    <path d="M 481.604375 117.196232 
L 533.064773 204.608253 
L 533.064773 204.608253 
" clip-path="url(#pe7d970453b)" style="fill: none; stroke: #fa8072; stroke-width: 1.3; stroke-linecap: square"/>
   </g>
   <g id="line2d_43">
    <path d="M 481.604375 21.928449 
L 589.149942 204.608253 
L 589.149942 204.608253 
" clip-path="url(#pe7d970453b)" style="fill: none; stroke: #90ee90; stroke-width: 1.3; stroke-linecap: square"/>
   </g>
   <g id="line2d_44">
    <path d="M 481.604375 117.196232 
L 483.026762 119.612337 
L 483.176487 120.625028 
L 492.609158 134.288756 
L 495.903106 139.878399 
L 495.977969 139.200158 
L 496.127694 140.198379 
L 507.132476 156.612385 
L 507.207339 156.361592 
L 507.282201 156.488186 
L 509.752663 160.665784 
L 509.827525 162.221595 
L 509.902388 159.669492 
L 509.97725 159.794381 
L 523.227907 182.111538 
L 523.302769 185.424999 
L 523.377632 182.133221 
L 523.452494 182.241327 
L 530.938741 193.051881 
L 531.163328 193.709592 
L 538.07502 204.608253 
L 538.07502 204.608253 
" clip-path="url(#pe7d970453b)" style="fill: none; stroke: #ff0000; stroke-width: 1.7; stroke-linecap: square"/>
   </g>
   <g id="line2d_45">
    <path d="M 481.604375 152.687931 
L 633.350596 152.687931 
L 633.350596 152.687931 
" clip-path="url(#pe7d970453b)" style="fill: none; stroke-dasharray: 3.7,1.6; stroke-dashoffset: 0; stroke: #fa8072"/>
   </g>
   <g id="line2d_46">
    <path d="M 481.604375 21.928449 
L 483.026762 24.344554 
L 483.176487 36.076353 
L 487.51851 40.385836 
L 487.668235 52.050999 
L 492.010258 56.274057 
L 492.159983 61.253935 
L 495.903106 67.142142 
L 495.977969 52.243247 
L 496.127694 65.332914 
L 496.502006 65.748112 
L 496.576868 60.028445 
L 496.651731 60.119641 
L 500.769167 65.13542 
L 500.844029 60.16762 
L 500.993754 66.384296 
L 507.132476 72.243757 
L 507.207339 66.002116 
L 507.282201 66.106979 
L 509.752663 69.567466 
L 509.827525 13.771622 
L 509.97725 52.522794 
L 512.148262 55.428348 
L 512.223124 54.959592 
L 512.297987 55.081854 
L 516.714872 62.295282 
L 516.789735 61.47366 
L 516.864597 61.601016 
L 519.185334 65.549054 
L 519.260196 54.266427 
L 519.335058 54.392985 
L 523.227907 60.973997 
L 523.302769 48.487822 
L 523.452494 69.206853 
L 526.596718 72.452403 
L 526.67158 36.079864 
L 526.821305 74.660857 
L 530.938741 78.110904 
L 531.013603 72.921118 
L 531.088466 73.008345 
L 539.69765 83.055907 
L 539.772512 82.726195 
L 539.847375 82.851864 
L 542.617286 87.501603 
L 542.692148 51.13313 
L 542.841873 89.157078 
L 545.087747 93.29504 
L 545.16261 74.230245 
L 545.312335 107.968786 
L 546.884446 110.893226 
L 546.959309 85.008045 
L 547.109034 112.635758 
L 550.402982 118.495417 
L 550.552707 121.691365 
L 555.718218 130.457306 
L 555.79308 124.7968 
L 555.867943 124.923734 
L 562.605565 136.347847 
L 562.680427 129.536541 
L 562.830152 140.819568 
L 571.364473 151.072659 
L 571.439336 143.177627 
L 571.514198 143.304164 
L 574.957872 149.124845 
L 575.032734 144.904959 
L 575.182459 148.087955 
L 582.219531 159.195712 
L 582.369256 161.917228 
L 594.571838 179.051213 
L 594.646701 175.010943 
L 594.721563 175.137699 
L 601.983222 187.433081 
L 602.058085 202.006023 
L 602.132947 189.267011 
L 602.20781 189.565992 
L 602.881572 192.256819 
L 602.956434 184.403178 
L 603.031297 184.530278 
L 607.37332 191.902057 
L 607.523045 194.066407 
L 614.185804 203.161929 
L 614.260667 194.625401 
L 614.335529 194.752315 
L 619.725627 203.890135 
L 619.729216 204.608253 
L 619.729216 204.608253 
" clip-path="url(#pe7d970453b)" style="fill: none; stroke: #008000; stroke-width: 1.7; stroke-linecap: square"/>
   </g>
   <g id="line2d_47">
    <path d="M 481.604375 152.687931 
L 633.350596 152.687931 
L 633.350596 152.687931 
" clip-path="url(#pe7d970453b)" style="fill: none; stroke-dasharray: 3.7,1.6; stroke-dashoffset: 0; stroke: #90ee90"/>
   </g>
   <g id="line2d_48">
    <path d="M 481.604375 76.389886 
L 633.350596 76.389886 
L 633.350596 76.389886 
" clip-path="url(#pe7d970453b)" style="fill: none; stroke-dasharray: 3.7,1.6; stroke-dashoffset: 0; stroke: #000000"/>
   </g>
   <g id="patch_15">
    <path d="M 481.604375 163.609503 
L 481.604375 8.852501 
" style="fill: none; stroke: #000000; stroke-width: 0.8; stroke-linejoin: miter; stroke-linecap: square"/>
   </g>
   <g id="patch_16">
    <path d="M 633.346875 163.609503 
L 633.346875 8.852501 
" style="fill: none; stroke: #000000; stroke-width: 0.8; stroke-linejoin: miter; stroke-linecap: square"/>
   </g>
   <g id="patch_17">
    <path d="M 481.604375 163.609503 
L 633.346875 163.609503 
" style="fill: none; stroke: #000000; stroke-width: 0.8; stroke-linejoin: miter; stroke-linecap: square"/>
   </g>
   <g id="patch_18">
    <path d="M 481.604375 8.852501 
L 633.346875 8.852501 
" style="fill: none; stroke: #000000; stroke-width: 0.8; stroke-linejoin: miter; stroke-linecap: square"/>
   </g>
   <g id="text_36">
    <!-- 10 min -->
    <g transform="translate(611.424481 74.095677) scale(0.1 -0.1)">
     <use xlink:href="#TimesNewRomanPSMT-31"/>
     <use xlink:href="#TimesNewRomanPSMT-30" x="50"/>
     <use xlink:href="#TimesNewRomanPSMT-20" x="100"/>
     <use xlink:href="#TimesNewRomanPSMT-6d" x="125"/>
     <use xlink:href="#TimesNewRomanPSMT-69" x="202.783203"/>
     <use xlink:href="#TimesNewRomanPSMT-6e" x="230.566406"/>
    </g>
   </g>
   <g id="legend_3">
    <g id="patch_19">
     <path d="M 535.786875 52.532501 
L 624.946875 52.532501 
Q 627.346875 52.532501 627.346875 50.132501 
L 627.346875 17.252501 
Q 627.346875 14.852501 624.946875 14.852501 
L 535.786875 14.852501 
Q 533.386875 14.852501 533.386875 17.252501 
L 533.386875 50.132501 
Q 533.386875 52.532501 535.786875 52.532501 
z
" style="fill: #ffffff; opacity: 0.8; stroke: #cccccc; stroke-linejoin: miter"/>
    </g>
    <g id="line2d_49">
     <path d="M 538.186875 23.925626 
L 550.186875 23.925626 
L 562.186875 23.925626 
" style="fill: none; stroke: #ff0000; stroke-width: 1.7; stroke-linecap: square"/>
    </g>
    <g id="text_37">
     <!-- OS$\rightarrow$$TS_1$ -->
     <g transform="translate(571.786875 28.125626) scale(0.12 -0.12)">
      <use xlink:href="#TimesNewRomanPSMT-4f" transform="translate(0 0.78125)"/>
      <use xlink:href="#TimesNewRomanPSMT-53" transform="translate(72.216797 0.78125)"/>
      <use xlink:href="#DejaVuSans-2192" transform="translate(147.314453 0.78125)"/>
      <use xlink:href="#DejaVuSans-Oblique-54" transform="translate(250.585938 0.78125)"/>
      <use xlink:href="#DejaVuSans-Oblique-53" transform="translate(311.669922 0.78125)"/>
      <use xlink:href="#DejaVuSans-31" transform="translate(375.146484 -15.625) scale(0.7)"/>
     </g>
    </g>
    <g id="line2d_50">
     <path d="M 538.186875 40.965626 
L 550.186875 40.965626 
L 562.186875 40.965626 
" style="fill: none; stroke: #008000; stroke-width: 1.7; stroke-linecap: square"/>
    </g>
    <g id="text_38">
     <!-- $TS_2$$\rightarrow$OS -->
     <g transform="translate(571.786875 45.165626) scale(0.12 -0.12)">
      <use xlink:href="#DejaVuSans-Oblique-54" transform="translate(0 0.78125)"/>
      <use xlink:href="#DejaVuSans-Oblique-53" transform="translate(61.083984 0.78125)"/>
      <use xlink:href="#DejaVuSans-32" transform="translate(124.560547 -15.625) scale(0.7)"/>
      <use xlink:href="#DejaVuSans-2192" transform="translate(191.313477 0.78125)"/>
      <use xlink:href="#TimesNewRomanPSMT-4f" transform="translate(294.584961 0.78125)"/>
      <use xlink:href="#TimesNewRomanPSMT-53" transform="translate(366.801758 0.78125)"/>
     </g>
    </g>
   </g>
  </g>
  <g id="axes_4">
   <g id="patch_20">
    <path d="M 692.856875 62.289184 
L 844.599375 62.289184 
L 844.599375 8.852501 
L 692.856875 8.852501 
z
" style="fill: #ffffff"/>
   </g>
   <g id="matplotlib.axis_7">
    <g id="xtick_10">
     <g id="line2d_51">
      <g>
       <use xlink:href="#m07ecac6c41" x="692.856875" y="62.289184" style="stroke: #000000; stroke-width: 0.8"/>
      </g>
     </g>
     <g id="text_39">
      <!-- 0 -->
      <g transform="translate(689.856875 77.621684) scale(0.12 -0.12)">
       <use xlink:href="#TimesNewRomanPSMT-30"/>
      </g>
     </g>
    </g>
    <g id="xtick_11">
     <g id="line2d_52">
      <g>
       <use xlink:href="#m07ecac6c41" x="767.321595" y="62.289184" style="stroke: #000000; stroke-width: 0.8"/>
      </g>
     </g>
     <g id="text_40">
      <!-- 1000 -->
      <g transform="translate(755.321595 77.621684) scale(0.12 -0.12)">
       <use xlink:href="#TimesNewRomanPSMT-31"/>
       <use xlink:href="#TimesNewRomanPSMT-30" x="50"/>
       <use xlink:href="#TimesNewRomanPSMT-30" x="100"/>
       <use xlink:href="#TimesNewRomanPSMT-30" x="150"/>
      </g>
     </g>
    </g>
    <g id="xtick_12">
     <g id="line2d_53">
      <g>
       <use xlink:href="#m07ecac6c41" x="841.786316" y="62.289184" style="stroke: #000000; stroke-width: 0.8"/>
      </g>
     </g>
     <g id="text_41">
      <!-- 2000 -->
      <g transform="translate(829.786316 77.621684) scale(0.12 -0.12)">
       <use xlink:href="#TimesNewRomanPSMT-32"/>
       <use xlink:href="#TimesNewRomanPSMT-30" x="50"/>
       <use xlink:href="#TimesNewRomanPSMT-30" x="100"/>
       <use xlink:href="#TimesNewRomanPSMT-30" x="150"/>
      </g>
     </g>
    </g>
    <g id="text_42">
     <!-- Time (s) -->
     <g transform="translate(748.445312 92.521059) scale(0.12 -0.12)">
      <use xlink:href="#TimesNewRomanPSMT-54"/>
      <use xlink:href="#TimesNewRomanPSMT-69" x="57.583984"/>
      <use xlink:href="#TimesNewRomanPSMT-6d" x="85.367188"/>
      <use xlink:href="#TimesNewRomanPSMT-65" x="163.150391"/>
      <use xlink:href="#TimesNewRomanPSMT-20" x="207.535156"/>
      <use xlink:href="#TimesNewRomanPSMT-28" x="232.535156"/>
      <use xlink:href="#TimesNewRomanPSMT-73" x="265.835938"/>
      <use xlink:href="#TimesNewRomanPSMT-29" x="304.751953"/>
     </g>
    </g>
   </g>
   <g id="matplotlib.axis_8">
    <g id="ytick_15">
     <g id="line2d_54">
      <g>
       <use xlink:href="#mb02aeba8bd" x="692.856875" y="61.641231" style="stroke: #000000; stroke-width: 0.8"/>
      </g>
     </g>
     <g id="text_43">
      <!-- 0 -->
      <g transform="translate(679.856875 65.807481) scale(0.12 -0.12)">
       <use xlink:href="#TimesNewRomanPSMT-30"/>
      </g>
     </g>
    </g>
    <g id="ytick_16">
     <g id="line2d_55">
      <g>
       <use xlink:href="#mb02aeba8bd" x="692.856875" y="11.36625" style="stroke: #000000; stroke-width: 0.8"/>
      </g>
     </g>
     <g id="text_44">
      <!-- 1 -->
      <g transform="translate(679.856875 15.5325) scale(0.12 -0.12)">
       <use xlink:href="#TimesNewRomanPSMT-31"/>
      </g>
     </g>
    </g>
    <g id="text_45">
     <!-- Proximity index -->
     <g transform="translate(673.2675 74.40303) rotate(-90) scale(0.12 -0.12)">
      <defs>
       <path id="TimesNewRomanPSMT-72" d="M 1038 2947 
L 1038 2303 
Q 1397 2947 1775 2947 
Q 1947 2947 2059 2842 
Q 2172 2738 2172 2600 
Q 2172 2478 2090 2393 
Q 2009 2309 1897 2309 
Q 1788 2309 1652 2417 
Q 1516 2525 1450 2525 
Q 1394 2525 1328 2463 
Q 1188 2334 1038 2041 
L 1038 669 
Q 1038 431 1097 309 
Q 1138 225 1241 169 
Q 1344 113 1538 113 
L 1538 0 
L 72 0 
L 72 113 
Q 291 113 397 181 
Q 475 231 506 341 
Q 522 394 522 644 
L 522 1753 
Q 522 2253 501 2348 
Q 481 2444 426 2487 
Q 372 2531 291 2531 
Q 194 2531 72 2484 
L 41 2597 
L 906 2947 
L 1038 2947 
z
" transform="scale(0.015625)"/>
       <path id="TimesNewRomanPSMT-6f" d="M 1600 2947 
Q 2250 2947 2644 2453 
Q 2978 2031 2978 1484 
Q 2978 1100 2793 706 
Q 2609 313 2286 112 
Q 1963 -88 1566 -88 
Q 919 -88 538 428 
Q 216 863 216 1403 
Q 216 1797 411 2186 
Q 606 2575 925 2761 
Q 1244 2947 1600 2947 
z
M 1503 2744 
Q 1338 2744 1170 2645 
Q 1003 2547 900 2300 
Q 797 2053 797 1666 
Q 797 1041 1045 587 
Q 1294 134 1700 134 
Q 2003 134 2200 384 
Q 2397 634 2397 1244 
Q 2397 2006 2069 2444 
Q 1847 2744 1503 2744 
z
" transform="scale(0.015625)"/>
       <path id="TimesNewRomanPSMT-78" d="M 84 2863 
L 1431 2863 
L 1431 2747 
Q 1303 2747 1251 2703 
Q 1200 2659 1200 2588 
Q 1200 2513 1309 2356 
Q 1344 2306 1413 2200 
L 1616 1875 
L 1850 2200 
Q 2075 2509 2075 2591 
Q 2075 2656 2022 2701 
Q 1969 2747 1850 2747 
L 1850 2863 
L 2819 2863 
L 2819 2747 
Q 2666 2738 2553 2663 
Q 2400 2556 2134 2200 
L 1744 1678 
L 2456 653 
Q 2719 275 2831 198 
Q 2944 122 3122 113 
L 3122 0 
L 1772 0 
L 1772 113 
Q 1913 113 1991 175 
Q 2050 219 2050 291 
Q 2050 363 1850 653 
L 1431 1266 
L 972 653 
Q 759 369 759 316 
Q 759 241 829 180 
Q 900 119 1041 113 
L 1041 0 
L 106 0 
L 106 113 
Q 219 128 303 191 
Q 422 281 703 653 
L 1303 1450 
L 759 2238 
Q 528 2575 401 2661 
Q 275 2747 84 2747 
L 84 2863 
z
" transform="scale(0.015625)"/>
       <path id="TimesNewRomanPSMT-79" d="M 38 2863 
L 1372 2863 
L 1372 2747 
L 1306 2747 
Q 1166 2747 1095 2686 
Q 1025 2625 1025 2534 
Q 1025 2413 1128 2197 
L 1825 753 
L 2466 2334 
Q 2519 2463 2519 2588 
Q 2519 2644 2497 2672 
Q 2472 2706 2419 2726 
Q 2366 2747 2231 2747 
L 2231 2863 
L 3163 2863 
L 3163 2747 
Q 3047 2734 2984 2696 
Q 2922 2659 2847 2556 
Q 2819 2513 2741 2316 
L 1575 -541 
Q 1406 -956 1132 -1168 
Q 859 -1381 606 -1381 
Q 422 -1381 303 -1275 
Q 184 -1169 184 -1031 
Q 184 -900 270 -820 
Q 356 -741 506 -741 
Q 609 -741 788 -809 
Q 913 -856 944 -856 
Q 1038 -856 1148 -759 
Q 1259 -663 1372 -384 
L 1575 113 
L 547 2272 
Q 500 2369 397 2513 
Q 319 2622 269 2659 
Q 197 2709 38 2747 
L 38 2863 
z
" transform="scale(0.015625)"/>
       <path id="TimesNewRomanPSMT-64" d="M 2222 322 
Q 2013 103 1813 7 
Q 1613 -88 1381 -88 
Q 913 -88 563 304 
Q 213 697 213 1313 
Q 213 1928 600 2439 
Q 988 2950 1597 2950 
Q 1975 2950 2222 2709 
L 2222 3238 
Q 2222 3728 2198 3840 
Q 2175 3953 2125 3993 
Q 2075 4034 2000 4034 
Q 1919 4034 1784 3984 
L 1744 4094 
L 2597 4444 
L 2738 4444 
L 2738 1134 
Q 2738 631 2761 520 
Q 2784 409 2836 365 
Q 2888 322 2956 322 
Q 3041 322 3181 375 
L 3216 266 
L 2366 -88 
L 2222 -88 
L 2222 322 
z
M 2222 541 
L 2222 2016 
Q 2203 2228 2109 2403 
Q 2016 2578 1861 2667 
Q 1706 2756 1559 2756 
Q 1284 2756 1069 2509 
Q 784 2184 784 1559 
Q 784 928 1059 592 
Q 1334 256 1672 256 
Q 1956 256 2222 541 
z
" transform="scale(0.015625)"/>
      </defs>
      <use xlink:href="#TimesNewRomanPSMT-50"/>
      <use xlink:href="#TimesNewRomanPSMT-72" x="55.615234"/>
      <use xlink:href="#TimesNewRomanPSMT-6f" x="88.916016"/>
      <use xlink:href="#TimesNewRomanPSMT-78" x="138.916016"/>
      <use xlink:href="#TimesNewRomanPSMT-69" x="188.916016"/>
      <use xlink:href="#TimesNewRomanPSMT-6d" x="216.699219"/>
      <use xlink:href="#TimesNewRomanPSMT-69" x="294.482422"/>
      <use xlink:href="#TimesNewRomanPSMT-74" x="322.265625"/>
      <use xlink:href="#TimesNewRomanPSMT-79" x="350.048828"/>
      <use xlink:href="#TimesNewRomanPSMT-20" x="400.048828"/>
      <use xlink:href="#TimesNewRomanPSMT-69" x="425.048828"/>
      <use xlink:href="#TimesNewRomanPSMT-6e" x="452.832031"/>
      <use xlink:href="#TimesNewRomanPSMT-64" x="502.832031"/>
      <use xlink:href="#TimesNewRomanPSMT-65" x="552.832031"/>
      <use xlink:href="#TimesNewRomanPSMT-78" x="597.216797"/>
     </g>
    </g>
   </g>
   <g id="line2d_56">
    <path d="M 692.856875 29.388834 
L 695.016352 29.388834 
L 695.165281 27.451036 
L 697.250294 27.451036 
L 697.399223 25.525819 
L 699.484235 25.525819 
L 699.633165 23.606822 
L 701.718177 23.606822 
L 701.867106 21.688695 
L 703.952118 21.688695 
L 704.101048 19.766853 
L 706.18606 19.766853 
L 706.334989 17.837296 
L 708.420002 17.837296 
L 708.568931 15.896481 
L 710.653943 15.896481 
L 710.802873 13.941228 
L 712.887885 13.941228 
L 713.036814 11.968641 
L 715.121826 11.968641 
L 715.270756 61.641231 
L 726.291534 61.641231 
L 726.440464 54.277298 
L 728.525476 54.277298 
L 728.674406 50.133537 
L 730.759418 50.133537 
L 730.908347 46.990773 
L 732.993359 46.990773 
L 733.142289 44.290157 
L 735.227301 44.290157 
L 735.37623 41.844397 
L 737.461243 41.844397 
L 737.610172 39.563465 
L 739.695184 39.563465 
L 739.844114 37.395862 
L 741.929126 37.395862 
L 742.078055 35.308813 
L 744.163067 35.308813 
L 744.311997 33.279872 
L 746.397009 33.279872 
L 746.545938 31.29281 
L 748.630951 31.29281 
L 748.77988 29.335382 
L 750.864892 29.335382 
L 751.013822 27.398025 
L 753.098834 27.398025 
L 753.247763 25.473059 
L 755.332775 25.473059 
L 755.481705 23.554153 
L 757.566717 23.554153 
L 757.715646 21.635983 
L 759.800659 21.635983 
L 759.949588 19.71398 
L 762.0346 19.71398 
L 762.18353 17.784159 
L 764.268542 17.784159 
L 764.417471 15.842988 
L 766.502483 15.842988 
L 766.651413 13.887296 
L 768.736425 13.887296 
L 768.885355 11.914195 
L 770.970367 11.914195 
L 771.119296 61.641231 
L 844.615975 61.641231 
L 844.615975 61.641231 
" clip-path="url(#pf4f84cdd18)" style="fill: none; stroke: #add8e6; stroke-width: 1.3; stroke-linecap: square"/>
   </g>
   <g id="line2d_57">
    <path d="M 692.856875 29.388834 
L 695.016352 29.388834 
L 695.165281 39.784979 
L 697.250294 39.784979 
L 697.399223 38.476582 
L 699.484235 38.476582 
L 699.633165 37.146313 
L 701.718177 37.146313 
L 701.867106 35.792184 
L 703.952118 35.792184 
L 704.101048 36.599778 
L 706.18606 36.599778 
L 706.334989 35.423355 
L 708.420002 35.423355 
L 708.568931 33.5017 
L 710.653943 33.5017 
L 710.802873 32.060015 
L 712.887885 32.060015 
L 713.036814 30.584431 
L 715.121826 30.584431 
L 715.270756 29.07344 
L 717.355768 29.07344 
L 717.504697 61.641231 
L 844.615975 61.641231 
L 844.615975 61.641231 
" clip-path="url(#pf4f84cdd18)" style="fill: none; stroke: #0000ff; stroke-width: 1.7; stroke-linecap: square"/>
   </g>
   <g id="patch_21">
    <path d="M 692.856875 62.289184 
L 692.856875 8.852501 
" style="fill: none; stroke: #000000; stroke-width: 0.8; stroke-linejoin: miter; stroke-linecap: square"/>
   </g>
   <g id="patch_22">
    <path d="M 844.599375 62.289184 
L 844.599375 8.852501 
" style="fill: none; stroke: #000000; stroke-width: 0.8; stroke-linejoin: miter; stroke-linecap: square"/>
   </g>
   <g id="patch_23">
    <path d="M 692.856875 62.289184 
L 844.599375 62.289184 
" style="fill: none; stroke: #000000; stroke-width: 0.8; stroke-linejoin: miter; stroke-linecap: square"/>
   </g>
   <g id="patch_24">
    <path d="M 692.856875 8.852501 
L 844.599375 8.852501 
" style="fill: none; stroke: #000000; stroke-width: 0.8; stroke-linejoin: miter; stroke-linecap: square"/>
   </g>
   <g id="legend_4">
    <g id="patch_25">
     <path d="M 782.46 35.419376 
L 836.199375 35.419376 
Q 838.599375 35.419376 838.599375 33.019376 
L 838.599375 17.252501 
Q 838.599375 14.852501 836.199375 14.852501 
L 782.46 14.852501 
Q 780.06 14.852501 780.06 17.252501 
L 780.06 33.019376 
Q 780.06 35.419376 782.46 35.419376 
z
" style="fill: #ffffff; opacity: 0.8; stroke: #cccccc; stroke-linejoin: miter"/>
    </g>
    <g id="line2d_58">
     <path d="M 784.86 23.852501 
L 796.86 23.852501 
L 808.86 23.852501 
" style="fill: none; stroke: #0000ff; stroke-width: 1.7; stroke-linecap: square"/>
    </g>
    <g id="text_46">
     <!-- OS -->
     <g transform="translate(818.46 28.052501) scale(0.12 -0.12)">
      <use xlink:href="#TimesNewRomanPSMT-4f"/>
      <use xlink:href="#TimesNewRomanPSMT-53" x="72.216797"/>
     </g>
    </g>
   </g>
  </g>
  <g id="axes_5">
   <g id="patch_26">
    <path d="M 692.856875 163.609503 
L 844.599375 163.609503 
L 844.599375 110.17282 
L 692.856875 110.17282 
z
" style="fill: #ffffff"/>
   </g>
   <g id="matplotlib.axis_9">
    <g id="xtick_13">
     <g id="line2d_59">
      <g>
       <use xlink:href="#m07ecac6c41" x="692.856875" y="163.609503" style="stroke: #000000; stroke-width: 0.8"/>
      </g>
     </g>
     <g id="text_47">
      <!-- 0 -->
      <g transform="translate(689.856875 178.942003) scale(0.12 -0.12)">
       <use xlink:href="#TimesNewRomanPSMT-30"/>
      </g>
     </g>
    </g>
    <g id="xtick_14">
     <g id="line2d_60">
      <g>
       <use xlink:href="#m07ecac6c41" x="767.993942" y="163.609503" style="stroke: #000000; stroke-width: 0.8"/>
      </g>
     </g>
     <g id="text_48">
      <!-- 1000 -->
      <g transform="translate(755.993942 178.942003) scale(0.12 -0.12)">
       <use xlink:href="#TimesNewRomanPSMT-31"/>
       <use xlink:href="#TimesNewRomanPSMT-30" x="50"/>
       <use xlink:href="#TimesNewRomanPSMT-30" x="100"/>
       <use xlink:href="#TimesNewRomanPSMT-30" x="150"/>
      </g>
     </g>
    </g>
    <g id="xtick_15">
     <g id="line2d_61">
      <g>
       <use xlink:href="#m07ecac6c41" x="843.131009" y="163.609503" style="stroke: #000000; stroke-width: 0.8"/>
      </g>
     </g>
     <g id="text_49">
      <!-- 2000 -->
      <g transform="translate(831.131009 178.942003) scale(0.12 -0.12)">
       <use xlink:href="#TimesNewRomanPSMT-32"/>
       <use xlink:href="#TimesNewRomanPSMT-30" x="50"/>
       <use xlink:href="#TimesNewRomanPSMT-30" x="100"/>
       <use xlink:href="#TimesNewRomanPSMT-30" x="150"/>
      </g>
     </g>
    </g>
   </g>
   <g id="matplotlib.axis_10">
    <g id="ytick_17">
     <g id="line2d_62">
      <g>
       <use xlink:href="#mb02aeba8bd" x="692.856875" y="161.669475" style="stroke: #000000; stroke-width: 0.8"/>
      </g>
     </g>
     <g id="text_50">
      <!-- 0 -->
      <g transform="translate(679.856875 165.835725) scale(0.12 -0.12)">
       <use xlink:href="#TimesNewRomanPSMT-30"/>
      </g>
     </g>
    </g>
    <g id="ytick_18">
     <g id="line2d_63">
      <g>
       <use xlink:href="#mb02aeba8bd" x="692.856875" y="112.625042" style="stroke: #000000; stroke-width: 0.8"/>
      </g>
     </g>
     <g id="text_51">
      <!-- 1 -->
      <g transform="translate(679.856875 116.791292) scale(0.12 -0.12)">
       <use xlink:href="#TimesNewRomanPSMT-31"/>
      </g>
     </g>
    </g>
    <g id="text_52">
     <!-- DS-based index -->
     <g transform="translate(673.29 175.051161) rotate(-90) scale(0.12 -0.12)">
      <defs>
       <path id="TimesNewRomanPSMT-2d" d="M 259 1672 
L 1875 1672 
L 1875 1200 
L 259 1200 
L 259 1672 
z
" transform="scale(0.015625)"/>
       <path id="TimesNewRomanPSMT-62" d="M 984 2369 
Q 1400 2947 1881 2947 
Q 2322 2947 2650 2570 
Q 2978 2194 2978 1541 
Q 2978 778 2472 313 
Q 2038 -88 1503 -88 
Q 1253 -88 995 3 
Q 738 94 469 275 
L 469 3241 
Q 469 3728 445 3840 
Q 422 3953 372 3993 
Q 322 4034 247 4034 
Q 159 4034 28 3984 
L -16 4094 
L 844 4444 
L 984 4444 
L 984 2369 
z
M 984 2169 
L 984 456 
Q 1144 300 1314 220 
Q 1484 141 1663 141 
Q 1947 141 2192 453 
Q 2438 766 2438 1363 
Q 2438 1913 2192 2208 
Q 1947 2503 1634 2503 
Q 1469 2503 1303 2419 
Q 1178 2356 984 2169 
z
" transform="scale(0.015625)"/>
      </defs>
      <use xlink:href="#TimesNewRomanPSMT-44"/>
      <use xlink:href="#TimesNewRomanPSMT-53" x="72.216797"/>
      <use xlink:href="#TimesNewRomanPSMT-2d" x="127.832031"/>
      <use xlink:href="#TimesNewRomanPSMT-62" x="161.132812"/>
      <use xlink:href="#TimesNewRomanPSMT-61" x="211.132812"/>
      <use xlink:href="#TimesNewRomanPSMT-73" x="255.517578"/>
      <use xlink:href="#TimesNewRomanPSMT-65" x="294.433594"/>
      <use xlink:href="#TimesNewRomanPSMT-64" x="338.818359"/>
      <use xlink:href="#TimesNewRomanPSMT-20" x="388.818359"/>
      <use xlink:href="#TimesNewRomanPSMT-69" x="413.818359"/>
      <use xlink:href="#TimesNewRomanPSMT-6e" x="441.601562"/>
      <use xlink:href="#TimesNewRomanPSMT-64" x="491.601562"/>
      <use xlink:href="#TimesNewRomanPSMT-65" x="541.601562"/>
      <use xlink:href="#TimesNewRomanPSMT-78" x="585.986328"/>
     </g>
    </g>
   </g>
   <g id="line2d_64">
    <path d="M 692.856875 118.619361 
L 695.03585 118.619361 
L 695.186124 115.894671 
L 697.289962 115.894671 
L 697.440236 112.625042 
L 722.085194 112.625042 
L 722.235468 145.5938 
L 724.339306 145.5938 
L 724.48958 144.776393 
L 726.593418 144.776393 
L 726.743692 143.686516 
L 728.84753 143.686516 
L 728.997804 142.869109 
L 731.101642 142.869109 
L 731.251916 141.779233 
L 733.355754 141.779233 
L 733.506028 140.416887 
L 735.609866 140.416887 
L 735.76014 139.054542 
L 737.863978 139.054542 
L 738.014252 137.419728 
L 740.11809 137.419728 
L 740.268364 135.512444 
L 742.372202 135.512444 
L 742.522476 133.332691 
L 744.626314 133.332691 
L 744.776588 130.335532 
L 746.880426 130.335532 
L 747.0307 127.065903 
L 749.134538 127.065903 
L 749.284812 122.433928 
L 751.38865 122.433928 
L 751.538924 116.439609 
L 753.642762 116.439609 
L 753.793036 112.625042 
L 787.454442 112.625042 
L 787.604716 161.669475 
L 844.63375 161.669475 
L 844.63375 161.669475 
" clip-path="url(#pe51cbd2348)" style="fill: none; stroke: #add8e6; stroke-width: 1.3; stroke-linecap: square"/>
   </g>
   <g id="line2d_65">
    <path d="M 692.856875 118.619361 
L 695.03585 118.619361 
L 695.186124 125.976026 
L 697.289962 125.976026 
L 697.440236 124.341212 
L 699.544074 124.341212 
L 699.694348 121.88899 
L 701.798186 121.88899 
L 701.94846 118.074423 
L 704.052298 118.074423 
L 704.202572 112.625042 
L 724.339306 112.625042 
L 724.48958 148.863429 
L 726.593418 148.863429 
L 726.743692 148.59096 
L 728.84753 148.59096 
L 728.997804 147.773552 
L 731.101642 147.773552 
L 731.251916 161.669475 
L 844.63375 161.669475 
L 844.63375 161.669475 
" clip-path="url(#pe51cbd2348)" style="fill: none; stroke: #0000ff; stroke-width: 1.7; stroke-linecap: square"/>
   </g>
   <g id="patch_27">
    <path d="M 692.856875 163.609503 
L 692.856875 110.17282 
" style="fill: none; stroke: #000000; stroke-width: 0.8; stroke-linejoin: miter; stroke-linecap: square"/>
   </g>
   <g id="patch_28">
    <path d="M 844.599375 163.609503 
L 844.599375 110.17282 
" style="fill: none; stroke: #000000; stroke-width: 0.8; stroke-linejoin: miter; stroke-linecap: square"/>
   </g>
   <g id="patch_29">
    <path d="M 692.856875 163.609503 
L 844.599375 163.609503 
" style="fill: none; stroke: #000000; stroke-width: 0.8; stroke-linejoin: miter; stroke-linecap: square"/>
   </g>
   <g id="patch_30">
    <path d="M 692.856875 110.17282 
L 844.599375 110.17282 
" style="fill: none; stroke: #000000; stroke-width: 0.8; stroke-linejoin: miter; stroke-linecap: square"/>
   </g>
   <g id="legend_5">
    <g id="patch_31">
     <path d="M 782.46 136.739695 
L 836.199375 136.739695 
Q 838.599375 136.739695 838.599375 134.339695 
L 838.599375 118.57282 
Q 838.599375 116.17282 836.199375 116.17282 
L 782.46 116.17282 
Q 780.06 116.17282 780.06 118.57282 
L 780.06 134.339695 
Q 780.06 136.739695 782.46 136.739695 
z
" style="fill: #ffffff; opacity: 0.8; stroke: #cccccc; stroke-linejoin: miter"/>
    </g>
    <g id="line2d_66">
     <path d="M 784.86 125.17282 
L 796.86 125.17282 
L 808.86 125.17282 
" style="fill: none; stroke: #0000ff; stroke-width: 1.7; stroke-linecap: square"/>
    </g>
    <g id="text_53">
     <!-- OS -->
     <g transform="translate(818.46 129.37282) scale(0.12 -0.12)">
      <use xlink:href="#TimesNewRomanPSMT-4f"/>
      <use xlink:href="#TimesNewRomanPSMT-53" x="72.216797"/>
     </g>
    </g>
   </g>
  </g>
 </g>
 <defs>
  <clipPath id="pf53c8bbc55">
   <rect x="59.099375" y="8.852501" width="151.7425" height="154.757002"/>
  </clipPath>
  <clipPath id="p37e67172da">
   <rect x="270.351875" y="8.852501" width="151.7425" height="154.757002"/>
  </clipPath>
  <clipPath id="pe7d970453b">
   <rect x="481.604375" y="8.852501" width="151.7425" height="154.757002"/>
  </clipPath>
  <clipPath id="pf4f84cdd18">
   <rect x="692.856875" y="8.852501" width="151.7425" height="53.436683"/>
  </clipPath>
  <clipPath id="pe51cbd2348">
   <rect x="692.856875" y="110.17282" width="151.7425" height="53.436683"/>
  </clipPath>
 </defs>
</svg>
