<?xml version="1.0" encoding="utf-8" standalone="no"?>
<!DOCTYPE svg PUBLIC "-//W3C//DTD SVG 1.1//EN"
  "http://www.w3.org/Graphics/SVG/1.1/DTD/svg11.dtd">
<svg xmlns:xlink="http://www.w3.org/1999/xlink" width="851.799375pt" height="203.340334pt" viewBox="0 0 851.799375 203.340334" xmlns="http://www.w3.org/2000/svg" version="1.1">
 <metadata>
  <rdf:RDF xmlns:dc="http://purl.org/dc/elements/1.1/" xmlns:cc="http://creativecommons.org/ns#" xmlns:rdf="http://www.w3.org/1999/02/22-rdf-syntax-ns#">
   <cc:Work>
    <dc:type rdf:resource="http://purl.org/dc/dcmitype/StillImage"/>
    <dc:date>2024-10-20T18:48:18.225640</dc:date>
    <dc:format>image/svg+xml</dc:format>
    <dc:creator>
     <cc:Agent>
      <dc:title>Matplotlib v3.9.0, https://matplotlib.org/</dc:title>
     </cc:Agent>
    </dc:creator>
   </cc:Work>
  </rdf:RDF>
 </metadata>
 <defs>
  <style type="text/css">*{stroke-linejoin: round; stroke-linecap: butt}</style>
 </defs>
 <g id="figure_1">
  <g id="patch_1">
   <path d="M 0 203.340334 
L 851.799375 203.340334 
L 851.799375 0 
L 0 0 
z
" style="fill: #ffffff"/>
  </g>
  <g id="axes_1">
   <g id="patch_2">
    <path d="M 59.099375 163.341584 
L 210.841875 163.341584 
L 210.841875 8.584583 
L 59.099375 8.584583 
z
" style="fill: #ffffff"/>
   </g>
   <g id="matplotlib.axis_1">
    <g id="xtick_1">
     <g id="line2d_1">
      <defs>
       <path id="m4e7852415c" d="M 0 0 
L 0 3.5 
" style="stroke: #000000; stroke-width: 0.8"/>
      </defs>
      <g>
       <use xlink:href="#m4e7852415c" x="59.099375" y="163.341584" style="stroke: #000000; stroke-width: 0.8"/>
      </g>
     </g>
     <g id="text_1">
      <!-- 0 -->
      <g transform="translate(56.099375 178.674084) scale(0.12 -0.12)">
       <defs>
        <path id="TimesNewRomanPSMT-30" d="M 231 2094 
Q 231 2819 450 3342 
Q 669 3866 1031 4122 
Q 1313 4325 1613 4325 
Q 2100 4325 2488 3828 
Q 2972 3213 2972 2159 
Q 2972 1422 2759 906 
Q 2547 391 2217 158 
Q 1888 -75 1581 -75 
Q 975 -75 572 641 
Q 231 1244 231 2094 
z
M 844 2016 
Q 844 1141 1059 588 
Q 1238 122 1591 122 
Q 1759 122 1940 273 
Q 2122 425 2216 781 
Q 2359 1319 2359 2297 
Q 2359 3022 2209 3506 
Q 2097 3866 1919 4016 
Q 1791 4119 1609 4119 
Q 1397 4119 1231 3928 
Q 1006 3669 925 3112 
Q 844 2556 844 2016 
z
" transform="scale(0.015625)"/>
       </defs>
       <use xlink:href="#TimesNewRomanPSMT-30"/>
      </g>
     </g>
    </g>
    <g id="xtick_2">
     <g id="line2d_2">
      <g>
       <use xlink:href="#m4e7852415c" x="115.300301" y="163.341584" style="stroke: #000000; stroke-width: 0.8"/>
      </g>
     </g>
     <g id="text_2">
      <!-- 1000 -->
      <g transform="translate(103.300301 178.674084) scale(0.12 -0.12)">
       <defs>
        <path id="TimesNewRomanPSMT-31" d="M 750 3822 
L 1781 4325 
L 1884 4325 
L 1884 747 
Q 1884 391 1914 303 
Q 1944 216 2037 169 
Q 2131 122 2419 116 
L 2419 0 
L 825 0 
L 825 116 
Q 1125 122 1212 167 
Q 1300 213 1334 289 
Q 1369 366 1369 747 
L 1369 3034 
Q 1369 3497 1338 3628 
Q 1316 3728 1258 3775 
Q 1200 3822 1119 3822 
Q 1003 3822 797 3725 
L 750 3822 
z
" transform="scale(0.015625)"/>
       </defs>
       <use xlink:href="#TimesNewRomanPSMT-31"/>
       <use xlink:href="#TimesNewRomanPSMT-30" x="50"/>
       <use xlink:href="#TimesNewRomanPSMT-30" x="100"/>
       <use xlink:href="#TimesNewRomanPSMT-30" x="150"/>
      </g>
     </g>
    </g>
    <g id="xtick_3">
     <g id="line2d_3">
      <g>
       <use xlink:href="#m4e7852415c" x="171.501227" y="163.341584" style="stroke: #000000; stroke-width: 0.8"/>
      </g>
     </g>
     <g id="text_3">
      <!-- 2000 -->
      <g transform="translate(159.501227 178.674084) scale(0.12 -0.12)">
       <defs>
        <path id="TimesNewRomanPSMT-32" d="M 2934 816 
L 2638 0 
L 138 0 
L 138 116 
Q 1241 1122 1691 1759 
Q 2141 2397 2141 2925 
Q 2141 3328 1894 3587 
Q 1647 3847 1303 3847 
Q 991 3847 742 3664 
Q 494 3481 375 3128 
L 259 3128 
Q 338 3706 661 4015 
Q 984 4325 1469 4325 
Q 1984 4325 2329 3994 
Q 2675 3663 2675 3213 
Q 2675 2891 2525 2569 
Q 2294 2063 1775 1497 
Q 997 647 803 472 
L 1909 472 
Q 2247 472 2383 497 
Q 2519 522 2628 598 
Q 2738 675 2819 816 
L 2934 816 
z
" transform="scale(0.015625)"/>
       </defs>
       <use xlink:href="#TimesNewRomanPSMT-32"/>
       <use xlink:href="#TimesNewRomanPSMT-30" x="50"/>
       <use xlink:href="#TimesNewRomanPSMT-30" x="100"/>
       <use xlink:href="#TimesNewRomanPSMT-30" x="150"/>
      </g>
     </g>
    </g>
    <g id="text_4">
     <!-- Time (s) -->
     <g transform="translate(114.687812 193.573459) scale(0.12 -0.12)">
      <defs>
       <path id="TimesNewRomanPSMT-54" d="M 3703 4238 
L 3750 3244 
L 3631 3244 
Q 3597 3506 3538 3619 
Q 3441 3800 3280 3886 
Q 3119 3972 2856 3972 
L 2259 3972 
L 2259 734 
Q 2259 344 2344 247 
Q 2463 116 2709 116 
L 2856 116 
L 2856 0 
L 1059 0 
L 1059 116 
L 1209 116 
Q 1478 116 1591 278 
Q 1659 378 1659 734 
L 1659 3972 
L 1150 3972 
Q 853 3972 728 3928 
Q 566 3869 450 3700 
Q 334 3531 313 3244 
L 194 3244 
L 244 4238 
L 3703 4238 
z
" transform="scale(0.015625)"/>
       <path id="TimesNewRomanPSMT-69" d="M 928 4444 
Q 1059 4444 1151 4351 
Q 1244 4259 1244 4128 
Q 1244 3997 1151 3903 
Q 1059 3809 928 3809 
Q 797 3809 703 3903 
Q 609 3997 609 4128 
Q 609 4259 701 4351 
Q 794 4444 928 4444 
z
M 1188 2947 
L 1188 647 
Q 1188 378 1227 289 
Q 1266 200 1342 156 
Q 1419 113 1622 113 
L 1622 0 
L 231 0 
L 231 113 
Q 441 113 512 153 
Q 584 194 626 287 
Q 669 381 669 647 
L 669 1750 
Q 669 2216 641 2353 
Q 619 2453 572 2492 
Q 525 2531 444 2531 
Q 356 2531 231 2484 
L 188 2597 
L 1050 2947 
L 1188 2947 
z
" transform="scale(0.015625)"/>
       <path id="TimesNewRomanPSMT-6d" d="M 1050 2338 
Q 1363 2650 1419 2697 
Q 1559 2816 1721 2881 
Q 1884 2947 2044 2947 
Q 2313 2947 2506 2790 
Q 2700 2634 2766 2338 
Q 3088 2713 3309 2830 
Q 3531 2947 3766 2947 
Q 3994 2947 4170 2830 
Q 4347 2713 4450 2447 
Q 4519 2266 4519 1878 
L 4519 647 
Q 4519 378 4559 278 
Q 4591 209 4675 161 
Q 4759 113 4950 113 
L 4950 0 
L 3538 0 
L 3538 113 
L 3597 113 
Q 3781 113 3884 184 
Q 3956 234 3988 344 
Q 4000 397 4000 647 
L 4000 1878 
Q 4000 2228 3916 2372 
Q 3794 2572 3525 2572 
Q 3359 2572 3192 2489 
Q 3025 2406 2788 2181 
L 2781 2147 
L 2788 2013 
L 2788 647 
Q 2788 353 2820 281 
Q 2853 209 2943 161 
Q 3034 113 3253 113 
L 3253 0 
L 1806 0 
L 1806 113 
Q 2044 113 2133 169 
Q 2222 225 2256 338 
Q 2272 391 2272 647 
L 2272 1878 
Q 2272 2228 2169 2381 
Q 2031 2581 1784 2581 
Q 1616 2581 1450 2491 
Q 1191 2353 1050 2181 
L 1050 647 
Q 1050 366 1089 281 
Q 1128 197 1204 155 
Q 1281 113 1516 113 
L 1516 0 
L 100 0 
L 100 113 
Q 297 113 375 155 
Q 453 197 493 289 
Q 534 381 534 647 
L 534 1741 
Q 534 2213 506 2350 
Q 484 2453 437 2492 
Q 391 2531 309 2531 
Q 222 2531 100 2484 
L 53 2597 
L 916 2947 
L 1050 2947 
L 1050 2338 
z
" transform="scale(0.015625)"/>
       <path id="TimesNewRomanPSMT-65" d="M 681 1784 
Q 678 1147 991 784 
Q 1303 422 1725 422 
Q 2006 422 2214 576 
Q 2422 731 2563 1106 
L 2659 1044 
Q 2594 616 2278 264 
Q 1963 -88 1488 -88 
Q 972 -88 605 314 
Q 238 716 238 1394 
Q 238 2128 614 2539 
Q 991 2950 1559 2950 
Q 2041 2950 2350 2633 
Q 2659 2316 2659 1784 
L 681 1784 
z
M 681 1966 
L 2006 1966 
Q 1991 2241 1941 2353 
Q 1863 2528 1708 2628 
Q 1553 2728 1384 2728 
Q 1125 2728 920 2526 
Q 716 2325 681 1966 
z
" transform="scale(0.015625)"/>
       <path id="TimesNewRomanPSMT-20" transform="scale(0.015625)"/>
       <path id="TimesNewRomanPSMT-28" d="M 1988 -1253 
L 1988 -1369 
Q 1516 -1131 1200 -813 
Q 750 -359 506 256 
Q 263 872 263 1534 
Q 263 2503 741 3301 
Q 1219 4100 1988 4444 
L 1988 4313 
Q 1603 4100 1356 3731 
Q 1109 3363 987 2797 
Q 866 2231 866 1616 
Q 866 947 969 400 
Q 1050 -31 1165 -292 
Q 1281 -553 1476 -793 
Q 1672 -1034 1988 -1253 
z
" transform="scale(0.015625)"/>
       <path id="TimesNewRomanPSMT-73" d="M 2050 2947 
L 2050 1972 
L 1947 1972 
Q 1828 2431 1642 2597 
Q 1456 2763 1169 2763 
Q 950 2763 815 2647 
Q 681 2531 681 2391 
Q 681 2216 781 2091 
Q 878 1963 1175 1819 
L 1631 1597 
Q 2266 1288 2266 781 
Q 2266 391 1970 151 
Q 1675 -88 1309 -88 
Q 1047 -88 709 6 
Q 606 38 541 38 
Q 469 38 428 -44 
L 325 -44 
L 325 978 
L 428 978 
Q 516 541 762 319 
Q 1009 97 1316 97 
Q 1531 97 1667 223 
Q 1803 350 1803 528 
Q 1803 744 1651 891 
Q 1500 1038 1047 1263 
Q 594 1488 453 1669 
Q 313 1847 313 2119 
Q 313 2472 555 2709 
Q 797 2947 1181 2947 
Q 1350 2947 1591 2875 
Q 1750 2828 1803 2828 
Q 1853 2828 1881 2850 
Q 1909 2872 1947 2947 
L 2050 2947 
z
" transform="scale(0.015625)"/>
       <path id="TimesNewRomanPSMT-29" d="M 144 4313 
L 144 4444 
Q 619 4209 934 3891 
Q 1381 3434 1625 2820 
Q 1869 2206 1869 1541 
Q 1869 572 1392 -226 
Q 916 -1025 144 -1369 
L 144 -1253 
Q 528 -1038 776 -670 
Q 1025 -303 1145 264 
Q 1266 831 1266 1447 
Q 1266 2113 1163 2663 
Q 1084 3094 967 3353 
Q 850 3613 656 3853 
Q 463 4094 144 4313 
z
" transform="scale(0.015625)"/>
      </defs>
      <use xlink:href="#TimesNewRomanPSMT-54"/>
      <use xlink:href="#TimesNewRomanPSMT-69" x="57.583984"/>
      <use xlink:href="#TimesNewRomanPSMT-6d" x="85.367188"/>
      <use xlink:href="#TimesNewRomanPSMT-65" x="163.150391"/>
      <use xlink:href="#TimesNewRomanPSMT-20" x="207.535156"/>
      <use xlink:href="#TimesNewRomanPSMT-28" x="232.535156"/>
      <use xlink:href="#TimesNewRomanPSMT-73" x="265.835938"/>
      <use xlink:href="#TimesNewRomanPSMT-29" x="304.751953"/>
     </g>
    </g>
   </g>
   <g id="matplotlib.axis_2">
    <g id="ytick_1">
     <g id="line2d_4">
      <defs>
       <path id="m4ed05971b3" d="M 0 0 
L -3.5 0 
" style="stroke: #000000; stroke-width: 0.8"/>
      </defs>
      <g>
       <use xlink:href="#m4ed05971b3" x="59.099375" y="163.340749" style="stroke: #000000; stroke-width: 0.8"/>
      </g>
     </g>
     <g id="text_5">
      <!-- 0 -->
      <g transform="translate(46.099375 167.506999) scale(0.12 -0.12)">
       <use xlink:href="#TimesNewRomanPSMT-30"/>
      </g>
     </g>
    </g>
    <g id="ytick_2">
     <g id="line2d_5">
      <g>
       <use xlink:href="#m4ed05971b3" x="59.099375" y="121.569094" style="stroke: #000000; stroke-width: 0.8"/>
      </g>
     </g>
     <g id="text_6">
      <!-- 5000 -->
      <g transform="translate(28.099375 125.735344) scale(0.12 -0.12)">
       <defs>
        <path id="TimesNewRomanPSMT-35" d="M 2778 4238 
L 2534 3706 
L 1259 3706 
L 981 3138 
Q 1809 3016 2294 2522 
Q 2709 2097 2709 1522 
Q 2709 1188 2573 903 
Q 2438 619 2231 419 
Q 2025 219 1772 97 
Q 1413 -75 1034 -75 
Q 653 -75 479 54 
Q 306 184 306 341 
Q 306 428 378 495 
Q 450 563 559 563 
Q 641 563 702 538 
Q 763 513 909 409 
Q 1144 247 1384 247 
Q 1750 247 2026 523 
Q 2303 800 2303 1197 
Q 2303 1581 2056 1914 
Q 1809 2247 1375 2428 
Q 1034 2569 447 2591 
L 1259 4238 
L 2778 4238 
z
" transform="scale(0.015625)"/>
       </defs>
       <use xlink:href="#TimesNewRomanPSMT-35"/>
       <use xlink:href="#TimesNewRomanPSMT-30" x="50"/>
       <use xlink:href="#TimesNewRomanPSMT-30" x="100"/>
       <use xlink:href="#TimesNewRomanPSMT-30" x="150"/>
      </g>
     </g>
    </g>
    <g id="ytick_3">
     <g id="line2d_6">
      <g>
       <use xlink:href="#m4ed05971b3" x="59.099375" y="79.797439" style="stroke: #000000; stroke-width: 0.8"/>
      </g>
     </g>
     <g id="text_7">
      <!-- 10000 -->
      <g transform="translate(22.099375 83.963689) scale(0.12 -0.12)">
       <use xlink:href="#TimesNewRomanPSMT-31"/>
       <use xlink:href="#TimesNewRomanPSMT-30" x="50"/>
       <use xlink:href="#TimesNewRomanPSMT-30" x="100"/>
       <use xlink:href="#TimesNewRomanPSMT-30" x="150"/>
       <use xlink:href="#TimesNewRomanPSMT-30" x="200"/>
      </g>
     </g>
    </g>
    <g id="ytick_4">
     <g id="line2d_7">
      <g>
       <use xlink:href="#m4ed05971b3" x="59.099375" y="38.025784" style="stroke: #000000; stroke-width: 0.8"/>
      </g>
     </g>
     <g id="text_8">
      <!-- 15000 -->
      <g transform="translate(22.099375 42.192034) scale(0.12 -0.12)">
       <use xlink:href="#TimesNewRomanPSMT-31"/>
       <use xlink:href="#TimesNewRomanPSMT-35" x="50"/>
       <use xlink:href="#TimesNewRomanPSMT-30" x="100"/>
       <use xlink:href="#TimesNewRomanPSMT-30" x="150"/>
       <use xlink:href="#TimesNewRomanPSMT-30" x="200"/>
      </g>
     </g>
    </g>
    <g id="text_9">
     <!-- Distance (m) -->
     <g transform="translate(15.5325 117.118083) rotate(-90) scale(0.12 -0.12)">
      <defs>
       <path id="TimesNewRomanPSMT-44" d="M 109 0 
L 109 116 
L 269 116 
Q 538 116 650 288 
Q 719 391 719 750 
L 719 3488 
Q 719 3884 631 3984 
Q 509 4122 269 4122 
L 109 4122 
L 109 4238 
L 1834 4238 
Q 2784 4238 3279 4022 
Q 3775 3806 4076 3303 
Q 4378 2800 4378 2141 
Q 4378 1256 3841 663 
Q 3238 0 2003 0 
L 109 0 
z
M 1319 306 
Q 1716 219 1984 219 
Q 2709 219 3187 728 
Q 3666 1238 3666 2109 
Q 3666 2988 3187 3494 
Q 2709 4000 1959 4000 
Q 1678 4000 1319 3909 
L 1319 306 
z
" transform="scale(0.015625)"/>
       <path id="TimesNewRomanPSMT-74" d="M 1031 3803 
L 1031 2863 
L 1700 2863 
L 1700 2644 
L 1031 2644 
L 1031 788 
Q 1031 509 1111 412 
Q 1191 316 1316 316 
Q 1419 316 1516 380 
Q 1613 444 1666 569 
L 1788 569 
Q 1678 263 1478 108 
Q 1278 -47 1066 -47 
Q 922 -47 784 33 
Q 647 113 581 261 
Q 516 409 516 719 
L 516 2644 
L 63 2644 
L 63 2747 
Q 234 2816 414 2980 
Q 594 3144 734 3369 
Q 806 3488 934 3803 
L 1031 3803 
z
" transform="scale(0.015625)"/>
       <path id="TimesNewRomanPSMT-61" d="M 1822 413 
Q 1381 72 1269 19 
Q 1100 -59 909 -59 
Q 613 -59 420 144 
Q 228 347 228 678 
Q 228 888 322 1041 
Q 450 1253 767 1440 
Q 1084 1628 1822 1897 
L 1822 2009 
Q 1822 2438 1686 2597 
Q 1550 2756 1291 2756 
Q 1094 2756 978 2650 
Q 859 2544 859 2406 
L 866 2225 
Q 866 2081 792 2003 
Q 719 1925 600 1925 
Q 484 1925 411 2006 
Q 338 2088 338 2228 
Q 338 2497 613 2722 
Q 888 2947 1384 2947 
Q 1766 2947 2009 2819 
Q 2194 2722 2281 2516 
Q 2338 2381 2338 1966 
L 2338 994 
Q 2338 584 2353 492 
Q 2369 400 2405 369 
Q 2441 338 2488 338 
Q 2538 338 2575 359 
Q 2641 400 2828 588 
L 2828 413 
Q 2478 -56 2159 -56 
Q 2006 -56 1915 50 
Q 1825 156 1822 413 
z
M 1822 616 
L 1822 1706 
Q 1350 1519 1213 1441 
Q 966 1303 859 1153 
Q 753 1003 753 825 
Q 753 600 887 451 
Q 1022 303 1197 303 
Q 1434 303 1822 616 
z
" transform="scale(0.015625)"/>
       <path id="TimesNewRomanPSMT-6e" d="M 1034 2341 
Q 1538 2947 1994 2947 
Q 2228 2947 2397 2830 
Q 2566 2713 2666 2444 
Q 2734 2256 2734 1869 
L 2734 647 
Q 2734 375 2778 278 
Q 2813 200 2889 156 
Q 2966 113 3172 113 
L 3172 0 
L 1756 0 
L 1756 113 
L 1816 113 
Q 2016 113 2095 173 
Q 2175 234 2206 353 
Q 2219 400 2219 647 
L 2219 1819 
Q 2219 2209 2117 2386 
Q 2016 2563 1775 2563 
Q 1403 2563 1034 2156 
L 1034 647 
Q 1034 356 1069 288 
Q 1113 197 1189 155 
Q 1266 113 1500 113 
L 1500 0 
L 84 0 
L 84 113 
L 147 113 
Q 366 113 442 223 
Q 519 334 519 647 
L 519 1709 
Q 519 2225 495 2337 
Q 472 2450 423 2490 
Q 375 2531 294 2531 
Q 206 2531 84 2484 
L 38 2597 
L 900 2947 
L 1034 2947 
L 1034 2341 
z
" transform="scale(0.015625)"/>
       <path id="TimesNewRomanPSMT-63" d="M 2631 1088 
Q 2516 522 2178 217 
Q 1841 -88 1431 -88 
Q 944 -88 581 321 
Q 219 731 219 1428 
Q 219 2103 620 2525 
Q 1022 2947 1584 2947 
Q 2006 2947 2278 2723 
Q 2550 2500 2550 2259 
Q 2550 2141 2473 2067 
Q 2397 1994 2259 1994 
Q 2075 1994 1981 2113 
Q 1928 2178 1911 2362 
Q 1894 2547 1784 2644 
Q 1675 2738 1481 2738 
Q 1169 2738 978 2506 
Q 725 2200 725 1697 
Q 725 1184 976 792 
Q 1228 400 1656 400 
Q 1963 400 2206 609 
Q 2378 753 2541 1131 
L 2631 1088 
z
" transform="scale(0.015625)"/>
      </defs>
      <use xlink:href="#TimesNewRomanPSMT-44"/>
      <use xlink:href="#TimesNewRomanPSMT-69" x="72.216797"/>
      <use xlink:href="#TimesNewRomanPSMT-73" x="100"/>
      <use xlink:href="#TimesNewRomanPSMT-74" x="138.916016"/>
      <use xlink:href="#TimesNewRomanPSMT-61" x="166.699219"/>
      <use xlink:href="#TimesNewRomanPSMT-6e" x="211.083984"/>
      <use xlink:href="#TimesNewRomanPSMT-63" x="261.083984"/>
      <use xlink:href="#TimesNewRomanPSMT-65" x="305.46875"/>
      <use xlink:href="#TimesNewRomanPSMT-20" x="349.853516"/>
      <use xlink:href="#TimesNewRomanPSMT-28" x="374.853516"/>
      <use xlink:href="#TimesNewRomanPSMT-6d" x="408.154297"/>
      <use xlink:href="#TimesNewRomanPSMT-29" x="485.9375"/>
     </g>
    </g>
   </g>
   <g id="line2d_8">
    <path d="M 59.099375 85.962666 
L 63.089641 94.30369 
L 70.789168 110.829389 
L 73.093406 116.178118 
L 74.048821 118.667554 
L 81.748348 133.872524 
L 83.153371 136.813785 
L 86.69403 144.869799 
L 90.009884 151.470902 
L 91.190104 153.46261 
L 92.370323 154.994091 
L 93.213337 155.767839 
L 93.887748 156.125073 
L 94.505958 156.213849 
L 95.124169 156.065192 
L 95.79858 155.648977 
L 96.585393 154.881033 
L 97.597009 153.561146 
L 99.002032 151.330617 
L 106.982564 137.507834 
L 113.670474 125.171063 
L 117.548338 118.141199 
L 121.93201 110.231024 
L 146.716619 61.493504 
L 149.414263 56.189042 
L 157.507196 39.909993 
L 159.980037 35.178128 
L 162.452878 30.550567 
L 176.615511 2.905827 
L 176.671712 3.533161 
L 176.727913 3.425471 
L 179.036625 -1 
L 179.036625 -1 
" clip-path="url(#p1b9ddfc753)" style="fill: none; stroke: #ff0000; stroke-width: 1.5; stroke-linecap: square"/>
   </g>
   <g id="line2d_9">
    <path d="M 59.099375 161.962977 
L 210.785674 161.962977 
L 210.785674 161.962977 
" clip-path="url(#p1b9ddfc753)" style="fill: none; stroke-dasharray: 3.7,1.6; stroke-dashoffset: 0; stroke: #fa8072"/>
   </g>
   <g id="line2d_10">
    <path d="M 59.099375 86.18173 
L 60.897805 88.548415 
L 66.630299 95.252313 
L 71.013971 100.988755 
L 73.093406 103.487955 
L 74.048821 104.419509 
L 83.65918 116.517184 
L 86.750231 119.680767 
L 88.717263 121.778359 
L 92.651328 124.910076 
L 96.641594 128.37564 
L 100.407056 133.137092 
L 104.116317 138.30407 
L 106.701559 141.526342 
L 109.961213 144.432261 
L 112.939862 146.620096 
L 114.569689 147.855032 
L 115.131698 148.297244 
L 116.930128 149.425097 
L 118.447553 150.113965 
L 119.796375 150.489668 
L 122.213015 151.041824 
L 123.786641 152.280983 
L 125.135463 153.068861 
L 126.428084 153.644117 
L 126.821491 153.132359 
L 128.563719 151.53824 
L 130.811756 149.159839 
L 134.802022 144.539401 
L 139.579101 138.714724 
L 145.367796 131.626912 
L 146.267011 130.333709 
L 147.615833 128.298303 
L 149.301861 126.403443 
L 151.04409 125.476081 
L 153.685533 124.031102 
L 157.956804 119.199735 
L 159.418028 117.050435 
L 161.834668 113.223017 
L 167.45476 106.251653 
L 174.423675 97.238436 
L 176.615511 94.342492 
L 176.784114 93.59988 
L 179.256955 90.385029 
L 179.425557 89.941538 
L 181.561193 87.349325 
L 181.729795 85.717342 
L 202.467937 56.750083 
L 210.785674 45.061565 
L 210.785674 45.061565 
" clip-path="url(#p1b9ddfc753)" style="fill: none; stroke: #008000; stroke-width: 1.5; stroke-linecap: square"/>
   </g>
   <g id="line2d_11">
    <path d="M 59.099375 162.348181 
L 210.785674 162.348181 
L 210.785674 162.348181 
" clip-path="url(#p1b9ddfc753)" style="fill: none; stroke-dasharray: 3.7,1.6; stroke-dashoffset: 0; stroke: #90ee90"/>
   </g>
   <g id="line2d_12">
    <path d="M 59.099375 147.86852 
L 210.785674 147.86852 
L 210.785674 147.86852 
" clip-path="url(#p1b9ddfc753)" style="fill: none; stroke-dasharray: 3.7,1.6; stroke-dashoffset: 0; stroke: #000000"/>
   </g>
   <g id="patch_3">
    <path d="M 59.099375 163.341584 
L 59.099375 8.584583 
" style="fill: none; stroke: #000000; stroke-width: 0.8; stroke-linejoin: miter; stroke-linecap: square"/>
   </g>
   <g id="patch_4">
    <path d="M 210.841875 163.341584 
L 210.841875 8.584583 
" style="fill: none; stroke: #000000; stroke-width: 0.8; stroke-linejoin: miter; stroke-linecap: square"/>
   </g>
   <g id="patch_5">
    <path d="M 59.099375 163.341584 
L 210.841875 163.341584 
" style="fill: none; stroke: #000000; stroke-width: 0.8; stroke-linejoin: miter; stroke-linecap: square"/>
   </g>
   <g id="patch_6">
    <path d="M 59.099375 8.584583 
L 210.841875 8.584583 
" style="fill: none; stroke: #000000; stroke-width: 0.8; stroke-linejoin: miter; stroke-linecap: square"/>
   </g>
   <g id="text_10">
    <!-- 1 NM -->
    <g transform="translate(123.163594 145.628153) scale(0.1 -0.1)">
     <defs>
      <path id="TimesNewRomanPSMT-4e" d="M -84 4238 
L 1066 4238 
L 3656 1059 
L 3656 3503 
Q 3656 3894 3569 3991 
Q 3453 4122 3203 4122 
L 3056 4122 
L 3056 4238 
L 4531 4238 
L 4531 4122 
L 4381 4122 
Q 4113 4122 4000 3959 
Q 3931 3859 3931 3503 
L 3931 -69 
L 3819 -69 
L 1025 3344 
L 1025 734 
Q 1025 344 1109 247 
Q 1228 116 1475 116 
L 1625 116 
L 1625 0 
L 150 0 
L 150 116 
L 297 116 
Q 569 116 681 278 
Q 750 378 750 734 
L 750 3681 
Q 566 3897 470 3965 
Q 375 4034 191 4094 
Q 100 4122 -84 4122 
L -84 4238 
z
" transform="scale(0.015625)"/>
      <path id="TimesNewRomanPSMT-4d" d="M 2619 0 
L 981 3566 
L 981 734 
Q 981 344 1066 247 
Q 1181 116 1431 116 
L 1581 116 
L 1581 0 
L 106 0 
L 106 116 
L 256 116 
Q 525 116 638 278 
Q 706 378 706 734 
L 706 3503 
Q 706 3784 644 3909 
Q 600 4000 483 4061 
Q 366 4122 106 4122 
L 106 4238 
L 1306 4238 
L 2844 922 
L 4356 4238 
L 5556 4238 
L 5556 4122 
L 5409 4122 
Q 5138 4122 5025 3959 
Q 4956 3859 4956 3503 
L 4956 734 
Q 4956 344 5044 247 
Q 5159 116 5409 116 
L 5556 116 
L 5556 0 
L 3756 0 
L 3756 116 
L 3906 116 
Q 4178 116 4288 278 
Q 4356 378 4356 734 
L 4356 3566 
L 2722 0 
L 2619 0 
z
" transform="scale(0.015625)"/>
     </defs>
     <use xlink:href="#TimesNewRomanPSMT-31"/>
     <use xlink:href="#TimesNewRomanPSMT-20" x="50"/>
     <use xlink:href="#TimesNewRomanPSMT-4e" x="75"/>
     <use xlink:href="#TimesNewRomanPSMT-4d" x="147.216797"/>
    </g>
   </g>
   <g id="legend_1">
    <g id="patch_7">
     <path d="M 67.499375 52.264583 
L 156.659375 52.264583 
Q 159.059375 52.264583 159.059375 49.864583 
L 159.059375 16.984583 
Q 159.059375 14.584583 156.659375 14.584583 
L 67.499375 14.584583 
Q 65.099375 14.584583 65.099375 16.984583 
L 65.099375 49.864583 
Q 65.099375 52.264583 67.499375 52.264583 
z
" style="fill: #ffffff; opacity: 0.8; stroke: #cccccc; stroke-linejoin: miter"/>
    </g>
    <g id="line2d_13">
     <path d="M 69.899375 23.657708 
L 81.899375 23.657708 
L 93.899375 23.657708 
" style="fill: none; stroke: #ff0000; stroke-width: 1.5; stroke-linecap: square"/>
    </g>
    <g id="text_11">
     <!-- OS$\rightarrow$$TS_1$ -->
     <g transform="translate(103.499375 27.857708) scale(0.12 -0.12)">
      <defs>
       <path id="TimesNewRomanPSMT-4f" d="M 2341 4334 
Q 3166 4334 3770 3707 
Q 4375 3081 4375 2144 
Q 4375 1178 3765 540 
Q 3156 -97 2291 -97 
Q 1416 -97 820 525 
Q 225 1147 225 2134 
Q 225 3144 913 3781 
Q 1509 4334 2341 4334 
z
M 2281 4106 
Q 1713 4106 1369 3684 
Q 941 3159 941 2147 
Q 941 1109 1384 550 
Q 1725 125 2284 125 
Q 2881 125 3270 590 
Q 3659 1056 3659 2059 
Q 3659 3147 3231 3681 
Q 2888 4106 2281 4106 
z
" transform="scale(0.015625)"/>
       <path id="TimesNewRomanPSMT-53" d="M 2934 4334 
L 2934 2869 
L 2819 2869 
Q 2763 3291 2617 3541 
Q 2472 3791 2203 3937 
Q 1934 4084 1647 4084 
Q 1322 4084 1109 3886 
Q 897 3688 897 3434 
Q 897 3241 1031 3081 
Q 1225 2847 1953 2456 
Q 2547 2138 2764 1967 
Q 2981 1797 3098 1565 
Q 3216 1334 3216 1081 
Q 3216 600 2842 251 
Q 2469 -97 1881 -97 
Q 1697 -97 1534 -69 
Q 1438 -53 1133 45 
Q 828 144 747 144 
Q 669 144 623 97 
Q 578 50 556 -97 
L 441 -97 
L 441 1356 
L 556 1356 
Q 638 900 775 673 
Q 913 447 1195 297 
Q 1478 147 1816 147 
Q 2206 147 2432 353 
Q 2659 559 2659 841 
Q 2659 997 2573 1156 
Q 2488 1316 2306 1453 
Q 2184 1547 1640 1851 
Q 1097 2156 867 2337 
Q 638 2519 519 2737 
Q 400 2956 400 3219 
Q 400 3675 750 4004 
Q 1100 4334 1641 4334 
Q 1978 4334 2356 4169 
Q 2531 4091 2603 4091 
Q 2684 4091 2736 4139 
Q 2788 4188 2819 4334 
L 2934 4334 
z
" transform="scale(0.015625)"/>
       <path id="DejaVuSans-2192" d="M 5050 2147 
L 5050 1866 
L 3822 638 
L 3447 1013 
L 4175 1741 
L 366 1741 
L 366 2272 
L 4175 2272 
L 3447 3000 
L 3822 3375 
L 5050 2147 
z
" transform="scale(0.015625)"/>
       <path id="DejaVuSans-Oblique-54" d="M 378 4666 
L 4325 4666 
L 4225 4134 
L 2559 4134 
L 1759 0 
L 1125 0 
L 1925 4134 
L 275 4134 
L 378 4666 
z
" transform="scale(0.015625)"/>
       <path id="DejaVuSans-Oblique-53" d="M 3859 4513 
L 3738 3897 
Q 3422 4066 3111 4152 
Q 2800 4238 2509 4238 
Q 1944 4238 1609 3991 
Q 1275 3744 1275 3334 
Q 1275 3109 1398 2989 
Q 1522 2869 2034 2731 
L 2413 2638 
Q 3053 2472 3303 2217 
Q 3553 1963 3553 1503 
Q 3553 797 2998 353 
Q 2444 -91 1538 -91 
Q 1166 -91 791 -17 
Q 416 56 38 206 
L 166 856 
Q 513 641 861 531 
Q 1209 422 1556 422 
Q 2147 422 2503 684 
Q 2859 947 2859 1369 
Q 2859 1650 2717 1795 
Q 2575 1941 2106 2059 
L 1728 2156 
Q 1081 2325 845 2545 
Q 609 2766 609 3163 
Q 609 3859 1145 4304 
Q 1681 4750 2541 4750 
Q 2875 4750 3203 4690 
Q 3531 4631 3859 4513 
z
" transform="scale(0.015625)"/>
       <path id="DejaVuSans-31" d="M 794 531 
L 1825 531 
L 1825 4091 
L 703 3866 
L 703 4441 
L 1819 4666 
L 2450 4666 
L 2450 531 
L 3481 531 
L 3481 0 
L 794 0 
L 794 531 
z
" transform="scale(0.015625)"/>
      </defs>
      <use xlink:href="#TimesNewRomanPSMT-4f" transform="translate(0 0.78125)"/>
      <use xlink:href="#TimesNewRomanPSMT-53" transform="translate(72.216797 0.78125)"/>
      <use xlink:href="#DejaVuSans-2192" transform="translate(147.314453 0.78125)"/>
      <use xlink:href="#DejaVuSans-Oblique-54" transform="translate(250.585938 0.78125)"/>
      <use xlink:href="#DejaVuSans-Oblique-53" transform="translate(311.669922 0.78125)"/>
      <use xlink:href="#DejaVuSans-31" transform="translate(375.146484 -15.625) scale(0.7)"/>
     </g>
    </g>
    <g id="line2d_14">
     <path d="M 69.899375 40.697708 
L 81.899375 40.697708 
L 93.899375 40.697708 
" style="fill: none; stroke: #008000; stroke-width: 1.5; stroke-linecap: square"/>
    </g>
    <g id="text_12">
     <!-- $TS_2$$\rightarrow$OS -->
     <g transform="translate(103.499375 44.897708) scale(0.12 -0.12)">
      <defs>
       <path id="DejaVuSans-32" d="M 1228 531 
L 3431 531 
L 3431 0 
L 469 0 
L 469 531 
Q 828 903 1448 1529 
Q 2069 2156 2228 2338 
Q 2531 2678 2651 2914 
Q 2772 3150 2772 3378 
Q 2772 3750 2511 3984 
Q 2250 4219 1831 4219 
Q 1534 4219 1204 4116 
Q 875 4013 500 3803 
L 500 4441 
Q 881 4594 1212 4672 
Q 1544 4750 1819 4750 
Q 2544 4750 2975 4387 
Q 3406 4025 3406 3419 
Q 3406 3131 3298 2873 
Q 3191 2616 2906 2266 
Q 2828 2175 2409 1742 
Q 1991 1309 1228 531 
z
" transform="scale(0.015625)"/>
      </defs>
      <use xlink:href="#DejaVuSans-Oblique-54" transform="translate(0 0.78125)"/>
      <use xlink:href="#DejaVuSans-Oblique-53" transform="translate(61.083984 0.78125)"/>
      <use xlink:href="#DejaVuSans-32" transform="translate(124.560547 -15.625) scale(0.7)"/>
      <use xlink:href="#DejaVuSans-2192" transform="translate(191.313477 0.78125)"/>
      <use xlink:href="#TimesNewRomanPSMT-4f" transform="translate(294.584961 0.78125)"/>
      <use xlink:href="#TimesNewRomanPSMT-53" transform="translate(366.801758 0.78125)"/>
     </g>
    </g>
   </g>
  </g>
  <g id="axes_2">
   <g id="patch_8">
    <path d="M 270.351875 163.341584 
L 422.094375 163.341584 
L 422.094375 8.584583 
L 270.351875 8.584583 
z
" style="fill: #ffffff"/>
   </g>
   <g id="matplotlib.axis_3">
    <g id="xtick_4">
     <g id="line2d_15">
      <g>
       <use xlink:href="#m4e7852415c" x="270.351875" y="163.341584" style="stroke: #000000; stroke-width: 0.8"/>
      </g>
     </g>
     <g id="text_13">
      <!-- 0 -->
      <g transform="translate(267.351875 178.674084) scale(0.12 -0.12)">
       <use xlink:href="#TimesNewRomanPSMT-30"/>
      </g>
     </g>
    </g>
    <g id="xtick_5">
     <g id="line2d_16">
      <g>
       <use xlink:href="#m4e7852415c" x="326.552801" y="163.341584" style="stroke: #000000; stroke-width: 0.8"/>
      </g>
     </g>
     <g id="text_14">
      <!-- 1000 -->
      <g transform="translate(314.552801 178.674084) scale(0.12 -0.12)">
       <use xlink:href="#TimesNewRomanPSMT-31"/>
       <use xlink:href="#TimesNewRomanPSMT-30" x="50"/>
       <use xlink:href="#TimesNewRomanPSMT-30" x="100"/>
       <use xlink:href="#TimesNewRomanPSMT-30" x="150"/>
      </g>
     </g>
    </g>
    <g id="xtick_6">
     <g id="line2d_17">
      <g>
       <use xlink:href="#m4e7852415c" x="382.753727" y="163.341584" style="stroke: #000000; stroke-width: 0.8"/>
      </g>
     </g>
     <g id="text_15">
      <!-- 2000 -->
      <g transform="translate(370.753727 178.674084) scale(0.12 -0.12)">
       <use xlink:href="#TimesNewRomanPSMT-32"/>
       <use xlink:href="#TimesNewRomanPSMT-30" x="50"/>
       <use xlink:href="#TimesNewRomanPSMT-30" x="100"/>
       <use xlink:href="#TimesNewRomanPSMT-30" x="150"/>
      </g>
     </g>
    </g>
    <g id="text_16">
     <!-- Time (s) -->
     <g transform="translate(325.940312 193.573459) scale(0.12 -0.12)">
      <use xlink:href="#TimesNewRomanPSMT-54"/>
      <use xlink:href="#TimesNewRomanPSMT-69" x="57.583984"/>
      <use xlink:href="#TimesNewRomanPSMT-6d" x="85.367188"/>
      <use xlink:href="#TimesNewRomanPSMT-65" x="163.150391"/>
      <use xlink:href="#TimesNewRomanPSMT-20" x="207.535156"/>
      <use xlink:href="#TimesNewRomanPSMT-28" x="232.535156"/>
      <use xlink:href="#TimesNewRomanPSMT-73" x="265.835938"/>
      <use xlink:href="#TimesNewRomanPSMT-29" x="304.751953"/>
     </g>
    </g>
   </g>
   <g id="matplotlib.axis_4">
    <g id="ytick_5">
     <g id="line2d_18">
      <g>
       <use xlink:href="#m4ed05971b3" x="270.351875" y="163.333988" style="stroke: #000000; stroke-width: 0.8"/>
      </g>
     </g>
     <g id="text_17">
      <!-- 0 -->
      <g transform="translate(257.351875 167.500238) scale(0.12 -0.12)">
       <use xlink:href="#TimesNewRomanPSMT-30"/>
      </g>
     </g>
    </g>
    <g id="ytick_6">
     <g id="line2d_19">
      <g>
       <use xlink:href="#m4ed05971b3" x="270.351875" y="125.353102" style="stroke: #000000; stroke-width: 0.8"/>
      </g>
     </g>
     <g id="text_18">
      <!-- 500 -->
      <g transform="translate(245.351875 129.519352) scale(0.12 -0.12)">
       <use xlink:href="#TimesNewRomanPSMT-35"/>
       <use xlink:href="#TimesNewRomanPSMT-30" x="50"/>
       <use xlink:href="#TimesNewRomanPSMT-30" x="100"/>
      </g>
     </g>
    </g>
    <g id="ytick_7">
     <g id="line2d_20">
      <g>
       <use xlink:href="#m4ed05971b3" x="270.351875" y="87.372216" style="stroke: #000000; stroke-width: 0.8"/>
      </g>
     </g>
     <g id="text_19">
      <!-- 1000 -->
      <g transform="translate(239.351875 91.538466) scale(0.12 -0.12)">
       <use xlink:href="#TimesNewRomanPSMT-31"/>
       <use xlink:href="#TimesNewRomanPSMT-30" x="50"/>
       <use xlink:href="#TimesNewRomanPSMT-30" x="100"/>
       <use xlink:href="#TimesNewRomanPSMT-30" x="150"/>
      </g>
     </g>
    </g>
    <g id="ytick_8">
     <g id="line2d_21">
      <g>
       <use xlink:href="#m4ed05971b3" x="270.351875" y="49.39133" style="stroke: #000000; stroke-width: 0.8"/>
      </g>
     </g>
     <g id="text_20">
      <!-- 1500 -->
      <g transform="translate(239.351875 53.55758) scale(0.12 -0.12)">
       <use xlink:href="#TimesNewRomanPSMT-31"/>
       <use xlink:href="#TimesNewRomanPSMT-35" x="50"/>
       <use xlink:href="#TimesNewRomanPSMT-30" x="100"/>
       <use xlink:href="#TimesNewRomanPSMT-30" x="150"/>
      </g>
     </g>
    </g>
    <g id="ytick_9">
     <g id="line2d_22">
      <g>
       <use xlink:href="#m4ed05971b3" x="270.351875" y="11.410444" style="stroke: #000000; stroke-width: 0.8"/>
      </g>
     </g>
     <g id="text_21">
      <!-- 2000 -->
      <g transform="translate(239.351875 15.576694) scale(0.12 -0.12)">
       <use xlink:href="#TimesNewRomanPSMT-32"/>
       <use xlink:href="#TimesNewRomanPSMT-30" x="50"/>
       <use xlink:href="#TimesNewRomanPSMT-30" x="100"/>
       <use xlink:href="#TimesNewRomanPSMT-30" x="150"/>
      </g>
     </g>
    </g>
    <g id="text_22">
     <!-- DCPA (m) -->
     <g transform="translate(232.785 111.253083) rotate(-90) scale(0.12 -0.12)">
      <defs>
       <path id="TimesNewRomanPSMT-43" d="M 3853 4334 
L 3950 2894 
L 3853 2894 
Q 3659 3541 3300 3825 
Q 2941 4109 2438 4109 
Q 2016 4109 1675 3895 
Q 1334 3681 1139 3212 
Q 944 2744 944 2047 
Q 944 1472 1128 1050 
Q 1313 628 1683 403 
Q 2053 178 2528 178 
Q 2941 178 3256 354 
Q 3572 531 3950 1056 
L 4047 994 
Q 3728 428 3303 165 
Q 2878 -97 2294 -97 
Q 1241 -97 663 684 
Q 231 1266 231 2053 
Q 231 2688 515 3219 
Q 800 3750 1298 4042 
Q 1797 4334 2388 4334 
Q 2847 4334 3294 4109 
Q 3425 4041 3481 4041 
Q 3566 4041 3628 4100 
Q 3709 4184 3744 4334 
L 3853 4334 
z
" transform="scale(0.015625)"/>
       <path id="TimesNewRomanPSMT-50" d="M 1313 1984 
L 1313 750 
Q 1313 350 1400 253 
Q 1519 116 1759 116 
L 1922 116 
L 1922 0 
L 106 0 
L 106 116 
L 266 116 
Q 534 116 650 291 
Q 713 388 713 750 
L 713 3488 
Q 713 3888 628 3984 
Q 506 4122 266 4122 
L 106 4122 
L 106 4238 
L 1659 4238 
Q 2228 4238 2556 4120 
Q 2884 4003 3109 3725 
Q 3334 3447 3334 3066 
Q 3334 2547 2992 2222 
Q 2650 1897 2025 1897 
Q 1872 1897 1694 1919 
Q 1516 1941 1313 1984 
z
M 1313 2163 
Q 1478 2131 1606 2115 
Q 1734 2100 1825 2100 
Q 2150 2100 2386 2351 
Q 2622 2603 2622 3003 
Q 2622 3278 2509 3514 
Q 2397 3750 2190 3867 
Q 1984 3984 1722 3984 
Q 1563 3984 1313 3925 
L 1313 2163 
z
" transform="scale(0.015625)"/>
       <path id="TimesNewRomanPSMT-41" d="M 2928 1419 
L 1288 1419 
L 1000 750 
Q 894 503 894 381 
Q 894 284 986 211 
Q 1078 138 1384 116 
L 1384 0 
L 50 0 
L 50 116 
Q 316 163 394 238 
Q 553 388 747 847 
L 2238 4334 
L 2347 4334 
L 3822 809 
Q 4000 384 4145 257 
Q 4291 131 4550 116 
L 4550 0 
L 2878 0 
L 2878 116 
Q 3131 128 3220 200 
Q 3309 272 3309 375 
Q 3309 513 3184 809 
L 2928 1419 
z
M 2841 1650 
L 2122 3363 
L 1384 1650 
L 2841 1650 
z
" transform="scale(0.015625)"/>
      </defs>
      <use xlink:href="#TimesNewRomanPSMT-44"/>
      <use xlink:href="#TimesNewRomanPSMT-43" x="72.216797"/>
      <use xlink:href="#TimesNewRomanPSMT-50" x="138.916016"/>
      <use xlink:href="#TimesNewRomanPSMT-41" x="185.40625"/>
      <use xlink:href="#TimesNewRomanPSMT-20" x="252.123047"/>
      <use xlink:href="#TimesNewRomanPSMT-28" x="277.123047"/>
      <use xlink:href="#TimesNewRomanPSMT-6d" x="310.423828"/>
      <use xlink:href="#TimesNewRomanPSMT-29" x="388.207031"/>
     </g>
    </g>
   </g>
   <g id="line2d_23">
    <path d="M 270.351875 151.660556 
L 271.419693 151.660556 
L 271.532094 125.954604 
L 279.287822 112.206262 
L 279.400224 114.765571 
L 283.896298 114.711182 
L 283.952499 92.576603 
L 284.121102 116.563197 
L 284.907915 124.66221 
L 284.964116 128.315141 
L 285.020317 128.15449 
L 293.787661 103.092955 
L 293.843862 98.590476 
L 293.900063 98.691728 
L 296.991114 104.260593 
L 297.103516 107.342639 
L 301.768193 107.287122 
L 301.824394 103.10633 
L 301.880594 106.70989 
L 306.320468 97.391092 
L 306.713874 95.571585 
L 307.219682 92.11256 
L 307.894094 85.826406 
L 308.793308 75.149212 
L 310.029729 57.578487 
L 313.870064 -1 
L 313.870064 -1 
" clip-path="url(#p1b48a78a65)" style="fill: none; stroke: #ff0000; stroke-width: 1.5; stroke-linecap: square"/>
   </g>
   <g id="line2d_24">
    <path d="M 270.351875 150.806595 
L 422.038174 150.806595 
L 422.038174 150.806595 
" clip-path="url(#p1b48a78a65)" style="fill: none; stroke-dasharray: 3.7,1.6; stroke-dashoffset: 0; stroke: #fa8072"/>
   </g>
   <g id="line2d_25">
    <path d="M 270.351875 157.765998 
L 271.419693 157.765998 
L 271.475894 52.175984 
L 271.532094 52.251822 
L 277.039785 59.683974 
L 277.095986 28.559724 
L 277.152187 28.674469 
L 279.287822 33.034799 
L 279.344023 32.140505 
L 279.40267 -1 
M 293.926775 -1 
L 293.956264 36.350126 
L 294.012465 36.211742 
L 296.991114 28.877405 
L 297.103516 25.596246 
L 299.520156 24.705006 
L 299.552861 -1 
M 301.81185 -1 
L 301.824394 5.322203 
L 301.836738 -1 
M 310.082539 -1 
L 310.142131 6.753011 
L 310.760341 8.104971 
L 310.872743 26.525838 
L 314.132396 32.392444 
L 314.244798 61.118656 
L 317.504452 66.20174 
L 317.560653 53.076771 
L 317.616854 53.106882 
L 320.483101 54.64257 
L 320.595503 50.154581 
L 325.372581 48.653556 
L 325.484983 60.411792 
L 325.822189 60.795602 
L 325.87839 44.649364 
L 325.934591 52.16593 
L 326.777605 52.262869 
L 326.833806 54.161278 
L 326.890006 54.100889 
L 332.229094 48.363971 
L 332.285295 52.63472 
L 332.341496 47.975345 
L 332.397697 48.103528 
L 333.240711 50.024083 
L 333.409314 59.10433 
L 337.455781 73.577706 
L 337.511981 73.714253 
L 337.624383 75.397352 
L 337.680584 75.167346 
L 338.01779 70.9363 
L 339.366612 59.993525 
L 341.108841 43.89344 
L 343.46928 19.814595 
L 345.437594 -1 
L 345.437594 -1 
" clip-path="url(#p1b48a78a65)" style="fill: none; stroke: #008000; stroke-width: 1.5; stroke-linecap: square"/>
   </g>
   <g id="line2d_26">
    <path d="M 270.351875 154.309062 
L 422.038174 154.309062 
L 422.038174 154.309062 
" clip-path="url(#p1b48a78a65)" style="fill: none; stroke-dasharray: 3.7,1.6; stroke-dashoffset: 0; stroke: #90ee90"/>
   </g>
   <g id="line2d_27">
    <path d="M 270.351875 22.65271 
L 422.038174 22.65271 
L 422.038174 22.65271 
" clip-path="url(#p1b48a78a65)" style="fill: none; stroke-dasharray: 3.7,1.6; stroke-dashoffset: 0; stroke: #000000"/>
   </g>
   <g id="patch_9">
    <path d="M 270.351875 163.341584 
L 270.351875 8.584583 
" style="fill: none; stroke: #000000; stroke-width: 0.8; stroke-linejoin: miter; stroke-linecap: square"/>
   </g>
   <g id="patch_10">
    <path d="M 422.094375 163.341584 
L 422.094375 8.584583 
" style="fill: none; stroke: #000000; stroke-width: 0.8; stroke-linejoin: miter; stroke-linecap: square"/>
   </g>
   <g id="patch_11">
    <path d="M 270.351875 163.341584 
L 422.094375 163.341584 
" style="fill: none; stroke: #000000; stroke-width: 0.8; stroke-linejoin: miter; stroke-linecap: square"/>
   </g>
   <g id="patch_12">
    <path d="M 270.351875 8.584583 
L 422.094375 8.584583 
" style="fill: none; stroke: #000000; stroke-width: 0.8; stroke-linejoin: miter; stroke-linecap: square"/>
   </g>
   <g id="text_23">
    <!-- 1 NM -->
    <g transform="translate(334.416094 20.412344) scale(0.1 -0.1)">
     <use xlink:href="#TimesNewRomanPSMT-31"/>
     <use xlink:href="#TimesNewRomanPSMT-20" x="50"/>
     <use xlink:href="#TimesNewRomanPSMT-4e" x="75"/>
     <use xlink:href="#TimesNewRomanPSMT-4d" x="147.216797"/>
    </g>
   </g>
   <g id="legend_2">
    <g id="patch_13">
     <path d="M 324.534375 104.803083 
L 413.694375 104.803083 
Q 416.094375 104.803083 416.094375 102.403083 
L 416.094375 69.523083 
Q 416.094375 67.123083 413.694375 67.123083 
L 324.534375 67.123083 
Q 322.134375 67.123083 322.134375 69.523083 
L 322.134375 102.403083 
Q 322.134375 104.803083 324.534375 104.803083 
z
" style="fill: #ffffff; opacity: 0.8; stroke: #cccccc; stroke-linejoin: miter"/>
    </g>
    <g id="line2d_28">
     <path d="M 326.934375 76.196208 
L 338.934375 76.196208 
L 350.934375 76.196208 
" style="fill: none; stroke: #ff0000; stroke-width: 1.5; stroke-linecap: square"/>
    </g>
    <g id="text_24">
     <!-- OS$\rightarrow$$TS_1$ -->
     <g transform="translate(360.534375 80.396208) scale(0.12 -0.12)">
      <use xlink:href="#TimesNewRomanPSMT-4f" transform="translate(0 0.78125)"/>
      <use xlink:href="#TimesNewRomanPSMT-53" transform="translate(72.216797 0.78125)"/>
      <use xlink:href="#DejaVuSans-2192" transform="translate(147.314453 0.78125)"/>
      <use xlink:href="#DejaVuSans-Oblique-54" transform="translate(250.585938 0.78125)"/>
      <use xlink:href="#DejaVuSans-Oblique-53" transform="translate(311.669922 0.78125)"/>
      <use xlink:href="#DejaVuSans-31" transform="translate(375.146484 -15.625) scale(0.7)"/>
     </g>
    </g>
    <g id="line2d_29">
     <path d="M 326.934375 93.236208 
L 338.934375 93.236208 
L 350.934375 93.236208 
" style="fill: none; stroke: #008000; stroke-width: 1.5; stroke-linecap: square"/>
    </g>
    <g id="text_25">
     <!-- $TS_2$$\rightarrow$OS -->
     <g transform="translate(360.534375 97.436208) scale(0.12 -0.12)">
      <use xlink:href="#DejaVuSans-Oblique-54" transform="translate(0 0.78125)"/>
      <use xlink:href="#DejaVuSans-Oblique-53" transform="translate(61.083984 0.78125)"/>
      <use xlink:href="#DejaVuSans-32" transform="translate(124.560547 -15.625) scale(0.7)"/>
      <use xlink:href="#DejaVuSans-2192" transform="translate(191.313477 0.78125)"/>
      <use xlink:href="#TimesNewRomanPSMT-4f" transform="translate(294.584961 0.78125)"/>
      <use xlink:href="#TimesNewRomanPSMT-53" transform="translate(366.801758 0.78125)"/>
     </g>
    </g>
   </g>
  </g>
  <g id="axes_3">
   <g id="patch_14">
    <path d="M 481.604375 163.341584 
L 633.346875 163.341584 
L 633.346875 8.584583 
L 481.604375 8.584583 
z
" style="fill: #ffffff"/>
   </g>
   <g id="matplotlib.axis_5">
    <g id="xtick_7">
     <g id="line2d_30">
      <g>
       <use xlink:href="#m4e7852415c" x="481.604375" y="163.341584" style="stroke: #000000; stroke-width: 0.8"/>
      </g>
     </g>
     <g id="text_26">
      <!-- 0 -->
      <g transform="translate(478.604375 178.674084) scale(0.12 -0.12)">
       <use xlink:href="#TimesNewRomanPSMT-30"/>
      </g>
     </g>
    </g>
    <g id="xtick_8">
     <g id="line2d_31">
      <g>
       <use xlink:href="#m4e7852415c" x="537.805301" y="163.341584" style="stroke: #000000; stroke-width: 0.8"/>
      </g>
     </g>
     <g id="text_27">
      <!-- 1000 -->
      <g transform="translate(525.805301 178.674084) scale(0.12 -0.12)">
       <use xlink:href="#TimesNewRomanPSMT-31"/>
       <use xlink:href="#TimesNewRomanPSMT-30" x="50"/>
       <use xlink:href="#TimesNewRomanPSMT-30" x="100"/>
       <use xlink:href="#TimesNewRomanPSMT-30" x="150"/>
      </g>
     </g>
    </g>
    <g id="xtick_9">
     <g id="line2d_32">
      <g>
       <use xlink:href="#m4e7852415c" x="594.006227" y="163.341584" style="stroke: #000000; stroke-width: 0.8"/>
      </g>
     </g>
     <g id="text_28">
      <!-- 2000 -->
      <g transform="translate(582.006227 178.674084) scale(0.12 -0.12)">
       <use xlink:href="#TimesNewRomanPSMT-32"/>
       <use xlink:href="#TimesNewRomanPSMT-30" x="50"/>
       <use xlink:href="#TimesNewRomanPSMT-30" x="100"/>
       <use xlink:href="#TimesNewRomanPSMT-30" x="150"/>
      </g>
     </g>
    </g>
    <g id="text_29">
     <!-- Time (s) -->
     <g transform="translate(537.192812 193.573459) scale(0.12 -0.12)">
      <use xlink:href="#TimesNewRomanPSMT-54"/>
      <use xlink:href="#TimesNewRomanPSMT-69" x="57.583984"/>
      <use xlink:href="#TimesNewRomanPSMT-6d" x="85.367188"/>
      <use xlink:href="#TimesNewRomanPSMT-65" x="163.150391"/>
      <use xlink:href="#TimesNewRomanPSMT-20" x="207.535156"/>
      <use xlink:href="#TimesNewRomanPSMT-28" x="232.535156"/>
      <use xlink:href="#TimesNewRomanPSMT-73" x="265.835938"/>
      <use xlink:href="#TimesNewRomanPSMT-29" x="304.751953"/>
     </g>
    </g>
   </g>
   <g id="matplotlib.axis_6">
    <g id="ytick_10">
     <g id="line2d_33">
      <g>
       <use xlink:href="#m4ed05971b3" x="481.604375" y="150.030292" style="stroke: #000000; stroke-width: 0.8"/>
      </g>
     </g>
     <g id="text_30">
      <!-- 0 -->
      <g transform="translate(468.604375 154.196542) scale(0.12 -0.12)">
       <use xlink:href="#TimesNewRomanPSMT-30"/>
      </g>
     </g>
    </g>
    <g id="ytick_11">
     <g id="line2d_34">
      <g>
       <use xlink:href="#m4ed05971b3" x="481.604375" y="123.407706" style="stroke: #000000; stroke-width: 0.8"/>
      </g>
     </g>
     <g id="text_31">
      <!-- 200 -->
      <g transform="translate(456.604375 127.573956) scale(0.12 -0.12)">
       <use xlink:href="#TimesNewRomanPSMT-32"/>
       <use xlink:href="#TimesNewRomanPSMT-30" x="50"/>
       <use xlink:href="#TimesNewRomanPSMT-30" x="100"/>
      </g>
     </g>
    </g>
    <g id="ytick_12">
     <g id="line2d_35">
      <g>
       <use xlink:href="#m4ed05971b3" x="481.604375" y="96.785121" style="stroke: #000000; stroke-width: 0.8"/>
      </g>
     </g>
     <g id="text_32">
      <!-- 400 -->
      <g transform="translate(456.604375 100.951371) scale(0.12 -0.12)">
       <defs>
        <path id="TimesNewRomanPSMT-34" d="M 2978 1563 
L 2978 1119 
L 2409 1119 
L 2409 0 
L 1894 0 
L 1894 1119 
L 100 1119 
L 100 1519 
L 2066 4325 
L 2409 4325 
L 2409 1563 
L 2978 1563 
z
M 1894 1563 
L 1894 3666 
L 406 1563 
L 1894 1563 
z
" transform="scale(0.015625)"/>
       </defs>
       <use xlink:href="#TimesNewRomanPSMT-34"/>
       <use xlink:href="#TimesNewRomanPSMT-30" x="50"/>
       <use xlink:href="#TimesNewRomanPSMT-30" x="100"/>
      </g>
     </g>
    </g>
    <g id="ytick_13">
     <g id="line2d_36">
      <g>
       <use xlink:href="#m4ed05971b3" x="481.604375" y="70.162536" style="stroke: #000000; stroke-width: 0.8"/>
      </g>
     </g>
     <g id="text_33">
      <!-- 600 -->
      <g transform="translate(456.604375 74.328786) scale(0.12 -0.12)">
       <defs>
        <path id="TimesNewRomanPSMT-36" d="M 2869 4325 
L 2869 4209 
Q 2456 4169 2195 4045 
Q 1934 3922 1679 3669 
Q 1425 3416 1258 3105 
Q 1091 2794 978 2366 
Q 1428 2675 1881 2675 
Q 2316 2675 2634 2325 
Q 2953 1975 2953 1425 
Q 2953 894 2631 456 
Q 2244 -75 1606 -75 
Q 1172 -75 869 213 
Q 275 772 275 1663 
Q 275 2231 503 2743 
Q 731 3256 1154 3653 
Q 1578 4050 1965 4187 
Q 2353 4325 2688 4325 
L 2869 4325 
z
M 925 2138 
Q 869 1716 869 1456 
Q 869 1156 980 804 
Q 1091 453 1309 247 
Q 1469 100 1697 100 
Q 1969 100 2183 356 
Q 2397 613 2397 1088 
Q 2397 1622 2184 2012 
Q 1972 2403 1581 2403 
Q 1463 2403 1327 2353 
Q 1191 2303 925 2138 
z
" transform="scale(0.015625)"/>
       </defs>
       <use xlink:href="#TimesNewRomanPSMT-36"/>
       <use xlink:href="#TimesNewRomanPSMT-30" x="50"/>
       <use xlink:href="#TimesNewRomanPSMT-30" x="100"/>
      </g>
     </g>
    </g>
    <g id="ytick_14">
     <g id="line2d_37">
      <g>
       <use xlink:href="#m4ed05971b3" x="481.604375" y="43.539951" style="stroke: #000000; stroke-width: 0.8"/>
      </g>
     </g>
     <g id="text_34">
      <!-- 800 -->
      <g transform="translate(456.604375 47.706201) scale(0.12 -0.12)">
       <defs>
        <path id="TimesNewRomanPSMT-38" d="M 1228 2134 
Q 725 2547 579 2797 
Q 434 3047 434 3316 
Q 434 3728 753 4026 
Q 1072 4325 1600 4325 
Q 2113 4325 2425 4047 
Q 2738 3769 2738 3413 
Q 2738 3175 2569 2928 
Q 2400 2681 1866 2347 
Q 2416 1922 2594 1678 
Q 2831 1359 2831 1006 
Q 2831 559 2490 242 
Q 2150 -75 1597 -75 
Q 994 -75 656 303 
Q 388 606 388 966 
Q 388 1247 577 1523 
Q 766 1800 1228 2134 
z
M 1719 2469 
Q 2094 2806 2194 3001 
Q 2294 3197 2294 3444 
Q 2294 3772 2109 3958 
Q 1925 4144 1606 4144 
Q 1288 4144 1088 3959 
Q 888 3775 888 3528 
Q 888 3366 970 3203 
Q 1053 3041 1206 2894 
L 1719 2469 
z
M 1375 2016 
Q 1116 1797 991 1539 
Q 866 1281 866 981 
Q 866 578 1086 336 
Q 1306 94 1647 94 
Q 1984 94 2187 284 
Q 2391 475 2391 747 
Q 2391 972 2272 1150 
Q 2050 1481 1375 2016 
z
" transform="scale(0.015625)"/>
       </defs>
       <use xlink:href="#TimesNewRomanPSMT-38"/>
       <use xlink:href="#TimesNewRomanPSMT-30" x="50"/>
       <use xlink:href="#TimesNewRomanPSMT-30" x="100"/>
      </g>
     </g>
    </g>
    <g id="ytick_15">
     <g id="line2d_38">
      <g>
       <use xlink:href="#m4ed05971b3" x="481.604375" y="16.917365" style="stroke: #000000; stroke-width: 0.8"/>
      </g>
     </g>
     <g id="text_35">
      <!-- 1000 -->
      <g transform="translate(450.604375 21.083615) scale(0.12 -0.12)">
       <use xlink:href="#TimesNewRomanPSMT-31"/>
       <use xlink:href="#TimesNewRomanPSMT-30" x="50"/>
       <use xlink:href="#TimesNewRomanPSMT-30" x="100"/>
       <use xlink:href="#TimesNewRomanPSMT-30" x="150"/>
      </g>
     </g>
    </g>
    <g id="text_36">
     <!-- TCPA (s) -->
     <g transform="translate(444.0375 108.253083) rotate(-90) scale(0.12 -0.12)">
      <use xlink:href="#TimesNewRomanPSMT-54"/>
      <use xlink:href="#TimesNewRomanPSMT-43" x="61.083984"/>
      <use xlink:href="#TimesNewRomanPSMT-50" x="127.783203"/>
      <use xlink:href="#TimesNewRomanPSMT-41" x="174.273438"/>
      <use xlink:href="#TimesNewRomanPSMT-20" x="240.990234"/>
      <use xlink:href="#TimesNewRomanPSMT-28" x="265.990234"/>
      <use xlink:href="#TimesNewRomanPSMT-73" x="299.291016"/>
      <use xlink:href="#TimesNewRomanPSMT-29" x="338.207031"/>
     </g>
    </g>
   </g>
   <g id="line2d_39">
    <path d="M 481.604375 59.667972 
L 482.672193 62.197118 
L 482.840795 71.286312 
L 490.540322 88.569409 
L 490.596523 88.131961 
L 490.652724 88.26503 
L 495.148798 98.910531 
L 495.204999 98.03261 
L 495.373602 99.358469 
L 496.160415 101.7352 
L 496.216616 101.151371 
L 496.272817 101.275554 
L 505.040161 120.648114 
L 505.208764 122.109522 
L 508.243614 129.698237 
L 508.299815 129.093496 
L 508.356016 129.226571 
L 516.673753 148.642058 
L 522.012841 160.589022 
L 522.181444 163.263761 
L 531.735601 186.764724 
L 531.791802 184.529864 
L 531.848003 184.663491 
L 538.030105 199.362477 
L 538.198707 202.447311 
L 538.997615 204.340334 
L 538.997615 204.340334 
" clip-path="url(#pb94c5445a6)" style="fill: none; stroke: #ff0000; stroke-width: 1.5; stroke-linecap: square"/>
   </g>
   <g id="line2d_40">
    <path d="M 481.604375 150.030292 
L 633.290674 150.030292 
L 633.290674 150.030292 
" clip-path="url(#pb94c5445a6)" style="fill: none; stroke-dasharray: 3.7,1.6; stroke-dashoffset: 0; stroke: #fa8072"/>
   </g>
   <g id="line2d_41">
    <path d="M 481.604375 21.443283 
L 482.672193 23.972429 
L 482.728394 12.380776 
L 482.784594 12.498175 
L 488.292285 24.003296 
L 488.460888 28.108765 
L 490.540322 33.125368 
L 490.596523 35.262438 
L 490.652724 22.992477 
L 490.765126 53.032157 
L 495.148798 63.274685 
L 495.204999 59.00046 
L 495.373602 64.235426 
L 496.160415 66.322675 
L 496.329018 67.430281 
L 501.780507 78.657256 
L 501.836708 72.648495 
L 501.892909 72.771468 
L 505.040161 79.657919 
L 505.208764 64.456215 
L 505.321166 64.690137 
L 508.243614 70.77213 
L 508.412217 75.91516 
L 510.772656 81.072909 
L 510.941258 88.656205 
L 513.020693 92.036561 
L 513.076894 89.204581 
L 513.133094 90.775948 
L 518.640785 99.617921 
L 518.809388 104.939002 
L 521.226028 110.493549 
L 521.282229 118.379289 
L 521.33843 101.13993 
L 521.394631 101.271635 
L 522.012841 102.720392 
L 522.181444 112.728018 
L 525.384896 119.48257 
L 525.441097 115.726012 
L 525.497298 115.836215 
L 528.756952 122.227977 
L 528.925555 124.430835 
L 531.735601 128.672228 
L 531.791802 127.962927 
L 531.848003 128.051866 
L 536.625081 135.611643 
L 536.681282 132.726965 
L 536.737483 132.851698 
L 537.074689 133.600093 
L 537.13089 131.358697 
L 537.299493 136.347352 
L 538.198707 138.16141 
L 543.481594 148.049068 
L 543.537795 144.35981 
L 543.706398 148.854469 
L 544.493211 150.146625 
L 544.549412 141.672152 
L 544.605613 141.807424 
L 548.65208 151.546991 
L 548.820682 154.44458 
L 549.214089 162.259159 
L 554.609378 173.162079 
L 554.665579 172.996197 
L 554.72178 173.098907 
L 557.981433 179.056092 
L 558.150036 179.616102 
L 558.824447 180.888484 
L 558.880648 180.487418 
L 559.049251 181.167728 
L 561.353489 185.5675 
L 561.40969 184.958185 
L 561.465891 185.056781 
L 564.500741 190.380963 
L 564.669344 192.910408 
L 565.849563 195.19921 
L 566.018166 198.733625 
L 568.210002 203.357779 
L 568.266203 202.318758 
L 568.434806 204.0736 
L 568.554237 204.340334 
M 572.173762 204.340334 
L 572.200268 197.451325 
L 572.223729 204.340334 
" clip-path="url(#pb94c5445a6)" style="fill: none; stroke: #008000; stroke-width: 1.5; stroke-linecap: square"/>
   </g>
   <g id="line2d_42">
    <path d="M 481.604375 150.030292 
L 633.290674 150.030292 
L 633.290674 150.030292 
" clip-path="url(#pb94c5445a6)" style="fill: none; stroke-dasharray: 3.7,1.6; stroke-dashoffset: 0; stroke: #90ee90"/>
   </g>
   <g id="line2d_43">
    <path d="M 481.604375 70.162536 
L 633.290674 70.162536 
L 633.290674 70.162536 
" clip-path="url(#pb94c5445a6)" style="fill: none; stroke-dasharray: 3.7,1.6; stroke-dashoffset: 0; stroke: #000000"/>
   </g>
   <g id="patch_15">
    <path d="M 481.604375 163.341584 
L 481.604375 8.584583 
" style="fill: none; stroke: #000000; stroke-width: 0.8; stroke-linejoin: miter; stroke-linecap: square"/>
   </g>
   <g id="patch_16">
    <path d="M 633.346875 163.341584 
L 633.346875 8.584583 
" style="fill: none; stroke: #000000; stroke-width: 0.8; stroke-linejoin: miter; stroke-linecap: square"/>
   </g>
   <g id="patch_17">
    <path d="M 481.604375 163.341584 
L 633.346875 163.341584 
" style="fill: none; stroke: #000000; stroke-width: 0.8; stroke-linejoin: miter; stroke-linecap: square"/>
   </g>
   <g id="patch_18">
    <path d="M 481.604375 8.584583 
L 633.346875 8.584583 
" style="fill: none; stroke: #000000; stroke-width: 0.8; stroke-linejoin: miter; stroke-linecap: square"/>
   </g>
   <g id="text_37">
    <!-- 10 min -->
    <g transform="translate(543.4475 67.92217) scale(0.1 -0.1)">
     <use xlink:href="#TimesNewRomanPSMT-31"/>
     <use xlink:href="#TimesNewRomanPSMT-30" x="50"/>
     <use xlink:href="#TimesNewRomanPSMT-20" x="100"/>
     <use xlink:href="#TimesNewRomanPSMT-6d" x="125"/>
     <use xlink:href="#TimesNewRomanPSMT-69" x="202.783203"/>
     <use xlink:href="#TimesNewRomanPSMT-6e" x="230.566406"/>
    </g>
   </g>
   <g id="legend_3">
    <g id="patch_19">
     <path d="M 535.786875 52.264583 
L 624.946875 52.264583 
Q 627.346875 52.264583 627.346875 49.864583 
L 627.346875 16.984583 
Q 627.346875 14.584583 624.946875 14.584583 
L 535.786875 14.584583 
Q 533.386875 14.584583 533.386875 16.984583 
L 533.386875 49.864583 
Q 533.386875 52.264583 535.786875 52.264583 
z
" style="fill: #ffffff; opacity: 0.8; stroke: #cccccc; stroke-linejoin: miter"/>
    </g>
    <g id="line2d_44">
     <path d="M 538.186875 23.657708 
L 550.186875 23.657708 
L 562.186875 23.657708 
" style="fill: none; stroke: #ff0000; stroke-width: 1.5; stroke-linecap: square"/>
    </g>
    <g id="text_38">
     <!-- OS$\rightarrow$$TS_1$ -->
     <g transform="translate(571.786875 27.857708) scale(0.12 -0.12)">
      <use xlink:href="#TimesNewRomanPSMT-4f" transform="translate(0 0.78125)"/>
      <use xlink:href="#TimesNewRomanPSMT-53" transform="translate(72.216797 0.78125)"/>
      <use xlink:href="#DejaVuSans-2192" transform="translate(147.314453 0.78125)"/>
      <use xlink:href="#DejaVuSans-Oblique-54" transform="translate(250.585938 0.78125)"/>
      <use xlink:href="#DejaVuSans-Oblique-53" transform="translate(311.669922 0.78125)"/>
      <use xlink:href="#DejaVuSans-31" transform="translate(375.146484 -15.625) scale(0.7)"/>
     </g>
    </g>
    <g id="line2d_45">
     <path d="M 538.186875 40.697708 
L 550.186875 40.697708 
L 562.186875 40.697708 
" style="fill: none; stroke: #008000; stroke-width: 1.5; stroke-linecap: square"/>
    </g>
    <g id="text_39">
     <!-- $TS_2$$\rightarrow$OS -->
     <g transform="translate(571.786875 44.897708) scale(0.12 -0.12)">
      <use xlink:href="#DejaVuSans-Oblique-54" transform="translate(0 0.78125)"/>
      <use xlink:href="#DejaVuSans-Oblique-53" transform="translate(61.083984 0.78125)"/>
      <use xlink:href="#DejaVuSans-32" transform="translate(124.560547 -15.625) scale(0.7)"/>
      <use xlink:href="#DejaVuSans-2192" transform="translate(191.313477 0.78125)"/>
      <use xlink:href="#TimesNewRomanPSMT-4f" transform="translate(294.584961 0.78125)"/>
      <use xlink:href="#TimesNewRomanPSMT-53" transform="translate(366.801758 0.78125)"/>
     </g>
    </g>
   </g>
  </g>
  <g id="axes_4">
   <g id="patch_20">
    <path d="M 692.856875 69.781265 
L 844.599375 69.781265 
L 844.599375 8.584583 
L 692.856875 8.584583 
z
" style="fill: #ffffff"/>
   </g>
   <g id="matplotlib.axis_7">
    <g id="xtick_10">
     <g id="line2d_46">
      <g>
       <use xlink:href="#m4e7852415c" x="692.856875" y="69.781265" style="stroke: #000000; stroke-width: 0.8"/>
      </g>
     </g>
     <g id="text_40">
      <!-- 0 -->
      <g transform="translate(689.856875 85.113765) scale(0.12 -0.12)">
       <use xlink:href="#TimesNewRomanPSMT-30"/>
      </g>
     </g>
    </g>
    <g id="xtick_11">
     <g id="line2d_47">
      <g>
       <use xlink:href="#m4e7852415c" x="749.057801" y="69.781265" style="stroke: #000000; stroke-width: 0.8"/>
      </g>
     </g>
     <g id="text_41">
      <!-- 1000 -->
      <g transform="translate(737.057801 85.113765) scale(0.12 -0.12)">
       <use xlink:href="#TimesNewRomanPSMT-31"/>
       <use xlink:href="#TimesNewRomanPSMT-30" x="50"/>
       <use xlink:href="#TimesNewRomanPSMT-30" x="100"/>
       <use xlink:href="#TimesNewRomanPSMT-30" x="150"/>
      </g>
     </g>
    </g>
    <g id="xtick_12">
     <g id="line2d_48">
      <g>
       <use xlink:href="#m4e7852415c" x="805.258727" y="69.781265" style="stroke: #000000; stroke-width: 0.8"/>
      </g>
     </g>
     <g id="text_42">
      <!-- 2000 -->
      <g transform="translate(793.258727 85.113765) scale(0.12 -0.12)">
       <use xlink:href="#TimesNewRomanPSMT-32"/>
       <use xlink:href="#TimesNewRomanPSMT-30" x="50"/>
       <use xlink:href="#TimesNewRomanPSMT-30" x="100"/>
       <use xlink:href="#TimesNewRomanPSMT-30" x="150"/>
      </g>
     </g>
    </g>
   </g>
   <g id="matplotlib.axis_8">
    <g id="ytick_16">
     <g id="line2d_49">
      <g>
       <use xlink:href="#m4ed05971b3" x="692.856875" y="66.999598" style="stroke: #000000; stroke-width: 0.8"/>
      </g>
     </g>
     <g id="text_43">
      <!-- 0 -->
      <g transform="translate(679.856875 71.165848) scale(0.12 -0.12)">
       <use xlink:href="#TimesNewRomanPSMT-30"/>
      </g>
     </g>
    </g>
    <g id="ytick_17">
     <g id="line2d_50">
      <g>
       <use xlink:href="#m4ed05971b3" x="692.856875" y="11.36625" style="stroke: #000000; stroke-width: 0.8"/>
      </g>
     </g>
     <g id="text_44">
      <!-- 1 -->
      <g transform="translate(679.856875 15.5325) scale(0.12 -0.12)">
       <use xlink:href="#TimesNewRomanPSMT-31"/>
      </g>
     </g>
    </g>
    <g id="text_45">
     <!-- DS-based index -->
     <g transform="translate(673.29 77.342924) rotate(-90) scale(0.12 -0.12)">
      <defs>
       <path id="TimesNewRomanPSMT-2d" d="M 259 1672 
L 1875 1672 
L 1875 1200 
L 259 1200 
L 259 1672 
z
" transform="scale(0.015625)"/>
       <path id="TimesNewRomanPSMT-62" d="M 984 2369 
Q 1400 2947 1881 2947 
Q 2322 2947 2650 2570 
Q 2978 2194 2978 1541 
Q 2978 778 2472 313 
Q 2038 -88 1503 -88 
Q 1253 -88 995 3 
Q 738 94 469 275 
L 469 3241 
Q 469 3728 445 3840 
Q 422 3953 372 3993 
Q 322 4034 247 4034 
Q 159 4034 28 3984 
L -16 4094 
L 844 4444 
L 984 4444 
L 984 2369 
z
M 984 2169 
L 984 456 
Q 1144 300 1314 220 
Q 1484 141 1663 141 
Q 1947 141 2192 453 
Q 2438 766 2438 1363 
Q 2438 1913 2192 2208 
Q 1947 2503 1634 2503 
Q 1469 2503 1303 2419 
Q 1178 2356 984 2169 
z
" transform="scale(0.015625)"/>
       <path id="TimesNewRomanPSMT-64" d="M 2222 322 
Q 2013 103 1813 7 
Q 1613 -88 1381 -88 
Q 913 -88 563 304 
Q 213 697 213 1313 
Q 213 1928 600 2439 
Q 988 2950 1597 2950 
Q 1975 2950 2222 2709 
L 2222 3238 
Q 2222 3728 2198 3840 
Q 2175 3953 2125 3993 
Q 2075 4034 2000 4034 
Q 1919 4034 1784 3984 
L 1744 4094 
L 2597 4444 
L 2738 4444 
L 2738 1134 
Q 2738 631 2761 520 
Q 2784 409 2836 365 
Q 2888 322 2956 322 
Q 3041 322 3181 375 
L 3216 266 
L 2366 -88 
L 2222 -88 
L 2222 322 
z
M 2222 541 
L 2222 2016 
Q 2203 2228 2109 2403 
Q 2016 2578 1861 2667 
Q 1706 2756 1559 2756 
Q 1284 2756 1069 2509 
Q 784 2184 784 1559 
Q 784 928 1059 592 
Q 1334 256 1672 256 
Q 1956 256 2222 541 
z
" transform="scale(0.015625)"/>
       <path id="TimesNewRomanPSMT-78" d="M 84 2863 
L 1431 2863 
L 1431 2747 
Q 1303 2747 1251 2703 
Q 1200 2659 1200 2588 
Q 1200 2513 1309 2356 
Q 1344 2306 1413 2200 
L 1616 1875 
L 1850 2200 
Q 2075 2509 2075 2591 
Q 2075 2656 2022 2701 
Q 1969 2747 1850 2747 
L 1850 2863 
L 2819 2863 
L 2819 2747 
Q 2666 2738 2553 2663 
Q 2400 2556 2134 2200 
L 1744 1678 
L 2456 653 
Q 2719 275 2831 198 
Q 2944 122 3122 113 
L 3122 0 
L 1772 0 
L 1772 113 
Q 1913 113 1991 175 
Q 2050 219 2050 291 
Q 2050 363 1850 653 
L 1431 1266 
L 972 653 
Q 759 369 759 316 
Q 759 241 829 180 
Q 900 119 1041 113 
L 1041 0 
L 106 0 
L 106 113 
Q 219 128 303 191 
Q 422 281 703 653 
L 1303 1450 
L 759 2238 
Q 528 2575 401 2661 
Q 275 2747 84 2747 
L 84 2863 
z
" transform="scale(0.015625)"/>
      </defs>
      <use xlink:href="#TimesNewRomanPSMT-44"/>
      <use xlink:href="#TimesNewRomanPSMT-53" x="72.216797"/>
      <use xlink:href="#TimesNewRomanPSMT-2d" x="127.832031"/>
      <use xlink:href="#TimesNewRomanPSMT-62" x="161.132812"/>
      <use xlink:href="#TimesNewRomanPSMT-61" x="211.132812"/>
      <use xlink:href="#TimesNewRomanPSMT-73" x="255.517578"/>
      <use xlink:href="#TimesNewRomanPSMT-65" x="294.433594"/>
      <use xlink:href="#TimesNewRomanPSMT-64" x="338.818359"/>
      <use xlink:href="#TimesNewRomanPSMT-20" x="388.818359"/>
      <use xlink:href="#TimesNewRomanPSMT-69" x="413.818359"/>
      <use xlink:href="#TimesNewRomanPSMT-6e" x="441.601562"/>
      <use xlink:href="#TimesNewRomanPSMT-64" x="491.601562"/>
      <use xlink:href="#TimesNewRomanPSMT-65" x="541.601562"/>
      <use xlink:href="#TimesNewRomanPSMT-78" x="585.986328"/>
     </g>
    </g>
   </g>
   <g id="line2d_51">
    <path d="M 692.856875 22.801994 
L 694.486702 22.801994 
L 694.599104 21.256623 
L 696.17273 21.256623 
L 696.341332 20.947549 
L 699.544785 20.947549 
L 699.657187 18.474956 
L 701.230813 18.474956 
L 701.399416 18.165881 
L 702.916841 18.165881 
L 703.029243 11.36625 
L 734.951369 11.36625 
L 735.06377 35.783108 
L 736.637396 35.783108 
L 736.749798 11.36625 
L 766.985896 11.36625 
L 767.098298 66.999598 
L 844.543174 66.999598 
L 844.543174 66.999598 
" clip-path="url(#p7ddade3c64)" style="fill: none; stroke: #0000ff; stroke-width: 1.5; stroke-linecap: square"/>
   </g>
   <g id="patch_21">
    <path d="M 692.856875 69.781265 
L 692.856875 8.584583 
" style="fill: none; stroke: #000000; stroke-width: 0.8; stroke-linejoin: miter; stroke-linecap: square"/>
   </g>
   <g id="patch_22">
    <path d="M 844.599375 69.781265 
L 844.599375 8.584583 
" style="fill: none; stroke: #000000; stroke-width: 0.8; stroke-linejoin: miter; stroke-linecap: square"/>
   </g>
   <g id="patch_23">
    <path d="M 692.856875 69.781265 
L 844.599375 69.781265 
" style="fill: none; stroke: #000000; stroke-width: 0.8; stroke-linejoin: miter; stroke-linecap: square"/>
   </g>
   <g id="patch_24">
    <path d="M 692.856875 8.584583 
L 844.599375 8.584583 
" style="fill: none; stroke: #000000; stroke-width: 0.8; stroke-linejoin: miter; stroke-linecap: square"/>
   </g>
   <g id="legend_4">
    <g id="patch_25">
     <path d="M 782.46 35.151458 
L 836.199375 35.151458 
Q 838.599375 35.151458 838.599375 32.751458 
L 838.599375 16.984583 
Q 838.599375 14.584583 836.199375 14.584583 
L 782.46 14.584583 
Q 780.06 14.584583 780.06 16.984583 
L 780.06 32.751458 
Q 780.06 35.151458 782.46 35.151458 
z
" style="fill: #ffffff; opacity: 0.8; stroke: #cccccc; stroke-linejoin: miter"/>
    </g>
    <g id="line2d_52">
     <path d="M 784.86 23.584583 
L 796.86 23.584583 
L 808.86 23.584583 
" style="fill: none; stroke: #0000ff; stroke-width: 1.5; stroke-linecap: square"/>
    </g>
    <g id="text_46">
     <!-- OS -->
     <g transform="translate(818.46 27.784583) scale(0.12 -0.12)">
      <use xlink:href="#TimesNewRomanPSMT-4f"/>
      <use xlink:href="#TimesNewRomanPSMT-53" x="72.216797"/>
     </g>
    </g>
   </g>
  </g>
  <g id="axes_5">
   <g id="patch_26">
    <path d="M 692.856875 163.341584 
L 844.599375 163.341584 
L 844.599375 102.144902 
L 692.856875 102.144902 
z
" style="fill: #ffffff"/>
   </g>
   <g id="matplotlib.axis_9">
    <g id="xtick_13">
     <g id="line2d_53">
      <g>
       <use xlink:href="#m4e7852415c" x="692.856875" y="163.341584" style="stroke: #000000; stroke-width: 0.8"/>
      </g>
     </g>
     <g id="text_47">
      <!-- 0 -->
      <g transform="translate(689.856875 178.674084) scale(0.12 -0.12)">
       <use xlink:href="#TimesNewRomanPSMT-30"/>
      </g>
     </g>
    </g>
    <g id="xtick_14">
     <g id="line2d_54">
      <g>
       <use xlink:href="#m4e7852415c" x="749.057801" y="163.341584" style="stroke: #000000; stroke-width: 0.8"/>
      </g>
     </g>
     <g id="text_48">
      <!-- 1000 -->
      <g transform="translate(737.057801 178.674084) scale(0.12 -0.12)">
       <use xlink:href="#TimesNewRomanPSMT-31"/>
       <use xlink:href="#TimesNewRomanPSMT-30" x="50"/>
       <use xlink:href="#TimesNewRomanPSMT-30" x="100"/>
       <use xlink:href="#TimesNewRomanPSMT-30" x="150"/>
      </g>
     </g>
    </g>
    <g id="xtick_15">
     <g id="line2d_55">
      <g>
       <use xlink:href="#m4e7852415c" x="805.258727" y="163.341584" style="stroke: #000000; stroke-width: 0.8"/>
      </g>
     </g>
     <g id="text_49">
      <!-- 2000 -->
      <g transform="translate(793.258727 178.674084) scale(0.12 -0.12)">
       <use xlink:href="#TimesNewRomanPSMT-32"/>
       <use xlink:href="#TimesNewRomanPSMT-30" x="50"/>
       <use xlink:href="#TimesNewRomanPSMT-30" x="100"/>
       <use xlink:href="#TimesNewRomanPSMT-30" x="150"/>
      </g>
     </g>
    </g>
    <g id="text_50">
     <!-- Time (s) -->
     <g transform="translate(748.445312 193.573459) scale(0.12 -0.12)">
      <use xlink:href="#TimesNewRomanPSMT-54"/>
      <use xlink:href="#TimesNewRomanPSMT-69" x="57.583984"/>
      <use xlink:href="#TimesNewRomanPSMT-6d" x="85.367188"/>
      <use xlink:href="#TimesNewRomanPSMT-65" x="163.150391"/>
      <use xlink:href="#TimesNewRomanPSMT-20" x="207.535156"/>
      <use xlink:href="#TimesNewRomanPSMT-28" x="232.535156"/>
      <use xlink:href="#TimesNewRomanPSMT-73" x="265.835938"/>
      <use xlink:href="#TimesNewRomanPSMT-29" x="304.751953"/>
     </g>
    </g>
   </g>
   <g id="matplotlib.axis_10">
    <g id="ytick_18">
     <g id="line2d_56">
      <g>
       <use xlink:href="#m4ed05971b3" x="692.856875" y="160.559917" style="stroke: #000000; stroke-width: 0.8"/>
      </g>
     </g>
     <g id="text_51">
      <!-- 0 -->
      <g transform="translate(679.856875 164.726167) scale(0.12 -0.12)">
       <use xlink:href="#TimesNewRomanPSMT-30"/>
      </g>
     </g>
    </g>
    <g id="ytick_19">
     <g id="line2d_57">
      <g>
       <use xlink:href="#m4ed05971b3" x="692.856875" y="104.926569" style="stroke: #000000; stroke-width: 0.8"/>
      </g>
     </g>
     <g id="text_52">
      <!-- 1 -->
      <g transform="translate(679.856875 109.092819) scale(0.12 -0.12)">
       <use xlink:href="#TimesNewRomanPSMT-31"/>
      </g>
     </g>
    </g>
    <g id="text_53">
     <!-- Proximity index -->
     <g transform="translate(673.2675 171.57543) rotate(-90) scale(0.12 -0.12)">
      <defs>
       <path id="TimesNewRomanPSMT-72" d="M 1038 2947 
L 1038 2303 
Q 1397 2947 1775 2947 
Q 1947 2947 2059 2842 
Q 2172 2738 2172 2600 
Q 2172 2478 2090 2393 
Q 2009 2309 1897 2309 
Q 1788 2309 1652 2417 
Q 1516 2525 1450 2525 
Q 1394 2525 1328 2463 
Q 1188 2334 1038 2041 
L 1038 669 
Q 1038 431 1097 309 
Q 1138 225 1241 169 
Q 1344 113 1538 113 
L 1538 0 
L 72 0 
L 72 113 
Q 291 113 397 181 
Q 475 231 506 341 
Q 522 394 522 644 
L 522 1753 
Q 522 2253 501 2348 
Q 481 2444 426 2487 
Q 372 2531 291 2531 
Q 194 2531 72 2484 
L 41 2597 
L 906 2947 
L 1038 2947 
z
" transform="scale(0.015625)"/>
       <path id="TimesNewRomanPSMT-6f" d="M 1600 2947 
Q 2250 2947 2644 2453 
Q 2978 2031 2978 1484 
Q 2978 1100 2793 706 
Q 2609 313 2286 112 
Q 1963 -88 1566 -88 
Q 919 -88 538 428 
Q 216 863 216 1403 
Q 216 1797 411 2186 
Q 606 2575 925 2761 
Q 1244 2947 1600 2947 
z
M 1503 2744 
Q 1338 2744 1170 2645 
Q 1003 2547 900 2300 
Q 797 2053 797 1666 
Q 797 1041 1045 587 
Q 1294 134 1700 134 
Q 2003 134 2200 384 
Q 2397 634 2397 1244 
Q 2397 2006 2069 2444 
Q 1847 2744 1503 2744 
z
" transform="scale(0.015625)"/>
       <path id="TimesNewRomanPSMT-79" d="M 38 2863 
L 1372 2863 
L 1372 2747 
L 1306 2747 
Q 1166 2747 1095 2686 
Q 1025 2625 1025 2534 
Q 1025 2413 1128 2197 
L 1825 753 
L 2466 2334 
Q 2519 2463 2519 2588 
Q 2519 2644 2497 2672 
Q 2472 2706 2419 2726 
Q 2366 2747 2231 2747 
L 2231 2863 
L 3163 2863 
L 3163 2747 
Q 3047 2734 2984 2696 
Q 2922 2659 2847 2556 
Q 2819 2513 2741 2316 
L 1575 -541 
Q 1406 -956 1132 -1168 
Q 859 -1381 606 -1381 
Q 422 -1381 303 -1275 
Q 184 -1169 184 -1031 
Q 184 -900 270 -820 
Q 356 -741 506 -741 
Q 609 -741 788 -809 
Q 913 -856 944 -856 
Q 1038 -856 1148 -759 
Q 1259 -663 1372 -384 
L 1575 113 
L 547 2272 
Q 500 2369 397 2513 
Q 319 2622 269 2659 
Q 197 2709 38 2747 
L 38 2863 
z
" transform="scale(0.015625)"/>
      </defs>
      <use xlink:href="#TimesNewRomanPSMT-50"/>
      <use xlink:href="#TimesNewRomanPSMT-72" x="55.615234"/>
      <use xlink:href="#TimesNewRomanPSMT-6f" x="88.916016"/>
      <use xlink:href="#TimesNewRomanPSMT-78" x="138.916016"/>
      <use xlink:href="#TimesNewRomanPSMT-69" x="188.916016"/>
      <use xlink:href="#TimesNewRomanPSMT-6d" x="216.699219"/>
      <use xlink:href="#TimesNewRomanPSMT-69" x="294.482422"/>
      <use xlink:href="#TimesNewRomanPSMT-74" x="322.265625"/>
      <use xlink:href="#TimesNewRomanPSMT-79" x="350.048828"/>
      <use xlink:href="#TimesNewRomanPSMT-20" x="400.048828"/>
      <use xlink:href="#TimesNewRomanPSMT-69" x="425.048828"/>
      <use xlink:href="#TimesNewRomanPSMT-6e" x="452.832031"/>
      <use xlink:href="#TimesNewRomanPSMT-64" x="502.832031"/>
      <use xlink:href="#TimesNewRomanPSMT-65" x="552.832031"/>
      <use xlink:href="#TimesNewRomanPSMT-78" x="597.216797"/>
     </g>
    </g>
   </g>
   <g id="line2d_58">
    <path d="M 692.856875 160.559917 
L 694.486702 160.559917 
L 694.599104 154.667974 
L 696.17273 154.667974 
L 696.285131 150.838462 
L 697.858757 150.838462 
L 697.971159 148.233337 
L 699.544785 148.233337 
L 699.657187 146.173509 
L 701.230813 146.173509 
L 701.343215 144.450494 
L 702.916841 144.450494 
L 703.029243 142.53358 
L 704.602869 142.53358 
L 704.71527 140.610322 
L 706.288896 140.610322 
L 706.401298 138.771712 
L 707.974924 138.771712 
L 708.087326 135.013281 
L 709.660952 135.013281 
L 709.773354 134.160509 
L 711.34698 134.160509 
L 711.459381 133.454137 
L 713.033007 133.454137 
L 713.145409 132.883847 
L 714.719035 132.883847 
L 714.831437 132.442463 
L 716.405063 132.442463 
L 716.573666 132.64092 
L 718.091091 132.64092 
L 718.203493 130.322563 
L 719.777119 130.322563 
L 719.88952 127.566765 
L 721.463146 127.566765 
L 721.575548 126.001711 
L 723.149174 126.001711 
L 723.261576 124.430183 
L 724.835202 124.430183 
L 724.947604 123.293175 
L 726.52123 123.293175 
L 726.633631 122.898914 
L 728.207257 122.898914 
L 728.37586 122.579465 
L 729.893285 122.579465 
L 730.005687 160.559917 
L 733.265341 160.559917 
L 733.377743 155.945352 
L 734.951369 155.945352 
L 735.06377 153.989207 
L 736.637396 153.989207 
L 736.749798 144.041065 
L 738.323424 144.041065 
L 738.435826 142.579865 
L 740.009452 142.579865 
L 740.121854 144.312404 
L 741.69548 144.312404 
L 741.807881 143.508816 
L 743.381507 143.508816 
L 743.493909 144.390501 
L 745.067535 144.390501 
L 745.236138 144.048866 
L 746.753563 144.048866 
L 746.922166 143.718603 
L 748.439591 143.718603 
L 748.551993 142.142094 
L 750.125619 142.142094 
L 750.23802 141.079653 
L 755.183702 141.155348 
L 755.296104 140.777295 
L 756.86973 140.777295 
L 756.982131 136.618211 
L 758.555757 136.618211 
L 758.668159 133.417123 
L 760.241785 133.417123 
L 760.354187 160.559917 
L 844.543174 160.559917 
L 844.543174 160.559917 
" clip-path="url(#p5e0f52621c)" style="fill: none; stroke: #0000ff; stroke-width: 1.5; stroke-linecap: square"/>
   </g>
   <g id="patch_27">
    <path d="M 692.856875 163.341584 
L 692.856875 102.144902 
" style="fill: none; stroke: #000000; stroke-width: 0.8; stroke-linejoin: miter; stroke-linecap: square"/>
   </g>
   <g id="patch_28">
    <path d="M 844.599375 163.341584 
L 844.599375 102.144902 
" style="fill: none; stroke: #000000; stroke-width: 0.8; stroke-linejoin: miter; stroke-linecap: square"/>
   </g>
   <g id="patch_29">
    <path d="M 692.856875 163.341584 
L 844.599375 163.341584 
" style="fill: none; stroke: #000000; stroke-width: 0.8; stroke-linejoin: miter; stroke-linecap: square"/>
   </g>
   <g id="patch_30">
    <path d="M 692.856875 102.144902 
L 844.599375 102.144902 
" style="fill: none; stroke: #000000; stroke-width: 0.8; stroke-linejoin: miter; stroke-linecap: square"/>
   </g>
   <g id="legend_5">
    <g id="patch_31">
     <path d="M 782.46 128.711777 
L 836.199375 128.711777 
Q 838.599375 128.711777 838.599375 126.311777 
L 838.599375 110.544902 
Q 838.599375 108.144902 836.199375 108.144902 
L 782.46 108.144902 
Q 780.06 108.144902 780.06 110.544902 
L 780.06 126.311777 
Q 780.06 128.711777 782.46 128.711777 
z
" style="fill: #ffffff; opacity: 0.8; stroke: #cccccc; stroke-linejoin: miter"/>
    </g>
    <g id="line2d_59">
     <path d="M 784.86 117.144902 
L 796.86 117.144902 
L 808.86 117.144902 
" style="fill: none; stroke: #0000ff; stroke-width: 1.5; stroke-linecap: square"/>
    </g>
    <g id="text_54">
     <!-- OS -->
     <g transform="translate(818.46 121.344902) scale(0.12 -0.12)">
      <use xlink:href="#TimesNewRomanPSMT-4f"/>
      <use xlink:href="#TimesNewRomanPSMT-53" x="72.216797"/>
     </g>
    </g>
   </g>
  </g>
 </g>
 <defs>
  <clipPath id="p1b9ddfc753">
   <rect x="59.099375" y="8.584583" width="151.7425" height="154.757002"/>
  </clipPath>
  <clipPath id="p1b48a78a65">
   <rect x="270.351875" y="8.584583" width="151.7425" height="154.757002"/>
  </clipPath>
  <clipPath id="pb94c5445a6">
   <rect x="481.604375" y="8.584583" width="151.7425" height="154.757002"/>
  </clipPath>
  <clipPath id="p7ddade3c64">
   <rect x="692.856875" y="8.584583" width="151.7425" height="61.196683"/>
  </clipPath>
  <clipPath id="p5e0f52621c">
   <rect x="692.856875" y="102.144902" width="151.7425" height="61.196683"/>
  </clipPath>
 </defs>
</svg>
