<?xml version="1.0" encoding="utf-8" standalone="no"?>
<!DOCTYPE svg PUBLIC "-//W3C//DTD SVG 1.1//EN"
  "http://www.w3.org/Graphics/SVG/1.1/DTD/svg11.dtd">
<svg xmlns:xlink="http://www.w3.org/1999/xlink" width="1025.189955pt" height="368.372423pt" viewBox="0 0 1025.189955 368.372423" xmlns="http://www.w3.org/2000/svg" version="1.1">
 <metadata>
  <rdf:RDF xmlns:dc="http://purl.org/dc/elements/1.1/" xmlns:cc="http://creativecommons.org/ns#" xmlns:rdf="http://www.w3.org/1999/02/22-rdf-syntax-ns#">
   <cc:Work>
    <dc:type rdf:resource="http://purl.org/dc/dcmitype/StillImage"/>
    <dc:date>2024-10-27T20:09:51.302531</dc:date>
    <dc:format>image/svg+xml</dc:format>
    <dc:creator>
     <cc:Agent>
      <dc:title>Matplotlib v3.9.0, https://matplotlib.org/</dc:title>
     </cc:Agent>
    </dc:creator>
   </cc:Work>
  </rdf:RDF>
 </metadata>
 <defs>
  <style type="text/css">*{stroke-linejoin: round; stroke-linecap: butt}</style>
 </defs>
 <g id="figure_1">
  <g id="patch_1">
   <path d="M 0 368.372423 
L 1025.189955 368.372423 
L 1025.189955 0 
L 0 0 
z
" style="fill: #ffffff"/>
  </g>
  <g id="axes_1">
   <g id="patch_2">
    <path d="M 737.112575 119.141836 
L 1006.3682 119.141836 
L 1006.3682 7.2 
L 737.112575 7.2 
z
" style="fill: #ffffff"/>
   </g>
   <g id="matplotlib.axis_1">
    <g id="xtick_1">
     <g id="line2d_1">
      <defs>
       <path id="m60a7682f1c" d="M 0 0 
L 0 3.5 
" style="stroke: #000000; stroke-width: 0.8"/>
      </defs>
      <g>
       <use xlink:href="#m60a7682f1c" x="737.112575" y="119.141836" style="stroke: #000000; stroke-width: 0.8"/>
      </g>
     </g>
     <g id="text_1">
      <!-- 0 -->
      <g transform="translate(734.112575 134.474336) scale(0.12 -0.12)">
       <defs>
        <path id="TimesNewRomanPSMT-30" d="M 231 2094 
Q 231 2819 450 3342 
Q 669 3866 1031 4122 
Q 1313 4325 1613 4325 
Q 2100 4325 2488 3828 
Q 2972 3213 2972 2159 
Q 2972 1422 2759 906 
Q 2547 391 2217 158 
Q 1888 -75 1581 -75 
Q 975 -75 572 641 
Q 231 1244 231 2094 
z
M 844 2016 
Q 844 1141 1059 588 
Q 1238 122 1591 122 
Q 1759 122 1940 273 
Q 2122 425 2216 781 
Q 2359 1319 2359 2297 
Q 2359 3022 2209 3506 
Q 2097 3866 1919 4016 
Q 1791 4119 1609 4119 
Q 1397 4119 1231 3928 
Q 1006 3669 925 3112 
Q 844 2556 844 2016 
z
" transform="scale(0.015625)"/>
       </defs>
       <use xlink:href="#TimesNewRomanPSMT-30"/>
      </g>
     </g>
    </g>
    <g id="xtick_2">
     <g id="line2d_2">
      <g>
       <use xlink:href="#m60a7682f1c" x="782.143488" y="119.141836" style="stroke: #000000; stroke-width: 0.8"/>
      </g>
     </g>
     <g id="text_2">
      <!-- 250 -->
      <g transform="translate(773.143488 134.474336) scale(0.12 -0.12)">
       <defs>
        <path id="TimesNewRomanPSMT-32" d="M 2934 816 
L 2638 0 
L 138 0 
L 138 116 
Q 1241 1122 1691 1759 
Q 2141 2397 2141 2925 
Q 2141 3328 1894 3587 
Q 1647 3847 1303 3847 
Q 991 3847 742 3664 
Q 494 3481 375 3128 
L 259 3128 
Q 338 3706 661 4015 
Q 984 4325 1469 4325 
Q 1984 4325 2329 3994 
Q 2675 3663 2675 3213 
Q 2675 2891 2525 2569 
Q 2294 2063 1775 1497 
Q 997 647 803 472 
L 1909 472 
Q 2247 472 2383 497 
Q 2519 522 2628 598 
Q 2738 675 2819 816 
L 2934 816 
z
" transform="scale(0.015625)"/>
        <path id="TimesNewRomanPSMT-35" d="M 2778 4238 
L 2534 3706 
L 1259 3706 
L 981 3138 
Q 1809 3016 2294 2522 
Q 2709 2097 2709 1522 
Q 2709 1188 2573 903 
Q 2438 619 2231 419 
Q 2025 219 1772 97 
Q 1413 -75 1034 -75 
Q 653 -75 479 54 
Q 306 184 306 341 
Q 306 428 378 495 
Q 450 563 559 563 
Q 641 563 702 538 
Q 763 513 909 409 
Q 1144 247 1384 247 
Q 1750 247 2026 523 
Q 2303 800 2303 1197 
Q 2303 1581 2056 1914 
Q 1809 2247 1375 2428 
Q 1034 2569 447 2591 
L 1259 4238 
L 2778 4238 
z
" transform="scale(0.015625)"/>
       </defs>
       <use xlink:href="#TimesNewRomanPSMT-32"/>
       <use xlink:href="#TimesNewRomanPSMT-35" x="50"/>
       <use xlink:href="#TimesNewRomanPSMT-30" x="100"/>
      </g>
     </g>
    </g>
    <g id="xtick_3">
     <g id="line2d_3">
      <g>
       <use xlink:href="#m60a7682f1c" x="827.174402" y="119.141836" style="stroke: #000000; stroke-width: 0.8"/>
      </g>
     </g>
     <g id="text_3">
      <!-- 500 -->
      <g transform="translate(818.174402 134.474336) scale(0.12 -0.12)">
       <use xlink:href="#TimesNewRomanPSMT-35"/>
       <use xlink:href="#TimesNewRomanPSMT-30" x="50"/>
       <use xlink:href="#TimesNewRomanPSMT-30" x="100"/>
      </g>
     </g>
    </g>
    <g id="xtick_4">
     <g id="line2d_4">
      <g>
       <use xlink:href="#m60a7682f1c" x="872.205315" y="119.141836" style="stroke: #000000; stroke-width: 0.8"/>
      </g>
     </g>
     <g id="text_4">
      <!-- 750 -->
      <g transform="translate(863.205315 134.474336) scale(0.12 -0.12)">
       <defs>
        <path id="TimesNewRomanPSMT-37" d="M 644 4238 
L 2916 4238 
L 2916 4119 
L 1503 -88 
L 1153 -88 
L 2419 3728 
L 1253 3728 
Q 900 3728 750 3644 
Q 488 3500 328 3200 
L 238 3234 
L 644 4238 
z
" transform="scale(0.015625)"/>
       </defs>
       <use xlink:href="#TimesNewRomanPSMT-37"/>
       <use xlink:href="#TimesNewRomanPSMT-35" x="50"/>
       <use xlink:href="#TimesNewRomanPSMT-30" x="100"/>
      </g>
     </g>
    </g>
    <g id="xtick_5">
     <g id="line2d_5">
      <g>
       <use xlink:href="#m60a7682f1c" x="917.236228" y="119.141836" style="stroke: #000000; stroke-width: 0.8"/>
      </g>
     </g>
     <g id="text_5">
      <!-- 1000 -->
      <g transform="translate(905.236228 134.474336) scale(0.12 -0.12)">
       <defs>
        <path id="TimesNewRomanPSMT-31" d="M 750 3822 
L 1781 4325 
L 1884 4325 
L 1884 747 
Q 1884 391 1914 303 
Q 1944 216 2037 169 
Q 2131 122 2419 116 
L 2419 0 
L 825 0 
L 825 116 
Q 1125 122 1212 167 
Q 1300 213 1334 289 
Q 1369 366 1369 747 
L 1369 3034 
Q 1369 3497 1338 3628 
Q 1316 3728 1258 3775 
Q 1200 3822 1119 3822 
Q 1003 3822 797 3725 
L 750 3822 
z
" transform="scale(0.015625)"/>
       </defs>
       <use xlink:href="#TimesNewRomanPSMT-31"/>
       <use xlink:href="#TimesNewRomanPSMT-30" x="50"/>
       <use xlink:href="#TimesNewRomanPSMT-30" x="100"/>
       <use xlink:href="#TimesNewRomanPSMT-30" x="150"/>
      </g>
     </g>
    </g>
    <g id="xtick_6">
     <g id="line2d_6">
      <g>
       <use xlink:href="#m60a7682f1c" x="962.267142" y="119.141836" style="stroke: #000000; stroke-width: 0.8"/>
      </g>
     </g>
     <g id="text_6">
      <!-- 1250 -->
      <g transform="translate(950.267142 134.474336) scale(0.12 -0.12)">
       <use xlink:href="#TimesNewRomanPSMT-31"/>
       <use xlink:href="#TimesNewRomanPSMT-32" x="50"/>
       <use xlink:href="#TimesNewRomanPSMT-35" x="100"/>
       <use xlink:href="#TimesNewRomanPSMT-30" x="150"/>
      </g>
     </g>
    </g>
    <g id="text_7">
     <!-- Time (s) -->
     <g transform="translate(851.457575 149.373711) scale(0.12 -0.12)">
      <defs>
       <path id="TimesNewRomanPSMT-54" d="M 3703 4238 
L 3750 3244 
L 3631 3244 
Q 3597 3506 3538 3619 
Q 3441 3800 3280 3886 
Q 3119 3972 2856 3972 
L 2259 3972 
L 2259 734 
Q 2259 344 2344 247 
Q 2463 116 2709 116 
L 2856 116 
L 2856 0 
L 1059 0 
L 1059 116 
L 1209 116 
Q 1478 116 1591 278 
Q 1659 378 1659 734 
L 1659 3972 
L 1150 3972 
Q 853 3972 728 3928 
Q 566 3869 450 3700 
Q 334 3531 313 3244 
L 194 3244 
L 244 4238 
L 3703 4238 
z
" transform="scale(0.015625)"/>
       <path id="TimesNewRomanPSMT-69" d="M 928 4444 
Q 1059 4444 1151 4351 
Q 1244 4259 1244 4128 
Q 1244 3997 1151 3903 
Q 1059 3809 928 3809 
Q 797 3809 703 3903 
Q 609 3997 609 4128 
Q 609 4259 701 4351 
Q 794 4444 928 4444 
z
M 1188 2947 
L 1188 647 
Q 1188 378 1227 289 
Q 1266 200 1342 156 
Q 1419 113 1622 113 
L 1622 0 
L 231 0 
L 231 113 
Q 441 113 512 153 
Q 584 194 626 287 
Q 669 381 669 647 
L 669 1750 
Q 669 2216 641 2353 
Q 619 2453 572 2492 
Q 525 2531 444 2531 
Q 356 2531 231 2484 
L 188 2597 
L 1050 2947 
L 1188 2947 
z
" transform="scale(0.015625)"/>
       <path id="TimesNewRomanPSMT-6d" d="M 1050 2338 
Q 1363 2650 1419 2697 
Q 1559 2816 1721 2881 
Q 1884 2947 2044 2947 
Q 2313 2947 2506 2790 
Q 2700 2634 2766 2338 
Q 3088 2713 3309 2830 
Q 3531 2947 3766 2947 
Q 3994 2947 4170 2830 
Q 4347 2713 4450 2447 
Q 4519 2266 4519 1878 
L 4519 647 
Q 4519 378 4559 278 
Q 4591 209 4675 161 
Q 4759 113 4950 113 
L 4950 0 
L 3538 0 
L 3538 113 
L 3597 113 
Q 3781 113 3884 184 
Q 3956 234 3988 344 
Q 4000 397 4000 647 
L 4000 1878 
Q 4000 2228 3916 2372 
Q 3794 2572 3525 2572 
Q 3359 2572 3192 2489 
Q 3025 2406 2788 2181 
L 2781 2147 
L 2788 2013 
L 2788 647 
Q 2788 353 2820 281 
Q 2853 209 2943 161 
Q 3034 113 3253 113 
L 3253 0 
L 1806 0 
L 1806 113 
Q 2044 113 2133 169 
Q 2222 225 2256 338 
Q 2272 391 2272 647 
L 2272 1878 
Q 2272 2228 2169 2381 
Q 2031 2581 1784 2581 
Q 1616 2581 1450 2491 
Q 1191 2353 1050 2181 
L 1050 647 
Q 1050 366 1089 281 
Q 1128 197 1204 155 
Q 1281 113 1516 113 
L 1516 0 
L 100 0 
L 100 113 
Q 297 113 375 155 
Q 453 197 493 289 
Q 534 381 534 647 
L 534 1741 
Q 534 2213 506 2350 
Q 484 2453 437 2492 
Q 391 2531 309 2531 
Q 222 2531 100 2484 
L 53 2597 
L 916 2947 
L 1050 2947 
L 1050 2338 
z
" transform="scale(0.015625)"/>
       <path id="TimesNewRomanPSMT-65" d="M 681 1784 
Q 678 1147 991 784 
Q 1303 422 1725 422 
Q 2006 422 2214 576 
Q 2422 731 2563 1106 
L 2659 1044 
Q 2594 616 2278 264 
Q 1963 -88 1488 -88 
Q 972 -88 605 314 
Q 238 716 238 1394 
Q 238 2128 614 2539 
Q 991 2950 1559 2950 
Q 2041 2950 2350 2633 
Q 2659 2316 2659 1784 
L 681 1784 
z
M 681 1966 
L 2006 1966 
Q 1991 2241 1941 2353 
Q 1863 2528 1708 2628 
Q 1553 2728 1384 2728 
Q 1125 2728 920 2526 
Q 716 2325 681 1966 
z
" transform="scale(0.015625)"/>
       <path id="TimesNewRomanPSMT-20" transform="scale(0.015625)"/>
       <path id="TimesNewRomanPSMT-28" d="M 1988 -1253 
L 1988 -1369 
Q 1516 -1131 1200 -813 
Q 750 -359 506 256 
Q 263 872 263 1534 
Q 263 2503 741 3301 
Q 1219 4100 1988 4444 
L 1988 4313 
Q 1603 4100 1356 3731 
Q 1109 3363 987 2797 
Q 866 2231 866 1616 
Q 866 947 969 400 
Q 1050 -31 1165 -292 
Q 1281 -553 1476 -793 
Q 1672 -1034 1988 -1253 
z
" transform="scale(0.015625)"/>
       <path id="TimesNewRomanPSMT-73" d="M 2050 2947 
L 2050 1972 
L 1947 1972 
Q 1828 2431 1642 2597 
Q 1456 2763 1169 2763 
Q 950 2763 815 2647 
Q 681 2531 681 2391 
Q 681 2216 781 2091 
Q 878 1963 1175 1819 
L 1631 1597 
Q 2266 1288 2266 781 
Q 2266 391 1970 151 
Q 1675 -88 1309 -88 
Q 1047 -88 709 6 
Q 606 38 541 38 
Q 469 38 428 -44 
L 325 -44 
L 325 978 
L 428 978 
Q 516 541 762 319 
Q 1009 97 1316 97 
Q 1531 97 1667 223 
Q 1803 350 1803 528 
Q 1803 744 1651 891 
Q 1500 1038 1047 1263 
Q 594 1488 453 1669 
Q 313 1847 313 2119 
Q 313 2472 555 2709 
Q 797 2947 1181 2947 
Q 1350 2947 1591 2875 
Q 1750 2828 1803 2828 
Q 1853 2828 1881 2850 
Q 1909 2872 1947 2947 
L 2050 2947 
z
" transform="scale(0.015625)"/>
       <path id="TimesNewRomanPSMT-29" d="M 144 4313 
L 144 4444 
Q 619 4209 934 3891 
Q 1381 3434 1625 2820 
Q 1869 2206 1869 1541 
Q 1869 572 1392 -226 
Q 916 -1025 144 -1369 
L 144 -1253 
Q 528 -1038 776 -670 
Q 1025 -303 1145 264 
Q 1266 831 1266 1447 
Q 1266 2113 1163 2663 
Q 1084 3094 967 3353 
Q 850 3613 656 3853 
Q 463 4094 144 4313 
z
" transform="scale(0.015625)"/>
      </defs>
      <use xlink:href="#TimesNewRomanPSMT-54"/>
      <use xlink:href="#TimesNewRomanPSMT-69" x="57.583984"/>
      <use xlink:href="#TimesNewRomanPSMT-6d" x="85.367188"/>
      <use xlink:href="#TimesNewRomanPSMT-65" x="163.150391"/>
      <use xlink:href="#TimesNewRomanPSMT-20" x="207.535156"/>
      <use xlink:href="#TimesNewRomanPSMT-28" x="232.535156"/>
      <use xlink:href="#TimesNewRomanPSMT-73" x="265.835938"/>
      <use xlink:href="#TimesNewRomanPSMT-29" x="304.751953"/>
     </g>
    </g>
   </g>
   <g id="matplotlib.axis_2">
    <g id="ytick_1">
     <g id="line2d_7">
      <defs>
       <path id="mfd2b846632" d="M 0 0 
L -3.5 0 
" style="stroke: #000000; stroke-width: 0.8"/>
      </defs>
      <g>
       <use xlink:href="#mfd2b846632" x="737.112575" y="116.36921" style="stroke: #000000; stroke-width: 0.8"/>
      </g>
     </g>
     <g id="text_8">
      <!-- 0.0 -->
      <g transform="translate(715.112575 120.53546) scale(0.12 -0.12)">
       <defs>
        <path id="TimesNewRomanPSMT-2e" d="M 800 606 
Q 947 606 1047 504 
Q 1147 403 1147 259 
Q 1147 116 1045 14 
Q 944 -88 800 -88 
Q 656 -88 554 14 
Q 453 116 453 259 
Q 453 406 554 506 
Q 656 606 800 606 
z
" transform="scale(0.015625)"/>
       </defs>
       <use xlink:href="#TimesNewRomanPSMT-30"/>
       <use xlink:href="#TimesNewRomanPSMT-2e" x="50"/>
       <use xlink:href="#TimesNewRomanPSMT-30" x="75"/>
      </g>
     </g>
    </g>
    <g id="ytick_2">
     <g id="line2d_8">
      <g>
       <use xlink:href="#mfd2b846632" x="737.112575" y="64.383872" style="stroke: #000000; stroke-width: 0.8"/>
      </g>
     </g>
     <g id="text_9">
      <!-- 0.5 -->
      <g transform="translate(715.112575 68.550122) scale(0.12 -0.12)">
       <use xlink:href="#TimesNewRomanPSMT-30"/>
       <use xlink:href="#TimesNewRomanPSMT-2e" x="50"/>
       <use xlink:href="#TimesNewRomanPSMT-35" x="75"/>
      </g>
     </g>
    </g>
    <g id="ytick_3">
     <g id="line2d_9">
      <g>
       <use xlink:href="#mfd2b846632" x="737.112575" y="12.398534" style="stroke: #000000; stroke-width: 0.8"/>
      </g>
     </g>
     <g id="text_10">
      <!-- 1.0 -->
      <g transform="translate(715.112575 16.564784) scale(0.12 -0.12)">
       <use xlink:href="#TimesNewRomanPSMT-31"/>
       <use xlink:href="#TimesNewRomanPSMT-2e" x="50"/>
       <use xlink:href="#TimesNewRomanPSMT-30" x="75"/>
      </g>
     </g>
    </g>
    <g id="text_11">
     <!-- DS-based index -->
     <g transform="translate(708.5457 101.330918) rotate(-90) scale(0.12 -0.12)">
      <defs>
       <path id="TimesNewRomanPSMT-44" d="M 109 0 
L 109 116 
L 269 116 
Q 538 116 650 288 
Q 719 391 719 750 
L 719 3488 
Q 719 3884 631 3984 
Q 509 4122 269 4122 
L 109 4122 
L 109 4238 
L 1834 4238 
Q 2784 4238 3279 4022 
Q 3775 3806 4076 3303 
Q 4378 2800 4378 2141 
Q 4378 1256 3841 663 
Q 3238 0 2003 0 
L 109 0 
z
M 1319 306 
Q 1716 219 1984 219 
Q 2709 219 3187 728 
Q 3666 1238 3666 2109 
Q 3666 2988 3187 3494 
Q 2709 4000 1959 4000 
Q 1678 4000 1319 3909 
L 1319 306 
z
" transform="scale(0.015625)"/>
       <path id="TimesNewRomanPSMT-53" d="M 2934 4334 
L 2934 2869 
L 2819 2869 
Q 2763 3291 2617 3541 
Q 2472 3791 2203 3937 
Q 1934 4084 1647 4084 
Q 1322 4084 1109 3886 
Q 897 3688 897 3434 
Q 897 3241 1031 3081 
Q 1225 2847 1953 2456 
Q 2547 2138 2764 1967 
Q 2981 1797 3098 1565 
Q 3216 1334 3216 1081 
Q 3216 600 2842 251 
Q 2469 -97 1881 -97 
Q 1697 -97 1534 -69 
Q 1438 -53 1133 45 
Q 828 144 747 144 
Q 669 144 623 97 
Q 578 50 556 -97 
L 441 -97 
L 441 1356 
L 556 1356 
Q 638 900 775 673 
Q 913 447 1195 297 
Q 1478 147 1816 147 
Q 2206 147 2432 353 
Q 2659 559 2659 841 
Q 2659 997 2573 1156 
Q 2488 1316 2306 1453 
Q 2184 1547 1640 1851 
Q 1097 2156 867 2337 
Q 638 2519 519 2737 
Q 400 2956 400 3219 
Q 400 3675 750 4004 
Q 1100 4334 1641 4334 
Q 1978 4334 2356 4169 
Q 2531 4091 2603 4091 
Q 2684 4091 2736 4139 
Q 2788 4188 2819 4334 
L 2934 4334 
z
" transform="scale(0.015625)"/>
       <path id="TimesNewRomanPSMT-2d" d="M 259 1672 
L 1875 1672 
L 1875 1200 
L 259 1200 
L 259 1672 
z
" transform="scale(0.015625)"/>
       <path id="TimesNewRomanPSMT-62" d="M 984 2369 
Q 1400 2947 1881 2947 
Q 2322 2947 2650 2570 
Q 2978 2194 2978 1541 
Q 2978 778 2472 313 
Q 2038 -88 1503 -88 
Q 1253 -88 995 3 
Q 738 94 469 275 
L 469 3241 
Q 469 3728 445 3840 
Q 422 3953 372 3993 
Q 322 4034 247 4034 
Q 159 4034 28 3984 
L -16 4094 
L 844 4444 
L 984 4444 
L 984 2369 
z
M 984 2169 
L 984 456 
Q 1144 300 1314 220 
Q 1484 141 1663 141 
Q 1947 141 2192 453 
Q 2438 766 2438 1363 
Q 2438 1913 2192 2208 
Q 1947 2503 1634 2503 
Q 1469 2503 1303 2419 
Q 1178 2356 984 2169 
z
" transform="scale(0.015625)"/>
       <path id="TimesNewRomanPSMT-61" d="M 1822 413 
Q 1381 72 1269 19 
Q 1100 -59 909 -59 
Q 613 -59 420 144 
Q 228 347 228 678 
Q 228 888 322 1041 
Q 450 1253 767 1440 
Q 1084 1628 1822 1897 
L 1822 2009 
Q 1822 2438 1686 2597 
Q 1550 2756 1291 2756 
Q 1094 2756 978 2650 
Q 859 2544 859 2406 
L 866 2225 
Q 866 2081 792 2003 
Q 719 1925 600 1925 
Q 484 1925 411 2006 
Q 338 2088 338 2228 
Q 338 2497 613 2722 
Q 888 2947 1384 2947 
Q 1766 2947 2009 2819 
Q 2194 2722 2281 2516 
Q 2338 2381 2338 1966 
L 2338 994 
Q 2338 584 2353 492 
Q 2369 400 2405 369 
Q 2441 338 2488 338 
Q 2538 338 2575 359 
Q 2641 400 2828 588 
L 2828 413 
Q 2478 -56 2159 -56 
Q 2006 -56 1915 50 
Q 1825 156 1822 413 
z
M 1822 616 
L 1822 1706 
Q 1350 1519 1213 1441 
Q 966 1303 859 1153 
Q 753 1003 753 825 
Q 753 600 887 451 
Q 1022 303 1197 303 
Q 1434 303 1822 616 
z
" transform="scale(0.015625)"/>
       <path id="TimesNewRomanPSMT-64" d="M 2222 322 
Q 2013 103 1813 7 
Q 1613 -88 1381 -88 
Q 913 -88 563 304 
Q 213 697 213 1313 
Q 213 1928 600 2439 
Q 988 2950 1597 2950 
Q 1975 2950 2222 2709 
L 2222 3238 
Q 2222 3728 2198 3840 
Q 2175 3953 2125 3993 
Q 2075 4034 2000 4034 
Q 1919 4034 1784 3984 
L 1744 4094 
L 2597 4444 
L 2738 4444 
L 2738 1134 
Q 2738 631 2761 520 
Q 2784 409 2836 365 
Q 2888 322 2956 322 
Q 3041 322 3181 375 
L 3216 266 
L 2366 -88 
L 2222 -88 
L 2222 322 
z
M 2222 541 
L 2222 2016 
Q 2203 2228 2109 2403 
Q 2016 2578 1861 2667 
Q 1706 2756 1559 2756 
Q 1284 2756 1069 2509 
Q 784 2184 784 1559 
Q 784 928 1059 592 
Q 1334 256 1672 256 
Q 1956 256 2222 541 
z
" transform="scale(0.015625)"/>
       <path id="TimesNewRomanPSMT-6e" d="M 1034 2341 
Q 1538 2947 1994 2947 
Q 2228 2947 2397 2830 
Q 2566 2713 2666 2444 
Q 2734 2256 2734 1869 
L 2734 647 
Q 2734 375 2778 278 
Q 2813 200 2889 156 
Q 2966 113 3172 113 
L 3172 0 
L 1756 0 
L 1756 113 
L 1816 113 
Q 2016 113 2095 173 
Q 2175 234 2206 353 
Q 2219 400 2219 647 
L 2219 1819 
Q 2219 2209 2117 2386 
Q 2016 2563 1775 2563 
Q 1403 2563 1034 2156 
L 1034 647 
Q 1034 356 1069 288 
Q 1113 197 1189 155 
Q 1266 113 1500 113 
L 1500 0 
L 84 0 
L 84 113 
L 147 113 
Q 366 113 442 223 
Q 519 334 519 647 
L 519 1709 
Q 519 2225 495 2337 
Q 472 2450 423 2490 
Q 375 2531 294 2531 
Q 206 2531 84 2484 
L 38 2597 
L 900 2947 
L 1034 2947 
L 1034 2341 
z
" transform="scale(0.015625)"/>
       <path id="TimesNewRomanPSMT-78" d="M 84 2863 
L 1431 2863 
L 1431 2747 
Q 1303 2747 1251 2703 
Q 1200 2659 1200 2588 
Q 1200 2513 1309 2356 
Q 1344 2306 1413 2200 
L 1616 1875 
L 1850 2200 
Q 2075 2509 2075 2591 
Q 2075 2656 2022 2701 
Q 1969 2747 1850 2747 
L 1850 2863 
L 2819 2863 
L 2819 2747 
Q 2666 2738 2553 2663 
Q 2400 2556 2134 2200 
L 1744 1678 
L 2456 653 
Q 2719 275 2831 198 
Q 2944 122 3122 113 
L 3122 0 
L 1772 0 
L 1772 113 
Q 1913 113 1991 175 
Q 2050 219 2050 291 
Q 2050 363 1850 653 
L 1431 1266 
L 972 653 
Q 759 369 759 316 
Q 759 241 829 180 
Q 900 119 1041 113 
L 1041 0 
L 106 0 
L 106 113 
Q 219 128 303 191 
Q 422 281 703 653 
L 1303 1450 
L 759 2238 
Q 528 2575 401 2661 
Q 275 2747 84 2747 
L 84 2863 
z
" transform="scale(0.015625)"/>
      </defs>
      <use xlink:href="#TimesNewRomanPSMT-44"/>
      <use xlink:href="#TimesNewRomanPSMT-53" x="72.216797"/>
      <use xlink:href="#TimesNewRomanPSMT-2d" x="127.832031"/>
      <use xlink:href="#TimesNewRomanPSMT-62" x="161.132812"/>
      <use xlink:href="#TimesNewRomanPSMT-61" x="211.132812"/>
      <use xlink:href="#TimesNewRomanPSMT-73" x="255.517578"/>
      <use xlink:href="#TimesNewRomanPSMT-65" x="294.433594"/>
      <use xlink:href="#TimesNewRomanPSMT-64" x="338.818359"/>
      <use xlink:href="#TimesNewRomanPSMT-20" x="388.818359"/>
      <use xlink:href="#TimesNewRomanPSMT-69" x="413.818359"/>
      <use xlink:href="#TimesNewRomanPSMT-6e" x="441.601562"/>
      <use xlink:href="#TimesNewRomanPSMT-64" x="491.601562"/>
      <use xlink:href="#TimesNewRomanPSMT-65" x="541.601562"/>
      <use xlink:href="#TimesNewRomanPSMT-78" x="585.986328"/>
     </g>
    </g>
   </g>
   <g id="line2d_10">
    <path d="M 737.112575 66.017892 
L 742.336161 66.017892 
L 742.516285 64.409056 
L 747.739871 64.409056 
L 747.919994 62.170226 
L 753.14358 62.170226 
L 753.323704 60.104888 
L 758.54729 60.104888 
L 758.727413 56.381956 
L 763.950999 56.381956 
L 764.131123 52.049629 
L 769.354709 52.049629 
L 769.534833 46.063495 
L 774.758419 46.063495 
L 774.938542 36.809968 
L 780.162128 36.809968 
L 780.342252 20.448309 
L 785.565838 20.448309 
L 785.745961 12.398534 
L 790.969547 12.398534 
L 791.149671 116.36921 
L 1006.397437 116.36921 
L 1006.397437 116.36921 
" clip-path="url(#p6331774d63)" style="fill: none; stroke-dasharray: 2,3.3; stroke-dashoffset: 0; stroke: #add8e6; stroke-width: 2"/>
   </g>
   <g id="line2d_11">
    <path d="M 737.112575 66.017892 
L 742.336161 66.017892 
L 742.516285 116.36921 
L 1006.397437 116.36921 
L 1006.397437 116.36921 
" clip-path="url(#p6331774d63)" style="fill: none; stroke: #0000ff; stroke-width: 1.7; stroke-linecap: square"/>
   </g>
   <g id="patch_3">
    <path d="M 737.112575 119.141836 
L 737.112575 7.2 
" style="fill: none; stroke: #000000; stroke-width: 0.8; stroke-linejoin: miter; stroke-linecap: square"/>
   </g>
   <g id="patch_4">
    <path d="M 1006.3682 119.141836 
L 1006.3682 7.2 
" style="fill: none; stroke: #000000; stroke-width: 0.8; stroke-linejoin: miter; stroke-linecap: square"/>
   </g>
   <g id="patch_5">
    <path d="M 737.112575 119.141836 
L 1006.3682 119.141836 
" style="fill: none; stroke: #000000; stroke-width: 0.8; stroke-linejoin: miter; stroke-linecap: square"/>
   </g>
   <g id="patch_6">
    <path d="M 737.112575 7.2 
L 1006.3682 7.2 
" style="fill: none; stroke: #000000; stroke-width: 0.8; stroke-linejoin: miter; stroke-linecap: square"/>
   </g>
   <g id="legend_1">
    <g id="patch_7">
     <path d="M 835.56695 50.73375 
L 997.9682 50.73375 
Q 1000.3682 50.73375 1000.3682 48.33375 
L 1000.3682 15.6 
Q 1000.3682 13.2 997.9682 13.2 
L 835.56695 13.2 
Q 833.16695 13.2 833.16695 15.6 
L 833.16695 48.33375 
Q 833.16695 50.73375 835.56695 50.73375 
z
" style="fill: #ffffff; opacity: 0.8; stroke: #cccccc; stroke-linejoin: miter"/>
    </g>
    <g id="line2d_12">
     <path d="M 837.96695 22.2 
L 849.96695 22.2 
L 861.96695 22.2 
" style="fill: none; stroke-dasharray: 2,3.3; stroke-dashoffset: 0; stroke: #add8e6; stroke-width: 2"/>
    </g>
    <g id="text_12">
     <!-- OS no intervention -->
     <g transform="translate(871.56695 26.4) scale(0.12 -0.12)">
      <defs>
       <path id="TimesNewRomanPSMT-4f" d="M 2341 4334 
Q 3166 4334 3770 3707 
Q 4375 3081 4375 2144 
Q 4375 1178 3765 540 
Q 3156 -97 2291 -97 
Q 1416 -97 820 525 
Q 225 1147 225 2134 
Q 225 3144 913 3781 
Q 1509 4334 2341 4334 
z
M 2281 4106 
Q 1713 4106 1369 3684 
Q 941 3159 941 2147 
Q 941 1109 1384 550 
Q 1725 125 2284 125 
Q 2881 125 3270 590 
Q 3659 1056 3659 2059 
Q 3659 3147 3231 3681 
Q 2888 4106 2281 4106 
z
" transform="scale(0.015625)"/>
       <path id="TimesNewRomanPSMT-6f" d="M 1600 2947 
Q 2250 2947 2644 2453 
Q 2978 2031 2978 1484 
Q 2978 1100 2793 706 
Q 2609 313 2286 112 
Q 1963 -88 1566 -88 
Q 919 -88 538 428 
Q 216 863 216 1403 
Q 216 1797 411 2186 
Q 606 2575 925 2761 
Q 1244 2947 1600 2947 
z
M 1503 2744 
Q 1338 2744 1170 2645 
Q 1003 2547 900 2300 
Q 797 2053 797 1666 
Q 797 1041 1045 587 
Q 1294 134 1700 134 
Q 2003 134 2200 384 
Q 2397 634 2397 1244 
Q 2397 2006 2069 2444 
Q 1847 2744 1503 2744 
z
" transform="scale(0.015625)"/>
       <path id="TimesNewRomanPSMT-74" d="M 1031 3803 
L 1031 2863 
L 1700 2863 
L 1700 2644 
L 1031 2644 
L 1031 788 
Q 1031 509 1111 412 
Q 1191 316 1316 316 
Q 1419 316 1516 380 
Q 1613 444 1666 569 
L 1788 569 
Q 1678 263 1478 108 
Q 1278 -47 1066 -47 
Q 922 -47 784 33 
Q 647 113 581 261 
Q 516 409 516 719 
L 516 2644 
L 63 2644 
L 63 2747 
Q 234 2816 414 2980 
Q 594 3144 734 3369 
Q 806 3488 934 3803 
L 1031 3803 
z
" transform="scale(0.015625)"/>
       <path id="TimesNewRomanPSMT-72" d="M 1038 2947 
L 1038 2303 
Q 1397 2947 1775 2947 
Q 1947 2947 2059 2842 
Q 2172 2738 2172 2600 
Q 2172 2478 2090 2393 
Q 2009 2309 1897 2309 
Q 1788 2309 1652 2417 
Q 1516 2525 1450 2525 
Q 1394 2525 1328 2463 
Q 1188 2334 1038 2041 
L 1038 669 
Q 1038 431 1097 309 
Q 1138 225 1241 169 
Q 1344 113 1538 113 
L 1538 0 
L 72 0 
L 72 113 
Q 291 113 397 181 
Q 475 231 506 341 
Q 522 394 522 644 
L 522 1753 
Q 522 2253 501 2348 
Q 481 2444 426 2487 
Q 372 2531 291 2531 
Q 194 2531 72 2484 
L 41 2597 
L 906 2947 
L 1038 2947 
z
" transform="scale(0.015625)"/>
       <path id="TimesNewRomanPSMT-76" d="M 53 2863 
L 1400 2863 
L 1400 2747 
L 1313 2747 
Q 1191 2747 1127 2687 
Q 1063 2628 1063 2528 
Q 1063 2419 1128 2269 
L 1794 688 
L 2463 2328 
Q 2534 2503 2534 2594 
Q 2534 2638 2509 2666 
Q 2475 2713 2422 2730 
Q 2369 2747 2206 2747 
L 2206 2863 
L 3141 2863 
L 3141 2747 
Q 2978 2734 2916 2681 
Q 2806 2588 2719 2369 
L 1703 -88 
L 1575 -88 
L 553 2328 
Q 484 2497 421 2570 
Q 359 2644 263 2694 
Q 209 2722 53 2747 
L 53 2863 
z
" transform="scale(0.015625)"/>
      </defs>
      <use xlink:href="#TimesNewRomanPSMT-4f"/>
      <use xlink:href="#TimesNewRomanPSMT-53" x="72.216797"/>
      <use xlink:href="#TimesNewRomanPSMT-20" x="127.832031"/>
      <use xlink:href="#TimesNewRomanPSMT-6e" x="152.832031"/>
      <use xlink:href="#TimesNewRomanPSMT-6f" x="202.832031"/>
      <use xlink:href="#TimesNewRomanPSMT-20" x="252.832031"/>
      <use xlink:href="#TimesNewRomanPSMT-69" x="277.832031"/>
      <use xlink:href="#TimesNewRomanPSMT-6e" x="305.615234"/>
      <use xlink:href="#TimesNewRomanPSMT-74" x="355.615234"/>
      <use xlink:href="#TimesNewRomanPSMT-65" x="383.398438"/>
      <use xlink:href="#TimesNewRomanPSMT-72" x="427.783203"/>
      <use xlink:href="#TimesNewRomanPSMT-76" x="461.083984"/>
      <use xlink:href="#TimesNewRomanPSMT-65" x="511.083984"/>
      <use xlink:href="#TimesNewRomanPSMT-6e" x="555.46875"/>
      <use xlink:href="#TimesNewRomanPSMT-74" x="605.46875"/>
      <use xlink:href="#TimesNewRomanPSMT-69" x="633.251953"/>
      <use xlink:href="#TimesNewRomanPSMT-6f" x="661.035156"/>
      <use xlink:href="#TimesNewRomanPSMT-6e" x="711.035156"/>
     </g>
    </g>
    <g id="line2d_13">
     <path d="M 837.96695 39.166875 
L 849.96695 39.166875 
L 861.96695 39.166875 
" style="fill: none; stroke: #0000ff; stroke-width: 1.7; stroke-linecap: square"/>
    </g>
    <g id="text_13">
     <!-- OS COLREGS compliant -->
     <g transform="translate(871.56695 43.366875) scale(0.12 -0.12)">
      <defs>
       <path id="TimesNewRomanPSMT-43" d="M 3853 4334 
L 3950 2894 
L 3853 2894 
Q 3659 3541 3300 3825 
Q 2941 4109 2438 4109 
Q 2016 4109 1675 3895 
Q 1334 3681 1139 3212 
Q 944 2744 944 2047 
Q 944 1472 1128 1050 
Q 1313 628 1683 403 
Q 2053 178 2528 178 
Q 2941 178 3256 354 
Q 3572 531 3950 1056 
L 4047 994 
Q 3728 428 3303 165 
Q 2878 -97 2294 -97 
Q 1241 -97 663 684 
Q 231 1266 231 2053 
Q 231 2688 515 3219 
Q 800 3750 1298 4042 
Q 1797 4334 2388 4334 
Q 2847 4334 3294 4109 
Q 3425 4041 3481 4041 
Q 3566 4041 3628 4100 
Q 3709 4184 3744 4334 
L 3853 4334 
z
" transform="scale(0.015625)"/>
       <path id="TimesNewRomanPSMT-4c" d="M 3669 1172 
L 3772 1150 
L 3409 0 
L 128 0 
L 128 116 
L 288 116 
Q 556 116 672 291 
Q 738 391 738 753 
L 738 3488 
Q 738 3884 650 3984 
Q 528 4122 288 4122 
L 128 4122 
L 128 4238 
L 2047 4238 
L 2047 4122 
Q 1709 4125 1573 4059 
Q 1438 3994 1388 3894 
Q 1338 3794 1338 3416 
L 1338 753 
Q 1338 494 1388 397 
Q 1425 331 1503 300 
Q 1581 269 1991 269 
L 2300 269 
Q 2788 269 2984 341 
Q 3181 413 3343 595 
Q 3506 778 3669 1172 
z
" transform="scale(0.015625)"/>
       <path id="TimesNewRomanPSMT-52" d="M 4325 0 
L 3194 0 
L 1759 1981 
Q 1600 1975 1500 1975 
Q 1459 1975 1412 1976 
Q 1366 1978 1316 1981 
L 1316 750 
Q 1316 350 1403 253 
Q 1522 116 1759 116 
L 1925 116 
L 1925 0 
L 109 0 
L 109 116 
L 269 116 
Q 538 116 653 291 
Q 719 388 719 750 
L 719 3488 
Q 719 3888 631 3984 
Q 509 4122 269 4122 
L 109 4122 
L 109 4238 
L 1653 4238 
Q 2328 4238 2648 4139 
Q 2969 4041 3192 3777 
Q 3416 3513 3416 3147 
Q 3416 2756 3161 2468 
Q 2906 2181 2372 2063 
L 3247 847 
Q 3547 428 3762 290 
Q 3978 153 4325 116 
L 4325 0 
z
M 1316 2178 
Q 1375 2178 1419 2176 
Q 1463 2175 1491 2175 
Q 2097 2175 2405 2437 
Q 2713 2700 2713 3106 
Q 2713 3503 2464 3751 
Q 2216 4000 1806 4000 
Q 1625 4000 1316 3941 
L 1316 2178 
z
" transform="scale(0.015625)"/>
       <path id="TimesNewRomanPSMT-45" d="M 1338 4006 
L 1338 2331 
L 2269 2331 
Q 2631 2331 2753 2441 
Q 2916 2584 2934 2947 
L 3050 2947 
L 3050 1472 
L 2934 1472 
Q 2891 1781 2847 1869 
Q 2791 1978 2662 2040 
Q 2534 2103 2269 2103 
L 1338 2103 
L 1338 706 
Q 1338 425 1363 364 
Q 1388 303 1450 267 
Q 1513 231 1688 231 
L 2406 231 
Q 2766 231 2928 281 
Q 3091 331 3241 478 
Q 3434 672 3638 1063 
L 3763 1063 
L 3397 0 
L 131 0 
L 131 116 
L 281 116 
Q 431 116 566 188 
Q 666 238 702 338 
Q 738 438 738 747 
L 738 3500 
Q 738 3903 656 3997 
Q 544 4122 281 4122 
L 131 4122 
L 131 4238 
L 3397 4238 
L 3444 3309 
L 3322 3309 
Q 3256 3644 3176 3769 
Q 3097 3894 2941 3959 
Q 2816 4006 2500 4006 
L 1338 4006 
z
" transform="scale(0.015625)"/>
       <path id="TimesNewRomanPSMT-47" d="M 3928 4334 
L 4038 2997 
L 3928 2997 
Q 3763 3497 3500 3750 
Q 3122 4116 2528 4116 
Q 1719 4116 1297 3475 
Q 944 2934 944 2188 
Q 944 1581 1178 1081 
Q 1413 581 1792 348 
Q 2172 116 2572 116 
Q 2806 116 3025 175 
Q 3244 234 3447 350 
L 3447 1575 
Q 3447 1894 3398 1992 
Q 3350 2091 3248 2142 
Q 3147 2194 2891 2194 
L 2891 2313 
L 4531 2313 
L 4531 2194 
L 4453 2194 
Q 4209 2194 4119 2031 
Q 4056 1916 4056 1575 
L 4056 278 
Q 3697 84 3347 -6 
Q 2997 -97 2569 -97 
Q 1341 -97 703 691 
Q 225 1281 225 2053 
Q 225 2613 494 3125 
Q 813 3734 1369 4063 
Q 1834 4334 2469 4334 
Q 2700 4334 2889 4296 
Q 3078 4259 3425 4131 
Q 3600 4066 3659 4066 
Q 3719 4066 3761 4120 
Q 3803 4175 3813 4334 
L 3928 4334 
z
" transform="scale(0.015625)"/>
       <path id="TimesNewRomanPSMT-63" d="M 2631 1088 
Q 2516 522 2178 217 
Q 1841 -88 1431 -88 
Q 944 -88 581 321 
Q 219 731 219 1428 
Q 219 2103 620 2525 
Q 1022 2947 1584 2947 
Q 2006 2947 2278 2723 
Q 2550 2500 2550 2259 
Q 2550 2141 2473 2067 
Q 2397 1994 2259 1994 
Q 2075 1994 1981 2113 
Q 1928 2178 1911 2362 
Q 1894 2547 1784 2644 
Q 1675 2738 1481 2738 
Q 1169 2738 978 2506 
Q 725 2200 725 1697 
Q 725 1184 976 792 
Q 1228 400 1656 400 
Q 1963 400 2206 609 
Q 2378 753 2541 1131 
L 2631 1088 
z
" transform="scale(0.015625)"/>
       <path id="TimesNewRomanPSMT-70" d="M -6 2578 
L 875 2934 
L 994 2934 
L 994 2266 
Q 1216 2644 1439 2795 
Q 1663 2947 1909 2947 
Q 2341 2947 2628 2609 
Q 2981 2197 2981 1534 
Q 2981 794 2556 309 
Q 2206 -88 1675 -88 
Q 1444 -88 1275 -22 
Q 1150 25 994 166 
L 994 -706 
Q 994 -1000 1030 -1079 
Q 1066 -1159 1155 -1206 
Q 1244 -1253 1478 -1253 
L 1478 -1369 
L -22 -1369 
L -22 -1253 
L 56 -1253 
Q 228 -1256 350 -1188 
Q 409 -1153 442 -1076 
Q 475 -1000 475 -688 
L 475 2019 
Q 475 2297 450 2372 
Q 425 2447 370 2484 
Q 316 2522 222 2522 
Q 147 2522 31 2478 
L -6 2578 
z
M 994 2081 
L 994 1013 
Q 994 666 1022 556 
Q 1066 375 1236 237 
Q 1406 100 1666 100 
Q 1978 100 2172 344 
Q 2425 663 2425 1241 
Q 2425 1897 2138 2250 
Q 1938 2494 1663 2494 
Q 1513 2494 1366 2419 
Q 1253 2363 994 2081 
z
" transform="scale(0.015625)"/>
       <path id="TimesNewRomanPSMT-6c" d="M 1184 4444 
L 1184 647 
Q 1184 378 1223 290 
Q 1263 203 1344 158 
Q 1425 113 1647 113 
L 1647 0 
L 244 0 
L 244 113 
Q 441 113 512 153 
Q 584 194 625 287 
Q 666 381 666 647 
L 666 3247 
Q 666 3731 644 3842 
Q 622 3953 573 3993 
Q 525 4034 450 4034 
Q 369 4034 244 3984 
L 191 4094 
L 1044 4444 
L 1184 4444 
z
" transform="scale(0.015625)"/>
      </defs>
      <use xlink:href="#TimesNewRomanPSMT-4f"/>
      <use xlink:href="#TimesNewRomanPSMT-53" x="72.216797"/>
      <use xlink:href="#TimesNewRomanPSMT-20" x="127.832031"/>
      <use xlink:href="#TimesNewRomanPSMT-43" x="152.832031"/>
      <use xlink:href="#TimesNewRomanPSMT-4f" x="219.53125"/>
      <use xlink:href="#TimesNewRomanPSMT-4c" x="291.748047"/>
      <use xlink:href="#TimesNewRomanPSMT-52" x="352.832031"/>
      <use xlink:href="#TimesNewRomanPSMT-45" x="419.53125"/>
      <use xlink:href="#TimesNewRomanPSMT-47" x="480.615234"/>
      <use xlink:href="#TimesNewRomanPSMT-53" x="552.832031"/>
      <use xlink:href="#TimesNewRomanPSMT-20" x="608.447266"/>
      <use xlink:href="#TimesNewRomanPSMT-63" x="633.447266"/>
      <use xlink:href="#TimesNewRomanPSMT-6f" x="677.832031"/>
      <use xlink:href="#TimesNewRomanPSMT-6d" x="727.832031"/>
      <use xlink:href="#TimesNewRomanPSMT-70" x="805.615234"/>
      <use xlink:href="#TimesNewRomanPSMT-6c" x="855.615234"/>
      <use xlink:href="#TimesNewRomanPSMT-69" x="883.398438"/>
      <use xlink:href="#TimesNewRomanPSMT-61" x="911.181641"/>
      <use xlink:href="#TimesNewRomanPSMT-6e" x="955.566406"/>
      <use xlink:href="#TimesNewRomanPSMT-74" x="1005.566406"/>
     </g>
    </g>
   </g>
  </g>
  <g id="axes_2">
   <g id="patch_8">
    <path d="M 53.099375 328.373673 
L 322.355 328.373673 
L 322.355 216.431836 
L 53.099375 216.431836 
z
" style="fill: #ffffff"/>
   </g>
   <g id="matplotlib.axis_3">
    <g id="xtick_7">
     <g id="line2d_14">
      <g>
       <use xlink:href="#m60a7682f1c" x="56.569882" y="328.373673" style="stroke: #000000; stroke-width: 0.8"/>
      </g>
     </g>
     <g id="text_14">
      <!-- 0 -->
      <g transform="translate(53.569882 343.706173) scale(0.12 -0.12)">
       <use xlink:href="#TimesNewRomanPSMT-30"/>
      </g>
     </g>
    </g>
    <g id="xtick_8">
     <g id="line2d_15">
      <g>
       <use xlink:href="#m60a7682f1c" x="101.538103" y="328.373673" style="stroke: #000000; stroke-width: 0.8"/>
      </g>
     </g>
     <g id="text_15">
      <!-- 250 -->
      <g transform="translate(92.538103 343.706173) scale(0.12 -0.12)">
       <use xlink:href="#TimesNewRomanPSMT-32"/>
       <use xlink:href="#TimesNewRomanPSMT-35" x="50"/>
       <use xlink:href="#TimesNewRomanPSMT-30" x="100"/>
      </g>
     </g>
    </g>
    <g id="xtick_9">
     <g id="line2d_16">
      <g>
       <use xlink:href="#m60a7682f1c" x="146.506325" y="328.373673" style="stroke: #000000; stroke-width: 0.8"/>
      </g>
     </g>
     <g id="text_16">
      <!-- 500 -->
      <g transform="translate(137.506325 343.706173) scale(0.12 -0.12)">
       <use xlink:href="#TimesNewRomanPSMT-35"/>
       <use xlink:href="#TimesNewRomanPSMT-30" x="50"/>
       <use xlink:href="#TimesNewRomanPSMT-30" x="100"/>
      </g>
     </g>
    </g>
    <g id="xtick_10">
     <g id="line2d_17">
      <g>
       <use xlink:href="#m60a7682f1c" x="191.474547" y="328.373673" style="stroke: #000000; stroke-width: 0.8"/>
      </g>
     </g>
     <g id="text_17">
      <!-- 750 -->
      <g transform="translate(182.474547 343.706173) scale(0.12 -0.12)">
       <use xlink:href="#TimesNewRomanPSMT-37"/>
       <use xlink:href="#TimesNewRomanPSMT-35" x="50"/>
       <use xlink:href="#TimesNewRomanPSMT-30" x="100"/>
      </g>
     </g>
    </g>
    <g id="xtick_11">
     <g id="line2d_18">
      <g>
       <use xlink:href="#m60a7682f1c" x="236.442769" y="328.373673" style="stroke: #000000; stroke-width: 0.8"/>
      </g>
     </g>
     <g id="text_18">
      <!-- 1000 -->
      <g transform="translate(224.442769 343.706173) scale(0.12 -0.12)">
       <use xlink:href="#TimesNewRomanPSMT-31"/>
       <use xlink:href="#TimesNewRomanPSMT-30" x="50"/>
       <use xlink:href="#TimesNewRomanPSMT-30" x="100"/>
       <use xlink:href="#TimesNewRomanPSMT-30" x="150"/>
      </g>
     </g>
    </g>
    <g id="xtick_12">
     <g id="line2d_19">
      <g>
       <use xlink:href="#m60a7682f1c" x="281.410991" y="328.373673" style="stroke: #000000; stroke-width: 0.8"/>
      </g>
     </g>
     <g id="text_19">
      <!-- 1250 -->
      <g transform="translate(269.410991 343.706173) scale(0.12 -0.12)">
       <use xlink:href="#TimesNewRomanPSMT-31"/>
       <use xlink:href="#TimesNewRomanPSMT-32" x="50"/>
       <use xlink:href="#TimesNewRomanPSMT-35" x="100"/>
       <use xlink:href="#TimesNewRomanPSMT-30" x="150"/>
      </g>
     </g>
    </g>
    <g id="text_20">
     <!-- Time (s) -->
     <g transform="translate(167.444375 358.605548) scale(0.12 -0.12)">
      <use xlink:href="#TimesNewRomanPSMT-54"/>
      <use xlink:href="#TimesNewRomanPSMT-69" x="57.583984"/>
      <use xlink:href="#TimesNewRomanPSMT-6d" x="85.367188"/>
      <use xlink:href="#TimesNewRomanPSMT-65" x="163.150391"/>
      <use xlink:href="#TimesNewRomanPSMT-20" x="207.535156"/>
      <use xlink:href="#TimesNewRomanPSMT-28" x="232.535156"/>
      <use xlink:href="#TimesNewRomanPSMT-73" x="265.835938"/>
      <use xlink:href="#TimesNewRomanPSMT-29" x="304.751953"/>
     </g>
    </g>
   </g>
   <g id="matplotlib.axis_4">
    <g id="ytick_4">
     <g id="line2d_20">
      <g>
       <use xlink:href="#mfd2b846632" x="53.099375" y="320.64524" style="stroke: #000000; stroke-width: 0.8"/>
      </g>
     </g>
     <g id="text_21">
      <!-- 0 -->
      <g transform="translate(40.099375 324.81149) scale(0.12 -0.12)">
       <use xlink:href="#TimesNewRomanPSMT-30"/>
      </g>
     </g>
    </g>
    <g id="ytick_5">
     <g id="line2d_21">
      <g>
       <use xlink:href="#mfd2b846632" x="53.099375" y="266.977107" style="stroke: #000000; stroke-width: 0.8"/>
      </g>
     </g>
     <g id="text_22">
      <!-- 5000 -->
      <g transform="translate(22.099375 271.143357) scale(0.12 -0.12)">
       <use xlink:href="#TimesNewRomanPSMT-35"/>
       <use xlink:href="#TimesNewRomanPSMT-30" x="50"/>
       <use xlink:href="#TimesNewRomanPSMT-30" x="100"/>
       <use xlink:href="#TimesNewRomanPSMT-30" x="150"/>
      </g>
     </g>
    </g>
    <g id="text_23">
     <!-- Distance (m) -->
     <g transform="translate(15.5325 303.557755) rotate(-90) scale(0.12 -0.12)">
      <use xlink:href="#TimesNewRomanPSMT-44"/>
      <use xlink:href="#TimesNewRomanPSMT-69" x="72.216797"/>
      <use xlink:href="#TimesNewRomanPSMT-73" x="100"/>
      <use xlink:href="#TimesNewRomanPSMT-74" x="138.916016"/>
      <use xlink:href="#TimesNewRomanPSMT-61" x="166.699219"/>
      <use xlink:href="#TimesNewRomanPSMT-6e" x="211.083984"/>
      <use xlink:href="#TimesNewRomanPSMT-63" x="261.083984"/>
      <use xlink:href="#TimesNewRomanPSMT-65" x="305.46875"/>
      <use xlink:href="#TimesNewRomanPSMT-20" x="349.853516"/>
      <use xlink:href="#TimesNewRomanPSMT-28" x="374.853516"/>
      <use xlink:href="#TimesNewRomanPSMT-6d" x="408.154297"/>
      <use xlink:href="#TimesNewRomanPSMT-29" x="485.9375"/>
     </g>
    </g>
   </g>
   <g id="line2d_22">
    <path d="M 56.569882 221.147679 
L 61.066704 224.597938 
L 70.77984 230.728603 
L 85.889162 239.880531 
L 90.206112 242.571086 
L 95.422425 246.052047 
L 106.754417 253.237133 
L 113.76946 257.719931 
L 125.64107 265.458959 
L 131.576876 269.379336 
L 141.469885 275.977131 
L 145.606961 278.542409 
L 152.442131 282.50073 
L 158.557809 285.803416 
L 163.774123 288.37863 
L 172.94764 292.789553 
L 176.005479 294.146504 
L 180.142555 295.572279 
L 183.919886 296.652202 
L 187.517344 297.455643 
L 191.65442 298.133886 
L 194.532386 298.398766 
L 197.23048 298.423182 
L 200.468192 298.102174 
L 203.705904 297.559638 
L 207.123488 296.763402 
L 210.720946 295.701136 
L 214.67815 294.300038 
L 217.19637 293.224948 
L 221.513319 291.174057 
L 237.162261 283.197942 
L 243.637685 279.52821 
L 250.8326 275.002586 
L 259.466499 269.296804 
L 264.862685 265.784965 
L 275.11544 259.117712 
L 282.490228 254.104717 
L 294.901458 245.236474 
L 322.422009 225.159479 
L 322.422009 225.159479 
" clip-path="url(#p02ba77edbf)" style="fill: none; stroke-dasharray: 2,3.3; stroke-dashoffset: 0; stroke: #90ee90; stroke-width: 2"/>
   </g>
   <g id="line2d_23">
    <path d="M 56.569882 280.435431 
L 104.41607 318.711011 
L 105.855053 319.674521 
L 106.574544 319.907757 
L 107.114163 319.818782 
L 107.833655 319.440035 
L 109.632383 318.136059 
L 115.927934 313.155559 
L 161.076029 276.937677 
L 322.422009 147.403058 
L 322.422009 147.403058 
" clip-path="url(#p02ba77edbf)" style="fill: none; stroke-dasharray: 2,3.3; stroke-dashoffset: 0; stroke: #fa8072; stroke-width: 2"/>
   </g>
   <g id="line2d_24">
    <path d="M 56.569882 221.147679 
L 60.347212 224.088651 
L 69.520729 227.583053 
L 82.65145 232.202691 
L 90.385984 234.954009 
L 95.06268 236.86473 
L 96.501663 237.540644 
L 102.257595 240.184561 
L 115.748062 245.910538 
L 128.339164 251.437238 
L 130.677511 252.554556 
L 135.893825 255.182667 
L 145.606961 260.301119 
L 159.097427 266.917714 
L 163.953995 269.236864 
L 164.133868 272.036229 
L 169.530055 274.984922 
L 176.005479 278.870193 
L 186.617979 284.179564 
L 191.474547 286.68472 
L 197.410353 289.888174 
L 198.48959 290.480762 
L 204.425395 293.726832 
L 209.461836 296.238842 
L 213.41904 297.985867 
L 220.613955 300.513575 
L 224.571159 301.63647 
L 227.988743 302.610607 
L 231.586201 303.527744 
L 232.485566 303.720213 
L 232.665438 304.163624 
L 235.363532 303.972092 
L 238.061625 303.553048 
L 240.939591 302.873585 
L 243.99743 301.914065 
L 247.235142 300.628034 
L 250.8326 298.94607 
L 254.969677 296.753825 
L 259.826245 293.916765 
L 277.094042 283.284713 
L 282.490228 279.629473 
L 292.742983 272.331258 
L 314.147857 256.645155 
L 322.422009 250.560668 
L 322.422009 250.560668 
" clip-path="url(#p02ba77edbf)" style="fill: none; stroke: #008000; stroke-width: 1.7; stroke-linecap: square"/>
   </g>
   <g id="line2d_25">
    <path d="M 56.569882 280.435431 
L 60.886831 283.763179 
L 75.096789 292.318641 
L 84.809925 297.923686 
L 91.824968 301.732106 
L 97.041281 304.568289 
L 100.458866 306.473732 
L 102.257595 307.28557 
L 105.495307 308.509982 
L 108.373273 309.358025 
L 110.891494 309.869888 
L 113.229841 310.1234 
L 115.568189 310.147198 
L 117.906536 309.93975 
L 120.244884 309.513977 
L 122.942977 308.782684 
L 125.820943 307.767145 
L 129.238528 306.31626 
L 133.375605 304.301884 
L 134.814588 303.678568 
L 139.491283 301.632807 
L 145.247215 298.862382 
L 152.442131 295.1389 
L 161.615648 290.130276 
L 163.953995 288.821653 
L 164.133868 286.896199 
L 177.624335 278.033788 
L 187.517344 271.586501 
L 199.209081 264.240878 
L 214.858023 253.731929 
L 232.485566 244.008019 
L 232.665438 243.553849 
L 308.391924 182.936784 
L 322.422009 171.689853 
L 322.422009 171.689853 
" clip-path="url(#p02ba77edbf)" style="fill: none; stroke: #ff0000; stroke-width: 1.7; stroke-linecap: square"/>
   </g>
   <g id="line2d_26">
    <path d="M 56.569882 300.766552 
L 322.422009 300.766552 
L 322.422009 300.766552 
" clip-path="url(#p02ba77edbf)" style="fill: none; stroke-dasharray: 5.55,2.4; stroke-dashoffset: 0; stroke: #000000; stroke-width: 1.5"/>
   </g>
   <g id="line2d_27">
    <path d="M 56.569882 320.64524 
L 322.422009 320.64524 
L 322.422009 320.64524 
" clip-path="url(#p02ba77edbf)" style="fill: none; stroke-dasharray: 5.55,2.4; stroke-dashoffset: 0; stroke: #000000; stroke-width: 1.5"/>
   </g>
   <g id="patch_9">
    <path d="M 53.099375 328.373673 
L 53.099375 216.431836 
" style="fill: none; stroke: #000000; stroke-width: 0.8; stroke-linejoin: miter; stroke-linecap: square"/>
   </g>
   <g id="patch_10">
    <path d="M 322.355 328.373673 
L 322.355 216.431836 
" style="fill: none; stroke: #000000; stroke-width: 0.8; stroke-linejoin: miter; stroke-linecap: square"/>
   </g>
   <g id="patch_11">
    <path d="M 53.099375 328.373673 
L 322.355 328.373673 
" style="fill: none; stroke: #000000; stroke-width: 0.8; stroke-linejoin: miter; stroke-linecap: square"/>
   </g>
   <g id="patch_12">
    <path d="M 53.099375 216.431836 
L 322.355 216.431836 
" style="fill: none; stroke: #000000; stroke-width: 0.8; stroke-linejoin: miter; stroke-linecap: square"/>
   </g>
   <g id="text_24">
    <!-- 1 NM -->
    <g transform="translate(286.410545 297.439245) scale(0.11 -0.11)">
     <defs>
      <path id="TimesNewRomanPSMT-4e" d="M -84 4238 
L 1066 4238 
L 3656 1059 
L 3656 3503 
Q 3656 3894 3569 3991 
Q 3453 4122 3203 4122 
L 3056 4122 
L 3056 4238 
L 4531 4238 
L 4531 4122 
L 4381 4122 
Q 4113 4122 4000 3959 
Q 3931 3859 3931 3503 
L 3931 -69 
L 3819 -69 
L 1025 3344 
L 1025 734 
Q 1025 344 1109 247 
Q 1228 116 1475 116 
L 1625 116 
L 1625 0 
L 150 0 
L 150 116 
L 297 116 
Q 569 116 681 278 
Q 750 378 750 734 
L 750 3681 
Q 566 3897 470 3965 
Q 375 4034 191 4094 
Q 100 4122 -84 4122 
L -84 4238 
z
" transform="scale(0.015625)"/>
      <path id="TimesNewRomanPSMT-4d" d="M 2619 0 
L 981 3566 
L 981 734 
Q 981 344 1066 247 
Q 1181 116 1431 116 
L 1581 116 
L 1581 0 
L 106 0 
L 106 116 
L 256 116 
Q 525 116 638 278 
Q 706 378 706 734 
L 706 3503 
Q 706 3784 644 3909 
Q 600 4000 483 4061 
Q 366 4122 106 4122 
L 106 4238 
L 1306 4238 
L 2844 922 
L 4356 4238 
L 5556 4238 
L 5556 4122 
L 5409 4122 
Q 5138 4122 5025 3959 
Q 4956 3859 4956 3503 
L 4956 734 
Q 4956 344 5044 247 
Q 5159 116 5409 116 
L 5556 116 
L 5556 0 
L 3756 0 
L 3756 116 
L 3906 116 
Q 4178 116 4288 278 
Q 4356 378 4356 734 
L 4356 3566 
L 2722 0 
L 2619 0 
z
" transform="scale(0.015625)"/>
     </defs>
     <use xlink:href="#TimesNewRomanPSMT-31"/>
     <use xlink:href="#TimesNewRomanPSMT-20" x="50"/>
     <use xlink:href="#TimesNewRomanPSMT-4e" x="75"/>
     <use xlink:href="#TimesNewRomanPSMT-4d" x="147.216797"/>
    </g>
   </g>
   <g id="legend_2">
    <g id="patch_13">
     <path d="M 140.447188 260.111836 
L 235.007188 260.111836 
Q 237.407188 260.111836 237.407188 257.711836 
L 237.407188 224.831836 
Q 237.407188 222.431836 235.007188 222.431836 
L 140.447188 222.431836 
Q 138.047188 222.431836 138.047188 224.831836 
L 138.047188 257.711836 
Q 138.047188 260.111836 140.447188 260.111836 
z
" style="fill: #ffffff; opacity: 0.8; stroke: #cccccc; stroke-linejoin: miter"/>
    </g>
    <g id="line2d_28">
     <path d="M 142.847188 231.431836 
L 154.847188 231.431836 
L 166.847188 231.431836 
" style="fill: none; stroke: #008000; stroke-width: 1.7; stroke-linecap: square"/>
    </g>
    <g id="text_25">
     <!-- TS_2$\rightarrow$OS -->
     <g transform="translate(176.447188 235.631836) scale(0.12 -0.12)">
      <defs>
       <path id="TimesNewRomanPSMT-5f" d="M 3256 -1381 
L -53 -1381 
L -53 -1119 
L 3256 -1119 
L 3256 -1381 
z
" transform="scale(0.015625)"/>
       <path id="DejaVuSans-2192" d="M 5050 2147 
L 5050 1866 
L 3822 638 
L 3447 1013 
L 4175 1741 
L 366 1741 
L 366 2272 
L 4175 2272 
L 3447 3000 
L 3822 3375 
L 5050 2147 
z
" transform="scale(0.015625)"/>
      </defs>
      <use xlink:href="#TimesNewRomanPSMT-54" transform="translate(0 0.28125)"/>
      <use xlink:href="#TimesNewRomanPSMT-53" transform="translate(61.083984 0.28125)"/>
      <use xlink:href="#TimesNewRomanPSMT-5f" transform="translate(116.699219 0.28125)"/>
      <use xlink:href="#TimesNewRomanPSMT-32" transform="translate(166.699219 0.28125)"/>
      <use xlink:href="#DejaVuSans-2192" transform="translate(236.181641 0.28125)"/>
      <use xlink:href="#TimesNewRomanPSMT-4f" transform="translate(339.453125 0.28125)"/>
      <use xlink:href="#TimesNewRomanPSMT-53" transform="translate(411.669922 0.28125)"/>
     </g>
    </g>
    <g id="line2d_29">
     <path d="M 142.847188 248.471836 
L 154.847188 248.471836 
L 166.847188 248.471836 
" style="fill: none; stroke: #ff0000; stroke-width: 1.7; stroke-linecap: square"/>
    </g>
    <g id="text_26">
     <!-- OS$\rightarrow$TS_1 -->
     <g transform="translate(176.447188 252.671836) scale(0.12 -0.12)">
      <use xlink:href="#TimesNewRomanPSMT-4f" transform="translate(0 0.28125)"/>
      <use xlink:href="#TimesNewRomanPSMT-53" transform="translate(72.216797 0.28125)"/>
      <use xlink:href="#DejaVuSans-2192" transform="translate(147.314453 0.28125)"/>
      <use xlink:href="#TimesNewRomanPSMT-54" transform="translate(250.585938 0.28125)"/>
      <use xlink:href="#TimesNewRomanPSMT-53" transform="translate(311.669922 0.28125)"/>
      <use xlink:href="#TimesNewRomanPSMT-5f" transform="translate(367.285156 0.28125)"/>
      <use xlink:href="#TimesNewRomanPSMT-31" transform="translate(417.285156 0.28125)"/>
     </g>
    </g>
   </g>
  </g>
  <g id="axes_3">
   <g id="patch_14">
    <path d="M 395.105975 328.373673 
L 664.3616 328.373673 
L 664.3616 216.431836 
L 395.105975 216.431836 
z
" style="fill: #ffffff"/>
   </g>
   <g id="matplotlib.axis_5">
    <g id="xtick_13">
     <g id="line2d_30">
      <g>
       <use xlink:href="#m60a7682f1c" x="398.621042" y="328.373673" style="stroke: #000000; stroke-width: 0.8"/>
      </g>
     </g>
     <g id="text_27">
      <!-- 0 -->
      <g transform="translate(395.621042 343.706173) scale(0.12 -0.12)">
       <use xlink:href="#TimesNewRomanPSMT-30"/>
      </g>
     </g>
    </g>
    <g id="xtick_14">
     <g id="line2d_31">
      <g>
       <use xlink:href="#m60a7682f1c" x="442.127485" y="328.373673" style="stroke: #000000; stroke-width: 0.8"/>
      </g>
     </g>
     <g id="text_28">
      <!-- 250 -->
      <g transform="translate(433.127485 343.706173) scale(0.12 -0.12)">
       <use xlink:href="#TimesNewRomanPSMT-32"/>
       <use xlink:href="#TimesNewRomanPSMT-35" x="50"/>
       <use xlink:href="#TimesNewRomanPSMT-30" x="100"/>
      </g>
     </g>
    </g>
    <g id="xtick_15">
     <g id="line2d_32">
      <g>
       <use xlink:href="#m60a7682f1c" x="485.633929" y="328.373673" style="stroke: #000000; stroke-width: 0.8"/>
      </g>
     </g>
     <g id="text_29">
      <!-- 500 -->
      <g transform="translate(476.633929 343.706173) scale(0.12 -0.12)">
       <use xlink:href="#TimesNewRomanPSMT-35"/>
       <use xlink:href="#TimesNewRomanPSMT-30" x="50"/>
       <use xlink:href="#TimesNewRomanPSMT-30" x="100"/>
      </g>
     </g>
    </g>
    <g id="xtick_16">
     <g id="line2d_33">
      <g>
       <use xlink:href="#m60a7682f1c" x="529.140373" y="328.373673" style="stroke: #000000; stroke-width: 0.8"/>
      </g>
     </g>
     <g id="text_30">
      <!-- 750 -->
      <g transform="translate(520.140373 343.706173) scale(0.12 -0.12)">
       <use xlink:href="#TimesNewRomanPSMT-37"/>
       <use xlink:href="#TimesNewRomanPSMT-35" x="50"/>
       <use xlink:href="#TimesNewRomanPSMT-30" x="100"/>
      </g>
     </g>
    </g>
    <g id="xtick_17">
     <g id="line2d_34">
      <g>
       <use xlink:href="#m60a7682f1c" x="572.646817" y="328.373673" style="stroke: #000000; stroke-width: 0.8"/>
      </g>
     </g>
     <g id="text_31">
      <!-- 1000 -->
      <g transform="translate(560.646817 343.706173) scale(0.12 -0.12)">
       <use xlink:href="#TimesNewRomanPSMT-31"/>
       <use xlink:href="#TimesNewRomanPSMT-30" x="50"/>
       <use xlink:href="#TimesNewRomanPSMT-30" x="100"/>
       <use xlink:href="#TimesNewRomanPSMT-30" x="150"/>
      </g>
     </g>
    </g>
    <g id="xtick_18">
     <g id="line2d_35">
      <g>
       <use xlink:href="#m60a7682f1c" x="616.153261" y="328.373673" style="stroke: #000000; stroke-width: 0.8"/>
      </g>
     </g>
     <g id="text_32">
      <!-- 1250 -->
      <g transform="translate(604.153261 343.706173) scale(0.12 -0.12)">
       <use xlink:href="#TimesNewRomanPSMT-31"/>
       <use xlink:href="#TimesNewRomanPSMT-32" x="50"/>
       <use xlink:href="#TimesNewRomanPSMT-35" x="100"/>
       <use xlink:href="#TimesNewRomanPSMT-30" x="150"/>
      </g>
     </g>
    </g>
    <g id="xtick_19">
     <g id="line2d_36">
      <g>
       <use xlink:href="#m60a7682f1c" x="659.659705" y="328.373673" style="stroke: #000000; stroke-width: 0.8"/>
      </g>
     </g>
     <g id="text_33">
      <!-- 1500 -->
      <g transform="translate(647.659705 343.706173) scale(0.12 -0.12)">
       <use xlink:href="#TimesNewRomanPSMT-31"/>
       <use xlink:href="#TimesNewRomanPSMT-35" x="50"/>
       <use xlink:href="#TimesNewRomanPSMT-30" x="100"/>
       <use xlink:href="#TimesNewRomanPSMT-30" x="150"/>
      </g>
     </g>
    </g>
    <g id="text_34">
     <!-- Time (s) -->
     <g transform="translate(509.450975 358.605548) scale(0.12 -0.12)">
      <use xlink:href="#TimesNewRomanPSMT-54"/>
      <use xlink:href="#TimesNewRomanPSMT-69" x="57.583984"/>
      <use xlink:href="#TimesNewRomanPSMT-6d" x="85.367188"/>
      <use xlink:href="#TimesNewRomanPSMT-65" x="163.150391"/>
      <use xlink:href="#TimesNewRomanPSMT-20" x="207.535156"/>
      <use xlink:href="#TimesNewRomanPSMT-28" x="232.535156"/>
      <use xlink:href="#TimesNewRomanPSMT-73" x="265.835938"/>
      <use xlink:href="#TimesNewRomanPSMT-29" x="304.751953"/>
     </g>
    </g>
   </g>
   <g id="matplotlib.axis_6">
    <g id="ytick_6">
     <g id="line2d_37">
      <g>
       <use xlink:href="#mfd2b846632" x="395.105975" y="326.802707" style="stroke: #000000; stroke-width: 0.8"/>
      </g>
     </g>
     <g id="text_35">
      <!-- 0 -->
      <g transform="translate(382.105975 330.968957) scale(0.12 -0.12)">
       <use xlink:href="#TimesNewRomanPSMT-30"/>
      </g>
     </g>
    </g>
    <g id="ytick_7">
     <g id="line2d_38">
      <g>
       <use xlink:href="#mfd2b846632" x="395.105975" y="295.616941" style="stroke: #000000; stroke-width: 0.8"/>
      </g>
     </g>
     <g id="text_36">
      <!-- 2000 -->
      <g transform="translate(364.105975 299.783191) scale(0.12 -0.12)">
       <use xlink:href="#TimesNewRomanPSMT-32"/>
       <use xlink:href="#TimesNewRomanPSMT-30" x="50"/>
       <use xlink:href="#TimesNewRomanPSMT-30" x="100"/>
       <use xlink:href="#TimesNewRomanPSMT-30" x="150"/>
      </g>
     </g>
    </g>
    <g id="ytick_8">
     <g id="line2d_39">
      <g>
       <use xlink:href="#mfd2b846632" x="395.105975" y="264.431176" style="stroke: #000000; stroke-width: 0.8"/>
      </g>
     </g>
     <g id="text_37">
      <!-- 4000 -->
      <g transform="translate(364.105975 268.597426) scale(0.12 -0.12)">
       <defs>
        <path id="TimesNewRomanPSMT-34" d="M 2978 1563 
L 2978 1119 
L 2409 1119 
L 2409 0 
L 1894 0 
L 1894 1119 
L 100 1119 
L 100 1519 
L 2066 4325 
L 2409 4325 
L 2409 1563 
L 2978 1563 
z
M 1894 1563 
L 1894 3666 
L 406 1563 
L 1894 1563 
z
" transform="scale(0.015625)"/>
       </defs>
       <use xlink:href="#TimesNewRomanPSMT-34"/>
       <use xlink:href="#TimesNewRomanPSMT-30" x="50"/>
       <use xlink:href="#TimesNewRomanPSMT-30" x="100"/>
       <use xlink:href="#TimesNewRomanPSMT-30" x="150"/>
      </g>
     </g>
    </g>
    <g id="ytick_9">
     <g id="line2d_40">
      <g>
       <use xlink:href="#mfd2b846632" x="395.105975" y="233.24541" style="stroke: #000000; stroke-width: 0.8"/>
      </g>
     </g>
     <g id="text_38">
      <!-- 6000 -->
      <g transform="translate(364.105975 237.41166) scale(0.12 -0.12)">
       <defs>
        <path id="TimesNewRomanPSMT-36" d="M 2869 4325 
L 2869 4209 
Q 2456 4169 2195 4045 
Q 1934 3922 1679 3669 
Q 1425 3416 1258 3105 
Q 1091 2794 978 2366 
Q 1428 2675 1881 2675 
Q 2316 2675 2634 2325 
Q 2953 1975 2953 1425 
Q 2953 894 2631 456 
Q 2244 -75 1606 -75 
Q 1172 -75 869 213 
Q 275 772 275 1663 
Q 275 2231 503 2743 
Q 731 3256 1154 3653 
Q 1578 4050 1965 4187 
Q 2353 4325 2688 4325 
L 2869 4325 
z
M 925 2138 
Q 869 1716 869 1456 
Q 869 1156 980 804 
Q 1091 453 1309 247 
Q 1469 100 1697 100 
Q 1969 100 2183 356 
Q 2397 613 2397 1088 
Q 2397 1622 2184 2012 
Q 1972 2403 1581 2403 
Q 1463 2403 1327 2353 
Q 1191 2303 925 2138 
z
" transform="scale(0.015625)"/>
       </defs>
       <use xlink:href="#TimesNewRomanPSMT-36"/>
       <use xlink:href="#TimesNewRomanPSMT-30" x="50"/>
       <use xlink:href="#TimesNewRomanPSMT-30" x="100"/>
       <use xlink:href="#TimesNewRomanPSMT-30" x="150"/>
      </g>
     </g>
    </g>
    <g id="text_39">
     <!-- DCPA (m) -->
     <g transform="translate(357.5391 297.692755) rotate(-90) scale(0.12 -0.12)">
      <defs>
       <path id="TimesNewRomanPSMT-50" d="M 1313 1984 
L 1313 750 
Q 1313 350 1400 253 
Q 1519 116 1759 116 
L 1922 116 
L 1922 0 
L 106 0 
L 106 116 
L 266 116 
Q 534 116 650 291 
Q 713 388 713 750 
L 713 3488 
Q 713 3888 628 3984 
Q 506 4122 266 4122 
L 106 4122 
L 106 4238 
L 1659 4238 
Q 2228 4238 2556 4120 
Q 2884 4003 3109 3725 
Q 3334 3447 3334 3066 
Q 3334 2547 2992 2222 
Q 2650 1897 2025 1897 
Q 1872 1897 1694 1919 
Q 1516 1941 1313 1984 
z
M 1313 2163 
Q 1478 2131 1606 2115 
Q 1734 2100 1825 2100 
Q 2150 2100 2386 2351 
Q 2622 2603 2622 3003 
Q 2622 3278 2509 3514 
Q 2397 3750 2190 3867 
Q 1984 3984 1722 3984 
Q 1563 3984 1313 3925 
L 1313 2163 
z
" transform="scale(0.015625)"/>
       <path id="TimesNewRomanPSMT-41" d="M 2928 1419 
L 1288 1419 
L 1000 750 
Q 894 503 894 381 
Q 894 284 986 211 
Q 1078 138 1384 116 
L 1384 0 
L 50 0 
L 50 116 
Q 316 163 394 238 
Q 553 388 747 847 
L 2238 4334 
L 2347 4334 
L 3822 809 
Q 4000 384 4145 257 
Q 4291 131 4550 116 
L 4550 0 
L 2878 0 
L 2878 116 
Q 3131 128 3220 200 
Q 3309 272 3309 375 
Q 3309 513 3184 809 
L 2928 1419 
z
M 2841 1650 
L 2122 3363 
L 1384 1650 
L 2841 1650 
z
" transform="scale(0.015625)"/>
      </defs>
      <use xlink:href="#TimesNewRomanPSMT-44"/>
      <use xlink:href="#TimesNewRomanPSMT-43" x="72.216797"/>
      <use xlink:href="#TimesNewRomanPSMT-50" x="138.916016"/>
      <use xlink:href="#TimesNewRomanPSMT-41" x="185.40625"/>
      <use xlink:href="#TimesNewRomanPSMT-20" x="252.123047"/>
      <use xlink:href="#TimesNewRomanPSMT-28" x="277.123047"/>
      <use xlink:href="#TimesNewRomanPSMT-6d" x="310.423828"/>
      <use xlink:href="#TimesNewRomanPSMT-29" x="388.207031"/>
     </g>
    </g>
   </g>
   <g id="line2d_41">
    <path d="M 398.621042 325.437043 
L 401.927531 325.437043 
L 402.101557 254.195951 
L 408.888562 254.285448 
L 409.062588 266.239797 
L 429.771655 266.713471 
L 429.945681 268.432264 
L 433.252171 268.432264 
L 433.426197 271.772971 
L 450.654748 271.921916 
L 450.828774 287.059143 
L 468.057326 286.97644 
L 468.231352 293.079791 
L 481.979388 292.985363 
L 482.153414 288.744733 
L 488.940419 288.720997 
L 489.114445 290.687729 
L 506.342997 290.549415 
L 506.517022 294.766008 
L 513.304028 294.754502 
L 513.478054 295.103744 
L 536.623482 294.274659 
L 539.233868 293.742385 
L 542.018281 292.935333 
L 544.802693 291.898121 
L 547.761131 290.566074 
L 551.067621 288.827189 
L 553.329956 287.430977 
L 556.810472 285.019729 
L 560.813064 281.969125 
L 563.597477 279.884165 
L 567.948121 276.688731 
L 572.820843 272.830896 
L 578.389668 268.133378 
L 581.870183 264.974694 
L 588.483163 258.631111 
L 596.140297 250.970746 
L 599.272761 247.937752 
L 607.97405 239.488731 
L 615.80521 231.606978 
L 626.942859 219.717726 
L 650.784391 193.633306 
L 664.532427 178.50276 
L 664.532427 178.50276 
" clip-path="url(#p7986698544)" style="fill: none; stroke-dasharray: 2,3.3; stroke-dashoffset: 0; stroke: #90ee90; stroke-width: 2"/>
   </g>
   <g id="line2d_42">
    <path d="M 398.621042 325.734452 
L 447.348259 325.682197 
L 447.870336 325.361402 
L 448.914491 324.33336 
L 451.698903 321.118433 
L 463.35863 307.134621 
L 576.475384 170.79522 
L 664.532427 64.641968 
L 664.532427 64.641968 
" clip-path="url(#p7986698544)" style="fill: none; stroke-dasharray: 2,3.3; stroke-dashoffset: 0; stroke: #fa8072; stroke-width: 2"/>
   </g>
   <g id="line2d_43">
    <path d="M 398.621042 325.437043 
L 401.927531 325.437043 
L 402.101557 218.314668 
L 408.888562 218.62145 
L 409.062588 227.764072 
L 429.771655 228.642886 
L 429.945681 230.038857 
L 433.252171 230.323805 
L 433.426197 233.104728 
L 435.862558 233.276987 
L 436.036583 237.544777 
L 441.257357 237.452999 
L 441.431382 241.836748 
L 441.605408 241.15714 
L 450.654748 241.477719 
L 450.828774 256.491706 
L 468.057326 257.527904 
L 468.231352 264.46999 
L 473.104074 264.904471 
L 473.278099 290.422706 
L 481.979388 290.514118 
L 482.153414 284.014168 
L 488.940419 283.955077 
L 489.114445 287.266467 
L 502.51443 287.289182 
L 502.688455 285.964914 
L 506.342997 285.979835 
L 506.517022 294.599068 
L 513.304028 294.80214 
L 513.478054 295.627333 
L 522.179342 295.709536 
L 522.353368 299.669507 
L 527.22609 299.711154 
L 527.400116 299.192761 
L 534.187121 299.299945 
L 534.361147 297.830036 
L 534.883224 297.832028 
L 535.05725 299.965099 
L 549.849441 299.957533 
L 550.023466 302.973801 
L 551.589698 302.9264 
L 551.763724 302.726596 
L 562.031245 302.245511 
L 562.205271 303.994303 
L 568.81825 303.850281 
L 568.992276 302.859643 
L 571.080585 302.664053 
L 573.168895 302.254538 
L 575.43123 301.581705 
L 577.867591 300.61136 
L 580.303951 299.401794 
L 582.914338 297.83613 
L 585.872776 295.795705 
L 589.179266 293.242211 
L 593.007833 290.002248 
L 603.275354 280.813719 
L 609.366256 275.068554 
L 615.457158 269.038325 
L 624.680524 259.266497 
L 633.381813 249.75407 
L 664.532427 215.352184 
L 664.532427 215.352184 
" clip-path="url(#p7986698544)" style="fill: none; stroke: #008000; stroke-width: 1.7; stroke-linecap: square"/>
   </g>
   <g id="line2d_44">
    <path d="M 398.621042 325.734452 
L 401.927531 325.734452 
L 402.101557 307.944615 
L 435.862558 309.794577 
L 436.036583 310.797094 
L 441.257357 310.801208 
L 441.605408 311.39786 
L 456.397599 311.494628 
L 458.311883 311.175466 
L 460.226166 310.632174 
L 462.314475 309.809351 
L 464.576811 308.684291 
L 467.187197 307.137923 
L 470.319661 305.008566 
L 475.366409 301.498649 
L 479.543027 298.699307 
L 484.415749 295.158459 
L 490.506651 290.442815 
L 498.163785 284.213519 
L 502.51443 280.572157 
L 502.688455 277.775024 
L 514.348182 266.288611 
L 525.13778 255.69573 
L 536.101404 245.395213 
L 548.805286 232.30037 
L 550.71957 230.45718 
L 568.81825 215.470793 
L 568.992276 214.811013 
L 634.599993 135.966515 
L 664.532427 99.937875 
L 664.532427 99.937875 
" clip-path="url(#p7986698544)" style="fill: none; stroke: #ff0000; stroke-width: 1.7; stroke-linecap: square"/>
   </g>
   <g id="line2d_45">
    <path d="M 398.621042 297.924672 
L 664.532427 297.924672 
L 664.532427 297.924672 
" clip-path="url(#p7986698544)" style="fill: none; stroke-dasharray: 5.55,2.4; stroke-dashoffset: 0; stroke: #000000; stroke-width: 1.5"/>
   </g>
   <g id="line2d_46">
    <path d="M 398.621042 326.802707 
L 664.532427 326.802707 
L 664.532427 326.802707 
" clip-path="url(#p7986698544)" style="fill: none; stroke-dasharray: 5.55,2.4; stroke-dashoffset: 0; stroke: #000000; stroke-width: 1.5"/>
   </g>
   <g id="patch_15">
    <path d="M 395.105975 328.373673 
L 395.105975 216.431836 
" style="fill: none; stroke: #000000; stroke-width: 0.8; stroke-linejoin: miter; stroke-linecap: square"/>
   </g>
   <g id="patch_16">
    <path d="M 664.3616 328.373673 
L 664.3616 216.431836 
" style="fill: none; stroke: #000000; stroke-width: 0.8; stroke-linejoin: miter; stroke-linecap: square"/>
   </g>
   <g id="patch_17">
    <path d="M 395.105975 328.373673 
L 664.3616 328.373673 
" style="fill: none; stroke: #000000; stroke-width: 0.8; stroke-linejoin: miter; stroke-linecap: square"/>
   </g>
   <g id="patch_18">
    <path d="M 395.105975 216.431836 
L 664.3616 216.431836 
" style="fill: none; stroke: #000000; stroke-width: 0.8; stroke-linejoin: miter; stroke-linecap: square"/>
   </g>
   <g id="text_40">
    <!-- 1 NM -->
    <g transform="translate(620.568104 299.614229) scale(0.11 -0.11)">
     <use xlink:href="#TimesNewRomanPSMT-31"/>
     <use xlink:href="#TimesNewRomanPSMT-20" x="50"/>
     <use xlink:href="#TimesNewRomanPSMT-4e" x="75"/>
     <use xlink:href="#TimesNewRomanPSMT-4d" x="147.216797"/>
    </g>
   </g>
   <g id="legend_3">
    <g id="patch_19">
     <path d="M 403.505975 260.111836 
L 498.065975 260.111836 
Q 500.465975 260.111836 500.465975 257.711836 
L 500.465975 224.831836 
Q 500.465975 222.431836 498.065975 222.431836 
L 403.505975 222.431836 
Q 401.105975 222.431836 401.105975 224.831836 
L 401.105975 257.711836 
Q 401.105975 260.111836 403.505975 260.111836 
z
" style="fill: #ffffff; opacity: 0.8; stroke: #cccccc; stroke-linejoin: miter"/>
    </g>
    <g id="line2d_47">
     <path d="M 405.905975 231.431836 
L 417.905975 231.431836 
L 429.905975 231.431836 
" style="fill: none; stroke: #008000; stroke-width: 1.7; stroke-linecap: square"/>
    </g>
    <g id="text_41">
     <!-- TS_2$\rightarrow$OS -->
     <g transform="translate(439.505975 235.631836) scale(0.12 -0.12)">
      <use xlink:href="#TimesNewRomanPSMT-54" transform="translate(0 0.28125)"/>
      <use xlink:href="#TimesNewRomanPSMT-53" transform="translate(61.083984 0.28125)"/>
      <use xlink:href="#TimesNewRomanPSMT-5f" transform="translate(116.699219 0.28125)"/>
      <use xlink:href="#TimesNewRomanPSMT-32" transform="translate(166.699219 0.28125)"/>
      <use xlink:href="#DejaVuSans-2192" transform="translate(236.181641 0.28125)"/>
      <use xlink:href="#TimesNewRomanPSMT-4f" transform="translate(339.453125 0.28125)"/>
      <use xlink:href="#TimesNewRomanPSMT-53" transform="translate(411.669922 0.28125)"/>
     </g>
    </g>
    <g id="line2d_48">
     <path d="M 405.905975 248.471836 
L 417.905975 248.471836 
L 429.905975 248.471836 
" style="fill: none; stroke: #ff0000; stroke-width: 1.7; stroke-linecap: square"/>
    </g>
    <g id="text_42">
     <!-- OS$\rightarrow$TS_1 -->
     <g transform="translate(439.505975 252.671836) scale(0.12 -0.12)">
      <use xlink:href="#TimesNewRomanPSMT-4f" transform="translate(0 0.28125)"/>
      <use xlink:href="#TimesNewRomanPSMT-53" transform="translate(72.216797 0.28125)"/>
      <use xlink:href="#DejaVuSans-2192" transform="translate(147.314453 0.28125)"/>
      <use xlink:href="#TimesNewRomanPSMT-54" transform="translate(250.585938 0.28125)"/>
      <use xlink:href="#TimesNewRomanPSMT-53" transform="translate(311.669922 0.28125)"/>
      <use xlink:href="#TimesNewRomanPSMT-5f" transform="translate(367.285156 0.28125)"/>
      <use xlink:href="#TimesNewRomanPSMT-31" transform="translate(417.285156 0.28125)"/>
     </g>
    </g>
   </g>
  </g>
  <g id="axes_4">
   <g id="patch_20">
    <path d="M 737.112575 328.373673 
L 1006.3682 328.373673 
L 1006.3682 216.431836 
L 737.112575 216.431836 
z
" style="fill: #ffffff"/>
   </g>
   <g id="matplotlib.axis_7">
    <g id="xtick_20">
     <g id="line2d_49">
      <g>
       <use xlink:href="#m60a7682f1c" x="738.76295" y="328.373673" style="stroke: #000000; stroke-width: 0.8"/>
      </g>
     </g>
     <g id="text_43">
      <!-- 0 -->
      <g transform="translate(735.76295 343.706173) scale(0.12 -0.12)">
       <use xlink:href="#TimesNewRomanPSMT-30"/>
      </g>
     </g>
    </g>
    <g id="xtick_21">
     <g id="line2d_50">
      <g>
       <use xlink:href="#m60a7682f1c" x="783.300784" y="328.373673" style="stroke: #000000; stroke-width: 0.8"/>
      </g>
     </g>
     <g id="text_44">
      <!-- 250 -->
      <g transform="translate(774.300784 343.706173) scale(0.12 -0.12)">
       <use xlink:href="#TimesNewRomanPSMT-32"/>
       <use xlink:href="#TimesNewRomanPSMT-35" x="50"/>
       <use xlink:href="#TimesNewRomanPSMT-30" x="100"/>
      </g>
     </g>
    </g>
    <g id="xtick_22">
     <g id="line2d_51">
      <g>
       <use xlink:href="#m60a7682f1c" x="827.838618" y="328.373673" style="stroke: #000000; stroke-width: 0.8"/>
      </g>
     </g>
     <g id="text_45">
      <!-- 500 -->
      <g transform="translate(818.838618 343.706173) scale(0.12 -0.12)">
       <use xlink:href="#TimesNewRomanPSMT-35"/>
       <use xlink:href="#TimesNewRomanPSMT-30" x="50"/>
       <use xlink:href="#TimesNewRomanPSMT-30" x="100"/>
      </g>
     </g>
    </g>
    <g id="xtick_23">
     <g id="line2d_52">
      <g>
       <use xlink:href="#m60a7682f1c" x="872.376453" y="328.373673" style="stroke: #000000; stroke-width: 0.8"/>
      </g>
     </g>
     <g id="text_46">
      <!-- 750 -->
      <g transform="translate(863.376453 343.706173) scale(0.12 -0.12)">
       <use xlink:href="#TimesNewRomanPSMT-37"/>
       <use xlink:href="#TimesNewRomanPSMT-35" x="50"/>
       <use xlink:href="#TimesNewRomanPSMT-30" x="100"/>
      </g>
     </g>
    </g>
    <g id="xtick_24">
     <g id="line2d_53">
      <g>
       <use xlink:href="#m60a7682f1c" x="916.914287" y="328.373673" style="stroke: #000000; stroke-width: 0.8"/>
      </g>
     </g>
     <g id="text_47">
      <!-- 1000 -->
      <g transform="translate(904.914287 343.706173) scale(0.12 -0.12)">
       <use xlink:href="#TimesNewRomanPSMT-31"/>
       <use xlink:href="#TimesNewRomanPSMT-30" x="50"/>
       <use xlink:href="#TimesNewRomanPSMT-30" x="100"/>
       <use xlink:href="#TimesNewRomanPSMT-30" x="150"/>
      </g>
     </g>
    </g>
    <g id="xtick_25">
     <g id="line2d_54">
      <g>
       <use xlink:href="#m60a7682f1c" x="961.452121" y="328.373673" style="stroke: #000000; stroke-width: 0.8"/>
      </g>
     </g>
     <g id="text_48">
      <!-- 1250 -->
      <g transform="translate(949.452121 343.706173) scale(0.12 -0.12)">
       <use xlink:href="#TimesNewRomanPSMT-31"/>
       <use xlink:href="#TimesNewRomanPSMT-32" x="50"/>
       <use xlink:href="#TimesNewRomanPSMT-35" x="100"/>
       <use xlink:href="#TimesNewRomanPSMT-30" x="150"/>
      </g>
     </g>
    </g>
    <g id="xtick_26">
     <g id="line2d_55">
      <g>
       <use xlink:href="#m60a7682f1c" x="1005.989955" y="328.373673" style="stroke: #000000; stroke-width: 0.8"/>
      </g>
     </g>
     <g id="text_49">
      <!-- 1500 -->
      <g transform="translate(993.989955 343.706173) scale(0.12 -0.12)">
       <use xlink:href="#TimesNewRomanPSMT-31"/>
       <use xlink:href="#TimesNewRomanPSMT-35" x="50"/>
       <use xlink:href="#TimesNewRomanPSMT-30" x="100"/>
       <use xlink:href="#TimesNewRomanPSMT-30" x="150"/>
      </g>
     </g>
    </g>
    <g id="text_50">
     <!-- Time (s) -->
     <g transform="translate(851.457575 358.605548) scale(0.12 -0.12)">
      <use xlink:href="#TimesNewRomanPSMT-54"/>
      <use xlink:href="#TimesNewRomanPSMT-69" x="57.583984"/>
      <use xlink:href="#TimesNewRomanPSMT-6d" x="85.367188"/>
      <use xlink:href="#TimesNewRomanPSMT-65" x="163.150391"/>
      <use xlink:href="#TimesNewRomanPSMT-20" x="207.535156"/>
      <use xlink:href="#TimesNewRomanPSMT-28" x="232.535156"/>
      <use xlink:href="#TimesNewRomanPSMT-73" x="265.835938"/>
      <use xlink:href="#TimesNewRomanPSMT-29" x="304.751953"/>
     </g>
    </g>
   </g>
   <g id="matplotlib.axis_8">
    <g id="ytick_10">
     <g id="line2d_56">
      <g>
       <use xlink:href="#mfd2b846632" x="737.112575" y="316.578022" style="stroke: #000000; stroke-width: 0.8"/>
      </g>
     </g>
     <g id="text_51">
      <!-- 0 -->
      <g transform="translate(724.112575 320.744272) scale(0.12 -0.12)">
       <use xlink:href="#TimesNewRomanPSMT-30"/>
      </g>
     </g>
    </g>
    <g id="ytick_11">
     <g id="line2d_57">
      <g>
       <use xlink:href="#mfd2b846632" x="737.112575" y="283.747419" style="stroke: #000000; stroke-width: 0.8"/>
      </g>
     </g>
     <g id="text_52">
      <!-- 250 -->
      <g transform="translate(712.112575 287.913669) scale(0.12 -0.12)">
       <use xlink:href="#TimesNewRomanPSMT-32"/>
       <use xlink:href="#TimesNewRomanPSMT-35" x="50"/>
       <use xlink:href="#TimesNewRomanPSMT-30" x="100"/>
      </g>
     </g>
    </g>
    <g id="ytick_12">
     <g id="line2d_58">
      <g>
       <use xlink:href="#mfd2b846632" x="737.112575" y="250.916815" style="stroke: #000000; stroke-width: 0.8"/>
      </g>
     </g>
     <g id="text_53">
      <!-- 500 -->
      <g transform="translate(712.112575 255.083065) scale(0.12 -0.12)">
       <use xlink:href="#TimesNewRomanPSMT-35"/>
       <use xlink:href="#TimesNewRomanPSMT-30" x="50"/>
       <use xlink:href="#TimesNewRomanPSMT-30" x="100"/>
      </g>
     </g>
    </g>
    <g id="ytick_13">
     <g id="line2d_59">
      <g>
       <use xlink:href="#mfd2b846632" x="737.112575" y="218.086212" style="stroke: #000000; stroke-width: 0.8"/>
      </g>
     </g>
     <g id="text_54">
      <!-- 750 -->
      <g transform="translate(712.112575 222.252462) scale(0.12 -0.12)">
       <use xlink:href="#TimesNewRomanPSMT-37"/>
       <use xlink:href="#TimesNewRomanPSMT-35" x="50"/>
       <use xlink:href="#TimesNewRomanPSMT-30" x="100"/>
      </g>
     </g>
    </g>
    <g id="text_55">
     <!-- TCPA (s) -->
     <g transform="translate(705.5457 294.692755) rotate(-90) scale(0.12 -0.12)">
      <use xlink:href="#TimesNewRomanPSMT-54"/>
      <use xlink:href="#TimesNewRomanPSMT-43" x="61.083984"/>
      <use xlink:href="#TimesNewRomanPSMT-50" x="127.783203"/>
      <use xlink:href="#TimesNewRomanPSMT-41" x="174.273438"/>
      <use xlink:href="#TimesNewRomanPSMT-20" x="240.990234"/>
      <use xlink:href="#TimesNewRomanPSMT-28" x="265.990234"/>
      <use xlink:href="#TimesNewRomanPSMT-73" x="299.291016"/>
      <use xlink:href="#TimesNewRomanPSMT-29" x="338.207031"/>
     </g>
    </g>
   </g>
   <g id="line2d_60">
    <path d="M 738.76295 225.536035 
L 742.147825 228.031161 
L 742.325977 240.486487 
L 749.273879 245.322287 
L 749.45203 242.343352 
L 770.652039 255.614885 
L 770.830191 255.20996 
L 774.215066 257.705086 
L 774.393217 256.814129 
L 792.0302 268.770558 
L 792.208351 263.670526 
L 809.845333 275.445796 
L 810.023485 273.25086 
L 824.09744 283.064116 
L 824.275592 285.189533 
L 831.223494 290.003477 
L 831.401645 289.01811 
L 849.038627 300.938091 
L 849.216779 297.457294 
L 856.164681 302.539928 
L 856.342832 302.311574 
L 870.416788 311.300517 
L 870.77309 311.805438 
L 877.542841 316.754358 
L 877.720993 317.736399 
L 895.357975 329.151961 
L 895.714278 329.558553 
L 906.047055 336.789443 
L 906.225206 334.515806 
L 927.603367 349.402304 
L 941.677322 359.702261 
L 941.855474 358.736851 
L 956.604939 369.372423 
L 956.604939 369.372423 
" clip-path="url(#pd251805958)" style="fill: none; stroke-dasharray: 2,3.3; stroke-dashoffset: 0; stroke: #90ee90; stroke-width: 2"/>
   </g>
   <g id="line2d_61">
    <path d="M 738.76295 280.019443 
L 859.97876 369.372423 
L 859.97876 369.372423 
" clip-path="url(#pd251805958)" style="fill: none; stroke-dasharray: 2,3.3; stroke-dashoffset: 0; stroke: #fa8072; stroke-width: 2"/>
   </g>
   <g id="line2d_62">
    <path d="M 738.76295 225.536035 
L 742.147825 228.031161 
L 742.325977 260.883358 
L 749.273879 264.60661 
L 749.45203 256.89344 
L 770.652039 266.779049 
L 770.830191 265.568047 
L 774.215066 267.526204 
L 774.393217 265.036435 
L 776.887336 266.331302 
L 777.065487 264.234451 
L 782.410027 267.835744 
L 782.588179 255.187491 
L 782.76633 266.071404 
L 792.0302 271.054538 
L 792.208351 259.712196 
L 809.845333 269.046668 
L 810.023485 263.690828 
L 815.011722 266.489791 
L 815.189873 261.290166 
L 824.09744 265.967717 
L 824.275592 268.0424 
L 831.223494 271.659729 
L 831.401645 270.63187 
L 845.119298 277.54087 
L 845.297449 281.064447 
L 849.038627 283.237705 
L 849.216779 279.436533 
L 856.164681 283.862879 
L 856.342832 283.593163 
L 865.250399 288.444801 
L 865.42855 287.364023 
L 870.416788 289.931092 
L 870.77309 290.354921 
L 877.542841 294.45889 
L 877.720993 295.335139 
L 878.255447 295.614542 
L 878.433598 294.642069 
L 893.39831 304.324922 
L 893.576462 303.486205 
L 893.754613 302.105947 
L 895.714278 303.233852 
L 906.047055 309.067958 
L 906.225206 307.362891 
L 912.994957 311.117261 
L 913.173109 316.899228 
L 927.603367 326.993038 
L 941.677322 337.292995 
L 941.855474 336.564906 
L 959.492456 349.282614 
L 959.848759 349.768853 
L 970.181536 357.385553 
L 970.359688 357.787307 
L 986.55917 369.372423 
L 986.55917 369.372423 
" clip-path="url(#pd251805958)" style="fill: none; stroke: #008000; stroke-width: 1.7; stroke-linecap: square"/>
   </g>
   <g id="line2d_63">
    <path d="M 738.76295 280.019443 
L 742.147825 282.514569 
L 742.325977 285.189261 
L 776.887336 305.194078 
L 777.065487 304.861507 
L 782.410027 308.781596 
L 782.588179 307.18462 
L 782.76633 308.626139 
L 815.011722 327.911968 
L 815.189873 325.168085 
L 845.119298 342.267623 
L 845.297449 345.024603 
L 865.250399 357.897579 
L 865.42855 358.266146 
L 878.255447 366.200283 
L 878.433598 366.835402 
L 881.878229 369.372423 
L 881.878229 369.372423 
" clip-path="url(#pd251805958)" style="fill: none; stroke: #ff0000; stroke-width: 1.7; stroke-linecap: square"/>
   </g>
   <g id="line2d_64">
    <path d="M 738.76295 237.784574 
L 1006.524409 237.784574 
L 1006.524409 237.784574 
" clip-path="url(#pd251805958)" style="fill: none; stroke-dasharray: 5.55,2.4; stroke-dashoffset: 0; stroke: #000000; stroke-width: 1.5"/>
   </g>
   <g id="line2d_65">
    <path d="M 738.76295 316.578022 
L 1006.524409 316.578022 
L 1006.524409 316.578022 
" clip-path="url(#pd251805958)" style="fill: none; stroke-dasharray: 5.55,2.4; stroke-dashoffset: 0; stroke: #000000; stroke-width: 1.5"/>
   </g>
   <g id="patch_21">
    <path d="M 737.112575 328.373673 
L 737.112575 216.431836 
" style="fill: none; stroke: #000000; stroke-width: 0.8; stroke-linejoin: miter; stroke-linecap: square"/>
   </g>
   <g id="patch_22">
    <path d="M 1006.3682 328.373673 
L 1006.3682 216.431836 
" style="fill: none; stroke: #000000; stroke-width: 0.8; stroke-linejoin: miter; stroke-linecap: square"/>
   </g>
   <g id="patch_23">
    <path d="M 737.112575 328.373673 
L 1006.3682 328.373673 
" style="fill: none; stroke: #000000; stroke-width: 0.8; stroke-linejoin: miter; stroke-linecap: square"/>
   </g>
   <g id="patch_24">
    <path d="M 737.112575 216.431836 
L 1006.3682 216.431836 
" style="fill: none; stroke: #000000; stroke-width: 0.8; stroke-linejoin: miter; stroke-linecap: square"/>
   </g>
   <g id="text_56">
    <!-- 10 min -->
    <g transform="translate(963.836317 237.028799) scale(0.11 -0.11)">
     <use xlink:href="#TimesNewRomanPSMT-31"/>
     <use xlink:href="#TimesNewRomanPSMT-30" x="50"/>
     <use xlink:href="#TimesNewRomanPSMT-20" x="100"/>
     <use xlink:href="#TimesNewRomanPSMT-6d" x="125"/>
     <use xlink:href="#TimesNewRomanPSMT-69" x="202.783203"/>
     <use xlink:href="#TimesNewRomanPSMT-6e" x="230.566406"/>
    </g>
   </g>
   <g id="legend_4">
    <g id="patch_25">
     <path d="M 903.4082 291.242755 
L 997.9682 291.242755 
Q 1000.3682 291.242755 1000.3682 288.842755 
L 1000.3682 255.962755 
Q 1000.3682 253.562755 997.9682 253.562755 
L 903.4082 253.562755 
Q 901.0082 253.562755 901.0082 255.962755 
L 901.0082 288.842755 
Q 901.0082 291.242755 903.4082 291.242755 
z
" style="fill: #ffffff; opacity: 0.8; stroke: #cccccc; stroke-linejoin: miter"/>
    </g>
    <g id="line2d_66">
     <path d="M 905.8082 262.562755 
L 917.8082 262.562755 
L 929.8082 262.562755 
" style="fill: none; stroke: #008000; stroke-width: 1.7; stroke-linecap: square"/>
    </g>
    <g id="text_57">
     <!-- TS_2$\rightarrow$OS -->
     <g transform="translate(939.4082 266.762755) scale(0.12 -0.12)">
      <use xlink:href="#TimesNewRomanPSMT-54" transform="translate(0 0.28125)"/>
      <use xlink:href="#TimesNewRomanPSMT-53" transform="translate(61.083984 0.28125)"/>
      <use xlink:href="#TimesNewRomanPSMT-5f" transform="translate(116.699219 0.28125)"/>
      <use xlink:href="#TimesNewRomanPSMT-32" transform="translate(166.699219 0.28125)"/>
      <use xlink:href="#DejaVuSans-2192" transform="translate(236.181641 0.28125)"/>
      <use xlink:href="#TimesNewRomanPSMT-4f" transform="translate(339.453125 0.28125)"/>
      <use xlink:href="#TimesNewRomanPSMT-53" transform="translate(411.669922 0.28125)"/>
     </g>
    </g>
    <g id="line2d_67">
     <path d="M 905.8082 279.602755 
L 917.8082 279.602755 
L 929.8082 279.602755 
" style="fill: none; stroke: #ff0000; stroke-width: 1.7; stroke-linecap: square"/>
    </g>
    <g id="text_58">
     <!-- OS$\rightarrow$TS_1 -->
     <g transform="translate(939.4082 283.802755) scale(0.12 -0.12)">
      <use xlink:href="#TimesNewRomanPSMT-4f" transform="translate(0 0.28125)"/>
      <use xlink:href="#TimesNewRomanPSMT-53" transform="translate(72.216797 0.28125)"/>
      <use xlink:href="#DejaVuSans-2192" transform="translate(147.314453 0.28125)"/>
      <use xlink:href="#TimesNewRomanPSMT-54" transform="translate(250.585938 0.28125)"/>
      <use xlink:href="#TimesNewRomanPSMT-53" transform="translate(311.669922 0.28125)"/>
      <use xlink:href="#TimesNewRomanPSMT-5f" transform="translate(367.285156 0.28125)"/>
      <use xlink:href="#TimesNewRomanPSMT-31" transform="translate(417.285156 0.28125)"/>
     </g>
    </g>
   </g>
  </g>
 </g>
 <defs>
  <clipPath id="p6331774d63">
   <rect x="737.112575" y="7.2" width="269.255625" height="111.941836"/>
  </clipPath>
  <clipPath id="p02ba77edbf">
   <rect x="53.099375" y="216.431836" width="269.255625" height="111.941836"/>
  </clipPath>
  <clipPath id="p7986698544">
   <rect x="395.105975" y="216.431836" width="269.255625" height="111.941836"/>
  </clipPath>
  <clipPath id="pd251805958">
   <rect x="737.112575" y="216.431836" width="269.255625" height="111.941836"/>
  </clipPath>
 </defs>
</svg>
