<?xml version="1.0" encoding="utf-8" standalone="no"?>
<!DOCTYPE svg PUBLIC "-//W3C//DTD SVG 1.1//EN"
  "http://www.w3.org/Graphics/SVG/1.1/DTD/svg11.dtd">
<svg xmlns:xlink="http://www.w3.org/1999/xlink" width="855.942028pt" height="203.62581pt" viewBox="0 0 855.942028 203.62581" xmlns="http://www.w3.org/2000/svg" version="1.1">
 <metadata>
  <rdf:RDF xmlns:dc="http://purl.org/dc/elements/1.1/" xmlns:cc="http://creativecommons.org/ns#" xmlns:rdf="http://www.w3.org/1999/02/22-rdf-syntax-ns#">
   <cc:Work>
    <dc:type rdf:resource="http://purl.org/dc/dcmitype/StillImage"/>
    <dc:date>2024-10-23T14:13:17.158526</dc:date>
    <dc:format>image/svg+xml</dc:format>
    <dc:creator>
     <cc:Agent>
      <dc:title>Matplotlib v3.9.0, https://matplotlib.org/</dc:title>
     </cc:Agent>
    </dc:creator>
   </cc:Work>
  </rdf:RDF>
 </metadata>
 <defs>
  <style type="text/css">*{stroke-linejoin: round; stroke-linecap: butt}</style>
 </defs>
 <g id="figure_1">
  <g id="patch_1">
   <path d="M 0 203.62581 
L 855.942028 203.62581 
L 855.942028 0 
L 0 0 
z
" style="fill: #ffffff"/>
  </g>
  <g id="axes_1">
   <g id="patch_2">
    <path d="M 59.099375 163.62706 
L 210.841875 163.62706 
L 210.841875 8.870058 
L 59.099375 8.870058 
z
" style="fill: #ffffff"/>
   </g>
   <g id="matplotlib.axis_1">
    <g id="xtick_1">
     <g id="line2d_1">
      <defs>
       <path id="m9f6c1ba7dd" d="M 0 0 
L 0 3.5 
" style="stroke: #000000; stroke-width: 0.8"/>
      </defs>
      <g>
       <use xlink:href="#m9f6c1ba7dd" x="60.24778" y="163.62706" style="stroke: #000000; stroke-width: 0.8"/>
      </g>
     </g>
     <g id="text_1">
      <!-- 0 -->
      <g transform="translate(57.24778 178.95956) scale(0.12 -0.12)">
       <defs>
        <path id="TimesNewRomanPSMT-30" d="M 231 2094 
Q 231 2819 450 3342 
Q 669 3866 1031 4122 
Q 1313 4325 1613 4325 
Q 2100 4325 2488 3828 
Q 2972 3213 2972 2159 
Q 2972 1422 2759 906 
Q 2547 391 2217 158 
Q 1888 -75 1581 -75 
Q 975 -75 572 641 
Q 231 1244 231 2094 
z
M 844 2016 
Q 844 1141 1059 588 
Q 1238 122 1591 122 
Q 1759 122 1940 273 
Q 2122 425 2216 781 
Q 2359 1319 2359 2297 
Q 2359 3022 2209 3506 
Q 2097 3866 1919 4016 
Q 1791 4119 1609 4119 
Q 1397 4119 1231 3928 
Q 1006 3669 925 3112 
Q 844 2556 844 2016 
z
" transform="scale(0.015625)"/>
       </defs>
       <use xlink:href="#TimesNewRomanPSMT-30"/>
      </g>
     </g>
    </g>
    <g id="xtick_2">
     <g id="line2d_2">
      <g>
       <use xlink:href="#m9f6c1ba7dd" x="117.026018" y="163.62706" style="stroke: #000000; stroke-width: 0.8"/>
      </g>
     </g>
     <g id="text_2">
      <!-- 1000 -->
      <g transform="translate(105.026018 178.95956) scale(0.12 -0.12)">
       <defs>
        <path id="TimesNewRomanPSMT-31" d="M 750 3822 
L 1781 4325 
L 1884 4325 
L 1884 747 
Q 1884 391 1914 303 
Q 1944 216 2037 169 
Q 2131 122 2419 116 
L 2419 0 
L 825 0 
L 825 116 
Q 1125 122 1212 167 
Q 1300 213 1334 289 
Q 1369 366 1369 747 
L 1369 3034 
Q 1369 3497 1338 3628 
Q 1316 3728 1258 3775 
Q 1200 3822 1119 3822 
Q 1003 3822 797 3725 
L 750 3822 
z
" transform="scale(0.015625)"/>
       </defs>
       <use xlink:href="#TimesNewRomanPSMT-31"/>
       <use xlink:href="#TimesNewRomanPSMT-30" x="50"/>
       <use xlink:href="#TimesNewRomanPSMT-30" x="100"/>
       <use xlink:href="#TimesNewRomanPSMT-30" x="150"/>
      </g>
     </g>
    </g>
    <g id="xtick_3">
     <g id="line2d_3">
      <g>
       <use xlink:href="#m9f6c1ba7dd" x="173.804256" y="163.62706" style="stroke: #000000; stroke-width: 0.8"/>
      </g>
     </g>
     <g id="text_3">
      <!-- 2000 -->
      <g transform="translate(161.804256 178.95956) scale(0.12 -0.12)">
       <defs>
        <path id="TimesNewRomanPSMT-32" d="M 2934 816 
L 2638 0 
L 138 0 
L 138 116 
Q 1241 1122 1691 1759 
Q 2141 2397 2141 2925 
Q 2141 3328 1894 3587 
Q 1647 3847 1303 3847 
Q 991 3847 742 3664 
Q 494 3481 375 3128 
L 259 3128 
Q 338 3706 661 4015 
Q 984 4325 1469 4325 
Q 1984 4325 2329 3994 
Q 2675 3663 2675 3213 
Q 2675 2891 2525 2569 
Q 2294 2063 1775 1497 
Q 997 647 803 472 
L 1909 472 
Q 2247 472 2383 497 
Q 2519 522 2628 598 
Q 2738 675 2819 816 
L 2934 816 
z
" transform="scale(0.015625)"/>
       </defs>
       <use xlink:href="#TimesNewRomanPSMT-32"/>
       <use xlink:href="#TimesNewRomanPSMT-30" x="50"/>
       <use xlink:href="#TimesNewRomanPSMT-30" x="100"/>
       <use xlink:href="#TimesNewRomanPSMT-30" x="150"/>
      </g>
     </g>
    </g>
    <g id="text_4">
     <!-- Time (s) -->
     <g transform="translate(114.687812 193.858935) scale(0.12 -0.12)">
      <defs>
       <path id="TimesNewRomanPSMT-54" d="M 3703 4238 
L 3750 3244 
L 3631 3244 
Q 3597 3506 3538 3619 
Q 3441 3800 3280 3886 
Q 3119 3972 2856 3972 
L 2259 3972 
L 2259 734 
Q 2259 344 2344 247 
Q 2463 116 2709 116 
L 2856 116 
L 2856 0 
L 1059 0 
L 1059 116 
L 1209 116 
Q 1478 116 1591 278 
Q 1659 378 1659 734 
L 1659 3972 
L 1150 3972 
Q 853 3972 728 3928 
Q 566 3869 450 3700 
Q 334 3531 313 3244 
L 194 3244 
L 244 4238 
L 3703 4238 
z
" transform="scale(0.015625)"/>
       <path id="TimesNewRomanPSMT-69" d="M 928 4444 
Q 1059 4444 1151 4351 
Q 1244 4259 1244 4128 
Q 1244 3997 1151 3903 
Q 1059 3809 928 3809 
Q 797 3809 703 3903 
Q 609 3997 609 4128 
Q 609 4259 701 4351 
Q 794 4444 928 4444 
z
M 1188 2947 
L 1188 647 
Q 1188 378 1227 289 
Q 1266 200 1342 156 
Q 1419 113 1622 113 
L 1622 0 
L 231 0 
L 231 113 
Q 441 113 512 153 
Q 584 194 626 287 
Q 669 381 669 647 
L 669 1750 
Q 669 2216 641 2353 
Q 619 2453 572 2492 
Q 525 2531 444 2531 
Q 356 2531 231 2484 
L 188 2597 
L 1050 2947 
L 1188 2947 
z
" transform="scale(0.015625)"/>
       <path id="TimesNewRomanPSMT-6d" d="M 1050 2338 
Q 1363 2650 1419 2697 
Q 1559 2816 1721 2881 
Q 1884 2947 2044 2947 
Q 2313 2947 2506 2790 
Q 2700 2634 2766 2338 
Q 3088 2713 3309 2830 
Q 3531 2947 3766 2947 
Q 3994 2947 4170 2830 
Q 4347 2713 4450 2447 
Q 4519 2266 4519 1878 
L 4519 647 
Q 4519 378 4559 278 
Q 4591 209 4675 161 
Q 4759 113 4950 113 
L 4950 0 
L 3538 0 
L 3538 113 
L 3597 113 
Q 3781 113 3884 184 
Q 3956 234 3988 344 
Q 4000 397 4000 647 
L 4000 1878 
Q 4000 2228 3916 2372 
Q 3794 2572 3525 2572 
Q 3359 2572 3192 2489 
Q 3025 2406 2788 2181 
L 2781 2147 
L 2788 2013 
L 2788 647 
Q 2788 353 2820 281 
Q 2853 209 2943 161 
Q 3034 113 3253 113 
L 3253 0 
L 1806 0 
L 1806 113 
Q 2044 113 2133 169 
Q 2222 225 2256 338 
Q 2272 391 2272 647 
L 2272 1878 
Q 2272 2228 2169 2381 
Q 2031 2581 1784 2581 
Q 1616 2581 1450 2491 
Q 1191 2353 1050 2181 
L 1050 647 
Q 1050 366 1089 281 
Q 1128 197 1204 155 
Q 1281 113 1516 113 
L 1516 0 
L 100 0 
L 100 113 
Q 297 113 375 155 
Q 453 197 493 289 
Q 534 381 534 647 
L 534 1741 
Q 534 2213 506 2350 
Q 484 2453 437 2492 
Q 391 2531 309 2531 
Q 222 2531 100 2484 
L 53 2597 
L 916 2947 
L 1050 2947 
L 1050 2338 
z
" transform="scale(0.015625)"/>
       <path id="TimesNewRomanPSMT-65" d="M 681 1784 
Q 678 1147 991 784 
Q 1303 422 1725 422 
Q 2006 422 2214 576 
Q 2422 731 2563 1106 
L 2659 1044 
Q 2594 616 2278 264 
Q 1963 -88 1488 -88 
Q 972 -88 605 314 
Q 238 716 238 1394 
Q 238 2128 614 2539 
Q 991 2950 1559 2950 
Q 2041 2950 2350 2633 
Q 2659 2316 2659 1784 
L 681 1784 
z
M 681 1966 
L 2006 1966 
Q 1991 2241 1941 2353 
Q 1863 2528 1708 2628 
Q 1553 2728 1384 2728 
Q 1125 2728 920 2526 
Q 716 2325 681 1966 
z
" transform="scale(0.015625)"/>
       <path id="TimesNewRomanPSMT-20" transform="scale(0.015625)"/>
       <path id="TimesNewRomanPSMT-28" d="M 1988 -1253 
L 1988 -1369 
Q 1516 -1131 1200 -813 
Q 750 -359 506 256 
Q 263 872 263 1534 
Q 263 2503 741 3301 
Q 1219 4100 1988 4444 
L 1988 4313 
Q 1603 4100 1356 3731 
Q 1109 3363 987 2797 
Q 866 2231 866 1616 
Q 866 947 969 400 
Q 1050 -31 1165 -292 
Q 1281 -553 1476 -793 
Q 1672 -1034 1988 -1253 
z
" transform="scale(0.015625)"/>
       <path id="TimesNewRomanPSMT-73" d="M 2050 2947 
L 2050 1972 
L 1947 1972 
Q 1828 2431 1642 2597 
Q 1456 2763 1169 2763 
Q 950 2763 815 2647 
Q 681 2531 681 2391 
Q 681 2216 781 2091 
Q 878 1963 1175 1819 
L 1631 1597 
Q 2266 1288 2266 781 
Q 2266 391 1970 151 
Q 1675 -88 1309 -88 
Q 1047 -88 709 6 
Q 606 38 541 38 
Q 469 38 428 -44 
L 325 -44 
L 325 978 
L 428 978 
Q 516 541 762 319 
Q 1009 97 1316 97 
Q 1531 97 1667 223 
Q 1803 350 1803 528 
Q 1803 744 1651 891 
Q 1500 1038 1047 1263 
Q 594 1488 453 1669 
Q 313 1847 313 2119 
Q 313 2472 555 2709 
Q 797 2947 1181 2947 
Q 1350 2947 1591 2875 
Q 1750 2828 1803 2828 
Q 1853 2828 1881 2850 
Q 1909 2872 1947 2947 
L 2050 2947 
z
" transform="scale(0.015625)"/>
       <path id="TimesNewRomanPSMT-29" d="M 144 4313 
L 144 4444 
Q 619 4209 934 3891 
Q 1381 3434 1625 2820 
Q 1869 2206 1869 1541 
Q 1869 572 1392 -226 
Q 916 -1025 144 -1369 
L 144 -1253 
Q 528 -1038 776 -670 
Q 1025 -303 1145 264 
Q 1266 831 1266 1447 
Q 1266 2113 1163 2663 
Q 1084 3094 967 3353 
Q 850 3613 656 3853 
Q 463 4094 144 4313 
z
" transform="scale(0.015625)"/>
      </defs>
      <use xlink:href="#TimesNewRomanPSMT-54"/>
      <use xlink:href="#TimesNewRomanPSMT-69" x="57.583984"/>
      <use xlink:href="#TimesNewRomanPSMT-6d" x="85.367188"/>
      <use xlink:href="#TimesNewRomanPSMT-65" x="163.150391"/>
      <use xlink:href="#TimesNewRomanPSMT-20" x="207.535156"/>
      <use xlink:href="#TimesNewRomanPSMT-28" x="232.535156"/>
      <use xlink:href="#TimesNewRomanPSMT-73" x="265.835938"/>
      <use xlink:href="#TimesNewRomanPSMT-29" x="304.751953"/>
     </g>
    </g>
   </g>
   <g id="matplotlib.axis_2">
    <g id="ytick_1">
     <g id="line2d_4">
      <defs>
       <path id="mcf4da1bd58" d="M 0 0 
L -3.5 0 
" style="stroke: #000000; stroke-width: 0.8"/>
      </defs>
      <g>
       <use xlink:href="#mcf4da1bd58" x="59.099375" y="156.8949" style="stroke: #000000; stroke-width: 0.8"/>
      </g>
     </g>
     <g id="text_5">
      <!-- 0 -->
      <g transform="translate(46.099375 161.06115) scale(0.12 -0.12)">
       <use xlink:href="#TimesNewRomanPSMT-30"/>
      </g>
     </g>
    </g>
    <g id="ytick_2">
     <g id="line2d_5">
      <g>
       <use xlink:href="#mcf4da1bd58" x="59.099375" y="118.183546" style="stroke: #000000; stroke-width: 0.8"/>
      </g>
     </g>
     <g id="text_6">
      <!-- 5000 -->
      <g transform="translate(28.099375 122.349796) scale(0.12 -0.12)">
       <defs>
        <path id="TimesNewRomanPSMT-35" d="M 2778 4238 
L 2534 3706 
L 1259 3706 
L 981 3138 
Q 1809 3016 2294 2522 
Q 2709 2097 2709 1522 
Q 2709 1188 2573 903 
Q 2438 619 2231 419 
Q 2025 219 1772 97 
Q 1413 -75 1034 -75 
Q 653 -75 479 54 
Q 306 184 306 341 
Q 306 428 378 495 
Q 450 563 559 563 
Q 641 563 702 538 
Q 763 513 909 409 
Q 1144 247 1384 247 
Q 1750 247 2026 523 
Q 2303 800 2303 1197 
Q 2303 1581 2056 1914 
Q 1809 2247 1375 2428 
Q 1034 2569 447 2591 
L 1259 4238 
L 2778 4238 
z
" transform="scale(0.015625)"/>
       </defs>
       <use xlink:href="#TimesNewRomanPSMT-35"/>
       <use xlink:href="#TimesNewRomanPSMT-30" x="50"/>
       <use xlink:href="#TimesNewRomanPSMT-30" x="100"/>
       <use xlink:href="#TimesNewRomanPSMT-30" x="150"/>
      </g>
     </g>
    </g>
    <g id="ytick_3">
     <g id="line2d_6">
      <g>
       <use xlink:href="#mcf4da1bd58" x="59.099375" y="79.472191" style="stroke: #000000; stroke-width: 0.8"/>
      </g>
     </g>
     <g id="text_7">
      <!-- 10000 -->
      <g transform="translate(22.099375 83.638441) scale(0.12 -0.12)">
       <use xlink:href="#TimesNewRomanPSMT-31"/>
       <use xlink:href="#TimesNewRomanPSMT-30" x="50"/>
       <use xlink:href="#TimesNewRomanPSMT-30" x="100"/>
       <use xlink:href="#TimesNewRomanPSMT-30" x="150"/>
       <use xlink:href="#TimesNewRomanPSMT-30" x="200"/>
      </g>
     </g>
    </g>
    <g id="ytick_4">
     <g id="line2d_7">
      <g>
       <use xlink:href="#mcf4da1bd58" x="59.099375" y="40.760837" style="stroke: #000000; stroke-width: 0.8"/>
      </g>
     </g>
     <g id="text_8">
      <!-- 15000 -->
      <g transform="translate(22.099375 44.927087) scale(0.12 -0.12)">
       <use xlink:href="#TimesNewRomanPSMT-31"/>
       <use xlink:href="#TimesNewRomanPSMT-35" x="50"/>
       <use xlink:href="#TimesNewRomanPSMT-30" x="100"/>
       <use xlink:href="#TimesNewRomanPSMT-30" x="150"/>
       <use xlink:href="#TimesNewRomanPSMT-30" x="200"/>
      </g>
     </g>
    </g>
    <g id="text_9">
     <!-- Distance (m) -->
     <g transform="translate(15.5325 117.403559) rotate(-90) scale(0.12 -0.12)">
      <defs>
       <path id="TimesNewRomanPSMT-44" d="M 109 0 
L 109 116 
L 269 116 
Q 538 116 650 288 
Q 719 391 719 750 
L 719 3488 
Q 719 3884 631 3984 
Q 509 4122 269 4122 
L 109 4122 
L 109 4238 
L 1834 4238 
Q 2784 4238 3279 4022 
Q 3775 3806 4076 3303 
Q 4378 2800 4378 2141 
Q 4378 1256 3841 663 
Q 3238 0 2003 0 
L 109 0 
z
M 1319 306 
Q 1716 219 1984 219 
Q 2709 219 3187 728 
Q 3666 1238 3666 2109 
Q 3666 2988 3187 3494 
Q 2709 4000 1959 4000 
Q 1678 4000 1319 3909 
L 1319 306 
z
" transform="scale(0.015625)"/>
       <path id="TimesNewRomanPSMT-74" d="M 1031 3803 
L 1031 2863 
L 1700 2863 
L 1700 2644 
L 1031 2644 
L 1031 788 
Q 1031 509 1111 412 
Q 1191 316 1316 316 
Q 1419 316 1516 380 
Q 1613 444 1666 569 
L 1788 569 
Q 1678 263 1478 108 
Q 1278 -47 1066 -47 
Q 922 -47 784 33 
Q 647 113 581 261 
Q 516 409 516 719 
L 516 2644 
L 63 2644 
L 63 2747 
Q 234 2816 414 2980 
Q 594 3144 734 3369 
Q 806 3488 934 3803 
L 1031 3803 
z
" transform="scale(0.015625)"/>
       <path id="TimesNewRomanPSMT-61" d="M 1822 413 
Q 1381 72 1269 19 
Q 1100 -59 909 -59 
Q 613 -59 420 144 
Q 228 347 228 678 
Q 228 888 322 1041 
Q 450 1253 767 1440 
Q 1084 1628 1822 1897 
L 1822 2009 
Q 1822 2438 1686 2597 
Q 1550 2756 1291 2756 
Q 1094 2756 978 2650 
Q 859 2544 859 2406 
L 866 2225 
Q 866 2081 792 2003 
Q 719 1925 600 1925 
Q 484 1925 411 2006 
Q 338 2088 338 2228 
Q 338 2497 613 2722 
Q 888 2947 1384 2947 
Q 1766 2947 2009 2819 
Q 2194 2722 2281 2516 
Q 2338 2381 2338 1966 
L 2338 994 
Q 2338 584 2353 492 
Q 2369 400 2405 369 
Q 2441 338 2488 338 
Q 2538 338 2575 359 
Q 2641 400 2828 588 
L 2828 413 
Q 2478 -56 2159 -56 
Q 2006 -56 1915 50 
Q 1825 156 1822 413 
z
M 1822 616 
L 1822 1706 
Q 1350 1519 1213 1441 
Q 966 1303 859 1153 
Q 753 1003 753 825 
Q 753 600 887 451 
Q 1022 303 1197 303 
Q 1434 303 1822 616 
z
" transform="scale(0.015625)"/>
       <path id="TimesNewRomanPSMT-6e" d="M 1034 2341 
Q 1538 2947 1994 2947 
Q 2228 2947 2397 2830 
Q 2566 2713 2666 2444 
Q 2734 2256 2734 1869 
L 2734 647 
Q 2734 375 2778 278 
Q 2813 200 2889 156 
Q 2966 113 3172 113 
L 3172 0 
L 1756 0 
L 1756 113 
L 1816 113 
Q 2016 113 2095 173 
Q 2175 234 2206 353 
Q 2219 400 2219 647 
L 2219 1819 
Q 2219 2209 2117 2386 
Q 2016 2563 1775 2563 
Q 1403 2563 1034 2156 
L 1034 647 
Q 1034 356 1069 288 
Q 1113 197 1189 155 
Q 1266 113 1500 113 
L 1500 0 
L 84 0 
L 84 113 
L 147 113 
Q 366 113 442 223 
Q 519 334 519 647 
L 519 1709 
Q 519 2225 495 2337 
Q 472 2450 423 2490 
Q 375 2531 294 2531 
Q 206 2531 84 2484 
L 38 2597 
L 900 2947 
L 1034 2947 
L 1034 2341 
z
" transform="scale(0.015625)"/>
       <path id="TimesNewRomanPSMT-63" d="M 2631 1088 
Q 2516 522 2178 217 
Q 1841 -88 1431 -88 
Q 944 -88 581 321 
Q 219 731 219 1428 
Q 219 2103 620 2525 
Q 1022 2947 1584 2947 
Q 2006 2947 2278 2723 
Q 2550 2500 2550 2259 
Q 2550 2141 2473 2067 
Q 2397 1994 2259 1994 
Q 2075 1994 1981 2113 
Q 1928 2178 1911 2362 
Q 1894 2547 1784 2644 
Q 1675 2738 1481 2738 
Q 1169 2738 978 2506 
Q 725 2200 725 1697 
Q 725 1184 976 792 
Q 1228 400 1656 400 
Q 1963 400 2206 609 
Q 2378 753 2541 1131 
L 2631 1088 
z
" transform="scale(0.015625)"/>
      </defs>
      <use xlink:href="#TimesNewRomanPSMT-44"/>
      <use xlink:href="#TimesNewRomanPSMT-69" x="72.216797"/>
      <use xlink:href="#TimesNewRomanPSMT-73" x="100"/>
      <use xlink:href="#TimesNewRomanPSMT-74" x="138.916016"/>
      <use xlink:href="#TimesNewRomanPSMT-61" x="166.699219"/>
      <use xlink:href="#TimesNewRomanPSMT-6e" x="211.083984"/>
      <use xlink:href="#TimesNewRomanPSMT-63" x="261.083984"/>
      <use xlink:href="#TimesNewRomanPSMT-65" x="305.46875"/>
      <use xlink:href="#TimesNewRomanPSMT-20" x="349.853516"/>
      <use xlink:href="#TimesNewRomanPSMT-28" x="374.853516"/>
      <use xlink:href="#TimesNewRomanPSMT-6d" x="408.154297"/>
      <use xlink:href="#TimesNewRomanPSMT-29" x="485.9375"/>
     </g>
    </g>
   </g>
   <g id="line2d_8">
    <path d="M 60.24778 85.22227 
L 118.559031 156.656919 
L 118.729365 156.643758 
L 119.126813 156.248239 
L 122.13606 152.587229 
L 210.880446 43.649694 
L 210.880446 43.649694 
" clip-path="url(#p73fb167b01)" style="fill: none; stroke: #90ee90; stroke-width: 1.3; stroke-linecap: square"/>
   </g>
   <g id="line2d_9">
    <path d="M 60.24778 113.688898 
L 76.088908 156.87835 
L 76.145687 156.755985 
L 134.007028 -1 
L 134.007028 -1 
" clip-path="url(#p73fb167b01)" style="fill: none; stroke: #fa8072; stroke-width: 1.3; stroke-linecap: square"/>
   </g>
   <g id="line2d_10">
    <path d="M 60.24778 85.22227 
L 61.667236 86.797917 
L 67.96962 90.697527 
L 68.821294 91.326459 
L 72.17121 93.82484 
L 75.407569 96.000404 
L 80.176941 98.449131 
L 82.334515 100.236492 
L 84.378531 102.429403 
L 89.545351 108.297894 
L 92.213928 110.377364 
L 97.551082 112.500541 
L 98.232421 112.900231 
L 105.159366 117.475664 
L 107.487274 119.60248 
L 108.452504 120.588047 
L 108.622839 121.243961 
L 110.780412 123.0394 
L 112.937985 124.527794 
L 115.720119 125.940837 
L 117.366688 126.815271 
L 119.86493 128.17233 
L 122.079281 129.135272 
L 125.315641 130.208523 
L 128.324887 130.974754 
L 131.334134 131.508866 
L 133.378151 131.652118 
L 135.365389 131.56947 
L 137.409406 131.262444 
L 139.794092 130.677507 
L 142.292334 129.831289 
L 144.960911 128.687643 
L 146.891371 127.658386 
L 149.446392 125.979643 
L 151.660743 124.331096 
L 152.455639 122.895372 
L 155.351329 120.804618 
L 157.849571 119.027711 
L 165.968859 113.081214 
L 171.646683 108.652091 
L 172.839026 107.861068 
L 178.630407 103.075933 
L 180.844758 101.057262 
L 186.181912 96.040733 
L 192.484297 90.697973 
L 199.524798 85.03179 
L 205.202622 79.759043 
L 208.779651 76.485533 
L 210.880446 74.565243 
L 210.880446 74.565243 
" clip-path="url(#p73fb167b01)" style="fill: none; stroke: #008000; stroke-width: 1.7; stroke-linecap: square"/>
   </g>
   <g id="line2d_11">
    <path d="M 60.24778 155.503203 
L 210.880446 155.503203 
L 210.880446 155.503203 
" clip-path="url(#p73fb167b01)" style="fill: none; stroke-dasharray: 3.7,1.6; stroke-dashoffset: 0; stroke: #90ee90"/>
   </g>
   <g id="line2d_12">
    <path d="M 60.24778 113.688898 
L 62.064683 118.341276 
L 69.502633 135.594109 
L 71.83054 141.197897 
L 74.10167 145.841867 
L 75.464348 148.166802 
L 76.3728 149.3177 
L 77.054138 149.853303 
L 77.621921 150.028474 
L 78.132925 149.957096 
L 78.700707 149.631361 
L 79.382046 148.944027 
L 80.063385 147.938011 
L 81.085393 145.956481 
L 83.072632 141.996474 
L 85.05987 137.686869 
L 88.125895 130.453362 
L 94.314723 115.698243 
L 99.424764 103.982558 
L 105.840705 88.330506 
L 109.758404 77.96666 
L 138.735462 -1 
L 138.735462 -1 
" clip-path="url(#p73fb167b01)" style="fill: none; stroke: #ff0000; stroke-width: 1.7; stroke-linecap: square"/>
   </g>
   <g id="line2d_13">
    <path d="M 60.24778 156.125266 
L 210.880446 156.125266 
L 210.880446 156.125266 
" clip-path="url(#p73fb167b01)" style="fill: none; stroke-dasharray: 3.7,1.6; stroke-dashoffset: 0; stroke: #fa8072"/>
   </g>
   <g id="line2d_14">
    <path d="M 60.24778 142.556207 
L 210.880446 142.556207 
L 210.880446 142.556207 
" clip-path="url(#p73fb167b01)" style="fill: none; stroke-dasharray: 3.7,1.6; stroke-dashoffset: 0; stroke: #000000"/>
   </g>
   <g id="patch_3">
    <path d="M 59.099375 163.62706 
L 59.099375 8.870058 
" style="fill: none; stroke: #000000; stroke-width: 0.8; stroke-linejoin: miter; stroke-linecap: square"/>
   </g>
   <g id="patch_4">
    <path d="M 210.841875 163.62706 
L 210.841875 8.870058 
" style="fill: none; stroke: #000000; stroke-width: 0.8; stroke-linejoin: miter; stroke-linecap: square"/>
   </g>
   <g id="patch_5">
    <path d="M 59.099375 163.62706 
L 210.841875 163.62706 
" style="fill: none; stroke: #000000; stroke-width: 0.8; stroke-linejoin: miter; stroke-linecap: square"/>
   </g>
   <g id="patch_6">
    <path d="M 59.099375 8.870058 
L 210.841875 8.870058 
" style="fill: none; stroke: #000000; stroke-width: 0.8; stroke-linejoin: miter; stroke-linecap: square"/>
   </g>
   <g id="text_10">
    <!-- 1 NM -->
    <g transform="translate(157.540133 140.658169) scale(0.1 -0.1)">
     <defs>
      <path id="TimesNewRomanPSMT-4e" d="M -84 4238 
L 1066 4238 
L 3656 1059 
L 3656 3503 
Q 3656 3894 3569 3991 
Q 3453 4122 3203 4122 
L 3056 4122 
L 3056 4238 
L 4531 4238 
L 4531 4122 
L 4381 4122 
Q 4113 4122 4000 3959 
Q 3931 3859 3931 3503 
L 3931 -69 
L 3819 -69 
L 1025 3344 
L 1025 734 
Q 1025 344 1109 247 
Q 1228 116 1475 116 
L 1625 116 
L 1625 0 
L 150 0 
L 150 116 
L 297 116 
Q 569 116 681 278 
Q 750 378 750 734 
L 750 3681 
Q 566 3897 470 3965 
Q 375 4034 191 4094 
Q 100 4122 -84 4122 
L -84 4238 
z
" transform="scale(0.015625)"/>
      <path id="TimesNewRomanPSMT-4d" d="M 2619 0 
L 981 3566 
L 981 734 
Q 981 344 1066 247 
Q 1181 116 1431 116 
L 1581 116 
L 1581 0 
L 106 0 
L 106 116 
L 256 116 
Q 525 116 638 278 
Q 706 378 706 734 
L 706 3503 
Q 706 3784 644 3909 
Q 600 4000 483 4061 
Q 366 4122 106 4122 
L 106 4238 
L 1306 4238 
L 2844 922 
L 4356 4238 
L 5556 4238 
L 5556 4122 
L 5409 4122 
Q 5138 4122 5025 3959 
Q 4956 3859 4956 3503 
L 4956 734 
Q 4956 344 5044 247 
Q 5159 116 5409 116 
L 5556 116 
L 5556 0 
L 3756 0 
L 3756 116 
L 3906 116 
Q 4178 116 4288 278 
Q 4356 378 4356 734 
L 4356 3566 
L 2722 0 
L 2619 0 
z
" transform="scale(0.015625)"/>
     </defs>
     <use xlink:href="#TimesNewRomanPSMT-31"/>
     <use xlink:href="#TimesNewRomanPSMT-20" x="50"/>
     <use xlink:href="#TimesNewRomanPSMT-4e" x="75"/>
     <use xlink:href="#TimesNewRomanPSMT-4d" x="147.216797"/>
    </g>
   </g>
   <g id="legend_1">
    <g id="patch_7">
     <path d="M 67.499375 52.550058 
L 156.659375 52.550058 
Q 159.059375 52.550058 159.059375 50.150058 
L 159.059375 17.270058 
Q 159.059375 14.870058 156.659375 14.870058 
L 67.499375 14.870058 
Q 65.099375 14.870058 65.099375 17.270058 
L 65.099375 50.150058 
Q 65.099375 52.550058 67.499375 52.550058 
z
" style="fill: #ffffff; opacity: 0.8; stroke: #cccccc; stroke-linejoin: miter"/>
    </g>
    <g id="line2d_15">
     <path d="M 69.899375 23.943183 
L 81.899375 23.943183 
L 93.899375 23.943183 
" style="fill: none; stroke: #008000; stroke-width: 1.7; stroke-linecap: square"/>
    </g>
    <g id="text_11">
     <!-- $TS_2$$\rightarrow$OS -->
     <g transform="translate(103.499375 28.143183) scale(0.12 -0.12)">
      <defs>
       <path id="DejaVuSans-Oblique-54" d="M 378 4666 
L 4325 4666 
L 4225 4134 
L 2559 4134 
L 1759 0 
L 1125 0 
L 1925 4134 
L 275 4134 
L 378 4666 
z
" transform="scale(0.015625)"/>
       <path id="DejaVuSans-Oblique-53" d="M 3859 4513 
L 3738 3897 
Q 3422 4066 3111 4152 
Q 2800 4238 2509 4238 
Q 1944 4238 1609 3991 
Q 1275 3744 1275 3334 
Q 1275 3109 1398 2989 
Q 1522 2869 2034 2731 
L 2413 2638 
Q 3053 2472 3303 2217 
Q 3553 1963 3553 1503 
Q 3553 797 2998 353 
Q 2444 -91 1538 -91 
Q 1166 -91 791 -17 
Q 416 56 38 206 
L 166 856 
Q 513 641 861 531 
Q 1209 422 1556 422 
Q 2147 422 2503 684 
Q 2859 947 2859 1369 
Q 2859 1650 2717 1795 
Q 2575 1941 2106 2059 
L 1728 2156 
Q 1081 2325 845 2545 
Q 609 2766 609 3163 
Q 609 3859 1145 4304 
Q 1681 4750 2541 4750 
Q 2875 4750 3203 4690 
Q 3531 4631 3859 4513 
z
" transform="scale(0.015625)"/>
       <path id="DejaVuSans-32" d="M 1228 531 
L 3431 531 
L 3431 0 
L 469 0 
L 469 531 
Q 828 903 1448 1529 
Q 2069 2156 2228 2338 
Q 2531 2678 2651 2914 
Q 2772 3150 2772 3378 
Q 2772 3750 2511 3984 
Q 2250 4219 1831 4219 
Q 1534 4219 1204 4116 
Q 875 4013 500 3803 
L 500 4441 
Q 881 4594 1212 4672 
Q 1544 4750 1819 4750 
Q 2544 4750 2975 4387 
Q 3406 4025 3406 3419 
Q 3406 3131 3298 2873 
Q 3191 2616 2906 2266 
Q 2828 2175 2409 1742 
Q 1991 1309 1228 531 
z
" transform="scale(0.015625)"/>
       <path id="DejaVuSans-2192" d="M 5050 2147 
L 5050 1866 
L 3822 638 
L 3447 1013 
L 4175 1741 
L 366 1741 
L 366 2272 
L 4175 2272 
L 3447 3000 
L 3822 3375 
L 5050 2147 
z
" transform="scale(0.015625)"/>
       <path id="TimesNewRomanPSMT-4f" d="M 2341 4334 
Q 3166 4334 3770 3707 
Q 4375 3081 4375 2144 
Q 4375 1178 3765 540 
Q 3156 -97 2291 -97 
Q 1416 -97 820 525 
Q 225 1147 225 2134 
Q 225 3144 913 3781 
Q 1509 4334 2341 4334 
z
M 2281 4106 
Q 1713 4106 1369 3684 
Q 941 3159 941 2147 
Q 941 1109 1384 550 
Q 1725 125 2284 125 
Q 2881 125 3270 590 
Q 3659 1056 3659 2059 
Q 3659 3147 3231 3681 
Q 2888 4106 2281 4106 
z
" transform="scale(0.015625)"/>
       <path id="TimesNewRomanPSMT-53" d="M 2934 4334 
L 2934 2869 
L 2819 2869 
Q 2763 3291 2617 3541 
Q 2472 3791 2203 3937 
Q 1934 4084 1647 4084 
Q 1322 4084 1109 3886 
Q 897 3688 897 3434 
Q 897 3241 1031 3081 
Q 1225 2847 1953 2456 
Q 2547 2138 2764 1967 
Q 2981 1797 3098 1565 
Q 3216 1334 3216 1081 
Q 3216 600 2842 251 
Q 2469 -97 1881 -97 
Q 1697 -97 1534 -69 
Q 1438 -53 1133 45 
Q 828 144 747 144 
Q 669 144 623 97 
Q 578 50 556 -97 
L 441 -97 
L 441 1356 
L 556 1356 
Q 638 900 775 673 
Q 913 447 1195 297 
Q 1478 147 1816 147 
Q 2206 147 2432 353 
Q 2659 559 2659 841 
Q 2659 997 2573 1156 
Q 2488 1316 2306 1453 
Q 2184 1547 1640 1851 
Q 1097 2156 867 2337 
Q 638 2519 519 2737 
Q 400 2956 400 3219 
Q 400 3675 750 4004 
Q 1100 4334 1641 4334 
Q 1978 4334 2356 4169 
Q 2531 4091 2603 4091 
Q 2684 4091 2736 4139 
Q 2788 4188 2819 4334 
L 2934 4334 
z
" transform="scale(0.015625)"/>
      </defs>
      <use xlink:href="#DejaVuSans-Oblique-54" transform="translate(0 0.78125)"/>
      <use xlink:href="#DejaVuSans-Oblique-53" transform="translate(61.083984 0.78125)"/>
      <use xlink:href="#DejaVuSans-32" transform="translate(124.560547 -15.625) scale(0.7)"/>
      <use xlink:href="#DejaVuSans-2192" transform="translate(191.313477 0.78125)"/>
      <use xlink:href="#TimesNewRomanPSMT-4f" transform="translate(294.584961 0.78125)"/>
      <use xlink:href="#TimesNewRomanPSMT-53" transform="translate(366.801758 0.78125)"/>
     </g>
    </g>
    <g id="line2d_16">
     <path d="M 69.899375 40.983183 
L 81.899375 40.983183 
L 93.899375 40.983183 
" style="fill: none; stroke: #ff0000; stroke-width: 1.7; stroke-linecap: square"/>
    </g>
    <g id="text_12">
     <!-- OS$\rightarrow$$TS_1$ -->
     <g transform="translate(103.499375 45.183183) scale(0.12 -0.12)">
      <defs>
       <path id="DejaVuSans-31" d="M 794 531 
L 1825 531 
L 1825 4091 
L 703 3866 
L 703 4441 
L 1819 4666 
L 2450 4666 
L 2450 531 
L 3481 531 
L 3481 0 
L 794 0 
L 794 531 
z
" transform="scale(0.015625)"/>
      </defs>
      <use xlink:href="#TimesNewRomanPSMT-4f" transform="translate(0 0.78125)"/>
      <use xlink:href="#TimesNewRomanPSMT-53" transform="translate(72.216797 0.78125)"/>
      <use xlink:href="#DejaVuSans-2192" transform="translate(147.314453 0.78125)"/>
      <use xlink:href="#DejaVuSans-Oblique-54" transform="translate(250.585938 0.78125)"/>
      <use xlink:href="#DejaVuSans-Oblique-53" transform="translate(311.669922 0.78125)"/>
      <use xlink:href="#DejaVuSans-31" transform="translate(375.146484 -15.625) scale(0.7)"/>
     </g>
    </g>
   </g>
  </g>
  <g id="axes_2">
   <g id="patch_8">
    <path d="M 270.351875 163.62706 
L 422.094375 163.62706 
L 422.094375 8.870058 
L 270.351875 8.870058 
z
" style="fill: #ffffff"/>
   </g>
   <g id="matplotlib.axis_3">
    <g id="xtick_4">
     <g id="line2d_17">
      <g>
       <use xlink:href="#m9f6c1ba7dd" x="311.402618" y="163.62706" style="stroke: #000000; stroke-width: 0.8"/>
      </g>
     </g>
     <g id="text_13">
      <!-- 500 -->
      <g transform="translate(302.402618 178.95956) scale(0.12 -0.12)">
       <use xlink:href="#TimesNewRomanPSMT-35"/>
       <use xlink:href="#TimesNewRomanPSMT-30" x="50"/>
       <use xlink:href="#TimesNewRomanPSMT-30" x="100"/>
      </g>
     </g>
    </g>
    <g id="xtick_5">
     <g id="line2d_18">
      <g>
       <use xlink:href="#m9f6c1ba7dd" x="353.65153" y="163.62706" style="stroke: #000000; stroke-width: 0.8"/>
      </g>
     </g>
     <g id="text_14">
      <!-- 1000 -->
      <g transform="translate(341.65153 178.95956) scale(0.12 -0.12)">
       <use xlink:href="#TimesNewRomanPSMT-31"/>
       <use xlink:href="#TimesNewRomanPSMT-30" x="50"/>
       <use xlink:href="#TimesNewRomanPSMT-30" x="100"/>
       <use xlink:href="#TimesNewRomanPSMT-30" x="150"/>
      </g>
     </g>
    </g>
    <g id="xtick_6">
     <g id="line2d_19">
      <g>
       <use xlink:href="#m9f6c1ba7dd" x="395.900443" y="163.62706" style="stroke: #000000; stroke-width: 0.8"/>
      </g>
     </g>
     <g id="text_15">
      <!-- 1500 -->
      <g transform="translate(383.900443 178.95956) scale(0.12 -0.12)">
       <use xlink:href="#TimesNewRomanPSMT-31"/>
       <use xlink:href="#TimesNewRomanPSMT-35" x="50"/>
       <use xlink:href="#TimesNewRomanPSMT-30" x="100"/>
       <use xlink:href="#TimesNewRomanPSMT-30" x="150"/>
      </g>
     </g>
    </g>
    <g id="text_16">
     <!-- Time (s) -->
     <g transform="translate(325.940312 193.858935) scale(0.12 -0.12)">
      <use xlink:href="#TimesNewRomanPSMT-54"/>
      <use xlink:href="#TimesNewRomanPSMT-69" x="57.583984"/>
      <use xlink:href="#TimesNewRomanPSMT-6d" x="85.367188"/>
      <use xlink:href="#TimesNewRomanPSMT-65" x="163.150391"/>
      <use xlink:href="#TimesNewRomanPSMT-20" x="207.535156"/>
      <use xlink:href="#TimesNewRomanPSMT-28" x="232.535156"/>
      <use xlink:href="#TimesNewRomanPSMT-73" x="265.835938"/>
      <use xlink:href="#TimesNewRomanPSMT-29" x="304.751953"/>
     </g>
    </g>
   </g>
   <g id="matplotlib.axis_4">
    <g id="ytick_5">
     <g id="line2d_20">
      <g>
       <use xlink:href="#mcf4da1bd58" x="270.351875" y="156.472241" style="stroke: #000000; stroke-width: 0.8"/>
      </g>
     </g>
     <g id="text_17">
      <!-- 0 -->
      <g transform="translate(257.351875 160.638491) scale(0.12 -0.12)">
       <use xlink:href="#TimesNewRomanPSMT-30"/>
      </g>
     </g>
    </g>
    <g id="ytick_6">
     <g id="line2d_21">
      <g>
       <use xlink:href="#mcf4da1bd58" x="270.351875" y="126.262613" style="stroke: #000000; stroke-width: 0.8"/>
      </g>
     </g>
     <g id="text_18">
      <!-- 500 -->
      <g transform="translate(245.351875 130.428863) scale(0.12 -0.12)">
       <use xlink:href="#TimesNewRomanPSMT-35"/>
       <use xlink:href="#TimesNewRomanPSMT-30" x="50"/>
       <use xlink:href="#TimesNewRomanPSMT-30" x="100"/>
      </g>
     </g>
    </g>
    <g id="ytick_7">
     <g id="line2d_22">
      <g>
       <use xlink:href="#mcf4da1bd58" x="270.351875" y="96.052984" style="stroke: #000000; stroke-width: 0.8"/>
      </g>
     </g>
     <g id="text_19">
      <!-- 1000 -->
      <g transform="translate(239.351875 100.219234) scale(0.12 -0.12)">
       <use xlink:href="#TimesNewRomanPSMT-31"/>
       <use xlink:href="#TimesNewRomanPSMT-30" x="50"/>
       <use xlink:href="#TimesNewRomanPSMT-30" x="100"/>
       <use xlink:href="#TimesNewRomanPSMT-30" x="150"/>
      </g>
     </g>
    </g>
    <g id="ytick_8">
     <g id="line2d_23">
      <g>
       <use xlink:href="#mcf4da1bd58" x="270.351875" y="65.843355" style="stroke: #000000; stroke-width: 0.8"/>
      </g>
     </g>
     <g id="text_20">
      <!-- 1500 -->
      <g transform="translate(239.351875 70.009605) scale(0.12 -0.12)">
       <use xlink:href="#TimesNewRomanPSMT-31"/>
       <use xlink:href="#TimesNewRomanPSMT-35" x="50"/>
       <use xlink:href="#TimesNewRomanPSMT-30" x="100"/>
       <use xlink:href="#TimesNewRomanPSMT-30" x="150"/>
      </g>
     </g>
    </g>
    <g id="ytick_9">
     <g id="line2d_24">
      <g>
       <use xlink:href="#mcf4da1bd58" x="270.351875" y="35.633726" style="stroke: #000000; stroke-width: 0.8"/>
      </g>
     </g>
     <g id="text_21">
      <!-- 2000 -->
      <g transform="translate(239.351875 39.799976) scale(0.12 -0.12)">
       <use xlink:href="#TimesNewRomanPSMT-32"/>
       <use xlink:href="#TimesNewRomanPSMT-30" x="50"/>
       <use xlink:href="#TimesNewRomanPSMT-30" x="100"/>
       <use xlink:href="#TimesNewRomanPSMT-30" x="150"/>
      </g>
     </g>
    </g>
    <g id="text_22">
     <!-- DCPA (m) -->
     <g transform="translate(232.785 111.538559) rotate(-90) scale(0.12 -0.12)">
      <defs>
       <path id="TimesNewRomanPSMT-43" d="M 3853 4334 
L 3950 2894 
L 3853 2894 
Q 3659 3541 3300 3825 
Q 2941 4109 2438 4109 
Q 2016 4109 1675 3895 
Q 1334 3681 1139 3212 
Q 944 2744 944 2047 
Q 944 1472 1128 1050 
Q 1313 628 1683 403 
Q 2053 178 2528 178 
Q 2941 178 3256 354 
Q 3572 531 3950 1056 
L 4047 994 
Q 3728 428 3303 165 
Q 2878 -97 2294 -97 
Q 1241 -97 663 684 
Q 231 1266 231 2053 
Q 231 2688 515 3219 
Q 800 3750 1298 4042 
Q 1797 4334 2388 4334 
Q 2847 4334 3294 4109 
Q 3425 4041 3481 4041 
Q 3566 4041 3628 4100 
Q 3709 4184 3744 4334 
L 3853 4334 
z
" transform="scale(0.015625)"/>
       <path id="TimesNewRomanPSMT-50" d="M 1313 1984 
L 1313 750 
Q 1313 350 1400 253 
Q 1519 116 1759 116 
L 1922 116 
L 1922 0 
L 106 0 
L 106 116 
L 266 116 
Q 534 116 650 291 
Q 713 388 713 750 
L 713 3488 
Q 713 3888 628 3984 
Q 506 4122 266 4122 
L 106 4122 
L 106 4238 
L 1659 4238 
Q 2228 4238 2556 4120 
Q 2884 4003 3109 3725 
Q 3334 3447 3334 3066 
Q 3334 2547 2992 2222 
Q 2650 1897 2025 1897 
Q 1872 1897 1694 1919 
Q 1516 1941 1313 1984 
z
M 1313 2163 
Q 1478 2131 1606 2115 
Q 1734 2100 1825 2100 
Q 2150 2100 2386 2351 
Q 2622 2603 2622 3003 
Q 2622 3278 2509 3514 
Q 2397 3750 2190 3867 
Q 1984 3984 1722 3984 
Q 1563 3984 1313 3925 
L 1313 2163 
z
" transform="scale(0.015625)"/>
       <path id="TimesNewRomanPSMT-41" d="M 2928 1419 
L 1288 1419 
L 1000 750 
Q 894 503 894 381 
Q 894 284 986 211 
Q 1078 138 1384 116 
L 1384 0 
L 50 0 
L 50 116 
Q 316 163 394 238 
Q 553 388 747 847 
L 2238 4334 
L 2347 4334 
L 3822 809 
Q 4000 384 4145 257 
Q 4291 131 4550 116 
L 4550 0 
L 2878 0 
L 2878 116 
Q 3131 128 3220 200 
Q 3309 272 3309 375 
Q 3309 513 3184 809 
L 2928 1419 
z
M 2841 1650 
L 2122 3363 
L 1384 1650 
L 2841 1650 
z
" transform="scale(0.015625)"/>
      </defs>
      <use xlink:href="#TimesNewRomanPSMT-44"/>
      <use xlink:href="#TimesNewRomanPSMT-43" x="72.216797"/>
      <use xlink:href="#TimesNewRomanPSMT-50" x="138.916016"/>
      <use xlink:href="#TimesNewRomanPSMT-41" x="185.40625"/>
      <use xlink:href="#TimesNewRomanPSMT-20" x="252.123047"/>
      <use xlink:href="#TimesNewRomanPSMT-28" x="277.123047"/>
      <use xlink:href="#TimesNewRomanPSMT-6d" x="310.423828"/>
      <use xlink:href="#TimesNewRomanPSMT-29" x="388.207031"/>
     </g>
    </g>
   </g>
   <g id="line2d_25">
    <path d="M 270.336675 154.750343 
L 356.101967 154.706266 
L 356.270963 154.20173 
L 356.77795 151.425814 
L 359.397382 134.798165 
L 380.502175 -1 
L 380.502175 -1 
" clip-path="url(#p9b1f0f023a)" style="fill: none; stroke: #90ee90; stroke-width: 1.3; stroke-linecap: square"/>
   </g>
   <g id="line2d_26">
    <path d="M 270.336675 156.437981 
L 292.728598 156.437981 
L 293.489079 145.724228 
L 303.751765 -1 
L 303.751765 -1 
" clip-path="url(#p9b1f0f023a)" style="fill: none; stroke: #fa8072; stroke-width: 1.3; stroke-linecap: square"/>
   </g>
   <g id="line2d_27">
    <path d="M 270.336675 154.750343 
L 270.759164 154.750343 
L 270.807424 -1 
M 301.043391 -1 
L 301.178381 102.997506 
L 303.628818 103.368883 
L 303.797813 66.351398 
L 308.783185 66.065481 
L 308.867683 76.195278 
L 308.952181 76.194295 
L 311.571613 76.163827 
L 311.629985 -1 
M 319.983816 -1 
L 320.021396 47.759827 
L 320.067182 -1 
M 338.035827 -1 
L 338.10393 86.078554 
L 338.272926 4.216871 
L 340.807861 3.257839 
L 340.816098 -1 
L 340.816098 -1 
" clip-path="url(#p9b1f0f023a)" style="fill: none; stroke: #008000; stroke-width: 1.7; stroke-linecap: square"/>
   </g>
   <g id="line2d_28">
    <path d="M 270.336675 145.611694 
L 422.094768 145.611694 
L 422.094768 145.611694 
" clip-path="url(#p9b1f0f023a)" style="fill: none; stroke-dasharray: 3.7,1.6; stroke-dashoffset: 0; stroke: #90ee90"/>
   </g>
   <g id="line2d_29">
    <path d="M 270.336675 156.437981 
L 270.759164 156.437981 
L 270.843662 99.80489 
L 270.928159 99.840572 
L 280.898903 104.05102 
L 281.067898 96.884318 
L 285.29279 96.901426 
L 285.461785 98.828532 
L 295.263533 102.891373 
L 295.517026 102.705046 
L 295.855018 102.165054 
L 296.277507 101.036237 
L 296.868992 98.665207 
L 297.544974 94.955343 
L 298.305455 89.519923 
L 299.319429 80.09029 
L 300.755892 64.387568 
L 301.60087 55.683502 
L 303.290826 38.392345 
L 305.572268 12.571931 
L 306.711594 -1 
L 306.711594 -1 
" clip-path="url(#p9b1f0f023a)" style="fill: none; stroke: #ff0000; stroke-width: 1.7; stroke-linecap: square"/>
   </g>
   <g id="line2d_30">
    <path d="M 270.336675 150.466162 
L 422.094768 150.466162 
L 422.094768 150.466162 
" clip-path="url(#p9b1f0f023a)" style="fill: none; stroke-dasharray: 3.7,1.6; stroke-dashoffset: 0; stroke: #fa8072"/>
   </g>
   <g id="line2d_31">
    <path d="M 270.336675 44.575716 
L 422.094768 44.575716 
L 422.094768 44.575716 
" clip-path="url(#p9b1f0f023a)" style="fill: none; stroke-dasharray: 3.7,1.6; stroke-dashoffset: 0; stroke: #000000"/>
   </g>
   <g id="patch_9">
    <path d="M 270.351875 163.62706 
L 270.351875 8.870058 
" style="fill: none; stroke: #000000; stroke-width: 0.8; stroke-linejoin: miter; stroke-linecap: square"/>
   </g>
   <g id="patch_10">
    <path d="M 422.094375 163.62706 
L 422.094375 8.870058 
" style="fill: none; stroke: #000000; stroke-width: 0.8; stroke-linejoin: miter; stroke-linecap: square"/>
   </g>
   <g id="patch_11">
    <path d="M 270.351875 163.62706 
L 422.094375 163.62706 
" style="fill: none; stroke: #000000; stroke-width: 0.8; stroke-linejoin: miter; stroke-linecap: square"/>
   </g>
   <g id="patch_12">
    <path d="M 270.351875 8.870058 
L 422.094375 8.870058 
" style="fill: none; stroke: #000000; stroke-width: 0.8; stroke-linejoin: miter; stroke-linecap: square"/>
   </g>
   <g id="text_23">
    <!-- 1 NM -->
    <g transform="translate(419.709245 43.285293) scale(0.1 -0.1)">
     <use xlink:href="#TimesNewRomanPSMT-31"/>
     <use xlink:href="#TimesNewRomanPSMT-20" x="50"/>
     <use xlink:href="#TimesNewRomanPSMT-4e" x="75"/>
     <use xlink:href="#TimesNewRomanPSMT-4d" x="147.216797"/>
    </g>
   </g>
   <g id="legend_2">
    <g id="patch_13">
     <path d="M 324.534375 105.088559 
L 413.694375 105.088559 
Q 416.094375 105.088559 416.094375 102.688559 
L 416.094375 69.808559 
Q 416.094375 67.408559 413.694375 67.408559 
L 324.534375 67.408559 
Q 322.134375 67.408559 322.134375 69.808559 
L 322.134375 102.688559 
Q 322.134375 105.088559 324.534375 105.088559 
z
" style="fill: #ffffff; opacity: 0.8; stroke: #cccccc; stroke-linejoin: miter"/>
    </g>
    <g id="line2d_32">
     <path d="M 326.934375 76.481684 
L 338.934375 76.481684 
L 350.934375 76.481684 
" style="fill: none; stroke: #008000; stroke-width: 1.7; stroke-linecap: square"/>
    </g>
    <g id="text_24">
     <!-- $TS_2$$\rightarrow$OS -->
     <g transform="translate(360.534375 80.681684) scale(0.12 -0.12)">
      <use xlink:href="#DejaVuSans-Oblique-54" transform="translate(0 0.78125)"/>
      <use xlink:href="#DejaVuSans-Oblique-53" transform="translate(61.083984 0.78125)"/>
      <use xlink:href="#DejaVuSans-32" transform="translate(124.560547 -15.625) scale(0.7)"/>
      <use xlink:href="#DejaVuSans-2192" transform="translate(191.313477 0.78125)"/>
      <use xlink:href="#TimesNewRomanPSMT-4f" transform="translate(294.584961 0.78125)"/>
      <use xlink:href="#TimesNewRomanPSMT-53" transform="translate(366.801758 0.78125)"/>
     </g>
    </g>
    <g id="line2d_33">
     <path d="M 326.934375 93.521684 
L 338.934375 93.521684 
L 350.934375 93.521684 
" style="fill: none; stroke: #ff0000; stroke-width: 1.7; stroke-linecap: square"/>
    </g>
    <g id="text_25">
     <!-- OS$\rightarrow$$TS_1$ -->
     <g transform="translate(360.534375 97.721684) scale(0.12 -0.12)">
      <use xlink:href="#TimesNewRomanPSMT-4f" transform="translate(0 0.78125)"/>
      <use xlink:href="#TimesNewRomanPSMT-53" transform="translate(72.216797 0.78125)"/>
      <use xlink:href="#DejaVuSans-2192" transform="translate(147.314453 0.78125)"/>
      <use xlink:href="#DejaVuSans-Oblique-54" transform="translate(250.585938 0.78125)"/>
      <use xlink:href="#DejaVuSans-Oblique-53" transform="translate(311.669922 0.78125)"/>
      <use xlink:href="#DejaVuSans-31" transform="translate(375.146484 -15.625) scale(0.7)"/>
     </g>
    </g>
   </g>
  </g>
  <g id="axes_3">
   <g id="patch_14">
    <path d="M 481.604375 163.62706 
L 633.346875 163.62706 
L 633.346875 8.870058 
L 481.604375 8.870058 
z
" style="fill: #ffffff"/>
   </g>
   <g id="matplotlib.axis_5">
    <g id="xtick_7">
     <g id="line2d_34">
      <g>
       <use xlink:href="#m9f6c1ba7dd" x="481.604375" y="163.62706" style="stroke: #000000; stroke-width: 0.8"/>
      </g>
     </g>
     <g id="text_26">
      <!-- 0 -->
      <g transform="translate(478.604375 178.95956) scale(0.12 -0.12)">
       <use xlink:href="#TimesNewRomanPSMT-30"/>
      </g>
     </g>
    </g>
    <g id="xtick_8">
     <g id="line2d_35">
      <g>
       <use xlink:href="#m9f6c1ba7dd" x="523.992897" y="163.62706" style="stroke: #000000; stroke-width: 0.8"/>
      </g>
     </g>
     <g id="text_27">
      <!-- 500 -->
      <g transform="translate(514.992897 178.95956) scale(0.12 -0.12)">
       <use xlink:href="#TimesNewRomanPSMT-35"/>
       <use xlink:href="#TimesNewRomanPSMT-30" x="50"/>
       <use xlink:href="#TimesNewRomanPSMT-30" x="100"/>
      </g>
     </g>
    </g>
    <g id="xtick_9">
     <g id="line2d_36">
      <g>
       <use xlink:href="#m9f6c1ba7dd" x="566.381419" y="163.62706" style="stroke: #000000; stroke-width: 0.8"/>
      </g>
     </g>
     <g id="text_28">
      <!-- 1000 -->
      <g transform="translate(554.381419 178.95956) scale(0.12 -0.12)">
       <use xlink:href="#TimesNewRomanPSMT-31"/>
       <use xlink:href="#TimesNewRomanPSMT-30" x="50"/>
       <use xlink:href="#TimesNewRomanPSMT-30" x="100"/>
       <use xlink:href="#TimesNewRomanPSMT-30" x="150"/>
      </g>
     </g>
    </g>
    <g id="xtick_10">
     <g id="line2d_37">
      <g>
       <use xlink:href="#m9f6c1ba7dd" x="608.769941" y="163.62706" style="stroke: #000000; stroke-width: 0.8"/>
      </g>
     </g>
     <g id="text_29">
      <!-- 1500 -->
      <g transform="translate(596.769941 178.95956) scale(0.12 -0.12)">
       <use xlink:href="#TimesNewRomanPSMT-31"/>
       <use xlink:href="#TimesNewRomanPSMT-35" x="50"/>
       <use xlink:href="#TimesNewRomanPSMT-30" x="100"/>
       <use xlink:href="#TimesNewRomanPSMT-30" x="150"/>
      </g>
     </g>
    </g>
    <g id="text_30">
     <!-- Time (s) -->
     <g transform="translate(537.192812 193.858935) scale(0.12 -0.12)">
      <use xlink:href="#TimesNewRomanPSMT-54"/>
      <use xlink:href="#TimesNewRomanPSMT-69" x="57.583984"/>
      <use xlink:href="#TimesNewRomanPSMT-6d" x="85.367188"/>
      <use xlink:href="#TimesNewRomanPSMT-65" x="163.150391"/>
      <use xlink:href="#TimesNewRomanPSMT-20" x="207.535156"/>
      <use xlink:href="#TimesNewRomanPSMT-28" x="232.535156"/>
      <use xlink:href="#TimesNewRomanPSMT-73" x="265.835938"/>
      <use xlink:href="#TimesNewRomanPSMT-29" x="304.751953"/>
     </g>
    </g>
   </g>
   <g id="matplotlib.axis_6">
    <g id="ytick_10">
     <g id="line2d_38">
      <g>
       <use xlink:href="#mcf4da1bd58" x="481.604375" y="152.204984" style="stroke: #000000; stroke-width: 0.8"/>
      </g>
     </g>
     <g id="text_31">
      <!-- 0 -->
      <g transform="translate(468.604375 156.371234) scale(0.12 -0.12)">
       <use xlink:href="#TimesNewRomanPSMT-30"/>
      </g>
     </g>
    </g>
    <g id="ytick_11">
     <g id="line2d_39">
      <g>
       <use xlink:href="#mcf4da1bd58" x="481.604375" y="120.524754" style="stroke: #000000; stroke-width: 0.8"/>
      </g>
     </g>
     <g id="text_32">
      <!-- 250 -->
      <g transform="translate(456.604375 124.691004) scale(0.12 -0.12)">
       <use xlink:href="#TimesNewRomanPSMT-32"/>
       <use xlink:href="#TimesNewRomanPSMT-35" x="50"/>
       <use xlink:href="#TimesNewRomanPSMT-30" x="100"/>
      </g>
     </g>
    </g>
    <g id="ytick_12">
     <g id="line2d_40">
      <g>
       <use xlink:href="#mcf4da1bd58" x="481.604375" y="88.844525" style="stroke: #000000; stroke-width: 0.8"/>
      </g>
     </g>
     <g id="text_33">
      <!-- 500 -->
      <g transform="translate(456.604375 93.010775) scale(0.12 -0.12)">
       <use xlink:href="#TimesNewRomanPSMT-35"/>
       <use xlink:href="#TimesNewRomanPSMT-30" x="50"/>
       <use xlink:href="#TimesNewRomanPSMT-30" x="100"/>
      </g>
     </g>
    </g>
    <g id="ytick_13">
     <g id="line2d_41">
      <g>
       <use xlink:href="#mcf4da1bd58" x="481.604375" y="57.164296" style="stroke: #000000; stroke-width: 0.8"/>
      </g>
     </g>
     <g id="text_34">
      <!-- 750 -->
      <g transform="translate(456.604375 61.330546) scale(0.12 -0.12)">
       <defs>
        <path id="TimesNewRomanPSMT-37" d="M 644 4238 
L 2916 4238 
L 2916 4119 
L 1503 -88 
L 1153 -88 
L 2419 3728 
L 1253 3728 
Q 900 3728 750 3644 
Q 488 3500 328 3200 
L 238 3234 
L 644 4238 
z
" transform="scale(0.015625)"/>
       </defs>
       <use xlink:href="#TimesNewRomanPSMT-37"/>
       <use xlink:href="#TimesNewRomanPSMT-35" x="50"/>
       <use xlink:href="#TimesNewRomanPSMT-30" x="100"/>
      </g>
     </g>
    </g>
    <g id="ytick_14">
     <g id="line2d_42">
      <g>
       <use xlink:href="#mcf4da1bd58" x="481.604375" y="25.484066" style="stroke: #000000; stroke-width: 0.8"/>
      </g>
     </g>
     <g id="text_35">
      <!-- 1000 -->
      <g transform="translate(450.604375 29.650316) scale(0.12 -0.12)">
       <use xlink:href="#TimesNewRomanPSMT-31"/>
       <use xlink:href="#TimesNewRomanPSMT-30" x="50"/>
       <use xlink:href="#TimesNewRomanPSMT-30" x="100"/>
       <use xlink:href="#TimesNewRomanPSMT-30" x="150"/>
      </g>
     </g>
    </g>
    <g id="text_36">
     <!-- TCPA (s) -->
     <g transform="translate(444.0375 108.538559) rotate(-90) scale(0.12 -0.12)">
      <use xlink:href="#TimesNewRomanPSMT-54"/>
      <use xlink:href="#TimesNewRomanPSMT-43" x="61.083984"/>
      <use xlink:href="#TimesNewRomanPSMT-50" x="127.783203"/>
      <use xlink:href="#TimesNewRomanPSMT-41" x="174.273438"/>
      <use xlink:href="#TimesNewRomanPSMT-20" x="240.990234"/>
      <use xlink:href="#TimesNewRomanPSMT-28" x="265.990234"/>
      <use xlink:href="#TimesNewRomanPSMT-73" x="299.291016"/>
      <use xlink:href="#TimesNewRomanPSMT-29" x="338.207031"/>
     </g>
    </g>
   </g>
   <g id="line2d_43">
    <path d="M 481.604375 21.900506 
L 603.848685 204.62581 
L 603.848685 204.62581 
" clip-path="url(#pd60388da4e)" style="fill: none; stroke: #90ee90; stroke-width: 1.3; stroke-linecap: square"/>
   </g>
   <g id="line2d_44">
    <path d="M 481.604375 116.836785 
L 540.335752 204.62581 
L 540.335752 204.62581 
" clip-path="url(#pd60388da4e)" style="fill: none; stroke: #fa8072; stroke-width: 1.3; stroke-linecap: square"/>
   </g>
   <g id="line2d_45">
    <path d="M 481.604375 21.900506 
L 483.215139 24.308203 
L 483.384693 35.999179 
L 488.301761 40.293666 
L 488.471316 51.918238 
L 493.388384 56.126602 
L 493.557938 61.089151 
L 497.79679 66.956868 
L 497.881567 52.109817 
L 498.051121 65.153936 
L 498.475007 65.567689 
L 498.559784 59.867925 
L 498.644561 59.958804 
L 503.307298 64.957129 
L 503.392075 60.006616 
L 503.561629 66.201659 
L 510.513347 72.040731 
L 510.598124 65.820809 
L 510.682901 65.925308 
L 513.480543 69.373753 
L 513.56532 13.772062 
L 513.734875 52.388392 
L 516.193409 55.283835 
L 516.278186 54.81671 
L 516.362963 54.938546 
L 521.364809 62.126874 
L 521.449586 61.308111 
L 521.534363 61.435024 
L 524.162451 65.369324 
L 524.247228 54.125957 
L 524.332005 54.252074 
L 528.740411 60.810186 
L 528.825188 48.36746 
L 528.994742 69.014394 
L 532.555378 72.248652 
L 532.640155 36.002678 
L 532.809709 74.449421 
L 537.472447 77.887462 
L 537.557224 72.715736 
L 537.642001 72.802659 
L 547.391361 82.815258 
L 547.476138 82.486694 
L 550.697666 87.245484 
L 550.782443 51.003563 
L 550.951997 88.895199 
L 553.495308 93.018762 
L 553.580085 74.020307 
L 553.749639 107.641448 
L 555.529957 110.555712 
L 555.614734 84.760604 
L 555.784288 112.29218 
L 559.514478 118.131449 
L 559.684032 121.316277 
L 565.533648 130.051714 
L 565.618425 124.410905 
L 565.703202 124.537398 
L 573.333136 135.921758 
L 573.417913 129.134153 
L 573.587467 140.377919 
L 583.25205 150.595332 
L 583.336827 142.727773 
L 583.421605 142.853869 
L 587.321349 148.654296 
L 587.406126 144.449094 
L 587.57568 147.621014 
L 595.544722 158.690119 
L 595.714276 161.402165 
L 609.532934 178.476529 
L 609.617711 174.450318 
L 609.702488 174.576633 
L 617.925861 186.829231 
L 618.010638 201.351463 
L 618.095415 188.656779 
L 618.180192 188.95472 
L 618.943186 191.636183 
L 619.027963 183.809871 
L 619.11274 183.936529 
L 624.029808 191.282656 
L 624.199363 193.439474 
L 631.744519 202.503347 
L 631.829296 193.996523 
L 631.914074 194.122996 
L 633.355283 196.273029 
L 633.355283 196.273029 
" clip-path="url(#pd60388da4e)" style="fill: none; stroke: #008000; stroke-width: 1.7; stroke-linecap: square"/>
   </g>
   <g id="line2d_46">
    <path d="M 481.604375 152.204984 
L 633.355283 152.204984 
L 633.355283 152.204984 
" clip-path="url(#pd60388da4e)" style="fill: none; stroke-dasharray: 3.7,1.6; stroke-dashoffset: 0; stroke: #90ee90"/>
   </g>
   <g id="line2d_47">
    <path d="M 481.604375 116.836785 
L 483.215139 119.244482 
L 483.384693 120.25365 
L 493.981823 133.743237 
L 497.79679 139.440024 
L 497.881567 138.764144 
L 498.051121 139.758892 
L 510.513347 156.115781 
L 510.598124 155.865862 
L 513.480543 160.155076 
L 513.56532 161.705473 
L 513.650098 159.162251 
L 513.734875 159.286705 
L 528.146972 180.640027 
L 528.740411 181.526205 
L 528.825188 184.828136 
L 528.909965 181.547813 
L 528.994742 181.655542 
L 537.472447 192.428479 
L 537.642001 192.966266 
L 546.044738 204.62581 
L 546.044738 204.62581 
" clip-path="url(#pd60388da4e)" style="fill: none; stroke: #ff0000; stroke-width: 1.7; stroke-linecap: square"/>
   </g>
   <g id="line2d_48">
    <path d="M 481.604375 152.204984 
L 633.355283 152.204984 
L 633.355283 152.204984 
" clip-path="url(#pd60388da4e)" style="fill: none; stroke-dasharray: 3.7,1.6; stroke-dashoffset: 0; stroke: #fa8072"/>
   </g>
   <g id="line2d_49">
    <path d="M 481.604375 76.172433 
L 633.355283 76.172433 
L 633.355283 76.172433 
" clip-path="url(#pd60388da4e)" style="fill: none; stroke-dasharray: 3.7,1.6; stroke-dashoffset: 0; stroke: #000000"/>
   </g>
   <g id="patch_15">
    <path d="M 481.604375 163.62706 
L 481.604375 8.870058 
" style="fill: none; stroke: #000000; stroke-width: 0.8; stroke-linejoin: miter; stroke-linecap: square"/>
   </g>
   <g id="patch_16">
    <path d="M 633.346875 163.62706 
L 633.346875 8.870058 
" style="fill: none; stroke: #000000; stroke-width: 0.8; stroke-linejoin: miter; stroke-linecap: square"/>
   </g>
   <g id="patch_17">
    <path d="M 481.604375 163.62706 
L 633.346875 163.62706 
" style="fill: none; stroke: #000000; stroke-width: 0.8; stroke-linejoin: miter; stroke-linecap: square"/>
   </g>
   <g id="patch_18">
    <path d="M 481.604375 8.870058 
L 633.346875 8.870058 
" style="fill: none; stroke: #000000; stroke-width: 0.8; stroke-linejoin: miter; stroke-linecap: square"/>
   </g>
   <g id="text_37">
    <!-- 10 min -->
    <g transform="translate(630.47534 73.894567) scale(0.1 -0.1)">
     <use xlink:href="#TimesNewRomanPSMT-31"/>
     <use xlink:href="#TimesNewRomanPSMT-30" x="50"/>
     <use xlink:href="#TimesNewRomanPSMT-20" x="100"/>
     <use xlink:href="#TimesNewRomanPSMT-6d" x="125"/>
     <use xlink:href="#TimesNewRomanPSMT-69" x="202.783203"/>
     <use xlink:href="#TimesNewRomanPSMT-6e" x="230.566406"/>
    </g>
   </g>
   <g id="legend_3">
    <g id="patch_19">
     <path d="M 535.786875 52.550058 
L 624.946875 52.550058 
Q 627.346875 52.550058 627.346875 50.150058 
L 627.346875 17.270058 
Q 627.346875 14.870058 624.946875 14.870058 
L 535.786875 14.870058 
Q 533.386875 14.870058 533.386875 17.270058 
L 533.386875 50.150058 
Q 533.386875 52.550058 535.786875 52.550058 
z
" style="fill: #ffffff; opacity: 0.8; stroke: #cccccc; stroke-linejoin: miter"/>
    </g>
    <g id="line2d_50">
     <path d="M 538.186875 23.943183 
L 550.186875 23.943183 
L 562.186875 23.943183 
" style="fill: none; stroke: #008000; stroke-width: 1.7; stroke-linecap: square"/>
    </g>
    <g id="text_38">
     <!-- $TS_2$$\rightarrow$OS -->
     <g transform="translate(571.786875 28.143183) scale(0.12 -0.12)">
      <use xlink:href="#DejaVuSans-Oblique-54" transform="translate(0 0.78125)"/>
      <use xlink:href="#DejaVuSans-Oblique-53" transform="translate(61.083984 0.78125)"/>
      <use xlink:href="#DejaVuSans-32" transform="translate(124.560547 -15.625) scale(0.7)"/>
      <use xlink:href="#DejaVuSans-2192" transform="translate(191.313477 0.78125)"/>
      <use xlink:href="#TimesNewRomanPSMT-4f" transform="translate(294.584961 0.78125)"/>
      <use xlink:href="#TimesNewRomanPSMT-53" transform="translate(366.801758 0.78125)"/>
     </g>
    </g>
    <g id="line2d_51">
     <path d="M 538.186875 40.983183 
L 550.186875 40.983183 
L 562.186875 40.983183 
" style="fill: none; stroke: #ff0000; stroke-width: 1.7; stroke-linecap: square"/>
    </g>
    <g id="text_39">
     <!-- OS$\rightarrow$$TS_1$ -->
     <g transform="translate(571.786875 45.183183) scale(0.12 -0.12)">
      <use xlink:href="#TimesNewRomanPSMT-4f" transform="translate(0 0.78125)"/>
      <use xlink:href="#TimesNewRomanPSMT-53" transform="translate(72.216797 0.78125)"/>
      <use xlink:href="#DejaVuSans-2192" transform="translate(147.314453 0.78125)"/>
      <use xlink:href="#DejaVuSans-Oblique-54" transform="translate(250.585938 0.78125)"/>
      <use xlink:href="#DejaVuSans-Oblique-53" transform="translate(311.669922 0.78125)"/>
      <use xlink:href="#DejaVuSans-31" transform="translate(375.146484 -15.625) scale(0.7)"/>
     </g>
    </g>
   </g>
  </g>
  <g id="axes_4">
   <g id="patch_20">
    <path d="M 692.856875 62.306741 
L 844.599375 62.306741 
L 844.599375 8.870058 
L 692.856875 8.870058 
z
" style="fill: #ffffff"/>
   </g>
   <g id="matplotlib.axis_7">
    <g id="xtick_11">
     <g id="line2d_52">
      <g>
       <use xlink:href="#m9f6c1ba7dd" x="692.856875" y="62.306741" style="stroke: #000000; stroke-width: 0.8"/>
      </g>
     </g>
     <g id="text_40">
      <!-- 0 -->
      <g transform="translate(689.856875 77.639241) scale(0.12 -0.12)">
       <use xlink:href="#TimesNewRomanPSMT-30"/>
      </g>
     </g>
    </g>
    <g id="xtick_12">
     <g id="line2d_53">
      <g>
       <use xlink:href="#m9f6c1ba7dd" x="740.818593" y="62.306741" style="stroke: #000000; stroke-width: 0.8"/>
      </g>
     </g>
     <g id="text_41">
      <!-- 500 -->
      <g transform="translate(731.818593 77.639241) scale(0.12 -0.12)">
       <use xlink:href="#TimesNewRomanPSMT-35"/>
       <use xlink:href="#TimesNewRomanPSMT-30" x="50"/>
       <use xlink:href="#TimesNewRomanPSMT-30" x="100"/>
      </g>
     </g>
    </g>
    <g id="xtick_13">
     <g id="line2d_54">
      <g>
       <use xlink:href="#m9f6c1ba7dd" x="788.78031" y="62.306741" style="stroke: #000000; stroke-width: 0.8"/>
      </g>
     </g>
     <g id="text_42">
      <!-- 1000 -->
      <g transform="translate(776.78031 77.639241) scale(0.12 -0.12)">
       <use xlink:href="#TimesNewRomanPSMT-31"/>
       <use xlink:href="#TimesNewRomanPSMT-30" x="50"/>
       <use xlink:href="#TimesNewRomanPSMT-30" x="100"/>
       <use xlink:href="#TimesNewRomanPSMT-30" x="150"/>
      </g>
     </g>
    </g>
    <g id="xtick_14">
     <g id="line2d_55">
      <g>
       <use xlink:href="#m9f6c1ba7dd" x="836.742028" y="62.306741" style="stroke: #000000; stroke-width: 0.8"/>
      </g>
     </g>
     <g id="text_43">
      <!-- 1500 -->
      <g transform="translate(824.742028 77.639241) scale(0.12 -0.12)">
       <use xlink:href="#TimesNewRomanPSMT-31"/>
       <use xlink:href="#TimesNewRomanPSMT-35" x="50"/>
       <use xlink:href="#TimesNewRomanPSMT-30" x="100"/>
       <use xlink:href="#TimesNewRomanPSMT-30" x="150"/>
      </g>
     </g>
    </g>
    <g id="text_44">
     <!-- Time (s) -->
     <g transform="translate(748.445312 92.538616) scale(0.12 -0.12)">
      <use xlink:href="#TimesNewRomanPSMT-54"/>
      <use xlink:href="#TimesNewRomanPSMT-69" x="57.583984"/>
      <use xlink:href="#TimesNewRomanPSMT-6d" x="85.367188"/>
      <use xlink:href="#TimesNewRomanPSMT-65" x="163.150391"/>
      <use xlink:href="#TimesNewRomanPSMT-20" x="207.535156"/>
      <use xlink:href="#TimesNewRomanPSMT-28" x="232.535156"/>
      <use xlink:href="#TimesNewRomanPSMT-73" x="265.835938"/>
      <use xlink:href="#TimesNewRomanPSMT-29" x="304.751953"/>
     </g>
    </g>
   </g>
   <g id="matplotlib.axis_8">
    <g id="ytick_15">
     <g id="line2d_56">
      <g>
       <use xlink:href="#mcf4da1bd58" x="692.856875" y="61.290091" style="stroke: #000000; stroke-width: 0.8"/>
      </g>
     </g>
     <g id="text_45">
      <!-- 0 -->
      <g transform="translate(679.856875 65.456341) scale(0.12 -0.12)">
       <use xlink:href="#TimesNewRomanPSMT-30"/>
      </g>
     </g>
    </g>
    <g id="ytick_16">
     <g id="line2d_57">
      <g>
       <use xlink:href="#mcf4da1bd58" x="692.856875" y="11.36625" style="stroke: #000000; stroke-width: 0.8"/>
      </g>
     </g>
     <g id="text_46">
      <!-- 1 -->
      <g transform="translate(679.856875 15.5325) scale(0.12 -0.12)">
       <use xlink:href="#TimesNewRomanPSMT-31"/>
      </g>
     </g>
    </g>
    <g id="text_47">
     <!-- Proximity index -->
     <g transform="translate(673.2675 74.420587) rotate(-90) scale(0.12 -0.12)">
      <defs>
       <path id="TimesNewRomanPSMT-72" d="M 1038 2947 
L 1038 2303 
Q 1397 2947 1775 2947 
Q 1947 2947 2059 2842 
Q 2172 2738 2172 2600 
Q 2172 2478 2090 2393 
Q 2009 2309 1897 2309 
Q 1788 2309 1652 2417 
Q 1516 2525 1450 2525 
Q 1394 2525 1328 2463 
Q 1188 2334 1038 2041 
L 1038 669 
Q 1038 431 1097 309 
Q 1138 225 1241 169 
Q 1344 113 1538 113 
L 1538 0 
L 72 0 
L 72 113 
Q 291 113 397 181 
Q 475 231 506 341 
Q 522 394 522 644 
L 522 1753 
Q 522 2253 501 2348 
Q 481 2444 426 2487 
Q 372 2531 291 2531 
Q 194 2531 72 2484 
L 41 2597 
L 906 2947 
L 1038 2947 
z
" transform="scale(0.015625)"/>
       <path id="TimesNewRomanPSMT-6f" d="M 1600 2947 
Q 2250 2947 2644 2453 
Q 2978 2031 2978 1484 
Q 2978 1100 2793 706 
Q 2609 313 2286 112 
Q 1963 -88 1566 -88 
Q 919 -88 538 428 
Q 216 863 216 1403 
Q 216 1797 411 2186 
Q 606 2575 925 2761 
Q 1244 2947 1600 2947 
z
M 1503 2744 
Q 1338 2744 1170 2645 
Q 1003 2547 900 2300 
Q 797 2053 797 1666 
Q 797 1041 1045 587 
Q 1294 134 1700 134 
Q 2003 134 2200 384 
Q 2397 634 2397 1244 
Q 2397 2006 2069 2444 
Q 1847 2744 1503 2744 
z
" transform="scale(0.015625)"/>
       <path id="TimesNewRomanPSMT-78" d="M 84 2863 
L 1431 2863 
L 1431 2747 
Q 1303 2747 1251 2703 
Q 1200 2659 1200 2588 
Q 1200 2513 1309 2356 
Q 1344 2306 1413 2200 
L 1616 1875 
L 1850 2200 
Q 2075 2509 2075 2591 
Q 2075 2656 2022 2701 
Q 1969 2747 1850 2747 
L 1850 2863 
L 2819 2863 
L 2819 2747 
Q 2666 2738 2553 2663 
Q 2400 2556 2134 2200 
L 1744 1678 
L 2456 653 
Q 2719 275 2831 198 
Q 2944 122 3122 113 
L 3122 0 
L 1772 0 
L 1772 113 
Q 1913 113 1991 175 
Q 2050 219 2050 291 
Q 2050 363 1850 653 
L 1431 1266 
L 972 653 
Q 759 369 759 316 
Q 759 241 829 180 
Q 900 119 1041 113 
L 1041 0 
L 106 0 
L 106 113 
Q 219 128 303 191 
Q 422 281 703 653 
L 1303 1450 
L 759 2238 
Q 528 2575 401 2661 
Q 275 2747 84 2747 
L 84 2863 
z
" transform="scale(0.015625)"/>
       <path id="TimesNewRomanPSMT-79" d="M 38 2863 
L 1372 2863 
L 1372 2747 
L 1306 2747 
Q 1166 2747 1095 2686 
Q 1025 2625 1025 2534 
Q 1025 2413 1128 2197 
L 1825 753 
L 2466 2334 
Q 2519 2463 2519 2588 
Q 2519 2644 2497 2672 
Q 2472 2706 2419 2726 
Q 2366 2747 2231 2747 
L 2231 2863 
L 3163 2863 
L 3163 2747 
Q 3047 2734 2984 2696 
Q 2922 2659 2847 2556 
Q 2819 2513 2741 2316 
L 1575 -541 
Q 1406 -956 1132 -1168 
Q 859 -1381 606 -1381 
Q 422 -1381 303 -1275 
Q 184 -1169 184 -1031 
Q 184 -900 270 -820 
Q 356 -741 506 -741 
Q 609 -741 788 -809 
Q 913 -856 944 -856 
Q 1038 -856 1148 -759 
Q 1259 -663 1372 -384 
L 1575 113 
L 547 2272 
Q 500 2369 397 2513 
Q 319 2622 269 2659 
Q 197 2709 38 2747 
L 38 2863 
z
" transform="scale(0.015625)"/>
       <path id="TimesNewRomanPSMT-64" d="M 2222 322 
Q 2013 103 1813 7 
Q 1613 -88 1381 -88 
Q 913 -88 563 304 
Q 213 697 213 1313 
Q 213 1928 600 2439 
Q 988 2950 1597 2950 
Q 1975 2950 2222 2709 
L 2222 3238 
Q 2222 3728 2198 3840 
Q 2175 3953 2125 3993 
Q 2075 4034 2000 4034 
Q 1919 4034 1784 3984 
L 1744 4094 
L 2597 4444 
L 2738 4444 
L 2738 1134 
Q 2738 631 2761 520 
Q 2784 409 2836 365 
Q 2888 322 2956 322 
Q 3041 322 3181 375 
L 3216 266 
L 2366 -88 
L 2222 -88 
L 2222 322 
z
M 2222 541 
L 2222 2016 
Q 2203 2228 2109 2403 
Q 2016 2578 1861 2667 
Q 1706 2756 1559 2756 
Q 1284 2756 1069 2509 
Q 784 2184 784 1559 
Q 784 928 1059 592 
Q 1334 256 1672 256 
Q 1956 256 2222 541 
z
" transform="scale(0.015625)"/>
      </defs>
      <use xlink:href="#TimesNewRomanPSMT-50"/>
      <use xlink:href="#TimesNewRomanPSMT-72" x="55.615234"/>
      <use xlink:href="#TimesNewRomanPSMT-6f" x="88.916016"/>
      <use xlink:href="#TimesNewRomanPSMT-78" x="138.916016"/>
      <use xlink:href="#TimesNewRomanPSMT-69" x="188.916016"/>
      <use xlink:href="#TimesNewRomanPSMT-6d" x="216.699219"/>
      <use xlink:href="#TimesNewRomanPSMT-69" x="294.482422"/>
      <use xlink:href="#TimesNewRomanPSMT-74" x="322.265625"/>
      <use xlink:href="#TimesNewRomanPSMT-79" x="350.048828"/>
      <use xlink:href="#TimesNewRomanPSMT-20" x="400.048828"/>
      <use xlink:href="#TimesNewRomanPSMT-69" x="425.048828"/>
      <use xlink:href="#TimesNewRomanPSMT-6e" x="452.832031"/>
      <use xlink:href="#TimesNewRomanPSMT-64" x="502.832031"/>
      <use xlink:href="#TimesNewRomanPSMT-65" x="552.832031"/>
      <use xlink:href="#TimesNewRomanPSMT-78" x="597.216797"/>
     </g>
    </g>
   </g>
   <g id="line2d_58">
    <path d="M 692.856875 29.262957 
L 695.638655 29.262957 
L 695.830501 27.338694 
L 698.516358 27.338694 
L 698.708205 25.426923 
L 701.394061 25.426923 
L 701.585908 23.521329 
L 704.271764 23.521329 
L 704.463611 21.6166 
L 707.149467 21.6166 
L 707.341314 19.70818 
L 710.02717 19.70818 
L 710.219017 17.7921 
L 712.904873 17.7921 
L 713.09672 15.86484 
L 715.782576 15.86484 
L 715.974423 13.923243 
L 718.660279 13.923243 
L 718.852126 11.964434 
L 721.537982 11.964434 
L 721.729829 61.290091 
L 735.926497 61.290091 
L 736.118344 53.977591 
L 738.8042 53.977591 
L 738.996047 49.862771 
L 741.681903 49.862771 
L 741.87375 46.741957 
L 744.559607 46.741957 
L 744.751453 44.060204 
L 747.43731 44.060204 
L 747.629156 41.631526 
L 750.315013 41.631526 
L 750.50686 39.366524 
L 753.192716 39.366524 
L 753.384563 37.214061 
L 756.070419 37.214061 
L 756.262266 35.141589 
L 758.948122 35.141589 
L 759.139969 33.126819 
L 761.825825 33.126819 
L 762.017672 31.153635 
L 764.703528 31.153635 
L 764.895375 29.209878 
L 767.581231 29.209878 
L 767.773078 27.286053 
L 770.458934 27.286053 
L 770.650781 25.374531 
L 773.336637 25.374531 
L 773.528484 23.469028 
L 776.21434 23.469028 
L 776.406187 21.564255 
L 779.092043 21.564255 
L 779.28389 19.655676 
L 781.969746 19.655676 
L 782.161593 17.739334 
L 784.847449 17.739334 
L 785.039296 15.811721 
L 787.725152 15.811721 
L 787.916999 13.869688 
L 790.602855 13.869688 
L 790.794702 11.910368 
L 793.480558 11.910368 
L 793.672405 61.290091 
L 844.607749 61.290091 
L 844.607749 61.290091 
" clip-path="url(#pea40bdb551)" style="fill: none; stroke: #add8e6; stroke-width: 1.3; stroke-linecap: square"/>
   </g>
   <g id="line2d_59">
    <path d="M 692.856875 29.262957 
L 695.638655 29.262957 
L 695.830501 39.586492 
L 698.516358 39.586492 
L 698.708205 38.287233 
L 701.394061 38.287233 
L 701.585908 36.966255 
L 704.271764 36.966255 
L 704.463611 35.621584 
L 707.149467 35.621584 
L 707.341314 36.423537 
L 710.02717 36.423537 
L 710.219017 35.255331 
L 712.904873 35.255331 
L 713.09672 33.347097 
L 715.782576 33.347097 
L 715.974423 31.915482 
L 718.660279 31.915482 
L 718.852126 30.450204 
L 721.537982 30.450204 
L 721.729829 28.949766 
L 724.415685 28.949766 
L 724.607532 61.290091 
L 844.607749 61.290091 
L 844.607749 61.290091 
" clip-path="url(#pea40bdb551)" style="fill: none; stroke: #0000ff; stroke-width: 1.7; stroke-linecap: square"/>
   </g>
   <g id="patch_21">
    <path d="M 692.856875 62.306741 
L 692.856875 8.870058 
" style="fill: none; stroke: #000000; stroke-width: 0.8; stroke-linejoin: miter; stroke-linecap: square"/>
   </g>
   <g id="patch_22">
    <path d="M 844.599375 62.306741 
L 844.599375 8.870058 
" style="fill: none; stroke: #000000; stroke-width: 0.8; stroke-linejoin: miter; stroke-linecap: square"/>
   </g>
   <g id="patch_23">
    <path d="M 692.856875 62.306741 
L 844.599375 62.306741 
" style="fill: none; stroke: #000000; stroke-width: 0.8; stroke-linejoin: miter; stroke-linecap: square"/>
   </g>
   <g id="patch_24">
    <path d="M 692.856875 8.870058 
L 844.599375 8.870058 
" style="fill: none; stroke: #000000; stroke-width: 0.8; stroke-linejoin: miter; stroke-linecap: square"/>
   </g>
   <g id="legend_4">
    <g id="patch_25">
     <path d="M 782.46 56.306741 
L 836.199375 56.306741 
Q 838.599375 56.306741 838.599375 53.906741 
L 838.599375 38.139866 
Q 838.599375 35.739866 836.199375 35.739866 
L 782.46 35.739866 
Q 780.06 35.739866 780.06 38.139866 
L 780.06 53.906741 
Q 780.06 56.306741 782.46 56.306741 
z
" style="fill: #ffffff; opacity: 0.8; stroke: #cccccc; stroke-linejoin: miter"/>
    </g>
    <g id="line2d_60">
     <path d="M 784.86 44.739866 
L 796.86 44.739866 
L 808.86 44.739866 
" style="fill: none; stroke: #0000ff; stroke-width: 1.7; stroke-linecap: square"/>
    </g>
    <g id="text_48">
     <!-- OS -->
     <g transform="translate(818.46 48.939866) scale(0.12 -0.12)">
      <use xlink:href="#TimesNewRomanPSMT-4f"/>
      <use xlink:href="#TimesNewRomanPSMT-53" x="72.216797"/>
     </g>
    </g>
   </g>
  </g>
  <g id="axes_5">
   <g id="patch_26">
    <path d="M 692.856875 163.62706 
L 844.599375 163.62706 
L 844.599375 110.190377 
L 692.856875 110.190377 
z
" style="fill: #ffffff"/>
   </g>
   <g id="matplotlib.axis_9">
    <g id="xtick_15">
     <g id="line2d_61">
      <g>
       <use xlink:href="#m9f6c1ba7dd" x="692.856875" y="163.62706" style="stroke: #000000; stroke-width: 0.8"/>
      </g>
     </g>
     <g id="text_49">
      <!-- 0 -->
      <g transform="translate(689.856875 178.95956) scale(0.12 -0.12)">
       <use xlink:href="#TimesNewRomanPSMT-30"/>
      </g>
     </g>
    </g>
    <g id="xtick_16">
     <g id="line2d_62">
      <g>
       <use xlink:href="#m9f6c1ba7dd" x="740.272042" y="163.62706" style="stroke: #000000; stroke-width: 0.8"/>
      </g>
     </g>
     <g id="text_50">
      <!-- 500 -->
      <g transform="translate(731.272042 178.95956) scale(0.12 -0.12)">
       <use xlink:href="#TimesNewRomanPSMT-35"/>
       <use xlink:href="#TimesNewRomanPSMT-30" x="50"/>
       <use xlink:href="#TimesNewRomanPSMT-30" x="100"/>
      </g>
     </g>
    </g>
    <g id="xtick_17">
     <g id="line2d_63">
      <g>
       <use xlink:href="#m9f6c1ba7dd" x="787.687209" y="163.62706" style="stroke: #000000; stroke-width: 0.8"/>
      </g>
     </g>
     <g id="text_51">
      <!-- 1000 -->
      <g transform="translate(775.687209 178.95956) scale(0.12 -0.12)">
       <use xlink:href="#TimesNewRomanPSMT-31"/>
       <use xlink:href="#TimesNewRomanPSMT-30" x="50"/>
       <use xlink:href="#TimesNewRomanPSMT-30" x="100"/>
       <use xlink:href="#TimesNewRomanPSMT-30" x="150"/>
      </g>
     </g>
    </g>
    <g id="xtick_18">
     <g id="line2d_64">
      <g>
       <use xlink:href="#m9f6c1ba7dd" x="835.102376" y="163.62706" style="stroke: #000000; stroke-width: 0.8"/>
      </g>
     </g>
     <g id="text_52">
      <!-- 1500 -->
      <g transform="translate(823.102376 178.95956) scale(0.12 -0.12)">
       <use xlink:href="#TimesNewRomanPSMT-31"/>
       <use xlink:href="#TimesNewRomanPSMT-35" x="50"/>
       <use xlink:href="#TimesNewRomanPSMT-30" x="100"/>
       <use xlink:href="#TimesNewRomanPSMT-30" x="150"/>
      </g>
     </g>
    </g>
   </g>
   <g id="matplotlib.axis_10">
    <g id="ytick_17">
     <g id="line2d_65">
      <g>
       <use xlink:href="#mcf4da1bd58" x="692.856875" y="161.699361" style="stroke: #000000; stroke-width: 0.8"/>
      </g>
     </g>
     <g id="text_53">
      <!-- 0 -->
      <g transform="translate(679.856875 165.865611) scale(0.12 -0.12)">
       <use xlink:href="#TimesNewRomanPSMT-30"/>
      </g>
     </g>
    </g>
    <g id="ytick_18">
     <g id="line2d_66">
      <g>
       <use xlink:href="#mcf4da1bd58" x="692.856875" y="112.643186" style="stroke: #000000; stroke-width: 0.8"/>
      </g>
     </g>
     <g id="text_54">
      <!-- 1 -->
      <g transform="translate(679.856875 116.809436) scale(0.12 -0.12)">
       <use xlink:href="#TimesNewRomanPSMT-31"/>
      </g>
     </g>
    </g>
    <g id="text_55">
     <!-- DS-based index -->
     <g transform="translate(673.29 175.068718) rotate(-90) scale(0.12 -0.12)">
      <defs>
       <path id="TimesNewRomanPSMT-2d" d="M 259 1672 
L 1875 1672 
L 1875 1200 
L 259 1200 
L 259 1672 
z
" transform="scale(0.015625)"/>
       <path id="TimesNewRomanPSMT-62" d="M 984 2369 
Q 1400 2947 1881 2947 
Q 2322 2947 2650 2570 
Q 2978 2194 2978 1541 
Q 2978 778 2472 313 
Q 2038 -88 1503 -88 
Q 1253 -88 995 3 
Q 738 94 469 275 
L 469 3241 
Q 469 3728 445 3840 
Q 422 3953 372 3993 
Q 322 4034 247 4034 
Q 159 4034 28 3984 
L -16 4094 
L 844 4444 
L 984 4444 
L 984 2369 
z
M 984 2169 
L 984 456 
Q 1144 300 1314 220 
Q 1484 141 1663 141 
Q 1947 141 2192 453 
Q 2438 766 2438 1363 
Q 2438 1913 2192 2208 
Q 1947 2503 1634 2503 
Q 1469 2503 1303 2419 
Q 1178 2356 984 2169 
z
" transform="scale(0.015625)"/>
      </defs>
      <use xlink:href="#TimesNewRomanPSMT-44"/>
      <use xlink:href="#TimesNewRomanPSMT-53" x="72.216797"/>
      <use xlink:href="#TimesNewRomanPSMT-2d" x="127.832031"/>
      <use xlink:href="#TimesNewRomanPSMT-62" x="161.132812"/>
      <use xlink:href="#TimesNewRomanPSMT-61" x="211.132812"/>
      <use xlink:href="#TimesNewRomanPSMT-73" x="255.517578"/>
      <use xlink:href="#TimesNewRomanPSMT-65" x="294.433594"/>
      <use xlink:href="#TimesNewRomanPSMT-64" x="338.818359"/>
      <use xlink:href="#TimesNewRomanPSMT-20" x="388.818359"/>
      <use xlink:href="#TimesNewRomanPSMT-69" x="413.818359"/>
      <use xlink:href="#TimesNewRomanPSMT-6e" x="441.601562"/>
      <use xlink:href="#TimesNewRomanPSMT-64" x="491.601562"/>
      <use xlink:href="#TimesNewRomanPSMT-65" x="541.601562"/>
      <use xlink:href="#TimesNewRomanPSMT-78" x="585.986328"/>
     </g>
    </g>
   </g>
   <g id="line2d_67">
    <path d="M 692.856875 118.63894 
L 695.606955 118.63894 
L 695.796615 115.913597 
L 698.451865 115.913597 
L 698.641525 112.643186 
L 729.745875 112.643186 
L 729.935536 145.619837 
L 732.590785 145.619837 
L 732.780446 144.802234 
L 735.435695 144.802234 
L 735.625356 143.712097 
L 738.280605 143.712097 
L 738.470266 142.894494 
L 741.125515 142.894494 
L 741.315176 141.804356 
L 743.970425 141.804356 
L 744.160086 140.441685 
L 746.815335 140.441685 
L 747.004996 139.079013 
L 749.660245 139.079013 
L 749.849906 137.443808 
L 752.505155 137.443808 
L 752.694816 135.536067 
L 755.350065 135.536067 
L 755.539726 133.355793 
L 758.194975 133.355793 
L 758.384636 130.357916 
L 761.039885 130.357916 
L 761.229546 127.087504 
L 763.884795 127.087504 
L 764.074456 122.454421 
L 766.729705 122.454421 
L 766.919366 116.458666 
L 769.574615 116.458666 
L 769.764276 112.643186 
L 812.248265 112.643186 
L 812.437926 161.699361 
L 844.680239 161.699361 
L 844.680239 161.699361 
" clip-path="url(#p07502b6ada)" style="fill: none; stroke: #add8e6; stroke-width: 1.3; stroke-linecap: square"/>
   </g>
   <g id="line2d_68">
    <path d="M 692.856875 118.63894 
L 695.606955 118.63894 
L 695.796615 125.997367 
L 698.451865 125.997367 
L 698.641525 124.362161 
L 701.296775 124.362161 
L 701.486435 121.909352 
L 704.141685 121.909352 
L 704.331345 118.093872 
L 706.986595 118.093872 
L 707.176255 112.643186 
L 732.590785 112.643186 
L 732.780446 148.890248 
L 735.435695 148.890248 
L 735.625356 148.617714 
L 738.280605 148.617714 
L 738.470266 147.800111 
L 741.125515 147.800111 
L 741.315176 161.699361 
L 844.680239 161.699361 
L 844.680239 161.699361 
" clip-path="url(#p07502b6ada)" style="fill: none; stroke: #0000ff; stroke-width: 1.7; stroke-linecap: square"/>
   </g>
   <g id="patch_27">
    <path d="M 692.856875 163.62706 
L 692.856875 110.190377 
" style="fill: none; stroke: #000000; stroke-width: 0.8; stroke-linejoin: miter; stroke-linecap: square"/>
   </g>
   <g id="patch_28">
    <path d="M 844.599375 163.62706 
L 844.599375 110.190377 
" style="fill: none; stroke: #000000; stroke-width: 0.8; stroke-linejoin: miter; stroke-linecap: square"/>
   </g>
   <g id="patch_29">
    <path d="M 692.856875 163.62706 
L 844.599375 163.62706 
" style="fill: none; stroke: #000000; stroke-width: 0.8; stroke-linejoin: miter; stroke-linecap: square"/>
   </g>
   <g id="patch_30">
    <path d="M 692.856875 110.190377 
L 844.599375 110.190377 
" style="fill: none; stroke: #000000; stroke-width: 0.8; stroke-linejoin: miter; stroke-linecap: square"/>
   </g>
   <g id="legend_5">
    <g id="patch_31">
     <path d="M 782.46 136.757252 
L 836.199375 136.757252 
Q 838.599375 136.757252 838.599375 134.357252 
L 838.599375 118.590377 
Q 838.599375 116.190377 836.199375 116.190377 
L 782.46 116.190377 
Q 780.06 116.190377 780.06 118.590377 
L 780.06 134.357252 
Q 780.06 136.757252 782.46 136.757252 
z
" style="fill: #ffffff; opacity: 0.8; stroke: #cccccc; stroke-linejoin: miter"/>
    </g>
    <g id="line2d_69">
     <path d="M 784.86 125.190377 
L 796.86 125.190377 
L 808.86 125.190377 
" style="fill: none; stroke: #0000ff; stroke-width: 1.7; stroke-linecap: square"/>
    </g>
    <g id="text_56">
     <!-- OS -->
     <g transform="translate(818.46 129.390377) scale(0.12 -0.12)">
      <use xlink:href="#TimesNewRomanPSMT-4f"/>
      <use xlink:href="#TimesNewRomanPSMT-53" x="72.216797"/>
     </g>
    </g>
   </g>
  </g>
 </g>
 <defs>
  <clipPath id="p73fb167b01">
   <rect x="59.099375" y="8.870058" width="151.7425" height="154.757002"/>
  </clipPath>
  <clipPath id="p9b1f0f023a">
   <rect x="270.351875" y="8.870058" width="151.7425" height="154.757002"/>
  </clipPath>
  <clipPath id="pd60388da4e">
   <rect x="481.604375" y="8.870058" width="151.7425" height="154.757002"/>
  </clipPath>
  <clipPath id="pea40bdb551">
   <rect x="692.856875" y="8.870058" width="151.7425" height="53.436683"/>
  </clipPath>
  <clipPath id="p07502b6ada">
   <rect x="692.856875" y="110.190377" width="151.7425" height="53.436683"/>
  </clipPath>
 </defs>
</svg>
