<?xml version="1.0" encoding="utf-8" standalone="no"?>
<!DOCTYPE svg PUBLIC "-//W3C//DTD SVG 1.1//EN"
  "http://www.w3.org/Graphics/SVG/1.1/DTD/svg11.dtd">
<svg xmlns:xlink="http://www.w3.org/1999/xlink" width="458.640142pt" height="307.488975pt" viewBox="0 0 458.640142 307.488975" xmlns="http://www.w3.org/2000/svg" version="1.1">
 <metadata>
  <rdf:RDF xmlns:dc="http://purl.org/dc/elements/1.1/" xmlns:cc="http://creativecommons.org/ns#" xmlns:rdf="http://www.w3.org/1999/02/22-rdf-syntax-ns#">
   <cc:Work>
    <dc:type rdf:resource="http://purl.org/dc/dcmitype/StillImage"/>
    <dc:date>2025-05-05T13:28:33.188231</dc:date>
    <dc:format>image/svg+xml</dc:format>
    <dc:creator>
     <cc:Agent>
      <dc:title>Matplotlib v3.9.0, https://matplotlib.org/</dc:title>
     </cc:Agent>
    </dc:creator>
   </cc:Work>
  </rdf:RDF>
 </metadata>
 <defs>
  <style type="text/css">*{stroke-linejoin: round; stroke-linecap: butt}</style>
 </defs>
 <g id="figure_1">
  <g id="patch_1">
   <path d="M 0 307.488975 
L 458.640142 307.488975 
L 458.640142 0 
L 0 0 
z
" style="fill: #ffffff"/>
  </g>
  <g id="axes_1">
   <g id="patch_2">
    <path d="M 57.095 94.363191 
L 447.695 94.363191 
L 447.695 11.36625 
L 57.095 11.36625 
z
" style="fill: #ffffff"/>
   </g>
   <g id="matplotlib.axis_1"/>
   <g id="matplotlib.axis_2">
    <g id="ytick_1">
     <g id="line2d_1">
      <defs>
       <path id="m905a106298" d="M 0 0 
L -3.5 0 
" style="stroke: #000000; stroke-width: 0.8"/>
      </defs>
      <g>
       <use xlink:href="#m905a106298" x="57.095" y="94.363191" style="stroke: #000000; stroke-width: 0.8"/>
      </g>
     </g>
     <g id="text_1">
      <!-- 0s -->
      <g transform="translate(39.424375 98.529441) scale(0.12 -0.12)">
       <defs>
        <path id="TimesNewRomanPSMT-30" d="M 231 2094 
Q 231 2819 450 3342 
Q 669 3866 1031 4122 
Q 1313 4325 1613 4325 
Q 2100 4325 2488 3828 
Q 2972 3213 2972 2159 
Q 2972 1422 2759 906 
Q 2547 391 2217 158 
Q 1888 -75 1581 -75 
Q 975 -75 572 641 
Q 231 1244 231 2094 
z
M 844 2016 
Q 844 1141 1059 588 
Q 1238 122 1591 122 
Q 1759 122 1940 273 
Q 2122 425 2216 781 
Q 2359 1319 2359 2297 
Q 2359 3022 2209 3506 
Q 2097 3866 1919 4016 
Q 1791 4119 1609 4119 
Q 1397 4119 1231 3928 
Q 1006 3669 925 3112 
Q 844 2556 844 2016 
z
" transform="scale(0.015625)"/>
        <path id="TimesNewRomanPSMT-73" d="M 2050 2947 
L 2050 1972 
L 1947 1972 
Q 1828 2431 1642 2597 
Q 1456 2763 1169 2763 
Q 950 2763 815 2647 
Q 681 2531 681 2391 
Q 681 2216 781 2091 
Q 878 1963 1175 1819 
L 1631 1597 
Q 2266 1288 2266 781 
Q 2266 391 1970 151 
Q 1675 -88 1309 -88 
Q 1047 -88 709 6 
Q 606 38 541 38 
Q 469 38 428 -44 
L 325 -44 
L 325 978 
L 428 978 
Q 516 541 762 319 
Q 1009 97 1316 97 
Q 1531 97 1667 223 
Q 1803 350 1803 528 
Q 1803 744 1651 891 
Q 1500 1038 1047 1263 
Q 594 1488 453 1669 
Q 313 1847 313 2119 
Q 313 2472 555 2709 
Q 797 2947 1181 2947 
Q 1350 2947 1591 2875 
Q 1750 2828 1803 2828 
Q 1853 2828 1881 2850 
Q 1909 2872 1947 2947 
L 2050 2947 
z
" transform="scale(0.015625)"/>
       </defs>
       <use xlink:href="#TimesNewRomanPSMT-30"/>
       <use xlink:href="#TimesNewRomanPSMT-73" x="50"/>
      </g>
     </g>
    </g>
    <g id="ytick_2">
     <g id="line2d_2">
      <g>
       <use xlink:href="#m905a106298" x="57.095" y="11.36625" style="stroke: #000000; stroke-width: 0.8"/>
      </g>
     </g>
     <g id="text_2">
      <!-- 766s -->
      <g transform="translate(27.424375 15.5325) scale(0.12 -0.12)">
       <defs>
        <path id="TimesNewRomanPSMT-37" d="M 644 4238 
L 2916 4238 
L 2916 4119 
L 1503 -88 
L 1153 -88 
L 2419 3728 
L 1253 3728 
Q 900 3728 750 3644 
Q 488 3500 328 3200 
L 238 3234 
L 644 4238 
z
" transform="scale(0.015625)"/>
        <path id="TimesNewRomanPSMT-36" d="M 2869 4325 
L 2869 4209 
Q 2456 4169 2195 4045 
Q 1934 3922 1679 3669 
Q 1425 3416 1258 3105 
Q 1091 2794 978 2366 
Q 1428 2675 1881 2675 
Q 2316 2675 2634 2325 
Q 2953 1975 2953 1425 
Q 2953 894 2631 456 
Q 2244 -75 1606 -75 
Q 1172 -75 869 213 
Q 275 772 275 1663 
Q 275 2231 503 2743 
Q 731 3256 1154 3653 
Q 1578 4050 1965 4187 
Q 2353 4325 2688 4325 
L 2869 4325 
z
M 925 2138 
Q 869 1716 869 1456 
Q 869 1156 980 804 
Q 1091 453 1309 247 
Q 1469 100 1697 100 
Q 1969 100 2183 356 
Q 2397 613 2397 1088 
Q 2397 1622 2184 2012 
Q 1972 2403 1581 2403 
Q 1463 2403 1327 2353 
Q 1191 2303 925 2138 
z
" transform="scale(0.015625)"/>
       </defs>
       <use xlink:href="#TimesNewRomanPSMT-37"/>
       <use xlink:href="#TimesNewRomanPSMT-36" x="50"/>
       <use xlink:href="#TimesNewRomanPSMT-36" x="100"/>
       <use xlink:href="#TimesNewRomanPSMT-73" x="150"/>
      </g>
     </g>
    </g>
    <g id="ytick_3">
     <g id="line2d_3">
      <g>
       <use xlink:href="#m905a106298" x="57.095" y="94.363191" style="stroke: #000000; stroke-width: 0.8"/>
      </g>
     </g>
     <g id="text_3">
      <!-- 0s -->
      <g transform="translate(39.424375 98.529441) scale(0.12 -0.12)">
       <use xlink:href="#TimesNewRomanPSMT-30"/>
       <use xlink:href="#TimesNewRomanPSMT-73" x="50"/>
      </g>
     </g>
    </g>
    <g id="ytick_4">
     <g id="line2d_4">
      <g>
       <use xlink:href="#m905a106298" x="57.095" y="77.785473" style="stroke: #000000; stroke-width: 0.8"/>
      </g>
     </g>
     <g id="text_4">
      <!-- 153s -->
      <g transform="translate(27.424375 81.951723) scale(0.12 -0.12)">
       <defs>
        <path id="TimesNewRomanPSMT-31" d="M 750 3822 
L 1781 4325 
L 1884 4325 
L 1884 747 
Q 1884 391 1914 303 
Q 1944 216 2037 169 
Q 2131 122 2419 116 
L 2419 0 
L 825 0 
L 825 116 
Q 1125 122 1212 167 
Q 1300 213 1334 289 
Q 1369 366 1369 747 
L 1369 3034 
Q 1369 3497 1338 3628 
Q 1316 3728 1258 3775 
Q 1200 3822 1119 3822 
Q 1003 3822 797 3725 
L 750 3822 
z
" transform="scale(0.015625)"/>
        <path id="TimesNewRomanPSMT-35" d="M 2778 4238 
L 2534 3706 
L 1259 3706 
L 981 3138 
Q 1809 3016 2294 2522 
Q 2709 2097 2709 1522 
Q 2709 1188 2573 903 
Q 2438 619 2231 419 
Q 2025 219 1772 97 
Q 1413 -75 1034 -75 
Q 653 -75 479 54 
Q 306 184 306 341 
Q 306 428 378 495 
Q 450 563 559 563 
Q 641 563 702 538 
Q 763 513 909 409 
Q 1144 247 1384 247 
Q 1750 247 2026 523 
Q 2303 800 2303 1197 
Q 2303 1581 2056 1914 
Q 1809 2247 1375 2428 
Q 1034 2569 447 2591 
L 1259 4238 
L 2778 4238 
z
" transform="scale(0.015625)"/>
        <path id="TimesNewRomanPSMT-33" d="M 325 3431 
Q 506 3859 782 4092 
Q 1059 4325 1472 4325 
Q 1981 4325 2253 3994 
Q 2459 3747 2459 3466 
Q 2459 3003 1878 2509 
Q 2269 2356 2469 2072 
Q 2669 1788 2669 1403 
Q 2669 853 2319 450 
Q 1863 -75 997 -75 
Q 569 -75 414 31 
Q 259 138 259 259 
Q 259 350 332 419 
Q 406 488 509 488 
Q 588 488 669 463 
Q 722 447 909 348 
Q 1097 250 1169 231 
Q 1284 197 1416 197 
Q 1734 197 1970 444 
Q 2206 691 2206 1028 
Q 2206 1275 2097 1509 
Q 2016 1684 1919 1775 
Q 1784 1900 1550 2001 
Q 1316 2103 1072 2103 
L 972 2103 
L 972 2197 
Q 1219 2228 1467 2375 
Q 1716 2522 1828 2728 
Q 1941 2934 1941 3181 
Q 1941 3503 1739 3701 
Q 1538 3900 1238 3900 
Q 753 3900 428 3381 
L 325 3431 
z
" transform="scale(0.015625)"/>
       </defs>
       <use xlink:href="#TimesNewRomanPSMT-31"/>
       <use xlink:href="#TimesNewRomanPSMT-35" x="50"/>
       <use xlink:href="#TimesNewRomanPSMT-33" x="100"/>
       <use xlink:href="#TimesNewRomanPSMT-73" x="150"/>
      </g>
     </g>
    </g>
    <g id="ytick_5">
     <g id="line2d_5">
      <g>
       <use xlink:href="#m905a106298" x="57.095" y="61.207755" style="stroke: #000000; stroke-width: 0.8"/>
      </g>
     </g>
     <g id="text_5">
      <!-- 306s -->
      <g transform="translate(27.424375 65.374005) scale(0.12 -0.12)">
       <use xlink:href="#TimesNewRomanPSMT-33"/>
       <use xlink:href="#TimesNewRomanPSMT-30" x="50"/>
       <use xlink:href="#TimesNewRomanPSMT-36" x="100"/>
       <use xlink:href="#TimesNewRomanPSMT-73" x="150"/>
      </g>
     </g>
    </g>
    <g id="ytick_6">
     <g id="line2d_6">
      <g>
       <use xlink:href="#m905a106298" x="57.095" y="44.521686" style="stroke: #000000; stroke-width: 0.8"/>
      </g>
     </g>
     <g id="text_6">
      <!-- 460s -->
      <g transform="translate(27.424375 48.687936) scale(0.12 -0.12)">
       <defs>
        <path id="TimesNewRomanPSMT-34" d="M 2978 1563 
L 2978 1119 
L 2409 1119 
L 2409 0 
L 1894 0 
L 1894 1119 
L 100 1119 
L 100 1519 
L 2066 4325 
L 2409 4325 
L 2409 1563 
L 2978 1563 
z
M 1894 1563 
L 1894 3666 
L 406 1563 
L 1894 1563 
z
" transform="scale(0.015625)"/>
       </defs>
       <use xlink:href="#TimesNewRomanPSMT-34"/>
       <use xlink:href="#TimesNewRomanPSMT-36" x="50"/>
       <use xlink:href="#TimesNewRomanPSMT-30" x="100"/>
       <use xlink:href="#TimesNewRomanPSMT-73" x="150"/>
      </g>
     </g>
    </g>
    <g id="ytick_7">
     <g id="line2d_7">
      <g>
       <use xlink:href="#m905a106298" x="57.095" y="27.943968" style="stroke: #000000; stroke-width: 0.8"/>
      </g>
     </g>
     <g id="text_7">
      <!-- 613s -->
      <g transform="translate(27.424375 32.110218) scale(0.12 -0.12)">
       <use xlink:href="#TimesNewRomanPSMT-36"/>
       <use xlink:href="#TimesNewRomanPSMT-31" x="50"/>
       <use xlink:href="#TimesNewRomanPSMT-33" x="100"/>
       <use xlink:href="#TimesNewRomanPSMT-73" x="150"/>
      </g>
     </g>
    </g>
    <g id="ytick_8">
     <g id="line2d_8">
      <g>
       <use xlink:href="#m905a106298" x="57.095" y="11.36625" style="stroke: #000000; stroke-width: 0.8"/>
      </g>
     </g>
     <g id="text_8">
      <!-- 766s -->
      <g transform="translate(27.424375 15.5325) scale(0.12 -0.12)">
       <use xlink:href="#TimesNewRomanPSMT-37"/>
       <use xlink:href="#TimesNewRomanPSMT-36" x="50"/>
       <use xlink:href="#TimesNewRomanPSMT-36" x="100"/>
       <use xlink:href="#TimesNewRomanPSMT-73" x="150"/>
      </g>
     </g>
    </g>
    <g id="text_9">
     <!-- Average time / scene -->
     <g transform="translate(20.835 102.900033) rotate(-90) scale(0.12 -0.12)">
      <defs>
       <path id="TimesNewRomanPSMT-41" d="M 2928 1419 
L 1288 1419 
L 1000 750 
Q 894 503 894 381 
Q 894 284 986 211 
Q 1078 138 1384 116 
L 1384 0 
L 50 0 
L 50 116 
Q 316 163 394 238 
Q 553 388 747 847 
L 2238 4334 
L 2347 4334 
L 3822 809 
Q 4000 384 4145 257 
Q 4291 131 4550 116 
L 4550 0 
L 2878 0 
L 2878 116 
Q 3131 128 3220 200 
Q 3309 272 3309 375 
Q 3309 513 3184 809 
L 2928 1419 
z
M 2841 1650 
L 2122 3363 
L 1384 1650 
L 2841 1650 
z
" transform="scale(0.015625)"/>
       <path id="TimesNewRomanPSMT-76" d="M 53 2863 
L 1400 2863 
L 1400 2747 
L 1313 2747 
Q 1191 2747 1127 2687 
Q 1063 2628 1063 2528 
Q 1063 2419 1128 2269 
L 1794 688 
L 2463 2328 
Q 2534 2503 2534 2594 
Q 2534 2638 2509 2666 
Q 2475 2713 2422 2730 
Q 2369 2747 2206 2747 
L 2206 2863 
L 3141 2863 
L 3141 2747 
Q 2978 2734 2916 2681 
Q 2806 2588 2719 2369 
L 1703 -88 
L 1575 -88 
L 553 2328 
Q 484 2497 421 2570 
Q 359 2644 263 2694 
Q 209 2722 53 2747 
L 53 2863 
z
" transform="scale(0.015625)"/>
       <path id="TimesNewRomanPSMT-65" d="M 681 1784 
Q 678 1147 991 784 
Q 1303 422 1725 422 
Q 2006 422 2214 576 
Q 2422 731 2563 1106 
L 2659 1044 
Q 2594 616 2278 264 
Q 1963 -88 1488 -88 
Q 972 -88 605 314 
Q 238 716 238 1394 
Q 238 2128 614 2539 
Q 991 2950 1559 2950 
Q 2041 2950 2350 2633 
Q 2659 2316 2659 1784 
L 681 1784 
z
M 681 1966 
L 2006 1966 
Q 1991 2241 1941 2353 
Q 1863 2528 1708 2628 
Q 1553 2728 1384 2728 
Q 1125 2728 920 2526 
Q 716 2325 681 1966 
z
" transform="scale(0.015625)"/>
       <path id="TimesNewRomanPSMT-72" d="M 1038 2947 
L 1038 2303 
Q 1397 2947 1775 2947 
Q 1947 2947 2059 2842 
Q 2172 2738 2172 2600 
Q 2172 2478 2090 2393 
Q 2009 2309 1897 2309 
Q 1788 2309 1652 2417 
Q 1516 2525 1450 2525 
Q 1394 2525 1328 2463 
Q 1188 2334 1038 2041 
L 1038 669 
Q 1038 431 1097 309 
Q 1138 225 1241 169 
Q 1344 113 1538 113 
L 1538 0 
L 72 0 
L 72 113 
Q 291 113 397 181 
Q 475 231 506 341 
Q 522 394 522 644 
L 522 1753 
Q 522 2253 501 2348 
Q 481 2444 426 2487 
Q 372 2531 291 2531 
Q 194 2531 72 2484 
L 41 2597 
L 906 2947 
L 1038 2947 
z
" transform="scale(0.015625)"/>
       <path id="TimesNewRomanPSMT-61" d="M 1822 413 
Q 1381 72 1269 19 
Q 1100 -59 909 -59 
Q 613 -59 420 144 
Q 228 347 228 678 
Q 228 888 322 1041 
Q 450 1253 767 1440 
Q 1084 1628 1822 1897 
L 1822 2009 
Q 1822 2438 1686 2597 
Q 1550 2756 1291 2756 
Q 1094 2756 978 2650 
Q 859 2544 859 2406 
L 866 2225 
Q 866 2081 792 2003 
Q 719 1925 600 1925 
Q 484 1925 411 2006 
Q 338 2088 338 2228 
Q 338 2497 613 2722 
Q 888 2947 1384 2947 
Q 1766 2947 2009 2819 
Q 2194 2722 2281 2516 
Q 2338 2381 2338 1966 
L 2338 994 
Q 2338 584 2353 492 
Q 2369 400 2405 369 
Q 2441 338 2488 338 
Q 2538 338 2575 359 
Q 2641 400 2828 588 
L 2828 413 
Q 2478 -56 2159 -56 
Q 2006 -56 1915 50 
Q 1825 156 1822 413 
z
M 1822 616 
L 1822 1706 
Q 1350 1519 1213 1441 
Q 966 1303 859 1153 
Q 753 1003 753 825 
Q 753 600 887 451 
Q 1022 303 1197 303 
Q 1434 303 1822 616 
z
" transform="scale(0.015625)"/>
       <path id="TimesNewRomanPSMT-67" d="M 966 1044 
Q 703 1172 562 1401 
Q 422 1631 422 1909 
Q 422 2334 742 2640 
Q 1063 2947 1563 2947 
Q 1972 2947 2272 2747 
L 2878 2747 
Q 3013 2747 3034 2739 
Q 3056 2731 3066 2713 
Q 3084 2684 3084 2613 
Q 3084 2531 3069 2500 
Q 3059 2484 3036 2475 
Q 3013 2466 2878 2466 
L 2506 2466 
Q 2681 2241 2681 1891 
Q 2681 1491 2375 1206 
Q 2069 922 1553 922 
Q 1341 922 1119 984 
Q 981 866 932 777 
Q 884 688 884 625 
Q 884 572 936 522 
Q 988 472 1138 450 
Q 1225 438 1575 428 
Q 2219 413 2409 384 
Q 2700 344 2873 169 
Q 3047 -6 3047 -263 
Q 3047 -616 2716 -925 
Q 2228 -1381 1444 -1381 
Q 841 -1381 425 -1109 
Q 191 -953 191 -784 
Q 191 -709 225 -634 
Q 278 -519 444 -313 
Q 466 -284 763 25 
Q 600 122 533 198 
Q 466 275 466 372 
Q 466 481 555 628 
Q 644 775 966 1044 
z
M 1509 2797 
Q 1278 2797 1122 2612 
Q 966 2428 966 2047 
Q 966 1553 1178 1281 
Q 1341 1075 1591 1075 
Q 1828 1075 1981 1253 
Q 2134 1431 2134 1813 
Q 2134 2309 1919 2591 
Q 1759 2797 1509 2797 
z
M 934 0 
Q 788 -159 713 -296 
Q 638 -434 638 -550 
Q 638 -700 819 -813 
Q 1131 -1006 1722 -1006 
Q 2284 -1006 2551 -807 
Q 2819 -609 2819 -384 
Q 2819 -222 2659 -153 
Q 2497 -84 2016 -72 
Q 1313 -53 934 0 
z
" transform="scale(0.015625)"/>
       <path id="TimesNewRomanPSMT-20" transform="scale(0.015625)"/>
       <path id="TimesNewRomanPSMT-74" d="M 1031 3803 
L 1031 2863 
L 1700 2863 
L 1700 2644 
L 1031 2644 
L 1031 788 
Q 1031 509 1111 412 
Q 1191 316 1316 316 
Q 1419 316 1516 380 
Q 1613 444 1666 569 
L 1788 569 
Q 1678 263 1478 108 
Q 1278 -47 1066 -47 
Q 922 -47 784 33 
Q 647 113 581 261 
Q 516 409 516 719 
L 516 2644 
L 63 2644 
L 63 2747 
Q 234 2816 414 2980 
Q 594 3144 734 3369 
Q 806 3488 934 3803 
L 1031 3803 
z
" transform="scale(0.015625)"/>
       <path id="TimesNewRomanPSMT-69" d="M 928 4444 
Q 1059 4444 1151 4351 
Q 1244 4259 1244 4128 
Q 1244 3997 1151 3903 
Q 1059 3809 928 3809 
Q 797 3809 703 3903 
Q 609 3997 609 4128 
Q 609 4259 701 4351 
Q 794 4444 928 4444 
z
M 1188 2947 
L 1188 647 
Q 1188 378 1227 289 
Q 1266 200 1342 156 
Q 1419 113 1622 113 
L 1622 0 
L 231 0 
L 231 113 
Q 441 113 512 153 
Q 584 194 626 287 
Q 669 381 669 647 
L 669 1750 
Q 669 2216 641 2353 
Q 619 2453 572 2492 
Q 525 2531 444 2531 
Q 356 2531 231 2484 
L 188 2597 
L 1050 2947 
L 1188 2947 
z
" transform="scale(0.015625)"/>
       <path id="TimesNewRomanPSMT-6d" d="M 1050 2338 
Q 1363 2650 1419 2697 
Q 1559 2816 1721 2881 
Q 1884 2947 2044 2947 
Q 2313 2947 2506 2790 
Q 2700 2634 2766 2338 
Q 3088 2713 3309 2830 
Q 3531 2947 3766 2947 
Q 3994 2947 4170 2830 
Q 4347 2713 4450 2447 
Q 4519 2266 4519 1878 
L 4519 647 
Q 4519 378 4559 278 
Q 4591 209 4675 161 
Q 4759 113 4950 113 
L 4950 0 
L 3538 0 
L 3538 113 
L 3597 113 
Q 3781 113 3884 184 
Q 3956 234 3988 344 
Q 4000 397 4000 647 
L 4000 1878 
Q 4000 2228 3916 2372 
Q 3794 2572 3525 2572 
Q 3359 2572 3192 2489 
Q 3025 2406 2788 2181 
L 2781 2147 
L 2788 2013 
L 2788 647 
Q 2788 353 2820 281 
Q 2853 209 2943 161 
Q 3034 113 3253 113 
L 3253 0 
L 1806 0 
L 1806 113 
Q 2044 113 2133 169 
Q 2222 225 2256 338 
Q 2272 391 2272 647 
L 2272 1878 
Q 2272 2228 2169 2381 
Q 2031 2581 1784 2581 
Q 1616 2581 1450 2491 
Q 1191 2353 1050 2181 
L 1050 647 
Q 1050 366 1089 281 
Q 1128 197 1204 155 
Q 1281 113 1516 113 
L 1516 0 
L 100 0 
L 100 113 
Q 297 113 375 155 
Q 453 197 493 289 
Q 534 381 534 647 
L 534 1741 
Q 534 2213 506 2350 
Q 484 2453 437 2492 
Q 391 2531 309 2531 
Q 222 2531 100 2484 
L 53 2597 
L 916 2947 
L 1050 2947 
L 1050 2338 
z
" transform="scale(0.015625)"/>
       <path id="TimesNewRomanPSMT-2f" d="M 1794 4444 
L 259 -88 
L 9 -88 
L 1544 4444 
L 1794 4444 
z
" transform="scale(0.015625)"/>
       <path id="TimesNewRomanPSMT-63" d="M 2631 1088 
Q 2516 522 2178 217 
Q 1841 -88 1431 -88 
Q 944 -88 581 321 
Q 219 731 219 1428 
Q 219 2103 620 2525 
Q 1022 2947 1584 2947 
Q 2006 2947 2278 2723 
Q 2550 2500 2550 2259 
Q 2550 2141 2473 2067 
Q 2397 1994 2259 1994 
Q 2075 1994 1981 2113 
Q 1928 2178 1911 2362 
Q 1894 2547 1784 2644 
Q 1675 2738 1481 2738 
Q 1169 2738 978 2506 
Q 725 2200 725 1697 
Q 725 1184 976 792 
Q 1228 400 1656 400 
Q 1963 400 2206 609 
Q 2378 753 2541 1131 
L 2631 1088 
z
" transform="scale(0.015625)"/>
       <path id="TimesNewRomanPSMT-6e" d="M 1034 2341 
Q 1538 2947 1994 2947 
Q 2228 2947 2397 2830 
Q 2566 2713 2666 2444 
Q 2734 2256 2734 1869 
L 2734 647 
Q 2734 375 2778 278 
Q 2813 200 2889 156 
Q 2966 113 3172 113 
L 3172 0 
L 1756 0 
L 1756 113 
L 1816 113 
Q 2016 113 2095 173 
Q 2175 234 2206 353 
Q 2219 400 2219 647 
L 2219 1819 
Q 2219 2209 2117 2386 
Q 2016 2563 1775 2563 
Q 1403 2563 1034 2156 
L 1034 647 
Q 1034 356 1069 288 
Q 1113 197 1189 155 
Q 1266 113 1500 113 
L 1500 0 
L 84 0 
L 84 113 
L 147 113 
Q 366 113 442 223 
Q 519 334 519 647 
L 519 1709 
Q 519 2225 495 2337 
Q 472 2450 423 2490 
Q 375 2531 294 2531 
Q 206 2531 84 2484 
L 38 2597 
L 900 2947 
L 1034 2947 
L 1034 2341 
z
" transform="scale(0.015625)"/>
      </defs>
      <use xlink:href="#TimesNewRomanPSMT-41"/>
      <use xlink:href="#TimesNewRomanPSMT-76" x="64.841797"/>
      <use xlink:href="#TimesNewRomanPSMT-65" x="114.841797"/>
      <use xlink:href="#TimesNewRomanPSMT-72" x="159.226562"/>
      <use xlink:href="#TimesNewRomanPSMT-61" x="192.527344"/>
      <use xlink:href="#TimesNewRomanPSMT-67" x="236.912109"/>
      <use xlink:href="#TimesNewRomanPSMT-65" x="286.912109"/>
      <use xlink:href="#TimesNewRomanPSMT-20" x="331.296875"/>
      <use xlink:href="#TimesNewRomanPSMT-74" x="356.296875"/>
      <use xlink:href="#TimesNewRomanPSMT-69" x="384.080078"/>
      <use xlink:href="#TimesNewRomanPSMT-6d" x="411.863281"/>
      <use xlink:href="#TimesNewRomanPSMT-65" x="489.646484"/>
      <use xlink:href="#TimesNewRomanPSMT-20" x="534.03125"/>
      <use xlink:href="#TimesNewRomanPSMT-2f" x="559.03125"/>
      <use xlink:href="#TimesNewRomanPSMT-20" x="586.814453"/>
      <use xlink:href="#TimesNewRomanPSMT-73" x="611.814453"/>
      <use xlink:href="#TimesNewRomanPSMT-63" x="650.730469"/>
      <use xlink:href="#TimesNewRomanPSMT-65" x="695.115234"/>
      <use xlink:href="#TimesNewRomanPSMT-6e" x="739.5"/>
      <use xlink:href="#TimesNewRomanPSMT-65" x="789.5"/>
     </g>
    </g>
   </g>
   <g id="line2d_9">
    <path d="M 74.849545 94.33608 
L 163.622273 94.127711 
L 252.395 93.813649 
L 341.167727 92.621068 
L 429.940455 89.689487 
" clip-path="url(#pef42b22c0f)" style="fill: none; stroke: #0080ff; stroke-opacity: 0.7; stroke-width: 3.5; stroke-linecap: square"/>
    <defs>
     <path id="m7cd4c6277d" d="M 0 2.5 
C 0.663008 2.5 1.29895 2.236584 1.767767 1.767767 
C 2.236584 1.29895 2.5 0.663008 2.5 0 
C 2.5 -0.663008 2.236584 -1.29895 1.767767 -1.767767 
C 1.29895 -2.236584 0.663008 -2.5 0 -2.5 
C -0.663008 -2.5 -1.29895 -2.236584 -1.767767 -1.767767 
C -2.236584 -1.29895 -2.5 -0.663008 -2.5 0 
C -2.5 0.663008 -2.236584 1.29895 -1.767767 1.767767 
C -1.29895 2.236584 -0.663008 2.5 0 2.5 
z
" style="stroke: #0080ff; stroke-opacity: 0.7"/>
    </defs>
    <g clip-path="url(#pef42b22c0f)">
     <use xlink:href="#m7cd4c6277d" x="74.849545" y="94.33608" style="fill: #0080ff; fill-opacity: 0.7; stroke: #0080ff; stroke-opacity: 0.7"/>
     <use xlink:href="#m7cd4c6277d" x="163.622273" y="94.127711" style="fill: #0080ff; fill-opacity: 0.7; stroke: #0080ff; stroke-opacity: 0.7"/>
     <use xlink:href="#m7cd4c6277d" x="252.395" y="93.813649" style="fill: #0080ff; fill-opacity: 0.7; stroke: #0080ff; stroke-opacity: 0.7"/>
     <use xlink:href="#m7cd4c6277d" x="341.167727" y="92.621068" style="fill: #0080ff; fill-opacity: 0.7; stroke: #0080ff; stroke-opacity: 0.7"/>
     <use xlink:href="#m7cd4c6277d" x="429.940455" y="89.689487" style="fill: #0080ff; fill-opacity: 0.7; stroke: #0080ff; stroke-opacity: 0.7"/>
    </g>
   </g>
   <g id="line2d_10">
    <path d="M 74.849545 94.35649 
L 163.622273 94.294667 
L 252.395 93.510781 
L 341.167727 82.159619 
L 429.940455 18.875053 
" clip-path="url(#pef42b22c0f)" style="fill: none; stroke: #5580aa; stroke-opacity: 0.7; stroke-width: 3.5; stroke-linecap: square"/>
    <defs>
     <path id="m4bf7267f6b" d="M 0 2.5 
C 0.663008 2.5 1.29895 2.236584 1.767767 1.767767 
C 2.236584 1.29895 2.5 0.663008 2.5 0 
C 2.5 -0.663008 2.236584 -1.29895 1.767767 -1.767767 
C 1.29895 -2.236584 0.663008 -2.5 0 -2.5 
C -0.663008 -2.5 -1.29895 -2.236584 -1.767767 -1.767767 
C -2.236584 -1.29895 -2.5 -0.663008 -2.5 0 
C -2.5 0.663008 -2.236584 1.29895 -1.767767 1.767767 
C -1.29895 2.236584 -0.663008 2.5 0 2.5 
z
" style="stroke: #5580aa; stroke-opacity: 0.7"/>
    </defs>
    <g clip-path="url(#pef42b22c0f)">
     <use xlink:href="#m4bf7267f6b" x="74.849545" y="94.35649" style="fill: #5580aa; fill-opacity: 0.7; stroke: #5580aa; stroke-opacity: 0.7"/>
     <use xlink:href="#m4bf7267f6b" x="163.622273" y="94.294667" style="fill: #5580aa; fill-opacity: 0.7; stroke: #5580aa; stroke-opacity: 0.7"/>
     <use xlink:href="#m4bf7267f6b" x="252.395" y="93.510781" style="fill: #5580aa; fill-opacity: 0.7; stroke: #5580aa; stroke-opacity: 0.7"/>
     <use xlink:href="#m4bf7267f6b" x="341.167727" y="82.159619" style="fill: #5580aa; fill-opacity: 0.7; stroke: #5580aa; stroke-opacity: 0.7"/>
     <use xlink:href="#m4bf7267f6b" x="429.940455" y="18.875053" style="fill: #5580aa; fill-opacity: 0.7; stroke: #5580aa; stroke-opacity: 0.7"/>
    </g>
   </g>
   <g id="line2d_11">
    <path d="M 74.849545 93.218211 
L 163.622273 91.179398 
L 252.395 86.490603 
L 341.167727 76.301971 
L 429.940455 48.900481 
" clip-path="url(#pef42b22c0f)" style="fill: none; stroke: #aa8055; stroke-opacity: 0.7; stroke-width: 3.5; stroke-linecap: square"/>
    <defs>
     <path id="mc842bdedcb" d="M 0 2.5 
C 0.663008 2.5 1.29895 2.236584 1.767767 1.767767 
C 2.236584 1.29895 2.5 0.663008 2.5 0 
C 2.5 -0.663008 2.236584 -1.29895 1.767767 -1.767767 
C 1.29895 -2.236584 0.663008 -2.5 0 -2.5 
C -0.663008 -2.5 -1.29895 -2.236584 -1.767767 -1.767767 
C -2.236584 -1.29895 -2.5 -0.663008 -2.5 0 
C -2.5 0.663008 -2.236584 1.29895 -1.767767 1.767767 
C -1.29895 2.236584 -0.663008 2.5 0 2.5 
z
" style="stroke: #aa8055; stroke-opacity: 0.7"/>
    </defs>
    <g clip-path="url(#pef42b22c0f)">
     <use xlink:href="#mc842bdedcb" x="74.849545" y="93.218211" style="fill: #aa8055; fill-opacity: 0.7; stroke: #aa8055; stroke-opacity: 0.7"/>
     <use xlink:href="#mc842bdedcb" x="163.622273" y="91.179398" style="fill: #aa8055; fill-opacity: 0.7; stroke: #aa8055; stroke-opacity: 0.7"/>
     <use xlink:href="#mc842bdedcb" x="252.395" y="86.490603" style="fill: #aa8055; fill-opacity: 0.7; stroke: #aa8055; stroke-opacity: 0.7"/>
     <use xlink:href="#mc842bdedcb" x="341.167727" y="76.301971" style="fill: #aa8055; fill-opacity: 0.7; stroke: #aa8055; stroke-opacity: 0.7"/>
     <use xlink:href="#mc842bdedcb" x="429.940455" y="48.900481" style="fill: #aa8055; fill-opacity: 0.7; stroke: #aa8055; stroke-opacity: 0.7"/>
    </g>
   </g>
   <g id="line2d_12">
    <path d="M 74.849545 94.361182 
L 163.622273 94.340163 
L 252.395 94.12545 
L 341.167727 92.357668 
L 429.940455 86.477923 
" clip-path="url(#pef42b22c0f)" style="fill: none; stroke: #ff8000; stroke-opacity: 0.7; stroke-width: 3.5; stroke-linecap: square"/>
    <defs>
     <path id="m39c3d063af" d="M 0 2.5 
C 0.663008 2.5 1.29895 2.236584 1.767767 1.767767 
C 2.236584 1.29895 2.5 0.663008 2.5 0 
C 2.5 -0.663008 2.236584 -1.29895 1.767767 -1.767767 
C 1.29895 -2.236584 0.663008 -2.5 0 -2.5 
C -0.663008 -2.5 -1.29895 -2.236584 -1.767767 -1.767767 
C -2.236584 -1.29895 -2.5 -0.663008 -2.5 0 
C -2.5 0.663008 -2.236584 1.29895 -1.767767 1.767767 
C -1.29895 2.236584 -0.663008 2.5 0 2.5 
z
" style="stroke: #ff8000; stroke-opacity: 0.7"/>
    </defs>
    <g clip-path="url(#pef42b22c0f)">
     <use xlink:href="#m39c3d063af" x="74.849545" y="94.361182" style="fill: #ff8000; fill-opacity: 0.7; stroke: #ff8000; stroke-opacity: 0.7"/>
     <use xlink:href="#m39c3d063af" x="163.622273" y="94.340163" style="fill: #ff8000; fill-opacity: 0.7; stroke: #ff8000; stroke-opacity: 0.7"/>
     <use xlink:href="#m39c3d063af" x="252.395" y="94.12545" style="fill: #ff8000; fill-opacity: 0.7; stroke: #ff8000; stroke-opacity: 0.7"/>
     <use xlink:href="#m39c3d063af" x="341.167727" y="92.357668" style="fill: #ff8000; fill-opacity: 0.7; stroke: #ff8000; stroke-opacity: 0.7"/>
     <use xlink:href="#m39c3d063af" x="429.940455" y="86.477923" style="fill: #ff8000; fill-opacity: 0.7; stroke: #ff8000; stroke-opacity: 0.7"/>
    </g>
   </g>
   <g id="patch_3">
    <path d="M 57.095 94.363191 
L 57.095 11.36625 
" style="fill: none; stroke: #000000; stroke-width: 0.8; stroke-linejoin: miter; stroke-linecap: square"/>
   </g>
   <g id="patch_4">
    <path d="M 447.695 94.363191 
L 447.695 11.36625 
" style="fill: none; stroke: #000000; stroke-width: 0.8; stroke-linejoin: miter; stroke-linecap: square"/>
   </g>
   <g id="patch_5">
    <path d="M 57.095 94.363191 
L 447.695 94.363191 
" style="fill: none; stroke: #000000; stroke-width: 0.8; stroke-linejoin: miter; stroke-linecap: square"/>
   </g>
   <g id="patch_6">
    <path d="M 57.095 11.36625 
L 447.695 11.36625 
" style="fill: none; stroke: #000000; stroke-width: 0.8; stroke-linejoin: miter; stroke-linecap: square"/>
   </g>
   <g id="legend_1">
    <g id="patch_7">
     <path d="M 64.095 63.54375 
L 231.895 63.54375 
Q 233.895 63.54375 233.895 61.54375 
L 233.895 18.36625 
Q 233.895 16.36625 231.895 16.36625 
L 64.095 16.36625 
Q 62.095 16.36625 62.095 18.36625 
L 62.095 61.54375 
Q 62.095 63.54375 64.095 63.54375 
z
" style="fill: #ffffff; opacity: 0.8; stroke: #cccccc; stroke-linejoin: miter"/>
    </g>
    <g id="text_10">
     <!-- Approaches -->
     <g transform="translate(119.338437 28.69875) scale(0.12 -0.12)">
      <defs>
       <path id="TimesNewRomanPSMT-70" d="M -6 2578 
L 875 2934 
L 994 2934 
L 994 2266 
Q 1216 2644 1439 2795 
Q 1663 2947 1909 2947 
Q 2341 2947 2628 2609 
Q 2981 2197 2981 1534 
Q 2981 794 2556 309 
Q 2206 -88 1675 -88 
Q 1444 -88 1275 -22 
Q 1150 25 994 166 
L 994 -706 
Q 994 -1000 1030 -1079 
Q 1066 -1159 1155 -1206 
Q 1244 -1253 1478 -1253 
L 1478 -1369 
L -22 -1369 
L -22 -1253 
L 56 -1253 
Q 228 -1256 350 -1188 
Q 409 -1153 442 -1076 
Q 475 -1000 475 -688 
L 475 2019 
Q 475 2297 450 2372 
Q 425 2447 370 2484 
Q 316 2522 222 2522 
Q 147 2522 31 2478 
L -6 2578 
z
M 994 2081 
L 994 1013 
Q 994 666 1022 556 
Q 1066 375 1236 237 
Q 1406 100 1666 100 
Q 1978 100 2172 344 
Q 2425 663 2425 1241 
Q 2425 1897 2138 2250 
Q 1938 2494 1663 2494 
Q 1513 2494 1366 2419 
Q 1253 2363 994 2081 
z
" transform="scale(0.015625)"/>
       <path id="TimesNewRomanPSMT-6f" d="M 1600 2947 
Q 2250 2947 2644 2453 
Q 2978 2031 2978 1484 
Q 2978 1100 2793 706 
Q 2609 313 2286 112 
Q 1963 -88 1566 -88 
Q 919 -88 538 428 
Q 216 863 216 1403 
Q 216 1797 411 2186 
Q 606 2575 925 2761 
Q 1244 2947 1600 2947 
z
M 1503 2744 
Q 1338 2744 1170 2645 
Q 1003 2547 900 2300 
Q 797 2053 797 1666 
Q 797 1041 1045 587 
Q 1294 134 1700 134 
Q 2003 134 2200 384 
Q 2397 634 2397 1244 
Q 2397 2006 2069 2444 
Q 1847 2744 1503 2744 
z
" transform="scale(0.015625)"/>
       <path id="TimesNewRomanPSMT-68" d="M 1041 4444 
L 1041 2350 
Q 1388 2731 1591 2839 
Q 1794 2947 1997 2947 
Q 2241 2947 2416 2812 
Q 2591 2678 2675 2391 
Q 2734 2191 2734 1659 
L 2734 647 
Q 2734 375 2778 275 
Q 2809 200 2884 156 
Q 2959 113 3159 113 
L 3159 0 
L 1753 0 
L 1753 113 
L 1819 113 
Q 2019 113 2097 173 
Q 2175 234 2206 353 
Q 2216 403 2216 647 
L 2216 1659 
Q 2216 2128 2167 2275 
Q 2119 2422 2012 2495 
Q 1906 2569 1756 2569 
Q 1603 2569 1437 2487 
Q 1272 2406 1041 2159 
L 1041 647 
Q 1041 353 1073 281 
Q 1106 209 1195 161 
Q 1284 113 1503 113 
L 1503 0 
L 84 0 
L 84 113 
Q 275 113 384 172 
Q 447 203 484 290 
Q 522 378 522 647 
L 522 3238 
Q 522 3728 498 3840 
Q 475 3953 426 3993 
Q 378 4034 297 4034 
Q 231 4034 84 3984 
L 41 4094 
L 897 4444 
L 1041 4444 
z
" transform="scale(0.015625)"/>
      </defs>
      <use xlink:href="#TimesNewRomanPSMT-41"/>
      <use xlink:href="#TimesNewRomanPSMT-70" x="72.216797"/>
      <use xlink:href="#TimesNewRomanPSMT-70" x="122.216797"/>
      <use xlink:href="#TimesNewRomanPSMT-72" x="172.216797"/>
      <use xlink:href="#TimesNewRomanPSMT-6f" x="205.517578"/>
      <use xlink:href="#TimesNewRomanPSMT-61" x="255.517578"/>
      <use xlink:href="#TimesNewRomanPSMT-63" x="299.902344"/>
      <use xlink:href="#TimesNewRomanPSMT-68" x="344.287109"/>
      <use xlink:href="#TimesNewRomanPSMT-65" x="394.287109"/>
      <use xlink:href="#TimesNewRomanPSMT-73" x="438.671875"/>
     </g>
    </g>
    <g id="line2d_13">
     <path d="M 66.095 39.765625 
L 76.095 39.765625 
L 86.095 39.765625 
" style="fill: none; stroke: #0080ff; stroke-opacity: 0.7; stroke-width: 3.5; stroke-linecap: square"/>
     <g>
      <use xlink:href="#m7cd4c6277d" x="76.095" y="39.765625" style="fill: #0080ff; fill-opacity: 0.7; stroke: #0080ff; stroke-opacity: 0.7"/>
     </g>
    </g>
    <g id="text_11">
     <!-- $\bf{SB-O}$ -->
     <g transform="translate(94.095 43.265625) scale(0.1 -0.1)">
      <defs>
       <path id="DejaVuSans-Bold-53" d="M 3834 4519 
L 3834 3531 
Q 3450 3703 3084 3790 
Q 2719 3878 2394 3878 
Q 1963 3878 1756 3759 
Q 1550 3641 1550 3391 
Q 1550 3203 1689 3098 
Q 1828 2994 2194 2919 
L 2706 2816 
Q 3484 2659 3812 2340 
Q 4141 2022 4141 1434 
Q 4141 663 3683 286 
Q 3225 -91 2284 -91 
Q 1841 -91 1394 -6 
Q 947 78 500 244 
L 500 1259 
Q 947 1022 1364 901 
Q 1781 781 2169 781 
Q 2563 781 2772 912 
Q 2981 1044 2981 1288 
Q 2981 1506 2839 1625 
Q 2697 1744 2272 1838 
L 1806 1941 
Q 1106 2091 782 2419 
Q 459 2747 459 3303 
Q 459 4000 909 4375 
Q 1359 4750 2203 4750 
Q 2588 4750 2994 4692 
Q 3400 4634 3834 4519 
z
" transform="scale(0.015625)"/>
       <path id="DejaVuSans-Bold-42" d="M 2456 2859 
Q 2741 2859 2887 2984 
Q 3034 3109 3034 3353 
Q 3034 3594 2887 3720 
Q 2741 3847 2456 3847 
L 1791 3847 
L 1791 2859 
L 2456 2859 
z
M 2497 819 
Q 2859 819 3042 972 
Q 3225 1125 3225 1434 
Q 3225 1738 3044 1889 
Q 2863 2041 2497 2041 
L 1791 2041 
L 1791 819 
L 2497 819 
z
M 3616 2497 
Q 4003 2384 4215 2081 
Q 4428 1778 4428 1338 
Q 4428 663 3972 331 
Q 3516 0 2584 0 
L 588 0 
L 588 4666 
L 2394 4666 
Q 3366 4666 3802 4372 
Q 4238 4078 4238 3431 
Q 4238 3091 4078 2852 
Q 3919 2613 3616 2497 
z
" transform="scale(0.015625)"/>
       <path id="DejaVuSans-Bold-2212" d="M 678 2375 
L 4684 2375 
L 4684 1638 
L 678 1638 
L 678 2375 
z
" transform="scale(0.015625)"/>
       <path id="DejaVuSans-Bold-4f" d="M 2719 3878 
Q 2169 3878 1866 3472 
Q 1563 3066 1563 2328 
Q 1563 1594 1866 1187 
Q 2169 781 2719 781 
Q 3272 781 3575 1187 
Q 3878 1594 3878 2328 
Q 3878 3066 3575 3472 
Q 3272 3878 2719 3878 
z
M 2719 4750 
Q 3844 4750 4481 4106 
Q 5119 3463 5119 2328 
Q 5119 1197 4481 553 
Q 3844 -91 2719 -91 
Q 1597 -91 958 553 
Q 319 1197 319 2328 
Q 319 3463 958 4106 
Q 1597 4750 2719 4750 
z
" transform="scale(0.015625)"/>
      </defs>
      <use xlink:href="#DejaVuSans-Bold-53" transform="translate(0 0.78125)"/>
      <use xlink:href="#DejaVuSans-Bold-42" transform="translate(72.021484 0.78125)"/>
      <use xlink:href="#DejaVuSans-Bold-2212" transform="translate(167.724609 0.78125)"/>
      <use xlink:href="#DejaVuSans-Bold-4f" transform="translate(270.996094 0.78125)"/>
     </g>
    </g>
    <g id="line2d_14">
     <path d="M 66.095 53.904687 
L 76.095 53.904687 
L 86.095 53.904687 
" style="fill: none; stroke: #5580aa; stroke-opacity: 0.7; stroke-width: 3.5; stroke-linecap: square"/>
     <g>
      <use xlink:href="#m4bf7267f6b" x="76.095" y="53.904687" style="fill: #5580aa; fill-opacity: 0.7; stroke: #5580aa; stroke-opacity: 0.7"/>
     </g>
    </g>
    <g id="text_12">
     <!-- $\bf{RS-O}$ -->
     <g transform="translate(94.095 57.404687) scale(0.1 -0.1)">
      <defs>
       <path id="DejaVuSans-Bold-52" d="M 2297 2597 
Q 2675 2597 2839 2737 
Q 3003 2878 3003 3200 
Q 3003 3519 2839 3656 
Q 2675 3794 2297 3794 
L 1791 3794 
L 1791 2597 
L 2297 2597 
z
M 1791 1766 
L 1791 0 
L 588 0 
L 588 4666 
L 2425 4666 
Q 3347 4666 3776 4356 
Q 4206 4047 4206 3378 
Q 4206 2916 3982 2619 
Q 3759 2322 3309 2181 
Q 3556 2125 3751 1926 
Q 3947 1728 4147 1325 
L 4800 0 
L 3519 0 
L 2950 1159 
Q 2778 1509 2601 1637 
Q 2425 1766 2131 1766 
L 1791 1766 
z
" transform="scale(0.015625)"/>
      </defs>
      <use xlink:href="#DejaVuSans-Bold-52" transform="translate(0 0.78125)"/>
      <use xlink:href="#DejaVuSans-Bold-53" transform="translate(77.001953 0.78125)"/>
      <use xlink:href="#DejaVuSans-Bold-2212" transform="translate(168.505859 0.78125)"/>
      <use xlink:href="#DejaVuSans-Bold-4f" transform="translate(271.777344 0.78125)"/>
     </g>
    </g>
    <g id="line2d_15">
     <path d="M 149.795 39.765625 
L 159.795 39.765625 
L 169.795 39.765625 
" style="fill: none; stroke: #aa8055; stroke-opacity: 0.7; stroke-width: 3.5; stroke-linecap: square"/>
     <g>
      <use xlink:href="#mc842bdedcb" x="159.795" y="39.765625" style="fill: #aa8055; fill-opacity: 0.7; stroke: #aa8055; stroke-opacity: 0.7"/>
     </g>
    </g>
    <g id="text_13">
     <!-- $\bf{SB-MSR}$ -->
     <g transform="translate(177.795 43.265625) scale(0.1 -0.1)">
      <defs>
       <path id="DejaVuSans-Bold-4d" d="M 588 4666 
L 2119 4666 
L 3181 2169 
L 4250 4666 
L 5778 4666 
L 5778 0 
L 4641 0 
L 4641 3413 
L 3566 897 
L 2803 897 
L 1728 3413 
L 1728 0 
L 588 0 
L 588 4666 
z
" transform="scale(0.015625)"/>
      </defs>
      <use xlink:href="#DejaVuSans-Bold-53" transform="translate(0 0.78125)"/>
      <use xlink:href="#DejaVuSans-Bold-42" transform="translate(72.021484 0.78125)"/>
      <use xlink:href="#DejaVuSans-Bold-2212" transform="translate(167.724609 0.78125)"/>
      <use xlink:href="#DejaVuSans-Bold-4d" transform="translate(270.996094 0.78125)"/>
      <use xlink:href="#DejaVuSans-Bold-53" transform="translate(370.507812 0.78125)"/>
      <use xlink:href="#DejaVuSans-Bold-52" transform="translate(442.529297 0.78125)"/>
     </g>
    </g>
    <g id="line2d_16">
     <path d="M 149.795 53.904687 
L 159.795 53.904687 
L 169.795 53.904687 
" style="fill: none; stroke: #ff8000; stroke-opacity: 0.7; stroke-width: 3.5; stroke-linecap: square"/>
     <g>
      <use xlink:href="#m39c3d063af" x="159.795" y="53.904687" style="fill: #ff8000; fill-opacity: 0.7; stroke: #ff8000; stroke-opacity: 0.7"/>
     </g>
    </g>
    <g id="text_14">
     <!-- $\bf{RS-MSR}$ -->
     <g transform="translate(177.795 57.404687) scale(0.1 -0.1)">
      <use xlink:href="#DejaVuSans-Bold-52" transform="translate(0 0.78125)"/>
      <use xlink:href="#DejaVuSans-Bold-53" transform="translate(77.001953 0.78125)"/>
      <use xlink:href="#DejaVuSans-Bold-2212" transform="translate(168.505859 0.78125)"/>
      <use xlink:href="#DejaVuSans-Bold-4d" transform="translate(271.777344 0.78125)"/>
      <use xlink:href="#DejaVuSans-Bold-53" transform="translate(371.289062 0.78125)"/>
      <use xlink:href="#DejaVuSans-Bold-52" transform="translate(443.310547 0.78125)"/>
     </g>
    </g>
   </g>
  </g>
  <g id="axes_2">
   <g id="patch_8">
    <path d="M 57.095 193.959521 
L 447.695 193.959521 
L 447.695 110.962579 
L 57.095 110.962579 
z
" style="fill: #ffffff"/>
   </g>
   <g id="matplotlib.axis_3">
    <g id="xtick_1">
     <g id="line2d_17">
      <defs>
       <path id="m201edb23f4" d="M 0 0 
L 0 3.5 
" style="stroke: #000000; stroke-width: 0.8"/>
      </defs>
      <g>
       <use xlink:href="#m201edb23f4" x="74.849545" y="193.959521" style="stroke: #000000; stroke-width: 0.8"/>
      </g>
     </g>
     <g id="text_15">
      <!-- 2 vessels -->
      <g transform="translate(53.349858 209.292021) scale(0.12 -0.12)">
       <defs>
        <path id="TimesNewRomanPSMT-32" d="M 2934 816 
L 2638 0 
L 138 0 
L 138 116 
Q 1241 1122 1691 1759 
Q 2141 2397 2141 2925 
Q 2141 3328 1894 3587 
Q 1647 3847 1303 3847 
Q 991 3847 742 3664 
Q 494 3481 375 3128 
L 259 3128 
Q 338 3706 661 4015 
Q 984 4325 1469 4325 
Q 1984 4325 2329 3994 
Q 2675 3663 2675 3213 
Q 2675 2891 2525 2569 
Q 2294 2063 1775 1497 
Q 997 647 803 472 
L 1909 472 
Q 2247 472 2383 497 
Q 2519 522 2628 598 
Q 2738 675 2819 816 
L 2934 816 
z
" transform="scale(0.015625)"/>
        <path id="TimesNewRomanPSMT-6c" d="M 1184 4444 
L 1184 647 
Q 1184 378 1223 290 
Q 1263 203 1344 158 
Q 1425 113 1647 113 
L 1647 0 
L 244 0 
L 244 113 
Q 441 113 512 153 
Q 584 194 625 287 
Q 666 381 666 647 
L 666 3247 
Q 666 3731 644 3842 
Q 622 3953 573 3993 
Q 525 4034 450 4034 
Q 369 4034 244 3984 
L 191 4094 
L 1044 4444 
L 1184 4444 
z
" transform="scale(0.015625)"/>
       </defs>
       <use xlink:href="#TimesNewRomanPSMT-32"/>
       <use xlink:href="#TimesNewRomanPSMT-20" x="50"/>
       <use xlink:href="#TimesNewRomanPSMT-76" x="75"/>
       <use xlink:href="#TimesNewRomanPSMT-65" x="125"/>
       <use xlink:href="#TimesNewRomanPSMT-73" x="169.384766"/>
       <use xlink:href="#TimesNewRomanPSMT-73" x="208.300781"/>
       <use xlink:href="#TimesNewRomanPSMT-65" x="247.216797"/>
       <use xlink:href="#TimesNewRomanPSMT-6c" x="291.601562"/>
       <use xlink:href="#TimesNewRomanPSMT-73" x="319.384766"/>
      </g>
     </g>
    </g>
    <g id="xtick_2">
     <g id="line2d_18">
      <g>
       <use xlink:href="#m201edb23f4" x="163.622273" y="193.959521" style="stroke: #000000; stroke-width: 0.8"/>
      </g>
     </g>
     <g id="text_16">
      <!-- 3 vessels -->
      <g transform="translate(142.122585 209.292021) scale(0.12 -0.12)">
       <use xlink:href="#TimesNewRomanPSMT-33"/>
       <use xlink:href="#TimesNewRomanPSMT-20" x="50"/>
       <use xlink:href="#TimesNewRomanPSMT-76" x="75"/>
       <use xlink:href="#TimesNewRomanPSMT-65" x="125"/>
       <use xlink:href="#TimesNewRomanPSMT-73" x="169.384766"/>
       <use xlink:href="#TimesNewRomanPSMT-73" x="208.300781"/>
       <use xlink:href="#TimesNewRomanPSMT-65" x="247.216797"/>
       <use xlink:href="#TimesNewRomanPSMT-6c" x="291.601562"/>
       <use xlink:href="#TimesNewRomanPSMT-73" x="319.384766"/>
      </g>
     </g>
    </g>
    <g id="xtick_3">
     <g id="line2d_19">
      <g>
       <use xlink:href="#m201edb23f4" x="252.395" y="193.959521" style="stroke: #000000; stroke-width: 0.8"/>
      </g>
     </g>
     <g id="text_17">
      <!-- 4 vessels -->
      <g transform="translate(230.895313 209.292021) scale(0.12 -0.12)">
       <use xlink:href="#TimesNewRomanPSMT-34"/>
       <use xlink:href="#TimesNewRomanPSMT-20" x="50"/>
       <use xlink:href="#TimesNewRomanPSMT-76" x="75"/>
       <use xlink:href="#TimesNewRomanPSMT-65" x="125"/>
       <use xlink:href="#TimesNewRomanPSMT-73" x="169.384766"/>
       <use xlink:href="#TimesNewRomanPSMT-73" x="208.300781"/>
       <use xlink:href="#TimesNewRomanPSMT-65" x="247.216797"/>
       <use xlink:href="#TimesNewRomanPSMT-6c" x="291.601562"/>
       <use xlink:href="#TimesNewRomanPSMT-73" x="319.384766"/>
      </g>
     </g>
    </g>
    <g id="xtick_4">
     <g id="line2d_20">
      <g>
       <use xlink:href="#m201edb23f4" x="341.167727" y="193.959521" style="stroke: #000000; stroke-width: 0.8"/>
      </g>
     </g>
     <g id="text_18">
      <!-- 5 vessels -->
      <g transform="translate(319.66804 209.292021) scale(0.12 -0.12)">
       <use xlink:href="#TimesNewRomanPSMT-35"/>
       <use xlink:href="#TimesNewRomanPSMT-20" x="50"/>
       <use xlink:href="#TimesNewRomanPSMT-76" x="75"/>
       <use xlink:href="#TimesNewRomanPSMT-65" x="125"/>
       <use xlink:href="#TimesNewRomanPSMT-73" x="169.384766"/>
       <use xlink:href="#TimesNewRomanPSMT-73" x="208.300781"/>
       <use xlink:href="#TimesNewRomanPSMT-65" x="247.216797"/>
       <use xlink:href="#TimesNewRomanPSMT-6c" x="291.601562"/>
       <use xlink:href="#TimesNewRomanPSMT-73" x="319.384766"/>
      </g>
     </g>
    </g>
    <g id="xtick_5">
     <g id="line2d_21">
      <g>
       <use xlink:href="#m201edb23f4" x="429.940455" y="193.959521" style="stroke: #000000; stroke-width: 0.8"/>
      </g>
     </g>
     <g id="text_19">
      <!-- 6 vessels -->
      <g transform="translate(408.440767 209.292021) scale(0.12 -0.12)">
       <use xlink:href="#TimesNewRomanPSMT-36"/>
       <use xlink:href="#TimesNewRomanPSMT-20" x="50"/>
       <use xlink:href="#TimesNewRomanPSMT-76" x="75"/>
       <use xlink:href="#TimesNewRomanPSMT-65" x="125"/>
       <use xlink:href="#TimesNewRomanPSMT-73" x="169.384766"/>
       <use xlink:href="#TimesNewRomanPSMT-73" x="208.300781"/>
       <use xlink:href="#TimesNewRomanPSMT-65" x="247.216797"/>
       <use xlink:href="#TimesNewRomanPSMT-6c" x="291.601562"/>
       <use xlink:href="#TimesNewRomanPSMT-73" x="319.384766"/>
      </g>
     </g>
    </g>
   </g>
   <g id="matplotlib.axis_4">
    <g id="ytick_9">
     <g id="line2d_22">
      <g>
       <use xlink:href="#m905a106298" x="57.095" y="193.959521" style="stroke: #000000; stroke-width: 0.8"/>
      </g>
     </g>
     <g id="text_20">
      <!-- 0s -->
      <g transform="translate(39.424375 198.125771) scale(0.12 -0.12)">
       <use xlink:href="#TimesNewRomanPSMT-30"/>
       <use xlink:href="#TimesNewRomanPSMT-73" x="50"/>
      </g>
     </g>
    </g>
    <g id="ytick_10">
     <g id="line2d_23">
      <g>
       <use xlink:href="#m905a106298" x="57.095" y="110.962579" style="stroke: #000000; stroke-width: 0.8"/>
      </g>
     </g>
     <g id="text_21">
      <!-- 267s -->
      <g transform="translate(27.424375 115.128829) scale(0.12 -0.12)">
       <use xlink:href="#TimesNewRomanPSMT-32"/>
       <use xlink:href="#TimesNewRomanPSMT-36" x="50"/>
       <use xlink:href="#TimesNewRomanPSMT-37" x="100"/>
       <use xlink:href="#TimesNewRomanPSMT-73" x="150"/>
      </g>
     </g>
    </g>
    <g id="ytick_11">
     <g id="line2d_24">
      <g>
       <use xlink:href="#m905a106298" x="57.095" y="193.959521" style="stroke: #000000; stroke-width: 0.8"/>
      </g>
     </g>
     <g id="text_22">
      <!-- 0s -->
      <g transform="translate(39.424375 198.125771) scale(0.12 -0.12)">
       <use xlink:href="#TimesNewRomanPSMT-30"/>
       <use xlink:href="#TimesNewRomanPSMT-73" x="50"/>
      </g>
     </g>
    </g>
    <g id="ytick_12">
     <g id="line2d_25">
      <g>
       <use xlink:href="#m905a106298" x="57.095" y="177.484472" style="stroke: #000000; stroke-width: 0.8"/>
      </g>
     </g>
     <g id="text_23">
      <!-- 53s -->
      <g transform="translate(33.424375 181.650722) scale(0.12 -0.12)">
       <use xlink:href="#TimesNewRomanPSMT-35"/>
       <use xlink:href="#TimesNewRomanPSMT-33" x="50"/>
       <use xlink:href="#TimesNewRomanPSMT-73" x="100"/>
      </g>
     </g>
    </g>
    <g id="ytick_13">
     <g id="line2d_26">
      <g>
       <use xlink:href="#m905a106298" x="57.095" y="160.698574" style="stroke: #000000; stroke-width: 0.8"/>
      </g>
     </g>
     <g id="text_24">
      <!-- 107s -->
      <g transform="translate(27.424375 164.864824) scale(0.12 -0.12)">
       <use xlink:href="#TimesNewRomanPSMT-31"/>
       <use xlink:href="#TimesNewRomanPSMT-30" x="50"/>
       <use xlink:href="#TimesNewRomanPSMT-37" x="100"/>
       <use xlink:href="#TimesNewRomanPSMT-73" x="150"/>
      </g>
     </g>
    </g>
    <g id="ytick_14">
     <g id="line2d_27">
      <g>
       <use xlink:href="#m905a106298" x="57.095" y="144.223526" style="stroke: #000000; stroke-width: 0.8"/>
      </g>
     </g>
     <g id="text_25">
      <!-- 160s -->
      <g transform="translate(27.424375 148.389776) scale(0.12 -0.12)">
       <use xlink:href="#TimesNewRomanPSMT-31"/>
       <use xlink:href="#TimesNewRomanPSMT-36" x="50"/>
       <use xlink:href="#TimesNewRomanPSMT-30" x="100"/>
       <use xlink:href="#TimesNewRomanPSMT-73" x="150"/>
      </g>
     </g>
    </g>
    <g id="ytick_15">
     <g id="line2d_28">
      <g>
       <use xlink:href="#m905a106298" x="57.095" y="127.437628" style="stroke: #000000; stroke-width: 0.8"/>
      </g>
     </g>
     <g id="text_26">
      <!-- 214s -->
      <g transform="translate(27.424375 131.603878) scale(0.12 -0.12)">
       <use xlink:href="#TimesNewRomanPSMT-32"/>
       <use xlink:href="#TimesNewRomanPSMT-31" x="50"/>
       <use xlink:href="#TimesNewRomanPSMT-34" x="100"/>
       <use xlink:href="#TimesNewRomanPSMT-73" x="150"/>
      </g>
     </g>
    </g>
    <g id="ytick_16">
     <g id="line2d_29">
      <g>
       <use xlink:href="#m905a106298" x="57.095" y="110.962579" style="stroke: #000000; stroke-width: 0.8"/>
      </g>
     </g>
     <g id="text_27">
      <!-- 267s -->
      <g transform="translate(27.424375 115.128829) scale(0.12 -0.12)">
       <use xlink:href="#TimesNewRomanPSMT-32"/>
       <use xlink:href="#TimesNewRomanPSMT-36" x="50"/>
       <use xlink:href="#TimesNewRomanPSMT-37" x="100"/>
       <use xlink:href="#TimesNewRomanPSMT-73" x="150"/>
      </g>
     </g>
    </g>
    <g id="text_28">
     <!-- Average runtime -->
     <g transform="translate(20.835 192.501675) rotate(-90) scale(0.12 -0.12)">
      <defs>
       <path id="TimesNewRomanPSMT-75" d="M 2709 2863 
L 2709 1128 
Q 2709 631 2732 520 
Q 2756 409 2807 365 
Q 2859 322 2928 322 
Q 3025 322 3147 375 
L 3191 266 
L 2334 -88 
L 2194 -88 
L 2194 519 
Q 1825 119 1631 15 
Q 1438 -88 1222 -88 
Q 981 -88 804 51 
Q 628 191 559 409 
Q 491 628 491 1028 
L 491 2306 
Q 491 2509 447 2587 
Q 403 2666 317 2708 
Q 231 2750 6 2747 
L 6 2863 
L 1009 2863 
L 1009 947 
Q 1009 547 1148 422 
Q 1288 297 1484 297 
Q 1619 297 1789 381 
Q 1959 466 2194 703 
L 2194 2325 
Q 2194 2569 2105 2655 
Q 2016 2741 1734 2747 
L 1734 2863 
L 2709 2863 
z
" transform="scale(0.015625)"/>
      </defs>
      <use xlink:href="#TimesNewRomanPSMT-41"/>
      <use xlink:href="#TimesNewRomanPSMT-76" x="64.841797"/>
      <use xlink:href="#TimesNewRomanPSMT-65" x="114.841797"/>
      <use xlink:href="#TimesNewRomanPSMT-72" x="159.226562"/>
      <use xlink:href="#TimesNewRomanPSMT-61" x="192.527344"/>
      <use xlink:href="#TimesNewRomanPSMT-67" x="236.912109"/>
      <use xlink:href="#TimesNewRomanPSMT-65" x="286.912109"/>
      <use xlink:href="#TimesNewRomanPSMT-20" x="331.296875"/>
      <use xlink:href="#TimesNewRomanPSMT-72" x="356.296875"/>
      <use xlink:href="#TimesNewRomanPSMT-75" x="389.597656"/>
      <use xlink:href="#TimesNewRomanPSMT-6e" x="439.597656"/>
      <use xlink:href="#TimesNewRomanPSMT-74" x="489.597656"/>
      <use xlink:href="#TimesNewRomanPSMT-69" x="517.380859"/>
      <use xlink:href="#TimesNewRomanPSMT-6d" x="545.164062"/>
      <use xlink:href="#TimesNewRomanPSMT-65" x="622.947266"/>
     </g>
    </g>
   </g>
   <g id="line2d_30">
    <path d="M 74.849545 193.88174 
L 163.622273 193.284625 
L 252.395 192.400274 
L 341.167727 189.101463 
L 429.940455 181.234898 
" clip-path="url(#p155e6adbb0)" style="fill: none; stroke: #0080ff; stroke-opacity: 0.7; stroke-width: 3.5; stroke-linecap: square"/>
    <g clip-path="url(#p155e6adbb0)">
     <use xlink:href="#m7cd4c6277d" x="74.849545" y="193.88174" style="fill: #0080ff; fill-opacity: 0.7; stroke: #0080ff; stroke-opacity: 0.7"/>
     <use xlink:href="#m7cd4c6277d" x="163.622273" y="193.284625" style="fill: #0080ff; fill-opacity: 0.7; stroke: #0080ff; stroke-opacity: 0.7"/>
     <use xlink:href="#m7cd4c6277d" x="252.395" y="192.400274" style="fill: #0080ff; fill-opacity: 0.7; stroke: #0080ff; stroke-opacity: 0.7"/>
     <use xlink:href="#m7cd4c6277d" x="341.167727" y="189.101463" style="fill: #0080ff; fill-opacity: 0.7; stroke: #0080ff; stroke-opacity: 0.7"/>
     <use xlink:href="#m7cd4c6277d" x="429.940455" y="181.234898" style="fill: #0080ff; fill-opacity: 0.7; stroke: #0080ff; stroke-opacity: 0.7"/>
    </g>
   </g>
   <g id="line2d_31">
    <path d="M 74.849545 193.940295 
L 163.622273 193.76293 
L 252.395 191.514031 
L 341.167727 159.54371 
L 429.940455 118.376952 
" clip-path="url(#p155e6adbb0)" style="fill: none; stroke: #5580aa; stroke-opacity: 0.7; stroke-width: 3.5; stroke-linecap: square"/>
    <g clip-path="url(#p155e6adbb0)">
     <use xlink:href="#m4bf7267f6b" x="74.849545" y="193.940295" style="fill: #5580aa; fill-opacity: 0.7; stroke: #5580aa; stroke-opacity: 0.7"/>
     <use xlink:href="#m4bf7267f6b" x="163.622273" y="193.76293" style="fill: #5580aa; fill-opacity: 0.7; stroke: #5580aa; stroke-opacity: 0.7"/>
     <use xlink:href="#m4bf7267f6b" x="252.395" y="191.514031" style="fill: #5580aa; fill-opacity: 0.7; stroke: #5580aa; stroke-opacity: 0.7"/>
     <use xlink:href="#m4bf7267f6b" x="341.167727" y="159.54371" style="fill: #5580aa; fill-opacity: 0.7; stroke: #5580aa; stroke-opacity: 0.7"/>
     <use xlink:href="#m4bf7267f6b" x="429.940455" y="118.376952" style="fill: #5580aa; fill-opacity: 0.7; stroke: #5580aa; stroke-opacity: 0.7"/>
    </g>
   </g>
   <g id="line2d_32">
    <path d="M 74.849545 190.792927 
L 163.622273 186.177328 
L 252.395 177.517074 
L 341.167727 163.025319 
L 429.940455 133.049365 
" clip-path="url(#p155e6adbb0)" style="fill: none; stroke: #aa8055; stroke-opacity: 0.7; stroke-width: 3.5; stroke-linecap: square"/>
    <g clip-path="url(#p155e6adbb0)">
     <use xlink:href="#mc842bdedcb" x="74.849545" y="190.792927" style="fill: #aa8055; fill-opacity: 0.7; stroke: #aa8055; stroke-opacity: 0.7"/>
     <use xlink:href="#mc842bdedcb" x="163.622273" y="186.177328" style="fill: #aa8055; fill-opacity: 0.7; stroke: #aa8055; stroke-opacity: 0.7"/>
     <use xlink:href="#mc842bdedcb" x="252.395" y="177.517074" style="fill: #aa8055; fill-opacity: 0.7; stroke: #aa8055; stroke-opacity: 0.7"/>
     <use xlink:href="#mc842bdedcb" x="341.167727" y="163.025319" style="fill: #aa8055; fill-opacity: 0.7; stroke: #aa8055; stroke-opacity: 0.7"/>
     <use xlink:href="#mc842bdedcb" x="429.940455" y="133.049365" style="fill: #aa8055; fill-opacity: 0.7; stroke: #aa8055; stroke-opacity: 0.7"/>
    </g>
   </g>
   <g id="line2d_33">
    <path d="M 74.849545 193.953757 
L 163.622273 193.893454 
L 252.395 193.281554 
L 341.167727 188.407227 
L 429.940455 175.431975 
" clip-path="url(#p155e6adbb0)" style="fill: none; stroke: #ff8000; stroke-opacity: 0.7; stroke-width: 3.5; stroke-linecap: square"/>
    <g clip-path="url(#p155e6adbb0)">
     <use xlink:href="#m39c3d063af" x="74.849545" y="193.953757" style="fill: #ff8000; fill-opacity: 0.7; stroke: #ff8000; stroke-opacity: 0.7"/>
     <use xlink:href="#m39c3d063af" x="163.622273" y="193.893454" style="fill: #ff8000; fill-opacity: 0.7; stroke: #ff8000; stroke-opacity: 0.7"/>
     <use xlink:href="#m39c3d063af" x="252.395" y="193.281554" style="fill: #ff8000; fill-opacity: 0.7; stroke: #ff8000; stroke-opacity: 0.7"/>
     <use xlink:href="#m39c3d063af" x="341.167727" y="188.407227" style="fill: #ff8000; fill-opacity: 0.7; stroke: #ff8000; stroke-opacity: 0.7"/>
     <use xlink:href="#m39c3d063af" x="429.940455" y="175.431975" style="fill: #ff8000; fill-opacity: 0.7; stroke: #ff8000; stroke-opacity: 0.7"/>
    </g>
   </g>
   <g id="patch_9">
    <path d="M 57.095 193.959521 
L 57.095 110.962579 
" style="fill: none; stroke: #000000; stroke-width: 0.8; stroke-linejoin: miter; stroke-linecap: square"/>
   </g>
   <g id="patch_10">
    <path d="M 447.695 193.959521 
L 447.695 110.962579 
" style="fill: none; stroke: #000000; stroke-width: 0.8; stroke-linejoin: miter; stroke-linecap: square"/>
   </g>
   <g id="patch_11">
    <path d="M 57.095 193.959521 
L 447.695 193.959521 
" style="fill: none; stroke: #000000; stroke-width: 0.8; stroke-linejoin: miter; stroke-linecap: square"/>
   </g>
   <g id="patch_12">
    <path d="M 57.095 110.962579 
L 447.695 110.962579 
" style="fill: none; stroke: #000000; stroke-width: 0.8; stroke-linejoin: miter; stroke-linecap: square"/>
   </g>
  </g>
  <g id="axes_3">
   <g id="patch_13">
    <path d="M 57.095 293.55585 
L 124.439828 293.55585 
L 124.439828 210.558909 
L 57.095 210.558909 
z
" style="fill: #ffffff"/>
   </g>
   <g id="patch_14">
    <path d="M 60.156129 293.55585 
L 73.045091 293.55585 
L 73.045091 218.104085 
L 60.156129 218.104085 
z
" clip-path="url(#pabbdfccb89)" style="fill: #0080ff; fill-opacity: 0.7; stroke: #000000; stroke-width: 1.5; stroke-linejoin: miter"/>
   </g>
   <g id="patch_15">
    <path d="M 76.267331 293.55585 
L 89.156294 293.55585 
L 89.156294 218.104085 
L 76.267331 218.104085 
z
" clip-path="url(#pabbdfccb89)" style="fill: #5580aa; fill-opacity: 0.7; stroke: #000000; stroke-width: 1.5; stroke-linejoin: miter"/>
   </g>
   <g id="patch_16">
    <path d="M 92.378534 293.55585 
L 105.267496 293.55585 
L 105.267496 220.820349 
L 92.378534 220.820349 
z
" clip-path="url(#pabbdfccb89)" style="fill: #aa8055; fill-opacity: 0.7; stroke: #000000; stroke-width: 1.5; stroke-linejoin: miter"/>
   </g>
   <g id="patch_17">
    <path d="M 108.489737 293.55585 
L 121.378699 293.55585 
L 121.378699 218.104085 
L 108.489737 218.104085 
z
" clip-path="url(#pabbdfccb89)" style="fill: #ff8000; fill-opacity: 0.7; stroke: #000000; stroke-width: 1.5; stroke-linejoin: miter"/>
   </g>
   <g id="matplotlib.axis_5"/>
   <g id="matplotlib.axis_6">
    <g id="ytick_17">
     <g id="line2d_34">
      <g>
       <use xlink:href="#m905a106298" x="57.095" y="293.55585" style="stroke: #000000; stroke-width: 0.8"/>
      </g>
     </g>
     <g id="text_29">
      <!-- 0% -->
      <g transform="translate(34.099375 297.7221) scale(0.12 -0.12)">
       <defs>
        <path id="TimesNewRomanPSMT-25" d="M 4350 4334 
L 1263 -175 
L 984 -175 
L 4072 4334 
L 4350 4334 
z
M 1138 4334 
Q 1559 4334 1792 3984 
Q 2025 3634 2025 3181 
Q 2025 2638 1762 2341 
Q 1500 2044 1131 2044 
Q 884 2044 678 2180 
Q 472 2316 348 2584 
Q 225 2853 225 3181 
Q 225 3509 350 3786 
Q 475 4063 692 4198 
Q 909 4334 1138 4334 
z
M 1128 4159 
Q 969 4159 845 3971 
Q 722 3784 722 3184 
Q 722 2750 791 2522 
Q 844 2350 956 2256 
Q 1022 2200 1119 2200 
Q 1269 2200 1375 2363 
Q 1531 2603 1531 3166 
Q 1531 3759 1378 4000 
Q 1278 4159 1128 4159 
z
M 4206 2103 
Q 4428 2103 4648 1962 
Q 4869 1822 4989 1553 
Q 5109 1284 5109 963 
Q 5109 409 4843 117 
Q 4578 -175 4216 -175 
Q 3988 -175 3773 -34 
Q 3559 106 3436 367 
Q 3313 628 3313 963 
Q 3313 1291 3436 1562 
Q 3559 1834 3773 1968 
Q 3988 2103 4206 2103 
z
M 4209 1938 
Q 4059 1938 3950 1769 
Q 3809 1550 3809 941 
Q 3809 381 3953 159 
Q 4059 0 4209 0 
Q 4353 0 4466 172 
Q 4616 400 4616 956 
Q 4616 1544 4466 1778 
Q 4363 1938 4209 1938 
z
" transform="scale(0.015625)"/>
       </defs>
       <use xlink:href="#TimesNewRomanPSMT-30"/>
       <use xlink:href="#TimesNewRomanPSMT-25" x="50"/>
      </g>
     </g>
    </g>
    <g id="ytick_18">
     <g id="line2d_35">
      <g>
       <use xlink:href="#m905a106298" x="57.095" y="218.104085" style="stroke: #000000; stroke-width: 0.8"/>
      </g>
     </g>
     <g id="text_30">
      <!-- 100% -->
      <g transform="translate(22.099375 222.270335) scale(0.12 -0.12)">
       <use xlink:href="#TimesNewRomanPSMT-31"/>
       <use xlink:href="#TimesNewRomanPSMT-30" x="50"/>
       <use xlink:href="#TimesNewRomanPSMT-30" x="100"/>
       <use xlink:href="#TimesNewRomanPSMT-25" x="150"/>
      </g>
     </g>
    </g>
    <g id="ytick_19">
     <g id="line2d_36">
      <g>
       <use xlink:href="#m905a106298" x="57.095" y="293.55585" style="stroke: #000000; stroke-width: 0.8"/>
      </g>
     </g>
     <g id="text_31">
      <!-- 0% -->
      <g transform="translate(34.099375 297.7221) scale(0.12 -0.12)">
       <use xlink:href="#TimesNewRomanPSMT-30"/>
       <use xlink:href="#TimesNewRomanPSMT-25" x="50"/>
      </g>
     </g>
    </g>
    <g id="ytick_20">
     <g id="line2d_37">
      <g>
       <use xlink:href="#m905a106298" x="57.095" y="278.465497" style="stroke: #000000; stroke-width: 0.8"/>
      </g>
     </g>
     <g id="text_32">
      <!-- 20% -->
      <g transform="translate(28.099375 282.631747) scale(0.12 -0.12)">
       <use xlink:href="#TimesNewRomanPSMT-32"/>
       <use xlink:href="#TimesNewRomanPSMT-30" x="50"/>
       <use xlink:href="#TimesNewRomanPSMT-25" x="100"/>
      </g>
     </g>
    </g>
    <g id="ytick_21">
     <g id="line2d_38">
      <g>
       <use xlink:href="#m905a106298" x="57.095" y="263.375144" style="stroke: #000000; stroke-width: 0.8"/>
      </g>
     </g>
     <g id="text_33">
      <!-- 40% -->
      <g transform="translate(28.099375 267.541394) scale(0.12 -0.12)">
       <use xlink:href="#TimesNewRomanPSMT-34"/>
       <use xlink:href="#TimesNewRomanPSMT-30" x="50"/>
       <use xlink:href="#TimesNewRomanPSMT-25" x="100"/>
      </g>
     </g>
    </g>
    <g id="ytick_22">
     <g id="line2d_39">
      <g>
       <use xlink:href="#m905a106298" x="57.095" y="248.284791" style="stroke: #000000; stroke-width: 0.8"/>
      </g>
     </g>
     <g id="text_34">
      <!-- 60% -->
      <g transform="translate(28.099375 252.451041) scale(0.12 -0.12)">
       <use xlink:href="#TimesNewRomanPSMT-36"/>
       <use xlink:href="#TimesNewRomanPSMT-30" x="50"/>
       <use xlink:href="#TimesNewRomanPSMT-25" x="100"/>
      </g>
     </g>
    </g>
    <g id="ytick_23">
     <g id="line2d_40">
      <g>
       <use xlink:href="#m905a106298" x="57.095" y="233.194438" style="stroke: #000000; stroke-width: 0.8"/>
      </g>
     </g>
     <g id="text_35">
      <!-- 80% -->
      <g transform="translate(28.099375 237.360688) scale(0.12 -0.12)">
       <defs>
        <path id="TimesNewRomanPSMT-38" d="M 1228 2134 
Q 725 2547 579 2797 
Q 434 3047 434 3316 
Q 434 3728 753 4026 
Q 1072 4325 1600 4325 
Q 2113 4325 2425 4047 
Q 2738 3769 2738 3413 
Q 2738 3175 2569 2928 
Q 2400 2681 1866 2347 
Q 2416 1922 2594 1678 
Q 2831 1359 2831 1006 
Q 2831 559 2490 242 
Q 2150 -75 1597 -75 
Q 994 -75 656 303 
Q 388 606 388 966 
Q 388 1247 577 1523 
Q 766 1800 1228 2134 
z
M 1719 2469 
Q 2094 2806 2194 3001 
Q 2294 3197 2294 3444 
Q 2294 3772 2109 3958 
Q 1925 4144 1606 4144 
Q 1288 4144 1088 3959 
Q 888 3775 888 3528 
Q 888 3366 970 3203 
Q 1053 3041 1206 2894 
L 1719 2469 
z
M 1375 2016 
Q 1116 1797 991 1539 
Q 866 1281 866 981 
Q 866 578 1086 336 
Q 1306 94 1647 94 
Q 1984 94 2187 284 
Q 2391 475 2391 747 
Q 2391 972 2272 1150 
Q 2050 1481 1375 2016 
z
" transform="scale(0.015625)"/>
       </defs>
       <use xlink:href="#TimesNewRomanPSMT-38"/>
       <use xlink:href="#TimesNewRomanPSMT-30" x="50"/>
       <use xlink:href="#TimesNewRomanPSMT-25" x="100"/>
      </g>
     </g>
    </g>
    <g id="ytick_24">
     <g id="line2d_41">
      <g>
       <use xlink:href="#m905a106298" x="57.095" y="218.104085" style="stroke: #000000; stroke-width: 0.8"/>
      </g>
     </g>
     <g id="text_36">
      <!-- 100% -->
      <g transform="translate(22.099375 222.270335) scale(0.12 -0.12)">
       <use xlink:href="#TimesNewRomanPSMT-31"/>
       <use xlink:href="#TimesNewRomanPSMT-30" x="50"/>
       <use xlink:href="#TimesNewRomanPSMT-30" x="100"/>
       <use xlink:href="#TimesNewRomanPSMT-25" x="150"/>
      </g>
     </g>
    </g>
    <g id="text_37">
     <!-- Success rate -->
     <g transform="translate(15.5325 281.546442) rotate(-90) scale(0.12 -0.12)">
      <defs>
       <path id="TimesNewRomanPSMT-53" d="M 2934 4334 
L 2934 2869 
L 2819 2869 
Q 2763 3291 2617 3541 
Q 2472 3791 2203 3937 
Q 1934 4084 1647 4084 
Q 1322 4084 1109 3886 
Q 897 3688 897 3434 
Q 897 3241 1031 3081 
Q 1225 2847 1953 2456 
Q 2547 2138 2764 1967 
Q 2981 1797 3098 1565 
Q 3216 1334 3216 1081 
Q 3216 600 2842 251 
Q 2469 -97 1881 -97 
Q 1697 -97 1534 -69 
Q 1438 -53 1133 45 
Q 828 144 747 144 
Q 669 144 623 97 
Q 578 50 556 -97 
L 441 -97 
L 441 1356 
L 556 1356 
Q 638 900 775 673 
Q 913 447 1195 297 
Q 1478 147 1816 147 
Q 2206 147 2432 353 
Q 2659 559 2659 841 
Q 2659 997 2573 1156 
Q 2488 1316 2306 1453 
Q 2184 1547 1640 1851 
Q 1097 2156 867 2337 
Q 638 2519 519 2737 
Q 400 2956 400 3219 
Q 400 3675 750 4004 
Q 1100 4334 1641 4334 
Q 1978 4334 2356 4169 
Q 2531 4091 2603 4091 
Q 2684 4091 2736 4139 
Q 2788 4188 2819 4334 
L 2934 4334 
z
" transform="scale(0.015625)"/>
      </defs>
      <use xlink:href="#TimesNewRomanPSMT-53"/>
      <use xlink:href="#TimesNewRomanPSMT-75" x="55.615234"/>
      <use xlink:href="#TimesNewRomanPSMT-63" x="105.615234"/>
      <use xlink:href="#TimesNewRomanPSMT-63" x="150"/>
      <use xlink:href="#TimesNewRomanPSMT-65" x="194.384766"/>
      <use xlink:href="#TimesNewRomanPSMT-73" x="238.769531"/>
      <use xlink:href="#TimesNewRomanPSMT-73" x="277.685547"/>
      <use xlink:href="#TimesNewRomanPSMT-20" x="316.601562"/>
      <use xlink:href="#TimesNewRomanPSMT-72" x="341.601562"/>
      <use xlink:href="#TimesNewRomanPSMT-61" x="374.902344"/>
      <use xlink:href="#TimesNewRomanPSMT-74" x="419.287109"/>
      <use xlink:href="#TimesNewRomanPSMT-65" x="447.070312"/>
     </g>
    </g>
   </g>
   <g id="patch_18">
    <path d="M 57.095 293.55585 
L 57.095 210.558909 
" style="fill: none; stroke: #000000; stroke-width: 0.8; stroke-linejoin: miter; stroke-linecap: square"/>
   </g>
   <g id="patch_19">
    <path d="M 124.439828 293.55585 
L 124.439828 210.558909 
" style="fill: none; stroke: #000000; stroke-width: 0.8; stroke-linejoin: miter; stroke-linecap: square"/>
   </g>
   <g id="patch_20">
    <path d="M 57.095 293.55585 
L 124.439828 293.55585 
" style="fill: none; stroke: #000000; stroke-width: 0.8; stroke-linejoin: miter; stroke-linecap: square"/>
   </g>
   <g id="patch_21">
    <path d="M 57.095 210.558909 
L 124.439828 210.558909 
" style="fill: none; stroke: #000000; stroke-width: 0.8; stroke-linejoin: miter; stroke-linecap: square"/>
   </g>
  </g>
  <g id="axes_4">
   <g id="patch_22">
    <path d="M 137.908793 293.55585 
L 205.253621 293.55585 
L 205.253621 210.558909 
L 137.908793 210.558909 
z
" style="fill: #ffffff"/>
   </g>
   <g id="patch_23">
    <path d="M 140.969922 293.55585 
L 153.858884 293.55585 
L 153.858884 218.179537 
L 140.969922 218.179537 
z
" clip-path="url(#p3cfdd24c83)" style="fill: #0080ff; fill-opacity: 0.7; stroke: #000000; stroke-width: 1.5; stroke-linejoin: miter"/>
   </g>
   <g id="patch_24">
    <path d="M 157.081124 293.55585 
L 169.970087 293.55585 
L 169.970087 218.104085 
L 157.081124 218.104085 
z
" clip-path="url(#p3cfdd24c83)" style="fill: #5580aa; fill-opacity: 0.7; stroke: #000000; stroke-width: 1.5; stroke-linejoin: miter"/>
   </g>
   <g id="patch_25">
    <path d="M 173.192327 293.55585 
L 186.081289 293.55585 
L 186.081289 229.270946 
L 173.192327 229.270946 
z
" clip-path="url(#p3cfdd24c83)" style="fill: #aa8055; fill-opacity: 0.7; stroke: #000000; stroke-width: 1.5; stroke-linejoin: miter"/>
   </g>
   <g id="patch_26">
    <path d="M 189.30353 293.55585 
L 202.192492 293.55585 
L 202.192492 218.104085 
L 189.30353 218.104085 
z
" clip-path="url(#p3cfdd24c83)" style="fill: #ff8000; fill-opacity: 0.7; stroke: #000000; stroke-width: 1.5; stroke-linejoin: miter"/>
   </g>
   <g id="matplotlib.axis_7"/>
   <g id="matplotlib.axis_8"/>
   <g id="patch_27">
    <path d="M 137.908793 293.55585 
L 137.908793 210.558909 
" style="fill: none; stroke: #000000; stroke-width: 0.8; stroke-linejoin: miter; stroke-linecap: square"/>
   </g>
   <g id="patch_28">
    <path d="M 205.253621 293.55585 
L 205.253621 210.558909 
" style="fill: none; stroke: #000000; stroke-width: 0.8; stroke-linejoin: miter; stroke-linecap: square"/>
   </g>
   <g id="patch_29">
    <path d="M 137.908793 293.55585 
L 205.253621 293.55585 
" style="fill: none; stroke: #000000; stroke-width: 0.8; stroke-linejoin: miter; stroke-linecap: square"/>
   </g>
   <g id="patch_30">
    <path d="M 137.908793 210.558909 
L 205.253621 210.558909 
" style="fill: none; stroke: #000000; stroke-width: 0.8; stroke-linejoin: miter; stroke-linecap: square"/>
   </g>
  </g>
  <g id="axes_5">
   <g id="patch_31">
    <path d="M 218.722586 293.55585 
L 286.067414 293.55585 
L 286.067414 210.558909 
L 218.722586 210.558909 
z
" style="fill: #ffffff"/>
   </g>
   <g id="patch_32">
    <path d="M 221.783715 293.55585 
L 234.672677 293.55585 
L 234.672677 218.934055 
L 221.783715 218.934055 
z
" clip-path="url(#p3353143409)" style="fill: #0080ff; fill-opacity: 0.7; stroke: #000000; stroke-width: 1.5; stroke-linejoin: miter"/>
   </g>
   <g id="patch_33">
    <path d="M 237.894918 293.55585 
L 250.78388 293.55585 
L 250.78388 218.104085 
L 237.894918 218.104085 
z
" clip-path="url(#p3353143409)" style="fill: #5580aa; fill-opacity: 0.7; stroke: #000000; stroke-width: 1.5; stroke-linejoin: miter"/>
   </g>
   <g id="patch_34">
    <path d="M 254.00612 293.55585 
L 266.895082 293.55585 
L 266.895082 238.626965 
L 254.00612 238.626965 
z
" clip-path="url(#p3353143409)" style="fill: #aa8055; fill-opacity: 0.7; stroke: #000000; stroke-width: 1.5; stroke-linejoin: miter"/>
   </g>
   <g id="patch_35">
    <path d="M 270.117323 293.55585 
L 283.006285 293.55585 
L 283.006285 218.556796 
L 270.117323 218.556796 
z
" clip-path="url(#p3353143409)" style="fill: #ff8000; fill-opacity: 0.7; stroke: #000000; stroke-width: 1.5; stroke-linejoin: miter"/>
   </g>
   <g id="matplotlib.axis_9"/>
   <g id="matplotlib.axis_10"/>
   <g id="patch_36">
    <path d="M 218.722586 293.55585 
L 218.722586 210.558909 
" style="fill: none; stroke: #000000; stroke-width: 0.8; stroke-linejoin: miter; stroke-linecap: square"/>
   </g>
   <g id="patch_37">
    <path d="M 286.067414 293.55585 
L 286.067414 210.558909 
" style="fill: none; stroke: #000000; stroke-width: 0.8; stroke-linejoin: miter; stroke-linecap: square"/>
   </g>
   <g id="patch_38">
    <path d="M 218.722586 293.55585 
L 286.067414 293.55585 
" style="fill: none; stroke: #000000; stroke-width: 0.8; stroke-linejoin: miter; stroke-linecap: square"/>
   </g>
   <g id="patch_39">
    <path d="M 218.722586 210.558909 
L 286.067414 210.558909 
" style="fill: none; stroke: #000000; stroke-width: 0.8; stroke-linejoin: miter; stroke-linecap: square"/>
   </g>
  </g>
  <g id="axes_6">
   <g id="patch_40">
    <path d="M 299.536379 293.55585 
L 366.881207 293.55585 
L 366.881207 210.558909 
L 299.536379 210.558909 
z
" style="fill: #ffffff"/>
   </g>
   <g id="patch_41">
    <path d="M 302.597508 293.55585 
L 315.48647 293.55585 
L 315.48647 220.216735 
L 302.597508 220.216735 
z
" clip-path="url(#p3fc5fc73af)" style="fill: #0080ff; fill-opacity: 0.7; stroke: #000000; stroke-width: 1.5; stroke-linejoin: miter"/>
   </g>
   <g id="patch_42">
    <path d="M 318.708711 293.55585 
L 331.597673 293.55585 
L 331.597673 219.386765 
L 318.708711 219.386765 
z
" clip-path="url(#p3fc5fc73af)" style="fill: #5580aa; fill-opacity: 0.7; stroke: #000000; stroke-width: 1.5; stroke-linejoin: miter"/>
   </g>
   <g id="patch_43">
    <path d="M 334.819913 293.55585 
L 347.708876 293.55585 
L 347.708876 248.511146 
L 334.819913 248.511146 
z
" clip-path="url(#p3fc5fc73af)" style="fill: #aa8055; fill-opacity: 0.7; stroke: #000000; stroke-width: 1.5; stroke-linejoin: miter"/>
   </g>
   <g id="patch_44">
    <path d="M 350.931116 293.55585 
L 363.820078 293.55585 
L 363.820078 220.744897 
L 350.931116 220.744897 
z
" clip-path="url(#p3fc5fc73af)" style="fill: #ff8000; fill-opacity: 0.7; stroke: #000000; stroke-width: 1.5; stroke-linejoin: miter"/>
   </g>
   <g id="matplotlib.axis_11"/>
   <g id="matplotlib.axis_12"/>
   <g id="patch_45">
    <path d="M 299.536379 293.55585 
L 299.536379 210.558909 
" style="fill: none; stroke: #000000; stroke-width: 0.8; stroke-linejoin: miter; stroke-linecap: square"/>
   </g>
   <g id="patch_46">
    <path d="M 366.881207 293.55585 
L 366.881207 210.558909 
" style="fill: none; stroke: #000000; stroke-width: 0.8; stroke-linejoin: miter; stroke-linecap: square"/>
   </g>
   <g id="patch_47">
    <path d="M 299.536379 293.55585 
L 366.881207 293.55585 
" style="fill: none; stroke: #000000; stroke-width: 0.8; stroke-linejoin: miter; stroke-linecap: square"/>
   </g>
   <g id="patch_48">
    <path d="M 299.536379 210.558909 
L 366.881207 210.558909 
" style="fill: none; stroke: #000000; stroke-width: 0.8; stroke-linejoin: miter; stroke-linecap: square"/>
   </g>
  </g>
  <g id="axes_7">
   <g id="patch_49">
    <path d="M 380.350172 293.55585 
L 447.695 293.55585 
L 447.695 210.558909 
L 380.350172 210.558909 
z
" style="fill: #ffffff"/>
   </g>
   <g id="patch_50">
    <path d="M 383.411301 293.55585 
L 396.300263 293.55585 
L 396.300263 221.952125 
L 383.411301 221.952125 
z
" clip-path="url(#p49c16b1cc5)" style="fill: #0080ff; fill-opacity: 0.7; stroke: #000000; stroke-width: 1.5; stroke-linejoin: miter"/>
   </g>
   <g id="patch_51">
    <path d="M 399.522504 293.55585 
L 412.411466 293.55585 
L 412.411466 267.223184 
L 399.522504 267.223184 
z
" clip-path="url(#p49c16b1cc5)" style="fill: #5580aa; fill-opacity: 0.7; stroke: #000000; stroke-width: 1.5; stroke-linejoin: miter"/>
   </g>
   <g id="patch_52">
    <path d="M 415.633706 293.55585 
L 428.522669 293.55585 
L 428.522669 258.319876 
L 415.633706 258.319876 
z
" clip-path="url(#p49c16b1cc5)" style="fill: #aa8055; fill-opacity: 0.7; stroke: #000000; stroke-width: 1.5; stroke-linejoin: miter"/>
   </g>
   <g id="patch_53">
    <path d="M 431.744909 293.55585 
L 444.633871 293.55585 
L 444.633871 231.760855 
L 431.744909 231.760855 
z
" clip-path="url(#p49c16b1cc5)" style="fill: #ff8000; fill-opacity: 0.7; stroke: #000000; stroke-width: 1.5; stroke-linejoin: miter"/>
   </g>
   <g id="matplotlib.axis_13"/>
   <g id="matplotlib.axis_14"/>
   <g id="patch_54">
    <path d="M 380.350172 293.55585 
L 380.350172 210.558909 
" style="fill: none; stroke: #000000; stroke-width: 0.8; stroke-linejoin: miter; stroke-linecap: square"/>
   </g>
   <g id="patch_55">
    <path d="M 447.695 293.55585 
L 447.695 210.558909 
" style="fill: none; stroke: #000000; stroke-width: 0.8; stroke-linejoin: miter; stroke-linecap: square"/>
   </g>
   <g id="patch_56">
    <path d="M 380.350172 293.55585 
L 447.695 293.55585 
" style="fill: none; stroke: #000000; stroke-width: 0.8; stroke-linejoin: miter; stroke-linecap: square"/>
   </g>
   <g id="patch_57">
    <path d="M 380.350172 210.558909 
L 447.695 210.558909 
" style="fill: none; stroke: #000000; stroke-width: 0.8; stroke-linejoin: miter; stroke-linecap: square"/>
   </g>
  </g>
 </g>
 <defs>
  <clipPath id="pef42b22c0f">
   <rect x="57.095" y="11.36625" width="390.6" height="82.996941"/>
  </clipPath>
  <clipPath id="p155e6adbb0">
   <rect x="57.095" y="110.962579" width="390.6" height="82.996941"/>
  </clipPath>
  <clipPath id="pabbdfccb89">
   <rect x="57.095" y="210.558909" width="67.344828" height="82.996941"/>
  </clipPath>
  <clipPath id="p3cfdd24c83">
   <rect x="137.908793" y="210.558909" width="67.344828" height="82.996941"/>
  </clipPath>
  <clipPath id="p3353143409">
   <rect x="218.722586" y="210.558909" width="67.344828" height="82.996941"/>
  </clipPath>
  <clipPath id="p3fc5fc73af">
   <rect x="299.536379" y="210.558909" width="67.344828" height="82.996941"/>
  </clipPath>
  <clipPath id="p49c16b1cc5">
   <rect x="380.350172" y="210.558909" width="67.344828" height="82.996941"/>
  </clipPath>
 </defs>
</svg>
