<?xml version="1.0" encoding="UTF-8" standalone="no"?>
<!-- Created with Inkscape (http://www.inkscape.org/) -->

<svg
   width="96.534119mm"
   height="56.985519mm"
   viewBox="0 0 96.534119 56.985519"
   version="1.1"
   id="svg1"
   xml:space="preserve"
   inkscape:export-filename="legend.pdf"
   inkscape:export-xdpi="96"
   inkscape:export-ydpi="96"
   xmlns:inkscape="http://www.inkscape.org/namespaces/inkscape"
   xmlns:sodipodi="http://sodipodi.sourceforge.net/DTD/sodipodi-0.dtd"
   xmlns:xlink="http://www.w3.org/1999/xlink"
   xmlns="http://www.w3.org/2000/svg"
   xmlns:svg="http://www.w3.org/2000/svg"><sodipodi:namedview
     id="namedview1"
     pagecolor="#ffffff"
     bordercolor="#000000"
     borderopacity="0.25"
     inkscape:showpageshadow="2"
     inkscape:pageopacity="0.0"
     inkscape:pagecheckerboard="0"
     inkscape:deskcolor="#d1d1d1"
     inkscape:document-units="mm" /><defs
     id="defs1"><style
       type="text/css"
       id="style1">*{stroke-linejoin: round; stroke-linecap: butt}</style><clipPath
       id="pb8d841d2c1"><rect
         x="59.099377"
         y="7.1999998"
         width="415.1539"
         height="117.12827"
         id="rect370" /></clipPath><style
       type="text/css"
       id="style1-9">*{stroke-linejoin: round; stroke-linecap: butt}</style><path
       id="TimesNewRomanPSMT-31-2"
       d="m 750,3822 1031,503 h 103 V 747 q 0,-356 30,-444 30,-87 123,-134 94,-47 382,-53 V 0 H 825 v 116 q 300,6 387,51 88,46 122,122 35,77 35,458 v 2287 q 0,463 -31,594 -22,100 -80,147 -58,47 -139,47 -116,0 -322,-97 z"
       transform="scale(0.015625)" /><path
       id="TimesNewRomanPSMT-30-4"
       d="m 231,2094 q 0,725 219,1248 219,524 581,780 282,203 582,203 487,0 875,-497 484,-615 484,-1669 0,-737 -213,-1253 Q 2547,391 2217,158 1888,-75 1581,-75 975,-75 572,641 231,1244 231,2094 Z m 613,-78 q 0,-875 215,-1428 179,-466 532,-466 168,0 349,151 182,152 276,508 143,538 143,1516 0,725 -150,1209 -112,360 -290,510 -128,103 -310,103 -212,0 -378,-191 -225,-259 -306,-816 -81,-556 -81,-1096 z"
       transform="scale(0.015625)" /><path
       id="TimesNewRomanPSMT-32-5"
       d="M 2934,816 2638,0 H 138 v 116 q 1103,1006 1553,1643 450,638 450,1166 0,403 -247,662 -247,260 -591,260 -312,0 -561,-183 Q 494,3481 375,3128 H 259 q 79,578 402,887 323,310 808,310 515,0 860,-331 346,-331 346,-781 0,-322 -150,-644 Q 2294,2063 1775,1497 997,647 803,472 h 1106 q 338,0 474,25 136,25 245,101 110,77 191,218 z"
       transform="scale(0.015625)" /><path
       id="TimesNewRomanPSMT-33-1"
       d="m 325,3431 q 181,428 457,661 277,233 690,233 509,0 781,-331 206,-247 206,-528 0,-463 -581,-957 391,-153 591,-437 200,-284 200,-669 0,-550 -350,-953 Q 1863,-75 997,-75 569,-75 414,31 259,138 259,259 q 0,91 73,160 74,69 177,69 79,0 160,-25 53,-16 240,-115 188,-98 260,-117 115,-34 247,-34 318,0 554,247 236,247 236,584 0,247 -109,481 -81,175 -178,266 -135,125 -369,226 -234,102 -478,102 H 972 v 94 q 247,31 495,178 249,147 361,353 113,206 113,453 0,322 -202,520 -201,199 -501,199 -485,0 -810,-519 z"
       transform="scale(0.015625)" /><path
       id="TimesNewRomanPSMT-20-0"
       transform="scale(0.015625)"
       d="" /><path
       id="TimesNewRomanPSMT-50-5"
       d="M 1313,1984 V 750 q 0,-400 87,-497 119,-137 359,-137 h 163 V 0 H 106 v 116 h 160 q 268,0 384,175 63,97 63,459 v 2738 q 0,400 -85,496 -122,138 -362,138 H 106 v 116 h 1553 q 569,0 897,-118 328,-117 553,-395 225,-278 225,-659 0,-519 -342,-844 -342,-325 -967,-325 -153,0 -331,22 -178,22 -381,65 z m 0,179 q 165,-32 293,-48 128,-15 219,-15 325,0 561,251 236,252 236,652 0,275 -113,511 -112,236 -319,353 -206,117 -468,117 -159,0 -409,-59 z"
       transform="scale(0.015625)" /><path
       id="TimesNewRomanPSMT-6f-9"
       d="m 1600,2947 q 650,0 1044,-494 334,-422 334,-969 0,-384 -185,-778 Q 2609,313 2286,112 1963,-88 1566,-88 919,-88 538,428 216,863 216,1403 q 0,394 195,783 195,389 514,575 319,186 675,186 z m -97,-203 q -165,0 -333,-99 -167,-98 -270,-345 -103,-247 -103,-634 0,-625 248,-1079 249,-453 655,-453 303,0 500,250 197,250 197,860 0,762 -328,1200 -222,300 -566,300 z"
       transform="scale(0.015625)" /><path
       id="TimesNewRomanPSMT-73-9"
       d="m 2050,2947 v -975 h -103 q -119,459 -305,625 -186,166 -473,166 -219,0 -354,-116 -134,-116 -134,-256 0,-175 100,-300 97,-128 394,-272 l 456,-222 Q 2266,1288 2266,781 2266,391 1970,151 1675,-88 1309,-88 1047,-88 709,6 606,38 541,38 469,38 428,-44 H 325 V 978 H 428 Q 516,541 762,319 1009,97 1316,97 q 215,0 351,126 136,127 136,305 0,216 -152,363 -151,147 -604,372 -453,225 -594,406 -140,178 -140,450 0,353 242,590 242,238 626,238 169,0 410,-72 159,-47 212,-47 50,0 78,22 28,22 66,97 z"
       transform="scale(0.015625)" /><path
       id="TimesNewRomanPSMT-69-7"
       d="m 928,4444 q 131,0 223,-93 93,-92 93,-223 0,-131 -93,-225 -92,-94 -223,-94 -131,0 -225,94 -94,94 -94,225 0,131 92,223 93,93 227,93 z M 1188,2947 V 647 q 0,-269 39,-358 39,-89 115,-133 77,-43 280,-43 V 0 H 231 v 113 q 210,0 281,40 72,41 114,134 43,94 43,360 v 1103 q 0,466 -28,603 -22,100 -69,139 -47,39 -128,39 -88,0 -213,-47 l -43,113 862,350 z"
       transform="scale(0.015625)" /><path
       id="TimesNewRomanPSMT-74-8"
       d="m 1031,3803 v -940 h 669 V 2644 H 1031 V 788 q 0,-279 80,-376 80,-96 205,-96 103,0 200,64 97,64 150,189 h 122 Q 1678,263 1478,108 1278,-47 1066,-47 922,-47 784,33 647,113 581,261 516,409 516,719 V 2644 H 63 v 103 q 171,69 351,233 180,164 320,389 72,119 200,434 z"
       transform="scale(0.015625)" /><path
       id="TimesNewRomanPSMT-6e-0"
       d="m 1034,2341 q 504,606 960,606 234,0 403,-117 169,-117 269,-386 68,-188 68,-575 V 647 q 0,-272 44,-369 35,-78 111,-122 77,-43 283,-43 V 0 H 1756 v 113 h 60 q 200,0 279,60 80,61 111,180 13,47 13,294 v 1172 q 0,390 -102,567 -101,177 -342,177 -372,0 -741,-407 V 647 q 0,-291 35,-359 44,-91 120,-133 77,-42 311,-42 V 0 H 84 v 113 h 63 q 219,0 295,110 77,111 77,424 v 1062 q 0,516 -24,628 -23,113 -72,153 -48,41 -129,41 -88,0 -210,-47 l -46,113 862,350 h 134 z"
       transform="scale(0.015625)" /><path
       id="TimesNewRomanPSMT-28-4"
       d="m 1988,-1253 v -116 q -472,238 -788,556 -450,454 -694,1069 -243,616 -243,1278 0,969 478,1767 478,799 1247,1143 V 4313 Q 1603,4100 1356,3731 1109,3363 987,2797 866,2231 866,1616 866,947 969,400 q 81,-431 196,-692 116,-261 311,-501 196,-241 512,-460 z"
       transform="scale(0.015625)" /><path
       id="TimesNewRomanPSMT-6d-0"
       d="m 1050,2338 q 313,312 369,359 140,119 302,184 163,66 323,66 269,0 462,-157 194,-156 260,-452 322,375 543,492 222,117 457,117 228,0 404,-117 177,-117 280,-383 69,-181 69,-569 V 647 q 0,-269 40,-369 32,-69 116,-117 84,-48 275,-48 V 0 H 3538 v 113 h 59 q 184,0 287,71 72,50 104,160 12,53 12,303 v 1231 q 0,350 -84,494 -122,200 -391,200 -166,0 -333,-83 -167,-83 -404,-308 l -7,-34 7,-134 V 647 q 0,-294 32,-366 33,-72 123,-120 91,-48 310,-48 V 0 H 1806 v 113 q 238,0 327,56 89,56 123,169 16,53 16,309 v 1231 q 0,350 -103,503 -138,200 -385,200 -168,0 -334,-90 -259,-138 -400,-310 V 647 q 0,-281 39,-366 39,-84 115,-126 77,-42 312,-42 V 0 H 100 v 113 q 197,0 275,42 78,42 118,134 41,92 41,358 v 1094 q 0,472 -28,609 -22,103 -69,142 -46,39 -128,39 -87,0 -209,-47 l -47,113 863,350 h 134 z"
       transform="scale(0.015625)" /><path
       id="TimesNewRomanPSMT-29-4"
       d="m 144,4313 v 131 q 475,-235 790,-553 447,-457 691,-1071 244,-614 244,-1279 0,-969 -477,-1767 -476,-799 -1248,-1143 v 116 q 384,215 632,583 249,367 369,934 121,567 121,1183 0,666 -103,1216 -79,431 -196,690 -117,260 -311,500 -193,241 -512,460 z"
       transform="scale(0.015625)" /><path
       id="TimesNewRomanPSMT-35-4"
       d="M 2778,4238 2534,3706 H 1259 L 981,3138 q 828,-122 1313,-616 415,-425 415,-1000 0,-334 -136,-619 Q 2438,619 2231,419 2025,219 1772,97 1413,-75 1034,-75 653,-75 479,54 306,184 306,341 q 0,87 72,154 72,68 181,68 82,0 143,-25 61,-25 207,-129 235,-162 475,-162 366,0 642,276 277,277 277,674 0,384 -247,717 -247,333 -681,514 -341,141 -928,163 l 812,1647 z"
       transform="scale(0.015625)" /><path
       id="TimesNewRomanPSMT-4f-9"
       d="m 2341,4334 q 825,0 1429,-627 605,-626 605,-1563 0,-966 -610,-1604 -609,-637 -1474,-637 -875,0 -1471,622 -595,622 -595,1609 0,1010 688,1647 596,553 1428,553 z m -60,-228 q -568,0 -912,-422 -428,-525 -428,-1537 0,-1038 443,-1597 341,-425 900,-425 597,0 986,465 389,466 389,1469 0,1088 -428,1622 -343,425 -950,425 z"
       transform="scale(0.015625)" /><path
       id="TimesNewRomanPSMT-53-3"
       d="M 2934,4334 V 2869 h -115 q -56,422 -202,672 -145,250 -414,396 -269,147 -556,147 -325,0 -538,-198 -212,-198 -212,-452 0,-193 134,-353 194,-234 922,-625 594,-318 811,-489 217,-170 334,-402 118,-231 118,-484 0,-481 -374,-830 -373,-348 -961,-348 -184,0 -347,28 -96,16 -401,114 Q 828,144 747,144 669,144 623,97 578,50 556,-97 H 441 v 1453 h 115 q 82,-456 219,-683 138,-226 420,-376 283,-150 621,-150 390,0 616,206 227,206 227,488 0,156 -86,315 -85,160 -267,297 -122,94 -666,398 -543,305 -773,486 -229,182 -348,400 -119,219 -119,482 0,456 350,785 350,330 891,330 337,0 715,-165 175,-78 247,-78 81,0 133,48 52,49 83,195 z"
       transform="scale(0.015625)" /><path
       id="TimesNewRomanPSMT-52-0"
       d="M 4325,0 H 3194 L 1759,1981 q -159,-6 -259,-6 -41,0 -88,1 -46,2 -96,5 V 750 q 0,-400 87,-497 119,-137 356,-137 h 166 V 0 H 109 v 116 h 160 q 269,0 384,175 66,97 66,459 v 2738 q 0,400 -88,496 -122,138 -362,138 H 109 v 116 h 1544 q 675,0 995,-99 321,-98 544,-362 224,-264 224,-630 0,-391 -255,-679 -255,-287 -789,-405 L 3247,847 Q 3547,428 3762,290 3978,153 4325,116 Z M 1316,2178 q 59,0 103,-2 44,-1 72,-1 606,0 914,262 308,263 308,669 0,397 -249,645 -248,249 -658,249 -181,0 -490,-59 z"
       transform="scale(0.015625)" /><path
       id="TimesNewRomanPSMT-61-1"
       d="M 1822,413 Q 1381,72 1269,19 1100,-59 909,-59 613,-59 420,144 228,347 228,678 q 0,210 94,363 128,212 445,399 317,188 1055,457 v 112 q 0,429 -136,588 -136,159 -395,159 -197,0 -313,-106 -119,-106 -119,-244 l 7,-181 q 0,-144 -74,-222 -73,-78 -192,-78 -116,0 -189,81 -73,82 -73,222 0,269 275,494 275,225 771,225 382,0 625,-128 185,-97 272,-303 57,-135 57,-550 V 994 q 0,-410 15,-502 16,-92 52,-123 36,-31 83,-31 50,0 87,21 66,41 253,229 V 413 q -350,-469 -669,-469 -153,0 -244,106 -90,106 -93,363 z m 0,203 V 1706 Q 1350,1519 1213,1441 966,1303 859,1153 753,1003 753,825 q 0,-225 134,-374 135,-148 310,-148 237,0 625,313 z"
       transform="scale(0.015625)" /><path
       id="TimesNewRomanPSMT-64-7"
       d="M 2222,322 Q 2013,103 1813,7 1613,-88 1381,-88 913,-88 563,304 213,697 213,1313 q 0,615 387,1126 388,511 997,511 378,0 625,-241 v 529 q 0,490 -24,602 -23,113 -73,153 -50,41 -125,41 -81,0 -216,-50 l -40,110 853,350 h 141 V 1134 q 0,-503 23,-614 23,-111 75,-155 52,-43 120,-43 85,0 225,53 l 35,-109 -850,-354 h -144 z m 0,219 v 1475 q -19,212 -113,387 -93,175 -248,264 -155,89 -302,89 -275,0 -490,-247 -285,-325 -285,-950 0,-631 275,-967 275,-336 613,-336 284,0 550,285 z"
       transform="scale(0.015625)" /><path
       id="TimesNewRomanPSMT-75-2"
       d="M 2709,2863 V 1128 q 0,-497 23,-608 24,-111 75,-155 52,-43 121,-43 97,0 219,53 L 3191,266 2334,-88 H 2194 V 519 Q 1825,119 1631,15 1438,-88 1222,-88 981,-88 804,51 628,191 559,409 491,628 491,1028 v 1278 q 0,203 -44,281 -44,79 -130,121 -86,42 -311,39 v 116 H 1009 V 947 q 0,-400 139,-525 140,-125 336,-125 135,0 305,84 170,85 405,322 v 1622 q 0,244 -89,330 -89,86 -371,92 v 116 z"
       transform="scale(0.015625)" /><path
       id="TimesNewRomanPSMT-3a-0"
       d="m 903,2950 q 144,0 245,-102 102,-101 102,-245 0,-144 -102,-246 -101,-101 -245,-101 -144,0 -246,101 -101,102 -101,246 0,144 101,245 102,102 246,102 z M 897,609 q 147,0 248,-103 Q 1247,403 1247,259 1247,116 1144,14 1041,-88 897,-88 753,-88 651,14 550,116 550,259 q 0,144 101,247 102,103 246,103 z"
       transform="scale(0.015625)" /><path
       id="TimesNewRomanPSMT-36-6"
       d="m 2869,4325 v -116 q -413,-40 -674,-164 -261,-123 -516,-376 -254,-253 -421,-564 -167,-311 -280,-739 450,309 903,309 435,0 753,-350 319,-350 319,-900 0,-531 -322,-969 -387,-531 -1025,-531 -434,0 -737,288 -594,559 -594,1450 0,568 228,1080 228,513 651,910 424,397 811,534 388,138 723,138 z M 925,2138 q -56,-422 -56,-682 0,-300 111,-652 111,-351 329,-557 160,-147 388,-147 272,0 486,256 214,257 214,732 0,534 -213,924 -212,391 -603,391 -118,0 -254,-50 -136,-50 -402,-215 z"
       transform="scale(0.015625)" /><path
       id="TimesNewRomanPSMT-2e-2"
       d="M 800,606 Q 947,606 1047,504 1147,403 1147,259 1147,116 1045,14 944,-88 800,-88 656,-88 554,14 453,116 453,259 q 0,147 101,247 102,100 246,100 z"
       transform="scale(0.015625)" /><path
       id="TimesNewRomanPSMT-38-6"
       d="m 1228,2134 q -503,413 -649,663 -145,250 -145,519 0,412 319,710 319,299 847,299 513,0 825,-278 313,-278 313,-634 0,-238 -169,-485 -169,-247 -703,-581 550,-425 728,-669 237,-319 237,-672 0,-447 -341,-764 -340,-317 -893,-317 -603,0 -941,378 -268,303 -268,663 0,281 189,557 189,277 651,611 z m 491,335 q 375,337 475,532 100,196 100,443 0,328 -185,514 -184,186 -503,186 -318,0 -518,-185 -200,-184 -200,-431 0,-162 82,-325 83,-162 236,-309 z M 1375,2016 Q 1116,1797 991,1539 866,1281 866,981 866,578 1086,336 1306,94 1647,94 q 337,0 540,190 204,191 204,463 0,225 -119,403 -222,331 -897,866 z"
       transform="scale(0.015625)" /><path
       id="TimesNewRomanPSMT-2c-6"
       d="m 344,-1066 v 138 q 322,106 498,330 177,223 177,473 0,59 -28,100 Q 969,3 947,3 913,3 797,-59 741,-88 678,-88 525,-88 434,3 q -90,91 -90,250 0,153 117,262 117,110 286,110 206,0 367,-180 161,-179 161,-476 0,-322 -224,-598 -223,-277 -707,-437 z"
       transform="scale(0.015625)" /><path
       id="m15a2869089"
       d="M 0,3.535534 C 0.937635,3.535534 1.836992,3.163008 2.5,2.5 3.163008,1.836992 3.535534,0.937635 3.535534,0 3.535534,-0.937635 3.163008,-1.836992 2.5,-2.5 1.836992,-3.163008 0.937635,-3.535534 0,-3.535534 c -0.937635,0 -1.836992,0.372526 -2.5,1.035534 -0.663008,0.663008 -1.035534,1.562365 -1.035534,2.5 0,0.937635 0.372526,1.836992 1.035534,2.5 0.663008,0.663008 1.562365,1.035534 2.5,1.035534 z"
       style="stroke:#0000ff" /><path
       id="TimesNewRomanPSMT-56-9"
       d="m 4544,4238 v -116 q -225,-41 -341,-144 -165,-153 -294,-469 L 2431,-97 H 2316 L 728,3556 q -122,282 -172,344 -78,97 -192,151 -114,55 -308,71 v 116 h 1732 v -116 q -294,-28 -382,-100 -87,-72 -87,-184 0,-157 144,-488 L 2541,866 3541,3319 q 147,362 147,503 0,91 -91,173 -91,83 -306,118 -16,3 -53,9 v 116 z"
       transform="scale(0.015625)" /><path
       id="TimesNewRomanPSMT-65-8"
       d="m 681,1784 q -3,-637 310,-1000 312,-362 734,-362 281,0 489,154 208,155 349,530 l 96,-62 Q 2594,616 2278,264 1963,-88 1488,-88 972,-88 605,314 238,716 238,1394 q 0,734 376,1145 377,411 945,411 482,0 791,-317 309,-317 309,-849 z m 0,182 h 1325 q -15,275 -65,387 -78,175 -233,275 -155,100 -324,100 -259,0 -464,-202 -204,-201 -239,-560 z"
       transform="scale(0.015625)" /><path
       id="TimesNewRomanPSMT-6c-4"
       d="M 1184,4444 V 647 q 0,-269 39,-357 40,-87 121,-132 81,-45 303,-45 V 0 H 244 v 113 q 197,0 268,40 72,41 113,134 41,94 41,360 v 2600 q 0,484 -22,595 -22,111 -71,151 -48,41 -123,41 -81,0 -206,-50 l -53,110 853,350 z"
       transform="scale(0.015625)" /><path
       id="TimesNewRomanPSMT-63-8"
       d="M 2631,1088 Q 2516,522 2178,217 1841,-88 1431,-88 944,-88 581,321 219,731 219,1428 q 0,675 401,1097 402,422 964,422 422,0 694,-224 272,-223 272,-464 0,-118 -77,-192 -76,-73 -214,-73 -184,0 -278,119 -53,65 -70,249 -17,185 -127,282 -109,94 -303,94 -312,0 -503,-232 -253,-306 -253,-809 0,-513 251,-905 252,-392 680,-392 307,0 550,209 172,144 335,522 z"
       transform="scale(0.015625)" /><path
       id="TimesNewRomanPSMT-79-4"
       d="m 38,2863 h 1334 v -116 h -66 q -140,0 -211,-61 -70,-61 -70,-152 0,-121 103,-337 l 697,-1444 641,1581 q 53,129 53,254 0,56 -22,84 -25,34 -78,54 -53,21 -188,21 v 116 h 932 v -116 q -116,-13 -179,-51 -62,-37 -137,-140 -28,-43 -106,-240 L 1575,-541 q -169,-415 -443,-627 -273,-213 -526,-213 -184,0 -303,106 -119,106 -119,244 0,131 86,211 86,79 236,79 103,0 282,-68 125,-47 156,-47 94,0 204,97 111,96 224,375 L 1575,113 547,2272 q -47,97 -150,241 -78,109 -128,146 -72,50 -231,88 z"
       transform="scale(0.015625)" /><path
       id="DejaVuSans-Oblique-3b8-5"
       d="M 2913,2219 H 925 q -134,-935 3,-1331 172,-488 638,-488 468,0 825,491 312,431 522,1328 z m 96,531 q 85,888 -25,1200 -171,494 -631,494 -478,0 -828,-488 -275,-393 -491,-1206 z m -565,2163 q 750,0 1050,-663 300,-659 72,-1828 Q 3341,1256 2781,594 2225,-72 1475,-72 722,-72 425,594 q -297,662 -72,1828 228,1169 781,1828 557,663 1310,663 z"
       transform="scale(0.015625)" /><path
       id="DejaVuSans-3d-6"
       d="M 678,2906 H 4684 V 2381 H 678 Z m 0,-1275 H 4684 V 1100 H 678 Z"
       transform="scale(0.015625)" /><path
       id="DejaVuSans-39-0"
       d="m 703,97 v 575 q 238,-113 481,-172 244,-59 479,-59 625,0 954,420 330,420 377,1277 -181,-269 -460,-413 -278,-144 -615,-144 -700,0 -1108,423 -408,424 -408,1159 0,718 425,1152 425,435 1131,435 810,0 1236,-621 427,-620 427,-1801 Q 3622,1225 3098,567 2575,-91 1691,-91 1453,-91 1209,-44 966,3 703,97 Z m 1256,1978 q 425,0 673,290 249,291 249,798 0,503 -249,795 -248,292 -673,292 -425,0 -673,-292 -248,-292 -248,-795 0,-507 248,-798 248,-290 673,-290 z"
       transform="scale(0.015625)" /><path
       id="DejaVuSans-30-8"
       d="m 2034,4250 q -487,0 -733,-480 -245,-479 -245,-1442 0,-959 245,-1439 246,-480 733,-480 491,0 736,480 246,480 246,1439 0,963 -246,1442 -245,480 -736,480 z m 0,500 q 785,0 1199,-621 414,-620 414,-1801 0,-1178 -414,-1799 -414,-620 -1199,-620 -784,0 -1198,620 -414,621 -414,1799 0,1181 414,1801 414,621 1198,621 z"
       transform="scale(0.015625)" /><path
       id="DejaVuSans-2e-1"
       d="m 684,794 h 660 V 0 H 684 Z"
       transform="scale(0.015625)" /><path
       id="DejaVuSans-2218-4"
       d="m 2000,2619 q -250,0 -422,-174 -172,-173 -172,-423 0,-247 172,-417 172,-170 422,-170 250,0 422,170 172,170 172,417 0,247 -174,422 -173,175 -420,175 z m 0,403 q 200,0 384,-77 185,-76 319,-220 144,-140 216,-319 72,-178 72,-384 0,-412 -289,-698 -289,-286 -708,-286 -422,0 -704,281 -281,281 -281,703 0,419 287,709 288,291 704,291 z"
       transform="scale(0.015625)" /><path
       id="TimesNewRomanPSMT-70-0"
       d="m -6,2578 881,356 h 119 v -668 q 222,378 445,529 224,152 470,152 432,0 719,-338 353,-412 353,-1075 0,-740 -425,-1225 -350,-397 -881,-397 -231,0 -400,66 -125,47 -281,188 v -872 q 0,-294 36,-373 36,-80 125,-127 89,-47 323,-47 v -116 H -22 v 116 h 78 q 172,-3 294,65 59,35 92,112 33,76 33,388 v 2707 q 0,278 -25,353 -25,75 -80,112 -54,38 -148,38 -75,0 -191,-44 z M 994,2081 V 1013 q 0,-347 28,-457 44,-181 214,-319 170,-137 430,-137 312,0 506,244 253,319 253,897 0,656 -287,1009 -200,244 -475,244 -150,0 -297,-75 -113,-56 -372,-338 z"
       transform="scale(0.015625)" /><path
       id="TimesNewRomanPSMT-3d-1"
       d="M 116,2759 H 3488 V 2503 H 116 Z m 0,-1018 H 3488 V 1484 H 116 Z"
       transform="scale(0.015625)" /><path
       id="TimesNewRomanPSMT-37-6"
       d="M 644,4238 H 2916 V 4119 L 1503,-88 H 1153 L 2419,3728 H 1253 q -353,0 -503,-84 -262,-144 -422,-444 l -90,34 z"
       transform="scale(0.015625)" /><path
       id="TimesNewRomanPSMT-6b-7"
       d="M 1047,4444 V 1597 l 728,662 q 231,213 269,269 25,38 25,75 0,63 -52,108 -51,45 -170,52 v 100 h 1244 v -100 q -257,-7 -427,-79 -170,-71 -373,-256 l -735,-678 735,-928 q 306,-384 412,-488 150,-146 263,-190 78,-31 272,-31 V 0 H 1847 v 113 q 119,3 161,35 42,33 42,93 0,72 -125,231 L 1047,1594 V 644 q 0,-278 39,-366 39,-87 111,-125 72,-37 312,-40 V 0 H 53 v 113 q 219,0 328,53 66,34 100,106 47,103 47,356 v 2606 q 0,497 -22,608 -22,111 -72,153 -50,43 -131,43 -65,0 -197,-54 l -53,110 850,350 z"
       transform="scale(0.015625)" /><path
       id="DejaVuSans-Oblique-54-9"
       d="M 378,4666 H 4325 L 4225,4134 H 2559 L 1759,0 h -634 l 800,4134 H 275 Z"
       transform="scale(0.015625)" /><path
       id="DejaVuSans-Oblique-53-8"
       d="m 3859,4513 -121,-616 q -316,169 -627,255 -311,86 -602,86 -565,0 -900,-247 -334,-247 -334,-657 0,-225 123,-345 124,-120 636,-258 l 379,-93 q 640,-166 890,-421 250,-254 250,-714 Q 3553,797 2998,353 2444,-91 1538,-91 1166,-91 791,-17 416,56 38,206 l 128,650 q 347,-215 695,-325 348,-109 695,-109 591,0 947,262 356,263 356,685 0,281 -142,426 -142,146 -611,264 l -378,97 q -647,169 -883,389 -236,221 -236,618 0,696 536,1141 536,446 1396,446 334,0 662,-60 328,-59 656,-177 z"
       transform="scale(0.015625)" /><path
       id="DejaVuSans-31-7"
       d="M 794,531 H 1825 V 4091 L 703,3866 v 575 l 1116,225 h 631 V 531 H 3481 V 0 H 794 Z"
       transform="scale(0.015625)" /><path
       id="TimesNewRomanPSMT-34-7"
       d="M 2978,1563 V 1119 H 2409 V 0 H 1894 V 1119 H 100 v 400 l 1966,2806 h 343 V 1563 Z m -1084,0 V 3666 L 406,1563 Z"
       transform="scale(0.015625)" /><path
       id="TimesNewRomanPSMT-39-2"
       d="M 338,-88 V 28 q 406,6 756,189 350,183 676,639 327,457 455,1003 -491,-315 -887,-315 -447,0 -766,345 -319,345 -319,917 0,557 319,991 384,528 1003,528 522,0 894,-431 456,-535 456,-1319 0,-706 -347,-1317 Q 2231,647 1613,244 1109,-88 516,-88 Z m 1937,2179 q 56,406 56,650 0,303 -103,654 -103,352 -292,539 -189,188 -430,188 -278,0 -488,-250 -209,-250 -209,-744 0,-659 279,-1031 203,-269 500,-269 143,0 340,69 197,69 347,194 z"
       transform="scale(0.015625)" /><path
       id="mc745158a63"
       d="M 0,3.535534 C 0.937635,3.535534 1.836992,3.163008 2.5,2.5 3.163008,1.836992 3.535534,0.937635 3.535534,0 3.535534,-0.937635 3.163008,-1.836992 2.5,-2.5 1.836992,-3.163008 0.937635,-3.535534 0,-3.535534 c -0.937635,0 -1.836992,0.372526 -2.5,1.035534 -0.663008,0.663008 -1.035534,1.562365 -1.035534,2.5 0,0.937635 0.372526,1.836992 1.035534,2.5 0.663008,0.663008 1.562365,1.035534 2.5,1.035534 z"
       style="stroke:#ff0000" /><path
       id="DejaVuSans-37-6"
       d="M 525,4666 H 3525 V 4397 L 1831,0 H 1172 L 2766,4134 H 525 Z"
       transform="scale(0.015625)" /><path
       id="DejaVuSans-33-9"
       d="m 2597,2516 q 453,-97 707,-404 255,-306 255,-756 0,-690 -475,-1069 -475,-378 -1350,-378 -293,0 -604,58 -311,58 -642,174 v 609 q 262,-153 574,-231 313,-78 654,-78 593,0 904,234 311,234 311,681 0,413 -289,645 -289,233 -804,233 h -544 v 519 h 569 q 465,0 712,186 247,186 247,536 0,359 -255,551 -254,193 -729,193 -260,0 -557,-57 -297,-56 -653,-174 v 562 q 360,100 674,150 314,50 592,50 719,0 1137,-327 419,-326 419,-882 0,-388 -222,-655 -222,-267 -631,-370 z"
       transform="scale(0.015625)" /><path
       id="DejaVuSans-32-5"
       d="M 1228,531 H 3431 V 0 H 469 v 531 q 359,372 979,998 621,627 780,809 303,340 423,576 121,236 121,464 0,372 -261,606 -261,235 -680,235 -297,0 -627,-103 -329,-103 -704,-313 v 638 q 381,153 712,231 332,78 607,78 725,0 1156,-363 431,-362 431,-968 0,-288 -108,-546 -107,-257 -392,-607 -78,-91 -497,-524 Q 1991,1309 1228,531 Z"
       transform="scale(0.015625)" /><path
       id="med0a4e4624"
       d="M 0,3.535534 C 0.937635,3.535534 1.836992,3.163008 2.5,2.5 3.163008,1.836992 3.535534,0.937635 3.535534,0 3.535534,-0.937635 3.163008,-1.836992 2.5,-2.5 1.836992,-3.163008 0.937635,-3.535534 0,-3.535534 c -0.937635,0 -1.836992,0.372526 -2.5,1.035534 -0.663008,0.663008 -1.035534,1.562365 -1.035534,2.5 0,0.937635 0.372526,1.836992 1.035534,2.5 0.663008,0.663008 1.562365,1.035534 2.5,1.035534 z"
       style="stroke:#008000" /><path
       id="DejaVuSans-34-2"
       d="M 2419,4116 825,1625 h 1594 z m -166,550 h 794 V 1625 h 666 V 1100 H 3047 V 0 H 2419 V 1100 H 313 v 609 z"
       transform="scale(0.015625)" /></defs><g
     inkscape:label="Réteg 1"
     inkscape:groupmode="layer"
     id="layer1"
     transform="translate(-62.117841,-61.306322)"><g
       id="figure_1"
       transform="matrix(0.35277778,0,0,0.35277778,30.403306,112.76425)"><g
         id="line2d_13"
         transform="translate(39.878988,-2.9539992)"><path
           clip-path="url(#pb8d841d2c1)"
           style="fill:none;stroke:#008000;stroke-width:2;stroke-dasharray:2, 3.3;stroke-dashoffset:0"
           id="path82"
           d="" /></g><g
         id="legend_1"
         transform="translate(-72.359904,-231.17879)"><g
           id="patch_7"><path
             d="m 165.15937,246.34755 h 267.84 q 2.40001,0 2.40001,-2.4 V 88.213801 q 0,-2.4 -2.40001,-2.4 h -267.84 q -2.4,0 -2.4,2.4 V 243.94755 q 0,2.4 2.4,2.4 z"
             style="opacity:0.8;fill:#ffffff;stroke:#cccccc;stroke-linejoin:miter"
             id="path100" /></g><g
           id="patch_8"><path
             d="m 167.55937,99.013801 h 24 v -8.4 h -24 z"
             style="fill:none;stroke:#0000ff;stroke-linejoin:miter;stroke-dasharray:3.7, 1.6;stroke-dashoffset:0"
             id="path101" /></g><g
           id="text_14"><!-- OS Radius: 60.00m --><g
             transform="matrix(0.12,0,0,-0.12,201.15937,99.013801)"
             id="g109"><defs
               id="defs93" /><use
               xlink:href="#TimesNewRomanPSMT-4f-9"
               id="use93" /><use
               xlink:href="#TimesNewRomanPSMT-53-3"
               x="72.216797"
               id="use94" /><use
               xlink:href="#TimesNewRomanPSMT-20-0"
               x="127.83203"
               id="use95" /><use
               xlink:href="#TimesNewRomanPSMT-52-0"
               x="152.83203"
               id="use96" /><use
               xlink:href="#TimesNewRomanPSMT-61-1"
               x="219.53125"
               id="use97" /><use
               xlink:href="#TimesNewRomanPSMT-64-7"
               x="263.91602"
               id="use98" /><use
               xlink:href="#TimesNewRomanPSMT-69-7"
               x="313.91602"
               id="use99" /><use
               xlink:href="#TimesNewRomanPSMT-75-2"
               x="341.69922"
               id="use100" /><use
               xlink:href="#TimesNewRomanPSMT-73-9"
               x="391.69922"
               id="use101" /><use
               xlink:href="#TimesNewRomanPSMT-3a-0"
               x="430.61523"
               id="use102" /><use
               xlink:href="#TimesNewRomanPSMT-20-0"
               x="458.39844"
               id="use103" /><use
               xlink:href="#TimesNewRomanPSMT-36-6"
               x="483.39844"
               id="use104" /><use
               xlink:href="#TimesNewRomanPSMT-30-4"
               x="533.39844"
               id="use105" /><use
               xlink:href="#TimesNewRomanPSMT-2e-2"
               x="583.39844"
               id="use106" /><use
               xlink:href="#TimesNewRomanPSMT-30-4"
               x="608.39844"
               id="use107" /><use
               xlink:href="#TimesNewRomanPSMT-30-4"
               x="658.39844"
               id="use108" /><use
               xlink:href="#TimesNewRomanPSMT-6d-0"
               x="708.39844"
               id="use109" /></g></g><g
           id="patch_9"><path
             d="m 167.55937,115.98068 h 24 v -8.4 h -24 z"
             style="fill:#0000ff"
             id="path111" /></g><g
           id="text_15"><!-- OS Position: (12038.01, 12038.01) --><g
             transform="matrix(0.12,0,0,-0.12,201.15937,115.98068)"
             id="g142"><defs
               id="defs109" /><use
               xlink:href="#TimesNewRomanPSMT-4f-9"
               id="use110" /><use
               xlink:href="#TimesNewRomanPSMT-53-3"
               x="72.216797"
               id="use111" /><use
               xlink:href="#TimesNewRomanPSMT-20-0"
               x="127.83203"
               id="use112" /><use
               xlink:href="#TimesNewRomanPSMT-50-5"
               x="152.83203"
               id="use113" /><use
               xlink:href="#TimesNewRomanPSMT-6f-9"
               x="208.44727"
               id="use114" /><use
               xlink:href="#TimesNewRomanPSMT-73-9"
               x="258.44727"
               id="use115" /><use
               xlink:href="#TimesNewRomanPSMT-69-7"
               x="297.36328"
               id="use116" /><use
               xlink:href="#TimesNewRomanPSMT-74-8"
               x="325.14648"
               id="use117" /><use
               xlink:href="#TimesNewRomanPSMT-69-7"
               x="352.92969"
               id="use118" /><use
               xlink:href="#TimesNewRomanPSMT-6f-9"
               x="380.71289"
               id="use119" /><use
               xlink:href="#TimesNewRomanPSMT-6e-0"
               x="430.71289"
               id="use120" /><use
               xlink:href="#TimesNewRomanPSMT-3a-0"
               x="480.71289"
               id="use121" /><use
               xlink:href="#TimesNewRomanPSMT-20-0"
               x="508.49609"
               id="use122" /><use
               xlink:href="#TimesNewRomanPSMT-28-4"
               x="533.49609"
               id="use123" /><use
               xlink:href="#TimesNewRomanPSMT-31-2"
               x="566.79688"
               id="use124" /><use
               xlink:href="#TimesNewRomanPSMT-32-5"
               x="616.79688"
               id="use125" /><use
               xlink:href="#TimesNewRomanPSMT-30-4"
               x="666.79688"
               id="use126" /><use
               xlink:href="#TimesNewRomanPSMT-33-1"
               x="716.79688"
               id="use127" /><use
               xlink:href="#TimesNewRomanPSMT-38-6"
               x="766.79688"
               id="use128" /><use
               xlink:href="#TimesNewRomanPSMT-2e-2"
               x="816.79688"
               id="use129" /><use
               xlink:href="#TimesNewRomanPSMT-30-4"
               x="841.79688"
               id="use130" /><use
               xlink:href="#TimesNewRomanPSMT-31-2"
               x="891.79688"
               id="use131" /><use
               xlink:href="#TimesNewRomanPSMT-2c-6"
               x="941.79688"
               id="use132" /><use
               xlink:href="#TimesNewRomanPSMT-20-0"
               x="966.79688"
               id="use133" /><use
               xlink:href="#TimesNewRomanPSMT-31-2"
               x="991.79688"
               id="use134" /><use
               xlink:href="#TimesNewRomanPSMT-32-5"
               x="1041.7969"
               id="use135" /><use
               xlink:href="#TimesNewRomanPSMT-30-4"
               x="1091.7969"
               id="use136" /><use
               xlink:href="#TimesNewRomanPSMT-33-1"
               x="1141.7969"
               id="use137" /><use
               xlink:href="#TimesNewRomanPSMT-38-6"
               x="1191.7969"
               id="use138" /><use
               xlink:href="#TimesNewRomanPSMT-2e-2"
               x="1241.7969"
               id="use139" /><use
               xlink:href="#TimesNewRomanPSMT-30-4"
               x="1266.7969"
               id="use140" /><use
               xlink:href="#TimesNewRomanPSMT-31-2"
               x="1316.7969"
               id="use141" /><use
               xlink:href="#TimesNewRomanPSMT-29-4"
               x="1366.7969"
               id="use142" /></g></g><g
           id="PathCollection_1"><defs
             id="defs142" /><g
             id="g143"><use
               xlink:href="#m15a2869089"
               x="179.55937"
               y="130.63756"
               style="fill:#0000ff;stroke:#0000ff"
               id="use143" /></g></g><g
           id="text_16"><!-- OS Velocity: $\theta = 90.00^\circ$, speed = 7.28kn --><g
             transform="matrix(0.12,0,0,-0.12,201.15937,133.78755)"
             id="g180"><defs
               id="defs143" /><use
               xlink:href="#TimesNewRomanPSMT-4f-9"
               transform="translate(0,0.234375)"
               id="use144" /><use
               xlink:href="#TimesNewRomanPSMT-53-3"
               transform="translate(72.216797,0.234375)"
               id="use145" /><use
               xlink:href="#TimesNewRomanPSMT-20-0"
               transform="translate(127.83203,0.234375)"
               id="use146" /><use
               xlink:href="#TimesNewRomanPSMT-56-9"
               transform="translate(152.83203,0.234375)"
               id="use147" /><use
               xlink:href="#TimesNewRomanPSMT-65-8"
               transform="translate(225.04883,0.234375)"
               id="use148" /><use
               xlink:href="#TimesNewRomanPSMT-6c-4"
               transform="translate(269.43359,0.234375)"
               id="use149" /><use
               xlink:href="#TimesNewRomanPSMT-6f-9"
               transform="translate(297.2168,0.234375)"
               id="use150" /><use
               xlink:href="#TimesNewRomanPSMT-63-8"
               transform="translate(347.2168,0.234375)"
               id="use151" /><use
               xlink:href="#TimesNewRomanPSMT-69-7"
               transform="translate(391.60156,0.234375)"
               id="use152" /><use
               xlink:href="#TimesNewRomanPSMT-74-8"
               transform="translate(419.38477,0.234375)"
               id="use153" /><use
               xlink:href="#TimesNewRomanPSMT-79-4"
               transform="translate(447.16797,0.234375)"
               id="use154" /><use
               xlink:href="#TimesNewRomanPSMT-3a-0"
               transform="translate(497.16797,0.234375)"
               id="use155" /><use
               xlink:href="#TimesNewRomanPSMT-20-0"
               transform="translate(524.95117,0.234375)"
               id="use156" /><use
               xlink:href="#DejaVuSans-Oblique-3b8-5"
               transform="translate(549.95117,0.234375)"
               id="use157" /><use
               xlink:href="#DejaVuSans-3d-6"
               transform="translate(630.61523,0.234375)"
               id="use158" /><use
               xlink:href="#DejaVuSans-39-0"
               transform="translate(733.88672,0.234375)"
               id="use159" /><use
               xlink:href="#DejaVuSans-30-8"
               transform="translate(797.50977,0.234375)"
               id="use160" /><use
               xlink:href="#DejaVuSans-2e-1"
               transform="translate(861.13281,0.234375)"
               id="use161" /><use
               xlink:href="#DejaVuSans-30-8"
               transform="translate(892.91992,0.234375)"
               id="use162" /><use
               xlink:href="#DejaVuSans-30-8"
               transform="translate(956.54297,0.234375)"
               id="use163" /><use
               xlink:href="#DejaVuSans-2218-4"
               transform="matrix(0.7,0,0,0.7,1034.7607,38.515625)"
               id="use164" /><use
               xlink:href="#TimesNewRomanPSMT-2c-6"
               transform="translate(1094.9512,0.234375)"
               id="use165" /><use
               xlink:href="#TimesNewRomanPSMT-20-0"
               transform="translate(1119.9512,0.234375)"
               id="use166" /><use
               xlink:href="#TimesNewRomanPSMT-73-9"
               transform="translate(1144.9512,0.234375)"
               id="use167" /><use
               xlink:href="#TimesNewRomanPSMT-70-0"
               transform="translate(1183.8672,0.234375)"
               id="use168" /><use
               xlink:href="#TimesNewRomanPSMT-65-8"
               transform="translate(1233.8672,0.234375)"
               id="use169" /><use
               xlink:href="#TimesNewRomanPSMT-65-8"
               transform="translate(1278.252,0.234375)"
               id="use170" /><use
               xlink:href="#TimesNewRomanPSMT-64-7"
               transform="translate(1322.6367,0.234375)"
               id="use171" /><use
               xlink:href="#TimesNewRomanPSMT-20-0"
               transform="translate(1372.6367,0.234375)"
               id="use172" /><use
               xlink:href="#TimesNewRomanPSMT-3d-1"
               transform="translate(1397.6367,0.234375)"
               id="use173" /><use
               xlink:href="#TimesNewRomanPSMT-20-0"
               transform="translate(1454.0332,0.234375)"
               id="use174" /><use
               xlink:href="#TimesNewRomanPSMT-37-6"
               transform="translate(1479.0332,0.234375)"
               id="use175" /><use
               xlink:href="#TimesNewRomanPSMT-2e-2"
               transform="translate(1529.0332,0.234375)"
               id="use176" /><use
               xlink:href="#TimesNewRomanPSMT-32-5"
               transform="translate(1554.0332,0.234375)"
               id="use177" /><use
               xlink:href="#TimesNewRomanPSMT-38-6"
               transform="translate(1604.0332,0.234375)"
               id="use178" /><use
               xlink:href="#TimesNewRomanPSMT-6b-7"
               transform="translate(1654.0332,0.234375)"
               id="use179" /><use
               xlink:href="#TimesNewRomanPSMT-6e-0"
               transform="translate(1704.0332,0.234375)"
               id="use180" /></g></g><g
           id="patch_10"><path
             d="m 167.55937,150.90068 h 24 v -8.4 h -24 z"
             style="fill:none;stroke:#ff0000;stroke-linejoin:miter;stroke-dasharray:3.7, 1.6;stroke-dashoffset:0"
             id="path180" /></g><g
           id="text_17"><!-- $TS_1$ Radius: 104.92m --><g
             transform="matrix(0.12,0,0,-0.12,201.15937,150.90068)"
             id="g199"><defs
               id="defs180" /><use
               xlink:href="#DejaVuSans-Oblique-54-9"
               transform="translate(0,0.78125)"
               id="use181" /><use
               xlink:href="#DejaVuSans-Oblique-53-8"
               transform="translate(61.083984,0.78125)"
               id="use182" /><use
               xlink:href="#DejaVuSans-31-7"
               transform="matrix(0.7,0,0,0.7,124.56055,-15.625)"
               id="use183" /><use
               xlink:href="#TimesNewRomanPSMT-20-0"
               transform="translate(171.83105,0.78125)"
               id="use184" /><use
               xlink:href="#TimesNewRomanPSMT-52-0"
               transform="translate(196.83105,0.78125)"
               id="use185" /><use
               xlink:href="#TimesNewRomanPSMT-61-1"
               transform="translate(263.53027,0.78125)"
               id="use186" /><use
               xlink:href="#TimesNewRomanPSMT-64-7"
               transform="translate(307.91504,0.78125)"
               id="use187" /><use
               xlink:href="#TimesNewRomanPSMT-69-7"
               transform="translate(357.91504,0.78125)"
               id="use188" /><use
               xlink:href="#TimesNewRomanPSMT-75-2"
               transform="translate(385.69824,0.78125)"
               id="use189" /><use
               xlink:href="#TimesNewRomanPSMT-73-9"
               transform="translate(435.69824,0.78125)"
               id="use190" /><use
               xlink:href="#TimesNewRomanPSMT-3a-0"
               transform="translate(474.61426,0.78125)"
               id="use191" /><use
               xlink:href="#TimesNewRomanPSMT-20-0"
               transform="translate(502.39746,0.78125)"
               id="use192" /><use
               xlink:href="#TimesNewRomanPSMT-31-2"
               transform="translate(527.39746,0.78125)"
               id="use193" /><use
               xlink:href="#TimesNewRomanPSMT-30-4"
               transform="translate(577.39746,0.78125)"
               id="use194" /><use
               xlink:href="#TimesNewRomanPSMT-34-7"
               transform="translate(627.39746,0.78125)"
               id="use195" /><use
               xlink:href="#TimesNewRomanPSMT-2e-2"
               transform="translate(677.39746,0.78125)"
               id="use196" /><use
               xlink:href="#TimesNewRomanPSMT-39-2"
               transform="translate(702.39746,0.78125)"
               id="use197" /><use
               xlink:href="#TimesNewRomanPSMT-32-5"
               transform="translate(752.39746,0.78125)"
               id="use198" /><use
               xlink:href="#TimesNewRomanPSMT-6d-0"
               transform="translate(802.39746,0.78125)"
               id="use199" /></g></g><g
           id="patch_11"><path
             d="m 167.55937,168.46755 h 24 v -8.4 h -24 z"
             style="fill:#ff0000"
             id="path199" /></g><g
           id="text_18"><!-- $TS_1$ Position: (21162.77, 13626.67) --><g
             transform="matrix(0.12,0,0,-0.12,201.15937,168.46755)"
             id="g233"><use
               xlink:href="#DejaVuSans-Oblique-54-9"
               transform="translate(0,0.78125)"
               id="use200" /><use
               xlink:href="#DejaVuSans-Oblique-53-8"
               transform="translate(61.083984,0.78125)"
               id="use201" /><use
               xlink:href="#DejaVuSans-31-7"
               transform="matrix(0.7,0,0,0.7,124.56055,-15.625)"
               id="use202" /><use
               xlink:href="#TimesNewRomanPSMT-20-0"
               transform="translate(171.83105,0.78125)"
               id="use203" /><use
               xlink:href="#TimesNewRomanPSMT-50-5"
               transform="translate(196.83105,0.78125)"
               id="use204" /><use
               xlink:href="#TimesNewRomanPSMT-6f-9"
               transform="translate(252.44629,0.78125)"
               id="use205" /><use
               xlink:href="#TimesNewRomanPSMT-73-9"
               transform="translate(302.44629,0.78125)"
               id="use206" /><use
               xlink:href="#TimesNewRomanPSMT-69-7"
               transform="translate(341.3623,0.78125)"
               id="use207" /><use
               xlink:href="#TimesNewRomanPSMT-74-8"
               transform="translate(369.14551,0.78125)"
               id="use208" /><use
               xlink:href="#TimesNewRomanPSMT-69-7"
               transform="translate(396.92871,0.78125)"
               id="use209" /><use
               xlink:href="#TimesNewRomanPSMT-6f-9"
               transform="translate(424.71191,0.78125)"
               id="use210" /><use
               xlink:href="#TimesNewRomanPSMT-6e-0"
               transform="translate(474.71191,0.78125)"
               id="use211" /><use
               xlink:href="#TimesNewRomanPSMT-3a-0"
               transform="translate(524.71191,0.78125)"
               id="use212" /><use
               xlink:href="#TimesNewRomanPSMT-20-0"
               transform="translate(552.49512,0.78125)"
               id="use213" /><use
               xlink:href="#TimesNewRomanPSMT-28-4"
               transform="translate(577.49512,0.78125)"
               id="use214" /><use
               xlink:href="#TimesNewRomanPSMT-32-5"
               transform="translate(610.7959,0.78125)"
               id="use215" /><use
               xlink:href="#TimesNewRomanPSMT-31-2"
               transform="translate(660.7959,0.78125)"
               id="use216" /><use
               xlink:href="#TimesNewRomanPSMT-31-2"
               transform="translate(710.7959,0.78125)"
               id="use217" /><use
               xlink:href="#TimesNewRomanPSMT-36-6"
               transform="translate(760.7959,0.78125)"
               id="use218" /><use
               xlink:href="#TimesNewRomanPSMT-32-5"
               transform="translate(810.7959,0.78125)"
               id="use219" /><use
               xlink:href="#TimesNewRomanPSMT-2e-2"
               transform="translate(860.7959,0.78125)"
               id="use220" /><use
               xlink:href="#TimesNewRomanPSMT-37-6"
               transform="translate(885.7959,0.78125)"
               id="use221" /><use
               xlink:href="#TimesNewRomanPSMT-37-6"
               transform="translate(935.7959,0.78125)"
               id="use222" /><use
               xlink:href="#TimesNewRomanPSMT-2c-6"
               transform="translate(985.7959,0.78125)"
               id="use223" /><use
               xlink:href="#TimesNewRomanPSMT-20-0"
               transform="translate(1010.7959,0.78125)"
               id="use224" /><use
               xlink:href="#TimesNewRomanPSMT-31-2"
               transform="translate(1035.7959,0.78125)"
               id="use225" /><use
               xlink:href="#TimesNewRomanPSMT-33-1"
               transform="translate(1085.7959,0.78125)"
               id="use226" /><use
               xlink:href="#TimesNewRomanPSMT-36-6"
               transform="translate(1135.7959,0.78125)"
               id="use227" /><use
               xlink:href="#TimesNewRomanPSMT-32-5"
               transform="translate(1185.7959,0.78125)"
               id="use228" /><use
               xlink:href="#TimesNewRomanPSMT-36-6"
               transform="translate(1235.7959,0.78125)"
               id="use229" /><use
               xlink:href="#TimesNewRomanPSMT-2e-2"
               transform="translate(1285.7959,0.78125)"
               id="use230" /><use
               xlink:href="#TimesNewRomanPSMT-36-6"
               transform="translate(1310.7959,0.78125)"
               id="use231" /><use
               xlink:href="#TimesNewRomanPSMT-37-6"
               transform="translate(1360.7959,0.78125)"
               id="use232" /><use
               xlink:href="#TimesNewRomanPSMT-29-4"
               transform="translate(1410.7959,0.78125)"
               id="use233" /></g></g><g
           id="PathCollection_2"><defs
             id="defs233" /><g
             id="g234"><use
               xlink:href="#mc745158a63"
               x="179.55937"
               y="183.19756"
               style="fill:#ff0000;stroke:#ff0000"
               id="use234" /></g></g><g
           id="text_19"><!-- $TS_1$ Velocity: $\theta = 173.10^\circ$, speed = 26.39kn --><g
             transform="matrix(0.12,0,0,-0.12,201.15937,186.34755)"
             id="g274"><defs
               id="defs234" /><use
               xlink:href="#DejaVuSans-Oblique-54-9"
               transform="translate(0,0.234375)"
               id="use235" /><use
               xlink:href="#DejaVuSans-Oblique-53-8"
               transform="translate(61.083984,0.234375)"
               id="use236" /><use
               xlink:href="#DejaVuSans-31-7"
               transform="matrix(0.7,0,0,0.7,124.56055,-16.171875)"
               id="use237" /><use
               xlink:href="#TimesNewRomanPSMT-20-0"
               transform="translate(171.83105,0.234375)"
               id="use238" /><use
               xlink:href="#TimesNewRomanPSMT-56-9"
               transform="translate(196.83105,0.234375)"
               id="use239" /><use
               xlink:href="#TimesNewRomanPSMT-65-8"
               transform="translate(269.04785,0.234375)"
               id="use240" /><use
               xlink:href="#TimesNewRomanPSMT-6c-4"
               transform="translate(313.43262,0.234375)"
               id="use241" /><use
               xlink:href="#TimesNewRomanPSMT-6f-9"
               transform="translate(341.21582,0.234375)"
               id="use242" /><use
               xlink:href="#TimesNewRomanPSMT-63-8"
               transform="translate(391.21582,0.234375)"
               id="use243" /><use
               xlink:href="#TimesNewRomanPSMT-69-7"
               transform="translate(435.60059,0.234375)"
               id="use244" /><use
               xlink:href="#TimesNewRomanPSMT-74-8"
               transform="translate(463.38379,0.234375)"
               id="use245" /><use
               xlink:href="#TimesNewRomanPSMT-79-4"
               transform="translate(491.16699,0.234375)"
               id="use246" /><use
               xlink:href="#TimesNewRomanPSMT-3a-0"
               transform="translate(541.16699,0.234375)"
               id="use247" /><use
               xlink:href="#TimesNewRomanPSMT-20-0"
               transform="translate(568.95019,0.234375)"
               id="use248" /><use
               xlink:href="#DejaVuSans-Oblique-3b8-5"
               transform="translate(593.95019,0.234375)"
               id="use249" /><use
               xlink:href="#DejaVuSans-3d-6"
               transform="translate(674.61426,0.234375)"
               id="use250" /><use
               xlink:href="#DejaVuSans-31-7"
               transform="translate(777.88574,0.234375)"
               id="use251" /><use
               xlink:href="#DejaVuSans-37-6"
               transform="translate(841.50879,0.234375)"
               id="use252" /><use
               xlink:href="#DejaVuSans-33-9"
               transform="translate(905.13184,0.234375)"
               id="use253" /><use
               xlink:href="#DejaVuSans-2e-1"
               transform="translate(968.75488,0.234375)"
               id="use254" /><use
               xlink:href="#DejaVuSans-31-7"
               transform="translate(1000.542,0.234375)"
               id="use255" /><use
               xlink:href="#DejaVuSans-30-8"
               transform="translate(1064.165,0.234375)"
               id="use256" /><use
               xlink:href="#DejaVuSans-2218-4"
               transform="matrix(0.7,0,0,0.7,1142.3828,38.515625)"
               id="use257" /><use
               xlink:href="#TimesNewRomanPSMT-2c-6"
               transform="translate(1202.5732,0.234375)"
               id="use258" /><use
               xlink:href="#TimesNewRomanPSMT-20-0"
               transform="translate(1227.5732,0.234375)"
               id="use259" /><use
               xlink:href="#TimesNewRomanPSMT-73-9"
               transform="translate(1252.5732,0.234375)"
               id="use260" /><use
               xlink:href="#TimesNewRomanPSMT-70-0"
               transform="translate(1291.4893,0.234375)"
               id="use261" /><use
               xlink:href="#TimesNewRomanPSMT-65-8"
               transform="translate(1341.4893,0.234375)"
               id="use262" /><use
               xlink:href="#TimesNewRomanPSMT-65-8"
               transform="translate(1385.874,0.234375)"
               id="use263" /><use
               xlink:href="#TimesNewRomanPSMT-64-7"
               transform="translate(1430.2588,0.234375)"
               id="use264" /><use
               xlink:href="#TimesNewRomanPSMT-20-0"
               transform="translate(1480.2588,0.234375)"
               id="use265" /><use
               xlink:href="#TimesNewRomanPSMT-3d-1"
               transform="translate(1505.2588,0.234375)"
               id="use266" /><use
               xlink:href="#TimesNewRomanPSMT-20-0"
               transform="translate(1561.6553,0.234375)"
               id="use267" /><use
               xlink:href="#TimesNewRomanPSMT-32-5"
               transform="translate(1586.6553,0.234375)"
               id="use268" /><use
               xlink:href="#TimesNewRomanPSMT-36-6"
               transform="translate(1636.6553,0.234375)"
               id="use269" /><use
               xlink:href="#TimesNewRomanPSMT-2e-2"
               transform="translate(1686.6553,0.234375)"
               id="use270" /><use
               xlink:href="#TimesNewRomanPSMT-33-1"
               transform="translate(1711.6553,0.234375)"
               id="use271" /><use
               xlink:href="#TimesNewRomanPSMT-39-2"
               transform="translate(1761.6553,0.234375)"
               id="use272" /><use
               xlink:href="#TimesNewRomanPSMT-6b-7"
               transform="translate(1811.6553,0.234375)"
               id="use273" /><use
               xlink:href="#TimesNewRomanPSMT-6e-0"
               transform="translate(1861.6553,0.234375)"
               id="use274" /></g></g><g
           id="patch_12"><path
             d="m 167.55937,203.46068 h 24 v -8.4 h -24 z"
             style="fill:none;stroke:#008000;stroke-linejoin:miter;stroke-dasharray:3.7, 1.6;stroke-dashoffset:0"
             id="path274" /></g><g
           id="text_20"><!-- $TS_2$ Radius: 58.81m --><g
             transform="matrix(0.12,0,0,-0.12,201.15937,203.46068)"
             id="g292"><defs
               id="defs274" /><use
               xlink:href="#DejaVuSans-Oblique-54-9"
               transform="translate(0,0.78125)"
               id="use275" /><use
               xlink:href="#DejaVuSans-Oblique-53-8"
               transform="translate(61.083984,0.78125)"
               id="use276" /><use
               xlink:href="#DejaVuSans-32-5"
               transform="matrix(0.7,0,0,0.7,124.56055,-15.625)"
               id="use277" /><use
               xlink:href="#TimesNewRomanPSMT-20-0"
               transform="translate(171.83105,0.78125)"
               id="use278" /><use
               xlink:href="#TimesNewRomanPSMT-52-0"
               transform="translate(196.83105,0.78125)"
               id="use279" /><use
               xlink:href="#TimesNewRomanPSMT-61-1"
               transform="translate(263.53027,0.78125)"
               id="use280" /><use
               xlink:href="#TimesNewRomanPSMT-64-7"
               transform="translate(307.91504,0.78125)"
               id="use281" /><use
               xlink:href="#TimesNewRomanPSMT-69-7"
               transform="translate(357.91504,0.78125)"
               id="use282" /><use
               xlink:href="#TimesNewRomanPSMT-75-2"
               transform="translate(385.69824,0.78125)"
               id="use283" /><use
               xlink:href="#TimesNewRomanPSMT-73-9"
               transform="translate(435.69824,0.78125)"
               id="use284" /><use
               xlink:href="#TimesNewRomanPSMT-3a-0"
               transform="translate(474.61426,0.78125)"
               id="use285" /><use
               xlink:href="#TimesNewRomanPSMT-20-0"
               transform="translate(502.39746,0.78125)"
               id="use286" /><use
               xlink:href="#TimesNewRomanPSMT-35-4"
               transform="translate(527.39746,0.78125)"
               id="use287" /><use
               xlink:href="#TimesNewRomanPSMT-38-6"
               transform="translate(577.39746,0.78125)"
               id="use288" /><use
               xlink:href="#TimesNewRomanPSMT-2e-2"
               transform="translate(627.39746,0.78125)"
               id="use289" /><use
               xlink:href="#TimesNewRomanPSMT-38-6"
               transform="translate(652.39746,0.78125)"
               id="use290" /><use
               xlink:href="#TimesNewRomanPSMT-31-2"
               transform="translate(702.39746,0.78125)"
               id="use291" /><use
               xlink:href="#TimesNewRomanPSMT-6d-0"
               transform="translate(752.39746,0.78125)"
               id="use292" /></g></g><g
           id="patch_13"><path
             d="m 167.55937,221.02755 h 24 v -8.4 h -24 z"
             style="fill:#008000"
             id="path292" /></g><g
           id="text_21"><!-- $TS_2$ Position: (2838.49, 12856.01) --><g
             transform="matrix(0.12,0,0,-0.12,201.15937,221.02755)"
             id="g325"><use
               xlink:href="#DejaVuSans-Oblique-54-9"
               transform="translate(0,0.78125)"
               id="use293" /><use
               xlink:href="#DejaVuSans-Oblique-53-8"
               transform="translate(61.083984,0.78125)"
               id="use294" /><use
               xlink:href="#DejaVuSans-32-5"
               transform="matrix(0.7,0,0,0.7,124.56055,-15.625)"
               id="use295" /><use
               xlink:href="#TimesNewRomanPSMT-20-0"
               transform="translate(171.83105,0.78125)"
               id="use296" /><use
               xlink:href="#TimesNewRomanPSMT-50-5"
               transform="translate(196.83105,0.78125)"
               id="use297" /><use
               xlink:href="#TimesNewRomanPSMT-6f-9"
               transform="translate(252.44629,0.78125)"
               id="use298" /><use
               xlink:href="#TimesNewRomanPSMT-73-9"
               transform="translate(302.44629,0.78125)"
               id="use299" /><use
               xlink:href="#TimesNewRomanPSMT-69-7"
               transform="translate(341.3623,0.78125)"
               id="use300" /><use
               xlink:href="#TimesNewRomanPSMT-74-8"
               transform="translate(369.14551,0.78125)"
               id="use301" /><use
               xlink:href="#TimesNewRomanPSMT-69-7"
               transform="translate(396.92871,0.78125)"
               id="use302" /><use
               xlink:href="#TimesNewRomanPSMT-6f-9"
               transform="translate(424.71191,0.78125)"
               id="use303" /><use
               xlink:href="#TimesNewRomanPSMT-6e-0"
               transform="translate(474.71191,0.78125)"
               id="use304" /><use
               xlink:href="#TimesNewRomanPSMT-3a-0"
               transform="translate(524.71191,0.78125)"
               id="use305" /><use
               xlink:href="#TimesNewRomanPSMT-20-0"
               transform="translate(552.49512,0.78125)"
               id="use306" /><use
               xlink:href="#TimesNewRomanPSMT-28-4"
               transform="translate(577.49512,0.78125)"
               id="use307" /><use
               xlink:href="#TimesNewRomanPSMT-32-5"
               transform="translate(610.7959,0.78125)"
               id="use308" /><use
               xlink:href="#TimesNewRomanPSMT-38-6"
               transform="translate(660.7959,0.78125)"
               id="use309" /><use
               xlink:href="#TimesNewRomanPSMT-33-1"
               transform="translate(710.7959,0.78125)"
               id="use310" /><use
               xlink:href="#TimesNewRomanPSMT-38-6"
               transform="translate(760.7959,0.78125)"
               id="use311" /><use
               xlink:href="#TimesNewRomanPSMT-2e-2"
               transform="translate(810.7959,0.78125)"
               id="use312" /><use
               xlink:href="#TimesNewRomanPSMT-34-7"
               transform="translate(835.7959,0.78125)"
               id="use313" /><use
               xlink:href="#TimesNewRomanPSMT-39-2"
               transform="translate(885.7959,0.78125)"
               id="use314" /><use
               xlink:href="#TimesNewRomanPSMT-2c-6"
               transform="translate(935.7959,0.78125)"
               id="use315" /><use
               xlink:href="#TimesNewRomanPSMT-20-0"
               transform="translate(960.7959,0.78125)"
               id="use316" /><use
               xlink:href="#TimesNewRomanPSMT-31-2"
               transform="translate(985.7959,0.78125)"
               id="use317" /><use
               xlink:href="#TimesNewRomanPSMT-32-5"
               transform="translate(1035.7959,0.78125)"
               id="use318" /><use
               xlink:href="#TimesNewRomanPSMT-38-6"
               transform="translate(1085.7959,0.78125)"
               id="use319" /><use
               xlink:href="#TimesNewRomanPSMT-35-4"
               transform="translate(1135.7959,0.78125)"
               id="use320" /><use
               xlink:href="#TimesNewRomanPSMT-36-6"
               transform="translate(1185.7959,0.78125)"
               id="use321" /><use
               xlink:href="#TimesNewRomanPSMT-2e-2"
               transform="translate(1235.7959,0.78125)"
               id="use322" /><use
               xlink:href="#TimesNewRomanPSMT-30-4"
               transform="translate(1260.7959,0.78125)"
               id="use323" /><use
               xlink:href="#TimesNewRomanPSMT-31-2"
               transform="translate(1310.7959,0.78125)"
               id="use324" /><use
               xlink:href="#TimesNewRomanPSMT-29-4"
               transform="translate(1360.7959,0.78125)"
               id="use325" /></g></g><g
           id="PathCollection_3"><defs
             id="defs325" /><g
             id="g326"><use
               xlink:href="#med0a4e4624"
               x="179.55937"
               y="235.75755"
               style="fill:#008000;stroke:#008000"
               id="use326" /></g></g><g
           id="text_22"><!-- $TS_2$ Velocity: $\theta = 17.34^\circ$, speed = 19.41kn --><g
             transform="matrix(0.12,0,0,-0.12,201.15937,238.90755)"
             id="g365"><defs
               id="defs326" /><use
               xlink:href="#DejaVuSans-Oblique-54-9"
               transform="translate(0,0.234375)"
               id="use327" /><use
               xlink:href="#DejaVuSans-Oblique-53-8"
               transform="translate(61.083984,0.234375)"
               id="use328" /><use
               xlink:href="#DejaVuSans-32-5"
               transform="matrix(0.7,0,0,0.7,124.56055,-16.171875)"
               id="use329" /><use
               xlink:href="#TimesNewRomanPSMT-20-0"
               transform="translate(171.83105,0.234375)"
               id="use330" /><use
               xlink:href="#TimesNewRomanPSMT-56-9"
               transform="translate(196.83105,0.234375)"
               id="use331" /><use
               xlink:href="#TimesNewRomanPSMT-65-8"
               transform="translate(269.04785,0.234375)"
               id="use332" /><use
               xlink:href="#TimesNewRomanPSMT-6c-4"
               transform="translate(313.43262,0.234375)"
               id="use333" /><use
               xlink:href="#TimesNewRomanPSMT-6f-9"
               transform="translate(341.21582,0.234375)"
               id="use334" /><use
               xlink:href="#TimesNewRomanPSMT-63-8"
               transform="translate(391.21582,0.234375)"
               id="use335" /><use
               xlink:href="#TimesNewRomanPSMT-69-7"
               transform="translate(435.60059,0.234375)"
               id="use336" /><use
               xlink:href="#TimesNewRomanPSMT-74-8"
               transform="translate(463.38379,0.234375)"
               id="use337" /><use
               xlink:href="#TimesNewRomanPSMT-79-4"
               transform="translate(491.16699,0.234375)"
               id="use338" /><use
               xlink:href="#TimesNewRomanPSMT-3a-0"
               transform="translate(541.16699,0.234375)"
               id="use339" /><use
               xlink:href="#TimesNewRomanPSMT-20-0"
               transform="translate(568.95019,0.234375)"
               id="use340" /><use
               xlink:href="#DejaVuSans-Oblique-3b8-5"
               transform="translate(593.95019,0.234375)"
               id="use341" /><use
               xlink:href="#DejaVuSans-3d-6"
               transform="translate(674.61426,0.234375)"
               id="use342" /><use
               xlink:href="#DejaVuSans-31-7"
               transform="translate(777.88574,0.234375)"
               id="use343" /><use
               xlink:href="#DejaVuSans-37-6"
               transform="translate(841.50879,0.234375)"
               id="use344" /><use
               xlink:href="#DejaVuSans-2e-1"
               transform="translate(905.13184,0.234375)"
               id="use345" /><use
               xlink:href="#DejaVuSans-33-9"
               transform="translate(936.91894,0.234375)"
               id="use346" /><use
               xlink:href="#DejaVuSans-34-2"
               transform="translate(1000.542,0.234375)"
               id="use347" /><use
               xlink:href="#DejaVuSans-2218-4"
               transform="matrix(0.7,0,0,0.7,1078.7598,38.515625)"
               id="use348" /><use
               xlink:href="#TimesNewRomanPSMT-2c-6"
               transform="translate(1138.9502,0.234375)"
               id="use349" /><use
               xlink:href="#TimesNewRomanPSMT-20-0"
               transform="translate(1163.9502,0.234375)"
               id="use350" /><use
               xlink:href="#TimesNewRomanPSMT-73-9"
               transform="translate(1188.9502,0.234375)"
               id="use351" /><use
               xlink:href="#TimesNewRomanPSMT-70-0"
               transform="translate(1227.8662,0.234375)"
               id="use352" /><use
               xlink:href="#TimesNewRomanPSMT-65-8"
               transform="translate(1277.8662,0.234375)"
               id="use353" /><use
               xlink:href="#TimesNewRomanPSMT-65-8"
               transform="translate(1322.251,0.234375)"
               id="use354" /><use
               xlink:href="#TimesNewRomanPSMT-64-7"
               transform="translate(1366.6357,0.234375)"
               id="use355" /><use
               xlink:href="#TimesNewRomanPSMT-20-0"
               transform="translate(1416.6357,0.234375)"
               id="use356" /><use
               xlink:href="#TimesNewRomanPSMT-3d-1"
               transform="translate(1441.6357,0.234375)"
               id="use357" /><use
               xlink:href="#TimesNewRomanPSMT-20-0"
               transform="translate(1498.0322,0.234375)"
               id="use358" /><use
               xlink:href="#TimesNewRomanPSMT-31-2"
               transform="translate(1523.0322,0.234375)"
               id="use359" /><use
               xlink:href="#TimesNewRomanPSMT-39-2"
               transform="translate(1573.0322,0.234375)"
               id="use360" /><use
               xlink:href="#TimesNewRomanPSMT-2e-2"
               transform="translate(1623.0322,0.234375)"
               id="use361" /><use
               xlink:href="#TimesNewRomanPSMT-34-7"
               transform="translate(1648.0322,0.234375)"
               id="use362" /><use
               xlink:href="#TimesNewRomanPSMT-31-2"
               transform="translate(1698.0322,0.234375)"
               id="use363" /><use
               xlink:href="#TimesNewRomanPSMT-6b-7"
               transform="translate(1748.0322,0.234375)"
               id="use364" /><use
               xlink:href="#TimesNewRomanPSMT-6e-0"
               transform="translate(1798.0322,0.234375)"
               id="use365" /></g></g></g></g></g></svg>
