<?xml version="1.0" encoding="utf-8" standalone="no"?>
<!DOCTYPE svg PUBLIC "-//W3C//DTD SVG 1.1//EN"
  "http://www.w3.org/Graphics/SVG/1.1/DTD/svg11.dtd">
<svg xmlns:xlink="http://www.w3.org/1999/xlink" width="423.067094pt" height="204.151071pt" viewBox="0 0 423.067094 204.151071" xmlns="http://www.w3.org/2000/svg" version="1.1">
 <metadata>
  <rdf:RDF xmlns:dc="http://purl.org/dc/elements/1.1/" xmlns:cc="http://creativecommons.org/ns#" xmlns:rdf="http://www.w3.org/1999/02/22-rdf-syntax-ns#">
   <cc:Work>
    <dc:type rdf:resource="http://purl.org/dc/dcmitype/StillImage"/>
    <dc:date>2024-10-20T18:49:19.774286</dc:date>
    <dc:format>image/svg+xml</dc:format>
    <dc:creator>
     <cc:Agent>
      <dc:title>Matplotlib v3.9.0, https://matplotlib.org/</dc:title>
     </cc:Agent>
    </dc:creator>
   </cc:Work>
  </rdf:RDF>
 </metadata>
 <defs>
  <style type="text/css">*{stroke-linejoin: round; stroke-linecap: butt}</style>
 </defs>
 <g id="figure_1">
  <g id="patch_1">
   <path d="M 0 204.151071 
L 423.067094 204.151071 
L 423.067094 0 
L 0 0 
z
" style="fill: #ffffff"/>
  </g>
  <g id="axes_1">
   <g id="patch_2">
    <path d="M 49.191094 163.661283 
L 114.685094 163.661283 
L 114.685094 23.199 
L 49.191094 23.199 
z
" style="fill: #ffffff"/>
   </g>
   <g id="PolyCollection_1">
    <path d="M 69.215056 148.732924 
L 59.637602 148.732924 
L 59.174884 147.649967 
L 58.698778 146.56701 
L 58.212869 145.484053 
L 57.721043 144.401095 
L 57.227418 143.318138 
L 56.73627 142.235181 
L 56.251942 141.152224 
L 55.778769 140.069267 
L 55.320991 138.98631 
L 54.882679 137.903353 
L 54.467667 136.820395 
L 54.079484 135.737438 
L 53.721314 134.654481 
L 53.395949 133.571524 
L 53.105769 132.488567 
L 52.852717 131.40561 
L 52.638299 130.322653 
L 52.463582 129.239695 
L 52.329198 128.156738 
L 52.235357 127.073781 
L 52.181857 125.990824 
L 52.168094 124.907867 
L 52.193073 123.82491 
L 52.255414 122.741953 
L 52.353352 121.658996 
L 52.484741 120.576038 
L 52.647052 119.493081 
L 52.837373 118.410124 
L 53.052413 117.327167 
L 53.288508 116.24421 
L 53.541644 115.161253 
L 53.807479 114.078296 
L 54.081395 112.995338 
L 54.358551 111.912381 
L 54.633961 110.829424 
L 54.902588 109.746467 
L 55.159452 108.66351 
L 55.399744 107.580553 
L 55.618963 106.497596 
L 55.813041 105.414638 
L 55.978474 104.331681 
L 56.112448 103.248724 
L 56.212939 102.165767 
L 56.278807 101.08281 
L 56.309852 99.999853 
L 56.306854 98.916896 
L 56.271566 97.833938 
L 56.206684 96.750981 
L 56.115783 95.668024 
L 56.003215 94.585067 
L 55.873987 93.50211 
L 55.73361 92.419153 
L 55.587934 91.336196 
L 55.442967 90.253239 
L 55.304696 89.170281 
L 55.178904 88.087324 
L 55.071001 87.004367 
L 54.985862 85.92141 
L 54.927695 84.838453 
L 54.899919 83.755496 
L 54.905085 82.672539 
L 54.944806 81.589581 
L 55.01973 80.506624 
L 55.129538 79.423667 
L 55.272962 78.34071 
L 55.447842 77.257753 
L 55.65119 76.174796 
L 55.879291 75.091839 
L 56.127802 74.008881 
L 56.391887 72.925924 
L 56.666341 71.842967 
L 56.945738 70.76001 
L 57.224573 69.677053 
L 57.49741 68.594096 
L 57.759028 67.511139 
L 58.004559 66.428181 
L 58.229621 65.345224 
L 58.430437 64.262267 
L 58.603946 63.17931 
L 58.747891 62.096353 
L 58.860892 61.013396 
L 58.942491 59.930439 
L 58.993186 58.847481 
L 59.014417 57.764524 
L 59.008549 56.681567 
L 58.978806 55.59861 
L 58.929188 54.515653 
L 58.864358 53.432696 
L 58.789504 52.349739 
L 58.71018 51.266782 
L 58.63213 50.183824 
L 58.561103 49.100867 
L 58.502663 48.01791 
L 58.462002 46.934953 
L 58.443768 45.851996 
L 58.451904 44.769039 
L 58.489522 43.686082 
L 58.558799 42.603124 
L 58.660921 41.520167 
L 70.191737 41.520167 
L 70.191737 41.520167 
L 70.293859 42.603124 
L 70.363137 43.686082 
L 70.400754 44.769039 
L 70.40889 45.851996 
L 70.390656 46.934953 
L 70.349995 48.01791 
L 70.291555 49.100867 
L 70.220528 50.183824 
L 70.142478 51.266782 
L 70.063154 52.349739 
L 69.9883 53.432696 
L 69.92347 54.515653 
L 69.873852 55.59861 
L 69.844109 56.681567 
L 69.838241 57.764524 
L 69.859472 58.847481 
L 69.910167 59.930439 
L 69.991767 61.013396 
L 70.104767 62.096353 
L 70.248712 63.17931 
L 70.422221 64.262267 
L 70.623037 65.345224 
L 70.848099 66.428181 
L 71.09363 67.511139 
L 71.355248 68.594096 
L 71.628085 69.677053 
L 71.90692 70.76001 
L 72.186317 71.842967 
L 72.460771 72.925924 
L 72.724856 74.008881 
L 72.973367 75.091839 
L 73.201468 76.174796 
L 73.404816 77.257753 
L 73.579696 78.34071 
L 73.723121 79.423667 
L 73.832928 80.506624 
L 73.907852 81.589581 
L 73.947573 82.672539 
L 73.952739 83.755496 
L 73.924964 84.838453 
L 73.866796 85.92141 
L 73.781657 87.004367 
L 73.673754 88.087324 
L 73.547962 89.170281 
L 73.409691 90.253239 
L 73.264724 91.336196 
L 73.119048 92.419153 
L 72.978671 93.50211 
L 72.849444 94.585067 
L 72.736876 95.668024 
L 72.645974 96.750981 
L 72.581092 97.833938 
L 72.545804 98.916896 
L 72.542806 99.999853 
L 72.573852 101.08281 
L 72.639719 102.165767 
L 72.74021 103.248724 
L 72.874184 104.331681 
L 73.039618 105.414638 
L 73.233695 106.497596 
L 73.452914 107.580553 
L 73.693207 108.66351 
L 73.95007 109.746467 
L 74.218697 110.829424 
L 74.494108 111.912381 
L 74.771263 112.995338 
L 75.045179 114.078296 
L 75.311015 115.161253 
L 75.56415 116.24421 
L 75.800245 117.327167 
L 76.015285 118.410124 
L 76.205607 119.493081 
L 76.367917 120.576038 
L 76.499306 121.658996 
L 76.597244 122.741953 
L 76.659585 123.82491 
L 76.684564 124.907867 
L 76.670802 125.990824 
L 76.617301 127.073781 
L 76.52346 128.156738 
L 76.389076 129.239695 
L 76.214359 130.322653 
L 75.999941 131.40561 
L 75.746889 132.488567 
L 75.456709 133.571524 
L 75.131344 134.654481 
L 74.773174 135.737438 
L 74.384992 136.820395 
L 73.969979 137.903353 
L 73.531667 138.98631 
L 73.07389 140.069267 
L 72.600716 141.152224 
L 72.116388 142.235181 
L 71.62524 143.318138 
L 71.131616 144.401095 
L 70.639789 145.484053 
L 70.15388 146.56701 
L 69.677775 147.649967 
L 69.215056 148.732924 
z
" clip-path="url(#pb93a99cc78)" style="fill: #0080ff; fill-opacity: 0.3"/>
   </g>
   <g id="PolyCollection_2">
    <path d="M 106.198636 147.3758 
L 92.701081 147.3758 
L 92.11929 146.306552 
L 91.540713 145.237303 
L 90.972689 144.168054 
L 90.422638 143.098805 
L 89.897859 142.029556 
L 89.405321 140.960308 
L 88.951467 139.891059 
L 88.54203 138.82181 
L 88.181868 137.752561 
L 87.874831 136.683312 
L 87.623666 135.614063 
L 87.429951 134.544815 
L 87.294075 133.475566 
L 87.215262 132.406317 
L 87.191623 131.337068 
L 87.220254 130.267819 
L 87.297361 129.198571 
L 87.418408 128.129322 
L 87.578288 127.060073 
L 87.771505 125.990824 
L 87.992353 124.921575 
L 88.235097 123.852326 
L 88.494147 122.783078 
L 88.764207 121.713829 
L 89.040406 120.64458 
L 89.318404 119.575331 
L 89.59447 118.506082 
L 89.865524 117.436834 
L 90.129162 116.367585 
L 90.383636 115.298336 
L 90.627823 114.229087 
L 90.861163 113.159838 
L 91.083586 112.090589 
L 91.29542 111.021341 
L 91.497298 109.952092 
L 91.690064 108.882843 
L 91.874677 107.813594 
L 92.052132 106.744345 
L 92.223388 105.675096 
L 92.389311 104.605848 
L 92.550636 103.536599 
L 92.707939 102.46735 
L 92.861637 101.398101 
L 93.011983 100.328852 
L 93.15909 99.259604 
L 93.30295 98.190355 
L 93.443459 97.121106 
L 93.580449 96.051857 
L 93.713712 94.982608 
L 93.843021 93.913359 
L 93.968148 92.844111 
L 94.088871 91.774862 
L 94.204984 90.705613 
L 94.316293 89.636364 
L 94.422614 88.567115 
L 94.523767 87.497867 
L 94.619576 86.428618 
L 94.709863 85.359369 
L 94.794453 84.29012 
L 94.873175 83.220871 
L 94.945878 82.151622 
L 95.012444 81.082374 
L 95.072804 80.013125 
L 95.126957 78.943876 
L 95.174993 77.874627 
L 95.217102 76.805378 
L 95.253589 75.73613 
L 95.28488 74.666881 
L 95.311514 73.597632 
L 95.334135 72.528383 
L 95.353469 71.459134 
L 95.3703 70.389885 
L 95.385435 69.320637 
L 95.399668 68.251388 
L 95.413747 67.182139 
L 95.428337 66.11289 
L 95.444001 65.043641 
L 95.461172 63.974393 
L 95.480158 62.905144 
L 95.501138 61.835895 
L 95.524187 60.766646 
L 95.5493 59.697397 
L 95.576434 58.628148 
L 95.605545 57.5589 
L 95.636642 56.489651 
L 95.669824 55.420402 
L 95.705317 54.351153 
L 95.743503 53.281904 
L 95.784927 52.212655 
L 95.830297 51.143407 
L 95.880463 50.074158 
L 95.936377 49.004909 
L 95.999042 47.93566 
L 96.069456 46.866411 
L 96.148534 45.797163 
L 96.237048 44.727914 
L 96.335552 43.658665 
L 96.444331 42.589416 
L 96.563356 41.520167 
L 102.336361 41.520167 
L 102.336361 41.520167 
L 102.455386 42.589416 
L 102.564165 43.658665 
L 102.662669 44.727914 
L 102.751183 45.797163 
L 102.830261 46.866411 
L 102.900675 47.93566 
L 102.96334 49.004909 
L 103.019254 50.074158 
L 103.069419 51.143407 
L 103.11479 52.212655 
L 103.156214 53.281904 
L 103.1944 54.351153 
L 103.229893 55.420402 
L 103.263075 56.489651 
L 103.294172 57.5589 
L 103.323283 58.628148 
L 103.350416 59.697397 
L 103.37553 60.766646 
L 103.398579 61.835895 
L 103.419559 62.905144 
L 103.438545 63.974393 
L 103.455716 65.043641 
L 103.471379 66.11289 
L 103.48597 67.182139 
L 103.500049 68.251388 
L 103.514282 69.320637 
L 103.529417 70.389885 
L 103.546248 71.459134 
L 103.565582 72.528383 
L 103.588203 73.597632 
L 103.614837 74.666881 
L 103.646128 75.73613 
L 103.682615 76.805378 
L 103.724724 77.874627 
L 103.77276 78.943876 
L 103.826913 80.013125 
L 103.887273 81.082374 
L 103.953839 82.151622 
L 104.026542 83.220871 
L 104.105264 84.29012 
L 104.189853 85.359369 
L 104.280141 86.428618 
L 104.37595 87.497867 
L 104.477103 88.567115 
L 104.583424 89.636364 
L 104.694732 90.705613 
L 104.810846 91.774862 
L 104.931569 92.844111 
L 105.056696 93.913359 
L 105.186005 94.982608 
L 105.319268 96.051857 
L 105.456258 97.121106 
L 105.596767 98.190355 
L 105.740627 99.259604 
L 105.887734 100.328852 
L 106.03808 101.398101 
L 106.191778 102.46735 
L 106.349081 103.536599 
L 106.510406 104.605848 
L 106.676329 105.675096 
L 106.847585 106.744345 
L 107.02504 107.813594 
L 107.209653 108.882843 
L 107.402418 109.952092 
L 107.604297 111.021341 
L 107.816131 112.090589 
L 108.038554 113.159838 
L 108.271894 114.229087 
L 108.516081 115.298336 
L 108.770555 116.367585 
L 109.034193 117.436834 
L 109.305247 118.506082 
L 109.581313 119.575331 
L 109.859311 120.64458 
L 110.13551 121.713829 
L 110.405569 122.783078 
L 110.66462 123.852326 
L 110.907364 124.921575 
L 111.128212 125.990824 
L 111.321428 127.060073 
L 111.481309 128.129322 
L 111.602356 129.198571 
L 111.679463 130.267819 
L 111.708094 131.337068 
L 111.684455 132.406317 
L 111.605641 133.475566 
L 111.469766 134.544815 
L 111.276051 135.614063 
L 111.024885 136.683312 
L 110.717849 137.752561 
L 110.357687 138.82181 
L 109.948249 139.891059 
L 109.494396 140.960308 
L 109.001858 142.029556 
L 108.477079 143.098805 
L 107.927028 144.168054 
L 107.359004 145.237303 
L 106.780427 146.306552 
L 106.198636 147.3758 
z
" clip-path="url(#pb93a99cc78)" style="fill: #ff8000; fill-opacity: 0.3"/>
   </g>
   <g id="matplotlib.axis_1">
    <g id="xtick_1">
     <g id="line2d_1">
      <defs>
       <path id="mccdd8b53d8" d="M 0 0 
L 0 3.5 
" style="stroke: #000000; stroke-width: 0.8"/>
      </defs>
      <g>
       <use xlink:href="#mccdd8b53d8" x="64.426329" y="163.661283" style="stroke: #000000; stroke-width: 0.8"/>
      </g>
     </g>
     <g id="text_1">
      <!-- MSR -->
      <g transform="translate(43.755388 195.136016) rotate(-45) scale(0.12 -0.12)">
       <defs>
        <path id="TimesNewRomanPS-BoldMT-4d" d="M 3050 1444 
L 4200 4238 
L 5925 4238 
L 5925 4122 
L 5788 4122 
Q 5600 4122 5488 4056 
Q 5409 4013 5363 3909 
Q 5328 3834 5328 3519 
L 5328 725 
Q 5328 400 5362 319 
Q 5397 238 5503 177 
Q 5609 116 5788 116 
L 5925 116 
L 5925 0 
L 3713 0 
L 3713 116 
L 3850 116 
Q 4038 116 4150 181 
Q 4228 225 4275 331 
Q 4309 406 4309 725 
L 4309 3866 
L 2684 0 
L 2609 0 
L 959 3838 
L 959 853 
Q 959 541 975 469 
Q 1016 313 1152 214 
Q 1288 116 1578 116 
L 1578 0 
L 128 0 
L 128 116 
L 172 116 
Q 313 113 434 161 
Q 556 209 618 290 
Q 681 372 716 519 
Q 722 553 722 838 
L 722 3519 
Q 722 3841 687 3920 
Q 653 4000 547 4061 
Q 441 4122 263 4122 
L 128 4122 
L 128 4238 
L 1859 4238 
L 3050 1444 
z
" transform="scale(0.015625)"/>
        <path id="TimesNewRomanPS-BoldMT-53" d="M 3006 4334 
L 3041 2922 
L 2913 2922 
Q 2822 3453 2467 3776 
Q 2113 4100 1700 4100 
Q 1381 4100 1195 3929 
Q 1009 3759 1009 3538 
Q 1009 3397 1075 3288 
Q 1166 3141 1366 2997 
Q 1513 2894 2044 2631 
Q 2788 2266 3047 1941 
Q 3303 1616 3303 1197 
Q 3303 666 2889 283 
Q 2475 -100 1838 -100 
Q 1638 -100 1459 -59 
Q 1281 -19 1013 94 
Q 863 156 766 156 
Q 684 156 593 93 
Q 503 31 447 -97 
L 331 -97 
L 331 1503 
L 447 1503 
Q 584 828 976 473 
Q 1369 119 1822 119 
Q 2172 119 2380 309 
Q 2588 500 2588 753 
Q 2588 903 2508 1043 
Q 2428 1184 2265 1311 
Q 2103 1438 1691 1641 
Q 1113 1925 859 2125 
Q 606 2325 470 2572 
Q 334 2819 334 3116 
Q 334 3622 706 3978 
Q 1078 4334 1644 4334 
Q 1850 4334 2044 4284 
Q 2191 4247 2402 4145 
Q 2613 4044 2697 4044 
Q 2778 4044 2825 4094 
Q 2872 4144 2913 4334 
L 3006 4334 
z
" transform="scale(0.015625)"/>
        <path id="TimesNewRomanPS-BoldMT-52" d="M 1700 1931 
L 1700 744 
Q 1700 400 1742 311 
Q 1784 222 1890 169 
Q 1997 116 2288 116 
L 2288 0 
L 119 0 
L 119 116 
Q 413 116 517 170 
Q 622 225 664 312 
Q 706 400 706 744 
L 706 3494 
Q 706 3838 664 3927 
Q 622 4016 515 4069 
Q 409 4122 119 4122 
L 119 4238 
L 2088 4238 
Q 2856 4238 3212 4131 
Q 3569 4025 3794 3739 
Q 4019 3453 4019 3069 
Q 4019 2600 3681 2294 
Q 3466 2100 3078 2003 
L 4097 569 
Q 4297 291 4381 222 
Q 4509 125 4678 116 
L 4678 0 
L 3344 0 
L 1978 1931 
L 1700 1931 
z
M 1700 4009 
L 1700 2153 
L 1878 2153 
Q 2313 2153 2528 2233 
Q 2744 2313 2867 2520 
Q 2991 2728 2991 3063 
Q 2991 3547 2764 3778 
Q 2538 4009 2034 4009 
L 1700 4009 
z
" transform="scale(0.015625)"/>
       </defs>
       <use xlink:href="#TimesNewRomanPS-BoldMT-4d"/>
       <use xlink:href="#TimesNewRomanPS-BoldMT-53" x="94.384766"/>
       <use xlink:href="#TimesNewRomanPS-BoldMT-52" x="150"/>
      </g>
     </g>
    </g>
    <g id="xtick_2">
     <g id="line2d_2">
      <g>
       <use xlink:href="#mccdd8b53d8" x="99.449858" y="163.661283" style="stroke: #000000; stroke-width: 0.8"/>
      </g>
     </g>
     <g id="text_2">
      <!-- SBO -->
      <g transform="translate(80.656286 193.258647) rotate(-45) scale(0.12 -0.12)">
       <defs>
        <path id="TimesNewRomanPS-BoldMT-42" d="M 2847 2247 
Q 3450 2106 3694 1906 
Q 4044 1622 4044 1169 
Q 4044 691 3659 378 
Q 3188 0 2288 0 
L 134 0 
L 134 116 
Q 428 116 533 170 
Q 638 225 680 312 
Q 722 400 722 744 
L 722 3494 
Q 722 3838 680 3927 
Q 638 4016 531 4069 
Q 425 4122 134 4122 
L 134 4238 
L 2166 4238 
Q 2894 4238 3197 4108 
Q 3500 3978 3675 3720 
Q 3850 3463 3850 3172 
Q 3850 2866 3628 2627 
Q 3406 2388 2847 2247 
z
M 1709 2331 
Q 2153 2331 2364 2431 
Q 2575 2531 2687 2712 
Q 2800 2894 2800 3175 
Q 2800 3456 2689 3636 
Q 2578 3816 2372 3909 
Q 2166 4003 1709 4000 
L 1709 2331 
z
M 1709 2088 
L 1709 728 
L 1706 572 
Q 1706 403 1792 317 
Q 1878 231 2047 231 
Q 2297 231 2508 342 
Q 2719 453 2831 664 
Q 2944 875 2944 1134 
Q 2944 1431 2806 1667 
Q 2669 1903 2428 1997 
Q 2188 2091 1709 2088 
z
" transform="scale(0.015625)"/>
        <path id="TimesNewRomanPS-BoldMT-4f" d="M 2472 4297 
Q 3484 4334 4117 3706 
Q 4750 3078 4750 2134 
Q 4750 1328 4278 716 
Q 3653 -97 2513 -97 
Q 1369 -97 744 678 
Q 250 1291 250 2131 
Q 250 3075 892 3704 
Q 1534 4334 2472 4297 
z
M 2509 4097 
Q 1928 4097 1625 3503 
Q 1378 3016 1378 2103 
Q 1378 1019 1759 500 
Q 2025 138 2503 138 
Q 2825 138 3041 294 
Q 3316 494 3469 933 
Q 3622 1372 3622 2078 
Q 3622 2919 3465 3336 
Q 3309 3753 3067 3925 
Q 2825 4097 2509 4097 
z
" transform="scale(0.015625)"/>
       </defs>
       <use xlink:href="#TimesNewRomanPS-BoldMT-53"/>
       <use xlink:href="#TimesNewRomanPS-BoldMT-42" x="55.615234"/>
       <use xlink:href="#TimesNewRomanPS-BoldMT-4f" x="122.314453"/>
      </g>
     </g>
    </g>
   </g>
   <g id="matplotlib.axis_2">
    <g id="ytick_1">
     <g id="line2d_3">
      <defs>
       <path id="md9b94451d6" d="M 0 0 
L -3.5 0 
" style="stroke: #000000; stroke-width: 0.8"/>
      </defs>
      <g>
       <use xlink:href="#md9b94451d6" x="49.191094" y="163.661283" style="stroke: #000000; stroke-width: 0.8"/>
      </g>
     </g>
     <g id="text_3">
      <!-- 0.00 -->
      <g transform="translate(21.191094 167.827533) scale(0.12 -0.12)">
       <defs>
        <path id="TimesNewRomanPSMT-30" d="M 231 2094 
Q 231 2819 450 3342 
Q 669 3866 1031 4122 
Q 1313 4325 1613 4325 
Q 2100 4325 2488 3828 
Q 2972 3213 2972 2159 
Q 2972 1422 2759 906 
Q 2547 391 2217 158 
Q 1888 -75 1581 -75 
Q 975 -75 572 641 
Q 231 1244 231 2094 
z
M 844 2016 
Q 844 1141 1059 588 
Q 1238 122 1591 122 
Q 1759 122 1940 273 
Q 2122 425 2216 781 
Q 2359 1319 2359 2297 
Q 2359 3022 2209 3506 
Q 2097 3866 1919 4016 
Q 1791 4119 1609 4119 
Q 1397 4119 1231 3928 
Q 1006 3669 925 3112 
Q 844 2556 844 2016 
z
" transform="scale(0.015625)"/>
        <path id="TimesNewRomanPSMT-2e" d="M 800 606 
Q 947 606 1047 504 
Q 1147 403 1147 259 
Q 1147 116 1045 14 
Q 944 -88 800 -88 
Q 656 -88 554 14 
Q 453 116 453 259 
Q 453 406 554 506 
Q 656 606 800 606 
z
" transform="scale(0.015625)"/>
       </defs>
       <use xlink:href="#TimesNewRomanPSMT-30"/>
       <use xlink:href="#TimesNewRomanPSMT-2e" x="50"/>
       <use xlink:href="#TimesNewRomanPSMT-30" x="75"/>
       <use xlink:href="#TimesNewRomanPSMT-30" x="125"/>
      </g>
     </g>
    </g>
    <g id="ytick_2">
     <g id="line2d_4">
      <g>
       <use xlink:href="#md9b94451d6" x="49.191094" y="133.126004" style="stroke: #000000; stroke-width: 0.8"/>
      </g>
     </g>
     <g id="text_4">
      <!-- 0.25 -->
      <g transform="translate(21.191094 137.292254) scale(0.12 -0.12)">
       <defs>
        <path id="TimesNewRomanPSMT-32" d="M 2934 816 
L 2638 0 
L 138 0 
L 138 116 
Q 1241 1122 1691 1759 
Q 2141 2397 2141 2925 
Q 2141 3328 1894 3587 
Q 1647 3847 1303 3847 
Q 991 3847 742 3664 
Q 494 3481 375 3128 
L 259 3128 
Q 338 3706 661 4015 
Q 984 4325 1469 4325 
Q 1984 4325 2329 3994 
Q 2675 3663 2675 3213 
Q 2675 2891 2525 2569 
Q 2294 2063 1775 1497 
Q 997 647 803 472 
L 1909 472 
Q 2247 472 2383 497 
Q 2519 522 2628 598 
Q 2738 675 2819 816 
L 2934 816 
z
" transform="scale(0.015625)"/>
        <path id="TimesNewRomanPSMT-35" d="M 2778 4238 
L 2534 3706 
L 1259 3706 
L 981 3138 
Q 1809 3016 2294 2522 
Q 2709 2097 2709 1522 
Q 2709 1188 2573 903 
Q 2438 619 2231 419 
Q 2025 219 1772 97 
Q 1413 -75 1034 -75 
Q 653 -75 479 54 
Q 306 184 306 341 
Q 306 428 378 495 
Q 450 563 559 563 
Q 641 563 702 538 
Q 763 513 909 409 
Q 1144 247 1384 247 
Q 1750 247 2026 523 
Q 2303 800 2303 1197 
Q 2303 1581 2056 1914 
Q 1809 2247 1375 2428 
Q 1034 2569 447 2591 
L 1259 4238 
L 2778 4238 
z
" transform="scale(0.015625)"/>
       </defs>
       <use xlink:href="#TimesNewRomanPSMT-30"/>
       <use xlink:href="#TimesNewRomanPSMT-2e" x="50"/>
       <use xlink:href="#TimesNewRomanPSMT-32" x="75"/>
       <use xlink:href="#TimesNewRomanPSMT-35" x="125"/>
      </g>
     </g>
    </g>
    <g id="ytick_3">
     <g id="line2d_5">
      <g>
       <use xlink:href="#md9b94451d6" x="49.191094" y="102.590725" style="stroke: #000000; stroke-width: 0.8"/>
      </g>
     </g>
     <g id="text_5">
      <!-- 0.50 -->
      <g transform="translate(21.191094 106.756975) scale(0.12 -0.12)">
       <use xlink:href="#TimesNewRomanPSMT-30"/>
       <use xlink:href="#TimesNewRomanPSMT-2e" x="50"/>
       <use xlink:href="#TimesNewRomanPSMT-35" x="75"/>
       <use xlink:href="#TimesNewRomanPSMT-30" x="125"/>
      </g>
     </g>
    </g>
    <g id="ytick_4">
     <g id="line2d_6">
      <g>
       <use xlink:href="#md9b94451d6" x="49.191094" y="72.055446" style="stroke: #000000; stroke-width: 0.8"/>
      </g>
     </g>
     <g id="text_6">
      <!-- 0.75 -->
      <g transform="translate(21.191094 76.221696) scale(0.12 -0.12)">
       <defs>
        <path id="TimesNewRomanPSMT-37" d="M 644 4238 
L 2916 4238 
L 2916 4119 
L 1503 -88 
L 1153 -88 
L 2419 3728 
L 1253 3728 
Q 900 3728 750 3644 
Q 488 3500 328 3200 
L 238 3234 
L 644 4238 
z
" transform="scale(0.015625)"/>
       </defs>
       <use xlink:href="#TimesNewRomanPSMT-30"/>
       <use xlink:href="#TimesNewRomanPSMT-2e" x="50"/>
       <use xlink:href="#TimesNewRomanPSMT-37" x="75"/>
       <use xlink:href="#TimesNewRomanPSMT-35" x="125"/>
      </g>
     </g>
    </g>
    <g id="ytick_5">
     <g id="line2d_7">
      <g>
       <use xlink:href="#md9b94451d6" x="49.191094" y="41.520167" style="stroke: #000000; stroke-width: 0.8"/>
      </g>
     </g>
     <g id="text_7">
      <!-- 1.00 -->
      <g transform="translate(21.191094 45.686417) scale(0.12 -0.12)">
       <defs>
        <path id="TimesNewRomanPSMT-31" d="M 750 3822 
L 1781 4325 
L 1884 4325 
L 1884 747 
Q 1884 391 1914 303 
Q 1944 216 2037 169 
Q 2131 122 2419 116 
L 2419 0 
L 825 0 
L 825 116 
Q 1125 122 1212 167 
Q 1300 213 1334 289 
Q 1369 366 1369 747 
L 1369 3034 
Q 1369 3497 1338 3628 
Q 1316 3728 1258 3775 
Q 1200 3822 1119 3822 
Q 1003 3822 797 3725 
L 750 3822 
z
" transform="scale(0.015625)"/>
       </defs>
       <use xlink:href="#TimesNewRomanPSMT-31"/>
       <use xlink:href="#TimesNewRomanPSMT-2e" x="50"/>
       <use xlink:href="#TimesNewRomanPSMT-30" x="75"/>
       <use xlink:href="#TimesNewRomanPSMT-30" x="125"/>
      </g>
     </g>
    </g>
    <g id="text_8">
     <!-- DS index of OS at $t_0$ -->
     <g transform="translate(14.838125 139.905141) rotate(-90) scale(0.11 -0.11)">
      <defs>
       <path id="TimesNewRomanPSMT-44" d="M 109 0 
L 109 116 
L 269 116 
Q 538 116 650 288 
Q 719 391 719 750 
L 719 3488 
Q 719 3884 631 3984 
Q 509 4122 269 4122 
L 109 4122 
L 109 4238 
L 1834 4238 
Q 2784 4238 3279 4022 
Q 3775 3806 4076 3303 
Q 4378 2800 4378 2141 
Q 4378 1256 3841 663 
Q 3238 0 2003 0 
L 109 0 
z
M 1319 306 
Q 1716 219 1984 219 
Q 2709 219 3187 728 
Q 3666 1238 3666 2109 
Q 3666 2988 3187 3494 
Q 2709 4000 1959 4000 
Q 1678 4000 1319 3909 
L 1319 306 
z
" transform="scale(0.015625)"/>
       <path id="TimesNewRomanPSMT-53" d="M 2934 4334 
L 2934 2869 
L 2819 2869 
Q 2763 3291 2617 3541 
Q 2472 3791 2203 3937 
Q 1934 4084 1647 4084 
Q 1322 4084 1109 3886 
Q 897 3688 897 3434 
Q 897 3241 1031 3081 
Q 1225 2847 1953 2456 
Q 2547 2138 2764 1967 
Q 2981 1797 3098 1565 
Q 3216 1334 3216 1081 
Q 3216 600 2842 251 
Q 2469 -97 1881 -97 
Q 1697 -97 1534 -69 
Q 1438 -53 1133 45 
Q 828 144 747 144 
Q 669 144 623 97 
Q 578 50 556 -97 
L 441 -97 
L 441 1356 
L 556 1356 
Q 638 900 775 673 
Q 913 447 1195 297 
Q 1478 147 1816 147 
Q 2206 147 2432 353 
Q 2659 559 2659 841 
Q 2659 997 2573 1156 
Q 2488 1316 2306 1453 
Q 2184 1547 1640 1851 
Q 1097 2156 867 2337 
Q 638 2519 519 2737 
Q 400 2956 400 3219 
Q 400 3675 750 4004 
Q 1100 4334 1641 4334 
Q 1978 4334 2356 4169 
Q 2531 4091 2603 4091 
Q 2684 4091 2736 4139 
Q 2788 4188 2819 4334 
L 2934 4334 
z
" transform="scale(0.015625)"/>
       <path id="TimesNewRomanPSMT-20" transform="scale(0.015625)"/>
       <path id="TimesNewRomanPSMT-69" d="M 928 4444 
Q 1059 4444 1151 4351 
Q 1244 4259 1244 4128 
Q 1244 3997 1151 3903 
Q 1059 3809 928 3809 
Q 797 3809 703 3903 
Q 609 3997 609 4128 
Q 609 4259 701 4351 
Q 794 4444 928 4444 
z
M 1188 2947 
L 1188 647 
Q 1188 378 1227 289 
Q 1266 200 1342 156 
Q 1419 113 1622 113 
L 1622 0 
L 231 0 
L 231 113 
Q 441 113 512 153 
Q 584 194 626 287 
Q 669 381 669 647 
L 669 1750 
Q 669 2216 641 2353 
Q 619 2453 572 2492 
Q 525 2531 444 2531 
Q 356 2531 231 2484 
L 188 2597 
L 1050 2947 
L 1188 2947 
z
" transform="scale(0.015625)"/>
       <path id="TimesNewRomanPSMT-6e" d="M 1034 2341 
Q 1538 2947 1994 2947 
Q 2228 2947 2397 2830 
Q 2566 2713 2666 2444 
Q 2734 2256 2734 1869 
L 2734 647 
Q 2734 375 2778 278 
Q 2813 200 2889 156 
Q 2966 113 3172 113 
L 3172 0 
L 1756 0 
L 1756 113 
L 1816 113 
Q 2016 113 2095 173 
Q 2175 234 2206 353 
Q 2219 400 2219 647 
L 2219 1819 
Q 2219 2209 2117 2386 
Q 2016 2563 1775 2563 
Q 1403 2563 1034 2156 
L 1034 647 
Q 1034 356 1069 288 
Q 1113 197 1189 155 
Q 1266 113 1500 113 
L 1500 0 
L 84 0 
L 84 113 
L 147 113 
Q 366 113 442 223 
Q 519 334 519 647 
L 519 1709 
Q 519 2225 495 2337 
Q 472 2450 423 2490 
Q 375 2531 294 2531 
Q 206 2531 84 2484 
L 38 2597 
L 900 2947 
L 1034 2947 
L 1034 2341 
z
" transform="scale(0.015625)"/>
       <path id="TimesNewRomanPSMT-64" d="M 2222 322 
Q 2013 103 1813 7 
Q 1613 -88 1381 -88 
Q 913 -88 563 304 
Q 213 697 213 1313 
Q 213 1928 600 2439 
Q 988 2950 1597 2950 
Q 1975 2950 2222 2709 
L 2222 3238 
Q 2222 3728 2198 3840 
Q 2175 3953 2125 3993 
Q 2075 4034 2000 4034 
Q 1919 4034 1784 3984 
L 1744 4094 
L 2597 4444 
L 2738 4444 
L 2738 1134 
Q 2738 631 2761 520 
Q 2784 409 2836 365 
Q 2888 322 2956 322 
Q 3041 322 3181 375 
L 3216 266 
L 2366 -88 
L 2222 -88 
L 2222 322 
z
M 2222 541 
L 2222 2016 
Q 2203 2228 2109 2403 
Q 2016 2578 1861 2667 
Q 1706 2756 1559 2756 
Q 1284 2756 1069 2509 
Q 784 2184 784 1559 
Q 784 928 1059 592 
Q 1334 256 1672 256 
Q 1956 256 2222 541 
z
" transform="scale(0.015625)"/>
       <path id="TimesNewRomanPSMT-65" d="M 681 1784 
Q 678 1147 991 784 
Q 1303 422 1725 422 
Q 2006 422 2214 576 
Q 2422 731 2563 1106 
L 2659 1044 
Q 2594 616 2278 264 
Q 1963 -88 1488 -88 
Q 972 -88 605 314 
Q 238 716 238 1394 
Q 238 2128 614 2539 
Q 991 2950 1559 2950 
Q 2041 2950 2350 2633 
Q 2659 2316 2659 1784 
L 681 1784 
z
M 681 1966 
L 2006 1966 
Q 1991 2241 1941 2353 
Q 1863 2528 1708 2628 
Q 1553 2728 1384 2728 
Q 1125 2728 920 2526 
Q 716 2325 681 1966 
z
" transform="scale(0.015625)"/>
       <path id="TimesNewRomanPSMT-78" d="M 84 2863 
L 1431 2863 
L 1431 2747 
Q 1303 2747 1251 2703 
Q 1200 2659 1200 2588 
Q 1200 2513 1309 2356 
Q 1344 2306 1413 2200 
L 1616 1875 
L 1850 2200 
Q 2075 2509 2075 2591 
Q 2075 2656 2022 2701 
Q 1969 2747 1850 2747 
L 1850 2863 
L 2819 2863 
L 2819 2747 
Q 2666 2738 2553 2663 
Q 2400 2556 2134 2200 
L 1744 1678 
L 2456 653 
Q 2719 275 2831 198 
Q 2944 122 3122 113 
L 3122 0 
L 1772 0 
L 1772 113 
Q 1913 113 1991 175 
Q 2050 219 2050 291 
Q 2050 363 1850 653 
L 1431 1266 
L 972 653 
Q 759 369 759 316 
Q 759 241 829 180 
Q 900 119 1041 113 
L 1041 0 
L 106 0 
L 106 113 
Q 219 128 303 191 
Q 422 281 703 653 
L 1303 1450 
L 759 2238 
Q 528 2575 401 2661 
Q 275 2747 84 2747 
L 84 2863 
z
" transform="scale(0.015625)"/>
       <path id="TimesNewRomanPSMT-6f" d="M 1600 2947 
Q 2250 2947 2644 2453 
Q 2978 2031 2978 1484 
Q 2978 1100 2793 706 
Q 2609 313 2286 112 
Q 1963 -88 1566 -88 
Q 919 -88 538 428 
Q 216 863 216 1403 
Q 216 1797 411 2186 
Q 606 2575 925 2761 
Q 1244 2947 1600 2947 
z
M 1503 2744 
Q 1338 2744 1170 2645 
Q 1003 2547 900 2300 
Q 797 2053 797 1666 
Q 797 1041 1045 587 
Q 1294 134 1700 134 
Q 2003 134 2200 384 
Q 2397 634 2397 1244 
Q 2397 2006 2069 2444 
Q 1847 2744 1503 2744 
z
" transform="scale(0.015625)"/>
       <path id="TimesNewRomanPSMT-66" d="M 1319 2638 
L 1319 756 
Q 1319 356 1406 250 
Q 1522 113 1716 113 
L 1975 113 
L 1975 0 
L 266 0 
L 266 113 
L 394 113 
Q 519 113 622 175 
Q 725 238 764 344 
Q 803 450 803 756 
L 803 2638 
L 247 2638 
L 247 2863 
L 803 2863 
L 803 3050 
Q 803 3478 940 3775 
Q 1078 4072 1361 4255 
Q 1644 4438 1997 4438 
Q 2325 4438 2600 4225 
Q 2781 4084 2781 3909 
Q 2781 3816 2700 3733 
Q 2619 3650 2525 3650 
Q 2453 3650 2373 3701 
Q 2294 3753 2178 3923 
Q 2063 4094 1966 4153 
Q 1869 4213 1750 4213 
Q 1606 4213 1506 4136 
Q 1406 4059 1362 3898 
Q 1319 3738 1319 3069 
L 1319 2863 
L 2056 2863 
L 2056 2638 
L 1319 2638 
z
" transform="scale(0.015625)"/>
       <path id="TimesNewRomanPSMT-4f" d="M 2341 4334 
Q 3166 4334 3770 3707 
Q 4375 3081 4375 2144 
Q 4375 1178 3765 540 
Q 3156 -97 2291 -97 
Q 1416 -97 820 525 
Q 225 1147 225 2134 
Q 225 3144 913 3781 
Q 1509 4334 2341 4334 
z
M 2281 4106 
Q 1713 4106 1369 3684 
Q 941 3159 941 2147 
Q 941 1109 1384 550 
Q 1725 125 2284 125 
Q 2881 125 3270 590 
Q 3659 1056 3659 2059 
Q 3659 3147 3231 3681 
Q 2888 4106 2281 4106 
z
" transform="scale(0.015625)"/>
       <path id="TimesNewRomanPSMT-61" d="M 1822 413 
Q 1381 72 1269 19 
Q 1100 -59 909 -59 
Q 613 -59 420 144 
Q 228 347 228 678 
Q 228 888 322 1041 
Q 450 1253 767 1440 
Q 1084 1628 1822 1897 
L 1822 2009 
Q 1822 2438 1686 2597 
Q 1550 2756 1291 2756 
Q 1094 2756 978 2650 
Q 859 2544 859 2406 
L 866 2225 
Q 866 2081 792 2003 
Q 719 1925 600 1925 
Q 484 1925 411 2006 
Q 338 2088 338 2228 
Q 338 2497 613 2722 
Q 888 2947 1384 2947 
Q 1766 2947 2009 2819 
Q 2194 2722 2281 2516 
Q 2338 2381 2338 1966 
L 2338 994 
Q 2338 584 2353 492 
Q 2369 400 2405 369 
Q 2441 338 2488 338 
Q 2538 338 2575 359 
Q 2641 400 2828 588 
L 2828 413 
Q 2478 -56 2159 -56 
Q 2006 -56 1915 50 
Q 1825 156 1822 413 
z
M 1822 616 
L 1822 1706 
Q 1350 1519 1213 1441 
Q 966 1303 859 1153 
Q 753 1003 753 825 
Q 753 600 887 451 
Q 1022 303 1197 303 
Q 1434 303 1822 616 
z
" transform="scale(0.015625)"/>
       <path id="TimesNewRomanPSMT-74" d="M 1031 3803 
L 1031 2863 
L 1700 2863 
L 1700 2644 
L 1031 2644 
L 1031 788 
Q 1031 509 1111 412 
Q 1191 316 1316 316 
Q 1419 316 1516 380 
Q 1613 444 1666 569 
L 1788 569 
Q 1678 263 1478 108 
Q 1278 -47 1066 -47 
Q 922 -47 784 33 
Q 647 113 581 261 
Q 516 409 516 719 
L 516 2644 
L 63 2644 
L 63 2747 
Q 234 2816 414 2980 
Q 594 3144 734 3369 
Q 806 3488 934 3803 
L 1031 3803 
z
" transform="scale(0.015625)"/>
       <path id="DejaVuSans-Oblique-74" d="M 2706 3500 
L 2619 3053 
L 1472 3053 
L 1100 1153 
Q 1081 1047 1072 975 
Q 1063 903 1063 863 
Q 1063 663 1183 572 
Q 1303 481 1569 481 
L 2150 481 
L 2053 0 
L 1503 0 
Q 991 0 739 200 
Q 488 400 488 806 
Q 488 878 497 964 
Q 506 1050 525 1153 
L 897 3053 
L 409 3053 
L 500 3500 
L 978 3500 
L 1172 4494 
L 1747 4494 
L 1556 3500 
L 2706 3500 
z
" transform="scale(0.015625)"/>
       <path id="DejaVuSans-30" d="M 2034 4250 
Q 1547 4250 1301 3770 
Q 1056 3291 1056 2328 
Q 1056 1369 1301 889 
Q 1547 409 2034 409 
Q 2525 409 2770 889 
Q 3016 1369 3016 2328 
Q 3016 3291 2770 3770 
Q 2525 4250 2034 4250 
z
M 2034 4750 
Q 2819 4750 3233 4129 
Q 3647 3509 3647 2328 
Q 3647 1150 3233 529 
Q 2819 -91 2034 -91 
Q 1250 -91 836 529 
Q 422 1150 422 2328 
Q 422 3509 836 4129 
Q 1250 4750 2034 4750 
z
" transform="scale(0.015625)"/>
      </defs>
      <use xlink:href="#TimesNewRomanPSMT-44" transform="translate(0 0.78125)"/>
      <use xlink:href="#TimesNewRomanPSMT-53" transform="translate(72.216797 0.78125)"/>
      <use xlink:href="#TimesNewRomanPSMT-20" transform="translate(127.832031 0.78125)"/>
      <use xlink:href="#TimesNewRomanPSMT-69" transform="translate(152.832031 0.78125)"/>
      <use xlink:href="#TimesNewRomanPSMT-6e" transform="translate(180.615234 0.78125)"/>
      <use xlink:href="#TimesNewRomanPSMT-64" transform="translate(230.615234 0.78125)"/>
      <use xlink:href="#TimesNewRomanPSMT-65" transform="translate(280.615234 0.78125)"/>
      <use xlink:href="#TimesNewRomanPSMT-78" transform="translate(325 0.78125)"/>
      <use xlink:href="#TimesNewRomanPSMT-20" transform="translate(375 0.78125)"/>
      <use xlink:href="#TimesNewRomanPSMT-6f" transform="translate(400 0.78125)"/>
      <use xlink:href="#TimesNewRomanPSMT-66" transform="translate(450 0.78125)"/>
      <use xlink:href="#TimesNewRomanPSMT-20" transform="translate(483.300781 0.78125)"/>
      <use xlink:href="#TimesNewRomanPSMT-4f" transform="translate(508.300781 0.78125)"/>
      <use xlink:href="#TimesNewRomanPSMT-53" transform="translate(580.517578 0.78125)"/>
      <use xlink:href="#TimesNewRomanPSMT-20" transform="translate(636.132812 0.78125)"/>
      <use xlink:href="#TimesNewRomanPSMT-61" transform="translate(661.132812 0.78125)"/>
      <use xlink:href="#TimesNewRomanPSMT-74" transform="translate(705.517578 0.78125)"/>
      <use xlink:href="#TimesNewRomanPSMT-20" transform="translate(733.300781 0.78125)"/>
      <use xlink:href="#DejaVuSans-Oblique-74" transform="translate(758.300781 0.78125)"/>
      <use xlink:href="#DejaVuSans-30" transform="translate(797.509766 -15.625) scale(0.7)"/>
     </g>
    </g>
   </g>
   <g id="LineCollection_1">
    <path d="M 58.297211 97.076877 
L 70.555447 97.076877 
" clip-path="url(#pb93a99cc78)" style="fill: none; stroke: #008000; stroke-width: 1.5"/>
    <path d="M 93.320741 107.156228 
L 105.578976 107.156228 
" clip-path="url(#pb93a99cc78)" style="fill: none; stroke: #008000; stroke-width: 1.5"/>
   </g>
   <g id="LineCollection_2">
    <path d="M 58.297211 41.520167 
L 70.555447 41.520167 
" clip-path="url(#pb93a99cc78)" style="fill: none; stroke: #1f77b4; stroke-width: 1.5"/>
    <path d="M 93.320741 41.520167 
L 105.578976 41.520167 
" clip-path="url(#pb93a99cc78)" style="fill: none; stroke: #1f77b4; stroke-width: 1.5"/>
   </g>
   <g id="LineCollection_3">
    <path d="M 58.297211 148.732924 
L 70.555447 148.732924 
" clip-path="url(#pb93a99cc78)" style="fill: none; stroke: #1f77b4; stroke-width: 1.5"/>
    <path d="M 93.320741 147.3758 
L 105.578976 147.3758 
" clip-path="url(#pb93a99cc78)" style="fill: none; stroke: #1f77b4; stroke-width: 1.5"/>
   </g>
   <g id="LineCollection_4">
    <path d="M 64.426329 148.732924 
L 64.426329 41.520167 
" clip-path="url(#pb93a99cc78)" style="fill: none; stroke: #1f77b4; stroke-width: 1.5"/>
    <path d="M 99.449858 147.3758 
L 99.449858 41.520167 
" clip-path="url(#pb93a99cc78)" style="fill: none; stroke: #1f77b4; stroke-width: 1.5"/>
   </g>
   <g id="LineCollection_5">
    <path d="M 58.297211 103.269287 
L 70.555447 103.269287 
" clip-path="url(#pb93a99cc78)" style="fill: none; stroke: #ff0000; stroke-width: 1.5"/>
    <path d="M 93.320741 116.840522 
L 105.578976 116.840522 
" clip-path="url(#pb93a99cc78)" style="fill: none; stroke: #ff0000; stroke-width: 1.5"/>
   </g>
   <g id="patch_3">
    <path d="M 49.191094 163.661283 
L 49.191094 23.199 
" style="fill: none; stroke: #000000; stroke-width: 0.8; stroke-linejoin: miter; stroke-linecap: square"/>
   </g>
   <g id="patch_4">
    <path d="M 114.685094 163.661283 
L 114.685094 23.199 
" style="fill: none; stroke: #000000; stroke-width: 0.8; stroke-linejoin: miter; stroke-linecap: square"/>
   </g>
   <g id="patch_5">
    <path d="M 49.191094 163.661283 
L 114.685094 163.661283 
" style="fill: none; stroke: #000000; stroke-width: 0.8; stroke-linejoin: miter; stroke-linecap: square"/>
   </g>
   <g id="patch_6">
    <path d="M 49.191094 23.199 
L 114.685094 23.199 
" style="fill: none; stroke: #000000; stroke-width: 0.8; stroke-linejoin: miter; stroke-linecap: square"/>
   </g>
   <g id="text_9">
    <!-- 159 -->
    <g transform="translate(56.926329 37.815455) scale(0.1 -0.1)">
     <defs>
      <path id="TimesNewRomanPSMT-39" d="M 338 -88 
L 338 28 
Q 744 34 1094 217 
Q 1444 400 1770 856 
Q 2097 1313 2225 1859 
Q 1734 1544 1338 1544 
Q 891 1544 572 1889 
Q 253 2234 253 2806 
Q 253 3363 572 3797 
Q 956 4325 1575 4325 
Q 2097 4325 2469 3894 
Q 2925 3359 2925 2575 
Q 2925 1869 2578 1258 
Q 2231 647 1613 244 
Q 1109 -88 516 -88 
L 338 -88 
z
M 2275 2091 
Q 2331 2497 2331 2741 
Q 2331 3044 2228 3395 
Q 2125 3747 1936 3934 
Q 1747 4122 1506 4122 
Q 1228 4122 1018 3872 
Q 809 3622 809 3128 
Q 809 2469 1088 2097 
Q 1291 1828 1588 1828 
Q 1731 1828 1928 1897 
Q 2125 1966 2275 2091 
z
" transform="scale(0.015625)"/>
     </defs>
     <use xlink:href="#TimesNewRomanPSMT-31"/>
     <use xlink:href="#TimesNewRomanPSMT-35" x="50"/>
     <use xlink:href="#TimesNewRomanPSMT-39" x="100"/>
    </g>
   </g>
   <g id="text_10">
    <!-- 195 -->
    <g transform="translate(91.949858 37.815455) scale(0.1 -0.1)">
     <use xlink:href="#TimesNewRomanPSMT-31"/>
     <use xlink:href="#TimesNewRomanPSMT-39" x="50"/>
     <use xlink:href="#TimesNewRomanPSMT-35" x="100"/>
    </g>
   </g>
   <g id="text_11">
    <!-- 3 Vessels -->
    <g transform="translate(55.465719 17.199) scale(0.144 -0.144)">
     <defs>
      <path id="TimesNewRomanPSMT-33" d="M 325 3431 
Q 506 3859 782 4092 
Q 1059 4325 1472 4325 
Q 1981 4325 2253 3994 
Q 2459 3747 2459 3466 
Q 2459 3003 1878 2509 
Q 2269 2356 2469 2072 
Q 2669 1788 2669 1403 
Q 2669 853 2319 450 
Q 1863 -75 997 -75 
Q 569 -75 414 31 
Q 259 138 259 259 
Q 259 350 332 419 
Q 406 488 509 488 
Q 588 488 669 463 
Q 722 447 909 348 
Q 1097 250 1169 231 
Q 1284 197 1416 197 
Q 1734 197 1970 444 
Q 2206 691 2206 1028 
Q 2206 1275 2097 1509 
Q 2016 1684 1919 1775 
Q 1784 1900 1550 2001 
Q 1316 2103 1072 2103 
L 972 2103 
L 972 2197 
Q 1219 2228 1467 2375 
Q 1716 2522 1828 2728 
Q 1941 2934 1941 3181 
Q 1941 3503 1739 3701 
Q 1538 3900 1238 3900 
Q 753 3900 428 3381 
L 325 3431 
z
" transform="scale(0.015625)"/>
      <path id="TimesNewRomanPSMT-56" d="M 4544 4238 
L 4544 4122 
Q 4319 4081 4203 3978 
Q 4038 3825 3909 3509 
L 2431 -97 
L 2316 -97 
L 728 3556 
Q 606 3838 556 3900 
Q 478 3997 364 4051 
Q 250 4106 56 4122 
L 56 4238 
L 1788 4238 
L 1788 4122 
Q 1494 4094 1406 4022 
Q 1319 3950 1319 3838 
Q 1319 3681 1463 3350 
L 2541 866 
L 3541 3319 
Q 3688 3681 3688 3822 
Q 3688 3913 3597 3995 
Q 3506 4078 3291 4113 
Q 3275 4116 3238 4122 
L 3238 4238 
L 4544 4238 
z
" transform="scale(0.015625)"/>
      <path id="TimesNewRomanPSMT-73" d="M 2050 2947 
L 2050 1972 
L 1947 1972 
Q 1828 2431 1642 2597 
Q 1456 2763 1169 2763 
Q 950 2763 815 2647 
Q 681 2531 681 2391 
Q 681 2216 781 2091 
Q 878 1963 1175 1819 
L 1631 1597 
Q 2266 1288 2266 781 
Q 2266 391 1970 151 
Q 1675 -88 1309 -88 
Q 1047 -88 709 6 
Q 606 38 541 38 
Q 469 38 428 -44 
L 325 -44 
L 325 978 
L 428 978 
Q 516 541 762 319 
Q 1009 97 1316 97 
Q 1531 97 1667 223 
Q 1803 350 1803 528 
Q 1803 744 1651 891 
Q 1500 1038 1047 1263 
Q 594 1488 453 1669 
Q 313 1847 313 2119 
Q 313 2472 555 2709 
Q 797 2947 1181 2947 
Q 1350 2947 1591 2875 
Q 1750 2828 1803 2828 
Q 1853 2828 1881 2850 
Q 1909 2872 1947 2947 
L 2050 2947 
z
" transform="scale(0.015625)"/>
      <path id="TimesNewRomanPSMT-6c" d="M 1184 4444 
L 1184 647 
Q 1184 378 1223 290 
Q 1263 203 1344 158 
Q 1425 113 1647 113 
L 1647 0 
L 244 0 
L 244 113 
Q 441 113 512 153 
Q 584 194 625 287 
Q 666 381 666 647 
L 666 3247 
Q 666 3731 644 3842 
Q 622 3953 573 3993 
Q 525 4034 450 4034 
Q 369 4034 244 3984 
L 191 4094 
L 1044 4444 
L 1184 4444 
z
" transform="scale(0.015625)"/>
     </defs>
     <use xlink:href="#TimesNewRomanPSMT-33"/>
     <use xlink:href="#TimesNewRomanPSMT-20" x="50"/>
     <use xlink:href="#TimesNewRomanPSMT-56" x="73.25"/>
     <use xlink:href="#TimesNewRomanPSMT-65" x="134.341797"/>
     <use xlink:href="#TimesNewRomanPSMT-73" x="178.726562"/>
     <use xlink:href="#TimesNewRomanPSMT-73" x="217.642578"/>
     <use xlink:href="#TimesNewRomanPSMT-65" x="256.558594"/>
     <use xlink:href="#TimesNewRomanPSMT-6c" x="300.943359"/>
     <use xlink:href="#TimesNewRomanPSMT-73" x="328.726562"/>
    </g>
   </g>
  </g>
  <g id="axes_2">
   <g id="patch_7">
    <path d="M 149.585094 163.661283 
L 215.079094 163.661283 
L 215.079094 23.199 
L 149.585094 23.199 
z
" style="fill: #ffffff"/>
   </g>
   <g id="PolyCollection_3">
    <path d="M 172.663636 140.590183 
L 156.977022 140.590183 
L 156.467513 139.589476 
L 155.971008 138.588769 
L 155.492922 137.588061 
L 155.038526 136.587354 
L 154.612827 135.586647 
L 154.22045 134.58594 
L 153.865526 133.585232 
L 153.551591 132.584525 
L 153.281507 131.583818 
L 153.057396 130.583111 
L 152.880594 129.582403 
L 152.751626 128.581696 
L 152.670206 127.580989 
L 152.635251 126.580282 
L 152.644924 125.579575 
L 152.696679 124.578867 
L 152.787337 123.57816 
L 152.913163 122.577453 
L 153.069953 121.576746 
L 153.253132 120.576038 
L 153.457845 119.575331 
L 153.679055 118.574624 
L 153.911639 117.573917 
L 154.150475 116.573209 
L 154.390526 115.572502 
L 154.626923 114.571795 
L 154.855027 113.571088 
L 155.070505 112.570381 
L 155.269381 111.569673 
L 155.448087 110.568966 
L 155.603513 109.568259 
L 155.733041 108.567552 
L 155.83458 107.566844 
L 155.906587 106.566137 
L 155.948085 105.56543 
L 155.958671 104.564723 
L 155.938515 103.564015 
L 155.888348 102.563308 
L 155.809442 101.562601 
L 155.703573 100.561894 
L 155.572983 99.561187 
L 155.420323 98.560479 
L 155.248592 97.559772 
L 155.061067 96.559065 
L 154.861229 95.558358 
L 154.652681 94.55765 
L 154.439075 93.556943 
L 154.224032 92.556236 
L 154.011073 91.555529 
L 153.803554 90.554822 
L 153.604609 89.554114 
L 153.41711 88.553407 
L 153.24363 87.5527 
L 153.086422 86.551993 
L 152.947409 85.551285 
L 152.828179 84.550578 
L 152.729992 83.549871 
L 152.653793 82.549164 
L 152.60022 81.548456 
L 152.569627 80.547749 
L 152.562094 79.547042 
L 152.577438 78.546335 
L 152.615227 77.545628 
L 152.674778 76.54492 
L 152.755165 75.544213 
L 152.855209 74.543506 
L 152.973484 73.542799 
L 153.108304 72.542091 
L 153.257732 71.541384 
L 153.419581 70.540677 
L 153.591428 69.53997 
L 153.770638 68.539262 
L 153.954397 67.538555 
L 154.139764 66.537848 
L 154.323725 65.537141 
L 154.503273 64.536434 
L 154.675486 63.535726 
L 154.837624 62.535019 
L 154.987225 61.534312 
L 155.122202 60.533605 
L 155.24094 59.532897 
L 155.342382 58.53219 
L 155.426103 57.531483 
L 155.492363 56.530776 
L 155.542143 55.530068 
L 155.577147 54.529361 
L 155.599785 53.528654 
L 155.613121 52.527947 
L 155.62079 51.52724 
L 155.626899 50.526532 
L 155.635891 49.525825 
L 155.652399 48.525118 
L 155.681084 47.524411 
L 155.726466 46.523703 
L 155.792759 45.522996 
L 155.883712 44.522289 
L 156.002467 43.521582 
L 156.151437 42.520875 
L 156.332216 41.520167 
L 173.308442 41.520167 
L 173.308442 41.520167 
L 173.489221 42.520875 
L 173.638191 43.521582 
L 173.756946 44.522289 
L 173.847899 45.522996 
L 173.914192 46.523703 
L 173.959574 47.524411 
L 173.988259 48.525118 
L 174.004767 49.525825 
L 174.013759 50.526532 
L 174.019868 51.52724 
L 174.027538 52.527947 
L 174.040873 53.528654 
L 174.063511 54.529361 
L 174.098515 55.530068 
L 174.148295 56.530776 
L 174.214556 57.531483 
L 174.298276 58.53219 
L 174.399718 59.532897 
L 174.518456 60.533605 
L 174.653433 61.534312 
L 174.803034 62.535019 
L 174.965172 63.535726 
L 175.137385 64.536434 
L 175.316933 65.537141 
L 175.500894 66.537848 
L 175.686261 67.538555 
L 175.870021 68.539262 
L 176.04923 69.53997 
L 176.221077 70.540677 
L 176.382926 71.541384 
L 176.532354 72.542091 
L 176.667175 73.542799 
L 176.785449 74.543506 
L 176.885493 75.544213 
L 176.96588 76.54492 
L 177.025431 77.545628 
L 177.06322 78.546335 
L 177.078564 79.547042 
L 177.071031 80.547749 
L 177.040438 81.548456 
L 176.986865 82.549164 
L 176.910666 83.549871 
L 176.812479 84.550578 
L 176.693249 85.551285 
L 176.554236 86.551993 
L 176.397029 87.5527 
L 176.223548 88.553407 
L 176.036049 89.554114 
L 175.837104 90.554822 
L 175.629585 91.555529 
L 175.416626 92.556236 
L 175.201584 93.556943 
L 174.987978 94.55765 
L 174.77943 95.558358 
L 174.579591 96.559065 
L 174.392066 97.559772 
L 174.220335 98.560479 
L 174.067675 99.561187 
L 173.937085 100.561894 
L 173.831216 101.562601 
L 173.75231 102.563308 
L 173.702143 103.564015 
L 173.681987 104.564723 
L 173.692573 105.56543 
L 173.734071 106.566137 
L 173.806078 107.566844 
L 173.907617 108.567552 
L 174.037146 109.568259 
L 174.192572 110.568966 
L 174.371278 111.569673 
L 174.570153 112.570381 
L 174.785631 113.571088 
L 175.013735 114.571795 
L 175.250132 115.572502 
L 175.490184 116.573209 
L 175.729019 117.573917 
L 175.961603 118.574624 
L 176.182814 119.575331 
L 176.387526 120.576038 
L 176.570705 121.576746 
L 176.727495 122.577453 
L 176.853321 123.57816 
L 176.943979 124.578867 
L 176.995734 125.579575 
L 177.005407 126.580282 
L 176.970452 127.580989 
L 176.889032 128.581696 
L 176.760064 129.582403 
L 176.583262 130.583111 
L 176.359151 131.583818 
L 176.089067 132.584525 
L 175.775132 133.585232 
L 175.420208 134.58594 
L 175.027831 135.586647 
L 174.602133 136.587354 
L 174.147736 137.588061 
L 173.66965 138.588769 
L 173.173145 139.589476 
L 172.663636 140.590183 
z
" clip-path="url(#pdeee431b0b)" style="fill: #0080ff; fill-opacity: 0.3"/>
   </g>
   <g id="PolyCollection_4">
    <path d="M 205.87368 143.982992 
L 193.814037 143.982992 
L 193.223222 142.948014 
L 192.624701 141.913036 
L 192.026052 140.878058 
L 191.435367 139.84308 
L 190.861037 138.808102 
L 190.311515 137.773124 
L 189.795057 136.738146 
L 189.31946 135.703168 
L 188.891801 134.668189 
L 188.518202 133.633211 
L 188.203617 132.598233 
L 187.951663 131.563255 
L 187.764502 130.528277 
L 187.642781 129.493299 
L 187.585623 128.458321 
L 187.590692 127.423343 
L 187.654301 126.388365 
L 187.771581 125.353387 
L 187.936688 124.318409 
L 188.14304 123.283431 
L 188.383571 122.248453 
L 188.650996 121.213475 
L 188.938061 120.178497 
L 189.237772 119.143519 
L 189.543602 118.108541 
L 189.849652 117.073563 
L 190.150772 116.038585 
L 190.442632 115.003607 
L 190.721757 113.968629 
L 190.985514 112.933651 
L 191.232063 111.898673 
L 191.46028 110.863695 
L 191.669664 109.828717 
L 191.860226 108.793739 
L 192.032371 107.758761 
L 192.186799 106.723783 
L 192.324394 105.688805 
L 192.446148 104.653827 
L 192.553089 103.618849 
L 192.646236 102.583871 
L 192.726569 101.548893 
L 192.795017 100.513915 
L 192.852468 99.478937 
L 192.899776 98.443959 
L 192.937794 97.408981 
L 192.967393 96.374003 
L 192.989494 95.339025 
L 193.005089 94.304047 
L 193.015255 93.269069 
L 193.021166 92.23409 
L 193.024081 91.199112 
L 193.025334 90.164134 
L 193.026313 89.129156 
L 193.028415 88.094178 
L 193.033018 87.0592 
L 193.041428 86.024222 
L 193.054837 84.989244 
L 193.074282 83.954266 
L 193.100604 82.919288 
L 193.134419 81.88431 
L 193.1761 80.849332 
L 193.225766 79.814354 
L 193.283287 78.779376 
L 193.348295 77.744398 
L 193.42021 76.70942 
L 193.498269 75.674442 
L 193.581567 74.639464 
L 193.669091 73.604486 
L 193.759764 72.569508 
L 193.852479 71.53453 
L 193.946135 70.499552 
L 194.039663 69.464574 
L 194.132049 68.429596 
L 194.22235 67.394618 
L 194.309707 66.35964 
L 194.393351 65.324662 
L 194.472617 64.289684 
L 194.546948 63.254706 
L 194.615909 62.219728 
L 194.679201 61.18475 
L 194.736681 60.149772 
L 194.788386 59.114794 
L 194.834556 58.079816 
L 194.87566 57.044838 
L 194.912414 56.00986 
L 194.9458 54.974882 
L 194.977069 53.939904 
L 195.007731 52.904926 
L 195.039532 51.869948 
L 195.074412 50.83497 
L 195.114447 49.799991 
L 195.161776 48.765013 
L 195.218513 47.730035 
L 195.286655 46.695057 
L 195.36798 45.660079 
L 195.463959 44.625101 
L 195.575668 43.590123 
L 195.703716 42.555145 
L 195.848201 41.520167 
L 203.839516 41.520167 
L 203.839516 41.520167 
L 203.984001 42.555145 
L 204.112049 43.590123 
L 204.223758 44.625101 
L 204.319737 45.660079 
L 204.401062 46.695057 
L 204.469204 47.730035 
L 204.525941 48.765013 
L 204.57327 49.799991 
L 204.613305 50.83497 
L 204.648185 51.869948 
L 204.679986 52.904926 
L 204.710648 53.939904 
L 204.741917 54.974882 
L 204.775303 56.00986 
L 204.812057 57.044838 
L 204.853161 58.079816 
L 204.899331 59.114794 
L 204.951036 60.149772 
L 205.008516 61.18475 
L 205.071808 62.219728 
L 205.140769 63.254706 
L 205.2151 64.289684 
L 205.294366 65.324662 
L 205.37801 66.35964 
L 205.465367 67.394618 
L 205.555668 68.429596 
L 205.648054 69.464574 
L 205.741582 70.499552 
L 205.835238 71.53453 
L 205.927953 72.569508 
L 206.018626 73.604486 
L 206.10615 74.639464 
L 206.189448 75.674442 
L 206.267507 76.70942 
L 206.339422 77.744398 
L 206.40443 78.779376 
L 206.461951 79.814354 
L 206.511617 80.849332 
L 206.553298 81.88431 
L 206.587113 82.919288 
L 206.613434 83.954266 
L 206.63288 84.989244 
L 206.646289 86.024222 
L 206.654699 87.0592 
L 206.659302 88.094178 
L 206.661404 89.129156 
L 206.662382 90.164134 
L 206.663636 91.199112 
L 206.666551 92.23409 
L 206.672461 93.269069 
L 206.682628 94.304047 
L 206.698223 95.339025 
L 206.720324 96.374003 
L 206.749923 97.408981 
L 206.787941 98.443959 
L 206.835249 99.478937 
L 206.8927 100.513915 
L 206.961148 101.548893 
L 207.041481 102.583871 
L 207.134628 103.618849 
L 207.241569 104.653827 
L 207.363323 105.688805 
L 207.500918 106.723783 
L 207.655346 107.758761 
L 207.827491 108.793739 
L 208.018053 109.828717 
L 208.227437 110.863695 
L 208.455654 111.898673 
L 208.702203 112.933651 
L 208.96596 113.968629 
L 209.245085 115.003607 
L 209.536945 116.038585 
L 209.838064 117.073563 
L 210.144115 118.108541 
L 210.449945 119.143519 
L 210.749656 120.178497 
L 211.036721 121.213475 
L 211.304146 122.248453 
L 211.544677 123.283431 
L 211.751029 124.318409 
L 211.916136 125.353387 
L 212.033416 126.388365 
L 212.097025 127.423343 
L 212.102094 128.458321 
L 212.044936 129.493299 
L 211.923215 130.528277 
L 211.736054 131.563255 
L 211.4841 132.598233 
L 211.169514 133.633211 
L 210.795916 134.668189 
L 210.368257 135.703168 
L 209.89266 136.738146 
L 209.376202 137.773124 
L 208.82668 138.808102 
L 208.25235 139.84308 
L 207.661665 140.878058 
L 207.063016 141.913036 
L 206.464495 142.948014 
L 205.87368 143.982992 
z
" clip-path="url(#pdeee431b0b)" style="fill: #ff8000; fill-opacity: 0.3"/>
   </g>
   <g id="matplotlib.axis_3">
    <g id="xtick_3">
     <g id="line2d_8">
      <g>
       <use xlink:href="#mccdd8b53d8" x="164.820329" y="163.661283" style="stroke: #000000; stroke-width: 0.8"/>
      </g>
     </g>
     <g id="text_12">
      <!-- MSR -->
      <g transform="translate(144.149388 195.136016) rotate(-45) scale(0.12 -0.12)">
       <use xlink:href="#TimesNewRomanPS-BoldMT-4d"/>
       <use xlink:href="#TimesNewRomanPS-BoldMT-53" x="94.384766"/>
       <use xlink:href="#TimesNewRomanPS-BoldMT-52" x="150"/>
      </g>
     </g>
    </g>
    <g id="xtick_4">
     <g id="line2d_9">
      <g>
       <use xlink:href="#mccdd8b53d8" x="199.843858" y="163.661283" style="stroke: #000000; stroke-width: 0.8"/>
      </g>
     </g>
     <g id="text_13">
      <!-- SBO -->
      <g transform="translate(181.050286 193.258647) rotate(-45) scale(0.12 -0.12)">
       <use xlink:href="#TimesNewRomanPS-BoldMT-53"/>
       <use xlink:href="#TimesNewRomanPS-BoldMT-42" x="55.615234"/>
       <use xlink:href="#TimesNewRomanPS-BoldMT-4f" x="122.314453"/>
      </g>
     </g>
    </g>
   </g>
   <g id="matplotlib.axis_4">
    <g id="ytick_6">
     <g id="line2d_10">
      <g>
       <use xlink:href="#md9b94451d6" x="149.585094" y="163.661283" style="stroke: #000000; stroke-width: 0.8"/>
      </g>
     </g>
     <g id="text_14">
      <!-- 0.00 -->
      <g transform="translate(121.585094 167.827533) scale(0.12 -0.12)">
       <use xlink:href="#TimesNewRomanPSMT-30"/>
       <use xlink:href="#TimesNewRomanPSMT-2e" x="50"/>
       <use xlink:href="#TimesNewRomanPSMT-30" x="75"/>
       <use xlink:href="#TimesNewRomanPSMT-30" x="125"/>
      </g>
     </g>
    </g>
    <g id="ytick_7">
     <g id="line2d_11">
      <g>
       <use xlink:href="#md9b94451d6" x="149.585094" y="133.126004" style="stroke: #000000; stroke-width: 0.8"/>
      </g>
     </g>
     <g id="text_15">
      <!-- 0.25 -->
      <g transform="translate(121.585094 137.292254) scale(0.12 -0.12)">
       <use xlink:href="#TimesNewRomanPSMT-30"/>
       <use xlink:href="#TimesNewRomanPSMT-2e" x="50"/>
       <use xlink:href="#TimesNewRomanPSMT-32" x="75"/>
       <use xlink:href="#TimesNewRomanPSMT-35" x="125"/>
      </g>
     </g>
    </g>
    <g id="ytick_8">
     <g id="line2d_12">
      <g>
       <use xlink:href="#md9b94451d6" x="149.585094" y="102.590725" style="stroke: #000000; stroke-width: 0.8"/>
      </g>
     </g>
     <g id="text_16">
      <!-- 0.50 -->
      <g transform="translate(121.585094 106.756975) scale(0.12 -0.12)">
       <use xlink:href="#TimesNewRomanPSMT-30"/>
       <use xlink:href="#TimesNewRomanPSMT-2e" x="50"/>
       <use xlink:href="#TimesNewRomanPSMT-35" x="75"/>
       <use xlink:href="#TimesNewRomanPSMT-30" x="125"/>
      </g>
     </g>
    </g>
    <g id="ytick_9">
     <g id="line2d_13">
      <g>
       <use xlink:href="#md9b94451d6" x="149.585094" y="72.055446" style="stroke: #000000; stroke-width: 0.8"/>
      </g>
     </g>
     <g id="text_17">
      <!-- 0.75 -->
      <g transform="translate(121.585094 76.221696) scale(0.12 -0.12)">
       <use xlink:href="#TimesNewRomanPSMT-30"/>
       <use xlink:href="#TimesNewRomanPSMT-2e" x="50"/>
       <use xlink:href="#TimesNewRomanPSMT-37" x="75"/>
       <use xlink:href="#TimesNewRomanPSMT-35" x="125"/>
      </g>
     </g>
    </g>
    <g id="ytick_10">
     <g id="line2d_14">
      <g>
       <use xlink:href="#md9b94451d6" x="149.585094" y="41.520167" style="stroke: #000000; stroke-width: 0.8"/>
      </g>
     </g>
     <g id="text_18">
      <!-- 1.00 -->
      <g transform="translate(121.585094 45.686417) scale(0.12 -0.12)">
       <use xlink:href="#TimesNewRomanPSMT-31"/>
       <use xlink:href="#TimesNewRomanPSMT-2e" x="50"/>
       <use xlink:href="#TimesNewRomanPSMT-30" x="75"/>
       <use xlink:href="#TimesNewRomanPSMT-30" x="125"/>
      </g>
     </g>
    </g>
   </g>
   <g id="LineCollection_6">
    <path d="M 158.691211 89.70716 
L 170.949447 89.70716 
" clip-path="url(#pdeee431b0b)" style="fill: none; stroke: #008000; stroke-width: 1.5"/>
    <path d="M 193.714741 99.879788 
L 205.972976 99.879788 
" clip-path="url(#pdeee431b0b)" style="fill: none; stroke: #008000; stroke-width: 1.5"/>
   </g>
   <g id="LineCollection_7">
    <path d="M 158.691211 41.520167 
L 170.949447 41.520167 
" clip-path="url(#pdeee431b0b)" style="fill: none; stroke: #1f77b4; stroke-width: 1.5"/>
    <path d="M 193.714741 41.520167 
L 205.972976 41.520167 
" clip-path="url(#pdeee431b0b)" style="fill: none; stroke: #1f77b4; stroke-width: 1.5"/>
   </g>
   <g id="LineCollection_8">
    <path d="M 158.691211 140.590183 
L 170.949447 140.590183 
" clip-path="url(#pdeee431b0b)" style="fill: none; stroke: #1f77b4; stroke-width: 1.5"/>
    <path d="M 193.714741 143.982992 
L 205.972976 143.982992 
" clip-path="url(#pdeee431b0b)" style="fill: none; stroke: #1f77b4; stroke-width: 1.5"/>
   </g>
   <g id="LineCollection_9">
    <path d="M 164.820329 140.590183 
L 164.820329 41.520167 
" clip-path="url(#pdeee431b0b)" style="fill: none; stroke: #1f77b4; stroke-width: 1.5"/>
    <path d="M 199.843858 143.982992 
L 199.843858 41.520167 
" clip-path="url(#pdeee431b0b)" style="fill: none; stroke: #1f77b4; stroke-width: 1.5"/>
   </g>
   <g id="LineCollection_10">
    <path d="M 158.691211 88.340928 
L 170.949447 88.340928 
" clip-path="url(#pdeee431b0b)" style="fill: none; stroke: #ff0000; stroke-width: 1.5"/>
    <path d="M 193.714741 107.340657 
L 205.972976 107.340657 
" clip-path="url(#pdeee431b0b)" style="fill: none; stroke: #ff0000; stroke-width: 1.5"/>
   </g>
   <g id="patch_8">
    <path d="M 149.585094 163.661283 
L 149.585094 23.199 
" style="fill: none; stroke: #000000; stroke-width: 0.8; stroke-linejoin: miter; stroke-linecap: square"/>
   </g>
   <g id="patch_9">
    <path d="M 215.079094 163.661283 
L 215.079094 23.199 
" style="fill: none; stroke: #000000; stroke-width: 0.8; stroke-linejoin: miter; stroke-linecap: square"/>
   </g>
   <g id="patch_10">
    <path d="M 149.585094 163.661283 
L 215.079094 163.661283 
" style="fill: none; stroke: #000000; stroke-width: 0.8; stroke-linejoin: miter; stroke-linecap: square"/>
   </g>
   <g id="patch_11">
    <path d="M 149.585094 23.199 
L 215.079094 23.199 
" style="fill: none; stroke: #000000; stroke-width: 0.8; stroke-linejoin: miter; stroke-linecap: square"/>
   </g>
   <g id="text_19">
    <!-- 149 -->
    <g transform="translate(157.320329 37.815455) scale(0.1 -0.1)">
     <defs>
      <path id="TimesNewRomanPSMT-34" d="M 2978 1563 
L 2978 1119 
L 2409 1119 
L 2409 0 
L 1894 0 
L 1894 1119 
L 100 1119 
L 100 1519 
L 2066 4325 
L 2409 4325 
L 2409 1563 
L 2978 1563 
z
M 1894 1563 
L 1894 3666 
L 406 1563 
L 1894 1563 
z
" transform="scale(0.015625)"/>
     </defs>
     <use xlink:href="#TimesNewRomanPSMT-31"/>
     <use xlink:href="#TimesNewRomanPSMT-34" x="50"/>
     <use xlink:href="#TimesNewRomanPSMT-39" x="100"/>
    </g>
   </g>
   <g id="text_20">
    <!-- 205 -->
    <g transform="translate(192.343858 37.815455) scale(0.1 -0.1)">
     <use xlink:href="#TimesNewRomanPSMT-32"/>
     <use xlink:href="#TimesNewRomanPSMT-30" x="50"/>
     <use xlink:href="#TimesNewRomanPSMT-35" x="100"/>
    </g>
   </g>
   <g id="text_21">
    <!-- 4 Vessels -->
    <g transform="translate(155.859719 17.199) scale(0.144 -0.144)">
     <use xlink:href="#TimesNewRomanPSMT-34"/>
     <use xlink:href="#TimesNewRomanPSMT-20" x="50"/>
     <use xlink:href="#TimesNewRomanPSMT-56" x="73.25"/>
     <use xlink:href="#TimesNewRomanPSMT-65" x="134.341797"/>
     <use xlink:href="#TimesNewRomanPSMT-73" x="178.726562"/>
     <use xlink:href="#TimesNewRomanPSMT-73" x="217.642578"/>
     <use xlink:href="#TimesNewRomanPSMT-65" x="256.558594"/>
     <use xlink:href="#TimesNewRomanPSMT-6c" x="300.943359"/>
     <use xlink:href="#TimesNewRomanPSMT-73" x="328.726562"/>
    </g>
   </g>
  </g>
  <g id="axes_3">
   <g id="patch_12">
    <path d="M 249.979094 163.661283 
L 315.473094 163.661283 
L 315.473094 23.199 
L 249.979094 23.199 
z
" style="fill: #ffffff"/>
   </g>
   <g id="PolyCollection_5">
    <path d="M 271.610322 133.126004 
L 258.818336 133.126004 
L 258.525029 132.200692 
L 258.248886 131.275381 
L 257.992183 130.350069 
L 257.756877 129.424758 
L 257.54457 128.499446 
L 257.356477 127.574135 
L 257.193412 126.648823 
L 257.055777 125.723512 
L 256.943566 124.7982 
L 256.856374 123.872889 
L 256.793421 122.947577 
L 256.753579 122.022266 
L 256.735402 121.096954 
L 256.737165 120.171643 
L 256.756908 119.246332 
L 256.79247 118.32102 
L 256.841537 117.395709 
L 256.901679 116.470397 
L 256.97039 115.545086 
L 257.045122 114.619774 
L 257.123318 113.694463 
L 257.202446 112.769151 
L 257.280018 111.84384 
L 257.353622 110.918528 
L 257.420939 109.993217 
L 257.479765 109.067905 
L 257.52803 108.142594 
L 257.563816 107.217282 
L 257.585374 106.291971 
L 257.591143 105.366659 
L 257.579766 104.441348 
L 257.55011 103.516036 
L 257.501279 102.590725 
L 257.432636 101.665413 
L 257.34382 100.740102 
L 257.234753 99.81479 
L 257.105662 98.889479 
L 256.95708 97.964167 
L 256.789859 97.038856 
L 256.605167 96.113545 
L 256.404487 95.188233 
L 256.189606 94.262922 
L 255.962602 93.33761 
L 255.725822 92.412299 
L 255.481855 91.486987 
L 255.233499 90.561676 
L 254.983722 89.636364 
L 254.735616 88.711053 
L 254.492352 87.785741 
L 254.257126 86.86043 
L 254.033102 85.935118 
L 253.823359 85.009807 
L 253.630829 84.084495 
L 253.458247 83.159184 
L 253.308087 82.233872 
L 253.182516 81.308561 
L 253.083345 80.383249 
L 253.011982 79.457938 
L 252.969398 78.532626 
L 252.956094 77.607315 
L 252.972077 76.682003 
L 253.016848 75.756692 
L 253.089395 74.831381 
L 253.188198 73.906069 
L 253.311243 72.980758 
L 253.456046 72.055446 
L 253.619692 71.130135 
L 253.798879 70.204823 
L 253.989978 69.279512 
L 254.1891 68.3542 
L 254.392173 67.428889 
L 254.595028 66.503577 
L 254.793496 65.578266 
L 254.983503 64.652954 
L 255.161174 63.727643 
L 255.322939 62.802331 
L 255.465631 61.87702 
L 255.58659 60.951708 
L 255.683746 60.026397 
L 255.755704 59.101085 
L 255.801805 58.175774 
L 255.822175 57.250462 
L 255.817754 56.325151 
L 255.790296 55.399839 
L 255.742354 54.474528 
L 255.677237 53.549217 
L 255.598933 52.623905 
L 255.512023 51.698594 
L 255.421563 50.773282 
L 255.332946 49.847971 
L 255.251756 48.922659 
L 255.183603 47.997348 
L 255.13396 47.072036 
L 255.107996 46.146725 
L 255.110419 45.221413 
L 255.14533 44.296102 
L 255.216095 43.37079 
L 255.325246 42.445479 
L 255.474399 41.520167 
L 274.954259 41.520167 
L 274.954259 41.520167 
L 275.103412 42.445479 
L 275.212563 43.37079 
L 275.283328 44.296102 
L 275.318239 45.221413 
L 275.320662 46.146725 
L 275.294698 47.072036 
L 275.245055 47.997348 
L 275.176902 48.922659 
L 275.095712 49.847971 
L 275.007095 50.773282 
L 274.916635 51.698594 
L 274.829726 52.623905 
L 274.751422 53.549217 
L 274.686304 54.474528 
L 274.638362 55.399839 
L 274.610904 56.325151 
L 274.606483 57.250462 
L 274.626853 58.175774 
L 274.672954 59.101085 
L 274.744912 60.026397 
L 274.842068 60.951708 
L 274.963027 61.87702 
L 275.105719 62.802331 
L 275.267484 63.727643 
L 275.445155 64.652954 
L 275.635162 65.578266 
L 275.83363 66.503577 
L 276.036485 67.428889 
L 276.239558 68.3542 
L 276.43868 69.279512 
L 276.629779 70.204823 
L 276.808966 71.130135 
L 276.972612 72.055446 
L 277.117415 72.980758 
L 277.24046 73.906069 
L 277.339263 74.831381 
L 277.411811 75.756692 
L 277.456582 76.682003 
L 277.472564 77.607315 
L 277.45926 78.532626 
L 277.416676 79.457938 
L 277.345313 80.383249 
L 277.246142 81.308561 
L 277.120572 82.233872 
L 276.970411 83.159184 
L 276.797829 84.084495 
L 276.6053 85.009807 
L 276.395556 85.935118 
L 276.171532 86.86043 
L 275.936306 87.785741 
L 275.693042 88.711053 
L 275.444936 89.636364 
L 275.195159 90.561676 
L 274.946803 91.486987 
L 274.702836 92.412299 
L 274.466056 93.33761 
L 274.239052 94.262922 
L 274.024171 95.188233 
L 273.823491 96.113545 
L 273.638799 97.038856 
L 273.471578 97.964167 
L 273.322996 98.889479 
L 273.193905 99.81479 
L 273.084838 100.740102 
L 272.996022 101.665413 
L 272.92738 102.590725 
L 272.878549 103.516036 
L 272.848892 104.441348 
L 272.837515 105.366659 
L 272.843284 106.291971 
L 272.864842 107.217282 
L 272.900628 108.142594 
L 272.948893 109.067905 
L 273.007719 109.993217 
L 273.075036 110.918528 
L 273.14864 111.84384 
L 273.226212 112.769151 
L 273.30534 113.694463 
L 273.383536 114.619774 
L 273.458268 115.545086 
L 273.526979 116.470397 
L 273.587121 117.395709 
L 273.636188 118.32102 
L 273.67175 119.246332 
L 273.691493 120.171643 
L 273.693256 121.096954 
L 273.675079 122.022266 
L 273.635237 122.947577 
L 273.572284 123.872889 
L 273.485092 124.7982 
L 273.372881 125.723512 
L 273.235246 126.648823 
L 273.072181 127.574135 
L 272.884088 128.499446 
L 272.671781 129.424758 
L 272.436475 130.350069 
L 272.179772 131.275381 
L 271.903629 132.200692 
L 271.610322 133.126004 
z
" clip-path="url(#p1257187024)" style="fill: #0080ff; fill-opacity: 0.3"/>
   </g>
   <g id="PolyCollection_6">
    <path d="M 306.566294 140.590183 
L 293.909423 140.590183 
L 293.368144 139.589476 
L 292.826878 138.588769 
L 292.29161 137.588061 
L 291.76837 136.587354 
L 291.263058 135.586647 
L 290.781278 134.58594 
L 290.328184 133.585232 
L 289.908336 132.584525 
L 289.525585 131.583818 
L 289.182987 130.583111 
L 288.882743 129.582403 
L 288.626189 128.581696 
L 288.413801 127.580989 
L 288.245251 126.580282 
L 288.119482 125.579575 
L 288.034813 124.578867 
L 287.98905 123.57816 
L 287.979623 122.577453 
L 288.003711 121.576746 
L 288.058369 120.576038 
L 288.140638 119.575331 
L 288.247646 118.574624 
L 288.376677 117.573917 
L 288.525224 116.573209 
L 288.691015 115.572502 
L 288.872015 114.571795 
L 289.066407 113.571088 
L 289.272556 112.570381 
L 289.488958 111.569673 
L 289.714185 110.568966 
L 289.946819 109.568259 
L 290.1854 108.567552 
L 290.428363 107.566844 
L 290.674008 106.566137 
L 290.920458 105.56543 
L 291.165658 104.564723 
L 291.407369 103.564015 
L 291.643193 102.563308 
L 291.870614 101.562601 
L 292.08704 100.561894 
L 292.289877 99.561187 
L 292.476598 98.560479 
L 292.644822 97.559772 
L 292.792401 96.559065 
L 292.917493 95.558358 
L 293.018646 94.55765 
L 293.094857 93.556943 
L 293.145628 92.556236 
L 293.171011 91.555529 
L 293.171623 90.554822 
L 293.148658 89.554114 
L 293.103868 88.553407 
L 293.039537 87.5527 
L 292.95843 86.551993 
L 292.863731 85.551285 
L 292.758966 84.550578 
L 292.647917 83.549871 
L 292.534525 82.549164 
L 292.422796 81.548456 
L 292.316694 80.547749 
L 292.220045 79.547042 
L 292.136438 78.546335 
L 292.069132 77.545628 
L 292.020974 76.54492 
L 291.994324 75.544213 
L 291.990989 74.543506 
L 292.012173 73.542799 
L 292.058441 72.542091 
L 292.129696 71.541384 
L 292.225179 70.540677 
L 292.343476 69.53997 
L 292.482562 68.539262 
L 292.639847 67.538555 
L 292.812252 66.537848 
L 292.996306 65.537141 
L 293.188252 64.536434 
L 293.384173 63.535726 
L 293.580131 62.535019 
L 293.772312 61.534312 
L 293.957165 60.533605 
L 294.13155 59.532897 
L 294.292861 58.53219 
L 294.43914 57.531483 
L 294.569165 56.530776 
L 294.682508 55.530068 
L 294.779559 54.529361 
L 294.861515 53.528654 
L 294.930334 52.527947 
L 294.988646 51.52724 
L 295.039641 50.526532 
L 295.086919 49.525825 
L 295.134325 48.525118 
L 295.185774 47.524411 
L 295.245062 46.523703 
L 295.315692 45.522996 
L 295.400713 44.522289 
L 295.50258 43.521582 
L 295.623049 42.520875 
L 295.763104 41.520167 
L 304.712613 41.520167 
L 304.712613 41.520167 
L 304.852667 42.520875 
L 304.973137 43.521582 
L 305.075004 44.522289 
L 305.160025 45.522996 
L 305.230655 46.523703 
L 305.289943 47.524411 
L 305.341392 48.525118 
L 305.388798 49.525825 
L 305.436076 50.526532 
L 305.487071 51.52724 
L 305.545383 52.527947 
L 305.614202 53.528654 
L 305.696158 54.529361 
L 305.793209 55.530068 
L 305.906552 56.530776 
L 306.036577 57.531483 
L 306.182856 58.53219 
L 306.344167 59.532897 
L 306.518552 60.533605 
L 306.703405 61.534312 
L 306.895586 62.535019 
L 307.091544 63.535726 
L 307.287465 64.536434 
L 307.47941 65.537141 
L 307.663464 66.537848 
L 307.83587 67.538555 
L 307.993155 68.539262 
L 308.132241 69.53997 
L 308.250538 70.540677 
L 308.346021 71.541384 
L 308.417276 72.542091 
L 308.463544 73.542799 
L 308.484728 74.543506 
L 308.481393 75.544213 
L 308.454743 76.54492 
L 308.406585 77.545628 
L 308.339279 78.546335 
L 308.255672 79.547042 
L 308.159023 80.547749 
L 308.052921 81.548456 
L 307.941192 82.549164 
L 307.8278 83.549871 
L 307.716751 84.550578 
L 307.611986 85.551285 
L 307.517287 86.551993 
L 307.43618 87.5527 
L 307.371849 88.553407 
L 307.327059 89.554114 
L 307.304094 90.554822 
L 307.304706 91.555529 
L 307.330089 92.556236 
L 307.38086 93.556943 
L 307.457071 94.55765 
L 307.558223 95.558358 
L 307.683316 96.559065 
L 307.830895 97.559772 
L 307.999119 98.560479 
L 308.18584 99.561187 
L 308.388677 100.561894 
L 308.605103 101.562601 
L 308.832523 102.563308 
L 309.068348 103.564015 
L 309.310059 104.564723 
L 309.555259 105.56543 
L 309.801709 106.566137 
L 310.047353 107.566844 
L 310.290317 108.567552 
L 310.528898 109.568259 
L 310.761532 110.568966 
L 310.986759 111.569673 
L 311.203161 112.570381 
L 311.409309 113.571088 
L 311.603701 114.571795 
L 311.784702 115.572502 
L 311.950493 116.573209 
L 312.09904 117.573917 
L 312.228071 118.574624 
L 312.335079 119.575331 
L 312.417348 120.576038 
L 312.472006 121.576746 
L 312.496094 122.577453 
L 312.486667 123.57816 
L 312.440904 124.578867 
L 312.356235 125.579575 
L 312.230466 126.580282 
L 312.061916 127.580989 
L 311.849528 128.581696 
L 311.592974 129.582403 
L 311.29273 130.583111 
L 310.950132 131.583818 
L 310.567381 132.584525 
L 310.147533 133.585232 
L 309.694439 134.58594 
L 309.212659 135.586647 
L 308.707347 136.587354 
L 308.184107 137.588061 
L 307.648839 138.588769 
L 307.107573 139.589476 
L 306.566294 140.590183 
z
" clip-path="url(#p1257187024)" style="fill: #ff8000; fill-opacity: 0.3"/>
   </g>
   <g id="matplotlib.axis_5">
    <g id="xtick_5">
     <g id="line2d_15">
      <g>
       <use xlink:href="#mccdd8b53d8" x="265.214329" y="163.661283" style="stroke: #000000; stroke-width: 0.8"/>
      </g>
     </g>
     <g id="text_22">
      <!-- MSR -->
      <g transform="translate(244.543388 195.136016) rotate(-45) scale(0.12 -0.12)">
       <use xlink:href="#TimesNewRomanPS-BoldMT-4d"/>
       <use xlink:href="#TimesNewRomanPS-BoldMT-53" x="94.384766"/>
       <use xlink:href="#TimesNewRomanPS-BoldMT-52" x="150"/>
      </g>
     </g>
    </g>
    <g id="xtick_6">
     <g id="line2d_16">
      <g>
       <use xlink:href="#mccdd8b53d8" x="300.237858" y="163.661283" style="stroke: #000000; stroke-width: 0.8"/>
      </g>
     </g>
     <g id="text_23">
      <!-- SBO -->
      <g transform="translate(281.444286 193.258647) rotate(-45) scale(0.12 -0.12)">
       <use xlink:href="#TimesNewRomanPS-BoldMT-53"/>
       <use xlink:href="#TimesNewRomanPS-BoldMT-42" x="55.615234"/>
       <use xlink:href="#TimesNewRomanPS-BoldMT-4f" x="122.314453"/>
      </g>
     </g>
    </g>
   </g>
   <g id="matplotlib.axis_6">
    <g id="ytick_11">
     <g id="line2d_17">
      <g>
       <use xlink:href="#md9b94451d6" x="249.979094" y="163.661283" style="stroke: #000000; stroke-width: 0.8"/>
      </g>
     </g>
     <g id="text_24">
      <!-- 0.00 -->
      <g transform="translate(221.979094 167.827533) scale(0.12 -0.12)">
       <use xlink:href="#TimesNewRomanPSMT-30"/>
       <use xlink:href="#TimesNewRomanPSMT-2e" x="50"/>
       <use xlink:href="#TimesNewRomanPSMT-30" x="75"/>
       <use xlink:href="#TimesNewRomanPSMT-30" x="125"/>
      </g>
     </g>
    </g>
    <g id="ytick_12">
     <g id="line2d_18">
      <g>
       <use xlink:href="#md9b94451d6" x="249.979094" y="133.126004" style="stroke: #000000; stroke-width: 0.8"/>
      </g>
     </g>
     <g id="text_25">
      <!-- 0.25 -->
      <g transform="translate(221.979094 137.292254) scale(0.12 -0.12)">
       <use xlink:href="#TimesNewRomanPSMT-30"/>
       <use xlink:href="#TimesNewRomanPSMT-2e" x="50"/>
       <use xlink:href="#TimesNewRomanPSMT-32" x="75"/>
       <use xlink:href="#TimesNewRomanPSMT-35" x="125"/>
      </g>
     </g>
    </g>
    <g id="ytick_13">
     <g id="line2d_19">
      <g>
       <use xlink:href="#md9b94451d6" x="249.979094" y="102.590725" style="stroke: #000000; stroke-width: 0.8"/>
      </g>
     </g>
     <g id="text_26">
      <!-- 0.50 -->
      <g transform="translate(221.979094 106.756975) scale(0.12 -0.12)">
       <use xlink:href="#TimesNewRomanPSMT-30"/>
       <use xlink:href="#TimesNewRomanPSMT-2e" x="50"/>
       <use xlink:href="#TimesNewRomanPSMT-35" x="75"/>
       <use xlink:href="#TimesNewRomanPSMT-30" x="125"/>
      </g>
     </g>
    </g>
    <g id="ytick_14">
     <g id="line2d_20">
      <g>
       <use xlink:href="#md9b94451d6" x="249.979094" y="72.055446" style="stroke: #000000; stroke-width: 0.8"/>
      </g>
     </g>
     <g id="text_27">
      <!-- 0.75 -->
      <g transform="translate(221.979094 76.221696) scale(0.12 -0.12)">
       <use xlink:href="#TimesNewRomanPSMT-30"/>
       <use xlink:href="#TimesNewRomanPSMT-2e" x="50"/>
       <use xlink:href="#TimesNewRomanPSMT-37" x="75"/>
       <use xlink:href="#TimesNewRomanPSMT-35" x="125"/>
      </g>
     </g>
    </g>
    <g id="ytick_15">
     <g id="line2d_21">
      <g>
       <use xlink:href="#md9b94451d6" x="249.979094" y="41.520167" style="stroke: #000000; stroke-width: 0.8"/>
      </g>
     </g>
     <g id="text_28">
      <!-- 1.00 -->
      <g transform="translate(221.979094 45.686417) scale(0.12 -0.12)">
       <use xlink:href="#TimesNewRomanPSMT-31"/>
       <use xlink:href="#TimesNewRomanPSMT-2e" x="50"/>
       <use xlink:href="#TimesNewRomanPSMT-30" x="75"/>
       <use xlink:href="#TimesNewRomanPSMT-30" x="125"/>
      </g>
     </g>
    </g>
   </g>
   <g id="LineCollection_11">
    <path d="M 259.085211 81.813059 
L 271.343447 81.813059 
" clip-path="url(#p1257187024)" style="fill: none; stroke: #008000; stroke-width: 1.5"/>
    <path d="M 294.108741 96.501068 
L 306.366976 96.501068 
" clip-path="url(#p1257187024)" style="fill: none; stroke: #008000; stroke-width: 1.5"/>
   </g>
   <g id="LineCollection_12">
    <path d="M 259.085211 41.520167 
L 271.343447 41.520167 
" clip-path="url(#p1257187024)" style="fill: none; stroke: #1f77b4; stroke-width: 1.5"/>
    <path d="M 294.108741 41.520167 
L 306.366976 41.520167 
" clip-path="url(#p1257187024)" style="fill: none; stroke: #1f77b4; stroke-width: 1.5"/>
   </g>
   <g id="LineCollection_13">
    <path d="M 259.085211 133.126004 
L 271.343447 133.126004 
" clip-path="url(#p1257187024)" style="fill: none; stroke: #1f77b4; stroke-width: 1.5"/>
    <path d="M 294.108741 140.590183 
L 306.366976 140.590183 
" clip-path="url(#p1257187024)" style="fill: none; stroke: #1f77b4; stroke-width: 1.5"/>
   </g>
   <g id="LineCollection_14">
    <path d="M 265.214329 133.126004 
L 265.214329 41.520167 
" clip-path="url(#p1257187024)" style="fill: none; stroke: #1f77b4; stroke-width: 1.5"/>
    <path d="M 300.237858 140.590183 
L 300.237858 41.520167 
" clip-path="url(#p1257187024)" style="fill: none; stroke: #1f77b4; stroke-width: 1.5"/>
   </g>
   <g id="LineCollection_15">
    <path d="M 259.085211 80.198187 
L 271.343447 80.198187 
" clip-path="url(#p1257187024)" style="fill: none; stroke: #ff0000; stroke-width: 1.5"/>
    <path d="M 294.108741 102.590725 
L 306.366976 102.590725 
" clip-path="url(#p1257187024)" style="fill: none; stroke: #ff0000; stroke-width: 1.5"/>
   </g>
   <g id="patch_13">
    <path d="M 249.979094 163.661283 
L 249.979094 23.199 
" style="fill: none; stroke: #000000; stroke-width: 0.8; stroke-linejoin: miter; stroke-linecap: square"/>
   </g>
   <g id="patch_14">
    <path d="M 315.473094 163.661283 
L 315.473094 23.199 
" style="fill: none; stroke: #000000; stroke-width: 0.8; stroke-linejoin: miter; stroke-linecap: square"/>
   </g>
   <g id="patch_15">
    <path d="M 249.979094 163.661283 
L 315.473094 163.661283 
" style="fill: none; stroke: #000000; stroke-width: 0.8; stroke-linejoin: miter; stroke-linecap: square"/>
   </g>
   <g id="patch_16">
    <path d="M 249.979094 23.199 
L 315.473094 23.199 
" style="fill: none; stroke: #000000; stroke-width: 0.8; stroke-linejoin: miter; stroke-linecap: square"/>
   </g>
   <g id="text_29">
    <!-- 129 -->
    <g transform="translate(257.714329 37.815455) scale(0.1 -0.1)">
     <use xlink:href="#TimesNewRomanPSMT-31"/>
     <use xlink:href="#TimesNewRomanPSMT-32" x="50"/>
     <use xlink:href="#TimesNewRomanPSMT-39" x="100"/>
    </g>
   </g>
   <g id="text_30">
    <!-- 195 -->
    <g transform="translate(292.737858 37.815455) scale(0.1 -0.1)">
     <use xlink:href="#TimesNewRomanPSMT-31"/>
     <use xlink:href="#TimesNewRomanPSMT-39" x="50"/>
     <use xlink:href="#TimesNewRomanPSMT-35" x="100"/>
    </g>
   </g>
   <g id="text_31">
    <!-- 5 Vessels -->
    <g transform="translate(256.253719 17.199) scale(0.144 -0.144)">
     <use xlink:href="#TimesNewRomanPSMT-35"/>
     <use xlink:href="#TimesNewRomanPSMT-20" x="50"/>
     <use xlink:href="#TimesNewRomanPSMT-56" x="73.25"/>
     <use xlink:href="#TimesNewRomanPSMT-65" x="134.341797"/>
     <use xlink:href="#TimesNewRomanPSMT-73" x="178.726562"/>
     <use xlink:href="#TimesNewRomanPSMT-73" x="217.642578"/>
     <use xlink:href="#TimesNewRomanPSMT-65" x="256.558594"/>
     <use xlink:href="#TimesNewRomanPSMT-6c" x="300.943359"/>
     <use xlink:href="#TimesNewRomanPSMT-73" x="328.726562"/>
    </g>
   </g>
  </g>
  <g id="axes_4">
   <g id="patch_17">
    <path d="M 350.373094 163.661283 
L 415.867094 163.661283 
L 415.867094 23.199 
L 350.373094 23.199 
z
" style="fill: #ffffff"/>
   </g>
   <g id="PolyCollection_7">
    <path d="M 369.834935 136.518812 
L 361.381723 136.518812 
L 361.117199 135.55923 
L 360.862803 134.599648 
L 360.621394 133.640066 
L 360.395607 132.680483 
L 360.187767 131.720901 
L 359.999832 130.761319 
L 359.833335 129.801737 
L 359.689345 128.842154 
L 359.568443 127.882572 
L 359.470717 126.92299 
L 359.395775 125.963407 
L 359.342771 125.003825 
L 359.310448 124.044243 
L 359.297192 123.084661 
L 359.301101 122.125078 
L 359.32005 121.165496 
L 359.351771 120.205914 
L 359.393922 119.246332 
L 359.44416 118.286749 
L 359.500198 117.327167 
L 359.559865 116.367585 
L 359.621141 115.408002 
L 359.682191 114.44842 
L 359.741378 113.488838 
L 359.79727 112.529256 
L 359.848635 111.569673 
L 359.89442 110.610091 
L 359.933731 109.650509 
L 359.965805 108.690926 
L 359.989983 107.731344 
L 360.005677 106.771762 
L 360.012348 105.81218 
L 360.009486 104.852597 
L 359.996596 103.893015 
L 359.973197 102.933433 
L 359.938823 101.973851 
L 359.893041 101.014268 
L 359.835464 100.054686 
L 359.765787 99.095104 
L 359.683808 98.135521 
L 359.589471 97.175939 
L 359.482889 96.216357 
L 359.36438 95.256775 
L 359.23449 94.297192 
L 359.094009 93.33761 
L 358.943984 92.378028 
L 358.785714 91.418446 
L 358.620746 90.458863 
L 358.45085 89.499281 
L 358.277995 88.539699 
L 358.104308 87.580116 
L 357.932029 86.620534 
L 357.763467 85.660952 
L 357.600939 84.70137 
L 357.446716 83.741787 
L 357.302969 82.782205 
L 357.171705 81.822623 
L 357.05472 80.863041 
L 356.953538 79.903458 
L 356.86937 78.943876 
L 356.803061 77.984294 
L 356.755058 77.024711 
L 356.725371 76.065129 
L 356.713548 75.105547 
L 356.718656 74.145965 
L 356.739269 73.186382 
L 356.773467 72.2268 
L 356.818851 71.267218 
L 356.87256 70.307636 
L 356.931316 69.348053 
L 356.991474 68.388471 
L 357.049093 67.428889 
L 357.100024 66.469306 
L 357.140014 65.509724 
L 357.164826 64.550142 
L 357.170375 63.59056 
L 357.152868 62.630977 
L 357.108963 61.671395 
L 357.035919 60.711813 
L 356.931746 59.75223 
L 356.795347 58.792648 
L 356.62664 57.833066 
L 356.426654 56.873484 
L 356.197595 55.913901 
L 355.942876 54.954319 
L 355.667102 53.994737 
L 355.376003 53.035155 
L 355.076334 52.075572 
L 354.775713 51.11599 
L 354.482422 50.156408 
L 354.205172 49.196825 
L 353.952833 48.237243 
L 353.734149 47.277661 
L 353.55744 46.318079 
L 353.430317 45.358496 
L 353.359402 44.398914 
L 353.350094 43.439332 
L 353.406363 42.47975 
L 353.530607 41.520167 
L 377.686051 41.520167 
L 377.686051 41.520167 
L 377.810295 42.47975 
L 377.866564 43.439332 
L 377.857256 44.398914 
L 377.786342 45.358496 
L 377.659218 46.318079 
L 377.482509 47.277661 
L 377.263825 48.237243 
L 377.011486 49.196825 
L 376.734236 50.156408 
L 376.440945 51.11599 
L 376.140324 52.075572 
L 375.840655 53.035155 
L 375.549557 53.994737 
L 375.273782 54.954319 
L 375.019063 55.913901 
L 374.790004 56.873484 
L 374.590018 57.833066 
L 374.421311 58.792648 
L 374.284912 59.75223 
L 374.180739 60.711813 
L 374.107695 61.671395 
L 374.06379 62.630977 
L 374.046284 63.59056 
L 374.051832 64.550142 
L 374.076644 65.509724 
L 374.116634 66.469306 
L 374.167565 67.428889 
L 374.225184 68.388471 
L 374.285342 69.348053 
L 374.344098 70.307636 
L 374.397807 71.267218 
L 374.443191 72.2268 
L 374.477389 73.186382 
L 374.498002 74.145965 
L 374.50311 75.105547 
L 374.491287 76.065129 
L 374.4616 77.024711 
L 374.413597 77.984294 
L 374.347289 78.943876 
L 374.26312 79.903458 
L 374.161938 80.863041 
L 374.044953 81.822623 
L 373.913689 82.782205 
L 373.769942 83.741787 
L 373.615719 84.70137 
L 373.453191 85.660952 
L 373.284629 86.620534 
L 373.11235 87.580116 
L 372.938663 88.539699 
L 372.765808 89.499281 
L 372.595912 90.458863 
L 372.430944 91.418446 
L 372.272674 92.378028 
L 372.122649 93.33761 
L 371.982168 94.297192 
L 371.852278 95.256775 
L 371.733769 96.216357 
L 371.627187 97.175939 
L 371.53285 98.135521 
L 371.450871 99.095104 
L 371.381194 100.054686 
L 371.323617 101.014268 
L 371.277835 101.973851 
L 371.243461 102.933433 
L 371.220062 103.893015 
L 371.207172 104.852597 
L 371.20431 105.81218 
L 371.210981 106.771762 
L 371.226675 107.731344 
L 371.250853 108.690926 
L 371.282927 109.650509 
L 371.322238 110.610091 
L 371.368023 111.569673 
L 371.419388 112.529256 
L 371.475281 113.488838 
L 371.534468 114.44842 
L 371.595517 115.408002 
L 371.656793 116.367585 
L 371.71646 117.327167 
L 371.772498 118.286749 
L 371.822736 119.246332 
L 371.864887 120.205914 
L 371.896608 121.165496 
L 371.915557 122.125078 
L 371.919466 123.084661 
L 371.90621 124.044243 
L 371.873887 125.003825 
L 371.820883 125.963407 
L 371.745941 126.92299 
L 371.648216 127.882572 
L 371.527313 128.842154 
L 371.383323 129.801737 
L 371.216826 130.761319 
L 371.028891 131.720901 
L 370.821052 132.680483 
L 370.595264 133.640066 
L 370.353855 134.599648 
L 370.099459 135.55923 
L 369.834935 136.518812 
z
" clip-path="url(#p1bc7cf8904)" style="fill: #0080ff; fill-opacity: 0.3"/>
   </g>
   <g id="PolyCollection_8">
    <path d="M 407.393246 137.875936 
L 393.870471 137.875936 
L 393.298281 136.902645 
L 392.73107 135.929355 
L 392.175983 134.956064 
L 391.640099 133.982774 
L 391.130206 133.009483 
L 390.652593 132.036192 
L 390.212844 131.062902 
L 389.81567 130.089611 
L 389.464765 129.116321 
L 389.162704 128.14303 
L 388.910881 127.169739 
L 388.709501 126.196449 
L 388.557605 125.223158 
L 388.453147 124.249868 
L 388.393105 123.276577 
L 388.373623 122.303286 
L 388.390181 121.329996 
L 388.437775 120.356705 
L 388.511112 119.383415 
L 388.604799 118.410124 
L 388.713527 117.436834 
L 388.832239 116.463543 
L 388.956277 115.490252 
L 389.081506 114.516962 
L 389.204405 113.543671 
L 389.322131 112.570381 
L 389.432553 111.59709 
L 389.534252 110.623799 
L 389.626494 109.650509 
L 389.709178 108.677218 
L 389.782764 107.703928 
L 389.848179 106.730637 
L 389.906718 105.757346 
L 389.959932 104.784056 
L 390.009518 103.810765 
L 390.057216 102.837475 
L 390.104713 101.864184 
L 390.153557 100.890893 
L 390.205093 99.917603 
L 390.260416 98.944312 
L 390.320337 97.971022 
L 390.385379 96.997731 
L 390.455778 96.02444 
L 390.531503 95.05115 
L 390.612294 94.077859 
L 390.697692 93.104569 
L 390.787091 92.131278 
L 390.87978 91.157988 
L 390.974979 90.184697 
L 391.071885 89.211406 
L 391.169696 88.238116 
L 391.267639 87.264825 
L 391.364983 86.291535 
L 391.461051 85.318244 
L 391.555225 84.344953 
L 391.646945 83.371663 
L 391.735707 82.398372 
L 391.821057 81.425082 
L 391.90259 80.451791 
L 391.979941 79.4785 
L 392.052785 78.50521 
L 392.120834 77.531919 
L 392.183834 76.558629 
L 392.241563 75.585338 
L 392.293832 74.612047 
L 392.340485 73.638757 
L 392.381394 72.665466 
L 392.41646 71.692176 
L 392.445609 70.718885 
L 392.468792 69.745594 
L 392.485985 68.772304 
L 392.497185 67.799013 
L 392.502417 66.825723 
L 392.501736 65.852432 
L 392.49524 64.879142 
L 392.483077 63.905851 
L 392.465469 62.93256 
L 392.442732 61.95927 
L 392.415303 60.985979 
L 392.383768 60.012689 
L 392.348899 59.039398 
L 392.311682 58.066107 
L 392.27335 57.092817 
L 392.235406 56.119526 
L 392.19964 55.146236 
L 392.168138 54.172945 
L 392.143265 53.199654 
L 392.127646 52.226364 
L 392.124115 51.253073 
L 392.135652 50.279783 
L 392.165295 49.306492 
L 392.216039 48.333201 
L 392.290722 47.359911 
L 392.391897 46.38662 
L 392.521706 45.41333 
L 392.681766 44.440039 
L 392.873052 43.466748 
L 393.095816 42.493458 
L 393.349529 41.520167 
L 407.914188 41.520167 
L 407.914188 41.520167 
L 408.1679 42.493458 
L 408.390665 43.466748 
L 408.581951 44.440039 
L 408.74201 45.41333 
L 408.87182 46.38662 
L 408.972995 47.359911 
L 409.047678 48.333201 
L 409.098422 49.306492 
L 409.128065 50.279783 
L 409.139602 51.253073 
L 409.136071 52.226364 
L 409.120452 53.199654 
L 409.095579 54.172945 
L 409.064076 55.146236 
L 409.028311 56.119526 
L 408.990367 57.092817 
L 408.952035 58.066107 
L 408.914818 59.039398 
L 408.879949 60.012689 
L 408.848414 60.985979 
L 408.820985 61.95927 
L 408.798248 62.93256 
L 408.78064 63.905851 
L 408.768477 64.879142 
L 408.761981 65.852432 
L 408.7613 66.825723 
L 408.766532 67.799013 
L 408.777732 68.772304 
L 408.794925 69.745594 
L 408.818108 70.718885 
L 408.847257 71.692176 
L 408.882323 72.665466 
L 408.923231 73.638757 
L 408.969885 74.612047 
L 409.022154 75.585338 
L 409.079883 76.558629 
L 409.142883 77.531919 
L 409.210932 78.50521 
L 409.283776 79.4785 
L 409.361127 80.451791 
L 409.44266 81.425082 
L 409.52801 82.398372 
L 409.616772 83.371663 
L 409.708492 84.344953 
L 409.802666 85.318244 
L 409.898734 86.291535 
L 409.996078 87.264825 
L 410.094021 88.238116 
L 410.191832 89.211406 
L 410.288738 90.184697 
L 410.383937 91.157988 
L 410.476626 92.131278 
L 410.566025 93.104569 
L 410.651423 94.077859 
L 410.732213 95.05115 
L 410.807939 96.02444 
L 410.878338 96.997731 
L 410.94338 97.971022 
L 411.003301 98.944312 
L 411.058624 99.917603 
L 411.11016 100.890893 
L 411.159004 101.864184 
L 411.2065 102.837475 
L 411.254199 103.810765 
L 411.303785 104.784056 
L 411.356999 105.757346 
L 411.415538 106.730637 
L 411.480953 107.703928 
L 411.554539 108.677218 
L 411.637223 109.650509 
L 411.729465 110.623799 
L 411.831164 111.59709 
L 411.941586 112.570381 
L 412.059312 113.543671 
L 412.182211 114.516962 
L 412.30744 115.490252 
L 412.431478 116.463543 
L 412.55019 117.436834 
L 412.658918 118.410124 
L 412.752605 119.383415 
L 412.825942 120.356705 
L 412.873536 121.329996 
L 412.890094 122.303286 
L 412.870612 123.276577 
L 412.81057 124.249868 
L 412.706112 125.223158 
L 412.554216 126.196449 
L 412.352836 127.169739 
L 412.101013 128.14303 
L 411.798952 129.116321 
L 411.448047 130.089611 
L 411.050873 131.062902 
L 410.611124 132.036192 
L 410.133511 133.009483 
L 409.623618 133.982774 
L 409.087734 134.956064 
L 408.532647 135.929355 
L 407.965436 136.902645 
L 407.393246 137.875936 
z
" clip-path="url(#p1bc7cf8904)" style="fill: #ff8000; fill-opacity: 0.3"/>
   </g>
   <g id="matplotlib.axis_7">
    <g id="xtick_7">
     <g id="line2d_22">
      <g>
       <use xlink:href="#mccdd8b53d8" x="365.608329" y="163.661283" style="stroke: #000000; stroke-width: 0.8"/>
      </g>
     </g>
     <g id="text_32">
      <!-- MSR -->
      <g transform="translate(344.937388 195.136016) rotate(-45) scale(0.12 -0.12)">
       <use xlink:href="#TimesNewRomanPS-BoldMT-4d"/>
       <use xlink:href="#TimesNewRomanPS-BoldMT-53" x="94.384766"/>
       <use xlink:href="#TimesNewRomanPS-BoldMT-52" x="150"/>
      </g>
     </g>
    </g>
    <g id="xtick_8">
     <g id="line2d_23">
      <g>
       <use xlink:href="#mccdd8b53d8" x="400.631858" y="163.661283" style="stroke: #000000; stroke-width: 0.8"/>
      </g>
     </g>
     <g id="text_33">
      <!-- SBO -->
      <g transform="translate(381.838286 193.258647) rotate(-45) scale(0.12 -0.12)">
       <use xlink:href="#TimesNewRomanPS-BoldMT-53"/>
       <use xlink:href="#TimesNewRomanPS-BoldMT-42" x="55.615234"/>
       <use xlink:href="#TimesNewRomanPS-BoldMT-4f" x="122.314453"/>
      </g>
     </g>
    </g>
   </g>
   <g id="matplotlib.axis_8">
    <g id="ytick_16">
     <g id="line2d_24">
      <g>
       <use xlink:href="#md9b94451d6" x="350.373094" y="163.661283" style="stroke: #000000; stroke-width: 0.8"/>
      </g>
     </g>
     <g id="text_34">
      <!-- 0.00 -->
      <g transform="translate(322.373094 167.827533) scale(0.12 -0.12)">
       <use xlink:href="#TimesNewRomanPSMT-30"/>
       <use xlink:href="#TimesNewRomanPSMT-2e" x="50"/>
       <use xlink:href="#TimesNewRomanPSMT-30" x="75"/>
       <use xlink:href="#TimesNewRomanPSMT-30" x="125"/>
      </g>
     </g>
    </g>
    <g id="ytick_17">
     <g id="line2d_25">
      <g>
       <use xlink:href="#md9b94451d6" x="350.373094" y="133.126004" style="stroke: #000000; stroke-width: 0.8"/>
      </g>
     </g>
     <g id="text_35">
      <!-- 0.25 -->
      <g transform="translate(322.373094 137.292254) scale(0.12 -0.12)">
       <use xlink:href="#TimesNewRomanPSMT-30"/>
       <use xlink:href="#TimesNewRomanPSMT-2e" x="50"/>
       <use xlink:href="#TimesNewRomanPSMT-32" x="75"/>
       <use xlink:href="#TimesNewRomanPSMT-35" x="125"/>
      </g>
     </g>
    </g>
    <g id="ytick_18">
     <g id="line2d_26">
      <g>
       <use xlink:href="#md9b94451d6" x="350.373094" y="102.590725" style="stroke: #000000; stroke-width: 0.8"/>
      </g>
     </g>
     <g id="text_36">
      <!-- 0.50 -->
      <g transform="translate(322.373094 106.756975) scale(0.12 -0.12)">
       <use xlink:href="#TimesNewRomanPSMT-30"/>
       <use xlink:href="#TimesNewRomanPSMT-2e" x="50"/>
       <use xlink:href="#TimesNewRomanPSMT-35" x="75"/>
       <use xlink:href="#TimesNewRomanPSMT-30" x="125"/>
      </g>
     </g>
    </g>
    <g id="ytick_19">
     <g id="line2d_27">
      <g>
       <use xlink:href="#md9b94451d6" x="350.373094" y="72.055446" style="stroke: #000000; stroke-width: 0.8"/>
      </g>
     </g>
     <g id="text_37">
      <!-- 0.75 -->
      <g transform="translate(322.373094 76.221696) scale(0.12 -0.12)">
       <use xlink:href="#TimesNewRomanPSMT-30"/>
       <use xlink:href="#TimesNewRomanPSMT-2e" x="50"/>
       <use xlink:href="#TimesNewRomanPSMT-37" x="75"/>
       <use xlink:href="#TimesNewRomanPSMT-35" x="125"/>
      </g>
     </g>
    </g>
    <g id="ytick_20">
     <g id="line2d_28">
      <g>
       <use xlink:href="#md9b94451d6" x="350.373094" y="41.520167" style="stroke: #000000; stroke-width: 0.8"/>
      </g>
     </g>
     <g id="text_38">
      <!-- 1.00 -->
      <g transform="translate(322.373094 45.686417) scale(0.12 -0.12)">
       <use xlink:href="#TimesNewRomanPSMT-31"/>
       <use xlink:href="#TimesNewRomanPSMT-2e" x="50"/>
       <use xlink:href="#TimesNewRomanPSMT-30" x="75"/>
       <use xlink:href="#TimesNewRomanPSMT-30" x="125"/>
      </g>
     </g>
    </g>
   </g>
   <g id="LineCollection_16">
    <path d="M 359.479211 76.348388 
L 371.737447 76.348388 
" clip-path="url(#p1bc7cf8904)" style="fill: none; stroke: #008000; stroke-width: 1.5"/>
    <path d="M 394.502741 90.844587 
L 406.760976 90.844587 
" clip-path="url(#p1bc7cf8904)" style="fill: none; stroke: #008000; stroke-width: 1.5"/>
   </g>
   <g id="LineCollection_17">
    <path d="M 359.479211 41.520167 
L 371.737447 41.520167 
" clip-path="url(#p1bc7cf8904)" style="fill: none; stroke: #1f77b4; stroke-width: 1.5"/>
    <path d="M 394.502741 41.520167 
L 406.760976 41.520167 
" clip-path="url(#p1bc7cf8904)" style="fill: none; stroke: #1f77b4; stroke-width: 1.5"/>
   </g>
   <g id="LineCollection_18">
    <path d="M 359.479211 136.518812 
L 371.737447 136.518812 
" clip-path="url(#p1bc7cf8904)" style="fill: none; stroke: #1f77b4; stroke-width: 1.5"/>
    <path d="M 394.502741 137.875936 
L 406.760976 137.875936 
" clip-path="url(#p1bc7cf8904)" style="fill: none; stroke: #1f77b4; stroke-width: 1.5"/>
   </g>
   <g id="LineCollection_19">
    <path d="M 365.608329 136.518812 
L 365.608329 41.520167 
" clip-path="url(#p1bc7cf8904)" style="fill: none; stroke: #1f77b4; stroke-width: 1.5"/>
    <path d="M 400.631858 137.875936 
L 400.631858 41.520167 
" clip-path="url(#p1bc7cf8904)" style="fill: none; stroke: #1f77b4; stroke-width: 1.5"/>
   </g>
   <g id="LineCollection_20">
    <path d="M 359.479211 72.394727 
L 371.737447 72.394727 
" clip-path="url(#p1bc7cf8904)" style="fill: none; stroke: #ff0000; stroke-width: 1.5"/>
    <path d="M 394.502741 95.465827 
L 406.760976 95.465827 
" clip-path="url(#p1bc7cf8904)" style="fill: none; stroke: #ff0000; stroke-width: 1.5"/>
   </g>
   <g id="patch_18">
    <path d="M 350.373094 163.661283 
L 350.373094 23.199 
" style="fill: none; stroke: #000000; stroke-width: 0.8; stroke-linejoin: miter; stroke-linecap: square"/>
   </g>
   <g id="patch_19">
    <path d="M 415.867094 163.661283 
L 415.867094 23.199 
" style="fill: none; stroke: #000000; stroke-width: 0.8; stroke-linejoin: miter; stroke-linecap: square"/>
   </g>
   <g id="patch_20">
    <path d="M 350.373094 163.661283 
L 415.867094 163.661283 
" style="fill: none; stroke: #000000; stroke-width: 0.8; stroke-linejoin: miter; stroke-linecap: square"/>
   </g>
   <g id="patch_21">
    <path d="M 350.373094 23.199 
L 415.867094 23.199 
" style="fill: none; stroke: #000000; stroke-width: 0.8; stroke-linejoin: miter; stroke-linecap: square"/>
   </g>
   <g id="text_39">
    <!-- 196 -->
    <g transform="translate(358.108329 37.815455) scale(0.1 -0.1)">
     <defs>
      <path id="TimesNewRomanPSMT-36" d="M 2869 4325 
L 2869 4209 
Q 2456 4169 2195 4045 
Q 1934 3922 1679 3669 
Q 1425 3416 1258 3105 
Q 1091 2794 978 2366 
Q 1428 2675 1881 2675 
Q 2316 2675 2634 2325 
Q 2953 1975 2953 1425 
Q 2953 894 2631 456 
Q 2244 -75 1606 -75 
Q 1172 -75 869 213 
Q 275 772 275 1663 
Q 275 2231 503 2743 
Q 731 3256 1154 3653 
Q 1578 4050 1965 4187 
Q 2353 4325 2688 4325 
L 2869 4325 
z
M 925 2138 
Q 869 1716 869 1456 
Q 869 1156 980 804 
Q 1091 453 1309 247 
Q 1469 100 1697 100 
Q 1969 100 2183 356 
Q 2397 613 2397 1088 
Q 2397 1622 2184 2012 
Q 1972 2403 1581 2403 
Q 1463 2403 1327 2353 
Q 1191 2303 925 2138 
z
" transform="scale(0.015625)"/>
     </defs>
     <use xlink:href="#TimesNewRomanPSMT-31"/>
     <use xlink:href="#TimesNewRomanPSMT-39" x="50"/>
     <use xlink:href="#TimesNewRomanPSMT-36" x="100"/>
    </g>
   </g>
   <g id="text_40">
    <!-- 232 -->
    <g transform="translate(393.131858 37.815455) scale(0.1 -0.1)">
     <use xlink:href="#TimesNewRomanPSMT-32"/>
     <use xlink:href="#TimesNewRomanPSMT-33" x="50"/>
     <use xlink:href="#TimesNewRomanPSMT-32" x="100"/>
    </g>
   </g>
   <g id="text_41">
    <!-- 6 Vessels -->
    <g transform="translate(356.647719 17.199) scale(0.144 -0.144)">
     <use xlink:href="#TimesNewRomanPSMT-36"/>
     <use xlink:href="#TimesNewRomanPSMT-20" x="50"/>
     <use xlink:href="#TimesNewRomanPSMT-56" x="73.25"/>
     <use xlink:href="#TimesNewRomanPSMT-65" x="134.341797"/>
     <use xlink:href="#TimesNewRomanPSMT-73" x="178.726562"/>
     <use xlink:href="#TimesNewRomanPSMT-73" x="217.642578"/>
     <use xlink:href="#TimesNewRomanPSMT-65" x="256.558594"/>
     <use xlink:href="#TimesNewRomanPSMT-6c" x="300.943359"/>
     <use xlink:href="#TimesNewRomanPSMT-73" x="328.726562"/>
    </g>
   </g>
  </g>
 </g>
 <defs>
  <clipPath id="pb93a99cc78">
   <rect x="49.191094" y="23.199" width="65.494" height="140.462283"/>
  </clipPath>
  <clipPath id="pdeee431b0b">
   <rect x="149.585094" y="23.199" width="65.494" height="140.462283"/>
  </clipPath>
  <clipPath id="p1257187024">
   <rect x="249.979094" y="23.199" width="65.494" height="140.462283"/>
  </clipPath>
  <clipPath id="p1bc7cf8904">
   <rect x="350.373094" y="23.199" width="65.494" height="140.462283"/>
  </clipPath>
 </defs>
</svg>
