<?xml version="1.0" encoding="utf-8" standalone="no"?>
<!DOCTYPE svg PUBLIC "-//W3C//DTD SVG 1.1//EN"
  "http://www.w3.org/Graphics/SVG/1.1/DTD/svg11.dtd">
<svg xmlns:xlink="http://www.w3.org/1999/xlink" width="423.09pt" height="204.151071pt" viewBox="0 0 423.09 204.151071" xmlns="http://www.w3.org/2000/svg" version="1.1">
 <metadata>
  <rdf:RDF xmlns:dc="http://purl.org/dc/elements/1.1/" xmlns:cc="http://creativecommons.org/ns#" xmlns:rdf="http://www.w3.org/1999/02/22-rdf-syntax-ns#">
   <cc:Work>
    <dc:type rdf:resource="http://purl.org/dc/dcmitype/StillImage"/>
    <dc:date>2024-10-20T18:48:30.541284</dc:date>
    <dc:format>image/svg+xml</dc:format>
    <dc:creator>
     <cc:Agent>
      <dc:title>Matplotlib v3.9.0, https://matplotlib.org/</dc:title>
     </cc:Agent>
    </dc:creator>
   </cc:Work>
  </rdf:RDF>
 </metadata>
 <defs>
  <style type="text/css">*{stroke-linejoin: round; stroke-linecap: butt}</style>
 </defs>
 <g id="figure_1">
  <g id="patch_1">
   <path d="M 0 204.151071 
L 423.09 204.151071 
L 423.09 0 
L 0 0 
z
" style="fill: #ffffff"/>
  </g>
  <g id="axes_1">
   <g id="patch_2">
    <path d="M 49.43 163.661283 
L 114.87 163.661283 
L 114.87 23.199 
L 49.43 23.199 
z
" style="fill: #ffffff"/>
   </g>
   <g id="PolyCollection_1">
    <path d="M 73.497128 163.661283 
L 55.808219 163.661283 
L 55.728343 162.750068 
L 55.71004 161.838854 
L 55.750457 160.927639 
L 55.845047 160.016425 
L 55.987771 159.105211 
L 56.171359 158.193996 
L 56.387614 157.282782 
L 56.627757 156.371567 
L 56.882767 155.460353 
L 57.143723 154.549139 
L 57.402113 153.637924 
L 57.650115 152.72671 
L 57.880811 151.815495 
L 58.08836 150.904281 
L 58.268099 149.993067 
L 58.416589 149.081852 
L 58.531604 148.170638 
L 58.612068 147.259424 
L 58.657953 146.348209 
L 58.670142 145.436995 
L 58.650275 144.52578 
L 58.600574 143.614566 
L 58.523676 142.703352 
L 58.422462 141.792137 
L 58.299904 140.880923 
L 58.158929 139.969708 
L 58.002299 139.058494 
L 57.832527 138.14728 
L 57.65181 137.236065 
L 57.461993 136.324851 
L 57.26456 135.413637 
L 57.060644 134.502422 
L 56.851067 133.591208 
L 56.636391 132.679993 
L 56.416989 131.768779 
L 56.193122 130.857565 
L 55.965019 129.94635 
L 55.732967 129.035136 
L 55.497379 128.123921 
L 55.258868 127.212707 
L 55.018296 126.301493 
L 54.776809 125.390278 
L 54.535853 124.479064 
L 54.297165 123.567849 
L 54.06275 122.656635 
L 53.834835 121.745421 
L 53.615805 120.834206 
L 53.408136 119.922992 
L 53.214309 119.011778 
L 53.036736 118.100563 
L 52.877677 117.189349 
L 52.739168 116.278134 
L 52.622968 115.36692 
L 52.530508 114.455706 
L 52.462869 113.544491 
L 52.420763 112.633277 
L 52.404545 111.722062 
L 52.414228 110.810848 
L 52.449513 109.899634 
L 52.509832 108.988419 
L 52.594393 108.077205 
L 52.702228 107.165991 
L 52.832242 106.254776 
L 52.983259 105.343562 
L 53.15406 104.432347 
L 53.343419 103.521133 
L 53.55013 102.609919 
L 53.773027 101.698704 
L 54.010992 100.78749 
L 54.262962 99.876275 
L 54.527925 98.965061 
L 54.804914 98.053847 
L 55.092992 97.142632 
L 55.391236 96.231418 
L 55.698722 95.320203 
L 56.014503 94.408989 
L 56.337594 93.497775 
L 56.666953 92.58656 
L 57.001476 91.675346 
L 57.339983 90.764132 
L 57.68122 89.852917 
L 58.023863 88.941703 
L 58.366529 88.030488 
L 58.707793 87.119274 
L 59.046207 86.20806 
L 59.38033 85.296845 
L 59.708752 84.385631 
L 60.030124 83.474416 
L 60.343186 82.563202 
L 60.646794 81.651988 
L 60.939936 80.740773 
L 61.221753 79.829559 
L 61.491545 78.918345 
L 61.748779 78.00713 
L 61.993079 77.095916 
L 62.224227 76.184701 
L 62.442142 75.273487 
L 62.64687 74.362273 
L 62.838566 73.451058 
L 66.466782 73.451058 
L 66.466782 73.451058 
L 66.658477 74.362273 
L 66.863206 75.273487 
L 67.081121 76.184701 
L 67.312268 77.095916 
L 67.556569 78.00713 
L 67.813802 78.918345 
L 68.083595 79.829559 
L 68.365412 80.740773 
L 68.658554 81.651988 
L 68.962162 82.563202 
L 69.275224 83.474416 
L 69.596596 84.385631 
L 69.925017 85.296845 
L 70.25914 86.20806 
L 70.597555 87.119274 
L 70.938818 88.030488 
L 71.281485 88.941703 
L 71.624128 89.852917 
L 71.965365 90.764132 
L 72.303871 91.675346 
L 72.638394 92.58656 
L 72.967754 93.497775 
L 73.290844 94.408989 
L 73.606625 95.320203 
L 73.914111 96.231418 
L 74.212356 97.142632 
L 74.500434 98.053847 
L 74.777423 98.965061 
L 75.042386 99.876275 
L 75.294356 100.78749 
L 75.532321 101.698704 
L 75.755217 102.609919 
L 75.961929 103.521133 
L 76.151288 104.432347 
L 76.322088 105.343562 
L 76.473105 106.254776 
L 76.60312 107.165991 
L 76.710955 108.077205 
L 76.795516 108.988419 
L 76.855835 109.899634 
L 76.89112 110.810848 
L 76.900802 111.722062 
L 76.884584 112.633277 
L 76.842479 113.544491 
L 76.774839 114.455706 
L 76.68238 115.36692 
L 76.56618 116.278134 
L 76.427671 117.189349 
L 76.268611 118.100563 
L 76.091038 119.011778 
L 75.897212 119.922992 
L 75.689542 120.834206 
L 75.470512 121.745421 
L 75.242597 122.656635 
L 75.008183 123.567849 
L 74.769495 124.479064 
L 74.528539 125.390278 
L 74.287052 126.301493 
L 74.04648 127.212707 
L 73.807969 128.123921 
L 73.572381 129.035136 
L 73.340328 129.94635 
L 73.112226 130.857565 
L 72.888358 131.768779 
L 72.668956 132.679993 
L 72.454281 133.591208 
L 72.244704 134.502422 
L 72.040788 135.413637 
L 71.843354 136.324851 
L 71.653538 137.236065 
L 71.472821 138.14728 
L 71.303049 139.058494 
L 71.146419 139.969708 
L 71.005443 140.880923 
L 70.882886 141.792137 
L 70.781672 142.703352 
L 70.704774 143.614566 
L 70.655073 144.52578 
L 70.635205 145.436995 
L 70.647394 146.348209 
L 70.693279 147.259424 
L 70.773743 148.170638 
L 70.888758 149.081852 
L 71.037249 149.993067 
L 71.216988 150.904281 
L 71.424537 151.815495 
L 71.655233 152.72671 
L 71.903234 153.637924 
L 72.161625 154.549139 
L 72.42258 155.460353 
L 72.67759 156.371567 
L 72.917733 157.282782 
L 73.133989 158.193996 
L 73.317576 159.105211 
L 73.4603 160.016425 
L 73.554891 160.927639 
L 73.595308 161.838854 
L 73.577005 162.750068 
L 73.497128 163.661283 
z
" clip-path="url(#pae3fc20f16)" style="fill: #0080ff; fill-opacity: 0.3"/>
   </g>
   <g id="PolyCollection_2">
    <path d="M 111.856196 163.661283 
L 87.438456 163.661283 
L 87.399198 162.737371 
L 87.439429 161.81346 
L 87.556168 160.889549 
L 87.744678 159.965638 
L 87.99865 159.041727 
L 88.310441 158.117816 
L 88.671359 157.193904 
L 89.071979 156.269993 
L 89.502471 155.346082 
L 89.952929 154.422171 
L 90.413684 153.49826 
L 90.875587 152.574349 
L 91.330253 151.650438 
L 91.770258 150.726526 
L 92.189276 149.802615 
L 92.582168 148.878704 
L 92.945013 147.954793 
L 93.275085 147.030882 
L 93.570791 146.106971 
L 93.831564 145.18306 
L 94.057739 144.259148 
L 94.250397 143.335237 
L 94.411206 142.411326 
L 94.542265 141.487415 
L 94.645946 140.563504 
L 94.724753 139.639593 
L 94.781205 138.715681 
L 94.817726 137.79177 
L 94.836575 136.867859 
L 94.839784 135.943948 
L 94.829129 135.020037 
L 94.806116 134.096126 
L 94.771984 133.172215 
L 94.727726 132.248303 
L 94.674117 131.324392 
L 94.611749 130.400481 
L 94.541077 129.47657 
L 94.462454 128.552659 
L 94.376178 127.628748 
L 94.282527 126.704837 
L 94.18179 125.780925 
L 94.074297 124.857014 
L 93.960443 123.933103 
L 93.840699 123.009192 
L 93.715625 122.085281 
L 93.585876 121.16137 
L 93.452199 120.237458 
L 93.315435 119.313547 
L 93.176507 118.389636 
L 93.036418 117.465725 
L 92.896236 116.541814 
L 92.757083 115.617903 
L 92.620128 114.693992 
L 92.48657 113.77008 
L 92.35763 112.846169 
L 92.234538 111.922258 
L 92.118521 110.998347 
L 92.010796 110.074436 
L 91.912555 109.150525 
L 91.824955 108.226614 
L 91.749112 107.302702 
L 91.686084 106.378791 
L 91.636861 105.45488 
L 91.602355 104.530969 
L 91.583386 103.607058 
L 91.580667 102.683147 
L 91.594791 101.759235 
L 91.626221 100.835324 
L 91.67527 99.911413 
L 91.742094 98.987502 
L 91.826683 98.063591 
L 91.928846 97.13968 
L 92.048214 96.215769 
L 92.184234 95.291857 
L 92.336174 94.367946 
L 92.503132 93.444035 
L 92.684045 92.520124 
L 92.877712 91.596213 
L 93.082807 90.672302 
L 93.297911 89.748391 
L 93.521537 88.824479 
L 93.752158 87.900568 
L 93.988238 86.976657 
L 94.228261 86.052746 
L 94.470755 85.128835 
L 94.714322 84.204924 
L 94.957652 83.281012 
L 95.199542 82.357101 
L 95.438904 81.43319 
L 95.674776 80.509279 
L 95.906316 79.585368 
L 96.132802 78.661457 
L 96.353625 77.737546 
L 96.568277 76.813634 
L 96.776342 75.889723 
L 96.977477 74.965812 
L 97.171405 74.041901 
L 97.357901 73.11799 
L 97.536778 72.194079 
L 101.757875 72.194079 
L 101.757875 72.194079 
L 101.936752 73.11799 
L 102.123247 74.041901 
L 102.317175 74.965812 
L 102.518311 75.889723 
L 102.726375 76.813634 
L 102.941028 77.737546 
L 103.161851 78.661457 
L 103.388337 79.585368 
L 103.619876 80.509279 
L 103.855748 81.43319 
L 104.095111 82.357101 
L 104.337 83.281012 
L 104.58033 84.204924 
L 104.823897 85.128835 
L 105.066392 86.052746 
L 105.306414 86.976657 
L 105.542494 87.900568 
L 105.773116 88.824479 
L 105.996742 89.748391 
L 106.211846 90.672302 
L 106.416941 91.596213 
L 106.610607 92.520124 
L 106.791521 93.444035 
L 106.958479 94.367946 
L 107.110419 95.291857 
L 107.246439 96.215769 
L 107.365806 97.13968 
L 107.46797 98.063591 
L 107.552558 98.987502 
L 107.619383 99.911413 
L 107.668432 100.835324 
L 107.699861 101.759235 
L 107.713986 102.683147 
L 107.711266 103.607058 
L 107.692297 104.530969 
L 107.657792 105.45488 
L 107.608569 106.378791 
L 107.54554 107.302702 
L 107.469697 108.226614 
L 107.382098 109.150525 
L 107.283856 110.074436 
L 107.176131 110.998347 
L 107.060115 111.922258 
L 106.937022 112.846169 
L 106.808082 113.77008 
L 106.674525 114.693992 
L 106.537569 115.617903 
L 106.398417 116.541814 
L 106.258234 117.465725 
L 106.118145 118.389636 
L 105.979218 119.313547 
L 105.842453 120.237458 
L 105.708777 121.16137 
L 105.579027 122.085281 
L 105.453953 123.009192 
L 105.334209 123.933103 
L 105.220355 124.857014 
L 105.112863 125.780925 
L 105.012125 126.704837 
L 104.918474 127.628748 
L 104.832198 128.552659 
L 104.753576 129.47657 
L 104.682903 130.400481 
L 104.620536 131.324392 
L 104.566926 132.248303 
L 104.522668 133.172215 
L 104.488536 134.096126 
L 104.465523 135.020037 
L 104.454868 135.943948 
L 104.458077 136.867859 
L 104.476926 137.79177 
L 104.513448 138.715681 
L 104.569899 139.639593 
L 104.648707 140.563504 
L 104.752387 141.487415 
L 104.883447 142.411326 
L 105.044256 143.335237 
L 105.236913 144.259148 
L 105.463088 145.18306 
L 105.723862 146.106971 
L 106.019567 147.030882 
L 106.349639 147.954793 
L 106.712484 148.878704 
L 107.105376 149.802615 
L 107.524394 150.726526 
L 107.964399 151.650438 
L 108.419066 152.574349 
L 108.880969 153.49826 
L 109.341724 154.422171 
L 109.792182 155.346082 
L 110.222674 156.269993 
L 110.623294 157.193904 
L 110.984212 158.117816 
L 111.296003 159.041727 
L 111.549975 159.965638 
L 111.738485 160.889549 
L 111.855224 161.81346 
L 111.895455 162.737371 
L 111.856196 163.661283 
z
" clip-path="url(#pae3fc20f16)" style="fill: #ff8000; fill-opacity: 0.3"/>
   </g>
   <g id="matplotlib.axis_1">
    <g id="xtick_1">
     <g id="line2d_1">
      <defs>
       <path id="mb38011b23d" d="M 0 0 
L 0 3.5 
" style="stroke: #000000; stroke-width: 0.8"/>
      </defs>
      <g>
       <use xlink:href="#mb38011b23d" x="64.652674" y="163.661283" style="stroke: #000000; stroke-width: 0.8"/>
      </g>
     </g>
     <g id="text_1">
      <!-- MSR -->
      <g transform="translate(43.981733 195.136016) rotate(-45) scale(0.12 -0.12)">
       <defs>
        <path id="TimesNewRomanPS-BoldMT-4d" d="M 3050 1444 
L 4200 4238 
L 5925 4238 
L 5925 4122 
L 5788 4122 
Q 5600 4122 5488 4056 
Q 5409 4013 5363 3909 
Q 5328 3834 5328 3519 
L 5328 725 
Q 5328 400 5362 319 
Q 5397 238 5503 177 
Q 5609 116 5788 116 
L 5925 116 
L 5925 0 
L 3713 0 
L 3713 116 
L 3850 116 
Q 4038 116 4150 181 
Q 4228 225 4275 331 
Q 4309 406 4309 725 
L 4309 3866 
L 2684 0 
L 2609 0 
L 959 3838 
L 959 853 
Q 959 541 975 469 
Q 1016 313 1152 214 
Q 1288 116 1578 116 
L 1578 0 
L 128 0 
L 128 116 
L 172 116 
Q 313 113 434 161 
Q 556 209 618 290 
Q 681 372 716 519 
Q 722 553 722 838 
L 722 3519 
Q 722 3841 687 3920 
Q 653 4000 547 4061 
Q 441 4122 263 4122 
L 128 4122 
L 128 4238 
L 1859 4238 
L 3050 1444 
z
" transform="scale(0.015625)"/>
        <path id="TimesNewRomanPS-BoldMT-53" d="M 3006 4334 
L 3041 2922 
L 2913 2922 
Q 2822 3453 2467 3776 
Q 2113 4100 1700 4100 
Q 1381 4100 1195 3929 
Q 1009 3759 1009 3538 
Q 1009 3397 1075 3288 
Q 1166 3141 1366 2997 
Q 1513 2894 2044 2631 
Q 2788 2266 3047 1941 
Q 3303 1616 3303 1197 
Q 3303 666 2889 283 
Q 2475 -100 1838 -100 
Q 1638 -100 1459 -59 
Q 1281 -19 1013 94 
Q 863 156 766 156 
Q 684 156 593 93 
Q 503 31 447 -97 
L 331 -97 
L 331 1503 
L 447 1503 
Q 584 828 976 473 
Q 1369 119 1822 119 
Q 2172 119 2380 309 
Q 2588 500 2588 753 
Q 2588 903 2508 1043 
Q 2428 1184 2265 1311 
Q 2103 1438 1691 1641 
Q 1113 1925 859 2125 
Q 606 2325 470 2572 
Q 334 2819 334 3116 
Q 334 3622 706 3978 
Q 1078 4334 1644 4334 
Q 1850 4334 2044 4284 
Q 2191 4247 2402 4145 
Q 2613 4044 2697 4044 
Q 2778 4044 2825 4094 
Q 2872 4144 2913 4334 
L 3006 4334 
z
" transform="scale(0.015625)"/>
        <path id="TimesNewRomanPS-BoldMT-52" d="M 1700 1931 
L 1700 744 
Q 1700 400 1742 311 
Q 1784 222 1890 169 
Q 1997 116 2288 116 
L 2288 0 
L 119 0 
L 119 116 
Q 413 116 517 170 
Q 622 225 664 312 
Q 706 400 706 744 
L 706 3494 
Q 706 3838 664 3927 
Q 622 4016 515 4069 
Q 409 4122 119 4122 
L 119 4238 
L 2088 4238 
Q 2856 4238 3212 4131 
Q 3569 4025 3794 3739 
Q 4019 3453 4019 3069 
Q 4019 2600 3681 2294 
Q 3466 2100 3078 2003 
L 4097 569 
Q 4297 291 4381 222 
Q 4509 125 4678 116 
L 4678 0 
L 3344 0 
L 1978 1931 
L 1700 1931 
z
M 1700 4009 
L 1700 2153 
L 1878 2153 
Q 2313 2153 2528 2233 
Q 2744 2313 2867 2520 
Q 2991 2728 2991 3063 
Q 2991 3547 2764 3778 
Q 2538 4009 2034 4009 
L 1700 4009 
z
" transform="scale(0.015625)"/>
       </defs>
       <use xlink:href="#TimesNewRomanPS-BoldMT-4d"/>
       <use xlink:href="#TimesNewRomanPS-BoldMT-53" x="94.384766"/>
       <use xlink:href="#TimesNewRomanPS-BoldMT-52" x="150"/>
      </g>
     </g>
    </g>
    <g id="xtick_2">
     <g id="line2d_2">
      <g>
       <use xlink:href="#mb38011b23d" x="99.647326" y="163.661283" style="stroke: #000000; stroke-width: 0.8"/>
      </g>
     </g>
     <g id="text_2">
      <!-- SBO -->
      <g transform="translate(80.853754 193.258647) rotate(-45) scale(0.12 -0.12)">
       <defs>
        <path id="TimesNewRomanPS-BoldMT-42" d="M 2847 2247 
Q 3450 2106 3694 1906 
Q 4044 1622 4044 1169 
Q 4044 691 3659 378 
Q 3188 0 2288 0 
L 134 0 
L 134 116 
Q 428 116 533 170 
Q 638 225 680 312 
Q 722 400 722 744 
L 722 3494 
Q 722 3838 680 3927 
Q 638 4016 531 4069 
Q 425 4122 134 4122 
L 134 4238 
L 2166 4238 
Q 2894 4238 3197 4108 
Q 3500 3978 3675 3720 
Q 3850 3463 3850 3172 
Q 3850 2866 3628 2627 
Q 3406 2388 2847 2247 
z
M 1709 2331 
Q 2153 2331 2364 2431 
Q 2575 2531 2687 2712 
Q 2800 2894 2800 3175 
Q 2800 3456 2689 3636 
Q 2578 3816 2372 3909 
Q 2166 4003 1709 4000 
L 1709 2331 
z
M 1709 2088 
L 1709 728 
L 1706 572 
Q 1706 403 1792 317 
Q 1878 231 2047 231 
Q 2297 231 2508 342 
Q 2719 453 2831 664 
Q 2944 875 2944 1134 
Q 2944 1431 2806 1667 
Q 2669 1903 2428 1997 
Q 2188 2091 1709 2088 
z
" transform="scale(0.015625)"/>
        <path id="TimesNewRomanPS-BoldMT-4f" d="M 2472 4297 
Q 3484 4334 4117 3706 
Q 4750 3078 4750 2134 
Q 4750 1328 4278 716 
Q 3653 -97 2513 -97 
Q 1369 -97 744 678 
Q 250 1291 250 2131 
Q 250 3075 892 3704 
Q 1534 4334 2472 4297 
z
M 2509 4097 
Q 1928 4097 1625 3503 
Q 1378 3016 1378 2103 
Q 1378 1019 1759 500 
Q 2025 138 2503 138 
Q 2825 138 3041 294 
Q 3316 494 3469 933 
Q 3622 1372 3622 2078 
Q 3622 2919 3465 3336 
Q 3309 3753 3067 3925 
Q 2825 4097 2509 4097 
z
" transform="scale(0.015625)"/>
       </defs>
       <use xlink:href="#TimesNewRomanPS-BoldMT-53"/>
       <use xlink:href="#TimesNewRomanPS-BoldMT-42" x="55.615234"/>
       <use xlink:href="#TimesNewRomanPS-BoldMT-4f" x="122.314453"/>
      </g>
     </g>
    </g>
   </g>
   <g id="matplotlib.axis_2">
    <g id="ytick_1">
     <g id="line2d_3">
      <defs>
       <path id="mf2a4b69760" d="M 0 0 
L -3.5 0 
" style="stroke: #000000; stroke-width: 0.8"/>
      </defs>
      <g>
       <use xlink:href="#mf2a4b69760" x="49.43" y="163.661283" style="stroke: #000000; stroke-width: 0.8"/>
      </g>
     </g>
     <g id="text_3">
      <!-- 0.00 -->
      <g transform="translate(21.43 167.827533) scale(0.12 -0.12)">
       <defs>
        <path id="TimesNewRomanPSMT-30" d="M 231 2094 
Q 231 2819 450 3342 
Q 669 3866 1031 4122 
Q 1313 4325 1613 4325 
Q 2100 4325 2488 3828 
Q 2972 3213 2972 2159 
Q 2972 1422 2759 906 
Q 2547 391 2217 158 
Q 1888 -75 1581 -75 
Q 975 -75 572 641 
Q 231 1244 231 2094 
z
M 844 2016 
Q 844 1141 1059 588 
Q 1238 122 1591 122 
Q 1759 122 1940 273 
Q 2122 425 2216 781 
Q 2359 1319 2359 2297 
Q 2359 3022 2209 3506 
Q 2097 3866 1919 4016 
Q 1791 4119 1609 4119 
Q 1397 4119 1231 3928 
Q 1006 3669 925 3112 
Q 844 2556 844 2016 
z
" transform="scale(0.015625)"/>
        <path id="TimesNewRomanPSMT-2e" d="M 800 606 
Q 947 606 1047 504 
Q 1147 403 1147 259 
Q 1147 116 1045 14 
Q 944 -88 800 -88 
Q 656 -88 554 14 
Q 453 116 453 259 
Q 453 406 554 506 
Q 656 606 800 606 
z
" transform="scale(0.015625)"/>
       </defs>
       <use xlink:href="#TimesNewRomanPSMT-30"/>
       <use xlink:href="#TimesNewRomanPSMT-2e" x="50"/>
       <use xlink:href="#TimesNewRomanPSMT-30" x="75"/>
       <use xlink:href="#TimesNewRomanPSMT-30" x="125"/>
      </g>
     </g>
    </g>
    <g id="ytick_2">
     <g id="line2d_4">
      <g>
       <use xlink:href="#mf2a4b69760" x="49.43" y="133.126004" style="stroke: #000000; stroke-width: 0.8"/>
      </g>
     </g>
     <g id="text_4">
      <!-- 0.25 -->
      <g transform="translate(21.43 137.292254) scale(0.12 -0.12)">
       <defs>
        <path id="TimesNewRomanPSMT-32" d="M 2934 816 
L 2638 0 
L 138 0 
L 138 116 
Q 1241 1122 1691 1759 
Q 2141 2397 2141 2925 
Q 2141 3328 1894 3587 
Q 1647 3847 1303 3847 
Q 991 3847 742 3664 
Q 494 3481 375 3128 
L 259 3128 
Q 338 3706 661 4015 
Q 984 4325 1469 4325 
Q 1984 4325 2329 3994 
Q 2675 3663 2675 3213 
Q 2675 2891 2525 2569 
Q 2294 2063 1775 1497 
Q 997 647 803 472 
L 1909 472 
Q 2247 472 2383 497 
Q 2519 522 2628 598 
Q 2738 675 2819 816 
L 2934 816 
z
" transform="scale(0.015625)"/>
        <path id="TimesNewRomanPSMT-35" d="M 2778 4238 
L 2534 3706 
L 1259 3706 
L 981 3138 
Q 1809 3016 2294 2522 
Q 2709 2097 2709 1522 
Q 2709 1188 2573 903 
Q 2438 619 2231 419 
Q 2025 219 1772 97 
Q 1413 -75 1034 -75 
Q 653 -75 479 54 
Q 306 184 306 341 
Q 306 428 378 495 
Q 450 563 559 563 
Q 641 563 702 538 
Q 763 513 909 409 
Q 1144 247 1384 247 
Q 1750 247 2026 523 
Q 2303 800 2303 1197 
Q 2303 1581 2056 1914 
Q 1809 2247 1375 2428 
Q 1034 2569 447 2591 
L 1259 4238 
L 2778 4238 
z
" transform="scale(0.015625)"/>
       </defs>
       <use xlink:href="#TimesNewRomanPSMT-30"/>
       <use xlink:href="#TimesNewRomanPSMT-2e" x="50"/>
       <use xlink:href="#TimesNewRomanPSMT-32" x="75"/>
       <use xlink:href="#TimesNewRomanPSMT-35" x="125"/>
      </g>
     </g>
    </g>
    <g id="ytick_3">
     <g id="line2d_5">
      <g>
       <use xlink:href="#mf2a4b69760" x="49.43" y="102.590725" style="stroke: #000000; stroke-width: 0.8"/>
      </g>
     </g>
     <g id="text_5">
      <!-- 0.50 -->
      <g transform="translate(21.43 106.756975) scale(0.12 -0.12)">
       <use xlink:href="#TimesNewRomanPSMT-30"/>
       <use xlink:href="#TimesNewRomanPSMT-2e" x="50"/>
       <use xlink:href="#TimesNewRomanPSMT-35" x="75"/>
       <use xlink:href="#TimesNewRomanPSMT-30" x="125"/>
      </g>
     </g>
    </g>
    <g id="ytick_4">
     <g id="line2d_6">
      <g>
       <use xlink:href="#mf2a4b69760" x="49.43" y="72.055446" style="stroke: #000000; stroke-width: 0.8"/>
      </g>
     </g>
     <g id="text_6">
      <!-- 0.75 -->
      <g transform="translate(21.43 76.221696) scale(0.12 -0.12)">
       <defs>
        <path id="TimesNewRomanPSMT-37" d="M 644 4238 
L 2916 4238 
L 2916 4119 
L 1503 -88 
L 1153 -88 
L 2419 3728 
L 1253 3728 
Q 900 3728 750 3644 
Q 488 3500 328 3200 
L 238 3234 
L 644 4238 
z
" transform="scale(0.015625)"/>
       </defs>
       <use xlink:href="#TimesNewRomanPSMT-30"/>
       <use xlink:href="#TimesNewRomanPSMT-2e" x="50"/>
       <use xlink:href="#TimesNewRomanPSMT-37" x="75"/>
       <use xlink:href="#TimesNewRomanPSMT-35" x="125"/>
      </g>
     </g>
    </g>
    <g id="ytick_5">
     <g id="line2d_7">
      <g>
       <use xlink:href="#mf2a4b69760" x="49.43" y="41.520167" style="stroke: #000000; stroke-width: 0.8"/>
      </g>
     </g>
     <g id="text_7">
      <!-- 1.00 -->
      <g transform="translate(21.43 45.686417) scale(0.12 -0.12)">
       <defs>
        <path id="TimesNewRomanPSMT-31" d="M 750 3822 
L 1781 4325 
L 1884 4325 
L 1884 747 
Q 1884 391 1914 303 
Q 1944 216 2037 169 
Q 2131 122 2419 116 
L 2419 0 
L 825 0 
L 825 116 
Q 1125 122 1212 167 
Q 1300 213 1334 289 
Q 1369 366 1369 747 
L 1369 3034 
Q 1369 3497 1338 3628 
Q 1316 3728 1258 3775 
Q 1200 3822 1119 3822 
Q 1003 3822 797 3725 
L 750 3822 
z
" transform="scale(0.015625)"/>
       </defs>
       <use xlink:href="#TimesNewRomanPSMT-31"/>
       <use xlink:href="#TimesNewRomanPSMT-2e" x="50"/>
       <use xlink:href="#TimesNewRomanPSMT-30" x="75"/>
       <use xlink:href="#TimesNewRomanPSMT-30" x="125"/>
      </g>
     </g>
    </g>
    <g id="text_8">
     <!-- Max proximity index of OS at $t_0$ -->
     <g transform="translate(15.01 166.030141) rotate(-90) scale(0.11 -0.11)">
      <defs>
       <path id="TimesNewRomanPSMT-4d" d="M 2619 0 
L 981 3566 
L 981 734 
Q 981 344 1066 247 
Q 1181 116 1431 116 
L 1581 116 
L 1581 0 
L 106 0 
L 106 116 
L 256 116 
Q 525 116 638 278 
Q 706 378 706 734 
L 706 3503 
Q 706 3784 644 3909 
Q 600 4000 483 4061 
Q 366 4122 106 4122 
L 106 4238 
L 1306 4238 
L 2844 922 
L 4356 4238 
L 5556 4238 
L 5556 4122 
L 5409 4122 
Q 5138 4122 5025 3959 
Q 4956 3859 4956 3503 
L 4956 734 
Q 4956 344 5044 247 
Q 5159 116 5409 116 
L 5556 116 
L 5556 0 
L 3756 0 
L 3756 116 
L 3906 116 
Q 4178 116 4288 278 
Q 4356 378 4356 734 
L 4356 3566 
L 2722 0 
L 2619 0 
z
" transform="scale(0.015625)"/>
       <path id="TimesNewRomanPSMT-61" d="M 1822 413 
Q 1381 72 1269 19 
Q 1100 -59 909 -59 
Q 613 -59 420 144 
Q 228 347 228 678 
Q 228 888 322 1041 
Q 450 1253 767 1440 
Q 1084 1628 1822 1897 
L 1822 2009 
Q 1822 2438 1686 2597 
Q 1550 2756 1291 2756 
Q 1094 2756 978 2650 
Q 859 2544 859 2406 
L 866 2225 
Q 866 2081 792 2003 
Q 719 1925 600 1925 
Q 484 1925 411 2006 
Q 338 2088 338 2228 
Q 338 2497 613 2722 
Q 888 2947 1384 2947 
Q 1766 2947 2009 2819 
Q 2194 2722 2281 2516 
Q 2338 2381 2338 1966 
L 2338 994 
Q 2338 584 2353 492 
Q 2369 400 2405 369 
Q 2441 338 2488 338 
Q 2538 338 2575 359 
Q 2641 400 2828 588 
L 2828 413 
Q 2478 -56 2159 -56 
Q 2006 -56 1915 50 
Q 1825 156 1822 413 
z
M 1822 616 
L 1822 1706 
Q 1350 1519 1213 1441 
Q 966 1303 859 1153 
Q 753 1003 753 825 
Q 753 600 887 451 
Q 1022 303 1197 303 
Q 1434 303 1822 616 
z
" transform="scale(0.015625)"/>
       <path id="TimesNewRomanPSMT-78" d="M 84 2863 
L 1431 2863 
L 1431 2747 
Q 1303 2747 1251 2703 
Q 1200 2659 1200 2588 
Q 1200 2513 1309 2356 
Q 1344 2306 1413 2200 
L 1616 1875 
L 1850 2200 
Q 2075 2509 2075 2591 
Q 2075 2656 2022 2701 
Q 1969 2747 1850 2747 
L 1850 2863 
L 2819 2863 
L 2819 2747 
Q 2666 2738 2553 2663 
Q 2400 2556 2134 2200 
L 1744 1678 
L 2456 653 
Q 2719 275 2831 198 
Q 2944 122 3122 113 
L 3122 0 
L 1772 0 
L 1772 113 
Q 1913 113 1991 175 
Q 2050 219 2050 291 
Q 2050 363 1850 653 
L 1431 1266 
L 972 653 
Q 759 369 759 316 
Q 759 241 829 180 
Q 900 119 1041 113 
L 1041 0 
L 106 0 
L 106 113 
Q 219 128 303 191 
Q 422 281 703 653 
L 1303 1450 
L 759 2238 
Q 528 2575 401 2661 
Q 275 2747 84 2747 
L 84 2863 
z
" transform="scale(0.015625)"/>
       <path id="TimesNewRomanPSMT-20" transform="scale(0.015625)"/>
       <path id="TimesNewRomanPSMT-70" d="M -6 2578 
L 875 2934 
L 994 2934 
L 994 2266 
Q 1216 2644 1439 2795 
Q 1663 2947 1909 2947 
Q 2341 2947 2628 2609 
Q 2981 2197 2981 1534 
Q 2981 794 2556 309 
Q 2206 -88 1675 -88 
Q 1444 -88 1275 -22 
Q 1150 25 994 166 
L 994 -706 
Q 994 -1000 1030 -1079 
Q 1066 -1159 1155 -1206 
Q 1244 -1253 1478 -1253 
L 1478 -1369 
L -22 -1369 
L -22 -1253 
L 56 -1253 
Q 228 -1256 350 -1188 
Q 409 -1153 442 -1076 
Q 475 -1000 475 -688 
L 475 2019 
Q 475 2297 450 2372 
Q 425 2447 370 2484 
Q 316 2522 222 2522 
Q 147 2522 31 2478 
L -6 2578 
z
M 994 2081 
L 994 1013 
Q 994 666 1022 556 
Q 1066 375 1236 237 
Q 1406 100 1666 100 
Q 1978 100 2172 344 
Q 2425 663 2425 1241 
Q 2425 1897 2138 2250 
Q 1938 2494 1663 2494 
Q 1513 2494 1366 2419 
Q 1253 2363 994 2081 
z
" transform="scale(0.015625)"/>
       <path id="TimesNewRomanPSMT-72" d="M 1038 2947 
L 1038 2303 
Q 1397 2947 1775 2947 
Q 1947 2947 2059 2842 
Q 2172 2738 2172 2600 
Q 2172 2478 2090 2393 
Q 2009 2309 1897 2309 
Q 1788 2309 1652 2417 
Q 1516 2525 1450 2525 
Q 1394 2525 1328 2463 
Q 1188 2334 1038 2041 
L 1038 669 
Q 1038 431 1097 309 
Q 1138 225 1241 169 
Q 1344 113 1538 113 
L 1538 0 
L 72 0 
L 72 113 
Q 291 113 397 181 
Q 475 231 506 341 
Q 522 394 522 644 
L 522 1753 
Q 522 2253 501 2348 
Q 481 2444 426 2487 
Q 372 2531 291 2531 
Q 194 2531 72 2484 
L 41 2597 
L 906 2947 
L 1038 2947 
z
" transform="scale(0.015625)"/>
       <path id="TimesNewRomanPSMT-6f" d="M 1600 2947 
Q 2250 2947 2644 2453 
Q 2978 2031 2978 1484 
Q 2978 1100 2793 706 
Q 2609 313 2286 112 
Q 1963 -88 1566 -88 
Q 919 -88 538 428 
Q 216 863 216 1403 
Q 216 1797 411 2186 
Q 606 2575 925 2761 
Q 1244 2947 1600 2947 
z
M 1503 2744 
Q 1338 2744 1170 2645 
Q 1003 2547 900 2300 
Q 797 2053 797 1666 
Q 797 1041 1045 587 
Q 1294 134 1700 134 
Q 2003 134 2200 384 
Q 2397 634 2397 1244 
Q 2397 2006 2069 2444 
Q 1847 2744 1503 2744 
z
" transform="scale(0.015625)"/>
       <path id="TimesNewRomanPSMT-69" d="M 928 4444 
Q 1059 4444 1151 4351 
Q 1244 4259 1244 4128 
Q 1244 3997 1151 3903 
Q 1059 3809 928 3809 
Q 797 3809 703 3903 
Q 609 3997 609 4128 
Q 609 4259 701 4351 
Q 794 4444 928 4444 
z
M 1188 2947 
L 1188 647 
Q 1188 378 1227 289 
Q 1266 200 1342 156 
Q 1419 113 1622 113 
L 1622 0 
L 231 0 
L 231 113 
Q 441 113 512 153 
Q 584 194 626 287 
Q 669 381 669 647 
L 669 1750 
Q 669 2216 641 2353 
Q 619 2453 572 2492 
Q 525 2531 444 2531 
Q 356 2531 231 2484 
L 188 2597 
L 1050 2947 
L 1188 2947 
z
" transform="scale(0.015625)"/>
       <path id="TimesNewRomanPSMT-6d" d="M 1050 2338 
Q 1363 2650 1419 2697 
Q 1559 2816 1721 2881 
Q 1884 2947 2044 2947 
Q 2313 2947 2506 2790 
Q 2700 2634 2766 2338 
Q 3088 2713 3309 2830 
Q 3531 2947 3766 2947 
Q 3994 2947 4170 2830 
Q 4347 2713 4450 2447 
Q 4519 2266 4519 1878 
L 4519 647 
Q 4519 378 4559 278 
Q 4591 209 4675 161 
Q 4759 113 4950 113 
L 4950 0 
L 3538 0 
L 3538 113 
L 3597 113 
Q 3781 113 3884 184 
Q 3956 234 3988 344 
Q 4000 397 4000 647 
L 4000 1878 
Q 4000 2228 3916 2372 
Q 3794 2572 3525 2572 
Q 3359 2572 3192 2489 
Q 3025 2406 2788 2181 
L 2781 2147 
L 2788 2013 
L 2788 647 
Q 2788 353 2820 281 
Q 2853 209 2943 161 
Q 3034 113 3253 113 
L 3253 0 
L 1806 0 
L 1806 113 
Q 2044 113 2133 169 
Q 2222 225 2256 338 
Q 2272 391 2272 647 
L 2272 1878 
Q 2272 2228 2169 2381 
Q 2031 2581 1784 2581 
Q 1616 2581 1450 2491 
Q 1191 2353 1050 2181 
L 1050 647 
Q 1050 366 1089 281 
Q 1128 197 1204 155 
Q 1281 113 1516 113 
L 1516 0 
L 100 0 
L 100 113 
Q 297 113 375 155 
Q 453 197 493 289 
Q 534 381 534 647 
L 534 1741 
Q 534 2213 506 2350 
Q 484 2453 437 2492 
Q 391 2531 309 2531 
Q 222 2531 100 2484 
L 53 2597 
L 916 2947 
L 1050 2947 
L 1050 2338 
z
" transform="scale(0.015625)"/>
       <path id="TimesNewRomanPSMT-74" d="M 1031 3803 
L 1031 2863 
L 1700 2863 
L 1700 2644 
L 1031 2644 
L 1031 788 
Q 1031 509 1111 412 
Q 1191 316 1316 316 
Q 1419 316 1516 380 
Q 1613 444 1666 569 
L 1788 569 
Q 1678 263 1478 108 
Q 1278 -47 1066 -47 
Q 922 -47 784 33 
Q 647 113 581 261 
Q 516 409 516 719 
L 516 2644 
L 63 2644 
L 63 2747 
Q 234 2816 414 2980 
Q 594 3144 734 3369 
Q 806 3488 934 3803 
L 1031 3803 
z
" transform="scale(0.015625)"/>
       <path id="TimesNewRomanPSMT-79" d="M 38 2863 
L 1372 2863 
L 1372 2747 
L 1306 2747 
Q 1166 2747 1095 2686 
Q 1025 2625 1025 2534 
Q 1025 2413 1128 2197 
L 1825 753 
L 2466 2334 
Q 2519 2463 2519 2588 
Q 2519 2644 2497 2672 
Q 2472 2706 2419 2726 
Q 2366 2747 2231 2747 
L 2231 2863 
L 3163 2863 
L 3163 2747 
Q 3047 2734 2984 2696 
Q 2922 2659 2847 2556 
Q 2819 2513 2741 2316 
L 1575 -541 
Q 1406 -956 1132 -1168 
Q 859 -1381 606 -1381 
Q 422 -1381 303 -1275 
Q 184 -1169 184 -1031 
Q 184 -900 270 -820 
Q 356 -741 506 -741 
Q 609 -741 788 -809 
Q 913 -856 944 -856 
Q 1038 -856 1148 -759 
Q 1259 -663 1372 -384 
L 1575 113 
L 547 2272 
Q 500 2369 397 2513 
Q 319 2622 269 2659 
Q 197 2709 38 2747 
L 38 2863 
z
" transform="scale(0.015625)"/>
       <path id="TimesNewRomanPSMT-6e" d="M 1034 2341 
Q 1538 2947 1994 2947 
Q 2228 2947 2397 2830 
Q 2566 2713 2666 2444 
Q 2734 2256 2734 1869 
L 2734 647 
Q 2734 375 2778 278 
Q 2813 200 2889 156 
Q 2966 113 3172 113 
L 3172 0 
L 1756 0 
L 1756 113 
L 1816 113 
Q 2016 113 2095 173 
Q 2175 234 2206 353 
Q 2219 400 2219 647 
L 2219 1819 
Q 2219 2209 2117 2386 
Q 2016 2563 1775 2563 
Q 1403 2563 1034 2156 
L 1034 647 
Q 1034 356 1069 288 
Q 1113 197 1189 155 
Q 1266 113 1500 113 
L 1500 0 
L 84 0 
L 84 113 
L 147 113 
Q 366 113 442 223 
Q 519 334 519 647 
L 519 1709 
Q 519 2225 495 2337 
Q 472 2450 423 2490 
Q 375 2531 294 2531 
Q 206 2531 84 2484 
L 38 2597 
L 900 2947 
L 1034 2947 
L 1034 2341 
z
" transform="scale(0.015625)"/>
       <path id="TimesNewRomanPSMT-64" d="M 2222 322 
Q 2013 103 1813 7 
Q 1613 -88 1381 -88 
Q 913 -88 563 304 
Q 213 697 213 1313 
Q 213 1928 600 2439 
Q 988 2950 1597 2950 
Q 1975 2950 2222 2709 
L 2222 3238 
Q 2222 3728 2198 3840 
Q 2175 3953 2125 3993 
Q 2075 4034 2000 4034 
Q 1919 4034 1784 3984 
L 1744 4094 
L 2597 4444 
L 2738 4444 
L 2738 1134 
Q 2738 631 2761 520 
Q 2784 409 2836 365 
Q 2888 322 2956 322 
Q 3041 322 3181 375 
L 3216 266 
L 2366 -88 
L 2222 -88 
L 2222 322 
z
M 2222 541 
L 2222 2016 
Q 2203 2228 2109 2403 
Q 2016 2578 1861 2667 
Q 1706 2756 1559 2756 
Q 1284 2756 1069 2509 
Q 784 2184 784 1559 
Q 784 928 1059 592 
Q 1334 256 1672 256 
Q 1956 256 2222 541 
z
" transform="scale(0.015625)"/>
       <path id="TimesNewRomanPSMT-65" d="M 681 1784 
Q 678 1147 991 784 
Q 1303 422 1725 422 
Q 2006 422 2214 576 
Q 2422 731 2563 1106 
L 2659 1044 
Q 2594 616 2278 264 
Q 1963 -88 1488 -88 
Q 972 -88 605 314 
Q 238 716 238 1394 
Q 238 2128 614 2539 
Q 991 2950 1559 2950 
Q 2041 2950 2350 2633 
Q 2659 2316 2659 1784 
L 681 1784 
z
M 681 1966 
L 2006 1966 
Q 1991 2241 1941 2353 
Q 1863 2528 1708 2628 
Q 1553 2728 1384 2728 
Q 1125 2728 920 2526 
Q 716 2325 681 1966 
z
" transform="scale(0.015625)"/>
       <path id="TimesNewRomanPSMT-66" d="M 1319 2638 
L 1319 756 
Q 1319 356 1406 250 
Q 1522 113 1716 113 
L 1975 113 
L 1975 0 
L 266 0 
L 266 113 
L 394 113 
Q 519 113 622 175 
Q 725 238 764 344 
Q 803 450 803 756 
L 803 2638 
L 247 2638 
L 247 2863 
L 803 2863 
L 803 3050 
Q 803 3478 940 3775 
Q 1078 4072 1361 4255 
Q 1644 4438 1997 4438 
Q 2325 4438 2600 4225 
Q 2781 4084 2781 3909 
Q 2781 3816 2700 3733 
Q 2619 3650 2525 3650 
Q 2453 3650 2373 3701 
Q 2294 3753 2178 3923 
Q 2063 4094 1966 4153 
Q 1869 4213 1750 4213 
Q 1606 4213 1506 4136 
Q 1406 4059 1362 3898 
Q 1319 3738 1319 3069 
L 1319 2863 
L 2056 2863 
L 2056 2638 
L 1319 2638 
z
" transform="scale(0.015625)"/>
       <path id="TimesNewRomanPSMT-4f" d="M 2341 4334 
Q 3166 4334 3770 3707 
Q 4375 3081 4375 2144 
Q 4375 1178 3765 540 
Q 3156 -97 2291 -97 
Q 1416 -97 820 525 
Q 225 1147 225 2134 
Q 225 3144 913 3781 
Q 1509 4334 2341 4334 
z
M 2281 4106 
Q 1713 4106 1369 3684 
Q 941 3159 941 2147 
Q 941 1109 1384 550 
Q 1725 125 2284 125 
Q 2881 125 3270 590 
Q 3659 1056 3659 2059 
Q 3659 3147 3231 3681 
Q 2888 4106 2281 4106 
z
" transform="scale(0.015625)"/>
       <path id="TimesNewRomanPSMT-53" d="M 2934 4334 
L 2934 2869 
L 2819 2869 
Q 2763 3291 2617 3541 
Q 2472 3791 2203 3937 
Q 1934 4084 1647 4084 
Q 1322 4084 1109 3886 
Q 897 3688 897 3434 
Q 897 3241 1031 3081 
Q 1225 2847 1953 2456 
Q 2547 2138 2764 1967 
Q 2981 1797 3098 1565 
Q 3216 1334 3216 1081 
Q 3216 600 2842 251 
Q 2469 -97 1881 -97 
Q 1697 -97 1534 -69 
Q 1438 -53 1133 45 
Q 828 144 747 144 
Q 669 144 623 97 
Q 578 50 556 -97 
L 441 -97 
L 441 1356 
L 556 1356 
Q 638 900 775 673 
Q 913 447 1195 297 
Q 1478 147 1816 147 
Q 2206 147 2432 353 
Q 2659 559 2659 841 
Q 2659 997 2573 1156 
Q 2488 1316 2306 1453 
Q 2184 1547 1640 1851 
Q 1097 2156 867 2337 
Q 638 2519 519 2737 
Q 400 2956 400 3219 
Q 400 3675 750 4004 
Q 1100 4334 1641 4334 
Q 1978 4334 2356 4169 
Q 2531 4091 2603 4091 
Q 2684 4091 2736 4139 
Q 2788 4188 2819 4334 
L 2934 4334 
z
" transform="scale(0.015625)"/>
       <path id="DejaVuSans-Oblique-74" d="M 2706 3500 
L 2619 3053 
L 1472 3053 
L 1100 1153 
Q 1081 1047 1072 975 
Q 1063 903 1063 863 
Q 1063 663 1183 572 
Q 1303 481 1569 481 
L 2150 481 
L 2053 0 
L 1503 0 
Q 991 0 739 200 
Q 488 400 488 806 
Q 488 878 497 964 
Q 506 1050 525 1153 
L 897 3053 
L 409 3053 
L 500 3500 
L 978 3500 
L 1172 4494 
L 1747 4494 
L 1556 3500 
L 2706 3500 
z
" transform="scale(0.015625)"/>
       <path id="DejaVuSans-30" d="M 2034 4250 
Q 1547 4250 1301 3770 
Q 1056 3291 1056 2328 
Q 1056 1369 1301 889 
Q 1547 409 2034 409 
Q 2525 409 2770 889 
Q 3016 1369 3016 2328 
Q 3016 3291 2770 3770 
Q 2525 4250 2034 4250 
z
M 2034 4750 
Q 2819 4750 3233 4129 
Q 3647 3509 3647 2328 
Q 3647 1150 3233 529 
Q 2819 -91 2034 -91 
Q 1250 -91 836 529 
Q 422 1150 422 2328 
Q 422 3509 836 4129 
Q 1250 4750 2034 4750 
z
" transform="scale(0.015625)"/>
      </defs>
      <use xlink:href="#TimesNewRomanPSMT-4d" transform="translate(0 0.78125)"/>
      <use xlink:href="#TimesNewRomanPSMT-61" transform="translate(88.916016 0.78125)"/>
      <use xlink:href="#TimesNewRomanPSMT-78" transform="translate(133.300781 0.78125)"/>
      <use xlink:href="#TimesNewRomanPSMT-20" transform="translate(183.300781 0.78125)"/>
      <use xlink:href="#TimesNewRomanPSMT-70" transform="translate(208.300781 0.78125)"/>
      <use xlink:href="#TimesNewRomanPSMT-72" transform="translate(258.300781 0.78125)"/>
      <use xlink:href="#TimesNewRomanPSMT-6f" transform="translate(291.601562 0.78125)"/>
      <use xlink:href="#TimesNewRomanPSMT-78" transform="translate(341.601562 0.78125)"/>
      <use xlink:href="#TimesNewRomanPSMT-69" transform="translate(391.601562 0.78125)"/>
      <use xlink:href="#TimesNewRomanPSMT-6d" transform="translate(419.384766 0.78125)"/>
      <use xlink:href="#TimesNewRomanPSMT-69" transform="translate(497.167969 0.78125)"/>
      <use xlink:href="#TimesNewRomanPSMT-74" transform="translate(524.951172 0.78125)"/>
      <use xlink:href="#TimesNewRomanPSMT-79" transform="translate(552.734375 0.78125)"/>
      <use xlink:href="#TimesNewRomanPSMT-20" transform="translate(602.734375 0.78125)"/>
      <use xlink:href="#TimesNewRomanPSMT-69" transform="translate(627.734375 0.78125)"/>
      <use xlink:href="#TimesNewRomanPSMT-6e" transform="translate(655.517578 0.78125)"/>
      <use xlink:href="#TimesNewRomanPSMT-64" transform="translate(705.517578 0.78125)"/>
      <use xlink:href="#TimesNewRomanPSMT-65" transform="translate(755.517578 0.78125)"/>
      <use xlink:href="#TimesNewRomanPSMT-78" transform="translate(799.902344 0.78125)"/>
      <use xlink:href="#TimesNewRomanPSMT-20" transform="translate(849.902344 0.78125)"/>
      <use xlink:href="#TimesNewRomanPSMT-6f" transform="translate(874.902344 0.78125)"/>
      <use xlink:href="#TimesNewRomanPSMT-66" transform="translate(924.902344 0.78125)"/>
      <use xlink:href="#TimesNewRomanPSMT-20" transform="translate(958.203125 0.78125)"/>
      <use xlink:href="#TimesNewRomanPSMT-4f" transform="translate(983.203125 0.78125)"/>
      <use xlink:href="#TimesNewRomanPSMT-53" transform="translate(1055.419922 0.78125)"/>
      <use xlink:href="#TimesNewRomanPSMT-20" transform="translate(1111.035156 0.78125)"/>
      <use xlink:href="#TimesNewRomanPSMT-61" transform="translate(1136.035156 0.78125)"/>
      <use xlink:href="#TimesNewRomanPSMT-74" transform="translate(1180.419922 0.78125)"/>
      <use xlink:href="#TimesNewRomanPSMT-20" transform="translate(1208.203125 0.78125)"/>
      <use xlink:href="#DejaVuSans-Oblique-74" transform="translate(1233.203125 0.78125)"/>
      <use xlink:href="#DejaVuSans-30" transform="translate(1272.412109 -15.625) scale(0.7)"/>
     </g>
    </g>
   </g>
   <g id="LineCollection_1">
    <path d="M 58.52861 125.475538 
L 70.776738 125.475538 
" clip-path="url(#pae3fc20f16)" style="fill: none; stroke: #008000; stroke-width: 1.5"/>
    <path d="M 93.523262 131.538739 
L 105.77139 131.538739 
" clip-path="url(#pae3fc20f16)" style="fill: none; stroke: #008000; stroke-width: 1.5"/>
   </g>
   <g id="LineCollection_2">
    <path d="M 58.52861 73.451058 
L 70.776738 73.451058 
" clip-path="url(#pae3fc20f16)" style="fill: none; stroke: #1f77b4; stroke-width: 1.5"/>
    <path d="M 93.523262 72.194079 
L 105.77139 72.194079 
" clip-path="url(#pae3fc20f16)" style="fill: none; stroke: #1f77b4; stroke-width: 1.5"/>
   </g>
   <g id="LineCollection_3">
    <path d="M 58.52861 163.661283 
L 70.776738 163.661283 
" clip-path="url(#pae3fc20f16)" style="fill: none; stroke: #1f77b4; stroke-width: 1.5"/>
    <path d="M 93.523262 163.661283 
L 105.77139 163.661283 
" clip-path="url(#pae3fc20f16)" style="fill: none; stroke: #1f77b4; stroke-width: 1.5"/>
   </g>
   <g id="LineCollection_4">
    <path d="M 64.652674 163.661283 
L 64.652674 73.451058 
" clip-path="url(#pae3fc20f16)" style="fill: none; stroke: #1f77b4; stroke-width: 1.5"/>
    <path d="M 99.647326 163.661283 
L 99.647326 72.194079 
" clip-path="url(#pae3fc20f16)" style="fill: none; stroke: #1f77b4; stroke-width: 1.5"/>
   </g>
   <g id="LineCollection_5">
    <path d="M 58.52861 118.64132 
L 70.776738 118.64132 
" clip-path="url(#pae3fc20f16)" style="fill: none; stroke: #ff0000; stroke-width: 1.5"/>
    <path d="M 93.523262 134.631162 
L 105.77139 134.631162 
" clip-path="url(#pae3fc20f16)" style="fill: none; stroke: #ff0000; stroke-width: 1.5"/>
   </g>
   <g id="patch_3">
    <path d="M 49.43 163.661283 
L 49.43 23.199 
" style="fill: none; stroke: #000000; stroke-width: 0.8; stroke-linejoin: miter; stroke-linecap: square"/>
   </g>
   <g id="patch_4">
    <path d="M 114.87 163.661283 
L 114.87 23.199 
" style="fill: none; stroke: #000000; stroke-width: 0.8; stroke-linejoin: miter; stroke-linecap: square"/>
   </g>
   <g id="patch_5">
    <path d="M 49.43 163.661283 
L 114.87 163.661283 
" style="fill: none; stroke: #000000; stroke-width: 0.8; stroke-linejoin: miter; stroke-linecap: square"/>
   </g>
   <g id="patch_6">
    <path d="M 49.43 23.199 
L 114.87 23.199 
" style="fill: none; stroke: #000000; stroke-width: 0.8; stroke-linejoin: miter; stroke-linecap: square"/>
   </g>
   <g id="text_9">
    <!-- 159 -->
    <g transform="translate(57.152674 37.815455) scale(0.1 -0.1)">
     <defs>
      <path id="TimesNewRomanPSMT-39" d="M 338 -88 
L 338 28 
Q 744 34 1094 217 
Q 1444 400 1770 856 
Q 2097 1313 2225 1859 
Q 1734 1544 1338 1544 
Q 891 1544 572 1889 
Q 253 2234 253 2806 
Q 253 3363 572 3797 
Q 956 4325 1575 4325 
Q 2097 4325 2469 3894 
Q 2925 3359 2925 2575 
Q 2925 1869 2578 1258 
Q 2231 647 1613 244 
Q 1109 -88 516 -88 
L 338 -88 
z
M 2275 2091 
Q 2331 2497 2331 2741 
Q 2331 3044 2228 3395 
Q 2125 3747 1936 3934 
Q 1747 4122 1506 4122 
Q 1228 4122 1018 3872 
Q 809 3622 809 3128 
Q 809 2469 1088 2097 
Q 1291 1828 1588 1828 
Q 1731 1828 1928 1897 
Q 2125 1966 2275 2091 
z
" transform="scale(0.015625)"/>
     </defs>
     <use xlink:href="#TimesNewRomanPSMT-31"/>
     <use xlink:href="#TimesNewRomanPSMT-35" x="50"/>
     <use xlink:href="#TimesNewRomanPSMT-39" x="100"/>
    </g>
   </g>
   <g id="text_10">
    <!-- 195 -->
    <g transform="translate(92.147326 37.815455) scale(0.1 -0.1)">
     <use xlink:href="#TimesNewRomanPSMT-31"/>
     <use xlink:href="#TimesNewRomanPSMT-39" x="50"/>
     <use xlink:href="#TimesNewRomanPSMT-35" x="100"/>
    </g>
   </g>
   <g id="text_11">
    <!-- 3 Vessels -->
    <g transform="translate(55.677625 17.199) scale(0.144 -0.144)">
     <defs>
      <path id="TimesNewRomanPSMT-33" d="M 325 3431 
Q 506 3859 782 4092 
Q 1059 4325 1472 4325 
Q 1981 4325 2253 3994 
Q 2459 3747 2459 3466 
Q 2459 3003 1878 2509 
Q 2269 2356 2469 2072 
Q 2669 1788 2669 1403 
Q 2669 853 2319 450 
Q 1863 -75 997 -75 
Q 569 -75 414 31 
Q 259 138 259 259 
Q 259 350 332 419 
Q 406 488 509 488 
Q 588 488 669 463 
Q 722 447 909 348 
Q 1097 250 1169 231 
Q 1284 197 1416 197 
Q 1734 197 1970 444 
Q 2206 691 2206 1028 
Q 2206 1275 2097 1509 
Q 2016 1684 1919 1775 
Q 1784 1900 1550 2001 
Q 1316 2103 1072 2103 
L 972 2103 
L 972 2197 
Q 1219 2228 1467 2375 
Q 1716 2522 1828 2728 
Q 1941 2934 1941 3181 
Q 1941 3503 1739 3701 
Q 1538 3900 1238 3900 
Q 753 3900 428 3381 
L 325 3431 
z
" transform="scale(0.015625)"/>
      <path id="TimesNewRomanPSMT-56" d="M 4544 4238 
L 4544 4122 
Q 4319 4081 4203 3978 
Q 4038 3825 3909 3509 
L 2431 -97 
L 2316 -97 
L 728 3556 
Q 606 3838 556 3900 
Q 478 3997 364 4051 
Q 250 4106 56 4122 
L 56 4238 
L 1788 4238 
L 1788 4122 
Q 1494 4094 1406 4022 
Q 1319 3950 1319 3838 
Q 1319 3681 1463 3350 
L 2541 866 
L 3541 3319 
Q 3688 3681 3688 3822 
Q 3688 3913 3597 3995 
Q 3506 4078 3291 4113 
Q 3275 4116 3238 4122 
L 3238 4238 
L 4544 4238 
z
" transform="scale(0.015625)"/>
      <path id="TimesNewRomanPSMT-73" d="M 2050 2947 
L 2050 1972 
L 1947 1972 
Q 1828 2431 1642 2597 
Q 1456 2763 1169 2763 
Q 950 2763 815 2647 
Q 681 2531 681 2391 
Q 681 2216 781 2091 
Q 878 1963 1175 1819 
L 1631 1597 
Q 2266 1288 2266 781 
Q 2266 391 1970 151 
Q 1675 -88 1309 -88 
Q 1047 -88 709 6 
Q 606 38 541 38 
Q 469 38 428 -44 
L 325 -44 
L 325 978 
L 428 978 
Q 516 541 762 319 
Q 1009 97 1316 97 
Q 1531 97 1667 223 
Q 1803 350 1803 528 
Q 1803 744 1651 891 
Q 1500 1038 1047 1263 
Q 594 1488 453 1669 
Q 313 1847 313 2119 
Q 313 2472 555 2709 
Q 797 2947 1181 2947 
Q 1350 2947 1591 2875 
Q 1750 2828 1803 2828 
Q 1853 2828 1881 2850 
Q 1909 2872 1947 2947 
L 2050 2947 
z
" transform="scale(0.015625)"/>
      <path id="TimesNewRomanPSMT-6c" d="M 1184 4444 
L 1184 647 
Q 1184 378 1223 290 
Q 1263 203 1344 158 
Q 1425 113 1647 113 
L 1647 0 
L 244 0 
L 244 113 
Q 441 113 512 153 
Q 584 194 625 287 
Q 666 381 666 647 
L 666 3247 
Q 666 3731 644 3842 
Q 622 3953 573 3993 
Q 525 4034 450 4034 
Q 369 4034 244 3984 
L 191 4094 
L 1044 4444 
L 1184 4444 
z
" transform="scale(0.015625)"/>
     </defs>
     <use xlink:href="#TimesNewRomanPSMT-33"/>
     <use xlink:href="#TimesNewRomanPSMT-20" x="50"/>
     <use xlink:href="#TimesNewRomanPSMT-56" x="73.25"/>
     <use xlink:href="#TimesNewRomanPSMT-65" x="134.341797"/>
     <use xlink:href="#TimesNewRomanPSMT-73" x="178.726562"/>
     <use xlink:href="#TimesNewRomanPSMT-73" x="217.642578"/>
     <use xlink:href="#TimesNewRomanPSMT-65" x="256.558594"/>
     <use xlink:href="#TimesNewRomanPSMT-6c" x="300.943359"/>
     <use xlink:href="#TimesNewRomanPSMT-73" x="328.726562"/>
    </g>
   </g>
  </g>
  <g id="axes_2">
   <g id="patch_7">
    <path d="M 149.77 163.661283 
L 215.21 163.661283 
L 215.21 23.199 
L 149.77 23.199 
z
" style="fill: #ffffff"/>
   </g>
   <g id="PolyCollection_3">
    <path d="M 170.451808 163.661283 
L 159.533539 163.661283 
L 159.47786 162.678539 
L 159.465328 161.695795 
L 159.493955 160.713052 
L 159.56047 159.730308 
L 159.660498 158.747565 
L 159.788773 157.764821 
L 159.939405 156.782078 
L 160.106142 155.799334 
L 160.282644 154.816591 
L 160.462732 153.833847 
L 160.640602 152.851104 
L 160.811001 151.86836 
L 160.969348 150.885617 
L 161.1118 149.902873 
L 161.235276 148.92013 
L 161.337423 147.937386 
L 161.416557 146.954643 
L 161.471567 145.971899 
L 161.501807 144.989156 
L 161.506985 144.006412 
L 161.487048 143.023669 
L 161.44209 142.040925 
L 161.372272 141.058181 
L 161.277764 140.075438 
L 161.158723 139.092694 
L 161.015278 138.109951 
L 160.847555 137.127207 
L 160.655708 136.144464 
L 160.439972 135.16172 
L 160.200718 134.178977 
L 159.93852 133.196233 
L 159.654206 132.21349 
L 159.348918 131.230746 
L 159.024147 130.248003 
L 158.681759 129.265259 
L 158.324008 128.282516 
L 157.953519 127.299772 
L 157.57327 126.317029 
L 157.18654 125.334285 
L 156.796856 124.351542 
L 156.407916 123.368798 
L 156.02351 122.386055 
L 155.647428 121.403311 
L 155.283375 120.420567 
L 154.934876 119.437824 
L 154.605192 118.45508 
L 154.297248 117.472337 
L 154.01357 116.489593 
L 153.756237 115.50685 
L 153.526851 114.524106 
L 153.326537 113.541363 
L 153.155945 112.558619 
L 153.015294 111.575876 
L 152.904418 110.593132 
L 152.822836 109.610389 
L 152.769833 108.627645 
L 152.744545 107.644902 
L 152.746053 106.662158 
L 152.773457 105.679415 
L 152.825955 104.696671 
L 152.902897 103.713928 
L 153.003816 102.731184 
L 153.128442 101.748441 
L 153.276684 100.765697 
L 153.448594 99.782953 
L 153.644302 98.80021 
L 153.863942 97.817466 
L 154.107562 96.834723 
L 154.375031 95.851979 
L 154.66595 94.869236 
L 154.979577 93.886492 
L 155.314762 92.903749 
L 155.669915 91.921005 
L 156.04299 90.938262 
L 156.431502 89.955518 
L 156.832571 88.972775 
L 157.24299 87.990031 
L 157.659313 87.007288 
L 158.077957 86.024544 
L 158.495319 85.041801 
L 158.90788 84.059057 
L 159.312322 83.076314 
L 159.705626 82.09357 
L 160.085147 81.110827 
L 160.448683 80.128083 
L 160.794513 79.145339 
L 161.121415 78.162596 
L 161.428661 77.179852 
L 161.71599 76.197109 
L 161.983565 75.214365 
L 162.231918 74.231622 
L 162.461877 73.248878 
L 162.674499 72.266135 
L 162.870991 71.283391 
L 163.05264 70.300648 
L 163.220746 69.317904 
L 163.376569 68.335161 
L 163.521281 67.352417 
L 163.655931 66.369674 
L 166.329417 66.369674 
L 166.329417 66.369674 
L 166.464067 67.352417 
L 166.608778 68.335161 
L 166.764601 69.317904 
L 166.932708 70.300648 
L 167.114356 71.283391 
L 167.310848 72.266135 
L 167.52347 73.248878 
L 167.75343 74.231622 
L 168.001782 75.214365 
L 168.269358 76.197109 
L 168.556686 77.179852 
L 168.863932 78.162596 
L 169.190835 79.145339 
L 169.536665 80.128083 
L 169.900201 81.110827 
L 170.279722 82.09357 
L 170.673025 83.076314 
L 171.077468 84.059057 
L 171.490029 85.041801 
L 171.90739 86.024544 
L 172.326035 87.007288 
L 172.742358 87.990031 
L 173.152777 88.972775 
L 173.553846 89.955518 
L 173.942357 90.938262 
L 174.315432 91.921005 
L 174.670585 92.903749 
L 175.005771 93.886492 
L 175.319398 94.869236 
L 175.610317 95.851979 
L 175.877785 96.834723 
L 176.121405 97.817466 
L 176.341045 98.80021 
L 176.536753 99.782953 
L 176.708663 100.765697 
L 176.856906 101.748441 
L 176.981532 102.731184 
L 177.082451 103.713928 
L 177.159393 104.696671 
L 177.211891 105.679415 
L 177.239295 106.662158 
L 177.240802 107.644902 
L 177.215515 108.627645 
L 177.162512 109.610389 
L 177.080929 110.593132 
L 176.970053 111.575876 
L 176.829403 112.558619 
L 176.658811 113.541363 
L 176.458496 114.524106 
L 176.229111 115.50685 
L 175.971777 116.489593 
L 175.6881 117.472337 
L 175.380156 118.45508 
L 175.050472 119.437824 
L 174.701972 120.420567 
L 174.337919 121.403311 
L 173.961838 122.386055 
L 173.577431 123.368798 
L 173.188491 124.351542 
L 172.798808 125.334285 
L 172.412078 126.317029 
L 172.031829 127.299772 
L 171.66134 128.282516 
L 171.303588 129.265259 
L 170.961201 130.248003 
L 170.63643 131.230746 
L 170.331142 132.21349 
L 170.046828 133.196233 
L 169.784629 134.178977 
L 169.545376 135.16172 
L 169.329639 136.144464 
L 169.137792 137.127207 
L 168.970069 138.109951 
L 168.826625 139.092694 
L 168.707583 140.075438 
L 168.613076 141.058181 
L 168.543258 142.040925 
L 168.4983 143.023669 
L 168.478363 144.006412 
L 168.48354 144.989156 
L 168.51378 145.971899 
L 168.56879 146.954643 
L 168.647924 147.937386 
L 168.750072 148.92013 
L 168.873547 149.902873 
L 169.016 150.885617 
L 169.174347 151.86836 
L 169.344746 152.851104 
L 169.522616 153.833847 
L 169.702703 154.816591 
L 169.879205 155.799334 
L 170.045942 156.782078 
L 170.196574 157.764821 
L 170.32485 158.747565 
L 170.424877 159.730308 
L 170.491393 160.713052 
L 170.52002 161.695795 
L 170.507488 162.678539 
L 170.451808 163.661283 
z
" clip-path="url(#pb438597b74)" style="fill: #0080ff; fill-opacity: 0.3"/>
   </g>
   <g id="PolyCollection_4">
    <path d="M 208.906539 163.661283 
L 191.068113 163.661283 
L 191.012087 162.644113 
L 191.037848 161.626943 
L 191.141109 160.609774 
L 191.314885 159.592604 
L 191.549847 158.575434 
L 191.834794 157.558265 
L 192.157209 156.541095 
L 192.503853 155.523925 
L 192.861375 154.506756 
L 193.216871 153.489586 
L 193.558399 152.472416 
L 193.875385 151.455247 
L 194.158934 150.438077 
L 194.402022 149.420908 
L 194.599578 148.403738 
L 194.748461 147.386568 
L 194.847345 146.369399 
L 194.896541 145.352229 
L 194.897756 144.335059 
L 194.853835 143.31789 
L 194.768484 142.30072 
L 194.645993 141.28355 
L 194.490993 140.266381 
L 194.308222 139.249211 
L 194.102336 138.232042 
L 193.877757 137.214872 
L 193.638556 136.197702 
L 193.388372 135.180533 
L 193.13037 134.163363 
L 192.867223 133.146193 
L 192.601127 132.129024 
L 192.333829 131.111854 
L 192.066674 130.094684 
L 191.800669 129.077515 
L 191.53655 128.060345 
L 191.274848 127.043175 
L 191.015961 126.026006 
L 190.760225 125.008836 
L 190.50797 123.991667 
L 190.259583 122.974497 
L 190.015548 121.957327 
L 189.776486 120.940158 
L 189.543187 119.922988 
L 189.316631 118.905818 
L 189.097997 117.888649 
L 188.888671 116.871479 
L 188.690247 115.854309 
L 188.504516 114.83714 
L 188.333453 113.81997 
L 188.179201 112.802801 
L 188.044039 111.785631 
L 187.930352 110.768461 
L 187.840589 109.751292 
L 187.777214 108.734122 
L 187.742647 107.716952 
L 187.739198 106.699783 
L 187.76899 105.682613 
L 187.83388 104.665443 
L 187.935374 103.648274 
L 188.074536 102.631104 
L 188.251914 101.613934 
L 188.467456 100.596765 
L 188.720455 99.579595 
L 189.009503 98.562426 
L 189.33247 97.545256 
L 189.686512 96.528086 
L 190.068108 95.510917 
L 190.473126 94.493747 
L 190.896921 93.476577 
L 191.334461 92.459408 
L 191.780476 91.442238 
L 192.229622 90.425068 
L 192.676652 89.407899 
L 193.11659 88.390729 
L 193.544893 87.37356 
L 193.95759 86.35639 
L 194.351401 85.33922 
L 194.723813 84.322051 
L 195.073127 83.304881 
L 195.398457 82.287711 
L 195.699698 81.270542 
L 195.977456 80.253372 
L 196.232945 79.236202 
L 196.467864 78.219033 
L 196.684267 77.201863 
L 196.884418 76.184694 
L 197.070656 75.167524 
L 197.245269 74.150354 
L 197.410389 73.133185 
L 197.567904 72.116015 
L 197.719399 71.098845 
L 197.866118 70.081676 
L 198.008958 69.064506 
L 198.14847 68.047336 
L 198.284898 67.030167 
L 198.418212 66.012997 
L 198.548163 64.995827 
L 198.674338 63.978658 
L 198.796217 62.961488 
L 201.178435 62.961488 
L 201.178435 62.961488 
L 201.300314 63.978658 
L 201.426489 64.995827 
L 201.55644 66.012997 
L 201.689754 67.030167 
L 201.826182 68.047336 
L 201.965695 69.064506 
L 202.108534 70.081676 
L 202.255254 71.098845 
L 202.406748 72.116015 
L 202.564263 73.133185 
L 202.729383 74.150354 
L 202.903996 75.167524 
L 203.090234 76.184694 
L 203.290385 77.201863 
L 203.506788 78.219033 
L 203.741708 79.236202 
L 203.997196 80.253372 
L 204.274954 81.270542 
L 204.576196 82.287711 
L 204.901526 83.304881 
L 205.250839 84.322051 
L 205.623251 85.33922 
L 206.017062 86.35639 
L 206.42976 87.37356 
L 206.858063 88.390729 
L 207.298001 89.407899 
L 207.745031 90.425068 
L 208.194176 91.442238 
L 208.640191 92.459408 
L 209.077732 93.476577 
L 209.501526 94.493747 
L 209.906544 95.510917 
L 210.28814 96.528086 
L 210.642183 97.545256 
L 210.96515 98.562426 
L 211.254197 99.579595 
L 211.507196 100.596765 
L 211.722739 101.613934 
L 211.900116 102.631104 
L 212.039279 103.648274 
L 212.140772 104.665443 
L 212.205662 105.682613 
L 212.235455 106.699783 
L 212.232005 107.716952 
L 212.197439 108.734122 
L 212.134064 109.751292 
L 212.044301 110.768461 
L 211.930614 111.785631 
L 211.795451 112.802801 
L 211.641199 113.81997 
L 211.470137 114.83714 
L 211.284406 115.854309 
L 211.085982 116.871479 
L 210.876656 117.888649 
L 210.658021 118.905818 
L 210.431465 119.922988 
L 210.198167 120.940158 
L 209.959105 121.957327 
L 209.715069 122.974497 
L 209.466682 123.991667 
L 209.214428 125.008836 
L 208.958691 126.026006 
L 208.699805 127.043175 
L 208.438102 128.060345 
L 208.173983 129.077515 
L 207.907979 130.094684 
L 207.640824 131.111854 
L 207.373525 132.129024 
L 207.107429 133.146193 
L 206.844283 134.163363 
L 206.586281 135.180533 
L 206.336097 136.197702 
L 206.096895 137.214872 
L 205.872316 138.232042 
L 205.66643 139.249211 
L 205.483659 140.266381 
L 205.328659 141.28355 
L 205.206169 142.30072 
L 205.120817 143.31789 
L 205.076897 144.335059 
L 205.078112 145.352229 
L 205.127307 146.369399 
L 205.226191 147.386568 
L 205.375074 148.403738 
L 205.572631 149.420908 
L 205.815719 150.438077 
L 206.099267 151.455247 
L 206.416253 152.472416 
L 206.757781 153.489586 
L 207.113278 154.506756 
L 207.470799 155.523925 
L 207.817444 156.541095 
L 208.139858 157.558265 
L 208.424806 158.575434 
L 208.659767 159.592604 
L 208.833543 160.609774 
L 208.936804 161.626943 
L 208.962565 162.644113 
L 208.906539 163.661283 
z
" clip-path="url(#pb438597b74)" style="fill: #ff8000; fill-opacity: 0.3"/>
   </g>
   <g id="matplotlib.axis_3">
    <g id="xtick_3">
     <g id="line2d_8">
      <g>
       <use xlink:href="#mb38011b23d" x="164.992674" y="163.661283" style="stroke: #000000; stroke-width: 0.8"/>
      </g>
     </g>
     <g id="text_12">
      <!-- MSR -->
      <g transform="translate(144.321733 195.136016) rotate(-45) scale(0.12 -0.12)">
       <use xlink:href="#TimesNewRomanPS-BoldMT-4d"/>
       <use xlink:href="#TimesNewRomanPS-BoldMT-53" x="94.384766"/>
       <use xlink:href="#TimesNewRomanPS-BoldMT-52" x="150"/>
      </g>
     </g>
    </g>
    <g id="xtick_4">
     <g id="line2d_9">
      <g>
       <use xlink:href="#mb38011b23d" x="199.987326" y="163.661283" style="stroke: #000000; stroke-width: 0.8"/>
      </g>
     </g>
     <g id="text_13">
      <!-- SBO -->
      <g transform="translate(181.193754 193.258647) rotate(-45) scale(0.12 -0.12)">
       <use xlink:href="#TimesNewRomanPS-BoldMT-53"/>
       <use xlink:href="#TimesNewRomanPS-BoldMT-42" x="55.615234"/>
       <use xlink:href="#TimesNewRomanPS-BoldMT-4f" x="122.314453"/>
      </g>
     </g>
    </g>
   </g>
   <g id="matplotlib.axis_4">
    <g id="ytick_6">
     <g id="line2d_10">
      <g>
       <use xlink:href="#mf2a4b69760" x="149.77" y="163.661283" style="stroke: #000000; stroke-width: 0.8"/>
      </g>
     </g>
     <g id="text_14">
      <!-- 0.00 -->
      <g transform="translate(121.77 167.827533) scale(0.12 -0.12)">
       <use xlink:href="#TimesNewRomanPSMT-30"/>
       <use xlink:href="#TimesNewRomanPSMT-2e" x="50"/>
       <use xlink:href="#TimesNewRomanPSMT-30" x="75"/>
       <use xlink:href="#TimesNewRomanPSMT-30" x="125"/>
      </g>
     </g>
    </g>
    <g id="ytick_7">
     <g id="line2d_11">
      <g>
       <use xlink:href="#mf2a4b69760" x="149.77" y="133.126004" style="stroke: #000000; stroke-width: 0.8"/>
      </g>
     </g>
     <g id="text_15">
      <!-- 0.25 -->
      <g transform="translate(121.77 137.292254) scale(0.12 -0.12)">
       <use xlink:href="#TimesNewRomanPSMT-30"/>
       <use xlink:href="#TimesNewRomanPSMT-2e" x="50"/>
       <use xlink:href="#TimesNewRomanPSMT-32" x="75"/>
       <use xlink:href="#TimesNewRomanPSMT-35" x="125"/>
      </g>
     </g>
    </g>
    <g id="ytick_8">
     <g id="line2d_12">
      <g>
       <use xlink:href="#mf2a4b69760" x="149.77" y="102.590725" style="stroke: #000000; stroke-width: 0.8"/>
      </g>
     </g>
     <g id="text_16">
      <!-- 0.50 -->
      <g transform="translate(121.77 106.756975) scale(0.12 -0.12)">
       <use xlink:href="#TimesNewRomanPSMT-30"/>
       <use xlink:href="#TimesNewRomanPSMT-2e" x="50"/>
       <use xlink:href="#TimesNewRomanPSMT-35" x="75"/>
       <use xlink:href="#TimesNewRomanPSMT-30" x="125"/>
      </g>
     </g>
    </g>
    <g id="ytick_9">
     <g id="line2d_13">
      <g>
       <use xlink:href="#mf2a4b69760" x="149.77" y="72.055446" style="stroke: #000000; stroke-width: 0.8"/>
      </g>
     </g>
     <g id="text_17">
      <!-- 0.75 -->
      <g transform="translate(121.77 76.221696) scale(0.12 -0.12)">
       <use xlink:href="#TimesNewRomanPSMT-30"/>
       <use xlink:href="#TimesNewRomanPSMT-2e" x="50"/>
       <use xlink:href="#TimesNewRomanPSMT-37" x="75"/>
       <use xlink:href="#TimesNewRomanPSMT-35" x="125"/>
      </g>
     </g>
    </g>
    <g id="ytick_10">
     <g id="line2d_14">
      <g>
       <use xlink:href="#mf2a4b69760" x="149.77" y="41.520167" style="stroke: #000000; stroke-width: 0.8"/>
      </g>
     </g>
     <g id="text_18">
      <!-- 1.00 -->
      <g transform="translate(121.77 45.686417) scale(0.12 -0.12)">
       <use xlink:href="#TimesNewRomanPSMT-31"/>
       <use xlink:href="#TimesNewRomanPSMT-2e" x="50"/>
       <use xlink:href="#TimesNewRomanPSMT-30" x="75"/>
       <use xlink:href="#TimesNewRomanPSMT-30" x="125"/>
      </g>
     </g>
    </g>
   </g>
   <g id="LineCollection_6">
    <path d="M 158.86861 117.616028 
L 171.116738 117.616028 
" clip-path="url(#pb438597b74)" style="fill: none; stroke: #008000; stroke-width: 1.5"/>
    <path d="M 193.863262 123.300552 
L 206.11139 123.300552 
" clip-path="url(#pb438597b74)" style="fill: none; stroke: #008000; stroke-width: 1.5"/>
   </g>
   <g id="LineCollection_7">
    <path d="M 158.86861 66.369674 
L 171.116738 66.369674 
" clip-path="url(#pb438597b74)" style="fill: none; stroke: #1f77b4; stroke-width: 1.5"/>
    <path d="M 193.863262 62.961488 
L 206.11139 62.961488 
" clip-path="url(#pb438597b74)" style="fill: none; stroke: #1f77b4; stroke-width: 1.5"/>
   </g>
   <g id="LineCollection_8">
    <path d="M 158.86861 163.661283 
L 171.116738 163.661283 
" clip-path="url(#pb438597b74)" style="fill: none; stroke: #1f77b4; stroke-width: 1.5"/>
    <path d="M 193.863262 163.661283 
L 206.11139 163.661283 
" clip-path="url(#pb438597b74)" style="fill: none; stroke: #1f77b4; stroke-width: 1.5"/>
   </g>
   <g id="LineCollection_9">
    <path d="M 164.992674 163.661283 
L 164.992674 66.369674 
" clip-path="url(#pb438597b74)" style="fill: none; stroke: #1f77b4; stroke-width: 1.5"/>
    <path d="M 199.987326 163.661283 
L 199.987326 62.961488 
" clip-path="url(#pb438597b74)" style="fill: none; stroke: #1f77b4; stroke-width: 1.5"/>
   </g>
   <g id="LineCollection_10">
    <path d="M 158.86861 111.91613 
L 171.116738 111.91613 
" clip-path="url(#pb438597b74)" style="fill: none; stroke: #ff0000; stroke-width: 1.5"/>
    <path d="M 193.863262 118.21417 
L 206.11139 118.21417 
" clip-path="url(#pb438597b74)" style="fill: none; stroke: #ff0000; stroke-width: 1.5"/>
   </g>
   <g id="patch_8">
    <path d="M 149.77 163.661283 
L 149.77 23.199 
" style="fill: none; stroke: #000000; stroke-width: 0.8; stroke-linejoin: miter; stroke-linecap: square"/>
   </g>
   <g id="patch_9">
    <path d="M 215.21 163.661283 
L 215.21 23.199 
" style="fill: none; stroke: #000000; stroke-width: 0.8; stroke-linejoin: miter; stroke-linecap: square"/>
   </g>
   <g id="patch_10">
    <path d="M 149.77 163.661283 
L 215.21 163.661283 
" style="fill: none; stroke: #000000; stroke-width: 0.8; stroke-linejoin: miter; stroke-linecap: square"/>
   </g>
   <g id="patch_11">
    <path d="M 149.77 23.199 
L 215.21 23.199 
" style="fill: none; stroke: #000000; stroke-width: 0.8; stroke-linejoin: miter; stroke-linecap: square"/>
   </g>
   <g id="text_19">
    <!-- 149 -->
    <g transform="translate(157.492674 37.815455) scale(0.1 -0.1)">
     <defs>
      <path id="TimesNewRomanPSMT-34" d="M 2978 1563 
L 2978 1119 
L 2409 1119 
L 2409 0 
L 1894 0 
L 1894 1119 
L 100 1119 
L 100 1519 
L 2066 4325 
L 2409 4325 
L 2409 1563 
L 2978 1563 
z
M 1894 1563 
L 1894 3666 
L 406 1563 
L 1894 1563 
z
" transform="scale(0.015625)"/>
     </defs>
     <use xlink:href="#TimesNewRomanPSMT-31"/>
     <use xlink:href="#TimesNewRomanPSMT-34" x="50"/>
     <use xlink:href="#TimesNewRomanPSMT-39" x="100"/>
    </g>
   </g>
   <g id="text_20">
    <!-- 205 -->
    <g transform="translate(192.487326 37.815455) scale(0.1 -0.1)">
     <use xlink:href="#TimesNewRomanPSMT-32"/>
     <use xlink:href="#TimesNewRomanPSMT-30" x="50"/>
     <use xlink:href="#TimesNewRomanPSMT-35" x="100"/>
    </g>
   </g>
   <g id="text_21">
    <!-- 4 Vessels -->
    <g transform="translate(156.017625 17.199) scale(0.144 -0.144)">
     <use xlink:href="#TimesNewRomanPSMT-34"/>
     <use xlink:href="#TimesNewRomanPSMT-20" x="50"/>
     <use xlink:href="#TimesNewRomanPSMT-56" x="73.25"/>
     <use xlink:href="#TimesNewRomanPSMT-65" x="134.341797"/>
     <use xlink:href="#TimesNewRomanPSMT-73" x="178.726562"/>
     <use xlink:href="#TimesNewRomanPSMT-73" x="217.642578"/>
     <use xlink:href="#TimesNewRomanPSMT-65" x="256.558594"/>
     <use xlink:href="#TimesNewRomanPSMT-6c" x="300.943359"/>
     <use xlink:href="#TimesNewRomanPSMT-73" x="328.726562"/>
    </g>
   </g>
  </g>
  <g id="axes_3">
   <g id="patch_12">
    <path d="M 250.11 163.661283 
L 315.55 163.661283 
L 315.55 23.199 
L 250.11 23.199 
z
" style="fill: #ffffff"/>
   </g>
   <g id="PolyCollection_5">
    <path d="M 269.804717 163.661283 
L 260.86063 163.661283 
L 260.830404 162.667088 
L 260.833939 161.672893 
L 260.869292 160.678698 
L 260.933528 159.684503 
L 261.022849 158.690309 
L 261.132769 157.696114 
L 261.2583 156.701919 
L 261.394164 155.707724 
L 261.534997 154.71353 
L 261.675546 153.719335 
L 261.810835 152.72514 
L 261.936316 151.730945 
L 262.047972 150.73675 
L 262.142392 149.742556 
L 262.216804 148.748361 
L 262.269083 147.754166 
L 262.297722 146.759971 
L 262.301791 145.765777 
L 262.280871 144.771582 
L 262.234987 143.777387 
L 262.164537 142.783192 
L 262.070217 141.788997 
L 261.952962 140.794803 
L 261.813883 139.800608 
L 261.654217 138.806413 
L 261.475291 137.812218 
L 261.278484 136.818024 
L 261.065201 135.823829 
L 260.836852 134.829634 
L 260.594833 133.835439 
L 260.340514 132.841244 
L 260.075227 131.84705 
L 259.800262 130.852855 
L 259.516861 129.85866 
L 259.226222 128.864465 
L 258.929505 127.870271 
L 258.62784 126.876076 
L 258.322343 125.881881 
L 258.014135 124.887686 
L 257.704359 123.893491 
L 257.394197 122.899297 
L 257.084891 121.905102 
L 256.777746 120.910907 
L 256.474139 119.916712 
L 256.175512 118.922518 
L 255.88336 117.928323 
L 255.599207 116.934128 
L 255.324577 115.939933 
L 255.060959 114.945738 
L 254.809772 113.951544 
L 254.572328 112.957349 
L 254.349799 111.963154 
L 254.143204 110.968959 
L 253.953392 109.974765 
L 253.781049 108.98057 
L 253.626716 107.986375 
L 253.490823 106.99218 
L 253.37373 105.997985 
L 253.275779 105.003791 
L 253.19735 104.009596 
L 253.138908 103.015401 
L 253.101053 102.021206 
L 253.084545 101.027012 
L 253.090323 100.032817 
L 253.11949 99.038622 
L 253.17329 98.044427 
L 253.253048 97.050232 
L 253.360105 96.056038 
L 253.495724 95.061843 
L 253.660992 94.067648 
L 253.856717 93.073453 
L 254.083326 92.079259 
L 254.340775 91.085064 
L 254.628477 90.090869 
L 254.94525 89.096674 
L 255.289295 88.102479 
L 255.6582 87.108285 
L 256.048986 86.11409 
L 256.458168 85.119895 
L 256.88185 84.1257 
L 257.315846 83.131506 
L 257.755808 82.137311 
L 258.197365 81.143116 
L 258.636266 80.148921 
L 259.06851 79.154726 
L 259.490465 78.160532 
L 259.898967 77.166337 
L 260.291393 76.172142 
L 260.6657 75.177947 
L 261.020449 74.183753 
L 261.354786 73.189558 
L 261.668405 72.195363 
L 261.961486 71.201168 
L 262.234619 70.206973 
L 262.488718 69.212779 
L 262.724921 68.218584 
L 262.944507 67.224389 
L 263.148802 66.230194 
L 263.339113 65.236 
L 267.326235 65.236 
L 267.326235 65.236 
L 267.516545 66.230194 
L 267.720841 67.224389 
L 267.940426 68.218584 
L 268.17663 69.212779 
L 268.430728 70.206973 
L 268.703862 71.201168 
L 268.996943 72.195363 
L 269.310561 73.189558 
L 269.644898 74.183753 
L 269.999647 75.177947 
L 270.373955 76.172142 
L 270.76638 77.166337 
L 271.174883 78.160532 
L 271.596838 79.154726 
L 272.029082 80.148921 
L 272.467983 81.143116 
L 272.90954 82.137311 
L 273.349502 83.131506 
L 273.783498 84.1257 
L 274.20718 85.119895 
L 274.616361 86.11409 
L 275.007147 87.108285 
L 275.376053 88.102479 
L 275.720097 89.096674 
L 276.03687 90.090869 
L 276.324572 91.085064 
L 276.582022 92.079259 
L 276.808631 93.073453 
L 277.004356 94.067648 
L 277.169624 95.061843 
L 277.305243 96.056038 
L 277.4123 97.050232 
L 277.492058 98.044427 
L 277.545857 99.038622 
L 277.575025 100.032817 
L 277.580802 101.027012 
L 277.564295 102.021206 
L 277.52644 103.015401 
L 277.467998 104.009596 
L 277.389569 105.003791 
L 277.291618 105.997985 
L 277.174525 106.99218 
L 277.038632 107.986375 
L 276.884299 108.98057 
L 276.711955 109.974765 
L 276.522143 110.968959 
L 276.315548 111.963154 
L 276.09302 112.957349 
L 275.855575 113.951544 
L 275.604389 114.945738 
L 275.340771 115.939933 
L 275.066141 116.934128 
L 274.781988 117.928323 
L 274.489836 118.922518 
L 274.191209 119.916712 
L 273.887602 120.910907 
L 273.580456 121.905102 
L 273.27115 122.899297 
L 272.960989 123.893491 
L 272.651213 124.887686 
L 272.343005 125.881881 
L 272.037508 126.876076 
L 271.735843 127.870271 
L 271.439125 128.864465 
L 271.148487 129.85866 
L 270.865086 130.852855 
L 270.590121 131.84705 
L 270.324834 132.841244 
L 270.070515 133.835439 
L 269.828496 134.829634 
L 269.600146 135.823829 
L 269.386863 136.818024 
L 269.190056 137.812218 
L 269.011131 138.806413 
L 268.851465 139.800608 
L 268.712385 140.794803 
L 268.59513 141.788997 
L 268.500811 142.783192 
L 268.430361 143.777387 
L 268.384477 144.771582 
L 268.363556 145.765777 
L 268.367625 146.759971 
L 268.396265 147.754166 
L 268.448544 148.748361 
L 268.522956 149.742556 
L 268.617375 150.73675 
L 268.729032 151.730945 
L 268.854512 152.72514 
L 268.989802 153.719335 
L 269.13035 154.71353 
L 269.271184 155.707724 
L 269.407048 156.701919 
L 269.532579 157.696114 
L 269.642498 158.690309 
L 269.73182 159.684503 
L 269.796056 160.678698 
L 269.831409 161.672893 
L 269.834944 162.667088 
L 269.804717 163.661283 
z
" clip-path="url(#p6c50705601)" style="fill: #0080ff; fill-opacity: 0.3"/>
   </g>
   <g id="PolyCollection_6">
    <path d="M 306.20884 163.661283 
L 294.445812 163.661283 
L 294.399528 162.684364 
L 294.404716 161.707445 
L 294.458128 160.730527 
L 294.554734 159.753608 
L 294.687968 158.77669 
L 294.850068 157.799771 
L 295.032455 156.822853 
L 295.226151 155.845934 
L 295.422186 154.869016 
L 295.611988 153.892097 
L 295.787717 152.915179 
L 295.942534 151.93826 
L 296.070799 150.961341 
L 296.168183 149.984423 
L 296.231704 149.007504 
L 296.259691 148.030586 
L 296.251693 147.053667 
L 296.208336 146.076749 
L 296.131156 145.09983 
L 296.022415 144.122912 
L 295.884911 143.145993 
L 295.7218 142.169075 
L 295.536439 141.192156 
L 295.332242 140.215238 
L 295.112562 139.238319 
L 294.880609 138.2614 
L 294.639372 137.284482 
L 294.391574 136.307563 
L 294.139639 135.330645 
L 293.885668 134.353726 
L 293.63143 133.376808 
L 293.378354 132.399889 
L 293.12753 131.422971 
L 292.879713 130.446052 
L 292.63534 129.469134 
L 292.394542 128.492215 
L 292.157179 127.515296 
L 291.922876 126.538378 
L 291.691081 125.561459 
L 291.461127 124.584541 
L 291.232311 123.607622 
L 291.003983 122.630704 
L 290.77564 121.653785 
L 290.547018 120.676867 
L 290.318181 119.699948 
L 290.089596 118.72303 
L 289.862191 117.746111 
L 289.63738 116.769193 
L 289.417066 115.792274 
L 289.203606 114.815355 
L 288.999743 113.838437 
L 288.808514 112.861518 
L 288.633123 111.8846 
L 288.476806 110.907681 
L 288.342686 109.930763 
L 288.233632 108.953844 
L 288.152128 107.976926 
L 288.100171 107.000007 
L 288.079198 106.023089 
L 288.090042 105.04617 
L 288.132933 104.069252 
L 288.207532 103.092333 
L 288.312987 102.115414 
L 288.448023 101.138496 
L 288.611039 100.161577 
L 288.800209 99.184659 
L 289.013579 98.20774 
L 289.249151 97.230822 
L 289.504945 96.253903 
L 289.779041 95.276985 
L 290.0696 94.300066 
L 290.374855 93.323148 
L 290.693101 92.346229 
L 291.022659 91.36931 
L 291.361847 90.392392 
L 291.708956 89.415473 
L 292.062224 88.438555 
L 292.419837 87.461636 
L 292.779936 86.484718 
L 293.140641 85.507799 
L 293.50009 84.530881 
L 293.856489 83.553962 
L 294.208156 82.577044 
L 294.553573 81.600125 
L 294.891425 80.623207 
L 295.220632 79.646288 
L 295.540358 78.669369 
L 295.850012 77.692451 
L 296.149227 76.715532 
L 296.437827 75.738614 
L 296.715788 74.761695 
L 296.983184 73.784777 
L 297.24014 72.807858 
L 297.486783 71.83094 
L 297.723208 70.854021 
L 297.949447 69.877103 
L 298.165451 68.900184 
L 298.371097 67.923265 
L 298.566187 66.946347 
L 302.088465 66.946347 
L 302.088465 66.946347 
L 302.283555 67.923265 
L 302.489201 68.900184 
L 302.705206 69.877103 
L 302.931444 70.854021 
L 303.167869 71.83094 
L 303.414513 72.807858 
L 303.671468 73.784777 
L 303.938864 74.761695 
L 304.216825 75.738614 
L 304.505426 76.715532 
L 304.80464 77.692451 
L 305.114294 78.669369 
L 305.43402 79.646288 
L 305.763227 80.623207 
L 306.10108 81.600125 
L 306.446497 82.577044 
L 306.798163 83.553962 
L 307.154562 84.530881 
L 307.514012 85.507799 
L 307.874716 86.484718 
L 308.234815 87.461636 
L 308.592428 88.438555 
L 308.945697 89.415473 
L 309.292805 90.392392 
L 309.631994 91.36931 
L 309.961551 92.346229 
L 310.279797 93.323148 
L 310.585053 94.300066 
L 310.875611 95.276985 
L 311.149708 96.253903 
L 311.405502 97.230822 
L 311.641073 98.20774 
L 311.854443 99.184659 
L 312.043613 100.161577 
L 312.206629 101.138496 
L 312.341666 102.115414 
L 312.44712 103.092333 
L 312.521719 104.069252 
L 312.564611 105.04617 
L 312.575455 106.023089 
L 312.554481 107.000007 
L 312.502525 107.976926 
L 312.421021 108.953844 
L 312.311966 109.930763 
L 312.177847 110.907681 
L 312.02153 111.8846 
L 311.846138 112.861518 
L 311.654909 113.838437 
L 311.451047 114.815355 
L 311.237587 115.792274 
L 311.017273 116.769193 
L 310.792461 117.746111 
L 310.565056 118.72303 
L 310.336472 119.699948 
L 310.107634 120.676867 
L 309.879012 121.653785 
L 309.650669 122.630704 
L 309.422341 123.607622 
L 309.193525 124.584541 
L 308.963571 125.561459 
L 308.731776 126.538378 
L 308.497473 127.515296 
L 308.26011 128.492215 
L 308.019312 129.469134 
L 307.774939 130.446052 
L 307.527123 131.422971 
L 307.276298 132.399889 
L 307.023222 133.376808 
L 306.768984 134.353726 
L 306.515014 135.330645 
L 306.263078 136.307563 
L 306.015281 137.284482 
L 305.774043 138.2614 
L 305.54209 139.238319 
L 305.322411 140.215238 
L 305.118213 141.192156 
L 304.932852 142.169075 
L 304.769742 143.145993 
L 304.632237 144.122912 
L 304.523496 145.09983 
L 304.446316 146.076749 
L 304.402959 147.053667 
L 304.394961 148.030586 
L 304.422949 149.007504 
L 304.486469 149.984423 
L 304.583853 150.961341 
L 304.712119 151.93826 
L 304.866936 152.915179 
L 305.042664 153.892097 
L 305.232466 154.869016 
L 305.428501 155.845934 
L 305.622197 156.822853 
L 305.804584 157.799771 
L 305.966684 158.77669 
L 306.099919 159.753608 
L 306.196524 160.730527 
L 306.249936 161.707445 
L 306.255124 162.684364 
L 306.20884 163.661283 
z
" clip-path="url(#p6c50705601)" style="fill: #ff8000; fill-opacity: 0.3"/>
   </g>
   <g id="matplotlib.axis_5">
    <g id="xtick_5">
     <g id="line2d_15">
      <g>
       <use xlink:href="#mb38011b23d" x="265.332674" y="163.661283" style="stroke: #000000; stroke-width: 0.8"/>
      </g>
     </g>
     <g id="text_22">
      <!-- MSR -->
      <g transform="translate(244.661733 195.136016) rotate(-45) scale(0.12 -0.12)">
       <use xlink:href="#TimesNewRomanPS-BoldMT-4d"/>
       <use xlink:href="#TimesNewRomanPS-BoldMT-53" x="94.384766"/>
       <use xlink:href="#TimesNewRomanPS-BoldMT-52" x="150"/>
      </g>
     </g>
    </g>
    <g id="xtick_6">
     <g id="line2d_16">
      <g>
       <use xlink:href="#mb38011b23d" x="300.327326" y="163.661283" style="stroke: #000000; stroke-width: 0.8"/>
      </g>
     </g>
     <g id="text_23">
      <!-- SBO -->
      <g transform="translate(281.533754 193.258647) rotate(-45) scale(0.12 -0.12)">
       <use xlink:href="#TimesNewRomanPS-BoldMT-53"/>
       <use xlink:href="#TimesNewRomanPS-BoldMT-42" x="55.615234"/>
       <use xlink:href="#TimesNewRomanPS-BoldMT-4f" x="122.314453"/>
      </g>
     </g>
    </g>
   </g>
   <g id="matplotlib.axis_6">
    <g id="ytick_11">
     <g id="line2d_17">
      <g>
       <use xlink:href="#mf2a4b69760" x="250.11" y="163.661283" style="stroke: #000000; stroke-width: 0.8"/>
      </g>
     </g>
     <g id="text_24">
      <!-- 0.00 -->
      <g transform="translate(222.11 167.827533) scale(0.12 -0.12)">
       <use xlink:href="#TimesNewRomanPSMT-30"/>
       <use xlink:href="#TimesNewRomanPSMT-2e" x="50"/>
       <use xlink:href="#TimesNewRomanPSMT-30" x="75"/>
       <use xlink:href="#TimesNewRomanPSMT-30" x="125"/>
      </g>
     </g>
    </g>
    <g id="ytick_12">
     <g id="line2d_18">
      <g>
       <use xlink:href="#mf2a4b69760" x="250.11" y="133.126004" style="stroke: #000000; stroke-width: 0.8"/>
      </g>
     </g>
     <g id="text_25">
      <!-- 0.25 -->
      <g transform="translate(222.11 137.292254) scale(0.12 -0.12)">
       <use xlink:href="#TimesNewRomanPSMT-30"/>
       <use xlink:href="#TimesNewRomanPSMT-2e" x="50"/>
       <use xlink:href="#TimesNewRomanPSMT-32" x="75"/>
       <use xlink:href="#TimesNewRomanPSMT-35" x="125"/>
      </g>
     </g>
    </g>
    <g id="ytick_13">
     <g id="line2d_19">
      <g>
       <use xlink:href="#mf2a4b69760" x="250.11" y="102.590725" style="stroke: #000000; stroke-width: 0.8"/>
      </g>
     </g>
     <g id="text_26">
      <!-- 0.50 -->
      <g transform="translate(222.11 106.756975) scale(0.12 -0.12)">
       <use xlink:href="#TimesNewRomanPSMT-30"/>
       <use xlink:href="#TimesNewRomanPSMT-2e" x="50"/>
       <use xlink:href="#TimesNewRomanPSMT-35" x="75"/>
       <use xlink:href="#TimesNewRomanPSMT-30" x="125"/>
      </g>
     </g>
    </g>
    <g id="ytick_14">
     <g id="line2d_20">
      <g>
       <use xlink:href="#mf2a4b69760" x="250.11" y="72.055446" style="stroke: #000000; stroke-width: 0.8"/>
      </g>
     </g>
     <g id="text_27">
      <!-- 0.75 -->
      <g transform="translate(222.11 76.221696) scale(0.12 -0.12)">
       <use xlink:href="#TimesNewRomanPSMT-30"/>
       <use xlink:href="#TimesNewRomanPSMT-2e" x="50"/>
       <use xlink:href="#TimesNewRomanPSMT-37" x="75"/>
       <use xlink:href="#TimesNewRomanPSMT-35" x="125"/>
      </g>
     </g>
    </g>
    <g id="ytick_15">
     <g id="line2d_21">
      <g>
       <use xlink:href="#mf2a4b69760" x="250.11" y="41.520167" style="stroke: #000000; stroke-width: 0.8"/>
      </g>
     </g>
     <g id="text_28">
      <!-- 1.00 -->
      <g transform="translate(222.11 45.686417) scale(0.12 -0.12)">
       <use xlink:href="#TimesNewRomanPSMT-31"/>
       <use xlink:href="#TimesNewRomanPSMT-2e" x="50"/>
       <use xlink:href="#TimesNewRomanPSMT-30" x="75"/>
       <use xlink:href="#TimesNewRomanPSMT-30" x="125"/>
      </g>
     </g>
    </g>
   </g>
   <g id="LineCollection_11">
    <path d="M 259.20861 112.968512 
L 271.456738 112.968512 
" clip-path="url(#p6c50705601)" style="fill: none; stroke: #008000; stroke-width: 1.5"/>
    <path d="M 294.203262 117.887487 
L 306.45139 117.887487 
" clip-path="url(#p6c50705601)" style="fill: none; stroke: #008000; stroke-width: 1.5"/>
   </g>
   <g id="LineCollection_12">
    <path d="M 259.20861 65.236 
L 271.456738 65.236 
" clip-path="url(#p6c50705601)" style="fill: none; stroke: #1f77b4; stroke-width: 1.5"/>
    <path d="M 294.203262 66.946347 
L 306.45139 66.946347 
" clip-path="url(#p6c50705601)" style="fill: none; stroke: #1f77b4; stroke-width: 1.5"/>
   </g>
   <g id="LineCollection_13">
    <path d="M 259.20861 163.661283 
L 271.456738 163.661283 
" clip-path="url(#p6c50705601)" style="fill: none; stroke: #1f77b4; stroke-width: 1.5"/>
    <path d="M 294.203262 163.661283 
L 306.45139 163.661283 
" clip-path="url(#p6c50705601)" style="fill: none; stroke: #1f77b4; stroke-width: 1.5"/>
   </g>
   <g id="LineCollection_14">
    <path d="M 265.332674 163.661283 
L 265.332674 65.236 
" clip-path="url(#p6c50705601)" style="fill: none; stroke: #1f77b4; stroke-width: 1.5"/>
    <path d="M 300.327326 163.661283 
L 300.327326 66.946347 
" clip-path="url(#p6c50705601)" style="fill: none; stroke: #1f77b4; stroke-width: 1.5"/>
   </g>
   <g id="LineCollection_15">
    <path d="M 259.20861 108.16363 
L 271.456738 108.16363 
" clip-path="url(#p6c50705601)" style="fill: none; stroke: #ff0000; stroke-width: 1.5"/>
    <path d="M 294.203262 111.649915 
L 306.45139 111.649915 
" clip-path="url(#p6c50705601)" style="fill: none; stroke: #ff0000; stroke-width: 1.5"/>
   </g>
   <g id="patch_13">
    <path d="M 250.11 163.661283 
L 250.11 23.199 
" style="fill: none; stroke: #000000; stroke-width: 0.8; stroke-linejoin: miter; stroke-linecap: square"/>
   </g>
   <g id="patch_14">
    <path d="M 315.55 163.661283 
L 315.55 23.199 
" style="fill: none; stroke: #000000; stroke-width: 0.8; stroke-linejoin: miter; stroke-linecap: square"/>
   </g>
   <g id="patch_15">
    <path d="M 250.11 163.661283 
L 315.55 163.661283 
" style="fill: none; stroke: #000000; stroke-width: 0.8; stroke-linejoin: miter; stroke-linecap: square"/>
   </g>
   <g id="patch_16">
    <path d="M 250.11 23.199 
L 315.55 23.199 
" style="fill: none; stroke: #000000; stroke-width: 0.8; stroke-linejoin: miter; stroke-linecap: square"/>
   </g>
   <g id="text_29">
    <!-- 129 -->
    <g transform="translate(257.832674 37.815455) scale(0.1 -0.1)">
     <use xlink:href="#TimesNewRomanPSMT-31"/>
     <use xlink:href="#TimesNewRomanPSMT-32" x="50"/>
     <use xlink:href="#TimesNewRomanPSMT-39" x="100"/>
    </g>
   </g>
   <g id="text_30">
    <!-- 195 -->
    <g transform="translate(292.827326 37.815455) scale(0.1 -0.1)">
     <use xlink:href="#TimesNewRomanPSMT-31"/>
     <use xlink:href="#TimesNewRomanPSMT-39" x="50"/>
     <use xlink:href="#TimesNewRomanPSMT-35" x="100"/>
    </g>
   </g>
   <g id="text_31">
    <!-- 5 Vessels -->
    <g transform="translate(256.357625 17.199) scale(0.144 -0.144)">
     <use xlink:href="#TimesNewRomanPSMT-35"/>
     <use xlink:href="#TimesNewRomanPSMT-20" x="50"/>
     <use xlink:href="#TimesNewRomanPSMT-56" x="73.25"/>
     <use xlink:href="#TimesNewRomanPSMT-65" x="134.341797"/>
     <use xlink:href="#TimesNewRomanPSMT-73" x="178.726562"/>
     <use xlink:href="#TimesNewRomanPSMT-73" x="217.642578"/>
     <use xlink:href="#TimesNewRomanPSMT-65" x="256.558594"/>
     <use xlink:href="#TimesNewRomanPSMT-6c" x="300.943359"/>
     <use xlink:href="#TimesNewRomanPSMT-73" x="328.726562"/>
    </g>
   </g>
  </g>
  <g id="axes_4">
   <g id="patch_17">
    <path d="M 350.45 163.661283 
L 415.89 163.661283 
L 415.89 23.199 
L 350.45 23.199 
z
" style="fill: #ffffff"/>
   </g>
   <g id="PolyCollection_7">
    <path d="M 366.980618 163.661283 
L 364.364729 163.661283 
L 364.319347 162.714613 
L 364.28873 161.767944 
L 364.272585 160.821275 
L 364.269904 159.874606 
L 364.279067 158.927937 
L 364.297985 157.981267 
L 364.324257 157.034598 
L 364.355323 156.087929 
L 364.388602 155.14126 
L 364.421598 154.194591 
L 364.451975 153.247921 
L 364.477599 152.301252 
L 364.496554 151.354583 
L 364.507152 150.407914 
L 364.507928 149.461245 
L 364.497644 148.514575 
L 364.475304 147.567906 
L 364.440167 146.621237 
L 364.391773 145.674568 
L 364.32995 144.727899 
L 364.254812 143.781229 
L 364.166731 142.83456 
L 364.066267 141.887891 
L 363.954089 140.941222 
L 363.830851 139.994553 
L 363.697082 139.047883 
L 363.553076 138.101214 
L 363.398822 137.154545 
L 363.233978 136.207876 
L 363.057919 135.261207 
L 362.869838 134.314537 
L 362.668916 133.367868 
L 362.454518 132.421199 
L 362.226411 131.47453 
L 361.984946 130.527861 
L 361.731192 129.581192 
L 361.466973 128.634522 
L 361.194818 127.687853 
L 360.917788 126.741184 
L 360.639221 125.794515 
L 360.362405 124.847846 
L 360.090224 123.901176 
L 359.824821 122.954507 
L 359.567326 122.007838 
L 359.317681 121.061169 
L 359.074604 120.1145 
L 358.835683 119.16783 
L 358.597618 118.221161 
L 358.356563 117.274492 
L 358.108551 116.327823 
L 357.849947 115.381154 
L 357.577879 114.434484 
L 357.290599 113.487815 
L 356.987751 112.541146 
L 356.6705 111.594477 
L 356.341536 110.647808 
L 356.004934 109.701138 
L 355.665917 108.754469 
L 355.330524 107.8078 
L 355.005242 106.861131 
L 354.696625 105.914462 
L 354.410943 104.967792 
L 354.153888 104.021123 
L 353.930365 103.074454 
L 353.744371 102.127785 
L 353.598967 101.181116 
L 353.496339 100.234447 
L 353.437919 99.287777 
L 353.424545 98.341108 
L 353.456632 97.394439 
L 353.534309 96.44777 
L 353.657523 95.501101 
L 353.82606 94.554431 
L 354.0395 93.607762 
L 354.2971 92.661093 
L 354.597634 91.714424 
L 354.939213 90.767755 
L 355.319117 89.821085 
L 355.733687 88.874416 
L 356.1783 87.927747 
L 356.64744 86.981078 
L 357.134879 86.034409 
L 357.633943 85.087739 
L 358.137852 84.14107 
L 358.640077 83.194401 
L 359.134685 82.247732 
L 359.616625 81.301063 
L 360.081931 80.354393 
L 360.527805 79.407724 
L 360.952597 78.461055 
L 361.355673 77.514386 
L 361.737211 76.567717 
L 362.097939 75.621047 
L 362.438872 74.674378 
L 362.76106 73.727709 
L 363.065393 72.78104 
L 363.352469 71.834371 
L 363.622538 70.887701 
L 363.875517 69.941032 
L 367.469831 69.941032 
L 367.469831 69.941032 
L 367.722809 70.887701 
L 367.992879 71.834371 
L 368.279955 72.78104 
L 368.584288 73.727709 
L 368.906475 74.674378 
L 369.247408 75.621047 
L 369.608137 76.567717 
L 369.989674 77.514386 
L 370.392751 78.461055 
L 370.817543 79.407724 
L 371.263417 80.354393 
L 371.728723 81.301063 
L 372.210663 82.247732 
L 372.705271 83.194401 
L 373.207496 84.14107 
L 373.711405 85.087739 
L 374.210469 86.034409 
L 374.697907 86.981078 
L 375.167048 87.927747 
L 375.611661 88.874416 
L 376.026231 89.821085 
L 376.406135 90.767755 
L 376.747713 91.714424 
L 377.048248 92.661093 
L 377.305848 93.607762 
L 377.519287 94.554431 
L 377.687824 95.501101 
L 377.811038 96.44777 
L 377.888716 97.394439 
L 377.920802 98.341108 
L 377.907429 99.287777 
L 377.849009 100.234447 
L 377.746381 101.181116 
L 377.600976 102.127785 
L 377.414982 103.074454 
L 377.19146 104.021123 
L 376.934405 104.967792 
L 376.648722 105.914462 
L 376.340105 106.861131 
L 376.014823 107.8078 
L 375.67943 108.754469 
L 375.340413 109.701138 
L 375.003812 110.647808 
L 374.674847 111.594477 
L 374.357597 112.541146 
L 374.054748 113.487815 
L 373.767469 114.434484 
L 373.4954 115.381154 
L 373.236797 116.327823 
L 372.988785 117.274492 
L 372.74773 118.221161 
L 372.509664 119.16783 
L 372.270744 120.1145 
L 372.027666 121.061169 
L 371.778022 122.007838 
L 371.520526 122.954507 
L 371.255124 123.901176 
L 370.982943 124.847846 
L 370.706127 125.794515 
L 370.42756 126.741184 
L 370.150529 127.687853 
L 369.878374 128.634522 
L 369.614156 129.581192 
L 369.360401 130.527861 
L 369.118937 131.47453 
L 368.89083 132.421199 
L 368.676432 133.367868 
L 368.475509 134.314537 
L 368.287428 135.261207 
L 368.111369 136.207876 
L 367.946526 137.154545 
L 367.792271 138.101214 
L 367.648266 139.047883 
L 367.514497 139.994553 
L 367.391259 140.941222 
L 367.27908 141.887891 
L 367.178617 142.83456 
L 367.090535 143.781229 
L 367.015398 144.727899 
L 366.953575 145.674568 
L 366.90518 146.621237 
L 366.870044 147.567906 
L 366.847703 148.514575 
L 366.837419 149.461245 
L 366.838195 150.407914 
L 366.848793 151.354583 
L 366.867749 152.301252 
L 366.893372 153.247921 
L 366.923749 154.194591 
L 366.956746 155.14126 
L 366.990025 156.087929 
L 367.021091 157.034598 
L 367.047362 157.981267 
L 367.06628 158.927937 
L 367.075443 159.874606 
L 367.072762 160.821275 
L 367.056618 161.767944 
L 367.026001 162.714613 
L 366.980618 163.661283 
z
" clip-path="url(#p4fcf1e7ff9)" style="fill: #0080ff; fill-opacity: 0.3"/>
   </g>
   <g id="PolyCollection_8">
    <path d="M 404.078141 163.661283 
L 397.256511 163.661283 
L 397.217632 162.709468 
L 397.216947 161.757653 
L 397.251748 160.805839 
L 397.317587 159.854024 
L 397.408553 158.90221 
L 397.517636 157.950395 
L 397.637163 156.998581 
L 397.759246 156.046766 
L 397.876232 155.094951 
L 397.9811 154.143137 
L 398.067785 153.191322 
L 398.131411 152.239508 
L 398.168417 151.287693 
L 398.176586 150.335879 
L 398.15498 149.384064 
L 398.103791 148.432249 
L 398.024143 147.480435 
L 397.917863 146.52862 
L 397.787236 145.576806 
L 397.634786 144.624991 
L 397.463079 143.673177 
L 397.274579 142.721362 
L 397.071557 141.769548 
L 396.856049 140.817733 
L 396.629868 139.865918 
L 396.394652 138.914104 
L 396.151933 137.962289 
L 395.903216 137.010475 
L 395.65005 136.05866 
L 395.394066 135.106846 
L 395.136994 134.155031 
L 394.880622 133.203216 
L 394.626732 132.251402 
L 394.376986 131.299587 
L 394.1328 130.347773 
L 393.895209 129.395958 
L 393.664743 128.444144 
L 393.441336 127.492329 
L 393.224281 126.540514 
L 393.012245 125.5887 
L 392.803347 124.636885 
L 392.595294 123.685071 
L 392.38558 122.733256 
L 392.171709 121.781442 
L 391.951442 120.829627 
L 391.723037 119.877813 
L 391.485454 118.925998 
L 391.238511 117.974183 
L 390.982982 117.022369 
L 390.720614 116.070554 
L 390.454072 115.11874 
L 390.186824 114.166925 
L 389.922969 113.215111 
L 389.667031 112.263296 
L 389.423737 111.311481 
L 389.1978 110.359667 
L 388.99372 109.407852 
L 388.815616 108.456038 
L 388.667097 107.504223 
L 388.551174 106.552409 
L 388.470204 105.600594 
L 388.425872 104.648779 
L 388.419198 103.696965 
L 388.450561 102.74515 
L 388.519736 101.793336 
L 388.625943 100.841521 
L 388.767896 99.889707 
L 388.943868 98.937892 
L 389.151752 97.986078 
L 389.38913 97.034263 
L 389.653352 96.082448 
L 389.941614 95.130634 
L 390.251033 94.178819 
L 390.57873 93.227005 
L 390.921898 92.27519 
L 391.277862 91.323376 
L 391.644127 90.371561 
L 392.018408 89.419746 
L 392.398641 88.467932 
L 392.782982 87.516117 
L 393.16979 86.564303 
L 393.557593 85.612488 
L 393.945056 84.660674 
L 394.330936 83.708859 
L 394.714042 82.757044 
L 395.0932 81.80523 
L 395.467226 80.853415 
L 395.834904 79.901601 
L 396.194984 78.949786 
L 396.546178 77.997972 
L 396.887181 77.046157 
L 397.216694 76.094343 
L 397.533448 75.142528 
L 397.836246 74.190713 
L 398.123994 73.238899 
L 398.395737 72.287084 
L 398.650687 71.33527 
L 398.88825 70.383455 
L 399.108045 69.431641 
L 402.226608 69.431641 
L 402.226608 69.431641 
L 402.446402 70.383455 
L 402.683966 71.33527 
L 402.938916 72.287084 
L 403.210658 73.238899 
L 403.498406 74.190713 
L 403.801204 75.142528 
L 404.117959 76.094343 
L 404.447471 77.046157 
L 404.788475 77.997972 
L 405.139669 78.949786 
L 405.499748 79.901601 
L 405.867427 80.853415 
L 406.241453 81.80523 
L 406.620611 82.757044 
L 407.003716 83.708859 
L 407.389596 84.660674 
L 407.777059 85.612488 
L 408.164863 86.564303 
L 408.55167 87.516117 
L 408.936012 88.467932 
L 409.316245 89.419746 
L 409.690525 90.371561 
L 410.056791 91.323376 
L 410.412755 92.27519 
L 410.755923 93.227005 
L 411.08362 94.178819 
L 411.393039 95.130634 
L 411.6813 96.082448 
L 411.945522 97.034263 
L 412.182901 97.986078 
L 412.390784 98.937892 
L 412.566756 99.889707 
L 412.708709 100.841521 
L 412.814916 101.793336 
L 412.884091 102.74515 
L 412.915455 103.696965 
L 412.908781 104.648779 
L 412.864449 105.600594 
L 412.783478 106.552409 
L 412.667555 107.504223 
L 412.519037 108.456038 
L 412.340933 109.407852 
L 412.136853 110.359667 
L 411.910916 111.311481 
L 411.667621 112.263296 
L 411.411683 113.215111 
L 411.147828 114.166925 
L 410.880581 115.11874 
L 410.614038 116.070554 
L 410.35167 117.022369 
L 410.096141 117.974183 
L 409.849199 118.925998 
L 409.611615 119.877813 
L 409.38321 120.829627 
L 409.162943 121.781442 
L 408.949072 122.733256 
L 408.739358 123.685071 
L 408.531306 124.636885 
L 408.322407 125.5887 
L 408.110371 126.540514 
L 407.893317 127.492329 
L 407.66991 128.444144 
L 407.439443 129.395958 
L 407.201852 130.347773 
L 406.957666 131.299587 
L 406.70792 132.251402 
L 406.45403 133.203216 
L 406.197659 134.155031 
L 405.940586 135.106846 
L 405.684603 136.05866 
L 405.431436 137.010475 
L 405.182719 137.962289 
L 404.94 138.914104 
L 404.704784 139.865918 
L 404.478603 140.817733 
L 404.263095 141.769548 
L 404.060073 142.721362 
L 403.871574 143.673177 
L 403.699866 144.624991 
L 403.547416 145.576806 
L 403.41679 146.52862 
L 403.310509 147.480435 
L 403.230862 148.432249 
L 403.179672 149.384064 
L 403.158066 150.335879 
L 403.166236 151.287693 
L 403.203242 152.239508 
L 403.266867 153.191322 
L 403.353552 154.143137 
L 403.458421 155.094951 
L 403.575407 156.046766 
L 403.69749 156.998581 
L 403.817016 157.950395 
L 403.9261 158.90221 
L 404.017065 159.854024 
L 404.082904 160.805839 
L 404.117705 161.757653 
L 404.117021 162.709468 
L 404.078141 163.661283 
z
" clip-path="url(#p4fcf1e7ff9)" style="fill: #ff8000; fill-opacity: 0.3"/>
   </g>
   <g id="matplotlib.axis_7">
    <g id="xtick_7">
     <g id="line2d_22">
      <g>
       <use xlink:href="#mb38011b23d" x="365.672674" y="163.661283" style="stroke: #000000; stroke-width: 0.8"/>
      </g>
     </g>
     <g id="text_32">
      <!-- MSR -->
      <g transform="translate(345.001733 195.136016) rotate(-45) scale(0.12 -0.12)">
       <use xlink:href="#TimesNewRomanPS-BoldMT-4d"/>
       <use xlink:href="#TimesNewRomanPS-BoldMT-53" x="94.384766"/>
       <use xlink:href="#TimesNewRomanPS-BoldMT-52" x="150"/>
      </g>
     </g>
    </g>
    <g id="xtick_8">
     <g id="line2d_23">
      <g>
       <use xlink:href="#mb38011b23d" x="400.667326" y="163.661283" style="stroke: #000000; stroke-width: 0.8"/>
      </g>
     </g>
     <g id="text_33">
      <!-- SBO -->
      <g transform="translate(381.873754 193.258647) rotate(-45) scale(0.12 -0.12)">
       <use xlink:href="#TimesNewRomanPS-BoldMT-53"/>
       <use xlink:href="#TimesNewRomanPS-BoldMT-42" x="55.615234"/>
       <use xlink:href="#TimesNewRomanPS-BoldMT-4f" x="122.314453"/>
      </g>
     </g>
    </g>
   </g>
   <g id="matplotlib.axis_8">
    <g id="ytick_16">
     <g id="line2d_24">
      <g>
       <use xlink:href="#mf2a4b69760" x="350.45" y="163.661283" style="stroke: #000000; stroke-width: 0.8"/>
      </g>
     </g>
     <g id="text_34">
      <!-- 0.00 -->
      <g transform="translate(322.45 167.827533) scale(0.12 -0.12)">
       <use xlink:href="#TimesNewRomanPSMT-30"/>
       <use xlink:href="#TimesNewRomanPSMT-2e" x="50"/>
       <use xlink:href="#TimesNewRomanPSMT-30" x="75"/>
       <use xlink:href="#TimesNewRomanPSMT-30" x="125"/>
      </g>
     </g>
    </g>
    <g id="ytick_17">
     <g id="line2d_25">
      <g>
       <use xlink:href="#mf2a4b69760" x="350.45" y="133.126004" style="stroke: #000000; stroke-width: 0.8"/>
      </g>
     </g>
     <g id="text_35">
      <!-- 0.25 -->
      <g transform="translate(322.45 137.292254) scale(0.12 -0.12)">
       <use xlink:href="#TimesNewRomanPSMT-30"/>
       <use xlink:href="#TimesNewRomanPSMT-2e" x="50"/>
       <use xlink:href="#TimesNewRomanPSMT-32" x="75"/>
       <use xlink:href="#TimesNewRomanPSMT-35" x="125"/>
      </g>
     </g>
    </g>
    <g id="ytick_18">
     <g id="line2d_26">
      <g>
       <use xlink:href="#mf2a4b69760" x="350.45" y="102.590725" style="stroke: #000000; stroke-width: 0.8"/>
      </g>
     </g>
     <g id="text_36">
      <!-- 0.50 -->
      <g transform="translate(322.45 106.756975) scale(0.12 -0.12)">
       <use xlink:href="#TimesNewRomanPSMT-30"/>
       <use xlink:href="#TimesNewRomanPSMT-2e" x="50"/>
       <use xlink:href="#TimesNewRomanPSMT-35" x="75"/>
       <use xlink:href="#TimesNewRomanPSMT-30" x="125"/>
      </g>
     </g>
    </g>
    <g id="ytick_19">
     <g id="line2d_27">
      <g>
       <use xlink:href="#mf2a4b69760" x="350.45" y="72.055446" style="stroke: #000000; stroke-width: 0.8"/>
      </g>
     </g>
     <g id="text_37">
      <!-- 0.75 -->
      <g transform="translate(322.45 76.221696) scale(0.12 -0.12)">
       <use xlink:href="#TimesNewRomanPSMT-30"/>
       <use xlink:href="#TimesNewRomanPSMT-2e" x="50"/>
       <use xlink:href="#TimesNewRomanPSMT-37" x="75"/>
       <use xlink:href="#TimesNewRomanPSMT-35" x="125"/>
      </g>
     </g>
    </g>
    <g id="ytick_20">
     <g id="line2d_28">
      <g>
       <use xlink:href="#mf2a4b69760" x="350.45" y="41.520167" style="stroke: #000000; stroke-width: 0.8"/>
      </g>
     </g>
     <g id="text_38">
      <!-- 1.00 -->
      <g transform="translate(322.45 45.686417) scale(0.12 -0.12)">
       <use xlink:href="#TimesNewRomanPSMT-31"/>
       <use xlink:href="#TimesNewRomanPSMT-2e" x="50"/>
       <use xlink:href="#TimesNewRomanPSMT-30" x="75"/>
       <use xlink:href="#TimesNewRomanPSMT-30" x="125"/>
      </g>
     </g>
    </g>
   </g>
   <g id="LineCollection_16">
    <path d="M 359.54861 106.123952 
L 371.796738 106.123952 
" clip-path="url(#p4fcf1e7ff9)" style="fill: none; stroke: #008000; stroke-width: 1.5"/>
    <path d="M 394.543262 113.690201 
L 406.79139 113.690201 
" clip-path="url(#p4fcf1e7ff9)" style="fill: none; stroke: #008000; stroke-width: 1.5"/>
   </g>
   <g id="LineCollection_17">
    <path d="M 359.54861 69.941032 
L 371.796738 69.941032 
" clip-path="url(#p4fcf1e7ff9)" style="fill: none; stroke: #1f77b4; stroke-width: 1.5"/>
    <path d="M 394.543262 69.431641 
L 406.79139 69.431641 
" clip-path="url(#p4fcf1e7ff9)" style="fill: none; stroke: #1f77b4; stroke-width: 1.5"/>
   </g>
   <g id="LineCollection_18">
    <path d="M 359.54861 163.661283 
L 371.796738 163.661283 
" clip-path="url(#p4fcf1e7ff9)" style="fill: none; stroke: #1f77b4; stroke-width: 1.5"/>
    <path d="M 394.543262 163.661283 
L 406.79139 163.661283 
" clip-path="url(#p4fcf1e7ff9)" style="fill: none; stroke: #1f77b4; stroke-width: 1.5"/>
   </g>
   <g id="LineCollection_19">
    <path d="M 365.672674 163.661283 
L 365.672674 69.941032 
" clip-path="url(#p4fcf1e7ff9)" style="fill: none; stroke: #1f77b4; stroke-width: 1.5"/>
    <path d="M 400.667326 163.661283 
L 400.667326 69.431641 
" clip-path="url(#p4fcf1e7ff9)" style="fill: none; stroke: #1f77b4; stroke-width: 1.5"/>
   </g>
   <g id="LineCollection_20">
    <path d="M 359.54861 102.569286 
L 371.796738 102.569286 
" clip-path="url(#p4fcf1e7ff9)" style="fill: none; stroke: #ff0000; stroke-width: 1.5"/>
    <path d="M 394.543262 109.580952 
L 406.79139 109.580952 
" clip-path="url(#p4fcf1e7ff9)" style="fill: none; stroke: #ff0000; stroke-width: 1.5"/>
   </g>
   <g id="patch_18">
    <path d="M 350.45 163.661283 
L 350.45 23.199 
" style="fill: none; stroke: #000000; stroke-width: 0.8; stroke-linejoin: miter; stroke-linecap: square"/>
   </g>
   <g id="patch_19">
    <path d="M 415.89 163.661283 
L 415.89 23.199 
" style="fill: none; stroke: #000000; stroke-width: 0.8; stroke-linejoin: miter; stroke-linecap: square"/>
   </g>
   <g id="patch_20">
    <path d="M 350.45 163.661283 
L 415.89 163.661283 
" style="fill: none; stroke: #000000; stroke-width: 0.8; stroke-linejoin: miter; stroke-linecap: square"/>
   </g>
   <g id="patch_21">
    <path d="M 350.45 23.199 
L 415.89 23.199 
" style="fill: none; stroke: #000000; stroke-width: 0.8; stroke-linejoin: miter; stroke-linecap: square"/>
   </g>
   <g id="text_39">
    <!-- 196 -->
    <g transform="translate(358.172674 37.815455) scale(0.1 -0.1)">
     <defs>
      <path id="TimesNewRomanPSMT-36" d="M 2869 4325 
L 2869 4209 
Q 2456 4169 2195 4045 
Q 1934 3922 1679 3669 
Q 1425 3416 1258 3105 
Q 1091 2794 978 2366 
Q 1428 2675 1881 2675 
Q 2316 2675 2634 2325 
Q 2953 1975 2953 1425 
Q 2953 894 2631 456 
Q 2244 -75 1606 -75 
Q 1172 -75 869 213 
Q 275 772 275 1663 
Q 275 2231 503 2743 
Q 731 3256 1154 3653 
Q 1578 4050 1965 4187 
Q 2353 4325 2688 4325 
L 2869 4325 
z
M 925 2138 
Q 869 1716 869 1456 
Q 869 1156 980 804 
Q 1091 453 1309 247 
Q 1469 100 1697 100 
Q 1969 100 2183 356 
Q 2397 613 2397 1088 
Q 2397 1622 2184 2012 
Q 1972 2403 1581 2403 
Q 1463 2403 1327 2353 
Q 1191 2303 925 2138 
z
" transform="scale(0.015625)"/>
     </defs>
     <use xlink:href="#TimesNewRomanPSMT-31"/>
     <use xlink:href="#TimesNewRomanPSMT-39" x="50"/>
     <use xlink:href="#TimesNewRomanPSMT-36" x="100"/>
    </g>
   </g>
   <g id="text_40">
    <!-- 232 -->
    <g transform="translate(393.167326 37.815455) scale(0.1 -0.1)">
     <use xlink:href="#TimesNewRomanPSMT-32"/>
     <use xlink:href="#TimesNewRomanPSMT-33" x="50"/>
     <use xlink:href="#TimesNewRomanPSMT-32" x="100"/>
    </g>
   </g>
   <g id="text_41">
    <!-- 6 Vessels -->
    <g transform="translate(356.697625 17.199) scale(0.144 -0.144)">
     <use xlink:href="#TimesNewRomanPSMT-36"/>
     <use xlink:href="#TimesNewRomanPSMT-20" x="50"/>
     <use xlink:href="#TimesNewRomanPSMT-56" x="73.25"/>
     <use xlink:href="#TimesNewRomanPSMT-65" x="134.341797"/>
     <use xlink:href="#TimesNewRomanPSMT-73" x="178.726562"/>
     <use xlink:href="#TimesNewRomanPSMT-73" x="217.642578"/>
     <use xlink:href="#TimesNewRomanPSMT-65" x="256.558594"/>
     <use xlink:href="#TimesNewRomanPSMT-6c" x="300.943359"/>
     <use xlink:href="#TimesNewRomanPSMT-73" x="328.726562"/>
    </g>
   </g>
  </g>
 </g>
 <defs>
  <clipPath id="pae3fc20f16">
   <rect x="49.43" y="23.199" width="65.44" height="140.462283"/>
  </clipPath>
  <clipPath id="pb438597b74">
   <rect x="149.77" y="23.199" width="65.44" height="140.462283"/>
  </clipPath>
  <clipPath id="p6c50705601">
   <rect x="250.11" y="23.199" width="65.44" height="140.462283"/>
  </clipPath>
  <clipPath id="p4fcf1e7ff9">
   <rect x="350.45" y="23.199" width="65.44" height="140.462283"/>
  </clipPath>
 </defs>
</svg>
