<?xml version="1.0" encoding="utf-8" standalone="no"?>
<!DOCTYPE svg PUBLIC "-//W3C//DTD SVG 1.1//EN"
  "http://www.w3.org/Graphics/SVG/1.1/DTD/svg11.dtd">
<svg xmlns:xlink="http://www.w3.org/1999/xlink" width="423.09pt" height="204.151071pt" viewBox="0 0 423.09 204.151071" xmlns="http://www.w3.org/2000/svg" version="1.1">
 <metadata>
  <rdf:RDF xmlns:dc="http://purl.org/dc/elements/1.1/" xmlns:cc="http://creativecommons.org/ns#" xmlns:rdf="http://www.w3.org/1999/02/22-rdf-syntax-ns#">
   <cc:Work>
    <dc:type rdf:resource="http://purl.org/dc/dcmitype/StillImage"/>
    <dc:date>2024-10-23T10:28:04.328267</dc:date>
    <dc:format>image/svg+xml</dc:format>
    <dc:creator>
     <cc:Agent>
      <dc:title>Matplotlib v3.9.0, https://matplotlib.org/</dc:title>
     </cc:Agent>
    </dc:creator>
   </cc:Work>
  </rdf:RDF>
 </metadata>
 <defs>
  <style type="text/css">*{stroke-linejoin: round; stroke-linecap: butt}</style>
 </defs>
 <g id="figure_1">
  <g id="patch_1">
   <path d="M 0 204.151071 
L 423.09 204.151071 
L 423.09 0 
L 0 0 
z
" style="fill: #ffffff"/>
  </g>
  <g id="axes_1">
   <g id="patch_2">
    <path d="M 49.43 163.661283 
L 114.87 163.661283 
L 114.87 23.199 
L 49.43 23.199 
z
" style="fill: #ffffff"/>
   </g>
   <g id="PolyCollection_1">
    <path d="M 76.862171 163.661283 
L 52.443177 163.661283 
L 52.404545 162.709688 
L 52.464298 161.758094 
L 52.61793 160.8065 
L 52.858293 159.854906 
L 53.175928 158.903312 
L 53.559513 157.951718 
L 53.996365 157.000124 
L 54.472996 156.04853 
L 54.975667 155.096935 
L 55.490925 154.145341 
L 56.006077 153.193747 
L 56.509596 152.242153 
L 56.991425 151.290559 
L 57.44319 150.338965 
L 57.858298 149.387371 
L 58.231941 148.435777 
L 58.561017 147.484183 
L 58.84397 146.532588 
L 59.080593 145.580994 
L 59.271783 144.6294 
L 59.419294 143.677806 
L 59.525492 142.726212 
L 59.593131 141.774618 
L 59.625156 140.823024 
L 59.624555 139.87143 
L 59.594239 138.919835 
L 59.536973 137.968241 
L 59.455341 137.016647 
L 59.35174 136.065053 
L 59.228405 135.113459 
L 59.087438 134.161865 
L 58.930855 133.210271 
L 58.760628 132.258677 
L 58.578717 131.307083 
L 58.387098 130.355488 
L 58.187771 129.403894 
L 57.982757 128.4523 
L 57.774076 127.500706 
L 57.563718 126.549112 
L 57.353603 125.597518 
L 57.145534 124.645924 
L 56.941156 123.69433 
L 56.741912 122.742736 
L 56.549016 121.791141 
L 56.363426 120.839547 
L 56.185839 119.887953 
L 56.016704 118.936359 
L 55.856234 117.984765 
L 55.704452 117.033171 
L 55.561232 116.081577 
L 55.426355 115.129983 
L 55.299576 114.178388 
L 55.18068 113.226794 
L 55.069543 112.2752 
L 54.96619 111.323606 
L 54.870837 110.372012 
L 54.78392 109.420418 
L 54.70612 108.468824 
L 54.638361 107.51723 
L 54.5818 106.565636 
L 54.537792 105.614041 
L 54.507857 104.662447 
L 54.493612 103.710853 
L 54.496715 102.759259 
L 54.518786 101.807665 
L 54.561329 100.856071 
L 54.62566 99.904477 
L 54.71283 98.952883 
L 54.823562 98.001288 
L 54.958197 97.049694 
L 55.116656 96.0981 
L 55.298419 95.146506 
L 55.502524 94.194912 
L 55.727581 93.243318 
L 55.971811 92.291724 
L 56.2331 91.34013 
L 56.509066 90.388536 
L 56.797143 89.436941 
L 57.09466 88.485347 
L 57.398942 87.533753 
L 57.707386 86.582159 
L 58.017546 85.630565 
L 58.3272 84.678971 
L 58.634402 83.727377 
L 58.937515 82.775783 
L 59.235232 81.824189 
L 59.526571 80.872594 
L 59.810853 79.921 
L 60.087674 78.969406 
L 60.356853 78.017812 
L 60.618381 77.066218 
L 60.872362 76.114624 
L 61.118956 75.16303 
L 61.358328 74.211436 
L 61.590602 73.259841 
L 61.815827 72.308247 
L 62.033953 71.356653 
L 62.244825 70.405059 
L 62.44818 69.453465 
L 66.857168 69.453465 
L 66.857168 69.453465 
L 67.060523 70.405059 
L 67.271394 71.356653 
L 67.489521 72.308247 
L 67.714745 73.259841 
L 67.947019 74.211436 
L 68.186391 75.16303 
L 68.432986 76.114624 
L 68.686966 77.066218 
L 68.948494 78.017812 
L 69.217673 78.969406 
L 69.494495 79.921 
L 69.778777 80.872594 
L 70.070115 81.824189 
L 70.367833 82.775783 
L 70.670946 83.727377 
L 70.978147 84.678971 
L 71.287802 85.630565 
L 71.597962 86.582159 
L 71.906406 87.533753 
L 72.210687 88.485347 
L 72.508205 89.436941 
L 72.796281 90.388536 
L 73.072248 91.34013 
L 73.333537 92.291724 
L 73.577767 93.243318 
L 73.802824 94.194912 
L 74.006928 95.146506 
L 74.188692 96.0981 
L 74.347151 97.049694 
L 74.481786 98.001288 
L 74.592518 98.952883 
L 74.679688 99.904477 
L 74.744019 100.856071 
L 74.786562 101.807665 
L 74.808632 102.759259 
L 74.811735 103.710853 
L 74.797491 104.662447 
L 74.767555 105.614041 
L 74.723548 106.565636 
L 74.666986 107.51723 
L 74.599228 108.468824 
L 74.521428 109.420418 
L 74.434511 110.372012 
L 74.339157 111.323606 
L 74.235804 112.2752 
L 74.124668 113.226794 
L 74.005771 114.178388 
L 73.878992 115.129983 
L 73.744116 116.081577 
L 73.600895 117.033171 
L 73.449113 117.984765 
L 73.288644 118.936359 
L 73.119508 119.887953 
L 72.941922 120.839547 
L 72.756331 121.791141 
L 72.563435 122.742736 
L 72.364192 123.69433 
L 72.159814 124.645924 
L 71.951745 125.597518 
L 71.741629 126.549112 
L 71.531272 127.500706 
L 71.322591 128.4523 
L 71.117577 129.403894 
L 70.91825 130.355488 
L 70.726631 131.307083 
L 70.54472 132.258677 
L 70.374492 133.210271 
L 70.21791 134.161865 
L 70.076943 135.113459 
L 69.953607 136.065053 
L 69.850007 137.016647 
L 69.768375 137.968241 
L 69.711109 138.919835 
L 69.680793 139.87143 
L 69.680191 140.823024 
L 69.712217 141.774618 
L 69.779855 142.726212 
L 69.886053 143.677806 
L 70.033564 144.6294 
L 70.224754 145.580994 
L 70.461377 146.532588 
L 70.744331 147.484183 
L 71.073406 148.435777 
L 71.447049 149.387371 
L 71.862157 150.338965 
L 72.313923 151.290559 
L 72.795752 152.242153 
L 73.29927 153.193747 
L 73.814422 154.145341 
L 74.32968 155.096935 
L 74.832352 156.04853 
L 75.308983 157.000124 
L 75.745834 157.951718 
L 76.129419 158.903312 
L 76.447055 159.854906 
L 76.687417 160.8065 
L 76.84105 161.758094 
L 76.900802 162.709688 
L 76.862171 163.661283 
z
" clip-path="url(#pac0c848e1b)" style="fill: #0080ff; fill-opacity: 0.3"/>
   </g>
   <g id="PolyCollection_2">
    <path d="M 111.840604 163.661283 
L 87.454048 163.661283 
L 87.399198 162.651976 
L 87.454646 161.64267 
L 87.615464 160.633364 
L 87.873426 159.624058 
L 88.217439 158.614751 
L 88.6341 157.605445 
L 89.108348 156.596139 
L 89.624168 155.586833 
L 90.165301 154.577526 
L 90.715906 153.56822 
L 91.261155 152.558914 
L 91.787716 151.549608 
L 92.284118 150.540301 
L 92.740976 149.530995 
L 93.151088 148.521689 
L 93.509419 147.512383 
L 93.81297 146.503076 
L 94.060577 145.49377 
L 94.252652 144.484464 
L 94.390897 143.475158 
L 94.478005 142.465851 
L 94.517386 141.456545 
L 94.512908 140.447239 
L 94.468686 139.437933 
L 94.388915 138.428626 
L 94.277741 137.41932 
L 94.139183 136.410014 
L 93.97708 135.400708 
L 93.795073 134.391401 
L 93.596603 133.382095 
L 93.384914 132.372789 
L 93.163068 131.363483 
L 92.933946 130.354176 
L 92.70025 129.34487 
L 92.464489 128.335564 
L 92.228968 127.326258 
L 91.995761 126.316951 
L 91.76669 125.307645 
L 91.543305 124.298339 
L 91.326871 123.289033 
L 91.118367 122.279726 
L 90.918495 121.27042 
L 90.72771 120.261114 
L 90.54625 119.251808 
L 90.374195 118.242501 
L 90.21151 117.233195 
L 90.058113 116.223889 
L 89.913926 115.214583 
L 89.778923 114.205276 
L 89.653177 113.19597 
L 89.536884 112.186664 
L 89.430388 111.177358 
L 89.334179 110.168051 
L 89.248898 109.158745 
L 89.175322 108.149439 
L 89.11435 107.140133 
L 89.06698 106.130826 
L 89.034291 105.12152 
L 89.017416 104.112214 
L 89.017523 103.102908 
L 89.035787 102.093601 
L 89.073362 101.084295 
L 89.131347 100.074989 
L 89.210752 99.065683 
L 89.312452 98.056376 
L 89.437138 97.04707 
L 89.585271 96.037764 
L 89.757029 95.028458 
L 89.952256 94.019151 
L 90.17043 93.009845 
L 90.410632 92.000539 
L 90.671533 90.991233 
L 90.951411 89.981926 
L 91.24817 88.97262 
L 91.559396 87.963314 
L 91.882426 86.954008 
L 92.214425 85.944701 
L 92.552484 84.935395 
L 92.893715 83.926089 
L 93.235346 82.916783 
L 93.574807 81.907476 
L 93.9098 80.89817 
L 94.238355 79.888864 
L 94.558862 78.879558 
L 94.87008 77.870251 
L 95.171127 76.860945 
L 95.461452 75.851639 
L 95.74079 74.842333 
L 96.009104 73.833026 
L 96.266528 72.82372 
L 96.513303 71.814414 
L 96.749721 70.805108 
L 96.976073 69.795801 
L 97.192613 68.786495 
L 97.399526 67.777189 
L 97.596919 66.767883 
L 97.784813 65.758576 
L 97.963158 64.74927 
L 98.131841 63.739964 
L 101.162811 63.739964 
L 101.162811 63.739964 
L 101.331495 64.74927 
L 101.509839 65.758576 
L 101.697734 66.767883 
L 101.895126 67.777189 
L 102.10204 68.786495 
L 102.318579 69.795801 
L 102.544931 70.805108 
L 102.781349 71.814414 
L 103.028124 72.82372 
L 103.285548 73.833026 
L 103.553862 74.842333 
L 103.8332 75.851639 
L 104.123526 76.860945 
L 104.424573 77.870251 
L 104.73579 78.879558 
L 105.056297 79.888864 
L 105.384852 80.89817 
L 105.719845 81.907476 
L 106.059306 82.916783 
L 106.400937 83.926089 
L 106.742168 84.935395 
L 107.080227 85.944701 
L 107.412226 86.954008 
L 107.735256 87.963314 
L 108.046483 88.97262 
L 108.343242 89.981926 
L 108.623119 90.991233 
L 108.884021 92.000539 
L 109.124222 93.009845 
L 109.342396 94.019151 
L 109.537624 95.028458 
L 109.709381 96.037764 
L 109.857515 97.04707 
L 109.982201 98.056376 
L 110.0839 99.065683 
L 110.163305 100.074989 
L 110.221291 101.084295 
L 110.258865 102.093601 
L 110.277129 103.102908 
L 110.277237 104.112214 
L 110.260362 105.12152 
L 110.227672 106.130826 
L 110.180302 107.140133 
L 110.11933 108.149439 
L 110.045755 109.158745 
L 109.960474 110.168051 
L 109.864265 111.177358 
L 109.757768 112.186664 
L 109.641476 113.19597 
L 109.51573 114.205276 
L 109.380727 115.214583 
L 109.236539 116.223889 
L 109.083142 117.233195 
L 108.920458 118.242501 
L 108.748402 119.251808 
L 108.566943 120.261114 
L 108.376157 121.27042 
L 108.176285 122.279726 
L 107.967781 123.289033 
L 107.751347 124.298339 
L 107.527963 125.307645 
L 107.298892 126.316951 
L 107.065685 127.326258 
L 106.830164 128.335564 
L 106.594403 129.34487 
L 106.360706 130.354176 
L 106.131584 131.363483 
L 105.909738 132.372789 
L 105.69805 133.382095 
L 105.499579 134.391401 
L 105.317572 135.400708 
L 105.155469 136.410014 
L 105.016911 137.41932 
L 104.905738 138.428626 
L 104.825966 139.437933 
L 104.781744 140.447239 
L 104.777266 141.456545 
L 104.816647 142.465851 
L 104.903756 143.475158 
L 105.042001 144.484464 
L 105.234076 145.49377 
L 105.481682 146.503076 
L 105.785233 147.512383 
L 106.143564 148.521689 
L 106.553677 149.530995 
L 107.010534 150.540301 
L 107.506936 151.549608 
L 108.033498 152.558914 
L 108.578746 153.56822 
L 109.129351 154.577526 
L 109.670484 155.586833 
L 110.186305 156.596139 
L 110.660552 157.605445 
L 111.077213 158.614751 
L 111.421226 159.624058 
L 111.679189 160.633364 
L 111.840006 161.64267 
L 111.895455 162.651976 
L 111.840604 163.661283 
z
" clip-path="url(#pac0c848e1b)" style="fill: #ff8000; fill-opacity: 0.3"/>
   </g>
   <g id="matplotlib.axis_1">
    <g id="xtick_1">
     <g id="line2d_1">
      <defs>
       <path id="m36f927574a" d="M 0 0 
L 0 3.5 
" style="stroke: #000000; stroke-width: 0.8"/>
      </defs>
      <g>
       <use xlink:href="#m36f927574a" x="64.652674" y="163.661283" style="stroke: #000000; stroke-width: 0.8"/>
      </g>
     </g>
     <g id="text_1">
      <!-- MSR -->
      <g transform="translate(43.981733 195.136016) rotate(-45) scale(0.12 -0.12)">
       <defs>
        <path id="TimesNewRomanPS-BoldMT-4d" d="M 3050 1444 
L 4200 4238 
L 5925 4238 
L 5925 4122 
L 5788 4122 
Q 5600 4122 5488 4056 
Q 5409 4013 5363 3909 
Q 5328 3834 5328 3519 
L 5328 725 
Q 5328 400 5362 319 
Q 5397 238 5503 177 
Q 5609 116 5788 116 
L 5925 116 
L 5925 0 
L 3713 0 
L 3713 116 
L 3850 116 
Q 4038 116 4150 181 
Q 4228 225 4275 331 
Q 4309 406 4309 725 
L 4309 3866 
L 2684 0 
L 2609 0 
L 959 3838 
L 959 853 
Q 959 541 975 469 
Q 1016 313 1152 214 
Q 1288 116 1578 116 
L 1578 0 
L 128 0 
L 128 116 
L 172 116 
Q 313 113 434 161 
Q 556 209 618 290 
Q 681 372 716 519 
Q 722 553 722 838 
L 722 3519 
Q 722 3841 687 3920 
Q 653 4000 547 4061 
Q 441 4122 263 4122 
L 128 4122 
L 128 4238 
L 1859 4238 
L 3050 1444 
z
" transform="scale(0.015625)"/>
        <path id="TimesNewRomanPS-BoldMT-53" d="M 3006 4334 
L 3041 2922 
L 2913 2922 
Q 2822 3453 2467 3776 
Q 2113 4100 1700 4100 
Q 1381 4100 1195 3929 
Q 1009 3759 1009 3538 
Q 1009 3397 1075 3288 
Q 1166 3141 1366 2997 
Q 1513 2894 2044 2631 
Q 2788 2266 3047 1941 
Q 3303 1616 3303 1197 
Q 3303 666 2889 283 
Q 2475 -100 1838 -100 
Q 1638 -100 1459 -59 
Q 1281 -19 1013 94 
Q 863 156 766 156 
Q 684 156 593 93 
Q 503 31 447 -97 
L 331 -97 
L 331 1503 
L 447 1503 
Q 584 828 976 473 
Q 1369 119 1822 119 
Q 2172 119 2380 309 
Q 2588 500 2588 753 
Q 2588 903 2508 1043 
Q 2428 1184 2265 1311 
Q 2103 1438 1691 1641 
Q 1113 1925 859 2125 
Q 606 2325 470 2572 
Q 334 2819 334 3116 
Q 334 3622 706 3978 
Q 1078 4334 1644 4334 
Q 1850 4334 2044 4284 
Q 2191 4247 2402 4145 
Q 2613 4044 2697 4044 
Q 2778 4044 2825 4094 
Q 2872 4144 2913 4334 
L 3006 4334 
z
" transform="scale(0.015625)"/>
        <path id="TimesNewRomanPS-BoldMT-52" d="M 1700 1931 
L 1700 744 
Q 1700 400 1742 311 
Q 1784 222 1890 169 
Q 1997 116 2288 116 
L 2288 0 
L 119 0 
L 119 116 
Q 413 116 517 170 
Q 622 225 664 312 
Q 706 400 706 744 
L 706 3494 
Q 706 3838 664 3927 
Q 622 4016 515 4069 
Q 409 4122 119 4122 
L 119 4238 
L 2088 4238 
Q 2856 4238 3212 4131 
Q 3569 4025 3794 3739 
Q 4019 3453 4019 3069 
Q 4019 2600 3681 2294 
Q 3466 2100 3078 2003 
L 4097 569 
Q 4297 291 4381 222 
Q 4509 125 4678 116 
L 4678 0 
L 3344 0 
L 1978 1931 
L 1700 1931 
z
M 1700 4009 
L 1700 2153 
L 1878 2153 
Q 2313 2153 2528 2233 
Q 2744 2313 2867 2520 
Q 2991 2728 2991 3063 
Q 2991 3547 2764 3778 
Q 2538 4009 2034 4009 
L 1700 4009 
z
" transform="scale(0.015625)"/>
       </defs>
       <use xlink:href="#TimesNewRomanPS-BoldMT-4d"/>
       <use xlink:href="#TimesNewRomanPS-BoldMT-53" x="94.384766"/>
       <use xlink:href="#TimesNewRomanPS-BoldMT-52" x="150"/>
      </g>
     </g>
    </g>
    <g id="xtick_2">
     <g id="line2d_2">
      <g>
       <use xlink:href="#m36f927574a" x="99.647326" y="163.661283" style="stroke: #000000; stroke-width: 0.8"/>
      </g>
     </g>
     <g id="text_2">
      <!-- SBO -->
      <g transform="translate(80.853754 193.258647) rotate(-45) scale(0.12 -0.12)">
       <defs>
        <path id="TimesNewRomanPS-BoldMT-42" d="M 2847 2247 
Q 3450 2106 3694 1906 
Q 4044 1622 4044 1169 
Q 4044 691 3659 378 
Q 3188 0 2288 0 
L 134 0 
L 134 116 
Q 428 116 533 170 
Q 638 225 680 312 
Q 722 400 722 744 
L 722 3494 
Q 722 3838 680 3927 
Q 638 4016 531 4069 
Q 425 4122 134 4122 
L 134 4238 
L 2166 4238 
Q 2894 4238 3197 4108 
Q 3500 3978 3675 3720 
Q 3850 3463 3850 3172 
Q 3850 2866 3628 2627 
Q 3406 2388 2847 2247 
z
M 1709 2331 
Q 2153 2331 2364 2431 
Q 2575 2531 2687 2712 
Q 2800 2894 2800 3175 
Q 2800 3456 2689 3636 
Q 2578 3816 2372 3909 
Q 2166 4003 1709 4000 
L 1709 2331 
z
M 1709 2088 
L 1709 728 
L 1706 572 
Q 1706 403 1792 317 
Q 1878 231 2047 231 
Q 2297 231 2508 342 
Q 2719 453 2831 664 
Q 2944 875 2944 1134 
Q 2944 1431 2806 1667 
Q 2669 1903 2428 1997 
Q 2188 2091 1709 2088 
z
" transform="scale(0.015625)"/>
        <path id="TimesNewRomanPS-BoldMT-4f" d="M 2472 4297 
Q 3484 4334 4117 3706 
Q 4750 3078 4750 2134 
Q 4750 1328 4278 716 
Q 3653 -97 2513 -97 
Q 1369 -97 744 678 
Q 250 1291 250 2131 
Q 250 3075 892 3704 
Q 1534 4334 2472 4297 
z
M 2509 4097 
Q 1928 4097 1625 3503 
Q 1378 3016 1378 2103 
Q 1378 1019 1759 500 
Q 2025 138 2503 138 
Q 2825 138 3041 294 
Q 3316 494 3469 933 
Q 3622 1372 3622 2078 
Q 3622 2919 3465 3336 
Q 3309 3753 3067 3925 
Q 2825 4097 2509 4097 
z
" transform="scale(0.015625)"/>
       </defs>
       <use xlink:href="#TimesNewRomanPS-BoldMT-53"/>
       <use xlink:href="#TimesNewRomanPS-BoldMT-42" x="55.615234"/>
       <use xlink:href="#TimesNewRomanPS-BoldMT-4f" x="122.314453"/>
      </g>
     </g>
    </g>
   </g>
   <g id="matplotlib.axis_2">
    <g id="ytick_1">
     <g id="line2d_3">
      <defs>
       <path id="m3c00ce9a37" d="M 0 0 
L -3.5 0 
" style="stroke: #000000; stroke-width: 0.8"/>
      </defs>
      <g>
       <use xlink:href="#m3c00ce9a37" x="49.43" y="163.661283" style="stroke: #000000; stroke-width: 0.8"/>
      </g>
     </g>
     <g id="text_3">
      <!-- 0.00 -->
      <g transform="translate(21.43 167.827533) scale(0.12 -0.12)">
       <defs>
        <path id="TimesNewRomanPSMT-30" d="M 231 2094 
Q 231 2819 450 3342 
Q 669 3866 1031 4122 
Q 1313 4325 1613 4325 
Q 2100 4325 2488 3828 
Q 2972 3213 2972 2159 
Q 2972 1422 2759 906 
Q 2547 391 2217 158 
Q 1888 -75 1581 -75 
Q 975 -75 572 641 
Q 231 1244 231 2094 
z
M 844 2016 
Q 844 1141 1059 588 
Q 1238 122 1591 122 
Q 1759 122 1940 273 
Q 2122 425 2216 781 
Q 2359 1319 2359 2297 
Q 2359 3022 2209 3506 
Q 2097 3866 1919 4016 
Q 1791 4119 1609 4119 
Q 1397 4119 1231 3928 
Q 1006 3669 925 3112 
Q 844 2556 844 2016 
z
" transform="scale(0.015625)"/>
        <path id="TimesNewRomanPSMT-2e" d="M 800 606 
Q 947 606 1047 504 
Q 1147 403 1147 259 
Q 1147 116 1045 14 
Q 944 -88 800 -88 
Q 656 -88 554 14 
Q 453 116 453 259 
Q 453 406 554 506 
Q 656 606 800 606 
z
" transform="scale(0.015625)"/>
       </defs>
       <use xlink:href="#TimesNewRomanPSMT-30"/>
       <use xlink:href="#TimesNewRomanPSMT-2e" x="50"/>
       <use xlink:href="#TimesNewRomanPSMT-30" x="75"/>
       <use xlink:href="#TimesNewRomanPSMT-30" x="125"/>
      </g>
     </g>
    </g>
    <g id="ytick_2">
     <g id="line2d_4">
      <g>
       <use xlink:href="#m3c00ce9a37" x="49.43" y="133.126004" style="stroke: #000000; stroke-width: 0.8"/>
      </g>
     </g>
     <g id="text_4">
      <!-- 0.25 -->
      <g transform="translate(21.43 137.292254) scale(0.12 -0.12)">
       <defs>
        <path id="TimesNewRomanPSMT-32" d="M 2934 816 
L 2638 0 
L 138 0 
L 138 116 
Q 1241 1122 1691 1759 
Q 2141 2397 2141 2925 
Q 2141 3328 1894 3587 
Q 1647 3847 1303 3847 
Q 991 3847 742 3664 
Q 494 3481 375 3128 
L 259 3128 
Q 338 3706 661 4015 
Q 984 4325 1469 4325 
Q 1984 4325 2329 3994 
Q 2675 3663 2675 3213 
Q 2675 2891 2525 2569 
Q 2294 2063 1775 1497 
Q 997 647 803 472 
L 1909 472 
Q 2247 472 2383 497 
Q 2519 522 2628 598 
Q 2738 675 2819 816 
L 2934 816 
z
" transform="scale(0.015625)"/>
        <path id="TimesNewRomanPSMT-35" d="M 2778 4238 
L 2534 3706 
L 1259 3706 
L 981 3138 
Q 1809 3016 2294 2522 
Q 2709 2097 2709 1522 
Q 2709 1188 2573 903 
Q 2438 619 2231 419 
Q 2025 219 1772 97 
Q 1413 -75 1034 -75 
Q 653 -75 479 54 
Q 306 184 306 341 
Q 306 428 378 495 
Q 450 563 559 563 
Q 641 563 702 538 
Q 763 513 909 409 
Q 1144 247 1384 247 
Q 1750 247 2026 523 
Q 2303 800 2303 1197 
Q 2303 1581 2056 1914 
Q 1809 2247 1375 2428 
Q 1034 2569 447 2591 
L 1259 4238 
L 2778 4238 
z
" transform="scale(0.015625)"/>
       </defs>
       <use xlink:href="#TimesNewRomanPSMT-30"/>
       <use xlink:href="#TimesNewRomanPSMT-2e" x="50"/>
       <use xlink:href="#TimesNewRomanPSMT-32" x="75"/>
       <use xlink:href="#TimesNewRomanPSMT-35" x="125"/>
      </g>
     </g>
    </g>
    <g id="ytick_3">
     <g id="line2d_5">
      <g>
       <use xlink:href="#m3c00ce9a37" x="49.43" y="102.590725" style="stroke: #000000; stroke-width: 0.8"/>
      </g>
     </g>
     <g id="text_5">
      <!-- 0.50 -->
      <g transform="translate(21.43 106.756975) scale(0.12 -0.12)">
       <use xlink:href="#TimesNewRomanPSMT-30"/>
       <use xlink:href="#TimesNewRomanPSMT-2e" x="50"/>
       <use xlink:href="#TimesNewRomanPSMT-35" x="75"/>
       <use xlink:href="#TimesNewRomanPSMT-30" x="125"/>
      </g>
     </g>
    </g>
    <g id="ytick_4">
     <g id="line2d_6">
      <g>
       <use xlink:href="#m3c00ce9a37" x="49.43" y="72.055446" style="stroke: #000000; stroke-width: 0.8"/>
      </g>
     </g>
     <g id="text_6">
      <!-- 0.75 -->
      <g transform="translate(21.43 76.221696) scale(0.12 -0.12)">
       <defs>
        <path id="TimesNewRomanPSMT-37" d="M 644 4238 
L 2916 4238 
L 2916 4119 
L 1503 -88 
L 1153 -88 
L 2419 3728 
L 1253 3728 
Q 900 3728 750 3644 
Q 488 3500 328 3200 
L 238 3234 
L 644 4238 
z
" transform="scale(0.015625)"/>
       </defs>
       <use xlink:href="#TimesNewRomanPSMT-30"/>
       <use xlink:href="#TimesNewRomanPSMT-2e" x="50"/>
       <use xlink:href="#TimesNewRomanPSMT-37" x="75"/>
       <use xlink:href="#TimesNewRomanPSMT-35" x="125"/>
      </g>
     </g>
    </g>
    <g id="ytick_5">
     <g id="line2d_7">
      <g>
       <use xlink:href="#m3c00ce9a37" x="49.43" y="41.520167" style="stroke: #000000; stroke-width: 0.8"/>
      </g>
     </g>
     <g id="text_7">
      <!-- 1.00 -->
      <g transform="translate(21.43 45.686417) scale(0.12 -0.12)">
       <defs>
        <path id="TimesNewRomanPSMT-31" d="M 750 3822 
L 1781 4325 
L 1884 4325 
L 1884 747 
Q 1884 391 1914 303 
Q 1944 216 2037 169 
Q 2131 122 2419 116 
L 2419 0 
L 825 0 
L 825 116 
Q 1125 122 1212 167 
Q 1300 213 1334 289 
Q 1369 366 1369 747 
L 1369 3034 
Q 1369 3497 1338 3628 
Q 1316 3728 1258 3775 
Q 1200 3822 1119 3822 
Q 1003 3822 797 3725 
L 750 3822 
z
" transform="scale(0.015625)"/>
       </defs>
       <use xlink:href="#TimesNewRomanPSMT-31"/>
       <use xlink:href="#TimesNewRomanPSMT-2e" x="50"/>
       <use xlink:href="#TimesNewRomanPSMT-30" x="75"/>
       <use xlink:href="#TimesNewRomanPSMT-30" x="125"/>
      </g>
     </g>
    </g>
    <g id="text_8">
     <!-- Max proximity index of OS at $t_0$ -->
     <g transform="translate(15.01 166.030141) rotate(-90) scale(0.11 -0.11)">
      <defs>
       <path id="TimesNewRomanPSMT-4d" d="M 2619 0 
L 981 3566 
L 981 734 
Q 981 344 1066 247 
Q 1181 116 1431 116 
L 1581 116 
L 1581 0 
L 106 0 
L 106 116 
L 256 116 
Q 525 116 638 278 
Q 706 378 706 734 
L 706 3503 
Q 706 3784 644 3909 
Q 600 4000 483 4061 
Q 366 4122 106 4122 
L 106 4238 
L 1306 4238 
L 2844 922 
L 4356 4238 
L 5556 4238 
L 5556 4122 
L 5409 4122 
Q 5138 4122 5025 3959 
Q 4956 3859 4956 3503 
L 4956 734 
Q 4956 344 5044 247 
Q 5159 116 5409 116 
L 5556 116 
L 5556 0 
L 3756 0 
L 3756 116 
L 3906 116 
Q 4178 116 4288 278 
Q 4356 378 4356 734 
L 4356 3566 
L 2722 0 
L 2619 0 
z
" transform="scale(0.015625)"/>
       <path id="TimesNewRomanPSMT-61" d="M 1822 413 
Q 1381 72 1269 19 
Q 1100 -59 909 -59 
Q 613 -59 420 144 
Q 228 347 228 678 
Q 228 888 322 1041 
Q 450 1253 767 1440 
Q 1084 1628 1822 1897 
L 1822 2009 
Q 1822 2438 1686 2597 
Q 1550 2756 1291 2756 
Q 1094 2756 978 2650 
Q 859 2544 859 2406 
L 866 2225 
Q 866 2081 792 2003 
Q 719 1925 600 1925 
Q 484 1925 411 2006 
Q 338 2088 338 2228 
Q 338 2497 613 2722 
Q 888 2947 1384 2947 
Q 1766 2947 2009 2819 
Q 2194 2722 2281 2516 
Q 2338 2381 2338 1966 
L 2338 994 
Q 2338 584 2353 492 
Q 2369 400 2405 369 
Q 2441 338 2488 338 
Q 2538 338 2575 359 
Q 2641 400 2828 588 
L 2828 413 
Q 2478 -56 2159 -56 
Q 2006 -56 1915 50 
Q 1825 156 1822 413 
z
M 1822 616 
L 1822 1706 
Q 1350 1519 1213 1441 
Q 966 1303 859 1153 
Q 753 1003 753 825 
Q 753 600 887 451 
Q 1022 303 1197 303 
Q 1434 303 1822 616 
z
" transform="scale(0.015625)"/>
       <path id="TimesNewRomanPSMT-78" d="M 84 2863 
L 1431 2863 
L 1431 2747 
Q 1303 2747 1251 2703 
Q 1200 2659 1200 2588 
Q 1200 2513 1309 2356 
Q 1344 2306 1413 2200 
L 1616 1875 
L 1850 2200 
Q 2075 2509 2075 2591 
Q 2075 2656 2022 2701 
Q 1969 2747 1850 2747 
L 1850 2863 
L 2819 2863 
L 2819 2747 
Q 2666 2738 2553 2663 
Q 2400 2556 2134 2200 
L 1744 1678 
L 2456 653 
Q 2719 275 2831 198 
Q 2944 122 3122 113 
L 3122 0 
L 1772 0 
L 1772 113 
Q 1913 113 1991 175 
Q 2050 219 2050 291 
Q 2050 363 1850 653 
L 1431 1266 
L 972 653 
Q 759 369 759 316 
Q 759 241 829 180 
Q 900 119 1041 113 
L 1041 0 
L 106 0 
L 106 113 
Q 219 128 303 191 
Q 422 281 703 653 
L 1303 1450 
L 759 2238 
Q 528 2575 401 2661 
Q 275 2747 84 2747 
L 84 2863 
z
" transform="scale(0.015625)"/>
       <path id="TimesNewRomanPSMT-20" transform="scale(0.015625)"/>
       <path id="TimesNewRomanPSMT-70" d="M -6 2578 
L 875 2934 
L 994 2934 
L 994 2266 
Q 1216 2644 1439 2795 
Q 1663 2947 1909 2947 
Q 2341 2947 2628 2609 
Q 2981 2197 2981 1534 
Q 2981 794 2556 309 
Q 2206 -88 1675 -88 
Q 1444 -88 1275 -22 
Q 1150 25 994 166 
L 994 -706 
Q 994 -1000 1030 -1079 
Q 1066 -1159 1155 -1206 
Q 1244 -1253 1478 -1253 
L 1478 -1369 
L -22 -1369 
L -22 -1253 
L 56 -1253 
Q 228 -1256 350 -1188 
Q 409 -1153 442 -1076 
Q 475 -1000 475 -688 
L 475 2019 
Q 475 2297 450 2372 
Q 425 2447 370 2484 
Q 316 2522 222 2522 
Q 147 2522 31 2478 
L -6 2578 
z
M 994 2081 
L 994 1013 
Q 994 666 1022 556 
Q 1066 375 1236 237 
Q 1406 100 1666 100 
Q 1978 100 2172 344 
Q 2425 663 2425 1241 
Q 2425 1897 2138 2250 
Q 1938 2494 1663 2494 
Q 1513 2494 1366 2419 
Q 1253 2363 994 2081 
z
" transform="scale(0.015625)"/>
       <path id="TimesNewRomanPSMT-72" d="M 1038 2947 
L 1038 2303 
Q 1397 2947 1775 2947 
Q 1947 2947 2059 2842 
Q 2172 2738 2172 2600 
Q 2172 2478 2090 2393 
Q 2009 2309 1897 2309 
Q 1788 2309 1652 2417 
Q 1516 2525 1450 2525 
Q 1394 2525 1328 2463 
Q 1188 2334 1038 2041 
L 1038 669 
Q 1038 431 1097 309 
Q 1138 225 1241 169 
Q 1344 113 1538 113 
L 1538 0 
L 72 0 
L 72 113 
Q 291 113 397 181 
Q 475 231 506 341 
Q 522 394 522 644 
L 522 1753 
Q 522 2253 501 2348 
Q 481 2444 426 2487 
Q 372 2531 291 2531 
Q 194 2531 72 2484 
L 41 2597 
L 906 2947 
L 1038 2947 
z
" transform="scale(0.015625)"/>
       <path id="TimesNewRomanPSMT-6f" d="M 1600 2947 
Q 2250 2947 2644 2453 
Q 2978 2031 2978 1484 
Q 2978 1100 2793 706 
Q 2609 313 2286 112 
Q 1963 -88 1566 -88 
Q 919 -88 538 428 
Q 216 863 216 1403 
Q 216 1797 411 2186 
Q 606 2575 925 2761 
Q 1244 2947 1600 2947 
z
M 1503 2744 
Q 1338 2744 1170 2645 
Q 1003 2547 900 2300 
Q 797 2053 797 1666 
Q 797 1041 1045 587 
Q 1294 134 1700 134 
Q 2003 134 2200 384 
Q 2397 634 2397 1244 
Q 2397 2006 2069 2444 
Q 1847 2744 1503 2744 
z
" transform="scale(0.015625)"/>
       <path id="TimesNewRomanPSMT-69" d="M 928 4444 
Q 1059 4444 1151 4351 
Q 1244 4259 1244 4128 
Q 1244 3997 1151 3903 
Q 1059 3809 928 3809 
Q 797 3809 703 3903 
Q 609 3997 609 4128 
Q 609 4259 701 4351 
Q 794 4444 928 4444 
z
M 1188 2947 
L 1188 647 
Q 1188 378 1227 289 
Q 1266 200 1342 156 
Q 1419 113 1622 113 
L 1622 0 
L 231 0 
L 231 113 
Q 441 113 512 153 
Q 584 194 626 287 
Q 669 381 669 647 
L 669 1750 
Q 669 2216 641 2353 
Q 619 2453 572 2492 
Q 525 2531 444 2531 
Q 356 2531 231 2484 
L 188 2597 
L 1050 2947 
L 1188 2947 
z
" transform="scale(0.015625)"/>
       <path id="TimesNewRomanPSMT-6d" d="M 1050 2338 
Q 1363 2650 1419 2697 
Q 1559 2816 1721 2881 
Q 1884 2947 2044 2947 
Q 2313 2947 2506 2790 
Q 2700 2634 2766 2338 
Q 3088 2713 3309 2830 
Q 3531 2947 3766 2947 
Q 3994 2947 4170 2830 
Q 4347 2713 4450 2447 
Q 4519 2266 4519 1878 
L 4519 647 
Q 4519 378 4559 278 
Q 4591 209 4675 161 
Q 4759 113 4950 113 
L 4950 0 
L 3538 0 
L 3538 113 
L 3597 113 
Q 3781 113 3884 184 
Q 3956 234 3988 344 
Q 4000 397 4000 647 
L 4000 1878 
Q 4000 2228 3916 2372 
Q 3794 2572 3525 2572 
Q 3359 2572 3192 2489 
Q 3025 2406 2788 2181 
L 2781 2147 
L 2788 2013 
L 2788 647 
Q 2788 353 2820 281 
Q 2853 209 2943 161 
Q 3034 113 3253 113 
L 3253 0 
L 1806 0 
L 1806 113 
Q 2044 113 2133 169 
Q 2222 225 2256 338 
Q 2272 391 2272 647 
L 2272 1878 
Q 2272 2228 2169 2381 
Q 2031 2581 1784 2581 
Q 1616 2581 1450 2491 
Q 1191 2353 1050 2181 
L 1050 647 
Q 1050 366 1089 281 
Q 1128 197 1204 155 
Q 1281 113 1516 113 
L 1516 0 
L 100 0 
L 100 113 
Q 297 113 375 155 
Q 453 197 493 289 
Q 534 381 534 647 
L 534 1741 
Q 534 2213 506 2350 
Q 484 2453 437 2492 
Q 391 2531 309 2531 
Q 222 2531 100 2484 
L 53 2597 
L 916 2947 
L 1050 2947 
L 1050 2338 
z
" transform="scale(0.015625)"/>
       <path id="TimesNewRomanPSMT-74" d="M 1031 3803 
L 1031 2863 
L 1700 2863 
L 1700 2644 
L 1031 2644 
L 1031 788 
Q 1031 509 1111 412 
Q 1191 316 1316 316 
Q 1419 316 1516 380 
Q 1613 444 1666 569 
L 1788 569 
Q 1678 263 1478 108 
Q 1278 -47 1066 -47 
Q 922 -47 784 33 
Q 647 113 581 261 
Q 516 409 516 719 
L 516 2644 
L 63 2644 
L 63 2747 
Q 234 2816 414 2980 
Q 594 3144 734 3369 
Q 806 3488 934 3803 
L 1031 3803 
z
" transform="scale(0.015625)"/>
       <path id="TimesNewRomanPSMT-79" d="M 38 2863 
L 1372 2863 
L 1372 2747 
L 1306 2747 
Q 1166 2747 1095 2686 
Q 1025 2625 1025 2534 
Q 1025 2413 1128 2197 
L 1825 753 
L 2466 2334 
Q 2519 2463 2519 2588 
Q 2519 2644 2497 2672 
Q 2472 2706 2419 2726 
Q 2366 2747 2231 2747 
L 2231 2863 
L 3163 2863 
L 3163 2747 
Q 3047 2734 2984 2696 
Q 2922 2659 2847 2556 
Q 2819 2513 2741 2316 
L 1575 -541 
Q 1406 -956 1132 -1168 
Q 859 -1381 606 -1381 
Q 422 -1381 303 -1275 
Q 184 -1169 184 -1031 
Q 184 -900 270 -820 
Q 356 -741 506 -741 
Q 609 -741 788 -809 
Q 913 -856 944 -856 
Q 1038 -856 1148 -759 
Q 1259 -663 1372 -384 
L 1575 113 
L 547 2272 
Q 500 2369 397 2513 
Q 319 2622 269 2659 
Q 197 2709 38 2747 
L 38 2863 
z
" transform="scale(0.015625)"/>
       <path id="TimesNewRomanPSMT-6e" d="M 1034 2341 
Q 1538 2947 1994 2947 
Q 2228 2947 2397 2830 
Q 2566 2713 2666 2444 
Q 2734 2256 2734 1869 
L 2734 647 
Q 2734 375 2778 278 
Q 2813 200 2889 156 
Q 2966 113 3172 113 
L 3172 0 
L 1756 0 
L 1756 113 
L 1816 113 
Q 2016 113 2095 173 
Q 2175 234 2206 353 
Q 2219 400 2219 647 
L 2219 1819 
Q 2219 2209 2117 2386 
Q 2016 2563 1775 2563 
Q 1403 2563 1034 2156 
L 1034 647 
Q 1034 356 1069 288 
Q 1113 197 1189 155 
Q 1266 113 1500 113 
L 1500 0 
L 84 0 
L 84 113 
L 147 113 
Q 366 113 442 223 
Q 519 334 519 647 
L 519 1709 
Q 519 2225 495 2337 
Q 472 2450 423 2490 
Q 375 2531 294 2531 
Q 206 2531 84 2484 
L 38 2597 
L 900 2947 
L 1034 2947 
L 1034 2341 
z
" transform="scale(0.015625)"/>
       <path id="TimesNewRomanPSMT-64" d="M 2222 322 
Q 2013 103 1813 7 
Q 1613 -88 1381 -88 
Q 913 -88 563 304 
Q 213 697 213 1313 
Q 213 1928 600 2439 
Q 988 2950 1597 2950 
Q 1975 2950 2222 2709 
L 2222 3238 
Q 2222 3728 2198 3840 
Q 2175 3953 2125 3993 
Q 2075 4034 2000 4034 
Q 1919 4034 1784 3984 
L 1744 4094 
L 2597 4444 
L 2738 4444 
L 2738 1134 
Q 2738 631 2761 520 
Q 2784 409 2836 365 
Q 2888 322 2956 322 
Q 3041 322 3181 375 
L 3216 266 
L 2366 -88 
L 2222 -88 
L 2222 322 
z
M 2222 541 
L 2222 2016 
Q 2203 2228 2109 2403 
Q 2016 2578 1861 2667 
Q 1706 2756 1559 2756 
Q 1284 2756 1069 2509 
Q 784 2184 784 1559 
Q 784 928 1059 592 
Q 1334 256 1672 256 
Q 1956 256 2222 541 
z
" transform="scale(0.015625)"/>
       <path id="TimesNewRomanPSMT-65" d="M 681 1784 
Q 678 1147 991 784 
Q 1303 422 1725 422 
Q 2006 422 2214 576 
Q 2422 731 2563 1106 
L 2659 1044 
Q 2594 616 2278 264 
Q 1963 -88 1488 -88 
Q 972 -88 605 314 
Q 238 716 238 1394 
Q 238 2128 614 2539 
Q 991 2950 1559 2950 
Q 2041 2950 2350 2633 
Q 2659 2316 2659 1784 
L 681 1784 
z
M 681 1966 
L 2006 1966 
Q 1991 2241 1941 2353 
Q 1863 2528 1708 2628 
Q 1553 2728 1384 2728 
Q 1125 2728 920 2526 
Q 716 2325 681 1966 
z
" transform="scale(0.015625)"/>
       <path id="TimesNewRomanPSMT-66" d="M 1319 2638 
L 1319 756 
Q 1319 356 1406 250 
Q 1522 113 1716 113 
L 1975 113 
L 1975 0 
L 266 0 
L 266 113 
L 394 113 
Q 519 113 622 175 
Q 725 238 764 344 
Q 803 450 803 756 
L 803 2638 
L 247 2638 
L 247 2863 
L 803 2863 
L 803 3050 
Q 803 3478 940 3775 
Q 1078 4072 1361 4255 
Q 1644 4438 1997 4438 
Q 2325 4438 2600 4225 
Q 2781 4084 2781 3909 
Q 2781 3816 2700 3733 
Q 2619 3650 2525 3650 
Q 2453 3650 2373 3701 
Q 2294 3753 2178 3923 
Q 2063 4094 1966 4153 
Q 1869 4213 1750 4213 
Q 1606 4213 1506 4136 
Q 1406 4059 1362 3898 
Q 1319 3738 1319 3069 
L 1319 2863 
L 2056 2863 
L 2056 2638 
L 1319 2638 
z
" transform="scale(0.015625)"/>
       <path id="TimesNewRomanPSMT-4f" d="M 2341 4334 
Q 3166 4334 3770 3707 
Q 4375 3081 4375 2144 
Q 4375 1178 3765 540 
Q 3156 -97 2291 -97 
Q 1416 -97 820 525 
Q 225 1147 225 2134 
Q 225 3144 913 3781 
Q 1509 4334 2341 4334 
z
M 2281 4106 
Q 1713 4106 1369 3684 
Q 941 3159 941 2147 
Q 941 1109 1384 550 
Q 1725 125 2284 125 
Q 2881 125 3270 590 
Q 3659 1056 3659 2059 
Q 3659 3147 3231 3681 
Q 2888 4106 2281 4106 
z
" transform="scale(0.015625)"/>
       <path id="TimesNewRomanPSMT-53" d="M 2934 4334 
L 2934 2869 
L 2819 2869 
Q 2763 3291 2617 3541 
Q 2472 3791 2203 3937 
Q 1934 4084 1647 4084 
Q 1322 4084 1109 3886 
Q 897 3688 897 3434 
Q 897 3241 1031 3081 
Q 1225 2847 1953 2456 
Q 2547 2138 2764 1967 
Q 2981 1797 3098 1565 
Q 3216 1334 3216 1081 
Q 3216 600 2842 251 
Q 2469 -97 1881 -97 
Q 1697 -97 1534 -69 
Q 1438 -53 1133 45 
Q 828 144 747 144 
Q 669 144 623 97 
Q 578 50 556 -97 
L 441 -97 
L 441 1356 
L 556 1356 
Q 638 900 775 673 
Q 913 447 1195 297 
Q 1478 147 1816 147 
Q 2206 147 2432 353 
Q 2659 559 2659 841 
Q 2659 997 2573 1156 
Q 2488 1316 2306 1453 
Q 2184 1547 1640 1851 
Q 1097 2156 867 2337 
Q 638 2519 519 2737 
Q 400 2956 400 3219 
Q 400 3675 750 4004 
Q 1100 4334 1641 4334 
Q 1978 4334 2356 4169 
Q 2531 4091 2603 4091 
Q 2684 4091 2736 4139 
Q 2788 4188 2819 4334 
L 2934 4334 
z
" transform="scale(0.015625)"/>
       <path id="DejaVuSans-Oblique-74" d="M 2706 3500 
L 2619 3053 
L 1472 3053 
L 1100 1153 
Q 1081 1047 1072 975 
Q 1063 903 1063 863 
Q 1063 663 1183 572 
Q 1303 481 1569 481 
L 2150 481 
L 2053 0 
L 1503 0 
Q 991 0 739 200 
Q 488 400 488 806 
Q 488 878 497 964 
Q 506 1050 525 1153 
L 897 3053 
L 409 3053 
L 500 3500 
L 978 3500 
L 1172 4494 
L 1747 4494 
L 1556 3500 
L 2706 3500 
z
" transform="scale(0.015625)"/>
       <path id="DejaVuSans-30" d="M 2034 4250 
Q 1547 4250 1301 3770 
Q 1056 3291 1056 2328 
Q 1056 1369 1301 889 
Q 1547 409 2034 409 
Q 2525 409 2770 889 
Q 3016 1369 3016 2328 
Q 3016 3291 2770 3770 
Q 2525 4250 2034 4250 
z
M 2034 4750 
Q 2819 4750 3233 4129 
Q 3647 3509 3647 2328 
Q 3647 1150 3233 529 
Q 2819 -91 2034 -91 
Q 1250 -91 836 529 
Q 422 1150 422 2328 
Q 422 3509 836 4129 
Q 1250 4750 2034 4750 
z
" transform="scale(0.015625)"/>
      </defs>
      <use xlink:href="#TimesNewRomanPSMT-4d" transform="translate(0 0.78125)"/>
      <use xlink:href="#TimesNewRomanPSMT-61" transform="translate(88.916016 0.78125)"/>
      <use xlink:href="#TimesNewRomanPSMT-78" transform="translate(133.300781 0.78125)"/>
      <use xlink:href="#TimesNewRomanPSMT-20" transform="translate(183.300781 0.78125)"/>
      <use xlink:href="#TimesNewRomanPSMT-70" transform="translate(208.300781 0.78125)"/>
      <use xlink:href="#TimesNewRomanPSMT-72" transform="translate(258.300781 0.78125)"/>
      <use xlink:href="#TimesNewRomanPSMT-6f" transform="translate(291.601562 0.78125)"/>
      <use xlink:href="#TimesNewRomanPSMT-78" transform="translate(341.601562 0.78125)"/>
      <use xlink:href="#TimesNewRomanPSMT-69" transform="translate(391.601562 0.78125)"/>
      <use xlink:href="#TimesNewRomanPSMT-6d" transform="translate(419.384766 0.78125)"/>
      <use xlink:href="#TimesNewRomanPSMT-69" transform="translate(497.167969 0.78125)"/>
      <use xlink:href="#TimesNewRomanPSMT-74" transform="translate(524.951172 0.78125)"/>
      <use xlink:href="#TimesNewRomanPSMT-79" transform="translate(552.734375 0.78125)"/>
      <use xlink:href="#TimesNewRomanPSMT-20" transform="translate(602.734375 0.78125)"/>
      <use xlink:href="#TimesNewRomanPSMT-69" transform="translate(627.734375 0.78125)"/>
      <use xlink:href="#TimesNewRomanPSMT-6e" transform="translate(655.517578 0.78125)"/>
      <use xlink:href="#TimesNewRomanPSMT-64" transform="translate(705.517578 0.78125)"/>
      <use xlink:href="#TimesNewRomanPSMT-65" transform="translate(755.517578 0.78125)"/>
      <use xlink:href="#TimesNewRomanPSMT-78" transform="translate(799.902344 0.78125)"/>
      <use xlink:href="#TimesNewRomanPSMT-20" transform="translate(849.902344 0.78125)"/>
      <use xlink:href="#TimesNewRomanPSMT-6f" transform="translate(874.902344 0.78125)"/>
      <use xlink:href="#TimesNewRomanPSMT-66" transform="translate(924.902344 0.78125)"/>
      <use xlink:href="#TimesNewRomanPSMT-20" transform="translate(958.203125 0.78125)"/>
      <use xlink:href="#TimesNewRomanPSMT-4f" transform="translate(983.203125 0.78125)"/>
      <use xlink:href="#TimesNewRomanPSMT-53" transform="translate(1055.419922 0.78125)"/>
      <use xlink:href="#TimesNewRomanPSMT-20" transform="translate(1111.035156 0.78125)"/>
      <use xlink:href="#TimesNewRomanPSMT-61" transform="translate(1136.035156 0.78125)"/>
      <use xlink:href="#TimesNewRomanPSMT-74" transform="translate(1180.419922 0.78125)"/>
      <use xlink:href="#TimesNewRomanPSMT-20" transform="translate(1208.203125 0.78125)"/>
      <use xlink:href="#DejaVuSans-Oblique-74" transform="translate(1233.203125 0.78125)"/>
      <use xlink:href="#DejaVuSans-30" transform="translate(1272.412109 -15.625) scale(0.7)"/>
     </g>
    </g>
   </g>
   <g id="LineCollection_1">
    <path d="M 58.52861 127.211972 
L 70.776738 127.211972 
" clip-path="url(#pac0c848e1b)" style="fill: none; stroke: #000000; stroke-width: 2"/>
    <path d="M 93.523262 125.787323 
L 105.77139 125.787323 
" clip-path="url(#pac0c848e1b)" style="fill: none; stroke: #000000; stroke-width: 2"/>
   </g>
   <g id="LineCollection_2">
    <path d="M 58.52861 69.453465 
L 70.776738 69.453465 
" clip-path="url(#pac0c848e1b)" style="fill: none; stroke: #1f77b4; stroke-width: 1.5"/>
    <path d="M 93.523262 63.739964 
L 105.77139 63.739964 
" clip-path="url(#pac0c848e1b)" style="fill: none; stroke: #1f77b4; stroke-width: 1.5"/>
   </g>
   <g id="LineCollection_3">
    <path d="M 58.52861 163.661283 
L 70.776738 163.661283 
" clip-path="url(#pac0c848e1b)" style="fill: none; stroke: #1f77b4; stroke-width: 1.5"/>
    <path d="M 93.523262 163.661283 
L 105.77139 163.661283 
" clip-path="url(#pac0c848e1b)" style="fill: none; stroke: #1f77b4; stroke-width: 1.5"/>
   </g>
   <g id="LineCollection_4">
    <path d="M 64.652674 163.661283 
L 64.652674 69.453465 
" clip-path="url(#pac0c848e1b)" style="fill: none; stroke: #1f77b4; stroke-width: 1.5"/>
    <path d="M 99.647326 163.661283 
L 99.647326 63.739964 
" clip-path="url(#pac0c848e1b)" style="fill: none; stroke: #1f77b4; stroke-width: 1.5"/>
   </g>
   <g id="LineCollection_5">
    <path d="M 58.52861 122.745459 
L 70.776738 122.745459 
" clip-path="url(#pac0c848e1b)" style="fill: none; stroke-dasharray: 2,3.3; stroke-dashoffset: 0; stroke: #808080; stroke-width: 2"/>
    <path d="M 93.523262 122.209342 
L 105.77139 122.209342 
" clip-path="url(#pac0c848e1b)" style="fill: none; stroke-dasharray: 2,3.3; stroke-dashoffset: 0; stroke: #808080; stroke-width: 2"/>
   </g>
   <g id="patch_3">
    <path d="M 49.43 163.661283 
L 49.43 23.199 
" style="fill: none; stroke: #000000; stroke-width: 0.8; stroke-linejoin: miter; stroke-linecap: square"/>
   </g>
   <g id="patch_4">
    <path d="M 114.87 163.661283 
L 114.87 23.199 
" style="fill: none; stroke: #000000; stroke-width: 0.8; stroke-linejoin: miter; stroke-linecap: square"/>
   </g>
   <g id="patch_5">
    <path d="M 49.43 163.661283 
L 114.87 163.661283 
" style="fill: none; stroke: #000000; stroke-width: 0.8; stroke-linejoin: miter; stroke-linecap: square"/>
   </g>
   <g id="patch_6">
    <path d="M 49.43 23.199 
L 114.87 23.199 
" style="fill: none; stroke: #000000; stroke-width: 0.8; stroke-linejoin: miter; stroke-linecap: square"/>
   </g>
   <g id="text_9">
    <!-- 278 -->
    <g transform="translate(57.152674 37.815455) scale(0.1 -0.1)">
     <defs>
      <path id="TimesNewRomanPSMT-38" d="M 1228 2134 
Q 725 2547 579 2797 
Q 434 3047 434 3316 
Q 434 3728 753 4026 
Q 1072 4325 1600 4325 
Q 2113 4325 2425 4047 
Q 2738 3769 2738 3413 
Q 2738 3175 2569 2928 
Q 2400 2681 1866 2347 
Q 2416 1922 2594 1678 
Q 2831 1359 2831 1006 
Q 2831 559 2490 242 
Q 2150 -75 1597 -75 
Q 994 -75 656 303 
Q 388 606 388 966 
Q 388 1247 577 1523 
Q 766 1800 1228 2134 
z
M 1719 2469 
Q 2094 2806 2194 3001 
Q 2294 3197 2294 3444 
Q 2294 3772 2109 3958 
Q 1925 4144 1606 4144 
Q 1288 4144 1088 3959 
Q 888 3775 888 3528 
Q 888 3366 970 3203 
Q 1053 3041 1206 2894 
L 1719 2469 
z
M 1375 2016 
Q 1116 1797 991 1539 
Q 866 1281 866 981 
Q 866 578 1086 336 
Q 1306 94 1647 94 
Q 1984 94 2187 284 
Q 2391 475 2391 747 
Q 2391 972 2272 1150 
Q 2050 1481 1375 2016 
z
" transform="scale(0.015625)"/>
     </defs>
     <use xlink:href="#TimesNewRomanPSMT-32"/>
     <use xlink:href="#TimesNewRomanPSMT-37" x="50"/>
     <use xlink:href="#TimesNewRomanPSMT-38" x="100"/>
    </g>
   </g>
   <g id="text_10">
    <!-- 291 -->
    <g transform="translate(92.147326 37.815455) scale(0.1 -0.1)">
     <defs>
      <path id="TimesNewRomanPSMT-39" d="M 338 -88 
L 338 28 
Q 744 34 1094 217 
Q 1444 400 1770 856 
Q 2097 1313 2225 1859 
Q 1734 1544 1338 1544 
Q 891 1544 572 1889 
Q 253 2234 253 2806 
Q 253 3363 572 3797 
Q 956 4325 1575 4325 
Q 2097 4325 2469 3894 
Q 2925 3359 2925 2575 
Q 2925 1869 2578 1258 
Q 2231 647 1613 244 
Q 1109 -88 516 -88 
L 338 -88 
z
M 2275 2091 
Q 2331 2497 2331 2741 
Q 2331 3044 2228 3395 
Q 2125 3747 1936 3934 
Q 1747 4122 1506 4122 
Q 1228 4122 1018 3872 
Q 809 3622 809 3128 
Q 809 2469 1088 2097 
Q 1291 1828 1588 1828 
Q 1731 1828 1928 1897 
Q 2125 1966 2275 2091 
z
" transform="scale(0.015625)"/>
     </defs>
     <use xlink:href="#TimesNewRomanPSMT-32"/>
     <use xlink:href="#TimesNewRomanPSMT-39" x="50"/>
     <use xlink:href="#TimesNewRomanPSMT-31" x="100"/>
    </g>
   </g>
   <g id="text_11">
    <!-- 3 Vessels -->
    <g transform="translate(55.677625 17.199) scale(0.144 -0.144)">
     <defs>
      <path id="TimesNewRomanPSMT-33" d="M 325 3431 
Q 506 3859 782 4092 
Q 1059 4325 1472 4325 
Q 1981 4325 2253 3994 
Q 2459 3747 2459 3466 
Q 2459 3003 1878 2509 
Q 2269 2356 2469 2072 
Q 2669 1788 2669 1403 
Q 2669 853 2319 450 
Q 1863 -75 997 -75 
Q 569 -75 414 31 
Q 259 138 259 259 
Q 259 350 332 419 
Q 406 488 509 488 
Q 588 488 669 463 
Q 722 447 909 348 
Q 1097 250 1169 231 
Q 1284 197 1416 197 
Q 1734 197 1970 444 
Q 2206 691 2206 1028 
Q 2206 1275 2097 1509 
Q 2016 1684 1919 1775 
Q 1784 1900 1550 2001 
Q 1316 2103 1072 2103 
L 972 2103 
L 972 2197 
Q 1219 2228 1467 2375 
Q 1716 2522 1828 2728 
Q 1941 2934 1941 3181 
Q 1941 3503 1739 3701 
Q 1538 3900 1238 3900 
Q 753 3900 428 3381 
L 325 3431 
z
" transform="scale(0.015625)"/>
      <path id="TimesNewRomanPSMT-56" d="M 4544 4238 
L 4544 4122 
Q 4319 4081 4203 3978 
Q 4038 3825 3909 3509 
L 2431 -97 
L 2316 -97 
L 728 3556 
Q 606 3838 556 3900 
Q 478 3997 364 4051 
Q 250 4106 56 4122 
L 56 4238 
L 1788 4238 
L 1788 4122 
Q 1494 4094 1406 4022 
Q 1319 3950 1319 3838 
Q 1319 3681 1463 3350 
L 2541 866 
L 3541 3319 
Q 3688 3681 3688 3822 
Q 3688 3913 3597 3995 
Q 3506 4078 3291 4113 
Q 3275 4116 3238 4122 
L 3238 4238 
L 4544 4238 
z
" transform="scale(0.015625)"/>
      <path id="TimesNewRomanPSMT-73" d="M 2050 2947 
L 2050 1972 
L 1947 1972 
Q 1828 2431 1642 2597 
Q 1456 2763 1169 2763 
Q 950 2763 815 2647 
Q 681 2531 681 2391 
Q 681 2216 781 2091 
Q 878 1963 1175 1819 
L 1631 1597 
Q 2266 1288 2266 781 
Q 2266 391 1970 151 
Q 1675 -88 1309 -88 
Q 1047 -88 709 6 
Q 606 38 541 38 
Q 469 38 428 -44 
L 325 -44 
L 325 978 
L 428 978 
Q 516 541 762 319 
Q 1009 97 1316 97 
Q 1531 97 1667 223 
Q 1803 350 1803 528 
Q 1803 744 1651 891 
Q 1500 1038 1047 1263 
Q 594 1488 453 1669 
Q 313 1847 313 2119 
Q 313 2472 555 2709 
Q 797 2947 1181 2947 
Q 1350 2947 1591 2875 
Q 1750 2828 1803 2828 
Q 1853 2828 1881 2850 
Q 1909 2872 1947 2947 
L 2050 2947 
z
" transform="scale(0.015625)"/>
      <path id="TimesNewRomanPSMT-6c" d="M 1184 4444 
L 1184 647 
Q 1184 378 1223 290 
Q 1263 203 1344 158 
Q 1425 113 1647 113 
L 1647 0 
L 244 0 
L 244 113 
Q 441 113 512 153 
Q 584 194 625 287 
Q 666 381 666 647 
L 666 3247 
Q 666 3731 644 3842 
Q 622 3953 573 3993 
Q 525 4034 450 4034 
Q 369 4034 244 3984 
L 191 4094 
L 1044 4444 
L 1184 4444 
z
" transform="scale(0.015625)"/>
     </defs>
     <use xlink:href="#TimesNewRomanPSMT-33"/>
     <use xlink:href="#TimesNewRomanPSMT-20" x="50"/>
     <use xlink:href="#TimesNewRomanPSMT-56" x="73.25"/>
     <use xlink:href="#TimesNewRomanPSMT-65" x="134.341797"/>
     <use xlink:href="#TimesNewRomanPSMT-73" x="178.726562"/>
     <use xlink:href="#TimesNewRomanPSMT-73" x="217.642578"/>
     <use xlink:href="#TimesNewRomanPSMT-65" x="256.558594"/>
     <use xlink:href="#TimesNewRomanPSMT-6c" x="300.943359"/>
     <use xlink:href="#TimesNewRomanPSMT-73" x="328.726562"/>
    </g>
   </g>
  </g>
  <g id="axes_2">
   <g id="patch_7">
    <path d="M 149.77 163.661283 
L 215.21 163.661283 
L 215.21 23.199 
L 149.77 23.199 
z
" style="fill: #ffffff"/>
   </g>
   <g id="PolyCollection_3">
    <path d="M 172.442315 163.661283 
L 157.543032 163.661283 
L 157.503896 162.679108 
L 157.534111 161.696933 
L 157.629434 160.714759 
L 157.783316 159.732584 
L 157.987255 158.75041 
L 158.231262 157.768235 
L 158.504386 156.786061 
L 158.795267 155.803886 
L 159.092678 154.821711 
L 159.386022 153.839537 
L 159.665753 152.857362 
L 159.923701 151.875188 
L 160.153292 150.893013 
L 160.349653 149.910839 
L 160.509621 148.928664 
L 160.631653 147.946489 
L 160.715665 146.964315 
L 160.762818 145.98214 
L 160.775268 144.999966 
L 160.755909 144.017791 
L 160.708108 143.035617 
L 160.635465 142.053442 
L 160.541603 141.071268 
L 160.429981 140.089093 
L 160.303754 139.106918 
L 160.16567 138.124744 
L 160.017996 137.142569 
L 159.86249 136.160395 
L 159.700402 135.17822 
L 159.532496 134.196046 
L 159.359111 133.213871 
L 159.180224 132.231696 
L 158.995546 131.249522 
L 158.804609 130.267347 
L 158.606875 129.285173 
L 158.401825 128.302998 
L 158.189049 127.320824 
L 157.96832 126.338649 
L 157.739648 125.356474 
L 157.503311 124.3743 
L 157.259866 123.392125 
L 157.010133 122.409951 
L 156.75517 121.427776 
L 156.496221 120.445602 
L 156.234666 119.463427 
L 155.971964 118.481253 
L 155.709603 117.499078 
L 155.44906 116.516903 
L 155.19178 115.534729 
L 154.939162 114.552554 
L 154.692572 113.57038 
L 154.453364 112.588205 
L 154.222909 111.606031 
L 154.002635 110.623856 
L 153.794059 109.641681 
L 153.598811 108.659507 
L 153.418648 107.677332 
L 153.255448 106.695158 
L 153.111193 105.712983 
L 152.987924 104.730809 
L 152.887694 103.748634 
L 152.812502 102.766459 
L 152.764224 101.784285 
L 152.744545 100.80211 
L 152.754898 99.819936 
L 152.796406 98.837761 
L 152.869842 97.855587 
L 152.975602 96.873412 
L 153.113694 95.891238 
L 153.283732 94.909063 
L 153.484956 93.926888 
L 153.716251 92.944714 
L 153.976174 91.962539 
L 154.262994 90.980365 
L 154.574725 89.99819 
L 154.909164 89.016016 
L 155.263937 88.033841 
L 155.63653 87.051666 
L 156.024331 86.069492 
L 156.424666 85.087317 
L 156.834833 84.105143 
L 157.252136 83.122968 
L 157.673914 82.140794 
L 158.097568 81.158619 
L 158.520585 80.176444 
L 158.94056 79.19427 
L 159.355211 78.212095 
L 159.762393 77.229921 
L 160.16011 76.247746 
L 160.546525 75.265572 
L 160.919969 74.283397 
L 161.278946 73.301222 
L 161.622142 72.319048 
L 161.948435 71.336873 
L 162.256898 70.354699 
L 162.546809 69.372524 
L 162.817654 68.39035 
L 163.069131 67.408175 
L 163.301149 66.426001 
L 166.684199 66.426001 
L 166.684199 66.426001 
L 166.916216 67.408175 
L 167.167693 68.39035 
L 167.438538 69.372524 
L 167.728449 70.354699 
L 168.036913 71.336873 
L 168.363206 72.319048 
L 168.706402 73.301222 
L 169.065379 74.283397 
L 169.438822 75.265572 
L 169.825238 76.247746 
L 170.222955 77.229921 
L 170.630137 78.212095 
L 171.044787 79.19427 
L 171.464762 80.176444 
L 171.88778 81.158619 
L 172.311434 82.140794 
L 172.733211 83.122968 
L 173.150515 84.105143 
L 173.560682 85.087317 
L 173.961017 86.069492 
L 174.348818 87.051666 
L 174.721411 88.033841 
L 175.076183 89.016016 
L 175.410623 89.99819 
L 175.722353 90.980365 
L 176.009173 91.962539 
L 176.269097 92.944714 
L 176.500391 93.926888 
L 176.701616 94.909063 
L 176.871654 95.891238 
L 177.009745 96.873412 
L 177.115506 97.855587 
L 177.188942 98.837761 
L 177.230449 99.819936 
L 177.240802 100.80211 
L 177.221124 101.784285 
L 177.172846 102.766459 
L 177.097653 103.748634 
L 176.997424 104.730809 
L 176.874155 105.712983 
L 176.729899 106.695158 
L 176.5667 107.677332 
L 176.386536 108.659507 
L 176.191288 109.641681 
L 175.982713 110.623856 
L 175.762439 111.606031 
L 175.531984 112.588205 
L 175.292775 113.57038 
L 175.046185 114.552554 
L 174.793568 115.534729 
L 174.536287 116.516903 
L 174.275745 117.499078 
L 174.013384 118.481253 
L 173.750681 119.463427 
L 173.489126 120.445602 
L 173.230178 121.427776 
L 172.975215 122.409951 
L 172.725482 123.392125 
L 172.482036 124.3743 
L 172.245699 125.356474 
L 172.017027 126.338649 
L 171.796299 127.320824 
L 171.583523 128.302998 
L 171.378472 129.285173 
L 171.180738 130.267347 
L 170.989802 131.249522 
L 170.805123 132.231696 
L 170.626237 133.213871 
L 170.452851 134.196046 
L 170.284946 135.17822 
L 170.122858 136.160395 
L 169.967352 137.142569 
L 169.819678 138.124744 
L 169.681593 139.106918 
L 169.555367 140.089093 
L 169.443745 141.071268 
L 169.349883 142.053442 
L 169.27724 143.035617 
L 169.229438 144.017791 
L 169.210079 144.999966 
L 169.22253 145.98214 
L 169.269683 146.964315 
L 169.353694 147.946489 
L 169.475726 148.928664 
L 169.635694 149.910839 
L 169.832056 150.893013 
L 170.061646 151.875188 
L 170.319594 152.857362 
L 170.599325 153.839537 
L 170.892669 154.821711 
L 171.19008 155.803886 
L 171.480961 156.786061 
L 171.754085 157.768235 
L 171.998092 158.75041 
L 172.202031 159.732584 
L 172.355913 160.714759 
L 172.451237 161.696933 
L 172.481451 162.679108 
L 172.442315 163.661283 
z
" clip-path="url(#pf5def9a875)" style="fill: #0080ff; fill-opacity: 0.3"/>
   </g>
   <g id="PolyCollection_4">
    <path d="M 207.167348 163.661283 
L 192.807305 163.661283 
L 192.770168 162.678619 
L 192.805844 161.695956 
L 192.909443 160.713293 
L 193.073468 159.73063 
L 193.28827 158.747967 
L 193.542622 157.765303 
L 193.824364 156.78264 
L 194.121065 155.799977 
L 194.420651 154.817314 
L 194.711966 153.834651 
L 194.985217 152.851988 
L 195.232292 151.869324 
L 195.446936 150.886661 
L 195.6248 149.903998 
L 195.763362 148.921335 
L 195.861755 147.938672 
L 195.920529 146.956009 
L 195.941371 145.973345 
L 195.926812 144.990682 
L 195.879945 144.008019 
L 195.80418 143.025356 
L 195.703027 142.042693 
L 195.579939 141.06003 
L 195.43819 140.077366 
L 195.280803 139.094703 
L 195.110507 138.11204 
L 194.929722 137.129377 
L 194.740559 136.146714 
L 194.544823 135.16405 
L 194.344028 134.181387 
L 194.139395 133.198724 
L 193.931859 132.216061 
L 193.722063 131.233398 
L 193.510361 130.250735 
L 193.296816 129.268071 
L 193.081214 128.285408 
L 192.863091 127.302745 
L 192.641771 126.320082 
L 192.416431 125.337419 
L 192.186178 124.354756 
L 191.950146 123.372092 
L 191.707598 122.389429 
L 191.458035 121.406766 
L 191.201306 120.424103 
L 190.937691 119.44144 
L 190.667984 118.458777 
L 190.393529 117.476113 
L 190.116241 116.49345 
L 189.838583 115.510787 
L 189.563515 114.528124 
L 189.294417 113.545461 
L 189.034978 112.562797 
L 188.789077 111.580134 
L 188.560653 110.597471 
L 188.353576 109.614808 
L 188.17152 108.632145 
L 188.017854 107.649482 
L 187.895552 106.666818 
L 187.807115 105.684155 
L 187.754523 104.701492 
L 187.739198 103.718829 
L 187.761989 102.736166 
L 187.823171 101.753503 
L 187.922451 100.770839 
L 188.058994 99.788176 
L 188.231449 98.805513 
L 188.437991 97.82285 
L 188.676366 96.840187 
L 188.943953 95.857524 
L 189.237833 94.87486 
L 189.554863 93.892197 
L 189.891765 92.909534 
L 190.24521 91.926871 
L 190.611911 90.944208 
L 190.988702 89.961544 
L 191.37261 88.978881 
L 191.760912 87.996218 
L 192.151171 87.013555 
L 192.541249 86.030892 
L 192.929306 85.048229 
L 193.313776 84.065565 
L 193.693326 83.082902 
L 194.066815 82.100239 
L 194.433243 81.117576 
L 194.791706 80.134913 
L 195.141361 79.15225 
L 195.481394 78.169586 
L 195.811015 77.186923 
L 196.129453 76.20426 
L 196.435966 75.221597 
L 196.72986 74.238934 
L 197.010511 73.256271 
L 197.277389 72.273607 
L 197.530073 71.290944 
L 197.768268 70.308281 
L 197.991807 69.325618 
L 198.200659 68.342955 
L 198.394912 67.360292 
L 198.574768 66.377628 
L 201.399884 66.377628 
L 201.399884 66.377628 
L 201.579741 67.360292 
L 201.773994 68.342955 
L 201.982845 69.325618 
L 202.206385 70.308281 
L 202.444579 71.290944 
L 202.697263 72.273607 
L 202.964141 73.256271 
L 203.244793 74.238934 
L 203.538687 75.221597 
L 203.845199 76.20426 
L 204.163637 77.186923 
L 204.493258 78.169586 
L 204.833292 79.15225 
L 205.182946 80.134913 
L 205.541409 81.117576 
L 205.907838 82.100239 
L 206.281327 83.082902 
L 206.660877 84.065565 
L 207.045346 85.048229 
L 207.433404 86.030892 
L 207.823482 87.013555 
L 208.21374 87.996218 
L 208.602042 88.978881 
L 208.98595 89.961544 
L 209.362741 90.944208 
L 209.729442 91.926871 
L 210.082887 92.909534 
L 210.419789 93.892197 
L 210.736819 94.87486 
L 211.030699 95.857524 
L 211.298287 96.840187 
L 211.536662 97.82285 
L 211.743203 98.805513 
L 211.915658 99.788176 
L 212.052201 100.770839 
L 212.151482 101.753503 
L 212.212663 102.736166 
L 212.235455 103.718829 
L 212.22013 104.701492 
L 212.167538 105.684155 
L 212.079101 106.666818 
L 211.956798 107.649482 
L 211.803133 108.632145 
L 211.621076 109.614808 
L 211.413999 110.597471 
L 211.185576 111.580134 
L 210.939675 112.562797 
L 210.680235 113.545461 
L 210.411137 114.528124 
L 210.13607 115.510787 
L 209.858411 116.49345 
L 209.581123 117.476113 
L 209.306668 118.458777 
L 209.036961 119.44144 
L 208.773347 120.424103 
L 208.516617 121.406766 
L 208.267055 122.389429 
L 208.024506 123.372092 
L 207.788474 124.354756 
L 207.558222 125.337419 
L 207.332882 126.320082 
L 207.111562 127.302745 
L 206.893438 128.285408 
L 206.677837 129.268071 
L 206.464291 130.250735 
L 206.252589 131.233398 
L 206.042794 132.216061 
L 205.835258 133.198724 
L 205.630625 134.181387 
L 205.429829 135.16405 
L 205.234094 136.146714 
L 205.04493 137.129377 
L 204.864146 138.11204 
L 204.69385 139.094703 
L 204.536462 140.077366 
L 204.394713 141.06003 
L 204.271625 142.042693 
L 204.170472 143.025356 
L 204.094707 144.008019 
L 204.047841 144.990682 
L 204.033281 145.973345 
L 204.054123 146.956009 
L 204.112898 147.938672 
L 204.21129 148.921335 
L 204.349852 149.903998 
L 204.527716 150.886661 
L 204.74236 151.869324 
L 204.989435 152.851988 
L 205.262686 153.834651 
L 205.554001 154.817314 
L 205.853588 155.799977 
L 206.150288 156.78264 
L 206.43203 157.765303 
L 206.686382 158.747967 
L 206.901184 159.73063 
L 207.065209 160.713293 
L 207.168808 161.695956 
L 207.204485 162.678619 
L 207.167348 163.661283 
z
" clip-path="url(#pf5def9a875)" style="fill: #ff8000; fill-opacity: 0.3"/>
   </g>
   <g id="matplotlib.axis_3">
    <g id="xtick_3">
     <g id="line2d_8">
      <g>
       <use xlink:href="#m36f927574a" x="164.992674" y="163.661283" style="stroke: #000000; stroke-width: 0.8"/>
      </g>
     </g>
     <g id="text_12">
      <!-- MSR -->
      <g transform="translate(144.321733 195.136016) rotate(-45) scale(0.12 -0.12)">
       <use xlink:href="#TimesNewRomanPS-BoldMT-4d"/>
       <use xlink:href="#TimesNewRomanPS-BoldMT-53" x="94.384766"/>
       <use xlink:href="#TimesNewRomanPS-BoldMT-52" x="150"/>
      </g>
     </g>
    </g>
    <g id="xtick_4">
     <g id="line2d_9">
      <g>
       <use xlink:href="#m36f927574a" x="199.987326" y="163.661283" style="stroke: #000000; stroke-width: 0.8"/>
      </g>
     </g>
     <g id="text_13">
      <!-- SBO -->
      <g transform="translate(181.193754 193.258647) rotate(-45) scale(0.12 -0.12)">
       <use xlink:href="#TimesNewRomanPS-BoldMT-53"/>
       <use xlink:href="#TimesNewRomanPS-BoldMT-42" x="55.615234"/>
       <use xlink:href="#TimesNewRomanPS-BoldMT-4f" x="122.314453"/>
      </g>
     </g>
    </g>
   </g>
   <g id="matplotlib.axis_4">
    <g id="ytick_6">
     <g id="line2d_10">
      <g>
       <use xlink:href="#m3c00ce9a37" x="149.77" y="163.661283" style="stroke: #000000; stroke-width: 0.8"/>
      </g>
     </g>
     <g id="text_14">
      <!-- 0.00 -->
      <g transform="translate(121.77 167.827533) scale(0.12 -0.12)">
       <use xlink:href="#TimesNewRomanPSMT-30"/>
       <use xlink:href="#TimesNewRomanPSMT-2e" x="50"/>
       <use xlink:href="#TimesNewRomanPSMT-30" x="75"/>
       <use xlink:href="#TimesNewRomanPSMT-30" x="125"/>
      </g>
     </g>
    </g>
    <g id="ytick_7">
     <g id="line2d_11">
      <g>
       <use xlink:href="#m3c00ce9a37" x="149.77" y="133.126004" style="stroke: #000000; stroke-width: 0.8"/>
      </g>
     </g>
     <g id="text_15">
      <!-- 0.25 -->
      <g transform="translate(121.77 137.292254) scale(0.12 -0.12)">
       <use xlink:href="#TimesNewRomanPSMT-30"/>
       <use xlink:href="#TimesNewRomanPSMT-2e" x="50"/>
       <use xlink:href="#TimesNewRomanPSMT-32" x="75"/>
       <use xlink:href="#TimesNewRomanPSMT-35" x="125"/>
      </g>
     </g>
    </g>
    <g id="ytick_8">
     <g id="line2d_12">
      <g>
       <use xlink:href="#m3c00ce9a37" x="149.77" y="102.590725" style="stroke: #000000; stroke-width: 0.8"/>
      </g>
     </g>
     <g id="text_16">
      <!-- 0.50 -->
      <g transform="translate(121.77 106.756975) scale(0.12 -0.12)">
       <use xlink:href="#TimesNewRomanPSMT-30"/>
       <use xlink:href="#TimesNewRomanPSMT-2e" x="50"/>
       <use xlink:href="#TimesNewRomanPSMT-35" x="75"/>
       <use xlink:href="#TimesNewRomanPSMT-30" x="125"/>
      </g>
     </g>
    </g>
    <g id="ytick_9">
     <g id="line2d_13">
      <g>
       <use xlink:href="#m3c00ce9a37" x="149.77" y="72.055446" style="stroke: #000000; stroke-width: 0.8"/>
      </g>
     </g>
     <g id="text_17">
      <!-- 0.75 -->
      <g transform="translate(121.77 76.221696) scale(0.12 -0.12)">
       <use xlink:href="#TimesNewRomanPSMT-30"/>
       <use xlink:href="#TimesNewRomanPSMT-2e" x="50"/>
       <use xlink:href="#TimesNewRomanPSMT-37" x="75"/>
       <use xlink:href="#TimesNewRomanPSMT-35" x="125"/>
      </g>
     </g>
    </g>
    <g id="ytick_10">
     <g id="line2d_14">
      <g>
       <use xlink:href="#m3c00ce9a37" x="149.77" y="41.520167" style="stroke: #000000; stroke-width: 0.8"/>
      </g>
     </g>
     <g id="text_18">
      <!-- 1.00 -->
      <g transform="translate(121.77 45.686417) scale(0.12 -0.12)">
       <use xlink:href="#TimesNewRomanPSMT-31"/>
       <use xlink:href="#TimesNewRomanPSMT-2e" x="50"/>
       <use xlink:href="#TimesNewRomanPSMT-30" x="75"/>
       <use xlink:href="#TimesNewRomanPSMT-30" x="125"/>
      </g>
     </g>
    </g>
   </g>
   <g id="LineCollection_6">
    <path d="M 158.86861 118.320548 
L 171.116738 118.320548 
" clip-path="url(#pf5def9a875)" style="fill: none; stroke: #000000; stroke-width: 2"/>
    <path d="M 193.863262 119.137352 
L 206.11139 119.137352 
" clip-path="url(#pf5def9a875)" style="fill: none; stroke: #000000; stroke-width: 2"/>
   </g>
   <g id="LineCollection_7">
    <path d="M 158.86861 66.426001 
L 171.116738 66.426001 
" clip-path="url(#pf5def9a875)" style="fill: none; stroke: #1f77b4; stroke-width: 1.5"/>
    <path d="M 193.863262 66.377628 
L 206.11139 66.377628 
" clip-path="url(#pf5def9a875)" style="fill: none; stroke: #1f77b4; stroke-width: 1.5"/>
   </g>
   <g id="LineCollection_8">
    <path d="M 158.86861 163.661283 
L 171.116738 163.661283 
" clip-path="url(#pf5def9a875)" style="fill: none; stroke: #1f77b4; stroke-width: 1.5"/>
    <path d="M 193.863262 163.661283 
L 206.11139 163.661283 
" clip-path="url(#pf5def9a875)" style="fill: none; stroke: #1f77b4; stroke-width: 1.5"/>
   </g>
   <g id="LineCollection_9">
    <path d="M 164.992674 163.661283 
L 164.992674 66.426001 
" clip-path="url(#pf5def9a875)" style="fill: none; stroke: #1f77b4; stroke-width: 1.5"/>
    <path d="M 199.987326 163.661283 
L 199.987326 66.377628 
" clip-path="url(#pf5def9a875)" style="fill: none; stroke: #1f77b4; stroke-width: 1.5"/>
   </g>
   <g id="LineCollection_10">
    <path d="M 158.86861 111.980558 
L 171.116738 111.980558 
" clip-path="url(#pf5def9a875)" style="fill: none; stroke-dasharray: 2,3.3; stroke-dashoffset: 0; stroke: #808080; stroke-width: 2"/>
    <path d="M 193.863262 112.37759 
L 206.11139 112.37759 
" clip-path="url(#pf5def9a875)" style="fill: none; stroke-dasharray: 2,3.3; stroke-dashoffset: 0; stroke: #808080; stroke-width: 2"/>
   </g>
   <g id="patch_8">
    <path d="M 149.77 163.661283 
L 149.77 23.199 
" style="fill: none; stroke: #000000; stroke-width: 0.8; stroke-linejoin: miter; stroke-linecap: square"/>
   </g>
   <g id="patch_9">
    <path d="M 215.21 163.661283 
L 215.21 23.199 
" style="fill: none; stroke: #000000; stroke-width: 0.8; stroke-linejoin: miter; stroke-linecap: square"/>
   </g>
   <g id="patch_10">
    <path d="M 149.77 163.661283 
L 215.21 163.661283 
" style="fill: none; stroke: #000000; stroke-width: 0.8; stroke-linejoin: miter; stroke-linecap: square"/>
   </g>
   <g id="patch_11">
    <path d="M 149.77 23.199 
L 215.21 23.199 
" style="fill: none; stroke: #000000; stroke-width: 0.8; stroke-linejoin: miter; stroke-linecap: square"/>
   </g>
   <g id="text_19">
    <!-- 281 -->
    <g transform="translate(157.492674 37.815455) scale(0.1 -0.1)">
     <use xlink:href="#TimesNewRomanPSMT-32"/>
     <use xlink:href="#TimesNewRomanPSMT-38" x="50"/>
     <use xlink:href="#TimesNewRomanPSMT-31" x="100"/>
    </g>
   </g>
   <g id="text_20">
    <!-- 306 -->
    <g transform="translate(192.487326 37.815455) scale(0.1 -0.1)">
     <defs>
      <path id="TimesNewRomanPSMT-36" d="M 2869 4325 
L 2869 4209 
Q 2456 4169 2195 4045 
Q 1934 3922 1679 3669 
Q 1425 3416 1258 3105 
Q 1091 2794 978 2366 
Q 1428 2675 1881 2675 
Q 2316 2675 2634 2325 
Q 2953 1975 2953 1425 
Q 2953 894 2631 456 
Q 2244 -75 1606 -75 
Q 1172 -75 869 213 
Q 275 772 275 1663 
Q 275 2231 503 2743 
Q 731 3256 1154 3653 
Q 1578 4050 1965 4187 
Q 2353 4325 2688 4325 
L 2869 4325 
z
M 925 2138 
Q 869 1716 869 1456 
Q 869 1156 980 804 
Q 1091 453 1309 247 
Q 1469 100 1697 100 
Q 1969 100 2183 356 
Q 2397 613 2397 1088 
Q 2397 1622 2184 2012 
Q 1972 2403 1581 2403 
Q 1463 2403 1327 2353 
Q 1191 2303 925 2138 
z
" transform="scale(0.015625)"/>
     </defs>
     <use xlink:href="#TimesNewRomanPSMT-33"/>
     <use xlink:href="#TimesNewRomanPSMT-30" x="50"/>
     <use xlink:href="#TimesNewRomanPSMT-36" x="100"/>
    </g>
   </g>
   <g id="text_21">
    <!-- 4 Vessels -->
    <g transform="translate(156.017625 17.199) scale(0.144 -0.144)">
     <defs>
      <path id="TimesNewRomanPSMT-34" d="M 2978 1563 
L 2978 1119 
L 2409 1119 
L 2409 0 
L 1894 0 
L 1894 1119 
L 100 1119 
L 100 1519 
L 2066 4325 
L 2409 4325 
L 2409 1563 
L 2978 1563 
z
M 1894 1563 
L 1894 3666 
L 406 1563 
L 1894 1563 
z
" transform="scale(0.015625)"/>
     </defs>
     <use xlink:href="#TimesNewRomanPSMT-34"/>
     <use xlink:href="#TimesNewRomanPSMT-20" x="50"/>
     <use xlink:href="#TimesNewRomanPSMT-56" x="73.25"/>
     <use xlink:href="#TimesNewRomanPSMT-65" x="134.341797"/>
     <use xlink:href="#TimesNewRomanPSMT-73" x="178.726562"/>
     <use xlink:href="#TimesNewRomanPSMT-73" x="217.642578"/>
     <use xlink:href="#TimesNewRomanPSMT-65" x="256.558594"/>
     <use xlink:href="#TimesNewRomanPSMT-6c" x="300.943359"/>
     <use xlink:href="#TimesNewRomanPSMT-73" x="328.726562"/>
    </g>
   </g>
  </g>
  <g id="axes_3">
   <g id="patch_12">
    <path d="M 250.11 163.661283 
L 315.55 163.661283 
L 315.55 23.199 
L 250.11 23.199 
z
" style="fill: #ffffff"/>
   </g>
   <g id="PolyCollection_5">
    <path d="M 268.385141 163.661283 
L 262.280207 163.661283 
L 262.258479 162.659648 
L 262.278301 161.658013 
L 262.336213 160.656379 
L 262.426821 159.654744 
L 262.543247 158.653109 
L 262.677672 157.651475 
L 262.821921 156.64984 
L 262.968026 155.648206 
L 263.108705 154.646571 
L 263.237733 153.644936 
L 263.35017 152.643302 
L 263.44244 151.641667 
L 263.512297 150.640033 
L 263.558671 149.638398 
L 263.581466 148.636763 
L 263.581311 147.635129 
L 263.559319 146.633494 
L 263.516867 145.63186 
L 263.455417 144.630225 
L 263.376378 143.62859 
L 263.28102 142.626956 
L 263.170417 141.625321 
L 263.045417 140.623687 
L 262.906643 139.622052 
L 262.754489 138.620417 
L 262.589141 137.618783 
L 262.410594 136.617148 
L 262.218682 135.615514 
L 262.013114 134.613879 
L 261.79352 133.612244 
L 261.559505 132.61061 
L 261.310702 131.608975 
L 261.04683 130.607341 
L 260.767744 129.605706 
L 260.473468 128.604071 
L 260.164225 127.602437 
L 259.840452 126.600802 
L 259.502806 125.599168 
L 259.152169 124.597533 
L 258.789657 123.595898 
L 258.416642 122.594264 
L 258.034781 121.592629 
L 257.646055 120.590995 
L 257.252815 119.58936 
L 256.857815 118.587725 
L 256.464229 117.586091 
L 256.075633 116.584456 
L 255.695951 115.582822 
L 255.32934 114.581187 
L 254.98005 113.579552 
L 254.652236 112.577918 
L 254.349755 111.576283 
L 254.075971 110.574649 
L 253.833586 109.573014 
L 253.624524 108.571379 
L 253.449884 107.569745 
L 253.309977 106.56811 
L 253.204437 105.566475 
L 253.132415 104.564841 
L 253.092813 103.563206 
L 253.084545 102.561572 
L 253.106788 101.559937 
L 253.159178 100.558302 
L 253.241939 99.556668 
L 253.355908 98.555033 
L 253.502451 97.553399 
L 253.683279 96.551764 
L 253.900171 95.550129 
L 254.154643 94.548495 
L 254.447598 93.54686 
L 254.779003 92.545226 
L 255.147633 91.543591 
L 255.550914 90.541956 
L 255.984892 89.540322 
L 256.444341 88.538687 
L 256.92299 87.537053 
L 257.413862 86.535418 
L 257.909679 85.533783 
L 258.403293 84.532149 
L 258.888107 83.530514 
L 259.358423 82.52888 
L 259.809709 81.527245 
L 260.23874 80.52561 
L 260.643622 79.523976 
L 261.023695 78.522341 
L 261.379344 77.520707 
L 261.711741 76.519072 
L 262.022556 75.517437 
L 262.313677 74.515803 
L 262.586956 73.514168 
L 262.844018 72.512534 
L 263.086142 71.510899 
L 263.314208 70.509264 
L 263.528712 69.50763 
L 263.729834 68.505995 
L 263.91753 67.504361 
L 264.091646 66.502726 
L 264.252017 65.501091 
L 264.39856 64.499457 
L 266.266788 64.499457 
L 266.266788 64.499457 
L 266.41333 65.501091 
L 266.573702 66.502726 
L 266.747817 67.504361 
L 266.935513 68.505995 
L 267.136635 69.50763 
L 267.35114 70.509264 
L 267.579205 71.510899 
L 267.821329 72.512534 
L 268.078392 73.514168 
L 268.35167 74.515803 
L 268.642791 75.517437 
L 268.953607 76.519072 
L 269.286004 77.520707 
L 269.641652 78.522341 
L 270.021725 79.523976 
L 270.426607 80.52561 
L 270.855638 81.527245 
L 271.306924 82.52888 
L 271.777241 83.530514 
L 272.262054 84.532149 
L 272.755669 85.533783 
L 273.251485 86.535418 
L 273.742358 87.537053 
L 274.221007 88.538687 
L 274.680455 89.540322 
L 275.114433 90.541956 
L 275.517714 91.543591 
L 275.886344 92.545226 
L 276.21775 93.54686 
L 276.510705 94.548495 
L 276.765176 95.550129 
L 276.982068 96.551764 
L 277.162897 97.553399 
L 277.30944 98.555033 
L 277.423408 99.556668 
L 277.506169 100.558302 
L 277.558559 101.559937 
L 277.580802 102.561572 
L 277.572535 103.563206 
L 277.532933 104.564841 
L 277.460911 105.566475 
L 277.355371 106.56811 
L 277.215463 107.569745 
L 277.040824 108.571379 
L 276.831762 109.573014 
L 276.589377 110.574649 
L 276.315593 111.576283 
L 276.013112 112.577918 
L 275.685297 113.579552 
L 275.336008 114.581187 
L 274.969397 115.582822 
L 274.589714 116.584456 
L 274.201119 117.586091 
L 273.807533 118.587725 
L 273.412533 119.58936 
L 273.019293 120.590995 
L 272.630567 121.592629 
L 272.248706 122.594264 
L 271.875691 123.595898 
L 271.513179 124.597533 
L 271.162541 125.599168 
L 270.824895 126.600802 
L 270.501123 127.602437 
L 270.19188 128.604071 
L 269.897604 129.605706 
L 269.618517 130.607341 
L 269.354646 131.608975 
L 269.105843 132.61061 
L 268.871827 133.612244 
L 268.652233 134.613879 
L 268.446665 135.615514 
L 268.254753 136.617148 
L 268.076207 137.618783 
L 267.910859 138.620417 
L 267.758705 139.622052 
L 267.61993 140.623687 
L 267.494931 141.625321 
L 267.384327 142.626956 
L 267.28897 143.62859 
L 267.209931 144.630225 
L 267.14848 145.63186 
L 267.106028 146.633494 
L 267.084036 147.635129 
L 267.083882 148.636763 
L 267.106677 149.638398 
L 267.153051 150.640033 
L 267.222907 151.641667 
L 267.315178 152.643302 
L 267.427614 153.644936 
L 267.556643 154.646571 
L 267.697322 155.648206 
L 267.843426 156.64984 
L 267.987676 157.651475 
L 268.122101 158.653109 
L 268.238527 159.654744 
L 268.329135 160.656379 
L 268.387046 161.658013 
L 268.406869 162.659648 
L 268.385141 163.661283 
z
" clip-path="url(#pf09e61ceb6)" style="fill: #0080ff; fill-opacity: 0.3"/>
   </g>
   <g id="PolyCollection_6">
    <path d="M 305.234102 163.661283 
L 295.420551 163.661283 
L 295.383385 162.644659 
L 295.40587 161.628036 
L 295.483329 160.611412 
L 295.608467 159.594789 
L 295.771898 158.578166 
L 295.962803 157.561542 
L 296.169653 156.544919 
L 296.380945 155.528295 
L 296.585867 154.511672 
L 296.774851 153.495049 
L 296.939983 152.478425 
L 297.075243 151.461802 
L 297.176589 150.445179 
L 297.241889 149.428555 
L 297.27074 148.411932 
L 297.264201 147.395308 
L 297.224476 146.378685 
L 297.15458 145.362062 
L 297.058006 144.345438 
L 296.938432 143.328815 
L 296.79945 142.312192 
L 296.64435 141.295568 
L 296.475948 140.278945 
L 296.296463 139.262321 
L 296.107435 138.245698 
L 295.909692 137.229075 
L 295.703358 136.212451 
L 295.487909 135.195828 
L 295.262268 134.179205 
L 295.024936 133.162581 
L 294.774164 132.145958 
L 294.508148 131.129334 
L 294.225243 130.112711 
L 293.924182 129.096088 
L 293.604281 128.079464 
L 293.26563 127.062841 
L 292.909231 126.046217 
L 292.537098 125.029594 
L 292.152283 124.012971 
L 291.758831 122.996347 
L 291.361673 121.979724 
L 290.966425 120.963101 
L 290.579146 119.946477 
L 290.206025 118.929854 
L 289.853055 117.91323 
L 289.525692 116.896607 
L 289.228537 115.879984 
L 288.965084 114.86336 
L 288.737531 113.846737 
L 288.546709 112.830114 
L 288.392113 111.81349 
L 288.272063 110.796867 
L 288.183962 109.780243 
L 288.124641 108.76362 
L 288.090757 107.746997 
L 288.079198 106.730373 
L 288.087456 105.71375 
L 288.11393 104.697127 
L 288.158124 103.680503 
L 288.220712 102.66388 
L 288.303476 101.647256 
L 288.409116 100.630633 
L 288.540945 99.61401 
L 288.702527 98.597386 
L 288.897263 97.580763 
L 289.127999 96.56414 
L 289.396663 95.547516 
L 289.703997 94.530893 
L 290.049374 93.514269 
L 290.430734 92.497646 
L 290.844633 91.481023 
L 291.286385 90.464399 
L 291.750291 89.447776 
L 292.229927 88.431152 
L 292.718462 87.414529 
L 293.208978 86.397906 
L 293.694779 85.381282 
L 294.169659 84.364659 
L 294.628127 83.348036 
L 295.065566 82.331412 
L 295.478349 81.314789 
L 295.863883 80.298165 
L 296.220616 79.281542 
L 296.547987 78.264919 
L 296.846354 77.248295 
L 297.116875 76.231672 
L 297.361384 75.215049 
L 297.582239 74.198425 
L 297.782164 73.181802 
L 297.964088 72.165178 
L 298.130988 71.148555 
L 298.285733 70.131932 
L 298.430955 69.115308 
L 298.568932 68.098685 
L 298.701508 67.082062 
L 298.83004 66.065438 
L 298.955381 65.048815 
L 299.077901 64.032191 
L 299.197533 63.015568 
L 301.45712 63.015568 
L 301.45712 63.015568 
L 301.576752 64.032191 
L 301.699271 65.048815 
L 301.824612 66.065438 
L 301.953144 67.082062 
L 302.08572 68.098685 
L 302.223698 69.115308 
L 302.368919 70.131932 
L 302.523664 71.148555 
L 302.690564 72.165178 
L 302.872489 73.181802 
L 303.072414 74.198425 
L 303.293268 75.215049 
L 303.537778 76.231672 
L 303.808299 77.248295 
L 304.106665 78.264919 
L 304.434037 79.281542 
L 304.790769 80.298165 
L 305.176303 81.314789 
L 305.589086 82.331412 
L 306.026526 83.348036 
L 306.484993 84.364659 
L 306.959874 85.381282 
L 307.445674 86.397906 
L 307.93619 87.414529 
L 308.424725 88.431152 
L 308.904362 89.447776 
L 309.368268 90.464399 
L 309.810019 91.481023 
L 310.223918 92.497646 
L 310.605279 93.514269 
L 310.950655 94.530893 
L 311.257989 95.547516 
L 311.526654 96.56414 
L 311.757389 97.580763 
L 311.952126 98.597386 
L 312.113708 99.61401 
L 312.245537 100.630633 
L 312.351176 101.647256 
L 312.433941 102.66388 
L 312.496529 103.680503 
L 312.540722 104.697127 
L 312.567197 105.71375 
L 312.575455 106.730373 
L 312.563895 107.746997 
L 312.530011 108.76362 
L 312.470691 109.780243 
L 312.38259 110.796867 
L 312.26254 111.81349 
L 312.107944 112.830114 
L 311.917121 113.846737 
L 311.689568 114.86336 
L 311.426115 115.879984 
L 311.128961 116.896607 
L 310.801597 117.91323 
L 310.448627 118.929854 
L 310.075507 119.946477 
L 309.688227 120.963101 
L 309.29298 121.979724 
L 308.895821 122.996347 
L 308.50237 124.012971 
L 308.117554 125.029594 
L 307.745421 126.046217 
L 307.389023 127.062841 
L 307.050371 128.079464 
L 306.73047 129.096088 
L 306.429409 130.112711 
L 306.146504 131.129334 
L 305.880488 132.145958 
L 305.629716 133.162581 
L 305.392384 134.179205 
L 305.166743 135.195828 
L 304.951295 136.212451 
L 304.744961 137.229075 
L 304.547217 138.245698 
L 304.358189 139.262321 
L 304.178704 140.278945 
L 304.010303 141.295568 
L 303.855202 142.312192 
L 303.71622 143.328815 
L 303.596646 144.345438 
L 303.500073 145.362062 
L 303.430176 146.378685 
L 303.390451 147.395308 
L 303.383912 148.411932 
L 303.412763 149.428555 
L 303.478063 150.445179 
L 303.579409 151.461802 
L 303.714669 152.478425 
L 303.879801 153.495049 
L 304.068785 154.511672 
L 304.273707 155.528295 
L 304.485 156.544919 
L 304.69185 157.561542 
L 304.882754 158.578166 
L 305.046186 159.594789 
L 305.171324 160.611412 
L 305.248782 161.628036 
L 305.271267 162.644659 
L 305.234102 163.661283 
z
" clip-path="url(#pf09e61ceb6)" style="fill: #ff8000; fill-opacity: 0.3"/>
   </g>
   <g id="matplotlib.axis_5">
    <g id="xtick_5">
     <g id="line2d_15">
      <g>
       <use xlink:href="#m36f927574a" x="265.332674" y="163.661283" style="stroke: #000000; stroke-width: 0.8"/>
      </g>
     </g>
     <g id="text_22">
      <!-- MSR -->
      <g transform="translate(244.661733 195.136016) rotate(-45) scale(0.12 -0.12)">
       <use xlink:href="#TimesNewRomanPS-BoldMT-4d"/>
       <use xlink:href="#TimesNewRomanPS-BoldMT-53" x="94.384766"/>
       <use xlink:href="#TimesNewRomanPS-BoldMT-52" x="150"/>
      </g>
     </g>
    </g>
    <g id="xtick_6">
     <g id="line2d_16">
      <g>
       <use xlink:href="#m36f927574a" x="300.327326" y="163.661283" style="stroke: #000000; stroke-width: 0.8"/>
      </g>
     </g>
     <g id="text_23">
      <!-- SBO -->
      <g transform="translate(281.533754 193.258647) rotate(-45) scale(0.12 -0.12)">
       <use xlink:href="#TimesNewRomanPS-BoldMT-53"/>
       <use xlink:href="#TimesNewRomanPS-BoldMT-42" x="55.615234"/>
       <use xlink:href="#TimesNewRomanPS-BoldMT-4f" x="122.314453"/>
      </g>
     </g>
    </g>
   </g>
   <g id="matplotlib.axis_6">
    <g id="ytick_11">
     <g id="line2d_17">
      <g>
       <use xlink:href="#m3c00ce9a37" x="250.11" y="163.661283" style="stroke: #000000; stroke-width: 0.8"/>
      </g>
     </g>
     <g id="text_24">
      <!-- 0.00 -->
      <g transform="translate(222.11 167.827533) scale(0.12 -0.12)">
       <use xlink:href="#TimesNewRomanPSMT-30"/>
       <use xlink:href="#TimesNewRomanPSMT-2e" x="50"/>
       <use xlink:href="#TimesNewRomanPSMT-30" x="75"/>
       <use xlink:href="#TimesNewRomanPSMT-30" x="125"/>
      </g>
     </g>
    </g>
    <g id="ytick_12">
     <g id="line2d_18">
      <g>
       <use xlink:href="#m3c00ce9a37" x="250.11" y="133.126004" style="stroke: #000000; stroke-width: 0.8"/>
      </g>
     </g>
     <g id="text_25">
      <!-- 0.25 -->
      <g transform="translate(222.11 137.292254) scale(0.12 -0.12)">
       <use xlink:href="#TimesNewRomanPSMT-30"/>
       <use xlink:href="#TimesNewRomanPSMT-2e" x="50"/>
       <use xlink:href="#TimesNewRomanPSMT-32" x="75"/>
       <use xlink:href="#TimesNewRomanPSMT-35" x="125"/>
      </g>
     </g>
    </g>
    <g id="ytick_13">
     <g id="line2d_19">
      <g>
       <use xlink:href="#m3c00ce9a37" x="250.11" y="102.590725" style="stroke: #000000; stroke-width: 0.8"/>
      </g>
     </g>
     <g id="text_26">
      <!-- 0.50 -->
      <g transform="translate(222.11 106.756975) scale(0.12 -0.12)">
       <use xlink:href="#TimesNewRomanPSMT-30"/>
       <use xlink:href="#TimesNewRomanPSMT-2e" x="50"/>
       <use xlink:href="#TimesNewRomanPSMT-35" x="75"/>
       <use xlink:href="#TimesNewRomanPSMT-30" x="125"/>
      </g>
     </g>
    </g>
    <g id="ytick_14">
     <g id="line2d_20">
      <g>
       <use xlink:href="#m3c00ce9a37" x="250.11" y="72.055446" style="stroke: #000000; stroke-width: 0.8"/>
      </g>
     </g>
     <g id="text_27">
      <!-- 0.75 -->
      <g transform="translate(222.11 76.221696) scale(0.12 -0.12)">
       <use xlink:href="#TimesNewRomanPSMT-30"/>
       <use xlink:href="#TimesNewRomanPSMT-2e" x="50"/>
       <use xlink:href="#TimesNewRomanPSMT-37" x="75"/>
       <use xlink:href="#TimesNewRomanPSMT-35" x="125"/>
      </g>
     </g>
    </g>
    <g id="ytick_15">
     <g id="line2d_21">
      <g>
       <use xlink:href="#m3c00ce9a37" x="250.11" y="41.520167" style="stroke: #000000; stroke-width: 0.8"/>
      </g>
     </g>
     <g id="text_28">
      <!-- 1.00 -->
      <g transform="translate(222.11 45.686417) scale(0.12 -0.12)">
       <use xlink:href="#TimesNewRomanPSMT-31"/>
       <use xlink:href="#TimesNewRomanPSMT-2e" x="50"/>
       <use xlink:href="#TimesNewRomanPSMT-30" x="75"/>
       <use xlink:href="#TimesNewRomanPSMT-30" x="125"/>
      </g>
     </g>
    </g>
   </g>
   <g id="LineCollection_11">
    <path d="M 259.20861 110.687881 
L 271.456738 110.687881 
" clip-path="url(#pf09e61ceb6)" style="fill: none; stroke: #000000; stroke-width: 2"/>
    <path d="M 294.203262 115.554898 
L 306.45139 115.554898 
" clip-path="url(#pf09e61ceb6)" style="fill: none; stroke: #000000; stroke-width: 2"/>
   </g>
   <g id="LineCollection_12">
    <path d="M 259.20861 64.499457 
L 271.456738 64.499457 
" clip-path="url(#pf09e61ceb6)" style="fill: none; stroke: #1f77b4; stroke-width: 1.5"/>
    <path d="M 294.203262 63.015568 
L 306.45139 63.015568 
" clip-path="url(#pf09e61ceb6)" style="fill: none; stroke: #1f77b4; stroke-width: 1.5"/>
   </g>
   <g id="LineCollection_13">
    <path d="M 259.20861 163.661283 
L 271.456738 163.661283 
" clip-path="url(#pf09e61ceb6)" style="fill: none; stroke: #1f77b4; stroke-width: 1.5"/>
    <path d="M 294.203262 163.661283 
L 306.45139 163.661283 
" clip-path="url(#pf09e61ceb6)" style="fill: none; stroke: #1f77b4; stroke-width: 1.5"/>
   </g>
   <g id="LineCollection_14">
    <path d="M 265.332674 163.661283 
L 265.332674 64.499457 
" clip-path="url(#pf09e61ceb6)" style="fill: none; stroke: #1f77b4; stroke-width: 1.5"/>
    <path d="M 300.327326 163.661283 
L 300.327326 63.015568 
" clip-path="url(#pf09e61ceb6)" style="fill: none; stroke: #1f77b4; stroke-width: 1.5"/>
   </g>
   <g id="LineCollection_15">
    <path d="M 259.20861 106.221522 
L 271.456738 106.221522 
" clip-path="url(#pf09e61ceb6)" style="fill: none; stroke-dasharray: 2,3.3; stroke-dashoffset: 0; stroke: #808080; stroke-width: 2"/>
    <path d="M 294.203262 111.527292 
L 306.45139 111.527292 
" clip-path="url(#pf09e61ceb6)" style="fill: none; stroke-dasharray: 2,3.3; stroke-dashoffset: 0; stroke: #808080; stroke-width: 2"/>
   </g>
   <g id="patch_13">
    <path d="M 250.11 163.661283 
L 250.11 23.199 
" style="fill: none; stroke: #000000; stroke-width: 0.8; stroke-linejoin: miter; stroke-linecap: square"/>
   </g>
   <g id="patch_14">
    <path d="M 315.55 163.661283 
L 315.55 23.199 
" style="fill: none; stroke: #000000; stroke-width: 0.8; stroke-linejoin: miter; stroke-linecap: square"/>
   </g>
   <g id="patch_15">
    <path d="M 250.11 163.661283 
L 315.55 163.661283 
" style="fill: none; stroke: #000000; stroke-width: 0.8; stroke-linejoin: miter; stroke-linecap: square"/>
   </g>
   <g id="patch_16">
    <path d="M 250.11 23.199 
L 315.55 23.199 
" style="fill: none; stroke: #000000; stroke-width: 0.8; stroke-linejoin: miter; stroke-linecap: square"/>
   </g>
   <g id="text_29">
    <!-- 265 -->
    <g transform="translate(257.832674 37.815455) scale(0.1 -0.1)">
     <use xlink:href="#TimesNewRomanPSMT-32"/>
     <use xlink:href="#TimesNewRomanPSMT-36" x="50"/>
     <use xlink:href="#TimesNewRomanPSMT-35" x="100"/>
    </g>
   </g>
   <g id="text_30">
    <!-- 295 -->
    <g transform="translate(292.827326 37.815455) scale(0.1 -0.1)">
     <use xlink:href="#TimesNewRomanPSMT-32"/>
     <use xlink:href="#TimesNewRomanPSMT-39" x="50"/>
     <use xlink:href="#TimesNewRomanPSMT-35" x="100"/>
    </g>
   </g>
   <g id="text_31">
    <!-- 5 Vessels -->
    <g transform="translate(256.357625 17.199) scale(0.144 -0.144)">
     <use xlink:href="#TimesNewRomanPSMT-35"/>
     <use xlink:href="#TimesNewRomanPSMT-20" x="50"/>
     <use xlink:href="#TimesNewRomanPSMT-56" x="73.25"/>
     <use xlink:href="#TimesNewRomanPSMT-65" x="134.341797"/>
     <use xlink:href="#TimesNewRomanPSMT-73" x="178.726562"/>
     <use xlink:href="#TimesNewRomanPSMT-73" x="217.642578"/>
     <use xlink:href="#TimesNewRomanPSMT-65" x="256.558594"/>
     <use xlink:href="#TimesNewRomanPSMT-6c" x="300.943359"/>
     <use xlink:href="#TimesNewRomanPSMT-73" x="328.726562"/>
    </g>
   </g>
  </g>
  <g id="axes_4">
   <g id="patch_17">
    <path d="M 350.45 163.661283 
L 415.89 163.661283 
L 415.89 23.199 
L 350.45 23.199 
z
" style="fill: #ffffff"/>
   </g>
   <g id="PolyCollection_7">
    <path d="M 367.519155 163.661283 
L 363.826193 163.661283 
L 363.801736 162.654219 
L 363.806391 161.647156 
L 363.837286 160.640093 
L 363.88982 159.63303 
L 363.958107 158.625966 
L 364.035514 157.618903 
L 364.115254 156.61184 
L 364.19094 155.604777 
L 364.257051 154.597714 
L 364.309267 153.59065 
L 364.344651 152.583587 
L 364.361683 151.576524 
L 364.360152 150.569461 
L 364.340964 149.562398 
L 364.305876 148.555334 
L 364.257217 147.548271 
L 364.197618 146.541208 
L 364.129778 145.534145 
L 364.056275 144.527081 
L 363.97943 143.520018 
L 363.901205 142.512955 
L 363.823138 141.505892 
L 363.746284 140.498829 
L 363.671157 139.491765 
L 363.597676 138.484702 
L 363.52511 137.477639 
L 363.452034 136.470576 
L 363.376324 135.463513 
L 363.295205 134.456449 
L 363.20537 133.449386 
L 363.103175 132.442323 
L 362.984901 131.43526 
L 362.847071 130.428197 
L 362.686771 129.421133 
L 362.501938 128.41407 
L 362.291571 127.407007 
L 362.055824 126.399944 
L 361.795969 125.39288 
L 361.514209 124.385817 
L 361.213396 123.378754 
L 360.896671 122.371691 
L 360.567093 121.364628 
L 360.227321 120.357564 
L 359.879384 119.350501 
L 359.524592 118.343438 
L 359.163583 117.336375 
L 358.796497 116.329312 
L 358.423242 115.322248 
L 358.04381 114.315185 
L 357.658583 113.308122 
L 357.268583 112.301059 
L 356.875641 111.293996 
L 356.482462 110.286932 
L 356.092589 109.279869 
L 355.710287 108.272806 
L 355.34038 107.265743 
L 354.988052 106.258679 
L 354.658673 105.251616 
L 354.357634 104.244553 
L 354.090225 103.23749 
L 353.861541 102.230427 
L 353.676403 101.223363 
L 353.53928 100.2163 
L 353.454185 99.209237 
L 353.424545 98.202174 
L 353.453019 97.195111 
L 353.541288 96.188047 
L 353.689826 95.180984 
L 353.897677 94.173921 
L 354.162285 93.166858 
L 354.4794 92.159795 
L 354.843105 91.152731 
L 355.245982 90.145668 
L 355.679432 89.138605 
L 356.134121 88.131542 
L 356.600536 87.124478 
L 357.069583 86.117415 
L 357.533172 85.110352 
L 357.984706 84.103289 
L 358.419427 83.096226 
L 358.834555 82.089162 
L 359.229225 81.082099 
L 359.60421 80.075036 
L 359.961504 79.067973 
L 360.303801 78.06091 
L 360.633967 77.053846 
L 360.954578 76.046783 
L 361.267575 75.03972 
L 361.574076 74.032657 
L 361.874357 73.025594 
L 362.167966 72.01853 
L 362.45393 71.011467 
L 362.731003 70.004404 
L 362.99791 68.997341 
L 363.253522 67.990277 
L 363.496965 66.983214 
L 363.727644 65.976151 
L 363.945204 64.969088 
L 364.149447 63.962025 
L 367.1959 63.962025 
L 367.1959 63.962025 
L 367.400144 64.969088 
L 367.617703 65.976151 
L 367.848382 66.983214 
L 368.091825 67.990277 
L 368.347437 68.997341 
L 368.614344 70.004404 
L 368.891418 71.011467 
L 369.177381 72.01853 
L 369.47099 73.025594 
L 369.771272 74.032657 
L 370.077773 75.03972 
L 370.390769 76.046783 
L 370.71138 77.053846 
L 371.041547 78.06091 
L 371.383844 79.067973 
L 371.741138 80.075036 
L 372.116123 81.082099 
L 372.510792 82.089162 
L 372.925921 83.096226 
L 373.360641 84.103289 
L 373.812176 85.110352 
L 374.275765 86.117415 
L 374.744812 87.124478 
L 375.211227 88.131542 
L 375.665916 89.138605 
L 376.099366 90.145668 
L 376.502243 91.152731 
L 376.865948 92.159795 
L 377.183062 93.166858 
L 377.44767 94.173921 
L 377.655522 95.180984 
L 377.804059 96.188047 
L 377.892328 97.195111 
L 377.920802 98.202174 
L 377.891162 99.209237 
L 377.806068 100.2163 
L 377.668944 101.223363 
L 377.483806 102.230427 
L 377.255122 103.23749 
L 376.987713 104.244553 
L 376.686674 105.251616 
L 376.357295 106.258679 
L 376.004968 107.265743 
L 375.63506 108.272806 
L 375.252759 109.279869 
L 374.862885 110.286932 
L 374.469706 111.293996 
L 374.076764 112.301059 
L 373.686764 113.308122 
L 373.301537 114.315185 
L 372.922106 115.322248 
L 372.548851 116.329312 
L 372.181764 117.336375 
L 371.820756 118.343438 
L 371.465964 119.350501 
L 371.118027 120.357564 
L 370.778254 121.364628 
L 370.448677 122.371691 
L 370.131951 123.378754 
L 369.831139 124.385817 
L 369.549379 125.39288 
L 369.289523 126.399944 
L 369.053777 127.407007 
L 368.84341 128.41407 
L 368.658576 129.421133 
L 368.498276 130.428197 
L 368.360447 131.43526 
L 368.242173 132.442323 
L 368.139977 133.449386 
L 368.050142 134.456449 
L 367.969024 135.463513 
L 367.893314 136.470576 
L 367.820237 137.477639 
L 367.747671 138.484702 
L 367.674191 139.491765 
L 367.599064 140.498829 
L 367.522209 141.505892 
L 367.444143 142.512955 
L 367.365918 143.520018 
L 367.289072 144.527081 
L 367.215569 145.534145 
L 367.147729 146.541208 
L 367.088131 147.548271 
L 367.039472 148.555334 
L 367.004384 149.562398 
L 366.985195 150.569461 
L 366.983665 151.576524 
L 367.000696 152.583587 
L 367.036081 153.59065 
L 367.088297 154.597714 
L 367.154408 155.604777 
L 367.230094 156.61184 
L 367.309834 157.618903 
L 367.387241 158.625966 
L 367.455527 159.63303 
L 367.508062 160.640093 
L 367.538957 161.647156 
L 367.543612 162.654219 
L 367.519155 163.661283 
z
" clip-path="url(#p973e836acb)" style="fill: #0080ff; fill-opacity: 0.3"/>
   </g>
   <g id="PolyCollection_8">
    <path d="M 403.679092 163.661283 
L 397.65556 163.661283 
L 397.667495 162.708325 
L 397.728409 161.755368 
L 397.834213 160.802411 
L 397.978486 159.849454 
L 398.152975 158.896497 
L 398.348227 157.943539 
L 398.554262 156.990582 
L 398.761233 156.037625 
L 398.959997 155.084668 
L 399.142548 154.131711 
L 399.302304 153.178753 
L 399.434215 152.225796 
L 399.534738 151.272839 
L 399.601691 150.319882 
L 399.634038 149.366925 
L 399.631645 148.413968 
L 399.595039 147.46101 
L 399.525214 146.508053 
L 399.423492 145.555096 
L 399.291438 144.602139 
L 399.130847 143.649182 
L 398.943757 142.696224 
L 398.732489 141.743267 
L 398.499688 140.79031 
L 398.248342 139.837353 
L 397.981762 138.884396 
L 397.703533 137.931439 
L 397.417413 136.978481 
L 397.127202 136.025524 
L 396.836595 135.072567 
L 396.549023 134.11961 
L 396.267501 133.166653 
L 395.994506 132.213695 
L 395.731875 131.260738 
L 395.480745 130.307781 
L 395.241529 129.354824 
L 395.013927 128.401867 
L 394.79697 127.448909 
L 394.589094 126.495952 
L 394.388239 125.542995 
L 394.191974 124.590038 
L 393.997635 123.637081 
L 393.802483 122.684124 
L 393.603863 121.731166 
L 393.39937 120.778209 
L 393.186993 119.825252 
L 392.96524 118.872295 
L 392.733227 117.919338 
L 392.490724 116.96638 
L 392.238156 116.013423 
L 391.976566 115.060466 
L 391.707534 114.107509 
L 391.433086 113.154552 
L 391.155591 112.201595 
L 390.877659 111.248637 
L 390.602059 110.29568 
L 390.331654 109.342723 
L 390.069339 108.389766 
L 389.818003 107.436809 
L 389.580474 106.483851 
L 389.359466 105.530894 
L 389.157505 104.577937 
L 388.976854 103.62498 
L 388.819435 102.672023 
L 388.686766 101.719065 
L 388.579932 100.766108 
L 388.499591 99.813151 
L 388.446031 98.860194 
L 388.419273 97.907237 
L 388.419198 96.95428 
L 388.445686 96.001322 
L 388.498745 95.048365 
L 388.578592 94.095408 
L 388.685684 93.142451 
L 388.820684 92.189494 
L 388.984362 91.236536 
L 389.177454 90.283579 
L 389.400497 89.330622 
L 389.653668 88.377665 
L 389.936654 87.424708 
L 390.248576 86.471751 
L 390.587974 85.518793 
L 390.952854 84.565836 
L 391.340782 83.612879 
L 391.749018 82.659922 
L 392.174644 81.706965 
L 392.614687 80.754007 
L 393.066199 79.80105 
L 393.526301 78.848093 
L 393.992178 77.895136 
L 394.46104 76.942179 
L 394.930066 75.989221 
L 395.396343 75.036264 
L 395.856824 74.083307 
L 396.308325 73.13035 
L 396.747547 72.177393 
L 397.171158 71.224436 
L 397.575897 70.271478 
L 397.958706 69.318521 
L 403.375946 69.318521 
L 403.375946 69.318521 
L 403.758755 70.271478 
L 404.163494 71.224436 
L 404.587105 72.177393 
L 405.026328 73.13035 
L 405.477828 74.083307 
L 405.93831 75.036264 
L 406.404586 75.989221 
L 406.873612 76.942179 
L 407.342474 77.895136 
L 407.808351 78.848093 
L 408.268453 79.80105 
L 408.719965 80.754007 
L 409.160008 81.706965 
L 409.585635 82.659922 
L 409.99387 83.612879 
L 410.381799 84.565836 
L 410.746678 85.518793 
L 411.086076 86.471751 
L 411.397998 87.424708 
L 411.680984 88.377665 
L 411.934155 89.330622 
L 412.157199 90.283579 
L 412.350291 91.236536 
L 412.513968 92.189494 
L 412.648968 93.142451 
L 412.75606 94.095408 
L 412.835907 95.048365 
L 412.888966 96.001322 
L 412.915455 96.95428 
L 412.915379 97.907237 
L 412.888621 98.860194 
L 412.835062 99.813151 
L 412.75472 100.766108 
L 412.647886 101.719065 
L 412.515217 102.672023 
L 412.357798 103.62498 
L 412.177147 104.577937 
L 411.975186 105.530894 
L 411.754178 106.483851 
L 411.51665 107.436809 
L 411.265314 108.389766 
L 411.002999 109.342723 
L 410.732593 110.29568 
L 410.456994 111.248637 
L 410.179062 112.201595 
L 409.901566 113.154552 
L 409.627119 114.107509 
L 409.358087 115.060466 
L 409.096496 116.013423 
L 408.843929 116.96638 
L 408.601425 117.919338 
L 408.369412 118.872295 
L 408.147659 119.825252 
L 407.935282 120.778209 
L 407.730789 121.731166 
L 407.53217 122.684124 
L 407.337017 123.637081 
L 407.142678 124.590038 
L 406.946413 125.542995 
L 406.745559 126.495952 
L 406.537682 127.448909 
L 406.320725 128.401867 
L 406.093123 129.354824 
L 405.853908 130.307781 
L 405.602778 131.260738 
L 405.340147 132.213695 
L 405.067152 133.166653 
L 404.78563 134.11961 
L 404.498057 135.072567 
L 404.20745 136.025524 
L 403.917239 136.978481 
L 403.631119 137.931439 
L 403.35289 138.884396 
L 403.086311 139.837353 
L 402.834964 140.79031 
L 402.602164 141.743267 
L 402.390896 142.696224 
L 402.203805 143.649182 
L 402.043214 144.602139 
L 401.911161 145.555096 
L 401.809438 146.508053 
L 401.739613 147.46101 
L 401.703007 148.413968 
L 401.700614 149.366925 
L 401.732962 150.319882 
L 401.799915 151.272839 
L 401.900437 152.225796 
L 402.032348 153.178753 
L 402.192104 154.131711 
L 402.374656 155.084668 
L 402.573419 156.037625 
L 402.78039 156.990582 
L 402.986426 157.943539 
L 403.181677 158.896497 
L 403.356167 159.849454 
L 403.500439 160.802411 
L 403.606243 161.755368 
L 403.667157 162.708325 
L 403.679092 163.661283 
z
" clip-path="url(#p973e836acb)" style="fill: #ff8000; fill-opacity: 0.3"/>
   </g>
   <g id="matplotlib.axis_7">
    <g id="xtick_7">
     <g id="line2d_22">
      <g>
       <use xlink:href="#m36f927574a" x="365.672674" y="163.661283" style="stroke: #000000; stroke-width: 0.8"/>
      </g>
     </g>
     <g id="text_32">
      <!-- MSR -->
      <g transform="translate(345.001733 195.136016) rotate(-45) scale(0.12 -0.12)">
       <use xlink:href="#TimesNewRomanPS-BoldMT-4d"/>
       <use xlink:href="#TimesNewRomanPS-BoldMT-53" x="94.384766"/>
       <use xlink:href="#TimesNewRomanPS-BoldMT-52" x="150"/>
      </g>
     </g>
    </g>
    <g id="xtick_8">
     <g id="line2d_23">
      <g>
       <use xlink:href="#m36f927574a" x="400.667326" y="163.661283" style="stroke: #000000; stroke-width: 0.8"/>
      </g>
     </g>
     <g id="text_33">
      <!-- SBO -->
      <g transform="translate(381.873754 193.258647) rotate(-45) scale(0.12 -0.12)">
       <use xlink:href="#TimesNewRomanPS-BoldMT-53"/>
       <use xlink:href="#TimesNewRomanPS-BoldMT-42" x="55.615234"/>
       <use xlink:href="#TimesNewRomanPS-BoldMT-4f" x="122.314453"/>
      </g>
     </g>
    </g>
   </g>
   <g id="matplotlib.axis_8">
    <g id="ytick_16">
     <g id="line2d_24">
      <g>
       <use xlink:href="#m3c00ce9a37" x="350.45" y="163.661283" style="stroke: #000000; stroke-width: 0.8"/>
      </g>
     </g>
     <g id="text_34">
      <!-- 0.00 -->
      <g transform="translate(322.45 167.827533) scale(0.12 -0.12)">
       <use xlink:href="#TimesNewRomanPSMT-30"/>
       <use xlink:href="#TimesNewRomanPSMT-2e" x="50"/>
       <use xlink:href="#TimesNewRomanPSMT-30" x="75"/>
       <use xlink:href="#TimesNewRomanPSMT-30" x="125"/>
      </g>
     </g>
    </g>
    <g id="ytick_17">
     <g id="line2d_25">
      <g>
       <use xlink:href="#m3c00ce9a37" x="350.45" y="133.126004" style="stroke: #000000; stroke-width: 0.8"/>
      </g>
     </g>
     <g id="text_35">
      <!-- 0.25 -->
      <g transform="translate(322.45 137.292254) scale(0.12 -0.12)">
       <use xlink:href="#TimesNewRomanPSMT-30"/>
       <use xlink:href="#TimesNewRomanPSMT-2e" x="50"/>
       <use xlink:href="#TimesNewRomanPSMT-32" x="75"/>
       <use xlink:href="#TimesNewRomanPSMT-35" x="125"/>
      </g>
     </g>
    </g>
    <g id="ytick_18">
     <g id="line2d_26">
      <g>
       <use xlink:href="#m3c00ce9a37" x="350.45" y="102.590725" style="stroke: #000000; stroke-width: 0.8"/>
      </g>
     </g>
     <g id="text_36">
      <!-- 0.50 -->
      <g transform="translate(322.45 106.756975) scale(0.12 -0.12)">
       <use xlink:href="#TimesNewRomanPSMT-30"/>
       <use xlink:href="#TimesNewRomanPSMT-2e" x="50"/>
       <use xlink:href="#TimesNewRomanPSMT-35" x="75"/>
       <use xlink:href="#TimesNewRomanPSMT-30" x="125"/>
      </g>
     </g>
    </g>
    <g id="ytick_19">
     <g id="line2d_27">
      <g>
       <use xlink:href="#m3c00ce9a37" x="350.45" y="72.055446" style="stroke: #000000; stroke-width: 0.8"/>
      </g>
     </g>
     <g id="text_37">
      <!-- 0.75 -->
      <g transform="translate(322.45 76.221696) scale(0.12 -0.12)">
       <use xlink:href="#TimesNewRomanPSMT-30"/>
       <use xlink:href="#TimesNewRomanPSMT-2e" x="50"/>
       <use xlink:href="#TimesNewRomanPSMT-37" x="75"/>
       <use xlink:href="#TimesNewRomanPSMT-35" x="125"/>
      </g>
     </g>
    </g>
    <g id="ytick_20">
     <g id="line2d_28">
      <g>
       <use xlink:href="#m3c00ce9a37" x="350.45" y="41.520167" style="stroke: #000000; stroke-width: 0.8"/>
      </g>
     </g>
     <g id="text_38">
      <!-- 1.00 -->
      <g transform="translate(322.45 45.686417) scale(0.12 -0.12)">
       <use xlink:href="#TimesNewRomanPSMT-31"/>
       <use xlink:href="#TimesNewRomanPSMT-2e" x="50"/>
       <use xlink:href="#TimesNewRomanPSMT-30" x="75"/>
       <use xlink:href="#TimesNewRomanPSMT-30" x="125"/>
      </g>
     </g>
    </g>
   </g>
   <g id="LineCollection_16">
    <path d="M 359.54861 104.963018 
L 371.796738 104.963018 
" clip-path="url(#p973e836acb)" style="fill: none; stroke: #000000; stroke-width: 2"/>
    <path d="M 394.543262 107.604975 
L 406.79139 107.604975 
" clip-path="url(#p973e836acb)" style="fill: none; stroke: #000000; stroke-width: 2"/>
   </g>
   <g id="LineCollection_17">
    <path d="M 359.54861 63.962025 
L 371.796738 63.962025 
" clip-path="url(#p973e836acb)" style="fill: none; stroke: #1f77b4; stroke-width: 1.5"/>
    <path d="M 394.543262 69.318521 
L 406.79139 69.318521 
" clip-path="url(#p973e836acb)" style="fill: none; stroke: #1f77b4; stroke-width: 1.5"/>
   </g>
   <g id="LineCollection_18">
    <path d="M 359.54861 163.661283 
L 371.796738 163.661283 
" clip-path="url(#p973e836acb)" style="fill: none; stroke: #1f77b4; stroke-width: 1.5"/>
    <path d="M 394.543262 163.661283 
L 406.79139 163.661283 
" clip-path="url(#p973e836acb)" style="fill: none; stroke: #1f77b4; stroke-width: 1.5"/>
   </g>
   <g id="LineCollection_19">
    <path d="M 365.672674 163.661283 
L 365.672674 63.962025 
" clip-path="url(#p973e836acb)" style="fill: none; stroke: #1f77b4; stroke-width: 1.5"/>
    <path d="M 400.667326 163.661283 
L 400.667326 69.318521 
" clip-path="url(#p973e836acb)" style="fill: none; stroke: #1f77b4; stroke-width: 1.5"/>
   </g>
   <g id="LineCollection_20">
    <path d="M 359.54861 101.121106 
L 371.796738 101.121106 
" clip-path="url(#p973e836acb)" style="fill: none; stroke-dasharray: 2,3.3; stroke-dashoffset: 0; stroke: #808080; stroke-width: 2"/>
    <path d="M 394.543262 102.728334 
L 406.79139 102.728334 
" clip-path="url(#p973e836acb)" style="fill: none; stroke-dasharray: 2,3.3; stroke-dashoffset: 0; stroke: #808080; stroke-width: 2"/>
   </g>
   <g id="patch_18">
    <path d="M 350.45 163.661283 
L 350.45 23.199 
" style="fill: none; stroke: #000000; stroke-width: 0.8; stroke-linejoin: miter; stroke-linecap: square"/>
   </g>
   <g id="patch_19">
    <path d="M 415.89 163.661283 
L 415.89 23.199 
" style="fill: none; stroke: #000000; stroke-width: 0.8; stroke-linejoin: miter; stroke-linecap: square"/>
   </g>
   <g id="patch_20">
    <path d="M 350.45 163.661283 
L 415.89 163.661283 
" style="fill: none; stroke: #000000; stroke-width: 0.8; stroke-linejoin: miter; stroke-linecap: square"/>
   </g>
   <g id="patch_21">
    <path d="M 350.45 23.199 
L 415.89 23.199 
" style="fill: none; stroke: #000000; stroke-width: 0.8; stroke-linejoin: miter; stroke-linecap: square"/>
   </g>
   <g id="text_39">
    <!-- 348 -->
    <g transform="translate(358.172674 37.815455) scale(0.1 -0.1)">
     <use xlink:href="#TimesNewRomanPSMT-33"/>
     <use xlink:href="#TimesNewRomanPSMT-34" x="50"/>
     <use xlink:href="#TimesNewRomanPSMT-38" x="100"/>
    </g>
   </g>
   <g id="text_40">
    <!-- 389 -->
    <g transform="translate(393.167326 37.815455) scale(0.1 -0.1)">
     <use xlink:href="#TimesNewRomanPSMT-33"/>
     <use xlink:href="#TimesNewRomanPSMT-38" x="50"/>
     <use xlink:href="#TimesNewRomanPSMT-39" x="100"/>
    </g>
   </g>
   <g id="text_41">
    <!-- 6 Vessels -->
    <g transform="translate(356.697625 17.199) scale(0.144 -0.144)">
     <use xlink:href="#TimesNewRomanPSMT-36"/>
     <use xlink:href="#TimesNewRomanPSMT-20" x="50"/>
     <use xlink:href="#TimesNewRomanPSMT-56" x="73.25"/>
     <use xlink:href="#TimesNewRomanPSMT-65" x="134.341797"/>
     <use xlink:href="#TimesNewRomanPSMT-73" x="178.726562"/>
     <use xlink:href="#TimesNewRomanPSMT-73" x="217.642578"/>
     <use xlink:href="#TimesNewRomanPSMT-65" x="256.558594"/>
     <use xlink:href="#TimesNewRomanPSMT-6c" x="300.943359"/>
     <use xlink:href="#TimesNewRomanPSMT-73" x="328.726562"/>
    </g>
   </g>
  </g>
 </g>
 <defs>
  <clipPath id="pac0c848e1b">
   <rect x="49.43" y="23.199" width="65.44" height="140.462283"/>
  </clipPath>
  <clipPath id="pf5def9a875">
   <rect x="149.77" y="23.199" width="65.44" height="140.462283"/>
  </clipPath>
  <clipPath id="pf09e61ceb6">
   <rect x="250.11" y="23.199" width="65.44" height="140.462283"/>
  </clipPath>
  <clipPath id="p973e836acb">
   <rect x="350.45" y="23.199" width="65.44" height="140.462283"/>
  </clipPath>
 </defs>
</svg>
