<?xml version="1.0" encoding="utf-8" standalone="no"?>
<!DOCTYPE svg PUBLIC "-//W3C//DTD SVG 1.1//EN"
  "http://www.w3.org/Graphics/SVG/1.1/DTD/svg11.dtd">
<svg xmlns:xlink="http://www.w3.org/1999/xlink" width="417.067094pt" height="204.112125pt" viewBox="0 0 417.067094 204.112125" xmlns="http://www.w3.org/2000/svg" version="1.1">
 <metadata>
  <rdf:RDF xmlns:dc="http://purl.org/dc/elements/1.1/" xmlns:cc="http://creativecommons.org/ns#" xmlns:rdf="http://www.w3.org/1999/02/22-rdf-syntax-ns#">
   <cc:Work>
    <dc:type rdf:resource="http://purl.org/dc/dcmitype/StillImage"/>
    <dc:date>2024-10-27T23:16:45.814138</dc:date>
    <dc:format>image/svg+xml</dc:format>
    <dc:creator>
     <cc:Agent>
      <dc:title>Matplotlib v3.9.0, https://matplotlib.org/</dc:title>
     </cc:Agent>
    </dc:creator>
   </cc:Work>
  </rdf:RDF>
 </metadata>
 <defs>
  <style type="text/css">*{stroke-linejoin: round; stroke-linecap: butt}</style>
 </defs>
 <g id="figure_1">
  <g id="patch_1">
   <path d="M 0 204.112125 
L 417.067094 204.112125 
L 417.067094 0 
L 0 0 
z
" style="fill: #ffffff"/>
  </g>
  <g id="axes_1">
   <g id="patch_2">
    <path d="M 43.191094 179.399 
L 115.712769 179.399 
L 115.712769 23.199 
L 43.191094 23.199 
z
" style="fill: #ffffff"/>
   </g>
   <g id="PolyCollection_1">
    <path d="M 67.644283 132.880509 
L 52.477936 132.880509 
L 51.881093 132.130757 
L 51.288647 131.381004 
L 50.706923 130.631252 
L 50.142249 129.881499 
L 49.600819 129.131746 
L 49.088558 128.381994 
L 48.611004 127.632241 
L 48.173194 126.882489 
L 47.779578 126.132736 
L 47.433943 125.382984 
L 47.139365 124.633231 
L 46.898174 123.883478 
L 46.711941 123.133726 
L 46.581485 122.383973 
L 46.50689 121.634221 
L 46.487534 120.884468 
L 46.522131 120.134716 
L 46.608782 119.384963 
L 46.745024 118.63521 
L 46.927889 117.885458 
L 47.153965 117.135705 
L 47.419454 116.385953 
L 47.720244 115.6362 
L 48.051968 114.886448 
L 48.410077 114.136695 
L 48.789914 113.386942 
L 49.186782 112.63719 
L 49.596028 111.887437 
L 50.013111 111.137685 
L 50.433684 110.387932 
L 50.853663 109.63818 
L 51.269295 108.888427 
L 51.677217 108.138674 
L 52.074503 107.388922 
L 52.458703 106.639169 
L 52.827861 105.889417 
L 53.180522 105.139664 
L 53.515723 104.389912 
L 53.832965 103.640159 
L 54.132174 102.890406 
L 54.413649 102.140654 
L 54.677998 101.390901 
L 54.926072 100.641149 
L 55.158891 99.891396 
L 55.377572 99.141644 
L 55.583261 98.391891 
L 55.777068 97.642138 
L 55.960013 96.892386 
L 56.132982 96.142633 
L 56.29669 95.392881 
L 56.451655 94.643128 
L 56.598192 93.893376 
L 56.736403 93.143623 
L 56.866187 92.39387 
L 56.987253 91.644118 
L 57.099144 90.894365 
L 57.201257 90.144613 
L 57.292884 89.39486 
L 57.373234 88.645108 
L 57.441483 87.895355 
L 57.496802 87.145602 
L 57.538403 86.39585 
L 57.565579 85.646097 
L 57.577744 84.896345 
L 57.574472 84.146592 
L 57.555539 83.39684 
L 57.520953 82.647087 
L 57.47099 81.897334 
L 57.406215 81.147582 
L 57.327504 80.397829 
L 57.236051 79.648077 
L 57.13337 78.898324 
L 57.021281 78.148572 
L 56.901892 77.398819 
L 56.777563 76.649066 
L 56.650862 75.899314 
L 56.524515 75.149561 
L 56.40134 74.399809 
L 56.284186 73.650056 
L 56.175856 72.900304 
L 56.079041 72.150551 
L 55.996249 71.400798 
L 55.929739 70.651046 
L 55.881466 69.901293 
L 55.85303 69.151541 
L 55.845636 68.401788 
L 55.860069 67.652035 
L 55.896678 66.902283 
L 55.955376 66.15253 
L 56.035642 65.402778 
L 56.136551 64.653025 
L 56.256799 63.903273 
L 56.394743 63.15352 
L 56.548452 62.403767 
L 56.715758 61.654015 
L 56.894314 60.904262 
L 57.081656 60.15451 
L 57.275262 59.404757 
L 57.472616 58.655005 
L 62.649602 58.655005 
L 62.649602 58.655005 
L 62.846956 59.404757 
L 63.040562 60.15451 
L 63.227904 60.904262 
L 63.40646 61.654015 
L 63.573766 62.403767 
L 63.727475 63.15352 
L 63.865419 63.903273 
L 63.985667 64.653025 
L 64.086576 65.402778 
L 64.166843 66.15253 
L 64.22554 66.902283 
L 64.262149 67.652035 
L 64.276582 68.401788 
L 64.269188 69.151541 
L 64.240752 69.901293 
L 64.192479 70.651046 
L 64.12597 71.400798 
L 64.043177 72.150551 
L 63.946362 72.900304 
L 63.838032 73.650056 
L 63.720878 74.399809 
L 63.597703 75.149561 
L 63.471356 75.899314 
L 63.344655 76.649066 
L 63.220326 77.398819 
L 63.100937 78.148572 
L 62.988848 78.898324 
L 62.886167 79.648077 
L 62.794714 80.397829 
L 62.716003 81.147582 
L 62.651228 81.897334 
L 62.601265 82.647087 
L 62.566679 83.39684 
L 62.547746 84.146592 
L 62.544475 84.896345 
L 62.556639 85.646097 
L 62.583815 86.39585 
L 62.625416 87.145602 
L 62.680735 87.895355 
L 62.748984 88.645108 
L 62.829335 89.39486 
L 62.920961 90.144613 
L 63.023075 90.894365 
L 63.134965 91.644118 
L 63.256031 92.39387 
L 63.385815 93.143623 
L 63.524026 93.893376 
L 63.670563 94.643128 
L 63.825528 95.392881 
L 63.989236 96.142633 
L 64.162205 96.892386 
L 64.345151 97.642138 
L 64.538957 98.391891 
L 64.744646 99.141644 
L 64.963327 99.891396 
L 65.196146 100.641149 
L 65.44422 101.390901 
L 65.708569 102.140654 
L 65.990044 102.890406 
L 66.289253 103.640159 
L 66.606495 104.389912 
L 66.941696 105.139664 
L 67.294358 105.889417 
L 67.663515 106.639169 
L 68.047715 107.388922 
L 68.445002 108.138674 
L 68.852923 108.888427 
L 69.268555 109.63818 
L 69.688534 110.387932 
L 70.109107 111.137685 
L 70.52619 111.887437 
L 70.935436 112.63719 
L 71.332304 113.386942 
L 71.712141 114.136695 
L 72.070251 114.886448 
L 72.401974 115.6362 
L 72.702764 116.385953 
L 72.968254 117.135705 
L 73.194329 117.885458 
L 73.377194 118.63521 
L 73.513436 119.384963 
L 73.600087 120.134716 
L 73.634685 120.884468 
L 73.615328 121.634221 
L 73.540733 122.383973 
L 73.410277 123.133726 
L 73.224045 123.883478 
L 72.982853 124.633231 
L 72.688275 125.382984 
L 72.34264 126.132736 
L 71.949024 126.882489 
L 71.511214 127.632241 
L 71.03366 128.381994 
L 70.521399 129.131746 
L 69.979969 129.881499 
L 69.415295 130.631252 
L 68.833571 131.381004 
L 68.241125 132.130757 
L 67.644283 132.880509 
z
" clip-path="url(#p5a2d3c5597)" style="fill: #0080ff; fill-opacity: 0.3"/>
   </g>
   <g id="PolyCollection_2">
    <path d="M 104.626516 135.187711 
L 93.058991 135.187711 
L 92.342139 134.417856 
L 91.604121 133.648002 
L 90.855742 132.878147 
L 90.108874 132.108292 
L 89.376095 131.338437 
L 88.670285 130.568582 
L 88.004183 129.798727 
L 87.389947 129.028873 
L 86.838726 128.259018 
L 86.360273 127.489163 
L 85.962623 126.719308 
L 85.651842 125.949453 
L 85.43187 125.179598 
L 85.304452 124.409744 
L 85.269178 123.639889 
L 85.323591 122.870034 
L 85.463393 122.100179 
L 85.682694 121.330324 
L 85.97432 120.56047 
L 86.330128 119.790615 
L 86.741338 119.02076 
L 87.198837 118.250905 
L 87.693462 117.48105 
L 88.216233 116.711195 
L 88.758546 115.941341 
L 89.312307 115.171486 
L 89.870028 114.401631 
L 90.424874 113.631776 
L 90.97068 112.861921 
L 91.501947 112.092066 
L 92.013821 111.322212 
L 92.502071 110.552357 
L 92.96307 109.782502 
L 93.393783 109.012647 
L 93.791763 108.242792 
L 94.155161 107.472937 
L 94.482734 106.703083 
L 94.773861 105.933228 
L 95.028544 105.163373 
L 95.247408 104.393518 
L 95.431675 103.623663 
L 95.583125 102.853809 
L 95.704029 102.083954 
L 95.797069 101.314099 
L 95.865239 100.544244 
L 95.911734 99.774389 
L 95.93984 99.004534 
L 95.952827 98.23468 
L 95.953853 97.464825 
L 95.94589 96.69497 
L 95.931669 95.925115 
L 95.913652 95.15526 
L 95.894026 94.385405 
L 95.874712 93.615551 
L 95.857399 92.845696 
L 95.843576 92.075841 
L 95.834563 91.305986 
L 95.831544 90.536131 
L 95.835577 89.766276 
L 95.847593 88.996422 
L 95.868381 88.226567 
L 95.898552 87.456712 
L 95.938493 86.686857 
L 95.988325 85.917002 
L 96.047846 85.147148 
L 96.116504 84.377293 
L 96.193369 83.607438 
L 96.277141 82.837583 
L 96.366173 82.067728 
L 96.458527 81.297873 
L 96.552052 80.528019 
L 96.644484 79.758164 
L 96.733561 78.988309 
L 96.817144 78.218454 
L 96.893333 77.448599 
L 96.960584 76.678744 
L 97.017801 75.90889 
L 97.0644 75.139035 
L 97.100358 74.36918 
L 97.126216 73.599325 
L 97.143059 72.82947 
L 97.152459 72.059615 
L 97.156388 71.289761 
L 97.157115 70.519906 
L 97.15708 69.750051 
L 97.158754 68.980196 
L 97.164512 68.210341 
L 97.176497 67.440487 
L 97.196509 66.670632 
L 97.225917 65.900777 
L 97.265592 65.130922 
L 97.315878 64.361067 
L 97.376593 63.591212 
L 97.447056 62.821358 
L 97.526153 62.051503 
L 97.612413 61.281648 
L 97.704104 60.511793 
L 97.799343 59.741938 
L 97.896195 58.972083 
L 99.789311 58.972083 
L 99.789311 58.972083 
L 99.886164 59.741938 
L 99.981403 60.511793 
L 100.073094 61.281648 
L 100.159353 62.051503 
L 100.23845 62.821358 
L 100.308914 63.591212 
L 100.369629 64.361067 
L 100.419915 65.130922 
L 100.45959 65.900777 
L 100.488998 66.670632 
L 100.50901 67.440487 
L 100.520995 68.210341 
L 100.526753 68.980196 
L 100.528427 69.750051 
L 100.528392 70.519906 
L 100.529119 71.289761 
L 100.533048 72.059615 
L 100.542448 72.82947 
L 100.559291 73.599325 
L 100.585149 74.36918 
L 100.621107 75.139035 
L 100.667706 75.90889 
L 100.724923 76.678744 
L 100.792174 77.448599 
L 100.868363 78.218454 
L 100.951945 78.988309 
L 101.041023 79.758164 
L 101.133455 80.528019 
L 101.22698 81.297873 
L 101.319334 82.067728 
L 101.408366 82.837583 
L 101.492138 83.607438 
L 101.569003 84.377293 
L 101.637661 85.147148 
L 101.697182 85.917002 
L 101.747014 86.686857 
L 101.786955 87.456712 
L 101.817126 88.226567 
L 101.837914 88.996422 
L 101.84993 89.766276 
L 101.853963 90.536131 
L 101.850944 91.305986 
L 101.841931 92.075841 
L 101.828108 92.845696 
L 101.810795 93.615551 
L 101.791481 94.385405 
L 101.771854 95.15526 
L 101.753838 95.925115 
L 101.739617 96.69497 
L 101.731654 97.464825 
L 101.73268 98.23468 
L 101.745667 99.004534 
L 101.773773 99.774389 
L 101.820268 100.544244 
L 101.888437 101.314099 
L 101.981478 102.083954 
L 102.102382 102.853809 
L 102.253832 103.623663 
L 102.438099 104.393518 
L 102.656963 105.163373 
L 102.911646 105.933228 
L 103.202773 106.703083 
L 103.530346 107.472937 
L 103.893744 108.242792 
L 104.291724 109.012647 
L 104.722437 109.782502 
L 105.183436 110.552357 
L 105.671686 111.322212 
L 106.18356 112.092066 
L 106.714827 112.861921 
L 107.260633 113.631776 
L 107.815479 114.401631 
L 108.3732 115.171486 
L 108.926961 115.941341 
L 109.469274 116.711195 
L 109.992045 117.48105 
L 110.48667 118.250905 
L 110.944169 119.02076 
L 111.355379 119.790615 
L 111.711187 120.56047 
L 112.002813 121.330324 
L 112.222114 122.100179 
L 112.361915 122.870034 
L 112.416329 123.639889 
L 112.381054 124.409744 
L 112.253637 125.179598 
L 112.033664 125.949453 
L 111.722884 126.719308 
L 111.325234 127.489163 
L 110.846781 128.259018 
L 110.29556 129.028873 
L 109.681324 129.798727 
L 109.015222 130.568582 
L 108.309412 131.338437 
L 107.576633 132.108292 
L 106.829765 132.878147 
L 106.081386 133.648002 
L 105.343368 134.417856 
L 104.626516 135.187711 
z
" clip-path="url(#p5a2d3c5597)" style="fill: #ff8000; fill-opacity: 0.3"/>
   </g>
   <g id="matplotlib.axis_1">
    <g id="xtick_1">
     <g id="line2d_1">
      <defs>
       <path id="m12360e61dd" d="M 0 0 
L 0 3.5 
" style="stroke: #000000; stroke-width: 0.8"/>
      </defs>
      <g>
       <use xlink:href="#m12360e61dd" x="60.061109" y="179.399" style="stroke: #000000; stroke-width: 0.8"/>
      </g>
     </g>
     <g id="text_1">
      <!-- MSR -->
      <g transform="translate(33.394859 194.34525) scale(0.12 -0.12)">
       <defs>
        <path id="TimesNewRomanPS-BoldMT-4d" d="M 3050 1444 
L 4200 4238 
L 5925 4238 
L 5925 4122 
L 5788 4122 
Q 5600 4122 5488 4056 
Q 5409 4013 5363 3909 
Q 5328 3834 5328 3519 
L 5328 725 
Q 5328 400 5362 319 
Q 5397 238 5503 177 
Q 5609 116 5788 116 
L 5925 116 
L 5925 0 
L 3713 0 
L 3713 116 
L 3850 116 
Q 4038 116 4150 181 
Q 4228 225 4275 331 
Q 4309 406 4309 725 
L 4309 3866 
L 2684 0 
L 2609 0 
L 959 3838 
L 959 853 
Q 959 541 975 469 
Q 1016 313 1152 214 
Q 1288 116 1578 116 
L 1578 0 
L 128 0 
L 128 116 
L 172 116 
Q 313 113 434 161 
Q 556 209 618 290 
Q 681 372 716 519 
Q 722 553 722 838 
L 722 3519 
Q 722 3841 687 3920 
Q 653 4000 547 4061 
Q 441 4122 263 4122 
L 128 4122 
L 128 4238 
L 1859 4238 
L 3050 1444 
z
" transform="scale(0.015625)"/>
        <path id="TimesNewRomanPS-BoldMT-53" d="M 3006 4334 
L 3041 2922 
L 2913 2922 
Q 2822 3453 2467 3776 
Q 2113 4100 1700 4100 
Q 1381 4100 1195 3929 
Q 1009 3759 1009 3538 
Q 1009 3397 1075 3288 
Q 1166 3141 1366 2997 
Q 1513 2894 2044 2631 
Q 2788 2266 3047 1941 
Q 3303 1616 3303 1197 
Q 3303 666 2889 283 
Q 2475 -100 1838 -100 
Q 1638 -100 1459 -59 
Q 1281 -19 1013 94 
Q 863 156 766 156 
Q 684 156 593 93 
Q 503 31 447 -97 
L 331 -97 
L 331 1503 
L 447 1503 
Q 584 828 976 473 
Q 1369 119 1822 119 
Q 2172 119 2380 309 
Q 2588 500 2588 753 
Q 2588 903 2508 1043 
Q 2428 1184 2265 1311 
Q 2103 1438 1691 1641 
Q 1113 1925 859 2125 
Q 606 2325 470 2572 
Q 334 2819 334 3116 
Q 334 3622 706 3978 
Q 1078 4334 1644 4334 
Q 1850 4334 2044 4284 
Q 2191 4247 2402 4145 
Q 2613 4044 2697 4044 
Q 2778 4044 2825 4094 
Q 2872 4144 2913 4334 
L 3006 4334 
z
" transform="scale(0.015625)"/>
        <path id="TimesNewRomanPS-BoldMT-52" d="M 1700 1931 
L 1700 744 
Q 1700 400 1742 311 
Q 1784 222 1890 169 
Q 1997 116 2288 116 
L 2288 0 
L 119 0 
L 119 116 
Q 413 116 517 170 
Q 622 225 664 312 
Q 706 400 706 744 
L 706 3494 
Q 706 3838 664 3927 
Q 622 4016 515 4069 
Q 409 4122 119 4122 
L 119 4238 
L 2088 4238 
Q 2856 4238 3212 4131 
Q 3569 4025 3794 3739 
Q 4019 3453 4019 3069 
Q 4019 2600 3681 2294 
Q 3466 2100 3078 2003 
L 4097 569 
Q 4297 291 4381 222 
Q 4509 125 4678 116 
L 4678 0 
L 3344 0 
L 1978 1931 
L 1700 1931 
z
M 1700 4009 
L 1700 2153 
L 1878 2153 
Q 2313 2153 2528 2233 
Q 2744 2313 2867 2520 
Q 2991 2728 2991 3063 
Q 2991 3547 2764 3778 
Q 2538 4009 2034 4009 
L 1700 4009 
z
" transform="scale(0.015625)"/>
       </defs>
       <use xlink:href="#TimesNewRomanPS-BoldMT-4d"/>
       <use xlink:href="#TimesNewRomanPS-BoldMT-53" x="94.384766"/>
       <use xlink:href="#TimesNewRomanPS-BoldMT-52" x="150"/>
      </g>
     </g>
    </g>
    <g id="xtick_2">
     <g id="line2d_2">
      <g>
       <use xlink:href="#m12360e61dd" x="98.842753" y="179.399" style="stroke: #000000; stroke-width: 0.8"/>
      </g>
     </g>
     <g id="text_2">
      <!-- SBO -->
      <g transform="translate(74.831503 194.34525) scale(0.12 -0.12)">
       <defs>
        <path id="TimesNewRomanPS-BoldMT-42" d="M 2847 2247 
Q 3450 2106 3694 1906 
Q 4044 1622 4044 1169 
Q 4044 691 3659 378 
Q 3188 0 2288 0 
L 134 0 
L 134 116 
Q 428 116 533 170 
Q 638 225 680 312 
Q 722 400 722 744 
L 722 3494 
Q 722 3838 680 3927 
Q 638 4016 531 4069 
Q 425 4122 134 4122 
L 134 4238 
L 2166 4238 
Q 2894 4238 3197 4108 
Q 3500 3978 3675 3720 
Q 3850 3463 3850 3172 
Q 3850 2866 3628 2627 
Q 3406 2388 2847 2247 
z
M 1709 2331 
Q 2153 2331 2364 2431 
Q 2575 2531 2687 2712 
Q 2800 2894 2800 3175 
Q 2800 3456 2689 3636 
Q 2578 3816 2372 3909 
Q 2166 4003 1709 4000 
L 1709 2331 
z
M 1709 2088 
L 1709 728 
L 1706 572 
Q 1706 403 1792 317 
Q 1878 231 2047 231 
Q 2297 231 2508 342 
Q 2719 453 2831 664 
Q 2944 875 2944 1134 
Q 2944 1431 2806 1667 
Q 2669 1903 2428 1997 
Q 2188 2091 1709 2088 
z
" transform="scale(0.015625)"/>
        <path id="TimesNewRomanPS-BoldMT-4f" d="M 2472 4297 
Q 3484 4334 4117 3706 
Q 4750 3078 4750 2134 
Q 4750 1328 4278 716 
Q 3653 -97 2513 -97 
Q 1369 -97 744 678 
Q 250 1291 250 2131 
Q 250 3075 892 3704 
Q 1534 4334 2472 4297 
z
M 2509 4097 
Q 1928 4097 1625 3503 
Q 1378 3016 1378 2103 
Q 1378 1019 1759 500 
Q 2025 138 2503 138 
Q 2825 138 3041 294 
Q 3316 494 3469 933 
Q 3622 1372 3622 2078 
Q 3622 2919 3465 3336 
Q 3309 3753 3067 3925 
Q 2825 4097 2509 4097 
z
" transform="scale(0.015625)"/>
       </defs>
       <use xlink:href="#TimesNewRomanPS-BoldMT-53"/>
       <use xlink:href="#TimesNewRomanPS-BoldMT-42" x="55.615234"/>
       <use xlink:href="#TimesNewRomanPS-BoldMT-4f" x="122.314453"/>
      </g>
     </g>
    </g>
   </g>
   <g id="matplotlib.axis_2">
    <g id="ytick_1">
     <g id="line2d_3">
      <defs>
       <path id="m2f6c61afec" d="M 0 0 
L -3.5 0 
" style="stroke: #000000; stroke-width: 0.8"/>
      </defs>
      <g>
       <use xlink:href="#m2f6c61afec" x="43.191094" y="179.399" style="stroke: #000000; stroke-width: 0.8"/>
      </g>
     </g>
     <g id="text_3">
      <!-- 0.0 -->
      <g transform="translate(21.191094 183.56525) scale(0.12 -0.12)">
       <defs>
        <path id="TimesNewRomanPSMT-30" d="M 231 2094 
Q 231 2819 450 3342 
Q 669 3866 1031 4122 
Q 1313 4325 1613 4325 
Q 2100 4325 2488 3828 
Q 2972 3213 2972 2159 
Q 2972 1422 2759 906 
Q 2547 391 2217 158 
Q 1888 -75 1581 -75 
Q 975 -75 572 641 
Q 231 1244 231 2094 
z
M 844 2016 
Q 844 1141 1059 588 
Q 1238 122 1591 122 
Q 1759 122 1940 273 
Q 2122 425 2216 781 
Q 2359 1319 2359 2297 
Q 2359 3022 2209 3506 
Q 2097 3866 1919 4016 
Q 1791 4119 1609 4119 
Q 1397 4119 1231 3928 
Q 1006 3669 925 3112 
Q 844 2556 844 2016 
z
" transform="scale(0.015625)"/>
        <path id="TimesNewRomanPSMT-2e" d="M 800 606 
Q 947 606 1047 504 
Q 1147 403 1147 259 
Q 1147 116 1045 14 
Q 944 -88 800 -88 
Q 656 -88 554 14 
Q 453 116 453 259 
Q 453 406 554 506 
Q 656 606 800 606 
z
" transform="scale(0.015625)"/>
       </defs>
       <use xlink:href="#TimesNewRomanPSMT-30"/>
       <use xlink:href="#TimesNewRomanPSMT-2e" x="50"/>
       <use xlink:href="#TimesNewRomanPSMT-30" x="75"/>
      </g>
     </g>
    </g>
    <g id="ytick_2">
     <g id="line2d_4">
      <g>
       <use xlink:href="#m2f6c61afec" x="43.191094" y="152.233783" style="stroke: #000000; stroke-width: 0.8"/>
      </g>
     </g>
     <g id="text_4">
      <!-- 0.2 -->
      <g transform="translate(21.191094 156.400033) scale(0.12 -0.12)">
       <defs>
        <path id="TimesNewRomanPSMT-32" d="M 2934 816 
L 2638 0 
L 138 0 
L 138 116 
Q 1241 1122 1691 1759 
Q 2141 2397 2141 2925 
Q 2141 3328 1894 3587 
Q 1647 3847 1303 3847 
Q 991 3847 742 3664 
Q 494 3481 375 3128 
L 259 3128 
Q 338 3706 661 4015 
Q 984 4325 1469 4325 
Q 1984 4325 2329 3994 
Q 2675 3663 2675 3213 
Q 2675 2891 2525 2569 
Q 2294 2063 1775 1497 
Q 997 647 803 472 
L 1909 472 
Q 2247 472 2383 497 
Q 2519 522 2628 598 
Q 2738 675 2819 816 
L 2934 816 
z
" transform="scale(0.015625)"/>
       </defs>
       <use xlink:href="#TimesNewRomanPSMT-30"/>
       <use xlink:href="#TimesNewRomanPSMT-2e" x="50"/>
       <use xlink:href="#TimesNewRomanPSMT-32" x="75"/>
      </g>
     </g>
    </g>
    <g id="ytick_3">
     <g id="line2d_5">
      <g>
       <use xlink:href="#m2f6c61afec" x="43.191094" y="125.068565" style="stroke: #000000; stroke-width: 0.8"/>
      </g>
     </g>
     <g id="text_5">
      <!-- 0.4 -->
      <g transform="translate(21.191094 129.234815) scale(0.12 -0.12)">
       <defs>
        <path id="TimesNewRomanPSMT-34" d="M 2978 1563 
L 2978 1119 
L 2409 1119 
L 2409 0 
L 1894 0 
L 1894 1119 
L 100 1119 
L 100 1519 
L 2066 4325 
L 2409 4325 
L 2409 1563 
L 2978 1563 
z
M 1894 1563 
L 1894 3666 
L 406 1563 
L 1894 1563 
z
" transform="scale(0.015625)"/>
       </defs>
       <use xlink:href="#TimesNewRomanPSMT-30"/>
       <use xlink:href="#TimesNewRomanPSMT-2e" x="50"/>
       <use xlink:href="#TimesNewRomanPSMT-34" x="75"/>
      </g>
     </g>
    </g>
    <g id="ytick_4">
     <g id="line2d_6">
      <g>
       <use xlink:href="#m2f6c61afec" x="43.191094" y="97.903348" style="stroke: #000000; stroke-width: 0.8"/>
      </g>
     </g>
     <g id="text_6">
      <!-- 0.6 -->
      <g transform="translate(21.191094 102.069598) scale(0.12 -0.12)">
       <defs>
        <path id="TimesNewRomanPSMT-36" d="M 2869 4325 
L 2869 4209 
Q 2456 4169 2195 4045 
Q 1934 3922 1679 3669 
Q 1425 3416 1258 3105 
Q 1091 2794 978 2366 
Q 1428 2675 1881 2675 
Q 2316 2675 2634 2325 
Q 2953 1975 2953 1425 
Q 2953 894 2631 456 
Q 2244 -75 1606 -75 
Q 1172 -75 869 213 
Q 275 772 275 1663 
Q 275 2231 503 2743 
Q 731 3256 1154 3653 
Q 1578 4050 1965 4187 
Q 2353 4325 2688 4325 
L 2869 4325 
z
M 925 2138 
Q 869 1716 869 1456 
Q 869 1156 980 804 
Q 1091 453 1309 247 
Q 1469 100 1697 100 
Q 1969 100 2183 356 
Q 2397 613 2397 1088 
Q 2397 1622 2184 2012 
Q 1972 2403 1581 2403 
Q 1463 2403 1327 2353 
Q 1191 2303 925 2138 
z
" transform="scale(0.015625)"/>
       </defs>
       <use xlink:href="#TimesNewRomanPSMT-30"/>
       <use xlink:href="#TimesNewRomanPSMT-2e" x="50"/>
       <use xlink:href="#TimesNewRomanPSMT-36" x="75"/>
      </g>
     </g>
    </g>
    <g id="ytick_5">
     <g id="line2d_7">
      <g>
       <use xlink:href="#m2f6c61afec" x="43.191094" y="70.73813" style="stroke: #000000; stroke-width: 0.8"/>
      </g>
     </g>
     <g id="text_7">
      <!-- 0.8 -->
      <g transform="translate(21.191094 74.90438) scale(0.12 -0.12)">
       <defs>
        <path id="TimesNewRomanPSMT-38" d="M 1228 2134 
Q 725 2547 579 2797 
Q 434 3047 434 3316 
Q 434 3728 753 4026 
Q 1072 4325 1600 4325 
Q 2113 4325 2425 4047 
Q 2738 3769 2738 3413 
Q 2738 3175 2569 2928 
Q 2400 2681 1866 2347 
Q 2416 1922 2594 1678 
Q 2831 1359 2831 1006 
Q 2831 559 2490 242 
Q 2150 -75 1597 -75 
Q 994 -75 656 303 
Q 388 606 388 966 
Q 388 1247 577 1523 
Q 766 1800 1228 2134 
z
M 1719 2469 
Q 2094 2806 2194 3001 
Q 2294 3197 2294 3444 
Q 2294 3772 2109 3958 
Q 1925 4144 1606 4144 
Q 1288 4144 1088 3959 
Q 888 3775 888 3528 
Q 888 3366 970 3203 
Q 1053 3041 1206 2894 
L 1719 2469 
z
M 1375 2016 
Q 1116 1797 991 1539 
Q 866 1281 866 981 
Q 866 578 1086 336 
Q 1306 94 1647 94 
Q 1984 94 2187 284 
Q 2391 475 2391 747 
Q 2391 972 2272 1150 
Q 2050 1481 1375 2016 
z
" transform="scale(0.015625)"/>
       </defs>
       <use xlink:href="#TimesNewRomanPSMT-30"/>
       <use xlink:href="#TimesNewRomanPSMT-2e" x="50"/>
       <use xlink:href="#TimesNewRomanPSMT-38" x="75"/>
      </g>
     </g>
    </g>
    <g id="ytick_6">
     <g id="line2d_8">
      <g>
       <use xlink:href="#m2f6c61afec" x="43.191094" y="43.572913" style="stroke: #000000; stroke-width: 0.8"/>
      </g>
     </g>
     <g id="text_8">
      <!-- 1.0 -->
      <g transform="translate(21.191094 47.739163) scale(0.12 -0.12)">
       <defs>
        <path id="TimesNewRomanPSMT-31" d="M 750 3822 
L 1781 4325 
L 1884 4325 
L 1884 747 
Q 1884 391 1914 303 
Q 1944 216 2037 169 
Q 2131 122 2419 116 
L 2419 0 
L 825 0 
L 825 116 
Q 1125 122 1212 167 
Q 1300 213 1334 289 
Q 1369 366 1369 747 
L 1369 3034 
Q 1369 3497 1338 3628 
Q 1316 3728 1258 3775 
Q 1200 3822 1119 3822 
Q 1003 3822 797 3725 
L 750 3822 
z
" transform="scale(0.015625)"/>
       </defs>
       <use xlink:href="#TimesNewRomanPSMT-31"/>
       <use xlink:href="#TimesNewRomanPSMT-2e" x="50"/>
       <use xlink:href="#TimesNewRomanPSMT-30" x="75"/>
      </g>
     </g>
    </g>
    <g id="text_9">
     <!-- DS index of OS at $t_0$ -->
     <g transform="translate(14.838125 147.774) rotate(-90) scale(0.11 -0.11)">
      <defs>
       <path id="TimesNewRomanPSMT-44" d="M 109 0 
L 109 116 
L 269 116 
Q 538 116 650 288 
Q 719 391 719 750 
L 719 3488 
Q 719 3884 631 3984 
Q 509 4122 269 4122 
L 109 4122 
L 109 4238 
L 1834 4238 
Q 2784 4238 3279 4022 
Q 3775 3806 4076 3303 
Q 4378 2800 4378 2141 
Q 4378 1256 3841 663 
Q 3238 0 2003 0 
L 109 0 
z
M 1319 306 
Q 1716 219 1984 219 
Q 2709 219 3187 728 
Q 3666 1238 3666 2109 
Q 3666 2988 3187 3494 
Q 2709 4000 1959 4000 
Q 1678 4000 1319 3909 
L 1319 306 
z
" transform="scale(0.015625)"/>
       <path id="TimesNewRomanPSMT-53" d="M 2934 4334 
L 2934 2869 
L 2819 2869 
Q 2763 3291 2617 3541 
Q 2472 3791 2203 3937 
Q 1934 4084 1647 4084 
Q 1322 4084 1109 3886 
Q 897 3688 897 3434 
Q 897 3241 1031 3081 
Q 1225 2847 1953 2456 
Q 2547 2138 2764 1967 
Q 2981 1797 3098 1565 
Q 3216 1334 3216 1081 
Q 3216 600 2842 251 
Q 2469 -97 1881 -97 
Q 1697 -97 1534 -69 
Q 1438 -53 1133 45 
Q 828 144 747 144 
Q 669 144 623 97 
Q 578 50 556 -97 
L 441 -97 
L 441 1356 
L 556 1356 
Q 638 900 775 673 
Q 913 447 1195 297 
Q 1478 147 1816 147 
Q 2206 147 2432 353 
Q 2659 559 2659 841 
Q 2659 997 2573 1156 
Q 2488 1316 2306 1453 
Q 2184 1547 1640 1851 
Q 1097 2156 867 2337 
Q 638 2519 519 2737 
Q 400 2956 400 3219 
Q 400 3675 750 4004 
Q 1100 4334 1641 4334 
Q 1978 4334 2356 4169 
Q 2531 4091 2603 4091 
Q 2684 4091 2736 4139 
Q 2788 4188 2819 4334 
L 2934 4334 
z
" transform="scale(0.015625)"/>
       <path id="TimesNewRomanPSMT-20" transform="scale(0.015625)"/>
       <path id="TimesNewRomanPSMT-69" d="M 928 4444 
Q 1059 4444 1151 4351 
Q 1244 4259 1244 4128 
Q 1244 3997 1151 3903 
Q 1059 3809 928 3809 
Q 797 3809 703 3903 
Q 609 3997 609 4128 
Q 609 4259 701 4351 
Q 794 4444 928 4444 
z
M 1188 2947 
L 1188 647 
Q 1188 378 1227 289 
Q 1266 200 1342 156 
Q 1419 113 1622 113 
L 1622 0 
L 231 0 
L 231 113 
Q 441 113 512 153 
Q 584 194 626 287 
Q 669 381 669 647 
L 669 1750 
Q 669 2216 641 2353 
Q 619 2453 572 2492 
Q 525 2531 444 2531 
Q 356 2531 231 2484 
L 188 2597 
L 1050 2947 
L 1188 2947 
z
" transform="scale(0.015625)"/>
       <path id="TimesNewRomanPSMT-6e" d="M 1034 2341 
Q 1538 2947 1994 2947 
Q 2228 2947 2397 2830 
Q 2566 2713 2666 2444 
Q 2734 2256 2734 1869 
L 2734 647 
Q 2734 375 2778 278 
Q 2813 200 2889 156 
Q 2966 113 3172 113 
L 3172 0 
L 1756 0 
L 1756 113 
L 1816 113 
Q 2016 113 2095 173 
Q 2175 234 2206 353 
Q 2219 400 2219 647 
L 2219 1819 
Q 2219 2209 2117 2386 
Q 2016 2563 1775 2563 
Q 1403 2563 1034 2156 
L 1034 647 
Q 1034 356 1069 288 
Q 1113 197 1189 155 
Q 1266 113 1500 113 
L 1500 0 
L 84 0 
L 84 113 
L 147 113 
Q 366 113 442 223 
Q 519 334 519 647 
L 519 1709 
Q 519 2225 495 2337 
Q 472 2450 423 2490 
Q 375 2531 294 2531 
Q 206 2531 84 2484 
L 38 2597 
L 900 2947 
L 1034 2947 
L 1034 2341 
z
" transform="scale(0.015625)"/>
       <path id="TimesNewRomanPSMT-64" d="M 2222 322 
Q 2013 103 1813 7 
Q 1613 -88 1381 -88 
Q 913 -88 563 304 
Q 213 697 213 1313 
Q 213 1928 600 2439 
Q 988 2950 1597 2950 
Q 1975 2950 2222 2709 
L 2222 3238 
Q 2222 3728 2198 3840 
Q 2175 3953 2125 3993 
Q 2075 4034 2000 4034 
Q 1919 4034 1784 3984 
L 1744 4094 
L 2597 4444 
L 2738 4444 
L 2738 1134 
Q 2738 631 2761 520 
Q 2784 409 2836 365 
Q 2888 322 2956 322 
Q 3041 322 3181 375 
L 3216 266 
L 2366 -88 
L 2222 -88 
L 2222 322 
z
M 2222 541 
L 2222 2016 
Q 2203 2228 2109 2403 
Q 2016 2578 1861 2667 
Q 1706 2756 1559 2756 
Q 1284 2756 1069 2509 
Q 784 2184 784 1559 
Q 784 928 1059 592 
Q 1334 256 1672 256 
Q 1956 256 2222 541 
z
" transform="scale(0.015625)"/>
       <path id="TimesNewRomanPSMT-65" d="M 681 1784 
Q 678 1147 991 784 
Q 1303 422 1725 422 
Q 2006 422 2214 576 
Q 2422 731 2563 1106 
L 2659 1044 
Q 2594 616 2278 264 
Q 1963 -88 1488 -88 
Q 972 -88 605 314 
Q 238 716 238 1394 
Q 238 2128 614 2539 
Q 991 2950 1559 2950 
Q 2041 2950 2350 2633 
Q 2659 2316 2659 1784 
L 681 1784 
z
M 681 1966 
L 2006 1966 
Q 1991 2241 1941 2353 
Q 1863 2528 1708 2628 
Q 1553 2728 1384 2728 
Q 1125 2728 920 2526 
Q 716 2325 681 1966 
z
" transform="scale(0.015625)"/>
       <path id="TimesNewRomanPSMT-78" d="M 84 2863 
L 1431 2863 
L 1431 2747 
Q 1303 2747 1251 2703 
Q 1200 2659 1200 2588 
Q 1200 2513 1309 2356 
Q 1344 2306 1413 2200 
L 1616 1875 
L 1850 2200 
Q 2075 2509 2075 2591 
Q 2075 2656 2022 2701 
Q 1969 2747 1850 2747 
L 1850 2863 
L 2819 2863 
L 2819 2747 
Q 2666 2738 2553 2663 
Q 2400 2556 2134 2200 
L 1744 1678 
L 2456 653 
Q 2719 275 2831 198 
Q 2944 122 3122 113 
L 3122 0 
L 1772 0 
L 1772 113 
Q 1913 113 1991 175 
Q 2050 219 2050 291 
Q 2050 363 1850 653 
L 1431 1266 
L 972 653 
Q 759 369 759 316 
Q 759 241 829 180 
Q 900 119 1041 113 
L 1041 0 
L 106 0 
L 106 113 
Q 219 128 303 191 
Q 422 281 703 653 
L 1303 1450 
L 759 2238 
Q 528 2575 401 2661 
Q 275 2747 84 2747 
L 84 2863 
z
" transform="scale(0.015625)"/>
       <path id="TimesNewRomanPSMT-6f" d="M 1600 2947 
Q 2250 2947 2644 2453 
Q 2978 2031 2978 1484 
Q 2978 1100 2793 706 
Q 2609 313 2286 112 
Q 1963 -88 1566 -88 
Q 919 -88 538 428 
Q 216 863 216 1403 
Q 216 1797 411 2186 
Q 606 2575 925 2761 
Q 1244 2947 1600 2947 
z
M 1503 2744 
Q 1338 2744 1170 2645 
Q 1003 2547 900 2300 
Q 797 2053 797 1666 
Q 797 1041 1045 587 
Q 1294 134 1700 134 
Q 2003 134 2200 384 
Q 2397 634 2397 1244 
Q 2397 2006 2069 2444 
Q 1847 2744 1503 2744 
z
" transform="scale(0.015625)"/>
       <path id="TimesNewRomanPSMT-66" d="M 1319 2638 
L 1319 756 
Q 1319 356 1406 250 
Q 1522 113 1716 113 
L 1975 113 
L 1975 0 
L 266 0 
L 266 113 
L 394 113 
Q 519 113 622 175 
Q 725 238 764 344 
Q 803 450 803 756 
L 803 2638 
L 247 2638 
L 247 2863 
L 803 2863 
L 803 3050 
Q 803 3478 940 3775 
Q 1078 4072 1361 4255 
Q 1644 4438 1997 4438 
Q 2325 4438 2600 4225 
Q 2781 4084 2781 3909 
Q 2781 3816 2700 3733 
Q 2619 3650 2525 3650 
Q 2453 3650 2373 3701 
Q 2294 3753 2178 3923 
Q 2063 4094 1966 4153 
Q 1869 4213 1750 4213 
Q 1606 4213 1506 4136 
Q 1406 4059 1362 3898 
Q 1319 3738 1319 3069 
L 1319 2863 
L 2056 2863 
L 2056 2638 
L 1319 2638 
z
" transform="scale(0.015625)"/>
       <path id="TimesNewRomanPSMT-4f" d="M 2341 4334 
Q 3166 4334 3770 3707 
Q 4375 3081 4375 2144 
Q 4375 1178 3765 540 
Q 3156 -97 2291 -97 
Q 1416 -97 820 525 
Q 225 1147 225 2134 
Q 225 3144 913 3781 
Q 1509 4334 2341 4334 
z
M 2281 4106 
Q 1713 4106 1369 3684 
Q 941 3159 941 2147 
Q 941 1109 1384 550 
Q 1725 125 2284 125 
Q 2881 125 3270 590 
Q 3659 1056 3659 2059 
Q 3659 3147 3231 3681 
Q 2888 4106 2281 4106 
z
" transform="scale(0.015625)"/>
       <path id="TimesNewRomanPSMT-61" d="M 1822 413 
Q 1381 72 1269 19 
Q 1100 -59 909 -59 
Q 613 -59 420 144 
Q 228 347 228 678 
Q 228 888 322 1041 
Q 450 1253 767 1440 
Q 1084 1628 1822 1897 
L 1822 2009 
Q 1822 2438 1686 2597 
Q 1550 2756 1291 2756 
Q 1094 2756 978 2650 
Q 859 2544 859 2406 
L 866 2225 
Q 866 2081 792 2003 
Q 719 1925 600 1925 
Q 484 1925 411 2006 
Q 338 2088 338 2228 
Q 338 2497 613 2722 
Q 888 2947 1384 2947 
Q 1766 2947 2009 2819 
Q 2194 2722 2281 2516 
Q 2338 2381 2338 1966 
L 2338 994 
Q 2338 584 2353 492 
Q 2369 400 2405 369 
Q 2441 338 2488 338 
Q 2538 338 2575 359 
Q 2641 400 2828 588 
L 2828 413 
Q 2478 -56 2159 -56 
Q 2006 -56 1915 50 
Q 1825 156 1822 413 
z
M 1822 616 
L 1822 1706 
Q 1350 1519 1213 1441 
Q 966 1303 859 1153 
Q 753 1003 753 825 
Q 753 600 887 451 
Q 1022 303 1197 303 
Q 1434 303 1822 616 
z
" transform="scale(0.015625)"/>
       <path id="TimesNewRomanPSMT-74" d="M 1031 3803 
L 1031 2863 
L 1700 2863 
L 1700 2644 
L 1031 2644 
L 1031 788 
Q 1031 509 1111 412 
Q 1191 316 1316 316 
Q 1419 316 1516 380 
Q 1613 444 1666 569 
L 1788 569 
Q 1678 263 1478 108 
Q 1278 -47 1066 -47 
Q 922 -47 784 33 
Q 647 113 581 261 
Q 516 409 516 719 
L 516 2644 
L 63 2644 
L 63 2747 
Q 234 2816 414 2980 
Q 594 3144 734 3369 
Q 806 3488 934 3803 
L 1031 3803 
z
" transform="scale(0.015625)"/>
       <path id="DejaVuSans-Oblique-74" d="M 2706 3500 
L 2619 3053 
L 1472 3053 
L 1100 1153 
Q 1081 1047 1072 975 
Q 1063 903 1063 863 
Q 1063 663 1183 572 
Q 1303 481 1569 481 
L 2150 481 
L 2053 0 
L 1503 0 
Q 991 0 739 200 
Q 488 400 488 806 
Q 488 878 497 964 
Q 506 1050 525 1153 
L 897 3053 
L 409 3053 
L 500 3500 
L 978 3500 
L 1172 4494 
L 1747 4494 
L 1556 3500 
L 2706 3500 
z
" transform="scale(0.015625)"/>
       <path id="DejaVuSans-30" d="M 2034 4250 
Q 1547 4250 1301 3770 
Q 1056 3291 1056 2328 
Q 1056 1369 1301 889 
Q 1547 409 2034 409 
Q 2525 409 2770 889 
Q 3016 1369 3016 2328 
Q 3016 3291 2770 3770 
Q 2525 4250 2034 4250 
z
M 2034 4750 
Q 2819 4750 3233 4129 
Q 3647 3509 3647 2328 
Q 3647 1150 3233 529 
Q 2819 -91 2034 -91 
Q 1250 -91 836 529 
Q 422 1150 422 2328 
Q 422 3509 836 4129 
Q 1250 4750 2034 4750 
z
" transform="scale(0.015625)"/>
      </defs>
      <use xlink:href="#TimesNewRomanPSMT-44" transform="translate(0 0.78125)"/>
      <use xlink:href="#TimesNewRomanPSMT-53" transform="translate(72.216797 0.78125)"/>
      <use xlink:href="#TimesNewRomanPSMT-20" transform="translate(127.832031 0.78125)"/>
      <use xlink:href="#TimesNewRomanPSMT-69" transform="translate(152.832031 0.78125)"/>
      <use xlink:href="#TimesNewRomanPSMT-6e" transform="translate(180.615234 0.78125)"/>
      <use xlink:href="#TimesNewRomanPSMT-64" transform="translate(230.615234 0.78125)"/>
      <use xlink:href="#TimesNewRomanPSMT-65" transform="translate(280.615234 0.78125)"/>
      <use xlink:href="#TimesNewRomanPSMT-78" transform="translate(325 0.78125)"/>
      <use xlink:href="#TimesNewRomanPSMT-20" transform="translate(375 0.78125)"/>
      <use xlink:href="#TimesNewRomanPSMT-6f" transform="translate(400 0.78125)"/>
      <use xlink:href="#TimesNewRomanPSMT-66" transform="translate(450 0.78125)"/>
      <use xlink:href="#TimesNewRomanPSMT-20" transform="translate(483.300781 0.78125)"/>
      <use xlink:href="#TimesNewRomanPSMT-4f" transform="translate(508.300781 0.78125)"/>
      <use xlink:href="#TimesNewRomanPSMT-53" transform="translate(580.517578 0.78125)"/>
      <use xlink:href="#TimesNewRomanPSMT-20" transform="translate(636.132812 0.78125)"/>
      <use xlink:href="#TimesNewRomanPSMT-61" transform="translate(661.132812 0.78125)"/>
      <use xlink:href="#TimesNewRomanPSMT-74" transform="translate(705.517578 0.78125)"/>
      <use xlink:href="#TimesNewRomanPSMT-20" transform="translate(733.300781 0.78125)"/>
      <use xlink:href="#DejaVuSans-Oblique-74" transform="translate(758.300781 0.78125)"/>
      <use xlink:href="#DejaVuSans-30" transform="translate(797.509766 -15.625) scale(0.7)"/>
     </g>
    </g>
   </g>
   <g id="LineCollection_1">
    <path d="M 53.274321 107.674951 
L 66.847897 107.674951 
" clip-path="url(#p5a2d3c5597)" style="fill: none; stroke: #000000; stroke-width: 2"/>
    <path d="M 92.055966 112.896275 
L 105.629541 112.896275 
" clip-path="url(#p5a2d3c5597)" style="fill: none; stroke: #000000; stroke-width: 2"/>
   </g>
   <g id="LineCollection_2">
    <path d="M 53.274321 58.655005 
L 66.847897 58.655005 
" clip-path="url(#p5a2d3c5597)" style="fill: none; stroke: #1f77b4; stroke-width: 1.5"/>
    <path d="M 92.055966 58.972083 
L 105.629541 58.972083 
" clip-path="url(#p5a2d3c5597)" style="fill: none; stroke: #1f77b4; stroke-width: 1.5"/>
   </g>
   <g id="LineCollection_3">
    <path d="M 53.274321 132.880509 
L 66.847897 132.880509 
" clip-path="url(#p5a2d3c5597)" style="fill: none; stroke: #1f77b4; stroke-width: 1.5"/>
    <path d="M 92.055966 135.187711 
L 105.629541 135.187711 
" clip-path="url(#p5a2d3c5597)" style="fill: none; stroke: #1f77b4; stroke-width: 1.5"/>
   </g>
   <g id="LineCollection_4">
    <path d="M 60.061109 132.880509 
L 60.061109 58.655005 
" clip-path="url(#p5a2d3c5597)" style="fill: none; stroke: #1f77b4; stroke-width: 1.5"/>
    <path d="M 98.842753 135.187711 
L 98.842753 58.972083 
" clip-path="url(#p5a2d3c5597)" style="fill: none; stroke: #1f77b4; stroke-width: 1.5"/>
   </g>
   <g id="LineCollection_5">
    <path d="M 53.274321 114.724668 
L 66.847897 114.724668 
" clip-path="url(#p5a2d3c5597)" style="fill: none; stroke-dasharray: 2,3.3; stroke-dashoffset: 0; stroke: #808080; stroke-width: 2"/>
    <path d="M 92.055966 120.924635 
L 105.629541 120.924635 
" clip-path="url(#p5a2d3c5597)" style="fill: none; stroke-dasharray: 2,3.3; stroke-dashoffset: 0; stroke: #808080; stroke-width: 2"/>
   </g>
   <g id="patch_3">
    <path d="M 43.191094 179.399 
L 43.191094 23.199 
" style="fill: none; stroke: #000000; stroke-width: 0.8; stroke-linejoin: miter; stroke-linecap: square"/>
   </g>
   <g id="patch_4">
    <path d="M 115.712769 179.399 
L 115.712769 23.199 
" style="fill: none; stroke: #000000; stroke-width: 0.8; stroke-linejoin: miter; stroke-linecap: square"/>
   </g>
   <g id="patch_5">
    <path d="M 43.191094 179.399 
L 115.712769 179.399 
" style="fill: none; stroke: #000000; stroke-width: 0.8; stroke-linejoin: miter; stroke-linecap: square"/>
   </g>
   <g id="patch_6">
    <path d="M 43.191094 23.199 
L 115.712769 23.199 
" style="fill: none; stroke: #000000; stroke-width: 0.8; stroke-linejoin: miter; stroke-linecap: square"/>
   </g>
   <g id="text_10">
    <!-- 159 -->
    <g transform="translate(52.561109 39.183952) scale(0.1 -0.1)">
     <defs>
      <path id="TimesNewRomanPSMT-35" d="M 2778 4238 
L 2534 3706 
L 1259 3706 
L 981 3138 
Q 1809 3016 2294 2522 
Q 2709 2097 2709 1522 
Q 2709 1188 2573 903 
Q 2438 619 2231 419 
Q 2025 219 1772 97 
Q 1413 -75 1034 -75 
Q 653 -75 479 54 
Q 306 184 306 341 
Q 306 428 378 495 
Q 450 563 559 563 
Q 641 563 702 538 
Q 763 513 909 409 
Q 1144 247 1384 247 
Q 1750 247 2026 523 
Q 2303 800 2303 1197 
Q 2303 1581 2056 1914 
Q 1809 2247 1375 2428 
Q 1034 2569 447 2591 
L 1259 4238 
L 2778 4238 
z
" transform="scale(0.015625)"/>
      <path id="TimesNewRomanPSMT-39" d="M 338 -88 
L 338 28 
Q 744 34 1094 217 
Q 1444 400 1770 856 
Q 2097 1313 2225 1859 
Q 1734 1544 1338 1544 
Q 891 1544 572 1889 
Q 253 2234 253 2806 
Q 253 3363 572 3797 
Q 956 4325 1575 4325 
Q 2097 4325 2469 3894 
Q 2925 3359 2925 2575 
Q 2925 1869 2578 1258 
Q 2231 647 1613 244 
Q 1109 -88 516 -88 
L 338 -88 
z
M 2275 2091 
Q 2331 2497 2331 2741 
Q 2331 3044 2228 3395 
Q 2125 3747 1936 3934 
Q 1747 4122 1506 4122 
Q 1228 4122 1018 3872 
Q 809 3622 809 3128 
Q 809 2469 1088 2097 
Q 1291 1828 1588 1828 
Q 1731 1828 1928 1897 
Q 2125 1966 2275 2091 
z
" transform="scale(0.015625)"/>
     </defs>
     <use xlink:href="#TimesNewRomanPSMT-31"/>
     <use xlink:href="#TimesNewRomanPSMT-35" x="50"/>
     <use xlink:href="#TimesNewRomanPSMT-39" x="100"/>
    </g>
   </g>
   <g id="text_11">
    <!-- 195 -->
    <g transform="translate(91.342753 39.183952) scale(0.1 -0.1)">
     <use xlink:href="#TimesNewRomanPSMT-31"/>
     <use xlink:href="#TimesNewRomanPSMT-39" x="50"/>
     <use xlink:href="#TimesNewRomanPSMT-35" x="100"/>
    </g>
   </g>
   <g id="text_12">
    <!-- 3 Vessels -->
    <g transform="translate(52.979556 17.199) scale(0.144 -0.144)">
     <defs>
      <path id="TimesNewRomanPSMT-33" d="M 325 3431 
Q 506 3859 782 4092 
Q 1059 4325 1472 4325 
Q 1981 4325 2253 3994 
Q 2459 3747 2459 3466 
Q 2459 3003 1878 2509 
Q 2269 2356 2469 2072 
Q 2669 1788 2669 1403 
Q 2669 853 2319 450 
Q 1863 -75 997 -75 
Q 569 -75 414 31 
Q 259 138 259 259 
Q 259 350 332 419 
Q 406 488 509 488 
Q 588 488 669 463 
Q 722 447 909 348 
Q 1097 250 1169 231 
Q 1284 197 1416 197 
Q 1734 197 1970 444 
Q 2206 691 2206 1028 
Q 2206 1275 2097 1509 
Q 2016 1684 1919 1775 
Q 1784 1900 1550 2001 
Q 1316 2103 1072 2103 
L 972 2103 
L 972 2197 
Q 1219 2228 1467 2375 
Q 1716 2522 1828 2728 
Q 1941 2934 1941 3181 
Q 1941 3503 1739 3701 
Q 1538 3900 1238 3900 
Q 753 3900 428 3381 
L 325 3431 
z
" transform="scale(0.015625)"/>
      <path id="TimesNewRomanPSMT-56" d="M 4544 4238 
L 4544 4122 
Q 4319 4081 4203 3978 
Q 4038 3825 3909 3509 
L 2431 -97 
L 2316 -97 
L 728 3556 
Q 606 3838 556 3900 
Q 478 3997 364 4051 
Q 250 4106 56 4122 
L 56 4238 
L 1788 4238 
L 1788 4122 
Q 1494 4094 1406 4022 
Q 1319 3950 1319 3838 
Q 1319 3681 1463 3350 
L 2541 866 
L 3541 3319 
Q 3688 3681 3688 3822 
Q 3688 3913 3597 3995 
Q 3506 4078 3291 4113 
Q 3275 4116 3238 4122 
L 3238 4238 
L 4544 4238 
z
" transform="scale(0.015625)"/>
      <path id="TimesNewRomanPSMT-73" d="M 2050 2947 
L 2050 1972 
L 1947 1972 
Q 1828 2431 1642 2597 
Q 1456 2763 1169 2763 
Q 950 2763 815 2647 
Q 681 2531 681 2391 
Q 681 2216 781 2091 
Q 878 1963 1175 1819 
L 1631 1597 
Q 2266 1288 2266 781 
Q 2266 391 1970 151 
Q 1675 -88 1309 -88 
Q 1047 -88 709 6 
Q 606 38 541 38 
Q 469 38 428 -44 
L 325 -44 
L 325 978 
L 428 978 
Q 516 541 762 319 
Q 1009 97 1316 97 
Q 1531 97 1667 223 
Q 1803 350 1803 528 
Q 1803 744 1651 891 
Q 1500 1038 1047 1263 
Q 594 1488 453 1669 
Q 313 1847 313 2119 
Q 313 2472 555 2709 
Q 797 2947 1181 2947 
Q 1350 2947 1591 2875 
Q 1750 2828 1803 2828 
Q 1853 2828 1881 2850 
Q 1909 2872 1947 2947 
L 2050 2947 
z
" transform="scale(0.015625)"/>
      <path id="TimesNewRomanPSMT-6c" d="M 1184 4444 
L 1184 647 
Q 1184 378 1223 290 
Q 1263 203 1344 158 
Q 1425 113 1647 113 
L 1647 0 
L 244 0 
L 244 113 
Q 441 113 512 153 
Q 584 194 625 287 
Q 666 381 666 647 
L 666 3247 
Q 666 3731 644 3842 
Q 622 3953 573 3993 
Q 525 4034 450 4034 
Q 369 4034 244 3984 
L 191 4094 
L 1044 4444 
L 1184 4444 
z
" transform="scale(0.015625)"/>
     </defs>
     <use xlink:href="#TimesNewRomanPSMT-33"/>
     <use xlink:href="#TimesNewRomanPSMT-20" x="50"/>
     <use xlink:href="#TimesNewRomanPSMT-56" x="73.25"/>
     <use xlink:href="#TimesNewRomanPSMT-65" x="134.341797"/>
     <use xlink:href="#TimesNewRomanPSMT-73" x="178.726562"/>
     <use xlink:href="#TimesNewRomanPSMT-73" x="217.642578"/>
     <use xlink:href="#TimesNewRomanPSMT-65" x="256.558594"/>
     <use xlink:href="#TimesNewRomanPSMT-6c" x="300.943359"/>
     <use xlink:href="#TimesNewRomanPSMT-73" x="328.726562"/>
    </g>
   </g>
  </g>
  <g id="axes_2">
   <g id="patch_7">
    <path d="M 141.242535 179.399 
L 213.76421 179.399 
L 213.76421 23.199 
L 141.242535 23.199 
z
" style="fill: #ffffff"/>
   </g>
   <g id="PolyCollection_3">
    <path d="M 163.432275 135.187711 
L 152.792826 135.187711 
L 152.098813 134.277573 
L 151.374706 133.367434 
L 150.630207 132.457296 
L 149.87652 131.547157 
L 149.126062 130.637019 
L 148.392088 129.72688 
L 147.688256 128.816742 
L 147.028143 127.906603 
L 146.424753 126.996465 
L 145.890023 126.086326 
L 145.434376 125.176188 
L 145.066338 124.266049 
L 144.792231 123.355911 
L 144.615972 122.445772 
L 144.538975 121.535634 
L 144.560167 120.625495 
L 144.676095 119.715357 
L 144.881137 118.805218 
L 145.167778 117.89508 
L 145.526947 116.984941 
L 145.948384 116.074803 
L 146.421032 115.164664 
L 146.933421 114.254526 
L 147.474031 113.344387 
L 148.031633 112.434249 
L 148.595585 111.52411 
L 149.156077 110.613972 
L 149.704338 109.703833 
L 150.232775 108.793695 
L 150.735075 107.883556 
L 151.206251 106.973418 
L 151.642646 106.063279 
L 152.041895 105.153141 
L 152.402849 104.243003 
L 152.72548 103.332864 
L 153.010749 102.422726 
L 153.260469 101.512587 
L 153.477148 100.602449 
L 153.663828 99.69231 
L 153.823928 98.782172 
L 153.961086 97.872033 
L 154.079005 96.961895 
L 154.181322 96.051756 
L 154.271475 95.141618 
L 154.3526 94.231479 
L 154.427437 93.321341 
L 154.498261 92.411202 
L 154.566836 91.501064 
L 154.634385 90.590925 
L 154.701592 89.680787 
L 154.76862 88.770648 
L 154.835157 87.86051 
L 154.900474 86.950371 
L 154.96351 86.040233 
L 155.022956 85.130094 
L 155.077362 84.219956 
L 155.125236 83.309817 
L 155.165143 82.399679 
L 155.195808 81.48954 
L 155.216194 80.579402 
L 155.225577 79.669263 
L 155.223604 78.759125 
L 155.210329 77.848986 
L 155.186242 76.938848 
L 155.152266 76.028709 
L 155.109751 75.118571 
L 155.060438 74.208432 
L 155.00642 73.298294 
L 154.950076 72.388155 
L 154.894002 71.478017 
L 154.840924 70.567878 
L 154.793604 69.65774 
L 154.754745 68.747601 
L 154.726884 67.837463 
L 154.712301 66.927324 
L 154.712923 66.017186 
L 154.730248 65.107047 
L 154.765282 64.196909 
L 154.818499 63.28677 
L 154.889825 62.376632 
L 154.978643 61.466493 
L 155.083829 60.556355 
L 155.203803 59.646216 
L 155.336608 58.736078 
L 155.479999 57.825939 
L 155.631543 56.915801 
L 155.788718 56.005663 
L 155.949018 55.095524 
L 156.110039 54.185386 
L 156.269562 53.275247 
L 156.425611 52.365109 
L 156.576498 51.45497 
L 156.720848 50.544832 
L 156.857607 49.634693 
L 156.98603 48.724555 
L 157.105661 47.814416 
L 157.216298 46.904278 
L 157.31796 45.994139 
L 157.410838 45.084001 
L 158.814264 45.084001 
L 158.814264 45.084001 
L 158.907141 45.994139 
L 159.008803 46.904278 
L 159.119441 47.814416 
L 159.239072 48.724555 
L 159.367495 49.634693 
L 159.504253 50.544832 
L 159.648604 51.45497 
L 159.799491 52.365109 
L 159.955539 53.275247 
L 160.115062 54.185386 
L 160.276084 55.095524 
L 160.436383 56.005663 
L 160.593559 56.915801 
L 160.745102 57.825939 
L 160.888494 58.736078 
L 161.021299 59.646216 
L 161.141273 60.556355 
L 161.246458 61.466493 
L 161.335276 62.376632 
L 161.406602 63.28677 
L 161.45982 64.196909 
L 161.494853 65.107047 
L 161.512178 66.017186 
L 161.5128 66.927324 
L 161.498217 67.837463 
L 161.470357 68.747601 
L 161.431497 69.65774 
L 161.384178 70.567878 
L 161.331099 71.478017 
L 161.275025 72.388155 
L 161.218681 73.298294 
L 161.164663 74.208432 
L 161.11535 75.118571 
L 161.072835 76.028709 
L 161.03886 76.938848 
L 161.014772 77.848986 
L 161.001498 78.759125 
L 160.999524 79.669263 
L 161.008907 80.579402 
L 161.029293 81.48954 
L 161.059958 82.399679 
L 161.099866 83.309817 
L 161.147739 84.219956 
L 161.202145 85.130094 
L 161.261592 86.040233 
L 161.324627 86.950371 
L 161.389945 87.86051 
L 161.456481 88.770648 
L 161.52351 89.680787 
L 161.590716 90.590925 
L 161.658265 91.501064 
L 161.72684 92.411202 
L 161.797665 93.321341 
L 161.872502 94.231479 
L 161.953626 95.141618 
L 162.043779 96.051756 
L 162.146096 96.961895 
L 162.264016 97.872033 
L 162.401173 98.782172 
L 162.561274 99.69231 
L 162.747954 100.602449 
L 162.964632 101.512587 
L 163.214352 102.422726 
L 163.499622 103.332864 
L 163.822253 104.243003 
L 164.183207 105.153141 
L 164.582455 106.063279 
L 165.01885 106.973418 
L 165.490027 107.883556 
L 165.992327 108.793695 
L 166.520764 109.703833 
L 167.069024 110.613972 
L 167.629517 111.52411 
L 168.193468 112.434249 
L 168.751071 113.344387 
L 169.291681 114.254526 
L 169.804069 115.164664 
L 170.276718 116.074803 
L 170.698155 116.984941 
L 171.057323 117.89508 
L 171.343965 118.805218 
L 171.549007 119.715357 
L 171.664935 120.625495 
L 171.686126 121.535634 
L 171.60913 122.445772 
L 171.43287 123.355911 
L 171.158763 124.266049 
L 170.790725 125.176188 
L 170.335079 126.086326 
L 169.800348 126.996465 
L 169.196958 127.906603 
L 168.536846 128.816742 
L 167.833013 129.72688 
L 167.09904 130.637019 
L 166.348582 131.547157 
L 165.594895 132.457296 
L 164.850396 133.367434 
L 164.126289 134.277573 
L 163.432275 135.187711 
z
" clip-path="url(#pa54d573ab6)" style="fill: #0080ff; fill-opacity: 0.3"/>
   </g>
   <g id="PolyCollection_4">
    <path d="M 201.730311 132.880509 
L 192.05808 132.880509 
L 191.260411 132.036183 
L 190.412804 131.191856 
L 189.530234 130.347529 
L 188.631031 129.503203 
L 187.736265 128.658876 
L 186.868858 127.814549 
L 186.052455 126.970223 
L 185.310154 126.125896 
L 184.663159 125.281569 
L 184.129513 124.437243 
L 183.722993 123.592916 
L 183.452304 122.748589 
L 183.32062 121.904262 
L 183.325546 121.059936 
L 183.459476 120.215609 
L 183.710308 119.371282 
L 184.062446 118.526956 
L 184.497958 117.682629 
L 184.997801 116.838302 
L 185.542963 115.993976 
L 186.115462 115.149649 
L 186.699108 114.305322 
L 187.280003 113.460996 
L 187.846792 112.616669 
L 188.390672 111.772342 
L 188.905228 110.928016 
L 189.386146 110.083689 
L 189.830864 109.239362 
L 190.23821 108.395036 
L 190.60807 107.550709 
L 190.941093 106.706382 
L 191.238469 105.862056 
L 191.50174 105.017729 
L 191.732673 104.173402 
L 191.933158 103.329076 
L 192.105134 102.484749 
L 192.250535 101.640422 
L 192.371252 100.796096 
L 192.469115 99.951769 
L 192.545894 99.107442 
L 192.603318 98.263116 
L 192.643113 97.418789 
L 192.66706 96.574462 
L 192.677051 95.730136 
L 192.67515 94.885809 
L 192.663631 94.041482 
L 192.645004 93.197155 
L 192.621998 92.352829 
L 192.597526 91.508502 
L 192.574604 90.664175 
L 192.556259 89.819849 
L 192.545412 88.975522 
L 192.544765 88.131195 
L 192.556691 87.286869 
L 192.583151 86.442542 
L 192.625621 85.598215 
L 192.685058 84.753889 
L 192.761883 83.909562 
L 192.855982 83.065235 
L 192.96673 82.220909 
L 193.093013 81.376582 
L 193.233265 80.532255 
L 193.385504 79.687929 
L 193.547379 78.843602 
L 193.716236 77.999275 
L 193.88919 77.154949 
L 194.063225 76.310622 
L 194.235319 75.466295 
L 194.402574 74.621969 
L 194.562369 73.777642 
L 194.712501 72.933315 
L 194.851314 72.088989 
L 194.977792 71.244662 
L 195.091615 70.400335 
L 195.193156 69.556009 
L 195.28343 68.711682 
L 195.363981 67.867355 
L 195.436733 67.023029 
L 195.503814 66.178702 
L 195.567363 65.334375 
L 195.629349 64.490048 
L 195.691415 63.645722 
L 195.754763 62.801395 
L 195.820087 61.957068 
L 195.887562 61.112742 
L 195.956884 60.268415 
L 196.027349 59.424088 
L 196.097971 58.579762 
L 196.167611 57.735435 
L 196.235105 56.891108 
L 196.299389 56.046782 
L 196.35959 55.202455 
L 196.415091 54.358128 
L 196.46556 53.513802 
L 196.510946 52.669475 
L 196.551448 51.825148 
L 196.587458 50.980822 
L 196.619496 50.136495 
L 196.648144 49.292168 
L 197.140246 49.292168 
L 197.140246 49.292168 
L 197.168894 50.136495 
L 197.200933 50.980822 
L 197.236942 51.825148 
L 197.277444 52.669475 
L 197.322831 53.513802 
L 197.3733 54.358128 
L 197.4288 55.202455 
L 197.489001 56.046782 
L 197.553285 56.891108 
L 197.620779 57.735435 
L 197.690419 58.579762 
L 197.761041 59.424088 
L 197.831506 60.268415 
L 197.900828 61.112742 
L 197.968303 61.957068 
L 198.033627 62.801395 
L 198.096975 63.645722 
L 198.159041 64.490048 
L 198.221027 65.334375 
L 198.284576 66.178702 
L 198.351657 67.023029 
L 198.424409 67.867355 
L 198.50496 68.711682 
L 198.595234 69.556009 
L 198.696776 70.400335 
L 198.810599 71.244662 
L 198.937076 72.088989 
L 199.075889 72.933315 
L 199.226021 73.777642 
L 199.385816 74.621969 
L 199.553072 75.466295 
L 199.725165 76.310622 
L 199.899201 77.154949 
L 200.072154 77.999275 
L 200.241011 78.843602 
L 200.402887 79.687929 
L 200.555125 80.532255 
L 200.695377 81.376582 
L 200.82166 82.220909 
L 200.932408 83.065235 
L 201.026508 83.909562 
L 201.103332 84.753889 
L 201.162769 85.598215 
L 201.205239 86.442542 
L 201.231699 87.286869 
L 201.243626 88.131195 
L 201.242978 88.975522 
L 201.232131 89.819849 
L 201.213786 90.664175 
L 201.190864 91.508502 
L 201.166392 92.352829 
L 201.143386 93.197155 
L 201.124759 94.041482 
L 201.11324 94.885809 
L 201.111339 95.730136 
L 201.12133 96.574462 
L 201.145277 97.418789 
L 201.185073 98.263116 
L 201.242496 99.107442 
L 201.319275 99.951769 
L 201.417139 100.796096 
L 201.537856 101.640422 
L 201.683256 102.484749 
L 201.855232 103.329076 
L 202.055717 104.173402 
L 202.28665 105.017729 
L 202.549921 105.862056 
L 202.847297 106.706382 
L 203.180321 107.550709 
L 203.55018 108.395036 
L 203.957526 109.239362 
L 204.402244 110.083689 
L 204.883162 110.928016 
L 205.397718 111.772342 
L 205.941598 112.616669 
L 206.508387 113.460996 
L 207.089283 114.305322 
L 207.672928 115.149649 
L 208.245428 115.993976 
L 208.79059 116.838302 
L 209.290432 117.682629 
L 209.725944 118.526956 
L 210.078082 119.371282 
L 210.328914 120.215609 
L 210.462844 121.059936 
L 210.467771 121.904262 
L 210.336087 122.748589 
L 210.065397 123.592916 
L 209.658877 124.437243 
L 209.125231 125.281569 
L 208.478236 126.125896 
L 207.735935 126.970223 
L 206.919533 127.814549 
L 206.052125 128.658876 
L 205.157359 129.503203 
L 204.258156 130.347529 
L 203.375586 131.191856 
L 202.527979 132.036183 
L 201.730311 132.880509 
z
" clip-path="url(#pa54d573ab6)" style="fill: #ff8000; fill-opacity: 0.3"/>
   </g>
   <g id="matplotlib.axis_3">
    <g id="xtick_3">
     <g id="line2d_9">
      <g>
       <use xlink:href="#m12360e61dd" x="158.112551" y="179.399" style="stroke: #000000; stroke-width: 0.8"/>
      </g>
     </g>
     <g id="text_13">
      <!-- MSR -->
      <g transform="translate(131.446301 194.34525) scale(0.12 -0.12)">
       <use xlink:href="#TimesNewRomanPS-BoldMT-4d"/>
       <use xlink:href="#TimesNewRomanPS-BoldMT-53" x="94.384766"/>
       <use xlink:href="#TimesNewRomanPS-BoldMT-52" x="150"/>
      </g>
     </g>
    </g>
    <g id="xtick_4">
     <g id="line2d_10">
      <g>
       <use xlink:href="#m12360e61dd" x="196.894195" y="179.399" style="stroke: #000000; stroke-width: 0.8"/>
      </g>
     </g>
     <g id="text_14">
      <!-- SBO -->
      <g transform="translate(172.882945 194.34525) scale(0.12 -0.12)">
       <use xlink:href="#TimesNewRomanPS-BoldMT-53"/>
       <use xlink:href="#TimesNewRomanPS-BoldMT-42" x="55.615234"/>
       <use xlink:href="#TimesNewRomanPS-BoldMT-4f" x="122.314453"/>
      </g>
     </g>
    </g>
   </g>
   <g id="matplotlib.axis_4"/>
   <g id="LineCollection_6">
    <path d="M 151.325763 106.598285 
L 164.899338 106.598285 
" clip-path="url(#pa54d573ab6)" style="fill: none; stroke: #000000; stroke-width: 2"/>
    <path d="M 190.107407 108.653555 
L 203.680983 108.653555 
" clip-path="url(#pa54d573ab6)" style="fill: none; stroke: #000000; stroke-width: 2"/>
   </g>
   <g id="LineCollection_7">
    <path d="M 151.325763 45.084001 
L 164.899338 45.084001 
" clip-path="url(#pa54d573ab6)" style="fill: none; stroke: #1f77b4; stroke-width: 1.5"/>
    <path d="M 190.107407 49.292168 
L 203.680983 49.292168 
" clip-path="url(#pa54d573ab6)" style="fill: none; stroke: #1f77b4; stroke-width: 1.5"/>
   </g>
   <g id="LineCollection_8">
    <path d="M 151.325763 135.187711 
L 164.899338 135.187711 
" clip-path="url(#pa54d573ab6)" style="fill: none; stroke: #1f77b4; stroke-width: 1.5"/>
    <path d="M 190.107407 132.880509 
L 203.680983 132.880509 
" clip-path="url(#pa54d573ab6)" style="fill: none; stroke: #1f77b4; stroke-width: 1.5"/>
   </g>
   <g id="LineCollection_9">
    <path d="M 158.112551 135.187711 
L 158.112551 45.084001 
" clip-path="url(#pa54d573ab6)" style="fill: none; stroke: #1f77b4; stroke-width: 1.5"/>
    <path d="M 196.894195 132.880509 
L 196.894195 49.292168 
" clip-path="url(#pa54d573ab6)" style="fill: none; stroke: #1f77b4; stroke-width: 1.5"/>
   </g>
   <g id="LineCollection_10">
    <path d="M 151.325763 115.868366 
L 164.899338 115.868366 
" clip-path="url(#pa54d573ab6)" style="fill: none; stroke-dasharray: 2,3.3; stroke-dashoffset: 0; stroke: #808080; stroke-width: 2"/>
    <path d="M 190.107407 115.868366 
L 203.680983 115.868366 
" clip-path="url(#pa54d573ab6)" style="fill: none; stroke-dasharray: 2,3.3; stroke-dashoffset: 0; stroke: #808080; stroke-width: 2"/>
   </g>
   <g id="patch_8">
    <path d="M 141.242535 179.399 
L 141.242535 23.199 
" style="fill: none; stroke: #000000; stroke-width: 0.8; stroke-linejoin: miter; stroke-linecap: square"/>
   </g>
   <g id="patch_9">
    <path d="M 213.76421 179.399 
L 213.76421 23.199 
" style="fill: none; stroke: #000000; stroke-width: 0.8; stroke-linejoin: miter; stroke-linecap: square"/>
   </g>
   <g id="patch_10">
    <path d="M 141.242535 179.399 
L 213.76421 179.399 
" style="fill: none; stroke: #000000; stroke-width: 0.8; stroke-linejoin: miter; stroke-linecap: square"/>
   </g>
   <g id="patch_11">
    <path d="M 141.242535 23.199 
L 213.76421 23.199 
" style="fill: none; stroke: #000000; stroke-width: 0.8; stroke-linejoin: miter; stroke-linecap: square"/>
   </g>
   <g id="text_15">
    <!-- 149 -->
    <g transform="translate(150.612551 39.183952) scale(0.1 -0.1)">
     <use xlink:href="#TimesNewRomanPSMT-31"/>
     <use xlink:href="#TimesNewRomanPSMT-34" x="50"/>
     <use xlink:href="#TimesNewRomanPSMT-39" x="100"/>
    </g>
   </g>
   <g id="text_16">
    <!-- 205 -->
    <g transform="translate(189.394195 39.183952) scale(0.1 -0.1)">
     <use xlink:href="#TimesNewRomanPSMT-32"/>
     <use xlink:href="#TimesNewRomanPSMT-30" x="50"/>
     <use xlink:href="#TimesNewRomanPSMT-35" x="100"/>
    </g>
   </g>
   <g id="text_17">
    <!-- 4 Vessels -->
    <g transform="translate(151.030998 17.199) scale(0.144 -0.144)">
     <use xlink:href="#TimesNewRomanPSMT-34"/>
     <use xlink:href="#TimesNewRomanPSMT-20" x="50"/>
     <use xlink:href="#TimesNewRomanPSMT-56" x="73.25"/>
     <use xlink:href="#TimesNewRomanPSMT-65" x="134.341797"/>
     <use xlink:href="#TimesNewRomanPSMT-73" x="178.726562"/>
     <use xlink:href="#TimesNewRomanPSMT-73" x="217.642578"/>
     <use xlink:href="#TimesNewRomanPSMT-65" x="256.558594"/>
     <use xlink:href="#TimesNewRomanPSMT-6c" x="300.943359"/>
     <use xlink:href="#TimesNewRomanPSMT-73" x="328.726562"/>
    </g>
   </g>
  </g>
  <g id="axes_3">
   <g id="patch_12">
    <path d="M 239.293977 179.399 
L 311.815652 179.399 
L 311.815652 23.199 
L 239.293977 23.199 
z
" style="fill: #ffffff"/>
   </g>
   <g id="PolyCollection_5">
    <path d="M 265.577863 127.0699 
L 246.750122 127.0699 
L 246.20055 126.356885 
L 245.673605 125.643869 
L 245.174978 124.930853 
L 244.709972 124.217837 
L 244.283373 123.504821 
L 243.89935 122.791805 
L 243.561351 122.07879 
L 243.272045 121.365774 
L 243.033264 120.652758 
L 242.84599 119.939742 
L 242.710351 119.226726 
L 242.625652 118.513711 
L 242.590417 117.800695 
L 242.602461 117.087679 
L 242.658971 116.374663 
L 242.756603 115.661647 
L 242.891587 114.948631 
L 243.059839 114.235616 
L 243.257067 113.5226 
L 243.478889 112.809584 
L 243.720932 112.096568 
L 243.97893 111.383552 
L 244.248814 110.670537 
L 244.526783 109.957521 
L 244.809371 109.244505 
L 245.093493 108.531489 
L 245.376483 107.818473 
L 245.65611 107.105457 
L 245.930588 106.392442 
L 246.198571 105.679426 
L 246.459131 104.96641 
L 246.711731 104.253394 
L 246.956183 103.540378 
L 247.192601 102.827363 
L 247.421351 102.114347 
L 247.642985 101.401331 
L 247.858187 100.688315 
L 248.067707 99.975299 
L 248.272305 99.262283 
L 248.472693 98.549268 
L 248.669489 97.836252 
L 248.863169 97.123236 
L 249.054036 96.41022 
L 249.242198 95.697204 
L 249.427547 94.984189 
L 249.60976 94.271173 
L 249.788302 93.558157 
L 249.962439 92.845141 
L 250.131262 92.132125 
L 250.293712 91.419109 
L 250.448618 90.706094 
L 250.594731 89.993078 
L 250.730765 89.280062 
L 250.855435 88.567046 
L 250.967494 87.85403 
L 251.065776 87.141015 
L 251.149222 86.427999 
L 251.216916 85.714983 
L 251.268109 85.001967 
L 251.302241 84.288951 
L 251.318962 83.575935 
L 251.318144 82.86292 
L 251.299897 82.149904 
L 251.26457 81.436888 
L 251.212763 80.723872 
L 251.145326 80.010856 
L 251.063359 79.297841 
L 250.968207 78.584825 
L 250.861455 77.871809 
L 250.744919 77.158793 
L 250.620627 76.445777 
L 250.490803 75.732761 
L 250.357843 75.019746 
L 250.224288 74.30673 
L 250.092785 73.593714 
L 249.966052 72.880698 
L 249.846833 72.167682 
L 249.737848 71.454667 
L 249.641745 70.741651 
L 249.561045 70.028635 
L 249.49809 69.315619 
L 249.454989 68.602603 
L 249.433573 67.889587 
L 249.435347 67.176572 
L 249.461454 66.463556 
L 249.512649 65.75054 
L 249.589272 65.037524 
L 249.691247 64.324508 
L 249.818077 63.611493 
L 249.968856 62.898477 
L 250.142293 62.185461 
L 250.336747 61.472445 
L 250.550259 60.759429 
L 250.780607 60.046413 
L 251.025356 59.333398 
L 251.281916 58.620382 
L 251.547597 57.907366 
L 251.819671 57.19435 
L 252.095429 56.481334 
L 260.232555 56.481334 
L 260.232555 56.481334 
L 260.508313 57.19435 
L 260.780388 57.907366 
L 261.046069 58.620382 
L 261.302629 59.333398 
L 261.547378 60.046413 
L 261.777726 60.759429 
L 261.991238 61.472445 
L 262.185691 62.185461 
L 262.359129 62.898477 
L 262.509908 63.611493 
L 262.636737 64.324508 
L 262.738712 65.037524 
L 262.815336 65.75054 
L 262.86653 66.463556 
L 262.892638 67.176572 
L 262.894411 67.889587 
L 262.872995 68.602603 
L 262.829895 69.315619 
L 262.76694 70.028635 
L 262.68624 70.741651 
L 262.590137 71.454667 
L 262.481152 72.167682 
L 262.361932 72.880698 
L 262.235199 73.593714 
L 262.103696 74.30673 
L 261.970141 75.019746 
L 261.837182 75.732761 
L 261.707358 76.445777 
L 261.583066 77.158793 
L 261.46653 77.871809 
L 261.359778 78.584825 
L 261.264626 79.297841 
L 261.182659 80.010856 
L 261.115222 80.723872 
L 261.063415 81.436888 
L 261.028088 82.149904 
L 261.009841 82.86292 
L 261.009023 83.575935 
L 261.025744 84.288951 
L 261.059876 85.001967 
L 261.111069 85.714983 
L 261.178763 86.427999 
L 261.262209 87.141015 
L 261.36049 87.85403 
L 261.47255 88.567046 
L 261.59722 89.280062 
L 261.733253 89.993078 
L 261.879367 90.706094 
L 262.034273 91.419109 
L 262.196723 92.132125 
L 262.365545 92.845141 
L 262.539682 93.558157 
L 262.718225 94.271173 
L 262.900438 94.984189 
L 263.085787 95.697204 
L 263.273949 96.41022 
L 263.464816 97.123236 
L 263.658496 97.836252 
L 263.855291 98.549268 
L 264.05568 99.262283 
L 264.260278 99.975299 
L 264.469798 100.688315 
L 264.685 101.401331 
L 264.906634 102.114347 
L 265.135383 102.827363 
L 265.371802 103.540378 
L 265.616254 104.253394 
L 265.868853 104.96641 
L 266.129413 105.679426 
L 266.397396 106.392442 
L 266.671875 107.105457 
L 266.951502 107.818473 
L 267.234491 108.531489 
L 267.518614 109.244505 
L 267.801202 109.957521 
L 268.079171 110.670537 
L 268.349055 111.383552 
L 268.607053 112.096568 
L 268.849095 112.809584 
L 269.070918 113.5226 
L 269.268146 114.235616 
L 269.436397 114.948631 
L 269.571382 115.661647 
L 269.669014 116.374663 
L 269.725524 117.087679 
L 269.737568 117.800695 
L 269.702333 118.513711 
L 269.617633 119.226726 
L 269.481995 119.939742 
L 269.294721 120.652758 
L 269.05594 121.365774 
L 268.766633 122.07879 
L 268.428635 122.791805 
L 268.044611 123.504821 
L 267.618013 124.217837 
L 267.153006 124.930853 
L 266.65438 125.643869 
L 266.127435 126.356885 
L 265.577863 127.0699 
z
" clip-path="url(#p9cec00807a)" style="fill: #0080ff; fill-opacity: 0.3"/>
   </g>
   <g id="PolyCollection_6">
    <path d="M 301.361555 130.784821 
L 288.529718 130.784821 
L 287.736717 129.995476 
L 286.929909 129.206132 
L 286.124472 128.416788 
L 285.336689 127.627444 
L 284.58328 126.838099 
L 283.880656 126.048755 
L 283.244148 125.259411 
L 282.687262 124.470066 
L 282.221028 123.680722 
L 281.853467 122.891378 
L 281.589249 122.102034 
L 281.429539 121.312689 
L 281.372061 120.523345 
L 281.411362 119.734001 
L 281.539246 118.944657 
L 281.745354 118.155312 
L 282.017817 117.365968 
L 282.343953 116.576624 
L 282.710937 115.787279 
L 283.106404 114.997935 
L 283.518959 114.208591 
L 283.938547 113.419247 
L 284.356707 112.629902 
L 284.766683 111.840558 
L 285.163431 111.051214 
L 285.543519 110.261869 
L 285.904973 109.472525 
L 286.247066 108.683181 
L 286.570094 107.893837 
L 286.875139 107.104492 
L 287.16385 106.315148 
L 287.438232 105.525804 
L 287.700455 104.73646 
L 287.952686 103.947115 
L 288.196938 103.157771 
L 288.434934 102.368427 
L 288.667999 101.579082 
L 288.896969 100.789738 
L 289.12213 100.000394 
L 289.34318 99.21105 
L 289.55924 98.421705 
L 289.768888 97.632361 
L 289.970238 96.843017 
L 290.161053 96.053672 
L 290.338886 95.264328 
L 290.501241 94.474984 
L 290.645743 93.68564 
L 290.770316 92.896295 
L 290.873334 92.106951 
L 290.953763 91.317607 
L 291.011265 90.528263 
L 291.04626 89.738918 
L 291.059956 88.949574 
L 291.054328 88.16023 
L 291.032058 87.370885 
L 290.996435 86.581541 
L 290.951223 85.792197 
L 290.900507 85.002853 
L 290.848517 84.213508 
L 290.799451 83.424164 
L 290.757295 82.63482 
L 290.725657 81.845475 
L 290.707627 81.056131 
L 290.705655 80.266787 
L 290.72148 79.477443 
L 290.756078 78.688098 
L 290.809669 77.898754 
L 290.881749 77.10941 
L 290.971165 76.320066 
L 291.076216 75.530721 
L 291.194777 74.741377 
L 291.324432 73.952033 
L 291.462615 73.162688 
L 291.606742 72.373344 
L 291.754332 71.584 
L 291.903103 70.794656 
L 292.051047 70.005311 
L 292.196485 69.215967 
L 292.338085 68.426623 
L 292.474867 67.637278 
L 292.606186 66.847934 
L 292.731699 66.05859 
L 292.851322 65.269246 
L 292.965188 64.479901 
L 293.073598 63.690557 
L 293.176972 62.901213 
L 293.275812 62.111869 
L 293.370657 61.322524 
L 293.462051 60.53318 
L 293.550515 59.743836 
L 293.636517 58.954491 
L 293.720452 58.165147 
L 293.802623 57.375803 
L 293.883228 56.586459 
L 293.962353 55.797114 
L 294.039972 55.00777 
L 294.11595 54.218426 
L 294.190055 53.429081 
L 294.261978 52.639737 
L 295.629295 52.639737 
L 295.629295 52.639737 
L 295.701219 53.429081 
L 295.775324 54.218426 
L 295.851301 55.00777 
L 295.92892 55.797114 
L 296.008046 56.586459 
L 296.088651 57.375803 
L 296.170822 58.165147 
L 296.254757 58.954491 
L 296.340759 59.743836 
L 296.429223 60.53318 
L 296.520617 61.322524 
L 296.615461 62.111869 
L 296.714301 62.901213 
L 296.817676 63.690557 
L 296.926086 64.479901 
L 297.039952 65.269246 
L 297.159575 66.05859 
L 297.285087 66.847934 
L 297.416406 67.637278 
L 297.553189 68.426623 
L 297.694789 69.215967 
L 297.840226 70.005311 
L 297.988171 70.794656 
L 298.136941 71.584 
L 298.284531 72.373344 
L 298.428659 73.162688 
L 298.566842 73.952033 
L 298.696497 74.741377 
L 298.815058 75.530721 
L 298.920109 76.320066 
L 299.009525 77.10941 
L 299.081605 77.898754 
L 299.135196 78.688098 
L 299.169794 79.477443 
L 299.185618 80.266787 
L 299.183647 81.056131 
L 299.165616 81.845475 
L 299.133978 82.63482 
L 299.091822 83.424164 
L 299.042757 84.213508 
L 298.990767 85.002853 
L 298.940051 85.792197 
L 298.894839 86.581541 
L 298.859215 87.370885 
L 298.836945 88.16023 
L 298.831318 88.949574 
L 298.845014 89.738918 
L 298.880009 90.528263 
L 298.93751 91.317607 
L 299.01794 92.106951 
L 299.120958 92.896295 
L 299.24553 93.68564 
L 299.390033 94.474984 
L 299.552387 95.264328 
L 299.73022 96.053672 
L 299.921036 96.843017 
L 300.122386 97.632361 
L 300.332033 98.421705 
L 300.548093 99.21105 
L 300.769144 100.000394 
L 300.994304 100.789738 
L 301.223275 101.579082 
L 301.45634 102.368427 
L 301.694336 103.157771 
L 301.938587 103.947115 
L 302.190819 104.73646 
L 302.453042 105.525804 
L 302.727424 106.315148 
L 303.016135 107.104492 
L 303.32118 107.893837 
L 303.644208 108.683181 
L 303.986301 109.472525 
L 304.347755 110.261869 
L 304.727843 111.051214 
L 305.12459 111.840558 
L 305.534567 112.629902 
L 305.952726 113.419247 
L 306.372315 114.208591 
L 306.784869 114.997935 
L 307.180337 115.787279 
L 307.547321 116.576624 
L 307.873457 117.365968 
L 308.14592 118.155312 
L 308.352027 118.944657 
L 308.479912 119.734001 
L 308.519212 120.523345 
L 308.461735 121.312689 
L 308.302024 122.102034 
L 308.037806 122.891378 
L 307.670245 123.680722 
L 307.204011 124.470066 
L 306.647126 125.259411 
L 306.010617 126.048755 
L 305.307994 126.838099 
L 304.554585 127.627444 
L 303.766802 128.416788 
L 302.961364 129.206132 
L 302.154557 129.995476 
L 301.361555 130.784821 
z
" clip-path="url(#p9cec00807a)" style="fill: #ff8000; fill-opacity: 0.3"/>
   </g>
   <g id="matplotlib.axis_5">
    <g id="xtick_5">
     <g id="line2d_11">
      <g>
       <use xlink:href="#m12360e61dd" x="256.163992" y="179.399" style="stroke: #000000; stroke-width: 0.8"/>
      </g>
     </g>
     <g id="text_18">
      <!-- MSR -->
      <g transform="translate(229.497742 194.34525) scale(0.12 -0.12)">
       <use xlink:href="#TimesNewRomanPS-BoldMT-4d"/>
       <use xlink:href="#TimesNewRomanPS-BoldMT-53" x="94.384766"/>
       <use xlink:href="#TimesNewRomanPS-BoldMT-52" x="150"/>
      </g>
     </g>
    </g>
    <g id="xtick_6">
     <g id="line2d_12">
      <g>
       <use xlink:href="#m12360e61dd" x="294.945637" y="179.399" style="stroke: #000000; stroke-width: 0.8"/>
      </g>
     </g>
     <g id="text_19">
      <!-- SBO -->
      <g transform="translate(270.934387 194.34525) scale(0.12 -0.12)">
       <use xlink:href="#TimesNewRomanPS-BoldMT-53"/>
       <use xlink:href="#TimesNewRomanPS-BoldMT-42" x="55.615234"/>
       <use xlink:href="#TimesNewRomanPS-BoldMT-4f" x="122.314453"/>
      </g>
     </g>
    </g>
   </g>
   <g id="matplotlib.axis_6"/>
   <g id="LineCollection_11">
    <path d="M 249.377205 99.636997 
L 262.95078 99.636997 
" clip-path="url(#p9cec00807a)" style="fill: none; stroke: #000000; stroke-width: 2"/>
    <path d="M 288.158849 106.394989 
L 301.732425 106.394989 
" clip-path="url(#p9cec00807a)" style="fill: none; stroke: #000000; stroke-width: 2"/>
   </g>
   <g id="LineCollection_12">
    <path d="M 249.377205 56.481334 
L 262.95078 56.481334 
" clip-path="url(#p9cec00807a)" style="fill: none; stroke: #1f77b4; stroke-width: 1.5"/>
    <path d="M 288.158849 52.639737 
L 301.732425 52.639737 
" clip-path="url(#p9cec00807a)" style="fill: none; stroke: #1f77b4; stroke-width: 1.5"/>
   </g>
   <g id="LineCollection_13">
    <path d="M 249.377205 127.0699 
L 262.95078 127.0699 
" clip-path="url(#p9cec00807a)" style="fill: none; stroke: #1f77b4; stroke-width: 1.5"/>
    <path d="M 288.158849 130.784821 
L 301.732425 130.784821 
" clip-path="url(#p9cec00807a)" style="fill: none; stroke: #1f77b4; stroke-width: 1.5"/>
   </g>
   <g id="LineCollection_14">
    <path d="M 256.163992 127.0699 
L 256.163992 56.481334 
" clip-path="url(#p9cec00807a)" style="fill: none; stroke: #1f77b4; stroke-width: 1.5"/>
    <path d="M 294.945637 130.784821 
L 294.945637 52.639737 
" clip-path="url(#p9cec00807a)" style="fill: none; stroke: #1f77b4; stroke-width: 1.5"/>
   </g>
   <g id="LineCollection_15">
    <path d="M 249.377205 107.671703 
L 262.95078 107.671703 
" clip-path="url(#p9cec00807a)" style="fill: none; stroke-dasharray: 2,3.3; stroke-dashoffset: 0; stroke: #808080; stroke-width: 2"/>
    <path d="M 288.158849 112.552968 
L 301.732425 112.552968 
" clip-path="url(#p9cec00807a)" style="fill: none; stroke-dasharray: 2,3.3; stroke-dashoffset: 0; stroke: #808080; stroke-width: 2"/>
   </g>
   <g id="patch_13">
    <path d="M 239.293977 179.399 
L 239.293977 23.199 
" style="fill: none; stroke: #000000; stroke-width: 0.8; stroke-linejoin: miter; stroke-linecap: square"/>
   </g>
   <g id="patch_14">
    <path d="M 311.815652 179.399 
L 311.815652 23.199 
" style="fill: none; stroke: #000000; stroke-width: 0.8; stroke-linejoin: miter; stroke-linecap: square"/>
   </g>
   <g id="patch_15">
    <path d="M 239.293977 179.399 
L 311.815652 179.399 
" style="fill: none; stroke: #000000; stroke-width: 0.8; stroke-linejoin: miter; stroke-linecap: square"/>
   </g>
   <g id="patch_16">
    <path d="M 239.293977 23.199 
L 311.815652 23.199 
" style="fill: none; stroke: #000000; stroke-width: 0.8; stroke-linejoin: miter; stroke-linecap: square"/>
   </g>
   <g id="text_20">
    <!-- 129 -->
    <g transform="translate(248.663992 39.183952) scale(0.1 -0.1)">
     <use xlink:href="#TimesNewRomanPSMT-31"/>
     <use xlink:href="#TimesNewRomanPSMT-32" x="50"/>
     <use xlink:href="#TimesNewRomanPSMT-39" x="100"/>
    </g>
   </g>
   <g id="text_21">
    <!-- 195 -->
    <g transform="translate(287.445637 39.183952) scale(0.1 -0.1)">
     <use xlink:href="#TimesNewRomanPSMT-31"/>
     <use xlink:href="#TimesNewRomanPSMT-39" x="50"/>
     <use xlink:href="#TimesNewRomanPSMT-35" x="100"/>
    </g>
   </g>
   <g id="text_22">
    <!-- 5 Vessels -->
    <g transform="translate(249.08244 17.199) scale(0.144 -0.144)">
     <use xlink:href="#TimesNewRomanPSMT-35"/>
     <use xlink:href="#TimesNewRomanPSMT-20" x="50"/>
     <use xlink:href="#TimesNewRomanPSMT-56" x="73.25"/>
     <use xlink:href="#TimesNewRomanPSMT-65" x="134.341797"/>
     <use xlink:href="#TimesNewRomanPSMT-73" x="178.726562"/>
     <use xlink:href="#TimesNewRomanPSMT-73" x="217.642578"/>
     <use xlink:href="#TimesNewRomanPSMT-65" x="256.558594"/>
     <use xlink:href="#TimesNewRomanPSMT-6c" x="300.943359"/>
     <use xlink:href="#TimesNewRomanPSMT-73" x="328.726562"/>
    </g>
   </g>
  </g>
  <g id="axes_4">
   <g id="patch_17">
    <path d="M 337.345419 179.399 
L 409.867094 179.399 
L 409.867094 23.199 
L 337.345419 23.199 
z
" style="fill: #ffffff"/>
   </g>
   <g id="PolyCollection_7">
    <path d="M 359.324421 130.784821 
L 349.106447 130.784821 
L 348.429967 129.903892 
L 347.721993 129.022964 
L 346.991575 128.142036 
L 346.249229 127.261107 
L 345.506668 126.380179 
L 344.77645 125.499251 
L 344.071564 124.618322 
L 343.404966 123.737394 
L 342.789103 122.856465 
L 342.235435 121.975537 
L 341.754 121.094609 
L 341.353036 120.21368 
L 341.03868 119.332752 
L 340.814781 118.451824 
L 340.682803 117.570895 
L 340.641859 116.689967 
L 340.688833 115.809039 
L 340.818615 114.92811 
L 341.024392 114.047182 
L 341.29801 113.166254 
L 341.630357 112.285325 
L 342.011754 111.404397 
L 342.432329 110.523468 
L 342.882354 109.64254 
L 343.352529 108.761612 
L 343.834209 107.880683 
L 344.319565 106.999755 
L 344.801674 106.118827 
L 345.274565 105.237898 
L 345.733201 104.35697 
L 346.173436 103.476042 
L 346.591935 102.595113 
L 346.986091 101.714185 
L 347.353928 100.833256 
L 347.694016 99.952328 
L 348.005392 99.0714 
L 348.287493 98.190471 
L 348.540102 97.309543 
L 348.763305 96.428615 
L 348.957454 95.547686 
L 349.123133 94.666758 
L 349.261124 93.78583 
L 349.372373 92.904901 
L 349.457948 92.023973 
L 349.518991 91.143045 
L 349.556674 90.262116 
L 349.572149 89.381188 
L 349.566506 88.500259 
L 349.540736 87.619331 
L 349.495712 86.738403 
L 349.43218 85.857474 
L 349.350772 84.976546 
L 349.25204 84.095618 
L 349.136503 83.214689 
L 349.004717 82.333761 
L 348.857351 81.452833 
L 348.695271 80.571904 
L 348.51963 79.690976 
L 348.331943 78.810047 
L 348.134157 77.929119 
L 347.928701 77.048191 
L 347.718506 76.167262 
L 347.507009 75.286334 
L 347.298121 74.405406 
L 347.096163 73.524477 
L 346.90578 72.643549 
L 346.731821 71.762621 
L 346.579204 70.881692 
L 346.452756 70.000764 
L 346.357052 69.119835 
L 346.296239 68.238907 
L 346.273878 67.357979 
L 346.292787 66.47705 
L 346.354913 65.596122 
L 346.461228 64.715194 
L 346.611659 63.834265 
L 346.805061 62.953337 
L 347.03923 62.072409 
L 347.310956 61.19148 
L 347.616127 60.310552 
L 347.94986 59.429624 
L 348.306674 58.548695 
L 348.680682 57.667767 
L 349.065795 56.786838 
L 349.455936 55.90591 
L 349.845243 55.024982 
L 350.228255 54.144053 
L 350.600072 53.263125 
L 350.956479 52.382197 
L 351.294037 51.501268 
L 351.610129 50.62034 
L 351.902963 49.739412 
L 352.171543 48.858483 
L 352.415602 47.977555 
L 352.635516 47.096626 
L 352.832191 46.215698 
L 353.00695 45.33477 
L 353.161408 44.453841 
L 353.29736 43.572913 
L 355.133508 43.572913 
L 355.133508 43.572913 
L 355.26946 44.453841 
L 355.423918 45.33477 
L 355.598677 46.215698 
L 355.795352 47.096626 
L 356.015266 47.977555 
L 356.259325 48.858483 
L 356.527905 49.739412 
L 356.820739 50.62034 
L 357.136831 51.501268 
L 357.47439 52.382197 
L 357.830797 53.263125 
L 358.202613 54.144053 
L 358.585625 55.024982 
L 358.974932 55.90591 
L 359.365073 56.786838 
L 359.750186 57.667767 
L 360.124194 58.548695 
L 360.481008 59.429624 
L 360.814741 60.310552 
L 361.119912 61.19148 
L 361.391638 62.072409 
L 361.625807 62.953337 
L 361.819209 63.834265 
L 361.969641 64.715194 
L 362.075955 65.596122 
L 362.138081 66.47705 
L 362.15699 67.357979 
L 362.134629 68.238907 
L 362.073816 69.119835 
L 361.978112 70.000764 
L 361.851664 70.881692 
L 361.699047 71.762621 
L 361.525088 72.643549 
L 361.334705 73.524477 
L 361.132747 74.405406 
L 360.923859 75.286334 
L 360.712362 76.167262 
L 360.502167 77.048191 
L 360.296711 77.929119 
L 360.098925 78.810047 
L 359.911239 79.690976 
L 359.735597 80.571904 
L 359.573517 81.452833 
L 359.426151 82.333761 
L 359.294365 83.214689 
L 359.178828 84.095618 
L 359.080096 84.976546 
L 358.998688 85.857474 
L 358.935156 86.738403 
L 358.890132 87.619331 
L 358.864362 88.500259 
L 358.858719 89.381188 
L 358.874194 90.262116 
L 358.911877 91.143045 
L 358.97292 92.023973 
L 359.058495 92.904901 
L 359.169744 93.78583 
L 359.307735 94.666758 
L 359.473414 95.547686 
L 359.667563 96.428615 
L 359.890766 97.309543 
L 360.143375 98.190471 
L 360.425476 99.0714 
L 360.736852 99.952328 
L 361.07694 100.833256 
L 361.444777 101.714185 
L 361.838933 102.595113 
L 362.257432 103.476042 
L 362.697667 104.35697 
L 363.156303 105.237898 
L 363.629194 106.118827 
L 364.111304 106.999755 
L 364.596659 107.880683 
L 365.078339 108.761612 
L 365.548514 109.64254 
L 365.998539 110.523468 
L 366.419114 111.404397 
L 366.800511 112.285325 
L 367.132858 113.166254 
L 367.406476 114.047182 
L 367.612253 114.92811 
L 367.742035 115.809039 
L 367.78901 116.689967 
L 367.748065 117.570895 
L 367.616087 118.451824 
L 367.392188 119.332752 
L 367.077832 120.21368 
L 366.676868 121.094609 
L 366.195434 121.975537 
L 365.641766 122.856465 
L 365.025902 123.737394 
L 364.359304 124.618322 
L 363.654418 125.499251 
L 362.9242 126.380179 
L 362.181639 127.261107 
L 361.439293 128.142036 
L 360.708875 129.022964 
L 360.000901 129.903892 
L 359.324421 130.784821 
z
" clip-path="url(#p08a1fb3317)" style="fill: #0080ff; fill-opacity: 0.3"/>
   </g>
   <g id="PolyCollection_8">
    <path d="M 399.466223 128.858063 
L 386.527934 128.858063 
L 385.676987 128.022233 
L 384.80972 127.186403 
L 383.944808 126.350573 
L 383.102607 125.514743 
L 382.304279 124.678913 
L 381.57078 123.843083 
L 380.921796 123.007253 
L 380.374691 122.171423 
L 379.943563 121.335593 
L 379.638471 120.499763 
L 379.464899 119.663933 
L 379.423503 118.828103 
L 379.510144 117.992273 
L 379.716215 117.156443 
L 380.029216 116.320613 
L 380.433523 115.484783 
L 380.911298 114.648953 
L 381.44346 113.813123 
L 382.010644 112.977292 
L 382.594094 112.141462 
L 383.176434 111.305632 
L 383.742279 110.469802 
L 384.278671 109.633972 
L 384.775331 108.798142 
L 385.224738 107.962312 
L 385.62205 107.126482 
L 385.964901 106.290652 
L 386.253094 105.454822 
L 386.488243 104.618992 
L 386.673377 103.783162 
L 386.812546 102.947332 
L 386.910451 102.111502 
L 386.972126 101.275672 
L 387.002665 100.439842 
L 387.007026 99.604012 
L 386.989888 98.768182 
L 386.955584 97.932352 
L 386.908072 97.096522 
L 386.850957 96.260692 
L 386.787535 95.424862 
L 386.72086 94.589032 
L 386.653804 93.753202 
L 386.589116 92.917372 
L 386.529453 92.081542 
L 386.477398 91.245712 
L 386.435447 90.409882 
L 386.405981 89.574052 
L 386.391208 88.738222 
L 386.393111 87.902392 
L 386.413385 87.066562 
L 386.453378 86.230732 
L 386.514049 85.394902 
L 386.595934 84.559072 
L 386.699136 83.723242 
L 386.823312 82.887412 
L 386.967685 82.051582 
L 387.131052 81.215752 
L 387.311792 80.379922 
L 387.50789 79.544092 
L 387.716947 78.708262 
L 387.936215 77.872432 
L 388.162634 77.036602 
L 388.392906 76.200772 
L 388.623583 75.364942 
L 388.851193 74.529112 
L 389.07239 73.693282 
L 389.284119 72.857452 
L 389.483794 72.021622 
L 389.669453 71.185792 
L 389.839894 70.349962 
L 389.994754 69.514132 
L 390.134535 68.678301 
L 390.260557 67.842471 
L 390.374841 67.006641 
L 390.479945 66.170811 
L 390.57874 65.334981 
L 390.674176 64.499151 
L 390.769038 63.663321 
L 390.865737 62.827491 
L 390.966129 61.991661 
L 391.071401 61.155831 
L 391.182018 60.320001 
L 391.297733 59.484171 
L 391.417662 58.648341 
L 391.540395 57.812511 
L 391.664156 56.976681 
L 391.786964 56.140851 
L 391.906809 55.305021 
L 392.021796 54.469191 
L 392.130286 53.633361 
L 392.230981 52.797531 
L 392.322986 51.961701 
L 392.405827 51.125871 
L 392.479439 50.290041 
L 392.544113 49.454211 
L 392.600435 48.618381 
L 392.649203 47.782551 
L 392.691342 46.946721 
L 392.727821 46.110891 
L 393.266336 46.110891 
L 393.266336 46.110891 
L 393.302815 46.946721 
L 393.344954 47.782551 
L 393.393722 48.618381 
L 393.450044 49.454211 
L 393.514718 50.290041 
L 393.588329 51.125871 
L 393.671171 51.961701 
L 393.763176 52.797531 
L 393.863871 53.633361 
L 393.97236 54.469191 
L 394.087348 55.305021 
L 394.207193 56.140851 
L 394.330001 56.976681 
L 394.453762 57.812511 
L 394.576495 58.648341 
L 394.696423 59.484171 
L 394.812139 60.320001 
L 394.922756 61.155831 
L 395.028028 61.991661 
L 395.12842 62.827491 
L 395.225119 63.663321 
L 395.319981 64.499151 
L 395.415417 65.334981 
L 395.514212 66.170811 
L 395.619315 67.006641 
L 395.7336 67.842471 
L 395.859622 68.678301 
L 395.999403 69.514132 
L 396.154263 70.349962 
L 396.324704 71.185792 
L 396.510363 72.021622 
L 396.710037 72.857452 
L 396.921767 73.693282 
L 397.142964 74.529112 
L 397.370574 75.364942 
L 397.601251 76.200772 
L 397.831523 77.036602 
L 398.057942 77.872432 
L 398.277209 78.708262 
L 398.486267 79.544092 
L 398.682365 80.379922 
L 398.863105 81.215752 
L 399.026471 82.051582 
L 399.170845 82.887412 
L 399.295021 83.723242 
L 399.398222 84.559072 
L 399.480108 85.394902 
L 399.540779 86.230732 
L 399.580772 87.066562 
L 399.601046 87.902392 
L 399.602949 88.738222 
L 399.588176 89.574052 
L 399.55871 90.409882 
L 399.516759 91.245712 
L 399.464704 92.081542 
L 399.405041 92.917372 
L 399.340352 93.753202 
L 399.273297 94.589032 
L 399.206622 95.424862 
L 399.1432 96.260692 
L 399.086084 97.096522 
L 399.038573 97.932352 
L 399.004269 98.768182 
L 398.987131 99.604012 
L 398.991491 100.439842 
L 399.022031 101.275672 
L 399.083705 102.111502 
L 399.181611 102.947332 
L 399.32078 103.783162 
L 399.505914 104.618992 
L 399.741063 105.454822 
L 400.029256 106.290652 
L 400.372106 107.126482 
L 400.769419 107.962312 
L 401.218826 108.798142 
L 401.715486 109.633972 
L 402.251878 110.469802 
L 402.817722 111.305632 
L 403.400063 112.141462 
L 403.983513 112.977292 
L 404.550697 113.813123 
L 405.082859 114.648953 
L 405.560634 115.484783 
L 405.964941 116.320613 
L 406.277941 117.156443 
L 406.484013 117.992273 
L 406.570654 118.828103 
L 406.529257 119.663933 
L 406.355686 120.499763 
L 406.050594 121.335593 
L 405.619466 122.171423 
L 405.072361 123.007253 
L 404.423377 123.843083 
L 403.689878 124.678913 
L 402.89155 125.514743 
L 402.049349 126.350573 
L 401.184436 127.186403 
L 400.31717 128.022233 
L 399.466223 128.858063 
z
" clip-path="url(#p08a1fb3317)" style="fill: #ff8000; fill-opacity: 0.3"/>
   </g>
   <g id="matplotlib.axis_7">
    <g id="xtick_7">
     <g id="line2d_13">
      <g>
       <use xlink:href="#m12360e61dd" x="354.215434" y="179.399" style="stroke: #000000; stroke-width: 0.8"/>
      </g>
     </g>
     <g id="text_23">
      <!-- MSR -->
      <g transform="translate(327.549184 194.34525) scale(0.12 -0.12)">
       <use xlink:href="#TimesNewRomanPS-BoldMT-4d"/>
       <use xlink:href="#TimesNewRomanPS-BoldMT-53" x="94.384766"/>
       <use xlink:href="#TimesNewRomanPS-BoldMT-52" x="150"/>
      </g>
     </g>
    </g>
    <g id="xtick_8">
     <g id="line2d_14">
      <g>
       <use xlink:href="#m12360e61dd" x="392.997078" y="179.399" style="stroke: #000000; stroke-width: 0.8"/>
      </g>
     </g>
     <g id="text_24">
      <!-- SBO -->
      <g transform="translate(368.985828 194.34525) scale(0.12 -0.12)">
       <use xlink:href="#TimesNewRomanPS-BoldMT-53"/>
       <use xlink:href="#TimesNewRomanPS-BoldMT-42" x="55.615234"/>
       <use xlink:href="#TimesNewRomanPS-BoldMT-4f" x="122.314453"/>
      </g>
     </g>
    </g>
   </g>
   <g id="matplotlib.axis_8"/>
   <g id="LineCollection_16">
    <path d="M 347.428646 96.490371 
L 361.002222 96.490371 
" clip-path="url(#p08a1fb3317)" style="fill: none; stroke: #000000; stroke-width: 2"/>
    <path d="M 386.210291 103.156264 
L 399.783866 103.156264 
" clip-path="url(#p08a1fb3317)" style="fill: none; stroke: #000000; stroke-width: 2"/>
   </g>
   <g id="LineCollection_17">
    <path d="M 347.428646 43.572913 
L 361.002222 43.572913 
" clip-path="url(#p08a1fb3317)" style="fill: none; stroke: #1f77b4; stroke-width: 1.5"/>
    <path d="M 386.210291 46.110891 
L 399.783866 46.110891 
" clip-path="url(#p08a1fb3317)" style="fill: none; stroke: #1f77b4; stroke-width: 1.5"/>
   </g>
   <g id="LineCollection_18">
    <path d="M 347.428646 130.784821 
L 361.002222 130.784821 
" clip-path="url(#p08a1fb3317)" style="fill: none; stroke: #1f77b4; stroke-width: 1.5"/>
    <path d="M 386.210291 128.858063 
L 399.783866 128.858063 
" clip-path="url(#p08a1fb3317)" style="fill: none; stroke: #1f77b4; stroke-width: 1.5"/>
   </g>
   <g id="LineCollection_19">
    <path d="M 354.215434 130.784821 
L 354.215434 43.572913 
" clip-path="url(#p08a1fb3317)" style="fill: none; stroke: #1f77b4; stroke-width: 1.5"/>
    <path d="M 392.997078 128.858063 
L 392.997078 46.110891 
" clip-path="url(#p08a1fb3317)" style="fill: none; stroke: #1f77b4; stroke-width: 1.5"/>
   </g>
   <g id="LineCollection_20">
    <path d="M 347.428646 104.621536 
L 361.002222 104.621536 
" clip-path="url(#p08a1fb3317)" style="fill: none; stroke-dasharray: 2,3.3; stroke-dashoffset: 0; stroke: #808080; stroke-width: 2"/>
    <path d="M 386.210291 110.028645 
L 399.783866 110.028645 
" clip-path="url(#p08a1fb3317)" style="fill: none; stroke-dasharray: 2,3.3; stroke-dashoffset: 0; stroke: #808080; stroke-width: 2"/>
   </g>
   <g id="patch_18">
    <path d="M 337.345419 179.399 
L 337.345419 23.199 
" style="fill: none; stroke: #000000; stroke-width: 0.8; stroke-linejoin: miter; stroke-linecap: square"/>
   </g>
   <g id="patch_19">
    <path d="M 409.867094 179.399 
L 409.867094 23.199 
" style="fill: none; stroke: #000000; stroke-width: 0.8; stroke-linejoin: miter; stroke-linecap: square"/>
   </g>
   <g id="patch_20">
    <path d="M 337.345419 179.399 
L 409.867094 179.399 
" style="fill: none; stroke: #000000; stroke-width: 0.8; stroke-linejoin: miter; stroke-linecap: square"/>
   </g>
   <g id="patch_21">
    <path d="M 337.345419 23.199 
L 409.867094 23.199 
" style="fill: none; stroke: #000000; stroke-width: 0.8; stroke-linejoin: miter; stroke-linecap: square"/>
   </g>
   <g id="text_25">
    <!-- 196 -->
    <g transform="translate(346.715434 39.183952) scale(0.1 -0.1)">
     <use xlink:href="#TimesNewRomanPSMT-31"/>
     <use xlink:href="#TimesNewRomanPSMT-39" x="50"/>
     <use xlink:href="#TimesNewRomanPSMT-36" x="100"/>
    </g>
   </g>
   <g id="text_26">
    <!-- 232 -->
    <g transform="translate(385.497078 39.183952) scale(0.1 -0.1)">
     <use xlink:href="#TimesNewRomanPSMT-32"/>
     <use xlink:href="#TimesNewRomanPSMT-33" x="50"/>
     <use xlink:href="#TimesNewRomanPSMT-32" x="100"/>
    </g>
   </g>
   <g id="text_27">
    <!-- 6 Vessels -->
    <g transform="translate(347.133881 17.199) scale(0.144 -0.144)">
     <use xlink:href="#TimesNewRomanPSMT-36"/>
     <use xlink:href="#TimesNewRomanPSMT-20" x="50"/>
     <use xlink:href="#TimesNewRomanPSMT-56" x="73.25"/>
     <use xlink:href="#TimesNewRomanPSMT-65" x="134.341797"/>
     <use xlink:href="#TimesNewRomanPSMT-73" x="178.726562"/>
     <use xlink:href="#TimesNewRomanPSMT-73" x="217.642578"/>
     <use xlink:href="#TimesNewRomanPSMT-65" x="256.558594"/>
     <use xlink:href="#TimesNewRomanPSMT-6c" x="300.943359"/>
     <use xlink:href="#TimesNewRomanPSMT-73" x="328.726562"/>
    </g>
   </g>
  </g>
 </g>
 <defs>
  <clipPath id="p5a2d3c5597">
   <rect x="43.191094" y="23.199" width="72.521675" height="156.2"/>
  </clipPath>
  <clipPath id="pa54d573ab6">
   <rect x="141.242535" y="23.199" width="72.521675" height="156.2"/>
  </clipPath>
  <clipPath id="p9cec00807a">
   <rect x="239.293977" y="23.199" width="72.521675" height="156.2"/>
  </clipPath>
  <clipPath id="p08a1fb3317">
   <rect x="337.345419" y="23.199" width="72.521675" height="156.2"/>
  </clipPath>
 </defs>
</svg>
