<?xml version="1.0" encoding="utf-8" standalone="no"?>
<!DOCTYPE svg PUBLIC "-//W3C//DTD SVG 1.1//EN"
  "http://www.w3.org/Graphics/SVG/1.1/DTD/svg11.dtd">
<svg xmlns:xlink="http://www.w3.org/1999/xlink" width="423.067094pt" height="204.151071pt" viewBox="0 0 423.067094 204.151071" xmlns="http://www.w3.org/2000/svg" version="1.1">
 <metadata>
  <rdf:RDF xmlns:dc="http://purl.org/dc/elements/1.1/" xmlns:cc="http://creativecommons.org/ns#" xmlns:rdf="http://www.w3.org/1999/02/22-rdf-syntax-ns#">
   <cc:Work>
    <dc:type rdf:resource="http://purl.org/dc/dcmitype/StillImage"/>
    <dc:date>2024-10-22T14:53:52.586137</dc:date>
    <dc:format>image/svg+xml</dc:format>
    <dc:creator>
     <cc:Agent>
      <dc:title>Matplotlib v3.9.0, https://matplotlib.org/</dc:title>
     </cc:Agent>
    </dc:creator>
   </cc:Work>
  </rdf:RDF>
 </metadata>
 <defs>
  <style type="text/css">*{stroke-linejoin: round; stroke-linecap: butt}</style>
 </defs>
 <g id="figure_1">
  <g id="patch_1">
   <path d="M 0 204.151071 
L 423.067094 204.151071 
L 423.067094 0 
L 0 0 
z
" style="fill: #ffffff"/>
  </g>
  <g id="axes_1">
   <g id="patch_2">
    <path d="M 49.191094 163.661283 
L 114.685094 163.661283 
L 114.685094 23.199 
L 49.191094 23.199 
z
" style="fill: #ffffff"/>
   </g>
   <g id="PolyCollection_1">
    <path d="M 67.848403 152.125733 
L 61.004255 152.125733 
L 60.5415 151.008505 
L 60.046618 149.891277 
L 59.522668 148.774049 
L 58.973656 147.656821 
L 58.404512 146.539593 
L 57.821031 145.422365 
L 57.229781 144.305137 
L 56.637974 143.187909 
L 56.053308 142.070681 
L 55.483774 140.953453 
L 54.937453 139.836225 
L 54.422296 138.718998 
L 53.945898 137.60177 
L 53.515283 136.484542 
L 53.136695 135.367314 
L 52.815422 134.250086 
L 52.555638 133.132858 
L 52.360288 132.01563 
L 52.23101 130.898402 
L 52.168094 129.781174 
L 52.17049 128.663946 
L 52.235853 127.546718 
L 52.360618 126.42949 
L 52.540119 125.312262 
L 52.768728 124.195034 
L 53.040016 123.077806 
L 53.346925 121.960579 
L 53.681954 120.843351 
L 54.037341 119.726123 
L 54.40524 118.608895 
L 54.777893 117.491667 
L 55.147787 116.374439 
L 55.50779 115.257211 
L 55.851281 114.139983 
L 56.17225 113.022755 
L 56.465386 111.905527 
L 56.726147 110.788299 
L 56.950808 109.671071 
L 57.136502 108.553843 
L 57.281237 107.436615 
L 57.383903 106.319387 
L 57.444267 105.20216 
L 57.462946 104.084932 
L 57.44138 102.967704 
L 57.381779 101.850476 
L 57.287064 100.733248 
L 57.16079 99.61602 
L 57.007061 98.498792 
L 56.830433 97.381564 
L 56.635805 96.264336 
L 56.428309 95.147108 
L 56.213192 94.02988 
L 55.9957 92.912652 
L 55.78097 91.795424 
L 55.573923 90.678196 
L 55.379167 89.560968 
L 55.200924 88.443741 
L 55.042953 87.326513 
L 54.908504 86.209285 
L 54.800278 85.092057 
L 54.7204 83.974829 
L 54.670407 82.857601 
L 54.651244 81.740373 
L 54.663264 80.623145 
L 54.706237 79.505917 
L 54.779365 78.388689 
L 54.881293 77.271461 
L 55.010131 76.154233 
L 55.163479 75.037005 
L 55.338457 73.919777 
L 55.531744 72.802549 
L 55.739629 71.685321 
L 55.958075 70.568094 
L 56.182797 69.450866 
L 56.409352 68.333638 
L 56.633251 67.21641 
L 56.850074 66.099182 
L 57.055608 64.981954 
L 57.24598 63.864726 
L 57.417797 62.747498 
L 57.568287 61.63027 
L 57.695419 60.513042 
L 57.798014 59.395814 
L 57.875831 58.278586 
L 57.929623 57.161358 
L 57.961155 56.04413 
L 57.973185 54.926902 
L 57.969403 53.809675 
L 57.954321 52.692447 
L 57.933127 51.575219 
L 57.911498 50.457991 
L 57.89538 49.340763 
L 57.890747 48.223535 
L 57.903346 47.106307 
L 57.938446 45.989079 
L 58.000602 44.871851 
L 58.093441 43.754623 
L 58.219496 42.637395 
L 58.380087 41.520167 
L 70.472571 41.520167 
L 70.472571 41.520167 
L 70.633162 42.637395 
L 70.759217 43.754623 
L 70.852056 44.871851 
L 70.914212 45.989079 
L 70.949312 47.106307 
L 70.961911 48.223535 
L 70.957278 49.340763 
L 70.94116 50.457991 
L 70.919531 51.575219 
L 70.898337 52.692447 
L 70.883255 53.809675 
L 70.879473 54.926902 
L 70.891504 56.04413 
L 70.923035 57.161358 
L 70.976827 58.278586 
L 71.054644 59.395814 
L 71.157239 60.513042 
L 71.284371 61.63027 
L 71.434861 62.747498 
L 71.606678 63.864726 
L 71.79705 64.981954 
L 72.002584 66.099182 
L 72.219408 67.21641 
L 72.443306 68.333638 
L 72.669861 69.450866 
L 72.894583 70.568094 
L 73.113029 71.685321 
L 73.320914 72.802549 
L 73.514201 73.919777 
L 73.689179 75.037005 
L 73.842527 76.154233 
L 73.971365 77.271461 
L 74.073293 78.388689 
L 74.146421 79.505917 
L 74.189394 80.623145 
L 74.201414 81.740373 
L 74.182251 82.857601 
L 74.132258 83.974829 
L 74.05238 85.092057 
L 73.944154 86.209285 
L 73.809705 87.326513 
L 73.651734 88.443741 
L 73.473491 89.560968 
L 73.278735 90.678196 
L 73.071688 91.795424 
L 72.856958 92.912652 
L 72.639467 94.02988 
L 72.424349 95.147108 
L 72.216853 96.264336 
L 72.022225 97.381564 
L 71.845597 98.498792 
L 71.691868 99.61602 
L 71.565594 100.733248 
L 71.470879 101.850476 
L 71.411278 102.967704 
L 71.389712 104.084932 
L 71.408391 105.20216 
L 71.468755 106.319387 
L 71.571421 107.436615 
L 71.716156 108.553843 
L 71.90185 109.671071 
L 72.126512 110.788299 
L 72.387272 111.905527 
L 72.680408 113.022755 
L 73.001377 114.139983 
L 73.344868 115.257211 
L 73.704872 116.374439 
L 74.074765 117.491667 
L 74.447418 118.608895 
L 74.815318 119.726123 
L 75.170704 120.843351 
L 75.505733 121.960579 
L 75.812642 123.077806 
L 76.08393 124.195034 
L 76.312539 125.312262 
L 76.49204 126.42949 
L 76.616805 127.546718 
L 76.682168 128.663946 
L 76.684564 129.781174 
L 76.621648 130.898402 
L 76.49237 132.01563 
L 76.29702 133.132858 
L 76.037236 134.250086 
L 75.715963 135.367314 
L 75.337375 136.484542 
L 74.90676 137.60177 
L 74.430362 138.718998 
L 73.915205 139.836225 
L 73.368884 140.953453 
L 72.79935 142.070681 
L 72.214684 143.187909 
L 71.622877 144.305137 
L 71.031627 145.422365 
L 70.448146 146.539593 
L 69.879002 147.656821 
L 69.32999 148.774049 
L 68.80604 149.891277 
L 68.311158 151.008505 
L 67.848403 152.125733 
z
" clip-path="url(#p6c067f3e99)" style="fill: #0080ff; fill-opacity: 0.3"/>
   </g>
   <g id="PolyCollection_2">
    <path d="M 105.338476 144.661553 
L 93.561241 144.661553 
L 92.92266 143.619721 
L 92.273452 142.577889 
L 91.623123 141.536057 
L 90.981935 140.494225 
L 90.360602 139.452393 
L 89.769946 138.41056 
L 89.220516 137.368728 
L 88.722208 136.326896 
L 88.283885 135.285064 
L 87.913036 134.243232 
L 87.61548 133.201399 
L 87.395145 132.159567 
L 87.253924 131.117735 
L 87.191623 130.075903 
L 87.206007 129.034071 
L 87.292926 127.992239 
L 87.446534 126.950406 
L 87.659566 125.908574 
L 87.923663 124.866742 
L 88.229734 123.82491 
L 88.568309 122.783078 
L 88.929896 121.741245 
L 89.305288 120.699413 
L 89.68584 119.657581 
L 90.063679 118.615749 
L 90.431861 117.573917 
L 90.784464 116.532085 
L 91.116631 115.490252 
L 91.424561 114.44842 
L 91.705465 113.406588 
L 91.957503 112.364756 
L 92.179695 111.322924 
L 92.371835 110.281091 
L 92.534409 109.239259 
L 92.66851 108.197427 
L 92.775776 107.155595 
L 92.858323 106.113763 
L 92.918693 105.07193 
L 92.959796 104.030098 
L 92.984857 102.988266 
L 92.997343 101.946434 
L 93.00089 100.904602 
L 92.999214 99.86277 
L 92.996005 98.820937 
L 92.994817 97.779105 
L 92.998951 96.737273 
L 93.01134 95.695441 
L 93.034441 94.653609 
L 93.070148 93.611776 
L 93.119717 92.569944 
L 93.183733 91.528112 
L 93.262103 90.48628 
L 93.35408 89.444448 
L 93.458328 88.402616 
L 93.573013 87.360783 
L 93.695919 86.318951 
L 93.824581 85.277119 
L 93.956431 84.235287 
L 94.088938 83.193455 
L 94.219746 82.151622 
L 94.346789 81.10979 
L 94.468384 80.067958 
L 94.583301 79.026126 
L 94.690788 77.984294 
L 94.790578 76.942462 
L 94.882855 75.900629 
L 94.968195 74.858797 
L 95.047485 73.816965 
L 95.121825 72.775133 
L 95.192422 71.733301 
L 95.260477 70.691468 
L 95.327086 69.649636 
L 95.393147 68.607804 
L 95.459287 67.565972 
L 95.525816 66.52414 
L 95.592704 65.482308 
L 95.659584 64.440475 
L 95.725791 63.398643 
L 95.790419 62.356811 
L 95.852404 61.314979 
L 95.910622 60.273147 
L 95.964003 59.231314 
L 96.011638 58.189482 
L 96.05289 57.14765 
L 96.087487 56.105818 
L 96.115598 55.063986 
L 96.137872 54.022153 
L 96.155459 52.980321 
L 96.169984 51.938489 
L 96.183492 50.896657 
L 96.198358 49.854825 
L 96.217165 48.812993 
L 96.242571 47.77116 
L 96.277153 46.729328 
L 96.323255 45.687496 
L 96.382843 44.645664 
L 96.457385 43.603832 
L 96.547746 42.561999 
L 96.654136 41.520167 
L 102.24558 41.520167 
L 102.24558 41.520167 
L 102.351971 42.561999 
L 102.442332 43.603832 
L 102.516874 44.645664 
L 102.576462 45.687496 
L 102.622564 46.729328 
L 102.657146 47.77116 
L 102.682552 48.812993 
L 102.701359 49.854825 
L 102.716225 50.896657 
L 102.729733 51.938489 
L 102.744258 52.980321 
L 102.761845 54.022153 
L 102.784119 55.063986 
L 102.812229 56.105818 
L 102.846827 57.14765 
L 102.888079 58.189482 
L 102.935714 59.231314 
L 102.989095 60.273147 
L 103.047313 61.314979 
L 103.109298 62.356811 
L 103.173926 63.398643 
L 103.240133 64.440475 
L 103.307013 65.482308 
L 103.373901 66.52414 
L 103.44043 67.565972 
L 103.50657 68.607804 
L 103.572631 69.649636 
L 103.63924 70.691468 
L 103.707295 71.733301 
L 103.777892 72.775133 
L 103.852232 73.816965 
L 103.931522 74.858797 
L 104.016862 75.900629 
L 104.109139 76.942462 
L 104.208929 77.984294 
L 104.316416 79.026126 
L 104.431332 80.067958 
L 104.552928 81.10979 
L 104.679971 82.151622 
L 104.810779 83.193455 
L 104.943286 84.235287 
L 105.075136 85.277119 
L 105.203798 86.318951 
L 105.326704 87.360783 
L 105.441389 88.402616 
L 105.545637 89.444448 
L 105.637614 90.48628 
L 105.715984 91.528112 
L 105.78 92.569944 
L 105.829569 93.611776 
L 105.865275 94.653609 
L 105.888377 95.695441 
L 105.900766 96.737273 
L 105.9049 97.779105 
L 105.903712 98.820937 
L 105.900503 99.86277 
L 105.898827 100.904602 
L 105.902374 101.946434 
L 105.91486 102.988266 
L 105.939921 104.030098 
L 105.981024 105.07193 
L 106.041394 106.113763 
L 106.123941 107.155595 
L 106.231207 108.197427 
L 106.365308 109.239259 
L 106.527882 110.281091 
L 106.720022 111.322924 
L 106.942214 112.364756 
L 107.194252 113.406588 
L 107.475156 114.44842 
L 107.783086 115.490252 
L 108.115252 116.532085 
L 108.467856 117.573917 
L 108.836038 118.615749 
L 109.213877 119.657581 
L 109.594429 120.699413 
L 109.969821 121.741245 
L 110.331408 122.783078 
L 110.669983 123.82491 
L 110.976054 124.866742 
L 111.240151 125.908574 
L 111.453183 126.950406 
L 111.606791 127.992239 
L 111.69371 129.034071 
L 111.708094 130.075903 
L 111.645793 131.117735 
L 111.504572 132.159567 
L 111.284237 133.201399 
L 110.986681 134.243232 
L 110.615832 135.285064 
L 110.177509 136.326896 
L 109.679201 137.368728 
L 109.129771 138.41056 
L 108.539115 139.452393 
L 107.917782 140.494225 
L 107.276594 141.536057 
L 106.626265 142.577889 
L 105.977057 143.619721 
L 105.338476 144.661553 
z
" clip-path="url(#p6c067f3e99)" style="fill: #ff8000; fill-opacity: 0.3"/>
   </g>
   <g id="matplotlib.axis_1">
    <g id="xtick_1">
     <g id="line2d_1">
      <defs>
       <path id="mc353704ed9" d="M 0 0 
L 0 3.5 
" style="stroke: #000000; stroke-width: 0.8"/>
      </defs>
      <g>
       <use xlink:href="#mc353704ed9" x="64.426329" y="163.661283" style="stroke: #000000; stroke-width: 0.8"/>
      </g>
     </g>
     <g id="text_1">
      <!-- MSR -->
      <g transform="translate(43.755388 195.136016) rotate(-45) scale(0.12 -0.12)">
       <defs>
        <path id="TimesNewRomanPS-BoldMT-4d" d="M 3050 1444 
L 4200 4238 
L 5925 4238 
L 5925 4122 
L 5788 4122 
Q 5600 4122 5488 4056 
Q 5409 4013 5363 3909 
Q 5328 3834 5328 3519 
L 5328 725 
Q 5328 400 5362 319 
Q 5397 238 5503 177 
Q 5609 116 5788 116 
L 5925 116 
L 5925 0 
L 3713 0 
L 3713 116 
L 3850 116 
Q 4038 116 4150 181 
Q 4228 225 4275 331 
Q 4309 406 4309 725 
L 4309 3866 
L 2684 0 
L 2609 0 
L 959 3838 
L 959 853 
Q 959 541 975 469 
Q 1016 313 1152 214 
Q 1288 116 1578 116 
L 1578 0 
L 128 0 
L 128 116 
L 172 116 
Q 313 113 434 161 
Q 556 209 618 290 
Q 681 372 716 519 
Q 722 553 722 838 
L 722 3519 
Q 722 3841 687 3920 
Q 653 4000 547 4061 
Q 441 4122 263 4122 
L 128 4122 
L 128 4238 
L 1859 4238 
L 3050 1444 
z
" transform="scale(0.015625)"/>
        <path id="TimesNewRomanPS-BoldMT-53" d="M 3006 4334 
L 3041 2922 
L 2913 2922 
Q 2822 3453 2467 3776 
Q 2113 4100 1700 4100 
Q 1381 4100 1195 3929 
Q 1009 3759 1009 3538 
Q 1009 3397 1075 3288 
Q 1166 3141 1366 2997 
Q 1513 2894 2044 2631 
Q 2788 2266 3047 1941 
Q 3303 1616 3303 1197 
Q 3303 666 2889 283 
Q 2475 -100 1838 -100 
Q 1638 -100 1459 -59 
Q 1281 -19 1013 94 
Q 863 156 766 156 
Q 684 156 593 93 
Q 503 31 447 -97 
L 331 -97 
L 331 1503 
L 447 1503 
Q 584 828 976 473 
Q 1369 119 1822 119 
Q 2172 119 2380 309 
Q 2588 500 2588 753 
Q 2588 903 2508 1043 
Q 2428 1184 2265 1311 
Q 2103 1438 1691 1641 
Q 1113 1925 859 2125 
Q 606 2325 470 2572 
Q 334 2819 334 3116 
Q 334 3622 706 3978 
Q 1078 4334 1644 4334 
Q 1850 4334 2044 4284 
Q 2191 4247 2402 4145 
Q 2613 4044 2697 4044 
Q 2778 4044 2825 4094 
Q 2872 4144 2913 4334 
L 3006 4334 
z
" transform="scale(0.015625)"/>
        <path id="TimesNewRomanPS-BoldMT-52" d="M 1700 1931 
L 1700 744 
Q 1700 400 1742 311 
Q 1784 222 1890 169 
Q 1997 116 2288 116 
L 2288 0 
L 119 0 
L 119 116 
Q 413 116 517 170 
Q 622 225 664 312 
Q 706 400 706 744 
L 706 3494 
Q 706 3838 664 3927 
Q 622 4016 515 4069 
Q 409 4122 119 4122 
L 119 4238 
L 2088 4238 
Q 2856 4238 3212 4131 
Q 3569 4025 3794 3739 
Q 4019 3453 4019 3069 
Q 4019 2600 3681 2294 
Q 3466 2100 3078 2003 
L 4097 569 
Q 4297 291 4381 222 
Q 4509 125 4678 116 
L 4678 0 
L 3344 0 
L 1978 1931 
L 1700 1931 
z
M 1700 4009 
L 1700 2153 
L 1878 2153 
Q 2313 2153 2528 2233 
Q 2744 2313 2867 2520 
Q 2991 2728 2991 3063 
Q 2991 3547 2764 3778 
Q 2538 4009 2034 4009 
L 1700 4009 
z
" transform="scale(0.015625)"/>
       </defs>
       <use xlink:href="#TimesNewRomanPS-BoldMT-4d"/>
       <use xlink:href="#TimesNewRomanPS-BoldMT-53" x="94.384766"/>
       <use xlink:href="#TimesNewRomanPS-BoldMT-52" x="150"/>
      </g>
     </g>
    </g>
    <g id="xtick_2">
     <g id="line2d_2">
      <g>
       <use xlink:href="#mc353704ed9" x="99.449858" y="163.661283" style="stroke: #000000; stroke-width: 0.8"/>
      </g>
     </g>
     <g id="text_2">
      <!-- SBO -->
      <g transform="translate(80.656286 193.258647) rotate(-45) scale(0.12 -0.12)">
       <defs>
        <path id="TimesNewRomanPS-BoldMT-42" d="M 2847 2247 
Q 3450 2106 3694 1906 
Q 4044 1622 4044 1169 
Q 4044 691 3659 378 
Q 3188 0 2288 0 
L 134 0 
L 134 116 
Q 428 116 533 170 
Q 638 225 680 312 
Q 722 400 722 744 
L 722 3494 
Q 722 3838 680 3927 
Q 638 4016 531 4069 
Q 425 4122 134 4122 
L 134 4238 
L 2166 4238 
Q 2894 4238 3197 4108 
Q 3500 3978 3675 3720 
Q 3850 3463 3850 3172 
Q 3850 2866 3628 2627 
Q 3406 2388 2847 2247 
z
M 1709 2331 
Q 2153 2331 2364 2431 
Q 2575 2531 2687 2712 
Q 2800 2894 2800 3175 
Q 2800 3456 2689 3636 
Q 2578 3816 2372 3909 
Q 2166 4003 1709 4000 
L 1709 2331 
z
M 1709 2088 
L 1709 728 
L 1706 572 
Q 1706 403 1792 317 
Q 1878 231 2047 231 
Q 2297 231 2508 342 
Q 2719 453 2831 664 
Q 2944 875 2944 1134 
Q 2944 1431 2806 1667 
Q 2669 1903 2428 1997 
Q 2188 2091 1709 2088 
z
" transform="scale(0.015625)"/>
        <path id="TimesNewRomanPS-BoldMT-4f" d="M 2472 4297 
Q 3484 4334 4117 3706 
Q 4750 3078 4750 2134 
Q 4750 1328 4278 716 
Q 3653 -97 2513 -97 
Q 1369 -97 744 678 
Q 250 1291 250 2131 
Q 250 3075 892 3704 
Q 1534 4334 2472 4297 
z
M 2509 4097 
Q 1928 4097 1625 3503 
Q 1378 3016 1378 2103 
Q 1378 1019 1759 500 
Q 2025 138 2503 138 
Q 2825 138 3041 294 
Q 3316 494 3469 933 
Q 3622 1372 3622 2078 
Q 3622 2919 3465 3336 
Q 3309 3753 3067 3925 
Q 2825 4097 2509 4097 
z
" transform="scale(0.015625)"/>
       </defs>
       <use xlink:href="#TimesNewRomanPS-BoldMT-53"/>
       <use xlink:href="#TimesNewRomanPS-BoldMT-42" x="55.615234"/>
       <use xlink:href="#TimesNewRomanPS-BoldMT-4f" x="122.314453"/>
      </g>
     </g>
    </g>
   </g>
   <g id="matplotlib.axis_2">
    <g id="ytick_1">
     <g id="line2d_3">
      <defs>
       <path id="ma5d0525f5a" d="M 0 0 
L -3.5 0 
" style="stroke: #000000; stroke-width: 0.8"/>
      </defs>
      <g>
       <use xlink:href="#ma5d0525f5a" x="49.191094" y="163.661283" style="stroke: #000000; stroke-width: 0.8"/>
      </g>
     </g>
     <g id="text_3">
      <!-- 0.00 -->
      <g transform="translate(21.191094 167.827533) scale(0.12 -0.12)">
       <defs>
        <path id="TimesNewRomanPSMT-30" d="M 231 2094 
Q 231 2819 450 3342 
Q 669 3866 1031 4122 
Q 1313 4325 1613 4325 
Q 2100 4325 2488 3828 
Q 2972 3213 2972 2159 
Q 2972 1422 2759 906 
Q 2547 391 2217 158 
Q 1888 -75 1581 -75 
Q 975 -75 572 641 
Q 231 1244 231 2094 
z
M 844 2016 
Q 844 1141 1059 588 
Q 1238 122 1591 122 
Q 1759 122 1940 273 
Q 2122 425 2216 781 
Q 2359 1319 2359 2297 
Q 2359 3022 2209 3506 
Q 2097 3866 1919 4016 
Q 1791 4119 1609 4119 
Q 1397 4119 1231 3928 
Q 1006 3669 925 3112 
Q 844 2556 844 2016 
z
" transform="scale(0.015625)"/>
        <path id="TimesNewRomanPSMT-2e" d="M 800 606 
Q 947 606 1047 504 
Q 1147 403 1147 259 
Q 1147 116 1045 14 
Q 944 -88 800 -88 
Q 656 -88 554 14 
Q 453 116 453 259 
Q 453 406 554 506 
Q 656 606 800 606 
z
" transform="scale(0.015625)"/>
       </defs>
       <use xlink:href="#TimesNewRomanPSMT-30"/>
       <use xlink:href="#TimesNewRomanPSMT-2e" x="50"/>
       <use xlink:href="#TimesNewRomanPSMT-30" x="75"/>
       <use xlink:href="#TimesNewRomanPSMT-30" x="125"/>
      </g>
     </g>
    </g>
    <g id="ytick_2">
     <g id="line2d_4">
      <g>
       <use xlink:href="#ma5d0525f5a" x="49.191094" y="133.126004" style="stroke: #000000; stroke-width: 0.8"/>
      </g>
     </g>
     <g id="text_4">
      <!-- 0.25 -->
      <g transform="translate(21.191094 137.292254) scale(0.12 -0.12)">
       <defs>
        <path id="TimesNewRomanPSMT-32" d="M 2934 816 
L 2638 0 
L 138 0 
L 138 116 
Q 1241 1122 1691 1759 
Q 2141 2397 2141 2925 
Q 2141 3328 1894 3587 
Q 1647 3847 1303 3847 
Q 991 3847 742 3664 
Q 494 3481 375 3128 
L 259 3128 
Q 338 3706 661 4015 
Q 984 4325 1469 4325 
Q 1984 4325 2329 3994 
Q 2675 3663 2675 3213 
Q 2675 2891 2525 2569 
Q 2294 2063 1775 1497 
Q 997 647 803 472 
L 1909 472 
Q 2247 472 2383 497 
Q 2519 522 2628 598 
Q 2738 675 2819 816 
L 2934 816 
z
" transform="scale(0.015625)"/>
        <path id="TimesNewRomanPSMT-35" d="M 2778 4238 
L 2534 3706 
L 1259 3706 
L 981 3138 
Q 1809 3016 2294 2522 
Q 2709 2097 2709 1522 
Q 2709 1188 2573 903 
Q 2438 619 2231 419 
Q 2025 219 1772 97 
Q 1413 -75 1034 -75 
Q 653 -75 479 54 
Q 306 184 306 341 
Q 306 428 378 495 
Q 450 563 559 563 
Q 641 563 702 538 
Q 763 513 909 409 
Q 1144 247 1384 247 
Q 1750 247 2026 523 
Q 2303 800 2303 1197 
Q 2303 1581 2056 1914 
Q 1809 2247 1375 2428 
Q 1034 2569 447 2591 
L 1259 4238 
L 2778 4238 
z
" transform="scale(0.015625)"/>
       </defs>
       <use xlink:href="#TimesNewRomanPSMT-30"/>
       <use xlink:href="#TimesNewRomanPSMT-2e" x="50"/>
       <use xlink:href="#TimesNewRomanPSMT-32" x="75"/>
       <use xlink:href="#TimesNewRomanPSMT-35" x="125"/>
      </g>
     </g>
    </g>
    <g id="ytick_3">
     <g id="line2d_5">
      <g>
       <use xlink:href="#ma5d0525f5a" x="49.191094" y="102.590725" style="stroke: #000000; stroke-width: 0.8"/>
      </g>
     </g>
     <g id="text_5">
      <!-- 0.50 -->
      <g transform="translate(21.191094 106.756975) scale(0.12 -0.12)">
       <use xlink:href="#TimesNewRomanPSMT-30"/>
       <use xlink:href="#TimesNewRomanPSMT-2e" x="50"/>
       <use xlink:href="#TimesNewRomanPSMT-35" x="75"/>
       <use xlink:href="#TimesNewRomanPSMT-30" x="125"/>
      </g>
     </g>
    </g>
    <g id="ytick_4">
     <g id="line2d_6">
      <g>
       <use xlink:href="#ma5d0525f5a" x="49.191094" y="72.055446" style="stroke: #000000; stroke-width: 0.8"/>
      </g>
     </g>
     <g id="text_6">
      <!-- 0.75 -->
      <g transform="translate(21.191094 76.221696) scale(0.12 -0.12)">
       <defs>
        <path id="TimesNewRomanPSMT-37" d="M 644 4238 
L 2916 4238 
L 2916 4119 
L 1503 -88 
L 1153 -88 
L 2419 3728 
L 1253 3728 
Q 900 3728 750 3644 
Q 488 3500 328 3200 
L 238 3234 
L 644 4238 
z
" transform="scale(0.015625)"/>
       </defs>
       <use xlink:href="#TimesNewRomanPSMT-30"/>
       <use xlink:href="#TimesNewRomanPSMT-2e" x="50"/>
       <use xlink:href="#TimesNewRomanPSMT-37" x="75"/>
       <use xlink:href="#TimesNewRomanPSMT-35" x="125"/>
      </g>
     </g>
    </g>
    <g id="ytick_5">
     <g id="line2d_7">
      <g>
       <use xlink:href="#ma5d0525f5a" x="49.191094" y="41.520167" style="stroke: #000000; stroke-width: 0.8"/>
      </g>
     </g>
     <g id="text_7">
      <!-- 1.00 -->
      <g transform="translate(21.191094 45.686417) scale(0.12 -0.12)">
       <defs>
        <path id="TimesNewRomanPSMT-31" d="M 750 3822 
L 1781 4325 
L 1884 4325 
L 1884 747 
Q 1884 391 1914 303 
Q 1944 216 2037 169 
Q 2131 122 2419 116 
L 2419 0 
L 825 0 
L 825 116 
Q 1125 122 1212 167 
Q 1300 213 1334 289 
Q 1369 366 1369 747 
L 1369 3034 
Q 1369 3497 1338 3628 
Q 1316 3728 1258 3775 
Q 1200 3822 1119 3822 
Q 1003 3822 797 3725 
L 750 3822 
z
" transform="scale(0.015625)"/>
       </defs>
       <use xlink:href="#TimesNewRomanPSMT-31"/>
       <use xlink:href="#TimesNewRomanPSMT-2e" x="50"/>
       <use xlink:href="#TimesNewRomanPSMT-30" x="75"/>
       <use xlink:href="#TimesNewRomanPSMT-30" x="125"/>
      </g>
     </g>
    </g>
    <g id="text_8">
     <!-- DS index of OS at $t_0$ -->
     <g transform="translate(14.838125 139.905141) rotate(-90) scale(0.11 -0.11)">
      <defs>
       <path id="TimesNewRomanPSMT-44" d="M 109 0 
L 109 116 
L 269 116 
Q 538 116 650 288 
Q 719 391 719 750 
L 719 3488 
Q 719 3884 631 3984 
Q 509 4122 269 4122 
L 109 4122 
L 109 4238 
L 1834 4238 
Q 2784 4238 3279 4022 
Q 3775 3806 4076 3303 
Q 4378 2800 4378 2141 
Q 4378 1256 3841 663 
Q 3238 0 2003 0 
L 109 0 
z
M 1319 306 
Q 1716 219 1984 219 
Q 2709 219 3187 728 
Q 3666 1238 3666 2109 
Q 3666 2988 3187 3494 
Q 2709 4000 1959 4000 
Q 1678 4000 1319 3909 
L 1319 306 
z
" transform="scale(0.015625)"/>
       <path id="TimesNewRomanPSMT-53" d="M 2934 4334 
L 2934 2869 
L 2819 2869 
Q 2763 3291 2617 3541 
Q 2472 3791 2203 3937 
Q 1934 4084 1647 4084 
Q 1322 4084 1109 3886 
Q 897 3688 897 3434 
Q 897 3241 1031 3081 
Q 1225 2847 1953 2456 
Q 2547 2138 2764 1967 
Q 2981 1797 3098 1565 
Q 3216 1334 3216 1081 
Q 3216 600 2842 251 
Q 2469 -97 1881 -97 
Q 1697 -97 1534 -69 
Q 1438 -53 1133 45 
Q 828 144 747 144 
Q 669 144 623 97 
Q 578 50 556 -97 
L 441 -97 
L 441 1356 
L 556 1356 
Q 638 900 775 673 
Q 913 447 1195 297 
Q 1478 147 1816 147 
Q 2206 147 2432 353 
Q 2659 559 2659 841 
Q 2659 997 2573 1156 
Q 2488 1316 2306 1453 
Q 2184 1547 1640 1851 
Q 1097 2156 867 2337 
Q 638 2519 519 2737 
Q 400 2956 400 3219 
Q 400 3675 750 4004 
Q 1100 4334 1641 4334 
Q 1978 4334 2356 4169 
Q 2531 4091 2603 4091 
Q 2684 4091 2736 4139 
Q 2788 4188 2819 4334 
L 2934 4334 
z
" transform="scale(0.015625)"/>
       <path id="TimesNewRomanPSMT-20" transform="scale(0.015625)"/>
       <path id="TimesNewRomanPSMT-69" d="M 928 4444 
Q 1059 4444 1151 4351 
Q 1244 4259 1244 4128 
Q 1244 3997 1151 3903 
Q 1059 3809 928 3809 
Q 797 3809 703 3903 
Q 609 3997 609 4128 
Q 609 4259 701 4351 
Q 794 4444 928 4444 
z
M 1188 2947 
L 1188 647 
Q 1188 378 1227 289 
Q 1266 200 1342 156 
Q 1419 113 1622 113 
L 1622 0 
L 231 0 
L 231 113 
Q 441 113 512 153 
Q 584 194 626 287 
Q 669 381 669 647 
L 669 1750 
Q 669 2216 641 2353 
Q 619 2453 572 2492 
Q 525 2531 444 2531 
Q 356 2531 231 2484 
L 188 2597 
L 1050 2947 
L 1188 2947 
z
" transform="scale(0.015625)"/>
       <path id="TimesNewRomanPSMT-6e" d="M 1034 2341 
Q 1538 2947 1994 2947 
Q 2228 2947 2397 2830 
Q 2566 2713 2666 2444 
Q 2734 2256 2734 1869 
L 2734 647 
Q 2734 375 2778 278 
Q 2813 200 2889 156 
Q 2966 113 3172 113 
L 3172 0 
L 1756 0 
L 1756 113 
L 1816 113 
Q 2016 113 2095 173 
Q 2175 234 2206 353 
Q 2219 400 2219 647 
L 2219 1819 
Q 2219 2209 2117 2386 
Q 2016 2563 1775 2563 
Q 1403 2563 1034 2156 
L 1034 647 
Q 1034 356 1069 288 
Q 1113 197 1189 155 
Q 1266 113 1500 113 
L 1500 0 
L 84 0 
L 84 113 
L 147 113 
Q 366 113 442 223 
Q 519 334 519 647 
L 519 1709 
Q 519 2225 495 2337 
Q 472 2450 423 2490 
Q 375 2531 294 2531 
Q 206 2531 84 2484 
L 38 2597 
L 900 2947 
L 1034 2947 
L 1034 2341 
z
" transform="scale(0.015625)"/>
       <path id="TimesNewRomanPSMT-64" d="M 2222 322 
Q 2013 103 1813 7 
Q 1613 -88 1381 -88 
Q 913 -88 563 304 
Q 213 697 213 1313 
Q 213 1928 600 2439 
Q 988 2950 1597 2950 
Q 1975 2950 2222 2709 
L 2222 3238 
Q 2222 3728 2198 3840 
Q 2175 3953 2125 3993 
Q 2075 4034 2000 4034 
Q 1919 4034 1784 3984 
L 1744 4094 
L 2597 4444 
L 2738 4444 
L 2738 1134 
Q 2738 631 2761 520 
Q 2784 409 2836 365 
Q 2888 322 2956 322 
Q 3041 322 3181 375 
L 3216 266 
L 2366 -88 
L 2222 -88 
L 2222 322 
z
M 2222 541 
L 2222 2016 
Q 2203 2228 2109 2403 
Q 2016 2578 1861 2667 
Q 1706 2756 1559 2756 
Q 1284 2756 1069 2509 
Q 784 2184 784 1559 
Q 784 928 1059 592 
Q 1334 256 1672 256 
Q 1956 256 2222 541 
z
" transform="scale(0.015625)"/>
       <path id="TimesNewRomanPSMT-65" d="M 681 1784 
Q 678 1147 991 784 
Q 1303 422 1725 422 
Q 2006 422 2214 576 
Q 2422 731 2563 1106 
L 2659 1044 
Q 2594 616 2278 264 
Q 1963 -88 1488 -88 
Q 972 -88 605 314 
Q 238 716 238 1394 
Q 238 2128 614 2539 
Q 991 2950 1559 2950 
Q 2041 2950 2350 2633 
Q 2659 2316 2659 1784 
L 681 1784 
z
M 681 1966 
L 2006 1966 
Q 1991 2241 1941 2353 
Q 1863 2528 1708 2628 
Q 1553 2728 1384 2728 
Q 1125 2728 920 2526 
Q 716 2325 681 1966 
z
" transform="scale(0.015625)"/>
       <path id="TimesNewRomanPSMT-78" d="M 84 2863 
L 1431 2863 
L 1431 2747 
Q 1303 2747 1251 2703 
Q 1200 2659 1200 2588 
Q 1200 2513 1309 2356 
Q 1344 2306 1413 2200 
L 1616 1875 
L 1850 2200 
Q 2075 2509 2075 2591 
Q 2075 2656 2022 2701 
Q 1969 2747 1850 2747 
L 1850 2863 
L 2819 2863 
L 2819 2747 
Q 2666 2738 2553 2663 
Q 2400 2556 2134 2200 
L 1744 1678 
L 2456 653 
Q 2719 275 2831 198 
Q 2944 122 3122 113 
L 3122 0 
L 1772 0 
L 1772 113 
Q 1913 113 1991 175 
Q 2050 219 2050 291 
Q 2050 363 1850 653 
L 1431 1266 
L 972 653 
Q 759 369 759 316 
Q 759 241 829 180 
Q 900 119 1041 113 
L 1041 0 
L 106 0 
L 106 113 
Q 219 128 303 191 
Q 422 281 703 653 
L 1303 1450 
L 759 2238 
Q 528 2575 401 2661 
Q 275 2747 84 2747 
L 84 2863 
z
" transform="scale(0.015625)"/>
       <path id="TimesNewRomanPSMT-6f" d="M 1600 2947 
Q 2250 2947 2644 2453 
Q 2978 2031 2978 1484 
Q 2978 1100 2793 706 
Q 2609 313 2286 112 
Q 1963 -88 1566 -88 
Q 919 -88 538 428 
Q 216 863 216 1403 
Q 216 1797 411 2186 
Q 606 2575 925 2761 
Q 1244 2947 1600 2947 
z
M 1503 2744 
Q 1338 2744 1170 2645 
Q 1003 2547 900 2300 
Q 797 2053 797 1666 
Q 797 1041 1045 587 
Q 1294 134 1700 134 
Q 2003 134 2200 384 
Q 2397 634 2397 1244 
Q 2397 2006 2069 2444 
Q 1847 2744 1503 2744 
z
" transform="scale(0.015625)"/>
       <path id="TimesNewRomanPSMT-66" d="M 1319 2638 
L 1319 756 
Q 1319 356 1406 250 
Q 1522 113 1716 113 
L 1975 113 
L 1975 0 
L 266 0 
L 266 113 
L 394 113 
Q 519 113 622 175 
Q 725 238 764 344 
Q 803 450 803 756 
L 803 2638 
L 247 2638 
L 247 2863 
L 803 2863 
L 803 3050 
Q 803 3478 940 3775 
Q 1078 4072 1361 4255 
Q 1644 4438 1997 4438 
Q 2325 4438 2600 4225 
Q 2781 4084 2781 3909 
Q 2781 3816 2700 3733 
Q 2619 3650 2525 3650 
Q 2453 3650 2373 3701 
Q 2294 3753 2178 3923 
Q 2063 4094 1966 4153 
Q 1869 4213 1750 4213 
Q 1606 4213 1506 4136 
Q 1406 4059 1362 3898 
Q 1319 3738 1319 3069 
L 1319 2863 
L 2056 2863 
L 2056 2638 
L 1319 2638 
z
" transform="scale(0.015625)"/>
       <path id="TimesNewRomanPSMT-4f" d="M 2341 4334 
Q 3166 4334 3770 3707 
Q 4375 3081 4375 2144 
Q 4375 1178 3765 540 
Q 3156 -97 2291 -97 
Q 1416 -97 820 525 
Q 225 1147 225 2134 
Q 225 3144 913 3781 
Q 1509 4334 2341 4334 
z
M 2281 4106 
Q 1713 4106 1369 3684 
Q 941 3159 941 2147 
Q 941 1109 1384 550 
Q 1725 125 2284 125 
Q 2881 125 3270 590 
Q 3659 1056 3659 2059 
Q 3659 3147 3231 3681 
Q 2888 4106 2281 4106 
z
" transform="scale(0.015625)"/>
       <path id="TimesNewRomanPSMT-61" d="M 1822 413 
Q 1381 72 1269 19 
Q 1100 -59 909 -59 
Q 613 -59 420 144 
Q 228 347 228 678 
Q 228 888 322 1041 
Q 450 1253 767 1440 
Q 1084 1628 1822 1897 
L 1822 2009 
Q 1822 2438 1686 2597 
Q 1550 2756 1291 2756 
Q 1094 2756 978 2650 
Q 859 2544 859 2406 
L 866 2225 
Q 866 2081 792 2003 
Q 719 1925 600 1925 
Q 484 1925 411 2006 
Q 338 2088 338 2228 
Q 338 2497 613 2722 
Q 888 2947 1384 2947 
Q 1766 2947 2009 2819 
Q 2194 2722 2281 2516 
Q 2338 2381 2338 1966 
L 2338 994 
Q 2338 584 2353 492 
Q 2369 400 2405 369 
Q 2441 338 2488 338 
Q 2538 338 2575 359 
Q 2641 400 2828 588 
L 2828 413 
Q 2478 -56 2159 -56 
Q 2006 -56 1915 50 
Q 1825 156 1822 413 
z
M 1822 616 
L 1822 1706 
Q 1350 1519 1213 1441 
Q 966 1303 859 1153 
Q 753 1003 753 825 
Q 753 600 887 451 
Q 1022 303 1197 303 
Q 1434 303 1822 616 
z
" transform="scale(0.015625)"/>
       <path id="TimesNewRomanPSMT-74" d="M 1031 3803 
L 1031 2863 
L 1700 2863 
L 1700 2644 
L 1031 2644 
L 1031 788 
Q 1031 509 1111 412 
Q 1191 316 1316 316 
Q 1419 316 1516 380 
Q 1613 444 1666 569 
L 1788 569 
Q 1678 263 1478 108 
Q 1278 -47 1066 -47 
Q 922 -47 784 33 
Q 647 113 581 261 
Q 516 409 516 719 
L 516 2644 
L 63 2644 
L 63 2747 
Q 234 2816 414 2980 
Q 594 3144 734 3369 
Q 806 3488 934 3803 
L 1031 3803 
z
" transform="scale(0.015625)"/>
       <path id="DejaVuSans-Oblique-74" d="M 2706 3500 
L 2619 3053 
L 1472 3053 
L 1100 1153 
Q 1081 1047 1072 975 
Q 1063 903 1063 863 
Q 1063 663 1183 572 
Q 1303 481 1569 481 
L 2150 481 
L 2053 0 
L 1503 0 
Q 991 0 739 200 
Q 488 400 488 806 
Q 488 878 497 964 
Q 506 1050 525 1153 
L 897 3053 
L 409 3053 
L 500 3500 
L 978 3500 
L 1172 4494 
L 1747 4494 
L 1556 3500 
L 2706 3500 
z
" transform="scale(0.015625)"/>
       <path id="DejaVuSans-30" d="M 2034 4250 
Q 1547 4250 1301 3770 
Q 1056 3291 1056 2328 
Q 1056 1369 1301 889 
Q 1547 409 2034 409 
Q 2525 409 2770 889 
Q 3016 1369 3016 2328 
Q 3016 3291 2770 3770 
Q 2525 4250 2034 4250 
z
M 2034 4750 
Q 2819 4750 3233 4129 
Q 3647 3509 3647 2328 
Q 3647 1150 3233 529 
Q 2819 -91 2034 -91 
Q 1250 -91 836 529 
Q 422 1150 422 2328 
Q 422 3509 836 4129 
Q 1250 4750 2034 4750 
z
" transform="scale(0.015625)"/>
      </defs>
      <use xlink:href="#TimesNewRomanPSMT-44" transform="translate(0 0.78125)"/>
      <use xlink:href="#TimesNewRomanPSMT-53" transform="translate(72.216797 0.78125)"/>
      <use xlink:href="#TimesNewRomanPSMT-20" transform="translate(127.832031 0.78125)"/>
      <use xlink:href="#TimesNewRomanPSMT-69" transform="translate(152.832031 0.78125)"/>
      <use xlink:href="#TimesNewRomanPSMT-6e" transform="translate(180.615234 0.78125)"/>
      <use xlink:href="#TimesNewRomanPSMT-64" transform="translate(230.615234 0.78125)"/>
      <use xlink:href="#TimesNewRomanPSMT-65" transform="translate(280.615234 0.78125)"/>
      <use xlink:href="#TimesNewRomanPSMT-78" transform="translate(325 0.78125)"/>
      <use xlink:href="#TimesNewRomanPSMT-20" transform="translate(375 0.78125)"/>
      <use xlink:href="#TimesNewRomanPSMT-6f" transform="translate(400 0.78125)"/>
      <use xlink:href="#TimesNewRomanPSMT-66" transform="translate(450 0.78125)"/>
      <use xlink:href="#TimesNewRomanPSMT-20" transform="translate(483.300781 0.78125)"/>
      <use xlink:href="#TimesNewRomanPSMT-4f" transform="translate(508.300781 0.78125)"/>
      <use xlink:href="#TimesNewRomanPSMT-53" transform="translate(580.517578 0.78125)"/>
      <use xlink:href="#TimesNewRomanPSMT-20" transform="translate(636.132812 0.78125)"/>
      <use xlink:href="#TimesNewRomanPSMT-61" transform="translate(661.132812 0.78125)"/>
      <use xlink:href="#TimesNewRomanPSMT-74" transform="translate(705.517578 0.78125)"/>
      <use xlink:href="#TimesNewRomanPSMT-20" transform="translate(733.300781 0.78125)"/>
      <use xlink:href="#DejaVuSans-Oblique-74" transform="translate(758.300781 0.78125)"/>
      <use xlink:href="#DejaVuSans-30" transform="translate(797.509766 -15.625) scale(0.7)"/>
     </g>
    </g>
   </g>
   <g id="LineCollection_1">
    <path d="M 58.297211 95.891365 
L 70.555447 95.891365 
" clip-path="url(#p6c067f3e99)" style="fill: none; stroke: #000000; stroke-width: 2"/>
    <path d="M 93.320741 104.574213 
L 105.578976 104.574213 
" clip-path="url(#p6c067f3e99)" style="fill: none; stroke: #000000; stroke-width: 2"/>
   </g>
   <g id="LineCollection_2">
    <path d="M 58.297211 41.520167 
L 70.555447 41.520167 
" clip-path="url(#p6c067f3e99)" style="fill: none; stroke: #1f77b4; stroke-width: 1.5"/>
    <path d="M 93.320741 41.520167 
L 105.578976 41.520167 
" clip-path="url(#p6c067f3e99)" style="fill: none; stroke: #1f77b4; stroke-width: 1.5"/>
   </g>
   <g id="LineCollection_3">
    <path d="M 58.297211 152.125733 
L 70.555447 152.125733 
" clip-path="url(#p6c067f3e99)" style="fill: none; stroke: #1f77b4; stroke-width: 1.5"/>
    <path d="M 93.320741 144.661553 
L 105.578976 144.661553 
" clip-path="url(#p6c067f3e99)" style="fill: none; stroke: #1f77b4; stroke-width: 1.5"/>
   </g>
   <g id="LineCollection_4">
    <path d="M 64.426329 152.125733 
L 64.426329 41.520167 
" clip-path="url(#p6c067f3e99)" style="fill: none; stroke: #1f77b4; stroke-width: 1.5"/>
    <path d="M 99.449858 144.661553 
L 99.449858 41.520167 
" clip-path="url(#p6c067f3e99)" style="fill: none; stroke: #1f77b4; stroke-width: 1.5"/>
   </g>
   <g id="LineCollection_5">
    <path d="M 58.297211 94.447984 
L 70.555447 94.447984 
" clip-path="url(#p6c067f3e99)" style="fill: none; stroke-dasharray: 2,3.3; stroke-dashoffset: 0; stroke: #808080; stroke-width: 2"/>
    <path d="M 93.320741 113.108432 
L 105.578976 113.108432 
" clip-path="url(#p6c067f3e99)" style="fill: none; stroke-dasharray: 2,3.3; stroke-dashoffset: 0; stroke: #808080; stroke-width: 2"/>
   </g>
   <g id="patch_3">
    <path d="M 49.191094 163.661283 
L 49.191094 23.199 
" style="fill: none; stroke: #000000; stroke-width: 0.8; stroke-linejoin: miter; stroke-linecap: square"/>
   </g>
   <g id="patch_4">
    <path d="M 114.685094 163.661283 
L 114.685094 23.199 
" style="fill: none; stroke: #000000; stroke-width: 0.8; stroke-linejoin: miter; stroke-linecap: square"/>
   </g>
   <g id="patch_5">
    <path d="M 49.191094 163.661283 
L 114.685094 163.661283 
" style="fill: none; stroke: #000000; stroke-width: 0.8; stroke-linejoin: miter; stroke-linecap: square"/>
   </g>
   <g id="patch_6">
    <path d="M 49.191094 23.199 
L 114.685094 23.199 
" style="fill: none; stroke: #000000; stroke-width: 0.8; stroke-linejoin: miter; stroke-linecap: square"/>
   </g>
   <g id="text_9">
    <!-- 236 -->
    <g transform="translate(56.926329 37.815455) scale(0.1 -0.1)">
     <defs>
      <path id="TimesNewRomanPSMT-33" d="M 325 3431 
Q 506 3859 782 4092 
Q 1059 4325 1472 4325 
Q 1981 4325 2253 3994 
Q 2459 3747 2459 3466 
Q 2459 3003 1878 2509 
Q 2269 2356 2469 2072 
Q 2669 1788 2669 1403 
Q 2669 853 2319 450 
Q 1863 -75 997 -75 
Q 569 -75 414 31 
Q 259 138 259 259 
Q 259 350 332 419 
Q 406 488 509 488 
Q 588 488 669 463 
Q 722 447 909 348 
Q 1097 250 1169 231 
Q 1284 197 1416 197 
Q 1734 197 1970 444 
Q 2206 691 2206 1028 
Q 2206 1275 2097 1509 
Q 2016 1684 1919 1775 
Q 1784 1900 1550 2001 
Q 1316 2103 1072 2103 
L 972 2103 
L 972 2197 
Q 1219 2228 1467 2375 
Q 1716 2522 1828 2728 
Q 1941 2934 1941 3181 
Q 1941 3503 1739 3701 
Q 1538 3900 1238 3900 
Q 753 3900 428 3381 
L 325 3431 
z
" transform="scale(0.015625)"/>
      <path id="TimesNewRomanPSMT-36" d="M 2869 4325 
L 2869 4209 
Q 2456 4169 2195 4045 
Q 1934 3922 1679 3669 
Q 1425 3416 1258 3105 
Q 1091 2794 978 2366 
Q 1428 2675 1881 2675 
Q 2316 2675 2634 2325 
Q 2953 1975 2953 1425 
Q 2953 894 2631 456 
Q 2244 -75 1606 -75 
Q 1172 -75 869 213 
Q 275 772 275 1663 
Q 275 2231 503 2743 
Q 731 3256 1154 3653 
Q 1578 4050 1965 4187 
Q 2353 4325 2688 4325 
L 2869 4325 
z
M 925 2138 
Q 869 1716 869 1456 
Q 869 1156 980 804 
Q 1091 453 1309 247 
Q 1469 100 1697 100 
Q 1969 100 2183 356 
Q 2397 613 2397 1088 
Q 2397 1622 2184 2012 
Q 1972 2403 1581 2403 
Q 1463 2403 1327 2353 
Q 1191 2303 925 2138 
z
" transform="scale(0.015625)"/>
     </defs>
     <use xlink:href="#TimesNewRomanPSMT-32"/>
     <use xlink:href="#TimesNewRomanPSMT-33" x="50"/>
     <use xlink:href="#TimesNewRomanPSMT-36" x="100"/>
    </g>
   </g>
   <g id="text_10">
    <!-- 286 -->
    <g transform="translate(91.949858 37.815455) scale(0.1 -0.1)">
     <defs>
      <path id="TimesNewRomanPSMT-38" d="M 1228 2134 
Q 725 2547 579 2797 
Q 434 3047 434 3316 
Q 434 3728 753 4026 
Q 1072 4325 1600 4325 
Q 2113 4325 2425 4047 
Q 2738 3769 2738 3413 
Q 2738 3175 2569 2928 
Q 2400 2681 1866 2347 
Q 2416 1922 2594 1678 
Q 2831 1359 2831 1006 
Q 2831 559 2490 242 
Q 2150 -75 1597 -75 
Q 994 -75 656 303 
Q 388 606 388 966 
Q 388 1247 577 1523 
Q 766 1800 1228 2134 
z
M 1719 2469 
Q 2094 2806 2194 3001 
Q 2294 3197 2294 3444 
Q 2294 3772 2109 3958 
Q 1925 4144 1606 4144 
Q 1288 4144 1088 3959 
Q 888 3775 888 3528 
Q 888 3366 970 3203 
Q 1053 3041 1206 2894 
L 1719 2469 
z
M 1375 2016 
Q 1116 1797 991 1539 
Q 866 1281 866 981 
Q 866 578 1086 336 
Q 1306 94 1647 94 
Q 1984 94 2187 284 
Q 2391 475 2391 747 
Q 2391 972 2272 1150 
Q 2050 1481 1375 2016 
z
" transform="scale(0.015625)"/>
     </defs>
     <use xlink:href="#TimesNewRomanPSMT-32"/>
     <use xlink:href="#TimesNewRomanPSMT-38" x="50"/>
     <use xlink:href="#TimesNewRomanPSMT-36" x="100"/>
    </g>
   </g>
   <g id="text_11">
    <!-- 3 Vessels -->
    <g transform="translate(55.465719 17.199) scale(0.144 -0.144)">
     <defs>
      <path id="TimesNewRomanPSMT-56" d="M 4544 4238 
L 4544 4122 
Q 4319 4081 4203 3978 
Q 4038 3825 3909 3509 
L 2431 -97 
L 2316 -97 
L 728 3556 
Q 606 3838 556 3900 
Q 478 3997 364 4051 
Q 250 4106 56 4122 
L 56 4238 
L 1788 4238 
L 1788 4122 
Q 1494 4094 1406 4022 
Q 1319 3950 1319 3838 
Q 1319 3681 1463 3350 
L 2541 866 
L 3541 3319 
Q 3688 3681 3688 3822 
Q 3688 3913 3597 3995 
Q 3506 4078 3291 4113 
Q 3275 4116 3238 4122 
L 3238 4238 
L 4544 4238 
z
" transform="scale(0.015625)"/>
      <path id="TimesNewRomanPSMT-73" d="M 2050 2947 
L 2050 1972 
L 1947 1972 
Q 1828 2431 1642 2597 
Q 1456 2763 1169 2763 
Q 950 2763 815 2647 
Q 681 2531 681 2391 
Q 681 2216 781 2091 
Q 878 1963 1175 1819 
L 1631 1597 
Q 2266 1288 2266 781 
Q 2266 391 1970 151 
Q 1675 -88 1309 -88 
Q 1047 -88 709 6 
Q 606 38 541 38 
Q 469 38 428 -44 
L 325 -44 
L 325 978 
L 428 978 
Q 516 541 762 319 
Q 1009 97 1316 97 
Q 1531 97 1667 223 
Q 1803 350 1803 528 
Q 1803 744 1651 891 
Q 1500 1038 1047 1263 
Q 594 1488 453 1669 
Q 313 1847 313 2119 
Q 313 2472 555 2709 
Q 797 2947 1181 2947 
Q 1350 2947 1591 2875 
Q 1750 2828 1803 2828 
Q 1853 2828 1881 2850 
Q 1909 2872 1947 2947 
L 2050 2947 
z
" transform="scale(0.015625)"/>
      <path id="TimesNewRomanPSMT-6c" d="M 1184 4444 
L 1184 647 
Q 1184 378 1223 290 
Q 1263 203 1344 158 
Q 1425 113 1647 113 
L 1647 0 
L 244 0 
L 244 113 
Q 441 113 512 153 
Q 584 194 625 287 
Q 666 381 666 647 
L 666 3247 
Q 666 3731 644 3842 
Q 622 3953 573 3993 
Q 525 4034 450 4034 
Q 369 4034 244 3984 
L 191 4094 
L 1044 4444 
L 1184 4444 
z
" transform="scale(0.015625)"/>
     </defs>
     <use xlink:href="#TimesNewRomanPSMT-33"/>
     <use xlink:href="#TimesNewRomanPSMT-20" x="50"/>
     <use xlink:href="#TimesNewRomanPSMT-56" x="73.25"/>
     <use xlink:href="#TimesNewRomanPSMT-65" x="134.341797"/>
     <use xlink:href="#TimesNewRomanPSMT-73" x="178.726562"/>
     <use xlink:href="#TimesNewRomanPSMT-73" x="217.642578"/>
     <use xlink:href="#TimesNewRomanPSMT-65" x="256.558594"/>
     <use xlink:href="#TimesNewRomanPSMT-6c" x="300.943359"/>
     <use xlink:href="#TimesNewRomanPSMT-73" x="328.726562"/>
    </g>
   </g>
  </g>
  <g id="axes_2">
   <g id="patch_7">
    <path d="M 149.585094 163.661283 
L 215.079094 163.661283 
L 215.079094 23.199 
L 149.585094 23.199 
z
" style="fill: #ffffff"/>
   </g>
   <g id="PolyCollection_3">
    <path d="M 170.266892 144.661553 
L 159.373766 144.661553 
L 158.894407 143.619721 
L 158.412883 142.577889 
L 157.934741 141.536057 
L 157.465724 140.494225 
L 157.011623 139.452393 
L 156.578116 138.41056 
L 156.170601 137.368728 
L 155.794041 136.326896 
L 155.452812 135.285064 
L 155.150581 134.243232 
L 154.890193 133.201399 
L 154.673606 132.159567 
L 154.501842 131.117735 
L 154.374988 130.075903 
L 154.292219 129.034071 
L 154.251859 127.992239 
L 154.251474 126.950406 
L 154.287978 125.908574 
L 154.357764 124.866742 
L 154.456838 123.82491 
L 154.580955 122.783078 
L 154.725755 121.741245 
L 154.886871 120.699413 
L 155.060038 119.657581 
L 155.241167 118.615749 
L 155.426398 117.573917 
L 155.612137 116.532085 
L 155.795058 115.490252 
L 155.972098 114.44842 
L 156.140431 113.406588 
L 156.297437 112.364756 
L 156.440666 111.322924 
L 156.567804 110.281091 
L 156.676651 109.239259 
L 156.765105 108.197427 
L 156.831172 107.155595 
L 156.87298 106.113763 
L 156.888824 105.07193 
L 156.87722 104.030098 
L 156.83697 102.988266 
L 156.767244 101.946434 
L 156.667656 100.904602 
L 156.538346 99.86277 
L 156.380043 98.820937 
L 156.194121 97.779105 
L 155.982634 96.737273 
L 155.748318 95.695441 
L 155.494575 94.653609 
L 155.225423 93.611776 
L 154.945418 92.569944 
L 154.659549 91.528112 
L 154.373112 90.48628 
L 154.091571 89.444448 
L 153.820393 88.402616 
L 153.564899 87.360783 
L 153.3301 86.318951 
L 153.120552 85.277119 
L 152.940222 84.235287 
L 152.792374 83.193455 
L 152.679476 82.151622 
L 152.60314 81.10979 
L 152.564078 80.067958 
L 152.562094 79.026126 
L 152.596089 77.984294 
L 152.664104 76.942462 
L 152.763368 75.900629 
L 152.89037 74.858797 
L 153.040948 73.816965 
L 153.210386 72.775133 
L 153.39352 71.733301 
L 153.584855 70.691468 
L 153.77869 69.649636 
L 153.969244 68.607804 
L 154.150796 67.565972 
L 154.317821 66.52414 
L 154.465138 65.482308 
L 154.588056 64.440475 
L 154.682519 63.398643 
L 154.745252 62.356811 
L 154.773896 61.314979 
L 154.767135 60.273147 
L 154.724798 59.231314 
L 154.647941 58.189482 
L 154.5389 57.14765 
L 154.401299 56.105818 
L 154.240021 55.063986 
L 154.061129 54.022153 
L 153.871738 52.980321 
L 153.679838 51.938489 
L 153.49407 50.896657 
L 153.32346 49.854825 
L 153.177126 48.812993 
L 153.063955 47.77116 
L 152.992282 46.729328 
L 152.96957 45.687496 
L 153.00212 44.645664 
L 153.094812 43.603832 
L 153.250902 42.561999 
L 153.471887 41.520167 
L 176.168771 41.520167 
L 176.168771 41.520167 
L 176.389756 42.561999 
L 176.545846 43.603832 
L 176.638538 44.645664 
L 176.671088 45.687496 
L 176.648376 46.729328 
L 176.576703 47.77116 
L 176.463532 48.812993 
L 176.317198 49.854825 
L 176.146589 50.896657 
L 175.96082 51.938489 
L 175.76892 52.980321 
L 175.579529 54.022153 
L 175.400637 55.063986 
L 175.239359 56.105818 
L 175.101758 57.14765 
L 174.992717 58.189482 
L 174.915861 59.231314 
L 174.873523 60.273147 
L 174.866762 61.314979 
L 174.895406 62.356811 
L 174.958139 63.398643 
L 175.052602 64.440475 
L 175.17552 65.482308 
L 175.322837 66.52414 
L 175.489862 67.565972 
L 175.671414 68.607804 
L 175.861968 69.649636 
L 176.055803 70.691468 
L 176.247138 71.733301 
L 176.430272 72.775133 
L 176.59971 73.816965 
L 176.750289 74.858797 
L 176.87729 75.900629 
L 176.976554 76.942462 
L 177.044569 77.984294 
L 177.078564 79.026126 
L 177.07658 80.067958 
L 177.037518 81.10979 
L 176.961182 82.151622 
L 176.848284 83.193455 
L 176.700436 84.235287 
L 176.520106 85.277119 
L 176.310558 86.318951 
L 176.075759 87.360783 
L 175.820265 88.402616 
L 175.549087 89.444448 
L 175.267546 90.48628 
L 174.98111 91.528112 
L 174.69524 92.569944 
L 174.415235 93.611776 
L 174.146083 94.653609 
L 173.89234 95.695441 
L 173.658024 96.737273 
L 173.446537 97.779105 
L 173.260615 98.820937 
L 173.102312 99.86277 
L 172.973002 100.904602 
L 172.873414 101.946434 
L 172.803688 102.988266 
L 172.763438 104.030098 
L 172.751834 105.07193 
L 172.767678 106.113763 
L 172.809486 107.155595 
L 172.875553 108.197427 
L 172.964007 109.239259 
L 173.072854 110.281091 
L 173.199992 111.322924 
L 173.343221 112.364756 
L 173.500227 113.406588 
L 173.66856 114.44842 
L 173.8456 115.490252 
L 174.028521 116.532085 
L 174.21426 117.573917 
L 174.399492 118.615749 
L 174.58062 119.657581 
L 174.753787 120.699413 
L 174.914903 121.741245 
L 175.059703 122.783078 
L 175.18382 123.82491 
L 175.282894 124.866742 
L 175.35268 125.908574 
L 175.389184 126.950406 
L 175.388799 127.992239 
L 175.348439 129.034071 
L 175.26567 130.075903 
L 175.138816 131.117735 
L 174.967052 132.159567 
L 174.750465 133.201399 
L 174.490077 134.243232 
L 174.187846 135.285064 
L 173.846618 136.326896 
L 173.470057 137.368728 
L 173.062542 138.41056 
L 172.629035 139.452393 
L 172.174934 140.494225 
L 171.705917 141.536057 
L 171.227775 142.577889 
L 170.746251 143.619721 
L 170.266892 144.661553 
z
" clip-path="url(#pece74ed1f0)" style="fill: #0080ff; fill-opacity: 0.3"/>
   </g>
   <g id="PolyCollection_4">
    <path d="M 204.141883 144.661553 
L 195.545834 144.661553 
L 194.97173 143.619721 
L 194.365626 142.577889 
L 193.734024 141.536057 
L 193.084848 140.494225 
L 192.427299 139.452393 
L 191.771645 138.41056 
L 191.128924 137.368728 
L 190.510578 136.326896 
L 189.928042 135.285064 
L 189.392294 134.243232 
L 188.913402 133.201399 
L 188.500082 132.159567 
L 188.159318 131.117735 
L 187.896035 130.075903 
L 187.712883 129.034071 
L 187.610121 127.992239 
L 187.585623 126.950406 
L 187.635003 125.908574 
L 187.751851 124.866742 
L 187.928058 123.82491 
L 188.154226 122.783078 
L 188.420109 121.741245 
L 188.715081 120.699413 
L 189.028589 119.657581 
L 189.350561 118.615749 
L 189.671764 117.573917 
L 189.984073 116.532085 
L 190.280664 115.490252 
L 190.556111 114.44842 
L 190.806397 113.406588 
L 191.028864 112.364756 
L 191.222084 111.322924 
L 191.385704 110.281091 
L 191.520258 109.239259 
L 191.626975 108.197427 
L 191.707594 107.155595 
L 191.764199 106.113763 
L 191.799089 105.07193 
L 191.814671 104.030098 
L 191.813403 102.988266 
L 191.797748 101.946434 
L 191.770177 100.904602 
L 191.733173 99.86277 
L 191.689254 98.820937 
L 191.640999 97.779105 
L 191.591059 96.737273 
L 191.542167 95.695441 
L 191.49712 94.653609 
L 191.458746 93.611776 
L 191.429845 92.569944 
L 191.413118 91.528112 
L 191.411069 90.48628 
L 191.42591 89.444448 
L 191.459459 88.402616 
L 191.513043 87.360783 
L 191.587419 86.318951 
L 191.682718 85.277119 
L 191.798416 84.235287 
L 191.933338 83.193455 
L 192.085697 82.151622 
L 192.253167 81.10979 
L 192.43298 80.067958 
L 192.622048 79.026126 
L 192.817102 77.984294 
L 193.014832 76.942462 
L 193.212026 75.900629 
L 193.405694 74.858797 
L 193.593175 73.816965 
L 193.772215 72.775133 
L 193.941017 71.733301 
L 194.098265 70.691468 
L 194.243112 69.649636 
L 194.375146 68.607804 
L 194.494332 67.565972 
L 194.600943 66.52414 
L 194.695481 65.482308 
L 194.778597 64.440475 
L 194.851017 63.398643 
L 194.913487 62.356811 
L 194.966731 61.314979 
L 195.011437 60.273147 
L 195.048268 59.231314 
L 195.077887 58.189482 
L 195.10102 57.14765 
L 195.118514 56.105818 
L 195.131415 55.063986 
L 195.141037 54.022153 
L 195.149013 52.980321 
L 195.157334 51.938489 
L 195.168338 50.896657 
L 195.184681 49.854825 
L 195.20925 48.812993 
L 195.245051 47.77116 
L 195.295057 46.729328 
L 195.362038 45.687496 
L 195.448384 44.645664 
L 195.55593 43.603832 
L 195.685805 42.561999 
L 195.838323 41.520167 
L 203.849394 41.520167 
L 203.849394 41.520167 
L 204.001911 42.561999 
L 204.131787 43.603832 
L 204.239333 44.645664 
L 204.325679 45.687496 
L 204.39266 46.729328 
L 204.442666 47.77116 
L 204.478467 48.812993 
L 204.503036 49.854825 
L 204.519379 50.896657 
L 204.530383 51.938489 
L 204.538704 52.980321 
L 204.54668 54.022153 
L 204.556302 55.063986 
L 204.569203 56.105818 
L 204.586697 57.14765 
L 204.60983 58.189482 
L 204.639449 59.231314 
L 204.67628 60.273147 
L 204.720986 61.314979 
L 204.77423 62.356811 
L 204.8367 63.398643 
L 204.90912 64.440475 
L 204.992235 65.482308 
L 205.086774 66.52414 
L 205.193385 67.565972 
L 205.312571 68.607804 
L 205.444605 69.649636 
L 205.589452 70.691468 
L 205.7467 71.733301 
L 205.915502 72.775133 
L 206.094542 73.816965 
L 206.282022 74.858797 
L 206.475691 75.900629 
L 206.672885 76.942462 
L 206.870615 77.984294 
L 207.065669 79.026126 
L 207.254737 80.067958 
L 207.434549 81.10979 
L 207.60202 82.151622 
L 207.754379 83.193455 
L 207.889301 84.235287 
L 208.004999 85.277119 
L 208.100298 86.318951 
L 208.174674 87.360783 
L 208.228258 88.402616 
L 208.261807 89.444448 
L 208.276648 90.48628 
L 208.274599 91.528112 
L 208.257872 92.569944 
L 208.228971 93.611776 
L 208.190597 94.653609 
L 208.14555 95.695441 
L 208.096658 96.737273 
L 208.046718 97.779105 
L 207.998462 98.820937 
L 207.954544 99.86277 
L 207.91754 100.904602 
L 207.889969 101.946434 
L 207.874314 102.988266 
L 207.873045 104.030098 
L 207.888628 105.07193 
L 207.923518 106.113763 
L 207.980123 107.155595 
L 208.060741 108.197427 
L 208.167459 109.239259 
L 208.302013 110.281091 
L 208.465633 111.322924 
L 208.658853 112.364756 
L 208.881319 113.406588 
L 209.131606 114.44842 
L 209.407053 115.490252 
L 209.703644 116.532085 
L 210.015953 117.573917 
L 210.337156 118.615749 
L 210.659128 119.657581 
L 210.972636 120.699413 
L 211.267608 121.741245 
L 211.533491 122.783078 
L 211.759659 123.82491 
L 211.935866 124.866742 
L 212.052713 125.908574 
L 212.102094 126.950406 
L 212.077596 127.992239 
L 211.974834 129.034071 
L 211.791682 130.075903 
L 211.528399 131.117735 
L 211.187635 132.159567 
L 210.774315 133.201399 
L 210.295422 134.243232 
L 209.759675 135.285064 
L 209.177139 136.326896 
L 208.558793 137.368728 
L 207.916072 138.41056 
L 207.260418 139.452393 
L 206.602869 140.494225 
L 205.953693 141.536057 
L 205.322091 142.577889 
L 204.715987 143.619721 
L 204.141883 144.661553 
z
" clip-path="url(#pece74ed1f0)" style="fill: #ff8000; fill-opacity: 0.3"/>
   </g>
   <g id="matplotlib.axis_3">
    <g id="xtick_3">
     <g id="line2d_8">
      <g>
       <use xlink:href="#mc353704ed9" x="164.820329" y="163.661283" style="stroke: #000000; stroke-width: 0.8"/>
      </g>
     </g>
     <g id="text_12">
      <!-- MSR -->
      <g transform="translate(144.149388 195.136016) rotate(-45) scale(0.12 -0.12)">
       <use xlink:href="#TimesNewRomanPS-BoldMT-4d"/>
       <use xlink:href="#TimesNewRomanPS-BoldMT-53" x="94.384766"/>
       <use xlink:href="#TimesNewRomanPS-BoldMT-52" x="150"/>
      </g>
     </g>
    </g>
    <g id="xtick_4">
     <g id="line2d_9">
      <g>
       <use xlink:href="#mc353704ed9" x="199.843858" y="163.661283" style="stroke: #000000; stroke-width: 0.8"/>
      </g>
     </g>
     <g id="text_13">
      <!-- SBO -->
      <g transform="translate(181.050286 193.258647) rotate(-45) scale(0.12 -0.12)">
       <use xlink:href="#TimesNewRomanPS-BoldMT-53"/>
       <use xlink:href="#TimesNewRomanPS-BoldMT-42" x="55.615234"/>
       <use xlink:href="#TimesNewRomanPS-BoldMT-4f" x="122.314453"/>
      </g>
     </g>
    </g>
   </g>
   <g id="matplotlib.axis_4">
    <g id="ytick_6">
     <g id="line2d_10">
      <g>
       <use xlink:href="#ma5d0525f5a" x="149.585094" y="163.661283" style="stroke: #000000; stroke-width: 0.8"/>
      </g>
     </g>
     <g id="text_14">
      <!-- 0.00 -->
      <g transform="translate(121.585094 167.827533) scale(0.12 -0.12)">
       <use xlink:href="#TimesNewRomanPSMT-30"/>
       <use xlink:href="#TimesNewRomanPSMT-2e" x="50"/>
       <use xlink:href="#TimesNewRomanPSMT-30" x="75"/>
       <use xlink:href="#TimesNewRomanPSMT-30" x="125"/>
      </g>
     </g>
    </g>
    <g id="ytick_7">
     <g id="line2d_11">
      <g>
       <use xlink:href="#ma5d0525f5a" x="149.585094" y="133.126004" style="stroke: #000000; stroke-width: 0.8"/>
      </g>
     </g>
     <g id="text_15">
      <!-- 0.25 -->
      <g transform="translate(121.585094 137.292254) scale(0.12 -0.12)">
       <use xlink:href="#TimesNewRomanPSMT-30"/>
       <use xlink:href="#TimesNewRomanPSMT-2e" x="50"/>
       <use xlink:href="#TimesNewRomanPSMT-32" x="75"/>
       <use xlink:href="#TimesNewRomanPSMT-35" x="125"/>
      </g>
     </g>
    </g>
    <g id="ytick_8">
     <g id="line2d_12">
      <g>
       <use xlink:href="#ma5d0525f5a" x="149.585094" y="102.590725" style="stroke: #000000; stroke-width: 0.8"/>
      </g>
     </g>
     <g id="text_16">
      <!-- 0.50 -->
      <g transform="translate(121.585094 106.756975) scale(0.12 -0.12)">
       <use xlink:href="#TimesNewRomanPSMT-30"/>
       <use xlink:href="#TimesNewRomanPSMT-2e" x="50"/>
       <use xlink:href="#TimesNewRomanPSMT-35" x="75"/>
       <use xlink:href="#TimesNewRomanPSMT-30" x="125"/>
      </g>
     </g>
    </g>
    <g id="ytick_9">
     <g id="line2d_13">
      <g>
       <use xlink:href="#ma5d0525f5a" x="149.585094" y="72.055446" style="stroke: #000000; stroke-width: 0.8"/>
      </g>
     </g>
     <g id="text_17">
      <!-- 0.75 -->
      <g transform="translate(121.585094 76.221696) scale(0.12 -0.12)">
       <use xlink:href="#TimesNewRomanPSMT-30"/>
       <use xlink:href="#TimesNewRomanPSMT-2e" x="50"/>
       <use xlink:href="#TimesNewRomanPSMT-37" x="75"/>
       <use xlink:href="#TimesNewRomanPSMT-35" x="125"/>
      </g>
     </g>
    </g>
    <g id="ytick_10">
     <g id="line2d_14">
      <g>
       <use xlink:href="#ma5d0525f5a" x="149.585094" y="41.520167" style="stroke: #000000; stroke-width: 0.8"/>
      </g>
     </g>
     <g id="text_18">
      <!-- 1.00 -->
      <g transform="translate(121.585094 45.686417) scale(0.12 -0.12)">
       <use xlink:href="#TimesNewRomanPSMT-31"/>
       <use xlink:href="#TimesNewRomanPSMT-2e" x="50"/>
       <use xlink:href="#TimesNewRomanPSMT-30" x="75"/>
       <use xlink:href="#TimesNewRomanPSMT-30" x="125"/>
      </g>
     </g>
    </g>
   </g>
   <g id="LineCollection_6">
    <path d="M 158.691211 85.682014 
L 170.949447 85.682014 
" clip-path="url(#pece74ed1f0)" style="fill: none; stroke: #000000; stroke-width: 2"/>
    <path d="M 193.714741 98.654623 
L 205.972976 98.654623 
" clip-path="url(#pece74ed1f0)" style="fill: none; stroke: #000000; stroke-width: 2"/>
   </g>
   <g id="LineCollection_7">
    <path d="M 158.691211 41.520167 
L 170.949447 41.520167 
" clip-path="url(#pece74ed1f0)" style="fill: none; stroke: #1f77b4; stroke-width: 1.5"/>
    <path d="M 193.714741 41.520167 
L 205.972976 41.520167 
" clip-path="url(#pece74ed1f0)" style="fill: none; stroke: #1f77b4; stroke-width: 1.5"/>
   </g>
   <g id="LineCollection_8">
    <path d="M 158.691211 144.661553 
L 170.949447 144.661553 
" clip-path="url(#pece74ed1f0)" style="fill: none; stroke: #1f77b4; stroke-width: 1.5"/>
    <path d="M 193.714741 144.661553 
L 205.972976 144.661553 
" clip-path="url(#pece74ed1f0)" style="fill: none; stroke: #1f77b4; stroke-width: 1.5"/>
   </g>
   <g id="LineCollection_9">
    <path d="M 164.820329 144.661553 
L 164.820329 41.520167 
" clip-path="url(#pece74ed1f0)" style="fill: none; stroke: #1f77b4; stroke-width: 1.5"/>
    <path d="M 199.843858 144.661553 
L 199.843858 41.520167 
" clip-path="url(#pece74ed1f0)" style="fill: none; stroke: #1f77b4; stroke-width: 1.5"/>
   </g>
   <g id="LineCollection_10">
    <path d="M 158.691211 83.590996 
L 170.949447 83.590996 
" clip-path="url(#pece74ed1f0)" style="fill: none; stroke-dasharray: 2,3.3; stroke-dashoffset: 0; stroke: #808080; stroke-width: 2"/>
    <path d="M 193.714741 102.590725 
L 205.972976 102.590725 
" clip-path="url(#pece74ed1f0)" style="fill: none; stroke-dasharray: 2,3.3; stroke-dashoffset: 0; stroke: #808080; stroke-width: 2"/>
   </g>
   <g id="patch_8">
    <path d="M 149.585094 163.661283 
L 149.585094 23.199 
" style="fill: none; stroke: #000000; stroke-width: 0.8; stroke-linejoin: miter; stroke-linecap: square"/>
   </g>
   <g id="patch_9">
    <path d="M 215.079094 163.661283 
L 215.079094 23.199 
" style="fill: none; stroke: #000000; stroke-width: 0.8; stroke-linejoin: miter; stroke-linecap: square"/>
   </g>
   <g id="patch_10">
    <path d="M 149.585094 163.661283 
L 215.079094 163.661283 
" style="fill: none; stroke: #000000; stroke-width: 0.8; stroke-linejoin: miter; stroke-linecap: square"/>
   </g>
   <g id="patch_11">
    <path d="M 149.585094 23.199 
L 215.079094 23.199 
" style="fill: none; stroke: #000000; stroke-width: 0.8; stroke-linejoin: miter; stroke-linecap: square"/>
   </g>
   <g id="text_19">
    <!-- 233 -->
    <g transform="translate(157.320329 37.815455) scale(0.1 -0.1)">
     <use xlink:href="#TimesNewRomanPSMT-32"/>
     <use xlink:href="#TimesNewRomanPSMT-33" x="50"/>
     <use xlink:href="#TimesNewRomanPSMT-33" x="100"/>
    </g>
   </g>
   <g id="text_20">
    <!-- 306 -->
    <g transform="translate(192.343858 37.815455) scale(0.1 -0.1)">
     <use xlink:href="#TimesNewRomanPSMT-33"/>
     <use xlink:href="#TimesNewRomanPSMT-30" x="50"/>
     <use xlink:href="#TimesNewRomanPSMT-36" x="100"/>
    </g>
   </g>
   <g id="text_21">
    <!-- 4 Vessels -->
    <g transform="translate(155.859719 17.199) scale(0.144 -0.144)">
     <defs>
      <path id="TimesNewRomanPSMT-34" d="M 2978 1563 
L 2978 1119 
L 2409 1119 
L 2409 0 
L 1894 0 
L 1894 1119 
L 100 1119 
L 100 1519 
L 2066 4325 
L 2409 4325 
L 2409 1563 
L 2978 1563 
z
M 1894 1563 
L 1894 3666 
L 406 1563 
L 1894 1563 
z
" transform="scale(0.015625)"/>
     </defs>
     <use xlink:href="#TimesNewRomanPSMT-34"/>
     <use xlink:href="#TimesNewRomanPSMT-20" x="50"/>
     <use xlink:href="#TimesNewRomanPSMT-56" x="73.25"/>
     <use xlink:href="#TimesNewRomanPSMT-65" x="134.341797"/>
     <use xlink:href="#TimesNewRomanPSMT-73" x="178.726562"/>
     <use xlink:href="#TimesNewRomanPSMT-73" x="217.642578"/>
     <use xlink:href="#TimesNewRomanPSMT-65" x="256.558594"/>
     <use xlink:href="#TimesNewRomanPSMT-6c" x="300.943359"/>
     <use xlink:href="#TimesNewRomanPSMT-73" x="328.726562"/>
    </g>
   </g>
  </g>
  <g id="axes_3">
   <g id="patch_12">
    <path d="M 249.979094 163.661283 
L 315.473094 163.661283 
L 315.473094 23.199 
L 249.979094 23.199 
z
" style="fill: #ffffff"/>
   </g>
   <g id="PolyCollection_5">
    <path d="M 270.733124 139.233059 
L 259.695534 139.233059 
L 259.298173 138.246061 
L 258.9103 137.259062 
L 258.536719 136.272063 
L 258.18209 135.285064 
L 257.850799 134.298065 
L 257.546826 133.311066 
L 257.27363 132.324067 
L 257.034048 131.337068 
L 256.830211 130.350069 
L 256.663491 129.36307 
L 256.534467 128.376071 
L 256.442925 127.389073 
L 256.387881 126.402074 
L 256.36763 125.415075 
L 256.379819 124.428076 
L 256.421532 123.441077 
L 256.4894 122.454078 
L 256.579703 121.467079 
L 256.688485 120.48008 
L 256.811661 119.493081 
L 256.945117 118.506082 
L 257.084794 117.519083 
L 257.226764 116.532085 
L 257.36728 115.545086 
L 257.502816 114.558087 
L 257.63009 113.571088 
L 257.746067 112.584089 
L 257.847963 111.59709 
L 257.93323 110.610091 
L 257.999545 109.623092 
L 258.0448 108.636093 
L 258.067093 107.649094 
L 258.064734 106.662095 
L 258.036255 105.675096 
L 257.980438 104.688098 
L 257.896346 103.701099 
L 257.783375 102.7141 
L 257.641309 101.727101 
L 257.470377 100.740102 
L 257.271315 99.753103 
L 257.045424 98.766104 
L 256.794613 97.779105 
L 256.521436 96.792106 
L 256.2291 95.805107 
L 255.921461 94.818108 
L 255.602988 93.83111 
L 255.278701 92.844111 
L 254.954087 91.857112 
L 254.634984 90.870113 
L 254.327449 89.883114 
L 254.037607 88.896115 
L 253.771483 87.909116 
L 253.534839 86.922117 
L 253.332995 85.935118 
L 253.170673 84.948119 
L 253.051848 83.96112 
L 252.979616 82.974122 
L 252.956094 81.987123 
L 252.982339 81.000124 
L 253.058311 80.013125 
L 253.182853 79.026126 
L 253.353714 78.039127 
L 253.567597 77.052128 
L 253.820235 76.065129 
L 254.106492 75.07813 
L 254.420481 74.091131 
L 254.755697 73.104132 
L 255.105166 72.117134 
L 255.461591 71.130135 
L 255.817511 70.143136 
L 256.165454 69.156137 
L 256.498085 68.169138 
L 256.808361 67.182139 
L 257.089666 66.19514 
L 257.335959 65.208141 
L 257.541893 64.221142 
L 257.702952 63.234143 
L 257.815559 62.247144 
L 257.877188 61.260146 
L 257.886459 60.273147 
L 257.843219 59.286148 
L 257.748602 58.299149 
L 257.60507 57.31215 
L 257.41642 56.325151 
L 257.187758 55.338152 
L 256.925442 54.351153 
L 256.636971 53.364154 
L 256.330843 52.377155 
L 256.016362 51.390156 
L 255.70341 50.403157 
L 255.402179 49.416159 
L 255.122881 48.42916 
L 254.875438 47.442161 
L 254.669166 46.455162 
L 254.512473 45.468163 
L 254.412575 44.481164 
L 254.375246 43.494165 
L 254.404627 42.507166 
L 254.503083 41.520167 
L 275.925575 41.520167 
L 275.925575 41.520167 
L 276.024031 42.507166 
L 276.053412 43.494165 
L 276.016084 44.481164 
L 275.916185 45.468163 
L 275.759492 46.455162 
L 275.553221 47.442161 
L 275.305777 48.42916 
L 275.026479 49.416159 
L 274.725248 50.403157 
L 274.412296 51.390156 
L 274.097815 52.377155 
L 273.791687 53.364154 
L 273.503216 54.351153 
L 273.2409 55.338152 
L 273.012238 56.325151 
L 272.823588 57.31215 
L 272.680056 58.299149 
L 272.585439 59.286148 
L 272.542199 60.273147 
L 272.55147 61.260146 
L 272.613099 62.247144 
L 272.725706 63.234143 
L 272.886765 64.221142 
L 273.092699 65.208141 
L 273.338992 66.19514 
L 273.620298 67.182139 
L 273.930573 68.169138 
L 274.263204 69.156137 
L 274.611147 70.143136 
L 274.967067 71.130135 
L 275.323493 72.117134 
L 275.672961 73.104132 
L 276.008178 74.091131 
L 276.322166 75.07813 
L 276.608423 76.065129 
L 276.861062 77.052128 
L 277.074944 78.039127 
L 277.245805 79.026126 
L 277.370347 80.013125 
L 277.446319 81.000124 
L 277.472564 81.987123 
L 277.449042 82.974122 
L 277.37681 83.96112 
L 277.257985 84.948119 
L 277.095663 85.935118 
L 276.893819 86.922117 
L 276.657175 87.909116 
L 276.391052 88.896115 
L 276.101209 89.883114 
L 275.793674 90.870113 
L 275.474571 91.857112 
L 275.149957 92.844111 
L 274.82567 93.83111 
L 274.507197 94.818108 
L 274.199559 95.805107 
L 273.907222 96.792106 
L 273.634045 97.779105 
L 273.383234 98.766104 
L 273.157343 99.753103 
L 272.958281 100.740102 
L 272.787349 101.727101 
L 272.645283 102.7141 
L 272.532312 103.701099 
L 272.44822 104.688098 
L 272.392403 105.675096 
L 272.363924 106.662095 
L 272.361566 107.649094 
L 272.383859 108.636093 
L 272.429113 109.623092 
L 272.495428 110.610091 
L 272.580695 111.59709 
L 272.682591 112.584089 
L 272.798568 113.571088 
L 272.925842 114.558087 
L 273.061378 115.545086 
L 273.201894 116.532085 
L 273.343864 117.519083 
L 273.483541 118.506082 
L 273.616997 119.493081 
L 273.740173 120.48008 
L 273.848955 121.467079 
L 273.939258 122.454078 
L 274.007126 123.441077 
L 274.04884 124.428076 
L 274.061028 125.415075 
L 274.040777 126.402074 
L 273.985733 127.389073 
L 273.894191 128.376071 
L 273.765167 129.36307 
L 273.598447 130.350069 
L 273.39461 131.337068 
L 273.155028 132.324067 
L 272.881832 133.311066 
L 272.577859 134.298065 
L 272.246568 135.285064 
L 271.89194 136.272063 
L 271.518358 137.259062 
L 271.130485 138.246061 
L 270.733124 139.233059 
z
" clip-path="url(#p2ae70f96df)" style="fill: #0080ff; fill-opacity: 0.3"/>
   </g>
   <g id="PolyCollection_6">
    <path d="M 305.373831 143.982992 
L 295.101885 143.982992 
L 294.546177 142.948014 
L 293.974349 141.913036 
L 293.392608 140.878058 
L 292.807782 139.84308 
L 292.22716 138.808102 
L 291.658299 137.773124 
L 291.108819 136.738146 
L 290.586183 135.703168 
L 290.097474 134.668189 
L 289.649186 133.633211 
L 289.247031 132.598233 
L 288.895767 131.563255 
L 288.599074 130.528277 
L 288.359458 129.493299 
L 288.178211 128.458321 
L 288.055404 127.423343 
L 287.989937 126.388365 
L 287.979623 125.353387 
L 288.021309 124.318409 
L 288.111025 123.283431 
L 288.244156 122.248453 
L 288.415618 121.213475 
L 288.620046 120.178497 
L 288.851965 119.143519 
L 289.105954 118.108541 
L 289.376785 117.073563 
L 289.65954 116.038585 
L 289.949699 115.003607 
L 290.243199 113.968629 
L 290.536464 112.933651 
L 290.826414 111.898673 
L 291.110446 110.863695 
L 291.386403 109.828717 
L 291.652531 108.793739 
L 291.907422 107.758761 
L 292.14997 106.723783 
L 292.379312 105.688805 
L 292.59479 104.653827 
L 292.795912 103.618849 
L 292.982325 102.583871 
L 293.153802 101.548893 
L 293.310229 100.513915 
L 293.45161 99.478937 
L 293.578068 98.443959 
L 293.689855 97.408981 
L 293.787352 96.374003 
L 293.871084 95.339025 
L 293.94171 94.304047 
L 294.000025 93.269069 
L 294.046942 92.23409 
L 294.083479 91.199112 
L 294.11073 90.164134 
L 294.12984 89.129156 
L 294.141969 88.094178 
L 294.148257 87.0592 
L 294.149794 86.024222 
L 294.147587 84.989244 
L 294.142529 83.954266 
L 294.135383 82.919288 
L 294.126762 81.88431 
L 294.117126 80.849332 
L 294.106781 79.814354 
L 294.095891 78.779376 
L 294.084495 77.744398 
L 294.072529 76.70942 
L 294.059855 75.674442 
L 294.046294 74.639464 
L 294.031652 73.604486 
L 294.015756 72.569508 
L 293.998471 71.53453 
L 293.97972 70.499552 
L 293.959497 69.464574 
L 293.937865 68.429596 
L 293.914955 67.394618 
L 293.890949 66.35964 
L 293.866071 65.324662 
L 293.840569 64.289684 
L 293.814699 63.254706 
L 293.788723 62.219728 
L 293.762907 61.18475 
L 293.737539 60.149772 
L 293.712946 59.114794 
L 293.68954 58.079816 
L 293.667851 57.044838 
L 293.648584 56.00986 
L 293.632665 54.974882 
L 293.621277 53.939904 
L 293.615891 52.904926 
L 293.618271 51.869948 
L 293.630457 50.83497 
L 293.65472 49.799991 
L 293.693484 48.765013 
L 293.749233 47.730035 
L 293.824383 46.695057 
L 293.921148 45.660079 
L 294.041398 44.625101 
L 294.186522 43.590123 
L 294.357309 42.555145 
L 294.553847 41.520167 
L 305.92187 41.520167 
L 305.92187 41.520167 
L 306.118408 42.555145 
L 306.289195 43.590123 
L 306.434319 44.625101 
L 306.554569 45.660079 
L 306.651334 46.695057 
L 306.726484 47.730035 
L 306.782233 48.765013 
L 306.820997 49.799991 
L 306.84526 50.83497 
L 306.857446 51.869948 
L 306.859826 52.904926 
L 306.85444 53.939904 
L 306.843052 54.974882 
L 306.827132 56.00986 
L 306.807866 57.044838 
L 306.786177 58.079816 
L 306.762771 59.114794 
L 306.738178 60.149772 
L 306.71281 61.18475 
L 306.686994 62.219728 
L 306.661018 63.254706 
L 306.635148 64.289684 
L 306.609645 65.324662 
L 306.584768 66.35964 
L 306.560762 67.394618 
L 306.537852 68.429596 
L 306.51622 69.464574 
L 306.495997 70.499552 
L 306.477246 71.53453 
L 306.459961 72.569508 
L 306.444065 73.604486 
L 306.429423 74.639464 
L 306.415862 75.674442 
L 306.403188 76.70942 
L 306.391222 77.744398 
L 306.379826 78.779376 
L 306.368936 79.814354 
L 306.358591 80.849332 
L 306.348955 81.88431 
L 306.340334 82.919288 
L 306.333188 83.954266 
L 306.32813 84.989244 
L 306.325923 86.024222 
L 306.32746 87.0592 
L 306.333748 88.094178 
L 306.345876 89.129156 
L 306.364986 90.164134 
L 306.392238 91.199112 
L 306.428775 92.23409 
L 306.475692 93.269069 
L 306.534007 94.304047 
L 306.604633 95.339025 
L 306.688365 96.374003 
L 306.785862 97.408981 
L 306.897649 98.443959 
L 307.024107 99.478937 
L 307.165488 100.513915 
L 307.321915 101.548893 
L 307.493392 102.583871 
L 307.679805 103.618849 
L 307.880926 104.653827 
L 308.096405 105.688805 
L 308.325747 106.723783 
L 308.568295 107.758761 
L 308.823186 108.793739 
L 309.089313 109.828717 
L 309.365271 110.863695 
L 309.649303 111.898673 
L 309.939253 112.933651 
L 310.232518 113.968629 
L 310.526018 115.003607 
L 310.816177 116.038585 
L 311.098932 117.073563 
L 311.369763 118.108541 
L 311.623752 119.143519 
L 311.855671 120.178497 
L 312.060099 121.213475 
L 312.231561 122.248453 
L 312.364692 123.283431 
L 312.454408 124.318409 
L 312.496094 125.353387 
L 312.48578 126.388365 
L 312.420313 127.423343 
L 312.297506 128.458321 
L 312.116259 129.493299 
L 311.876643 130.528277 
L 311.57995 131.563255 
L 311.228686 132.598233 
L 310.82653 133.633211 
L 310.378243 134.668189 
L 309.889534 135.703168 
L 309.366898 136.738146 
L 308.817418 137.773124 
L 308.248557 138.808102 
L 307.667935 139.84308 
L 307.083109 140.878058 
L 306.501368 141.913036 
L 305.92954 142.948014 
L 305.373831 143.982992 
z
" clip-path="url(#p2ae70f96df)" style="fill: #ff8000; fill-opacity: 0.3"/>
   </g>
   <g id="matplotlib.axis_5">
    <g id="xtick_5">
     <g id="line2d_15">
      <g>
       <use xlink:href="#mc353704ed9" x="265.214329" y="163.661283" style="stroke: #000000; stroke-width: 0.8"/>
      </g>
     </g>
     <g id="text_22">
      <!-- MSR -->
      <g transform="translate(244.543388 195.136016) rotate(-45) scale(0.12 -0.12)">
       <use xlink:href="#TimesNewRomanPS-BoldMT-4d"/>
       <use xlink:href="#TimesNewRomanPS-BoldMT-53" x="94.384766"/>
       <use xlink:href="#TimesNewRomanPS-BoldMT-52" x="150"/>
      </g>
     </g>
    </g>
    <g id="xtick_6">
     <g id="line2d_16">
      <g>
       <use xlink:href="#mc353704ed9" x="300.237858" y="163.661283" style="stroke: #000000; stroke-width: 0.8"/>
      </g>
     </g>
     <g id="text_23">
      <!-- SBO -->
      <g transform="translate(281.444286 193.258647) rotate(-45) scale(0.12 -0.12)">
       <use xlink:href="#TimesNewRomanPS-BoldMT-53"/>
       <use xlink:href="#TimesNewRomanPS-BoldMT-42" x="55.615234"/>
       <use xlink:href="#TimesNewRomanPS-BoldMT-4f" x="122.314453"/>
      </g>
     </g>
    </g>
   </g>
   <g id="matplotlib.axis_6">
    <g id="ytick_11">
     <g id="line2d_17">
      <g>
       <use xlink:href="#ma5d0525f5a" x="249.979094" y="163.661283" style="stroke: #000000; stroke-width: 0.8"/>
      </g>
     </g>
     <g id="text_24">
      <!-- 0.00 -->
      <g transform="translate(221.979094 167.827533) scale(0.12 -0.12)">
       <use xlink:href="#TimesNewRomanPSMT-30"/>
       <use xlink:href="#TimesNewRomanPSMT-2e" x="50"/>
       <use xlink:href="#TimesNewRomanPSMT-30" x="75"/>
       <use xlink:href="#TimesNewRomanPSMT-30" x="125"/>
      </g>
     </g>
    </g>
    <g id="ytick_12">
     <g id="line2d_18">
      <g>
       <use xlink:href="#ma5d0525f5a" x="249.979094" y="133.126004" style="stroke: #000000; stroke-width: 0.8"/>
      </g>
     </g>
     <g id="text_25">
      <!-- 0.25 -->
      <g transform="translate(221.979094 137.292254) scale(0.12 -0.12)">
       <use xlink:href="#TimesNewRomanPSMT-30"/>
       <use xlink:href="#TimesNewRomanPSMT-2e" x="50"/>
       <use xlink:href="#TimesNewRomanPSMT-32" x="75"/>
       <use xlink:href="#TimesNewRomanPSMT-35" x="125"/>
      </g>
     </g>
    </g>
    <g id="ytick_13">
     <g id="line2d_19">
      <g>
       <use xlink:href="#ma5d0525f5a" x="249.979094" y="102.590725" style="stroke: #000000; stroke-width: 0.8"/>
      </g>
     </g>
     <g id="text_26">
      <!-- 0.50 -->
      <g transform="translate(221.979094 106.756975) scale(0.12 -0.12)">
       <use xlink:href="#TimesNewRomanPSMT-30"/>
       <use xlink:href="#TimesNewRomanPSMT-2e" x="50"/>
       <use xlink:href="#TimesNewRomanPSMT-35" x="75"/>
       <use xlink:href="#TimesNewRomanPSMT-30" x="125"/>
      </g>
     </g>
    </g>
    <g id="ytick_14">
     <g id="line2d_20">
      <g>
       <use xlink:href="#ma5d0525f5a" x="249.979094" y="72.055446" style="stroke: #000000; stroke-width: 0.8"/>
      </g>
     </g>
     <g id="text_27">
      <!-- 0.75 -->
      <g transform="translate(221.979094 76.221696) scale(0.12 -0.12)">
       <use xlink:href="#TimesNewRomanPSMT-30"/>
       <use xlink:href="#TimesNewRomanPSMT-2e" x="50"/>
       <use xlink:href="#TimesNewRomanPSMT-37" x="75"/>
       <use xlink:href="#TimesNewRomanPSMT-35" x="125"/>
      </g>
     </g>
    </g>
    <g id="ytick_15">
     <g id="line2d_21">
      <g>
       <use xlink:href="#ma5d0525f5a" x="249.979094" y="41.520167" style="stroke: #000000; stroke-width: 0.8"/>
      </g>
     </g>
     <g id="text_28">
      <!-- 1.00 -->
      <g transform="translate(221.979094 45.686417) scale(0.12 -0.12)">
       <use xlink:href="#TimesNewRomanPSMT-31"/>
       <use xlink:href="#TimesNewRomanPSMT-2e" x="50"/>
       <use xlink:href="#TimesNewRomanPSMT-30" x="75"/>
       <use xlink:href="#TimesNewRomanPSMT-30" x="125"/>
      </g>
     </g>
    </g>
   </g>
   <g id="LineCollection_11">
    <path d="M 259.085211 83.543654 
L 271.343447 83.543654 
" clip-path="url(#p2ae70f96df)" style="fill: none; stroke: #000000; stroke-width: 2"/>
    <path d="M 294.108741 95.728682 
L 306.366976 95.728682 
" clip-path="url(#p2ae70f96df)" style="fill: none; stroke: #000000; stroke-width: 2"/>
   </g>
   <g id="LineCollection_12">
    <path d="M 259.085211 41.520167 
L 271.343447 41.520167 
" clip-path="url(#p2ae70f96df)" style="fill: none; stroke: #1f77b4; stroke-width: 1.5"/>
    <path d="M 294.108741 41.520167 
L 306.366976 41.520167 
" clip-path="url(#p2ae70f96df)" style="fill: none; stroke: #1f77b4; stroke-width: 1.5"/>
   </g>
   <g id="LineCollection_13">
    <path d="M 259.085211 139.233059 
L 271.343447 139.233059 
" clip-path="url(#p2ae70f96df)" style="fill: none; stroke: #1f77b4; stroke-width: 1.5"/>
    <path d="M 294.108741 143.982992 
L 306.366976 143.982992 
" clip-path="url(#p2ae70f96df)" style="fill: none; stroke: #1f77b4; stroke-width: 1.5"/>
   </g>
   <g id="LineCollection_14">
    <path d="M 265.214329 139.233059 
L 265.214329 41.520167 
" clip-path="url(#p2ae70f96df)" style="fill: none; stroke: #1f77b4; stroke-width: 1.5"/>
    <path d="M 300.237858 143.982992 
L 300.237858 41.520167 
" clip-path="url(#p2ae70f96df)" style="fill: none; stroke: #1f77b4; stroke-width: 1.5"/>
   </g>
   <g id="LineCollection_15">
    <path d="M 259.085211 82.233872 
L 271.343447 82.233872 
" clip-path="url(#p2ae70f96df)" style="fill: none; stroke-dasharray: 2,3.3; stroke-dashoffset: 0; stroke: #808080; stroke-width: 2"/>
    <path d="M 294.108741 103.947848 
L 306.366976 103.947848 
" clip-path="url(#p2ae70f96df)" style="fill: none; stroke-dasharray: 2,3.3; stroke-dashoffset: 0; stroke: #808080; stroke-width: 2"/>
   </g>
   <g id="patch_13">
    <path d="M 249.979094 163.661283 
L 249.979094 23.199 
" style="fill: none; stroke: #000000; stroke-width: 0.8; stroke-linejoin: miter; stroke-linecap: square"/>
   </g>
   <g id="patch_14">
    <path d="M 315.473094 163.661283 
L 315.473094 23.199 
" style="fill: none; stroke: #000000; stroke-width: 0.8; stroke-linejoin: miter; stroke-linecap: square"/>
   </g>
   <g id="patch_15">
    <path d="M 249.979094 163.661283 
L 315.473094 163.661283 
" style="fill: none; stroke: #000000; stroke-width: 0.8; stroke-linejoin: miter; stroke-linecap: square"/>
   </g>
   <g id="patch_16">
    <path d="M 249.979094 23.199 
L 315.473094 23.199 
" style="fill: none; stroke: #000000; stroke-width: 0.8; stroke-linejoin: miter; stroke-linecap: square"/>
   </g>
   <g id="text_29">
    <!-- 215 -->
    <g transform="translate(257.714329 37.815455) scale(0.1 -0.1)">
     <use xlink:href="#TimesNewRomanPSMT-32"/>
     <use xlink:href="#TimesNewRomanPSMT-31" x="50"/>
     <use xlink:href="#TimesNewRomanPSMT-35" x="100"/>
    </g>
   </g>
   <g id="text_30">
    <!-- 293 -->
    <g transform="translate(292.737858 37.815455) scale(0.1 -0.1)">
     <defs>
      <path id="TimesNewRomanPSMT-39" d="M 338 -88 
L 338 28 
Q 744 34 1094 217 
Q 1444 400 1770 856 
Q 2097 1313 2225 1859 
Q 1734 1544 1338 1544 
Q 891 1544 572 1889 
Q 253 2234 253 2806 
Q 253 3363 572 3797 
Q 956 4325 1575 4325 
Q 2097 4325 2469 3894 
Q 2925 3359 2925 2575 
Q 2925 1869 2578 1258 
Q 2231 647 1613 244 
Q 1109 -88 516 -88 
L 338 -88 
z
M 2275 2091 
Q 2331 2497 2331 2741 
Q 2331 3044 2228 3395 
Q 2125 3747 1936 3934 
Q 1747 4122 1506 4122 
Q 1228 4122 1018 3872 
Q 809 3622 809 3128 
Q 809 2469 1088 2097 
Q 1291 1828 1588 1828 
Q 1731 1828 1928 1897 
Q 2125 1966 2275 2091 
z
" transform="scale(0.015625)"/>
     </defs>
     <use xlink:href="#TimesNewRomanPSMT-32"/>
     <use xlink:href="#TimesNewRomanPSMT-39" x="50"/>
     <use xlink:href="#TimesNewRomanPSMT-33" x="100"/>
    </g>
   </g>
   <g id="text_31">
    <!-- 5 Vessels -->
    <g transform="translate(256.253719 17.199) scale(0.144 -0.144)">
     <use xlink:href="#TimesNewRomanPSMT-35"/>
     <use xlink:href="#TimesNewRomanPSMT-20" x="50"/>
     <use xlink:href="#TimesNewRomanPSMT-56" x="73.25"/>
     <use xlink:href="#TimesNewRomanPSMT-65" x="134.341797"/>
     <use xlink:href="#TimesNewRomanPSMT-73" x="178.726562"/>
     <use xlink:href="#TimesNewRomanPSMT-73" x="217.642578"/>
     <use xlink:href="#TimesNewRomanPSMT-65" x="256.558594"/>
     <use xlink:href="#TimesNewRomanPSMT-6c" x="300.943359"/>
     <use xlink:href="#TimesNewRomanPSMT-73" x="328.726562"/>
    </g>
   </g>
  </g>
  <g id="axes_4">
   <g id="patch_17">
    <path d="M 350.373094 163.661283 
L 415.867094 163.661283 
L 415.867094 23.199 
L 350.373094 23.199 
z
" style="fill: #ffffff"/>
   </g>
   <g id="PolyCollection_7">
    <path d="M 368.870494 141.947306 
L 362.346164 141.947306 
L 361.977094 140.932891 
L 361.593688 139.918475 
L 361.1996 138.90406 
L 360.798956 137.889644 
L 360.39626 136.875229 
L 359.996292 135.860813 
L 359.60398 134.846398 
L 359.22427 133.831982 
L 358.861987 132.817567 
L 358.521704 131.803151 
L 358.207609 130.788735 
L 357.923398 129.77432 
L 357.67217 128.759904 
L 357.456356 127.745489 
L 357.277667 126.731073 
L 357.137061 125.716658 
L 357.034738 124.702242 
L 356.97016 123.687827 
L 356.942085 122.673411 
L 356.948616 121.658996 
L 356.987272 120.64458 
L 357.055055 119.630164 
L 357.148534 118.615749 
L 357.263926 117.601333 
L 357.397175 116.586918 
L 357.544033 115.572502 
L 357.700135 114.558087 
L 357.861067 113.543671 
L 358.022434 112.529256 
L 358.179919 111.51484 
L 358.32934 110.500424 
L 358.466702 109.486009 
L 358.588247 108.471593 
L 358.690499 107.457178 
L 358.770314 106.442762 
L 358.824924 105.428347 
L 358.85198 104.413931 
L 358.849598 103.399516 
L 358.816406 102.3851 
L 358.751577 101.370685 
L 358.65488 100.356269 
L 358.526701 99.341853 
L 358.368081 98.327438 
L 358.180727 97.313022 
L 357.967018 96.298607 
L 357.729998 95.284191 
L 357.473346 94.269776 
L 357.201333 93.25536 
L 356.918752 92.240945 
L 356.630838 91.226529 
L 356.343151 90.212114 
L 356.061464 89.197698 
L 355.791616 88.183282 
L 355.539366 87.168867 
L 355.310238 86.154451 
L 355.109371 85.140036 
L 354.941364 84.12562 
L 354.810148 83.111205 
L 354.718858 82.096789 
L 354.66974 81.082374 
L 354.664076 80.067958 
L 354.702132 79.053543 
L 354.783138 78.039127 
L 354.905289 77.024711 
L 355.06578 76.010296 
L 355.260851 74.99588 
L 355.485857 73.981465 
L 355.735362 72.967049 
L 356.003233 71.952634 
L 356.282759 70.938218 
L 356.566773 69.923803 
L 356.847786 68.909387 
L 357.118132 67.894972 
L 357.37012 66.880556 
L 357.596199 65.86614 
L 357.789129 64.851725 
L 357.942175 63.837309 
L 358.049293 62.822894 
L 358.105339 61.808478 
L 358.106271 60.794063 
L 358.049352 59.779647 
L 357.933341 58.765232 
L 357.758656 57.750816 
L 357.527514 56.7364 
L 357.244014 55.721985 
L 356.914166 54.707569 
L 356.545854 53.693154 
L 356.148713 52.678738 
L 355.733935 51.664323 
L 355.313981 50.649907 
L 354.902224 49.635492 
L 354.512519 48.621076 
L 354.158723 47.606661 
L 353.854191 46.592245 
L 353.611255 45.577829 
L 353.440738 44.563414 
L 353.351504 43.548998 
L 353.350094 42.534583 
L 353.440448 41.520167 
L 377.776211 41.520167 
L 377.776211 41.520167 
L 377.866564 42.534583 
L 377.865154 43.548998 
L 377.77592 44.563414 
L 377.605403 45.577829 
L 377.362467 46.592245 
L 377.057935 47.606661 
L 376.70414 48.621076 
L 376.314434 49.635492 
L 375.902677 50.649907 
L 375.482723 51.664323 
L 375.067945 52.678738 
L 374.670804 53.693154 
L 374.302492 54.707569 
L 373.972644 55.721985 
L 373.689144 56.7364 
L 373.458002 57.750816 
L 373.283318 58.765232 
L 373.167306 59.779647 
L 373.110387 60.794063 
L 373.111319 61.808478 
L 373.167365 62.822894 
L 373.274483 63.837309 
L 373.427529 64.851725 
L 373.620459 65.86614 
L 373.846538 66.880556 
L 374.098526 67.894972 
L 374.368872 68.909387 
L 374.649885 69.923803 
L 374.933899 70.938218 
L 375.213425 71.952634 
L 375.481296 72.967049 
L 375.730801 73.981465 
L 375.955807 74.99588 
L 376.150878 76.010296 
L 376.311369 77.024711 
L 376.433521 78.039127 
L 376.514526 79.053543 
L 376.552582 80.067958 
L 376.546918 81.082374 
L 376.4978 82.096789 
L 376.40651 83.111205 
L 376.275294 84.12562 
L 376.107287 85.140036 
L 375.90642 86.154451 
L 375.677293 87.168867 
L 375.425042 88.183282 
L 375.155194 89.197698 
L 374.873507 90.212114 
L 374.585821 91.226529 
L 374.297906 92.240945 
L 374.015325 93.25536 
L 373.743312 94.269776 
L 373.48666 95.284191 
L 373.24964 96.298607 
L 373.035931 97.313022 
L 372.848577 98.327438 
L 372.689957 99.341853 
L 372.561778 100.356269 
L 372.465081 101.370685 
L 372.400253 102.3851 
L 372.36706 103.399516 
L 372.364679 104.413931 
L 372.391734 105.428347 
L 372.446344 106.442762 
L 372.526159 107.457178 
L 372.628411 108.471593 
L 372.749956 109.486009 
L 372.887318 110.500424 
L 373.036739 111.51484 
L 373.194225 112.529256 
L 373.355591 113.543671 
L 373.516523 114.558087 
L 373.672625 115.572502 
L 373.819483 116.586918 
L 373.952732 117.601333 
L 374.068124 118.615749 
L 374.161603 119.630164 
L 374.229386 120.64458 
L 374.268042 121.658996 
L 374.274573 122.673411 
L 374.246498 123.687827 
L 374.18192 124.702242 
L 374.079597 125.716658 
L 373.938991 126.731073 
L 373.760302 127.745489 
L 373.544488 128.759904 
L 373.29326 129.77432 
L 373.009049 130.788735 
L 372.694955 131.803151 
L 372.354671 132.817567 
L 371.992388 133.831982 
L 371.612678 134.846398 
L 371.220366 135.860813 
L 370.820398 136.875229 
L 370.417702 137.889644 
L 370.017058 138.90406 
L 369.62297 139.918475 
L 369.239564 140.932891 
L 368.870494 141.947306 
z
" clip-path="url(#p118259f2c6)" style="fill: #0080ff; fill-opacity: 0.3"/>
   </g>
   <g id="PolyCollection_8">
    <path d="M 405.407757 139.911621 
L 395.85596 139.911621 
L 395.317288 138.917768 
L 394.760917 137.923915 
L 394.192707 136.930062 
L 393.619098 135.936209 
L 393.046937 134.942356 
L 392.483292 133.948503 
L 391.935241 132.95465 
L 391.409657 131.960797 
L 390.913004 130.966944 
L 390.451139 129.973091 
L 390.029146 128.979237 
L 389.651201 127.985384 
L 389.320469 126.991531 
L 389.03906 125.997678 
L 388.808012 125.003825 
L 388.627327 124.009972 
L 388.49604 123.016119 
L 388.412326 122.022266 
L 388.373623 121.028413 
L 388.376779 120.03456 
L 388.418193 119.040707 
L 388.493967 118.046854 
L 388.600035 117.053001 
L 388.732279 116.059148 
L 388.886625 115.065294 
L 389.059107 114.071441 
L 389.245914 113.077588 
L 389.443407 112.083735 
L 389.648119 111.089882 
L 389.85674 110.096029 
L 390.066092 109.102176 
L 390.273102 108.108323 
L 390.474777 107.11447 
L 390.668186 106.120617 
L 390.850462 105.126764 
L 391.018805 104.132911 
L 391.170517 103.139058 
L 391.303036 102.145205 
L 391.413996 101.151351 
L 391.501287 100.157498 
L 391.56312 99.163645 
L 391.598101 98.169792 
L 391.605288 97.175939 
L 391.584248 96.182086 
L 391.5351 95.188233 
L 391.458544 94.19438 
L 391.355873 93.200527 
L 391.228972 92.206674 
L 391.080296 91.212821 
L 390.91284 90.218968 
L 390.730085 89.225115 
L 390.535935 88.231262 
L 390.334638 87.237409 
L 390.130697 86.243555 
L 389.928767 85.249702 
L 389.733541 84.255849 
L 389.549633 83.261996 
L 389.381451 82.268143 
L 389.233073 81.27429 
L 389.108126 80.280437 
L 389.009671 79.286584 
L 388.940106 78.292731 
L 388.901083 77.298878 
L 388.893452 76.305025 
L 388.917226 75.311172 
L 388.971577 74.317319 
L 389.054858 73.323466 
L 389.164649 72.329612 
L 389.297823 71.335759 
L 389.450635 70.341906 
L 389.618823 69.348053 
L 389.797711 68.3542 
L 389.982327 67.360347 
L 390.167515 66.366494 
L 390.348055 65.372641 
L 390.518779 64.378788 
L 390.674697 63.384935 
L 390.811122 62.391082 
L 390.92381 61.397229 
L 391.009106 60.403376 
L 391.064104 59.409523 
L 391.086809 58.415669 
L 391.076304 57.421816 
L 391.032911 56.427963 
L 390.958322 55.43411 
L 390.855703 54.440257 
L 390.729746 53.446404 
L 390.586652 52.452551 
L 390.434031 51.458698 
L 390.280725 50.464845 
L 390.136534 49.470992 
L 390.011859 48.477139 
L 389.917274 47.483286 
L 389.863048 46.489433 
L 389.858646 45.49558 
L 389.912233 44.501726 
L 390.030225 43.507873 
L 390.216915 42.51402 
L 390.474201 41.520167 
L 410.789516 41.520167 
L 410.789516 41.520167 
L 411.046802 42.51402 
L 411.233492 43.507873 
L 411.351484 44.501726 
L 411.405071 45.49558 
L 411.400669 46.489433 
L 411.346443 47.483286 
L 411.251858 48.477139 
L 411.127183 49.470992 
L 410.982992 50.464845 
L 410.829686 51.458698 
L 410.677065 52.452551 
L 410.53397 53.446404 
L 410.408014 54.440257 
L 410.305395 55.43411 
L 410.230806 56.427963 
L 410.187412 57.421816 
L 410.176908 58.415669 
L 410.199613 59.409523 
L 410.254611 60.403376 
L 410.339907 61.397229 
L 410.452594 62.391082 
L 410.589019 63.384935 
L 410.744937 64.378788 
L 410.915662 65.372641 
L 411.096202 66.366494 
L 411.28139 67.360347 
L 411.466006 68.3542 
L 411.644894 69.348053 
L 411.813082 70.341906 
L 411.965894 71.335759 
L 412.099068 72.329612 
L 412.208859 73.323466 
L 412.29214 74.317319 
L 412.346491 75.311172 
L 412.370265 76.305025 
L 412.362634 77.298878 
L 412.323611 78.292731 
L 412.254046 79.286584 
L 412.155591 80.280437 
L 412.030644 81.27429 
L 411.882266 82.268143 
L 411.714084 83.261996 
L 411.530176 84.255849 
L 411.33495 85.249702 
L 411.13302 86.243555 
L 410.929079 87.237409 
L 410.727782 88.231262 
L 410.533632 89.225115 
L 410.350877 90.218968 
L 410.183421 91.212821 
L 410.034745 92.206674 
L 409.907844 93.200527 
L 409.805173 94.19438 
L 409.728617 95.188233 
L 409.679469 96.182086 
L 409.658429 97.175939 
L 409.665616 98.169792 
L 409.700597 99.163645 
L 409.76243 100.157498 
L 409.84972 101.151351 
L 409.960681 102.145205 
L 410.0932 103.139058 
L 410.244912 104.132911 
L 410.413255 105.126764 
L 410.595531 106.120617 
L 410.78894 107.11447 
L 410.990615 108.108323 
L 411.197624 109.102176 
L 411.406977 110.096029 
L 411.615598 111.089882 
L 411.82031 112.083735 
L 412.017803 113.077588 
L 412.20461 114.071441 
L 412.377092 115.065294 
L 412.531438 116.059148 
L 412.663682 117.053001 
L 412.76975 118.046854 
L 412.845524 119.040707 
L 412.886938 120.03456 
L 412.890094 121.028413 
L 412.851391 122.022266 
L 412.767677 123.016119 
L 412.63639 124.009972 
L 412.455705 125.003825 
L 412.224657 125.997678 
L 411.943248 126.991531 
L 411.612516 127.985384 
L 411.234571 128.979237 
L 410.812578 129.973091 
L 410.350713 130.966944 
L 409.85406 131.960797 
L 409.328476 132.95465 
L 408.780425 133.948503 
L 408.21678 134.942356 
L 407.644619 135.936209 
L 407.07101 136.930062 
L 406.5028 137.923915 
L 405.946428 138.917768 
L 405.407757 139.911621 
z
" clip-path="url(#p118259f2c6)" style="fill: #ff8000; fill-opacity: 0.3"/>
   </g>
   <g id="matplotlib.axis_7">
    <g id="xtick_7">
     <g id="line2d_22">
      <g>
       <use xlink:href="#mc353704ed9" x="365.608329" y="163.661283" style="stroke: #000000; stroke-width: 0.8"/>
      </g>
     </g>
     <g id="text_32">
      <!-- MSR -->
      <g transform="translate(344.937388 195.136016) rotate(-45) scale(0.12 -0.12)">
       <use xlink:href="#TimesNewRomanPS-BoldMT-4d"/>
       <use xlink:href="#TimesNewRomanPS-BoldMT-53" x="94.384766"/>
       <use xlink:href="#TimesNewRomanPS-BoldMT-52" x="150"/>
      </g>
     </g>
    </g>
    <g id="xtick_8">
     <g id="line2d_23">
      <g>
       <use xlink:href="#mc353704ed9" x="400.631858" y="163.661283" style="stroke: #000000; stroke-width: 0.8"/>
      </g>
     </g>
     <g id="text_33">
      <!-- SBO -->
      <g transform="translate(381.838286 193.258647) rotate(-45) scale(0.12 -0.12)">
       <use xlink:href="#TimesNewRomanPS-BoldMT-53"/>
       <use xlink:href="#TimesNewRomanPS-BoldMT-42" x="55.615234"/>
       <use xlink:href="#TimesNewRomanPS-BoldMT-4f" x="122.314453"/>
      </g>
     </g>
    </g>
   </g>
   <g id="matplotlib.axis_8">
    <g id="ytick_16">
     <g id="line2d_24">
      <g>
       <use xlink:href="#ma5d0525f5a" x="350.373094" y="163.661283" style="stroke: #000000; stroke-width: 0.8"/>
      </g>
     </g>
     <g id="text_34">
      <!-- 0.00 -->
      <g transform="translate(322.373094 167.827533) scale(0.12 -0.12)">
       <use xlink:href="#TimesNewRomanPSMT-30"/>
       <use xlink:href="#TimesNewRomanPSMT-2e" x="50"/>
       <use xlink:href="#TimesNewRomanPSMT-30" x="75"/>
       <use xlink:href="#TimesNewRomanPSMT-30" x="125"/>
      </g>
     </g>
    </g>
    <g id="ytick_17">
     <g id="line2d_25">
      <g>
       <use xlink:href="#ma5d0525f5a" x="350.373094" y="133.126004" style="stroke: #000000; stroke-width: 0.8"/>
      </g>
     </g>
     <g id="text_35">
      <!-- 0.25 -->
      <g transform="translate(322.373094 137.292254) scale(0.12 -0.12)">
       <use xlink:href="#TimesNewRomanPSMT-30"/>
       <use xlink:href="#TimesNewRomanPSMT-2e" x="50"/>
       <use xlink:href="#TimesNewRomanPSMT-32" x="75"/>
       <use xlink:href="#TimesNewRomanPSMT-35" x="125"/>
      </g>
     </g>
    </g>
    <g id="ytick_18">
     <g id="line2d_26">
      <g>
       <use xlink:href="#ma5d0525f5a" x="350.373094" y="102.590725" style="stroke: #000000; stroke-width: 0.8"/>
      </g>
     </g>
     <g id="text_36">
      <!-- 0.50 -->
      <g transform="translate(322.373094 106.756975) scale(0.12 -0.12)">
       <use xlink:href="#TimesNewRomanPSMT-30"/>
       <use xlink:href="#TimesNewRomanPSMT-2e" x="50"/>
       <use xlink:href="#TimesNewRomanPSMT-35" x="75"/>
       <use xlink:href="#TimesNewRomanPSMT-30" x="125"/>
      </g>
     </g>
    </g>
    <g id="ytick_19">
     <g id="line2d_27">
      <g>
       <use xlink:href="#ma5d0525f5a" x="350.373094" y="72.055446" style="stroke: #000000; stroke-width: 0.8"/>
      </g>
     </g>
     <g id="text_37">
      <!-- 0.75 -->
      <g transform="translate(322.373094 76.221696) scale(0.12 -0.12)">
       <use xlink:href="#TimesNewRomanPSMT-30"/>
       <use xlink:href="#TimesNewRomanPSMT-2e" x="50"/>
       <use xlink:href="#TimesNewRomanPSMT-37" x="75"/>
       <use xlink:href="#TimesNewRomanPSMT-35" x="125"/>
      </g>
     </g>
    </g>
    <g id="ytick_20">
     <g id="line2d_28">
      <g>
       <use xlink:href="#ma5d0525f5a" x="350.373094" y="41.520167" style="stroke: #000000; stroke-width: 0.8"/>
      </g>
     </g>
     <g id="text_38">
      <!-- 1.00 -->
      <g transform="translate(322.373094 45.686417) scale(0.12 -0.12)">
       <use xlink:href="#TimesNewRomanPSMT-31"/>
       <use xlink:href="#TimesNewRomanPSMT-2e" x="50"/>
       <use xlink:href="#TimesNewRomanPSMT-30" x="75"/>
       <use xlink:href="#TimesNewRomanPSMT-30" x="125"/>
      </g>
     </g>
    </g>
   </g>
   <g id="LineCollection_16">
    <path d="M 359.479211 80.640396 
L 371.737447 80.640396 
" clip-path="url(#p118259f2c6)" style="fill: none; stroke: #000000; stroke-width: 2"/>
    <path d="M 394.502741 86.349535 
L 406.760976 86.349535 
" clip-path="url(#p118259f2c6)" style="fill: none; stroke: #000000; stroke-width: 2"/>
   </g>
   <g id="LineCollection_17">
    <path d="M 359.479211 41.520167 
L 371.737447 41.520167 
" clip-path="url(#p118259f2c6)" style="fill: none; stroke: #1f77b4; stroke-width: 1.5"/>
    <path d="M 394.502741 41.520167 
L 406.760976 41.520167 
" clip-path="url(#p118259f2c6)" style="fill: none; stroke: #1f77b4; stroke-width: 1.5"/>
   </g>
   <g id="LineCollection_18">
    <path d="M 359.479211 141.947306 
L 371.737447 141.947306 
" clip-path="url(#p118259f2c6)" style="fill: none; stroke: #1f77b4; stroke-width: 1.5"/>
    <path d="M 394.502741 139.911621 
L 406.760976 139.911621 
" clip-path="url(#p118259f2c6)" style="fill: none; stroke: #1f77b4; stroke-width: 1.5"/>
   </g>
   <g id="LineCollection_19">
    <path d="M 365.608329 141.947306 
L 365.608329 41.520167 
" clip-path="url(#p118259f2c6)" style="fill: none; stroke: #1f77b4; stroke-width: 1.5"/>
    <path d="M 400.631858 139.911621 
L 400.631858 41.520167 
" clip-path="url(#p118259f2c6)" style="fill: none; stroke: #1f77b4; stroke-width: 1.5"/>
   </g>
   <g id="LineCollection_20">
    <path d="M 359.479211 80.876749 
L 371.737447 80.876749 
" clip-path="url(#p118259f2c6)" style="fill: none; stroke-dasharray: 2,3.3; stroke-dashoffset: 0; stroke: #808080; stroke-width: 2"/>
    <path d="M 394.502741 84.269558 
L 406.760976 84.269558 
" clip-path="url(#p118259f2c6)" style="fill: none; stroke-dasharray: 2,3.3; stroke-dashoffset: 0; stroke: #808080; stroke-width: 2"/>
   </g>
   <g id="patch_18">
    <path d="M 350.373094 163.661283 
L 350.373094 23.199 
" style="fill: none; stroke: #000000; stroke-width: 0.8; stroke-linejoin: miter; stroke-linecap: square"/>
   </g>
   <g id="patch_19">
    <path d="M 415.867094 163.661283 
L 415.867094 23.199 
" style="fill: none; stroke: #000000; stroke-width: 0.8; stroke-linejoin: miter; stroke-linecap: square"/>
   </g>
   <g id="patch_20">
    <path d="M 350.373094 163.661283 
L 415.867094 163.661283 
" style="fill: none; stroke: #000000; stroke-width: 0.8; stroke-linejoin: miter; stroke-linecap: square"/>
   </g>
   <g id="patch_21">
    <path d="M 350.373094 23.199 
L 415.867094 23.199 
" style="fill: none; stroke: #000000; stroke-width: 0.8; stroke-linejoin: miter; stroke-linecap: square"/>
   </g>
   <g id="text_39">
    <!-- 267 -->
    <g transform="translate(358.108329 37.815455) scale(0.1 -0.1)">
     <use xlink:href="#TimesNewRomanPSMT-32"/>
     <use xlink:href="#TimesNewRomanPSMT-36" x="50"/>
     <use xlink:href="#TimesNewRomanPSMT-37" x="100"/>
    </g>
   </g>
   <g id="text_40">
    <!-- 383 -->
    <g transform="translate(393.131858 37.815455) scale(0.1 -0.1)">
     <use xlink:href="#TimesNewRomanPSMT-33"/>
     <use xlink:href="#TimesNewRomanPSMT-38" x="50"/>
     <use xlink:href="#TimesNewRomanPSMT-33" x="100"/>
    </g>
   </g>
   <g id="text_41">
    <!-- 6 Vessels -->
    <g transform="translate(356.647719 17.199) scale(0.144 -0.144)">
     <use xlink:href="#TimesNewRomanPSMT-36"/>
     <use xlink:href="#TimesNewRomanPSMT-20" x="50"/>
     <use xlink:href="#TimesNewRomanPSMT-56" x="73.25"/>
     <use xlink:href="#TimesNewRomanPSMT-65" x="134.341797"/>
     <use xlink:href="#TimesNewRomanPSMT-73" x="178.726562"/>
     <use xlink:href="#TimesNewRomanPSMT-73" x="217.642578"/>
     <use xlink:href="#TimesNewRomanPSMT-65" x="256.558594"/>
     <use xlink:href="#TimesNewRomanPSMT-6c" x="300.943359"/>
     <use xlink:href="#TimesNewRomanPSMT-73" x="328.726562"/>
    </g>
   </g>
  </g>
 </g>
 <defs>
  <clipPath id="p6c067f3e99">
   <rect x="49.191094" y="23.199" width="65.494" height="140.462283"/>
  </clipPath>
  <clipPath id="pece74ed1f0">
   <rect x="149.585094" y="23.199" width="65.494" height="140.462283"/>
  </clipPath>
  <clipPath id="p2ae70f96df">
   <rect x="249.979094" y="23.199" width="65.494" height="140.462283"/>
  </clipPath>
  <clipPath id="p118259f2c6">
   <rect x="350.373094" y="23.199" width="65.494" height="140.462283"/>
  </clipPath>
 </defs>
</svg>
