<?xml version="1.0" encoding="utf-8" standalone="no"?>
<!DOCTYPE svg PUBLIC "-//W3C//DTD SVG 1.1//EN"
  "http://www.w3.org/Graphics/SVG/1.1/DTD/svg11.dtd">
<svg xmlns:xlink="http://www.w3.org/1999/xlink" width="423.067094pt" height="204.151071pt" viewBox="0 0 423.067094 204.151071" xmlns="http://www.w3.org/2000/svg" version="1.1">
 <metadata>
  <rdf:RDF xmlns:dc="http://purl.org/dc/elements/1.1/" xmlns:cc="http://creativecommons.org/ns#" xmlns:rdf="http://www.w3.org/1999/02/22-rdf-syntax-ns#">
   <cc:Work>
    <dc:type rdf:resource="http://purl.org/dc/dcmitype/StillImage"/>
    <dc:date>2024-10-23T10:28:10.350740</dc:date>
    <dc:format>image/svg+xml</dc:format>
    <dc:creator>
     <cc:Agent>
      <dc:title>Matplotlib v3.9.0, https://matplotlib.org/</dc:title>
     </cc:Agent>
    </dc:creator>
   </cc:Work>
  </rdf:RDF>
 </metadata>
 <defs>
  <style type="text/css">*{stroke-linejoin: round; stroke-linecap: butt}</style>
 </defs>
 <g id="figure_1">
  <g id="patch_1">
   <path d="M 0 204.151071 
L 423.067094 204.151071 
L 423.067094 0 
L 0 0 
z
" style="fill: #ffffff"/>
  </g>
  <g id="axes_1">
   <g id="patch_2">
    <path d="M 49.191094 163.661283 
L 114.685094 163.661283 
L 114.685094 23.199 
L 49.191094 23.199 
z
" style="fill: #ffffff"/>
   </g>
   <g id="PolyCollection_1">
    <path d="M 69.57808 148.054362 
L 59.274578 148.054362 
L 58.741714 146.978259 
L 58.196589 145.902156 
L 57.645017 144.826053 
L 57.093231 143.74995 
L 56.547736 142.673847 
L 56.015134 141.597744 
L 55.501957 140.521641 
L 55.014483 139.445538 
L 54.55858 138.369435 
L 54.139553 137.293332 
L 53.762017 136.217229 
L 53.429795 135.141126 
L 53.145855 134.065023 
L 52.912266 132.988921 
L 52.73019 131.912818 
L 52.599905 130.836715 
L 52.520846 129.760612 
L 52.491664 128.684509 
L 52.510301 127.608406 
L 52.574067 126.532303 
L 52.679719 125.4562 
L 52.823534 124.380097 
L 53.001379 123.303994 
L 53.208764 122.227891 
L 53.440896 121.151788 
L 53.692716 120.075685 
L 53.958939 118.999582 
L 54.234086 117.923479 
L 54.512525 116.847376 
L 54.788517 115.771273 
L 55.056274 114.69517 
L 55.31003 113.619067 
L 55.544129 112.542964 
L 55.753129 111.466861 
L 55.931923 110.390758 
L 56.075865 109.314655 
L 56.180911 108.238552 
L 56.243758 107.162449 
L 56.261976 106.086346 
L 56.234131 105.010243 
L 56.159882 103.93414 
L 56.040059 102.858037 
L 55.876697 101.781934 
L 55.67304 100.705831 
L 55.433493 99.629728 
L 55.163539 98.553625 
L 54.869601 97.477522 
L 54.558877 96.401419 
L 54.239126 95.325316 
L 53.918436 94.249213 
L 53.604971 93.17311 
L 53.306706 92.097007 
L 53.031177 91.020904 
L 52.785236 89.944801 
L 52.574841 88.868698 
L 52.40488 87.792595 
L 52.279044 86.716492 
L 52.199746 85.640389 
L 52.168094 84.564286 
L 52.183923 83.488183 
L 52.24587 82.41208 
L 52.351493 81.335978 
L 52.497427 80.259875 
L 52.679561 79.183772 
L 52.893233 78.107669 
L 53.133421 77.031566 
L 53.394926 75.955463 
L 53.672541 74.87936 
L 53.961187 73.803257 
L 54.256022 72.727154 
L 54.552518 71.651051 
L 54.8465 70.574948 
L 55.134164 69.498845 
L 55.412065 68.422742 
L 55.677097 67.346639 
L 55.926461 66.270536 
L 56.15764 65.194433 
L 56.368383 64.11833 
L 56.556716 63.042227 
L 56.720964 61.966124 
L 56.859811 60.890021 
L 56.972376 59.813918 
L 57.058315 58.737815 
L 57.117924 57.661712 
L 57.152254 56.585609 
L 57.1632 55.509506 
L 57.15357 54.433403 
L 57.127114 53.3573 
L 57.088498 52.281197 
L 57.043221 51.205094 
L 56.997472 50.128991 
L 56.957924 49.052888 
L 56.931479 47.976785 
L 56.924975 46.900682 
L 56.944866 45.824579 
L 56.996908 44.748476 
L 57.085858 43.672373 
L 57.215218 42.59627 
L 57.387041 41.520167 
L 71.465617 41.520167 
L 71.465617 41.520167 
L 71.63744 42.59627 
L 71.7668 43.672373 
L 71.85575 44.748476 
L 71.907792 45.824579 
L 71.927683 46.900682 
L 71.921179 47.976785 
L 71.894734 49.052888 
L 71.855186 50.128991 
L 71.809437 51.205094 
L 71.76416 52.281197 
L 71.725544 53.3573 
L 71.699088 54.433403 
L 71.689458 55.509506 
L 71.700404 56.585609 
L 71.734734 57.661712 
L 71.794343 58.737815 
L 71.880282 59.813918 
L 71.992847 60.890021 
L 72.131694 61.966124 
L 72.295942 63.042227 
L 72.484275 64.11833 
L 72.695018 65.194433 
L 72.926197 66.270536 
L 73.175561 67.346639 
L 73.440593 68.422742 
L 73.718494 69.498845 
L 74.006158 70.574948 
L 74.30014 71.651051 
L 74.596636 72.727154 
L 74.891471 73.803257 
L 75.180117 74.87936 
L 75.457732 75.955463 
L 75.719237 77.031566 
L 75.959425 78.107669 
L 76.173097 79.183772 
L 76.355231 80.259875 
L 76.501165 81.335978 
L 76.606788 82.41208 
L 76.668735 83.488183 
L 76.684564 84.564286 
L 76.652912 85.640389 
L 76.573614 86.716492 
L 76.447778 87.792595 
L 76.277817 88.868698 
L 76.067422 89.944801 
L 75.821481 91.020904 
L 75.545952 92.097007 
L 75.247687 93.17311 
L 74.934222 94.249213 
L 74.613532 95.325316 
L 74.293781 96.401419 
L 73.983057 97.477522 
L 73.68912 98.553625 
L 73.419165 99.629728 
L 73.179618 100.705831 
L 72.975961 101.781934 
L 72.812599 102.858037 
L 72.692776 103.93414 
L 72.618527 105.010243 
L 72.590682 106.086346 
L 72.6089 107.162449 
L 72.671747 108.238552 
L 72.776793 109.314655 
L 72.920735 110.390758 
L 73.099529 111.466861 
L 73.308529 112.542964 
L 73.542628 113.619067 
L 73.796384 114.69517 
L 74.064141 115.771273 
L 74.340134 116.847376 
L 74.618573 117.923479 
L 74.893719 118.999582 
L 75.159942 120.075685 
L 75.411762 121.151788 
L 75.643894 122.227891 
L 75.851279 123.303994 
L 76.029124 124.380097 
L 76.172939 125.4562 
L 76.278591 126.532303 
L 76.342357 127.608406 
L 76.360994 128.684509 
L 76.331812 129.760612 
L 76.252753 130.836715 
L 76.122468 131.912818 
L 75.940393 132.988921 
L 75.706803 134.065023 
L 75.422863 135.141126 
L 75.090641 136.217229 
L 74.713105 137.293332 
L 74.294078 138.369435 
L 73.838175 139.445538 
L 73.350702 140.521641 
L 72.837524 141.597744 
L 72.304922 142.673847 
L 71.759427 143.74995 
L 71.207641 144.826053 
L 70.656069 145.902156 
L 70.110944 146.978259 
L 69.57808 148.054362 
z
" clip-path="url(#pdff9d1241d)" style="fill: #0080ff; fill-opacity: 0.3"/>
   </g>
   <g id="PolyCollection_2">
    <path d="M 103.251694 148.732924 
L 95.648023 148.732924 
L 95.153511 147.649967 
L 94.628114 146.56701 
L 94.075717 145.484053 
L 93.50125 144.401095 
L 92.910644 143.318138 
L 92.310752 142.235181 
L 91.709213 141.152224 
L 91.114276 140.069267 
L 90.534569 138.98631 
L 89.978843 137.903353 
L 89.455685 136.820395 
L 88.973214 135.737438 
L 88.538789 134.654481 
L 88.158726 133.571524 
L 87.83805 132.488567 
L 87.580301 131.40561 
L 87.387394 130.322653 
L 87.259552 129.239695 
L 87.195316 128.156738 
L 87.191623 127.073781 
L 87.24396 125.990824 
L 87.346577 124.907867 
L 87.492747 123.82491 
L 87.675063 122.741953 
L 87.885745 121.658996 
L 88.116947 120.576038 
L 88.361051 119.493081 
L 88.610914 118.410124 
L 88.860081 117.327167 
L 89.102944 116.24421 
L 89.334837 115.161253 
L 89.552081 114.078296 
L 89.751977 112.995338 
L 89.932751 111.912381 
L 90.093467 110.829424 
L 90.233912 109.746467 
L 90.354473 108.66351 
L 90.456006 107.580553 
L 90.539712 106.497596 
L 90.607026 105.414638 
L 90.659521 104.331681 
L 90.69883 103.248724 
L 90.726587 102.165767 
L 90.744384 101.08281 
L 90.753738 99.999853 
L 90.756069 98.916896 
L 90.752692 97.833938 
L 90.7448 96.750981 
L 90.733463 95.668024 
L 90.719626 94.585067 
L 90.704106 93.50211 
L 90.687605 92.419153 
L 90.670722 91.336196 
L 90.653977 90.253239 
L 90.63784 89.170281 
L 90.622779 88.087324 
L 90.609299 87.004367 
L 90.597991 85.92141 
L 90.58958 84.838453 
L 90.584957 83.755496 
L 90.585205 82.672539 
L 90.591593 81.589581 
L 90.605562 80.506624 
L 90.628671 79.423667 
L 90.662526 78.34071 
L 90.708682 77.257753 
L 90.768535 76.174796 
L 90.843194 75.091839 
L 90.933362 74.008881 
L 91.039218 72.925924 
L 91.160326 71.842967 
L 91.295567 70.76001 
L 91.443103 69.677053 
L 91.600391 68.594096 
L 91.764231 67.511139 
L 91.930863 66.428181 
L 92.096103 65.345224 
L 92.255513 64.262267 
L 92.404605 63.17931 
L 92.539064 62.096353 
L 92.654971 61.013396 
L 92.749037 59.930439 
L 92.818816 58.847481 
L 92.862889 57.764524 
L 92.881017 56.681567 
L 92.874235 55.59861 
L 92.844901 54.515653 
L 92.796665 53.432696 
L 92.734385 52.349739 
L 92.663962 51.266782 
L 92.592121 50.183824 
L 92.526129 49.100867 
L 92.473472 48.01791 
L 92.441508 46.934953 
L 92.437112 45.851996 
L 92.46633 44.769039 
L 92.534075 43.686082 
L 92.643872 42.603124 
L 92.797675 41.520167 
L 106.102042 41.520167 
L 106.102042 41.520167 
L 106.255844 42.603124 
L 106.365641 43.686082 
L 106.433387 44.769039 
L 106.462605 45.851996 
L 106.458209 46.934953 
L 106.426245 48.01791 
L 106.373588 49.100867 
L 106.307595 50.183824 
L 106.235755 51.266782 
L 106.165332 52.349739 
L 106.103052 53.432696 
L 106.054816 54.515653 
L 106.025482 55.59861 
L 106.0187 56.681567 
L 106.036827 57.764524 
L 106.080901 58.847481 
L 106.15068 59.930439 
L 106.244746 61.013396 
L 106.360653 62.096353 
L 106.495112 63.17931 
L 106.644204 64.262267 
L 106.803614 65.345224 
L 106.968853 66.428181 
L 107.135486 67.511139 
L 107.299326 68.594096 
L 107.456614 69.677053 
L 107.60415 70.76001 
L 107.739391 71.842967 
L 107.860499 72.925924 
L 107.966355 74.008881 
L 108.056522 75.091839 
L 108.131182 76.174796 
L 108.191035 77.257753 
L 108.237191 78.34071 
L 108.271046 79.423667 
L 108.294155 80.506624 
L 108.308124 81.589581 
L 108.314512 82.672539 
L 108.31476 83.755496 
L 108.310137 84.838453 
L 108.301726 85.92141 
L 108.290418 87.004367 
L 108.276938 88.087324 
L 108.261877 89.170281 
L 108.24574 90.253239 
L 108.228995 91.336196 
L 108.212112 92.419153 
L 108.195611 93.50211 
L 108.180091 94.585067 
L 108.166254 95.668024 
L 108.154917 96.750981 
L 108.147025 97.833938 
L 108.143647 98.916896 
L 108.145979 99.999853 
L 108.155332 101.08281 
L 108.17313 102.165767 
L 108.200887 103.248724 
L 108.240196 104.331681 
L 108.292691 105.414638 
L 108.360005 106.497596 
L 108.443711 107.580553 
L 108.545244 108.66351 
L 108.665805 109.746467 
L 108.80625 110.829424 
L 108.966966 111.912381 
L 109.14774 112.995338 
L 109.347636 114.078296 
L 109.56488 115.161253 
L 109.796773 116.24421 
L 110.039636 117.327167 
L 110.288803 118.410124 
L 110.538666 119.493081 
L 110.78277 120.576038 
L 111.013972 121.658996 
L 111.224654 122.741953 
L 111.40697 123.82491 
L 111.55314 124.907867 
L 111.655757 125.990824 
L 111.708094 127.073781 
L 111.704401 128.156738 
L 111.640165 129.239695 
L 111.512323 130.322653 
L 111.319416 131.40561 
L 111.061667 132.488567 
L 110.740991 133.571524 
L 110.360928 134.654481 
L 109.926503 135.737438 
L 109.444032 136.820395 
L 108.920874 137.903353 
L 108.365148 138.98631 
L 107.785441 140.069267 
L 107.190504 141.152224 
L 106.588965 142.235181 
L 105.989073 143.318138 
L 105.398467 144.401095 
L 104.824 145.484053 
L 104.271603 146.56701 
L 103.746206 147.649967 
L 103.251694 148.732924 
z
" clip-path="url(#pdff9d1241d)" style="fill: #ff8000; fill-opacity: 0.3"/>
   </g>
   <g id="matplotlib.axis_1">
    <g id="xtick_1">
     <g id="line2d_1">
      <defs>
       <path id="mae3f7f1ee9" d="M 0 0 
L 0 3.5 
" style="stroke: #000000; stroke-width: 0.8"/>
      </defs>
      <g>
       <use xlink:href="#mae3f7f1ee9" x="64.426329" y="163.661283" style="stroke: #000000; stroke-width: 0.8"/>
      </g>
     </g>
     <g id="text_1">
      <!-- MSR -->
      <g transform="translate(43.755388 195.136016) rotate(-45) scale(0.12 -0.12)">
       <defs>
        <path id="TimesNewRomanPS-BoldMT-4d" d="M 3050 1444 
L 4200 4238 
L 5925 4238 
L 5925 4122 
L 5788 4122 
Q 5600 4122 5488 4056 
Q 5409 4013 5363 3909 
Q 5328 3834 5328 3519 
L 5328 725 
Q 5328 400 5362 319 
Q 5397 238 5503 177 
Q 5609 116 5788 116 
L 5925 116 
L 5925 0 
L 3713 0 
L 3713 116 
L 3850 116 
Q 4038 116 4150 181 
Q 4228 225 4275 331 
Q 4309 406 4309 725 
L 4309 3866 
L 2684 0 
L 2609 0 
L 959 3838 
L 959 853 
Q 959 541 975 469 
Q 1016 313 1152 214 
Q 1288 116 1578 116 
L 1578 0 
L 128 0 
L 128 116 
L 172 116 
Q 313 113 434 161 
Q 556 209 618 290 
Q 681 372 716 519 
Q 722 553 722 838 
L 722 3519 
Q 722 3841 687 3920 
Q 653 4000 547 4061 
Q 441 4122 263 4122 
L 128 4122 
L 128 4238 
L 1859 4238 
L 3050 1444 
z
" transform="scale(0.015625)"/>
        <path id="TimesNewRomanPS-BoldMT-53" d="M 3006 4334 
L 3041 2922 
L 2913 2922 
Q 2822 3453 2467 3776 
Q 2113 4100 1700 4100 
Q 1381 4100 1195 3929 
Q 1009 3759 1009 3538 
Q 1009 3397 1075 3288 
Q 1166 3141 1366 2997 
Q 1513 2894 2044 2631 
Q 2788 2266 3047 1941 
Q 3303 1616 3303 1197 
Q 3303 666 2889 283 
Q 2475 -100 1838 -100 
Q 1638 -100 1459 -59 
Q 1281 -19 1013 94 
Q 863 156 766 156 
Q 684 156 593 93 
Q 503 31 447 -97 
L 331 -97 
L 331 1503 
L 447 1503 
Q 584 828 976 473 
Q 1369 119 1822 119 
Q 2172 119 2380 309 
Q 2588 500 2588 753 
Q 2588 903 2508 1043 
Q 2428 1184 2265 1311 
Q 2103 1438 1691 1641 
Q 1113 1925 859 2125 
Q 606 2325 470 2572 
Q 334 2819 334 3116 
Q 334 3622 706 3978 
Q 1078 4334 1644 4334 
Q 1850 4334 2044 4284 
Q 2191 4247 2402 4145 
Q 2613 4044 2697 4044 
Q 2778 4044 2825 4094 
Q 2872 4144 2913 4334 
L 3006 4334 
z
" transform="scale(0.015625)"/>
        <path id="TimesNewRomanPS-BoldMT-52" d="M 1700 1931 
L 1700 744 
Q 1700 400 1742 311 
Q 1784 222 1890 169 
Q 1997 116 2288 116 
L 2288 0 
L 119 0 
L 119 116 
Q 413 116 517 170 
Q 622 225 664 312 
Q 706 400 706 744 
L 706 3494 
Q 706 3838 664 3927 
Q 622 4016 515 4069 
Q 409 4122 119 4122 
L 119 4238 
L 2088 4238 
Q 2856 4238 3212 4131 
Q 3569 4025 3794 3739 
Q 4019 3453 4019 3069 
Q 4019 2600 3681 2294 
Q 3466 2100 3078 2003 
L 4097 569 
Q 4297 291 4381 222 
Q 4509 125 4678 116 
L 4678 0 
L 3344 0 
L 1978 1931 
L 1700 1931 
z
M 1700 4009 
L 1700 2153 
L 1878 2153 
Q 2313 2153 2528 2233 
Q 2744 2313 2867 2520 
Q 2991 2728 2991 3063 
Q 2991 3547 2764 3778 
Q 2538 4009 2034 4009 
L 1700 4009 
z
" transform="scale(0.015625)"/>
       </defs>
       <use xlink:href="#TimesNewRomanPS-BoldMT-4d"/>
       <use xlink:href="#TimesNewRomanPS-BoldMT-53" x="94.384766"/>
       <use xlink:href="#TimesNewRomanPS-BoldMT-52" x="150"/>
      </g>
     </g>
    </g>
    <g id="xtick_2">
     <g id="line2d_2">
      <g>
       <use xlink:href="#mae3f7f1ee9" x="99.449858" y="163.661283" style="stroke: #000000; stroke-width: 0.8"/>
      </g>
     </g>
     <g id="text_2">
      <!-- SBO -->
      <g transform="translate(80.656286 193.258647) rotate(-45) scale(0.12 -0.12)">
       <defs>
        <path id="TimesNewRomanPS-BoldMT-42" d="M 2847 2247 
Q 3450 2106 3694 1906 
Q 4044 1622 4044 1169 
Q 4044 691 3659 378 
Q 3188 0 2288 0 
L 134 0 
L 134 116 
Q 428 116 533 170 
Q 638 225 680 312 
Q 722 400 722 744 
L 722 3494 
Q 722 3838 680 3927 
Q 638 4016 531 4069 
Q 425 4122 134 4122 
L 134 4238 
L 2166 4238 
Q 2894 4238 3197 4108 
Q 3500 3978 3675 3720 
Q 3850 3463 3850 3172 
Q 3850 2866 3628 2627 
Q 3406 2388 2847 2247 
z
M 1709 2331 
Q 2153 2331 2364 2431 
Q 2575 2531 2687 2712 
Q 2800 2894 2800 3175 
Q 2800 3456 2689 3636 
Q 2578 3816 2372 3909 
Q 2166 4003 1709 4000 
L 1709 2331 
z
M 1709 2088 
L 1709 728 
L 1706 572 
Q 1706 403 1792 317 
Q 1878 231 2047 231 
Q 2297 231 2508 342 
Q 2719 453 2831 664 
Q 2944 875 2944 1134 
Q 2944 1431 2806 1667 
Q 2669 1903 2428 1997 
Q 2188 2091 1709 2088 
z
" transform="scale(0.015625)"/>
        <path id="TimesNewRomanPS-BoldMT-4f" d="M 2472 4297 
Q 3484 4334 4117 3706 
Q 4750 3078 4750 2134 
Q 4750 1328 4278 716 
Q 3653 -97 2513 -97 
Q 1369 -97 744 678 
Q 250 1291 250 2131 
Q 250 3075 892 3704 
Q 1534 4334 2472 4297 
z
M 2509 4097 
Q 1928 4097 1625 3503 
Q 1378 3016 1378 2103 
Q 1378 1019 1759 500 
Q 2025 138 2503 138 
Q 2825 138 3041 294 
Q 3316 494 3469 933 
Q 3622 1372 3622 2078 
Q 3622 2919 3465 3336 
Q 3309 3753 3067 3925 
Q 2825 4097 2509 4097 
z
" transform="scale(0.015625)"/>
       </defs>
       <use xlink:href="#TimesNewRomanPS-BoldMT-53"/>
       <use xlink:href="#TimesNewRomanPS-BoldMT-42" x="55.615234"/>
       <use xlink:href="#TimesNewRomanPS-BoldMT-4f" x="122.314453"/>
      </g>
     </g>
    </g>
   </g>
   <g id="matplotlib.axis_2">
    <g id="ytick_1">
     <g id="line2d_3">
      <defs>
       <path id="m09c50dea57" d="M 0 0 
L -3.5 0 
" style="stroke: #000000; stroke-width: 0.8"/>
      </defs>
      <g>
       <use xlink:href="#m09c50dea57" x="49.191094" y="163.661283" style="stroke: #000000; stroke-width: 0.8"/>
      </g>
     </g>
     <g id="text_3">
      <!-- 0.00 -->
      <g transform="translate(21.191094 167.827533) scale(0.12 -0.12)">
       <defs>
        <path id="TimesNewRomanPSMT-30" d="M 231 2094 
Q 231 2819 450 3342 
Q 669 3866 1031 4122 
Q 1313 4325 1613 4325 
Q 2100 4325 2488 3828 
Q 2972 3213 2972 2159 
Q 2972 1422 2759 906 
Q 2547 391 2217 158 
Q 1888 -75 1581 -75 
Q 975 -75 572 641 
Q 231 1244 231 2094 
z
M 844 2016 
Q 844 1141 1059 588 
Q 1238 122 1591 122 
Q 1759 122 1940 273 
Q 2122 425 2216 781 
Q 2359 1319 2359 2297 
Q 2359 3022 2209 3506 
Q 2097 3866 1919 4016 
Q 1791 4119 1609 4119 
Q 1397 4119 1231 3928 
Q 1006 3669 925 3112 
Q 844 2556 844 2016 
z
" transform="scale(0.015625)"/>
        <path id="TimesNewRomanPSMT-2e" d="M 800 606 
Q 947 606 1047 504 
Q 1147 403 1147 259 
Q 1147 116 1045 14 
Q 944 -88 800 -88 
Q 656 -88 554 14 
Q 453 116 453 259 
Q 453 406 554 506 
Q 656 606 800 606 
z
" transform="scale(0.015625)"/>
       </defs>
       <use xlink:href="#TimesNewRomanPSMT-30"/>
       <use xlink:href="#TimesNewRomanPSMT-2e" x="50"/>
       <use xlink:href="#TimesNewRomanPSMT-30" x="75"/>
       <use xlink:href="#TimesNewRomanPSMT-30" x="125"/>
      </g>
     </g>
    </g>
    <g id="ytick_2">
     <g id="line2d_4">
      <g>
       <use xlink:href="#m09c50dea57" x="49.191094" y="133.126004" style="stroke: #000000; stroke-width: 0.8"/>
      </g>
     </g>
     <g id="text_4">
      <!-- 0.25 -->
      <g transform="translate(21.191094 137.292254) scale(0.12 -0.12)">
       <defs>
        <path id="TimesNewRomanPSMT-32" d="M 2934 816 
L 2638 0 
L 138 0 
L 138 116 
Q 1241 1122 1691 1759 
Q 2141 2397 2141 2925 
Q 2141 3328 1894 3587 
Q 1647 3847 1303 3847 
Q 991 3847 742 3664 
Q 494 3481 375 3128 
L 259 3128 
Q 338 3706 661 4015 
Q 984 4325 1469 4325 
Q 1984 4325 2329 3994 
Q 2675 3663 2675 3213 
Q 2675 2891 2525 2569 
Q 2294 2063 1775 1497 
Q 997 647 803 472 
L 1909 472 
Q 2247 472 2383 497 
Q 2519 522 2628 598 
Q 2738 675 2819 816 
L 2934 816 
z
" transform="scale(0.015625)"/>
        <path id="TimesNewRomanPSMT-35" d="M 2778 4238 
L 2534 3706 
L 1259 3706 
L 981 3138 
Q 1809 3016 2294 2522 
Q 2709 2097 2709 1522 
Q 2709 1188 2573 903 
Q 2438 619 2231 419 
Q 2025 219 1772 97 
Q 1413 -75 1034 -75 
Q 653 -75 479 54 
Q 306 184 306 341 
Q 306 428 378 495 
Q 450 563 559 563 
Q 641 563 702 538 
Q 763 513 909 409 
Q 1144 247 1384 247 
Q 1750 247 2026 523 
Q 2303 800 2303 1197 
Q 2303 1581 2056 1914 
Q 1809 2247 1375 2428 
Q 1034 2569 447 2591 
L 1259 4238 
L 2778 4238 
z
" transform="scale(0.015625)"/>
       </defs>
       <use xlink:href="#TimesNewRomanPSMT-30"/>
       <use xlink:href="#TimesNewRomanPSMT-2e" x="50"/>
       <use xlink:href="#TimesNewRomanPSMT-32" x="75"/>
       <use xlink:href="#TimesNewRomanPSMT-35" x="125"/>
      </g>
     </g>
    </g>
    <g id="ytick_3">
     <g id="line2d_5">
      <g>
       <use xlink:href="#m09c50dea57" x="49.191094" y="102.590725" style="stroke: #000000; stroke-width: 0.8"/>
      </g>
     </g>
     <g id="text_5">
      <!-- 0.50 -->
      <g transform="translate(21.191094 106.756975) scale(0.12 -0.12)">
       <use xlink:href="#TimesNewRomanPSMT-30"/>
       <use xlink:href="#TimesNewRomanPSMT-2e" x="50"/>
       <use xlink:href="#TimesNewRomanPSMT-35" x="75"/>
       <use xlink:href="#TimesNewRomanPSMT-30" x="125"/>
      </g>
     </g>
    </g>
    <g id="ytick_4">
     <g id="line2d_6">
      <g>
       <use xlink:href="#m09c50dea57" x="49.191094" y="72.055446" style="stroke: #000000; stroke-width: 0.8"/>
      </g>
     </g>
     <g id="text_6">
      <!-- 0.75 -->
      <g transform="translate(21.191094 76.221696) scale(0.12 -0.12)">
       <defs>
        <path id="TimesNewRomanPSMT-37" d="M 644 4238 
L 2916 4238 
L 2916 4119 
L 1503 -88 
L 1153 -88 
L 2419 3728 
L 1253 3728 
Q 900 3728 750 3644 
Q 488 3500 328 3200 
L 238 3234 
L 644 4238 
z
" transform="scale(0.015625)"/>
       </defs>
       <use xlink:href="#TimesNewRomanPSMT-30"/>
       <use xlink:href="#TimesNewRomanPSMT-2e" x="50"/>
       <use xlink:href="#TimesNewRomanPSMT-37" x="75"/>
       <use xlink:href="#TimesNewRomanPSMT-35" x="125"/>
      </g>
     </g>
    </g>
    <g id="ytick_5">
     <g id="line2d_7">
      <g>
       <use xlink:href="#m09c50dea57" x="49.191094" y="41.520167" style="stroke: #000000; stroke-width: 0.8"/>
      </g>
     </g>
     <g id="text_7">
      <!-- 1.00 -->
      <g transform="translate(21.191094 45.686417) scale(0.12 -0.12)">
       <defs>
        <path id="TimesNewRomanPSMT-31" d="M 750 3822 
L 1781 4325 
L 1884 4325 
L 1884 747 
Q 1884 391 1914 303 
Q 1944 216 2037 169 
Q 2131 122 2419 116 
L 2419 0 
L 825 0 
L 825 116 
Q 1125 122 1212 167 
Q 1300 213 1334 289 
Q 1369 366 1369 747 
L 1369 3034 
Q 1369 3497 1338 3628 
Q 1316 3728 1258 3775 
Q 1200 3822 1119 3822 
Q 1003 3822 797 3725 
L 750 3822 
z
" transform="scale(0.015625)"/>
       </defs>
       <use xlink:href="#TimesNewRomanPSMT-31"/>
       <use xlink:href="#TimesNewRomanPSMT-2e" x="50"/>
       <use xlink:href="#TimesNewRomanPSMT-30" x="75"/>
       <use xlink:href="#TimesNewRomanPSMT-30" x="125"/>
      </g>
     </g>
    </g>
    <g id="text_8">
     <!-- DS index of OS at $t_0$ -->
     <g transform="translate(14.838125 139.905141) rotate(-90) scale(0.11 -0.11)">
      <defs>
       <path id="TimesNewRomanPSMT-44" d="M 109 0 
L 109 116 
L 269 116 
Q 538 116 650 288 
Q 719 391 719 750 
L 719 3488 
Q 719 3884 631 3984 
Q 509 4122 269 4122 
L 109 4122 
L 109 4238 
L 1834 4238 
Q 2784 4238 3279 4022 
Q 3775 3806 4076 3303 
Q 4378 2800 4378 2141 
Q 4378 1256 3841 663 
Q 3238 0 2003 0 
L 109 0 
z
M 1319 306 
Q 1716 219 1984 219 
Q 2709 219 3187 728 
Q 3666 1238 3666 2109 
Q 3666 2988 3187 3494 
Q 2709 4000 1959 4000 
Q 1678 4000 1319 3909 
L 1319 306 
z
" transform="scale(0.015625)"/>
       <path id="TimesNewRomanPSMT-53" d="M 2934 4334 
L 2934 2869 
L 2819 2869 
Q 2763 3291 2617 3541 
Q 2472 3791 2203 3937 
Q 1934 4084 1647 4084 
Q 1322 4084 1109 3886 
Q 897 3688 897 3434 
Q 897 3241 1031 3081 
Q 1225 2847 1953 2456 
Q 2547 2138 2764 1967 
Q 2981 1797 3098 1565 
Q 3216 1334 3216 1081 
Q 3216 600 2842 251 
Q 2469 -97 1881 -97 
Q 1697 -97 1534 -69 
Q 1438 -53 1133 45 
Q 828 144 747 144 
Q 669 144 623 97 
Q 578 50 556 -97 
L 441 -97 
L 441 1356 
L 556 1356 
Q 638 900 775 673 
Q 913 447 1195 297 
Q 1478 147 1816 147 
Q 2206 147 2432 353 
Q 2659 559 2659 841 
Q 2659 997 2573 1156 
Q 2488 1316 2306 1453 
Q 2184 1547 1640 1851 
Q 1097 2156 867 2337 
Q 638 2519 519 2737 
Q 400 2956 400 3219 
Q 400 3675 750 4004 
Q 1100 4334 1641 4334 
Q 1978 4334 2356 4169 
Q 2531 4091 2603 4091 
Q 2684 4091 2736 4139 
Q 2788 4188 2819 4334 
L 2934 4334 
z
" transform="scale(0.015625)"/>
       <path id="TimesNewRomanPSMT-20" transform="scale(0.015625)"/>
       <path id="TimesNewRomanPSMT-69" d="M 928 4444 
Q 1059 4444 1151 4351 
Q 1244 4259 1244 4128 
Q 1244 3997 1151 3903 
Q 1059 3809 928 3809 
Q 797 3809 703 3903 
Q 609 3997 609 4128 
Q 609 4259 701 4351 
Q 794 4444 928 4444 
z
M 1188 2947 
L 1188 647 
Q 1188 378 1227 289 
Q 1266 200 1342 156 
Q 1419 113 1622 113 
L 1622 0 
L 231 0 
L 231 113 
Q 441 113 512 153 
Q 584 194 626 287 
Q 669 381 669 647 
L 669 1750 
Q 669 2216 641 2353 
Q 619 2453 572 2492 
Q 525 2531 444 2531 
Q 356 2531 231 2484 
L 188 2597 
L 1050 2947 
L 1188 2947 
z
" transform="scale(0.015625)"/>
       <path id="TimesNewRomanPSMT-6e" d="M 1034 2341 
Q 1538 2947 1994 2947 
Q 2228 2947 2397 2830 
Q 2566 2713 2666 2444 
Q 2734 2256 2734 1869 
L 2734 647 
Q 2734 375 2778 278 
Q 2813 200 2889 156 
Q 2966 113 3172 113 
L 3172 0 
L 1756 0 
L 1756 113 
L 1816 113 
Q 2016 113 2095 173 
Q 2175 234 2206 353 
Q 2219 400 2219 647 
L 2219 1819 
Q 2219 2209 2117 2386 
Q 2016 2563 1775 2563 
Q 1403 2563 1034 2156 
L 1034 647 
Q 1034 356 1069 288 
Q 1113 197 1189 155 
Q 1266 113 1500 113 
L 1500 0 
L 84 0 
L 84 113 
L 147 113 
Q 366 113 442 223 
Q 519 334 519 647 
L 519 1709 
Q 519 2225 495 2337 
Q 472 2450 423 2490 
Q 375 2531 294 2531 
Q 206 2531 84 2484 
L 38 2597 
L 900 2947 
L 1034 2947 
L 1034 2341 
z
" transform="scale(0.015625)"/>
       <path id="TimesNewRomanPSMT-64" d="M 2222 322 
Q 2013 103 1813 7 
Q 1613 -88 1381 -88 
Q 913 -88 563 304 
Q 213 697 213 1313 
Q 213 1928 600 2439 
Q 988 2950 1597 2950 
Q 1975 2950 2222 2709 
L 2222 3238 
Q 2222 3728 2198 3840 
Q 2175 3953 2125 3993 
Q 2075 4034 2000 4034 
Q 1919 4034 1784 3984 
L 1744 4094 
L 2597 4444 
L 2738 4444 
L 2738 1134 
Q 2738 631 2761 520 
Q 2784 409 2836 365 
Q 2888 322 2956 322 
Q 3041 322 3181 375 
L 3216 266 
L 2366 -88 
L 2222 -88 
L 2222 322 
z
M 2222 541 
L 2222 2016 
Q 2203 2228 2109 2403 
Q 2016 2578 1861 2667 
Q 1706 2756 1559 2756 
Q 1284 2756 1069 2509 
Q 784 2184 784 1559 
Q 784 928 1059 592 
Q 1334 256 1672 256 
Q 1956 256 2222 541 
z
" transform="scale(0.015625)"/>
       <path id="TimesNewRomanPSMT-65" d="M 681 1784 
Q 678 1147 991 784 
Q 1303 422 1725 422 
Q 2006 422 2214 576 
Q 2422 731 2563 1106 
L 2659 1044 
Q 2594 616 2278 264 
Q 1963 -88 1488 -88 
Q 972 -88 605 314 
Q 238 716 238 1394 
Q 238 2128 614 2539 
Q 991 2950 1559 2950 
Q 2041 2950 2350 2633 
Q 2659 2316 2659 1784 
L 681 1784 
z
M 681 1966 
L 2006 1966 
Q 1991 2241 1941 2353 
Q 1863 2528 1708 2628 
Q 1553 2728 1384 2728 
Q 1125 2728 920 2526 
Q 716 2325 681 1966 
z
" transform="scale(0.015625)"/>
       <path id="TimesNewRomanPSMT-78" d="M 84 2863 
L 1431 2863 
L 1431 2747 
Q 1303 2747 1251 2703 
Q 1200 2659 1200 2588 
Q 1200 2513 1309 2356 
Q 1344 2306 1413 2200 
L 1616 1875 
L 1850 2200 
Q 2075 2509 2075 2591 
Q 2075 2656 2022 2701 
Q 1969 2747 1850 2747 
L 1850 2863 
L 2819 2863 
L 2819 2747 
Q 2666 2738 2553 2663 
Q 2400 2556 2134 2200 
L 1744 1678 
L 2456 653 
Q 2719 275 2831 198 
Q 2944 122 3122 113 
L 3122 0 
L 1772 0 
L 1772 113 
Q 1913 113 1991 175 
Q 2050 219 2050 291 
Q 2050 363 1850 653 
L 1431 1266 
L 972 653 
Q 759 369 759 316 
Q 759 241 829 180 
Q 900 119 1041 113 
L 1041 0 
L 106 0 
L 106 113 
Q 219 128 303 191 
Q 422 281 703 653 
L 1303 1450 
L 759 2238 
Q 528 2575 401 2661 
Q 275 2747 84 2747 
L 84 2863 
z
" transform="scale(0.015625)"/>
       <path id="TimesNewRomanPSMT-6f" d="M 1600 2947 
Q 2250 2947 2644 2453 
Q 2978 2031 2978 1484 
Q 2978 1100 2793 706 
Q 2609 313 2286 112 
Q 1963 -88 1566 -88 
Q 919 -88 538 428 
Q 216 863 216 1403 
Q 216 1797 411 2186 
Q 606 2575 925 2761 
Q 1244 2947 1600 2947 
z
M 1503 2744 
Q 1338 2744 1170 2645 
Q 1003 2547 900 2300 
Q 797 2053 797 1666 
Q 797 1041 1045 587 
Q 1294 134 1700 134 
Q 2003 134 2200 384 
Q 2397 634 2397 1244 
Q 2397 2006 2069 2444 
Q 1847 2744 1503 2744 
z
" transform="scale(0.015625)"/>
       <path id="TimesNewRomanPSMT-66" d="M 1319 2638 
L 1319 756 
Q 1319 356 1406 250 
Q 1522 113 1716 113 
L 1975 113 
L 1975 0 
L 266 0 
L 266 113 
L 394 113 
Q 519 113 622 175 
Q 725 238 764 344 
Q 803 450 803 756 
L 803 2638 
L 247 2638 
L 247 2863 
L 803 2863 
L 803 3050 
Q 803 3478 940 3775 
Q 1078 4072 1361 4255 
Q 1644 4438 1997 4438 
Q 2325 4438 2600 4225 
Q 2781 4084 2781 3909 
Q 2781 3816 2700 3733 
Q 2619 3650 2525 3650 
Q 2453 3650 2373 3701 
Q 2294 3753 2178 3923 
Q 2063 4094 1966 4153 
Q 1869 4213 1750 4213 
Q 1606 4213 1506 4136 
Q 1406 4059 1362 3898 
Q 1319 3738 1319 3069 
L 1319 2863 
L 2056 2863 
L 2056 2638 
L 1319 2638 
z
" transform="scale(0.015625)"/>
       <path id="TimesNewRomanPSMT-4f" d="M 2341 4334 
Q 3166 4334 3770 3707 
Q 4375 3081 4375 2144 
Q 4375 1178 3765 540 
Q 3156 -97 2291 -97 
Q 1416 -97 820 525 
Q 225 1147 225 2134 
Q 225 3144 913 3781 
Q 1509 4334 2341 4334 
z
M 2281 4106 
Q 1713 4106 1369 3684 
Q 941 3159 941 2147 
Q 941 1109 1384 550 
Q 1725 125 2284 125 
Q 2881 125 3270 590 
Q 3659 1056 3659 2059 
Q 3659 3147 3231 3681 
Q 2888 4106 2281 4106 
z
" transform="scale(0.015625)"/>
       <path id="TimesNewRomanPSMT-61" d="M 1822 413 
Q 1381 72 1269 19 
Q 1100 -59 909 -59 
Q 613 -59 420 144 
Q 228 347 228 678 
Q 228 888 322 1041 
Q 450 1253 767 1440 
Q 1084 1628 1822 1897 
L 1822 2009 
Q 1822 2438 1686 2597 
Q 1550 2756 1291 2756 
Q 1094 2756 978 2650 
Q 859 2544 859 2406 
L 866 2225 
Q 866 2081 792 2003 
Q 719 1925 600 1925 
Q 484 1925 411 2006 
Q 338 2088 338 2228 
Q 338 2497 613 2722 
Q 888 2947 1384 2947 
Q 1766 2947 2009 2819 
Q 2194 2722 2281 2516 
Q 2338 2381 2338 1966 
L 2338 994 
Q 2338 584 2353 492 
Q 2369 400 2405 369 
Q 2441 338 2488 338 
Q 2538 338 2575 359 
Q 2641 400 2828 588 
L 2828 413 
Q 2478 -56 2159 -56 
Q 2006 -56 1915 50 
Q 1825 156 1822 413 
z
M 1822 616 
L 1822 1706 
Q 1350 1519 1213 1441 
Q 966 1303 859 1153 
Q 753 1003 753 825 
Q 753 600 887 451 
Q 1022 303 1197 303 
Q 1434 303 1822 616 
z
" transform="scale(0.015625)"/>
       <path id="TimesNewRomanPSMT-74" d="M 1031 3803 
L 1031 2863 
L 1700 2863 
L 1700 2644 
L 1031 2644 
L 1031 788 
Q 1031 509 1111 412 
Q 1191 316 1316 316 
Q 1419 316 1516 380 
Q 1613 444 1666 569 
L 1788 569 
Q 1678 263 1478 108 
Q 1278 -47 1066 -47 
Q 922 -47 784 33 
Q 647 113 581 261 
Q 516 409 516 719 
L 516 2644 
L 63 2644 
L 63 2747 
Q 234 2816 414 2980 
Q 594 3144 734 3369 
Q 806 3488 934 3803 
L 1031 3803 
z
" transform="scale(0.015625)"/>
       <path id="DejaVuSans-Oblique-74" d="M 2706 3500 
L 2619 3053 
L 1472 3053 
L 1100 1153 
Q 1081 1047 1072 975 
Q 1063 903 1063 863 
Q 1063 663 1183 572 
Q 1303 481 1569 481 
L 2150 481 
L 2053 0 
L 1503 0 
Q 991 0 739 200 
Q 488 400 488 806 
Q 488 878 497 964 
Q 506 1050 525 1153 
L 897 3053 
L 409 3053 
L 500 3500 
L 978 3500 
L 1172 4494 
L 1747 4494 
L 1556 3500 
L 2706 3500 
z
" transform="scale(0.015625)"/>
       <path id="DejaVuSans-30" d="M 2034 4250 
Q 1547 4250 1301 3770 
Q 1056 3291 1056 2328 
Q 1056 1369 1301 889 
Q 1547 409 2034 409 
Q 2525 409 2770 889 
Q 3016 1369 3016 2328 
Q 3016 3291 2770 3770 
Q 2525 4250 2034 4250 
z
M 2034 4750 
Q 2819 4750 3233 4129 
Q 3647 3509 3647 2328 
Q 3647 1150 3233 529 
Q 2819 -91 2034 -91 
Q 1250 -91 836 529 
Q 422 1150 422 2328 
Q 422 3509 836 4129 
Q 1250 4750 2034 4750 
z
" transform="scale(0.015625)"/>
      </defs>
      <use xlink:href="#TimesNewRomanPSMT-44" transform="translate(0 0.78125)"/>
      <use xlink:href="#TimesNewRomanPSMT-53" transform="translate(72.216797 0.78125)"/>
      <use xlink:href="#TimesNewRomanPSMT-20" transform="translate(127.832031 0.78125)"/>
      <use xlink:href="#TimesNewRomanPSMT-69" transform="translate(152.832031 0.78125)"/>
      <use xlink:href="#TimesNewRomanPSMT-6e" transform="translate(180.615234 0.78125)"/>
      <use xlink:href="#TimesNewRomanPSMT-64" transform="translate(230.615234 0.78125)"/>
      <use xlink:href="#TimesNewRomanPSMT-65" transform="translate(280.615234 0.78125)"/>
      <use xlink:href="#TimesNewRomanPSMT-78" transform="translate(325 0.78125)"/>
      <use xlink:href="#TimesNewRomanPSMT-20" transform="translate(375 0.78125)"/>
      <use xlink:href="#TimesNewRomanPSMT-6f" transform="translate(400 0.78125)"/>
      <use xlink:href="#TimesNewRomanPSMT-66" transform="translate(450 0.78125)"/>
      <use xlink:href="#TimesNewRomanPSMT-20" transform="translate(483.300781 0.78125)"/>
      <use xlink:href="#TimesNewRomanPSMT-4f" transform="translate(508.300781 0.78125)"/>
      <use xlink:href="#TimesNewRomanPSMT-53" transform="translate(580.517578 0.78125)"/>
      <use xlink:href="#TimesNewRomanPSMT-20" transform="translate(636.132812 0.78125)"/>
      <use xlink:href="#TimesNewRomanPSMT-61" transform="translate(661.132812 0.78125)"/>
      <use xlink:href="#TimesNewRomanPSMT-74" transform="translate(705.517578 0.78125)"/>
      <use xlink:href="#TimesNewRomanPSMT-20" transform="translate(733.300781 0.78125)"/>
      <use xlink:href="#DejaVuSans-Oblique-74" transform="translate(758.300781 0.78125)"/>
      <use xlink:href="#DejaVuSans-30" transform="translate(797.509766 -15.625) scale(0.7)"/>
     </g>
    </g>
   </g>
   <g id="LineCollection_1">
    <path d="M 58.297211 93.84753 
L 70.555447 93.84753 
" clip-path="url(#pdff9d1241d)" style="fill: none; stroke: #000000; stroke-width: 2"/>
    <path d="M 93.320741 94.695158 
L 105.578976 94.695158 
" clip-path="url(#pdff9d1241d)" style="fill: none; stroke: #000000; stroke-width: 2"/>
   </g>
   <g id="LineCollection_2">
    <path d="M 58.297211 41.520167 
L 70.555447 41.520167 
" clip-path="url(#pdff9d1241d)" style="fill: none; stroke: #1f77b4; stroke-width: 1.5"/>
    <path d="M 93.320741 41.520167 
L 105.578976 41.520167 
" clip-path="url(#pdff9d1241d)" style="fill: none; stroke: #1f77b4; stroke-width: 1.5"/>
   </g>
   <g id="LineCollection_3">
    <path d="M 58.297211 148.054362 
L 70.555447 148.054362 
" clip-path="url(#pdff9d1241d)" style="fill: none; stroke: #1f77b4; stroke-width: 1.5"/>
    <path d="M 93.320741 148.732924 
L 105.578976 148.732924 
" clip-path="url(#pdff9d1241d)" style="fill: none; stroke: #1f77b4; stroke-width: 1.5"/>
   </g>
   <g id="LineCollection_4">
    <path d="M 64.426329 148.054362 
L 64.426329 41.520167 
" clip-path="url(#pdff9d1241d)" style="fill: none; stroke: #1f77b4; stroke-width: 1.5"/>
    <path d="M 99.449858 148.732924 
L 99.449858 41.520167 
" clip-path="url(#pdff9d1241d)" style="fill: none; stroke: #1f77b4; stroke-width: 1.5"/>
   </g>
   <g id="LineCollection_5">
    <path d="M 58.297211 90.715894 
L 70.555447 90.715894 
" clip-path="url(#pdff9d1241d)" style="fill: none; stroke-dasharray: 2,3.3; stroke-dashoffset: 0; stroke: #808080; stroke-width: 2"/>
    <path d="M 93.320741 96.483669 
L 105.578976 96.483669 
" clip-path="url(#pdff9d1241d)" style="fill: none; stroke-dasharray: 2,3.3; stroke-dashoffset: 0; stroke: #808080; stroke-width: 2"/>
   </g>
   <g id="patch_3">
    <path d="M 49.191094 163.661283 
L 49.191094 23.199 
" style="fill: none; stroke: #000000; stroke-width: 0.8; stroke-linejoin: miter; stroke-linecap: square"/>
   </g>
   <g id="patch_4">
    <path d="M 114.685094 163.661283 
L 114.685094 23.199 
" style="fill: none; stroke: #000000; stroke-width: 0.8; stroke-linejoin: miter; stroke-linecap: square"/>
   </g>
   <g id="patch_5">
    <path d="M 49.191094 163.661283 
L 114.685094 163.661283 
" style="fill: none; stroke: #000000; stroke-width: 0.8; stroke-linejoin: miter; stroke-linecap: square"/>
   </g>
   <g id="patch_6">
    <path d="M 49.191094 23.199 
L 114.685094 23.199 
" style="fill: none; stroke: #000000; stroke-width: 0.8; stroke-linejoin: miter; stroke-linecap: square"/>
   </g>
   <g id="text_9">
    <!-- 278 -->
    <g transform="translate(56.926329 37.815455) scale(0.1 -0.1)">
     <defs>
      <path id="TimesNewRomanPSMT-38" d="M 1228 2134 
Q 725 2547 579 2797 
Q 434 3047 434 3316 
Q 434 3728 753 4026 
Q 1072 4325 1600 4325 
Q 2113 4325 2425 4047 
Q 2738 3769 2738 3413 
Q 2738 3175 2569 2928 
Q 2400 2681 1866 2347 
Q 2416 1922 2594 1678 
Q 2831 1359 2831 1006 
Q 2831 559 2490 242 
Q 2150 -75 1597 -75 
Q 994 -75 656 303 
Q 388 606 388 966 
Q 388 1247 577 1523 
Q 766 1800 1228 2134 
z
M 1719 2469 
Q 2094 2806 2194 3001 
Q 2294 3197 2294 3444 
Q 2294 3772 2109 3958 
Q 1925 4144 1606 4144 
Q 1288 4144 1088 3959 
Q 888 3775 888 3528 
Q 888 3366 970 3203 
Q 1053 3041 1206 2894 
L 1719 2469 
z
M 1375 2016 
Q 1116 1797 991 1539 
Q 866 1281 866 981 
Q 866 578 1086 336 
Q 1306 94 1647 94 
Q 1984 94 2187 284 
Q 2391 475 2391 747 
Q 2391 972 2272 1150 
Q 2050 1481 1375 2016 
z
" transform="scale(0.015625)"/>
     </defs>
     <use xlink:href="#TimesNewRomanPSMT-32"/>
     <use xlink:href="#TimesNewRomanPSMT-37" x="50"/>
     <use xlink:href="#TimesNewRomanPSMT-38" x="100"/>
    </g>
   </g>
   <g id="text_10">
    <!-- 291 -->
    <g transform="translate(91.949858 37.815455) scale(0.1 -0.1)">
     <defs>
      <path id="TimesNewRomanPSMT-39" d="M 338 -88 
L 338 28 
Q 744 34 1094 217 
Q 1444 400 1770 856 
Q 2097 1313 2225 1859 
Q 1734 1544 1338 1544 
Q 891 1544 572 1889 
Q 253 2234 253 2806 
Q 253 3363 572 3797 
Q 956 4325 1575 4325 
Q 2097 4325 2469 3894 
Q 2925 3359 2925 2575 
Q 2925 1869 2578 1258 
Q 2231 647 1613 244 
Q 1109 -88 516 -88 
L 338 -88 
z
M 2275 2091 
Q 2331 2497 2331 2741 
Q 2331 3044 2228 3395 
Q 2125 3747 1936 3934 
Q 1747 4122 1506 4122 
Q 1228 4122 1018 3872 
Q 809 3622 809 3128 
Q 809 2469 1088 2097 
Q 1291 1828 1588 1828 
Q 1731 1828 1928 1897 
Q 2125 1966 2275 2091 
z
" transform="scale(0.015625)"/>
     </defs>
     <use xlink:href="#TimesNewRomanPSMT-32"/>
     <use xlink:href="#TimesNewRomanPSMT-39" x="50"/>
     <use xlink:href="#TimesNewRomanPSMT-31" x="100"/>
    </g>
   </g>
   <g id="text_11">
    <!-- 3 Vessels -->
    <g transform="translate(55.465719 17.199) scale(0.144 -0.144)">
     <defs>
      <path id="TimesNewRomanPSMT-33" d="M 325 3431 
Q 506 3859 782 4092 
Q 1059 4325 1472 4325 
Q 1981 4325 2253 3994 
Q 2459 3747 2459 3466 
Q 2459 3003 1878 2509 
Q 2269 2356 2469 2072 
Q 2669 1788 2669 1403 
Q 2669 853 2319 450 
Q 1863 -75 997 -75 
Q 569 -75 414 31 
Q 259 138 259 259 
Q 259 350 332 419 
Q 406 488 509 488 
Q 588 488 669 463 
Q 722 447 909 348 
Q 1097 250 1169 231 
Q 1284 197 1416 197 
Q 1734 197 1970 444 
Q 2206 691 2206 1028 
Q 2206 1275 2097 1509 
Q 2016 1684 1919 1775 
Q 1784 1900 1550 2001 
Q 1316 2103 1072 2103 
L 972 2103 
L 972 2197 
Q 1219 2228 1467 2375 
Q 1716 2522 1828 2728 
Q 1941 2934 1941 3181 
Q 1941 3503 1739 3701 
Q 1538 3900 1238 3900 
Q 753 3900 428 3381 
L 325 3431 
z
" transform="scale(0.015625)"/>
      <path id="TimesNewRomanPSMT-56" d="M 4544 4238 
L 4544 4122 
Q 4319 4081 4203 3978 
Q 4038 3825 3909 3509 
L 2431 -97 
L 2316 -97 
L 728 3556 
Q 606 3838 556 3900 
Q 478 3997 364 4051 
Q 250 4106 56 4122 
L 56 4238 
L 1788 4238 
L 1788 4122 
Q 1494 4094 1406 4022 
Q 1319 3950 1319 3838 
Q 1319 3681 1463 3350 
L 2541 866 
L 3541 3319 
Q 3688 3681 3688 3822 
Q 3688 3913 3597 3995 
Q 3506 4078 3291 4113 
Q 3275 4116 3238 4122 
L 3238 4238 
L 4544 4238 
z
" transform="scale(0.015625)"/>
      <path id="TimesNewRomanPSMT-73" d="M 2050 2947 
L 2050 1972 
L 1947 1972 
Q 1828 2431 1642 2597 
Q 1456 2763 1169 2763 
Q 950 2763 815 2647 
Q 681 2531 681 2391 
Q 681 2216 781 2091 
Q 878 1963 1175 1819 
L 1631 1597 
Q 2266 1288 2266 781 
Q 2266 391 1970 151 
Q 1675 -88 1309 -88 
Q 1047 -88 709 6 
Q 606 38 541 38 
Q 469 38 428 -44 
L 325 -44 
L 325 978 
L 428 978 
Q 516 541 762 319 
Q 1009 97 1316 97 
Q 1531 97 1667 223 
Q 1803 350 1803 528 
Q 1803 744 1651 891 
Q 1500 1038 1047 1263 
Q 594 1488 453 1669 
Q 313 1847 313 2119 
Q 313 2472 555 2709 
Q 797 2947 1181 2947 
Q 1350 2947 1591 2875 
Q 1750 2828 1803 2828 
Q 1853 2828 1881 2850 
Q 1909 2872 1947 2947 
L 2050 2947 
z
" transform="scale(0.015625)"/>
      <path id="TimesNewRomanPSMT-6c" d="M 1184 4444 
L 1184 647 
Q 1184 378 1223 290 
Q 1263 203 1344 158 
Q 1425 113 1647 113 
L 1647 0 
L 244 0 
L 244 113 
Q 441 113 512 153 
Q 584 194 625 287 
Q 666 381 666 647 
L 666 3247 
Q 666 3731 644 3842 
Q 622 3953 573 3993 
Q 525 4034 450 4034 
Q 369 4034 244 3984 
L 191 4094 
L 1044 4444 
L 1184 4444 
z
" transform="scale(0.015625)"/>
     </defs>
     <use xlink:href="#TimesNewRomanPSMT-33"/>
     <use xlink:href="#TimesNewRomanPSMT-20" x="50"/>
     <use xlink:href="#TimesNewRomanPSMT-56" x="73.25"/>
     <use xlink:href="#TimesNewRomanPSMT-65" x="134.341797"/>
     <use xlink:href="#TimesNewRomanPSMT-73" x="178.726562"/>
     <use xlink:href="#TimesNewRomanPSMT-73" x="217.642578"/>
     <use xlink:href="#TimesNewRomanPSMT-65" x="256.558594"/>
     <use xlink:href="#TimesNewRomanPSMT-6c" x="300.943359"/>
     <use xlink:href="#TimesNewRomanPSMT-73" x="328.726562"/>
    </g>
   </g>
  </g>
  <g id="axes_2">
   <g id="patch_7">
    <path d="M 149.585094 163.661283 
L 215.079094 163.661283 
L 215.079094 23.199 
L 149.585094 23.199 
z
" style="fill: #ffffff"/>
   </g>
   <g id="PolyCollection_3">
    <path d="M 167.529466 146.018677 
L 162.111192 146.018677 
L 161.71976 144.963136 
L 161.29724 143.907596 
L 160.846187 142.852055 
L 160.370226 141.796515 
L 159.874052 140.740974 
L 159.3634 139.685434 
L 158.844941 138.629893 
L 158.326141 137.574353 
L 157.815055 136.518812 
L 157.320082 135.463272 
L 156.849686 134.407731 
L 156.412087 133.352191 
L 156.014957 132.29665 
L 155.665112 131.24111 
L 155.368245 130.185569 
L 155.128693 129.130029 
L 154.949258 128.074488 
L 154.8311 127.018948 
L 154.773699 125.963407 
L 154.774881 124.907867 
L 154.830924 123.852326 
L 154.936717 122.796786 
L 155.085967 121.741245 
L 155.271451 120.685705 
L 155.485281 119.630164 
L 155.719178 118.574624 
L 155.964741 117.519083 
L 156.213692 116.463543 
L 156.4581 115.408002 
L 156.69056 114.352462 
L 156.904338 113.296921 
L 157.09348 112.241381 
L 157.252875 111.18584 
L 157.378298 110.1303 
L 157.466414 109.074759 
L 157.514769 108.019219 
L 157.521769 106.963678 
L 157.48665 105.908138 
L 157.409444 104.852597 
L 157.290952 103.797057 
L 157.132716 102.741516 
L 156.937 101.685976 
L 156.706763 100.630435 
L 156.445639 99.574895 
L 156.157911 98.519354 
L 155.848462 97.463814 
L 155.522725 96.408273 
L 155.186606 95.352733 
L 154.846383 94.297192 
L 154.508586 93.241652 
L 154.179855 92.186111 
L 153.866776 91.130571 
L 153.575709 90.07503 
L 153.312606 89.01949 
L 153.082833 87.963949 
L 152.89101 86.908409 
L 152.740859 85.852868 
L 152.635094 84.797328 
L 152.57534 83.741787 
L 152.562094 82.686247 
L 152.594728 81.630706 
L 152.671536 80.575166 
L 152.789816 79.519625 
L 152.945984 78.464085 
L 153.135725 77.408544 
L 153.354143 76.353004 
L 153.595928 75.297463 
L 153.855525 74.241923 
L 154.127277 73.186382 
L 154.405571 72.130842 
L 154.684939 71.075301 
L 154.960158 70.019761 
L 155.226309 68.96422 
L 155.478821 67.90868 
L 155.713503 66.853139 
L 155.926562 65.797599 
L 156.114621 64.742058 
L 156.274745 63.686518 
L 156.404472 62.630977 
L 156.501877 61.575437 
L 156.565636 60.519896 
L 156.595125 59.464356 
L 156.590526 58.408815 
L 156.552945 57.353275 
L 156.484515 56.297734 
L 156.388494 55.242194 
L 156.269322 54.186653 
L 156.132629 53.131113 
L 155.985186 52.075572 
L 155.834784 51.020032 
L 155.690033 49.964491 
L 155.560089 48.908951 
L 155.454318 47.85341 
L 155.381903 46.79787 
L 155.351428 45.742329 
L 155.370453 44.686789 
L 155.44512 43.631248 
L 155.57981 42.575708 
L 155.77688 41.520167 
L 173.863778 41.520167 
L 173.863778 41.520167 
L 174.060848 42.575708 
L 174.195538 43.631248 
L 174.270205 44.686789 
L 174.289231 45.742329 
L 174.258755 46.79787 
L 174.18634 47.85341 
L 174.080569 48.908951 
L 173.950625 49.964491 
L 173.805874 51.020032 
L 173.655472 52.075572 
L 173.50803 53.131113 
L 173.371336 54.186653 
L 173.252164 55.242194 
L 173.156143 56.297734 
L 173.087713 57.353275 
L 173.050132 58.408815 
L 173.045534 59.464356 
L 173.075023 60.519896 
L 173.138781 61.575437 
L 173.236186 62.630977 
L 173.365913 63.686518 
L 173.526037 64.742058 
L 173.714096 65.797599 
L 173.927155 66.853139 
L 174.161837 67.90868 
L 174.414349 68.96422 
L 174.6805 70.019761 
L 174.955719 71.075301 
L 175.235088 72.130842 
L 175.513381 73.186382 
L 175.785133 74.241923 
L 176.04473 75.297463 
L 176.286515 76.353004 
L 176.504933 77.408544 
L 176.694674 78.464085 
L 176.850843 79.519625 
L 176.969122 80.575166 
L 177.04593 81.630706 
L 177.078564 82.686247 
L 177.065318 83.741787 
L 177.005564 84.797328 
L 176.899799 85.852868 
L 176.749648 86.908409 
L 176.557825 87.963949 
L 176.328053 89.01949 
L 176.064949 90.07503 
L 175.773882 91.130571 
L 175.460803 92.186111 
L 175.132072 93.241652 
L 174.794275 94.297192 
L 174.454052 95.352733 
L 174.117933 96.408273 
L 173.792196 97.463814 
L 173.482747 98.519354 
L 173.195019 99.574895 
L 172.933896 100.630435 
L 172.703658 101.685976 
L 172.507942 102.741516 
L 172.349706 103.797057 
L 172.231214 104.852597 
L 172.154008 105.908138 
L 172.118889 106.963678 
L 172.125889 108.019219 
L 172.174244 109.074759 
L 172.26236 110.1303 
L 172.387783 111.18584 
L 172.547178 112.241381 
L 172.73632 113.296921 
L 172.950098 114.352462 
L 173.182558 115.408002 
L 173.426966 116.463543 
L 173.675917 117.519083 
L 173.92148 118.574624 
L 174.155377 119.630164 
L 174.369207 120.685705 
L 174.554691 121.741245 
L 174.703941 122.796786 
L 174.809734 123.852326 
L 174.865777 124.907867 
L 174.866959 125.963407 
L 174.809558 127.018948 
L 174.6914 128.074488 
L 174.511965 129.130029 
L 174.272413 130.185569 
L 173.975546 131.24111 
L 173.625702 132.29665 
L 173.228571 133.352191 
L 172.790972 134.407731 
L 172.320576 135.463272 
L 171.825603 136.518812 
L 171.314517 137.574353 
L 170.795717 138.629893 
L 170.277258 139.685434 
L 169.766606 140.740974 
L 169.270432 141.796515 
L 168.794471 142.852055 
L 168.343419 143.907596 
L 167.920898 144.963136 
L 167.529466 146.018677 
z
" clip-path="url(#pf76e0958fc)" style="fill: #0080ff; fill-opacity: 0.3"/>
   </g>
   <g id="PolyCollection_4">
    <path d="M 204.020116 146.018677 
L 195.667601 146.018677 
L 195.163374 144.963136 
L 194.636058 143.907596 
L 194.090699 142.852055 
L 193.533157 141.796515 
L 192.969996 140.740974 
L 192.408332 139.685434 
L 191.85565 138.629893 
L 191.319589 137.574353 
L 190.807722 136.518812 
L 190.327313 135.463272 
L 189.88509 134.407731 
L 189.487024 133.352191 
L 189.138137 132.29665 
L 188.842349 131.24111 
L 188.602359 130.185569 
L 188.419584 129.130029 
L 188.294141 128.074488 
L 188.224884 127.018948 
L 188.209479 125.963407 
L 188.244529 124.907867 
L 188.325725 123.852326 
L 188.448011 122.796786 
L 188.605781 121.741245 
L 188.793054 120.685705 
L 189.003659 119.630164 
L 189.231397 118.574624 
L 189.470188 117.519083 
L 189.714187 116.463543 
L 189.957881 115.408002 
L 190.196157 114.352462 
L 190.42435 113.296921 
L 190.638266 112.241381 
L 190.834195 111.18584 
L 191.008902 110.1303 
L 191.159624 109.074759 
L 191.284045 108.019219 
L 191.380287 106.963678 
L 191.446891 105.908138 
L 191.482802 104.852597 
L 191.487368 103.797057 
L 191.460333 102.741516 
L 191.401839 101.685976 
L 191.31244 100.630435 
L 191.193107 99.574895 
L 191.045249 98.519354 
L 190.870725 97.463814 
L 190.671861 96.408273 
L 190.451465 95.352733 
L 190.212827 94.297192 
L 189.959714 93.241652 
L 189.696357 92.186111 
L 189.427409 91.130571 
L 189.157897 90.07503 
L 188.893139 89.01949 
L 188.63865 87.963949 
L 188.400018 86.908409 
L 188.182766 85.852868 
L 187.992193 84.797328 
L 187.833212 83.741787 
L 187.710179 82.686247 
L 187.626727 81.630706 
L 187.585623 80.575166 
L 187.588639 79.519625 
L 187.636456 78.464085 
L 187.728608 77.408544 
L 187.863466 76.353004 
L 188.038261 75.297463 
L 188.249159 74.241923 
L 188.491365 73.186382 
L 188.759268 72.130842 
L 189.04661 71.075301 
L 189.346676 70.019761 
L 189.652491 68.96422 
L 189.957025 67.90868 
L 190.25339 66.853139 
L 190.53503 65.797599 
L 190.795894 64.742058 
L 191.030605 63.686518 
L 191.234599 62.630977 
L 191.404262 61.575437 
L 191.537043 60.519896 
L 191.631554 59.464356 
L 191.687651 58.408815 
L 191.706494 57.353275 
L 191.690583 56.297734 
L 191.643751 55.242194 
L 191.571127 54.186653 
L 191.479042 53.131113 
L 191.374886 52.075572 
L 191.266907 51.020032 
L 191.16395 49.964491 
L 191.075149 48.908951 
L 191.009578 47.85341 
L 190.975871 46.79787 
L 190.981847 45.742329 
L 191.034143 44.686789 
L 191.137888 43.631248 
L 191.296444 42.575708 
L 191.511225 41.520167 
L 208.176492 41.520167 
L 208.176492 41.520167 
L 208.391273 42.575708 
L 208.549829 43.631248 
L 208.653574 44.686789 
L 208.705869 45.742329 
L 208.711846 46.79787 
L 208.678139 47.85341 
L 208.612567 48.908951 
L 208.523767 49.964491 
L 208.42081 51.020032 
L 208.312831 52.075572 
L 208.208675 53.131113 
L 208.11659 54.186653 
L 208.043966 55.242194 
L 207.997134 56.297734 
L 207.981223 57.353275 
L 208.000066 58.408815 
L 208.056163 59.464356 
L 208.150674 60.519896 
L 208.283455 61.575437 
L 208.453118 62.630977 
L 208.657112 63.686518 
L 208.891823 64.742058 
L 209.152687 65.797599 
L 209.434327 66.853139 
L 209.730692 67.90868 
L 210.035226 68.96422 
L 210.341041 70.019761 
L 210.641107 71.075301 
L 210.928449 72.130842 
L 211.196352 73.186382 
L 211.438558 74.241923 
L 211.649456 75.297463 
L 211.824251 76.353004 
L 211.959109 77.408544 
L 212.051261 78.464085 
L 212.099078 79.519625 
L 212.102094 80.575166 
L 212.06099 81.630706 
L 211.977538 82.686247 
L 211.854504 83.741787 
L 211.695524 84.797328 
L 211.504951 85.852868 
L 211.287699 86.908409 
L 211.049067 87.963949 
L 210.794578 89.01949 
L 210.52982 90.07503 
L 210.260308 91.130571 
L 209.99136 92.186111 
L 209.728003 93.241652 
L 209.47489 94.297192 
L 209.236251 95.352733 
L 209.015855 96.408273 
L 208.816992 97.463814 
L 208.642468 98.519354 
L 208.494609 99.574895 
L 208.375277 100.630435 
L 208.285877 101.685976 
L 208.227384 102.741516 
L 208.200349 103.797057 
L 208.204915 104.852597 
L 208.240826 105.908138 
L 208.307429 106.963678 
L 208.403672 108.019219 
L 208.528093 109.074759 
L 208.678814 110.1303 
L 208.853522 111.18584 
L 209.049451 112.241381 
L 209.263367 113.296921 
L 209.49156 114.352462 
L 209.729836 115.408002 
L 209.97353 116.463543 
L 210.217529 117.519083 
L 210.45632 118.574624 
L 210.684058 119.630164 
L 210.894663 120.685705 
L 211.081936 121.741245 
L 211.239705 122.796786 
L 211.361992 123.852326 
L 211.443187 124.907867 
L 211.478238 125.963407 
L 211.462833 127.018948 
L 211.393576 128.074488 
L 211.268133 129.130029 
L 211.085358 130.185569 
L 210.845368 131.24111 
L 210.54958 132.29665 
L 210.200693 133.352191 
L 209.802627 134.407731 
L 209.360404 135.463272 
L 208.879995 136.518812 
L 208.368128 137.574353 
L 207.832067 138.629893 
L 207.279384 139.685434 
L 206.717721 140.740974 
L 206.15456 141.796515 
L 205.597018 142.852055 
L 205.051659 143.907596 
L 204.524343 144.963136 
L 204.020116 146.018677 
z
" clip-path="url(#pf76e0958fc)" style="fill: #ff8000; fill-opacity: 0.3"/>
   </g>
   <g id="matplotlib.axis_3">
    <g id="xtick_3">
     <g id="line2d_8">
      <g>
       <use xlink:href="#mae3f7f1ee9" x="164.820329" y="163.661283" style="stroke: #000000; stroke-width: 0.8"/>
      </g>
     </g>
     <g id="text_12">
      <!-- MSR -->
      <g transform="translate(144.149388 195.136016) rotate(-45) scale(0.12 -0.12)">
       <use xlink:href="#TimesNewRomanPS-BoldMT-4d"/>
       <use xlink:href="#TimesNewRomanPS-BoldMT-53" x="94.384766"/>
       <use xlink:href="#TimesNewRomanPS-BoldMT-52" x="150"/>
      </g>
     </g>
    </g>
    <g id="xtick_4">
     <g id="line2d_9">
      <g>
       <use xlink:href="#mae3f7f1ee9" x="199.843858" y="163.661283" style="stroke: #000000; stroke-width: 0.8"/>
      </g>
     </g>
     <g id="text_13">
      <!-- SBO -->
      <g transform="translate(181.050286 193.258647) rotate(-45) scale(0.12 -0.12)">
       <use xlink:href="#TimesNewRomanPS-BoldMT-53"/>
       <use xlink:href="#TimesNewRomanPS-BoldMT-42" x="55.615234"/>
       <use xlink:href="#TimesNewRomanPS-BoldMT-4f" x="122.314453"/>
      </g>
     </g>
    </g>
   </g>
   <g id="matplotlib.axis_4">
    <g id="ytick_6">
     <g id="line2d_10">
      <g>
       <use xlink:href="#m09c50dea57" x="149.585094" y="163.661283" style="stroke: #000000; stroke-width: 0.8"/>
      </g>
     </g>
     <g id="text_14">
      <!-- 0.00 -->
      <g transform="translate(121.585094 167.827533) scale(0.12 -0.12)">
       <use xlink:href="#TimesNewRomanPSMT-30"/>
       <use xlink:href="#TimesNewRomanPSMT-2e" x="50"/>
       <use xlink:href="#TimesNewRomanPSMT-30" x="75"/>
       <use xlink:href="#TimesNewRomanPSMT-30" x="125"/>
      </g>
     </g>
    </g>
    <g id="ytick_7">
     <g id="line2d_11">
      <g>
       <use xlink:href="#m09c50dea57" x="149.585094" y="133.126004" style="stroke: #000000; stroke-width: 0.8"/>
      </g>
     </g>
     <g id="text_15">
      <!-- 0.25 -->
      <g transform="translate(121.585094 137.292254) scale(0.12 -0.12)">
       <use xlink:href="#TimesNewRomanPSMT-30"/>
       <use xlink:href="#TimesNewRomanPSMT-2e" x="50"/>
       <use xlink:href="#TimesNewRomanPSMT-32" x="75"/>
       <use xlink:href="#TimesNewRomanPSMT-35" x="125"/>
      </g>
     </g>
    </g>
    <g id="ytick_8">
     <g id="line2d_12">
      <g>
       <use xlink:href="#m09c50dea57" x="149.585094" y="102.590725" style="stroke: #000000; stroke-width: 0.8"/>
      </g>
     </g>
     <g id="text_16">
      <!-- 0.50 -->
      <g transform="translate(121.585094 106.756975) scale(0.12 -0.12)">
       <use xlink:href="#TimesNewRomanPSMT-30"/>
       <use xlink:href="#TimesNewRomanPSMT-2e" x="50"/>
       <use xlink:href="#TimesNewRomanPSMT-35" x="75"/>
       <use xlink:href="#TimesNewRomanPSMT-30" x="125"/>
      </g>
     </g>
    </g>
    <g id="ytick_9">
     <g id="line2d_13">
      <g>
       <use xlink:href="#m09c50dea57" x="149.585094" y="72.055446" style="stroke: #000000; stroke-width: 0.8"/>
      </g>
     </g>
     <g id="text_17">
      <!-- 0.75 -->
      <g transform="translate(121.585094 76.221696) scale(0.12 -0.12)">
       <use xlink:href="#TimesNewRomanPSMT-30"/>
       <use xlink:href="#TimesNewRomanPSMT-2e" x="50"/>
       <use xlink:href="#TimesNewRomanPSMT-37" x="75"/>
       <use xlink:href="#TimesNewRomanPSMT-35" x="125"/>
      </g>
     </g>
    </g>
    <g id="ytick_10">
     <g id="line2d_14">
      <g>
       <use xlink:href="#m09c50dea57" x="149.585094" y="41.520167" style="stroke: #000000; stroke-width: 0.8"/>
      </g>
     </g>
     <g id="text_18">
      <!-- 1.00 -->
      <g transform="translate(121.585094 45.686417) scale(0.12 -0.12)">
       <use xlink:href="#TimesNewRomanPSMT-31"/>
       <use xlink:href="#TimesNewRomanPSMT-2e" x="50"/>
       <use xlink:href="#TimesNewRomanPSMT-30" x="75"/>
       <use xlink:href="#TimesNewRomanPSMT-30" x="125"/>
      </g>
     </g>
    </g>
   </g>
   <g id="LineCollection_6">
    <path d="M 158.691211 86.244873 
L 170.949447 86.244873 
" clip-path="url(#pf76e0958fc)" style="fill: none; stroke: #000000; stroke-width: 2"/>
    <path d="M 193.714741 89.999635 
L 205.972976 89.999635 
" clip-path="url(#pf76e0958fc)" style="fill: none; stroke: #000000; stroke-width: 2"/>
   </g>
   <g id="LineCollection_7">
    <path d="M 158.691211 41.520167 
L 170.949447 41.520167 
" clip-path="url(#pf76e0958fc)" style="fill: none; stroke: #1f77b4; stroke-width: 1.5"/>
    <path d="M 193.714741 41.520167 
L 205.972976 41.520167 
" clip-path="url(#pf76e0958fc)" style="fill: none; stroke: #1f77b4; stroke-width: 1.5"/>
   </g>
   <g id="LineCollection_8">
    <path d="M 158.691211 146.018677 
L 170.949447 146.018677 
" clip-path="url(#pf76e0958fc)" style="fill: none; stroke: #1f77b4; stroke-width: 1.5"/>
    <path d="M 193.714741 146.018677 
L 205.972976 146.018677 
" clip-path="url(#pf76e0958fc)" style="fill: none; stroke: #1f77b4; stroke-width: 1.5"/>
   </g>
   <g id="LineCollection_9">
    <path d="M 164.820329 146.018677 
L 164.820329 41.520167 
" clip-path="url(#pf76e0958fc)" style="fill: none; stroke: #1f77b4; stroke-width: 1.5"/>
    <path d="M 199.843858 146.018677 
L 199.843858 41.520167 
" clip-path="url(#pf76e0958fc)" style="fill: none; stroke: #1f77b4; stroke-width: 1.5"/>
   </g>
   <g id="LineCollection_10">
    <path d="M 158.691211 84.269558 
L 170.949447 84.269558 
" clip-path="url(#pf76e0958fc)" style="fill: none; stroke-dasharray: 2,3.3; stroke-dashoffset: 0; stroke: #808080; stroke-width: 2"/>
    <path d="M 193.714741 86.644524 
L 205.972976 86.644524 
" clip-path="url(#pf76e0958fc)" style="fill: none; stroke-dasharray: 2,3.3; stroke-dashoffset: 0; stroke: #808080; stroke-width: 2"/>
   </g>
   <g id="patch_8">
    <path d="M 149.585094 163.661283 
L 149.585094 23.199 
" style="fill: none; stroke: #000000; stroke-width: 0.8; stroke-linejoin: miter; stroke-linecap: square"/>
   </g>
   <g id="patch_9">
    <path d="M 215.079094 163.661283 
L 215.079094 23.199 
" style="fill: none; stroke: #000000; stroke-width: 0.8; stroke-linejoin: miter; stroke-linecap: square"/>
   </g>
   <g id="patch_10">
    <path d="M 149.585094 163.661283 
L 215.079094 163.661283 
" style="fill: none; stroke: #000000; stroke-width: 0.8; stroke-linejoin: miter; stroke-linecap: square"/>
   </g>
   <g id="patch_11">
    <path d="M 149.585094 23.199 
L 215.079094 23.199 
" style="fill: none; stroke: #000000; stroke-width: 0.8; stroke-linejoin: miter; stroke-linecap: square"/>
   </g>
   <g id="text_19">
    <!-- 281 -->
    <g transform="translate(157.320329 37.815455) scale(0.1 -0.1)">
     <use xlink:href="#TimesNewRomanPSMT-32"/>
     <use xlink:href="#TimesNewRomanPSMT-38" x="50"/>
     <use xlink:href="#TimesNewRomanPSMT-31" x="100"/>
    </g>
   </g>
   <g id="text_20">
    <!-- 306 -->
    <g transform="translate(192.343858 37.815455) scale(0.1 -0.1)">
     <defs>
      <path id="TimesNewRomanPSMT-36" d="M 2869 4325 
L 2869 4209 
Q 2456 4169 2195 4045 
Q 1934 3922 1679 3669 
Q 1425 3416 1258 3105 
Q 1091 2794 978 2366 
Q 1428 2675 1881 2675 
Q 2316 2675 2634 2325 
Q 2953 1975 2953 1425 
Q 2953 894 2631 456 
Q 2244 -75 1606 -75 
Q 1172 -75 869 213 
Q 275 772 275 1663 
Q 275 2231 503 2743 
Q 731 3256 1154 3653 
Q 1578 4050 1965 4187 
Q 2353 4325 2688 4325 
L 2869 4325 
z
M 925 2138 
Q 869 1716 869 1456 
Q 869 1156 980 804 
Q 1091 453 1309 247 
Q 1469 100 1697 100 
Q 1969 100 2183 356 
Q 2397 613 2397 1088 
Q 2397 1622 2184 2012 
Q 1972 2403 1581 2403 
Q 1463 2403 1327 2353 
Q 1191 2303 925 2138 
z
" transform="scale(0.015625)"/>
     </defs>
     <use xlink:href="#TimesNewRomanPSMT-33"/>
     <use xlink:href="#TimesNewRomanPSMT-30" x="50"/>
     <use xlink:href="#TimesNewRomanPSMT-36" x="100"/>
    </g>
   </g>
   <g id="text_21">
    <!-- 4 Vessels -->
    <g transform="translate(155.859719 17.199) scale(0.144 -0.144)">
     <defs>
      <path id="TimesNewRomanPSMT-34" d="M 2978 1563 
L 2978 1119 
L 2409 1119 
L 2409 0 
L 1894 0 
L 1894 1119 
L 100 1119 
L 100 1519 
L 2066 4325 
L 2409 4325 
L 2409 1563 
L 2978 1563 
z
M 1894 1563 
L 1894 3666 
L 406 1563 
L 1894 1563 
z
" transform="scale(0.015625)"/>
     </defs>
     <use xlink:href="#TimesNewRomanPSMT-34"/>
     <use xlink:href="#TimesNewRomanPSMT-20" x="50"/>
     <use xlink:href="#TimesNewRomanPSMT-56" x="73.25"/>
     <use xlink:href="#TimesNewRomanPSMT-65" x="134.341797"/>
     <use xlink:href="#TimesNewRomanPSMT-73" x="178.726562"/>
     <use xlink:href="#TimesNewRomanPSMT-73" x="217.642578"/>
     <use xlink:href="#TimesNewRomanPSMT-65" x="256.558594"/>
     <use xlink:href="#TimesNewRomanPSMT-6c" x="300.943359"/>
     <use xlink:href="#TimesNewRomanPSMT-73" x="328.726562"/>
    </g>
   </g>
  </g>
  <g id="axes_3">
   <g id="patch_12">
    <path d="M 249.979094 163.661283 
L 315.473094 163.661283 
L 315.473094 23.199 
L 249.979094 23.199 
z
" style="fill: #ffffff"/>
   </g>
   <g id="PolyCollection_5">
    <path d="M 270.924922 137.197374 
L 259.503736 137.197374 
L 259.10581 136.230938 
L 258.721198 135.264501 
L 258.355072 134.298065 
L 258.012385 133.331628 
L 257.697728 132.365192 
L 257.415193 131.398756 
L 257.168253 130.432319 
L 256.95966 129.465883 
L 256.791367 128.499446 
L 256.664482 127.53301 
L 256.579244 126.566573 
L 256.535032 125.600137 
L 256.530404 124.633701 
L 256.563157 123.667264 
L 256.630413 122.700828 
L 256.728718 121.734391 
L 256.854159 120.767955 
L 257.002481 119.801518 
L 257.169208 118.835082 
L 257.349759 117.868646 
L 257.539557 116.902209 
L 257.734122 115.935773 
L 257.929151 114.969336 
L 258.120585 114.0029 
L 258.304654 113.036463 
L 258.477913 112.070027 
L 258.637256 111.10359 
L 258.77993 110.137154 
L 258.903528 109.170718 
L 259.005992 108.204281 
L 259.085601 107.237845 
L 259.140963 106.271408 
L 259.171017 105.304972 
L 259.175029 104.338535 
L 259.152599 103.372099 
L 259.103667 102.405663 
L 259.028531 101.439226 
L 258.927853 100.47279 
L 258.802676 99.506353 
L 258.654432 98.539917 
L 258.484941 97.57348 
L 258.29641 96.607044 
L 258.091411 95.640608 
L 257.872853 94.674171 
L 257.643943 93.707735 
L 257.408129 92.741298 
L 257.169039 91.774862 
L 256.930401 90.808425 
L 256.695966 89.841989 
L 256.469421 88.875553 
L 256.254305 87.909116 
L 256.053926 86.94268 
L 255.871281 85.976243 
L 255.708993 85.009807 
L 255.569254 84.04337 
L 255.453778 83.076934 
L 255.363775 82.110497 
L 255.299934 81.144061 
L 255.262419 80.177625 
L 255.250881 79.211188 
L 255.264475 78.244752 
L 255.301886 77.278315 
L 255.361363 76.311879 
L 255.440754 75.345442 
L 255.537538 74.379006 
L 255.648868 73.41257 
L 255.771595 72.446133 
L 255.902309 71.479697 
L 256.037367 70.51326 
L 256.172928 69.546824 
L 256.304986 68.580387 
L 256.429415 67.613951 
L 256.542018 66.647515 
L 256.638595 65.681078 
L 256.715012 64.714642 
L 256.767306 63.748205 
L 256.791787 62.781769 
L 256.785168 61.815332 
L 256.744705 60.848896 
L 256.668344 59.88246 
L 256.55487 58.916023 
L 256.404054 57.949587 
L 256.216777 56.98315 
L 255.995137 56.016714 
L 255.742519 55.050277 
L 255.463614 54.083841 
L 255.164401 53.117404 
L 254.852055 52.150968 
L 254.534809 51.184532 
L 254.221751 50.218095 
L 253.922569 49.251659 
L 253.647249 48.285222 
L 253.405747 47.318786 
L 253.207627 46.352349 
L 253.061714 45.385913 
L 252.975751 44.419477 
L 252.956094 43.45304 
L 253.007452 42.486604 
L 253.1327 41.520167 
L 277.295959 41.520167 
L 277.295959 41.520167 
L 277.421206 42.486604 
L 277.472564 43.45304 
L 277.452907 44.419477 
L 277.366944 45.385913 
L 277.221031 46.352349 
L 277.022911 47.318786 
L 276.781409 48.285222 
L 276.50609 49.251659 
L 276.206907 50.218095 
L 275.893849 51.184532 
L 275.576603 52.150968 
L 275.264257 53.117404 
L 274.965044 54.083841 
L 274.68614 55.050277 
L 274.433521 56.016714 
L 274.211881 56.98315 
L 274.024604 57.949587 
L 273.873788 58.916023 
L 273.760314 59.88246 
L 273.683953 60.848896 
L 273.64349 61.815332 
L 273.636871 62.781769 
L 273.661352 63.748205 
L 273.713646 64.714642 
L 273.790063 65.681078 
L 273.88664 66.647515 
L 273.999243 67.613951 
L 274.123672 68.580387 
L 274.25573 69.546824 
L 274.391291 70.51326 
L 274.526349 71.479697 
L 274.657064 72.446133 
L 274.779791 73.41257 
L 274.89112 74.379006 
L 274.987905 75.345442 
L 275.067295 76.311879 
L 275.126772 77.278315 
L 275.164183 78.244752 
L 275.177777 79.211188 
L 275.166239 80.177625 
L 275.128724 81.144061 
L 275.064883 82.110497 
L 274.97488 83.076934 
L 274.859404 84.04337 
L 274.719665 85.009807 
L 274.557377 85.976243 
L 274.374732 86.94268 
L 274.174353 87.909116 
L 273.959237 88.875553 
L 273.732693 89.841989 
L 273.498257 90.808425 
L 273.259619 91.774862 
L 273.020529 92.741298 
L 272.784715 93.707735 
L 272.555805 94.674171 
L 272.337247 95.640608 
L 272.132248 96.607044 
L 271.943717 97.57348 
L 271.774226 98.539917 
L 271.625982 99.506353 
L 271.500805 100.47279 
L 271.400127 101.439226 
L 271.324991 102.405663 
L 271.276059 103.372099 
L 271.253629 104.338535 
L 271.257641 105.304972 
L 271.287695 106.271408 
L 271.343057 107.237845 
L 271.422666 108.204281 
L 271.52513 109.170718 
L 271.648729 110.137154 
L 271.791402 111.10359 
L 271.950745 112.070027 
L 272.124004 113.036463 
L 272.308073 114.0029 
L 272.499507 114.969336 
L 272.694536 115.935773 
L 272.889101 116.902209 
L 273.078899 117.868646 
L 273.25945 118.835082 
L 273.426177 119.801518 
L 273.574499 120.767955 
L 273.69994 121.734391 
L 273.798245 122.700828 
L 273.865501 123.667264 
L 273.898254 124.633701 
L 273.893626 125.600137 
L 273.849414 126.566573 
L 273.764176 127.53301 
L 273.637291 128.499446 
L 273.468998 129.465883 
L 273.260405 130.432319 
L 273.013465 131.398756 
L 272.73093 132.365192 
L 272.416273 133.331628 
L 272.073586 134.298065 
L 271.70746 135.264501 
L 271.322848 136.230938 
L 270.924922 137.197374 
z
" clip-path="url(#p6ebc87107d)" style="fill: #0080ff; fill-opacity: 0.3"/>
   </g>
   <g id="PolyCollection_6">
    <path d="M 305.159638 142.625868 
L 295.316079 142.625868 
L 294.843766 141.604599 
L 294.3665 140.583329 
L 293.89011 139.562059 
L 293.420716 138.540789 
L 292.96456 137.51952 
L 292.527821 136.49825 
L 292.116426 135.47698 
L 291.735858 134.455711 
L 291.390984 133.434441 
L 291.085893 132.413171 
L 290.823771 131.391901 
L 290.606803 130.370632 
L 290.436119 129.349362 
L 290.31178 128.328092 
L 290.232801 127.306823 
L 290.197221 126.285553 
L 290.202197 125.264283 
L 290.244138 124.243013 
L 290.318847 123.221744 
L 290.421683 122.200474 
L 290.547728 121.179204 
L 290.691937 120.157935 
L 290.849293 119.136665 
L 291.014925 118.115395 
L 291.184218 117.094126 
L 291.352888 116.072856 
L 291.517038 115.051586 
L 291.673177 114.030316 
L 291.818231 113.009047 
L 291.949526 111.987777 
L 292.064756 110.966507 
L 292.16195 109.945238 
L 292.239425 108.923968 
L 292.295752 107.902698 
L 292.329722 106.881428 
L 292.340322 105.860159 
L 292.326726 104.838889 
L 292.288297 103.817619 
L 292.224607 102.79635 
L 292.135464 101.77508 
L 292.020955 100.75381 
L 291.881488 99.732541 
L 291.717845 98.711271 
L 291.531222 97.690001 
L 291.323276 96.668731 
L 291.096147 95.647462 
L 290.852473 94.626192 
L 290.595389 93.604922 
L 290.328496 92.583653 
L 290.055825 91.562383 
L 289.781762 90.541113 
L 289.510973 89.519843 
L 289.248297 88.498574 
L 288.998637 87.477304 
L 288.766834 86.456034 
L 288.557541 85.434765 
L 288.375091 84.413495 
L 288.223371 83.392225 
L 288.105705 82.370956 
L 288.024742 81.349686 
L 287.982368 80.328416 
L 287.979623 79.307146 
L 288.01665 78.285877 
L 288.092658 77.264607 
L 288.205911 76.243337 
L 288.353747 75.222068 
L 288.53261 74.200798 
L 288.738121 73.179528 
L 288.965169 72.158258 
L 289.208019 71.136989 
L 289.46045 70.115719 
L 289.715913 69.094449 
L 289.967694 68.07318 
L 290.209105 67.05191 
L 290.433669 66.03064 
L 290.635317 65.009371 
L 290.80858 63.988101 
L 290.948779 62.966831 
L 291.052198 61.945561 
L 291.116241 60.924292 
L 291.139569 59.903022 
L 291.122205 58.881752 
L 291.065606 57.860483 
L 290.972692 56.839213 
L 290.847833 55.817943 
L 290.696781 54.796673 
L 290.526557 53.775404 
L 290.345277 52.754134 
L 290.161927 51.732864 
L 289.98609 50.711595 
L 289.827633 49.690325 
L 289.696359 48.669055 
L 289.601645 47.647786 
L 289.552076 46.626516 
L 289.555093 45.605246 
L 289.616684 44.583976 
L 289.741114 43.562707 
L 289.930738 42.541437 
L 290.185885 41.520167 
L 310.289832 41.520167 
L 310.289832 41.520167 
L 310.544979 42.541437 
L 310.734603 43.562707 
L 310.859033 44.583976 
L 310.920624 45.605246 
L 310.923641 46.626516 
L 310.874072 47.647786 
L 310.779358 48.669055 
L 310.648084 49.690325 
L 310.489627 50.711595 
L 310.31379 51.732864 
L 310.13044 52.754134 
L 309.94916 53.775404 
L 309.778936 54.796673 
L 309.627884 55.817943 
L 309.503025 56.839213 
L 309.410111 57.860483 
L 309.353512 58.881752 
L 309.336148 59.903022 
L 309.359476 60.924292 
L 309.423519 61.945561 
L 309.526938 62.966831 
L 309.667137 63.988101 
L 309.8404 65.009371 
L 310.042048 66.03064 
L 310.266612 67.05191 
L 310.508023 68.07318 
L 310.759804 69.094449 
L 311.015267 70.115719 
L 311.267698 71.136989 
L 311.510548 72.158258 
L 311.737595 73.179528 
L 311.943107 74.200798 
L 312.12197 75.222068 
L 312.269806 76.243337 
L 312.383059 77.264607 
L 312.459067 78.285877 
L 312.496094 79.307146 
L 312.493349 80.328416 
L 312.450975 81.349686 
L 312.370012 82.370956 
L 312.252346 83.392225 
L 312.100626 84.413495 
L 311.918176 85.434765 
L 311.708883 86.456034 
L 311.47708 87.477304 
L 311.22742 88.498574 
L 310.964744 89.519843 
L 310.693955 90.541113 
L 310.419892 91.562383 
L 310.14722 92.583653 
L 309.880328 93.604922 
L 309.623244 94.626192 
L 309.37957 95.647462 
L 309.152441 96.668731 
L 308.944495 97.690001 
L 308.757872 98.711271 
L 308.594229 99.732541 
L 308.454762 100.75381 
L 308.340253 101.77508 
L 308.25111 102.79635 
L 308.18742 103.817619 
L 308.148991 104.838889 
L 308.135394 105.860159 
L 308.145995 106.881428 
L 308.179965 107.902698 
L 308.236292 108.923968 
L 308.313767 109.945238 
L 308.41096 110.966507 
L 308.526191 111.987777 
L 308.657486 113.009047 
L 308.80254 114.030316 
L 308.958679 115.051586 
L 309.122829 116.072856 
L 309.291499 117.094126 
L 309.460792 118.115395 
L 309.626424 119.136665 
L 309.783779 120.157935 
L 309.927989 121.179204 
L 310.054034 122.200474 
L 310.15687 123.221744 
L 310.231579 124.243013 
L 310.27352 125.264283 
L 310.278496 126.285553 
L 310.242916 127.306823 
L 310.163937 128.328092 
L 310.039598 129.349362 
L 309.868914 130.370632 
L 309.651946 131.391901 
L 309.389824 132.413171 
L 309.084733 133.434441 
L 308.739859 134.455711 
L 308.359291 135.47698 
L 307.947896 136.49825 
L 307.511157 137.51952 
L 307.055001 138.540789 
L 306.585607 139.562059 
L 306.109217 140.583329 
L 305.631951 141.604599 
L 305.159638 142.625868 
z
" clip-path="url(#p6ebc87107d)" style="fill: #ff8000; fill-opacity: 0.3"/>
   </g>
   <g id="matplotlib.axis_5">
    <g id="xtick_5">
     <g id="line2d_15">
      <g>
       <use xlink:href="#mae3f7f1ee9" x="265.214329" y="163.661283" style="stroke: #000000; stroke-width: 0.8"/>
      </g>
     </g>
     <g id="text_22">
      <!-- MSR -->
      <g transform="translate(244.543388 195.136016) rotate(-45) scale(0.12 -0.12)">
       <use xlink:href="#TimesNewRomanPS-BoldMT-4d"/>
       <use xlink:href="#TimesNewRomanPS-BoldMT-53" x="94.384766"/>
       <use xlink:href="#TimesNewRomanPS-BoldMT-52" x="150"/>
      </g>
     </g>
    </g>
    <g id="xtick_6">
     <g id="line2d_16">
      <g>
       <use xlink:href="#mae3f7f1ee9" x="300.237858" y="163.661283" style="stroke: #000000; stroke-width: 0.8"/>
      </g>
     </g>
     <g id="text_23">
      <!-- SBO -->
      <g transform="translate(281.444286 193.258647) rotate(-45) scale(0.12 -0.12)">
       <use xlink:href="#TimesNewRomanPS-BoldMT-53"/>
       <use xlink:href="#TimesNewRomanPS-BoldMT-42" x="55.615234"/>
       <use xlink:href="#TimesNewRomanPS-BoldMT-4f" x="122.314453"/>
      </g>
     </g>
    </g>
   </g>
   <g id="matplotlib.axis_6">
    <g id="ytick_11">
     <g id="line2d_17">
      <g>
       <use xlink:href="#m09c50dea57" x="249.979094" y="163.661283" style="stroke: #000000; stroke-width: 0.8"/>
      </g>
     </g>
     <g id="text_24">
      <!-- 0.00 -->
      <g transform="translate(221.979094 167.827533) scale(0.12 -0.12)">
       <use xlink:href="#TimesNewRomanPSMT-30"/>
       <use xlink:href="#TimesNewRomanPSMT-2e" x="50"/>
       <use xlink:href="#TimesNewRomanPSMT-30" x="75"/>
       <use xlink:href="#TimesNewRomanPSMT-30" x="125"/>
      </g>
     </g>
    </g>
    <g id="ytick_12">
     <g id="line2d_18">
      <g>
       <use xlink:href="#m09c50dea57" x="249.979094" y="133.126004" style="stroke: #000000; stroke-width: 0.8"/>
      </g>
     </g>
     <g id="text_25">
      <!-- 0.25 -->
      <g transform="translate(221.979094 137.292254) scale(0.12 -0.12)">
       <use xlink:href="#TimesNewRomanPSMT-30"/>
       <use xlink:href="#TimesNewRomanPSMT-2e" x="50"/>
       <use xlink:href="#TimesNewRomanPSMT-32" x="75"/>
       <use xlink:href="#TimesNewRomanPSMT-35" x="125"/>
      </g>
     </g>
    </g>
    <g id="ytick_13">
     <g id="line2d_19">
      <g>
       <use xlink:href="#m09c50dea57" x="249.979094" y="102.590725" style="stroke: #000000; stroke-width: 0.8"/>
      </g>
     </g>
     <g id="text_26">
      <!-- 0.50 -->
      <g transform="translate(221.979094 106.756975) scale(0.12 -0.12)">
       <use xlink:href="#TimesNewRomanPSMT-30"/>
       <use xlink:href="#TimesNewRomanPSMT-2e" x="50"/>
       <use xlink:href="#TimesNewRomanPSMT-35" x="75"/>
       <use xlink:href="#TimesNewRomanPSMT-30" x="125"/>
      </g>
     </g>
    </g>
    <g id="ytick_14">
     <g id="line2d_20">
      <g>
       <use xlink:href="#m09c50dea57" x="249.979094" y="72.055446" style="stroke: #000000; stroke-width: 0.8"/>
      </g>
     </g>
     <g id="text_27">
      <!-- 0.75 -->
      <g transform="translate(221.979094 76.221696) scale(0.12 -0.12)">
       <use xlink:href="#TimesNewRomanPSMT-30"/>
       <use xlink:href="#TimesNewRomanPSMT-2e" x="50"/>
       <use xlink:href="#TimesNewRomanPSMT-37" x="75"/>
       <use xlink:href="#TimesNewRomanPSMT-35" x="125"/>
      </g>
     </g>
    </g>
    <g id="ytick_15">
     <g id="line2d_21">
      <g>
       <use xlink:href="#m09c50dea57" x="249.979094" y="41.520167" style="stroke: #000000; stroke-width: 0.8"/>
      </g>
     </g>
     <g id="text_28">
      <!-- 1.00 -->
      <g transform="translate(221.979094 45.686417) scale(0.12 -0.12)">
       <use xlink:href="#TimesNewRomanPSMT-31"/>
       <use xlink:href="#TimesNewRomanPSMT-2e" x="50"/>
       <use xlink:href="#TimesNewRomanPSMT-30" x="75"/>
       <use xlink:href="#TimesNewRomanPSMT-30" x="125"/>
      </g>
     </g>
    </g>
   </g>
   <g id="LineCollection_11">
    <path d="M 259.085211 80.408157 
L 271.343447 80.408157 
" clip-path="url(#p6ebc87107d)" style="fill: none; stroke: #000000; stroke-width: 2"/>
    <path d="M 294.108741 85.955611 
L 306.366976 85.955611 
" clip-path="url(#p6ebc87107d)" style="fill: none; stroke: #000000; stroke-width: 2"/>
   </g>
   <g id="LineCollection_12">
    <path d="M 259.085211 41.520167 
L 271.343447 41.520167 
" clip-path="url(#p6ebc87107d)" style="fill: none; stroke: #1f77b4; stroke-width: 1.5"/>
    <path d="M 294.108741 41.520167 
L 306.366976 41.520167 
" clip-path="url(#p6ebc87107d)" style="fill: none; stroke: #1f77b4; stroke-width: 1.5"/>
   </g>
   <g id="LineCollection_13">
    <path d="M 259.085211 137.197374 
L 271.343447 137.197374 
" clip-path="url(#p6ebc87107d)" style="fill: none; stroke: #1f77b4; stroke-width: 1.5"/>
    <path d="M 294.108741 142.625868 
L 306.366976 142.625868 
" clip-path="url(#p6ebc87107d)" style="fill: none; stroke: #1f77b4; stroke-width: 1.5"/>
   </g>
   <g id="LineCollection_14">
    <path d="M 265.214329 137.197374 
L 265.214329 41.520167 
" clip-path="url(#p6ebc87107d)" style="fill: none; stroke: #1f77b4; stroke-width: 1.5"/>
    <path d="M 300.237858 142.625868 
L 300.237858 41.520167 
" clip-path="url(#p6ebc87107d)" style="fill: none; stroke: #1f77b4; stroke-width: 1.5"/>
   </g>
   <g id="LineCollection_15">
    <path d="M 259.085211 78.841064 
L 271.343447 78.841064 
" clip-path="url(#p6ebc87107d)" style="fill: none; stroke-dasharray: 2,3.3; stroke-dashoffset: 0; stroke: #808080; stroke-width: 2"/>
    <path d="M 294.108741 84.269558 
L 306.366976 84.269558 
" clip-path="url(#p6ebc87107d)" style="fill: none; stroke-dasharray: 2,3.3; stroke-dashoffset: 0; stroke: #808080; stroke-width: 2"/>
   </g>
   <g id="patch_13">
    <path d="M 249.979094 163.661283 
L 249.979094 23.199 
" style="fill: none; stroke: #000000; stroke-width: 0.8; stroke-linejoin: miter; stroke-linecap: square"/>
   </g>
   <g id="patch_14">
    <path d="M 315.473094 163.661283 
L 315.473094 23.199 
" style="fill: none; stroke: #000000; stroke-width: 0.8; stroke-linejoin: miter; stroke-linecap: square"/>
   </g>
   <g id="patch_15">
    <path d="M 249.979094 163.661283 
L 315.473094 163.661283 
" style="fill: none; stroke: #000000; stroke-width: 0.8; stroke-linejoin: miter; stroke-linecap: square"/>
   </g>
   <g id="patch_16">
    <path d="M 249.979094 23.199 
L 315.473094 23.199 
" style="fill: none; stroke: #000000; stroke-width: 0.8; stroke-linejoin: miter; stroke-linecap: square"/>
   </g>
   <g id="text_29">
    <!-- 265 -->
    <g transform="translate(257.714329 37.815455) scale(0.1 -0.1)">
     <use xlink:href="#TimesNewRomanPSMT-32"/>
     <use xlink:href="#TimesNewRomanPSMT-36" x="50"/>
     <use xlink:href="#TimesNewRomanPSMT-35" x="100"/>
    </g>
   </g>
   <g id="text_30">
    <!-- 295 -->
    <g transform="translate(292.737858 37.815455) scale(0.1 -0.1)">
     <use xlink:href="#TimesNewRomanPSMT-32"/>
     <use xlink:href="#TimesNewRomanPSMT-39" x="50"/>
     <use xlink:href="#TimesNewRomanPSMT-35" x="100"/>
    </g>
   </g>
   <g id="text_31">
    <!-- 5 Vessels -->
    <g transform="translate(256.253719 17.199) scale(0.144 -0.144)">
     <use xlink:href="#TimesNewRomanPSMT-35"/>
     <use xlink:href="#TimesNewRomanPSMT-20" x="50"/>
     <use xlink:href="#TimesNewRomanPSMT-56" x="73.25"/>
     <use xlink:href="#TimesNewRomanPSMT-65" x="134.341797"/>
     <use xlink:href="#TimesNewRomanPSMT-73" x="178.726562"/>
     <use xlink:href="#TimesNewRomanPSMT-73" x="217.642578"/>
     <use xlink:href="#TimesNewRomanPSMT-65" x="256.558594"/>
     <use xlink:href="#TimesNewRomanPSMT-6c" x="300.943359"/>
     <use xlink:href="#TimesNewRomanPSMT-73" x="328.726562"/>
    </g>
   </g>
  </g>
  <g id="axes_4">
   <g id="patch_17">
    <path d="M 350.373094 163.661283 
L 415.867094 163.661283 
L 415.867094 23.199 
L 350.373094 23.199 
z
" style="fill: #ffffff"/>
   </g>
   <g id="PolyCollection_7">
    <path d="M 368.135443 143.30443 
L 363.081215 143.30443 
L 362.768386 142.276306 
L 362.442831 141.248182 
L 362.108466 140.220058 
L 361.769742 139.191935 
L 361.431514 138.163811 
L 361.098896 137.135687 
L 360.777075 136.107563 
L 360.471129 135.079439 
L 360.185827 134.051315 
L 359.925447 133.023191 
L 359.693606 131.995067 
L 359.49312 130.966944 
L 359.325903 129.93882 
L 359.192909 128.910696 
L 359.094115 127.882572 
L 359.028558 126.854448 
L 358.994413 125.826324 
L 358.989101 124.7982 
L 359.009435 123.770077 
L 359.051778 122.741953 
L 359.11221 121.713829 
L 359.186692 120.685705 
L 359.271215 119.657581 
L 359.36193 118.629457 
L 359.455247 117.601333 
L 359.547907 116.573209 
L 359.637018 115.545086 
L 359.720063 114.516962 
L 359.79488 113.488838 
L 359.859622 112.460714 
L 359.9127 111.43259 
L 359.952721 110.404466 
L 359.978426 109.376342 
L 359.988633 108.348219 
L 359.982194 107.320095 
L 359.95797 106.291971 
L 359.914831 105.263847 
L 359.851669 104.235723 
L 359.767447 103.207599 
L 359.66126 102.179475 
L 359.532411 101.151351 
L 359.38051 100.123228 
L 359.205564 99.095104 
L 359.008075 98.06698 
L 358.789122 97.038856 
L 358.55043 96.010732 
L 358.294408 94.982608 
L 358.024161 93.954484 
L 357.743467 92.926361 
L 357.456718 91.898237 
L 357.168822 90.870113 
L 356.885078 89.841989 
L 356.61102 88.813865 
L 356.352243 87.785741 
L 356.114217 86.757617 
L 355.9021 85.729493 
L 355.72056 84.70137 
L 355.573614 83.673246 
L 355.464489 82.645122 
L 355.395516 81.616998 
L 355.368058 80.588874 
L 355.382471 79.56075 
L 355.438103 78.532626 
L 355.533313 77.504503 
L 355.665528 76.476379 
L 355.83131 75.448255 
L 356.026442 74.420131 
L 356.246014 73.392007 
L 356.484517 72.363883 
L 356.735937 71.335759 
L 356.993838 70.307636 
L 357.251454 69.279512 
L 357.501771 68.251388 
L 357.737624 67.223264 
L 357.951797 66.19514 
L 358.137144 65.167016 
L 358.286732 64.138892 
L 358.394013 63.110768 
L 358.453023 62.082645 
L 358.458613 61.054521 
L 358.406703 60.026397 
L 358.294553 58.998273 
L 358.121037 57.970149 
L 357.886893 56.942025 
L 357.594951 55.913901 
L 357.25029 54.885778 
L 356.860312 53.857654 
L 356.434727 52.82953 
L 355.985399 51.801406 
L 355.526082 50.773282 
L 355.072012 49.745158 
L 354.639393 48.717034 
L 354.244772 47.68891 
L 353.904351 46.660787 
L 353.633265 45.632663 
L 353.44487 44.604539 
L 353.350094 43.576415 
L 353.356886 42.548291 
L 353.46981 41.520167 
L 377.746848 41.520167 
L 377.746848 41.520167 
L 377.859772 42.548291 
L 377.866564 43.576415 
L 377.771788 44.604539 
L 377.583393 45.632663 
L 377.312307 46.660787 
L 376.971886 47.68891 
L 376.577266 48.717034 
L 376.144646 49.745158 
L 375.690577 50.773282 
L 375.231259 51.801406 
L 374.781931 52.82953 
L 374.356346 53.857654 
L 373.966368 54.885778 
L 373.621707 55.913901 
L 373.329765 56.942025 
L 373.095621 57.970149 
L 372.922105 58.998273 
L 372.809955 60.026397 
L 372.758045 61.054521 
L 372.763635 62.082645 
L 372.822645 63.110768 
L 372.929926 64.138892 
L 373.079514 65.167016 
L 373.264861 66.19514 
L 373.479034 67.223264 
L 373.714887 68.251388 
L 373.965204 69.279512 
L 374.22282 70.307636 
L 374.480721 71.335759 
L 374.732141 72.363883 
L 374.970644 73.392007 
L 375.190216 74.420131 
L 375.385348 75.448255 
L 375.55113 76.476379 
L 375.683345 77.504503 
L 375.778555 78.532626 
L 375.834187 79.56075 
L 375.8486 80.588874 
L 375.821142 81.616998 
L 375.752169 82.645122 
L 375.643044 83.673246 
L 375.496098 84.70137 
L 375.314558 85.729493 
L 375.102441 86.757617 
L 374.864415 87.785741 
L 374.605638 88.813865 
L 374.33158 89.841989 
L 374.047836 90.870113 
L 373.75994 91.898237 
L 373.473191 92.926361 
L 373.192497 93.954484 
L 372.92225 94.982608 
L 372.666228 96.010732 
L 372.427536 97.038856 
L 372.208583 98.06698 
L 372.011094 99.095104 
L 371.836148 100.123228 
L 371.684247 101.151351 
L 371.555399 102.179475 
L 371.449211 103.207599 
L 371.364989 104.235723 
L 371.301828 105.263847 
L 371.258688 106.291971 
L 371.234464 107.320095 
L 371.228025 108.348219 
L 371.238232 109.376342 
L 371.263937 110.404466 
L 371.303959 111.43259 
L 371.357036 112.460714 
L 371.421778 113.488838 
L 371.496595 114.516962 
L 371.57964 115.545086 
L 371.668751 116.573209 
L 371.761411 117.601333 
L 371.854728 118.629457 
L 371.945443 119.657581 
L 372.029966 120.685705 
L 372.104448 121.713829 
L 372.16488 122.741953 
L 372.207223 123.770077 
L 372.227557 124.7982 
L 372.222245 125.826324 
L 372.1881 126.854448 
L 372.122543 127.882572 
L 372.023749 128.910696 
L 371.890755 129.93882 
L 371.723538 130.966944 
L 371.523053 131.995067 
L 371.291211 133.023191 
L 371.030831 134.051315 
L 370.745529 135.079439 
L 370.439583 136.107563 
L 370.117762 137.135687 
L 369.785144 138.163811 
L 369.446916 139.191935 
L 369.108192 140.220058 
L 368.773827 141.248182 
L 368.448272 142.276306 
L 368.135443 143.30443 
z
" clip-path="url(#p5367f6986e)" style="fill: #0080ff; fill-opacity: 0.3"/>
   </g>
   <g id="PolyCollection_8">
    <path d="M 403.701623 140.590183 
L 397.562094 140.590183 
L 397.18893 139.589476 
L 396.80115 138.588769 
L 396.402941 137.588061 
L 395.99893 136.587354 
L 395.594044 135.586647 
L 395.193353 134.58594 
L 394.801911 133.585232 
L 394.424595 132.584525 
L 394.065953 131.583818 
L 393.730081 130.583111 
L 393.420516 129.582403 
L 393.140168 128.581696 
L 392.891278 127.580989 
L 392.675416 126.580282 
L 392.493496 125.579575 
L 392.345825 124.578867 
L 392.232166 123.57816 
L 392.151804 122.577453 
L 392.103625 121.576746 
L 392.086188 120.576038 
L 392.097783 119.575331 
L 392.136491 118.574624 
L 392.200221 117.573917 
L 392.28674 116.573209 
L 392.393692 115.572502 
L 392.51861 114.571795 
L 392.658923 113.571088 
L 392.811957 112.570381 
L 392.974949 111.569673 
L 393.145047 110.568966 
L 393.31933 109.568259 
L 393.494825 108.567552 
L 393.668531 107.566844 
L 393.837449 106.566137 
L 393.998618 105.56543 
L 394.149151 104.564723 
L 394.286271 103.564015 
L 394.407355 102.563308 
L 394.509969 101.562601 
L 394.591902 100.561894 
L 394.651202 99.561187 
L 394.686202 98.560479 
L 394.695537 97.559772 
L 394.678162 96.559065 
L 394.633361 95.558358 
L 394.560746 94.55765 
L 394.460259 93.556943 
L 394.332164 92.556236 
L 394.177039 91.555529 
L 393.995777 90.554822 
L 393.789581 89.554114 
L 393.559966 88.553407 
L 393.308774 87.5527 
L 393.038182 86.551993 
L 392.750722 85.551285 
L 392.449294 84.550578 
L 392.137178 83.549871 
L 391.818029 82.549164 
L 391.495861 81.548456 
L 391.175005 80.547749 
L 390.860037 79.547042 
L 390.555689 78.546335 
L 390.266716 77.545628 
L 389.997757 76.54492 
L 389.753156 75.544213 
L 389.536793 74.543506 
L 389.351899 73.542799 
L 389.200889 72.542091 
L 389.085211 71.541384 
L 389.005236 70.540677 
L 388.960173 69.53997 
L 388.948047 68.539262 
L 388.965718 67.538555 
L 389.008954 66.537848 
L 389.072558 65.537141 
L 389.150539 64.536434 
L 389.236334 63.535726 
L 389.323064 62.535019 
L 389.403817 61.534312 
L 389.471962 60.533605 
L 389.521466 59.532897 
L 389.547224 58.53219 
L 389.545364 57.531483 
L 389.513539 56.530776 
L 389.451168 55.530068 
L 389.359618 54.529361 
L 389.242314 53.528654 
L 389.104746 52.527947 
L 388.954379 51.52724 
L 388.800435 50.526532 
L 388.653576 49.525825 
L 388.525459 48.525118 
L 388.428215 47.524411 
L 388.373851 46.523703 
L 388.373623 45.522996 
L 388.437416 44.522289 
L 388.573169 43.521582 
L 388.786391 42.520875 
L 389.079804 41.520167 
L 412.183912 41.520167 
L 412.183912 41.520167 
L 412.477326 42.520875 
L 412.690548 43.521582 
L 412.826301 44.522289 
L 412.890094 45.522996 
L 412.889866 46.523703 
L 412.835502 47.524411 
L 412.738258 48.525118 
L 412.610141 49.525825 
L 412.463282 50.526532 
L 412.309338 51.52724 
L 412.158971 52.527947 
L 412.021403 53.528654 
L 411.904099 54.529361 
L 411.812549 55.530068 
L 411.750178 56.530776 
L 411.718353 57.531483 
L 411.716493 58.53219 
L 411.74225 59.532897 
L 411.791755 60.533605 
L 411.8599 61.534312 
L 411.940653 62.535019 
L 412.027383 63.535726 
L 412.113178 64.536434 
L 412.191159 65.537141 
L 412.254762 66.537848 
L 412.297999 67.538555 
L 412.31567 68.539262 
L 412.303544 69.53997 
L 412.258481 70.540677 
L 412.178506 71.541384 
L 412.062828 72.542091 
L 411.911818 73.542799 
L 411.726924 74.543506 
L 411.510561 75.544213 
L 411.26596 76.54492 
L 410.997001 77.545628 
L 410.708028 78.546335 
L 410.40368 79.547042 
L 410.088712 80.547749 
L 409.767856 81.548456 
L 409.445688 82.549164 
L 409.126539 83.549871 
L 408.814423 84.550578 
L 408.512995 85.551285 
L 408.225535 86.551993 
L 407.954943 87.5527 
L 407.703751 88.553407 
L 407.474136 89.554114 
L 407.26794 90.554822 
L 407.086678 91.555529 
L 406.931553 92.556236 
L 406.803458 93.556943 
L 406.702971 94.55765 
L 406.630356 95.558358 
L 406.585555 96.559065 
L 406.56818 97.559772 
L 406.577515 98.560479 
L 406.612515 99.561187 
L 406.671815 100.561894 
L 406.753748 101.562601 
L 406.856362 102.563308 
L 406.977446 103.564015 
L 407.114566 104.564723 
L 407.265099 105.56543 
L 407.426268 106.566137 
L 407.595186 107.566844 
L 407.768892 108.567552 
L 407.944386 109.568259 
L 408.11867 110.568966 
L 408.288768 111.569673 
L 408.451759 112.570381 
L 408.604794 113.571088 
L 408.745107 114.571795 
L 408.870025 115.572502 
L 408.976977 116.573209 
L 409.063496 117.573917 
L 409.127226 118.574624 
L 409.165934 119.575331 
L 409.177529 120.576038 
L 409.160092 121.576746 
L 409.111913 122.577453 
L 409.031551 123.57816 
L 408.917892 124.578867 
L 408.770221 125.579575 
L 408.588301 126.580282 
L 408.372439 127.580989 
L 408.123549 128.581696 
L 407.843201 129.582403 
L 407.533636 130.583111 
L 407.197764 131.583818 
L 406.839122 132.584525 
L 406.461806 133.585232 
L 406.070364 134.58594 
L 405.669673 135.586647 
L 405.264787 136.587354 
L 404.860776 137.588061 
L 404.462567 138.588769 
L 404.074787 139.589476 
L 403.701623 140.590183 
z
" clip-path="url(#p5367f6986e)" style="fill: #ff8000; fill-opacity: 0.3"/>
   </g>
   <g id="matplotlib.axis_7">
    <g id="xtick_7">
     <g id="line2d_22">
      <g>
       <use xlink:href="#mae3f7f1ee9" x="365.608329" y="163.661283" style="stroke: #000000; stroke-width: 0.8"/>
      </g>
     </g>
     <g id="text_32">
      <!-- MSR -->
      <g transform="translate(344.937388 195.136016) rotate(-45) scale(0.12 -0.12)">
       <use xlink:href="#TimesNewRomanPS-BoldMT-4d"/>
       <use xlink:href="#TimesNewRomanPS-BoldMT-53" x="94.384766"/>
       <use xlink:href="#TimesNewRomanPS-BoldMT-52" x="150"/>
      </g>
     </g>
    </g>
    <g id="xtick_8">
     <g id="line2d_23">
      <g>
       <use xlink:href="#mae3f7f1ee9" x="400.631858" y="163.661283" style="stroke: #000000; stroke-width: 0.8"/>
      </g>
     </g>
     <g id="text_33">
      <!-- SBO -->
      <g transform="translate(381.838286 193.258647) rotate(-45) scale(0.12 -0.12)">
       <use xlink:href="#TimesNewRomanPS-BoldMT-53"/>
       <use xlink:href="#TimesNewRomanPS-BoldMT-42" x="55.615234"/>
       <use xlink:href="#TimesNewRomanPS-BoldMT-4f" x="122.314453"/>
      </g>
     </g>
    </g>
   </g>
   <g id="matplotlib.axis_8">
    <g id="ytick_16">
     <g id="line2d_24">
      <g>
       <use xlink:href="#m09c50dea57" x="350.373094" y="163.661283" style="stroke: #000000; stroke-width: 0.8"/>
      </g>
     </g>
     <g id="text_34">
      <!-- 0.00 -->
      <g transform="translate(322.373094 167.827533) scale(0.12 -0.12)">
       <use xlink:href="#TimesNewRomanPSMT-30"/>
       <use xlink:href="#TimesNewRomanPSMT-2e" x="50"/>
       <use xlink:href="#TimesNewRomanPSMT-30" x="75"/>
       <use xlink:href="#TimesNewRomanPSMT-30" x="125"/>
      </g>
     </g>
    </g>
    <g id="ytick_17">
     <g id="line2d_25">
      <g>
       <use xlink:href="#m09c50dea57" x="350.373094" y="133.126004" style="stroke: #000000; stroke-width: 0.8"/>
      </g>
     </g>
     <g id="text_35">
      <!-- 0.25 -->
      <g transform="translate(322.373094 137.292254) scale(0.12 -0.12)">
       <use xlink:href="#TimesNewRomanPSMT-30"/>
       <use xlink:href="#TimesNewRomanPSMT-2e" x="50"/>
       <use xlink:href="#TimesNewRomanPSMT-32" x="75"/>
       <use xlink:href="#TimesNewRomanPSMT-35" x="125"/>
      </g>
     </g>
    </g>
    <g id="ytick_18">
     <g id="line2d_26">
      <g>
       <use xlink:href="#m09c50dea57" x="350.373094" y="102.590725" style="stroke: #000000; stroke-width: 0.8"/>
      </g>
     </g>
     <g id="text_36">
      <!-- 0.50 -->
      <g transform="translate(322.373094 106.756975) scale(0.12 -0.12)">
       <use xlink:href="#TimesNewRomanPSMT-30"/>
       <use xlink:href="#TimesNewRomanPSMT-2e" x="50"/>
       <use xlink:href="#TimesNewRomanPSMT-35" x="75"/>
       <use xlink:href="#TimesNewRomanPSMT-30" x="125"/>
      </g>
     </g>
    </g>
    <g id="ytick_19">
     <g id="line2d_27">
      <g>
       <use xlink:href="#m09c50dea57" x="350.373094" y="72.055446" style="stroke: #000000; stroke-width: 0.8"/>
      </g>
     </g>
     <g id="text_37">
      <!-- 0.75 -->
      <g transform="translate(322.373094 76.221696) scale(0.12 -0.12)">
       <use xlink:href="#TimesNewRomanPSMT-30"/>
       <use xlink:href="#TimesNewRomanPSMT-2e" x="50"/>
       <use xlink:href="#TimesNewRomanPSMT-37" x="75"/>
       <use xlink:href="#TimesNewRomanPSMT-35" x="125"/>
      </g>
     </g>
    </g>
    <g id="ytick_20">
     <g id="line2d_28">
      <g>
       <use xlink:href="#m09c50dea57" x="350.373094" y="41.520167" style="stroke: #000000; stroke-width: 0.8"/>
      </g>
     </g>
     <g id="text_38">
      <!-- 1.00 -->
      <g transform="translate(322.373094 45.686417) scale(0.12 -0.12)">
       <use xlink:href="#TimesNewRomanPSMT-31"/>
       <use xlink:href="#TimesNewRomanPSMT-2e" x="50"/>
       <use xlink:href="#TimesNewRomanPSMT-30" x="75"/>
       <use xlink:href="#TimesNewRomanPSMT-30" x="125"/>
      </g>
     </g>
    </g>
   </g>
   <g id="LineCollection_16">
    <path d="M 359.479211 78.714321 
L 371.737447 78.714321 
" clip-path="url(#p5367f6986e)" style="fill: none; stroke: #000000; stroke-width: 2"/>
    <path d="M 394.502741 79.530092 
L 406.760976 79.530092 
" clip-path="url(#p5367f6986e)" style="fill: none; stroke: #000000; stroke-width: 2"/>
   </g>
   <g id="LineCollection_17">
    <path d="M 359.479211 41.520167 
L 371.737447 41.520167 
" clip-path="url(#p5367f6986e)" style="fill: none; stroke: #1f77b4; stroke-width: 1.5"/>
    <path d="M 394.502741 41.520167 
L 406.760976 41.520167 
" clip-path="url(#p5367f6986e)" style="fill: none; stroke: #1f77b4; stroke-width: 1.5"/>
   </g>
   <g id="LineCollection_18">
    <path d="M 359.479211 143.30443 
L 371.737447 143.30443 
" clip-path="url(#p5367f6986e)" style="fill: none; stroke: #1f77b4; stroke-width: 1.5"/>
    <path d="M 394.502741 140.590183 
L 406.760976 140.590183 
" clip-path="url(#p5367f6986e)" style="fill: none; stroke: #1f77b4; stroke-width: 1.5"/>
   </g>
   <g id="LineCollection_19">
    <path d="M 365.608329 143.30443 
L 365.608329 41.520167 
" clip-path="url(#p5367f6986e)" style="fill: none; stroke: #1f77b4; stroke-width: 1.5"/>
    <path d="M 400.631858 140.590183 
L 400.631858 41.520167 
" clip-path="url(#p5367f6986e)" style="fill: none; stroke: #1f77b4; stroke-width: 1.5"/>
   </g>
   <g id="LineCollection_20">
    <path d="M 359.479211 77.48394 
L 371.737447 77.48394 
" clip-path="url(#p5367f6986e)" style="fill: none; stroke-dasharray: 2,3.3; stroke-dashoffset: 0; stroke: #808080; stroke-width: 2"/>
    <path d="M 394.502741 72.734008 
L 406.760976 72.734008 
" clip-path="url(#p5367f6986e)" style="fill: none; stroke-dasharray: 2,3.3; stroke-dashoffset: 0; stroke: #808080; stroke-width: 2"/>
   </g>
   <g id="patch_18">
    <path d="M 350.373094 163.661283 
L 350.373094 23.199 
" style="fill: none; stroke: #000000; stroke-width: 0.8; stroke-linejoin: miter; stroke-linecap: square"/>
   </g>
   <g id="patch_19">
    <path d="M 415.867094 163.661283 
L 415.867094 23.199 
" style="fill: none; stroke: #000000; stroke-width: 0.8; stroke-linejoin: miter; stroke-linecap: square"/>
   </g>
   <g id="patch_20">
    <path d="M 350.373094 163.661283 
L 415.867094 163.661283 
" style="fill: none; stroke: #000000; stroke-width: 0.8; stroke-linejoin: miter; stroke-linecap: square"/>
   </g>
   <g id="patch_21">
    <path d="M 350.373094 23.199 
L 415.867094 23.199 
" style="fill: none; stroke: #000000; stroke-width: 0.8; stroke-linejoin: miter; stroke-linecap: square"/>
   </g>
   <g id="text_39">
    <!-- 348 -->
    <g transform="translate(358.108329 37.815455) scale(0.1 -0.1)">
     <use xlink:href="#TimesNewRomanPSMT-33"/>
     <use xlink:href="#TimesNewRomanPSMT-34" x="50"/>
     <use xlink:href="#TimesNewRomanPSMT-38" x="100"/>
    </g>
   </g>
   <g id="text_40">
    <!-- 389 -->
    <g transform="translate(393.131858 37.815455) scale(0.1 -0.1)">
     <use xlink:href="#TimesNewRomanPSMT-33"/>
     <use xlink:href="#TimesNewRomanPSMT-38" x="50"/>
     <use xlink:href="#TimesNewRomanPSMT-39" x="100"/>
    </g>
   </g>
   <g id="text_41">
    <!-- 6 Vessels -->
    <g transform="translate(356.647719 17.199) scale(0.144 -0.144)">
     <use xlink:href="#TimesNewRomanPSMT-36"/>
     <use xlink:href="#TimesNewRomanPSMT-20" x="50"/>
     <use xlink:href="#TimesNewRomanPSMT-56" x="73.25"/>
     <use xlink:href="#TimesNewRomanPSMT-65" x="134.341797"/>
     <use xlink:href="#TimesNewRomanPSMT-73" x="178.726562"/>
     <use xlink:href="#TimesNewRomanPSMT-73" x="217.642578"/>
     <use xlink:href="#TimesNewRomanPSMT-65" x="256.558594"/>
     <use xlink:href="#TimesNewRomanPSMT-6c" x="300.943359"/>
     <use xlink:href="#TimesNewRomanPSMT-73" x="328.726562"/>
    </g>
   </g>
  </g>
 </g>
 <defs>
  <clipPath id="pdff9d1241d">
   <rect x="49.191094" y="23.199" width="65.494" height="140.462283"/>
  </clipPath>
  <clipPath id="pf76e0958fc">
   <rect x="149.585094" y="23.199" width="65.494" height="140.462283"/>
  </clipPath>
  <clipPath id="p6ebc87107d">
   <rect x="249.979094" y="23.199" width="65.494" height="140.462283"/>
  </clipPath>
  <clipPath id="p5367f6986e">
   <rect x="350.373094" y="23.199" width="65.494" height="140.462283"/>
  </clipPath>
 </defs>
</svg>
