<?xml version="1.0" encoding="utf-8" standalone="no"?>
<!DOCTYPE svg PUBLIC "-//W3C//DTD SVG 1.1//EN"
  "http://www.w3.org/Graphics/SVG/1.1/DTD/svg11.dtd">
<svg xmlns:xlink="http://www.w3.org/1999/xlink" width="420.181094pt" height="204.112125pt" viewBox="0 0 420.181094 204.112125" xmlns="http://www.w3.org/2000/svg" version="1.1">
 <metadata>
  <rdf:RDF xmlns:dc="http://purl.org/dc/elements/1.1/" xmlns:cc="http://creativecommons.org/ns#" xmlns:rdf="http://www.w3.org/1999/02/22-rdf-syntax-ns#">
   <cc:Work>
    <dc:type rdf:resource="http://purl.org/dc/dcmitype/StillImage"/>
    <dc:date>2024-10-28T09:09:25.927782</dc:date>
    <dc:format>image/svg+xml</dc:format>
    <dc:creator>
     <cc:Agent>
      <dc:title>Matplotlib v3.9.0, https://matplotlib.org/</dc:title>
     </cc:Agent>
    </dc:creator>
   </cc:Work>
  </rdf:RDF>
 </metadata>
 <defs>
  <style type="text/css">*{stroke-linejoin: round; stroke-linecap: butt}</style>
 </defs>
 <g id="figure_1">
  <g id="patch_1">
   <path d="M 0 204.112125 
L 420.181094 204.112125 
L 420.181094 0 
L 0 0 
z
" style="fill: #ffffff"/>
  </g>
  <g id="axes_1">
   <g id="patch_2">
    <path d="M 52.191094 179.399 
L 123.241269 179.399 
L 123.241269 23.199 
L 52.191094 23.199 
z
" style="fill: #ffffff"/>
   </g>
   <g id="PolyCollection_1">
    <path d="M 78.779598 163.327845 
L 58.658019 163.327845 
L 56.838875 153.045572 
L 55.692505 142.763299 
L 55.420647 132.481026 
L 56.036685 122.198753 
L 57.370997 111.91648 
L 59.138542 101.634207 
L 61.033147 91.351933 
L 62.806931 81.06966 
L 64.3098 70.787387 
L 65.488266 60.505114 
L 66.359271 50.222841 
L 66.977537 39.940568 
L 67.408652 29.658295 
L 67.712145 19.376022 
L 67.933726 9.093749 
L 68.104048 -1.188524 
L 68.241182 -11.470797 
L 68.35445 -21.75307 
L 68.447995 -32.035343 
L 68.523365 -42.317616 
L 68.581136 -52.599889 
L 68.621943 -62.882162 
L 68.647155 -73.164436 
L 68.659252 -83.446709 
L 68.661782 -93.728982 
L 68.658872 -104.011255 
L 68.654376 -114.293528 
L 68.650989 -124.575801 
L 68.649709 -134.858074 
L 68.649971 -145.140347 
L 68.65044 -155.42262 
L 68.650048 -165.704893 
L 68.648689 -175.987166 
L 68.647179 -186.269439 
L 68.646554 -196.551712 
L 68.647259 -206.833985 
L 68.648798 -217.116258 
L 68.65013 -227.398531 
L 68.650503 -237.680805 
L 68.650149 -247.963078 
L 68.650323 -258.245351 
L 68.65266 -268.527624 
L 68.65826 -278.809897 
L 68.667076 -289.09217 
L 68.677935 -299.374443 
L 68.689108 -309.656716 
L 68.699018 -319.938989 
L 68.706736 -330.221262 
L 68.712071 -340.503535 
L 68.715368 -350.785808 
L 68.71719 -361.068081 
L 68.718075 -371.350354 
L 68.718392 -381.632627 
L 68.718308 -391.9149 
L 68.717775 -402.197174 
L 68.716534 -412.479447 
L 68.714122 -422.76172 
L 68.709944 -433.043993 
L 68.703436 -443.326266 
L 68.69434 -453.608539 
L 68.682969 -463.890812 
L 68.670317 -474.173085 
L 68.65786 -484.455358 
L 68.647095 -494.737631 
L 68.639053 -505.019904 
L 68.634098 -515.302177 
L 68.632132 -525.58445 
L 68.63301 -535.866723 
L 68.636807 -546.148996 
L 68.643685 -556.431269 
L 68.653501 -566.713543 
L 68.665475 -576.995816 
L 68.678235 -587.278089 
L 68.69023 -597.560362 
L 68.700222 -607.842635 
L 68.70759 -618.124908 
L 68.712297 -628.407181 
L 68.714623 -638.689454 
L 68.714834 -648.971727 
L 68.712972 -659.254 
L 68.708843 -669.536273 
L 68.702232 -679.818546 
L 68.693254 -690.100819 
L 68.682704 -700.383092 
L 68.672164 -710.665365 
L 68.663721 -720.947638 
L 68.659319 -731.229912 
L 68.659996 -741.512185 
L 68.665398 -751.794458 
L 68.673833 -762.076731 
L 68.682807 -772.359004 
L 68.689795 -782.641277 
L 68.692919 -792.92355 
L 68.691364 -803.205823 
L 68.685532 -813.488096 
L 68.676974 -823.770369 
L 68.668056 -834.052642 
L 68.661372 -844.334915 
L 68.658966 -854.617188 
L 68.77865 -854.617188 
L 68.77865 -854.617188 
L 68.776245 -844.334915 
L 68.76956 -834.052642 
L 68.760643 -823.770369 
L 68.752084 -813.488096 
L 68.746253 -803.205823 
L 68.744697 -792.92355 
L 68.747821 -782.641277 
L 68.75481 -772.359004 
L 68.763783 -762.076731 
L 68.772218 -751.794458 
L 68.777621 -741.512185 
L 68.778297 -731.229912 
L 68.773895 -720.947638 
L 68.765453 -710.665365 
L 68.754912 -700.383092 
L 68.744362 -690.100819 
L 68.735385 -679.818546 
L 68.728774 -669.536273 
L 68.724645 -659.254 
L 68.722782 -648.971727 
L 68.722993 -638.689454 
L 68.725319 -628.407181 
L 68.730027 -618.124908 
L 68.737395 -607.842635 
L 68.747387 -597.560362 
L 68.759381 -587.278089 
L 68.772142 -576.995816 
L 68.784115 -566.713543 
L 68.793931 -556.431269 
L 68.80081 -546.148996 
L 68.804606 -535.866723 
L 68.805485 -525.58445 
L 68.803518 -515.302177 
L 68.798564 -505.019904 
L 68.790522 -494.737631 
L 68.779757 -484.455358 
L 68.7673 -474.173085 
L 68.754648 -463.890812 
L 68.743277 -453.608539 
L 68.73418 -443.326266 
L 68.727673 -433.043993 
L 68.723494 -422.76172 
L 68.721083 -412.479447 
L 68.719841 -402.197174 
L 68.719308 -391.9149 
L 68.719224 -381.632627 
L 68.719542 -371.350354 
L 68.720426 -361.068081 
L 68.722249 -350.785808 
L 68.725545 -340.503535 
L 68.730881 -330.221262 
L 68.738598 -319.938989 
L 68.748509 -309.656716 
L 68.759681 -299.374443 
L 68.770541 -289.09217 
L 68.779356 -278.809897 
L 68.784956 -268.527624 
L 68.787293 -258.245351 
L 68.787468 -247.963078 
L 68.787113 -237.680805 
L 68.787486 -227.398531 
L 68.788818 -217.116258 
L 68.790358 -206.833985 
L 68.791062 -196.551712 
L 68.790438 -186.269439 
L 68.788927 -175.987166 
L 68.787569 -165.704893 
L 68.787177 -155.42262 
L 68.787645 -145.140347 
L 68.787907 -134.858074 
L 68.786627 -124.575801 
L 68.783241 -114.293528 
L 68.778745 -104.011255 
L 68.775834 -93.728982 
L 68.778365 -83.446709 
L 68.790462 -73.164436 
L 68.815674 -62.882162 
L 68.85648 -52.599889 
L 68.914251 -42.317616 
L 68.989621 -32.035343 
L 69.083167 -21.75307 
L 69.196435 -11.470797 
L 69.333569 -1.188524 
L 69.50389 9.093749 
L 69.725471 19.376022 
L 70.028965 29.658295 
L 70.46008 39.940568 
L 71.078345 50.222841 
L 71.94935 60.505114 
L 73.127816 70.787387 
L 74.630685 81.06966 
L 76.40447 91.351933 
L 78.299075 101.634207 
L 80.066619 111.91648 
L 81.400932 122.198753 
L 82.016969 132.481026 
L 81.745111 142.763299 
L 80.598741 153.045572 
L 78.779598 163.327845 
z
" clip-path="url(#p293e83045e)" style="fill: #0080ff; fill-opacity: 0.3"/>
   </g>
   <g id="PolyCollection_2">
    <path d="M 114.131497 166.656037 
L 99.295611 166.656037 
L 96.164727 155.876973 
L 93.940387 145.097908 
L 93.415393 134.318844 
L 94.648645 123.539779 
L 97.000573 112.760715 
L 99.613641 101.981651 
L 101.872247 91.202586 
L 103.543415 80.423522 
L 104.666348 69.644457 
L 105.387069 58.865393 
L 105.845753 48.086329 
L 106.134859 37.307264 
L 106.309913 26.5282 
L 106.414163 15.749135 
L 106.483775 4.970071 
L 106.53739 -5.808993 
L 106.575337 -16.588058 
L 106.594051 -27.367122 
L 106.597927 -38.146187 
L 106.597319 -48.925251 
L 106.599892 -59.704316 
L 106.606323 -70.48338 
L 106.612974 -81.262444 
L 106.617138 -92.041509 
L 106.61915 -102.820573 
L 106.620285 -113.599638 
L 106.620912 -124.378702 
L 106.62136 -135.157766 
L 106.622411 -145.936831 
L 106.624417 -156.715895 
L 106.628024 -167.49496 
L 106.635681 -178.274024 
L 106.649726 -189.053089 
L 106.668642 -199.832153 
L 106.687246 -210.611217 
L 106.700937 -221.390282 
L 106.70864 -232.169346 
L 106.712006 -242.948411 
L 106.71316 -253.727475 
L 106.713473 -264.506539 
L 106.713541 -275.285604 
L 106.713552 -286.064668 
L 106.713554 -296.843733 
L 106.713554 -307.622797 
L 106.713554 -318.401861 
L 106.713554 -329.180926 
L 106.713554 -339.95999 
L 106.713554 -350.739055 
L 106.713554 -361.518119 
L 106.713554 -372.297184 
L 106.713554 -383.076248 
L 106.713554 -393.855312 
L 106.713554 -404.634377 
L 106.713554 -415.413441 
L 106.713554 -426.192506 
L 106.713554 -436.97157 
L 106.713554 -447.750634 
L 106.713554 -458.529699 
L 106.713554 -469.308763 
L 106.713554 -480.087828 
L 106.713554 -490.866892 
L 106.713554 -501.645957 
L 106.713554 -512.425021 
L 106.713554 -523.204085 
L 106.713554 -533.98315 
L 106.713554 -544.762214 
L 106.713554 -555.541279 
L 106.713554 -566.320343 
L 106.713554 -577.099407 
L 106.713554 -587.878472 
L 106.713554 -598.657536 
L 106.713554 -609.436601 
L 106.713554 -620.215665 
L 106.713554 -630.994729 
L 106.713554 -641.773794 
L 106.713554 -652.552858 
L 106.713554 -663.331923 
L 106.713554 -674.110987 
L 106.713554 -684.890052 
L 106.713554 -695.669116 
L 106.713554 -706.44818 
L 106.713554 -717.227245 
L 106.713554 -728.006309 
L 106.713554 -738.785374 
L 106.713554 -749.564438 
L 106.713554 -760.343502 
L 106.713554 -771.122567 
L 106.713554 -781.901631 
L 106.713553 -792.680696 
L 106.713544 -803.45976 
L 106.713491 -814.238825 
L 106.713238 -825.017889 
L 106.712274 -835.796953 
L 106.709372 -846.576018 
L 106.702536 -857.355082 
L 106.690147 -868.134147 
L 106.67346 -878.913211 
L 106.658179 -889.692275 
L 106.651886 -900.47134 
L 106.775223 -900.47134 
L 106.775223 -900.47134 
L 106.76893 -889.692275 
L 106.753648 -878.913211 
L 106.736961 -868.134147 
L 106.724573 -857.355082 
L 106.717736 -846.576018 
L 106.714834 -835.796953 
L 106.71387 -825.017889 
L 106.713617 -814.238825 
L 106.713564 -803.45976 
L 106.713556 -792.680696 
L 106.713554 -781.901631 
L 106.713554 -771.122567 
L 106.713554 -760.343502 
L 106.713554 -749.564438 
L 106.713554 -738.785374 
L 106.713554 -728.006309 
L 106.713554 -717.227245 
L 106.713554 -706.44818 
L 106.713554 -695.669116 
L 106.713554 -684.890052 
L 106.713554 -674.110987 
L 106.713554 -663.331923 
L 106.713554 -652.552858 
L 106.713554 -641.773794 
L 106.713554 -630.994729 
L 106.713554 -620.215665 
L 106.713554 -609.436601 
L 106.713554 -598.657536 
L 106.713554 -587.878472 
L 106.713554 -577.099407 
L 106.713554 -566.320343 
L 106.713554 -555.541279 
L 106.713554 -544.762214 
L 106.713554 -533.98315 
L 106.713554 -523.204085 
L 106.713554 -512.425021 
L 106.713554 -501.645957 
L 106.713554 -490.866892 
L 106.713554 -480.087828 
L 106.713554 -469.308763 
L 106.713554 -458.529699 
L 106.713554 -447.750634 
L 106.713554 -436.97157 
L 106.713554 -426.192506 
L 106.713554 -415.413441 
L 106.713554 -404.634377 
L 106.713554 -393.855312 
L 106.713554 -383.076248 
L 106.713554 -372.297184 
L 106.713554 -361.518119 
L 106.713554 -350.739055 
L 106.713554 -339.95999 
L 106.713554 -329.180926 
L 106.713554 -318.401861 
L 106.713554 -307.622797 
L 106.713554 -296.843733 
L 106.713556 -286.064668 
L 106.713568 -275.285604 
L 106.713635 -264.506539 
L 106.713948 -253.727475 
L 106.715102 -242.948411 
L 106.718468 -232.169346 
L 106.726172 -221.390282 
L 106.739863 -210.611217 
L 106.758467 -199.832153 
L 106.777382 -189.053089 
L 106.791428 -178.274024 
L 106.799085 -167.49496 
L 106.802691 -156.715895 
L 106.804697 -145.936831 
L 106.805749 -135.157766 
L 106.806196 -124.378702 
L 106.806824 -113.599638 
L 106.807958 -102.820573 
L 106.809971 -92.041509 
L 106.814134 -81.262444 
L 106.820785 -70.48338 
L 106.827216 -59.704316 
L 106.82979 -48.925251 
L 106.829182 -38.146187 
L 106.833058 -27.367122 
L 106.851771 -16.588058 
L 106.889719 -5.808993 
L 106.943334 4.970071 
L 107.012946 15.749135 
L 107.117195 26.5282 
L 107.292249 37.307264 
L 107.581355 48.086329 
L 108.04004 58.865393 
L 108.760761 69.644457 
L 109.883694 80.423522 
L 111.554862 91.202586 
L 113.813467 101.981651 
L 116.426536 112.760715 
L 118.778463 123.539779 
L 120.011715 134.318844 
L 119.486722 145.097908 
L 117.262381 155.876973 
L 114.131497 166.656037 
z
" clip-path="url(#p293e83045e)" style="fill: #ff8000; fill-opacity: 0.3"/>
   </g>
   <g id="matplotlib.axis_1">
    <g id="xtick_1">
     <g id="line2d_1">
      <defs>
       <path id="mb95cf6f71c" d="M 0 0 
L 0 3.5 
" style="stroke: #000000; stroke-width: 0.8"/>
      </defs>
      <g>
       <use xlink:href="#mb95cf6f71c" x="68.718808" y="179.399" style="stroke: #000000; stroke-width: 0.8"/>
      </g>
     </g>
     <g id="text_1">
      <!-- MSR -->
      <g transform="translate(42.052558 194.34525) scale(0.12 -0.12)">
       <defs>
        <path id="TimesNewRomanPS-BoldMT-4d" d="M 3050 1444 
L 4200 4238 
L 5925 4238 
L 5925 4122 
L 5788 4122 
Q 5600 4122 5488 4056 
Q 5409 4013 5363 3909 
Q 5328 3834 5328 3519 
L 5328 725 
Q 5328 400 5362 319 
Q 5397 238 5503 177 
Q 5609 116 5788 116 
L 5925 116 
L 5925 0 
L 3713 0 
L 3713 116 
L 3850 116 
Q 4038 116 4150 181 
Q 4228 225 4275 331 
Q 4309 406 4309 725 
L 4309 3866 
L 2684 0 
L 2609 0 
L 959 3838 
L 959 853 
Q 959 541 975 469 
Q 1016 313 1152 214 
Q 1288 116 1578 116 
L 1578 0 
L 128 0 
L 128 116 
L 172 116 
Q 313 113 434 161 
Q 556 209 618 290 
Q 681 372 716 519 
Q 722 553 722 838 
L 722 3519 
Q 722 3841 687 3920 
Q 653 4000 547 4061 
Q 441 4122 263 4122 
L 128 4122 
L 128 4238 
L 1859 4238 
L 3050 1444 
z
" transform="scale(0.015625)"/>
        <path id="TimesNewRomanPS-BoldMT-53" d="M 3006 4334 
L 3041 2922 
L 2913 2922 
Q 2822 3453 2467 3776 
Q 2113 4100 1700 4100 
Q 1381 4100 1195 3929 
Q 1009 3759 1009 3538 
Q 1009 3397 1075 3288 
Q 1166 3141 1366 2997 
Q 1513 2894 2044 2631 
Q 2788 2266 3047 1941 
Q 3303 1616 3303 1197 
Q 3303 666 2889 283 
Q 2475 -100 1838 -100 
Q 1638 -100 1459 -59 
Q 1281 -19 1013 94 
Q 863 156 766 156 
Q 684 156 593 93 
Q 503 31 447 -97 
L 331 -97 
L 331 1503 
L 447 1503 
Q 584 828 976 473 
Q 1369 119 1822 119 
Q 2172 119 2380 309 
Q 2588 500 2588 753 
Q 2588 903 2508 1043 
Q 2428 1184 2265 1311 
Q 2103 1438 1691 1641 
Q 1113 1925 859 2125 
Q 606 2325 470 2572 
Q 334 2819 334 3116 
Q 334 3622 706 3978 
Q 1078 4334 1644 4334 
Q 1850 4334 2044 4284 
Q 2191 4247 2402 4145 
Q 2613 4044 2697 4044 
Q 2778 4044 2825 4094 
Q 2872 4144 2913 4334 
L 3006 4334 
z
" transform="scale(0.015625)"/>
        <path id="TimesNewRomanPS-BoldMT-52" d="M 1700 1931 
L 1700 744 
Q 1700 400 1742 311 
Q 1784 222 1890 169 
Q 1997 116 2288 116 
L 2288 0 
L 119 0 
L 119 116 
Q 413 116 517 170 
Q 622 225 664 312 
Q 706 400 706 744 
L 706 3494 
Q 706 3838 664 3927 
Q 622 4016 515 4069 
Q 409 4122 119 4122 
L 119 4238 
L 2088 4238 
Q 2856 4238 3212 4131 
Q 3569 4025 3794 3739 
Q 4019 3453 4019 3069 
Q 4019 2600 3681 2294 
Q 3466 2100 3078 2003 
L 4097 569 
Q 4297 291 4381 222 
Q 4509 125 4678 116 
L 4678 0 
L 3344 0 
L 1978 1931 
L 1700 1931 
z
M 1700 4009 
L 1700 2153 
L 1878 2153 
Q 2313 2153 2528 2233 
Q 2744 2313 2867 2520 
Q 2991 2728 2991 3063 
Q 2991 3547 2764 3778 
Q 2538 4009 2034 4009 
L 1700 4009 
z
" transform="scale(0.015625)"/>
       </defs>
       <use xlink:href="#TimesNewRomanPS-BoldMT-4d"/>
       <use xlink:href="#TimesNewRomanPS-BoldMT-53" x="94.384766"/>
       <use xlink:href="#TimesNewRomanPS-BoldMT-52" x="150"/>
      </g>
     </g>
    </g>
    <g id="xtick_2">
     <g id="line2d_2">
      <g>
       <use xlink:href="#mb95cf6f71c" x="106.713554" y="179.399" style="stroke: #000000; stroke-width: 0.8"/>
      </g>
     </g>
     <g id="text_2">
      <!-- SBO -->
      <g transform="translate(82.702304 194.34525) scale(0.12 -0.12)">
       <defs>
        <path id="TimesNewRomanPS-BoldMT-42" d="M 2847 2247 
Q 3450 2106 3694 1906 
Q 4044 1622 4044 1169 
Q 4044 691 3659 378 
Q 3188 0 2288 0 
L 134 0 
L 134 116 
Q 428 116 533 170 
Q 638 225 680 312 
Q 722 400 722 744 
L 722 3494 
Q 722 3838 680 3927 
Q 638 4016 531 4069 
Q 425 4122 134 4122 
L 134 4238 
L 2166 4238 
Q 2894 4238 3197 4108 
Q 3500 3978 3675 3720 
Q 3850 3463 3850 3172 
Q 3850 2866 3628 2627 
Q 3406 2388 2847 2247 
z
M 1709 2331 
Q 2153 2331 2364 2431 
Q 2575 2531 2687 2712 
Q 2800 2894 2800 3175 
Q 2800 3456 2689 3636 
Q 2578 3816 2372 3909 
Q 2166 4003 1709 4000 
L 1709 2331 
z
M 1709 2088 
L 1709 728 
L 1706 572 
Q 1706 403 1792 317 
Q 1878 231 2047 231 
Q 2297 231 2508 342 
Q 2719 453 2831 664 
Q 2944 875 2944 1134 
Q 2944 1431 2806 1667 
Q 2669 1903 2428 1997 
Q 2188 2091 1709 2088 
z
" transform="scale(0.015625)"/>
        <path id="TimesNewRomanPS-BoldMT-4f" d="M 2472 4297 
Q 3484 4334 4117 3706 
Q 4750 3078 4750 2134 
Q 4750 1328 4278 716 
Q 3653 -97 2513 -97 
Q 1369 -97 744 678 
Q 250 1291 250 2131 
Q 250 3075 892 3704 
Q 1534 4334 2472 4297 
z
M 2509 4097 
Q 1928 4097 1625 3503 
Q 1378 3016 1378 2103 
Q 1378 1019 1759 500 
Q 2025 138 2503 138 
Q 2825 138 3041 294 
Q 3316 494 3469 933 
Q 3622 1372 3622 2078 
Q 3622 2919 3465 3336 
Q 3309 3753 3067 3925 
Q 2825 4097 2509 4097 
z
" transform="scale(0.015625)"/>
       </defs>
       <use xlink:href="#TimesNewRomanPS-BoldMT-53"/>
       <use xlink:href="#TimesNewRomanPS-BoldMT-42" x="55.615234"/>
       <use xlink:href="#TimesNewRomanPS-BoldMT-4f" x="122.314453"/>
      </g>
     </g>
    </g>
   </g>
   <g id="matplotlib.axis_2">
    <g id="ytick_1">
     <g id="line2d_3">
      <defs>
       <path id="m842e7b3fc6" d="M 0 0 
L -3.5 0 
" style="stroke: #000000; stroke-width: 0.8"/>
      </defs>
      <g>
       <use xlink:href="#m842e7b3fc6" x="52.191094" y="179.399" style="stroke: #000000; stroke-width: 0.8"/>
      </g>
     </g>
     <g id="text_3">
      <!-- 0 -->
      <g transform="translate(39.191094 183.56525) scale(0.12 -0.12)">
       <defs>
        <path id="TimesNewRomanPSMT-30" d="M 231 2094 
Q 231 2819 450 3342 
Q 669 3866 1031 4122 
Q 1313 4325 1613 4325 
Q 2100 4325 2488 3828 
Q 2972 3213 2972 2159 
Q 2972 1422 2759 906 
Q 2547 391 2217 158 
Q 1888 -75 1581 -75 
Q 975 -75 572 641 
Q 231 1244 231 2094 
z
M 844 2016 
Q 844 1141 1059 588 
Q 1238 122 1591 122 
Q 1759 122 1940 273 
Q 2122 425 2216 781 
Q 2359 1319 2359 2297 
Q 2359 3022 2209 3506 
Q 2097 3866 1919 4016 
Q 1791 4119 1609 4119 
Q 1397 4119 1231 3928 
Q 1006 3669 925 3112 
Q 844 2556 844 2016 
z
" transform="scale(0.015625)"/>
       </defs>
       <use xlink:href="#TimesNewRomanPSMT-30"/>
      </g>
     </g>
    </g>
    <g id="ytick_2">
     <g id="line2d_4">
      <g>
       <use xlink:href="#m842e7b3fc6" x="52.191094" y="134.123638" style="stroke: #000000; stroke-width: 0.8"/>
      </g>
     </g>
     <g id="text_4">
      <!-- 500 -->
      <g transform="translate(27.191094 138.289888) scale(0.12 -0.12)">
       <defs>
        <path id="TimesNewRomanPSMT-35" d="M 2778 4238 
L 2534 3706 
L 1259 3706 
L 981 3138 
Q 1809 3016 2294 2522 
Q 2709 2097 2709 1522 
Q 2709 1188 2573 903 
Q 2438 619 2231 419 
Q 2025 219 1772 97 
Q 1413 -75 1034 -75 
Q 653 -75 479 54 
Q 306 184 306 341 
Q 306 428 378 495 
Q 450 563 559 563 
Q 641 563 702 538 
Q 763 513 909 409 
Q 1144 247 1384 247 
Q 1750 247 2026 523 
Q 2303 800 2303 1197 
Q 2303 1581 2056 1914 
Q 1809 2247 1375 2428 
Q 1034 2569 447 2591 
L 1259 4238 
L 2778 4238 
z
" transform="scale(0.015625)"/>
       </defs>
       <use xlink:href="#TimesNewRomanPSMT-35"/>
       <use xlink:href="#TimesNewRomanPSMT-30" x="50"/>
       <use xlink:href="#TimesNewRomanPSMT-30" x="100"/>
      </g>
     </g>
    </g>
    <g id="ytick_3">
     <g id="line2d_5">
      <g>
       <use xlink:href="#m842e7b3fc6" x="52.191094" y="88.848275" style="stroke: #000000; stroke-width: 0.8"/>
      </g>
     </g>
     <g id="text_5">
      <!-- 1000 -->
      <g transform="translate(21.191094 93.014525) scale(0.12 -0.12)">
       <defs>
        <path id="TimesNewRomanPSMT-31" d="M 750 3822 
L 1781 4325 
L 1884 4325 
L 1884 747 
Q 1884 391 1914 303 
Q 1944 216 2037 169 
Q 2131 122 2419 116 
L 2419 0 
L 825 0 
L 825 116 
Q 1125 122 1212 167 
Q 1300 213 1334 289 
Q 1369 366 1369 747 
L 1369 3034 
Q 1369 3497 1338 3628 
Q 1316 3728 1258 3775 
Q 1200 3822 1119 3822 
Q 1003 3822 797 3725 
L 750 3822 
z
" transform="scale(0.015625)"/>
       </defs>
       <use xlink:href="#TimesNewRomanPSMT-31"/>
       <use xlink:href="#TimesNewRomanPSMT-30" x="50"/>
       <use xlink:href="#TimesNewRomanPSMT-30" x="100"/>
       <use xlink:href="#TimesNewRomanPSMT-30" x="150"/>
      </g>
     </g>
    </g>
    <g id="ytick_4">
     <g id="line2d_6">
      <g>
       <use xlink:href="#m842e7b3fc6" x="52.191094" y="43.572913" style="stroke: #000000; stroke-width: 0.8"/>
      </g>
     </g>
     <g id="text_6">
      <!-- 1500 -->
      <g transform="translate(21.191094 47.739163) scale(0.12 -0.12)">
       <use xlink:href="#TimesNewRomanPSMT-31"/>
       <use xlink:href="#TimesNewRomanPSMT-35" x="50"/>
       <use xlink:href="#TimesNewRomanPSMT-30" x="100"/>
       <use xlink:href="#TimesNewRomanPSMT-30" x="150"/>
      </g>
     </g>
    </g>
    <g id="text_7">
     <!-- TCPA of OS to closest TS (s) -->
     <g transform="translate(14.838125 165.788219) rotate(-90) scale(0.11 -0.11)">
      <defs>
       <path id="TimesNewRomanPSMT-54" d="M 3703 4238 
L 3750 3244 
L 3631 3244 
Q 3597 3506 3538 3619 
Q 3441 3800 3280 3886 
Q 3119 3972 2856 3972 
L 2259 3972 
L 2259 734 
Q 2259 344 2344 247 
Q 2463 116 2709 116 
L 2856 116 
L 2856 0 
L 1059 0 
L 1059 116 
L 1209 116 
Q 1478 116 1591 278 
Q 1659 378 1659 734 
L 1659 3972 
L 1150 3972 
Q 853 3972 728 3928 
Q 566 3869 450 3700 
Q 334 3531 313 3244 
L 194 3244 
L 244 4238 
L 3703 4238 
z
" transform="scale(0.015625)"/>
       <path id="TimesNewRomanPSMT-43" d="M 3853 4334 
L 3950 2894 
L 3853 2894 
Q 3659 3541 3300 3825 
Q 2941 4109 2438 4109 
Q 2016 4109 1675 3895 
Q 1334 3681 1139 3212 
Q 944 2744 944 2047 
Q 944 1472 1128 1050 
Q 1313 628 1683 403 
Q 2053 178 2528 178 
Q 2941 178 3256 354 
Q 3572 531 3950 1056 
L 4047 994 
Q 3728 428 3303 165 
Q 2878 -97 2294 -97 
Q 1241 -97 663 684 
Q 231 1266 231 2053 
Q 231 2688 515 3219 
Q 800 3750 1298 4042 
Q 1797 4334 2388 4334 
Q 2847 4334 3294 4109 
Q 3425 4041 3481 4041 
Q 3566 4041 3628 4100 
Q 3709 4184 3744 4334 
L 3853 4334 
z
" transform="scale(0.015625)"/>
       <path id="TimesNewRomanPSMT-50" d="M 1313 1984 
L 1313 750 
Q 1313 350 1400 253 
Q 1519 116 1759 116 
L 1922 116 
L 1922 0 
L 106 0 
L 106 116 
L 266 116 
Q 534 116 650 291 
Q 713 388 713 750 
L 713 3488 
Q 713 3888 628 3984 
Q 506 4122 266 4122 
L 106 4122 
L 106 4238 
L 1659 4238 
Q 2228 4238 2556 4120 
Q 2884 4003 3109 3725 
Q 3334 3447 3334 3066 
Q 3334 2547 2992 2222 
Q 2650 1897 2025 1897 
Q 1872 1897 1694 1919 
Q 1516 1941 1313 1984 
z
M 1313 2163 
Q 1478 2131 1606 2115 
Q 1734 2100 1825 2100 
Q 2150 2100 2386 2351 
Q 2622 2603 2622 3003 
Q 2622 3278 2509 3514 
Q 2397 3750 2190 3867 
Q 1984 3984 1722 3984 
Q 1563 3984 1313 3925 
L 1313 2163 
z
" transform="scale(0.015625)"/>
       <path id="TimesNewRomanPSMT-41" d="M 2928 1419 
L 1288 1419 
L 1000 750 
Q 894 503 894 381 
Q 894 284 986 211 
Q 1078 138 1384 116 
L 1384 0 
L 50 0 
L 50 116 
Q 316 163 394 238 
Q 553 388 747 847 
L 2238 4334 
L 2347 4334 
L 3822 809 
Q 4000 384 4145 257 
Q 4291 131 4550 116 
L 4550 0 
L 2878 0 
L 2878 116 
Q 3131 128 3220 200 
Q 3309 272 3309 375 
Q 3309 513 3184 809 
L 2928 1419 
z
M 2841 1650 
L 2122 3363 
L 1384 1650 
L 2841 1650 
z
" transform="scale(0.015625)"/>
       <path id="TimesNewRomanPSMT-20" transform="scale(0.015625)"/>
       <path id="TimesNewRomanPSMT-6f" d="M 1600 2947 
Q 2250 2947 2644 2453 
Q 2978 2031 2978 1484 
Q 2978 1100 2793 706 
Q 2609 313 2286 112 
Q 1963 -88 1566 -88 
Q 919 -88 538 428 
Q 216 863 216 1403 
Q 216 1797 411 2186 
Q 606 2575 925 2761 
Q 1244 2947 1600 2947 
z
M 1503 2744 
Q 1338 2744 1170 2645 
Q 1003 2547 900 2300 
Q 797 2053 797 1666 
Q 797 1041 1045 587 
Q 1294 134 1700 134 
Q 2003 134 2200 384 
Q 2397 634 2397 1244 
Q 2397 2006 2069 2444 
Q 1847 2744 1503 2744 
z
" transform="scale(0.015625)"/>
       <path id="TimesNewRomanPSMT-66" d="M 1319 2638 
L 1319 756 
Q 1319 356 1406 250 
Q 1522 113 1716 113 
L 1975 113 
L 1975 0 
L 266 0 
L 266 113 
L 394 113 
Q 519 113 622 175 
Q 725 238 764 344 
Q 803 450 803 756 
L 803 2638 
L 247 2638 
L 247 2863 
L 803 2863 
L 803 3050 
Q 803 3478 940 3775 
Q 1078 4072 1361 4255 
Q 1644 4438 1997 4438 
Q 2325 4438 2600 4225 
Q 2781 4084 2781 3909 
Q 2781 3816 2700 3733 
Q 2619 3650 2525 3650 
Q 2453 3650 2373 3701 
Q 2294 3753 2178 3923 
Q 2063 4094 1966 4153 
Q 1869 4213 1750 4213 
Q 1606 4213 1506 4136 
Q 1406 4059 1362 3898 
Q 1319 3738 1319 3069 
L 1319 2863 
L 2056 2863 
L 2056 2638 
L 1319 2638 
z
" transform="scale(0.015625)"/>
       <path id="TimesNewRomanPSMT-4f" d="M 2341 4334 
Q 3166 4334 3770 3707 
Q 4375 3081 4375 2144 
Q 4375 1178 3765 540 
Q 3156 -97 2291 -97 
Q 1416 -97 820 525 
Q 225 1147 225 2134 
Q 225 3144 913 3781 
Q 1509 4334 2341 4334 
z
M 2281 4106 
Q 1713 4106 1369 3684 
Q 941 3159 941 2147 
Q 941 1109 1384 550 
Q 1725 125 2284 125 
Q 2881 125 3270 590 
Q 3659 1056 3659 2059 
Q 3659 3147 3231 3681 
Q 2888 4106 2281 4106 
z
" transform="scale(0.015625)"/>
       <path id="TimesNewRomanPSMT-53" d="M 2934 4334 
L 2934 2869 
L 2819 2869 
Q 2763 3291 2617 3541 
Q 2472 3791 2203 3937 
Q 1934 4084 1647 4084 
Q 1322 4084 1109 3886 
Q 897 3688 897 3434 
Q 897 3241 1031 3081 
Q 1225 2847 1953 2456 
Q 2547 2138 2764 1967 
Q 2981 1797 3098 1565 
Q 3216 1334 3216 1081 
Q 3216 600 2842 251 
Q 2469 -97 1881 -97 
Q 1697 -97 1534 -69 
Q 1438 -53 1133 45 
Q 828 144 747 144 
Q 669 144 623 97 
Q 578 50 556 -97 
L 441 -97 
L 441 1356 
L 556 1356 
Q 638 900 775 673 
Q 913 447 1195 297 
Q 1478 147 1816 147 
Q 2206 147 2432 353 
Q 2659 559 2659 841 
Q 2659 997 2573 1156 
Q 2488 1316 2306 1453 
Q 2184 1547 1640 1851 
Q 1097 2156 867 2337 
Q 638 2519 519 2737 
Q 400 2956 400 3219 
Q 400 3675 750 4004 
Q 1100 4334 1641 4334 
Q 1978 4334 2356 4169 
Q 2531 4091 2603 4091 
Q 2684 4091 2736 4139 
Q 2788 4188 2819 4334 
L 2934 4334 
z
" transform="scale(0.015625)"/>
       <path id="TimesNewRomanPSMT-74" d="M 1031 3803 
L 1031 2863 
L 1700 2863 
L 1700 2644 
L 1031 2644 
L 1031 788 
Q 1031 509 1111 412 
Q 1191 316 1316 316 
Q 1419 316 1516 380 
Q 1613 444 1666 569 
L 1788 569 
Q 1678 263 1478 108 
Q 1278 -47 1066 -47 
Q 922 -47 784 33 
Q 647 113 581 261 
Q 516 409 516 719 
L 516 2644 
L 63 2644 
L 63 2747 
Q 234 2816 414 2980 
Q 594 3144 734 3369 
Q 806 3488 934 3803 
L 1031 3803 
z
" transform="scale(0.015625)"/>
       <path id="TimesNewRomanPSMT-63" d="M 2631 1088 
Q 2516 522 2178 217 
Q 1841 -88 1431 -88 
Q 944 -88 581 321 
Q 219 731 219 1428 
Q 219 2103 620 2525 
Q 1022 2947 1584 2947 
Q 2006 2947 2278 2723 
Q 2550 2500 2550 2259 
Q 2550 2141 2473 2067 
Q 2397 1994 2259 1994 
Q 2075 1994 1981 2113 
Q 1928 2178 1911 2362 
Q 1894 2547 1784 2644 
Q 1675 2738 1481 2738 
Q 1169 2738 978 2506 
Q 725 2200 725 1697 
Q 725 1184 976 792 
Q 1228 400 1656 400 
Q 1963 400 2206 609 
Q 2378 753 2541 1131 
L 2631 1088 
z
" transform="scale(0.015625)"/>
       <path id="TimesNewRomanPSMT-6c" d="M 1184 4444 
L 1184 647 
Q 1184 378 1223 290 
Q 1263 203 1344 158 
Q 1425 113 1647 113 
L 1647 0 
L 244 0 
L 244 113 
Q 441 113 512 153 
Q 584 194 625 287 
Q 666 381 666 647 
L 666 3247 
Q 666 3731 644 3842 
Q 622 3953 573 3993 
Q 525 4034 450 4034 
Q 369 4034 244 3984 
L 191 4094 
L 1044 4444 
L 1184 4444 
z
" transform="scale(0.015625)"/>
       <path id="TimesNewRomanPSMT-73" d="M 2050 2947 
L 2050 1972 
L 1947 1972 
Q 1828 2431 1642 2597 
Q 1456 2763 1169 2763 
Q 950 2763 815 2647 
Q 681 2531 681 2391 
Q 681 2216 781 2091 
Q 878 1963 1175 1819 
L 1631 1597 
Q 2266 1288 2266 781 
Q 2266 391 1970 151 
Q 1675 -88 1309 -88 
Q 1047 -88 709 6 
Q 606 38 541 38 
Q 469 38 428 -44 
L 325 -44 
L 325 978 
L 428 978 
Q 516 541 762 319 
Q 1009 97 1316 97 
Q 1531 97 1667 223 
Q 1803 350 1803 528 
Q 1803 744 1651 891 
Q 1500 1038 1047 1263 
Q 594 1488 453 1669 
Q 313 1847 313 2119 
Q 313 2472 555 2709 
Q 797 2947 1181 2947 
Q 1350 2947 1591 2875 
Q 1750 2828 1803 2828 
Q 1853 2828 1881 2850 
Q 1909 2872 1947 2947 
L 2050 2947 
z
" transform="scale(0.015625)"/>
       <path id="TimesNewRomanPSMT-65" d="M 681 1784 
Q 678 1147 991 784 
Q 1303 422 1725 422 
Q 2006 422 2214 576 
Q 2422 731 2563 1106 
L 2659 1044 
Q 2594 616 2278 264 
Q 1963 -88 1488 -88 
Q 972 -88 605 314 
Q 238 716 238 1394 
Q 238 2128 614 2539 
Q 991 2950 1559 2950 
Q 2041 2950 2350 2633 
Q 2659 2316 2659 1784 
L 681 1784 
z
M 681 1966 
L 2006 1966 
Q 1991 2241 1941 2353 
Q 1863 2528 1708 2628 
Q 1553 2728 1384 2728 
Q 1125 2728 920 2526 
Q 716 2325 681 1966 
z
" transform="scale(0.015625)"/>
       <path id="TimesNewRomanPSMT-28" d="M 1988 -1253 
L 1988 -1369 
Q 1516 -1131 1200 -813 
Q 750 -359 506 256 
Q 263 872 263 1534 
Q 263 2503 741 3301 
Q 1219 4100 1988 4444 
L 1988 4313 
Q 1603 4100 1356 3731 
Q 1109 3363 987 2797 
Q 866 2231 866 1616 
Q 866 947 969 400 
Q 1050 -31 1165 -292 
Q 1281 -553 1476 -793 
Q 1672 -1034 1988 -1253 
z
" transform="scale(0.015625)"/>
       <path id="TimesNewRomanPSMT-29" d="M 144 4313 
L 144 4444 
Q 619 4209 934 3891 
Q 1381 3434 1625 2820 
Q 1869 2206 1869 1541 
Q 1869 572 1392 -226 
Q 916 -1025 144 -1369 
L 144 -1253 
Q 528 -1038 776 -670 
Q 1025 -303 1145 264 
Q 1266 831 1266 1447 
Q 1266 2113 1163 2663 
Q 1084 3094 967 3353 
Q 850 3613 656 3853 
Q 463 4094 144 4313 
z
" transform="scale(0.015625)"/>
      </defs>
      <use xlink:href="#TimesNewRomanPSMT-54"/>
      <use xlink:href="#TimesNewRomanPSMT-43" x="61.083984"/>
      <use xlink:href="#TimesNewRomanPSMT-50" x="127.783203"/>
      <use xlink:href="#TimesNewRomanPSMT-41" x="174.273438"/>
      <use xlink:href="#TimesNewRomanPSMT-20" x="240.990234"/>
      <use xlink:href="#TimesNewRomanPSMT-6f" x="265.990234"/>
      <use xlink:href="#TimesNewRomanPSMT-66" x="315.990234"/>
      <use xlink:href="#TimesNewRomanPSMT-20" x="349.291016"/>
      <use xlink:href="#TimesNewRomanPSMT-4f" x="374.291016"/>
      <use xlink:href="#TimesNewRomanPSMT-53" x="446.507812"/>
      <use xlink:href="#TimesNewRomanPSMT-20" x="502.123047"/>
      <use xlink:href="#TimesNewRomanPSMT-74" x="527.123047"/>
      <use xlink:href="#TimesNewRomanPSMT-6f" x="554.90625"/>
      <use xlink:href="#TimesNewRomanPSMT-20" x="604.90625"/>
      <use xlink:href="#TimesNewRomanPSMT-63" x="629.90625"/>
      <use xlink:href="#TimesNewRomanPSMT-6c" x="674.291016"/>
      <use xlink:href="#TimesNewRomanPSMT-6f" x="702.074219"/>
      <use xlink:href="#TimesNewRomanPSMT-73" x="752.074219"/>
      <use xlink:href="#TimesNewRomanPSMT-65" x="790.990234"/>
      <use xlink:href="#TimesNewRomanPSMT-73" x="835.375"/>
      <use xlink:href="#TimesNewRomanPSMT-74" x="874.291016"/>
      <use xlink:href="#TimesNewRomanPSMT-20" x="902.074219"/>
      <use xlink:href="#TimesNewRomanPSMT-54" x="925.324219"/>
      <use xlink:href="#TimesNewRomanPSMT-53" x="986.408203"/>
      <use xlink:href="#TimesNewRomanPSMT-20" x="1042.023438"/>
      <use xlink:href="#TimesNewRomanPSMT-28" x="1067.023438"/>
      <use xlink:href="#TimesNewRomanPSMT-73" x="1100.324219"/>
      <use xlink:href="#TimesNewRomanPSMT-29" x="1139.240234"/>
     </g>
    </g>
   </g>
   <g id="LineCollection_1">
    <path d="M 62.069728 111.220934 
L 75.367889 111.220934 
" clip-path="url(#p293e83045e)" style="fill: none; stroke: #000000; stroke-width: 2"/>
    <path d="M 100.064474 121.960753 
L 113.362635 121.960753 
" clip-path="url(#p293e83045e)" style="fill: none; stroke: #000000; stroke-width: 2"/>
   </g>
   <g id="LineCollection_2">
    <path clip-path="url(#p293e83045e)" style="fill: none; stroke: #1f77b4; stroke-width: 1.5"/>
    <path clip-path="url(#p293e83045e)" style="fill: none; stroke: #1f77b4; stroke-width: 1.5"/>
   </g>
   <g id="LineCollection_3">
    <path d="M 62.069728 163.327845 
L 75.367889 163.327845 
" clip-path="url(#p293e83045e)" style="fill: none; stroke: #1f77b4; stroke-width: 1.5"/>
    <path d="M 100.064474 166.656037 
L 113.362635 166.656037 
" clip-path="url(#p293e83045e)" style="fill: none; stroke: #1f77b4; stroke-width: 1.5"/>
   </g>
   <g id="LineCollection_4">
    <path d="M 68.718808 163.327845 
L 68.718808 -1 
" clip-path="url(#p293e83045e)" style="fill: none; stroke: #1f77b4; stroke-width: 1.5"/>
    <path d="M 106.713554 166.656037 
L 106.713554 -1 
" clip-path="url(#p293e83045e)" style="fill: none; stroke: #1f77b4; stroke-width: 1.5"/>
   </g>
   <g id="LineCollection_5">
    <path d="M 62.069728 134.648177 
L 75.367889 134.648177 
" clip-path="url(#p293e83045e)" style="fill: none; stroke-dasharray: 2,3.3; stroke-dashoffset: 0; stroke: #808080; stroke-width: 2"/>
    <path d="M 100.064474 134.879314 
L 113.362635 134.879314 
" clip-path="url(#p293e83045e)" style="fill: none; stroke-dasharray: 2,3.3; stroke-dashoffset: 0; stroke: #808080; stroke-width: 2"/>
   </g>
   <g id="patch_3">
    <path d="M 52.191094 179.399 
L 52.191094 23.199 
" style="fill: none; stroke: #000000; stroke-width: 0.8; stroke-linejoin: miter; stroke-linecap: square"/>
   </g>
   <g id="patch_4">
    <path d="M 123.241269 179.399 
L 123.241269 23.199 
" style="fill: none; stroke: #000000; stroke-width: 0.8; stroke-linejoin: miter; stroke-linecap: square"/>
   </g>
   <g id="patch_5">
    <path d="M 52.191094 179.399 
L 123.241269 179.399 
" style="fill: none; stroke: #000000; stroke-width: 0.8; stroke-linejoin: miter; stroke-linecap: square"/>
   </g>
   <g id="patch_6">
    <path d="M 52.191094 23.199 
L 123.241269 23.199 
" style="fill: none; stroke: #000000; stroke-width: 0.8; stroke-linejoin: miter; stroke-linecap: square"/>
   </g>
   <g id="text_8">
    <!-- 278 -->
    <g transform="translate(61.218808 39.183952) scale(0.1 -0.1)">
     <defs>
      <path id="TimesNewRomanPSMT-32" d="M 2934 816 
L 2638 0 
L 138 0 
L 138 116 
Q 1241 1122 1691 1759 
Q 2141 2397 2141 2925 
Q 2141 3328 1894 3587 
Q 1647 3847 1303 3847 
Q 991 3847 742 3664 
Q 494 3481 375 3128 
L 259 3128 
Q 338 3706 661 4015 
Q 984 4325 1469 4325 
Q 1984 4325 2329 3994 
Q 2675 3663 2675 3213 
Q 2675 2891 2525 2569 
Q 2294 2063 1775 1497 
Q 997 647 803 472 
L 1909 472 
Q 2247 472 2383 497 
Q 2519 522 2628 598 
Q 2738 675 2819 816 
L 2934 816 
z
" transform="scale(0.015625)"/>
      <path id="TimesNewRomanPSMT-37" d="M 644 4238 
L 2916 4238 
L 2916 4119 
L 1503 -88 
L 1153 -88 
L 2419 3728 
L 1253 3728 
Q 900 3728 750 3644 
Q 488 3500 328 3200 
L 238 3234 
L 644 4238 
z
" transform="scale(0.015625)"/>
      <path id="TimesNewRomanPSMT-38" d="M 1228 2134 
Q 725 2547 579 2797 
Q 434 3047 434 3316 
Q 434 3728 753 4026 
Q 1072 4325 1600 4325 
Q 2113 4325 2425 4047 
Q 2738 3769 2738 3413 
Q 2738 3175 2569 2928 
Q 2400 2681 1866 2347 
Q 2416 1922 2594 1678 
Q 2831 1359 2831 1006 
Q 2831 559 2490 242 
Q 2150 -75 1597 -75 
Q 994 -75 656 303 
Q 388 606 388 966 
Q 388 1247 577 1523 
Q 766 1800 1228 2134 
z
M 1719 2469 
Q 2094 2806 2194 3001 
Q 2294 3197 2294 3444 
Q 2294 3772 2109 3958 
Q 1925 4144 1606 4144 
Q 1288 4144 1088 3959 
Q 888 3775 888 3528 
Q 888 3366 970 3203 
Q 1053 3041 1206 2894 
L 1719 2469 
z
M 1375 2016 
Q 1116 1797 991 1539 
Q 866 1281 866 981 
Q 866 578 1086 336 
Q 1306 94 1647 94 
Q 1984 94 2187 284 
Q 2391 475 2391 747 
Q 2391 972 2272 1150 
Q 2050 1481 1375 2016 
z
" transform="scale(0.015625)"/>
     </defs>
     <use xlink:href="#TimesNewRomanPSMT-32"/>
     <use xlink:href="#TimesNewRomanPSMT-37" x="50"/>
     <use xlink:href="#TimesNewRomanPSMT-38" x="100"/>
    </g>
   </g>
   <g id="text_9">
    <!-- 291 -->
    <g transform="translate(99.213554 39.183952) scale(0.1 -0.1)">
     <defs>
      <path id="TimesNewRomanPSMT-39" d="M 338 -88 
L 338 28 
Q 744 34 1094 217 
Q 1444 400 1770 856 
Q 2097 1313 2225 1859 
Q 1734 1544 1338 1544 
Q 891 1544 572 1889 
Q 253 2234 253 2806 
Q 253 3363 572 3797 
Q 956 4325 1575 4325 
Q 2097 4325 2469 3894 
Q 2925 3359 2925 2575 
Q 2925 1869 2578 1258 
Q 2231 647 1613 244 
Q 1109 -88 516 -88 
L 338 -88 
z
M 2275 2091 
Q 2331 2497 2331 2741 
Q 2331 3044 2228 3395 
Q 2125 3747 1936 3934 
Q 1747 4122 1506 4122 
Q 1228 4122 1018 3872 
Q 809 3622 809 3128 
Q 809 2469 1088 2097 
Q 1291 1828 1588 1828 
Q 1731 1828 1928 1897 
Q 2125 1966 2275 2091 
z
" transform="scale(0.015625)"/>
     </defs>
     <use xlink:href="#TimesNewRomanPSMT-32"/>
     <use xlink:href="#TimesNewRomanPSMT-39" x="50"/>
     <use xlink:href="#TimesNewRomanPSMT-31" x="100"/>
    </g>
   </g>
   <g id="text_10">
    <!-- 3 Vessels -->
    <g transform="translate(61.243806 17.199) scale(0.144 -0.144)">
     <defs>
      <path id="TimesNewRomanPSMT-33" d="M 325 3431 
Q 506 3859 782 4092 
Q 1059 4325 1472 4325 
Q 1981 4325 2253 3994 
Q 2459 3747 2459 3466 
Q 2459 3003 1878 2509 
Q 2269 2356 2469 2072 
Q 2669 1788 2669 1403 
Q 2669 853 2319 450 
Q 1863 -75 997 -75 
Q 569 -75 414 31 
Q 259 138 259 259 
Q 259 350 332 419 
Q 406 488 509 488 
Q 588 488 669 463 
Q 722 447 909 348 
Q 1097 250 1169 231 
Q 1284 197 1416 197 
Q 1734 197 1970 444 
Q 2206 691 2206 1028 
Q 2206 1275 2097 1509 
Q 2016 1684 1919 1775 
Q 1784 1900 1550 2001 
Q 1316 2103 1072 2103 
L 972 2103 
L 972 2197 
Q 1219 2228 1467 2375 
Q 1716 2522 1828 2728 
Q 1941 2934 1941 3181 
Q 1941 3503 1739 3701 
Q 1538 3900 1238 3900 
Q 753 3900 428 3381 
L 325 3431 
z
" transform="scale(0.015625)"/>
      <path id="TimesNewRomanPSMT-56" d="M 4544 4238 
L 4544 4122 
Q 4319 4081 4203 3978 
Q 4038 3825 3909 3509 
L 2431 -97 
L 2316 -97 
L 728 3556 
Q 606 3838 556 3900 
Q 478 3997 364 4051 
Q 250 4106 56 4122 
L 56 4238 
L 1788 4238 
L 1788 4122 
Q 1494 4094 1406 4022 
Q 1319 3950 1319 3838 
Q 1319 3681 1463 3350 
L 2541 866 
L 3541 3319 
Q 3688 3681 3688 3822 
Q 3688 3913 3597 3995 
Q 3506 4078 3291 4113 
Q 3275 4116 3238 4122 
L 3238 4238 
L 4544 4238 
z
" transform="scale(0.015625)"/>
     </defs>
     <use xlink:href="#TimesNewRomanPSMT-33"/>
     <use xlink:href="#TimesNewRomanPSMT-20" x="50"/>
     <use xlink:href="#TimesNewRomanPSMT-56" x="73.25"/>
     <use xlink:href="#TimesNewRomanPSMT-65" x="134.341797"/>
     <use xlink:href="#TimesNewRomanPSMT-73" x="178.726562"/>
     <use xlink:href="#TimesNewRomanPSMT-73" x="217.642578"/>
     <use xlink:href="#TimesNewRomanPSMT-65" x="256.558594"/>
     <use xlink:href="#TimesNewRomanPSMT-6c" x="300.943359"/>
     <use xlink:href="#TimesNewRomanPSMT-73" x="328.726562"/>
    </g>
   </g>
  </g>
  <g id="axes_2">
   <g id="patch_7">
    <path d="M 148.771035 179.399 
L 219.82121 179.399 
L 219.82121 23.199 
L 148.771035 23.199 
z
" style="fill: #ffffff"/>
   </g>
   <g id="PolyCollection_3">
    <path d="M 172.498738 165.092389 
L 158.098761 165.092389 
L 154.966893 156.669041 
L 152.653853 148.245693 
L 152.000589 139.822345 
L 153.157336 131.398996 
L 155.529905 122.975648 
L 158.220784 114.5523 
L 160.548273 106.128952 
L 162.255452 97.705604 
L 163.39208 89.282256 
L 164.106234 80.858908 
L 164.526446 72.43556 
L 164.742816 64.012212 
L 164.822717 55.588863 
L 164.823827 47.165515 
L 164.798736 38.742167 
L 164.790763 30.318819 
L 164.823445 21.895471 
L 164.894453 13.472123 
L 164.983769 5.048775 
L 165.07081 -3.374573 
L 165.144908 -11.797922 
L 165.203406 -20.22127 
L 165.246051 -28.644618 
L 165.273517 -37.067966 
L 165.288398 -45.491314 
L 165.294623 -53.914662 
L 165.295322 -62.33801 
L 165.291373 -70.761358 
L 165.281927 -79.184707 
L 165.266873 -87.608055 
L 165.249716 -96.031403 
L 165.237638 -104.454751 
L 165.237047 -112.878099 
L 165.24828 -121.301447 
L 165.265306 -129.724795 
L 165.280797 -138.148143 
L 165.290943 -146.571492 
L 165.295999 -154.99484 
L 165.297965 -163.418188 
L 165.298568 -171.841536 
L 165.298716 -180.264884 
L 165.298745 -188.688232 
L 165.298749 -197.11158 
L 165.29875 -205.534928 
L 165.29875 -213.958276 
L 165.29875 -222.381625 
L 165.29875 -230.804973 
L 165.29875 -239.228321 
L 165.29875 -247.651669 
L 165.29875 -256.075017 
L 165.29875 -264.498365 
L 165.29875 -272.921713 
L 165.29875 -281.345061 
L 165.29875 -289.76841 
L 165.29875 -298.191758 
L 165.29875 -306.615106 
L 165.29875 -315.038454 
L 165.29875 -323.461802 
L 165.29875 -331.88515 
L 165.29875 -340.308498 
L 165.29875 -348.731846 
L 165.29875 -357.155195 
L 165.29875 -365.578543 
L 165.29875 -374.001891 
L 165.29875 -382.425239 
L 165.29875 -390.848587 
L 165.29875 -399.271935 
L 165.29875 -407.695283 
L 165.29875 -416.118631 
L 165.29875 -424.54198 
L 165.29875 -432.965328 
L 165.29875 -441.388676 
L 165.29875 -449.812024 
L 165.29875 -458.235372 
L 165.29875 -466.65872 
L 165.29875 -475.082068 
L 165.29875 -483.505416 
L 165.29875 -491.928765 
L 165.29875 -500.352113 
L 165.29875 -508.775461 
L 165.29875 -517.198809 
L 165.29875 -525.622157 
L 165.29875 -534.045505 
L 165.29875 -542.468853 
L 165.29875 -550.892201 
L 165.29875 -559.315549 
L 165.29875 -567.738898 
L 165.29875 -576.162246 
L 165.298748 -584.585594 
L 165.298737 -593.008942 
L 165.298675 -601.43229 
L 165.298388 -609.855638 
L 165.297326 -618.278986 
L 165.294215 -626.702334 
L 165.287052 -635.125683 
L 165.274304 -643.549031 
L 165.257366 -651.972379 
L 165.241993 -660.395727 
L 165.235692 -668.819075 
L 165.361808 -668.819075 
L 165.361808 -668.819075 
L 165.355506 -660.395727 
L 165.340134 -651.972379 
L 165.323196 -643.549031 
L 165.310448 -635.125683 
L 165.303285 -626.702334 
L 165.300174 -618.278986 
L 165.299112 -609.855638 
L 165.298825 -601.43229 
L 165.298762 -593.008942 
L 165.298752 -584.585594 
L 165.29875 -576.162246 
L 165.29875 -567.738898 
L 165.29875 -559.315549 
L 165.29875 -550.892201 
L 165.29875 -542.468853 
L 165.29875 -534.045505 
L 165.29875 -525.622157 
L 165.29875 -517.198809 
L 165.29875 -508.775461 
L 165.29875 -500.352113 
L 165.29875 -491.928765 
L 165.29875 -483.505416 
L 165.29875 -475.082068 
L 165.29875 -466.65872 
L 165.29875 -458.235372 
L 165.29875 -449.812024 
L 165.29875 -441.388676 
L 165.29875 -432.965328 
L 165.29875 -424.54198 
L 165.29875 -416.118631 
L 165.29875 -407.695283 
L 165.29875 -399.271935 
L 165.29875 -390.848587 
L 165.29875 -382.425239 
L 165.29875 -374.001891 
L 165.29875 -365.578543 
L 165.29875 -357.155195 
L 165.29875 -348.731846 
L 165.29875 -340.308498 
L 165.29875 -331.88515 
L 165.29875 -323.461802 
L 165.29875 -315.038454 
L 165.29875 -306.615106 
L 165.29875 -298.191758 
L 165.29875 -289.76841 
L 165.29875 -281.345061 
L 165.29875 -272.921713 
L 165.29875 -264.498365 
L 165.29875 -256.075017 
L 165.29875 -247.651669 
L 165.29875 -239.228321 
L 165.29875 -230.804973 
L 165.29875 -222.381625 
L 165.29875 -213.958276 
L 165.29875 -205.534928 
L 165.298751 -197.11158 
L 165.298755 -188.688232 
L 165.298784 -180.264884 
L 165.298931 -171.841536 
L 165.299535 -163.418188 
L 165.3015 -154.99484 
L 165.306557 -146.571492 
L 165.316703 -138.148143 
L 165.332193 -129.724795 
L 165.34922 -121.301447 
L 165.360453 -112.878099 
L 165.359862 -104.454751 
L 165.347784 -96.031403 
L 165.330627 -87.608055 
L 165.315573 -79.184707 
L 165.306126 -70.761358 
L 165.302178 -62.33801 
L 165.302877 -53.914662 
L 165.309102 -45.491314 
L 165.323983 -37.067966 
L 165.351449 -28.644618 
L 165.394094 -20.22127 
L 165.452592 -11.797922 
L 165.52669 -3.374573 
L 165.613731 5.048775 
L 165.703047 13.472123 
L 165.774055 21.895471 
L 165.806737 30.318819 
L 165.798764 38.742167 
L 165.773673 47.165515 
L 165.774783 55.588863 
L 165.854683 64.012212 
L 166.071053 72.43556 
L 166.491265 80.858908 
L 167.20542 89.282256 
L 168.342048 97.705604 
L 170.049227 106.128952 
L 172.376716 114.5523 
L 175.067595 122.975648 
L 177.440164 131.398996 
L 178.596911 139.822345 
L 177.943647 148.245693 
L 175.630606 156.669041 
L 172.498738 165.092389 
z
" clip-path="url(#p416dfdbb9c)" style="fill: #0080ff; fill-opacity: 0.3"/>
   </g>
   <g id="PolyCollection_4">
    <path d="M 207.397075 165.120568 
L 199.189917 165.120568 
L 197.622382 161.659643 
L 195.865994 158.198717 
L 194.064124 154.737792 
L 192.400992 151.276867 
L 191.07003 147.815942 
L 190.235016 144.355016 
L 189.995335 140.894091 
L 190.365839 137.433166 
L 191.276675 133.972241 
L 192.591703 130.511315 
L 194.138982 127.05039 
L 195.744682 123.589465 
L 197.262308 120.12854 
L 198.591226 116.667614 
L 199.681719 113.206689 
L 200.527807 109.745764 
L 201.152744 106.284838 
L 201.59365 102.823913 
L 201.890301 99.362988 
L 202.07955 95.902063 
L 202.193646 92.441137 
L 202.259711 88.980212 
L 202.298921 85.519287 
L 202.325773 82.058362 
L 202.348545 78.597436 
L 202.371249 75.136511 
L 202.396144 71.675586 
L 202.425507 68.214661 
L 202.461995 64.753735 
L 202.50792 61.29281 
L 202.564234 57.831885 
L 202.629849 54.370959 
L 202.70155 50.910034 
L 202.774568 47.449109 
L 202.843735 43.988184 
L 202.904947 40.527258 
L 202.956381 37.066333 
L 202.998885 33.605408 
L 203.035308 30.144483 
L 203.069073 26.683557 
L 203.102691 23.222632 
L 203.136852 19.761707 
L 203.170399 16.300782 
L 203.200991 12.839856 
L 203.226071 9.378931 
L 203.243687 5.918006 
L 203.252997 2.45708 
L 203.254442 -1.003845 
L 203.249681 -4.46477 
L 203.241346 -7.925695 
L 203.232556 -11.386621 
L 203.226182 -14.847546 
L 203.224012 -18.308471 
L 203.226105 -21.769396 
L 203.23066 -25.230322 
L 203.234549 -28.691247 
L 203.234383 -32.152172 
L 203.227767 -35.613097 
L 203.214339 -39.074023 
L 203.196221 -42.534948 
L 203.177614 -45.995873 
L 203.163579 -49.456799 
L 203.158349 -52.917724 
L 203.16385 -56.378649 
L 203.179091 -59.839574 
L 203.200684 -63.3005 
L 203.22418 -66.761425 
L 203.24553 -70.22235 
L 203.26203 -73.683275 
L 203.272479 -77.144201 
L 203.2768 -80.605126 
L 203.275518 -84.066051 
L 203.269473 -87.526976 
L 203.25986 -90.987902 
L 203.2484 -94.448827 
L 203.237356 -97.909752 
L 203.229184 -101.370678 
L 203.225871 -104.831603 
L 203.22827 -108.292528 
L 203.2358 -111.753453 
L 203.246695 -115.214379 
L 203.258682 -118.675304 
L 203.269747 -122.136229 
L 203.278637 -125.597154 
L 203.284961 -129.05808 
L 203.288969 -132.519005 
L 203.291201 -135.97993 
L 203.292181 -139.440855 
L 203.292218 -142.901781 
L 203.291326 -146.362706 
L 203.289217 -149.823631 
L 203.285381 -153.284557 
L 203.279268 -156.745482 
L 203.27059 -160.206407 
L 203.259672 -163.667332 
L 203.247694 -167.128258 
L 203.236619 -170.589183 
L 203.228727 -174.050108 
L 203.22586 -177.511033 
L 203.361132 -177.511033 
L 203.361132 -177.511033 
L 203.358265 -174.050108 
L 203.350373 -170.589183 
L 203.339298 -167.128258 
L 203.327319 -163.667332 
L 203.316402 -160.206407 
L 203.307724 -156.745482 
L 203.301611 -153.284557 
L 203.297775 -149.823631 
L 203.295666 -146.362706 
L 203.294773 -142.901781 
L 203.294811 -139.440855 
L 203.29579 -135.97993 
L 203.298023 -132.519005 
L 203.302031 -129.05808 
L 203.308355 -125.597154 
L 203.317245 -122.136229 
L 203.32831 -118.675304 
L 203.340297 -115.214379 
L 203.351192 -111.753453 
L 203.358722 -108.292528 
L 203.361121 -104.831603 
L 203.357808 -101.370678 
L 203.349635 -97.909752 
L 203.338592 -94.448827 
L 203.327132 -90.987902 
L 203.317519 -87.526976 
L 203.311474 -84.066051 
L 203.310192 -80.605126 
L 203.314513 -77.144201 
L 203.324962 -73.683275 
L 203.341461 -70.22235 
L 203.362812 -66.761425 
L 203.386308 -63.3005 
L 203.407901 -59.839574 
L 203.423142 -56.378649 
L 203.428643 -52.917724 
L 203.423412 -49.456799 
L 203.409378 -45.995873 
L 203.390771 -42.534948 
L 203.372653 -39.074023 
L 203.359225 -35.613097 
L 203.352609 -32.152172 
L 203.352443 -28.691247 
L 203.356332 -25.230322 
L 203.360887 -21.769396 
L 203.36298 -18.308471 
L 203.36081 -14.847546 
L 203.354436 -11.386621 
L 203.345646 -7.925695 
L 203.337311 -4.46477 
L 203.33255 -1.003845 
L 203.333995 2.45708 
L 203.343305 5.918006 
L 203.360921 9.378931 
L 203.386 12.839856 
L 203.416593 16.300782 
L 203.45014 19.761707 
L 203.484301 23.222632 
L 203.517919 26.683557 
L 203.551684 30.144483 
L 203.588107 33.605408 
L 203.630611 37.066333 
L 203.682045 40.527258 
L 203.743257 43.988184 
L 203.812424 47.449109 
L 203.885442 50.910034 
L 203.957143 54.370959 
L 204.022758 57.831885 
L 204.079072 61.29281 
L 204.124997 64.753735 
L 204.161485 68.214661 
L 204.190848 71.675586 
L 204.215743 75.136511 
L 204.238447 78.597436 
L 204.261219 82.058362 
L 204.288071 85.519287 
L 204.327281 88.980212 
L 204.393346 92.441137 
L 204.507442 95.902063 
L 204.696691 99.362988 
L 204.993342 102.823913 
L 205.434248 106.284838 
L 206.059185 109.745764 
L 206.905273 113.206689 
L 207.995765 116.667614 
L 209.324683 120.12854 
L 210.84231 123.589465 
L 212.44801 127.05039 
L 213.995289 130.511315 
L 215.310317 133.972241 
L 216.221153 137.433166 
L 216.591657 140.894091 
L 216.351976 144.355016 
L 215.516962 147.815942 
L 214.185999 151.276867 
L 212.522868 154.737792 
L 210.720998 158.198717 
L 208.96461 161.659643 
L 207.397075 165.120568 
z
" clip-path="url(#p416dfdbb9c)" style="fill: #ff8000; fill-opacity: 0.3"/>
   </g>
   <g id="matplotlib.axis_3">
    <g id="xtick_3">
     <g id="line2d_7">
      <g>
       <use xlink:href="#mb95cf6f71c" x="165.29875" y="179.399" style="stroke: #000000; stroke-width: 0.8"/>
      </g>
     </g>
     <g id="text_11">
      <!-- MSR -->
      <g transform="translate(138.6325 194.34525) scale(0.12 -0.12)">
       <use xlink:href="#TimesNewRomanPS-BoldMT-4d"/>
       <use xlink:href="#TimesNewRomanPS-BoldMT-53" x="94.384766"/>
       <use xlink:href="#TimesNewRomanPS-BoldMT-52" x="150"/>
      </g>
     </g>
    </g>
    <g id="xtick_4">
     <g id="line2d_8">
      <g>
       <use xlink:href="#mb95cf6f71c" x="203.293496" y="179.399" style="stroke: #000000; stroke-width: 0.8"/>
      </g>
     </g>
     <g id="text_12">
      <!-- SBO -->
      <g transform="translate(179.282246 194.34525) scale(0.12 -0.12)">
       <use xlink:href="#TimesNewRomanPS-BoldMT-53"/>
       <use xlink:href="#TimesNewRomanPS-BoldMT-42" x="55.615234"/>
       <use xlink:href="#TimesNewRomanPS-BoldMT-4f" x="122.314453"/>
      </g>
     </g>
    </g>
   </g>
   <g id="matplotlib.axis_4"/>
   <g id="LineCollection_6">
    <path d="M 158.649669 129.288551 
L 171.94783 129.288551 
" clip-path="url(#p416dfdbb9c)" style="fill: none; stroke: #000000; stroke-width: 2"/>
    <path d="M 196.644415 129.709245 
L 209.942576 129.709245 
" clip-path="url(#p416dfdbb9c)" style="fill: none; stroke: #000000; stroke-width: 2"/>
   </g>
   <g id="LineCollection_7">
    <path clip-path="url(#p416dfdbb9c)" style="fill: none; stroke: #1f77b4; stroke-width: 1.5"/>
    <path clip-path="url(#p416dfdbb9c)" style="fill: none; stroke: #1f77b4; stroke-width: 1.5"/>
   </g>
   <g id="LineCollection_8">
    <path d="M 158.649669 165.092389 
L 171.94783 165.092389 
" clip-path="url(#p416dfdbb9c)" style="fill: none; stroke: #1f77b4; stroke-width: 1.5"/>
    <path d="M 196.644415 165.120568 
L 209.942576 165.120568 
" clip-path="url(#p416dfdbb9c)" style="fill: none; stroke: #1f77b4; stroke-width: 1.5"/>
   </g>
   <g id="LineCollection_9">
    <path d="M 165.29875 165.092389 
L 165.29875 -1 
" clip-path="url(#p416dfdbb9c)" style="fill: none; stroke: #1f77b4; stroke-width: 1.5"/>
    <path d="M 203.293496 165.120568 
L 203.293496 -1 
" clip-path="url(#p416dfdbb9c)" style="fill: none; stroke: #1f77b4; stroke-width: 1.5"/>
   </g>
   <g id="LineCollection_10">
    <path d="M 158.649669 139.64085 
L 171.94783 139.64085 
" clip-path="url(#p416dfdbb9c)" style="fill: none; stroke-dasharray: 2,3.3; stroke-dashoffset: 0; stroke: #808080; stroke-width: 2"/>
    <path d="M 196.644415 139.445051 
L 209.942576 139.445051 
" clip-path="url(#p416dfdbb9c)" style="fill: none; stroke-dasharray: 2,3.3; stroke-dashoffset: 0; stroke: #808080; stroke-width: 2"/>
   </g>
   <g id="patch_8">
    <path d="M 148.771035 179.399 
L 148.771035 23.199 
" style="fill: none; stroke: #000000; stroke-width: 0.8; stroke-linejoin: miter; stroke-linecap: square"/>
   </g>
   <g id="patch_9">
    <path d="M 219.82121 179.399 
L 219.82121 23.199 
" style="fill: none; stroke: #000000; stroke-width: 0.8; stroke-linejoin: miter; stroke-linecap: square"/>
   </g>
   <g id="patch_10">
    <path d="M 148.771035 179.399 
L 219.82121 179.399 
" style="fill: none; stroke: #000000; stroke-width: 0.8; stroke-linejoin: miter; stroke-linecap: square"/>
   </g>
   <g id="patch_11">
    <path d="M 148.771035 23.199 
L 219.82121 23.199 
" style="fill: none; stroke: #000000; stroke-width: 0.8; stroke-linejoin: miter; stroke-linecap: square"/>
   </g>
   <g id="text_13">
    <!-- 281 -->
    <g transform="translate(157.79875 39.183952) scale(0.1 -0.1)">
     <use xlink:href="#TimesNewRomanPSMT-32"/>
     <use xlink:href="#TimesNewRomanPSMT-38" x="50"/>
     <use xlink:href="#TimesNewRomanPSMT-31" x="100"/>
    </g>
   </g>
   <g id="text_14">
    <!-- 306 -->
    <g transform="translate(195.793496 39.183952) scale(0.1 -0.1)">
     <defs>
      <path id="TimesNewRomanPSMT-36" d="M 2869 4325 
L 2869 4209 
Q 2456 4169 2195 4045 
Q 1934 3922 1679 3669 
Q 1425 3416 1258 3105 
Q 1091 2794 978 2366 
Q 1428 2675 1881 2675 
Q 2316 2675 2634 2325 
Q 2953 1975 2953 1425 
Q 2953 894 2631 456 
Q 2244 -75 1606 -75 
Q 1172 -75 869 213 
Q 275 772 275 1663 
Q 275 2231 503 2743 
Q 731 3256 1154 3653 
Q 1578 4050 1965 4187 
Q 2353 4325 2688 4325 
L 2869 4325 
z
M 925 2138 
Q 869 1716 869 1456 
Q 869 1156 980 804 
Q 1091 453 1309 247 
Q 1469 100 1697 100 
Q 1969 100 2183 356 
Q 2397 613 2397 1088 
Q 2397 1622 2184 2012 
Q 1972 2403 1581 2403 
Q 1463 2403 1327 2353 
Q 1191 2303 925 2138 
z
" transform="scale(0.015625)"/>
     </defs>
     <use xlink:href="#TimesNewRomanPSMT-33"/>
     <use xlink:href="#TimesNewRomanPSMT-30" x="50"/>
     <use xlink:href="#TimesNewRomanPSMT-36" x="100"/>
    </g>
   </g>
   <g id="text_15">
    <!-- 4 Vessels -->
    <g transform="translate(157.823748 17.199) scale(0.144 -0.144)">
     <defs>
      <path id="TimesNewRomanPSMT-34" d="M 2978 1563 
L 2978 1119 
L 2409 1119 
L 2409 0 
L 1894 0 
L 1894 1119 
L 100 1119 
L 100 1519 
L 2066 4325 
L 2409 4325 
L 2409 1563 
L 2978 1563 
z
M 1894 1563 
L 1894 3666 
L 406 1563 
L 1894 1563 
z
" transform="scale(0.015625)"/>
     </defs>
     <use xlink:href="#TimesNewRomanPSMT-34"/>
     <use xlink:href="#TimesNewRomanPSMT-20" x="50"/>
     <use xlink:href="#TimesNewRomanPSMT-56" x="73.25"/>
     <use xlink:href="#TimesNewRomanPSMT-65" x="134.341797"/>
     <use xlink:href="#TimesNewRomanPSMT-73" x="178.726562"/>
     <use xlink:href="#TimesNewRomanPSMT-73" x="217.642578"/>
     <use xlink:href="#TimesNewRomanPSMT-65" x="256.558594"/>
     <use xlink:href="#TimesNewRomanPSMT-6c" x="300.943359"/>
     <use xlink:href="#TimesNewRomanPSMT-73" x="328.726562"/>
    </g>
   </g>
  </g>
  <g id="axes_3">
   <g id="patch_12">
    <path d="M 245.350977 179.399 
L 316.401152 179.399 
L 316.401152 23.199 
L 245.350977 23.199 
z
" style="fill: #ffffff"/>
   </g>
   <g id="PolyCollection_5">
    <path d="M 263.816456 166.214157 
L 259.940927 166.214157 
L 258.898904 163.55156 
L 257.543588 160.888963 
L 255.902171 158.226366 
L 254.06912 155.563768 
L 252.209757 152.901171 
L 250.538493 150.238574 
L 249.274751 147.575977 
L 248.592362 144.91338 
L 248.58053 142.250782 
L 249.227061 139.588185 
L 250.425744 136.925588 
L 252.003794 134.262991 
L 253.760459 131.600394 
L 255.504932 128.937796 
L 257.08402 126.275199 
L 258.396844 123.612602 
L 259.399011 120.950005 
L 260.098382 118.287408 
L 260.542494 115.62481 
L 260.799285 112.962213 
L 260.937058 110.299616 
L 261.010983 107.637019 
L 261.059216 104.974421 
L 261.105447 102.311824 
L 261.16223 99.649227 
L 261.232233 96.98663 
L 261.309028 94.324033 
L 261.380434 91.661435 
L 261.434814 88.998838 
L 261.46731 86.336241 
L 261.482458 83.673644 
L 261.491971 81.011047 
L 261.50929 78.348449 
L 261.543661 75.685852 
L 261.596389 73.023255 
L 261.660879 70.360658 
L 261.726287 67.698061 
L 261.782612 65.035463 
L 261.824361 62.372866 
L 261.85122 59.710269 
L 261.866297 57.047672 
L 261.87371 54.385075 
L 261.87691 51.722477 
L 261.878125 49.05988 
L 261.878531 46.397283 
L 261.878651 43.734686 
L 261.878683 41.072089 
L 261.87869 38.409491 
L 261.878691 35.746894 
L 261.878692 33.084297 
L 261.878692 30.4217 
L 261.878692 27.759103 
L 261.878692 25.096505 
L 261.878692 22.433908 
L 261.878692 19.771311 
L 261.878692 17.108714 
L 261.878692 14.446117 
L 261.878692 11.783519 
L 261.878692 9.120922 
L 261.878691 6.458325 
L 261.878691 3.795728 
L 261.878688 1.133131 
L 261.878674 -1.529467 
L 261.878621 -4.192064 
L 261.878442 -6.854661 
L 261.877914 -9.517258 
L 261.876552 -12.179855 
L 261.873486 -14.842453 
L 261.867491 -17.50505 
L 261.857382 -20.167647 
L 261.842845 -22.830244 
L 261.825375 -25.492841 
L 261.808576 -28.155439 
L 261.797162 -30.818036 
L 261.794868 -33.480633 
L 261.802491 -36.14323 
L 261.817443 -38.805827 
L 261.835163 -41.468425 
L 261.851339 -44.131022 
L 261.863494 -46.793619 
L 261.871225 -49.456216 
L 261.875448 -52.118813 
L 261.877446 -54.781411 
L 261.878269 -57.444008 
L 261.878564 -60.106605 
L 261.878655 -62.769202 
L 261.878672 -65.431799 
L 261.878641 -68.094397 
L 261.878512 -70.756994 
L 261.878115 -73.419591 
L 261.877052 -76.082188 
L 261.874564 -78.744785 
L 261.869504 -81.407383 
L 261.860612 -84.06998 
L 261.847233 -86.732577 
L 261.830293 -89.395174 
L 261.812854 -92.057771 
L 261.799505 -94.720369 
L 261.794478 -97.382966 
L 261.962905 -97.382966 
L 261.962905 -97.382966 
L 261.957878 -94.720369 
L 261.944529 -92.057771 
L 261.92709 -89.395174 
L 261.91015 -86.732577 
L 261.896771 -84.06998 
L 261.887879 -81.407383 
L 261.88282 -78.744785 
L 261.880332 -76.082188 
L 261.879268 -73.419591 
L 261.878871 -70.756994 
L 261.878742 -68.094397 
L 261.878711 -65.431799 
L 261.878728 -62.769202 
L 261.878819 -60.106605 
L 261.879115 -57.444008 
L 261.879937 -54.781411 
L 261.881935 -52.118813 
L 261.886158 -49.456216 
L 261.893889 -46.793619 
L 261.906045 -44.131022 
L 261.92222 -41.468425 
L 261.93994 -38.805827 
L 261.954892 -36.14323 
L 261.962515 -33.480633 
L 261.960222 -30.818036 
L 261.948807 -28.155439 
L 261.932008 -25.492841 
L 261.914538 -22.830244 
L 261.900001 -20.167647 
L 261.889893 -17.50505 
L 261.883897 -14.842453 
L 261.880831 -12.179855 
L 261.879469 -9.517258 
L 261.878941 -6.854661 
L 261.878763 -4.192064 
L 261.878709 -1.529467 
L 261.878696 1.133131 
L 261.878692 3.795728 
L 261.878692 6.458325 
L 261.878692 9.120922 
L 261.878692 11.783519 
L 261.878692 14.446117 
L 261.878692 17.108714 
L 261.878692 19.771311 
L 261.878692 22.433908 
L 261.878692 25.096505 
L 261.878692 27.759103 
L 261.878692 30.4217 
L 261.878692 33.084297 
L 261.878692 35.746894 
L 261.878693 38.409491 
L 261.878701 41.072089 
L 261.878732 43.734686 
L 261.878852 46.397283 
L 261.879258 49.05988 
L 261.880474 51.722477 
L 261.883673 54.385075 
L 261.891086 57.047672 
L 261.906163 59.710269 
L 261.933022 62.372866 
L 261.974771 65.035463 
L 262.031096 67.698061 
L 262.096504 70.360658 
L 262.160994 73.023255 
L 262.213722 75.685852 
L 262.248093 78.348449 
L 262.265412 81.011047 
L 262.274925 83.673644 
L 262.290073 86.336241 
L 262.322569 88.998838 
L 262.376949 91.661435 
L 262.448355 94.324033 
L 262.52515 96.98663 
L 262.595153 99.649227 
L 262.651936 102.311824 
L 262.698167 104.974421 
L 262.7464 107.637019 
L 262.820326 110.299616 
L 262.958098 112.962213 
L 263.21489 115.62481 
L 263.659001 118.287408 
L 264.358372 120.950005 
L 265.36054 123.612602 
L 266.673363 126.275199 
L 268.252451 128.937796 
L 269.996924 131.600394 
L 271.753589 134.262991 
L 273.331639 136.925588 
L 274.530322 139.588185 
L 275.176853 142.250782 
L 275.165021 144.91338 
L 274.482632 147.575977 
L 273.21889 150.238574 
L 271.547627 152.901171 
L 269.688263 155.563768 
L 267.855212 158.226366 
L 266.213795 160.888963 
L 264.858479 163.55156 
L 263.816456 166.214157 
z
" clip-path="url(#pe305f68345)" style="fill: #0080ff; fill-opacity: 0.3"/>
   </g>
   <g id="PolyCollection_6">
    <path d="M 302.142237 167.077279 
L 297.604638 167.077279 
L 296.866284 164.885416 
L 295.976977 162.693552 
L 294.938829 160.501689 
L 293.769264 158.309825 
L 292.504091 156.117961 
L 291.197869 153.926098 
L 289.920801 151.734234 
L 288.752278 149.54237 
L 287.772116 147.350507 
L 287.051077 145.158643 
L 286.642343 142.96678 
L 286.575276 140.774916 
L 286.852194 138.583052 
L 287.448422 136.391189 
L 288.315426 134.199325 
L 289.386564 132.007461 
L 290.584689 129.815598 
L 291.830681 127.623734 
L 293.051738 125.431871 
L 294.188309 123.240007 
L 295.198671 121.048143 
L 296.060572 118.85628 
L 296.769915 116.664416 
L 297.337051 114.472552 
L 297.781713 112.280689 
L 298.127751 110.088825 
L 298.3987 107.896962 
L 298.614755 105.705098 
L 298.791291 103.513234 
L 298.938687 101.321371 
L 299.063073 99.129507 
L 299.167583 96.937643 
L 299.253786 94.74578 
L 299.323013 92.553916 
L 299.377321 90.362053 
L 299.419905 88.170189 
L 299.454876 85.978325 
L 299.486529 83.786462 
L 299.518389 81.594598 
L 299.552411 79.402734 
L 299.588651 77.210871 
L 299.625537 75.019007 
L 299.660595 72.827144 
L 299.691359 70.63528 
L 299.716127 68.443416 
L 299.734325 66.251553 
L 299.746442 64.059689 
L 299.753663 61.867825 
L 299.757394 59.675962 
L 299.758886 57.484098 
L 299.759042 55.292235 
L 299.758401 53.100371 
L 299.757203 50.908507 
L 299.755453 48.716644 
L 299.752938 46.52478 
L 299.749221 44.332916 
L 299.743667 42.141053 
L 299.735537 39.949189 
L 299.724184 37.757326 
L 299.709307 35.565462 
L 299.691202 33.373598 
L 299.67094 31.181735 
L 299.650375 28.989871 
L 299.631938 26.798007 
L 299.618203 24.606144 
L 299.61129 22.41428 
L 299.61227 20.222417 
L 299.620782 18.030553 
L 299.63502 15.838689 
L 299.652172 13.646826 
L 299.669181 11.454962 
L 299.683596 9.263098 
L 299.694221 7.071235 
L 299.701347 4.879371 
L 299.706495 2.687508 
L 299.711806 0.495644 
L 299.719272 -1.69622 
L 299.730104 -3.888083 
L 299.744378 -6.079947 
L 299.761051 -8.271811 
L 299.778262 -10.463674 
L 299.7938 -12.655538 
L 299.805578 -14.847401 
L 299.812008 -17.039265 
L 299.812241 -19.231129 
L 299.806251 -21.422992 
L 299.794822 -23.614856 
L 299.779415 -25.80672 
L 299.761966 -27.998583 
L 299.744598 -30.190447 
L 299.729304 -32.38231 
L 299.717654 -34.574174 
L 299.710605 -36.766038 
L 299.708454 -38.957901 
L 299.710952 -41.149765 
L 299.717504 -43.341629 
L 299.727385 -45.533492 
L 299.739887 -47.725356 
L 299.754352 -49.917219 
L 299.992524 -49.917219 
L 299.992524 -49.917219 
L 300.006988 -47.725356 
L 300.01949 -45.533492 
L 300.029372 -43.341629 
L 300.035924 -41.149765 
L 300.038421 -38.957901 
L 300.036271 -36.766038 
L 300.029221 -34.574174 
L 300.017571 -32.38231 
L 300.002277 -30.190447 
L 299.984909 -27.998583 
L 299.96746 -25.80672 
L 299.952054 -23.614856 
L 299.940624 -21.422992 
L 299.934635 -19.231129 
L 299.934867 -17.039265 
L 299.941297 -14.847401 
L 299.953075 -12.655538 
L 299.968613 -10.463674 
L 299.985824 -8.271811 
L 300.002497 -6.079947 
L 300.016771 -3.888083 
L 300.027603 -1.69622 
L 300.03507 0.495644 
L 300.04038 2.687508 
L 300.045528 4.879371 
L 300.052654 7.071235 
L 300.063279 9.263098 
L 300.077694 11.454962 
L 300.094703 13.646826 
L 300.111855 15.838689 
L 300.126093 18.030553 
L 300.134605 20.222417 
L 300.135585 22.41428 
L 300.128672 24.606144 
L 300.114937 26.798007 
L 300.0965 28.989871 
L 300.075935 31.181735 
L 300.055673 33.373598 
L 300.037569 35.565462 
L 300.022691 37.757326 
L 300.011338 39.949189 
L 300.003208 42.141053 
L 299.997654 44.332916 
L 299.993938 46.52478 
L 299.991422 48.716644 
L 299.989672 50.908507 
L 299.988474 53.100371 
L 299.987833 55.292235 
L 299.98799 57.484098 
L 299.989481 59.675962 
L 299.993212 61.867825 
L 300.000433 64.059689 
L 300.012551 66.251553 
L 300.030748 68.443416 
L 300.055516 70.63528 
L 300.08628 72.827144 
L 300.121338 75.019007 
L 300.158224 77.210871 
L 300.194465 79.402734 
L 300.228486 81.594598 
L 300.260346 83.786462 
L 300.292 85.978325 
L 300.32697 88.170189 
L 300.369554 90.362053 
L 300.423862 92.553916 
L 300.493089 94.74578 
L 300.579292 96.937643 
L 300.683802 99.129507 
L 300.808188 101.321371 
L 300.955585 103.513234 
L 301.13212 105.705098 
L 301.348175 107.896962 
L 301.619124 110.088825 
L 301.965162 112.280689 
L 302.409824 114.472552 
L 302.97696 116.664416 
L 303.686303 118.85628 
L 304.548204 121.048143 
L 305.558567 123.240007 
L 306.695138 125.431871 
L 307.916194 127.623734 
L 309.162186 129.815598 
L 310.360311 132.007461 
L 311.431449 134.199325 
L 312.298453 136.391189 
L 312.894681 138.583052 
L 313.171599 140.774916 
L 313.104532 142.96678 
L 312.695799 145.158643 
L 311.974759 147.350507 
L 310.994597 149.54237 
L 309.826074 151.734234 
L 308.549006 153.926098 
L 307.242784 156.117961 
L 305.977611 158.309825 
L 304.808046 160.501689 
L 303.769898 162.693552 
L 302.880591 164.885416 
L 302.142237 167.077279 
z
" clip-path="url(#pe305f68345)" style="fill: #ff8000; fill-opacity: 0.3"/>
   </g>
   <g id="matplotlib.axis_5">
    <g id="xtick_5">
     <g id="line2d_9">
      <g>
       <use xlink:href="#mb95cf6f71c" x="261.878692" y="179.399" style="stroke: #000000; stroke-width: 0.8"/>
      </g>
     </g>
     <g id="text_16">
      <!-- MSR -->
      <g transform="translate(235.212442 194.34525) scale(0.12 -0.12)">
       <use xlink:href="#TimesNewRomanPS-BoldMT-4d"/>
       <use xlink:href="#TimesNewRomanPS-BoldMT-53" x="94.384766"/>
       <use xlink:href="#TimesNewRomanPS-BoldMT-52" x="150"/>
      </g>
     </g>
    </g>
    <g id="xtick_6">
     <g id="line2d_10">
      <g>
       <use xlink:href="#mb95cf6f71c" x="299.873438" y="179.399" style="stroke: #000000; stroke-width: 0.8"/>
      </g>
     </g>
     <g id="text_17">
      <!-- SBO -->
      <g transform="translate(275.862188 194.34525) scale(0.12 -0.12)">
       <use xlink:href="#TimesNewRomanPS-BoldMT-53"/>
       <use xlink:href="#TimesNewRomanPS-BoldMT-42" x="55.615234"/>
       <use xlink:href="#TimesNewRomanPS-BoldMT-4f" x="122.314453"/>
      </g>
     </g>
    </g>
   </g>
   <g id="matplotlib.axis_6"/>
   <g id="LineCollection_11">
    <path d="M 255.229611 138.657694 
L 268.527772 138.657694 
" clip-path="url(#pe305f68345)" style="fill: none; stroke: #000000; stroke-width: 2"/>
    <path d="M 293.224357 134.053094 
L 306.522518 134.053094 
" clip-path="url(#pe305f68345)" style="fill: none; stroke: #000000; stroke-width: 2"/>
   </g>
   <g id="LineCollection_12">
    <path clip-path="url(#pe305f68345)" style="fill: none; stroke: #1f77b4; stroke-width: 1.5"/>
    <path clip-path="url(#pe305f68345)" style="fill: none; stroke: #1f77b4; stroke-width: 1.5"/>
   </g>
   <g id="LineCollection_13">
    <path d="M 255.229611 166.214157 
L 268.527772 166.214157 
" clip-path="url(#pe305f68345)" style="fill: none; stroke: #1f77b4; stroke-width: 1.5"/>
    <path d="M 293.224357 167.077279 
L 306.522518 167.077279 
" clip-path="url(#pe305f68345)" style="fill: none; stroke: #1f77b4; stroke-width: 1.5"/>
   </g>
   <g id="LineCollection_14">
    <path d="M 261.878692 166.214157 
L 261.878692 -1 
" clip-path="url(#pe305f68345)" style="fill: none; stroke: #1f77b4; stroke-width: 1.5"/>
    <path d="M 299.873438 167.077279 
L 299.873438 -1 
" clip-path="url(#pe305f68345)" style="fill: none; stroke: #1f77b4; stroke-width: 1.5"/>
   </g>
   <g id="LineCollection_15">
    <path d="M 255.229611 142.567925 
L 268.527772 142.567925 
" clip-path="url(#pe305f68345)" style="fill: none; stroke-dasharray: 2,3.3; stroke-dashoffset: 0; stroke: #808080; stroke-width: 2"/>
    <path d="M 293.224357 139.865571 
L 306.522518 139.865571 
" clip-path="url(#pe305f68345)" style="fill: none; stroke-dasharray: 2,3.3; stroke-dashoffset: 0; stroke: #808080; stroke-width: 2"/>
   </g>
   <g id="patch_13">
    <path d="M 245.350977 179.399 
L 245.350977 23.199 
" style="fill: none; stroke: #000000; stroke-width: 0.8; stroke-linejoin: miter; stroke-linecap: square"/>
   </g>
   <g id="patch_14">
    <path d="M 316.401152 179.399 
L 316.401152 23.199 
" style="fill: none; stroke: #000000; stroke-width: 0.8; stroke-linejoin: miter; stroke-linecap: square"/>
   </g>
   <g id="patch_15">
    <path d="M 245.350977 179.399 
L 316.401152 179.399 
" style="fill: none; stroke: #000000; stroke-width: 0.8; stroke-linejoin: miter; stroke-linecap: square"/>
   </g>
   <g id="patch_16">
    <path d="M 245.350977 23.199 
L 316.401152 23.199 
" style="fill: none; stroke: #000000; stroke-width: 0.8; stroke-linejoin: miter; stroke-linecap: square"/>
   </g>
   <g id="text_18">
    <!-- 265 -->
    <g transform="translate(254.378692 39.183952) scale(0.1 -0.1)">
     <use xlink:href="#TimesNewRomanPSMT-32"/>
     <use xlink:href="#TimesNewRomanPSMT-36" x="50"/>
     <use xlink:href="#TimesNewRomanPSMT-35" x="100"/>
    </g>
   </g>
   <g id="text_19">
    <!-- 295 -->
    <g transform="translate(292.373438 39.183952) scale(0.1 -0.1)">
     <use xlink:href="#TimesNewRomanPSMT-32"/>
     <use xlink:href="#TimesNewRomanPSMT-39" x="50"/>
     <use xlink:href="#TimesNewRomanPSMT-35" x="100"/>
    </g>
   </g>
   <g id="text_20">
    <!-- 5 Vessels -->
    <g transform="translate(254.40369 17.199) scale(0.144 -0.144)">
     <use xlink:href="#TimesNewRomanPSMT-35"/>
     <use xlink:href="#TimesNewRomanPSMT-20" x="50"/>
     <use xlink:href="#TimesNewRomanPSMT-56" x="73.25"/>
     <use xlink:href="#TimesNewRomanPSMT-65" x="134.341797"/>
     <use xlink:href="#TimesNewRomanPSMT-73" x="178.726562"/>
     <use xlink:href="#TimesNewRomanPSMT-73" x="217.642578"/>
     <use xlink:href="#TimesNewRomanPSMT-65" x="256.558594"/>
     <use xlink:href="#TimesNewRomanPSMT-6c" x="300.943359"/>
     <use xlink:href="#TimesNewRomanPSMT-73" x="328.726562"/>
    </g>
   </g>
  </g>
  <g id="axes_4">
   <g id="patch_17">
    <path d="M 341.930919 179.399 
L 412.981094 179.399 
L 412.981094 23.199 
L 341.930919 23.199 
z
" style="fill: #ffffff"/>
   </g>
   <g id="PolyCollection_7">
    <path d="M 361.728271 166.526863 
L 355.188996 166.526863 
L 353.424737 163.037986 
L 351.300742 159.549109 
L 349.040016 156.060231 
L 347.001805 152.571354 
L 345.601773 149.082477 
L 345.160472 145.593599 
L 345.760735 142.104722 
L 347.213494 138.615845 
L 349.157149 135.126967 
L 351.216244 131.63809 
L 353.116632 128.149212 
L 354.712442 124.660335 
L 355.955053 121.171458 
L 356.855962 117.68258 
L 357.464525 114.193703 
L 357.850822 110.704826 
L 358.085438 107.215948 
L 358.223306 103.727071 
L 358.300104 100.238194 
L 358.338423 96.749316 
L 358.354426 93.260439 
L 358.360246 89.771562 
L 358.364027 86.282684 
L 358.37034 82.793807 
L 358.380649 79.30493 
L 358.392879 75.816052 
L 358.401386 72.327175 
L 358.399286 68.838298 
L 358.382806 65.34942 
L 358.354864 61.860543 
L 358.324996 58.371666 
L 358.304995 54.882788 
L 358.302914 51.393911 
L 358.319451 47.905034 
L 358.348714 44.416156 
L 358.381967 40.927279 
L 358.411587 37.438402 
L 358.433392 33.949524 
L 358.446879 30.460647 
L 358.453915 26.97177 
L 358.457008 23.482892 
L 358.458141 19.994015 
L 358.458436 16.505137 
L 358.458284 13.01626 
L 358.457502 9.527383 
L 358.455329 6.038505 
L 358.450458 2.549628 
L 358.441571 -0.939249 
L 358.428592 -4.428127 
L 358.414014 -7.917004 
L 358.402726 -11.405881 
L 358.399541 -14.894759 
L 358.405944 -18.383636 
L 358.419002 -21.872513 
L 358.433487 -25.361391 
L 358.445173 -28.850268 
L 358.452556 -32.339145 
L 358.456318 -35.828023 
L 358.457889 -39.3169 
L 358.458432 -42.805777 
L 358.458587 -46.294655 
L 358.458624 -49.783532 
L 358.458632 -53.272409 
L 358.458633 -56.761287 
L 358.458633 -60.250164 
L 358.458633 -63.739041 
L 358.458633 -67.227919 
L 358.458631 -70.716796 
L 358.45862 -74.205673 
L 358.458569 -77.694551 
L 358.458363 -81.183428 
L 358.457671 -84.672305 
L 358.455745 -88.161183 
L 358.451322 -91.65006 
L 358.443021 -95.138938 
L 358.43051 -98.627815 
L 358.415899 -102.116692 
L 358.403853 -105.60557 
L 358.399397 -109.094447 
L 358.404597 -112.583324 
L 358.417051 -116.072202 
L 358.43164 -119.561079 
L 358.443851 -123.049956 
L 358.451805 -126.538834 
L 358.455972 -130.027711 
L 358.457758 -133.516588 
L 358.45839 -137.005466 
L 358.458574 -140.494343 
L 358.45861 -143.98322 
L 358.458571 -147.472098 
L 358.458377 -150.960975 
L 358.457715 -154.449852 
L 358.45586 -157.93873 
L 358.451566 -161.427607 
L 358.44344 -164.916484 
L 358.431077 -168.405362 
L 358.416473 -171.894239 
L 358.404219 -175.383116 
L 358.399389 -178.871994 
L 358.517878 -178.871994 
L 358.517878 -178.871994 
L 358.513048 -175.383116 
L 358.500793 -171.894239 
L 358.486189 -168.405362 
L 358.473827 -164.916484 
L 358.4657 -161.427607 
L 358.461406 -157.93873 
L 358.459551 -154.449852 
L 358.45889 -150.960975 
L 358.458695 -147.472098 
L 358.458656 -143.98322 
L 358.458692 -140.494343 
L 358.458876 -137.005466 
L 358.459508 -133.516588 
L 358.461294 -130.027711 
L 358.465462 -126.538834 
L 358.473415 -123.049956 
L 358.485626 -119.561079 
L 358.500215 -116.072202 
L 358.51267 -112.583324 
L 358.51787 -109.094447 
L 358.513413 -105.60557 
L 358.501368 -102.116692 
L 358.486756 -98.627815 
L 358.474246 -95.138938 
L 358.465945 -91.65006 
L 358.461522 -88.161183 
L 358.459596 -84.672305 
L 358.458904 -81.183428 
L 358.458697 -77.694551 
L 358.458646 -74.205673 
L 358.458635 -70.716796 
L 358.458634 -67.227919 
L 358.458633 -63.739041 
L 358.458633 -60.250164 
L 358.458633 -56.761287 
L 358.458635 -53.272409 
L 358.458642 -49.783532 
L 358.458679 -46.294655 
L 358.458835 -42.805777 
L 358.459377 -39.3169 
L 358.460948 -35.828023 
L 358.464711 -32.339145 
L 358.472093 -28.850268 
L 358.48378 -25.361391 
L 358.498264 -21.872513 
L 358.511322 -18.383636 
L 358.517725 -14.894759 
L 358.51454 -11.405881 
L 358.503253 -7.917004 
L 358.488674 -4.428127 
L 358.475695 -0.939249 
L 358.466808 2.549628 
L 358.461938 6.038505 
L 358.459764 9.527383 
L 358.458982 13.01626 
L 358.458831 16.505137 
L 358.459125 19.994015 
L 358.460259 23.482892 
L 358.463352 26.97177 
L 358.470388 30.460647 
L 358.483875 33.949524 
L 358.50568 37.438402 
L 358.535299 40.927279 
L 358.568552 44.416156 
L 358.597816 47.905034 
L 358.614353 51.393911 
L 358.612271 54.882788 
L 358.592271 58.371666 
L 358.562402 61.860543 
L 358.534461 65.34942 
L 358.51798 68.838298 
L 358.515881 72.327175 
L 358.524388 75.816052 
L 358.536618 79.30493 
L 358.546927 82.793807 
L 358.55324 86.282684 
L 358.557021 89.771562 
L 358.56284 93.260439 
L 358.578844 96.749316 
L 358.617162 100.238194 
L 358.69396 103.727071 
L 358.831828 107.215948 
L 359.066445 110.704826 
L 359.452741 114.193703 
L 360.061305 117.68258 
L 360.962214 121.171458 
L 362.204825 124.660335 
L 363.800635 128.149212 
L 365.701022 131.63809 
L 367.760118 135.126967 
L 369.703773 138.615845 
L 371.156531 142.104722 
L 371.756794 145.593599 
L 371.315493 149.082477 
L 369.915462 152.571354 
L 367.87725 156.060231 
L 365.616525 159.549109 
L 363.49253 163.037986 
L 361.728271 166.526863 
z
" clip-path="url(#pce4b6c244c)" style="fill: #0080ff; fill-opacity: 0.3"/>
   </g>
   <g id="PolyCollection_8">
    <path d="M 401.086172 163.406523 
L 391.820586 163.406523 
L 389.550192 159.900277 
L 387.185335 156.394032 
L 385.121984 152.887786 
L 383.710173 149.381541 
L 383.155218 145.875295 
L 383.489045 142.36905 
L 384.605413 138.862804 
L 386.314421 135.356559 
L 388.373338 131.850313 
L 390.498673 128.344068 
L 392.404078 124.837822 
L 393.878337 121.331577 
L 394.852039 117.825331 
L 395.395597 114.319086 
L 395.653888 110.81284 
L 395.77026 107.306595 
L 395.841674 103.800349 
L 395.911788 100.294104 
L 395.987271 96.787859 
L 396.058675 93.281613 
L 396.114077 89.775368 
L 396.144022 86.269122 
L 396.143029 82.762877 
L 396.11334 79.256631 
L 396.07056 75.750386 
L 396.042848 72.24414 
L 396.057082 68.737895 
L 396.120222 65.231649 
L 396.213709 61.725404 
L 396.307124 58.219158 
L 396.377724 54.712913 
L 396.419139 51.206667 
L 396.436573 47.700422 
L 396.437886 44.194176 
L 396.429067 40.687931 
L 396.41508 37.181685 
L 396.401898 33.67544 
L 396.395778 30.169194 
L 396.399909 26.662949 
L 396.412216 23.156704 
L 396.427102 19.650458 
L 396.439469 16.144213 
L 396.447273 12.637967 
L 396.451156 9.131722 
L 396.452708 5.625476 
L 396.45321 2.119231 
L 396.453337 -1.387015 
L 396.45333 -4.89326 
L 396.453171 -8.399506 
L 396.452548 -11.905751 
L 396.4506 -15.411997 
L 396.445596 -18.918242 
L 396.435077 -22.424488 
L 396.417127 -25.930733 
L 396.392702 -29.436979 
L 396.367294 -32.943224 
L 396.349597 -36.44947 
L 396.346902 -39.955715 
L 396.360392 -43.461961 
L 396.384332 -46.968206 
L 396.409883 -50.474451 
L 396.430201 -53.980697 
L 396.442966 -57.486942 
L 396.449447 -60.993188 
L 396.452135 -64.499433 
L 396.45305 -68.005679 
L 396.453307 -71.511924 
L 396.453366 -75.01817 
L 396.453377 -78.524415 
L 396.453379 -82.030661 
L 396.453379 -85.536906 
L 396.453379 -89.043152 
L 396.453379 -92.549397 
L 396.453379 -96.055643 
L 396.453379 -99.561888 
L 396.453379 -103.068134 
L 396.453379 -106.574379 
L 396.453379 -110.080625 
L 396.453379 -113.58687 
L 396.453379 -117.093116 
L 396.453379 -120.599361 
L 396.453379 -124.105606 
L 396.453379 -127.611852 
L 396.453379 -131.118097 
L 396.453379 -134.624343 
L 396.453379 -138.130588 
L 396.453379 -141.636834 
L 396.453379 -145.143079 
L 396.453374 -148.649325 
L 396.45335 -152.15557 
L 396.453235 -155.661816 
L 396.452792 -159.168061 
L 396.451397 -162.674307 
L 396.447829 -166.180552 
L 396.440489 -169.686798 
L 396.428554 -173.193043 
L 396.413734 -176.699289 
L 396.400878 -180.205534 
L 396.395726 -183.71178 
L 396.511033 -183.71178 
L 396.511033 -183.71178 
L 396.50588 -180.205534 
L 396.493024 -176.699289 
L 396.478204 -173.193043 
L 396.46627 -169.686798 
L 396.45893 -166.180552 
L 396.455361 -162.674307 
L 396.453966 -159.168061 
L 396.453523 -155.661816 
L 396.453409 -152.15557 
L 396.453384 -148.649325 
L 396.45338 -145.143079 
L 396.453379 -141.636834 
L 396.453379 -138.130588 
L 396.453379 -134.624343 
L 396.453379 -131.118097 
L 396.453379 -127.611852 
L 396.453379 -124.105606 
L 396.453379 -120.599361 
L 396.453379 -117.093116 
L 396.453379 -113.58687 
L 396.453379 -110.080625 
L 396.453379 -106.574379 
L 396.453379 -103.068134 
L 396.453379 -99.561888 
L 396.453379 -96.055643 
L 396.453379 -92.549397 
L 396.453379 -89.043152 
L 396.453379 -85.536906 
L 396.45338 -82.030661 
L 396.453381 -78.524415 
L 396.453393 -75.01817 
L 396.453452 -71.511924 
L 396.453709 -68.005679 
L 396.454624 -64.499433 
L 396.457312 -60.993188 
L 396.463793 -57.486942 
L 396.476557 -53.980697 
L 396.496876 -50.474451 
L 396.522426 -46.968206 
L 396.546367 -43.461961 
L 396.559856 -39.955715 
L 396.557161 -36.44947 
L 396.539465 -32.943224 
L 396.514057 -29.436979 
L 396.489631 -25.930733 
L 396.471682 -22.424488 
L 396.461162 -18.918242 
L 396.456158 -15.411997 
L 396.45421 -11.905751 
L 396.453588 -8.399506 
L 396.453428 -4.89326 
L 396.453422 -1.387015 
L 396.453548 2.119231 
L 396.45405 5.625476 
L 396.455602 9.131722 
L 396.459486 12.637967 
L 396.46729 16.144213 
L 396.479657 19.650458 
L 396.494542 23.156704 
L 396.50685 26.662949 
L 396.510981 30.169194 
L 396.50486 33.67544 
L 396.491678 37.181685 
L 396.477691 40.687931 
L 396.468872 44.194176 
L 396.470185 47.700422 
L 396.48762 51.206667 
L 396.529034 54.712913 
L 396.599635 58.219158 
L 396.69305 61.725404 
L 396.786537 65.231649 
L 396.849677 68.737895 
L 396.86391 72.24414 
L 396.836198 75.750386 
L 396.793418 79.256631 
L 396.763729 82.762877 
L 396.762737 86.269122 
L 396.792681 89.775368 
L 396.848083 93.281613 
L 396.919487 96.787859 
L 396.994971 100.294104 
L 397.065085 103.800349 
L 397.136498 107.306595 
L 397.252871 110.81284 
L 397.511161 114.319086 
L 398.054719 117.825331 
L 399.028421 121.331577 
L 400.502681 124.837822 
L 402.408085 128.344068 
L 404.53342 131.850313 
L 406.592338 135.356559 
L 408.301346 138.862804 
L 409.417714 142.36905 
L 409.75154 145.875295 
L 409.196586 149.381541 
L 407.784775 152.887786 
L 405.721424 156.394032 
L 403.356567 159.900277 
L 401.086172 163.406523 
z
" clip-path="url(#pce4b6c244c)" style="fill: #ff8000; fill-opacity: 0.3"/>
   </g>
   <g id="matplotlib.axis_7">
    <g id="xtick_7">
     <g id="line2d_11">
      <g>
       <use xlink:href="#mb95cf6f71c" x="358.458633" y="179.399" style="stroke: #000000; stroke-width: 0.8"/>
      </g>
     </g>
     <g id="text_21">
      <!-- MSR -->
      <g transform="translate(331.792383 194.34525) scale(0.12 -0.12)">
       <use xlink:href="#TimesNewRomanPS-BoldMT-4d"/>
       <use xlink:href="#TimesNewRomanPS-BoldMT-53" x="94.384766"/>
       <use xlink:href="#TimesNewRomanPS-BoldMT-52" x="150"/>
      </g>
     </g>
    </g>
    <g id="xtick_8">
     <g id="line2d_12">
      <g>
       <use xlink:href="#mb95cf6f71c" x="396.453379" y="179.399" style="stroke: #000000; stroke-width: 0.8"/>
      </g>
     </g>
     <g id="text_22">
      <!-- SBO -->
      <g transform="translate(372.442129 194.34525) scale(0.12 -0.12)">
       <use xlink:href="#TimesNewRomanPS-BoldMT-53"/>
       <use xlink:href="#TimesNewRomanPS-BoldMT-42" x="55.615234"/>
       <use xlink:href="#TimesNewRomanPS-BoldMT-4f" x="122.314453"/>
      </g>
     </g>
    </g>
   </g>
   <g id="matplotlib.axis_8"/>
   <g id="LineCollection_16">
    <path d="M 351.809553 141.54691 
L 365.107714 141.54691 
" clip-path="url(#pce4b6c244c)" style="fill: none; stroke: #000000; stroke-width: 2"/>
    <path d="M 389.804299 139.617054 
L 403.10246 139.617054 
" clip-path="url(#pce4b6c244c)" style="fill: none; stroke: #000000; stroke-width: 2"/>
   </g>
   <g id="LineCollection_17">
    <path clip-path="url(#pce4b6c244c)" style="fill: none; stroke: #1f77b4; stroke-width: 1.5"/>
    <path clip-path="url(#pce4b6c244c)" style="fill: none; stroke: #1f77b4; stroke-width: 1.5"/>
   </g>
   <g id="LineCollection_18">
    <path d="M 351.809553 166.526863 
L 365.107714 166.526863 
" clip-path="url(#pce4b6c244c)" style="fill: none; stroke: #1f77b4; stroke-width: 1.5"/>
    <path d="M 389.804299 163.406523 
L 403.10246 163.406523 
" clip-path="url(#pce4b6c244c)" style="fill: none; stroke: #1f77b4; stroke-width: 1.5"/>
   </g>
   <g id="LineCollection_19">
    <path d="M 358.458633 166.526863 
L 358.458633 -1 
" clip-path="url(#pce4b6c244c)" style="fill: none; stroke: #1f77b4; stroke-width: 1.5"/>
    <path d="M 396.453379 163.406523 
L 396.453379 -1 
" clip-path="url(#pce4b6c244c)" style="fill: none; stroke: #1f77b4; stroke-width: 1.5"/>
   </g>
   <g id="LineCollection_20">
    <path d="M 351.809553 145.274275 
L 365.107714 145.274275 
" clip-path="url(#pce4b6c244c)" style="fill: none; stroke-dasharray: 2,3.3; stroke-dashoffset: 0; stroke: #808080; stroke-width: 2"/>
    <path d="M 389.804299 144.411312 
L 403.10246 144.411312 
" clip-path="url(#pce4b6c244c)" style="fill: none; stroke-dasharray: 2,3.3; stroke-dashoffset: 0; stroke: #808080; stroke-width: 2"/>
   </g>
   <g id="patch_18">
    <path d="M 341.930919 179.399 
L 341.930919 23.199 
" style="fill: none; stroke: #000000; stroke-width: 0.8; stroke-linejoin: miter; stroke-linecap: square"/>
   </g>
   <g id="patch_19">
    <path d="M 412.981094 179.399 
L 412.981094 23.199 
" style="fill: none; stroke: #000000; stroke-width: 0.8; stroke-linejoin: miter; stroke-linecap: square"/>
   </g>
   <g id="patch_20">
    <path d="M 341.930919 179.399 
L 412.981094 179.399 
" style="fill: none; stroke: #000000; stroke-width: 0.8; stroke-linejoin: miter; stroke-linecap: square"/>
   </g>
   <g id="patch_21">
    <path d="M 341.930919 23.199 
L 412.981094 23.199 
" style="fill: none; stroke: #000000; stroke-width: 0.8; stroke-linejoin: miter; stroke-linecap: square"/>
   </g>
   <g id="text_23">
    <!-- 348 -->
    <g transform="translate(350.958633 39.183952) scale(0.1 -0.1)">
     <use xlink:href="#TimesNewRomanPSMT-33"/>
     <use xlink:href="#TimesNewRomanPSMT-34" x="50"/>
     <use xlink:href="#TimesNewRomanPSMT-38" x="100"/>
    </g>
   </g>
   <g id="text_24">
    <!-- 389 -->
    <g transform="translate(388.953379 39.183952) scale(0.1 -0.1)">
     <use xlink:href="#TimesNewRomanPSMT-33"/>
     <use xlink:href="#TimesNewRomanPSMT-38" x="50"/>
     <use xlink:href="#TimesNewRomanPSMT-39" x="100"/>
    </g>
   </g>
   <g id="text_25">
    <!-- 6 Vessels -->
    <g transform="translate(350.983631 17.199) scale(0.144 -0.144)">
     <use xlink:href="#TimesNewRomanPSMT-36"/>
     <use xlink:href="#TimesNewRomanPSMT-20" x="50"/>
     <use xlink:href="#TimesNewRomanPSMT-56" x="73.25"/>
     <use xlink:href="#TimesNewRomanPSMT-65" x="134.341797"/>
     <use xlink:href="#TimesNewRomanPSMT-73" x="178.726562"/>
     <use xlink:href="#TimesNewRomanPSMT-73" x="217.642578"/>
     <use xlink:href="#TimesNewRomanPSMT-65" x="256.558594"/>
     <use xlink:href="#TimesNewRomanPSMT-6c" x="300.943359"/>
     <use xlink:href="#TimesNewRomanPSMT-73" x="328.726562"/>
    </g>
   </g>
  </g>
 </g>
 <defs>
  <clipPath id="p293e83045e">
   <rect x="52.191094" y="23.199" width="71.050175" height="156.2"/>
  </clipPath>
  <clipPath id="p416dfdbb9c">
   <rect x="148.771035" y="23.199" width="71.050175" height="156.2"/>
  </clipPath>
  <clipPath id="pe305f68345">
   <rect x="245.350977" y="23.199" width="71.050175" height="156.2"/>
  </clipPath>
  <clipPath id="pce4b6c244c">
   <rect x="341.930919" y="23.199" width="71.050175" height="156.2"/>
  </clipPath>
 </defs>
</svg>
