<?xml version="1.0" encoding="utf-8" standalone="no"?>
<!DOCTYPE svg PUBLIC "-//W3C//DTD SVG 1.1//EN"
  "http://www.w3.org/Graphics/SVG/1.1/DTD/svg11.dtd">
<svg xmlns:xlink="http://www.w3.org/1999/xlink" width="797.51952pt" height="215.03952pt" viewBox="0 0 797.51952 215.03952" xmlns="http://www.w3.org/2000/svg" version="1.1">
 <metadata>
  <rdf:RDF xmlns:dc="http://purl.org/dc/elements/1.1/" xmlns:cc="http://creativecommons.org/ns#" xmlns:rdf="http://www.w3.org/1999/02/22-rdf-syntax-ns#">
   <cc:Work>
    <dc:type rdf:resource="http://purl.org/dc/dcmitype/StillImage"/>
    <dc:date>2025-02-07T17:02:58.414455</dc:date>
    <dc:format>image/svg+xml</dc:format>
    <dc:creator>
     <cc:Agent>
      <dc:title>Matplotlib v3.10.0, https://matplotlib.org/</dc:title>
     </cc:Agent>
    </dc:creator>
   </cc:Work>
  </rdf:RDF>
 </metadata>
 <defs>
  <style type="text/css">*{stroke-linejoin: round; stroke-linecap: butt}</style>
 </defs>
 <g id="figure_1">
  <g id="patch_1">
   <path d="M 0 215.03952 
L 797.51952 215.03952 
L 797.51952 0 
L 0 0 
z
" style="fill: #ffffff"/>
  </g>
  <g id="axes_1">
   <g id="patch_2">
    <path d="M 35.36 190.326395 
L 181.55152 190.326395 
L 181.55152 23.199 
L 35.36 23.199 
z
" style="fill: #ffffff"/>
   </g>
   <g id="FillBetweenPolyCollection_1">
    <path d="M 76.460983 190.326395 
L 42.005069 190.326395 
L 42.043329 189.105162 
L 42.303548 187.883928 
L 42.771998 186.662695 
L 43.426617 185.441462 
L 44.238475 184.220228 
L 45.173646 182.998995 
L 46.195307 181.777762 
L 47.265891 180.556528 
L 48.349118 179.335295 
L 49.411751 178.114062 
L 50.424974 176.892828 
L 51.365325 175.671595 
L 52.215166 174.450362 
L 52.962727 173.229128 
L 53.60177 172.007895 
L 54.130972 170.786662 
L 54.553125 169.565428 
L 54.874228 168.344195 
L 55.102582 167.122962 
L 55.247941 165.901728 
L 55.320761 164.680495 
L 55.331596 163.459262 
L 55.290623 162.238028 
L 55.207314 161.016795 
L 55.090221 159.795562 
L 54.946867 158.574328 
L 54.783705 157.353095 
L 54.606137 156.131862 
L 54.418568 154.910628 
L 54.224485 153.689395 
L 54.026537 152.468162 
L 53.826639 151.246928 
L 53.626066 150.025695 
L 53.425553 148.804462 
L 53.225391 147.583228 
L 53.025522 146.361995 
L 52.825632 145.140762 
L 52.625231 143.919528 
L 52.423728 142.698295 
L 52.220492 141.477061 
L 52.014904 140.255828 
L 51.806394 139.034595 
L 51.594473 137.813361 
L 51.37875 136.592128 
L 51.158955 135.370895 
L 50.934953 134.149661 
L 50.706767 132.928428 
L 50.474598 131.707195 
L 50.23886 130.485961 
L 50.000203 129.264728 
L 49.759549 128.043495 
L 49.518109 126.822261 
L 49.277401 125.601028 
L 49.039246 124.379795 
L 48.80574 123.158561 
L 48.579218 121.937328 
L 48.362181 120.716095 
L 48.157214 119.494861 
L 47.96689 118.273628 
L 47.793666 117.052395 
L 47.63978 115.831161 
L 47.507165 114.609928 
L 47.397369 113.388695 
L 47.311516 112.167461 
L 47.250279 110.946228 
L 47.213894 109.724995 
L 47.20219 108.503761 
L 47.214656 107.282528 
L 47.250506 106.061295 
L 47.308775 104.840061 
L 47.388398 103.618828 
L 47.488295 102.397595 
L 47.607444 101.176361 
L 47.744936 99.955128 
L 47.900013 98.733895 
L 48.072093 97.512661 
L 48.260773 96.291428 
L 48.465812 95.070195 
L 48.687111 93.848961 
L 48.92467 92.627728 
L 49.178543 91.406495 
L 49.44879 90.185261 
L 49.735417 88.964028 
L 50.038327 87.742795 
L 50.357267 86.521561 
L 50.691778 85.300328 
L 51.041163 84.079095 
L 51.404453 82.857861 
L 51.780388 81.636628 
L 52.167413 80.415395 
L 52.56368 79.194161 
L 52.967062 77.972928 
L 53.375184 76.751695 
L 53.785456 75.530461 
L 54.19512 74.309228 
L 54.601304 73.087995 
L 55.001082 71.866761 
L 55.391541 70.645528 
L 55.76985 69.424295 
L 62.696202 69.424295 
L 62.696202 69.424295 
L 63.074511 70.645528 
L 63.46497 71.866761 
L 63.864748 73.087995 
L 64.270932 74.309228 
L 64.680596 75.530461 
L 65.090868 76.751695 
L 65.49899 77.972928 
L 65.902372 79.194161 
L 66.298639 80.415395 
L 66.685664 81.636628 
L 67.061599 82.857861 
L 67.424889 84.079095 
L 67.774274 85.300328 
L 68.108785 86.521561 
L 68.427725 87.742795 
L 68.730635 88.964028 
L 69.017262 90.185261 
L 69.287509 91.406495 
L 69.541382 92.627728 
L 69.778941 93.848961 
L 70.00024 95.070195 
L 70.205279 96.291428 
L 70.393959 97.512661 
L 70.566039 98.733895 
L 70.721116 99.955128 
L 70.858608 101.176361 
L 70.977756 102.397595 
L 71.077654 103.618828 
L 71.157277 104.840061 
L 71.215546 106.061295 
L 71.251396 107.282528 
L 71.263862 108.503761 
L 71.252158 109.724995 
L 71.215773 110.946228 
L 71.154536 112.167461 
L 71.068683 113.388695 
L 70.958887 114.609928 
L 70.826272 115.831161 
L 70.672386 117.052395 
L 70.499162 118.273628 
L 70.308838 119.494861 
L 70.103871 120.716095 
L 69.886834 121.937328 
L 69.660312 123.158561 
L 69.426806 124.379795 
L 69.188651 125.601028 
L 68.947943 126.822261 
L 68.706503 128.043495 
L 68.465849 129.264728 
L 68.227192 130.485961 
L 67.991454 131.707195 
L 67.759285 132.928428 
L 67.531099 134.149661 
L 67.307097 135.370895 
L 67.087302 136.592128 
L 66.871579 137.813361 
L 66.659658 139.034595 
L 66.451148 140.255828 
L 66.24556 141.477061 
L 66.042324 142.698295 
L 65.840821 143.919528 
L 65.64042 145.140762 
L 65.44053 146.361995 
L 65.240661 147.583228 
L 65.040499 148.804462 
L 64.839986 150.025695 
L 64.639413 151.246928 
L 64.439515 152.468162 
L 64.241567 153.689395 
L 64.047484 154.910628 
L 63.859915 156.131862 
L 63.682347 157.353095 
L 63.519185 158.574328 
L 63.375831 159.795562 
L 63.258738 161.016795 
L 63.175429 162.238028 
L 63.134456 163.459262 
L 63.145291 164.680495 
L 63.218111 165.901728 
L 63.36347 167.122962 
L 63.591824 168.344195 
L 63.912927 169.565428 
L 64.33508 170.786662 
L 64.864282 172.007895 
L 65.503325 173.229128 
L 66.250886 174.450362 
L 67.100727 175.671595 
L 68.041078 176.892828 
L 69.054301 178.114062 
L 70.116934 179.335295 
L 71.200161 180.556528 
L 72.270745 181.777762 
L 73.292406 182.998995 
L 74.227577 184.220228 
L 75.039435 185.441462 
L 75.694054 186.662695 
L 76.162504 187.883928 
L 76.422723 189.105162 
L 76.460983 190.326395 
z
" clip-path="url(#p03fe249a4b)" style="fill: #0080ff; fill-opacity: 0.3"/>
   </g>
   <g id="FillBetweenPolyCollection_2">
    <path d="M 125.683717 190.326395 
L 91.227803 190.326395 
L 91.278723 189.134976 
L 91.552325 187.943556 
L 92.034728 186.752137 
L 92.703745 185.560718 
L 93.530353 184.369298 
L 94.480558 183.177879 
L 95.517497 181.98646 
L 96.603578 180.79504 
L 97.702505 179.603621 
L 98.781031 178.412202 
L 99.810324 177.220782 
L 100.766907 176.029363 
L 101.633126 174.837944 
L 102.397197 173.646524 
L 103.052888 172.455105 
L 103.598905 171.263686 
L 104.038104 170.072266 
L 104.376592 168.880847 
L 104.622826 167.689427 
L 104.786752 166.498008 
L 104.879059 165.306589 
L 104.910549 164.115169 
L 104.891649 162.92375 
L 104.832059 161.732331 
L 104.740516 160.540911 
L 104.624665 159.349492 
L 104.491006 158.158073 
L 104.344902 156.966653 
L 104.190633 155.775234 
L 104.031469 154.583815 
L 103.869768 153.392395 
L 103.707074 152.200976 
L 103.544219 151.009557 
L 103.381418 149.818137 
L 103.218368 148.626718 
L 103.054327 147.435299 
L 102.888199 146.243879 
L 102.71861 145.05246 
L 102.543974 143.861041 
L 102.362574 142.669621 
L 102.172633 141.478202 
L 101.972395 140.286783 
L 101.760212 139.095363 
L 101.534632 137.903944 
L 101.294498 136.712525 
L 101.039038 135.521105 
L 100.767954 134.329686 
L 100.481497 133.138267 
L 100.180526 131.946847 
L 99.866537 130.755428 
L 99.54167 129.564009 
L 99.208684 128.372589 
L 98.870899 127.18117 
L 98.532112 125.989751 
L 98.196492 124.798331 
L 97.868451 123.606912 
L 97.55251 122.415492 
L 97.253162 121.224073 
L 96.97473 120.032654 
L 96.721245 118.841234 
L 96.496329 117.649815 
L 96.303099 116.458396 
L 96.14409 115.266976 
L 96.021193 114.075557 
L 95.935627 112.884138 
L 95.887916 111.692718 
L 95.877901 110.501299 
L 95.904769 109.30988 
L 95.967101 108.11846 
L 96.062945 106.927041 
L 96.189905 105.735622 
L 96.345255 104.544202 
L 96.526056 103.352783 
L 96.729292 102.161364 
L 96.952008 100.969944 
L 97.191438 99.778525 
L 97.445127 98.587106 
L 97.711033 97.395686 
L 97.987596 96.204267 
L 98.273777 95.012848 
L 98.569057 93.821428 
L 98.873397 92.630009 
L 99.187154 91.43859 
L 99.510971 90.24717 
L 99.845634 89.055751 
L 100.19192 87.864332 
L 100.550434 86.672912 
L 100.921457 85.481493 
L 101.30482 84.290074 
L 101.699803 83.098654 
L 102.105075 81.907235 
L 102.518682 80.715816 
L 102.93807 79.524396 
L 103.360168 78.332977 
L 103.781491 77.141557 
L 104.198282 75.950138 
L 104.606669 74.758719 
L 105.002829 73.567299 
L 105.383149 72.37588 
L 111.528371 72.37588 
L 111.528371 72.37588 
L 111.908691 73.567299 
L 112.304851 74.758719 
L 112.713238 75.950138 
L 113.130029 77.141557 
L 113.551352 78.332977 
L 113.97345 79.524396 
L 114.392838 80.715816 
L 114.806445 81.907235 
L 115.211717 83.098654 
L 115.6067 84.290074 
L 115.990063 85.481493 
L 116.361086 86.672912 
L 116.7196 87.864332 
L 117.065886 89.055751 
L 117.400549 90.24717 
L 117.724366 91.43859 
L 118.038123 92.630009 
L 118.342463 93.821428 
L 118.637743 95.012848 
L 118.923924 96.204267 
L 119.200487 97.395686 
L 119.466393 98.587106 
L 119.720082 99.778525 
L 119.959512 100.969944 
L 120.182228 102.161364 
L 120.385464 103.352783 
L 120.566265 104.544202 
L 120.721615 105.735622 
L 120.848575 106.927041 
L 120.944419 108.11846 
L 121.006751 109.30988 
L 121.033619 110.501299 
L 121.023604 111.692718 
L 120.975893 112.884138 
L 120.890327 114.075557 
L 120.76743 115.266976 
L 120.608421 116.458396 
L 120.415191 117.649815 
L 120.190275 118.841234 
L 119.93679 120.032654 
L 119.658358 121.224073 
L 119.35901 122.415492 
L 119.043069 123.606912 
L 118.715028 124.798331 
L 118.379408 125.989751 
L 118.040621 127.18117 
L 117.702836 128.372589 
L 117.36985 129.564009 
L 117.044983 130.755428 
L 116.730994 131.946847 
L 116.430023 133.138267 
L 116.143566 134.329686 
L 115.872482 135.521105 
L 115.617022 136.712525 
L 115.376888 137.903944 
L 115.151308 139.095363 
L 114.939125 140.286783 
L 114.738887 141.478202 
L 114.548946 142.669621 
L 114.367546 143.861041 
L 114.19291 145.05246 
L 114.023321 146.243879 
L 113.857193 147.435299 
L 113.693152 148.626718 
L 113.530102 149.818137 
L 113.367301 151.009557 
L 113.204446 152.200976 
L 113.041752 153.392395 
L 112.880051 154.583815 
L 112.720887 155.775234 
L 112.566618 156.966653 
L 112.420514 158.158073 
L 112.286855 159.349492 
L 112.171004 160.540911 
L 112.079461 161.732331 
L 112.019871 162.92375 
L 112.000971 164.115169 
L 112.032461 165.306589 
L 112.124768 166.498008 
L 112.288694 167.689427 
L 112.534928 168.880847 
L 112.873416 170.072266 
L 113.312615 171.263686 
L 113.858632 172.455105 
L 114.514323 173.646524 
L 115.278394 174.837944 
L 116.144613 176.029363 
L 117.101196 177.220782 
L 118.130489 178.412202 
L 119.209015 179.603621 
L 120.307942 180.79504 
L 121.394023 181.98646 
L 122.430962 183.177879 
L 123.381167 184.369298 
L 124.207775 185.560718 
L 124.876792 186.752137 
L 125.359195 187.943556 
L 125.632797 189.134976 
L 125.683717 190.326395 
z
" clip-path="url(#p03fe249a4b)" style="fill: #808080; fill-opacity: 0.3"/>
   </g>
   <g id="FillBetweenPolyCollection_3">
    <path d="M 174.906451 190.326395 
L 140.450537 190.326395 
L 140.855889 188.975464 
L 142.167428 187.624533 
L 144.150765 186.273602 
L 146.486834 184.922671 
L 148.852254 183.57174 
L 150.987693 182.220809 
L 152.735415 180.869878 
L 154.041986 179.518947 
L 154.934987 178.168016 
L 155.488661 176.817085 
L 155.791914 175.466155 
L 155.926332 174.115224 
L 155.955576 172.764293 
L 155.923533 171.413362 
L 155.857298 170.062431 
L 155.771798 168.7115 
L 155.674158 167.360569 
L 155.567111 166.009638 
L 155.451392 164.658707 
L 155.327246 163.307776 
L 155.195264 161.956845 
L 155.056682 160.605914 
L 154.913298 159.254983 
L 154.767139 157.904052 
L 154.619986 156.553121 
L 154.472911 155.20219 
L 154.325955 153.851259 
L 154.178073 152.500328 
L 154.027471 151.149397 
L 153.872288 149.798466 
L 153.711511 148.447536 
L 153.545854 147.096605 
L 153.378314 145.745674 
L 153.214218 144.394743 
L 153.060692 143.043812 
L 152.925676 141.692881 
L 152.816704 140.34195 
L 152.739699 138.991019 
L 152.698006 137.640088 
L 152.691849 136.289157 
L 152.718352 134.938226 
L 152.77221 133.587295 
L 152.846989 132.236364 
L 152.93681 130.885433 
L 153.037975 129.534502 
L 153.150006 128.183571 
L 153.275703 126.83264 
L 153.420168 125.481709 
L 153.589102 124.130778 
L 153.786981 122.779847 
L 154.01567 121.428917 
L 154.273787 120.077986 
L 154.556843 118.727055 
L 154.857897 117.376124 
L 155.168432 116.025193 
L 155.479255 114.674262 
L 155.781332 113.323331 
L 156.066573 111.9724 
L 156.328537 110.621469 
L 156.562963 109.270538 
L 156.767988 107.919607 
L 156.943965 106.568676 
L 157.092918 105.217745 
L 157.217779 103.866814 
L 157.321673 102.515883 
L 157.407413 101.164952 
L 157.477309 99.814021 
L 157.533227 98.46309 
L 157.576793 97.112159 
L 157.609574 95.761228 
L 157.63319 94.410298 
L 157.6493 93.059367 
L 157.659536 91.708436 
L 157.665403 90.357505 
L 157.668217 89.006574 
L 157.669076 87.655643 
L 157.66886 86.304712 
L 157.668251 84.953781 
L 157.667739 83.60285 
L 157.667622 82.251919 
L 157.668016 80.900988 
L 157.668868 79.550057 
L 157.669995 78.199126 
L 157.671144 76.848195 
L 157.672052 75.497264 
L 157.672506 74.146333 
L 157.67238 72.795402 
L 157.671659 71.444471 
L 157.670429 70.09354 
L 157.668857 68.742609 
L 157.66715 67.391679 
L 157.665515 66.040748 
L 157.66412 64.689817 
L 157.663078 63.338886 
L 157.662444 61.987955 
L 157.662241 60.637024 
L 157.662473 59.286093 
L 157.663142 57.935162 
L 157.664237 56.584231 
L 157.692751 56.584231 
L 157.692751 56.584231 
L 157.693846 57.935162 
L 157.694515 59.286093 
L 157.694747 60.637024 
L 157.694544 61.987955 
L 157.69391 63.338886 
L 157.692868 64.689817 
L 157.691473 66.040748 
L 157.689838 67.391679 
L 157.688131 68.742609 
L 157.686559 70.09354 
L 157.685329 71.444471 
L 157.684608 72.795402 
L 157.684482 74.146333 
L 157.684936 75.497264 
L 157.685844 76.848195 
L 157.686993 78.199126 
L 157.68812 79.550057 
L 157.688972 80.900988 
L 157.689366 82.251919 
L 157.689249 83.60285 
L 157.688737 84.953781 
L 157.688128 86.304712 
L 157.687912 87.655643 
L 157.688771 89.006574 
L 157.691585 90.357505 
L 157.697452 91.708436 
L 157.707688 93.059367 
L 157.723798 94.410298 
L 157.747414 95.761228 
L 157.780195 97.112159 
L 157.823761 98.46309 
L 157.879679 99.814021 
L 157.949575 101.164952 
L 158.035315 102.515883 
L 158.139209 103.866814 
L 158.26407 105.217745 
L 158.413023 106.568676 
L 158.589 107.919607 
L 158.794025 109.270538 
L 159.028451 110.621469 
L 159.290415 111.9724 
L 159.575656 113.323331 
L 159.877733 114.674262 
L 160.188556 116.025193 
L 160.499091 117.376124 
L 160.800145 118.727055 
L 161.083201 120.077986 
L 161.341318 121.428917 
L 161.570007 122.779847 
L 161.767886 124.130778 
L 161.93682 125.481709 
L 162.081285 126.83264 
L 162.206982 128.183571 
L 162.319013 129.534502 
L 162.420178 130.885433 
L 162.509999 132.236364 
L 162.584778 133.587295 
L 162.638636 134.938226 
L 162.665139 136.289157 
L 162.658982 137.640088 
L 162.617289 138.991019 
L 162.540284 140.34195 
L 162.431312 141.692881 
L 162.296296 143.043812 
L 162.14277 144.394743 
L 161.978674 145.745674 
L 161.811134 147.096605 
L 161.645477 148.447536 
L 161.4847 149.798466 
L 161.329517 151.149397 
L 161.178915 152.500328 
L 161.031033 153.851259 
L 160.884077 155.20219 
L 160.737002 156.553121 
L 160.589849 157.904052 
L 160.44369 159.254983 
L 160.300306 160.605914 
L 160.161724 161.956845 
L 160.029742 163.307776 
L 159.905596 164.658707 
L 159.789877 166.009638 
L 159.682831 167.360569 
L 159.58519 168.7115 
L 159.49969 170.062431 
L 159.433455 171.413362 
L 159.401412 172.764293 
L 159.430656 174.115224 
L 159.565074 175.466155 
L 159.868327 176.817085 
L 160.422001 178.168016 
L 161.315002 179.518947 
L 162.621573 180.869878 
L 164.369295 182.220809 
L 166.504734 183.57174 
L 168.870154 184.922671 
L 171.206223 186.273602 
L 173.18956 187.624533 
L 174.501099 188.975464 
L 174.906451 190.326395 
z
" clip-path="url(#p03fe249a4b)" style="fill: #ff8000; fill-opacity: 0.3"/>
   </g>
   <g id="matplotlib.axis_1">
    <g id="xtick_1">
     <g id="line2d_1">
      <defs>
       <path id="m1b94c5b1a1" d="M 0 0 
L 0 3.5 
" style="stroke: #000000; stroke-width: 0.8"/>
      </defs>
      <g>
       <use xlink:href="#m1b94c5b1a1" x="59.233026" y="190.326395" style="stroke: #000000; stroke-width: 0.8"/>
      </g>
     </g>
     <g id="text_1">
      <!-- SBO -->
      <g transform="translate(35.221776 205.272645) scale(0.12 -0.12)">
       <defs>
        <path id="TimesNewRomanPS-BoldMT-53" d="M 3006 4334 
L 3041 2922 
L 2913 2922 
Q 2822 3453 2467 3776 
Q 2113 4100 1700 4100 
Q 1381 4100 1195 3929 
Q 1009 3759 1009 3538 
Q 1009 3397 1075 3288 
Q 1166 3141 1366 2997 
Q 1513 2894 2044 2631 
Q 2788 2266 3047 1941 
Q 3303 1616 3303 1197 
Q 3303 666 2889 283 
Q 2475 -100 1838 -100 
Q 1638 -100 1459 -59 
Q 1281 -19 1013 94 
Q 863 156 766 156 
Q 684 156 593 93 
Q 503 31 447 -97 
L 331 -97 
L 331 1503 
L 447 1503 
Q 584 828 976 473 
Q 1369 119 1822 119 
Q 2172 119 2380 309 
Q 2588 500 2588 753 
Q 2588 903 2508 1043 
Q 2428 1184 2265 1311 
Q 2103 1438 1691 1641 
Q 1113 1925 859 2125 
Q 606 2325 470 2572 
Q 334 2819 334 3116 
Q 334 3622 706 3978 
Q 1078 4334 1644 4334 
Q 1850 4334 2044 4284 
Q 2191 4247 2402 4145 
Q 2613 4044 2697 4044 
Q 2778 4044 2825 4094 
Q 2872 4144 2913 4334 
L 3006 4334 
z
" transform="scale(0.015625)"/>
        <path id="TimesNewRomanPS-BoldMT-42" d="M 2847 2247 
Q 3450 2106 3694 1906 
Q 4044 1622 4044 1169 
Q 4044 691 3659 378 
Q 3188 0 2288 0 
L 134 0 
L 134 116 
Q 428 116 533 170 
Q 638 225 680 312 
Q 722 400 722 744 
L 722 3494 
Q 722 3838 680 3927 
Q 638 4016 531 4069 
Q 425 4122 134 4122 
L 134 4238 
L 2166 4238 
Q 2894 4238 3197 4108 
Q 3500 3978 3675 3720 
Q 3850 3463 3850 3172 
Q 3850 2866 3628 2627 
Q 3406 2388 2847 2247 
z
M 1709 2331 
Q 2153 2331 2364 2431 
Q 2575 2531 2687 2712 
Q 2800 2894 2800 3175 
Q 2800 3456 2689 3636 
Q 2578 3816 2372 3909 
Q 2166 4003 1709 4000 
L 1709 2331 
z
M 1709 2088 
L 1709 728 
L 1706 572 
Q 1706 403 1792 317 
Q 1878 231 2047 231 
Q 2297 231 2508 342 
Q 2719 453 2831 664 
Q 2944 875 2944 1134 
Q 2944 1431 2806 1667 
Q 2669 1903 2428 1997 
Q 2188 2091 1709 2088 
z
" transform="scale(0.015625)"/>
        <path id="TimesNewRomanPS-BoldMT-4f" d="M 2472 4297 
Q 3484 4334 4117 3706 
Q 4750 3078 4750 2134 
Q 4750 1328 4278 716 
Q 3653 -97 2513 -97 
Q 1369 -97 744 678 
Q 250 1291 250 2131 
Q 250 3075 892 3704 
Q 1534 4334 2472 4297 
z
M 2509 4097 
Q 1928 4097 1625 3503 
Q 1378 3016 1378 2103 
Q 1378 1019 1759 500 
Q 2025 138 2503 138 
Q 2825 138 3041 294 
Q 3316 494 3469 933 
Q 3622 1372 3622 2078 
Q 3622 2919 3465 3336 
Q 3309 3753 3067 3925 
Q 2825 4097 2509 4097 
z
" transform="scale(0.015625)"/>
       </defs>
       <use xlink:href="#TimesNewRomanPS-BoldMT-53"/>
       <use xlink:href="#TimesNewRomanPS-BoldMT-42" transform="translate(55.615234 0)"/>
       <use xlink:href="#TimesNewRomanPS-BoldMT-4f" transform="translate(122.314453 0)"/>
      </g>
     </g>
    </g>
    <g id="xtick_2">
     <g id="line2d_2">
      <g>
       <use xlink:href="#m1b94c5b1a1" x="108.45576" y="190.326395" style="stroke: #000000; stroke-width: 0.8"/>
      </g>
     </g>
     <g id="text_2">
      <!-- Scenic -->
      <g transform="translate(75.795135 205.272645) scale(0.12 -0.12)">
       <defs>
        <path id="TimesNewRomanPS-BoldMT-63" d="M 2600 753 
L 2697 678 
Q 2491 291 2183 101 
Q 1875 -88 1528 -88 
Q 944 -88 594 353 
Q 244 794 244 1413 
Q 244 2009 563 2463 
Q 947 3009 1622 3009 
Q 2075 3009 2342 2781 
Q 2609 2553 2609 2272 
Q 2609 2094 2501 1987 
Q 2394 1881 2219 1881 
Q 2034 1881 1914 2003 
Q 1794 2125 1766 2438 
Q 1747 2634 1675 2713 
Q 1603 2791 1506 2791 
Q 1356 2791 1250 2631 
Q 1088 2391 1088 1894 
Q 1088 1481 1219 1104 
Q 1350 728 1578 544 
Q 1750 409 1984 409 
Q 2138 409 2275 481 
Q 2413 553 2600 753 
z
" transform="scale(0.015625)"/>
        <path id="TimesNewRomanPS-BoldMT-65" d="M 2691 1566 
L 1088 1566 
Q 1116 984 1397 647 
Q 1613 388 1916 388 
Q 2103 388 2256 492 
Q 2409 597 2584 869 
L 2691 800 
Q 2453 316 2165 114 
Q 1878 -88 1500 -88 
Q 850 -88 516 413 
Q 247 816 247 1413 
Q 247 2144 642 2576 
Q 1038 3009 1569 3009 
Q 2013 3009 2339 2645 
Q 2666 2281 2691 1566 
z
M 1922 1775 
Q 1922 2278 1867 2465 
Q 1813 2653 1697 2750 
Q 1631 2806 1522 2806 
Q 1359 2806 1256 2647 
Q 1072 2369 1072 1884 
L 1072 1775 
L 1922 1775 
z
" transform="scale(0.015625)"/>
        <path id="TimesNewRomanPS-BoldMT-6e" d="M 1409 2922 
L 1409 2544 
Q 1634 2788 1840 2898 
Q 2047 3009 2284 3009 
Q 2569 3009 2756 2851 
Q 2944 2694 3006 2459 
Q 3056 2281 3056 1775 
L 3056 638 
Q 3056 300 3117 217 
Q 3178 134 3372 113 
L 3372 0 
L 1894 0 
L 1894 113 
Q 2059 134 2131 250 
Q 2181 328 2181 638 
L 2181 1938 
Q 2181 2297 2153 2390 
Q 2125 2484 2058 2536 
Q 1991 2588 1909 2588 
Q 1641 2588 1409 2203 
L 1409 638 
Q 1409 309 1470 221 
Q 1531 134 1697 113 
L 1697 0 
L 219 0 
L 219 113 
Q 403 131 481 231 
Q 534 300 534 638 
L 534 2288 
Q 534 2619 473 2700 
Q 413 2781 219 2806 
L 219 2922 
L 1409 2922 
z
" transform="scale(0.015625)"/>
        <path id="TimesNewRomanPS-BoldMT-69" d="M 919 4338 
Q 1122 4338 1262 4195 
Q 1403 4053 1403 3853 
Q 1403 3653 1261 3512 
Q 1119 3372 919 3372 
Q 719 3372 578 3512 
Q 438 3653 438 3853 
Q 438 4053 578 4195 
Q 719 4338 919 4338 
z
M 1356 2922 
L 1356 606 
Q 1356 297 1428 211 
Q 1500 125 1709 113 
L 1709 0 
L 131 0 
L 131 113 
Q 325 119 419 225 
Q 481 297 481 606 
L 481 2313 
Q 481 2622 409 2708 
Q 338 2794 131 2806 
L 131 2922 
L 1356 2922 
z
" transform="scale(0.015625)"/>
       </defs>
       <use xlink:href="#TimesNewRomanPS-BoldMT-53"/>
       <use xlink:href="#TimesNewRomanPS-BoldMT-63" transform="translate(55.615234 0)"/>
       <use xlink:href="#TimesNewRomanPS-BoldMT-65" transform="translate(100 0)"/>
       <use xlink:href="#TimesNewRomanPS-BoldMT-6e" transform="translate(144.384766 0)"/>
       <use xlink:href="#TimesNewRomanPS-BoldMT-69" transform="translate(200 0)"/>
       <use xlink:href="#TimesNewRomanPS-BoldMT-63" transform="translate(227.783203 0)"/>
      </g>
     </g>
    </g>
    <g id="xtick_3">
     <g id="line2d_3">
      <g>
       <use xlink:href="#m1b94c5b1a1" x="157.678494" y="190.326395" style="stroke: #000000; stroke-width: 0.8"/>
      </g>
     </g>
     <g id="text_3">
      <!-- Common -->
      <g transform="translate(110.347869 205.272645) scale(0.12 -0.12)">
       <defs>
        <path id="TimesNewRomanPS-BoldMT-43" d="M 4272 4334 
L 4272 2866 
L 4150 2866 
Q 4013 3441 3638 3747 
Q 3263 4053 2788 4053 
Q 2391 4053 2059 3825 
Q 1728 3597 1575 3228 
Q 1378 2756 1378 2178 
Q 1378 1609 1522 1142 
Q 1666 675 1972 436 
Q 2278 197 2766 197 
Q 3166 197 3498 372 
Q 3831 547 4200 975 
L 4200 609 
Q 3844 238 3458 70 
Q 3072 -97 2556 -97 
Q 1878 -97 1351 175 
Q 825 447 539 956 
Q 253 1466 253 2041 
Q 253 2647 570 3190 
Q 888 3734 1427 4034 
Q 1966 4334 2572 4334 
Q 3019 4334 3516 4141 
Q 3803 4028 3881 4028 
Q 3981 4028 4054 4101 
Q 4128 4175 4150 4334 
L 4272 4334 
z
" transform="scale(0.015625)"/>
        <path id="TimesNewRomanPS-BoldMT-6f" d="M 1594 3009 
Q 1975 3009 2303 2812 
Q 2631 2616 2801 2253 
Q 2972 1891 2972 1459 
Q 2972 838 2656 419 
Q 2275 -88 1603 -88 
Q 944 -88 587 375 
Q 231 838 231 1447 
Q 231 2075 595 2542 
Q 959 3009 1594 3009 
z
M 1606 2788 
Q 1447 2788 1333 2667 
Q 1219 2547 1183 2192 
Q 1147 1838 1147 1206 
Q 1147 872 1191 581 
Q 1225 359 1337 243 
Q 1450 128 1594 128 
Q 1734 128 1828 206 
Q 1950 313 1991 503 
Q 2053 800 2053 1703 
Q 2053 2234 1993 2432 
Q 1934 2631 1819 2722 
Q 1738 2788 1606 2788 
z
" transform="scale(0.015625)"/>
        <path id="TimesNewRomanPS-BoldMT-6d" d="M 1428 2922 
L 1428 2538 
Q 1669 2800 1873 2904 
Q 2078 3009 2322 3009 
Q 2603 3009 2793 2878 
Q 2984 2747 3088 2478 
Q 3338 2759 3567 2884 
Q 3797 3009 4047 3009 
Q 4350 3009 4529 2870 
Q 4709 2731 4779 2517 
Q 4850 2303 4850 1834 
L 4850 638 
Q 4850 300 4911 219 
Q 4972 138 5166 113 
L 5166 0 
L 3656 0 
L 3656 113 
Q 3834 128 3919 250 
Q 3975 334 3975 638 
L 3975 1894 
Q 3975 2284 3944 2390 
Q 3913 2497 3845 2548 
Q 3778 2600 3688 2600 
Q 3553 2600 3415 2501 
Q 3278 2403 3138 2206 
L 3138 638 
Q 3138 322 3191 241 
Q 3263 125 3466 113 
L 3466 0 
L 1953 0 
L 1953 113 
Q 2075 119 2145 173 
Q 2216 228 2239 304 
Q 2263 381 2263 638 
L 2263 1894 
Q 2263 2291 2231 2391 
Q 2200 2491 2126 2547 
Q 2053 2603 1969 2603 
Q 1844 2603 1741 2538 
Q 1594 2441 1428 2206 
L 1428 638 
Q 1428 328 1489 229 
Q 1550 131 1744 113 
L 1744 0 
L 238 0 
L 238 113 
Q 422 131 500 231 
Q 553 300 553 638 
L 553 2288 
Q 553 2619 492 2700 
Q 431 2781 238 2806 
L 238 2922 
L 1428 2922 
z
" transform="scale(0.015625)"/>
       </defs>
       <use xlink:href="#TimesNewRomanPS-BoldMT-43"/>
       <use xlink:href="#TimesNewRomanPS-BoldMT-6f" transform="translate(72.216797 0)"/>
       <use xlink:href="#TimesNewRomanPS-BoldMT-6d" transform="translate(122.216797 0)"/>
       <use xlink:href="#TimesNewRomanPS-BoldMT-6d" transform="translate(205.517578 0)"/>
       <use xlink:href="#TimesNewRomanPS-BoldMT-6f" transform="translate(288.818359 0)"/>
       <use xlink:href="#TimesNewRomanPS-BoldMT-6e" transform="translate(338.818359 0)"/>
      </g>
     </g>
    </g>
   </g>
   <g id="matplotlib.axis_2">
    <g id="ytick_1">
     <g id="line2d_4">
      <defs>
       <path id="m55b339510e" d="M 0 0 
L -3.5 0 
" style="stroke: #000000; stroke-width: 0.8"/>
      </defs>
      <g>
       <use xlink:href="#m55b339510e" x="35.36" y="190.326395" style="stroke: #000000; stroke-width: 0.8"/>
      </g>
     </g>
     <g id="text_4">
      <!-- 0 -->
      <g transform="translate(22.36 194.492645) scale(0.12 -0.12)">
       <defs>
        <path id="TimesNewRomanPSMT-30" d="M 231 2094 
Q 231 2819 450 3342 
Q 669 3866 1031 4122 
Q 1313 4325 1613 4325 
Q 2100 4325 2488 3828 
Q 2972 3213 2972 2159 
Q 2972 1422 2759 906 
Q 2547 391 2217 158 
Q 1888 -75 1581 -75 
Q 975 -75 572 641 
Q 231 1244 231 2094 
z
M 844 2016 
Q 844 1141 1059 588 
Q 1238 122 1591 122 
Q 1759 122 1940 273 
Q 2122 425 2216 781 
Q 2359 1319 2359 2297 
Q 2359 3022 2209 3506 
Q 2097 3866 1919 4016 
Q 1791 4119 1609 4119 
Q 1397 4119 1231 3928 
Q 1006 3669 925 3112 
Q 844 2556 844 2016 
z
" transform="scale(0.015625)"/>
       </defs>
       <use xlink:href="#TimesNewRomanPSMT-30"/>
      </g>
     </g>
    </g>
    <g id="ytick_2">
     <g id="line2d_5">
      <g>
       <use xlink:href="#m55b339510e" x="35.36" y="44.998225" style="stroke: #000000; stroke-width: 0.8"/>
      </g>
     </g>
     <g id="text_5">
      <!-- 1 -->
      <g transform="translate(22.36 49.164475) scale(0.12 -0.12)">
       <defs>
        <path id="TimesNewRomanPSMT-31" d="M 750 3822 
L 1781 4325 
L 1884 4325 
L 1884 747 
Q 1884 391 1914 303 
Q 1944 216 2037 169 
Q 2131 122 2419 116 
L 2419 0 
L 825 0 
L 825 116 
Q 1125 122 1212 167 
Q 1300 213 1334 289 
Q 1369 366 1369 747 
L 1369 3034 
Q 1369 3497 1338 3628 
Q 1316 3728 1258 3775 
Q 1200 3822 1119 3822 
Q 1003 3822 797 3725 
L 750 3822 
z
" transform="scale(0.015625)"/>
       </defs>
       <use xlink:href="#TimesNewRomanPSMT-31"/>
      </g>
     </g>
    </g>
    <g id="ytick_3">
     <g id="line2d_6">
      <g>
       <use xlink:href="#m55b339510e" x="35.36" y="190.326395" style="stroke: #000000; stroke-width: 0.8"/>
      </g>
     </g>
     <g id="text_6">
      <!-- 0 -->
      <g transform="translate(22.36 194.492645) scale(0.12 -0.12)">
       <use xlink:href="#TimesNewRomanPSMT-30"/>
      </g>
     </g>
    </g>
    <g id="ytick_4">
     <g id="line2d_7">
      <g>
       <use xlink:href="#m55b339510e" x="35.36" y="190.326395" style="stroke: #000000; stroke-width: 0.8"/>
      </g>
     </g>
     <g id="text_7">
      <!-- 0 -->
      <g transform="translate(22.36 194.492645) scale(0.12 -0.12)">
       <use xlink:href="#TimesNewRomanPSMT-30"/>
      </g>
     </g>
    </g>
    <g id="ytick_5">
     <g id="line2d_8">
      <g>
       <use xlink:href="#m55b339510e" x="35.36" y="190.326395" style="stroke: #000000; stroke-width: 0.8"/>
      </g>
     </g>
     <g id="text_8">
      <!-- 0 -->
      <g transform="translate(22.36 194.492645) scale(0.12 -0.12)">
       <use xlink:href="#TimesNewRomanPSMT-30"/>
      </g>
     </g>
    </g>
    <g id="ytick_6">
     <g id="line2d_9">
      <g>
       <use xlink:href="#m55b339510e" x="35.36" y="44.998225" style="stroke: #000000; stroke-width: 0.8"/>
      </g>
     </g>
     <g id="text_9">
      <!-- 1 -->
      <g transform="translate(22.36 49.164475) scale(0.12 -0.12)">
       <use xlink:href="#TimesNewRomanPSMT-31"/>
      </g>
     </g>
    </g>
    <g id="ytick_7">
     <g id="line2d_10">
      <g>
       <use xlink:href="#m55b339510e" x="35.36" y="44.998225" style="stroke: #000000; stroke-width: 0.8"/>
      </g>
     </g>
     <g id="text_10">
      <!-- 1 -->
      <g transform="translate(22.36 49.164475) scale(0.12 -0.12)">
       <use xlink:href="#TimesNewRomanPSMT-31"/>
      </g>
     </g>
    </g>
    <g id="ytick_8">
     <g id="line2d_11">
      <g>
       <use xlink:href="#m55b339510e" x="35.36" y="44.998225" style="stroke: #000000; stroke-width: 0.8"/>
      </g>
     </g>
     <g id="text_11">
      <!-- 1 -->
      <g transform="translate(22.36 49.164475) scale(0.12 -0.12)">
       <use xlink:href="#TimesNewRomanPSMT-31"/>
      </g>
     </g>
    </g>
    <g id="text_12">
     <!-- Max proximity index of OS at $t_0$ -->
     <g transform="translate(15.72 185.962698) rotate(-90) scale(0.12 -0.12)">
      <defs>
       <path id="TimesNewRomanPSMT-4d" d="M 2619 0 
L 981 3566 
L 981 734 
Q 981 344 1066 247 
Q 1181 116 1431 116 
L 1581 116 
L 1581 0 
L 106 0 
L 106 116 
L 256 116 
Q 525 116 638 278 
Q 706 378 706 734 
L 706 3503 
Q 706 3784 644 3909 
Q 600 4000 483 4061 
Q 366 4122 106 4122 
L 106 4238 
L 1306 4238 
L 2844 922 
L 4356 4238 
L 5556 4238 
L 5556 4122 
L 5409 4122 
Q 5138 4122 5025 3959 
Q 4956 3859 4956 3503 
L 4956 734 
Q 4956 344 5044 247 
Q 5159 116 5409 116 
L 5556 116 
L 5556 0 
L 3756 0 
L 3756 116 
L 3906 116 
Q 4178 116 4288 278 
Q 4356 378 4356 734 
L 4356 3566 
L 2722 0 
L 2619 0 
z
" transform="scale(0.015625)"/>
       <path id="TimesNewRomanPSMT-61" d="M 1822 413 
Q 1381 72 1269 19 
Q 1100 -59 909 -59 
Q 613 -59 420 144 
Q 228 347 228 678 
Q 228 888 322 1041 
Q 450 1253 767 1440 
Q 1084 1628 1822 1897 
L 1822 2009 
Q 1822 2438 1686 2597 
Q 1550 2756 1291 2756 
Q 1094 2756 978 2650 
Q 859 2544 859 2406 
L 866 2225 
Q 866 2081 792 2003 
Q 719 1925 600 1925 
Q 484 1925 411 2006 
Q 338 2088 338 2228 
Q 338 2497 613 2722 
Q 888 2947 1384 2947 
Q 1766 2947 2009 2819 
Q 2194 2722 2281 2516 
Q 2338 2381 2338 1966 
L 2338 994 
Q 2338 584 2353 492 
Q 2369 400 2405 369 
Q 2441 338 2488 338 
Q 2538 338 2575 359 
Q 2641 400 2828 588 
L 2828 413 
Q 2478 -56 2159 -56 
Q 2006 -56 1915 50 
Q 1825 156 1822 413 
z
M 1822 616 
L 1822 1706 
Q 1350 1519 1213 1441 
Q 966 1303 859 1153 
Q 753 1003 753 825 
Q 753 600 887 451 
Q 1022 303 1197 303 
Q 1434 303 1822 616 
z
" transform="scale(0.015625)"/>
       <path id="TimesNewRomanPSMT-78" d="M 84 2863 
L 1431 2863 
L 1431 2747 
Q 1303 2747 1251 2703 
Q 1200 2659 1200 2588 
Q 1200 2513 1309 2356 
Q 1344 2306 1413 2200 
L 1616 1875 
L 1850 2200 
Q 2075 2509 2075 2591 
Q 2075 2656 2022 2701 
Q 1969 2747 1850 2747 
L 1850 2863 
L 2819 2863 
L 2819 2747 
Q 2666 2738 2553 2663 
Q 2400 2556 2134 2200 
L 1744 1678 
L 2456 653 
Q 2719 275 2831 198 
Q 2944 122 3122 113 
L 3122 0 
L 1772 0 
L 1772 113 
Q 1913 113 1991 175 
Q 2050 219 2050 291 
Q 2050 363 1850 653 
L 1431 1266 
L 972 653 
Q 759 369 759 316 
Q 759 241 829 180 
Q 900 119 1041 113 
L 1041 0 
L 106 0 
L 106 113 
Q 219 128 303 191 
Q 422 281 703 653 
L 1303 1450 
L 759 2238 
Q 528 2575 401 2661 
Q 275 2747 84 2747 
L 84 2863 
z
" transform="scale(0.015625)"/>
       <path id="TimesNewRomanPSMT-20" transform="scale(0.015625)"/>
       <path id="TimesNewRomanPSMT-70" d="M -6 2578 
L 875 2934 
L 994 2934 
L 994 2266 
Q 1216 2644 1439 2795 
Q 1663 2947 1909 2947 
Q 2341 2947 2628 2609 
Q 2981 2197 2981 1534 
Q 2981 794 2556 309 
Q 2206 -88 1675 -88 
Q 1444 -88 1275 -22 
Q 1150 25 994 166 
L 994 -706 
Q 994 -1000 1030 -1079 
Q 1066 -1159 1155 -1206 
Q 1244 -1253 1478 -1253 
L 1478 -1369 
L -22 -1369 
L -22 -1253 
L 56 -1253 
Q 228 -1256 350 -1188 
Q 409 -1153 442 -1076 
Q 475 -1000 475 -688 
L 475 2019 
Q 475 2297 450 2372 
Q 425 2447 370 2484 
Q 316 2522 222 2522 
Q 147 2522 31 2478 
L -6 2578 
z
M 994 2081 
L 994 1013 
Q 994 666 1022 556 
Q 1066 375 1236 237 
Q 1406 100 1666 100 
Q 1978 100 2172 344 
Q 2425 663 2425 1241 
Q 2425 1897 2138 2250 
Q 1938 2494 1663 2494 
Q 1513 2494 1366 2419 
Q 1253 2363 994 2081 
z
" transform="scale(0.015625)"/>
       <path id="TimesNewRomanPSMT-72" d="M 1038 2947 
L 1038 2303 
Q 1397 2947 1775 2947 
Q 1947 2947 2059 2842 
Q 2172 2738 2172 2600 
Q 2172 2478 2090 2393 
Q 2009 2309 1897 2309 
Q 1788 2309 1652 2417 
Q 1516 2525 1450 2525 
Q 1394 2525 1328 2463 
Q 1188 2334 1038 2041 
L 1038 669 
Q 1038 431 1097 309 
Q 1138 225 1241 169 
Q 1344 113 1538 113 
L 1538 0 
L 72 0 
L 72 113 
Q 291 113 397 181 
Q 475 231 506 341 
Q 522 394 522 644 
L 522 1753 
Q 522 2253 501 2348 
Q 481 2444 426 2487 
Q 372 2531 291 2531 
Q 194 2531 72 2484 
L 41 2597 
L 906 2947 
L 1038 2947 
z
" transform="scale(0.015625)"/>
       <path id="TimesNewRomanPSMT-6f" d="M 1600 2947 
Q 2250 2947 2644 2453 
Q 2978 2031 2978 1484 
Q 2978 1100 2793 706 
Q 2609 313 2286 112 
Q 1963 -88 1566 -88 
Q 919 -88 538 428 
Q 216 863 216 1403 
Q 216 1797 411 2186 
Q 606 2575 925 2761 
Q 1244 2947 1600 2947 
z
M 1503 2744 
Q 1338 2744 1170 2645 
Q 1003 2547 900 2300 
Q 797 2053 797 1666 
Q 797 1041 1045 587 
Q 1294 134 1700 134 
Q 2003 134 2200 384 
Q 2397 634 2397 1244 
Q 2397 2006 2069 2444 
Q 1847 2744 1503 2744 
z
" transform="scale(0.015625)"/>
       <path id="TimesNewRomanPSMT-69" d="M 928 4444 
Q 1059 4444 1151 4351 
Q 1244 4259 1244 4128 
Q 1244 3997 1151 3903 
Q 1059 3809 928 3809 
Q 797 3809 703 3903 
Q 609 3997 609 4128 
Q 609 4259 701 4351 
Q 794 4444 928 4444 
z
M 1188 2947 
L 1188 647 
Q 1188 378 1227 289 
Q 1266 200 1342 156 
Q 1419 113 1622 113 
L 1622 0 
L 231 0 
L 231 113 
Q 441 113 512 153 
Q 584 194 626 287 
Q 669 381 669 647 
L 669 1750 
Q 669 2216 641 2353 
Q 619 2453 572 2492 
Q 525 2531 444 2531 
Q 356 2531 231 2484 
L 188 2597 
L 1050 2947 
L 1188 2947 
z
" transform="scale(0.015625)"/>
       <path id="TimesNewRomanPSMT-6d" d="M 1050 2338 
Q 1363 2650 1419 2697 
Q 1559 2816 1721 2881 
Q 1884 2947 2044 2947 
Q 2313 2947 2506 2790 
Q 2700 2634 2766 2338 
Q 3088 2713 3309 2830 
Q 3531 2947 3766 2947 
Q 3994 2947 4170 2830 
Q 4347 2713 4450 2447 
Q 4519 2266 4519 1878 
L 4519 647 
Q 4519 378 4559 278 
Q 4591 209 4675 161 
Q 4759 113 4950 113 
L 4950 0 
L 3538 0 
L 3538 113 
L 3597 113 
Q 3781 113 3884 184 
Q 3956 234 3988 344 
Q 4000 397 4000 647 
L 4000 1878 
Q 4000 2228 3916 2372 
Q 3794 2572 3525 2572 
Q 3359 2572 3192 2489 
Q 3025 2406 2788 2181 
L 2781 2147 
L 2788 2013 
L 2788 647 
Q 2788 353 2820 281 
Q 2853 209 2943 161 
Q 3034 113 3253 113 
L 3253 0 
L 1806 0 
L 1806 113 
Q 2044 113 2133 169 
Q 2222 225 2256 338 
Q 2272 391 2272 647 
L 2272 1878 
Q 2272 2228 2169 2381 
Q 2031 2581 1784 2581 
Q 1616 2581 1450 2491 
Q 1191 2353 1050 2181 
L 1050 647 
Q 1050 366 1089 281 
Q 1128 197 1204 155 
Q 1281 113 1516 113 
L 1516 0 
L 100 0 
L 100 113 
Q 297 113 375 155 
Q 453 197 493 289 
Q 534 381 534 647 
L 534 1741 
Q 534 2213 506 2350 
Q 484 2453 437 2492 
Q 391 2531 309 2531 
Q 222 2531 100 2484 
L 53 2597 
L 916 2947 
L 1050 2947 
L 1050 2338 
z
" transform="scale(0.015625)"/>
       <path id="TimesNewRomanPSMT-74" d="M 1031 3803 
L 1031 2863 
L 1700 2863 
L 1700 2644 
L 1031 2644 
L 1031 788 
Q 1031 509 1111 412 
Q 1191 316 1316 316 
Q 1419 316 1516 380 
Q 1613 444 1666 569 
L 1788 569 
Q 1678 263 1478 108 
Q 1278 -47 1066 -47 
Q 922 -47 784 33 
Q 647 113 581 261 
Q 516 409 516 719 
L 516 2644 
L 63 2644 
L 63 2747 
Q 234 2816 414 2980 
Q 594 3144 734 3369 
Q 806 3488 934 3803 
L 1031 3803 
z
" transform="scale(0.015625)"/>
       <path id="TimesNewRomanPSMT-79" d="M 38 2863 
L 1372 2863 
L 1372 2747 
L 1306 2747 
Q 1166 2747 1095 2686 
Q 1025 2625 1025 2534 
Q 1025 2413 1128 2197 
L 1825 753 
L 2466 2334 
Q 2519 2463 2519 2588 
Q 2519 2644 2497 2672 
Q 2472 2706 2419 2726 
Q 2366 2747 2231 2747 
L 2231 2863 
L 3163 2863 
L 3163 2747 
Q 3047 2734 2984 2696 
Q 2922 2659 2847 2556 
Q 2819 2513 2741 2316 
L 1575 -541 
Q 1406 -956 1132 -1168 
Q 859 -1381 606 -1381 
Q 422 -1381 303 -1275 
Q 184 -1169 184 -1031 
Q 184 -900 270 -820 
Q 356 -741 506 -741 
Q 609 -741 788 -809 
Q 913 -856 944 -856 
Q 1038 -856 1148 -759 
Q 1259 -663 1372 -384 
L 1575 113 
L 547 2272 
Q 500 2369 397 2513 
Q 319 2622 269 2659 
Q 197 2709 38 2747 
L 38 2863 
z
" transform="scale(0.015625)"/>
       <path id="TimesNewRomanPSMT-6e" d="M 1034 2341 
Q 1538 2947 1994 2947 
Q 2228 2947 2397 2830 
Q 2566 2713 2666 2444 
Q 2734 2256 2734 1869 
L 2734 647 
Q 2734 375 2778 278 
Q 2813 200 2889 156 
Q 2966 113 3172 113 
L 3172 0 
L 1756 0 
L 1756 113 
L 1816 113 
Q 2016 113 2095 173 
Q 2175 234 2206 353 
Q 2219 400 2219 647 
L 2219 1819 
Q 2219 2209 2117 2386 
Q 2016 2563 1775 2563 
Q 1403 2563 1034 2156 
L 1034 647 
Q 1034 356 1069 288 
Q 1113 197 1189 155 
Q 1266 113 1500 113 
L 1500 0 
L 84 0 
L 84 113 
L 147 113 
Q 366 113 442 223 
Q 519 334 519 647 
L 519 1709 
Q 519 2225 495 2337 
Q 472 2450 423 2490 
Q 375 2531 294 2531 
Q 206 2531 84 2484 
L 38 2597 
L 900 2947 
L 1034 2947 
L 1034 2341 
z
" transform="scale(0.015625)"/>
       <path id="TimesNewRomanPSMT-64" d="M 2222 322 
Q 2013 103 1813 7 
Q 1613 -88 1381 -88 
Q 913 -88 563 304 
Q 213 697 213 1313 
Q 213 1928 600 2439 
Q 988 2950 1597 2950 
Q 1975 2950 2222 2709 
L 2222 3238 
Q 2222 3728 2198 3840 
Q 2175 3953 2125 3993 
Q 2075 4034 2000 4034 
Q 1919 4034 1784 3984 
L 1744 4094 
L 2597 4444 
L 2738 4444 
L 2738 1134 
Q 2738 631 2761 520 
Q 2784 409 2836 365 
Q 2888 322 2956 322 
Q 3041 322 3181 375 
L 3216 266 
L 2366 -88 
L 2222 -88 
L 2222 322 
z
M 2222 541 
L 2222 2016 
Q 2203 2228 2109 2403 
Q 2016 2578 1861 2667 
Q 1706 2756 1559 2756 
Q 1284 2756 1069 2509 
Q 784 2184 784 1559 
Q 784 928 1059 592 
Q 1334 256 1672 256 
Q 1956 256 2222 541 
z
" transform="scale(0.015625)"/>
       <path id="TimesNewRomanPSMT-65" d="M 681 1784 
Q 678 1147 991 784 
Q 1303 422 1725 422 
Q 2006 422 2214 576 
Q 2422 731 2563 1106 
L 2659 1044 
Q 2594 616 2278 264 
Q 1963 -88 1488 -88 
Q 972 -88 605 314 
Q 238 716 238 1394 
Q 238 2128 614 2539 
Q 991 2950 1559 2950 
Q 2041 2950 2350 2633 
Q 2659 2316 2659 1784 
L 681 1784 
z
M 681 1966 
L 2006 1966 
Q 1991 2241 1941 2353 
Q 1863 2528 1708 2628 
Q 1553 2728 1384 2728 
Q 1125 2728 920 2526 
Q 716 2325 681 1966 
z
" transform="scale(0.015625)"/>
       <path id="TimesNewRomanPSMT-66" d="M 1319 2638 
L 1319 756 
Q 1319 356 1406 250 
Q 1522 113 1716 113 
L 1975 113 
L 1975 0 
L 266 0 
L 266 113 
L 394 113 
Q 519 113 622 175 
Q 725 238 764 344 
Q 803 450 803 756 
L 803 2638 
L 247 2638 
L 247 2863 
L 803 2863 
L 803 3050 
Q 803 3478 940 3775 
Q 1078 4072 1361 4255 
Q 1644 4438 1997 4438 
Q 2325 4438 2600 4225 
Q 2781 4084 2781 3909 
Q 2781 3816 2700 3733 
Q 2619 3650 2525 3650 
Q 2453 3650 2373 3701 
Q 2294 3753 2178 3923 
Q 2063 4094 1966 4153 
Q 1869 4213 1750 4213 
Q 1606 4213 1506 4136 
Q 1406 4059 1362 3898 
Q 1319 3738 1319 3069 
L 1319 2863 
L 2056 2863 
L 2056 2638 
L 1319 2638 
z
" transform="scale(0.015625)"/>
       <path id="TimesNewRomanPSMT-4f" d="M 2341 4334 
Q 3166 4334 3770 3707 
Q 4375 3081 4375 2144 
Q 4375 1178 3765 540 
Q 3156 -97 2291 -97 
Q 1416 -97 820 525 
Q 225 1147 225 2134 
Q 225 3144 913 3781 
Q 1509 4334 2341 4334 
z
M 2281 4106 
Q 1713 4106 1369 3684 
Q 941 3159 941 2147 
Q 941 1109 1384 550 
Q 1725 125 2284 125 
Q 2881 125 3270 590 
Q 3659 1056 3659 2059 
Q 3659 3147 3231 3681 
Q 2888 4106 2281 4106 
z
" transform="scale(0.015625)"/>
       <path id="TimesNewRomanPSMT-53" d="M 2934 4334 
L 2934 2869 
L 2819 2869 
Q 2763 3291 2617 3541 
Q 2472 3791 2203 3937 
Q 1934 4084 1647 4084 
Q 1322 4084 1109 3886 
Q 897 3688 897 3434 
Q 897 3241 1031 3081 
Q 1225 2847 1953 2456 
Q 2547 2138 2764 1967 
Q 2981 1797 3098 1565 
Q 3216 1334 3216 1081 
Q 3216 600 2842 251 
Q 2469 -97 1881 -97 
Q 1697 -97 1534 -69 
Q 1438 -53 1133 45 
Q 828 144 747 144 
Q 669 144 623 97 
Q 578 50 556 -97 
L 441 -97 
L 441 1356 
L 556 1356 
Q 638 900 775 673 
Q 913 447 1195 297 
Q 1478 147 1816 147 
Q 2206 147 2432 353 
Q 2659 559 2659 841 
Q 2659 997 2573 1156 
Q 2488 1316 2306 1453 
Q 2184 1547 1640 1851 
Q 1097 2156 867 2337 
Q 638 2519 519 2737 
Q 400 2956 400 3219 
Q 400 3675 750 4004 
Q 1100 4334 1641 4334 
Q 1978 4334 2356 4169 
Q 2531 4091 2603 4091 
Q 2684 4091 2736 4139 
Q 2788 4188 2819 4334 
L 2934 4334 
z
" transform="scale(0.015625)"/>
       <path id="DejaVuSans-Oblique-74" d="M 2706 3500 
L 2619 3053 
L 1472 3053 
L 1100 1153 
Q 1081 1047 1072 975 
Q 1063 903 1063 863 
Q 1063 663 1183 572 
Q 1303 481 1569 481 
L 2150 481 
L 2053 0 
L 1503 0 
Q 991 0 739 200 
Q 488 400 488 806 
Q 488 878 497 964 
Q 506 1050 525 1153 
L 897 3053 
L 409 3053 
L 500 3500 
L 978 3500 
L 1172 4494 
L 1747 4494 
L 1556 3500 
L 2706 3500 
z
" transform="scale(0.015625)"/>
       <path id="DejaVuSans-30" d="M 2034 4250 
Q 1547 4250 1301 3770 
Q 1056 3291 1056 2328 
Q 1056 1369 1301 889 
Q 1547 409 2034 409 
Q 2525 409 2770 889 
Q 3016 1369 3016 2328 
Q 3016 3291 2770 3770 
Q 2525 4250 2034 4250 
z
M 2034 4750 
Q 2819 4750 3233 4129 
Q 3647 3509 3647 2328 
Q 3647 1150 3233 529 
Q 2819 -91 2034 -91 
Q 1250 -91 836 529 
Q 422 1150 422 2328 
Q 422 3509 836 4129 
Q 1250 4750 2034 4750 
z
" transform="scale(0.015625)"/>
      </defs>
      <use xlink:href="#TimesNewRomanPSMT-4d" transform="translate(0 0.78125)"/>
      <use xlink:href="#TimesNewRomanPSMT-61" transform="translate(88.916016 0.78125)"/>
      <use xlink:href="#TimesNewRomanPSMT-78" transform="translate(133.300781 0.78125)"/>
      <use xlink:href="#TimesNewRomanPSMT-20" transform="translate(183.300781 0.78125)"/>
      <use xlink:href="#TimesNewRomanPSMT-70" transform="translate(208.300781 0.78125)"/>
      <use xlink:href="#TimesNewRomanPSMT-72" transform="translate(258.300781 0.78125)"/>
      <use xlink:href="#TimesNewRomanPSMT-6f" transform="translate(291.601562 0.78125)"/>
      <use xlink:href="#TimesNewRomanPSMT-78" transform="translate(341.601562 0.78125)"/>
      <use xlink:href="#TimesNewRomanPSMT-69" transform="translate(391.601562 0.78125)"/>
      <use xlink:href="#TimesNewRomanPSMT-6d" transform="translate(419.384766 0.78125)"/>
      <use xlink:href="#TimesNewRomanPSMT-69" transform="translate(497.167969 0.78125)"/>
      <use xlink:href="#TimesNewRomanPSMT-74" transform="translate(524.951172 0.78125)"/>
      <use xlink:href="#TimesNewRomanPSMT-79" transform="translate(552.734375 0.78125)"/>
      <use xlink:href="#TimesNewRomanPSMT-20" transform="translate(602.734375 0.78125)"/>
      <use xlink:href="#TimesNewRomanPSMT-69" transform="translate(627.734375 0.78125)"/>
      <use xlink:href="#TimesNewRomanPSMT-6e" transform="translate(655.517578 0.78125)"/>
      <use xlink:href="#TimesNewRomanPSMT-64" transform="translate(705.517578 0.78125)"/>
      <use xlink:href="#TimesNewRomanPSMT-65" transform="translate(755.517578 0.78125)"/>
      <use xlink:href="#TimesNewRomanPSMT-78" transform="translate(799.902344 0.78125)"/>
      <use xlink:href="#TimesNewRomanPSMT-20" transform="translate(849.902344 0.78125)"/>
      <use xlink:href="#TimesNewRomanPSMT-6f" transform="translate(874.902344 0.78125)"/>
      <use xlink:href="#TimesNewRomanPSMT-66" transform="translate(924.902344 0.78125)"/>
      <use xlink:href="#TimesNewRomanPSMT-20" transform="translate(958.203125 0.78125)"/>
      <use xlink:href="#TimesNewRomanPSMT-4f" transform="translate(983.203125 0.78125)"/>
      <use xlink:href="#TimesNewRomanPSMT-53" transform="translate(1055.419922 0.78125)"/>
      <use xlink:href="#TimesNewRomanPSMT-20" transform="translate(1111.035156 0.78125)"/>
      <use xlink:href="#TimesNewRomanPSMT-61" transform="translate(1136.035156 0.78125)"/>
      <use xlink:href="#TimesNewRomanPSMT-74" transform="translate(1180.419922 0.78125)"/>
      <use xlink:href="#TimesNewRomanPSMT-20" transform="translate(1208.203125 0.78125)"/>
      <use xlink:href="#DejaVuSans-Oblique-74" transform="translate(1233.203125 0.78125)"/>
      <use xlink:href="#DejaVuSans-30" transform="translate(1272.412109 -15.625) scale(0.7)"/>
     </g>
    </g>
   </g>
   <g id="LineCollection_1">
    <path d="M 50.619048 140.534148 
L 67.847004 140.534148 
" clip-path="url(#p03fe249a4b)" style="fill: none; stroke: #000000; stroke-width: 2"/>
    <path d="M 99.841782 142.084485 
L 117.069738 142.084485 
" clip-path="url(#p03fe249a4b)" style="fill: none; stroke: #000000; stroke-width: 2"/>
    <path d="M 149.064516 165.642121 
L 166.292472 165.642121 
" clip-path="url(#p03fe249a4b)" style="fill: none; stroke: #000000; stroke-width: 2"/>
   </g>
   <g id="LineCollection_2">
    <path d="M 50.619048 69.424295 
L 67.847004 69.424295 
" clip-path="url(#p03fe249a4b)" style="fill: none; stroke: #1f77b4; stroke-width: 1.5"/>
    <path d="M 99.841782 72.37588 
L 117.069738 72.37588 
" clip-path="url(#p03fe249a4b)" style="fill: none; stroke: #1f77b4; stroke-width: 1.5"/>
    <path d="M 149.064516 56.584231 
L 166.292472 56.584231 
" clip-path="url(#p03fe249a4b)" style="fill: none; stroke: #1f77b4; stroke-width: 1.5"/>
   </g>
   <g id="LineCollection_3">
    <path d="M 50.619048 190.326395 
L 67.847004 190.326395 
" clip-path="url(#p03fe249a4b)" style="fill: none; stroke: #1f77b4; stroke-width: 1.5"/>
    <path d="M 99.841782 190.326395 
L 117.069738 190.326395 
" clip-path="url(#p03fe249a4b)" style="fill: none; stroke: #1f77b4; stroke-width: 1.5"/>
    <path d="M 149.064516 190.326395 
L 166.292472 190.326395 
" clip-path="url(#p03fe249a4b)" style="fill: none; stroke: #1f77b4; stroke-width: 1.5"/>
   </g>
   <g id="LineCollection_4">
    <path d="M 59.233026 190.326395 
L 59.233026 69.424295 
" clip-path="url(#p03fe249a4b)" style="fill: none; stroke: #1f77b4; stroke-width: 1.5"/>
    <path d="M 108.45576 190.326395 
L 108.45576 72.37588 
" clip-path="url(#p03fe249a4b)" style="fill: none; stroke: #1f77b4; stroke-width: 1.5"/>
    <path d="M 157.678494 190.326395 
L 157.678494 56.584231 
" clip-path="url(#p03fe249a4b)" style="fill: none; stroke: #1f77b4; stroke-width: 1.5"/>
   </g>
   <g id="LineCollection_5">
    <path d="M 50.619048 133.418721 
L 67.847004 133.418721 
" clip-path="url(#p03fe249a4b)" style="fill: none; stroke-dasharray: 2,3.3; stroke-dashoffset: 0; stroke: #808080; stroke-width: 2"/>
    <path d="M 99.841782 132.848147 
L 117.069738 132.848147 
" clip-path="url(#p03fe249a4b)" style="fill: none; stroke-dasharray: 2,3.3; stroke-dashoffset: 0; stroke: #808080; stroke-width: 2"/>
    <path d="M 149.064516 182.555382 
L 166.292472 182.555382 
" clip-path="url(#p03fe249a4b)" style="fill: none; stroke-dasharray: 2,3.3; stroke-dashoffset: 0; stroke: #808080; stroke-width: 2"/>
   </g>
   <g id="patch_3">
    <path d="M 35.36 190.326395 
L 35.36 23.199 
" style="fill: none; stroke: #000000; stroke-width: 0.8; stroke-linejoin: miter; stroke-linecap: square"/>
   </g>
   <g id="patch_4">
    <path d="M 181.55152 190.326395 
L 181.55152 23.199 
" style="fill: none; stroke: #000000; stroke-width: 0.8; stroke-linejoin: miter; stroke-linecap: square"/>
   </g>
   <g id="patch_5">
    <path d="M 35.36 190.326395 
L 181.55152 190.326395 
" style="fill: none; stroke: #000000; stroke-width: 0.8; stroke-linejoin: miter; stroke-linecap: square"/>
   </g>
   <g id="patch_6">
    <path d="M 35.36 23.199 
L 181.55152 23.199 
" style="fill: none; stroke: #000000; stroke-width: 0.8; stroke-linejoin: miter; stroke-linecap: square"/>
   </g>
   <g id="text_13">
    <!-- 1000 -->
    <g transform="translate(59.233026 40.134161) scale(0.1 -0.1)">
     <use xlink:href="#TimesNewRomanPSMT-31"/>
     <use xlink:href="#TimesNewRomanPSMT-30" transform="translate(50 0)"/>
     <use xlink:href="#TimesNewRomanPSMT-30" transform="translate(100 0)"/>
     <use xlink:href="#TimesNewRomanPSMT-30" transform="translate(150 0)"/>
    </g>
   </g>
   <g id="text_14">
    <!-- 1000 -->
    <g transform="translate(108.45576 40.134161) scale(0.1 -0.1)">
     <use xlink:href="#TimesNewRomanPSMT-31"/>
     <use xlink:href="#TimesNewRomanPSMT-30" transform="translate(50 0)"/>
     <use xlink:href="#TimesNewRomanPSMT-30" transform="translate(100 0)"/>
     <use xlink:href="#TimesNewRomanPSMT-30" transform="translate(150 0)"/>
    </g>
   </g>
   <g id="text_15">
    <!-- 3222 -->
    <g transform="translate(157.678494 40.134161) scale(0.1 -0.1)">
     <defs>
      <path id="TimesNewRomanPSMT-33" d="M 325 3431 
Q 506 3859 782 4092 
Q 1059 4325 1472 4325 
Q 1981 4325 2253 3994 
Q 2459 3747 2459 3466 
Q 2459 3003 1878 2509 
Q 2269 2356 2469 2072 
Q 2669 1788 2669 1403 
Q 2669 853 2319 450 
Q 1863 -75 997 -75 
Q 569 -75 414 31 
Q 259 138 259 259 
Q 259 350 332 419 
Q 406 488 509 488 
Q 588 488 669 463 
Q 722 447 909 348 
Q 1097 250 1169 231 
Q 1284 197 1416 197 
Q 1734 197 1970 444 
Q 2206 691 2206 1028 
Q 2206 1275 2097 1509 
Q 2016 1684 1919 1775 
Q 1784 1900 1550 2001 
Q 1316 2103 1072 2103 
L 972 2103 
L 972 2197 
Q 1219 2228 1467 2375 
Q 1716 2522 1828 2728 
Q 1941 2934 1941 3181 
Q 1941 3503 1739 3701 
Q 1538 3900 1238 3900 
Q 753 3900 428 3381 
L 325 3431 
z
" transform="scale(0.015625)"/>
      <path id="TimesNewRomanPSMT-32" d="M 2934 816 
L 2638 0 
L 138 0 
L 138 116 
Q 1241 1122 1691 1759 
Q 2141 2397 2141 2925 
Q 2141 3328 1894 3587 
Q 1647 3847 1303 3847 
Q 991 3847 742 3664 
Q 494 3481 375 3128 
L 259 3128 
Q 338 3706 661 4015 
Q 984 4325 1469 4325 
Q 1984 4325 2329 3994 
Q 2675 3663 2675 3213 
Q 2675 2891 2525 2569 
Q 2294 2063 1775 1497 
Q 997 647 803 472 
L 1909 472 
Q 2247 472 2383 497 
Q 2519 522 2628 598 
Q 2738 675 2819 816 
L 2934 816 
z
" transform="scale(0.015625)"/>
     </defs>
     <use xlink:href="#TimesNewRomanPSMT-33"/>
     <use xlink:href="#TimesNewRomanPSMT-32" transform="translate(50 0)"/>
     <use xlink:href="#TimesNewRomanPSMT-32" transform="translate(100 0)"/>
     <use xlink:href="#TimesNewRomanPSMT-32" transform="translate(150 0)"/>
    </g>
   </g>
   <g id="text_16">
    <!-- 2 Vessels -->
    <g transform="translate(81.983385 17.199) scale(0.144 -0.144)">
     <defs>
      <path id="TimesNewRomanPSMT-56" d="M 4544 4238 
L 4544 4122 
Q 4319 4081 4203 3978 
Q 4038 3825 3909 3509 
L 2431 -97 
L 2316 -97 
L 728 3556 
Q 606 3838 556 3900 
Q 478 3997 364 4051 
Q 250 4106 56 4122 
L 56 4238 
L 1788 4238 
L 1788 4122 
Q 1494 4094 1406 4022 
Q 1319 3950 1319 3838 
Q 1319 3681 1463 3350 
L 2541 866 
L 3541 3319 
Q 3688 3681 3688 3822 
Q 3688 3913 3597 3995 
Q 3506 4078 3291 4113 
Q 3275 4116 3238 4122 
L 3238 4238 
L 4544 4238 
z
" transform="scale(0.015625)"/>
      <path id="TimesNewRomanPSMT-73" d="M 2050 2947 
L 2050 1972 
L 1947 1972 
Q 1828 2431 1642 2597 
Q 1456 2763 1169 2763 
Q 950 2763 815 2647 
Q 681 2531 681 2391 
Q 681 2216 781 2091 
Q 878 1963 1175 1819 
L 1631 1597 
Q 2266 1288 2266 781 
Q 2266 391 1970 151 
Q 1675 -88 1309 -88 
Q 1047 -88 709 6 
Q 606 38 541 38 
Q 469 38 428 -44 
L 325 -44 
L 325 978 
L 428 978 
Q 516 541 762 319 
Q 1009 97 1316 97 
Q 1531 97 1667 223 
Q 1803 350 1803 528 
Q 1803 744 1651 891 
Q 1500 1038 1047 1263 
Q 594 1488 453 1669 
Q 313 1847 313 2119 
Q 313 2472 555 2709 
Q 797 2947 1181 2947 
Q 1350 2947 1591 2875 
Q 1750 2828 1803 2828 
Q 1853 2828 1881 2850 
Q 1909 2872 1947 2947 
L 2050 2947 
z
" transform="scale(0.015625)"/>
      <path id="TimesNewRomanPSMT-6c" d="M 1184 4444 
L 1184 647 
Q 1184 378 1223 290 
Q 1263 203 1344 158 
Q 1425 113 1647 113 
L 1647 0 
L 244 0 
L 244 113 
Q 441 113 512 153 
Q 584 194 625 287 
Q 666 381 666 647 
L 666 3247 
Q 666 3731 644 3842 
Q 622 3953 573 3993 
Q 525 4034 450 4034 
Q 369 4034 244 3984 
L 191 4094 
L 1044 4444 
L 1184 4444 
z
" transform="scale(0.015625)"/>
     </defs>
     <use xlink:href="#TimesNewRomanPSMT-32"/>
     <use xlink:href="#TimesNewRomanPSMT-20" transform="translate(50 0)"/>
     <use xlink:href="#TimesNewRomanPSMT-56" transform="translate(73.25 0)"/>
     <use xlink:href="#TimesNewRomanPSMT-65" transform="translate(134.341797 0)"/>
     <use xlink:href="#TimesNewRomanPSMT-73" transform="translate(178.726562 0)"/>
     <use xlink:href="#TimesNewRomanPSMT-73" transform="translate(217.642578 0)"/>
     <use xlink:href="#TimesNewRomanPSMT-65" transform="translate(256.558594 0)"/>
     <use xlink:href="#TimesNewRomanPSMT-6c" transform="translate(300.943359 0)"/>
     <use xlink:href="#TimesNewRomanPSMT-73" transform="translate(328.726562 0)"/>
    </g>
   </g>
  </g>
  <g id="axes_2">
   <g id="patch_7">
    <path d="M 187.552 190.326395 
L 333.74352 190.326395 
L 333.74352 23.199 
L 187.552 23.199 
z
" style="fill: #ffffff"/>
   </g>
   <g id="matplotlib.axis_3"/>
   <g id="matplotlib.axis_4"/>
   <g id="patch_8">
    <path d="M 187.552 190.326395 
L 187.552 23.199 
" style="fill: none; stroke: #000000; stroke-width: 0.8; stroke-linejoin: miter; stroke-linecap: square"/>
   </g>
   <g id="patch_9">
    <path d="M 333.74352 190.326395 
L 333.74352 23.199 
" style="fill: none; stroke: #000000; stroke-width: 0.8; stroke-linejoin: miter; stroke-linecap: square"/>
   </g>
   <g id="patch_10">
    <path d="M 187.552 190.326395 
L 333.74352 190.326395 
" style="fill: none; stroke: #000000; stroke-width: 0.8; stroke-linejoin: miter; stroke-linecap: square"/>
   </g>
   <g id="patch_11">
    <path d="M 187.552 23.199 
L 333.74352 23.199 
" style="fill: none; stroke: #000000; stroke-width: 0.8; stroke-linejoin: miter; stroke-linecap: square"/>
   </g>
   <g id="text_17">
    <!-- 3 Vessels -->
    <g transform="translate(234.175385 17.199) scale(0.144 -0.144)">
     <use xlink:href="#TimesNewRomanPSMT-33"/>
     <use xlink:href="#TimesNewRomanPSMT-20" transform="translate(50 0)"/>
     <use xlink:href="#TimesNewRomanPSMT-56" transform="translate(73.25 0)"/>
     <use xlink:href="#TimesNewRomanPSMT-65" transform="translate(134.341797 0)"/>
     <use xlink:href="#TimesNewRomanPSMT-73" transform="translate(178.726562 0)"/>
     <use xlink:href="#TimesNewRomanPSMT-73" transform="translate(217.642578 0)"/>
     <use xlink:href="#TimesNewRomanPSMT-65" transform="translate(256.558594 0)"/>
     <use xlink:href="#TimesNewRomanPSMT-6c" transform="translate(300.943359 0)"/>
     <use xlink:href="#TimesNewRomanPSMT-73" transform="translate(328.726562 0)"/>
    </g>
   </g>
  </g>
  <g id="axes_3">
   <g id="patch_12">
    <path d="M 339.744 190.326395 
L 485.93552 190.326395 
L 485.93552 23.199 
L 339.744 23.199 
z
" style="fill: #ffffff"/>
   </g>
   <g id="matplotlib.axis_5"/>
   <g id="matplotlib.axis_6"/>
   <g id="patch_13">
    <path d="M 339.744 190.326395 
L 339.744 23.199 
" style="fill: none; stroke: #000000; stroke-width: 0.8; stroke-linejoin: miter; stroke-linecap: square"/>
   </g>
   <g id="patch_14">
    <path d="M 485.93552 190.326395 
L 485.93552 23.199 
" style="fill: none; stroke: #000000; stroke-width: 0.8; stroke-linejoin: miter; stroke-linecap: square"/>
   </g>
   <g id="patch_15">
    <path d="M 339.744 190.326395 
L 485.93552 190.326395 
" style="fill: none; stroke: #000000; stroke-width: 0.8; stroke-linejoin: miter; stroke-linecap: square"/>
   </g>
   <g id="patch_16">
    <path d="M 339.744 23.199 
L 485.93552 23.199 
" style="fill: none; stroke: #000000; stroke-width: 0.8; stroke-linejoin: miter; stroke-linecap: square"/>
   </g>
   <g id="text_18">
    <!-- 4 Vessels -->
    <g transform="translate(386.367385 17.199) scale(0.144 -0.144)">
     <defs>
      <path id="TimesNewRomanPSMT-34" d="M 2978 1563 
L 2978 1119 
L 2409 1119 
L 2409 0 
L 1894 0 
L 1894 1119 
L 100 1119 
L 100 1519 
L 2066 4325 
L 2409 4325 
L 2409 1563 
L 2978 1563 
z
M 1894 1563 
L 1894 3666 
L 406 1563 
L 1894 1563 
z
" transform="scale(0.015625)"/>
     </defs>
     <use xlink:href="#TimesNewRomanPSMT-34"/>
     <use xlink:href="#TimesNewRomanPSMT-20" transform="translate(50 0)"/>
     <use xlink:href="#TimesNewRomanPSMT-56" transform="translate(73.25 0)"/>
     <use xlink:href="#TimesNewRomanPSMT-65" transform="translate(134.341797 0)"/>
     <use xlink:href="#TimesNewRomanPSMT-73" transform="translate(178.726562 0)"/>
     <use xlink:href="#TimesNewRomanPSMT-73" transform="translate(217.642578 0)"/>
     <use xlink:href="#TimesNewRomanPSMT-65" transform="translate(256.558594 0)"/>
     <use xlink:href="#TimesNewRomanPSMT-6c" transform="translate(300.943359 0)"/>
     <use xlink:href="#TimesNewRomanPSMT-73" transform="translate(328.726562 0)"/>
    </g>
   </g>
  </g>
  <g id="axes_4">
   <g id="patch_17">
    <path d="M 491.936 190.326395 
L 638.12752 190.326395 
L 638.12752 23.199 
L 491.936 23.199 
z
" style="fill: #ffffff"/>
   </g>
   <g id="matplotlib.axis_7"/>
   <g id="matplotlib.axis_8"/>
   <g id="patch_18">
    <path d="M 491.936 190.326395 
L 491.936 23.199 
" style="fill: none; stroke: #000000; stroke-width: 0.8; stroke-linejoin: miter; stroke-linecap: square"/>
   </g>
   <g id="patch_19">
    <path d="M 638.12752 190.326395 
L 638.12752 23.199 
" style="fill: none; stroke: #000000; stroke-width: 0.8; stroke-linejoin: miter; stroke-linecap: square"/>
   </g>
   <g id="patch_20">
    <path d="M 491.936 190.326395 
L 638.12752 190.326395 
" style="fill: none; stroke: #000000; stroke-width: 0.8; stroke-linejoin: miter; stroke-linecap: square"/>
   </g>
   <g id="patch_21">
    <path d="M 491.936 23.199 
L 638.12752 23.199 
" style="fill: none; stroke: #000000; stroke-width: 0.8; stroke-linejoin: miter; stroke-linecap: square"/>
   </g>
   <g id="text_19">
    <!-- 5 Vessels -->
    <g transform="translate(538.559385 17.199) scale(0.144 -0.144)">
     <defs>
      <path id="TimesNewRomanPSMT-35" d="M 2778 4238 
L 2534 3706 
L 1259 3706 
L 981 3138 
Q 1809 3016 2294 2522 
Q 2709 2097 2709 1522 
Q 2709 1188 2573 903 
Q 2438 619 2231 419 
Q 2025 219 1772 97 
Q 1413 -75 1034 -75 
Q 653 -75 479 54 
Q 306 184 306 341 
Q 306 428 378 495 
Q 450 563 559 563 
Q 641 563 702 538 
Q 763 513 909 409 
Q 1144 247 1384 247 
Q 1750 247 2026 523 
Q 2303 800 2303 1197 
Q 2303 1581 2056 1914 
Q 1809 2247 1375 2428 
Q 1034 2569 447 2591 
L 1259 4238 
L 2778 4238 
z
" transform="scale(0.015625)"/>
     </defs>
     <use xlink:href="#TimesNewRomanPSMT-35"/>
     <use xlink:href="#TimesNewRomanPSMT-20" transform="translate(50 0)"/>
     <use xlink:href="#TimesNewRomanPSMT-56" transform="translate(73.25 0)"/>
     <use xlink:href="#TimesNewRomanPSMT-65" transform="translate(134.341797 0)"/>
     <use xlink:href="#TimesNewRomanPSMT-73" transform="translate(178.726562 0)"/>
     <use xlink:href="#TimesNewRomanPSMT-73" transform="translate(217.642578 0)"/>
     <use xlink:href="#TimesNewRomanPSMT-65" transform="translate(256.558594 0)"/>
     <use xlink:href="#TimesNewRomanPSMT-6c" transform="translate(300.943359 0)"/>
     <use xlink:href="#TimesNewRomanPSMT-73" transform="translate(328.726562 0)"/>
    </g>
   </g>
  </g>
  <g id="axes_5">
   <g id="patch_22">
    <path d="M 644.128 190.326395 
L 790.31952 190.326395 
L 790.31952 23.199 
L 644.128 23.199 
z
" style="fill: #ffffff"/>
   </g>
   <g id="matplotlib.axis_9"/>
   <g id="matplotlib.axis_10"/>
   <g id="patch_23">
    <path d="M 644.128 190.326395 
L 644.128 23.199 
" style="fill: none; stroke: #000000; stroke-width: 0.8; stroke-linejoin: miter; stroke-linecap: square"/>
   </g>
   <g id="patch_24">
    <path d="M 790.31952 190.326395 
L 790.31952 23.199 
" style="fill: none; stroke: #000000; stroke-width: 0.8; stroke-linejoin: miter; stroke-linecap: square"/>
   </g>
   <g id="patch_25">
    <path d="M 644.128 190.326395 
L 790.31952 190.326395 
" style="fill: none; stroke: #000000; stroke-width: 0.8; stroke-linejoin: miter; stroke-linecap: square"/>
   </g>
   <g id="patch_26">
    <path d="M 644.128 23.199 
L 790.31952 23.199 
" style="fill: none; stroke: #000000; stroke-width: 0.8; stroke-linejoin: miter; stroke-linecap: square"/>
   </g>
   <g id="text_20">
    <!-- 6 Vessels -->
    <g transform="translate(690.751385 17.199) scale(0.144 -0.144)">
     <defs>
      <path id="TimesNewRomanPSMT-36" d="M 2869 4325 
L 2869 4209 
Q 2456 4169 2195 4045 
Q 1934 3922 1679 3669 
Q 1425 3416 1258 3105 
Q 1091 2794 978 2366 
Q 1428 2675 1881 2675 
Q 2316 2675 2634 2325 
Q 2953 1975 2953 1425 
Q 2953 894 2631 456 
Q 2244 -75 1606 -75 
Q 1172 -75 869 213 
Q 275 772 275 1663 
Q 275 2231 503 2743 
Q 731 3256 1154 3653 
Q 1578 4050 1965 4187 
Q 2353 4325 2688 4325 
L 2869 4325 
z
M 925 2138 
Q 869 1716 869 1456 
Q 869 1156 980 804 
Q 1091 453 1309 247 
Q 1469 100 1697 100 
Q 1969 100 2183 356 
Q 2397 613 2397 1088 
Q 2397 1622 2184 2012 
Q 1972 2403 1581 2403 
Q 1463 2403 1327 2353 
Q 1191 2303 925 2138 
z
" transform="scale(0.015625)"/>
     </defs>
     <use xlink:href="#TimesNewRomanPSMT-36"/>
     <use xlink:href="#TimesNewRomanPSMT-20" transform="translate(50 0)"/>
     <use xlink:href="#TimesNewRomanPSMT-56" transform="translate(73.25 0)"/>
     <use xlink:href="#TimesNewRomanPSMT-65" transform="translate(134.341797 0)"/>
     <use xlink:href="#TimesNewRomanPSMT-73" transform="translate(178.726562 0)"/>
     <use xlink:href="#TimesNewRomanPSMT-73" transform="translate(217.642578 0)"/>
     <use xlink:href="#TimesNewRomanPSMT-65" transform="translate(256.558594 0)"/>
     <use xlink:href="#TimesNewRomanPSMT-6c" transform="translate(300.943359 0)"/>
     <use xlink:href="#TimesNewRomanPSMT-73" transform="translate(328.726562 0)"/>
    </g>
   </g>
  </g>
 </g>
 <defs>
  <clipPath id="p03fe249a4b">
   <rect x="35.36" y="23.199" width="146.19152" height="167.127395"/>
  </clipPath>
 </defs>
</svg>
