<?xml version="1.0" encoding="utf-8" standalone="no"?>
<!DOCTYPE svg PUBLIC "-//W3C//DTD SVG 1.1//EN"
  "http://www.w3.org/Graphics/SVG/1.1/DTD/svg11.dtd">
<svg xmlns:xlink="http://www.w3.org/1999/xlink" width="423.09pt" height="204.151071pt" viewBox="0 0 423.09 204.151071" xmlns="http://www.w3.org/2000/svg" version="1.1">
 <metadata>
  <rdf:RDF xmlns:dc="http://purl.org/dc/elements/1.1/" xmlns:cc="http://creativecommons.org/ns#" xmlns:rdf="http://www.w3.org/1999/02/22-rdf-syntax-ns#">
   <cc:Work>
    <dc:type rdf:resource="http://purl.org/dc/dcmitype/StillImage"/>
    <dc:date>2024-10-21T09:40:49.638594</dc:date>
    <dc:format>image/svg+xml</dc:format>
    <dc:creator>
     <cc:Agent>
      <dc:title>Matplotlib v3.9.0, https://matplotlib.org/</dc:title>
     </cc:Agent>
    </dc:creator>
   </cc:Work>
  </rdf:RDF>
 </metadata>
 <defs>
  <style type="text/css">*{stroke-linejoin: round; stroke-linecap: butt}</style>
 </defs>
 <g id="figure_1">
  <g id="patch_1">
   <path d="M 0 204.151071 
L 423.09 204.151071 
L 423.09 0 
L 0 0 
z
" style="fill: #ffffff"/>
  </g>
  <g id="axes_1">
   <g id="patch_2">
    <path d="M 49.43 163.661283 
L 114.87 163.661283 
L 114.87 23.199 
L 49.43 23.199 
z
" style="fill: #ffffff"/>
   </g>
   <g id="PolyCollection_1">
    <path d="M 74.556856 163.661283 
L 54.748492 163.661283 
L 54.681058 162.689103 
L 54.694 161.716923 
L 54.783607 160.744744 
L 54.943846 159.772564 
L 55.16667 158.800385 
L 55.442414 157.828205 
L 55.760258 156.856026 
L 56.108726 155.883846 
L 56.476189 154.911667 
L 56.851345 153.939487 
L 57.223649 152.967308 
L 57.583668 151.995128 
L 57.923347 151.022949 
L 58.23619 150.050769 
L 58.517328 149.07859 
L 58.763512 148.10641 
L 58.973011 147.13423 
L 59.145453 146.162051 
L 59.281614 145.189871 
L 59.383167 144.217692 
L 59.45243 143.245512 
L 59.492107 142.273333 
L 59.505051 141.301153 
L 59.494053 140.328974 
L 59.461666 139.356794 
L 59.410081 138.384615 
L 59.341036 137.412435 
L 59.25578 136.440256 
L 59.15507 135.468076 
L 59.039218 134.495897 
L 58.908154 133.523717 
L 58.761528 132.551537 
L 58.598822 131.579358 
L 58.419468 130.607178 
L 58.222975 129.634999 
L 58.009045 128.662819 
L 57.777674 127.69064 
L 57.529239 126.71846 
L 57.264562 125.746281 
L 56.984941 124.774101 
L 56.692162 123.801922 
L 56.388478 122.829742 
L 56.076564 121.857563 
L 55.759448 120.885383 
L 55.440422 119.913204 
L 55.122945 118.941024 
L 54.810534 117.968845 
L 54.506654 116.996665 
L 54.214619 116.024485 
L 53.9375 115.052306 
L 53.678056 114.080126 
L 53.43868 113.107947 
L 53.221371 112.135767 
L 53.027736 111.163588 
L 52.859008 110.191408 
L 52.716085 109.219229 
L 52.599591 108.247049 
L 52.509942 107.27487 
L 52.447414 106.30269 
L 52.412216 105.330511 
L 52.404545 104.358331 
L 52.424633 103.386152 
L 52.472762 102.413972 
L 52.549276 101.441792 
L 52.654547 100.469613 
L 52.788937 99.497433 
L 52.952734 98.525254 
L 53.14607 97.553074 
L 53.368841 96.580895 
L 53.620621 95.608715 
L 53.900589 94.636536 
L 54.207465 93.664356 
L 54.539479 92.692177 
L 54.894353 91.719997 
L 55.269323 90.747818 
L 55.661189 89.775638 
L 56.066392 88.803459 
L 56.481112 87.831279 
L 56.901389 86.859099 
L 57.323257 85.88692 
L 57.742866 84.91474 
L 58.156619 83.942561 
L 58.561276 82.970381 
L 58.954048 81.998202 
L 59.332663 81.026022 
L 59.6954 80.053843 
L 60.041095 79.081663 
L 60.369118 78.109484 
L 60.679328 77.137304 
L 60.971998 76.165125 
L 61.247734 75.192945 
L 61.507387 74.220766 
L 61.751954 73.248586 
L 61.982491 72.276407 
L 62.20004 71.304227 
L 62.405561 70.332047 
L 62.59989 69.359868 
L 62.783704 68.387688 
L 62.95752 67.415509 
L 66.347828 67.415509 
L 66.347828 67.415509 
L 66.521643 68.387688 
L 66.705458 69.359868 
L 66.899786 70.332047 
L 67.105308 71.304227 
L 67.322857 72.276407 
L 67.553394 73.248586 
L 67.79796 74.220766 
L 68.057613 75.192945 
L 68.33335 76.165125 
L 68.62602 77.137304 
L 68.936229 78.109484 
L 69.264253 79.081663 
L 69.609948 80.053843 
L 69.972685 81.026022 
L 70.3513 81.998202 
L 70.744072 82.970381 
L 71.148729 83.942561 
L 71.562482 84.91474 
L 71.982091 85.88692 
L 72.403958 86.859099 
L 72.824236 87.831279 
L 73.238956 88.803459 
L 73.644159 89.775638 
L 74.036025 90.747818 
L 74.410995 91.719997 
L 74.765868 92.692177 
L 75.097882 93.664356 
L 75.404759 94.636536 
L 75.684727 95.608715 
L 75.936507 96.580895 
L 76.159278 97.553074 
L 76.352614 98.525254 
L 76.51641 99.497433 
L 76.650801 100.469613 
L 76.756072 101.441792 
L 76.832585 102.413972 
L 76.880715 103.386152 
L 76.900802 104.358331 
L 76.893132 105.330511 
L 76.857934 106.30269 
L 76.795406 107.27487 
L 76.705756 108.247049 
L 76.589263 109.219229 
L 76.44634 110.191408 
L 76.277611 111.163588 
L 76.083977 112.135767 
L 75.866668 113.107947 
L 75.627291 114.080126 
L 75.367847 115.052306 
L 75.090729 116.024485 
L 74.798694 116.996665 
L 74.494814 117.968845 
L 74.182402 118.941024 
L 73.864926 119.913204 
L 73.5459 120.885383 
L 73.228783 121.857563 
L 72.916869 122.829742 
L 72.613185 123.801922 
L 72.320406 124.774101 
L 72.040785 125.746281 
L 71.776108 126.71846 
L 71.527674 127.69064 
L 71.296303 128.662819 
L 71.082373 129.634999 
L 70.88588 130.607178 
L 70.706526 131.579358 
L 70.543819 132.551537 
L 70.397194 133.523717 
L 70.26613 134.495897 
L 70.150277 135.468076 
L 70.049568 136.440256 
L 69.964311 137.412435 
L 69.895267 138.384615 
L 69.843682 139.356794 
L 69.811295 140.328974 
L 69.800296 141.301153 
L 69.813241 142.273333 
L 69.852918 143.245512 
L 69.922181 144.217692 
L 70.023734 145.189871 
L 70.159894 146.162051 
L 70.332337 147.13423 
L 70.541836 148.10641 
L 70.788019 149.07859 
L 71.069158 150.050769 
L 71.382 151.022949 
L 71.72168 151.995128 
L 72.081698 152.967308 
L 72.454002 153.939487 
L 72.829159 154.911667 
L 73.196622 155.883846 
L 73.54509 156.856026 
L 73.862934 157.828205 
L 74.138678 158.800385 
L 74.361502 159.772564 
L 74.521741 160.744744 
L 74.611347 161.716923 
L 74.62429 162.689103 
L 74.556856 163.661283 
z
" clip-path="url(#p900f343555)" style="fill: #0080ff; fill-opacity: 0.3"/>
   </g>
   <g id="PolyCollection_2">
    <path d="M 111.863106 163.661283 
L 87.431546 163.661283 
L 87.399198 162.75418 
L 87.470048 161.847078 
L 87.63953 160.939976 
L 87.900235 160.032873 
L 88.242267 159.125771 
L 88.653697 158.218669 
L 89.121096 157.311566 
L 89.630114 156.404464 
L 90.166066 155.497362 
L 90.714493 154.590259 
L 91.261666 153.683157 
L 91.79502 152.776055 
L 92.303483 151.868952 
L 92.777711 150.96185 
L 93.210218 150.054748 
L 93.595401 149.147645 
L 93.929492 148.240543 
L 94.210423 147.333441 
L 94.437652 146.426338 
L 94.611947 145.519236 
L 94.735151 144.612134 
L 94.809955 143.705031 
L 94.839669 142.797929 
L 94.828026 141.890827 
L 94.779004 140.983724 
L 94.696684 140.076622 
L 94.585134 139.16952 
L 94.448323 138.262417 
L 94.290064 137.355315 
L 94.11397 136.448213 
L 93.923436 135.54111 
L 93.721628 134.634008 
L 93.511484 133.726906 
L 93.295717 132.819803 
L 93.076825 131.912701 
L 92.857097 131.005599 
L 92.638624 130.098496 
L 92.4233 129.191394 
L 92.212828 128.284292 
L 92.008718 127.377189 
L 91.812282 126.470087 
L 91.624632 125.562985 
L 91.446662 124.655882 
L 91.279049 123.74878 
L 91.122231 122.841678 
L 90.976406 121.934575 
L 90.841526 121.027473 
L 90.717295 120.120371 
L 90.603179 119.213268 
L 90.498424 118.306166 
L 90.402088 117.399064 
L 90.313078 116.491961 
L 90.23021 115.584859 
L 90.152265 114.677757 
L 90.078067 113.770654 
L 90.006562 112.863552 
L 89.936892 111.95645 
L 89.86848 111.049347 
L 89.801092 110.142245 
L 89.734897 109.235143 
L 89.670505 108.32804 
L 89.608986 107.420938 
L 89.551864 106.513836 
L 89.501088 105.606733 
L 89.458978 104.699631 
L 89.428145 103.792529 
L 89.411403 102.885426 
L 89.411651 101.978324 
L 89.431757 101.071222 
L 89.474435 100.164119 
L 89.542128 99.257017 
L 89.636895 98.349915 
L 89.760321 97.442812 
L 89.91344 96.53571 
L 90.096687 95.628608 
L 90.309866 94.721505 
L 90.552157 93.814403 
L 90.822133 92.907301 
L 91.117813 92.000198 
L 91.436724 91.093096 
L 91.775982 90.185994 
L 92.132386 89.278891 
L 92.502515 88.371789 
L 92.882823 87.464687 
L 93.269739 86.557584 
L 93.659753 85.650482 
L 94.049493 84.74338 
L 94.435795 83.836277 
L 94.815751 82.929175 
L 95.186754 82.022073 
L 95.546518 81.11497 
L 95.893096 80.207868 
L 96.224878 79.300766 
L 96.540584 78.393663 
L 96.839251 77.486561 
L 97.120212 76.579459 
L 97.383067 75.672356 
L 97.627661 74.765254 
L 97.854057 73.858152 
L 101.440595 73.858152 
L 101.440595 73.858152 
L 101.666991 74.765254 
L 101.911586 75.672356 
L 102.174441 76.579459 
L 102.455401 77.486561 
L 102.754069 78.393663 
L 103.069775 79.300766 
L 103.401556 80.207868 
L 103.748134 81.11497 
L 104.107898 82.022073 
L 104.478901 82.929175 
L 104.858858 83.836277 
L 105.245159 84.74338 
L 105.634899 85.650482 
L 106.024913 86.557584 
L 106.411829 87.464687 
L 106.792138 88.371789 
L 107.162266 89.278891 
L 107.518671 90.185994 
L 107.857929 91.093096 
L 108.176839 92.000198 
L 108.472519 92.907301 
L 108.742496 93.814403 
L 108.984786 94.721505 
L 109.197965 95.628608 
L 109.381212 96.53571 
L 109.534332 97.442812 
L 109.657758 98.349915 
L 109.752525 99.257017 
L 109.820217 100.164119 
L 109.862895 101.071222 
L 109.883001 101.978324 
L 109.883249 102.885426 
L 109.866507 103.792529 
L 109.835675 104.699631 
L 109.793564 105.606733 
L 109.742788 106.513836 
L 109.685666 107.420938 
L 109.624147 108.32804 
L 109.559756 109.235143 
L 109.493561 110.142245 
L 109.426172 111.049347 
L 109.35776 111.95645 
L 109.288091 112.863552 
L 109.216585 113.770654 
L 109.142387 114.677757 
L 109.064442 115.584859 
L 108.981574 116.491961 
L 108.892565 117.399064 
L 108.796229 118.306166 
L 108.691474 119.213268 
L 108.577357 120.120371 
L 108.453126 121.027473 
L 108.318246 121.934575 
L 108.172422 122.841678 
L 108.015604 123.74878 
L 107.84799 124.655882 
L 107.670021 125.562985 
L 107.48237 126.470087 
L 107.285935 127.377189 
L 107.081825 128.284292 
L 106.871353 129.191394 
L 106.656029 130.098496 
L 106.437555 131.005599 
L 106.217828 131.912701 
L 105.998936 132.819803 
L 105.783169 133.726906 
L 105.573025 134.634008 
L 105.371217 135.54111 
L 105.180683 136.448213 
L 105.004588 137.355315 
L 104.846329 138.262417 
L 104.709518 139.16952 
L 104.597968 140.076622 
L 104.515648 140.983724 
L 104.466626 141.890827 
L 104.454983 142.797929 
L 104.484697 143.705031 
L 104.559501 144.612134 
L 104.682706 145.519236 
L 104.857 146.426338 
L 105.08423 147.333441 
L 105.365161 148.240543 
L 105.699251 149.147645 
L 106.084435 150.054748 
L 106.516941 150.96185 
L 106.99117 151.868952 
L 107.499632 152.776055 
L 108.032986 153.683157 
L 108.58016 154.590259 
L 109.128587 155.497362 
L 109.664539 156.404464 
L 110.173557 157.311566 
L 110.640956 158.218669 
L 111.052385 159.125771 
L 111.394418 160.032873 
L 111.655123 160.939976 
L 111.824604 161.847078 
L 111.895455 162.75418 
L 111.863106 163.661283 
z
" clip-path="url(#p900f343555)" style="fill: #ff8000; fill-opacity: 0.3"/>
   </g>
   <g id="matplotlib.axis_1">
    <g id="xtick_1">
     <g id="line2d_1">
      <defs>
       <path id="ma9463ff387" d="M 0 0 
L 0 3.5 
" style="stroke: #000000; stroke-width: 0.8"/>
      </defs>
      <g>
       <use xlink:href="#ma9463ff387" x="64.652674" y="163.661283" style="stroke: #000000; stroke-width: 0.8"/>
      </g>
     </g>
     <g id="text_1">
      <!-- MSR -->
      <g transform="translate(43.981733 195.136016) rotate(-45) scale(0.12 -0.12)">
       <defs>
        <path id="TimesNewRomanPS-BoldMT-4d" d="M 3050 1444 
L 4200 4238 
L 5925 4238 
L 5925 4122 
L 5788 4122 
Q 5600 4122 5488 4056 
Q 5409 4013 5363 3909 
Q 5328 3834 5328 3519 
L 5328 725 
Q 5328 400 5362 319 
Q 5397 238 5503 177 
Q 5609 116 5788 116 
L 5925 116 
L 5925 0 
L 3713 0 
L 3713 116 
L 3850 116 
Q 4038 116 4150 181 
Q 4228 225 4275 331 
Q 4309 406 4309 725 
L 4309 3866 
L 2684 0 
L 2609 0 
L 959 3838 
L 959 853 
Q 959 541 975 469 
Q 1016 313 1152 214 
Q 1288 116 1578 116 
L 1578 0 
L 128 0 
L 128 116 
L 172 116 
Q 313 113 434 161 
Q 556 209 618 290 
Q 681 372 716 519 
Q 722 553 722 838 
L 722 3519 
Q 722 3841 687 3920 
Q 653 4000 547 4061 
Q 441 4122 263 4122 
L 128 4122 
L 128 4238 
L 1859 4238 
L 3050 1444 
z
" transform="scale(0.015625)"/>
        <path id="TimesNewRomanPS-BoldMT-53" d="M 3006 4334 
L 3041 2922 
L 2913 2922 
Q 2822 3453 2467 3776 
Q 2113 4100 1700 4100 
Q 1381 4100 1195 3929 
Q 1009 3759 1009 3538 
Q 1009 3397 1075 3288 
Q 1166 3141 1366 2997 
Q 1513 2894 2044 2631 
Q 2788 2266 3047 1941 
Q 3303 1616 3303 1197 
Q 3303 666 2889 283 
Q 2475 -100 1838 -100 
Q 1638 -100 1459 -59 
Q 1281 -19 1013 94 
Q 863 156 766 156 
Q 684 156 593 93 
Q 503 31 447 -97 
L 331 -97 
L 331 1503 
L 447 1503 
Q 584 828 976 473 
Q 1369 119 1822 119 
Q 2172 119 2380 309 
Q 2588 500 2588 753 
Q 2588 903 2508 1043 
Q 2428 1184 2265 1311 
Q 2103 1438 1691 1641 
Q 1113 1925 859 2125 
Q 606 2325 470 2572 
Q 334 2819 334 3116 
Q 334 3622 706 3978 
Q 1078 4334 1644 4334 
Q 1850 4334 2044 4284 
Q 2191 4247 2402 4145 
Q 2613 4044 2697 4044 
Q 2778 4044 2825 4094 
Q 2872 4144 2913 4334 
L 3006 4334 
z
" transform="scale(0.015625)"/>
        <path id="TimesNewRomanPS-BoldMT-52" d="M 1700 1931 
L 1700 744 
Q 1700 400 1742 311 
Q 1784 222 1890 169 
Q 1997 116 2288 116 
L 2288 0 
L 119 0 
L 119 116 
Q 413 116 517 170 
Q 622 225 664 312 
Q 706 400 706 744 
L 706 3494 
Q 706 3838 664 3927 
Q 622 4016 515 4069 
Q 409 4122 119 4122 
L 119 4238 
L 2088 4238 
Q 2856 4238 3212 4131 
Q 3569 4025 3794 3739 
Q 4019 3453 4019 3069 
Q 4019 2600 3681 2294 
Q 3466 2100 3078 2003 
L 4097 569 
Q 4297 291 4381 222 
Q 4509 125 4678 116 
L 4678 0 
L 3344 0 
L 1978 1931 
L 1700 1931 
z
M 1700 4009 
L 1700 2153 
L 1878 2153 
Q 2313 2153 2528 2233 
Q 2744 2313 2867 2520 
Q 2991 2728 2991 3063 
Q 2991 3547 2764 3778 
Q 2538 4009 2034 4009 
L 1700 4009 
z
" transform="scale(0.015625)"/>
       </defs>
       <use xlink:href="#TimesNewRomanPS-BoldMT-4d"/>
       <use xlink:href="#TimesNewRomanPS-BoldMT-53" x="94.384766"/>
       <use xlink:href="#TimesNewRomanPS-BoldMT-52" x="150"/>
      </g>
     </g>
    </g>
    <g id="xtick_2">
     <g id="line2d_2">
      <g>
       <use xlink:href="#ma9463ff387" x="99.647326" y="163.661283" style="stroke: #000000; stroke-width: 0.8"/>
      </g>
     </g>
     <g id="text_2">
      <!-- SBO -->
      <g transform="translate(80.853754 193.258647) rotate(-45) scale(0.12 -0.12)">
       <defs>
        <path id="TimesNewRomanPS-BoldMT-42" d="M 2847 2247 
Q 3450 2106 3694 1906 
Q 4044 1622 4044 1169 
Q 4044 691 3659 378 
Q 3188 0 2288 0 
L 134 0 
L 134 116 
Q 428 116 533 170 
Q 638 225 680 312 
Q 722 400 722 744 
L 722 3494 
Q 722 3838 680 3927 
Q 638 4016 531 4069 
Q 425 4122 134 4122 
L 134 4238 
L 2166 4238 
Q 2894 4238 3197 4108 
Q 3500 3978 3675 3720 
Q 3850 3463 3850 3172 
Q 3850 2866 3628 2627 
Q 3406 2388 2847 2247 
z
M 1709 2331 
Q 2153 2331 2364 2431 
Q 2575 2531 2687 2712 
Q 2800 2894 2800 3175 
Q 2800 3456 2689 3636 
Q 2578 3816 2372 3909 
Q 2166 4003 1709 4000 
L 1709 2331 
z
M 1709 2088 
L 1709 728 
L 1706 572 
Q 1706 403 1792 317 
Q 1878 231 2047 231 
Q 2297 231 2508 342 
Q 2719 453 2831 664 
Q 2944 875 2944 1134 
Q 2944 1431 2806 1667 
Q 2669 1903 2428 1997 
Q 2188 2091 1709 2088 
z
" transform="scale(0.015625)"/>
        <path id="TimesNewRomanPS-BoldMT-4f" d="M 2472 4297 
Q 3484 4334 4117 3706 
Q 4750 3078 4750 2134 
Q 4750 1328 4278 716 
Q 3653 -97 2513 -97 
Q 1369 -97 744 678 
Q 250 1291 250 2131 
Q 250 3075 892 3704 
Q 1534 4334 2472 4297 
z
M 2509 4097 
Q 1928 4097 1625 3503 
Q 1378 3016 1378 2103 
Q 1378 1019 1759 500 
Q 2025 138 2503 138 
Q 2825 138 3041 294 
Q 3316 494 3469 933 
Q 3622 1372 3622 2078 
Q 3622 2919 3465 3336 
Q 3309 3753 3067 3925 
Q 2825 4097 2509 4097 
z
" transform="scale(0.015625)"/>
       </defs>
       <use xlink:href="#TimesNewRomanPS-BoldMT-53"/>
       <use xlink:href="#TimesNewRomanPS-BoldMT-42" x="55.615234"/>
       <use xlink:href="#TimesNewRomanPS-BoldMT-4f" x="122.314453"/>
      </g>
     </g>
    </g>
   </g>
   <g id="matplotlib.axis_2">
    <g id="ytick_1">
     <g id="line2d_3">
      <defs>
       <path id="mc04da3048c" d="M 0 0 
L -3.5 0 
" style="stroke: #000000; stroke-width: 0.8"/>
      </defs>
      <g>
       <use xlink:href="#mc04da3048c" x="49.43" y="163.661283" style="stroke: #000000; stroke-width: 0.8"/>
      </g>
     </g>
     <g id="text_3">
      <!-- 0.00 -->
      <g transform="translate(21.43 167.827533) scale(0.12 -0.12)">
       <defs>
        <path id="TimesNewRomanPSMT-30" d="M 231 2094 
Q 231 2819 450 3342 
Q 669 3866 1031 4122 
Q 1313 4325 1613 4325 
Q 2100 4325 2488 3828 
Q 2972 3213 2972 2159 
Q 2972 1422 2759 906 
Q 2547 391 2217 158 
Q 1888 -75 1581 -75 
Q 975 -75 572 641 
Q 231 1244 231 2094 
z
M 844 2016 
Q 844 1141 1059 588 
Q 1238 122 1591 122 
Q 1759 122 1940 273 
Q 2122 425 2216 781 
Q 2359 1319 2359 2297 
Q 2359 3022 2209 3506 
Q 2097 3866 1919 4016 
Q 1791 4119 1609 4119 
Q 1397 4119 1231 3928 
Q 1006 3669 925 3112 
Q 844 2556 844 2016 
z
" transform="scale(0.015625)"/>
        <path id="TimesNewRomanPSMT-2e" d="M 800 606 
Q 947 606 1047 504 
Q 1147 403 1147 259 
Q 1147 116 1045 14 
Q 944 -88 800 -88 
Q 656 -88 554 14 
Q 453 116 453 259 
Q 453 406 554 506 
Q 656 606 800 606 
z
" transform="scale(0.015625)"/>
       </defs>
       <use xlink:href="#TimesNewRomanPSMT-30"/>
       <use xlink:href="#TimesNewRomanPSMT-2e" x="50"/>
       <use xlink:href="#TimesNewRomanPSMT-30" x="75"/>
       <use xlink:href="#TimesNewRomanPSMT-30" x="125"/>
      </g>
     </g>
    </g>
    <g id="ytick_2">
     <g id="line2d_4">
      <g>
       <use xlink:href="#mc04da3048c" x="49.43" y="133.126004" style="stroke: #000000; stroke-width: 0.8"/>
      </g>
     </g>
     <g id="text_4">
      <!-- 0.25 -->
      <g transform="translate(21.43 137.292254) scale(0.12 -0.12)">
       <defs>
        <path id="TimesNewRomanPSMT-32" d="M 2934 816 
L 2638 0 
L 138 0 
L 138 116 
Q 1241 1122 1691 1759 
Q 2141 2397 2141 2925 
Q 2141 3328 1894 3587 
Q 1647 3847 1303 3847 
Q 991 3847 742 3664 
Q 494 3481 375 3128 
L 259 3128 
Q 338 3706 661 4015 
Q 984 4325 1469 4325 
Q 1984 4325 2329 3994 
Q 2675 3663 2675 3213 
Q 2675 2891 2525 2569 
Q 2294 2063 1775 1497 
Q 997 647 803 472 
L 1909 472 
Q 2247 472 2383 497 
Q 2519 522 2628 598 
Q 2738 675 2819 816 
L 2934 816 
z
" transform="scale(0.015625)"/>
        <path id="TimesNewRomanPSMT-35" d="M 2778 4238 
L 2534 3706 
L 1259 3706 
L 981 3138 
Q 1809 3016 2294 2522 
Q 2709 2097 2709 1522 
Q 2709 1188 2573 903 
Q 2438 619 2231 419 
Q 2025 219 1772 97 
Q 1413 -75 1034 -75 
Q 653 -75 479 54 
Q 306 184 306 341 
Q 306 428 378 495 
Q 450 563 559 563 
Q 641 563 702 538 
Q 763 513 909 409 
Q 1144 247 1384 247 
Q 1750 247 2026 523 
Q 2303 800 2303 1197 
Q 2303 1581 2056 1914 
Q 1809 2247 1375 2428 
Q 1034 2569 447 2591 
L 1259 4238 
L 2778 4238 
z
" transform="scale(0.015625)"/>
       </defs>
       <use xlink:href="#TimesNewRomanPSMT-30"/>
       <use xlink:href="#TimesNewRomanPSMT-2e" x="50"/>
       <use xlink:href="#TimesNewRomanPSMT-32" x="75"/>
       <use xlink:href="#TimesNewRomanPSMT-35" x="125"/>
      </g>
     </g>
    </g>
    <g id="ytick_3">
     <g id="line2d_5">
      <g>
       <use xlink:href="#mc04da3048c" x="49.43" y="102.590725" style="stroke: #000000; stroke-width: 0.8"/>
      </g>
     </g>
     <g id="text_5">
      <!-- 0.50 -->
      <g transform="translate(21.43 106.756975) scale(0.12 -0.12)">
       <use xlink:href="#TimesNewRomanPSMT-30"/>
       <use xlink:href="#TimesNewRomanPSMT-2e" x="50"/>
       <use xlink:href="#TimesNewRomanPSMT-35" x="75"/>
       <use xlink:href="#TimesNewRomanPSMT-30" x="125"/>
      </g>
     </g>
    </g>
    <g id="ytick_4">
     <g id="line2d_6">
      <g>
       <use xlink:href="#mc04da3048c" x="49.43" y="72.055446" style="stroke: #000000; stroke-width: 0.8"/>
      </g>
     </g>
     <g id="text_6">
      <!-- 0.75 -->
      <g transform="translate(21.43 76.221696) scale(0.12 -0.12)">
       <defs>
        <path id="TimesNewRomanPSMT-37" d="M 644 4238 
L 2916 4238 
L 2916 4119 
L 1503 -88 
L 1153 -88 
L 2419 3728 
L 1253 3728 
Q 900 3728 750 3644 
Q 488 3500 328 3200 
L 238 3234 
L 644 4238 
z
" transform="scale(0.015625)"/>
       </defs>
       <use xlink:href="#TimesNewRomanPSMT-30"/>
       <use xlink:href="#TimesNewRomanPSMT-2e" x="50"/>
       <use xlink:href="#TimesNewRomanPSMT-37" x="75"/>
       <use xlink:href="#TimesNewRomanPSMT-35" x="125"/>
      </g>
     </g>
    </g>
    <g id="ytick_5">
     <g id="line2d_7">
      <g>
       <use xlink:href="#mc04da3048c" x="49.43" y="41.520167" style="stroke: #000000; stroke-width: 0.8"/>
      </g>
     </g>
     <g id="text_7">
      <!-- 1.00 -->
      <g transform="translate(21.43 45.686417) scale(0.12 -0.12)">
       <defs>
        <path id="TimesNewRomanPSMT-31" d="M 750 3822 
L 1781 4325 
L 1884 4325 
L 1884 747 
Q 1884 391 1914 303 
Q 1944 216 2037 169 
Q 2131 122 2419 116 
L 2419 0 
L 825 0 
L 825 116 
Q 1125 122 1212 167 
Q 1300 213 1334 289 
Q 1369 366 1369 747 
L 1369 3034 
Q 1369 3497 1338 3628 
Q 1316 3728 1258 3775 
Q 1200 3822 1119 3822 
Q 1003 3822 797 3725 
L 750 3822 
z
" transform="scale(0.015625)"/>
       </defs>
       <use xlink:href="#TimesNewRomanPSMT-31"/>
       <use xlink:href="#TimesNewRomanPSMT-2e" x="50"/>
       <use xlink:href="#TimesNewRomanPSMT-30" x="75"/>
       <use xlink:href="#TimesNewRomanPSMT-30" x="125"/>
      </g>
     </g>
    </g>
    <g id="text_8">
     <!-- Max proximity index of OS at $t_0$ -->
     <g transform="translate(15.01 166.030141) rotate(-90) scale(0.11 -0.11)">
      <defs>
       <path id="TimesNewRomanPSMT-4d" d="M 2619 0 
L 981 3566 
L 981 734 
Q 981 344 1066 247 
Q 1181 116 1431 116 
L 1581 116 
L 1581 0 
L 106 0 
L 106 116 
L 256 116 
Q 525 116 638 278 
Q 706 378 706 734 
L 706 3503 
Q 706 3784 644 3909 
Q 600 4000 483 4061 
Q 366 4122 106 4122 
L 106 4238 
L 1306 4238 
L 2844 922 
L 4356 4238 
L 5556 4238 
L 5556 4122 
L 5409 4122 
Q 5138 4122 5025 3959 
Q 4956 3859 4956 3503 
L 4956 734 
Q 4956 344 5044 247 
Q 5159 116 5409 116 
L 5556 116 
L 5556 0 
L 3756 0 
L 3756 116 
L 3906 116 
Q 4178 116 4288 278 
Q 4356 378 4356 734 
L 4356 3566 
L 2722 0 
L 2619 0 
z
" transform="scale(0.015625)"/>
       <path id="TimesNewRomanPSMT-61" d="M 1822 413 
Q 1381 72 1269 19 
Q 1100 -59 909 -59 
Q 613 -59 420 144 
Q 228 347 228 678 
Q 228 888 322 1041 
Q 450 1253 767 1440 
Q 1084 1628 1822 1897 
L 1822 2009 
Q 1822 2438 1686 2597 
Q 1550 2756 1291 2756 
Q 1094 2756 978 2650 
Q 859 2544 859 2406 
L 866 2225 
Q 866 2081 792 2003 
Q 719 1925 600 1925 
Q 484 1925 411 2006 
Q 338 2088 338 2228 
Q 338 2497 613 2722 
Q 888 2947 1384 2947 
Q 1766 2947 2009 2819 
Q 2194 2722 2281 2516 
Q 2338 2381 2338 1966 
L 2338 994 
Q 2338 584 2353 492 
Q 2369 400 2405 369 
Q 2441 338 2488 338 
Q 2538 338 2575 359 
Q 2641 400 2828 588 
L 2828 413 
Q 2478 -56 2159 -56 
Q 2006 -56 1915 50 
Q 1825 156 1822 413 
z
M 1822 616 
L 1822 1706 
Q 1350 1519 1213 1441 
Q 966 1303 859 1153 
Q 753 1003 753 825 
Q 753 600 887 451 
Q 1022 303 1197 303 
Q 1434 303 1822 616 
z
" transform="scale(0.015625)"/>
       <path id="TimesNewRomanPSMT-78" d="M 84 2863 
L 1431 2863 
L 1431 2747 
Q 1303 2747 1251 2703 
Q 1200 2659 1200 2588 
Q 1200 2513 1309 2356 
Q 1344 2306 1413 2200 
L 1616 1875 
L 1850 2200 
Q 2075 2509 2075 2591 
Q 2075 2656 2022 2701 
Q 1969 2747 1850 2747 
L 1850 2863 
L 2819 2863 
L 2819 2747 
Q 2666 2738 2553 2663 
Q 2400 2556 2134 2200 
L 1744 1678 
L 2456 653 
Q 2719 275 2831 198 
Q 2944 122 3122 113 
L 3122 0 
L 1772 0 
L 1772 113 
Q 1913 113 1991 175 
Q 2050 219 2050 291 
Q 2050 363 1850 653 
L 1431 1266 
L 972 653 
Q 759 369 759 316 
Q 759 241 829 180 
Q 900 119 1041 113 
L 1041 0 
L 106 0 
L 106 113 
Q 219 128 303 191 
Q 422 281 703 653 
L 1303 1450 
L 759 2238 
Q 528 2575 401 2661 
Q 275 2747 84 2747 
L 84 2863 
z
" transform="scale(0.015625)"/>
       <path id="TimesNewRomanPSMT-20" transform="scale(0.015625)"/>
       <path id="TimesNewRomanPSMT-70" d="M -6 2578 
L 875 2934 
L 994 2934 
L 994 2266 
Q 1216 2644 1439 2795 
Q 1663 2947 1909 2947 
Q 2341 2947 2628 2609 
Q 2981 2197 2981 1534 
Q 2981 794 2556 309 
Q 2206 -88 1675 -88 
Q 1444 -88 1275 -22 
Q 1150 25 994 166 
L 994 -706 
Q 994 -1000 1030 -1079 
Q 1066 -1159 1155 -1206 
Q 1244 -1253 1478 -1253 
L 1478 -1369 
L -22 -1369 
L -22 -1253 
L 56 -1253 
Q 228 -1256 350 -1188 
Q 409 -1153 442 -1076 
Q 475 -1000 475 -688 
L 475 2019 
Q 475 2297 450 2372 
Q 425 2447 370 2484 
Q 316 2522 222 2522 
Q 147 2522 31 2478 
L -6 2578 
z
M 994 2081 
L 994 1013 
Q 994 666 1022 556 
Q 1066 375 1236 237 
Q 1406 100 1666 100 
Q 1978 100 2172 344 
Q 2425 663 2425 1241 
Q 2425 1897 2138 2250 
Q 1938 2494 1663 2494 
Q 1513 2494 1366 2419 
Q 1253 2363 994 2081 
z
" transform="scale(0.015625)"/>
       <path id="TimesNewRomanPSMT-72" d="M 1038 2947 
L 1038 2303 
Q 1397 2947 1775 2947 
Q 1947 2947 2059 2842 
Q 2172 2738 2172 2600 
Q 2172 2478 2090 2393 
Q 2009 2309 1897 2309 
Q 1788 2309 1652 2417 
Q 1516 2525 1450 2525 
Q 1394 2525 1328 2463 
Q 1188 2334 1038 2041 
L 1038 669 
Q 1038 431 1097 309 
Q 1138 225 1241 169 
Q 1344 113 1538 113 
L 1538 0 
L 72 0 
L 72 113 
Q 291 113 397 181 
Q 475 231 506 341 
Q 522 394 522 644 
L 522 1753 
Q 522 2253 501 2348 
Q 481 2444 426 2487 
Q 372 2531 291 2531 
Q 194 2531 72 2484 
L 41 2597 
L 906 2947 
L 1038 2947 
z
" transform="scale(0.015625)"/>
       <path id="TimesNewRomanPSMT-6f" d="M 1600 2947 
Q 2250 2947 2644 2453 
Q 2978 2031 2978 1484 
Q 2978 1100 2793 706 
Q 2609 313 2286 112 
Q 1963 -88 1566 -88 
Q 919 -88 538 428 
Q 216 863 216 1403 
Q 216 1797 411 2186 
Q 606 2575 925 2761 
Q 1244 2947 1600 2947 
z
M 1503 2744 
Q 1338 2744 1170 2645 
Q 1003 2547 900 2300 
Q 797 2053 797 1666 
Q 797 1041 1045 587 
Q 1294 134 1700 134 
Q 2003 134 2200 384 
Q 2397 634 2397 1244 
Q 2397 2006 2069 2444 
Q 1847 2744 1503 2744 
z
" transform="scale(0.015625)"/>
       <path id="TimesNewRomanPSMT-69" d="M 928 4444 
Q 1059 4444 1151 4351 
Q 1244 4259 1244 4128 
Q 1244 3997 1151 3903 
Q 1059 3809 928 3809 
Q 797 3809 703 3903 
Q 609 3997 609 4128 
Q 609 4259 701 4351 
Q 794 4444 928 4444 
z
M 1188 2947 
L 1188 647 
Q 1188 378 1227 289 
Q 1266 200 1342 156 
Q 1419 113 1622 113 
L 1622 0 
L 231 0 
L 231 113 
Q 441 113 512 153 
Q 584 194 626 287 
Q 669 381 669 647 
L 669 1750 
Q 669 2216 641 2353 
Q 619 2453 572 2492 
Q 525 2531 444 2531 
Q 356 2531 231 2484 
L 188 2597 
L 1050 2947 
L 1188 2947 
z
" transform="scale(0.015625)"/>
       <path id="TimesNewRomanPSMT-6d" d="M 1050 2338 
Q 1363 2650 1419 2697 
Q 1559 2816 1721 2881 
Q 1884 2947 2044 2947 
Q 2313 2947 2506 2790 
Q 2700 2634 2766 2338 
Q 3088 2713 3309 2830 
Q 3531 2947 3766 2947 
Q 3994 2947 4170 2830 
Q 4347 2713 4450 2447 
Q 4519 2266 4519 1878 
L 4519 647 
Q 4519 378 4559 278 
Q 4591 209 4675 161 
Q 4759 113 4950 113 
L 4950 0 
L 3538 0 
L 3538 113 
L 3597 113 
Q 3781 113 3884 184 
Q 3956 234 3988 344 
Q 4000 397 4000 647 
L 4000 1878 
Q 4000 2228 3916 2372 
Q 3794 2572 3525 2572 
Q 3359 2572 3192 2489 
Q 3025 2406 2788 2181 
L 2781 2147 
L 2788 2013 
L 2788 647 
Q 2788 353 2820 281 
Q 2853 209 2943 161 
Q 3034 113 3253 113 
L 3253 0 
L 1806 0 
L 1806 113 
Q 2044 113 2133 169 
Q 2222 225 2256 338 
Q 2272 391 2272 647 
L 2272 1878 
Q 2272 2228 2169 2381 
Q 2031 2581 1784 2581 
Q 1616 2581 1450 2491 
Q 1191 2353 1050 2181 
L 1050 647 
Q 1050 366 1089 281 
Q 1128 197 1204 155 
Q 1281 113 1516 113 
L 1516 0 
L 100 0 
L 100 113 
Q 297 113 375 155 
Q 453 197 493 289 
Q 534 381 534 647 
L 534 1741 
Q 534 2213 506 2350 
Q 484 2453 437 2492 
Q 391 2531 309 2531 
Q 222 2531 100 2484 
L 53 2597 
L 916 2947 
L 1050 2947 
L 1050 2338 
z
" transform="scale(0.015625)"/>
       <path id="TimesNewRomanPSMT-74" d="M 1031 3803 
L 1031 2863 
L 1700 2863 
L 1700 2644 
L 1031 2644 
L 1031 788 
Q 1031 509 1111 412 
Q 1191 316 1316 316 
Q 1419 316 1516 380 
Q 1613 444 1666 569 
L 1788 569 
Q 1678 263 1478 108 
Q 1278 -47 1066 -47 
Q 922 -47 784 33 
Q 647 113 581 261 
Q 516 409 516 719 
L 516 2644 
L 63 2644 
L 63 2747 
Q 234 2816 414 2980 
Q 594 3144 734 3369 
Q 806 3488 934 3803 
L 1031 3803 
z
" transform="scale(0.015625)"/>
       <path id="TimesNewRomanPSMT-79" d="M 38 2863 
L 1372 2863 
L 1372 2747 
L 1306 2747 
Q 1166 2747 1095 2686 
Q 1025 2625 1025 2534 
Q 1025 2413 1128 2197 
L 1825 753 
L 2466 2334 
Q 2519 2463 2519 2588 
Q 2519 2644 2497 2672 
Q 2472 2706 2419 2726 
Q 2366 2747 2231 2747 
L 2231 2863 
L 3163 2863 
L 3163 2747 
Q 3047 2734 2984 2696 
Q 2922 2659 2847 2556 
Q 2819 2513 2741 2316 
L 1575 -541 
Q 1406 -956 1132 -1168 
Q 859 -1381 606 -1381 
Q 422 -1381 303 -1275 
Q 184 -1169 184 -1031 
Q 184 -900 270 -820 
Q 356 -741 506 -741 
Q 609 -741 788 -809 
Q 913 -856 944 -856 
Q 1038 -856 1148 -759 
Q 1259 -663 1372 -384 
L 1575 113 
L 547 2272 
Q 500 2369 397 2513 
Q 319 2622 269 2659 
Q 197 2709 38 2747 
L 38 2863 
z
" transform="scale(0.015625)"/>
       <path id="TimesNewRomanPSMT-6e" d="M 1034 2341 
Q 1538 2947 1994 2947 
Q 2228 2947 2397 2830 
Q 2566 2713 2666 2444 
Q 2734 2256 2734 1869 
L 2734 647 
Q 2734 375 2778 278 
Q 2813 200 2889 156 
Q 2966 113 3172 113 
L 3172 0 
L 1756 0 
L 1756 113 
L 1816 113 
Q 2016 113 2095 173 
Q 2175 234 2206 353 
Q 2219 400 2219 647 
L 2219 1819 
Q 2219 2209 2117 2386 
Q 2016 2563 1775 2563 
Q 1403 2563 1034 2156 
L 1034 647 
Q 1034 356 1069 288 
Q 1113 197 1189 155 
Q 1266 113 1500 113 
L 1500 0 
L 84 0 
L 84 113 
L 147 113 
Q 366 113 442 223 
Q 519 334 519 647 
L 519 1709 
Q 519 2225 495 2337 
Q 472 2450 423 2490 
Q 375 2531 294 2531 
Q 206 2531 84 2484 
L 38 2597 
L 900 2947 
L 1034 2947 
L 1034 2341 
z
" transform="scale(0.015625)"/>
       <path id="TimesNewRomanPSMT-64" d="M 2222 322 
Q 2013 103 1813 7 
Q 1613 -88 1381 -88 
Q 913 -88 563 304 
Q 213 697 213 1313 
Q 213 1928 600 2439 
Q 988 2950 1597 2950 
Q 1975 2950 2222 2709 
L 2222 3238 
Q 2222 3728 2198 3840 
Q 2175 3953 2125 3993 
Q 2075 4034 2000 4034 
Q 1919 4034 1784 3984 
L 1744 4094 
L 2597 4444 
L 2738 4444 
L 2738 1134 
Q 2738 631 2761 520 
Q 2784 409 2836 365 
Q 2888 322 2956 322 
Q 3041 322 3181 375 
L 3216 266 
L 2366 -88 
L 2222 -88 
L 2222 322 
z
M 2222 541 
L 2222 2016 
Q 2203 2228 2109 2403 
Q 2016 2578 1861 2667 
Q 1706 2756 1559 2756 
Q 1284 2756 1069 2509 
Q 784 2184 784 1559 
Q 784 928 1059 592 
Q 1334 256 1672 256 
Q 1956 256 2222 541 
z
" transform="scale(0.015625)"/>
       <path id="TimesNewRomanPSMT-65" d="M 681 1784 
Q 678 1147 991 784 
Q 1303 422 1725 422 
Q 2006 422 2214 576 
Q 2422 731 2563 1106 
L 2659 1044 
Q 2594 616 2278 264 
Q 1963 -88 1488 -88 
Q 972 -88 605 314 
Q 238 716 238 1394 
Q 238 2128 614 2539 
Q 991 2950 1559 2950 
Q 2041 2950 2350 2633 
Q 2659 2316 2659 1784 
L 681 1784 
z
M 681 1966 
L 2006 1966 
Q 1991 2241 1941 2353 
Q 1863 2528 1708 2628 
Q 1553 2728 1384 2728 
Q 1125 2728 920 2526 
Q 716 2325 681 1966 
z
" transform="scale(0.015625)"/>
       <path id="TimesNewRomanPSMT-66" d="M 1319 2638 
L 1319 756 
Q 1319 356 1406 250 
Q 1522 113 1716 113 
L 1975 113 
L 1975 0 
L 266 0 
L 266 113 
L 394 113 
Q 519 113 622 175 
Q 725 238 764 344 
Q 803 450 803 756 
L 803 2638 
L 247 2638 
L 247 2863 
L 803 2863 
L 803 3050 
Q 803 3478 940 3775 
Q 1078 4072 1361 4255 
Q 1644 4438 1997 4438 
Q 2325 4438 2600 4225 
Q 2781 4084 2781 3909 
Q 2781 3816 2700 3733 
Q 2619 3650 2525 3650 
Q 2453 3650 2373 3701 
Q 2294 3753 2178 3923 
Q 2063 4094 1966 4153 
Q 1869 4213 1750 4213 
Q 1606 4213 1506 4136 
Q 1406 4059 1362 3898 
Q 1319 3738 1319 3069 
L 1319 2863 
L 2056 2863 
L 2056 2638 
L 1319 2638 
z
" transform="scale(0.015625)"/>
       <path id="TimesNewRomanPSMT-4f" d="M 2341 4334 
Q 3166 4334 3770 3707 
Q 4375 3081 4375 2144 
Q 4375 1178 3765 540 
Q 3156 -97 2291 -97 
Q 1416 -97 820 525 
Q 225 1147 225 2134 
Q 225 3144 913 3781 
Q 1509 4334 2341 4334 
z
M 2281 4106 
Q 1713 4106 1369 3684 
Q 941 3159 941 2147 
Q 941 1109 1384 550 
Q 1725 125 2284 125 
Q 2881 125 3270 590 
Q 3659 1056 3659 2059 
Q 3659 3147 3231 3681 
Q 2888 4106 2281 4106 
z
" transform="scale(0.015625)"/>
       <path id="TimesNewRomanPSMT-53" d="M 2934 4334 
L 2934 2869 
L 2819 2869 
Q 2763 3291 2617 3541 
Q 2472 3791 2203 3937 
Q 1934 4084 1647 4084 
Q 1322 4084 1109 3886 
Q 897 3688 897 3434 
Q 897 3241 1031 3081 
Q 1225 2847 1953 2456 
Q 2547 2138 2764 1967 
Q 2981 1797 3098 1565 
Q 3216 1334 3216 1081 
Q 3216 600 2842 251 
Q 2469 -97 1881 -97 
Q 1697 -97 1534 -69 
Q 1438 -53 1133 45 
Q 828 144 747 144 
Q 669 144 623 97 
Q 578 50 556 -97 
L 441 -97 
L 441 1356 
L 556 1356 
Q 638 900 775 673 
Q 913 447 1195 297 
Q 1478 147 1816 147 
Q 2206 147 2432 353 
Q 2659 559 2659 841 
Q 2659 997 2573 1156 
Q 2488 1316 2306 1453 
Q 2184 1547 1640 1851 
Q 1097 2156 867 2337 
Q 638 2519 519 2737 
Q 400 2956 400 3219 
Q 400 3675 750 4004 
Q 1100 4334 1641 4334 
Q 1978 4334 2356 4169 
Q 2531 4091 2603 4091 
Q 2684 4091 2736 4139 
Q 2788 4188 2819 4334 
L 2934 4334 
z
" transform="scale(0.015625)"/>
       <path id="DejaVuSans-Oblique-74" d="M 2706 3500 
L 2619 3053 
L 1472 3053 
L 1100 1153 
Q 1081 1047 1072 975 
Q 1063 903 1063 863 
Q 1063 663 1183 572 
Q 1303 481 1569 481 
L 2150 481 
L 2053 0 
L 1503 0 
Q 991 0 739 200 
Q 488 400 488 806 
Q 488 878 497 964 
Q 506 1050 525 1153 
L 897 3053 
L 409 3053 
L 500 3500 
L 978 3500 
L 1172 4494 
L 1747 4494 
L 1556 3500 
L 2706 3500 
z
" transform="scale(0.015625)"/>
       <path id="DejaVuSans-30" d="M 2034 4250 
Q 1547 4250 1301 3770 
Q 1056 3291 1056 2328 
Q 1056 1369 1301 889 
Q 1547 409 2034 409 
Q 2525 409 2770 889 
Q 3016 1369 3016 2328 
Q 3016 3291 2770 3770 
Q 2525 4250 2034 4250 
z
M 2034 4750 
Q 2819 4750 3233 4129 
Q 3647 3509 3647 2328 
Q 3647 1150 3233 529 
Q 2819 -91 2034 -91 
Q 1250 -91 836 529 
Q 422 1150 422 2328 
Q 422 3509 836 4129 
Q 1250 4750 2034 4750 
z
" transform="scale(0.015625)"/>
      </defs>
      <use xlink:href="#TimesNewRomanPSMT-4d" transform="translate(0 0.78125)"/>
      <use xlink:href="#TimesNewRomanPSMT-61" transform="translate(88.916016 0.78125)"/>
      <use xlink:href="#TimesNewRomanPSMT-78" transform="translate(133.300781 0.78125)"/>
      <use xlink:href="#TimesNewRomanPSMT-20" transform="translate(183.300781 0.78125)"/>
      <use xlink:href="#TimesNewRomanPSMT-70" transform="translate(208.300781 0.78125)"/>
      <use xlink:href="#TimesNewRomanPSMT-72" transform="translate(258.300781 0.78125)"/>
      <use xlink:href="#TimesNewRomanPSMT-6f" transform="translate(291.601562 0.78125)"/>
      <use xlink:href="#TimesNewRomanPSMT-78" transform="translate(341.601562 0.78125)"/>
      <use xlink:href="#TimesNewRomanPSMT-69" transform="translate(391.601562 0.78125)"/>
      <use xlink:href="#TimesNewRomanPSMT-6d" transform="translate(419.384766 0.78125)"/>
      <use xlink:href="#TimesNewRomanPSMT-69" transform="translate(497.167969 0.78125)"/>
      <use xlink:href="#TimesNewRomanPSMT-74" transform="translate(524.951172 0.78125)"/>
      <use xlink:href="#TimesNewRomanPSMT-79" transform="translate(552.734375 0.78125)"/>
      <use xlink:href="#TimesNewRomanPSMT-20" transform="translate(602.734375 0.78125)"/>
      <use xlink:href="#TimesNewRomanPSMT-69" transform="translate(627.734375 0.78125)"/>
      <use xlink:href="#TimesNewRomanPSMT-6e" transform="translate(655.517578 0.78125)"/>
      <use xlink:href="#TimesNewRomanPSMT-64" transform="translate(705.517578 0.78125)"/>
      <use xlink:href="#TimesNewRomanPSMT-65" transform="translate(755.517578 0.78125)"/>
      <use xlink:href="#TimesNewRomanPSMT-78" transform="translate(799.902344 0.78125)"/>
      <use xlink:href="#TimesNewRomanPSMT-20" transform="translate(849.902344 0.78125)"/>
      <use xlink:href="#TimesNewRomanPSMT-6f" transform="translate(874.902344 0.78125)"/>
      <use xlink:href="#TimesNewRomanPSMT-66" transform="translate(924.902344 0.78125)"/>
      <use xlink:href="#TimesNewRomanPSMT-20" transform="translate(958.203125 0.78125)"/>
      <use xlink:href="#TimesNewRomanPSMT-4f" transform="translate(983.203125 0.78125)"/>
      <use xlink:href="#TimesNewRomanPSMT-53" transform="translate(1055.419922 0.78125)"/>
      <use xlink:href="#TimesNewRomanPSMT-20" transform="translate(1111.035156 0.78125)"/>
      <use xlink:href="#TimesNewRomanPSMT-61" transform="translate(1136.035156 0.78125)"/>
      <use xlink:href="#TimesNewRomanPSMT-74" transform="translate(1180.419922 0.78125)"/>
      <use xlink:href="#TimesNewRomanPSMT-20" transform="translate(1208.203125 0.78125)"/>
      <use xlink:href="#DejaVuSans-Oblique-74" transform="translate(1233.203125 0.78125)"/>
      <use xlink:href="#DejaVuSans-30" transform="translate(1272.412109 -15.625) scale(0.7)"/>
     </g>
    </g>
   </g>
   <g id="LineCollection_1">
    <path d="M 58.52861 123.405908 
L 70.776738 123.405908 
" clip-path="url(#p900f343555)" style="fill: none; stroke: #008000; stroke-width: 1.5"/>
    <path d="M 93.523262 128.537567 
L 105.77139 128.537567 
" clip-path="url(#p900f343555)" style="fill: none; stroke: #008000; stroke-width: 1.5"/>
   </g>
   <g id="LineCollection_2">
    <path d="M 58.52861 67.415509 
L 70.776738 67.415509 
" clip-path="url(#p900f343555)" style="fill: none; stroke: #1f77b4; stroke-width: 1.5"/>
    <path d="M 93.523262 73.858152 
L 105.77139 73.858152 
" clip-path="url(#p900f343555)" style="fill: none; stroke: #1f77b4; stroke-width: 1.5"/>
   </g>
   <g id="LineCollection_3">
    <path d="M 58.52861 163.661283 
L 70.776738 163.661283 
" clip-path="url(#p900f343555)" style="fill: none; stroke: #1f77b4; stroke-width: 1.5"/>
    <path d="M 93.523262 163.661283 
L 105.77139 163.661283 
" clip-path="url(#p900f343555)" style="fill: none; stroke: #1f77b4; stroke-width: 1.5"/>
   </g>
   <g id="LineCollection_4">
    <path d="M 64.652674 163.661283 
L 64.652674 67.415509 
" clip-path="url(#p900f343555)" style="fill: none; stroke: #1f77b4; stroke-width: 1.5"/>
    <path d="M 99.647326 163.661283 
L 99.647326 73.858152 
" clip-path="url(#p900f343555)" style="fill: none; stroke: #1f77b4; stroke-width: 1.5"/>
   </g>
   <g id="LineCollection_5">
    <path d="M 58.52861 116.2956 
L 70.776738 116.2956 
" clip-path="url(#p900f343555)" style="fill: none; stroke: #ff0000; stroke-width: 1.5"/>
    <path d="M 93.523262 124.690974 
L 105.77139 124.690974 
" clip-path="url(#p900f343555)" style="fill: none; stroke: #ff0000; stroke-width: 1.5"/>
   </g>
   <g id="patch_3">
    <path d="M 49.43 163.661283 
L 49.43 23.199 
" style="fill: none; stroke: #000000; stroke-width: 0.8; stroke-linejoin: miter; stroke-linecap: square"/>
   </g>
   <g id="patch_4">
    <path d="M 114.87 163.661283 
L 114.87 23.199 
" style="fill: none; stroke: #000000; stroke-width: 0.8; stroke-linejoin: miter; stroke-linecap: square"/>
   </g>
   <g id="patch_5">
    <path d="M 49.43 163.661283 
L 114.87 163.661283 
" style="fill: none; stroke: #000000; stroke-width: 0.8; stroke-linejoin: miter; stroke-linecap: square"/>
   </g>
   <g id="patch_6">
    <path d="M 49.43 23.199 
L 114.87 23.199 
" style="fill: none; stroke: #000000; stroke-width: 0.8; stroke-linejoin: miter; stroke-linecap: square"/>
   </g>
   <g id="text_9">
    <!-- 236 -->
    <g transform="translate(57.152674 37.815455) scale(0.1 -0.1)">
     <defs>
      <path id="TimesNewRomanPSMT-33" d="M 325 3431 
Q 506 3859 782 4092 
Q 1059 4325 1472 4325 
Q 1981 4325 2253 3994 
Q 2459 3747 2459 3466 
Q 2459 3003 1878 2509 
Q 2269 2356 2469 2072 
Q 2669 1788 2669 1403 
Q 2669 853 2319 450 
Q 1863 -75 997 -75 
Q 569 -75 414 31 
Q 259 138 259 259 
Q 259 350 332 419 
Q 406 488 509 488 
Q 588 488 669 463 
Q 722 447 909 348 
Q 1097 250 1169 231 
Q 1284 197 1416 197 
Q 1734 197 1970 444 
Q 2206 691 2206 1028 
Q 2206 1275 2097 1509 
Q 2016 1684 1919 1775 
Q 1784 1900 1550 2001 
Q 1316 2103 1072 2103 
L 972 2103 
L 972 2197 
Q 1219 2228 1467 2375 
Q 1716 2522 1828 2728 
Q 1941 2934 1941 3181 
Q 1941 3503 1739 3701 
Q 1538 3900 1238 3900 
Q 753 3900 428 3381 
L 325 3431 
z
" transform="scale(0.015625)"/>
      <path id="TimesNewRomanPSMT-36" d="M 2869 4325 
L 2869 4209 
Q 2456 4169 2195 4045 
Q 1934 3922 1679 3669 
Q 1425 3416 1258 3105 
Q 1091 2794 978 2366 
Q 1428 2675 1881 2675 
Q 2316 2675 2634 2325 
Q 2953 1975 2953 1425 
Q 2953 894 2631 456 
Q 2244 -75 1606 -75 
Q 1172 -75 869 213 
Q 275 772 275 1663 
Q 275 2231 503 2743 
Q 731 3256 1154 3653 
Q 1578 4050 1965 4187 
Q 2353 4325 2688 4325 
L 2869 4325 
z
M 925 2138 
Q 869 1716 869 1456 
Q 869 1156 980 804 
Q 1091 453 1309 247 
Q 1469 100 1697 100 
Q 1969 100 2183 356 
Q 2397 613 2397 1088 
Q 2397 1622 2184 2012 
Q 1972 2403 1581 2403 
Q 1463 2403 1327 2353 
Q 1191 2303 925 2138 
z
" transform="scale(0.015625)"/>
     </defs>
     <use xlink:href="#TimesNewRomanPSMT-32"/>
     <use xlink:href="#TimesNewRomanPSMT-33" x="50"/>
     <use xlink:href="#TimesNewRomanPSMT-36" x="100"/>
    </g>
   </g>
   <g id="text_10">
    <!-- 286 -->
    <g transform="translate(92.147326 37.815455) scale(0.1 -0.1)">
     <defs>
      <path id="TimesNewRomanPSMT-38" d="M 1228 2134 
Q 725 2547 579 2797 
Q 434 3047 434 3316 
Q 434 3728 753 4026 
Q 1072 4325 1600 4325 
Q 2113 4325 2425 4047 
Q 2738 3769 2738 3413 
Q 2738 3175 2569 2928 
Q 2400 2681 1866 2347 
Q 2416 1922 2594 1678 
Q 2831 1359 2831 1006 
Q 2831 559 2490 242 
Q 2150 -75 1597 -75 
Q 994 -75 656 303 
Q 388 606 388 966 
Q 388 1247 577 1523 
Q 766 1800 1228 2134 
z
M 1719 2469 
Q 2094 2806 2194 3001 
Q 2294 3197 2294 3444 
Q 2294 3772 2109 3958 
Q 1925 4144 1606 4144 
Q 1288 4144 1088 3959 
Q 888 3775 888 3528 
Q 888 3366 970 3203 
Q 1053 3041 1206 2894 
L 1719 2469 
z
M 1375 2016 
Q 1116 1797 991 1539 
Q 866 1281 866 981 
Q 866 578 1086 336 
Q 1306 94 1647 94 
Q 1984 94 2187 284 
Q 2391 475 2391 747 
Q 2391 972 2272 1150 
Q 2050 1481 1375 2016 
z
" transform="scale(0.015625)"/>
     </defs>
     <use xlink:href="#TimesNewRomanPSMT-32"/>
     <use xlink:href="#TimesNewRomanPSMT-38" x="50"/>
     <use xlink:href="#TimesNewRomanPSMT-36" x="100"/>
    </g>
   </g>
   <g id="text_11">
    <!-- 3 Vessels -->
    <g transform="translate(55.677625 17.199) scale(0.144 -0.144)">
     <defs>
      <path id="TimesNewRomanPSMT-56" d="M 4544 4238 
L 4544 4122 
Q 4319 4081 4203 3978 
Q 4038 3825 3909 3509 
L 2431 -97 
L 2316 -97 
L 728 3556 
Q 606 3838 556 3900 
Q 478 3997 364 4051 
Q 250 4106 56 4122 
L 56 4238 
L 1788 4238 
L 1788 4122 
Q 1494 4094 1406 4022 
Q 1319 3950 1319 3838 
Q 1319 3681 1463 3350 
L 2541 866 
L 3541 3319 
Q 3688 3681 3688 3822 
Q 3688 3913 3597 3995 
Q 3506 4078 3291 4113 
Q 3275 4116 3238 4122 
L 3238 4238 
L 4544 4238 
z
" transform="scale(0.015625)"/>
      <path id="TimesNewRomanPSMT-73" d="M 2050 2947 
L 2050 1972 
L 1947 1972 
Q 1828 2431 1642 2597 
Q 1456 2763 1169 2763 
Q 950 2763 815 2647 
Q 681 2531 681 2391 
Q 681 2216 781 2091 
Q 878 1963 1175 1819 
L 1631 1597 
Q 2266 1288 2266 781 
Q 2266 391 1970 151 
Q 1675 -88 1309 -88 
Q 1047 -88 709 6 
Q 606 38 541 38 
Q 469 38 428 -44 
L 325 -44 
L 325 978 
L 428 978 
Q 516 541 762 319 
Q 1009 97 1316 97 
Q 1531 97 1667 223 
Q 1803 350 1803 528 
Q 1803 744 1651 891 
Q 1500 1038 1047 1263 
Q 594 1488 453 1669 
Q 313 1847 313 2119 
Q 313 2472 555 2709 
Q 797 2947 1181 2947 
Q 1350 2947 1591 2875 
Q 1750 2828 1803 2828 
Q 1853 2828 1881 2850 
Q 1909 2872 1947 2947 
L 2050 2947 
z
" transform="scale(0.015625)"/>
      <path id="TimesNewRomanPSMT-6c" d="M 1184 4444 
L 1184 647 
Q 1184 378 1223 290 
Q 1263 203 1344 158 
Q 1425 113 1647 113 
L 1647 0 
L 244 0 
L 244 113 
Q 441 113 512 153 
Q 584 194 625 287 
Q 666 381 666 647 
L 666 3247 
Q 666 3731 644 3842 
Q 622 3953 573 3993 
Q 525 4034 450 4034 
Q 369 4034 244 3984 
L 191 4094 
L 1044 4444 
L 1184 4444 
z
" transform="scale(0.015625)"/>
     </defs>
     <use xlink:href="#TimesNewRomanPSMT-33"/>
     <use xlink:href="#TimesNewRomanPSMT-20" x="50"/>
     <use xlink:href="#TimesNewRomanPSMT-56" x="73.25"/>
     <use xlink:href="#TimesNewRomanPSMT-65" x="134.341797"/>
     <use xlink:href="#TimesNewRomanPSMT-73" x="178.726562"/>
     <use xlink:href="#TimesNewRomanPSMT-73" x="217.642578"/>
     <use xlink:href="#TimesNewRomanPSMT-65" x="256.558594"/>
     <use xlink:href="#TimesNewRomanPSMT-6c" x="300.943359"/>
     <use xlink:href="#TimesNewRomanPSMT-73" x="328.726562"/>
    </g>
   </g>
  </g>
  <g id="axes_2">
   <g id="patch_7">
    <path d="M 149.77 163.661283 
L 215.21 163.661283 
L 215.21 23.199 
L 149.77 23.199 
z
" style="fill: #ffffff"/>
   </g>
   <g id="PolyCollection_3">
    <path d="M 170.735396 163.661283 
L 159.249952 163.661283 
L 159.194171 162.636493 
L 159.197949 161.611704 
L 159.257922 160.586915 
L 159.368537 159.562126 
L 159.522425 158.537337 
L 159.710859 157.512548 
L 159.924279 156.487759 
L 160.152816 155.46297 
L 160.386791 154.438181 
L 160.617136 153.413392 
L 160.835735 152.388603 
L 161.035636 151.363814 
L 161.211173 150.339025 
L 161.357976 149.314236 
L 161.472897 148.289447 
L 161.553887 147.264658 
L 161.599826 146.239869 
L 161.610356 145.21508 
L 161.585718 144.190291 
L 161.52661 143.165502 
L 161.434086 142.140713 
L 161.309478 141.115924 
L 161.154355 140.091135 
L 160.970498 139.066346 
L 160.759885 138.041557 
L 160.524675 137.016768 
L 160.267189 135.991979 
L 159.98987 134.96719 
L 159.695241 133.9424 
L 159.385837 132.917611 
L 159.064147 131.892822 
L 158.73255 130.868033 
L 158.393266 129.843244 
L 158.048332 128.818455 
L 157.699599 127.793666 
L 157.348761 126.768877 
L 156.997408 125.744088 
L 156.647104 124.719299 
L 156.299466 123.69451 
L 155.956242 122.669721 
L 155.619379 121.644932 
L 155.291047 120.620143 
L 154.973636 119.595354 
L 154.669706 118.570565 
L 154.381891 117.545776 
L 154.112782 116.520987 
L 153.864778 115.496198 
L 153.63994 114.471409 
L 153.439866 113.44662 
L 153.265591 112.421831 
L 153.117551 111.397042 
L 152.99559 110.372253 
L 152.899047 109.347464 
L 152.826882 108.322675 
L 152.777862 107.297886 
L 152.750756 106.273097 
L 152.744545 105.248308 
L 152.758605 104.223518 
L 152.792841 103.198729 
L 152.847768 102.17394 
L 152.924519 101.149151 
L 153.024768 100.124362 
L 153.150598 99.099573 
L 153.304295 98.074784 
L 153.488122 97.049995 
L 153.70406 96.025206 
L 153.953568 95.000417 
L 154.23737 93.975628 
L 154.555293 92.950839 
L 154.906164 91.92605 
L 155.287784 90.901261 
L 155.696966 89.876472 
L 156.129641 88.851683 
L 156.581017 87.826894 
L 157.04578 86.802105 
L 157.518312 85.777316 
L 157.992925 84.752527 
L 158.464082 83.727738 
L 158.926592 82.702949 
L 159.375786 81.67816 
L 159.807647 80.653371 
L 160.2189 79.628582 
L 160.607065 78.603793 
L 160.970466 77.579004 
L 161.308212 76.554215 
L 161.620138 75.529426 
L 161.906724 74.504636 
L 162.169006 73.479847 
L 162.408453 72.455058 
L 162.626858 71.430269 
L 162.826216 70.40548 
L 163.008609 69.380691 
L 163.176104 68.355902 
L 163.330657 67.331113 
L 163.474044 66.306324 
L 163.607805 65.281535 
L 163.733207 64.256746 
L 163.851238 63.231957 
L 163.962605 62.207168 
L 166.022742 62.207168 
L 166.022742 62.207168 
L 166.13411 63.231957 
L 166.25214 64.256746 
L 166.377543 65.281535 
L 166.511303 66.306324 
L 166.65469 67.331113 
L 166.809244 68.355902 
L 166.976738 69.380691 
L 167.159132 70.40548 
L 167.35849 71.430269 
L 167.576895 72.455058 
L 167.816342 73.479847 
L 168.078623 74.504636 
L 168.36521 75.529426 
L 168.677135 76.554215 
L 169.014881 77.579004 
L 169.378283 78.603793 
L 169.766448 79.628582 
L 170.1777 80.653371 
L 170.609561 81.67816 
L 171.058756 82.702949 
L 171.521266 83.727738 
L 171.992422 84.752527 
L 172.467036 85.777316 
L 172.939568 86.802105 
L 173.40433 87.826894 
L 173.855707 88.851683 
L 174.288382 89.876472 
L 174.697563 90.901261 
L 175.079184 91.92605 
L 175.430055 92.950839 
L 175.747977 93.975628 
L 176.031779 95.000417 
L 176.281287 96.025206 
L 176.497225 97.049995 
L 176.681052 98.074784 
L 176.83475 99.099573 
L 176.960579 100.124362 
L 177.060829 101.149151 
L 177.137579 102.17394 
L 177.192507 103.198729 
L 177.226743 104.223518 
L 177.240802 105.248308 
L 177.234592 106.273097 
L 177.207486 107.297886 
L 177.158466 108.322675 
L 177.086301 109.347464 
L 176.989757 110.372253 
L 176.867797 111.397042 
L 176.719756 112.421831 
L 176.545482 113.44662 
L 176.345408 114.471409 
L 176.12057 115.496198 
L 175.872565 116.520987 
L 175.603457 117.545776 
L 175.315642 118.570565 
L 175.011711 119.595354 
L 174.6943 120.620143 
L 174.365968 121.644932 
L 174.029105 122.669721 
L 173.685882 123.69451 
L 173.338243 124.719299 
L 172.987939 125.744088 
L 172.636587 126.768877 
L 172.285748 127.793666 
L 171.937015 128.818455 
L 171.592082 129.843244 
L 171.252798 130.868033 
L 170.921201 131.892822 
L 170.599511 132.917611 
L 170.290107 133.9424 
L 169.995477 134.96719 
L 169.718159 135.991979 
L 169.460672 137.016768 
L 169.225462 138.041557 
L 169.014849 139.066346 
L 168.830993 140.091135 
L 168.67587 141.115924 
L 168.551262 142.140713 
L 168.458737 143.165502 
L 168.399629 144.190291 
L 168.374991 145.21508 
L 168.385522 146.239869 
L 168.431461 147.264658 
L 168.51245 148.289447 
L 168.627372 149.314236 
L 168.774174 150.339025 
L 168.949712 151.363814 
L 169.149613 152.388603 
L 169.368211 153.413392 
L 169.598557 154.438181 
L 169.832531 155.46297 
L 170.061069 156.487759 
L 170.274489 157.512548 
L 170.462923 158.537337 
L 170.61681 159.562126 
L 170.727426 160.586915 
L 170.787398 161.611704 
L 170.791177 162.636493 
L 170.735396 163.661283 
z
" clip-path="url(#pc1dfa0a2b3)" style="fill: #0080ff; fill-opacity: 0.3"/>
   </g>
   <g id="PolyCollection_4">
    <path d="M 209.005056 163.661283 
L 190.969597 163.661283 
L 190.969937 162.6306 
L 191.074 161.599918 
L 191.274658 160.569236 
L 191.560896 159.538554 
L 191.91847 158.507872 
L 192.33075 157.47719 
L 192.779668 156.446508 
L 193.246712 155.415826 
L 193.713879 154.385144 
L 194.164515 153.354462 
L 194.584004 152.32378 
L 194.960264 151.293098 
L 195.284041 150.262416 
L 195.548995 149.231734 
L 195.751617 148.201052 
L 195.890989 147.17037 
L 195.968451 146.139688 
L 195.987184 145.109006 
L 195.951785 144.078324 
L 195.867829 143.047642 
L 195.741481 142.01696 
L 195.579139 140.986278 
L 195.387151 139.955596 
L 195.171578 138.924913 
L 194.938027 137.894231 
L 194.69152 136.863549 
L 194.436426 135.832867 
L 194.176409 134.802185 
L 193.914424 133.771503 
L 193.652724 132.740821 
L 193.392896 131.710139 
L 193.135915 130.679457 
L 192.882208 129.648775 
L 192.631737 128.618093 
L 192.384089 127.587411 
L 192.13858 126.556729 
L 191.894351 125.526047 
L 191.650476 124.495365 
L 191.406058 123.464683 
L 191.160321 122.434001 
L 190.91269 121.403319 
L 190.662866 120.372637 
L 190.410885 119.341955 
L 190.157169 118.311273 
L 189.902572 117.280591 
L 189.648415 116.249909 
L 189.396513 115.219227 
L 189.149192 114.188544 
L 188.909296 113.157862 
L 188.680176 112.12718 
L 188.46566 111.096498 
L 188.269997 110.065816 
L 188.097768 109.035134 
L 187.953775 108.004452 
L 187.842888 106.97377 
L 187.769874 105.943088 
L 187.739198 104.912406 
L 187.754809 103.881724 
L 187.81993 102.851042 
L 187.936858 101.82036 
L 188.106779 100.789678 
L 188.329639 99.758996 
L 188.604048 98.728314 
L 188.927253 97.697632 
L 189.295177 96.66695 
L 189.702525 95.636268 
L 190.142948 94.605586 
L 190.609283 93.574904 
L 191.09382 92.544222 
L 191.588618 91.51354 
L 192.085822 90.482858 
L 192.577984 89.452175 
L 193.058352 88.421493 
L 193.521119 87.390811 
L 193.961615 86.360129 
L 194.376423 85.329447 
L 194.763425 84.298765 
L 195.121765 83.268083 
L 195.451754 82.237401 
L 195.754696 81.206719 
L 196.032685 80.176037 
L 196.288367 79.145355 
L 196.524692 78.114673 
L 196.744685 77.083991 
L 196.951231 76.053309 
L 197.146911 75.022627 
L 197.333881 73.991945 
L 197.513798 72.961263 
L 197.687809 71.930581 
L 197.856567 70.899899 
L 198.0203 69.869217 
L 198.178889 68.838535 
L 198.331972 67.807853 
L 198.479035 66.777171 
L 198.619515 65.746488 
L 198.752867 64.715806 
L 198.878627 63.685124 
L 198.996449 62.654442 
L 199.106126 61.62376 
L 200.868526 61.62376 
L 200.868526 61.62376 
L 200.978203 62.654442 
L 201.096026 63.685124 
L 201.221786 64.715806 
L 201.355137 65.746488 
L 201.495617 66.777171 
L 201.642681 67.807853 
L 201.795763 68.838535 
L 201.954352 69.869217 
L 202.118085 70.899899 
L 202.286844 71.930581 
L 202.460854 72.961263 
L 202.640772 73.991945 
L 202.827741 75.022627 
L 203.023422 76.053309 
L 203.229968 77.083991 
L 203.44996 78.114673 
L 203.686286 79.145355 
L 203.941967 80.176037 
L 204.219956 81.206719 
L 204.522898 82.237401 
L 204.852887 83.268083 
L 205.211228 84.298765 
L 205.598229 85.329447 
L 206.013037 86.360129 
L 206.453533 87.390811 
L 206.916301 88.421493 
L 207.396669 89.452175 
L 207.88883 90.482858 
L 208.386034 91.51354 
L 208.880832 92.544222 
L 209.36537 93.574904 
L 209.831704 94.605586 
L 210.272128 95.636268 
L 210.679475 96.66695 
L 211.0474 97.697632 
L 211.370605 98.728314 
L 211.645013 99.758996 
L 211.867873 100.789678 
L 212.037795 101.82036 
L 212.154722 102.851042 
L 212.219844 103.881724 
L 212.235455 104.912406 
L 212.204778 105.943088 
L 212.131765 106.97377 
L 212.020878 108.004452 
L 211.876884 109.035134 
L 211.704655 110.065816 
L 211.508992 111.096498 
L 211.294477 112.12718 
L 211.065357 113.157862 
L 210.825461 114.188544 
L 210.578139 115.219227 
L 210.326237 116.249909 
L 210.07208 117.280591 
L 209.817484 118.311273 
L 209.563768 119.341955 
L 209.311786 120.372637 
L 209.061962 121.403319 
L 208.814331 122.434001 
L 208.568594 123.464683 
L 208.324176 124.495365 
L 208.080302 125.526047 
L 207.836073 126.556729 
L 207.590563 127.587411 
L 207.342915 128.618093 
L 207.092444 129.648775 
L 206.838737 130.679457 
L 206.581756 131.710139 
L 206.321929 132.740821 
L 206.060229 133.771503 
L 205.798243 134.802185 
L 205.538226 135.832867 
L 205.283132 136.863549 
L 205.036626 137.894231 
L 204.803074 138.924913 
L 204.587502 139.955596 
L 204.395514 140.986278 
L 204.233172 142.01696 
L 204.106823 143.047642 
L 204.022868 144.078324 
L 203.987468 145.109006 
L 204.006202 146.139688 
L 204.083663 147.17037 
L 204.223036 148.201052 
L 204.425657 149.231734 
L 204.690611 150.262416 
L 205.014388 151.293098 
L 205.390649 152.32378 
L 205.810137 153.354462 
L 206.260773 154.385144 
L 206.72794 155.415826 
L 207.194985 156.446508 
L 207.643903 157.47719 
L 208.056182 158.507872 
L 208.413757 159.538554 
L 208.699995 160.569236 
L 208.900652 161.599918 
L 209.004715 162.6306 
L 209.005056 163.661283 
z
" clip-path="url(#pc1dfa0a2b3)" style="fill: #ff8000; fill-opacity: 0.3"/>
   </g>
   <g id="matplotlib.axis_3">
    <g id="xtick_3">
     <g id="line2d_8">
      <g>
       <use xlink:href="#ma9463ff387" x="164.992674" y="163.661283" style="stroke: #000000; stroke-width: 0.8"/>
      </g>
     </g>
     <g id="text_12">
      <!-- MSR -->
      <g transform="translate(144.321733 195.136016) rotate(-45) scale(0.12 -0.12)">
       <use xlink:href="#TimesNewRomanPS-BoldMT-4d"/>
       <use xlink:href="#TimesNewRomanPS-BoldMT-53" x="94.384766"/>
       <use xlink:href="#TimesNewRomanPS-BoldMT-52" x="150"/>
      </g>
     </g>
    </g>
    <g id="xtick_4">
     <g id="line2d_9">
      <g>
       <use xlink:href="#ma9463ff387" x="199.987326" y="163.661283" style="stroke: #000000; stroke-width: 0.8"/>
      </g>
     </g>
     <g id="text_13">
      <!-- SBO -->
      <g transform="translate(181.193754 193.258647) rotate(-45) scale(0.12 -0.12)">
       <use xlink:href="#TimesNewRomanPS-BoldMT-53"/>
       <use xlink:href="#TimesNewRomanPS-BoldMT-42" x="55.615234"/>
       <use xlink:href="#TimesNewRomanPS-BoldMT-4f" x="122.314453"/>
      </g>
     </g>
    </g>
   </g>
   <g id="matplotlib.axis_4">
    <g id="ytick_6">
     <g id="line2d_10">
      <g>
       <use xlink:href="#mc04da3048c" x="149.77" y="163.661283" style="stroke: #000000; stroke-width: 0.8"/>
      </g>
     </g>
     <g id="text_14">
      <!-- 0.00 -->
      <g transform="translate(121.77 167.827533) scale(0.12 -0.12)">
       <use xlink:href="#TimesNewRomanPSMT-30"/>
       <use xlink:href="#TimesNewRomanPSMT-2e" x="50"/>
       <use xlink:href="#TimesNewRomanPSMT-30" x="75"/>
       <use xlink:href="#TimesNewRomanPSMT-30" x="125"/>
      </g>
     </g>
    </g>
    <g id="ytick_7">
     <g id="line2d_11">
      <g>
       <use xlink:href="#mc04da3048c" x="149.77" y="133.126004" style="stroke: #000000; stroke-width: 0.8"/>
      </g>
     </g>
     <g id="text_15">
      <!-- 0.25 -->
      <g transform="translate(121.77 137.292254) scale(0.12 -0.12)">
       <use xlink:href="#TimesNewRomanPSMT-30"/>
       <use xlink:href="#TimesNewRomanPSMT-2e" x="50"/>
       <use xlink:href="#TimesNewRomanPSMT-32" x="75"/>
       <use xlink:href="#TimesNewRomanPSMT-35" x="125"/>
      </g>
     </g>
    </g>
    <g id="ytick_8">
     <g id="line2d_12">
      <g>
       <use xlink:href="#mc04da3048c" x="149.77" y="102.590725" style="stroke: #000000; stroke-width: 0.8"/>
      </g>
     </g>
     <g id="text_16">
      <!-- 0.50 -->
      <g transform="translate(121.77 106.756975) scale(0.12 -0.12)">
       <use xlink:href="#TimesNewRomanPSMT-30"/>
       <use xlink:href="#TimesNewRomanPSMT-2e" x="50"/>
       <use xlink:href="#TimesNewRomanPSMT-35" x="75"/>
       <use xlink:href="#TimesNewRomanPSMT-30" x="125"/>
      </g>
     </g>
    </g>
    <g id="ytick_9">
     <g id="line2d_13">
      <g>
       <use xlink:href="#mc04da3048c" x="149.77" y="72.055446" style="stroke: #000000; stroke-width: 0.8"/>
      </g>
     </g>
     <g id="text_17">
      <!-- 0.75 -->
      <g transform="translate(121.77 76.221696) scale(0.12 -0.12)">
       <use xlink:href="#TimesNewRomanPSMT-30"/>
       <use xlink:href="#TimesNewRomanPSMT-2e" x="50"/>
       <use xlink:href="#TimesNewRomanPSMT-37" x="75"/>
       <use xlink:href="#TimesNewRomanPSMT-35" x="125"/>
      </g>
     </g>
    </g>
    <g id="ytick_10">
     <g id="line2d_14">
      <g>
       <use xlink:href="#mc04da3048c" x="149.77" y="41.520167" style="stroke: #000000; stroke-width: 0.8"/>
      </g>
     </g>
     <g id="text_18">
      <!-- 1.00 -->
      <g transform="translate(121.77 45.686417) scale(0.12 -0.12)">
       <use xlink:href="#TimesNewRomanPSMT-31"/>
       <use xlink:href="#TimesNewRomanPSMT-2e" x="50"/>
       <use xlink:href="#TimesNewRomanPSMT-30" x="75"/>
       <use xlink:href="#TimesNewRomanPSMT-30" x="125"/>
      </g>
     </g>
    </g>
   </g>
   <g id="LineCollection_6">
    <path d="M 158.86861 116.74726 
L 171.116738 116.74726 
" clip-path="url(#pc1dfa0a2b3)" style="fill: none; stroke: #008000; stroke-width: 1.5"/>
    <path d="M 193.863262 122.539914 
L 206.11139 122.539914 
" clip-path="url(#pc1dfa0a2b3)" style="fill: none; stroke: #008000; stroke-width: 1.5"/>
   </g>
   <g id="LineCollection_7">
    <path d="M 158.86861 62.207168 
L 171.116738 62.207168 
" clip-path="url(#pc1dfa0a2b3)" style="fill: none; stroke: #1f77b4; stroke-width: 1.5"/>
    <path d="M 193.863262 61.62376 
L 206.11139 61.62376 
" clip-path="url(#pc1dfa0a2b3)" style="fill: none; stroke: #1f77b4; stroke-width: 1.5"/>
   </g>
   <g id="LineCollection_8">
    <path d="M 158.86861 163.661283 
L 171.116738 163.661283 
" clip-path="url(#pc1dfa0a2b3)" style="fill: none; stroke: #1f77b4; stroke-width: 1.5"/>
    <path d="M 193.863262 163.661283 
L 206.11139 163.661283 
" clip-path="url(#pc1dfa0a2b3)" style="fill: none; stroke: #1f77b4; stroke-width: 1.5"/>
   </g>
   <g id="LineCollection_9">
    <path d="M 164.992674 163.661283 
L 164.992674 62.207168 
" clip-path="url(#pc1dfa0a2b3)" style="fill: none; stroke: #1f77b4; stroke-width: 1.5"/>
    <path d="M 199.987326 163.661283 
L 199.987326 61.62376 
" clip-path="url(#pc1dfa0a2b3)" style="fill: none; stroke: #1f77b4; stroke-width: 1.5"/>
   </g>
   <g id="LineCollection_10">
    <path d="M 158.86861 112.159786 
L 171.116738 112.159786 
" clip-path="url(#pc1dfa0a2b3)" style="fill: none; stroke: #ff0000; stroke-width: 1.5"/>
    <path d="M 193.863262 116.429769 
L 206.11139 116.429769 
" clip-path="url(#pc1dfa0a2b3)" style="fill: none; stroke: #ff0000; stroke-width: 1.5"/>
   </g>
   <g id="patch_8">
    <path d="M 149.77 163.661283 
L 149.77 23.199 
" style="fill: none; stroke: #000000; stroke-width: 0.8; stroke-linejoin: miter; stroke-linecap: square"/>
   </g>
   <g id="patch_9">
    <path d="M 215.21 163.661283 
L 215.21 23.199 
" style="fill: none; stroke: #000000; stroke-width: 0.8; stroke-linejoin: miter; stroke-linecap: square"/>
   </g>
   <g id="patch_10">
    <path d="M 149.77 163.661283 
L 215.21 163.661283 
" style="fill: none; stroke: #000000; stroke-width: 0.8; stroke-linejoin: miter; stroke-linecap: square"/>
   </g>
   <g id="patch_11">
    <path d="M 149.77 23.199 
L 215.21 23.199 
" style="fill: none; stroke: #000000; stroke-width: 0.8; stroke-linejoin: miter; stroke-linecap: square"/>
   </g>
   <g id="text_19">
    <!-- 233 -->
    <g transform="translate(157.492674 37.815455) scale(0.1 -0.1)">
     <use xlink:href="#TimesNewRomanPSMT-32"/>
     <use xlink:href="#TimesNewRomanPSMT-33" x="50"/>
     <use xlink:href="#TimesNewRomanPSMT-33" x="100"/>
    </g>
   </g>
   <g id="text_20">
    <!-- 306 -->
    <g transform="translate(192.487326 37.815455) scale(0.1 -0.1)">
     <use xlink:href="#TimesNewRomanPSMT-33"/>
     <use xlink:href="#TimesNewRomanPSMT-30" x="50"/>
     <use xlink:href="#TimesNewRomanPSMT-36" x="100"/>
    </g>
   </g>
   <g id="text_21">
    <!-- 4 Vessels -->
    <g transform="translate(156.017625 17.199) scale(0.144 -0.144)">
     <defs>
      <path id="TimesNewRomanPSMT-34" d="M 2978 1563 
L 2978 1119 
L 2409 1119 
L 2409 0 
L 1894 0 
L 1894 1119 
L 100 1119 
L 100 1519 
L 2066 4325 
L 2409 4325 
L 2409 1563 
L 2978 1563 
z
M 1894 1563 
L 1894 3666 
L 406 1563 
L 1894 1563 
z
" transform="scale(0.015625)"/>
     </defs>
     <use xlink:href="#TimesNewRomanPSMT-34"/>
     <use xlink:href="#TimesNewRomanPSMT-20" x="50"/>
     <use xlink:href="#TimesNewRomanPSMT-56" x="73.25"/>
     <use xlink:href="#TimesNewRomanPSMT-65" x="134.341797"/>
     <use xlink:href="#TimesNewRomanPSMT-73" x="178.726562"/>
     <use xlink:href="#TimesNewRomanPSMT-73" x="217.642578"/>
     <use xlink:href="#TimesNewRomanPSMT-65" x="256.558594"/>
     <use xlink:href="#TimesNewRomanPSMT-6c" x="300.943359"/>
     <use xlink:href="#TimesNewRomanPSMT-73" x="328.726562"/>
    </g>
   </g>
  </g>
  <g id="axes_3">
   <g id="patch_12">
    <path d="M 250.11 163.661283 
L 315.55 163.661283 
L 315.55 23.199 
L 250.11 23.199 
z
" style="fill: #ffffff"/>
   </g>
   <g id="PolyCollection_5">
    <path d="M 268.330615 163.661283 
L 262.334732 163.661283 
L 262.325753 162.672964 
L 262.355129 161.684645 
L 262.419321 160.696327 
L 262.512998 159.708008 
L 262.629397 158.719689 
L 262.760784 157.731371 
L 262.898973 156.743052 
L 263.035844 155.754733 
L 263.163825 154.766415 
L 263.276301 153.778096 
L 263.3679 152.789778 
L 263.434675 151.801459 
L 263.474142 150.81314 
L 263.485212 149.824822 
L 263.468025 148.836503 
L 263.423715 147.848184 
L 263.354131 146.859866 
L 263.261556 145.871547 
L 263.148443 144.883228 
L 263.017188 143.89491 
L 262.869961 142.906591 
L 262.708595 141.918273 
L 262.53454 140.929954 
L 262.348871 139.941635 
L 262.152328 138.953317 
L 261.9454 137.964998 
L 261.728401 136.976679 
L 261.501558 135.988361 
L 261.265076 135.000042 
L 261.019183 134.011723 
L 260.764151 133.023405 
L 260.500293 132.035086 
L 260.227943 131.046768 
L 259.947422 130.058449 
L 259.659006 129.07013 
L 259.362904 128.081812 
L 259.059248 127.093493 
L 258.748105 126.105174 
L 258.429514 125.116856 
L 258.103552 124.128537 
L 257.770409 123.140218 
L 257.430496 122.1519 
L 257.084549 121.163581 
L 256.73373 120.175263 
L 256.379729 119.186944 
L 256.024825 118.198625 
L 255.671924 117.210307 
L 255.324544 116.221988 
L 254.986759 115.233669 
L 254.663077 114.245351 
L 254.358277 113.257032 
L 254.077195 112.268713 
L 253.824487 111.280395 
L 253.604376 110.292076 
L 253.420418 109.303758 
L 253.275302 108.315439 
L 253.17071 107.32712 
L 253.107262 106.338802 
L 253.084545 105.350483 
L 253.101235 104.362164 
L 253.1553 103.373846 
L 253.244261 102.385527 
L 253.365479 101.397208 
L 253.516446 100.40889 
L 253.695015 99.420571 
L 253.899577 98.432253 
L 254.129125 97.443934 
L 254.383223 96.455615 
L 254.661863 95.467297 
L 254.965247 94.478978 
L 255.29351 93.490659 
L 255.646424 92.502341 
L 256.023133 91.514022 
L 256.421943 90.525703 
L 256.840203 89.537385 
L 257.27429 88.549066 
L 257.719709 87.560748 
L 258.17129 86.572429 
L 258.623457 85.58411 
L 259.07056 84.595792 
L 259.507196 83.607473 
L 259.928534 82.619154 
L 260.330562 81.630836 
L 260.710282 80.642517 
L 261.065799 79.654198 
L 261.396331 78.66588 
L 261.702126 77.677561 
L 261.984312 76.689243 
L 262.244701 75.700924 
L 262.485553 74.712605 
L 262.709344 73.724287 
L 262.918547 72.735968 
L 263.115444 71.747649 
L 263.301982 70.759331 
L 263.479677 69.771012 
L 263.649575 68.782693 
L 263.812259 67.794375 
L 263.96789 66.806056 
L 264.116288 65.817738 
L 266.549059 65.817738 
L 266.549059 65.817738 
L 266.697458 66.806056 
L 266.853089 67.794375 
L 267.015772 68.782693 
L 267.185671 69.771012 
L 267.363366 70.759331 
L 267.549903 71.747649 
L 267.746801 72.735968 
L 267.956004 73.724287 
L 268.179795 74.712605 
L 268.420647 75.700924 
L 268.681035 76.689243 
L 268.963222 77.677561 
L 269.269016 78.66588 
L 269.599548 79.654198 
L 269.955066 80.642517 
L 270.334786 81.630836 
L 270.736814 82.619154 
L 271.158151 83.607473 
L 271.594788 84.595792 
L 272.04189 85.58411 
L 272.494058 86.572429 
L 272.945638 87.560748 
L 273.391058 88.549066 
L 273.825145 89.537385 
L 274.243405 90.525703 
L 274.642215 91.514022 
L 275.018924 92.502341 
L 275.371838 93.490659 
L 275.7001 94.478978 
L 276.003484 95.467297 
L 276.282125 96.455615 
L 276.536222 97.443934 
L 276.765771 98.432253 
L 276.970333 99.420571 
L 277.148902 100.40889 
L 277.299868 101.397208 
L 277.421087 102.385527 
L 277.510047 103.373846 
L 277.564112 104.362164 
L 277.580802 105.350483 
L 277.558085 106.338802 
L 277.494637 107.32712 
L 277.390046 108.315439 
L 277.244929 109.303758 
L 277.060972 110.292076 
L 276.840861 111.280395 
L 276.588152 112.268713 
L 276.307071 113.257032 
L 276.00227 114.245351 
L 275.678589 115.233669 
L 275.340804 116.221988 
L 274.993424 117.210307 
L 274.640522 118.198625 
L 274.285619 119.186944 
L 273.931617 120.175263 
L 273.580799 121.163581 
L 273.234851 122.1519 
L 272.894939 123.140218 
L 272.561796 124.128537 
L 272.235833 125.116856 
L 271.917243 126.105174 
L 271.6061 127.093493 
L 271.302444 128.081812 
L 271.006342 129.07013 
L 270.717926 130.058449 
L 270.437404 131.046768 
L 270.165054 132.035086 
L 269.901197 133.023405 
L 269.646165 134.011723 
L 269.400272 135.000042 
L 269.16379 135.988361 
L 268.936947 136.976679 
L 268.719948 137.964998 
L 268.513019 138.953317 
L 268.316477 139.941635 
L 268.130807 140.929954 
L 267.956753 141.918273 
L 267.795387 142.906591 
L 267.648159 143.89491 
L 267.516904 144.883228 
L 267.403792 145.871547 
L 267.311217 146.859866 
L 267.241633 147.848184 
L 267.197322 148.836503 
L 267.180136 149.824822 
L 267.191206 150.81314 
L 267.230673 151.801459 
L 267.297447 152.789778 
L 267.389047 153.778096 
L 267.501522 154.766415 
L 267.629504 155.754733 
L 267.766374 156.743052 
L 267.904563 157.731371 
L 268.035951 158.719689 
L 268.15235 159.708008 
L 268.246027 160.696327 
L 268.310219 161.684645 
L 268.339594 162.672964 
L 268.330615 163.661283 
z
" clip-path="url(#p4339782f76)" style="fill: #0080ff; fill-opacity: 0.3"/>
   </g>
   <g id="PolyCollection_6">
    <path d="M 305.516285 163.661283 
L 295.138368 163.661283 
L 295.103395 162.661104 
L 295.128612 161.660926 
L 295.209102 160.660748 
L 295.337422 159.66057 
L 295.504148 158.660392 
L 295.698536 157.660214 
L 295.909248 156.660036 
L 296.125072 155.659858 
L 296.335567 154.65968 
L 296.531582 153.659502 
L 296.705613 152.659324 
L 296.851992 151.659146 
L 296.966899 150.658967 
L 297.048221 149.658789 
L 297.095311 148.658611 
L 297.10866 147.658433 
L 297.089558 146.658255 
L 297.039755 145.658077 
L 296.961182 144.657899 
L 296.855734 143.657721 
L 296.725132 142.657543 
L 296.570863 141.657365 
L 296.39419 140.657187 
L 296.196206 139.657009 
L 295.977921 138.65683 
L 295.740357 137.656652 
L 295.484639 136.656474 
L 295.212062 135.656296 
L 294.924131 134.656118 
L 294.622584 133.65594 
L 294.309375 132.655762 
L 293.986654 131.655584 
L 293.65672 130.655406 
L 293.321985 129.655228 
L 292.984917 128.65505 
L 292.648 127.654872 
L 292.31368 126.654694 
L 291.984316 125.654515 
L 291.662123 124.654337 
L 291.34911 123.654159 
L 291.04702 122.653981 
L 290.757275 121.653803 
L 290.480923 120.653625 
L 290.218617 119.653447 
L 289.970624 118.653269 
L 289.736862 117.653091 
L 289.516991 116.652913 
L 289.310536 115.652735 
L 289.117039 114.652557 
L 288.936237 113.652378 
L 288.768225 112.6522 
L 288.61361 111.652022 
L 288.473615 110.651844 
L 288.35013 109.651666 
L 288.245687 108.651488 
L 288.163372 107.65131 
L 288.10666 106.651132 
L 288.079198 105.650954 
L 288.084555 104.650776 
L 288.125957 103.650598 
L 288.206026 102.65042 
L 288.326568 101.650242 
L 288.488401 100.650063 
L 288.691254 99.649885 
L 288.933741 98.649707 
L 289.213397 97.649529 
L 289.526792 96.649351 
L 289.869683 95.649173 
L 290.237214 94.648995 
L 290.624131 93.648817 
L 291.025012 92.648639 
L 291.43448 91.648461 
L 291.84741 90.648283 
L 292.259097 89.648105 
L 292.665405 88.647926 
L 293.062871 87.647748 
L 293.44877 86.64757 
L 293.821148 85.647392 
L 294.178808 84.647214 
L 294.521263 83.647036 
L 294.84866 82.646858 
L 295.161669 81.64668 
L 295.461351 80.646502 
L 295.749027 79.646324 
L 296.026125 78.646146 
L 296.294051 77.645968 
L 296.554064 76.64579 
L 296.807184 75.645611 
L 297.054122 74.645433 
L 297.295249 73.645255 
L 297.530589 72.645077 
L 297.759848 71.644899 
L 297.98246 70.644721 
L 298.197658 69.644543 
L 298.404548 68.644365 
L 298.602184 67.644187 
L 298.789645 66.644009 
L 298.966099 65.643831 
L 299.130854 64.643653 
L 301.523799 64.643653 
L 301.523799 64.643653 
L 301.688553 65.643831 
L 301.865007 66.644009 
L 302.052469 67.644187 
L 302.250105 68.644365 
L 302.456994 69.644543 
L 302.672193 70.644721 
L 302.894805 71.644899 
L 303.124063 72.645077 
L 303.359403 73.645255 
L 303.60053 74.645433 
L 303.847469 75.645611 
L 304.100588 76.64579 
L 304.360601 77.645968 
L 304.628527 78.646146 
L 304.905625 79.646324 
L 305.193301 80.646502 
L 305.492984 81.64668 
L 305.805992 82.646858 
L 306.133389 83.647036 
L 306.475845 84.647214 
L 306.833504 85.647392 
L 307.205882 86.64757 
L 307.591781 87.647748 
L 307.989247 88.647926 
L 308.395555 89.648105 
L 308.807243 90.648283 
L 309.220172 91.648461 
L 309.62964 92.648639 
L 310.030521 93.648817 
L 310.417439 94.648995 
L 310.784969 95.649173 
L 311.12786 96.649351 
L 311.441255 97.649529 
L 311.720912 98.649707 
L 311.963398 99.649885 
L 312.166251 100.650063 
L 312.328084 101.650242 
L 312.448626 102.65042 
L 312.528696 103.650598 
L 312.570097 104.650776 
L 312.575455 105.650954 
L 312.547993 106.651132 
L 312.49128 107.65131 
L 312.408965 108.651488 
L 312.304523 109.651666 
L 312.181037 110.651844 
L 312.041042 111.652022 
L 311.886427 112.6522 
L 311.718415 113.652378 
L 311.537613 114.652557 
L 311.344117 115.652735 
L 311.137662 116.652913 
L 310.917791 117.653091 
L 310.684029 118.653269 
L 310.436035 119.653447 
L 310.17373 120.653625 
L 309.897377 121.653803 
L 309.607632 122.653981 
L 309.305543 123.654159 
L 308.99253 124.654337 
L 308.670336 125.654515 
L 308.340972 126.654694 
L 308.006653 127.654872 
L 307.669736 128.65505 
L 307.332668 129.655228 
L 306.997932 130.655406 
L 306.667999 131.655584 
L 306.345277 132.655762 
L 306.032069 133.65594 
L 305.730521 134.656118 
L 305.442591 135.656296 
L 305.170013 136.656474 
L 304.914295 137.656652 
L 304.676732 138.65683 
L 304.458446 139.657009 
L 304.260462 140.657187 
L 304.08379 141.657365 
L 303.929521 142.657543 
L 303.798918 143.657721 
L 303.69347 144.657899 
L 303.614898 145.658077 
L 303.565095 146.658255 
L 303.545992 147.658433 
L 303.559342 148.658611 
L 303.606431 149.658789 
L 303.687754 150.658967 
L 303.80266 151.659146 
L 303.94904 152.659324 
L 304.123071 153.659502 
L 304.319085 154.65968 
L 304.52958 155.659858 
L 304.745405 156.660036 
L 304.956117 157.660214 
L 305.150504 158.660392 
L 305.31723 159.66057 
L 305.445551 160.660748 
L 305.52604 161.660926 
L 305.551257 162.661104 
L 305.516285 163.661283 
z
" clip-path="url(#p4339782f76)" style="fill: #ff8000; fill-opacity: 0.3"/>
   </g>
   <g id="matplotlib.axis_5">
    <g id="xtick_5">
     <g id="line2d_15">
      <g>
       <use xlink:href="#ma9463ff387" x="265.332674" y="163.661283" style="stroke: #000000; stroke-width: 0.8"/>
      </g>
     </g>
     <g id="text_22">
      <!-- MSR -->
      <g transform="translate(244.661733 195.136016) rotate(-45) scale(0.12 -0.12)">
       <use xlink:href="#TimesNewRomanPS-BoldMT-4d"/>
       <use xlink:href="#TimesNewRomanPS-BoldMT-53" x="94.384766"/>
       <use xlink:href="#TimesNewRomanPS-BoldMT-52" x="150"/>
      </g>
     </g>
    </g>
    <g id="xtick_6">
     <g id="line2d_16">
      <g>
       <use xlink:href="#ma9463ff387" x="300.327326" y="163.661283" style="stroke: #000000; stroke-width: 0.8"/>
      </g>
     </g>
     <g id="text_23">
      <!-- SBO -->
      <g transform="translate(281.533754 193.258647) rotate(-45) scale(0.12 -0.12)">
       <use xlink:href="#TimesNewRomanPS-BoldMT-53"/>
       <use xlink:href="#TimesNewRomanPS-BoldMT-42" x="55.615234"/>
       <use xlink:href="#TimesNewRomanPS-BoldMT-4f" x="122.314453"/>
      </g>
     </g>
    </g>
   </g>
   <g id="matplotlib.axis_6">
    <g id="ytick_11">
     <g id="line2d_17">
      <g>
       <use xlink:href="#mc04da3048c" x="250.11" y="163.661283" style="stroke: #000000; stroke-width: 0.8"/>
      </g>
     </g>
     <g id="text_24">
      <!-- 0.00 -->
      <g transform="translate(222.11 167.827533) scale(0.12 -0.12)">
       <use xlink:href="#TimesNewRomanPSMT-30"/>
       <use xlink:href="#TimesNewRomanPSMT-2e" x="50"/>
       <use xlink:href="#TimesNewRomanPSMT-30" x="75"/>
       <use xlink:href="#TimesNewRomanPSMT-30" x="125"/>
      </g>
     </g>
    </g>
    <g id="ytick_12">
     <g id="line2d_18">
      <g>
       <use xlink:href="#mc04da3048c" x="250.11" y="133.126004" style="stroke: #000000; stroke-width: 0.8"/>
      </g>
     </g>
     <g id="text_25">
      <!-- 0.25 -->
      <g transform="translate(222.11 137.292254) scale(0.12 -0.12)">
       <use xlink:href="#TimesNewRomanPSMT-30"/>
       <use xlink:href="#TimesNewRomanPSMT-2e" x="50"/>
       <use xlink:href="#TimesNewRomanPSMT-32" x="75"/>
       <use xlink:href="#TimesNewRomanPSMT-35" x="125"/>
      </g>
     </g>
    </g>
    <g id="ytick_13">
     <g id="line2d_19">
      <g>
       <use xlink:href="#mc04da3048c" x="250.11" y="102.590725" style="stroke: #000000; stroke-width: 0.8"/>
      </g>
     </g>
     <g id="text_26">
      <!-- 0.50 -->
      <g transform="translate(222.11 106.756975) scale(0.12 -0.12)">
       <use xlink:href="#TimesNewRomanPSMT-30"/>
       <use xlink:href="#TimesNewRomanPSMT-2e" x="50"/>
       <use xlink:href="#TimesNewRomanPSMT-35" x="75"/>
       <use xlink:href="#TimesNewRomanPSMT-30" x="125"/>
      </g>
     </g>
    </g>
    <g id="ytick_14">
     <g id="line2d_20">
      <g>
       <use xlink:href="#mc04da3048c" x="250.11" y="72.055446" style="stroke: #000000; stroke-width: 0.8"/>
      </g>
     </g>
     <g id="text_27">
      <!-- 0.75 -->
      <g transform="translate(222.11 76.221696) scale(0.12 -0.12)">
       <use xlink:href="#TimesNewRomanPSMT-30"/>
       <use xlink:href="#TimesNewRomanPSMT-2e" x="50"/>
       <use xlink:href="#TimesNewRomanPSMT-37" x="75"/>
       <use xlink:href="#TimesNewRomanPSMT-35" x="125"/>
      </g>
     </g>
    </g>
    <g id="ytick_15">
     <g id="line2d_21">
      <g>
       <use xlink:href="#mc04da3048c" x="250.11" y="41.520167" style="stroke: #000000; stroke-width: 0.8"/>
      </g>
     </g>
     <g id="text_28">
      <!-- 1.00 -->
      <g transform="translate(222.11 45.686417) scale(0.12 -0.12)">
       <use xlink:href="#TimesNewRomanPSMT-31"/>
       <use xlink:href="#TimesNewRomanPSMT-2e" x="50"/>
       <use xlink:href="#TimesNewRomanPSMT-30" x="75"/>
       <use xlink:href="#TimesNewRomanPSMT-30" x="125"/>
      </g>
     </g>
    </g>
   </g>
   <g id="LineCollection_11">
    <path d="M 259.20861 111.956394 
L 271.456738 111.956394 
" clip-path="url(#p4339782f76)" style="fill: none; stroke: #008000; stroke-width: 1.5"/>
    <path d="M 294.203262 116.437386 
L 306.45139 116.437386 
" clip-path="url(#p4339782f76)" style="fill: none; stroke: #008000; stroke-width: 1.5"/>
   </g>
   <g id="LineCollection_12">
    <path d="M 259.20861 65.817738 
L 271.456738 65.817738 
" clip-path="url(#p4339782f76)" style="fill: none; stroke: #1f77b4; stroke-width: 1.5"/>
    <path d="M 294.203262 64.643653 
L 306.45139 64.643653 
" clip-path="url(#p4339782f76)" style="fill: none; stroke: #1f77b4; stroke-width: 1.5"/>
   </g>
   <g id="LineCollection_13">
    <path d="M 259.20861 163.661283 
L 271.456738 163.661283 
" clip-path="url(#p4339782f76)" style="fill: none; stroke: #1f77b4; stroke-width: 1.5"/>
    <path d="M 294.203262 163.661283 
L 306.45139 163.661283 
" clip-path="url(#p4339782f76)" style="fill: none; stroke: #1f77b4; stroke-width: 1.5"/>
   </g>
   <g id="LineCollection_14">
    <path d="M 265.332674 163.661283 
L 265.332674 65.817738 
" clip-path="url(#p4339782f76)" style="fill: none; stroke: #1f77b4; stroke-width: 1.5"/>
    <path d="M 300.327326 163.661283 
L 300.327326 64.643653 
" clip-path="url(#p4339782f76)" style="fill: none; stroke: #1f77b4; stroke-width: 1.5"/>
   </g>
   <g id="LineCollection_15">
    <path d="M 259.20861 108.051924 
L 271.456738 108.051924 
" clip-path="url(#p4339782f76)" style="fill: none; stroke: #ff0000; stroke-width: 1.5"/>
    <path d="M 294.203262 111.735705 
L 306.45139 111.735705 
" clip-path="url(#p4339782f76)" style="fill: none; stroke: #ff0000; stroke-width: 1.5"/>
   </g>
   <g id="patch_13">
    <path d="M 250.11 163.661283 
L 250.11 23.199 
" style="fill: none; stroke: #000000; stroke-width: 0.8; stroke-linejoin: miter; stroke-linecap: square"/>
   </g>
   <g id="patch_14">
    <path d="M 315.55 163.661283 
L 315.55 23.199 
" style="fill: none; stroke: #000000; stroke-width: 0.8; stroke-linejoin: miter; stroke-linecap: square"/>
   </g>
   <g id="patch_15">
    <path d="M 250.11 163.661283 
L 315.55 163.661283 
" style="fill: none; stroke: #000000; stroke-width: 0.8; stroke-linejoin: miter; stroke-linecap: square"/>
   </g>
   <g id="patch_16">
    <path d="M 250.11 23.199 
L 315.55 23.199 
" style="fill: none; stroke: #000000; stroke-width: 0.8; stroke-linejoin: miter; stroke-linecap: square"/>
   </g>
   <g id="text_29">
    <!-- 215 -->
    <g transform="translate(257.832674 37.815455) scale(0.1 -0.1)">
     <use xlink:href="#TimesNewRomanPSMT-32"/>
     <use xlink:href="#TimesNewRomanPSMT-31" x="50"/>
     <use xlink:href="#TimesNewRomanPSMT-35" x="100"/>
    </g>
   </g>
   <g id="text_30">
    <!-- 293 -->
    <g transform="translate(292.827326 37.815455) scale(0.1 -0.1)">
     <defs>
      <path id="TimesNewRomanPSMT-39" d="M 338 -88 
L 338 28 
Q 744 34 1094 217 
Q 1444 400 1770 856 
Q 2097 1313 2225 1859 
Q 1734 1544 1338 1544 
Q 891 1544 572 1889 
Q 253 2234 253 2806 
Q 253 3363 572 3797 
Q 956 4325 1575 4325 
Q 2097 4325 2469 3894 
Q 2925 3359 2925 2575 
Q 2925 1869 2578 1258 
Q 2231 647 1613 244 
Q 1109 -88 516 -88 
L 338 -88 
z
M 2275 2091 
Q 2331 2497 2331 2741 
Q 2331 3044 2228 3395 
Q 2125 3747 1936 3934 
Q 1747 4122 1506 4122 
Q 1228 4122 1018 3872 
Q 809 3622 809 3128 
Q 809 2469 1088 2097 
Q 1291 1828 1588 1828 
Q 1731 1828 1928 1897 
Q 2125 1966 2275 2091 
z
" transform="scale(0.015625)"/>
     </defs>
     <use xlink:href="#TimesNewRomanPSMT-32"/>
     <use xlink:href="#TimesNewRomanPSMT-39" x="50"/>
     <use xlink:href="#TimesNewRomanPSMT-33" x="100"/>
    </g>
   </g>
   <g id="text_31">
    <!-- 5 Vessels -->
    <g transform="translate(256.357625 17.199) scale(0.144 -0.144)">
     <use xlink:href="#TimesNewRomanPSMT-35"/>
     <use xlink:href="#TimesNewRomanPSMT-20" x="50"/>
     <use xlink:href="#TimesNewRomanPSMT-56" x="73.25"/>
     <use xlink:href="#TimesNewRomanPSMT-65" x="134.341797"/>
     <use xlink:href="#TimesNewRomanPSMT-73" x="178.726562"/>
     <use xlink:href="#TimesNewRomanPSMT-73" x="217.642578"/>
     <use xlink:href="#TimesNewRomanPSMT-65" x="256.558594"/>
     <use xlink:href="#TimesNewRomanPSMT-6c" x="300.943359"/>
     <use xlink:href="#TimesNewRomanPSMT-73" x="328.726562"/>
    </g>
   </g>
  </g>
  <g id="axes_4">
   <g id="patch_17">
    <path d="M 350.45 163.661283 
L 415.89 163.661283 
L 415.89 23.199 
L 350.45 23.199 
z
" style="fill: #ffffff"/>
   </g>
   <g id="PolyCollection_7">
    <path d="M 367.941996 163.661283 
L 363.403351 163.661283 
L 363.395359 162.656279 
L 363.422743 161.651275 
L 363.481885 160.646271 
L 363.567389 159.641268 
L 363.67259 158.636264 
L 363.790141 157.63126 
L 363.912626 156.626256 
L 364.033099 155.621253 
L 364.145509 154.616249 
L 364.244973 153.611245 
L 364.327879 152.606241 
L 364.391834 151.601238 
L 364.435502 150.596234 
L 364.458354 149.59123 
L 364.460408 148.586226 
L 364.441968 147.581223 
L 364.403422 146.576219 
L 364.345103 145.571215 
L 364.267221 144.566212 
L 364.16985 143.561208 
L 364.052964 142.556204 
L 363.916491 141.5512 
L 363.76037 140.546197 
L 363.584594 139.541193 
L 363.389242 138.536189 
L 363.174484 137.531185 
L 362.940585 136.526182 
L 362.687909 135.521178 
L 362.416931 134.516174 
L 362.128278 133.51117 
L 361.822777 132.506167 
L 361.501528 131.501163 
L 361.165964 130.496159 
L 360.817902 129.491155 
L 360.459553 128.486152 
L 360.093485 127.481148 
L 359.722534 126.476144 
L 359.349666 125.471141 
L 358.977803 124.466137 
L 358.609638 123.461133 
L 358.247468 122.456129 
L 357.893064 121.451126 
L 357.547613 120.446122 
L 357.211728 119.441118 
L 356.885546 118.436114 
L 356.56888 117.431111 
L 356.261428 116.426107 
L 355.962989 115.421103 
L 355.673656 114.416099 
L 355.393966 113.411096 
L 355.124974 112.406092 
L 354.868244 111.401088 
L 354.625764 110.396085 
L 354.399791 109.391081 
L 354.192673 108.386077 
L 354.006664 107.381073 
L 353.843773 106.37607 
L 353.705675 105.371066 
L 353.593704 104.366062 
L 353.508914 103.361058 
L 353.452216 102.356055 
L 353.424545 101.351051 
L 353.427035 100.346047 
L 353.46115 99.341043 
L 353.528755 98.33604 
L 353.632082 97.331036 
L 353.7736 96.326032 
L 353.955777 95.321028 
L 354.180767 94.316025 
L 354.450054 93.311021 
L 354.764094 92.306017 
L 355.122013 91.301014 
L 355.521386 90.29601 
L 355.958155 89.291006 
L 356.426688 88.286002 
L 356.919988 87.280999 
L 357.43004 86.275995 
L 357.94826 85.270991 
L 358.466001 84.265987 
L 358.975067 83.260984 
L 359.468182 82.25598 
L 359.939365 81.250976 
L 360.384182 80.245972 
L 360.799862 79.240969 
L 361.185256 78.235965 
L 361.540682 77.230961 
L 361.867663 76.225958 
L 362.1686 75.220954 
L 362.446432 74.21595 
L 362.704294 73.210946 
L 362.94523 72.205943 
L 363.17196 71.200939 
L 363.386729 70.195935 
L 363.591222 69.190931 
L 363.786549 68.185928 
L 363.973288 67.180924 
L 364.151559 66.17592 
L 364.321127 65.170916 
L 364.481517 64.165913 
L 366.863831 64.165913 
L 366.863831 64.165913 
L 367.02422 65.170916 
L 367.193789 66.17592 
L 367.372059 67.180924 
L 367.558798 68.185928 
L 367.754126 69.190931 
L 367.958618 70.195935 
L 368.173387 71.200939 
L 368.400118 72.205943 
L 368.641054 73.210946 
L 368.898916 74.21595 
L 369.176748 75.220954 
L 369.477685 76.225958 
L 369.804665 77.230961 
L 370.160091 78.235965 
L 370.545485 79.240969 
L 370.961165 80.245972 
L 371.405983 81.250976 
L 371.877165 82.25598 
L 372.37028 83.260984 
L 372.879347 84.265987 
L 373.397088 85.270991 
L 373.915308 86.275995 
L 374.42536 87.280999 
L 374.918659 88.286002 
L 375.387192 89.291006 
L 375.823962 90.29601 
L 376.223335 91.301014 
L 376.581253 92.306017 
L 376.895294 93.311021 
L 377.16458 94.316025 
L 377.38957 95.321028 
L 377.571748 96.326032 
L 377.713266 97.331036 
L 377.816593 98.33604 
L 377.884197 99.341043 
L 377.918312 100.346047 
L 377.920802 101.351051 
L 377.893132 102.356055 
L 377.836434 103.361058 
L 377.751644 104.366062 
L 377.639672 105.371066 
L 377.501575 106.37607 
L 377.338683 107.381073 
L 377.152674 108.386077 
L 376.945557 109.391081 
L 376.719584 110.396085 
L 376.477103 111.401088 
L 376.220374 112.406092 
L 375.951382 113.411096 
L 375.671691 114.416099 
L 375.382358 115.421103 
L 375.083919 116.426107 
L 374.776468 117.431111 
L 374.459802 118.436114 
L 374.133619 119.441118 
L 373.797735 120.446122 
L 373.452284 121.451126 
L 373.09788 122.456129 
L 372.735709 123.461133 
L 372.367544 124.466137 
L 371.995681 125.471141 
L 371.622814 126.476144 
L 371.251863 127.481148 
L 370.885795 128.486152 
L 370.527445 129.491155 
L 370.179383 130.496159 
L 369.843819 131.501163 
L 369.52257 132.506167 
L 369.21707 133.51117 
L 368.928416 134.516174 
L 368.657439 135.521178 
L 368.404762 136.526182 
L 368.170863 137.531185 
L 367.956105 138.536189 
L 367.760753 139.541193 
L 367.584978 140.546197 
L 367.428856 141.5512 
L 367.292383 142.556204 
L 367.175498 143.561208 
L 367.078127 144.566212 
L 367.000245 145.571215 
L 366.941926 146.576219 
L 366.90338 147.581223 
L 366.884939 148.586226 
L 366.886993 149.59123 
L 366.909846 150.596234 
L 366.953513 151.601238 
L 367.017469 152.606241 
L 367.100374 153.611245 
L 367.199839 154.616249 
L 367.312249 155.621253 
L 367.432721 156.626256 
L 367.555207 157.63126 
L 367.672758 158.636264 
L 367.777958 159.641268 
L 367.863463 160.646271 
L 367.922605 161.651275 
L 367.949988 162.656279 
L 367.941996 163.661283 
z
" clip-path="url(#p68eccce9c4)" style="fill: #0080ff; fill-opacity: 0.3"/>
   </g>
   <g id="PolyCollection_8">
    <path d="M 404.498499 163.661283 
L 396.836154 163.661283 
L 396.790106 162.635692 
L 396.796354 161.610101 
L 396.850575 160.58451 
L 396.945833 159.558919 
L 397.073163 158.533328 
L 397.222298 157.507737 
L 397.382449 156.482146 
L 397.543065 155.456555 
L 397.694469 154.430964 
L 397.828356 153.405373 
L 397.938094 152.379782 
L 398.018836 151.354191 
L 398.067475 150.3286 
L 398.082458 149.303009 
L 398.063533 148.277418 
L 398.011457 147.251827 
L 397.927714 146.226236 
L 397.814275 145.200645 
L 397.673412 144.175054 
L 397.507583 143.149463 
L 397.319355 142.123872 
L 397.111379 141.098281 
L 396.886372 140.07269 
L 396.647104 139.047099 
L 396.396364 138.021508 
L 396.136904 136.995917 
L 395.871352 135.970326 
L 395.60211 134.944735 
L 395.331237 133.919144 
L 395.060352 132.893553 
L 394.790552 131.867962 
L 394.522377 130.842371 
L 394.255823 129.81678 
L 393.990411 128.791189 
L 393.725294 127.765598 
L 393.459402 126.740007 
L 393.191608 125.714416 
L 392.920879 124.688825 
L 392.646422 123.663234 
L 392.367781 122.637643 
L 392.084908 121.612052 
L 391.798195 120.586461 
L 391.508468 119.56087 
L 391.216968 118.535279 
L 390.925328 117.509688 
L 390.635544 116.484097 
L 390.349958 115.458506 
L 390.071249 114.432915 
L 389.802418 113.407324 
L 389.546774 112.381733 
L 389.307894 111.356142 
L 389.089562 110.330551 
L 388.89567 109.30496 
L 388.730094 108.279369 
L 388.596545 107.253778 
L 388.498403 106.228187 
L 388.438547 105.202596 
L 388.419198 104.177005 
L 388.44179 103.151414 
L 388.506869 102.125823 
L 388.614034 101.100232 
L 388.761934 100.074641 
L 388.948302 99.04905 
L 389.17005 98.023459 
L 389.423399 96.997868 
L 389.704051 95.972277 
L 390.007392 94.946686 
L 390.328702 93.921095 
L 390.66337 92.895504 
L 391.007092 91.869913 
L 391.356033 90.844322 
L 391.706948 89.818731 
L 392.057255 88.79314 
L 392.405042 87.767549 
L 392.749035 86.741958 
L 393.08852 85.716367 
L 393.423227 84.690776 
L 393.753209 83.665185 
L 394.078709 82.639594 
L 394.400037 81.614003 
L 394.717466 80.588412 
L 395.031155 79.562821 
L 395.341089 78.53723 
L 395.647058 77.511639 
L 395.948652 76.486048 
L 396.245284 75.460457 
L 396.536226 74.434867 
L 396.82066 73.409276 
L 397.097732 72.383685 
L 397.36661 71.358094 
L 397.626528 70.332503 
L 397.876827 69.306912 
L 398.116973 68.281321 
L 398.346561 67.25573 
L 398.565305 66.230139 
L 398.773013 65.204548 
L 398.969556 64.178957 
L 399.154834 63.153366 
L 399.328754 62.127775 
L 402.005899 62.127775 
L 402.005899 62.127775 
L 402.179818 63.153366 
L 402.365097 64.178957 
L 402.561639 65.204548 
L 402.769347 66.230139 
L 402.988091 67.25573 
L 403.217679 68.281321 
L 403.457825 69.306912 
L 403.708124 70.332503 
L 403.968043 71.358094 
L 404.23692 72.383685 
L 404.513992 73.409276 
L 404.798426 74.434867 
L 405.089368 75.460457 
L 405.386 76.486048 
L 405.687595 77.511639 
L 405.993564 78.53723 
L 406.303498 79.562821 
L 406.617186 80.588412 
L 406.934616 81.614003 
L 407.255943 82.639594 
L 407.581443 83.665185 
L 407.911425 84.690776 
L 408.246133 85.716367 
L 408.585617 86.741958 
L 408.929611 87.767549 
L 409.277398 88.79314 
L 409.627704 89.818731 
L 409.97862 90.844322 
L 410.327561 91.869913 
L 410.671282 92.895504 
L 411.005951 93.921095 
L 411.327261 94.946686 
L 411.630601 95.972277 
L 411.911254 96.997868 
L 412.164602 98.023459 
L 412.38635 99.04905 
L 412.572719 100.074641 
L 412.720618 101.100232 
L 412.827784 102.125823 
L 412.892862 103.151414 
L 412.915455 104.177005 
L 412.896106 105.202596 
L 412.836249 106.228187 
L 412.738107 107.253778 
L 412.604559 108.279369 
L 412.438983 109.30496 
L 412.24509 110.330551 
L 412.026758 111.356142 
L 411.787879 112.381733 
L 411.532235 113.407324 
L 411.263404 114.432915 
L 410.984694 115.458506 
L 410.699109 116.484097 
L 410.409324 117.509688 
L 410.117684 118.535279 
L 409.826185 119.56087 
L 409.536457 120.586461 
L 409.249744 121.612052 
L 408.966872 122.637643 
L 408.68823 123.663234 
L 408.413773 124.688825 
L 408.143045 125.714416 
L 407.87525 126.740007 
L 407.609359 127.765598 
L 407.344241 128.791189 
L 407.078829 129.81678 
L 406.812276 130.842371 
L 406.5441 131.867962 
L 406.2743 132.893553 
L 406.003415 133.919144 
L 405.732543 134.944735 
L 405.4633 135.970326 
L 405.197749 136.995917 
L 404.938289 138.021508 
L 404.687549 139.047099 
L 404.448281 140.07269 
L 404.223274 141.098281 
L 404.015297 142.123872 
L 403.82707 143.149463 
L 403.66124 144.175054 
L 403.520378 145.200645 
L 403.406938 146.226236 
L 403.323195 147.251827 
L 403.271119 148.277418 
L 403.252195 149.303009 
L 403.267178 150.3286 
L 403.315816 151.354191 
L 403.396559 152.379782 
L 403.506296 153.405373 
L 403.640184 154.430964 
L 403.791588 155.456555 
L 403.952203 156.482146 
L 404.112355 157.507737 
L 404.261489 158.533328 
L 404.388819 159.558919 
L 404.484077 160.58451 
L 404.538299 161.610101 
L 404.544546 162.635692 
L 404.498499 163.661283 
z
" clip-path="url(#p68eccce9c4)" style="fill: #ff8000; fill-opacity: 0.3"/>
   </g>
   <g id="matplotlib.axis_7">
    <g id="xtick_7">
     <g id="line2d_22">
      <g>
       <use xlink:href="#ma9463ff387" x="365.672674" y="163.661283" style="stroke: #000000; stroke-width: 0.8"/>
      </g>
     </g>
     <g id="text_32">
      <!-- MSR -->
      <g transform="translate(345.001733 195.136016) rotate(-45) scale(0.12 -0.12)">
       <use xlink:href="#TimesNewRomanPS-BoldMT-4d"/>
       <use xlink:href="#TimesNewRomanPS-BoldMT-53" x="94.384766"/>
       <use xlink:href="#TimesNewRomanPS-BoldMT-52" x="150"/>
      </g>
     </g>
    </g>
    <g id="xtick_8">
     <g id="line2d_23">
      <g>
       <use xlink:href="#ma9463ff387" x="400.667326" y="163.661283" style="stroke: #000000; stroke-width: 0.8"/>
      </g>
     </g>
     <g id="text_33">
      <!-- SBO -->
      <g transform="translate(381.873754 193.258647) rotate(-45) scale(0.12 -0.12)">
       <use xlink:href="#TimesNewRomanPS-BoldMT-53"/>
       <use xlink:href="#TimesNewRomanPS-BoldMT-42" x="55.615234"/>
       <use xlink:href="#TimesNewRomanPS-BoldMT-4f" x="122.314453"/>
      </g>
     </g>
    </g>
   </g>
   <g id="matplotlib.axis_8">
    <g id="ytick_16">
     <g id="line2d_24">
      <g>
       <use xlink:href="#mc04da3048c" x="350.45" y="163.661283" style="stroke: #000000; stroke-width: 0.8"/>
      </g>
     </g>
     <g id="text_34">
      <!-- 0.00 -->
      <g transform="translate(322.45 167.827533) scale(0.12 -0.12)">
       <use xlink:href="#TimesNewRomanPSMT-30"/>
       <use xlink:href="#TimesNewRomanPSMT-2e" x="50"/>
       <use xlink:href="#TimesNewRomanPSMT-30" x="75"/>
       <use xlink:href="#TimesNewRomanPSMT-30" x="125"/>
      </g>
     </g>
    </g>
    <g id="ytick_17">
     <g id="line2d_25">
      <g>
       <use xlink:href="#mc04da3048c" x="350.45" y="133.126004" style="stroke: #000000; stroke-width: 0.8"/>
      </g>
     </g>
     <g id="text_35">
      <!-- 0.25 -->
      <g transform="translate(322.45 137.292254) scale(0.12 -0.12)">
       <use xlink:href="#TimesNewRomanPSMT-30"/>
       <use xlink:href="#TimesNewRomanPSMT-2e" x="50"/>
       <use xlink:href="#TimesNewRomanPSMT-32" x="75"/>
       <use xlink:href="#TimesNewRomanPSMT-35" x="125"/>
      </g>
     </g>
    </g>
    <g id="ytick_18">
     <g id="line2d_26">
      <g>
       <use xlink:href="#mc04da3048c" x="350.45" y="102.590725" style="stroke: #000000; stroke-width: 0.8"/>
      </g>
     </g>
     <g id="text_36">
      <!-- 0.50 -->
      <g transform="translate(322.45 106.756975) scale(0.12 -0.12)">
       <use xlink:href="#TimesNewRomanPSMT-30"/>
       <use xlink:href="#TimesNewRomanPSMT-2e" x="50"/>
       <use xlink:href="#TimesNewRomanPSMT-35" x="75"/>
       <use xlink:href="#TimesNewRomanPSMT-30" x="125"/>
      </g>
     </g>
    </g>
    <g id="ytick_19">
     <g id="line2d_27">
      <g>
       <use xlink:href="#mc04da3048c" x="350.45" y="72.055446" style="stroke: #000000; stroke-width: 0.8"/>
      </g>
     </g>
     <g id="text_37">
      <!-- 0.75 -->
      <g transform="translate(322.45 76.221696) scale(0.12 -0.12)">
       <use xlink:href="#TimesNewRomanPSMT-30"/>
       <use xlink:href="#TimesNewRomanPSMT-2e" x="50"/>
       <use xlink:href="#TimesNewRomanPSMT-37" x="75"/>
       <use xlink:href="#TimesNewRomanPSMT-35" x="125"/>
      </g>
     </g>
    </g>
    <g id="ytick_20">
     <g id="line2d_28">
      <g>
       <use xlink:href="#mc04da3048c" x="350.45" y="41.520167" style="stroke: #000000; stroke-width: 0.8"/>
      </g>
     </g>
     <g id="text_38">
      <!-- 1.00 -->
      <g transform="translate(322.45 45.686417) scale(0.12 -0.12)">
       <use xlink:href="#TimesNewRomanPSMT-31"/>
       <use xlink:href="#TimesNewRomanPSMT-2e" x="50"/>
       <use xlink:href="#TimesNewRomanPSMT-30" x="75"/>
       <use xlink:href="#TimesNewRomanPSMT-30" x="125"/>
      </g>
     </g>
    </g>
   </g>
   <g id="LineCollection_16">
    <path d="M 359.54861 108.207552 
L 371.796738 108.207552 
" clip-path="url(#p68eccce9c4)" style="fill: none; stroke: #008000; stroke-width: 1.5"/>
    <path d="M 394.543262 112.110986 
L 406.79139 112.110986 
" clip-path="url(#p68eccce9c4)" style="fill: none; stroke: #008000; stroke-width: 1.5"/>
   </g>
   <g id="LineCollection_17">
    <path d="M 359.54861 64.165913 
L 371.796738 64.165913 
" clip-path="url(#p68eccce9c4)" style="fill: none; stroke: #1f77b4; stroke-width: 1.5"/>
    <path d="M 394.543262 62.127775 
L 406.79139 62.127775 
" clip-path="url(#p68eccce9c4)" style="fill: none; stroke: #1f77b4; stroke-width: 1.5"/>
   </g>
   <g id="LineCollection_18">
    <path d="M 359.54861 163.661283 
L 371.796738 163.661283 
" clip-path="url(#p68eccce9c4)" style="fill: none; stroke: #1f77b4; stroke-width: 1.5"/>
    <path d="M 394.543262 163.661283 
L 406.79139 163.661283 
" clip-path="url(#p68eccce9c4)" style="fill: none; stroke: #1f77b4; stroke-width: 1.5"/>
   </g>
   <g id="LineCollection_19">
    <path d="M 365.672674 163.661283 
L 365.672674 64.165913 
" clip-path="url(#p68eccce9c4)" style="fill: none; stroke: #1f77b4; stroke-width: 1.5"/>
    <path d="M 400.667326 163.661283 
L 400.667326 62.127775 
" clip-path="url(#p68eccce9c4)" style="fill: none; stroke: #1f77b4; stroke-width: 1.5"/>
   </g>
   <g id="LineCollection_20">
    <path d="M 359.54861 105.358818 
L 371.796738 105.358818 
" clip-path="url(#p68eccce9c4)" style="fill: none; stroke: #ff0000; stroke-width: 1.5"/>
    <path d="M 394.543262 108.013455 
L 406.79139 108.013455 
" clip-path="url(#p68eccce9c4)" style="fill: none; stroke: #ff0000; stroke-width: 1.5"/>
   </g>
   <g id="patch_18">
    <path d="M 350.45 163.661283 
L 350.45 23.199 
" style="fill: none; stroke: #000000; stroke-width: 0.8; stroke-linejoin: miter; stroke-linecap: square"/>
   </g>
   <g id="patch_19">
    <path d="M 415.89 163.661283 
L 415.89 23.199 
" style="fill: none; stroke: #000000; stroke-width: 0.8; stroke-linejoin: miter; stroke-linecap: square"/>
   </g>
   <g id="patch_20">
    <path d="M 350.45 163.661283 
L 415.89 163.661283 
" style="fill: none; stroke: #000000; stroke-width: 0.8; stroke-linejoin: miter; stroke-linecap: square"/>
   </g>
   <g id="patch_21">
    <path d="M 350.45 23.199 
L 415.89 23.199 
" style="fill: none; stroke: #000000; stroke-width: 0.8; stroke-linejoin: miter; stroke-linecap: square"/>
   </g>
   <g id="text_39">
    <!-- 267 -->
    <g transform="translate(358.172674 37.815455) scale(0.1 -0.1)">
     <use xlink:href="#TimesNewRomanPSMT-32"/>
     <use xlink:href="#TimesNewRomanPSMT-36" x="50"/>
     <use xlink:href="#TimesNewRomanPSMT-37" x="100"/>
    </g>
   </g>
   <g id="text_40">
    <!-- 383 -->
    <g transform="translate(393.167326 37.815455) scale(0.1 -0.1)">
     <use xlink:href="#TimesNewRomanPSMT-33"/>
     <use xlink:href="#TimesNewRomanPSMT-38" x="50"/>
     <use xlink:href="#TimesNewRomanPSMT-33" x="100"/>
    </g>
   </g>
   <g id="text_41">
    <!-- 6 Vessels -->
    <g transform="translate(356.697625 17.199) scale(0.144 -0.144)">
     <use xlink:href="#TimesNewRomanPSMT-36"/>
     <use xlink:href="#TimesNewRomanPSMT-20" x="50"/>
     <use xlink:href="#TimesNewRomanPSMT-56" x="73.25"/>
     <use xlink:href="#TimesNewRomanPSMT-65" x="134.341797"/>
     <use xlink:href="#TimesNewRomanPSMT-73" x="178.726562"/>
     <use xlink:href="#TimesNewRomanPSMT-73" x="217.642578"/>
     <use xlink:href="#TimesNewRomanPSMT-65" x="256.558594"/>
     <use xlink:href="#TimesNewRomanPSMT-6c" x="300.943359"/>
     <use xlink:href="#TimesNewRomanPSMT-73" x="328.726562"/>
    </g>
   </g>
  </g>
 </g>
 <defs>
  <clipPath id="p900f343555">
   <rect x="49.43" y="23.199" width="65.44" height="140.462283"/>
  </clipPath>
  <clipPath id="pc1dfa0a2b3">
   <rect x="149.77" y="23.199" width="65.44" height="140.462283"/>
  </clipPath>
  <clipPath id="p4339782f76">
   <rect x="250.11" y="23.199" width="65.44" height="140.462283"/>
  </clipPath>
  <clipPath id="p68eccce9c4">
   <rect x="350.45" y="23.199" width="65.44" height="140.462283"/>
  </clipPath>
 </defs>
</svg>
