<?xml version="1.0" encoding="utf-8" standalone="no"?>
<!DOCTYPE svg PUBLIC "-//W3C//DTD SVG 1.1//EN"
  "http://www.w3.org/Graphics/SVG/1.1/DTD/svg11.dtd">
<svg xmlns:xlink="http://www.w3.org/1999/xlink" width="417.067094pt" height="204.112125pt" viewBox="0 0 417.067094 204.112125" xmlns="http://www.w3.org/2000/svg" version="1.1">
 <metadata>
  <rdf:RDF xmlns:dc="http://purl.org/dc/elements/1.1/" xmlns:cc="http://creativecommons.org/ns#" xmlns:rdf="http://www.w3.org/1999/02/22-rdf-syntax-ns#">
   <cc:Work>
    <dc:type rdf:resource="http://purl.org/dc/dcmitype/StillImage"/>
    <dc:date>2024-10-28T09:13:18.486214</dc:date>
    <dc:format>image/svg+xml</dc:format>
    <dc:creator>
     <cc:Agent>
      <dc:title>Matplotlib v3.9.0, https://matplotlib.org/</dc:title>
     </cc:Agent>
    </dc:creator>
   </cc:Work>
  </rdf:RDF>
 </metadata>
 <defs>
  <style type="text/css">*{stroke-linejoin: round; stroke-linecap: butt}</style>
 </defs>
 <g id="figure_1">
  <g id="patch_1">
   <path d="M 0 204.112125 
L 417.067094 204.112125 
L 417.067094 0 
L 0 0 
z
" style="fill: #ffffff"/>
  </g>
  <g id="axes_1">
   <g id="patch_2">
    <path d="M 43.191094 179.399 
L 115.712769 179.399 
L 115.712769 23.199 
L 43.191094 23.199 
z
" style="fill: #ffffff"/>
   </g>
   <g id="PolyCollection_1">
    <path d="M 61.323008 148.632141 
L 58.79921 148.632141 
L 58.370719 147.924315 
L 57.838785 147.216489 
L 57.195022 146.508663 
L 56.436372 145.800838 
L 55.566845 145.093012 
L 54.598814 144.385186 
L 53.55354 143.67736 
L 52.460683 142.969534 
L 51.356725 142.261708 
L 50.282414 141.553883 
L 49.27958 140.846057 
L 48.387755 140.138231 
L 47.641084 139.430405 
L 47.06589 138.722579 
L 46.679101 138.014753 
L 46.487534 137.306927 
L 46.487958 136.599102 
L 46.667761 135.891276 
L 47.006088 135.18345 
L 47.475394 134.475624 
L 48.043348 133.767798 
L 48.675077 133.059972 
L 49.335656 132.352146 
L 49.992707 131.644321 
L 50.618899 130.936495 
L 51.194067 130.228669 
L 51.706679 129.520843 
L 52.154384 128.813017 
L 52.543487 128.105191 
L 52.887315 127.397365 
L 53.203652 126.68954 
L 53.511595 125.981714 
L 53.828335 125.273888 
L 54.166398 124.566062 
L 54.53181 123.858236 
L 54.923478 123.15041 
L 55.333785 122.442585 
L 55.750214 121.734759 
L 56.15759 121.026933 
L 56.540486 120.319107 
L 56.885389 119.611281 
L 57.182309 118.903455 
L 57.425692 118.195629 
L 57.614629 117.487804 
L 57.752454 116.779978 
L 57.845902 116.072152 
L 57.904019 115.364326 
L 57.936988 114.6565 
L 57.955034 113.948674 
L 57.967512 113.240848 
L 57.98223 112.533023 
L 58.005035 111.825197 
L 58.039647 111.117371 
L 58.087708 110.409545 
L 58.149004 109.701719 
L 58.221822 108.993893 
L 58.303399 108.286068 
L 58.390412 107.578242 
L 58.479484 106.870416 
L 58.567648 106.16259 
L 58.652718 105.454764 
L 58.733541 104.746938 
L 58.810086 104.039112 
L 58.883338 103.331287 
L 58.955036 102.623461 
L 59.02726 101.915635 
L 59.101948 101.207809 
L 59.180432 100.499983 
L 59.263067 99.792157 
L 59.349046 99.084331 
L 59.436414 98.376506 
L 59.522312 97.66868 
L 59.603378 96.960854 
L 59.676244 96.253028 
L 59.73804 95.545202 
L 59.786814 94.837376 
L 59.821815 94.12955 
L 59.843588 93.421725 
L 59.853893 92.713899 
L 59.855448 92.006073 
L 59.851553 91.298247 
L 59.845647 90.590421 
L 59.840851 89.882595 
L 59.839586 89.17477 
L 59.843296 88.466944 
L 59.852342 87.759118 
L 59.866061 87.051292 
L 59.882985 86.343466 
L 59.901168 85.63564 
L 59.918563 84.927814 
L 59.933387 84.219989 
L 59.944407 83.512163 
L 59.951105 82.804337 
L 59.953719 82.096511 
L 59.953146 81.388685 
L 59.950742 80.680859 
L 59.948061 79.973033 
L 59.946581 79.265208 
L 59.947455 78.557382 
L 60.174763 78.557382 
L 60.174763 78.557382 
L 60.175637 79.265208 
L 60.174157 79.973033 
L 60.171476 80.680859 
L 60.169072 81.388685 
L 60.168499 82.096511 
L 60.171113 82.804337 
L 60.177811 83.512163 
L 60.188831 84.219989 
L 60.203656 84.927814 
L 60.22105 85.63564 
L 60.239233 86.343466 
L 60.256157 87.051292 
L 60.269876 87.759118 
L 60.278922 88.466944 
L 60.282632 89.17477 
L 60.281367 89.882595 
L 60.276572 90.590421 
L 60.270665 91.298247 
L 60.26677 92.006073 
L 60.268325 92.713899 
L 60.27863 93.421725 
L 60.300403 94.12955 
L 60.335404 94.837376 
L 60.384178 95.545202 
L 60.445974 96.253028 
L 60.51884 96.960854 
L 60.599906 97.66868 
L 60.685804 98.376506 
L 60.773172 99.084331 
L 60.859151 99.792157 
L 60.941787 100.499983 
L 61.02027 101.207809 
L 61.094958 101.915635 
L 61.167182 102.623461 
L 61.23888 103.331287 
L 61.312133 104.039112 
L 61.388677 104.746938 
L 61.469501 105.454764 
L 61.55457 106.16259 
L 61.642734 106.870416 
L 61.731807 107.578242 
L 61.818819 108.286068 
L 61.900396 108.993893 
L 61.973214 109.701719 
L 62.03451 110.409545 
L 62.082571 111.117371 
L 62.117184 111.825197 
L 62.139988 112.533023 
L 62.154706 113.240848 
L 62.167184 113.948674 
L 62.18523 114.6565 
L 62.218199 115.364326 
L 62.276316 116.072152 
L 62.369765 116.779978 
L 62.507589 117.487804 
L 62.696526 118.195629 
L 62.939909 118.903455 
L 63.236829 119.611281 
L 63.581732 120.319107 
L 63.964629 121.026933 
L 64.372004 121.734759 
L 64.788434 122.442585 
L 65.19874 123.15041 
L 65.590408 123.858236 
L 65.955821 124.566062 
L 66.293883 125.273888 
L 66.610624 125.981714 
L 66.918567 126.68954 
L 67.234903 127.397365 
L 67.578731 128.105191 
L 67.967834 128.813017 
L 68.41554 129.520843 
L 68.928151 130.228669 
L 69.503319 130.936495 
L 70.129511 131.644321 
L 70.786562 132.352146 
L 71.447141 133.059972 
L 72.07887 133.767798 
L 72.646825 134.475624 
L 73.11613 135.18345 
L 73.454458 135.891276 
L 73.63426 136.599102 
L 73.634685 137.306927 
L 73.443117 138.014753 
L 73.056328 138.722579 
L 72.481135 139.430405 
L 71.734463 140.138231 
L 70.842638 140.846057 
L 69.839804 141.553883 
L 68.765493 142.261708 
L 67.661535 142.969534 
L 66.568679 143.67736 
L 65.523404 144.385186 
L 64.555373 145.093012 
L 63.685846 145.800838 
L 62.927196 146.508663 
L 62.283434 147.216489 
L 61.751499 147.924315 
L 61.323008 148.632141 
z
" clip-path="url(#p2a48b5fa32)" style="fill: #0080ff; fill-opacity: 0.3"/>
   </g>
   <g id="PolyCollection_2">
    <path d="M 101.276872 148.632141 
L 96.408635 148.632141 
L 95.77692 147.769777 
L 95.041423 146.907413 
L 94.204682 146.045049 
L 93.276107 145.182685 
L 92.272807 144.32032 
L 91.219727 143.457956 
L 90.148926 142.595592 
L 89.097927 141.733228 
L 88.107208 140.870864 
L 87.217057 140.0085 
L 86.46415 139.146136 
L 85.878282 138.283772 
L 85.479709 137.421408 
L 85.277507 136.559043 
L 85.269178 135.696679 
L 85.441551 134.834315 
L 85.772805 133.971951 
L 86.235244 133.109587 
L 86.798354 132.247223 
L 87.431649 131.384859 
L 88.106927 130.522495 
L 88.79971 129.660131 
L 89.489846 128.797766 
L 90.161444 127.935402 
L 90.802378 127.073038 
L 91.403674 126.210674 
L 91.958975 125.34831 
L 92.46422 124.485946 
L 92.917529 123.623582 
L 93.3192 122.761218 
L 93.671679 121.898854 
L 93.979371 121.036489 
L 94.248225 120.174125 
L 94.485086 119.311761 
L 94.696901 118.449397 
L 94.889915 117.587033 
L 95.069015 116.724669 
L 95.237335 115.862305 
L 95.396211 114.999941 
L 95.545456 114.137577 
L 95.683883 113.275212 
L 95.809948 112.412848 
L 95.922361 111.550484 
L 96.020556 110.68812 
L 96.104961 109.825756 
L 96.177059 108.963392 
L 96.239284 108.101028 
L 96.294803 107.238664 
L 96.347257 106.3763 
L 96.400474 105.513935 
L 96.458186 104.651571 
L 96.523736 103.789207 
L 96.599788 102.926843 
L 96.688057 102.064479 
L 96.7891 101.202115 
L 96.902212 100.339751 
L 97.025471 99.477387 
L 97.155936 98.615022 
L 97.289986 97.752658 
L 97.423735 96.890294 
L 97.553462 96.02793 
L 97.675965 95.165566 
L 97.788809 94.303202 
L 97.890424 93.440838 
L 97.980086 92.578474 
L 98.057806 91.71611 
L 98.124174 90.853745 
L 98.180206 89.991381 
L 98.227204 89.129017 
L 98.266634 88.266653 
L 98.30001 87.404289 
L 98.328774 86.541925 
L 98.354165 85.679561 
L 98.377087 84.817197 
L 98.398023 83.954833 
L 98.417003 83.092468 
L 98.433667 82.230104 
L 98.447425 81.36774 
L 98.457678 80.505376 
L 98.464062 79.643012 
L 98.466644 78.780648 
L 98.466028 77.918284 
L 98.463331 77.05592 
L 98.460034 76.193556 
L 98.457747 75.331191 
L 98.457932 74.468827 
L 98.461672 73.606463 
L 98.469514 72.744099 
L 98.481435 71.881735 
L 98.496916 71.019371 
L 98.515102 70.157007 
L 98.535007 69.294643 
L 98.555699 68.432279 
L 98.576451 67.569914 
L 98.596809 66.70755 
L 98.616597 65.845186 
L 98.635852 64.982822 
L 98.65473 64.120458 
L 98.673402 63.258094 
L 99.012105 63.258094 
L 99.012105 63.258094 
L 99.030777 64.120458 
L 99.049655 64.982822 
L 99.06891 65.845186 
L 99.088698 66.70755 
L 99.109056 67.569914 
L 99.129808 68.432279 
L 99.1505 69.294643 
L 99.170405 70.157007 
L 99.188591 71.019371 
L 99.204072 71.881735 
L 99.215993 72.744099 
L 99.223835 73.606463 
L 99.227575 74.468827 
L 99.22776 75.331191 
L 99.225473 76.193556 
L 99.222176 77.05592 
L 99.219479 77.918284 
L 99.218863 78.780648 
L 99.221445 79.643012 
L 99.227828 80.505376 
L 99.238082 81.36774 
L 99.25184 82.230104 
L 99.268504 83.092468 
L 99.287484 83.954833 
L 99.30842 84.817197 
L 99.331342 85.679561 
L 99.356732 86.541925 
L 99.385497 87.404289 
L 99.418873 88.266653 
L 99.458302 89.129017 
L 99.505301 89.991381 
L 99.561333 90.853745 
L 99.627701 91.71611 
L 99.705421 92.578474 
L 99.795083 93.440838 
L 99.896698 94.303202 
L 100.009542 95.165566 
L 100.132045 96.02793 
L 100.261772 96.890294 
L 100.395521 97.752658 
L 100.529571 98.615022 
L 100.660036 99.477387 
L 100.783295 100.339751 
L 100.896407 101.202115 
L 100.99745 102.064479 
L 101.085719 102.926843 
L 101.161771 103.789207 
L 101.227321 104.651571 
L 101.285033 105.513935 
L 101.33825 106.3763 
L 101.390704 107.238664 
L 101.446223 108.101028 
L 101.508448 108.963392 
L 101.580546 109.825756 
L 101.664951 110.68812 
L 101.763146 111.550484 
L 101.875559 112.412848 
L 102.001624 113.275212 
L 102.140051 114.137577 
L 102.289296 114.999941 
L 102.448172 115.862305 
L 102.616492 116.724669 
L 102.795592 117.587033 
L 102.988606 118.449397 
L 103.200421 119.311761 
L 103.437282 120.174125 
L 103.706136 121.036489 
L 104.013828 121.898854 
L 104.366307 122.761218 
L 104.767978 123.623582 
L 105.221287 124.485946 
L 105.726532 125.34831 
L 106.281832 126.210674 
L 106.883129 127.073038 
L 107.524063 127.935402 
L 108.19566 128.797766 
L 108.885797 129.660131 
L 109.57858 130.522495 
L 110.253858 131.384859 
L 110.887153 132.247223 
L 111.450262 133.109587 
L 111.912702 133.971951 
L 112.243956 134.834315 
L 112.416329 135.696679 
L 112.408 136.559043 
L 112.205798 137.421408 
L 111.807225 138.283772 
L 111.221356 139.146136 
L 110.46845 140.0085 
L 109.578299 140.870864 
L 108.58758 141.733228 
L 107.536581 142.595592 
L 106.46578 143.457956 
L 105.4127 144.32032 
L 104.4094 145.182685 
L 103.480825 146.045049 
L 102.644084 146.907413 
L 101.908587 147.769777 
L 101.276872 148.632141 
z
" clip-path="url(#p2a48b5fa32)" style="fill: #ff8000; fill-opacity: 0.3"/>
   </g>
   <g id="matplotlib.axis_1">
    <g id="xtick_1">
     <g id="line2d_1">
      <defs>
       <path id="m963f22bffc" d="M 0 0 
L 0 3.5 
" style="stroke: #000000; stroke-width: 0.8"/>
      </defs>
      <g>
       <use xlink:href="#m963f22bffc" x="60.061109" y="179.399" style="stroke: #000000; stroke-width: 0.8"/>
      </g>
     </g>
     <g id="text_1">
      <!-- MSR -->
      <g transform="translate(33.394859 194.34525) scale(0.12 -0.12)">
       <defs>
        <path id="TimesNewRomanPS-BoldMT-4d" d="M 3050 1444 
L 4200 4238 
L 5925 4238 
L 5925 4122 
L 5788 4122 
Q 5600 4122 5488 4056 
Q 5409 4013 5363 3909 
Q 5328 3834 5328 3519 
L 5328 725 
Q 5328 400 5362 319 
Q 5397 238 5503 177 
Q 5609 116 5788 116 
L 5925 116 
L 5925 0 
L 3713 0 
L 3713 116 
L 3850 116 
Q 4038 116 4150 181 
Q 4228 225 4275 331 
Q 4309 406 4309 725 
L 4309 3866 
L 2684 0 
L 2609 0 
L 959 3838 
L 959 853 
Q 959 541 975 469 
Q 1016 313 1152 214 
Q 1288 116 1578 116 
L 1578 0 
L 128 0 
L 128 116 
L 172 116 
Q 313 113 434 161 
Q 556 209 618 290 
Q 681 372 716 519 
Q 722 553 722 838 
L 722 3519 
Q 722 3841 687 3920 
Q 653 4000 547 4061 
Q 441 4122 263 4122 
L 128 4122 
L 128 4238 
L 1859 4238 
L 3050 1444 
z
" transform="scale(0.015625)"/>
        <path id="TimesNewRomanPS-BoldMT-53" d="M 3006 4334 
L 3041 2922 
L 2913 2922 
Q 2822 3453 2467 3776 
Q 2113 4100 1700 4100 
Q 1381 4100 1195 3929 
Q 1009 3759 1009 3538 
Q 1009 3397 1075 3288 
Q 1166 3141 1366 2997 
Q 1513 2894 2044 2631 
Q 2788 2266 3047 1941 
Q 3303 1616 3303 1197 
Q 3303 666 2889 283 
Q 2475 -100 1838 -100 
Q 1638 -100 1459 -59 
Q 1281 -19 1013 94 
Q 863 156 766 156 
Q 684 156 593 93 
Q 503 31 447 -97 
L 331 -97 
L 331 1503 
L 447 1503 
Q 584 828 976 473 
Q 1369 119 1822 119 
Q 2172 119 2380 309 
Q 2588 500 2588 753 
Q 2588 903 2508 1043 
Q 2428 1184 2265 1311 
Q 2103 1438 1691 1641 
Q 1113 1925 859 2125 
Q 606 2325 470 2572 
Q 334 2819 334 3116 
Q 334 3622 706 3978 
Q 1078 4334 1644 4334 
Q 1850 4334 2044 4284 
Q 2191 4247 2402 4145 
Q 2613 4044 2697 4044 
Q 2778 4044 2825 4094 
Q 2872 4144 2913 4334 
L 3006 4334 
z
" transform="scale(0.015625)"/>
        <path id="TimesNewRomanPS-BoldMT-52" d="M 1700 1931 
L 1700 744 
Q 1700 400 1742 311 
Q 1784 222 1890 169 
Q 1997 116 2288 116 
L 2288 0 
L 119 0 
L 119 116 
Q 413 116 517 170 
Q 622 225 664 312 
Q 706 400 706 744 
L 706 3494 
Q 706 3838 664 3927 
Q 622 4016 515 4069 
Q 409 4122 119 4122 
L 119 4238 
L 2088 4238 
Q 2856 4238 3212 4131 
Q 3569 4025 3794 3739 
Q 4019 3453 4019 3069 
Q 4019 2600 3681 2294 
Q 3466 2100 3078 2003 
L 4097 569 
Q 4297 291 4381 222 
Q 4509 125 4678 116 
L 4678 0 
L 3344 0 
L 1978 1931 
L 1700 1931 
z
M 1700 4009 
L 1700 2153 
L 1878 2153 
Q 2313 2153 2528 2233 
Q 2744 2313 2867 2520 
Q 2991 2728 2991 3063 
Q 2991 3547 2764 3778 
Q 2538 4009 2034 4009 
L 1700 4009 
z
" transform="scale(0.015625)"/>
       </defs>
       <use xlink:href="#TimesNewRomanPS-BoldMT-4d"/>
       <use xlink:href="#TimesNewRomanPS-BoldMT-53" x="94.384766"/>
       <use xlink:href="#TimesNewRomanPS-BoldMT-52" x="150"/>
      </g>
     </g>
    </g>
    <g id="xtick_2">
     <g id="line2d_2">
      <g>
       <use xlink:href="#m963f22bffc" x="98.842753" y="179.399" style="stroke: #000000; stroke-width: 0.8"/>
      </g>
     </g>
     <g id="text_2">
      <!-- SBO -->
      <g transform="translate(74.831503 194.34525) scale(0.12 -0.12)">
       <defs>
        <path id="TimesNewRomanPS-BoldMT-42" d="M 2847 2247 
Q 3450 2106 3694 1906 
Q 4044 1622 4044 1169 
Q 4044 691 3659 378 
Q 3188 0 2288 0 
L 134 0 
L 134 116 
Q 428 116 533 170 
Q 638 225 680 312 
Q 722 400 722 744 
L 722 3494 
Q 722 3838 680 3927 
Q 638 4016 531 4069 
Q 425 4122 134 4122 
L 134 4238 
L 2166 4238 
Q 2894 4238 3197 4108 
Q 3500 3978 3675 3720 
Q 3850 3463 3850 3172 
Q 3850 2866 3628 2627 
Q 3406 2388 2847 2247 
z
M 1709 2331 
Q 2153 2331 2364 2431 
Q 2575 2531 2687 2712 
Q 2800 2894 2800 3175 
Q 2800 3456 2689 3636 
Q 2578 3816 2372 3909 
Q 2166 4003 1709 4000 
L 1709 2331 
z
M 1709 2088 
L 1709 728 
L 1706 572 
Q 1706 403 1792 317 
Q 1878 231 2047 231 
Q 2297 231 2508 342 
Q 2719 453 2831 664 
Q 2944 875 2944 1134 
Q 2944 1431 2806 1667 
Q 2669 1903 2428 1997 
Q 2188 2091 1709 2088 
z
" transform="scale(0.015625)"/>
        <path id="TimesNewRomanPS-BoldMT-4f" d="M 2472 4297 
Q 3484 4334 4117 3706 
Q 4750 3078 4750 2134 
Q 4750 1328 4278 716 
Q 3653 -97 2513 -97 
Q 1369 -97 744 678 
Q 250 1291 250 2131 
Q 250 3075 892 3704 
Q 1534 4334 2472 4297 
z
M 2509 4097 
Q 1928 4097 1625 3503 
Q 1378 3016 1378 2103 
Q 1378 1019 1759 500 
Q 2025 138 2503 138 
Q 2825 138 3041 294 
Q 3316 494 3469 933 
Q 3622 1372 3622 2078 
Q 3622 2919 3465 3336 
Q 3309 3753 3067 3925 
Q 2825 4097 2509 4097 
z
" transform="scale(0.015625)"/>
       </defs>
       <use xlink:href="#TimesNewRomanPS-BoldMT-53"/>
       <use xlink:href="#TimesNewRomanPS-BoldMT-42" x="55.615234"/>
       <use xlink:href="#TimesNewRomanPS-BoldMT-4f" x="122.314453"/>
      </g>
     </g>
    </g>
   </g>
   <g id="matplotlib.axis_2">
    <g id="ytick_1">
     <g id="line2d_3">
      <defs>
       <path id="md13f2c7782" d="M 0 0 
L -3.5 0 
" style="stroke: #000000; stroke-width: 0.8"/>
      </defs>
      <g>
       <use xlink:href="#md13f2c7782" x="43.191094" y="179.399" style="stroke: #000000; stroke-width: 0.8"/>
      </g>
     </g>
     <g id="text_3">
      <!-- 0.0 -->
      <g transform="translate(21.191094 183.56525) scale(0.12 -0.12)">
       <defs>
        <path id="TimesNewRomanPSMT-30" d="M 231 2094 
Q 231 2819 450 3342 
Q 669 3866 1031 4122 
Q 1313 4325 1613 4325 
Q 2100 4325 2488 3828 
Q 2972 3213 2972 2159 
Q 2972 1422 2759 906 
Q 2547 391 2217 158 
Q 1888 -75 1581 -75 
Q 975 -75 572 641 
Q 231 1244 231 2094 
z
M 844 2016 
Q 844 1141 1059 588 
Q 1238 122 1591 122 
Q 1759 122 1940 273 
Q 2122 425 2216 781 
Q 2359 1319 2359 2297 
Q 2359 3022 2209 3506 
Q 2097 3866 1919 4016 
Q 1791 4119 1609 4119 
Q 1397 4119 1231 3928 
Q 1006 3669 925 3112 
Q 844 2556 844 2016 
z
" transform="scale(0.015625)"/>
        <path id="TimesNewRomanPSMT-2e" d="M 800 606 
Q 947 606 1047 504 
Q 1147 403 1147 259 
Q 1147 116 1045 14 
Q 944 -88 800 -88 
Q 656 -88 554 14 
Q 453 116 453 259 
Q 453 406 554 506 
Q 656 606 800 606 
z
" transform="scale(0.015625)"/>
       </defs>
       <use xlink:href="#TimesNewRomanPSMT-30"/>
       <use xlink:href="#TimesNewRomanPSMT-2e" x="50"/>
       <use xlink:href="#TimesNewRomanPSMT-30" x="75"/>
      </g>
     </g>
    </g>
    <g id="ytick_2">
     <g id="line2d_4">
      <g>
       <use xlink:href="#md13f2c7782" x="43.191094" y="152.233783" style="stroke: #000000; stroke-width: 0.8"/>
      </g>
     </g>
     <g id="text_4">
      <!-- 0.2 -->
      <g transform="translate(21.191094 156.400033) scale(0.12 -0.12)">
       <defs>
        <path id="TimesNewRomanPSMT-32" d="M 2934 816 
L 2638 0 
L 138 0 
L 138 116 
Q 1241 1122 1691 1759 
Q 2141 2397 2141 2925 
Q 2141 3328 1894 3587 
Q 1647 3847 1303 3847 
Q 991 3847 742 3664 
Q 494 3481 375 3128 
L 259 3128 
Q 338 3706 661 4015 
Q 984 4325 1469 4325 
Q 1984 4325 2329 3994 
Q 2675 3663 2675 3213 
Q 2675 2891 2525 2569 
Q 2294 2063 1775 1497 
Q 997 647 803 472 
L 1909 472 
Q 2247 472 2383 497 
Q 2519 522 2628 598 
Q 2738 675 2819 816 
L 2934 816 
z
" transform="scale(0.015625)"/>
       </defs>
       <use xlink:href="#TimesNewRomanPSMT-30"/>
       <use xlink:href="#TimesNewRomanPSMT-2e" x="50"/>
       <use xlink:href="#TimesNewRomanPSMT-32" x="75"/>
      </g>
     </g>
    </g>
    <g id="ytick_3">
     <g id="line2d_5">
      <g>
       <use xlink:href="#md13f2c7782" x="43.191094" y="125.068565" style="stroke: #000000; stroke-width: 0.8"/>
      </g>
     </g>
     <g id="text_5">
      <!-- 0.4 -->
      <g transform="translate(21.191094 129.234815) scale(0.12 -0.12)">
       <defs>
        <path id="TimesNewRomanPSMT-34" d="M 2978 1563 
L 2978 1119 
L 2409 1119 
L 2409 0 
L 1894 0 
L 1894 1119 
L 100 1119 
L 100 1519 
L 2066 4325 
L 2409 4325 
L 2409 1563 
L 2978 1563 
z
M 1894 1563 
L 1894 3666 
L 406 1563 
L 1894 1563 
z
" transform="scale(0.015625)"/>
       </defs>
       <use xlink:href="#TimesNewRomanPSMT-30"/>
       <use xlink:href="#TimesNewRomanPSMT-2e" x="50"/>
       <use xlink:href="#TimesNewRomanPSMT-34" x="75"/>
      </g>
     </g>
    </g>
    <g id="ytick_4">
     <g id="line2d_6">
      <g>
       <use xlink:href="#md13f2c7782" x="43.191094" y="97.903348" style="stroke: #000000; stroke-width: 0.8"/>
      </g>
     </g>
     <g id="text_6">
      <!-- 0.6 -->
      <g transform="translate(21.191094 102.069598) scale(0.12 -0.12)">
       <defs>
        <path id="TimesNewRomanPSMT-36" d="M 2869 4325 
L 2869 4209 
Q 2456 4169 2195 4045 
Q 1934 3922 1679 3669 
Q 1425 3416 1258 3105 
Q 1091 2794 978 2366 
Q 1428 2675 1881 2675 
Q 2316 2675 2634 2325 
Q 2953 1975 2953 1425 
Q 2953 894 2631 456 
Q 2244 -75 1606 -75 
Q 1172 -75 869 213 
Q 275 772 275 1663 
Q 275 2231 503 2743 
Q 731 3256 1154 3653 
Q 1578 4050 1965 4187 
Q 2353 4325 2688 4325 
L 2869 4325 
z
M 925 2138 
Q 869 1716 869 1456 
Q 869 1156 980 804 
Q 1091 453 1309 247 
Q 1469 100 1697 100 
Q 1969 100 2183 356 
Q 2397 613 2397 1088 
Q 2397 1622 2184 2012 
Q 1972 2403 1581 2403 
Q 1463 2403 1327 2353 
Q 1191 2303 925 2138 
z
" transform="scale(0.015625)"/>
       </defs>
       <use xlink:href="#TimesNewRomanPSMT-30"/>
       <use xlink:href="#TimesNewRomanPSMT-2e" x="50"/>
       <use xlink:href="#TimesNewRomanPSMT-36" x="75"/>
      </g>
     </g>
    </g>
    <g id="ytick_5">
     <g id="line2d_7">
      <g>
       <use xlink:href="#md13f2c7782" x="43.191094" y="70.73813" style="stroke: #000000; stroke-width: 0.8"/>
      </g>
     </g>
     <g id="text_7">
      <!-- 0.8 -->
      <g transform="translate(21.191094 74.90438) scale(0.12 -0.12)">
       <defs>
        <path id="TimesNewRomanPSMT-38" d="M 1228 2134 
Q 725 2547 579 2797 
Q 434 3047 434 3316 
Q 434 3728 753 4026 
Q 1072 4325 1600 4325 
Q 2113 4325 2425 4047 
Q 2738 3769 2738 3413 
Q 2738 3175 2569 2928 
Q 2400 2681 1866 2347 
Q 2416 1922 2594 1678 
Q 2831 1359 2831 1006 
Q 2831 559 2490 242 
Q 2150 -75 1597 -75 
Q 994 -75 656 303 
Q 388 606 388 966 
Q 388 1247 577 1523 
Q 766 1800 1228 2134 
z
M 1719 2469 
Q 2094 2806 2194 3001 
Q 2294 3197 2294 3444 
Q 2294 3772 2109 3958 
Q 1925 4144 1606 4144 
Q 1288 4144 1088 3959 
Q 888 3775 888 3528 
Q 888 3366 970 3203 
Q 1053 3041 1206 2894 
L 1719 2469 
z
M 1375 2016 
Q 1116 1797 991 1539 
Q 866 1281 866 981 
Q 866 578 1086 336 
Q 1306 94 1647 94 
Q 1984 94 2187 284 
Q 2391 475 2391 747 
Q 2391 972 2272 1150 
Q 2050 1481 1375 2016 
z
" transform="scale(0.015625)"/>
       </defs>
       <use xlink:href="#TimesNewRomanPSMT-30"/>
       <use xlink:href="#TimesNewRomanPSMT-2e" x="50"/>
       <use xlink:href="#TimesNewRomanPSMT-38" x="75"/>
      </g>
     </g>
    </g>
    <g id="ytick_6">
     <g id="line2d_8">
      <g>
       <use xlink:href="#md13f2c7782" x="43.191094" y="43.572913" style="stroke: #000000; stroke-width: 0.8"/>
      </g>
     </g>
     <g id="text_8">
      <!-- 1.0 -->
      <g transform="translate(21.191094 47.739163) scale(0.12 -0.12)">
       <defs>
        <path id="TimesNewRomanPSMT-31" d="M 750 3822 
L 1781 4325 
L 1884 4325 
L 1884 747 
Q 1884 391 1914 303 
Q 1944 216 2037 169 
Q 2131 122 2419 116 
L 2419 0 
L 825 0 
L 825 116 
Q 1125 122 1212 167 
Q 1300 213 1334 289 
Q 1369 366 1369 747 
L 1369 3034 
Q 1369 3497 1338 3628 
Q 1316 3728 1258 3775 
Q 1200 3822 1119 3822 
Q 1003 3822 797 3725 
L 750 3822 
z
" transform="scale(0.015625)"/>
       </defs>
       <use xlink:href="#TimesNewRomanPSMT-31"/>
       <use xlink:href="#TimesNewRomanPSMT-2e" x="50"/>
       <use xlink:href="#TimesNewRomanPSMT-30" x="75"/>
      </g>
     </g>
    </g>
    <g id="text_9">
     <!-- DS index of OS at $t_0$ -->
     <g transform="translate(14.838125 147.774) rotate(-90) scale(0.11 -0.11)">
      <defs>
       <path id="TimesNewRomanPSMT-44" d="M 109 0 
L 109 116 
L 269 116 
Q 538 116 650 288 
Q 719 391 719 750 
L 719 3488 
Q 719 3884 631 3984 
Q 509 4122 269 4122 
L 109 4122 
L 109 4238 
L 1834 4238 
Q 2784 4238 3279 4022 
Q 3775 3806 4076 3303 
Q 4378 2800 4378 2141 
Q 4378 1256 3841 663 
Q 3238 0 2003 0 
L 109 0 
z
M 1319 306 
Q 1716 219 1984 219 
Q 2709 219 3187 728 
Q 3666 1238 3666 2109 
Q 3666 2988 3187 3494 
Q 2709 4000 1959 4000 
Q 1678 4000 1319 3909 
L 1319 306 
z
" transform="scale(0.015625)"/>
       <path id="TimesNewRomanPSMT-53" d="M 2934 4334 
L 2934 2869 
L 2819 2869 
Q 2763 3291 2617 3541 
Q 2472 3791 2203 3937 
Q 1934 4084 1647 4084 
Q 1322 4084 1109 3886 
Q 897 3688 897 3434 
Q 897 3241 1031 3081 
Q 1225 2847 1953 2456 
Q 2547 2138 2764 1967 
Q 2981 1797 3098 1565 
Q 3216 1334 3216 1081 
Q 3216 600 2842 251 
Q 2469 -97 1881 -97 
Q 1697 -97 1534 -69 
Q 1438 -53 1133 45 
Q 828 144 747 144 
Q 669 144 623 97 
Q 578 50 556 -97 
L 441 -97 
L 441 1356 
L 556 1356 
Q 638 900 775 673 
Q 913 447 1195 297 
Q 1478 147 1816 147 
Q 2206 147 2432 353 
Q 2659 559 2659 841 
Q 2659 997 2573 1156 
Q 2488 1316 2306 1453 
Q 2184 1547 1640 1851 
Q 1097 2156 867 2337 
Q 638 2519 519 2737 
Q 400 2956 400 3219 
Q 400 3675 750 4004 
Q 1100 4334 1641 4334 
Q 1978 4334 2356 4169 
Q 2531 4091 2603 4091 
Q 2684 4091 2736 4139 
Q 2788 4188 2819 4334 
L 2934 4334 
z
" transform="scale(0.015625)"/>
       <path id="TimesNewRomanPSMT-20" transform="scale(0.015625)"/>
       <path id="TimesNewRomanPSMT-69" d="M 928 4444 
Q 1059 4444 1151 4351 
Q 1244 4259 1244 4128 
Q 1244 3997 1151 3903 
Q 1059 3809 928 3809 
Q 797 3809 703 3903 
Q 609 3997 609 4128 
Q 609 4259 701 4351 
Q 794 4444 928 4444 
z
M 1188 2947 
L 1188 647 
Q 1188 378 1227 289 
Q 1266 200 1342 156 
Q 1419 113 1622 113 
L 1622 0 
L 231 0 
L 231 113 
Q 441 113 512 153 
Q 584 194 626 287 
Q 669 381 669 647 
L 669 1750 
Q 669 2216 641 2353 
Q 619 2453 572 2492 
Q 525 2531 444 2531 
Q 356 2531 231 2484 
L 188 2597 
L 1050 2947 
L 1188 2947 
z
" transform="scale(0.015625)"/>
       <path id="TimesNewRomanPSMT-6e" d="M 1034 2341 
Q 1538 2947 1994 2947 
Q 2228 2947 2397 2830 
Q 2566 2713 2666 2444 
Q 2734 2256 2734 1869 
L 2734 647 
Q 2734 375 2778 278 
Q 2813 200 2889 156 
Q 2966 113 3172 113 
L 3172 0 
L 1756 0 
L 1756 113 
L 1816 113 
Q 2016 113 2095 173 
Q 2175 234 2206 353 
Q 2219 400 2219 647 
L 2219 1819 
Q 2219 2209 2117 2386 
Q 2016 2563 1775 2563 
Q 1403 2563 1034 2156 
L 1034 647 
Q 1034 356 1069 288 
Q 1113 197 1189 155 
Q 1266 113 1500 113 
L 1500 0 
L 84 0 
L 84 113 
L 147 113 
Q 366 113 442 223 
Q 519 334 519 647 
L 519 1709 
Q 519 2225 495 2337 
Q 472 2450 423 2490 
Q 375 2531 294 2531 
Q 206 2531 84 2484 
L 38 2597 
L 900 2947 
L 1034 2947 
L 1034 2341 
z
" transform="scale(0.015625)"/>
       <path id="TimesNewRomanPSMT-64" d="M 2222 322 
Q 2013 103 1813 7 
Q 1613 -88 1381 -88 
Q 913 -88 563 304 
Q 213 697 213 1313 
Q 213 1928 600 2439 
Q 988 2950 1597 2950 
Q 1975 2950 2222 2709 
L 2222 3238 
Q 2222 3728 2198 3840 
Q 2175 3953 2125 3993 
Q 2075 4034 2000 4034 
Q 1919 4034 1784 3984 
L 1744 4094 
L 2597 4444 
L 2738 4444 
L 2738 1134 
Q 2738 631 2761 520 
Q 2784 409 2836 365 
Q 2888 322 2956 322 
Q 3041 322 3181 375 
L 3216 266 
L 2366 -88 
L 2222 -88 
L 2222 322 
z
M 2222 541 
L 2222 2016 
Q 2203 2228 2109 2403 
Q 2016 2578 1861 2667 
Q 1706 2756 1559 2756 
Q 1284 2756 1069 2509 
Q 784 2184 784 1559 
Q 784 928 1059 592 
Q 1334 256 1672 256 
Q 1956 256 2222 541 
z
" transform="scale(0.015625)"/>
       <path id="TimesNewRomanPSMT-65" d="M 681 1784 
Q 678 1147 991 784 
Q 1303 422 1725 422 
Q 2006 422 2214 576 
Q 2422 731 2563 1106 
L 2659 1044 
Q 2594 616 2278 264 
Q 1963 -88 1488 -88 
Q 972 -88 605 314 
Q 238 716 238 1394 
Q 238 2128 614 2539 
Q 991 2950 1559 2950 
Q 2041 2950 2350 2633 
Q 2659 2316 2659 1784 
L 681 1784 
z
M 681 1966 
L 2006 1966 
Q 1991 2241 1941 2353 
Q 1863 2528 1708 2628 
Q 1553 2728 1384 2728 
Q 1125 2728 920 2526 
Q 716 2325 681 1966 
z
" transform="scale(0.015625)"/>
       <path id="TimesNewRomanPSMT-78" d="M 84 2863 
L 1431 2863 
L 1431 2747 
Q 1303 2747 1251 2703 
Q 1200 2659 1200 2588 
Q 1200 2513 1309 2356 
Q 1344 2306 1413 2200 
L 1616 1875 
L 1850 2200 
Q 2075 2509 2075 2591 
Q 2075 2656 2022 2701 
Q 1969 2747 1850 2747 
L 1850 2863 
L 2819 2863 
L 2819 2747 
Q 2666 2738 2553 2663 
Q 2400 2556 2134 2200 
L 1744 1678 
L 2456 653 
Q 2719 275 2831 198 
Q 2944 122 3122 113 
L 3122 0 
L 1772 0 
L 1772 113 
Q 1913 113 1991 175 
Q 2050 219 2050 291 
Q 2050 363 1850 653 
L 1431 1266 
L 972 653 
Q 759 369 759 316 
Q 759 241 829 180 
Q 900 119 1041 113 
L 1041 0 
L 106 0 
L 106 113 
Q 219 128 303 191 
Q 422 281 703 653 
L 1303 1450 
L 759 2238 
Q 528 2575 401 2661 
Q 275 2747 84 2747 
L 84 2863 
z
" transform="scale(0.015625)"/>
       <path id="TimesNewRomanPSMT-6f" d="M 1600 2947 
Q 2250 2947 2644 2453 
Q 2978 2031 2978 1484 
Q 2978 1100 2793 706 
Q 2609 313 2286 112 
Q 1963 -88 1566 -88 
Q 919 -88 538 428 
Q 216 863 216 1403 
Q 216 1797 411 2186 
Q 606 2575 925 2761 
Q 1244 2947 1600 2947 
z
M 1503 2744 
Q 1338 2744 1170 2645 
Q 1003 2547 900 2300 
Q 797 2053 797 1666 
Q 797 1041 1045 587 
Q 1294 134 1700 134 
Q 2003 134 2200 384 
Q 2397 634 2397 1244 
Q 2397 2006 2069 2444 
Q 1847 2744 1503 2744 
z
" transform="scale(0.015625)"/>
       <path id="TimesNewRomanPSMT-66" d="M 1319 2638 
L 1319 756 
Q 1319 356 1406 250 
Q 1522 113 1716 113 
L 1975 113 
L 1975 0 
L 266 0 
L 266 113 
L 394 113 
Q 519 113 622 175 
Q 725 238 764 344 
Q 803 450 803 756 
L 803 2638 
L 247 2638 
L 247 2863 
L 803 2863 
L 803 3050 
Q 803 3478 940 3775 
Q 1078 4072 1361 4255 
Q 1644 4438 1997 4438 
Q 2325 4438 2600 4225 
Q 2781 4084 2781 3909 
Q 2781 3816 2700 3733 
Q 2619 3650 2525 3650 
Q 2453 3650 2373 3701 
Q 2294 3753 2178 3923 
Q 2063 4094 1966 4153 
Q 1869 4213 1750 4213 
Q 1606 4213 1506 4136 
Q 1406 4059 1362 3898 
Q 1319 3738 1319 3069 
L 1319 2863 
L 2056 2863 
L 2056 2638 
L 1319 2638 
z
" transform="scale(0.015625)"/>
       <path id="TimesNewRomanPSMT-4f" d="M 2341 4334 
Q 3166 4334 3770 3707 
Q 4375 3081 4375 2144 
Q 4375 1178 3765 540 
Q 3156 -97 2291 -97 
Q 1416 -97 820 525 
Q 225 1147 225 2134 
Q 225 3144 913 3781 
Q 1509 4334 2341 4334 
z
M 2281 4106 
Q 1713 4106 1369 3684 
Q 941 3159 941 2147 
Q 941 1109 1384 550 
Q 1725 125 2284 125 
Q 2881 125 3270 590 
Q 3659 1056 3659 2059 
Q 3659 3147 3231 3681 
Q 2888 4106 2281 4106 
z
" transform="scale(0.015625)"/>
       <path id="TimesNewRomanPSMT-61" d="M 1822 413 
Q 1381 72 1269 19 
Q 1100 -59 909 -59 
Q 613 -59 420 144 
Q 228 347 228 678 
Q 228 888 322 1041 
Q 450 1253 767 1440 
Q 1084 1628 1822 1897 
L 1822 2009 
Q 1822 2438 1686 2597 
Q 1550 2756 1291 2756 
Q 1094 2756 978 2650 
Q 859 2544 859 2406 
L 866 2225 
Q 866 2081 792 2003 
Q 719 1925 600 1925 
Q 484 1925 411 2006 
Q 338 2088 338 2228 
Q 338 2497 613 2722 
Q 888 2947 1384 2947 
Q 1766 2947 2009 2819 
Q 2194 2722 2281 2516 
Q 2338 2381 2338 1966 
L 2338 994 
Q 2338 584 2353 492 
Q 2369 400 2405 369 
Q 2441 338 2488 338 
Q 2538 338 2575 359 
Q 2641 400 2828 588 
L 2828 413 
Q 2478 -56 2159 -56 
Q 2006 -56 1915 50 
Q 1825 156 1822 413 
z
M 1822 616 
L 1822 1706 
Q 1350 1519 1213 1441 
Q 966 1303 859 1153 
Q 753 1003 753 825 
Q 753 600 887 451 
Q 1022 303 1197 303 
Q 1434 303 1822 616 
z
" transform="scale(0.015625)"/>
       <path id="TimesNewRomanPSMT-74" d="M 1031 3803 
L 1031 2863 
L 1700 2863 
L 1700 2644 
L 1031 2644 
L 1031 788 
Q 1031 509 1111 412 
Q 1191 316 1316 316 
Q 1419 316 1516 380 
Q 1613 444 1666 569 
L 1788 569 
Q 1678 263 1478 108 
Q 1278 -47 1066 -47 
Q 922 -47 784 33 
Q 647 113 581 261 
Q 516 409 516 719 
L 516 2644 
L 63 2644 
L 63 2747 
Q 234 2816 414 2980 
Q 594 3144 734 3369 
Q 806 3488 934 3803 
L 1031 3803 
z
" transform="scale(0.015625)"/>
       <path id="DejaVuSans-Oblique-74" d="M 2706 3500 
L 2619 3053 
L 1472 3053 
L 1100 1153 
Q 1081 1047 1072 975 
Q 1063 903 1063 863 
Q 1063 663 1183 572 
Q 1303 481 1569 481 
L 2150 481 
L 2053 0 
L 1503 0 
Q 991 0 739 200 
Q 488 400 488 806 
Q 488 878 497 964 
Q 506 1050 525 1153 
L 897 3053 
L 409 3053 
L 500 3500 
L 978 3500 
L 1172 4494 
L 1747 4494 
L 1556 3500 
L 2706 3500 
z
" transform="scale(0.015625)"/>
       <path id="DejaVuSans-30" d="M 2034 4250 
Q 1547 4250 1301 3770 
Q 1056 3291 1056 2328 
Q 1056 1369 1301 889 
Q 1547 409 2034 409 
Q 2525 409 2770 889 
Q 3016 1369 3016 2328 
Q 3016 3291 2770 3770 
Q 2525 4250 2034 4250 
z
M 2034 4750 
Q 2819 4750 3233 4129 
Q 3647 3509 3647 2328 
Q 3647 1150 3233 529 
Q 2819 -91 2034 -91 
Q 1250 -91 836 529 
Q 422 1150 422 2328 
Q 422 3509 836 4129 
Q 1250 4750 2034 4750 
z
" transform="scale(0.015625)"/>
      </defs>
      <use xlink:href="#TimesNewRomanPSMT-44" transform="translate(0 0.78125)"/>
      <use xlink:href="#TimesNewRomanPSMT-53" transform="translate(72.216797 0.78125)"/>
      <use xlink:href="#TimesNewRomanPSMT-20" transform="translate(127.832031 0.78125)"/>
      <use xlink:href="#TimesNewRomanPSMT-69" transform="translate(152.832031 0.78125)"/>
      <use xlink:href="#TimesNewRomanPSMT-6e" transform="translate(180.615234 0.78125)"/>
      <use xlink:href="#TimesNewRomanPSMT-64" transform="translate(230.615234 0.78125)"/>
      <use xlink:href="#TimesNewRomanPSMT-65" transform="translate(280.615234 0.78125)"/>
      <use xlink:href="#TimesNewRomanPSMT-78" transform="translate(325 0.78125)"/>
      <use xlink:href="#TimesNewRomanPSMT-20" transform="translate(375 0.78125)"/>
      <use xlink:href="#TimesNewRomanPSMT-6f" transform="translate(400 0.78125)"/>
      <use xlink:href="#TimesNewRomanPSMT-66" transform="translate(450 0.78125)"/>
      <use xlink:href="#TimesNewRomanPSMT-20" transform="translate(483.300781 0.78125)"/>
      <use xlink:href="#TimesNewRomanPSMT-4f" transform="translate(508.300781 0.78125)"/>
      <use xlink:href="#TimesNewRomanPSMT-53" transform="translate(580.517578 0.78125)"/>
      <use xlink:href="#TimesNewRomanPSMT-20" transform="translate(636.132812 0.78125)"/>
      <use xlink:href="#TimesNewRomanPSMT-61" transform="translate(661.132812 0.78125)"/>
      <use xlink:href="#TimesNewRomanPSMT-74" transform="translate(705.517578 0.78125)"/>
      <use xlink:href="#TimesNewRomanPSMT-20" transform="translate(733.300781 0.78125)"/>
      <use xlink:href="#DejaVuSans-Oblique-74" transform="translate(758.300781 0.78125)"/>
      <use xlink:href="#DejaVuSans-30" transform="translate(797.509766 -15.625) scale(0.7)"/>
     </g>
    </g>
   </g>
   <g id="LineCollection_1">
    <path d="M 53.274321 130.693779 
L 66.847897 130.693779 
" clip-path="url(#p2a48b5fa32)" style="fill: none; stroke: #000000; stroke-width: 2"/>
    <path d="M 92.055966 127.637348 
L 105.629541 127.637348 
" clip-path="url(#p2a48b5fa32)" style="fill: none; stroke: #000000; stroke-width: 2"/>
   </g>
   <g id="LineCollection_2">
    <path d="M 53.274321 78.557382 
L 66.847897 78.557382 
" clip-path="url(#p2a48b5fa32)" style="fill: none; stroke: #1f77b4; stroke-width: 1.5"/>
    <path d="M 92.055966 63.258094 
L 105.629541 63.258094 
" clip-path="url(#p2a48b5fa32)" style="fill: none; stroke: #1f77b4; stroke-width: 1.5"/>
   </g>
   <g id="LineCollection_3">
    <path d="M 53.274321 148.632141 
L 66.847897 148.632141 
" clip-path="url(#p2a48b5fa32)" style="fill: none; stroke: #1f77b4; stroke-width: 1.5"/>
    <path d="M 92.055966 148.632141 
L 105.629541 148.632141 
" clip-path="url(#p2a48b5fa32)" style="fill: none; stroke: #1f77b4; stroke-width: 1.5"/>
   </g>
   <g id="LineCollection_4">
    <path d="M 60.061109 148.632141 
L 60.061109 78.557382 
" clip-path="url(#p2a48b5fa32)" style="fill: none; stroke: #1f77b4; stroke-width: 1.5"/>
    <path d="M 98.842753 148.632141 
L 98.842753 63.258094 
" clip-path="url(#p2a48b5fa32)" style="fill: none; stroke: #1f77b4; stroke-width: 1.5"/>
   </g>
   <g id="LineCollection_5">
    <path d="M 53.274321 135.187711 
L 66.847897 135.187711 
" clip-path="url(#p2a48b5fa32)" style="fill: none; stroke-dasharray: 2,3.3; stroke-dashoffset: 0; stroke: #808080; stroke-width: 2"/>
    <path d="M 92.055966 132.880509 
L 105.629541 132.880509 
" clip-path="url(#p2a48b5fa32)" style="fill: none; stroke-dasharray: 2,3.3; stroke-dashoffset: 0; stroke: #808080; stroke-width: 2"/>
   </g>
   <g id="patch_3">
    <path d="M 43.191094 179.399 
L 43.191094 23.199 
" style="fill: none; stroke: #000000; stroke-width: 0.8; stroke-linejoin: miter; stroke-linecap: square"/>
   </g>
   <g id="patch_4">
    <path d="M 115.712769 179.399 
L 115.712769 23.199 
" style="fill: none; stroke: #000000; stroke-width: 0.8; stroke-linejoin: miter; stroke-linecap: square"/>
   </g>
   <g id="patch_5">
    <path d="M 43.191094 179.399 
L 115.712769 179.399 
" style="fill: none; stroke: #000000; stroke-width: 0.8; stroke-linejoin: miter; stroke-linecap: square"/>
   </g>
   <g id="patch_6">
    <path d="M 43.191094 23.199 
L 115.712769 23.199 
" style="fill: none; stroke: #000000; stroke-width: 0.8; stroke-linejoin: miter; stroke-linecap: square"/>
   </g>
   <g id="text_10">
    <!-- 278 -->
    <g transform="translate(52.561109 39.183952) scale(0.1 -0.1)">
     <defs>
      <path id="TimesNewRomanPSMT-37" d="M 644 4238 
L 2916 4238 
L 2916 4119 
L 1503 -88 
L 1153 -88 
L 2419 3728 
L 1253 3728 
Q 900 3728 750 3644 
Q 488 3500 328 3200 
L 238 3234 
L 644 4238 
z
" transform="scale(0.015625)"/>
     </defs>
     <use xlink:href="#TimesNewRomanPSMT-32"/>
     <use xlink:href="#TimesNewRomanPSMT-37" x="50"/>
     <use xlink:href="#TimesNewRomanPSMT-38" x="100"/>
    </g>
   </g>
   <g id="text_11">
    <!-- 291 -->
    <g transform="translate(91.342753 39.183952) scale(0.1 -0.1)">
     <defs>
      <path id="TimesNewRomanPSMT-39" d="M 338 -88 
L 338 28 
Q 744 34 1094 217 
Q 1444 400 1770 856 
Q 2097 1313 2225 1859 
Q 1734 1544 1338 1544 
Q 891 1544 572 1889 
Q 253 2234 253 2806 
Q 253 3363 572 3797 
Q 956 4325 1575 4325 
Q 2097 4325 2469 3894 
Q 2925 3359 2925 2575 
Q 2925 1869 2578 1258 
Q 2231 647 1613 244 
Q 1109 -88 516 -88 
L 338 -88 
z
M 2275 2091 
Q 2331 2497 2331 2741 
Q 2331 3044 2228 3395 
Q 2125 3747 1936 3934 
Q 1747 4122 1506 4122 
Q 1228 4122 1018 3872 
Q 809 3622 809 3128 
Q 809 2469 1088 2097 
Q 1291 1828 1588 1828 
Q 1731 1828 1928 1897 
Q 2125 1966 2275 2091 
z
" transform="scale(0.015625)"/>
     </defs>
     <use xlink:href="#TimesNewRomanPSMT-32"/>
     <use xlink:href="#TimesNewRomanPSMT-39" x="50"/>
     <use xlink:href="#TimesNewRomanPSMT-31" x="100"/>
    </g>
   </g>
   <g id="text_12">
    <!-- 3 Vessels -->
    <g transform="translate(52.979556 17.199) scale(0.144 -0.144)">
     <defs>
      <path id="TimesNewRomanPSMT-33" d="M 325 3431 
Q 506 3859 782 4092 
Q 1059 4325 1472 4325 
Q 1981 4325 2253 3994 
Q 2459 3747 2459 3466 
Q 2459 3003 1878 2509 
Q 2269 2356 2469 2072 
Q 2669 1788 2669 1403 
Q 2669 853 2319 450 
Q 1863 -75 997 -75 
Q 569 -75 414 31 
Q 259 138 259 259 
Q 259 350 332 419 
Q 406 488 509 488 
Q 588 488 669 463 
Q 722 447 909 348 
Q 1097 250 1169 231 
Q 1284 197 1416 197 
Q 1734 197 1970 444 
Q 2206 691 2206 1028 
Q 2206 1275 2097 1509 
Q 2016 1684 1919 1775 
Q 1784 1900 1550 2001 
Q 1316 2103 1072 2103 
L 972 2103 
L 972 2197 
Q 1219 2228 1467 2375 
Q 1716 2522 1828 2728 
Q 1941 2934 1941 3181 
Q 1941 3503 1739 3701 
Q 1538 3900 1238 3900 
Q 753 3900 428 3381 
L 325 3431 
z
" transform="scale(0.015625)"/>
      <path id="TimesNewRomanPSMT-56" d="M 4544 4238 
L 4544 4122 
Q 4319 4081 4203 3978 
Q 4038 3825 3909 3509 
L 2431 -97 
L 2316 -97 
L 728 3556 
Q 606 3838 556 3900 
Q 478 3997 364 4051 
Q 250 4106 56 4122 
L 56 4238 
L 1788 4238 
L 1788 4122 
Q 1494 4094 1406 4022 
Q 1319 3950 1319 3838 
Q 1319 3681 1463 3350 
L 2541 866 
L 3541 3319 
Q 3688 3681 3688 3822 
Q 3688 3913 3597 3995 
Q 3506 4078 3291 4113 
Q 3275 4116 3238 4122 
L 3238 4238 
L 4544 4238 
z
" transform="scale(0.015625)"/>
      <path id="TimesNewRomanPSMT-73" d="M 2050 2947 
L 2050 1972 
L 1947 1972 
Q 1828 2431 1642 2597 
Q 1456 2763 1169 2763 
Q 950 2763 815 2647 
Q 681 2531 681 2391 
Q 681 2216 781 2091 
Q 878 1963 1175 1819 
L 1631 1597 
Q 2266 1288 2266 781 
Q 2266 391 1970 151 
Q 1675 -88 1309 -88 
Q 1047 -88 709 6 
Q 606 38 541 38 
Q 469 38 428 -44 
L 325 -44 
L 325 978 
L 428 978 
Q 516 541 762 319 
Q 1009 97 1316 97 
Q 1531 97 1667 223 
Q 1803 350 1803 528 
Q 1803 744 1651 891 
Q 1500 1038 1047 1263 
Q 594 1488 453 1669 
Q 313 1847 313 2119 
Q 313 2472 555 2709 
Q 797 2947 1181 2947 
Q 1350 2947 1591 2875 
Q 1750 2828 1803 2828 
Q 1853 2828 1881 2850 
Q 1909 2872 1947 2947 
L 2050 2947 
z
" transform="scale(0.015625)"/>
      <path id="TimesNewRomanPSMT-6c" d="M 1184 4444 
L 1184 647 
Q 1184 378 1223 290 
Q 1263 203 1344 158 
Q 1425 113 1647 113 
L 1647 0 
L 244 0 
L 244 113 
Q 441 113 512 153 
Q 584 194 625 287 
Q 666 381 666 647 
L 666 3247 
Q 666 3731 644 3842 
Q 622 3953 573 3993 
Q 525 4034 450 4034 
Q 369 4034 244 3984 
L 191 4094 
L 1044 4444 
L 1184 4444 
z
" transform="scale(0.015625)"/>
     </defs>
     <use xlink:href="#TimesNewRomanPSMT-33"/>
     <use xlink:href="#TimesNewRomanPSMT-20" x="50"/>
     <use xlink:href="#TimesNewRomanPSMT-56" x="73.25"/>
     <use xlink:href="#TimesNewRomanPSMT-65" x="134.341797"/>
     <use xlink:href="#TimesNewRomanPSMT-73" x="178.726562"/>
     <use xlink:href="#TimesNewRomanPSMT-73" x="217.642578"/>
     <use xlink:href="#TimesNewRomanPSMT-65" x="256.558594"/>
     <use xlink:href="#TimesNewRomanPSMT-6c" x="300.943359"/>
     <use xlink:href="#TimesNewRomanPSMT-73" x="328.726562"/>
    </g>
   </g>
  </g>
  <g id="axes_2">
   <g id="patch_7">
    <path d="M 141.242535 179.399 
L 213.76421 179.399 
L 213.76421 23.199 
L 141.242535 23.199 
z
" style="fill: #ffffff"/>
   </g>
   <g id="PolyCollection_3">
    <path d="M 162.218534 144.227307 
L 154.006567 144.227307 
L 153.173578 143.416391 
L 152.265074 142.605475 
L 151.297774 141.794559 
L 150.294173 140.983643 
L 149.28192 140.172727 
L 148.292588 139.361811 
L 147.359894 138.550895 
L 146.517475 137.739979 
L 145.79645 136.929064 
L 145.223037 136.118148 
L 144.816518 135.307232 
L 144.587834 134.496316 
L 144.538975 133.6854 
L 144.663239 132.874484 
L 144.946286 132.063568 
L 145.367801 131.252652 
L 145.9035 130.441736 
L 146.527199 129.63082 
L 147.212697 128.819904 
L 147.935294 128.008988 
L 148.672864 127.198073 
L 149.406492 126.387157 
L 150.120742 125.576241 
L 150.803648 124.765325 
L 151.446536 123.954409 
L 152.043741 123.143493 
L 152.592258 122.332577 
L 153.091346 121.521661 
L 153.542096 120.710745 
L 153.946952 119.899829 
L 154.309231 119.088913 
L 154.632656 118.277997 
L 154.920963 117.467082 
L 155.177604 116.656166 
L 155.405589 115.84525 
L 155.607447 115.034334 
L 155.785297 114.223418 
L 155.940982 113.412502 
L 156.076222 112.601586 
L 156.192747 111.79067 
L 156.292387 110.979754 
L 156.377091 110.168838 
L 156.448894 109.357922 
L 156.509835 108.547006 
L 156.561851 107.736091 
L 156.606652 106.925175 
L 156.645624 106.114259 
L 156.679767 105.303343 
L 156.709685 104.492427 
L 156.73566 103.681511 
L 156.757791 102.870595 
L 156.776189 102.059679 
L 156.791209 101.248763 
L 156.803642 100.437847 
L 156.814844 99.626931 
L 156.826752 98.816015 
L 156.841755 98.0051 
L 156.862435 97.194184 
L 156.891209 96.383268 
L 156.929933 95.572352 
L 156.979544 94.761436 
L 157.039794 93.95052 
L 157.109154 93.139604 
L 157.18489 92.328688 
L 157.263318 91.517772 
L 157.3402 90.706856 
L 157.411217 89.89594 
L 157.472459 89.085024 
L 157.520861 88.274109 
L 157.554524 87.463193 
L 157.572893 86.652277 
L 157.576765 85.841361 
L 157.568144 85.030445 
L 157.549958 84.219529 
L 157.525706 83.408613 
L 157.499052 82.597697 
L 157.473452 81.786781 
L 157.451844 80.975865 
L 157.436439 80.164949 
L 157.428632 79.354033 
L 157.429025 78.543118 
L 157.437536 77.732202 
L 157.453573 76.921286 
L 157.476219 76.11037 
L 157.504394 75.299454 
L 157.536982 74.488538 
L 157.572898 73.677622 
L 157.611112 72.866706 
L 157.65065 72.05579 
L 157.690575 71.244874 
L 157.729994 70.433958 
L 157.768083 69.623042 
L 157.804128 68.812127 
L 157.83758 68.001211 
L 157.868103 67.190295 
L 157.895594 66.379379 
L 157.920174 65.568463 
L 157.942139 64.757547 
L 157.961891 63.946631 
L 158.26321 63.946631 
L 158.26321 63.946631 
L 158.282962 64.757547 
L 158.304927 65.568463 
L 158.329507 66.379379 
L 158.356998 67.190295 
L 158.387521 68.001211 
L 158.420973 68.812127 
L 158.457018 69.623042 
L 158.495107 70.433958 
L 158.534527 71.244874 
L 158.574452 72.05579 
L 158.613989 72.866706 
L 158.652204 73.677622 
L 158.688119 74.488538 
L 158.720707 75.299454 
L 158.748882 76.11037 
L 158.771528 76.921286 
L 158.787566 77.732202 
L 158.796077 78.543118 
L 158.796469 79.354033 
L 158.788662 80.164949 
L 158.773257 80.975865 
L 158.751649 81.786781 
L 158.726049 82.597697 
L 158.699395 83.408613 
L 158.675143 84.219529 
L 158.656958 85.030445 
L 158.648336 85.841361 
L 158.652208 86.652277 
L 158.670578 87.463193 
L 158.704241 88.274109 
L 158.752643 89.085024 
L 158.813885 89.89594 
L 158.884901 90.706856 
L 158.961783 91.517772 
L 159.040212 92.328688 
L 159.115948 93.139604 
L 159.185307 93.95052 
L 159.245557 94.761436 
L 159.295168 95.572352 
L 159.333893 96.383268 
L 159.362667 97.194184 
L 159.383347 98.0051 
L 159.39835 98.816015 
L 159.410258 99.626931 
L 159.42146 100.437847 
L 159.433892 101.248763 
L 159.448912 102.059679 
L 159.467311 102.870595 
L 159.489441 103.681511 
L 159.515416 104.492427 
L 159.545334 105.303343 
L 159.579477 106.114259 
L 159.61845 106.925175 
L 159.663251 107.736091 
L 159.715266 108.547006 
L 159.776208 109.357922 
L 159.84801 110.168838 
L 159.932714 110.979754 
L 160.032354 111.79067 
L 160.14888 112.601586 
L 160.284119 113.412502 
L 160.439804 114.223418 
L 160.617654 115.034334 
L 160.819513 115.84525 
L 161.047498 116.656166 
L 161.304139 117.467082 
L 161.592445 118.277997 
L 161.915871 119.088913 
L 162.27815 119.899829 
L 162.683006 120.710745 
L 163.133755 121.521661 
L 163.632844 122.332577 
L 164.18136 123.143493 
L 164.778565 123.954409 
L 165.421453 124.765325 
L 166.104359 125.576241 
L 166.818609 126.387157 
L 167.552238 127.198073 
L 168.289808 128.008988 
L 169.012405 128.819904 
L 169.697903 129.63082 
L 170.321602 130.441736 
L 170.8573 131.252652 
L 171.278815 132.063568 
L 171.561862 132.874484 
L 171.686126 133.6854 
L 171.637267 134.496316 
L 171.408583 135.307232 
L 171.002065 136.118148 
L 170.428651 136.929064 
L 169.707627 137.739979 
L 168.865208 138.550895 
L 167.932513 139.361811 
L 166.943182 140.172727 
L 165.930928 140.983643 
L 164.927328 141.794559 
L 163.960027 142.605475 
L 163.051524 143.416391 
L 162.218534 144.227307 
z
" clip-path="url(#pc81135f735)" style="fill: #0080ff; fill-opacity: 0.3"/>
   </g>
   <g id="PolyCollection_4">
    <path d="M 200.486179 144.227307 
L 193.302212 144.227307 
L 192.52504 143.487128 
L 191.667508 142.74695 
L 190.743845 142.006772 
L 189.773729 141.266594 
L 188.781603 140.526415 
L 187.795496 139.786237 
L 186.845427 139.046059 
L 185.961561 138.305881 
L 185.172295 137.565702 
L 184.502486 136.825524 
L 183.971976 136.085346 
L 183.594537 135.345168 
L 183.377295 134.604989 
L 183.32062 133.864811 
L 183.418438 133.124633 
L 183.658904 132.384454 
L 184.025349 131.644276 
L 184.497441 130.904098 
L 185.052489 130.16392 
L 185.666824 129.423741 
L 186.317174 128.683563 
L 186.981929 127.943385 
L 187.642212 127.203207 
L 188.282637 126.463028 
L 188.891696 125.72285 
L 189.461746 124.982672 
L 189.988613 124.242493 
L 190.470917 123.502315 
L 190.909234 122.762137 
L 191.305246 122.021959 
L 191.661009 121.28178 
L 191.978467 120.541602 
L 192.259228 119.801424 
L 192.504627 119.061246 
L 192.715998 118.321067 
L 192.895047 117.580889 
L 193.044237 116.840711 
L 193.167038 116.100532 
L 193.268003 115.360354 
L 193.352601 114.620176 
L 193.42684 113.879998 
L 193.496744 113.139819 
L 193.567752 112.399641 
L 193.644169 111.659463 
L 193.728752 110.919285 
L 193.822491 110.179106 
L 193.924635 109.438928 
L 194.032935 108.69875 
L 194.144064 107.958571 
L 194.254147 107.218393 
L 194.359306 106.478215 
L 194.456177 105.738037 
L 194.542299 104.997858 
L 194.616366 104.25768 
L 194.678323 103.517502 
L 194.729292 102.777324 
L 194.771379 102.037145 
L 194.807384 101.296967 
L 194.840474 100.556789 
L 194.873857 99.81661 
L 194.910513 99.076432 
L 194.952987 98.336254 
L 195.003286 97.596076 
L 195.062838 96.855897 
L 195.132499 96.115719 
L 195.212577 95.375541 
L 195.30285 94.635363 
L 195.402559 93.895184 
L 195.510382 93.155006 
L 195.624437 92.414828 
L 195.742314 91.674649 
L 195.86119 90.934471 
L 195.978014 90.194293 
L 196.089768 89.454115 
L 196.193747 88.713936 
L 196.287826 87.973758 
L 196.370643 87.23358 
L 196.441691 86.493402 
L 196.501268 85.753223 
L 196.550334 85.013045 
L 196.590275 84.272867 
L 196.62265 83.532688 
L 196.648943 82.79251 
L 196.67038 82.052332 
L 196.687827 81.312154 
L 196.701775 80.571975 
L 196.712413 79.831797 
L 196.719749 79.091619 
L 196.723769 78.351441 
L 196.724579 77.611262 
L 196.722521 76.871084 
L 196.718226 76.130906 
L 196.712603 75.390727 
L 196.706768 74.650549 
L 196.701921 73.910371 
L 196.6992 73.170193 
L 196.699535 72.430014 
L 196.703532 71.689836 
L 196.711404 70.949658 
L 197.076986 70.949658 
L 197.076986 70.949658 
L 197.084858 71.689836 
L 197.088856 72.430014 
L 197.089191 73.170193 
L 197.08647 73.910371 
L 197.081623 74.650549 
L 197.075788 75.390727 
L 197.070165 76.130906 
L 197.065869 76.871084 
L 197.063811 77.611262 
L 197.064622 78.351441 
L 197.068641 79.091619 
L 197.075978 79.831797 
L 197.086615 80.571975 
L 197.100564 81.312154 
L 197.11801 82.052332 
L 197.139447 82.79251 
L 197.16574 83.532688 
L 197.198115 84.272867 
L 197.238056 85.013045 
L 197.287122 85.753223 
L 197.346699 86.493402 
L 197.417747 87.23358 
L 197.500565 87.973758 
L 197.594643 88.713936 
L 197.698622 89.454115 
L 197.810376 90.194293 
L 197.9272 90.934471 
L 198.046076 91.674649 
L 198.163953 92.414828 
L 198.278008 93.155006 
L 198.385832 93.895184 
L 198.48554 94.635363 
L 198.575814 95.375541 
L 198.655892 96.115719 
L 198.725552 96.855897 
L 198.785104 97.596076 
L 198.835404 98.336254 
L 198.877878 99.076432 
L 198.914533 99.81661 
L 198.947917 100.556789 
L 198.981007 101.296967 
L 199.017011 102.037145 
L 199.059098 102.777324 
L 199.110067 103.517502 
L 199.172024 104.25768 
L 199.246092 104.997858 
L 199.332213 105.738037 
L 199.429084 106.478215 
L 199.534244 107.218393 
L 199.644326 107.958571 
L 199.755455 108.69875 
L 199.863755 109.438928 
L 199.965899 110.179106 
L 200.059638 110.919285 
L 200.144221 111.659463 
L 200.220639 112.399641 
L 200.291646 113.139819 
L 200.36155 113.879998 
L 200.43579 114.620176 
L 200.520387 115.360354 
L 200.621352 116.100532 
L 200.744154 116.840711 
L 200.893343 117.580889 
L 201.072393 118.321067 
L 201.283763 119.061246 
L 201.529162 119.801424 
L 201.809923 120.541602 
L 202.127381 121.28178 
L 202.483145 122.021959 
L 202.879156 122.762137 
L 203.317473 123.502315 
L 203.799777 124.242493 
L 204.326644 124.982672 
L 204.896694 125.72285 
L 205.505754 126.463028 
L 206.146178 127.203207 
L 206.806461 127.943385 
L 207.471216 128.683563 
L 208.121566 129.423741 
L 208.735902 130.16392 
L 209.29095 130.904098 
L 209.763041 131.644276 
L 210.129486 132.384454 
L 210.369952 133.124633 
L 210.467771 133.864811 
L 210.411095 134.604989 
L 210.193854 135.345168 
L 209.816415 136.085346 
L 209.285904 136.825524 
L 208.616095 137.565702 
L 207.82683 138.305881 
L 206.942963 139.046059 
L 205.992894 139.786237 
L 205.006787 140.526415 
L 204.014661 141.266594 
L 203.044545 142.006772 
L 202.120883 142.74695 
L 201.26335 143.487128 
L 200.486179 144.227307 
z
" clip-path="url(#pc81135f735)" style="fill: #ff8000; fill-opacity: 0.3"/>
   </g>
   <g id="matplotlib.axis_3">
    <g id="xtick_3">
     <g id="line2d_9">
      <g>
       <use xlink:href="#m963f22bffc" x="158.112551" y="179.399" style="stroke: #000000; stroke-width: 0.8"/>
      </g>
     </g>
     <g id="text_13">
      <!-- MSR -->
      <g transform="translate(131.446301 194.34525) scale(0.12 -0.12)">
       <use xlink:href="#TimesNewRomanPS-BoldMT-4d"/>
       <use xlink:href="#TimesNewRomanPS-BoldMT-53" x="94.384766"/>
       <use xlink:href="#TimesNewRomanPS-BoldMT-52" x="150"/>
      </g>
     </g>
    </g>
    <g id="xtick_4">
     <g id="line2d_10">
      <g>
       <use xlink:href="#m963f22bffc" x="196.894195" y="179.399" style="stroke: #000000; stroke-width: 0.8"/>
      </g>
     </g>
     <g id="text_14">
      <!-- SBO -->
      <g transform="translate(172.882945 194.34525) scale(0.12 -0.12)">
       <use xlink:href="#TimesNewRomanPS-BoldMT-53"/>
       <use xlink:href="#TimesNewRomanPS-BoldMT-42" x="55.615234"/>
       <use xlink:href="#TimesNewRomanPS-BoldMT-4f" x="122.314453"/>
      </g>
     </g>
    </g>
   </g>
   <g id="matplotlib.axis_4"/>
   <g id="LineCollection_6">
    <path d="M 151.325763 126.714243 
L 164.899338 126.714243 
" clip-path="url(#pc81135f735)" style="fill: none; stroke: #000000; stroke-width: 2"/>
    <path d="M 190.107407 126.052555 
L 203.680983 126.052555 
" clip-path="url(#pc81135f735)" style="fill: none; stroke: #000000; stroke-width: 2"/>
   </g>
   <g id="LineCollection_7">
    <path d="M 151.325763 63.946631 
L 164.899338 63.946631 
" clip-path="url(#pc81135f735)" style="fill: none; stroke: #1f77b4; stroke-width: 1.5"/>
    <path d="M 190.107407 70.949658 
L 203.680983 70.949658 
" clip-path="url(#pc81135f735)" style="fill: none; stroke: #1f77b4; stroke-width: 1.5"/>
   </g>
   <g id="LineCollection_8">
    <path d="M 151.325763 144.227307 
L 164.899338 144.227307 
" clip-path="url(#pc81135f735)" style="fill: none; stroke: #1f77b4; stroke-width: 1.5"/>
    <path d="M 190.107407 144.227307 
L 203.680983 144.227307 
" clip-path="url(#pc81135f735)" style="fill: none; stroke: #1f77b4; stroke-width: 1.5"/>
   </g>
   <g id="LineCollection_9">
    <path d="M 158.112551 144.227307 
L 158.112551 63.946631 
" clip-path="url(#pc81135f735)" style="fill: none; stroke: #1f77b4; stroke-width: 1.5"/>
    <path d="M 196.894195 144.227307 
L 196.894195 70.949658 
" clip-path="url(#pc81135f735)" style="fill: none; stroke: #1f77b4; stroke-width: 1.5"/>
   </g>
   <g id="LineCollection_10">
    <path d="M 151.325763 132.880509 
L 164.899338 132.880509 
" clip-path="url(#pc81135f735)" style="fill: none; stroke-dasharray: 2,3.3; stroke-dashoffset: 0; stroke: #808080; stroke-width: 2"/>
    <path d="M 190.107407 130.784821 
L 203.680983 130.784821 
" clip-path="url(#pc81135f735)" style="fill: none; stroke-dasharray: 2,3.3; stroke-dashoffset: 0; stroke: #808080; stroke-width: 2"/>
   </g>
   <g id="patch_8">
    <path d="M 141.242535 179.399 
L 141.242535 23.199 
" style="fill: none; stroke: #000000; stroke-width: 0.8; stroke-linejoin: miter; stroke-linecap: square"/>
   </g>
   <g id="patch_9">
    <path d="M 213.76421 179.399 
L 213.76421 23.199 
" style="fill: none; stroke: #000000; stroke-width: 0.8; stroke-linejoin: miter; stroke-linecap: square"/>
   </g>
   <g id="patch_10">
    <path d="M 141.242535 179.399 
L 213.76421 179.399 
" style="fill: none; stroke: #000000; stroke-width: 0.8; stroke-linejoin: miter; stroke-linecap: square"/>
   </g>
   <g id="patch_11">
    <path d="M 141.242535 23.199 
L 213.76421 23.199 
" style="fill: none; stroke: #000000; stroke-width: 0.8; stroke-linejoin: miter; stroke-linecap: square"/>
   </g>
   <g id="text_15">
    <!-- 281 -->
    <g transform="translate(150.612551 39.183952) scale(0.1 -0.1)">
     <use xlink:href="#TimesNewRomanPSMT-32"/>
     <use xlink:href="#TimesNewRomanPSMT-38" x="50"/>
     <use xlink:href="#TimesNewRomanPSMT-31" x="100"/>
    </g>
   </g>
   <g id="text_16">
    <!-- 306 -->
    <g transform="translate(189.394195 39.183952) scale(0.1 -0.1)">
     <use xlink:href="#TimesNewRomanPSMT-33"/>
     <use xlink:href="#TimesNewRomanPSMT-30" x="50"/>
     <use xlink:href="#TimesNewRomanPSMT-36" x="100"/>
    </g>
   </g>
   <g id="text_17">
    <!-- 4 Vessels -->
    <g transform="translate(151.030998 17.199) scale(0.144 -0.144)">
     <use xlink:href="#TimesNewRomanPSMT-34"/>
     <use xlink:href="#TimesNewRomanPSMT-20" x="50"/>
     <use xlink:href="#TimesNewRomanPSMT-56" x="73.25"/>
     <use xlink:href="#TimesNewRomanPSMT-65" x="134.341797"/>
     <use xlink:href="#TimesNewRomanPSMT-73" x="178.726562"/>
     <use xlink:href="#TimesNewRomanPSMT-73" x="217.642578"/>
     <use xlink:href="#TimesNewRomanPSMT-65" x="256.558594"/>
     <use xlink:href="#TimesNewRomanPSMT-6c" x="300.943359"/>
     <use xlink:href="#TimesNewRomanPSMT-73" x="328.726562"/>
    </g>
   </g>
  </g>
  <g id="axes_3">
   <g id="patch_12">
    <path d="M 239.293977 179.399 
L 311.815652 179.399 
L 311.815652 23.199 
L 239.293977 23.199 
z
" style="fill: #ffffff"/>
   </g>
   <g id="PolyCollection_5">
    <path d="M 259.296419 144.227307 
L 253.031566 144.227307 
L 252.372034 143.49918 
L 251.644265 142.771053 
L 250.85716 142.042927 
L 250.022791 141.3148 
L 249.155989 140.586673 
L 248.273769 139.858547 
L 247.394668 139.13042 
L 246.538047 138.402293 
L 245.723426 137.674167 
L 244.969857 136.94604 
L 244.295343 136.217913 
L 243.716262 135.489787 
L 243.246774 134.76166 
L 242.89817 134.033533 
L 242.678201 133.305407 
L 242.590417 132.57728 
L 242.633619 131.849153 
L 242.801554 131.121027 
L 243.082957 130.3929 
L 243.46203 129.664773 
L 243.919373 128.936647 
L 244.43332 128.20852 
L 244.981536 127.480393 
L 245.542701 126.752267 
L 246.098048 126.02414 
L 246.632585 125.296013 
L 247.135835 124.567887 
L 247.602042 123.83976 
L 248.029845 123.111633 
L 248.421533 122.383507 
L 248.782012 121.65538 
L 249.117668 120.927253 
L 249.435285 120.199126 
L 249.741152 119.471 
L 250.040435 118.742873 
L 250.336835 118.014746 
L 250.632517 117.28662 
L 250.928232 116.558493 
L 251.223568 115.830366 
L 251.517249 115.10224 
L 251.807419 114.374113 
L 252.091879 113.645986 
L 252.368271 112.91786 
L 252.634203 112.189733 
L 252.887358 111.461606 
L 253.125584 110.73348 
L 253.347009 110.005353 
L 253.550158 109.277226 
L 253.734078 108.5491 
L 253.898441 107.820973 
L 254.043611 107.092846 
L 254.170644 106.36472 
L 254.281216 105.636593 
L 254.377481 104.908466 
L 254.461871 104.18034 
L 254.536881 103.452213 
L 254.604844 102.724086 
L 254.66776 101.99596 
L 254.727178 101.267833 
L 254.784158 100.539706 
L 254.839299 99.81158 
L 254.892828 99.083453 
L 254.944716 98.355326 
L 254.994804 97.6272 
L 255.042901 96.899073 
L 255.088852 96.170946 
L 255.132558 95.44282 
L 255.173957 94.714693 
L 255.212988 93.986566 
L 255.249545 93.258439 
L 255.283447 92.530313 
L 255.314438 91.802186 
L 255.342216 91.074059 
L 255.366481 90.345933 
L 255.387003 89.617806 
L 255.403671 88.889679 
L 255.416529 88.161553 
L 255.425784 87.433426 
L 255.431776 86.705299 
L 255.434938 85.977173 
L 255.435743 85.249046 
L 255.434668 84.520919 
L 255.432171 83.792793 
L 255.4287 83.064666 
L 255.424722 82.336539 
L 255.420761 81.608413 
L 255.417438 80.880286 
L 255.415489 80.152159 
L 255.415762 79.424033 
L 255.419173 78.695906 
L 255.426645 77.967779 
L 255.439024 77.239653 
L 255.456986 76.511526 
L 255.48096 75.783399 
L 255.511063 75.055273 
L 255.547071 74.327146 
L 255.588412 73.599019 
L 255.634204 72.870893 
L 255.683309 72.142766 
L 256.644676 72.142766 
L 256.644676 72.142766 
L 256.693781 72.870893 
L 256.739573 73.599019 
L 256.780914 74.327146 
L 256.816922 75.055273 
L 256.847025 75.783399 
L 256.870999 76.511526 
L 256.888961 77.239653 
L 256.90134 77.967779 
L 256.908812 78.695906 
L 256.912223 79.424033 
L 256.912495 80.152159 
L 256.910547 80.880286 
L 256.907224 81.608413 
L 256.903263 82.336539 
L 256.899284 83.064666 
L 256.895814 83.792793 
L 256.893316 84.520919 
L 256.892241 85.249046 
L 256.893047 85.977173 
L 256.896209 86.705299 
L 256.902201 87.433426 
L 256.911456 88.161553 
L 256.924314 88.889679 
L 256.940982 89.617806 
L 256.961503 90.345933 
L 256.985769 91.074059 
L 257.013547 91.802186 
L 257.044538 92.530313 
L 257.07844 93.258439 
L 257.114996 93.986566 
L 257.154028 94.714693 
L 257.195427 95.44282 
L 257.239133 96.170946 
L 257.285084 96.899073 
L 257.333181 97.6272 
L 257.383268 98.355326 
L 257.435157 99.083453 
L 257.488685 99.81158 
L 257.543827 100.539706 
L 257.600807 101.267833 
L 257.660225 101.99596 
L 257.723141 102.724086 
L 257.791104 103.452213 
L 257.866113 104.18034 
L 257.950504 104.908466 
L 258.046768 105.636593 
L 258.15734 106.36472 
L 258.284373 107.092846 
L 258.429543 107.820973 
L 258.593907 108.5491 
L 258.777826 109.277226 
L 258.980976 110.005353 
L 259.202401 110.73348 
L 259.440627 111.461606 
L 259.693781 112.189733 
L 259.959714 112.91786 
L 260.236106 113.645986 
L 260.520566 114.374113 
L 260.810735 115.10224 
L 261.104416 115.830366 
L 261.399753 116.558493 
L 261.695467 117.28662 
L 261.991149 118.014746 
L 262.28755 118.742873 
L 262.586832 119.471 
L 262.8927 120.199126 
L 263.210317 120.927253 
L 263.545973 121.65538 
L 263.906452 122.383507 
L 264.29814 123.111633 
L 264.725943 123.83976 
L 265.192149 124.567887 
L 265.6954 125.296013 
L 266.229937 126.02414 
L 266.785284 126.752267 
L 267.346448 127.480393 
L 267.894665 128.20852 
L 268.408612 128.936647 
L 268.865955 129.664773 
L 269.245027 130.3929 
L 269.526431 131.121027 
L 269.694366 131.849153 
L 269.737568 132.57728 
L 269.649783 133.305407 
L 269.429815 134.033533 
L 269.081211 134.76166 
L 268.611722 135.489787 
L 268.032642 136.217913 
L 267.358128 136.94604 
L 266.604559 137.674167 
L 265.789938 138.402293 
L 264.933317 139.13042 
L 264.054216 139.858547 
L 263.171996 140.586673 
L 262.305194 141.3148 
L 261.470825 142.042927 
L 260.68372 142.771053 
L 259.955951 143.49918 
L 259.296419 144.227307 
z
" clip-path="url(#p57b4f426c2)" style="fill: #0080ff; fill-opacity: 0.3"/>
   </g>
   <g id="PolyCollection_6">
    <path d="M 297.894491 144.227307 
L 291.996783 144.227307 
L 291.258365 143.452499 
L 290.417083 142.677692 
L 289.48372 141.902884 
L 288.476845 141.128077 
L 287.422615 140.353269 
L 286.35368 139.578462 
L 285.307206 138.803655 
L 284.322186 138.028847 
L 283.436317 137.25404 
L 282.682857 136.479232 
L 282.087872 135.704425 
L 281.668251 134.929617 
L 281.430735 134.15481 
L 281.372061 133.380002 
L 281.480108 132.605195 
L 281.7358 131.830387 
L 282.115418 131.05558 
L 282.592942 130.280773 
L 283.142113 129.505965 
L 283.738013 128.731158 
L 284.358084 127.95635 
L 284.982657 127.181543 
L 285.595121 126.406735 
L 286.181901 125.631928 
L 286.732402 124.85712 
L 287.238973 124.082313 
L 287.696919 123.307505 
L 288.104483 122.532698 
L 288.462732 121.757891 
L 288.775264 120.983083 
L 289.04772 120.208276 
L 289.287114 119.433468 
L 289.501092 118.658661 
L 289.697197 117.883853 
L 289.882274 117.109046 
L 290.062057 116.334238 
L 290.240976 115.559431 
L 290.422136 114.784624 
L 290.607412 114.009816 
L 290.797581 113.235009 
L 290.992426 112.460201 
L 291.190808 111.685394 
L 291.390703 110.910586 
L 291.589262 110.135779 
L 291.782938 109.360971 
L 291.967733 108.586164 
L 292.139549 107.811356 
L 292.294631 107.036549 
L 292.430033 106.261742 
L 292.544009 105.486934 
L 292.636283 104.712127 
L 292.708115 103.937319 
L 292.762164 103.162512 
L 292.802182 102.387704 
L 292.832576 101.612897 
L 292.857948 100.838089 
L 292.882669 100.063282 
L 292.910555 99.288474 
L 292.94468 98.513667 
L 292.987311 97.73886 
L 293.039945 96.964052 
L 293.103391 96.189245 
L 293.17786 95.414437 
L 293.263031 94.63963 
L 293.358067 93.864822 
L 293.461621 93.090015 
L 293.571825 92.315207 
L 293.686314 91.5404 
L 293.802302 90.765592 
L 293.916714 89.990785 
L 294.026384 89.215978 
L 294.128274 88.44117 
L 294.219716 87.666363 
L 294.298614 86.891555 
L 294.363617 86.116748 
L 294.414215 85.34194 
L 294.450771 84.567133 
L 294.474479 83.792325 
L 294.487251 83.017518 
L 294.491546 82.24271 
L 294.490146 81.467903 
L 294.485907 80.693096 
L 294.481497 79.918288 
L 294.479161 79.143481 
L 294.48054 78.368673 
L 294.48656 77.593866 
L 294.497431 76.819058 
L 294.51273 76.044251 
L 294.531567 75.269443 
L 294.5528 74.494636 
L 294.575263 73.719828 
L 294.597953 72.945021 
L 294.620171 72.170214 
L 294.64157 71.395406 
L 294.662138 70.620599 
L 294.68211 69.845791 
L 294.701849 69.070984 
L 294.721716 68.296176 
L 294.741963 67.521369 
L 295.149311 67.521369 
L 295.149311 67.521369 
L 295.169558 68.296176 
L 295.189424 69.070984 
L 295.209163 69.845791 
L 295.229135 70.620599 
L 295.249703 71.395406 
L 295.271102 72.170214 
L 295.29332 72.945021 
L 295.316011 73.719828 
L 295.338473 74.494636 
L 295.359707 75.269443 
L 295.378544 76.044251 
L 295.393842 76.819058 
L 295.404714 77.593866 
L 295.410734 78.368673 
L 295.412112 79.143481 
L 295.409777 79.918288 
L 295.405367 80.693096 
L 295.401128 81.467903 
L 295.399728 82.24271 
L 295.404023 83.017518 
L 295.416795 83.792325 
L 295.440503 84.567133 
L 295.477059 85.34194 
L 295.527657 86.116748 
L 295.59266 86.891555 
L 295.671558 87.666363 
L 295.762999 88.44117 
L 295.86489 89.215978 
L 295.974559 89.990785 
L 296.088972 90.765592 
L 296.204959 91.5404 
L 296.319448 92.315207 
L 296.429652 93.090015 
L 296.533206 93.864822 
L 296.628243 94.63963 
L 296.713413 95.414437 
L 296.787883 96.189245 
L 296.851328 96.964052 
L 296.903962 97.73886 
L 296.946593 98.513667 
L 296.980718 99.288474 
L 297.008604 100.063282 
L 297.033325 100.838089 
L 297.058698 101.612897 
L 297.089092 102.387704 
L 297.129109 103.162512 
L 297.183159 103.937319 
L 297.25499 104.712127 
L 297.347264 105.486934 
L 297.461241 106.261742 
L 297.596642 107.036549 
L 297.751725 107.811356 
L 297.923541 108.586164 
L 298.108336 109.360971 
L 298.302012 110.135779 
L 298.50057 110.910586 
L 298.700465 111.685394 
L 298.898848 112.460201 
L 299.093693 113.235009 
L 299.283861 114.009816 
L 299.469137 114.784624 
L 299.650297 115.559431 
L 299.829216 116.334238 
L 300.009 117.109046 
L 300.194077 117.883853 
L 300.390182 118.658661 
L 300.604159 119.433468 
L 300.843554 120.208276 
L 301.116009 120.983083 
L 301.428542 121.757891 
L 301.786791 122.532698 
L 302.194355 123.307505 
L 302.6523 124.082313 
L 303.158872 124.85712 
L 303.709373 125.631928 
L 304.296153 126.406735 
L 304.908616 127.181543 
L 305.533189 127.95635 
L 306.153261 128.731158 
L 306.74916 129.505965 
L 307.298332 130.280773 
L 307.775855 131.05558 
L 308.155473 131.830387 
L 308.411165 132.605195 
L 308.519212 133.380002 
L 308.460538 134.15481 
L 308.223023 134.929617 
L 307.803401 135.704425 
L 307.208417 136.479232 
L 306.454957 137.25404 
L 305.569087 138.028847 
L 304.584067 138.803655 
L 303.537594 139.578462 
L 302.468658 140.353269 
L 301.414428 141.128077 
L 300.407554 141.902884 
L 299.47419 142.677692 
L 298.632909 143.452499 
L 297.894491 144.227307 
z
" clip-path="url(#p57b4f426c2)" style="fill: #ff8000; fill-opacity: 0.3"/>
   </g>
   <g id="matplotlib.axis_5">
    <g id="xtick_5">
     <g id="line2d_11">
      <g>
       <use xlink:href="#m963f22bffc" x="256.163992" y="179.399" style="stroke: #000000; stroke-width: 0.8"/>
      </g>
     </g>
     <g id="text_18">
      <!-- MSR -->
      <g transform="translate(229.497742 194.34525) scale(0.12 -0.12)">
       <use xlink:href="#TimesNewRomanPS-BoldMT-4d"/>
       <use xlink:href="#TimesNewRomanPS-BoldMT-53" x="94.384766"/>
       <use xlink:href="#TimesNewRomanPS-BoldMT-52" x="150"/>
      </g>
     </g>
    </g>
    <g id="xtick_6">
     <g id="line2d_12">
      <g>
       <use xlink:href="#m963f22bffc" x="294.945637" y="179.399" style="stroke: #000000; stroke-width: 0.8"/>
      </g>
     </g>
     <g id="text_19">
      <!-- SBO -->
      <g transform="translate(270.934387 194.34525) scale(0.12 -0.12)">
       <use xlink:href="#TimesNewRomanPS-BoldMT-53"/>
       <use xlink:href="#TimesNewRomanPS-BoldMT-42" x="55.615234"/>
       <use xlink:href="#TimesNewRomanPS-BoldMT-4f" x="122.314453"/>
      </g>
     </g>
    </g>
   </g>
   <g id="matplotlib.axis_6"/>
   <g id="LineCollection_11">
    <path d="M 249.377205 125.021289 
L 262.95078 125.021289 
" clip-path="url(#p57b4f426c2)" style="fill: none; stroke: #000000; stroke-width: 2"/>
    <path d="M 288.158849 124.566724 
L 301.732425 124.566724 
" clip-path="url(#p57b4f426c2)" style="fill: none; stroke: #000000; stroke-width: 2"/>
   </g>
   <g id="LineCollection_12">
    <path d="M 249.377205 72.142766 
L 262.95078 72.142766 
" clip-path="url(#p57b4f426c2)" style="fill: none; stroke: #1f77b4; stroke-width: 1.5"/>
    <path d="M 288.158849 67.521369 
L 301.732425 67.521369 
" clip-path="url(#p57b4f426c2)" style="fill: none; stroke: #1f77b4; stroke-width: 1.5"/>
   </g>
   <g id="LineCollection_13">
    <path d="M 249.377205 144.227307 
L 262.95078 144.227307 
" clip-path="url(#p57b4f426c2)" style="fill: none; stroke: #1f77b4; stroke-width: 1.5"/>
    <path d="M 288.158849 144.227307 
L 301.732425 144.227307 
" clip-path="url(#p57b4f426c2)" style="fill: none; stroke: #1f77b4; stroke-width: 1.5"/>
   </g>
   <g id="LineCollection_14">
    <path d="M 256.163992 144.227307 
L 256.163992 72.142766 
" clip-path="url(#p57b4f426c2)" style="fill: none; stroke: #1f77b4; stroke-width: 1.5"/>
    <path d="M 294.945637 144.227307 
L 294.945637 67.521369 
" clip-path="url(#p57b4f426c2)" style="fill: none; stroke: #1f77b4; stroke-width: 1.5"/>
   </g>
   <g id="LineCollection_15">
    <path d="M 249.377205 130.784821 
L 262.95078 130.784821 
" clip-path="url(#p57b4f426c2)" style="fill: none; stroke-dasharray: 2,3.3; stroke-dashoffset: 0; stroke: #808080; stroke-width: 2"/>
    <path d="M 288.158849 128.858063 
L 301.732425 128.858063 
" clip-path="url(#p57b4f426c2)" style="fill: none; stroke-dasharray: 2,3.3; stroke-dashoffset: 0; stroke: #808080; stroke-width: 2"/>
   </g>
   <g id="patch_13">
    <path d="M 239.293977 179.399 
L 239.293977 23.199 
" style="fill: none; stroke: #000000; stroke-width: 0.8; stroke-linejoin: miter; stroke-linecap: square"/>
   </g>
   <g id="patch_14">
    <path d="M 311.815652 179.399 
L 311.815652 23.199 
" style="fill: none; stroke: #000000; stroke-width: 0.8; stroke-linejoin: miter; stroke-linecap: square"/>
   </g>
   <g id="patch_15">
    <path d="M 239.293977 179.399 
L 311.815652 179.399 
" style="fill: none; stroke: #000000; stroke-width: 0.8; stroke-linejoin: miter; stroke-linecap: square"/>
   </g>
   <g id="patch_16">
    <path d="M 239.293977 23.199 
L 311.815652 23.199 
" style="fill: none; stroke: #000000; stroke-width: 0.8; stroke-linejoin: miter; stroke-linecap: square"/>
   </g>
   <g id="text_20">
    <!-- 265 -->
    <g transform="translate(248.663992 39.183952) scale(0.1 -0.1)">
     <defs>
      <path id="TimesNewRomanPSMT-35" d="M 2778 4238 
L 2534 3706 
L 1259 3706 
L 981 3138 
Q 1809 3016 2294 2522 
Q 2709 2097 2709 1522 
Q 2709 1188 2573 903 
Q 2438 619 2231 419 
Q 2025 219 1772 97 
Q 1413 -75 1034 -75 
Q 653 -75 479 54 
Q 306 184 306 341 
Q 306 428 378 495 
Q 450 563 559 563 
Q 641 563 702 538 
Q 763 513 909 409 
Q 1144 247 1384 247 
Q 1750 247 2026 523 
Q 2303 800 2303 1197 
Q 2303 1581 2056 1914 
Q 1809 2247 1375 2428 
Q 1034 2569 447 2591 
L 1259 4238 
L 2778 4238 
z
" transform="scale(0.015625)"/>
     </defs>
     <use xlink:href="#TimesNewRomanPSMT-32"/>
     <use xlink:href="#TimesNewRomanPSMT-36" x="50"/>
     <use xlink:href="#TimesNewRomanPSMT-35" x="100"/>
    </g>
   </g>
   <g id="text_21">
    <!-- 295 -->
    <g transform="translate(287.445637 39.183952) scale(0.1 -0.1)">
     <use xlink:href="#TimesNewRomanPSMT-32"/>
     <use xlink:href="#TimesNewRomanPSMT-39" x="50"/>
     <use xlink:href="#TimesNewRomanPSMT-35" x="100"/>
    </g>
   </g>
   <g id="text_22">
    <!-- 5 Vessels -->
    <g transform="translate(249.08244 17.199) scale(0.144 -0.144)">
     <use xlink:href="#TimesNewRomanPSMT-35"/>
     <use xlink:href="#TimesNewRomanPSMT-20" x="50"/>
     <use xlink:href="#TimesNewRomanPSMT-56" x="73.25"/>
     <use xlink:href="#TimesNewRomanPSMT-65" x="134.341797"/>
     <use xlink:href="#TimesNewRomanPSMT-73" x="178.726562"/>
     <use xlink:href="#TimesNewRomanPSMT-73" x="217.642578"/>
     <use xlink:href="#TimesNewRomanPSMT-65" x="256.558594"/>
     <use xlink:href="#TimesNewRomanPSMT-6c" x="300.943359"/>
     <use xlink:href="#TimesNewRomanPSMT-73" x="328.726562"/>
    </g>
   </g>
  </g>
  <g id="axes_4">
   <g id="patch_17">
    <path d="M 337.345419 179.399 
L 409.867094 179.399 
L 409.867094 23.199 
L 337.345419 23.199 
z
" style="fill: #ffffff"/>
   </g>
   <g id="PolyCollection_7">
    <path d="M 360.389509 140.724647 
L 348.041359 140.724647 
L 346.942136 139.837801 
L 345.821525 138.950955 
L 344.720382 138.064109 
L 343.681853 137.177263 
L 342.747954 136.290418 
L 341.956088 135.403572 
L 341.335902 134.516726 
L 340.906863 133.62988 
L 340.676844 132.743034 
L 340.641859 131.856188 
L 340.786951 130.969342 
L 341.088115 130.082497 
L 341.514962 129.195651 
L 342.033816 128.308805 
L 342.610841 127.421959 
L 343.214833 126.535113 
L 343.8194 125.648267 
L 344.404319 124.761421 
L 344.956049 123.874576 
L 345.467456 122.98773 
L 345.936957 122.100884 
L 346.367283 121.214038 
L 346.764103 120.327192 
L 347.134682 119.440346 
L 347.48668 118.553501 
L 347.827163 117.666655 
L 348.161831 116.779809 
L 348.494491 115.892963 
L 348.826774 115.006117 
L 349.158102 114.119271 
L 349.485928 113.232425 
L 349.806199 112.34558 
L 350.114012 111.458734 
L 350.404347 110.571888 
L 350.672788 109.685042 
L 350.916109 108.798196 
L 351.132656 107.91135 
L 351.322476 107.024505 
L 351.487196 106.137659 
L 351.62972 105.250813 
L 351.753797 104.363967 
L 351.863572 103.477121 
L 351.963171 102.590275 
L 352.056386 101.703429 
L 352.146451 100.816584 
L 352.235918 99.929738 
L 352.326572 99.042892 
L 352.419373 98.156046 
L 352.514398 97.2692 
L 352.610793 96.382354 
L 352.706759 95.495508 
L 352.799637 94.608663 
L 352.886102 93.721817 
L 352.962511 92.834971 
L 353.025373 91.948125 
L 353.071892 91.061279 
L 353.100495 90.174433 
L 353.11124 89.287588 
L 353.106018 88.400742 
L 353.088475 87.513896 
L 353.063652 86.62705 
L 353.037367 85.740204 
L 353.015453 84.853358 
L 353.002972 83.966512 
L 353.003538 83.079667 
L 353.018882 82.192821 
L 353.048723 81.305975 
L 353.090972 80.419129 
L 353.14221 79.532283 
L 353.198357 78.645437 
L 353.255395 77.758592 
L 353.310015 76.871746 
L 353.360088 75.9849 
L 353.40488 75.098054 
L 353.444992 74.211208 
L 353.482076 73.324362 
L 353.518381 72.437516 
L 353.556234 71.550671 
L 353.597561 70.663825 
L 353.643526 69.776979 
L 353.694334 68.890133 
L 353.749229 68.003287 
L 353.806654 67.116441 
L 353.864522 66.229595 
L 353.920539 65.34275 
L 353.972523 64.455904 
L 354.018658 63.569058 
L 354.057663 62.682212 
L 354.088865 61.795366 
L 354.112194 60.90852 
L 354.128115 60.021675 
L 354.137519 59.134829 
L 354.141608 58.247983 
L 354.141763 57.361137 
L 354.139429 56.474291 
L 354.135998 55.587445 
L 354.132712 54.700599 
L 354.130572 53.813754 
L 354.13028 52.926908 
L 354.300588 52.926908 
L 354.300588 52.926908 
L 354.300296 53.813754 
L 354.298156 54.700599 
L 354.29487 55.587445 
L 354.291439 56.474291 
L 354.289105 57.361137 
L 354.28926 58.247983 
L 354.293349 59.134829 
L 354.302753 60.021675 
L 354.318674 60.90852 
L 354.342003 61.795366 
L 354.373205 62.682212 
L 354.41221 63.569058 
L 354.458345 64.455904 
L 354.51033 65.34275 
L 354.566346 66.229595 
L 354.624214 67.116441 
L 354.681639 68.003287 
L 354.736534 68.890133 
L 354.787342 69.776979 
L 354.833307 70.663825 
L 354.874635 71.550671 
L 354.912487 72.437516 
L 354.948792 73.324362 
L 354.985876 74.211208 
L 355.025988 75.098054 
L 355.07078 75.9849 
L 355.120853 76.871746 
L 355.175474 77.758592 
L 355.232511 78.645437 
L 355.288658 79.532283 
L 355.339897 80.419129 
L 355.382145 81.305975 
L 355.411987 82.192821 
L 355.42733 83.079667 
L 355.427896 83.966512 
L 355.415415 84.853358 
L 355.393501 85.740204 
L 355.367216 86.62705 
L 355.342393 87.513896 
L 355.324851 88.400742 
L 355.319628 89.287588 
L 355.330373 90.174433 
L 355.358976 91.061279 
L 355.405495 91.948125 
L 355.468357 92.834971 
L 355.544766 93.721817 
L 355.631231 94.608663 
L 355.724109 95.495508 
L 355.820075 96.382354 
L 355.91647 97.2692 
L 356.011495 98.156046 
L 356.104296 99.042892 
L 356.19495 99.929738 
L 356.284417 100.816584 
L 356.374482 101.703429 
L 356.467697 102.590275 
L 356.567297 103.477121 
L 356.677071 104.363967 
L 356.801148 105.250813 
L 356.943672 106.137659 
L 357.108392 107.024505 
L 357.298212 107.91135 
L 357.514759 108.798196 
L 357.75808 109.685042 
L 358.026521 110.571888 
L 358.316856 111.458734 
L 358.624669 112.34558 
L 358.94494 113.232425 
L 359.272766 114.119271 
L 359.604094 115.006117 
L 359.936377 115.892963 
L 360.269037 116.779809 
L 360.603705 117.666655 
L 360.944188 118.553501 
L 361.296186 119.440346 
L 361.666765 120.327192 
L 362.063585 121.214038 
L 362.493911 122.100884 
L 362.963412 122.98773 
L 363.474819 123.874576 
L 364.026549 124.761421 
L 364.611468 125.648267 
L 365.216035 126.535113 
L 365.820027 127.421959 
L 366.397052 128.308805 
L 366.915906 129.195651 
L 367.342753 130.082497 
L 367.643917 130.969342 
L 367.78901 131.856188 
L 367.754024 132.743034 
L 367.524005 133.62988 
L 367.094966 134.516726 
L 366.47478 135.403572 
L 365.682914 136.290418 
L 364.749015 137.177263 
L 363.710486 138.064109 
L 362.609343 138.950955 
L 361.488732 139.837801 
L 360.389509 140.724647 
z
" clip-path="url(#p35274a78fa)" style="fill: #0080ff; fill-opacity: 0.3"/>
   </g>
   <g id="PolyCollection_8">
    <path d="M 398.896139 140.724647 
L 387.098018 140.724647 
L 386.038809 139.870631 
L 384.953289 139.016616 
L 383.878415 138.1626 
L 382.853021 137.308585 
L 381.914715 136.454569 
L 381.096823 135.600554 
L 380.425793 134.746538 
L 379.919361 133.892523 
L 379.585703 133.038508 
L 379.4236 132.184492 
L 379.423503 131.330477 
L 379.56927 130.476461 
L 379.840262 129.622446 
L 380.213489 128.76843 
L 380.66553 127.914415 
L 381.174057 127.060399 
L 381.718883 126.206384 
L 382.282539 125.352368 
L 382.850466 124.498353 
L 383.410943 123.644337 
L 383.95484 122.790322 
L 384.475308 121.936307 
L 384.967447 121.082291 
L 385.427975 120.228276 
L 385.854932 119.37426 
L 386.247406 118.520245 
L 386.605323 117.666229 
L 386.929292 116.812214 
L 387.220538 115.958198 
L 387.480883 115.104183 
L 387.712768 114.250167 
L 387.91924 113.396152 
L 388.103854 112.542136 
L 388.27047 111.688121 
L 388.422919 110.834105 
L 388.564602 109.98009 
L 388.698083 109.126075 
L 388.824781 108.272059 
L 388.94482 107.418044 
L 389.057115 106.564028 
L 389.159664 105.710013 
L 389.250028 104.855997 
L 389.325895 104.001982 
L 389.385653 103.147966 
L 389.428871 102.293951 
L 389.456629 101.439935 
L 389.47165 100.58592 
L 389.47824 99.731904 
L 389.482024 98.877889 
L 389.489521 98.023873 
L 389.507591 97.169858 
L 389.542789 96.315843 
L 389.600708 95.461827 
L 389.685366 94.607812 
L 389.798737 93.753796 
L 389.940486 92.899781 
L 390.107987 92.045765 
L 390.296606 91.19175 
L 390.500241 90.337734 
L 390.712024 89.483719 
L 390.925059 88.629703 
L 391.133102 87.775688 
L 391.331051 86.921672 
L 391.515202 86.067657 
L 391.68327 85.213641 
L 391.834204 84.359626 
L 391.967896 83.505611 
L 392.084845 82.651595 
L 392.185878 81.79758 
L 392.271959 80.943564 
L 392.344101 80.089549 
L 392.403362 79.235533 
L 392.450882 78.381518 
L 392.487926 77.527502 
L 392.5159 76.673487 
L 392.536325 75.819471 
L 392.550781 74.965456 
L 392.560839 74.11144 
L 392.567992 73.257425 
L 392.573621 72.403409 
L 392.578975 71.549394 
L 392.585163 70.695379 
L 392.59315 69.841363 
L 392.603728 68.987348 
L 392.617468 68.133332 
L 392.634652 67.279317 
L 392.655212 66.425301 
L 392.678706 65.571286 
L 392.704334 64.71727 
L 392.731029 63.863255 
L 392.757597 63.009239 
L 392.782886 62.155224 
L 392.805954 61.301208 
L 392.826201 60.447193 
L 392.843427 59.593177 
L 392.857827 58.739162 
L 392.869901 57.885147 
L 392.880335 57.031131 
L 392.889847 56.177116 
L 393.10431 56.177116 
L 393.10431 56.177116 
L 393.113822 57.031131 
L 393.124256 57.885147 
L 393.13633 58.739162 
L 393.150729 59.593177 
L 393.167956 60.447193 
L 393.188202 61.301208 
L 393.211271 62.155224 
L 393.23656 63.009239 
L 393.263128 63.863255 
L 393.289823 64.71727 
L 393.315451 65.571286 
L 393.338945 66.425301 
L 393.359505 67.279317 
L 393.376689 68.133332 
L 393.390429 68.987348 
L 393.401007 69.841363 
L 393.408994 70.695379 
L 393.415182 71.549394 
L 393.420535 72.403409 
L 393.426165 73.257425 
L 393.433318 74.11144 
L 393.443376 74.965456 
L 393.457832 75.819471 
L 393.478257 76.673487 
L 393.506231 77.527502 
L 393.543275 78.381518 
L 393.590795 79.235533 
L 393.650056 80.089549 
L 393.722198 80.943564 
L 393.808279 81.79758 
L 393.909312 82.651595 
L 394.02626 83.505611 
L 394.159952 84.359626 
L 394.310887 85.213641 
L 394.478955 86.067657 
L 394.663106 86.921672 
L 394.861055 87.775688 
L 395.069098 88.629703 
L 395.282133 89.483719 
L 395.493915 90.337734 
L 395.697551 91.19175 
L 395.88617 92.045765 
L 396.053671 92.899781 
L 396.19542 93.753796 
L 396.308791 94.607812 
L 396.393449 95.461827 
L 396.451368 96.315843 
L 396.486566 97.169858 
L 396.504636 98.023873 
L 396.512133 98.877889 
L 396.515916 99.731904 
L 396.522507 100.58592 
L 396.537528 101.439935 
L 396.565286 102.293951 
L 396.608504 103.147966 
L 396.668262 104.001982 
L 396.744129 104.855997 
L 396.834493 105.710013 
L 396.937042 106.564028 
L 397.049337 107.418044 
L 397.169376 108.272059 
L 397.296073 109.126075 
L 397.429555 109.98009 
L 397.571238 110.834105 
L 397.723687 111.688121 
L 397.890302 112.542136 
L 398.074917 113.396152 
L 398.281388 114.250167 
L 398.513274 115.104183 
L 398.773619 115.958198 
L 399.064864 116.812214 
L 399.388834 117.666229 
L 399.746751 118.520245 
L 400.139225 119.37426 
L 400.566182 120.228276 
L 401.02671 121.082291 
L 401.518848 121.936307 
L 402.039317 122.790322 
L 402.583214 123.644337 
L 403.14369 124.498353 
L 403.711618 125.352368 
L 404.275274 126.206384 
L 404.8201 127.060399 
L 405.328627 127.914415 
L 405.780668 128.76843 
L 406.153895 129.622446 
L 406.424887 130.476461 
L 406.570654 131.330477 
L 406.570557 132.184492 
L 406.408454 133.038508 
L 406.074796 133.892523 
L 405.568364 134.746538 
L 404.897334 135.600554 
L 404.079442 136.454569 
L 403.141135 137.308585 
L 402.115742 138.1626 
L 401.040868 139.016616 
L 399.955347 139.870631 
L 398.896139 140.724647 
z
" clip-path="url(#p35274a78fa)" style="fill: #ff8000; fill-opacity: 0.3"/>
   </g>
   <g id="matplotlib.axis_7">
    <g id="xtick_7">
     <g id="line2d_13">
      <g>
       <use xlink:href="#m963f22bffc" x="354.215434" y="179.399" style="stroke: #000000; stroke-width: 0.8"/>
      </g>
     </g>
     <g id="text_23">
      <!-- MSR -->
      <g transform="translate(327.549184 194.34525) scale(0.12 -0.12)">
       <use xlink:href="#TimesNewRomanPS-BoldMT-4d"/>
       <use xlink:href="#TimesNewRomanPS-BoldMT-53" x="94.384766"/>
       <use xlink:href="#TimesNewRomanPS-BoldMT-52" x="150"/>
      </g>
     </g>
    </g>
    <g id="xtick_8">
     <g id="line2d_14">
      <g>
       <use xlink:href="#m963f22bffc" x="392.997078" y="179.399" style="stroke: #000000; stroke-width: 0.8"/>
      </g>
     </g>
     <g id="text_24">
      <!-- SBO -->
      <g transform="translate(368.985828 194.34525) scale(0.12 -0.12)">
       <use xlink:href="#TimesNewRomanPS-BoldMT-53"/>
       <use xlink:href="#TimesNewRomanPS-BoldMT-42" x="55.615234"/>
       <use xlink:href="#TimesNewRomanPS-BoldMT-4f" x="122.314453"/>
      </g>
     </g>
    </g>
   </g>
   <g id="matplotlib.axis_8"/>
   <g id="LineCollection_16">
    <path d="M 347.428646 122.430692 
L 361.002222 122.430692 
" clip-path="url(#p35274a78fa)" style="fill: none; stroke: #000000; stroke-width: 2"/>
    <path d="M 386.210291 120.762538 
L 399.783866 120.762538 
" clip-path="url(#p35274a78fa)" style="fill: none; stroke: #000000; stroke-width: 2"/>
   </g>
   <g id="LineCollection_17">
    <path d="M 347.428646 52.926908 
L 361.002222 52.926908 
" clip-path="url(#p35274a78fa)" style="fill: none; stroke: #1f77b4; stroke-width: 1.5"/>
    <path d="M 386.210291 56.177116 
L 399.783866 56.177116 
" clip-path="url(#p35274a78fa)" style="fill: none; stroke: #1f77b4; stroke-width: 1.5"/>
   </g>
   <g id="LineCollection_18">
    <path d="M 347.428646 140.724647 
L 361.002222 140.724647 
" clip-path="url(#p35274a78fa)" style="fill: none; stroke: #1f77b4; stroke-width: 1.5"/>
    <path d="M 386.210291 140.724647 
L 399.783866 140.724647 
" clip-path="url(#p35274a78fa)" style="fill: none; stroke: #1f77b4; stroke-width: 1.5"/>
   </g>
   <g id="LineCollection_19">
    <path d="M 354.215434 140.724647 
L 354.215434 52.926908 
" clip-path="url(#p35274a78fa)" style="fill: none; stroke: #1f77b4; stroke-width: 1.5"/>
    <path d="M 392.997078 140.724647 
L 392.997078 56.177116 
" clip-path="url(#p35274a78fa)" style="fill: none; stroke: #1f77b4; stroke-width: 1.5"/>
   </g>
   <g id="LineCollection_20">
    <path d="M 347.428646 128.858063 
L 361.002222 128.858063 
" clip-path="url(#p35274a78fa)" style="fill: none; stroke-dasharray: 2,3.3; stroke-dashoffset: 0; stroke: #808080; stroke-width: 2"/>
    <path d="M 386.210291 125.39787 
L 399.783866 125.39787 
" clip-path="url(#p35274a78fa)" style="fill: none; stroke-dasharray: 2,3.3; stroke-dashoffset: 0; stroke: #808080; stroke-width: 2"/>
   </g>
   <g id="patch_18">
    <path d="M 337.345419 179.399 
L 337.345419 23.199 
" style="fill: none; stroke: #000000; stroke-width: 0.8; stroke-linejoin: miter; stroke-linecap: square"/>
   </g>
   <g id="patch_19">
    <path d="M 409.867094 179.399 
L 409.867094 23.199 
" style="fill: none; stroke: #000000; stroke-width: 0.8; stroke-linejoin: miter; stroke-linecap: square"/>
   </g>
   <g id="patch_20">
    <path d="M 337.345419 179.399 
L 409.867094 179.399 
" style="fill: none; stroke: #000000; stroke-width: 0.8; stroke-linejoin: miter; stroke-linecap: square"/>
   </g>
   <g id="patch_21">
    <path d="M 337.345419 23.199 
L 409.867094 23.199 
" style="fill: none; stroke: #000000; stroke-width: 0.8; stroke-linejoin: miter; stroke-linecap: square"/>
   </g>
   <g id="text_25">
    <!-- 348 -->
    <g transform="translate(346.715434 39.183952) scale(0.1 -0.1)">
     <use xlink:href="#TimesNewRomanPSMT-33"/>
     <use xlink:href="#TimesNewRomanPSMT-34" x="50"/>
     <use xlink:href="#TimesNewRomanPSMT-38" x="100"/>
    </g>
   </g>
   <g id="text_26">
    <!-- 389 -->
    <g transform="translate(385.497078 39.183952) scale(0.1 -0.1)">
     <use xlink:href="#TimesNewRomanPSMT-33"/>
     <use xlink:href="#TimesNewRomanPSMT-38" x="50"/>
     <use xlink:href="#TimesNewRomanPSMT-39" x="100"/>
    </g>
   </g>
   <g id="text_27">
    <!-- 6 Vessels -->
    <g transform="translate(347.133881 17.199) scale(0.144 -0.144)">
     <use xlink:href="#TimesNewRomanPSMT-36"/>
     <use xlink:href="#TimesNewRomanPSMT-20" x="50"/>
     <use xlink:href="#TimesNewRomanPSMT-56" x="73.25"/>
     <use xlink:href="#TimesNewRomanPSMT-65" x="134.341797"/>
     <use xlink:href="#TimesNewRomanPSMT-73" x="178.726562"/>
     <use xlink:href="#TimesNewRomanPSMT-73" x="217.642578"/>
     <use xlink:href="#TimesNewRomanPSMT-65" x="256.558594"/>
     <use xlink:href="#TimesNewRomanPSMT-6c" x="300.943359"/>
     <use xlink:href="#TimesNewRomanPSMT-73" x="328.726562"/>
    </g>
   </g>
  </g>
 </g>
 <defs>
  <clipPath id="p2a48b5fa32">
   <rect x="43.191094" y="23.199" width="72.521675" height="156.2"/>
  </clipPath>
  <clipPath id="pc81135f735">
   <rect x="141.242535" y="23.199" width="72.521675" height="156.2"/>
  </clipPath>
  <clipPath id="p57b4f426c2">
   <rect x="239.293977" y="23.199" width="72.521675" height="156.2"/>
  </clipPath>
  <clipPath id="p35274a78fa">
   <rect x="337.345419" y="23.199" width="72.521675" height="156.2"/>
  </clipPath>
 </defs>
</svg>
