<?xml version="1.0" encoding="utf-8" standalone="no"?>
<!DOCTYPE svg PUBLIC "-//W3C//DTD SVG 1.1//EN"
  "http://www.w3.org/Graphics/SVG/1.1/DTD/svg11.dtd">
<svg xmlns:xlink="http://www.w3.org/1999/xlink" width="420.181094pt" height="204.112125pt" viewBox="0 0 420.181094 204.112125" xmlns="http://www.w3.org/2000/svg" version="1.1">
 <metadata>
  <rdf:RDF xmlns:dc="http://purl.org/dc/elements/1.1/" xmlns:cc="http://creativecommons.org/ns#" xmlns:rdf="http://www.w3.org/1999/02/22-rdf-syntax-ns#">
   <cc:Work>
    <dc:type rdf:resource="http://purl.org/dc/dcmitype/StillImage"/>
    <dc:date>2024-10-27T23:16:58.358589</dc:date>
    <dc:format>image/svg+xml</dc:format>
    <dc:creator>
     <cc:Agent>
      <dc:title>Matplotlib v3.9.0, https://matplotlib.org/</dc:title>
     </cc:Agent>
    </dc:creator>
   </cc:Work>
  </rdf:RDF>
 </metadata>
 <defs>
  <style type="text/css">*{stroke-linejoin: round; stroke-linecap: butt}</style>
 </defs>
 <g id="figure_1">
  <g id="patch_1">
   <path d="M 0 204.112125 
L 420.181094 204.112125 
L 420.181094 0 
L 0 0 
z
" style="fill: #ffffff"/>
  </g>
  <g id="axes_1">
   <g id="patch_2">
    <path d="M 52.191094 179.399 
L 123.241269 179.399 
L 123.241269 23.199 
L 52.191094 23.199 
z
" style="fill: #ffffff"/>
   </g>
   <g id="PolyCollection_1">
    <path d="M 78.967849 160.997238 
L 58.469767 160.997238 
L 56.621807 151.448572 
L 55.53396 141.899905 
L 55.420647 132.351238 
L 56.26722 122.802572 
L 57.841669 113.253905 
L 59.787881 103.705238 
L 61.751207 94.156572 
L 63.477355 84.607905 
L 64.849976 75.059238 
L 65.869617 65.510572 
L 66.602224 55.961905 
L 67.128587 46.413238 
L 67.513278 36.864572 
L 67.795763 27.315905 
L 67.996396 17.767238 
L 68.127608 8.218572 
L 68.20301 -1.330095 
L 68.240982 -10.878762 
L 68.262803 -20.427428 
L 68.287598 -29.976095 
L 68.327328 -39.524762 
L 68.38446 -49.073428 
L 68.453305 -58.622095 
L 68.524048 -68.170761 
L 68.58731 -77.719428 
L 68.637262 -87.268095 
L 68.672421 -96.816761 
L 68.694625 -106.365428 
L 68.707261 -115.914095 
L 68.71376 -125.462761 
L 68.716789 -135.011428 
L 68.718069 -144.560095 
L 68.71856 -154.108761 
L 68.71873 -163.657428 
L 68.718779 -173.206095 
L 68.718773 -182.754761 
L 68.71871 -192.303428 
L 68.718521 -201.852095 
L 68.718035 -211.400761 
L 68.716906 -220.949428 
L 68.714541 -230.498095 
L 68.710071 -240.046761 
L 68.702484 -249.595428 
L 68.690973 -259.144095 
L 68.675497 -268.692761 
L 68.657308 -278.241428 
L 68.639116 -287.790094 
L 68.624572 -297.338761 
L 68.617116 -306.887428 
L 68.618665 -316.436094 
L 68.628813 -325.984761 
L 68.645004 -335.533428 
L 68.663574 -345.082094 
L 68.681086 -354.630761 
L 68.695298 -364.179428 
L 68.705437 -373.728094 
L 68.711868 -383.276761 
L 68.715521 -392.825428 
L 68.717387 -402.374094 
L 68.718248 -411.922761 
L 68.718607 -421.471428 
L 68.718742 -431.020094 
L 68.718788 -440.568761 
L 68.718803 -450.117428 
L 68.718807 -459.666094 
L 68.718808 -469.214761 
L 68.718808 -478.763428 
L 68.718808 -488.312094 
L 68.718808 -497.860761 
L 68.718808 -507.409428 
L 68.718808 -516.958094 
L 68.718808 -526.506761 
L 68.718808 -536.055427 
L 68.718808 -545.604094 
L 68.718808 -555.152761 
L 68.718808 -564.701427 
L 68.718808 -574.250094 
L 68.718808 -583.798761 
L 68.718808 -593.347427 
L 68.718808 -602.896094 
L 68.718808 -612.444761 
L 68.718808 -621.993427 
L 68.718807 -631.542094 
L 68.718805 -641.090761 
L 68.718795 -650.639427 
L 68.718763 -660.188094 
L 68.718667 -669.736761 
L 68.718405 -679.285427 
L 68.717755 -688.834094 
L 68.716295 -698.382761 
L 68.713339 -707.931427 
L 68.707945 -717.480094 
L 68.699118 -727.028761 
L 68.686241 -736.577427 
L 68.66965 -746.126094 
L 68.651095 -755.67476 
L 68.633693 -765.223427 
L 68.621172 -774.772094 
L 68.616601 -784.32076 
L 68.821015 -784.32076 
L 68.821015 -784.32076 
L 68.816445 -774.772094 
L 68.803924 -765.223427 
L 68.786521 -755.67476 
L 68.767967 -746.126094 
L 68.751376 -736.577427 
L 68.738498 -727.028761 
L 68.729672 -717.480094 
L 68.724278 -707.931427 
L 68.721321 -698.382761 
L 68.719862 -688.834094 
L 68.719211 -679.285427 
L 68.718949 -669.736761 
L 68.718853 -660.188094 
L 68.718821 -650.639427 
L 68.718812 -641.090761 
L 68.718809 -631.542094 
L 68.718808 -621.993427 
L 68.718808 -612.444761 
L 68.718808 -602.896094 
L 68.718808 -593.347427 
L 68.718808 -583.798761 
L 68.718808 -574.250094 
L 68.718808 -564.701427 
L 68.718808 -555.152761 
L 68.718808 -545.604094 
L 68.718808 -536.055427 
L 68.718808 -526.506761 
L 68.718808 -516.958094 
L 68.718808 -507.409428 
L 68.718808 -497.860761 
L 68.718808 -488.312094 
L 68.718808 -478.763428 
L 68.718809 -469.214761 
L 68.71881 -459.666094 
L 68.718814 -450.117428 
L 68.718828 -440.568761 
L 68.718875 -431.020094 
L 68.71901 -421.471428 
L 68.719369 -411.922761 
L 68.720229 -402.374094 
L 68.722095 -392.825428 
L 68.725748 -383.276761 
L 68.73218 -373.728094 
L 68.742318 -364.179428 
L 68.756531 -354.630761 
L 68.774043 -345.082094 
L 68.792613 -335.533428 
L 68.808803 -325.984761 
L 68.818951 -316.436094 
L 68.8205 -306.887428 
L 68.813045 -297.338761 
L 68.7985 -287.790094 
L 68.780308 -278.241428 
L 68.762119 -268.692761 
L 68.746643 -259.144095 
L 68.735133 -249.595428 
L 68.727545 -240.046761 
L 68.723075 -230.498095 
L 68.72071 -220.949428 
L 68.719582 -211.400761 
L 68.719096 -201.852095 
L 68.718907 -192.303428 
L 68.718844 -182.754761 
L 68.718838 -173.206095 
L 68.718886 -163.657428 
L 68.719056 -154.108761 
L 68.719548 -144.560095 
L 68.720828 -135.011428 
L 68.723856 -125.462761 
L 68.730356 -115.914095 
L 68.742991 -106.365428 
L 68.765195 -96.816761 
L 68.800355 -87.268095 
L 68.850306 -77.719428 
L 68.913569 -68.170761 
L 68.984311 -58.622095 
L 69.053157 -49.073428 
L 69.110289 -39.524762 
L 69.150018 -29.976095 
L 69.174813 -20.427428 
L 69.196634 -10.878762 
L 69.234607 -1.330095 
L 69.310008 8.218572 
L 69.441221 17.767238 
L 69.641853 27.315905 
L 69.924338 36.864572 
L 70.309029 46.413238 
L 70.835393 55.961905 
L 71.568 65.510572 
L 72.58764 75.059238 
L 73.960262 84.607905 
L 75.68641 94.156572 
L 77.649736 103.705238 
L 79.595948 113.253905 
L 81.170397 122.802572 
L 82.016969 132.351238 
L 81.903657 141.899905 
L 80.815809 151.448572 
L 78.967849 160.997238 
z
" clip-path="url(#pd13f9fab09)" style="fill: #0080ff; fill-opacity: 0.3"/>
   </g>
   <g id="PolyCollection_2">
    <path d="M 113.770002 161.729916 
L 99.657107 161.729916 
L 98.228221 157.852807 
L 96.845799 153.975699 
L 95.602607 150.09859 
L 94.584296 146.221482 
L 93.858172 142.344373 
L 93.465013 138.467265 
L 93.415393 134.590156 
L 93.690796 130.713048 
L 94.248737 126.835939 
L 95.030382 122.958831 
L 95.968996 119.081722 
L 96.997764 115.204614 
L 98.056063 111.327505 
L 99.093733 107.450397 
L 100.073295 103.573288 
L 100.970283 99.69618 
L 101.772007 95.819071 
L 102.47519 91.941963 
L 103.083022 88.064854 
L 103.602234 84.187746 
L 104.040749 80.310637 
L 104.40627 76.433529 
L 104.705878 72.55642 
L 104.946414 68.679312 
L 105.135209 64.802203 
L 105.280692 60.925095 
L 105.392478 57.047986 
L 105.480819 53.170878 
L 105.555498 49.293769 
L 105.624519 45.416661 
L 105.69298 41.539552 
L 105.762525 37.662444 
L 105.831578 33.785336 
L 105.896331 29.908227 
L 105.952231 26.031119 
L 105.995558 22.15401 
L 106.024676 18.276902 
L 106.040628 14.399793 
L 106.046975 10.522685 
L 106.04898 6.645576 
L 106.052412 2.768468 
L 106.062342 -1.108641 
L 106.082235 -4.985749 
L 106.113526 -8.862858 
L 106.155709 -12.739966 
L 106.206786 -16.617075 
L 106.263895 -20.494183 
L 106.32389 -24.371292 
L 106.383768 -28.2484 
L 106.44089 -32.125509 
L 106.493045 -36.002617 
L 106.538421 -39.879726 
L 106.575557 -43.756834 
L 106.603321 -47.633943 
L 106.620924 -51.511051 
L 106.627984 -55.38816 
L 106.624627 -59.265268 
L 106.611612 -63.142377 
L 106.590433 -67.019485 
L 106.563341 -70.896594 
L 106.533238 -74.773702 
L 106.503392 -78.650811 
L 106.477023 -82.527919 
L 106.456843 -86.405028 
L 106.444675 -90.282136 
L 106.441258 -94.159244 
L 106.446299 -98.036353 
L 106.458719 -101.913461 
L 106.476999 -105.79057 
L 106.499499 -109.667678 
L 106.524664 -113.544787 
L 106.551113 -117.421895 
L 106.577629 -121.299004 
L 106.603137 -125.176112 
L 106.626703 -129.053221 
L 106.647585 -132.930329 
L 106.665288 -136.807438 
L 106.679613 -140.684546 
L 106.690655 -144.561655 
L 106.698746 -148.438763 
L 106.70437 -152.315872 
L 106.708053 -156.19298 
L 106.71028 -160.070089 
L 106.711431 -163.947197 
L 106.711738 -167.824306 
L 106.711273 -171.701414 
L 106.709945 -175.578523 
L 106.707516 -179.455631 
L 106.703635 -183.33274 
L 106.697906 -187.209848 
L 106.689984 -191.086957 
L 106.679706 -194.964065 
L 106.667232 -198.841174 
L 106.653145 -202.718282 
L 106.638487 -206.595391 
L 106.624669 -210.472499 
L 106.613267 -214.349608 
L 106.605735 -218.226716 
L 106.603101 -222.103824 
L 106.824008 -222.103824 
L 106.824008 -222.103824 
L 106.821373 -218.226716 
L 106.813842 -214.349608 
L 106.80244 -210.472499 
L 106.788621 -206.595391 
L 106.773963 -202.718282 
L 106.759877 -198.841174 
L 106.747402 -194.964065 
L 106.737124 -191.086957 
L 106.729202 -187.209848 
L 106.723473 -183.33274 
L 106.719593 -179.455631 
L 106.717164 -175.578523 
L 106.715835 -171.701414 
L 106.71537 -167.824306 
L 106.715677 -163.947197 
L 106.716828 -160.070089 
L 106.719056 -156.19298 
L 106.722739 -152.315872 
L 106.728362 -148.438763 
L 106.736454 -144.561655 
L 106.747496 -140.684546 
L 106.761821 -136.807438 
L 106.779524 -132.930329 
L 106.800405 -129.053221 
L 106.823972 -125.176112 
L 106.849479 -121.299004 
L 106.875995 -117.421895 
L 106.902444 -113.544787 
L 106.92761 -109.667678 
L 106.950109 -105.79057 
L 106.96839 -101.913461 
L 106.98081 -98.036353 
L 106.985851 -94.159244 
L 106.982434 -90.282136 
L 106.970265 -86.405028 
L 106.950086 -82.527919 
L 106.923717 -78.650811 
L 106.89387 -74.773702 
L 106.863767 -70.896594 
L 106.836676 -67.019485 
L 106.815496 -63.142377 
L 106.802481 -59.265268 
L 106.799124 -55.38816 
L 106.806184 -51.511051 
L 106.823787 -47.633943 
L 106.851551 -43.756834 
L 106.888688 -39.879726 
L 106.934063 -36.002617 
L 106.986218 -32.125509 
L 107.043341 -28.2484 
L 107.103219 -24.371292 
L 107.163214 -20.494183 
L 107.220322 -16.617075 
L 107.2714 -12.739966 
L 107.313583 -8.862858 
L 107.344874 -4.985749 
L 107.364766 -1.108641 
L 107.374697 2.768468 
L 107.378129 6.645576 
L 107.380134 10.522685 
L 107.386481 14.399793 
L 107.402432 18.276902 
L 107.43155 22.15401 
L 107.474878 26.031119 
L 107.530778 29.908227 
L 107.595531 33.785336 
L 107.664584 37.662444 
L 107.734128 41.539552 
L 107.802589 45.416661 
L 107.87161 49.293769 
L 107.94629 53.170878 
L 108.03463 57.047986 
L 108.146417 60.925095 
L 108.291899 64.802203 
L 108.480695 68.679312 
L 108.72123 72.55642 
L 109.020838 76.433529 
L 109.386359 80.310637 
L 109.824874 84.187746 
L 110.344086 88.064854 
L 110.951918 91.941963 
L 111.655102 95.819071 
L 112.456826 99.69618 
L 113.353814 103.573288 
L 114.333376 107.450397 
L 115.371046 111.327505 
L 116.429345 115.204614 
L 117.458113 119.081722 
L 118.396727 122.958831 
L 119.178372 126.835939 
L 119.736312 130.713048 
L 120.011715 134.590156 
L 119.962095 138.467265 
L 119.568936 142.344373 
L 118.842812 146.221482 
L 117.824502 150.09859 
L 116.58131 153.975699 
L 115.198888 157.852807 
L 113.770002 161.729916 
z
" clip-path="url(#pd13f9fab09)" style="fill: #ff8000; fill-opacity: 0.3"/>
   </g>
   <g id="matplotlib.axis_1">
    <g id="xtick_1">
     <g id="line2d_1">
      <defs>
       <path id="m5316568ad4" d="M 0 0 
L 0 3.5 
" style="stroke: #000000; stroke-width: 0.8"/>
      </defs>
      <g>
       <use xlink:href="#m5316568ad4" x="68.718808" y="179.399" style="stroke: #000000; stroke-width: 0.8"/>
      </g>
     </g>
     <g id="text_1">
      <!-- MSR -->
      <g transform="translate(42.052558 194.34525) scale(0.12 -0.12)">
       <defs>
        <path id="TimesNewRomanPS-BoldMT-4d" d="M 3050 1444 
L 4200 4238 
L 5925 4238 
L 5925 4122 
L 5788 4122 
Q 5600 4122 5488 4056 
Q 5409 4013 5363 3909 
Q 5328 3834 5328 3519 
L 5328 725 
Q 5328 400 5362 319 
Q 5397 238 5503 177 
Q 5609 116 5788 116 
L 5925 116 
L 5925 0 
L 3713 0 
L 3713 116 
L 3850 116 
Q 4038 116 4150 181 
Q 4228 225 4275 331 
Q 4309 406 4309 725 
L 4309 3866 
L 2684 0 
L 2609 0 
L 959 3838 
L 959 853 
Q 959 541 975 469 
Q 1016 313 1152 214 
Q 1288 116 1578 116 
L 1578 0 
L 128 0 
L 128 116 
L 172 116 
Q 313 113 434 161 
Q 556 209 618 290 
Q 681 372 716 519 
Q 722 553 722 838 
L 722 3519 
Q 722 3841 687 3920 
Q 653 4000 547 4061 
Q 441 4122 263 4122 
L 128 4122 
L 128 4238 
L 1859 4238 
L 3050 1444 
z
" transform="scale(0.015625)"/>
        <path id="TimesNewRomanPS-BoldMT-53" d="M 3006 4334 
L 3041 2922 
L 2913 2922 
Q 2822 3453 2467 3776 
Q 2113 4100 1700 4100 
Q 1381 4100 1195 3929 
Q 1009 3759 1009 3538 
Q 1009 3397 1075 3288 
Q 1166 3141 1366 2997 
Q 1513 2894 2044 2631 
Q 2788 2266 3047 1941 
Q 3303 1616 3303 1197 
Q 3303 666 2889 283 
Q 2475 -100 1838 -100 
Q 1638 -100 1459 -59 
Q 1281 -19 1013 94 
Q 863 156 766 156 
Q 684 156 593 93 
Q 503 31 447 -97 
L 331 -97 
L 331 1503 
L 447 1503 
Q 584 828 976 473 
Q 1369 119 1822 119 
Q 2172 119 2380 309 
Q 2588 500 2588 753 
Q 2588 903 2508 1043 
Q 2428 1184 2265 1311 
Q 2103 1438 1691 1641 
Q 1113 1925 859 2125 
Q 606 2325 470 2572 
Q 334 2819 334 3116 
Q 334 3622 706 3978 
Q 1078 4334 1644 4334 
Q 1850 4334 2044 4284 
Q 2191 4247 2402 4145 
Q 2613 4044 2697 4044 
Q 2778 4044 2825 4094 
Q 2872 4144 2913 4334 
L 3006 4334 
z
" transform="scale(0.015625)"/>
        <path id="TimesNewRomanPS-BoldMT-52" d="M 1700 1931 
L 1700 744 
Q 1700 400 1742 311 
Q 1784 222 1890 169 
Q 1997 116 2288 116 
L 2288 0 
L 119 0 
L 119 116 
Q 413 116 517 170 
Q 622 225 664 312 
Q 706 400 706 744 
L 706 3494 
Q 706 3838 664 3927 
Q 622 4016 515 4069 
Q 409 4122 119 4122 
L 119 4238 
L 2088 4238 
Q 2856 4238 3212 4131 
Q 3569 4025 3794 3739 
Q 4019 3453 4019 3069 
Q 4019 2600 3681 2294 
Q 3466 2100 3078 2003 
L 4097 569 
Q 4297 291 4381 222 
Q 4509 125 4678 116 
L 4678 0 
L 3344 0 
L 1978 1931 
L 1700 1931 
z
M 1700 4009 
L 1700 2153 
L 1878 2153 
Q 2313 2153 2528 2233 
Q 2744 2313 2867 2520 
Q 2991 2728 2991 3063 
Q 2991 3547 2764 3778 
Q 2538 4009 2034 4009 
L 1700 4009 
z
" transform="scale(0.015625)"/>
       </defs>
       <use xlink:href="#TimesNewRomanPS-BoldMT-4d"/>
       <use xlink:href="#TimesNewRomanPS-BoldMT-53" x="94.384766"/>
       <use xlink:href="#TimesNewRomanPS-BoldMT-52" x="150"/>
      </g>
     </g>
    </g>
    <g id="xtick_2">
     <g id="line2d_2">
      <g>
       <use xlink:href="#m5316568ad4" x="106.713554" y="179.399" style="stroke: #000000; stroke-width: 0.8"/>
      </g>
     </g>
     <g id="text_2">
      <!-- SBO -->
      <g transform="translate(82.702304 194.34525) scale(0.12 -0.12)">
       <defs>
        <path id="TimesNewRomanPS-BoldMT-42" d="M 2847 2247 
Q 3450 2106 3694 1906 
Q 4044 1622 4044 1169 
Q 4044 691 3659 378 
Q 3188 0 2288 0 
L 134 0 
L 134 116 
Q 428 116 533 170 
Q 638 225 680 312 
Q 722 400 722 744 
L 722 3494 
Q 722 3838 680 3927 
Q 638 4016 531 4069 
Q 425 4122 134 4122 
L 134 4238 
L 2166 4238 
Q 2894 4238 3197 4108 
Q 3500 3978 3675 3720 
Q 3850 3463 3850 3172 
Q 3850 2866 3628 2627 
Q 3406 2388 2847 2247 
z
M 1709 2331 
Q 2153 2331 2364 2431 
Q 2575 2531 2687 2712 
Q 2800 2894 2800 3175 
Q 2800 3456 2689 3636 
Q 2578 3816 2372 3909 
Q 2166 4003 1709 4000 
L 1709 2331 
z
M 1709 2088 
L 1709 728 
L 1706 572 
Q 1706 403 1792 317 
Q 1878 231 2047 231 
Q 2297 231 2508 342 
Q 2719 453 2831 664 
Q 2944 875 2944 1134 
Q 2944 1431 2806 1667 
Q 2669 1903 2428 1997 
Q 2188 2091 1709 2088 
z
" transform="scale(0.015625)"/>
        <path id="TimesNewRomanPS-BoldMT-4f" d="M 2472 4297 
Q 3484 4334 4117 3706 
Q 4750 3078 4750 2134 
Q 4750 1328 4278 716 
Q 3653 -97 2513 -97 
Q 1369 -97 744 678 
Q 250 1291 250 2131 
Q 250 3075 892 3704 
Q 1534 4334 2472 4297 
z
M 2509 4097 
Q 1928 4097 1625 3503 
Q 1378 3016 1378 2103 
Q 1378 1019 1759 500 
Q 2025 138 2503 138 
Q 2825 138 3041 294 
Q 3316 494 3469 933 
Q 3622 1372 3622 2078 
Q 3622 2919 3465 3336 
Q 3309 3753 3067 3925 
Q 2825 4097 2509 4097 
z
" transform="scale(0.015625)"/>
       </defs>
       <use xlink:href="#TimesNewRomanPS-BoldMT-53"/>
       <use xlink:href="#TimesNewRomanPS-BoldMT-42" x="55.615234"/>
       <use xlink:href="#TimesNewRomanPS-BoldMT-4f" x="122.314453"/>
      </g>
     </g>
    </g>
   </g>
   <g id="matplotlib.axis_2">
    <g id="ytick_1">
     <g id="line2d_3">
      <defs>
       <path id="m0561091ded" d="M 0 0 
L -3.5 0 
" style="stroke: #000000; stroke-width: 0.8"/>
      </defs>
      <g>
       <use xlink:href="#m0561091ded" x="52.191094" y="179.399" style="stroke: #000000; stroke-width: 0.8"/>
      </g>
     </g>
     <g id="text_3">
      <!-- 0 -->
      <g transform="translate(39.191094 183.56525) scale(0.12 -0.12)">
       <defs>
        <path id="TimesNewRomanPSMT-30" d="M 231 2094 
Q 231 2819 450 3342 
Q 669 3866 1031 4122 
Q 1313 4325 1613 4325 
Q 2100 4325 2488 3828 
Q 2972 3213 2972 2159 
Q 2972 1422 2759 906 
Q 2547 391 2217 158 
Q 1888 -75 1581 -75 
Q 975 -75 572 641 
Q 231 1244 231 2094 
z
M 844 2016 
Q 844 1141 1059 588 
Q 1238 122 1591 122 
Q 1759 122 1940 273 
Q 2122 425 2216 781 
Q 2359 1319 2359 2297 
Q 2359 3022 2209 3506 
Q 2097 3866 1919 4016 
Q 1791 4119 1609 4119 
Q 1397 4119 1231 3928 
Q 1006 3669 925 3112 
Q 844 2556 844 2016 
z
" transform="scale(0.015625)"/>
       </defs>
       <use xlink:href="#TimesNewRomanPSMT-30"/>
      </g>
     </g>
    </g>
    <g id="ytick_2">
     <g id="line2d_4">
      <g>
       <use xlink:href="#m0561091ded" x="52.191094" y="134.123638" style="stroke: #000000; stroke-width: 0.8"/>
      </g>
     </g>
     <g id="text_4">
      <!-- 500 -->
      <g transform="translate(27.191094 138.289888) scale(0.12 -0.12)">
       <defs>
        <path id="TimesNewRomanPSMT-35" d="M 2778 4238 
L 2534 3706 
L 1259 3706 
L 981 3138 
Q 1809 3016 2294 2522 
Q 2709 2097 2709 1522 
Q 2709 1188 2573 903 
Q 2438 619 2231 419 
Q 2025 219 1772 97 
Q 1413 -75 1034 -75 
Q 653 -75 479 54 
Q 306 184 306 341 
Q 306 428 378 495 
Q 450 563 559 563 
Q 641 563 702 538 
Q 763 513 909 409 
Q 1144 247 1384 247 
Q 1750 247 2026 523 
Q 2303 800 2303 1197 
Q 2303 1581 2056 1914 
Q 1809 2247 1375 2428 
Q 1034 2569 447 2591 
L 1259 4238 
L 2778 4238 
z
" transform="scale(0.015625)"/>
       </defs>
       <use xlink:href="#TimesNewRomanPSMT-35"/>
       <use xlink:href="#TimesNewRomanPSMT-30" x="50"/>
       <use xlink:href="#TimesNewRomanPSMT-30" x="100"/>
      </g>
     </g>
    </g>
    <g id="ytick_3">
     <g id="line2d_5">
      <g>
       <use xlink:href="#m0561091ded" x="52.191094" y="88.848275" style="stroke: #000000; stroke-width: 0.8"/>
      </g>
     </g>
     <g id="text_5">
      <!-- 1000 -->
      <g transform="translate(21.191094 93.014525) scale(0.12 -0.12)">
       <defs>
        <path id="TimesNewRomanPSMT-31" d="M 750 3822 
L 1781 4325 
L 1884 4325 
L 1884 747 
Q 1884 391 1914 303 
Q 1944 216 2037 169 
Q 2131 122 2419 116 
L 2419 0 
L 825 0 
L 825 116 
Q 1125 122 1212 167 
Q 1300 213 1334 289 
Q 1369 366 1369 747 
L 1369 3034 
Q 1369 3497 1338 3628 
Q 1316 3728 1258 3775 
Q 1200 3822 1119 3822 
Q 1003 3822 797 3725 
L 750 3822 
z
" transform="scale(0.015625)"/>
       </defs>
       <use xlink:href="#TimesNewRomanPSMT-31"/>
       <use xlink:href="#TimesNewRomanPSMT-30" x="50"/>
       <use xlink:href="#TimesNewRomanPSMT-30" x="100"/>
       <use xlink:href="#TimesNewRomanPSMT-30" x="150"/>
      </g>
     </g>
    </g>
    <g id="ytick_4">
     <g id="line2d_6">
      <g>
       <use xlink:href="#m0561091ded" x="52.191094" y="43.572913" style="stroke: #000000; stroke-width: 0.8"/>
      </g>
     </g>
     <g id="text_6">
      <!-- 1500 -->
      <g transform="translate(21.191094 47.739163) scale(0.12 -0.12)">
       <use xlink:href="#TimesNewRomanPSMT-31"/>
       <use xlink:href="#TimesNewRomanPSMT-35" x="50"/>
       <use xlink:href="#TimesNewRomanPSMT-30" x="100"/>
       <use xlink:href="#TimesNewRomanPSMT-30" x="150"/>
      </g>
     </g>
    </g>
    <g id="text_7">
     <!-- TCPA of OS to closest TS (s) -->
     <g transform="translate(14.838125 165.788219) rotate(-90) scale(0.11 -0.11)">
      <defs>
       <path id="TimesNewRomanPSMT-54" d="M 3703 4238 
L 3750 3244 
L 3631 3244 
Q 3597 3506 3538 3619 
Q 3441 3800 3280 3886 
Q 3119 3972 2856 3972 
L 2259 3972 
L 2259 734 
Q 2259 344 2344 247 
Q 2463 116 2709 116 
L 2856 116 
L 2856 0 
L 1059 0 
L 1059 116 
L 1209 116 
Q 1478 116 1591 278 
Q 1659 378 1659 734 
L 1659 3972 
L 1150 3972 
Q 853 3972 728 3928 
Q 566 3869 450 3700 
Q 334 3531 313 3244 
L 194 3244 
L 244 4238 
L 3703 4238 
z
" transform="scale(0.015625)"/>
       <path id="TimesNewRomanPSMT-43" d="M 3853 4334 
L 3950 2894 
L 3853 2894 
Q 3659 3541 3300 3825 
Q 2941 4109 2438 4109 
Q 2016 4109 1675 3895 
Q 1334 3681 1139 3212 
Q 944 2744 944 2047 
Q 944 1472 1128 1050 
Q 1313 628 1683 403 
Q 2053 178 2528 178 
Q 2941 178 3256 354 
Q 3572 531 3950 1056 
L 4047 994 
Q 3728 428 3303 165 
Q 2878 -97 2294 -97 
Q 1241 -97 663 684 
Q 231 1266 231 2053 
Q 231 2688 515 3219 
Q 800 3750 1298 4042 
Q 1797 4334 2388 4334 
Q 2847 4334 3294 4109 
Q 3425 4041 3481 4041 
Q 3566 4041 3628 4100 
Q 3709 4184 3744 4334 
L 3853 4334 
z
" transform="scale(0.015625)"/>
       <path id="TimesNewRomanPSMT-50" d="M 1313 1984 
L 1313 750 
Q 1313 350 1400 253 
Q 1519 116 1759 116 
L 1922 116 
L 1922 0 
L 106 0 
L 106 116 
L 266 116 
Q 534 116 650 291 
Q 713 388 713 750 
L 713 3488 
Q 713 3888 628 3984 
Q 506 4122 266 4122 
L 106 4122 
L 106 4238 
L 1659 4238 
Q 2228 4238 2556 4120 
Q 2884 4003 3109 3725 
Q 3334 3447 3334 3066 
Q 3334 2547 2992 2222 
Q 2650 1897 2025 1897 
Q 1872 1897 1694 1919 
Q 1516 1941 1313 1984 
z
M 1313 2163 
Q 1478 2131 1606 2115 
Q 1734 2100 1825 2100 
Q 2150 2100 2386 2351 
Q 2622 2603 2622 3003 
Q 2622 3278 2509 3514 
Q 2397 3750 2190 3867 
Q 1984 3984 1722 3984 
Q 1563 3984 1313 3925 
L 1313 2163 
z
" transform="scale(0.015625)"/>
       <path id="TimesNewRomanPSMT-41" d="M 2928 1419 
L 1288 1419 
L 1000 750 
Q 894 503 894 381 
Q 894 284 986 211 
Q 1078 138 1384 116 
L 1384 0 
L 50 0 
L 50 116 
Q 316 163 394 238 
Q 553 388 747 847 
L 2238 4334 
L 2347 4334 
L 3822 809 
Q 4000 384 4145 257 
Q 4291 131 4550 116 
L 4550 0 
L 2878 0 
L 2878 116 
Q 3131 128 3220 200 
Q 3309 272 3309 375 
Q 3309 513 3184 809 
L 2928 1419 
z
M 2841 1650 
L 2122 3363 
L 1384 1650 
L 2841 1650 
z
" transform="scale(0.015625)"/>
       <path id="TimesNewRomanPSMT-20" transform="scale(0.015625)"/>
       <path id="TimesNewRomanPSMT-6f" d="M 1600 2947 
Q 2250 2947 2644 2453 
Q 2978 2031 2978 1484 
Q 2978 1100 2793 706 
Q 2609 313 2286 112 
Q 1963 -88 1566 -88 
Q 919 -88 538 428 
Q 216 863 216 1403 
Q 216 1797 411 2186 
Q 606 2575 925 2761 
Q 1244 2947 1600 2947 
z
M 1503 2744 
Q 1338 2744 1170 2645 
Q 1003 2547 900 2300 
Q 797 2053 797 1666 
Q 797 1041 1045 587 
Q 1294 134 1700 134 
Q 2003 134 2200 384 
Q 2397 634 2397 1244 
Q 2397 2006 2069 2444 
Q 1847 2744 1503 2744 
z
" transform="scale(0.015625)"/>
       <path id="TimesNewRomanPSMT-66" d="M 1319 2638 
L 1319 756 
Q 1319 356 1406 250 
Q 1522 113 1716 113 
L 1975 113 
L 1975 0 
L 266 0 
L 266 113 
L 394 113 
Q 519 113 622 175 
Q 725 238 764 344 
Q 803 450 803 756 
L 803 2638 
L 247 2638 
L 247 2863 
L 803 2863 
L 803 3050 
Q 803 3478 940 3775 
Q 1078 4072 1361 4255 
Q 1644 4438 1997 4438 
Q 2325 4438 2600 4225 
Q 2781 4084 2781 3909 
Q 2781 3816 2700 3733 
Q 2619 3650 2525 3650 
Q 2453 3650 2373 3701 
Q 2294 3753 2178 3923 
Q 2063 4094 1966 4153 
Q 1869 4213 1750 4213 
Q 1606 4213 1506 4136 
Q 1406 4059 1362 3898 
Q 1319 3738 1319 3069 
L 1319 2863 
L 2056 2863 
L 2056 2638 
L 1319 2638 
z
" transform="scale(0.015625)"/>
       <path id="TimesNewRomanPSMT-4f" d="M 2341 4334 
Q 3166 4334 3770 3707 
Q 4375 3081 4375 2144 
Q 4375 1178 3765 540 
Q 3156 -97 2291 -97 
Q 1416 -97 820 525 
Q 225 1147 225 2134 
Q 225 3144 913 3781 
Q 1509 4334 2341 4334 
z
M 2281 4106 
Q 1713 4106 1369 3684 
Q 941 3159 941 2147 
Q 941 1109 1384 550 
Q 1725 125 2284 125 
Q 2881 125 3270 590 
Q 3659 1056 3659 2059 
Q 3659 3147 3231 3681 
Q 2888 4106 2281 4106 
z
" transform="scale(0.015625)"/>
       <path id="TimesNewRomanPSMT-53" d="M 2934 4334 
L 2934 2869 
L 2819 2869 
Q 2763 3291 2617 3541 
Q 2472 3791 2203 3937 
Q 1934 4084 1647 4084 
Q 1322 4084 1109 3886 
Q 897 3688 897 3434 
Q 897 3241 1031 3081 
Q 1225 2847 1953 2456 
Q 2547 2138 2764 1967 
Q 2981 1797 3098 1565 
Q 3216 1334 3216 1081 
Q 3216 600 2842 251 
Q 2469 -97 1881 -97 
Q 1697 -97 1534 -69 
Q 1438 -53 1133 45 
Q 828 144 747 144 
Q 669 144 623 97 
Q 578 50 556 -97 
L 441 -97 
L 441 1356 
L 556 1356 
Q 638 900 775 673 
Q 913 447 1195 297 
Q 1478 147 1816 147 
Q 2206 147 2432 353 
Q 2659 559 2659 841 
Q 2659 997 2573 1156 
Q 2488 1316 2306 1453 
Q 2184 1547 1640 1851 
Q 1097 2156 867 2337 
Q 638 2519 519 2737 
Q 400 2956 400 3219 
Q 400 3675 750 4004 
Q 1100 4334 1641 4334 
Q 1978 4334 2356 4169 
Q 2531 4091 2603 4091 
Q 2684 4091 2736 4139 
Q 2788 4188 2819 4334 
L 2934 4334 
z
" transform="scale(0.015625)"/>
       <path id="TimesNewRomanPSMT-74" d="M 1031 3803 
L 1031 2863 
L 1700 2863 
L 1700 2644 
L 1031 2644 
L 1031 788 
Q 1031 509 1111 412 
Q 1191 316 1316 316 
Q 1419 316 1516 380 
Q 1613 444 1666 569 
L 1788 569 
Q 1678 263 1478 108 
Q 1278 -47 1066 -47 
Q 922 -47 784 33 
Q 647 113 581 261 
Q 516 409 516 719 
L 516 2644 
L 63 2644 
L 63 2747 
Q 234 2816 414 2980 
Q 594 3144 734 3369 
Q 806 3488 934 3803 
L 1031 3803 
z
" transform="scale(0.015625)"/>
       <path id="TimesNewRomanPSMT-63" d="M 2631 1088 
Q 2516 522 2178 217 
Q 1841 -88 1431 -88 
Q 944 -88 581 321 
Q 219 731 219 1428 
Q 219 2103 620 2525 
Q 1022 2947 1584 2947 
Q 2006 2947 2278 2723 
Q 2550 2500 2550 2259 
Q 2550 2141 2473 2067 
Q 2397 1994 2259 1994 
Q 2075 1994 1981 2113 
Q 1928 2178 1911 2362 
Q 1894 2547 1784 2644 
Q 1675 2738 1481 2738 
Q 1169 2738 978 2506 
Q 725 2200 725 1697 
Q 725 1184 976 792 
Q 1228 400 1656 400 
Q 1963 400 2206 609 
Q 2378 753 2541 1131 
L 2631 1088 
z
" transform="scale(0.015625)"/>
       <path id="TimesNewRomanPSMT-6c" d="M 1184 4444 
L 1184 647 
Q 1184 378 1223 290 
Q 1263 203 1344 158 
Q 1425 113 1647 113 
L 1647 0 
L 244 0 
L 244 113 
Q 441 113 512 153 
Q 584 194 625 287 
Q 666 381 666 647 
L 666 3247 
Q 666 3731 644 3842 
Q 622 3953 573 3993 
Q 525 4034 450 4034 
Q 369 4034 244 3984 
L 191 4094 
L 1044 4444 
L 1184 4444 
z
" transform="scale(0.015625)"/>
       <path id="TimesNewRomanPSMT-73" d="M 2050 2947 
L 2050 1972 
L 1947 1972 
Q 1828 2431 1642 2597 
Q 1456 2763 1169 2763 
Q 950 2763 815 2647 
Q 681 2531 681 2391 
Q 681 2216 781 2091 
Q 878 1963 1175 1819 
L 1631 1597 
Q 2266 1288 2266 781 
Q 2266 391 1970 151 
Q 1675 -88 1309 -88 
Q 1047 -88 709 6 
Q 606 38 541 38 
Q 469 38 428 -44 
L 325 -44 
L 325 978 
L 428 978 
Q 516 541 762 319 
Q 1009 97 1316 97 
Q 1531 97 1667 223 
Q 1803 350 1803 528 
Q 1803 744 1651 891 
Q 1500 1038 1047 1263 
Q 594 1488 453 1669 
Q 313 1847 313 2119 
Q 313 2472 555 2709 
Q 797 2947 1181 2947 
Q 1350 2947 1591 2875 
Q 1750 2828 1803 2828 
Q 1853 2828 1881 2850 
Q 1909 2872 1947 2947 
L 2050 2947 
z
" transform="scale(0.015625)"/>
       <path id="TimesNewRomanPSMT-65" d="M 681 1784 
Q 678 1147 991 784 
Q 1303 422 1725 422 
Q 2006 422 2214 576 
Q 2422 731 2563 1106 
L 2659 1044 
Q 2594 616 2278 264 
Q 1963 -88 1488 -88 
Q 972 -88 605 314 
Q 238 716 238 1394 
Q 238 2128 614 2539 
Q 991 2950 1559 2950 
Q 2041 2950 2350 2633 
Q 2659 2316 2659 1784 
L 681 1784 
z
M 681 1966 
L 2006 1966 
Q 1991 2241 1941 2353 
Q 1863 2528 1708 2628 
Q 1553 2728 1384 2728 
Q 1125 2728 920 2526 
Q 716 2325 681 1966 
z
" transform="scale(0.015625)"/>
       <path id="TimesNewRomanPSMT-28" d="M 1988 -1253 
L 1988 -1369 
Q 1516 -1131 1200 -813 
Q 750 -359 506 256 
Q 263 872 263 1534 
Q 263 2503 741 3301 
Q 1219 4100 1988 4444 
L 1988 4313 
Q 1603 4100 1356 3731 
Q 1109 3363 987 2797 
Q 866 2231 866 1616 
Q 866 947 969 400 
Q 1050 -31 1165 -292 
Q 1281 -553 1476 -793 
Q 1672 -1034 1988 -1253 
z
" transform="scale(0.015625)"/>
       <path id="TimesNewRomanPSMT-29" d="M 144 4313 
L 144 4444 
Q 619 4209 934 3891 
Q 1381 3434 1625 2820 
Q 1869 2206 1869 1541 
Q 1869 572 1392 -226 
Q 916 -1025 144 -1369 
L 144 -1253 
Q 528 -1038 776 -670 
Q 1025 -303 1145 264 
Q 1266 831 1266 1447 
Q 1266 2113 1163 2663 
Q 1084 3094 967 3353 
Q 850 3613 656 3853 
Q 463 4094 144 4313 
z
" transform="scale(0.015625)"/>
      </defs>
      <use xlink:href="#TimesNewRomanPSMT-54"/>
      <use xlink:href="#TimesNewRomanPSMT-43" x="61.083984"/>
      <use xlink:href="#TimesNewRomanPSMT-50" x="127.783203"/>
      <use xlink:href="#TimesNewRomanPSMT-41" x="174.273438"/>
      <use xlink:href="#TimesNewRomanPSMT-20" x="240.990234"/>
      <use xlink:href="#TimesNewRomanPSMT-6f" x="265.990234"/>
      <use xlink:href="#TimesNewRomanPSMT-66" x="315.990234"/>
      <use xlink:href="#TimesNewRomanPSMT-20" x="349.291016"/>
      <use xlink:href="#TimesNewRomanPSMT-4f" x="374.291016"/>
      <use xlink:href="#TimesNewRomanPSMT-53" x="446.507812"/>
      <use xlink:href="#TimesNewRomanPSMT-20" x="502.123047"/>
      <use xlink:href="#TimesNewRomanPSMT-74" x="527.123047"/>
      <use xlink:href="#TimesNewRomanPSMT-6f" x="554.90625"/>
      <use xlink:href="#TimesNewRomanPSMT-20" x="604.90625"/>
      <use xlink:href="#TimesNewRomanPSMT-63" x="629.90625"/>
      <use xlink:href="#TimesNewRomanPSMT-6c" x="674.291016"/>
      <use xlink:href="#TimesNewRomanPSMT-6f" x="702.074219"/>
      <use xlink:href="#TimesNewRomanPSMT-73" x="752.074219"/>
      <use xlink:href="#TimesNewRomanPSMT-65" x="790.990234"/>
      <use xlink:href="#TimesNewRomanPSMT-73" x="835.375"/>
      <use xlink:href="#TimesNewRomanPSMT-74" x="874.291016"/>
      <use xlink:href="#TimesNewRomanPSMT-20" x="902.074219"/>
      <use xlink:href="#TimesNewRomanPSMT-54" x="925.324219"/>
      <use xlink:href="#TimesNewRomanPSMT-53" x="986.408203"/>
      <use xlink:href="#TimesNewRomanPSMT-20" x="1042.023438"/>
      <use xlink:href="#TimesNewRomanPSMT-28" x="1067.023438"/>
      <use xlink:href="#TimesNewRomanPSMT-73" x="1100.324219"/>
      <use xlink:href="#TimesNewRomanPSMT-29" x="1139.240234"/>
     </g>
    </g>
   </g>
   <g id="LineCollection_1">
    <path d="M 62.069728 116.969717 
L 75.367889 116.969717 
" clip-path="url(#pd13f9fab09)" style="fill: none; stroke: #000000; stroke-width: 2"/>
    <path d="M 100.064474 116.241274 
L 113.362635 116.241274 
" clip-path="url(#pd13f9fab09)" style="fill: none; stroke: #000000; stroke-width: 2"/>
   </g>
   <g id="LineCollection_2">
    <path clip-path="url(#pd13f9fab09)" style="fill: none; stroke: #1f77b4; stroke-width: 1.5"/>
    <path clip-path="url(#pd13f9fab09)" style="fill: none; stroke: #1f77b4; stroke-width: 1.5"/>
   </g>
   <g id="LineCollection_3">
    <path d="M 62.069728 160.997238 
L 75.367889 160.997238 
" clip-path="url(#pd13f9fab09)" style="fill: none; stroke: #1f77b4; stroke-width: 1.5"/>
    <path d="M 100.064474 161.729916 
L 113.362635 161.729916 
" clip-path="url(#pd13f9fab09)" style="fill: none; stroke: #1f77b4; stroke-width: 1.5"/>
   </g>
   <g id="LineCollection_4">
    <path d="M 68.718808 160.997238 
L 68.718808 -1 
" clip-path="url(#pd13f9fab09)" style="fill: none; stroke: #1f77b4; stroke-width: 1.5"/>
    <path d="M 106.713554 161.729916 
L 106.713554 -1 
" clip-path="url(#pd13f9fab09)" style="fill: none; stroke: #1f77b4; stroke-width: 1.5"/>
   </g>
   <g id="LineCollection_5">
    <path d="M 62.069728 136.467605 
L 75.367889 136.467605 
" clip-path="url(#pd13f9fab09)" style="fill: none; stroke-dasharray: 2,3.3; stroke-dashoffset: 0; stroke: #808080; stroke-width: 2"/>
    <path d="M 100.064474 130.101714 
L 113.362635 130.101714 
" clip-path="url(#pd13f9fab09)" style="fill: none; stroke-dasharray: 2,3.3; stroke-dashoffset: 0; stroke: #808080; stroke-width: 2"/>
   </g>
   <g id="patch_3">
    <path d="M 52.191094 179.399 
L 52.191094 23.199 
" style="fill: none; stroke: #000000; stroke-width: 0.8; stroke-linejoin: miter; stroke-linecap: square"/>
   </g>
   <g id="patch_4">
    <path d="M 123.241269 179.399 
L 123.241269 23.199 
" style="fill: none; stroke: #000000; stroke-width: 0.8; stroke-linejoin: miter; stroke-linecap: square"/>
   </g>
   <g id="patch_5">
    <path d="M 52.191094 179.399 
L 123.241269 179.399 
" style="fill: none; stroke: #000000; stroke-width: 0.8; stroke-linejoin: miter; stroke-linecap: square"/>
   </g>
   <g id="patch_6">
    <path d="M 52.191094 23.199 
L 123.241269 23.199 
" style="fill: none; stroke: #000000; stroke-width: 0.8; stroke-linejoin: miter; stroke-linecap: square"/>
   </g>
   <g id="text_8">
    <!-- 159 -->
    <g transform="translate(61.218808 39.183952) scale(0.1 -0.1)">
     <defs>
      <path id="TimesNewRomanPSMT-39" d="M 338 -88 
L 338 28 
Q 744 34 1094 217 
Q 1444 400 1770 856 
Q 2097 1313 2225 1859 
Q 1734 1544 1338 1544 
Q 891 1544 572 1889 
Q 253 2234 253 2806 
Q 253 3363 572 3797 
Q 956 4325 1575 4325 
Q 2097 4325 2469 3894 
Q 2925 3359 2925 2575 
Q 2925 1869 2578 1258 
Q 2231 647 1613 244 
Q 1109 -88 516 -88 
L 338 -88 
z
M 2275 2091 
Q 2331 2497 2331 2741 
Q 2331 3044 2228 3395 
Q 2125 3747 1936 3934 
Q 1747 4122 1506 4122 
Q 1228 4122 1018 3872 
Q 809 3622 809 3128 
Q 809 2469 1088 2097 
Q 1291 1828 1588 1828 
Q 1731 1828 1928 1897 
Q 2125 1966 2275 2091 
z
" transform="scale(0.015625)"/>
     </defs>
     <use xlink:href="#TimesNewRomanPSMT-31"/>
     <use xlink:href="#TimesNewRomanPSMT-35" x="50"/>
     <use xlink:href="#TimesNewRomanPSMT-39" x="100"/>
    </g>
   </g>
   <g id="text_9">
    <!-- 195 -->
    <g transform="translate(99.213554 39.183952) scale(0.1 -0.1)">
     <use xlink:href="#TimesNewRomanPSMT-31"/>
     <use xlink:href="#TimesNewRomanPSMT-39" x="50"/>
     <use xlink:href="#TimesNewRomanPSMT-35" x="100"/>
    </g>
   </g>
   <g id="text_10">
    <!-- 3 Vessels -->
    <g transform="translate(61.243806 17.199) scale(0.144 -0.144)">
     <defs>
      <path id="TimesNewRomanPSMT-33" d="M 325 3431 
Q 506 3859 782 4092 
Q 1059 4325 1472 4325 
Q 1981 4325 2253 3994 
Q 2459 3747 2459 3466 
Q 2459 3003 1878 2509 
Q 2269 2356 2469 2072 
Q 2669 1788 2669 1403 
Q 2669 853 2319 450 
Q 1863 -75 997 -75 
Q 569 -75 414 31 
Q 259 138 259 259 
Q 259 350 332 419 
Q 406 488 509 488 
Q 588 488 669 463 
Q 722 447 909 348 
Q 1097 250 1169 231 
Q 1284 197 1416 197 
Q 1734 197 1970 444 
Q 2206 691 2206 1028 
Q 2206 1275 2097 1509 
Q 2016 1684 1919 1775 
Q 1784 1900 1550 2001 
Q 1316 2103 1072 2103 
L 972 2103 
L 972 2197 
Q 1219 2228 1467 2375 
Q 1716 2522 1828 2728 
Q 1941 2934 1941 3181 
Q 1941 3503 1739 3701 
Q 1538 3900 1238 3900 
Q 753 3900 428 3381 
L 325 3431 
z
" transform="scale(0.015625)"/>
      <path id="TimesNewRomanPSMT-56" d="M 4544 4238 
L 4544 4122 
Q 4319 4081 4203 3978 
Q 4038 3825 3909 3509 
L 2431 -97 
L 2316 -97 
L 728 3556 
Q 606 3838 556 3900 
Q 478 3997 364 4051 
Q 250 4106 56 4122 
L 56 4238 
L 1788 4238 
L 1788 4122 
Q 1494 4094 1406 4022 
Q 1319 3950 1319 3838 
Q 1319 3681 1463 3350 
L 2541 866 
L 3541 3319 
Q 3688 3681 3688 3822 
Q 3688 3913 3597 3995 
Q 3506 4078 3291 4113 
Q 3275 4116 3238 4122 
L 3238 4238 
L 4544 4238 
z
" transform="scale(0.015625)"/>
     </defs>
     <use xlink:href="#TimesNewRomanPSMT-33"/>
     <use xlink:href="#TimesNewRomanPSMT-20" x="50"/>
     <use xlink:href="#TimesNewRomanPSMT-56" x="73.25"/>
     <use xlink:href="#TimesNewRomanPSMT-65" x="134.341797"/>
     <use xlink:href="#TimesNewRomanPSMT-73" x="178.726562"/>
     <use xlink:href="#TimesNewRomanPSMT-73" x="217.642578"/>
     <use xlink:href="#TimesNewRomanPSMT-65" x="256.558594"/>
     <use xlink:href="#TimesNewRomanPSMT-6c" x="300.943359"/>
     <use xlink:href="#TimesNewRomanPSMT-73" x="328.726562"/>
    </g>
   </g>
  </g>
  <g id="axes_2">
   <g id="patch_7">
    <path d="M 148.771035 179.399 
L 219.82121 179.399 
L 219.82121 23.199 
L 148.771035 23.199 
z
" style="fill: #ffffff"/>
   </g>
   <g id="PolyCollection_3">
    <path d="M 170.575598 165.125202 
L 160.021901 165.125202 
L 158.467925 161.518486 
L 156.821921 157.91177 
L 155.213922 154.305053 
L 153.795509 150.698337 
L 152.715998 147.091621 
L 152.095341 143.484905 
L 152.000589 139.878189 
L 152.43245 136.271473 
L 153.325871 132.664756 
L 154.564469 129.05804 
L 156.004599 125.451324 
L 157.502312 121.844608 
L 158.936294 118.237892 
L 160.221916 114.631175 
L 161.314791 111.024459 
L 162.205433 107.417743 
L 162.908617 103.811027 
L 163.451562 100.204311 
L 163.86414 96.597595 
L 164.17278 92.990878 
L 164.398138 89.384162 
L 164.555566 85.777446 
L 164.656985 82.17073 
L 164.712936 78.564014 
L 164.733978 74.957298 
L 164.73115 71.350581 
L 164.715538 67.743865 
L 164.697276 64.137149 
L 164.684418 60.530433 
L 164.682102 56.923717 
L 164.692318 53.317001 
L 164.714374 49.710284 
L 164.745878 46.103568 
L 164.78387 42.496852 
L 164.825683 38.890136 
L 164.86928 35.28342 
L 164.91311 31.676704 
L 164.955753 28.069987 
L 164.995712 24.463271 
L 165.031554 20.856555 
L 165.062324 17.249839 
L 165.087973 13.643123 
L 165.109482 10.036406 
L 165.128572 6.42969 
L 165.147093 2.822974 
L 165.166369 -0.783742 
L 165.186797 -4.390458 
L 165.207826 -7.997174 
L 165.228284 -11.603891 
L 165.246858 -15.210607 
L 165.262517 -18.817323 
L 165.274737 -22.424039 
L 165.283498 -26.030755 
L 165.289117 -29.637471 
L 165.292007 -33.244188 
L 165.292469 -36.850904 
L 165.290565 -40.45762 
L 165.286093 -44.064336 
L 165.278697 -47.671052 
L 165.268067 -51.277768 
L 165.254214 -54.884485 
L 165.237729 -58.491201 
L 165.219931 -62.097917 
L 165.202807 -65.704633 
L 165.188703 -69.311349 
L 165.179813 -72.918065 
L 165.177626 -76.524782 
L 165.182522 -80.131498 
L 165.193659 -83.738214 
L 165.209215 -87.34493 
L 165.226874 -90.951646 
L 165.244381 -94.558362 
L 165.259998 -98.165079 
L 165.272725 -101.771795 
L 165.282281 -105.378511 
L 165.28893 -108.985227 
L 165.293232 -112.591943 
L 165.295829 -116.19866 
L 165.297292 -119.805376 
L 165.298062 -123.412092 
L 165.298439 -127.018808 
L 165.298601 -130.625524 
L 165.29864 -134.23224 
L 165.298581 -137.838957 
L 165.298387 -141.445673 
L 165.297951 -145.052389 
L 165.297074 -148.659105 
L 165.29543 -152.265821 
L 165.292552 -155.872537 
L 165.287845 -159.479254 
L 165.280671 -163.08597 
L 165.270508 -166.692686 
L 165.257179 -170.299402 
L 165.241094 -173.906118 
L 165.223401 -177.512834 
L 165.205964 -181.119551 
L 165.19109 -184.726267 
L 165.181044 -188.332983 
L 165.177491 -191.939699 
L 165.420009 -191.939699 
L 165.420009 -191.939699 
L 165.416456 -188.332983 
L 165.40641 -184.726267 
L 165.391536 -181.119551 
L 165.374099 -177.512834 
L 165.356406 -173.906118 
L 165.34032 -170.299402 
L 165.326992 -166.692686 
L 165.316829 -163.08597 
L 165.309655 -159.479254 
L 165.304948 -155.872537 
L 165.302069 -152.265821 
L 165.300426 -148.659105 
L 165.299548 -145.052389 
L 165.299113 -141.445673 
L 165.298919 -137.838957 
L 165.29886 -134.23224 
L 165.298899 -130.625524 
L 165.299061 -127.018808 
L 165.299437 -123.412092 
L 165.300208 -119.805376 
L 165.301671 -116.19866 
L 165.304267 -112.591943 
L 165.30857 -108.985227 
L 165.315219 -105.378511 
L 165.324775 -101.771795 
L 165.337501 -98.165079 
L 165.353119 -94.558362 
L 165.370626 -90.951646 
L 165.388284 -87.34493 
L 165.403841 -83.738214 
L 165.414978 -80.131498 
L 165.419874 -76.524782 
L 165.417687 -72.918065 
L 165.408797 -69.311349 
L 165.394692 -65.704633 
L 165.377569 -62.097917 
L 165.359771 -58.491201 
L 165.343285 -54.884485 
L 165.329432 -51.277768 
L 165.318803 -47.671052 
L 165.311407 -44.064336 
L 165.306935 -40.45762 
L 165.30503 -36.850904 
L 165.305493 -33.244188 
L 165.308383 -29.637471 
L 165.314002 -26.030755 
L 165.322763 -22.424039 
L 165.334983 -18.817323 
L 165.350642 -15.210607 
L 165.369216 -11.603891 
L 165.389674 -7.997174 
L 165.410703 -4.390458 
L 165.431131 -0.783742 
L 165.450407 2.822974 
L 165.468928 6.42969 
L 165.488018 10.036406 
L 165.509527 13.643123 
L 165.535176 17.249839 
L 165.565946 20.856555 
L 165.601788 24.463271 
L 165.641747 28.069987 
L 165.684389 31.676704 
L 165.72822 35.28342 
L 165.771817 38.890136 
L 165.81363 42.496852 
L 165.851622 46.103568 
L 165.883126 49.710284 
L 165.905182 53.317001 
L 165.915398 56.923717 
L 165.913082 60.530433 
L 165.900224 64.137149 
L 165.881962 67.743865 
L 165.866349 71.350581 
L 165.863522 74.957298 
L 165.884564 78.564014 
L 165.940514 82.17073 
L 166.041934 85.777446 
L 166.199362 89.384162 
L 166.42472 92.990878 
L 166.73336 96.597595 
L 167.145938 100.204311 
L 167.688883 103.811027 
L 168.392067 107.417743 
L 169.282709 111.024459 
L 170.375584 114.631175 
L 171.661206 118.237892 
L 173.095188 121.844608 
L 174.592901 125.451324 
L 176.033031 129.05804 
L 177.271629 132.664756 
L 178.16505 136.271473 
L 178.596911 139.878189 
L 178.502159 143.484905 
L 177.881502 147.091621 
L 176.801991 150.698337 
L 175.383578 154.305053 
L 173.775579 157.91177 
L 172.129575 161.518486 
L 170.575598 165.125202 
z
" clip-path="url(#pc4eaee599d)" style="fill: #0080ff; fill-opacity: 0.3"/>
   </g>
   <g id="PolyCollection_4">
    <path d="M 205.593297 167.108718 
L 200.993695 167.108718 
L 200.361287 165.027084 
L 199.617097 162.94545 
L 198.760129 160.863817 
L 197.79709 158.782183 
L 196.744547 156.700549 
L 195.630241 154.618915 
L 194.492987 152.537281 
L 193.380825 150.455647 
L 192.347453 148.374013 
L 191.447391 146.292379 
L 190.73063 144.210746 
L 190.237619 142.129112 
L 189.995335 140.047478 
L 190.014919 137.965844 
L 190.291027 135.88421 
L 190.802777 133.802576 
L 191.516021 131.720942 
L 192.386618 129.639309 
L 193.364369 127.557675 
L 194.397287 125.476041 
L 195.43581 123.394407 
L 196.436538 121.312773 
L 197.365067 119.231139 
L 198.197583 117.149505 
L 198.921085 115.067871 
L 199.532355 112.986238 
L 200.036027 110.904604 
L 200.442247 108.82297 
L 200.764391 106.741336 
L 201.017186 104.659702 
L 201.21537 102.578068 
L 201.372817 100.496434 
L 201.501976 98.414801 
L 201.613451 96.333167 
L 201.715613 94.251533 
L 201.814267 92.169899 
L 201.912471 90.088265 
L 202.010616 88.006631 
L 202.10684 85.924997 
L 202.197756 83.843363 
L 202.279396 81.76173 
L 202.348199 79.680096 
L 202.401869 77.598462 
L 202.43995 75.516828 
L 202.464037 73.435194 
L 202.477581 71.35356 
L 202.485337 69.271926 
L 202.492553 67.190292 
L 202.504047 65.108659 
L 202.523358 63.027025 
L 202.552143 60.945391 
L 202.589974 58.863757 
L 202.634579 56.782123 
L 202.682476 54.700489 
L 202.729842 52.618855 
L 202.77341 50.537222 
L 202.811147 48.455588 
L 202.842581 46.373954 
L 202.868703 44.29232 
L 202.891511 42.210686 
L 202.913344 40.129052 
L 202.936189 38.047418 
L 202.961151 35.965784 
L 202.988196 33.884151 
L 203.016205 31.802517 
L 203.043296 29.720883 
L 203.067298 27.639249 
L 203.086262 25.557615 
L 203.09887 23.475981 
L 203.104666 21.394347 
L 203.104092 19.312714 
L 203.098332 17.23108 
L 203.089056 15.149446 
L 203.078111 13.067812 
L 203.067252 10.986178 
L 203.057961 8.904544 
L 203.051349 6.82291 
L 203.048158 4.741276 
L 203.048809 2.659643 
L 203.053466 0.578009 
L 203.062091 -1.503625 
L 203.074458 -3.585259 
L 203.09014 -5.666893 
L 203.108485 -7.748527 
L 203.128599 -9.830161 
L 203.149369 -11.911794 
L 203.169525 -13.993428 
L 203.187755 -16.075062 
L 203.202848 -18.156696 
L 203.213842 -20.23833 
L 203.220163 -22.319964 
L 203.221723 -24.401598 
L 203.21896 -26.483232 
L 203.212815 -28.564865 
L 203.204631 -30.646499 
L 203.195992 -32.728133 
L 203.188508 -34.809767 
L 203.183587 -36.891401 
L 203.182234 -38.973035 
L 203.404758 -38.973035 
L 203.404758 -38.973035 
L 203.403405 -36.891401 
L 203.398484 -34.809767 
L 203.391 -32.728133 
L 203.382361 -30.646499 
L 203.374177 -28.564865 
L 203.368032 -26.483232 
L 203.365269 -24.401598 
L 203.366829 -22.319964 
L 203.37315 -20.23833 
L 203.384144 -18.156696 
L 203.399237 -16.075062 
L 203.417467 -13.993428 
L 203.437623 -11.911794 
L 203.458393 -9.830161 
L 203.478507 -7.748527 
L 203.496852 -5.666893 
L 203.512534 -3.585259 
L 203.5249 -1.503625 
L 203.533526 0.578009 
L 203.538183 2.659643 
L 203.538834 4.741276 
L 203.535643 6.82291 
L 203.529031 8.904544 
L 203.519739 10.986178 
L 203.508881 13.067812 
L 203.497935 15.149446 
L 203.488659 17.23108 
L 203.4829 19.312714 
L 203.482325 21.394347 
L 203.488122 23.475981 
L 203.500729 25.557615 
L 203.519694 27.639249 
L 203.543696 29.720883 
L 203.570786 31.802517 
L 203.598796 33.884151 
L 203.625841 35.965784 
L 203.650803 38.047418 
L 203.673648 40.129052 
L 203.695481 42.210686 
L 203.718289 44.29232 
L 203.744411 46.373954 
L 203.775845 48.455588 
L 203.813582 50.537222 
L 203.85715 52.618855 
L 203.904516 54.700489 
L 203.952412 56.782123 
L 203.997017 58.863757 
L 204.034849 60.945391 
L 204.063634 63.027025 
L 204.082945 65.108659 
L 204.094439 67.190292 
L 204.101655 69.271926 
L 204.109411 71.35356 
L 204.122955 73.435194 
L 204.147042 75.516828 
L 204.185123 77.598462 
L 204.238792 79.680096 
L 204.307596 81.76173 
L 204.389236 83.843363 
L 204.480152 85.924997 
L 204.576376 88.006631 
L 204.674521 90.088265 
L 204.772725 92.169899 
L 204.871379 94.251533 
L 204.973541 96.333167 
L 205.085016 98.414801 
L 205.214175 100.496434 
L 205.371621 102.578068 
L 205.569805 104.659702 
L 205.822601 106.741336 
L 206.144745 108.82297 
L 206.550965 110.904604 
L 207.054637 112.986238 
L 207.665906 115.067871 
L 208.389408 117.149505 
L 209.221924 119.231139 
L 210.150454 121.312773 
L 211.151182 123.394407 
L 212.189705 125.476041 
L 213.222623 127.557675 
L 214.200374 129.639309 
L 215.070971 131.720942 
L 215.784215 133.802576 
L 216.295965 135.88421 
L 216.572073 137.965844 
L 216.591657 140.047478 
L 216.349372 142.129112 
L 215.856361 144.210746 
L 215.139601 146.292379 
L 214.239539 148.374013 
L 213.206167 150.455647 
L 212.094005 152.537281 
L 210.956751 154.618915 
L 209.842445 156.700549 
L 208.789902 158.782183 
L 207.826863 160.863817 
L 206.969895 162.94545 
L 206.225704 165.027084 
L 205.593297 167.108718 
z
" clip-path="url(#pc4eaee599d)" style="fill: #ff8000; fill-opacity: 0.3"/>
   </g>
   <g id="matplotlib.axis_3">
    <g id="xtick_3">
     <g id="line2d_7">
      <g>
       <use xlink:href="#m5316568ad4" x="165.29875" y="179.399" style="stroke: #000000; stroke-width: 0.8"/>
      </g>
     </g>
     <g id="text_11">
      <!-- MSR -->
      <g transform="translate(138.6325 194.34525) scale(0.12 -0.12)">
       <use xlink:href="#TimesNewRomanPS-BoldMT-4d"/>
       <use xlink:href="#TimesNewRomanPS-BoldMT-53" x="94.384766"/>
       <use xlink:href="#TimesNewRomanPS-BoldMT-52" x="150"/>
      </g>
     </g>
    </g>
    <g id="xtick_4">
     <g id="line2d_8">
      <g>
       <use xlink:href="#m5316568ad4" x="203.293496" y="179.399" style="stroke: #000000; stroke-width: 0.8"/>
      </g>
     </g>
     <g id="text_12">
      <!-- SBO -->
      <g transform="translate(179.282246 194.34525) scale(0.12 -0.12)">
       <use xlink:href="#TimesNewRomanPS-BoldMT-53"/>
       <use xlink:href="#TimesNewRomanPS-BoldMT-42" x="55.615234"/>
       <use xlink:href="#TimesNewRomanPS-BoldMT-4f" x="122.314453"/>
      </g>
     </g>
    </g>
   </g>
   <g id="matplotlib.axis_4"/>
   <g id="LineCollection_6">
    <path d="M 158.649669 130.245897 
L 171.94783 130.245897 
" clip-path="url(#pc4eaee599d)" style="fill: none; stroke: #000000; stroke-width: 2"/>
    <path d="M 196.644415 128.674032 
L 209.942576 128.674032 
" clip-path="url(#pc4eaee599d)" style="fill: none; stroke: #000000; stroke-width: 2"/>
   </g>
   <g id="LineCollection_7">
    <path clip-path="url(#pc4eaee599d)" style="fill: none; stroke: #1f77b4; stroke-width: 1.5"/>
    <path clip-path="url(#pc4eaee599d)" style="fill: none; stroke: #1f77b4; stroke-width: 1.5"/>
   </g>
   <g id="LineCollection_8">
    <path d="M 158.649669 165.125202 
L 171.94783 165.125202 
" clip-path="url(#pc4eaee599d)" style="fill: none; stroke: #1f77b4; stroke-width: 1.5"/>
    <path d="M 196.644415 167.108718 
L 209.942576 167.108718 
" clip-path="url(#pc4eaee599d)" style="fill: none; stroke: #1f77b4; stroke-width: 1.5"/>
   </g>
   <g id="LineCollection_9">
    <path d="M 165.29875 165.125202 
L 165.29875 -1 
" clip-path="url(#pc4eaee599d)" style="fill: none; stroke: #1f77b4; stroke-width: 1.5"/>
    <path d="M 203.293496 167.108718 
L 203.293496 -1 
" clip-path="url(#pc4eaee599d)" style="fill: none; stroke: #1f77b4; stroke-width: 1.5"/>
   </g>
   <g id="LineCollection_10">
    <path d="M 158.649669 139.672729 
L 171.94783 139.672729 
" clip-path="url(#pc4eaee599d)" style="fill: none; stroke-dasharray: 2,3.3; stroke-dashoffset: 0; stroke: #808080; stroke-width: 2"/>
    <path d="M 196.644415 136.663301 
L 209.942576 136.663301 
" clip-path="url(#pc4eaee599d)" style="fill: none; stroke-dasharray: 2,3.3; stroke-dashoffset: 0; stroke: #808080; stroke-width: 2"/>
   </g>
   <g id="patch_8">
    <path d="M 148.771035 179.399 
L 148.771035 23.199 
" style="fill: none; stroke: #000000; stroke-width: 0.8; stroke-linejoin: miter; stroke-linecap: square"/>
   </g>
   <g id="patch_9">
    <path d="M 219.82121 179.399 
L 219.82121 23.199 
" style="fill: none; stroke: #000000; stroke-width: 0.8; stroke-linejoin: miter; stroke-linecap: square"/>
   </g>
   <g id="patch_10">
    <path d="M 148.771035 179.399 
L 219.82121 179.399 
" style="fill: none; stroke: #000000; stroke-width: 0.8; stroke-linejoin: miter; stroke-linecap: square"/>
   </g>
   <g id="patch_11">
    <path d="M 148.771035 23.199 
L 219.82121 23.199 
" style="fill: none; stroke: #000000; stroke-width: 0.8; stroke-linejoin: miter; stroke-linecap: square"/>
   </g>
   <g id="text_13">
    <!-- 149 -->
    <g transform="translate(157.79875 39.183952) scale(0.1 -0.1)">
     <defs>
      <path id="TimesNewRomanPSMT-34" d="M 2978 1563 
L 2978 1119 
L 2409 1119 
L 2409 0 
L 1894 0 
L 1894 1119 
L 100 1119 
L 100 1519 
L 2066 4325 
L 2409 4325 
L 2409 1563 
L 2978 1563 
z
M 1894 1563 
L 1894 3666 
L 406 1563 
L 1894 1563 
z
" transform="scale(0.015625)"/>
     </defs>
     <use xlink:href="#TimesNewRomanPSMT-31"/>
     <use xlink:href="#TimesNewRomanPSMT-34" x="50"/>
     <use xlink:href="#TimesNewRomanPSMT-39" x="100"/>
    </g>
   </g>
   <g id="text_14">
    <!-- 205 -->
    <g transform="translate(195.793496 39.183952) scale(0.1 -0.1)">
     <defs>
      <path id="TimesNewRomanPSMT-32" d="M 2934 816 
L 2638 0 
L 138 0 
L 138 116 
Q 1241 1122 1691 1759 
Q 2141 2397 2141 2925 
Q 2141 3328 1894 3587 
Q 1647 3847 1303 3847 
Q 991 3847 742 3664 
Q 494 3481 375 3128 
L 259 3128 
Q 338 3706 661 4015 
Q 984 4325 1469 4325 
Q 1984 4325 2329 3994 
Q 2675 3663 2675 3213 
Q 2675 2891 2525 2569 
Q 2294 2063 1775 1497 
Q 997 647 803 472 
L 1909 472 
Q 2247 472 2383 497 
Q 2519 522 2628 598 
Q 2738 675 2819 816 
L 2934 816 
z
" transform="scale(0.015625)"/>
     </defs>
     <use xlink:href="#TimesNewRomanPSMT-32"/>
     <use xlink:href="#TimesNewRomanPSMT-30" x="50"/>
     <use xlink:href="#TimesNewRomanPSMT-35" x="100"/>
    </g>
   </g>
   <g id="text_15">
    <!-- 4 Vessels -->
    <g transform="translate(157.823748 17.199) scale(0.144 -0.144)">
     <use xlink:href="#TimesNewRomanPSMT-34"/>
     <use xlink:href="#TimesNewRomanPSMT-20" x="50"/>
     <use xlink:href="#TimesNewRomanPSMT-56" x="73.25"/>
     <use xlink:href="#TimesNewRomanPSMT-65" x="134.341797"/>
     <use xlink:href="#TimesNewRomanPSMT-73" x="178.726562"/>
     <use xlink:href="#TimesNewRomanPSMT-73" x="217.642578"/>
     <use xlink:href="#TimesNewRomanPSMT-65" x="256.558594"/>
     <use xlink:href="#TimesNewRomanPSMT-6c" x="300.943359"/>
     <use xlink:href="#TimesNewRomanPSMT-73" x="328.726562"/>
    </g>
   </g>
  </g>
  <g id="axes_3">
   <g id="patch_12">
    <path d="M 245.350977 179.399 
L 316.401152 179.399 
L 316.401152 23.199 
L 245.350977 23.199 
z
" style="fill: #ffffff"/>
   </g>
   <g id="PolyCollection_5">
    <path d="M 266.041483 165.785429 
L 257.7159 165.785429 
L 256.650495 163.531116 
L 255.475211 161.276803 
L 254.230033 159.02249 
L 252.96863 156.768177 
L 251.754746 154.513864 
L 250.656691 152.259551 
L 249.740681 150.005238 
L 249.064074 147.750926 
L 248.669482 145.496613 
L 248.58053 143.2423 
L 248.799682 140.987987 
L 249.308207 138.733674 
L 250.068174 136.479361 
L 251.026196 134.225048 
L 252.118597 131.970735 
L 253.277562 129.716423 
L 254.437643 127.46211 
L 255.541868 125.207797 
L 256.546594 122.953484 
L 257.424362 120.699171 
L 258.164291 118.444858 
L 258.770065 116.190545 
L 259.256042 113.936232 
L 259.642431 111.681919 
L 259.95062 109.427607 
L 260.19958 107.173294 
L 260.403896 104.918981 
L 260.573441 102.664668 
L 260.714326 100.410355 
L 260.830445 98.156042 
L 260.924992 95.901729 
L 261.001457 93.647416 
L 261.063943 91.393104 
L 261.116888 89.138791 
L 261.164459 86.884478 
L 261.209918 84.630165 
L 261.255185 82.375852 
L 261.300707 80.121539 
L 261.3456 77.867226 
L 261.387988 75.612913 
L 261.425428 73.358601 
L 261.455356 71.104288 
L 261.475515 68.849975 
L 261.484359 66.595662 
L 261.481393 64.341349 
L 261.467422 62.087036 
L 261.444623 59.832723 
L 261.416398 57.57841 
L 261.387 55.324098 
L 261.360959 53.069785 
L 261.342454 50.815472 
L 261.334733 48.561159 
L 261.339716 46.306846 
L 261.357851 44.052533 
L 261.388208 41.79822 
L 261.428769 39.543907 
L 261.476804 37.289594 
L 261.529268 35.035282 
L 261.583144 32.780969 
L 261.635706 30.526656 
L 261.68471 28.272343 
L 261.728501 26.01803 
L 261.766064 23.763717 
L 261.797 21.509404 
L 261.821459 19.255091 
L 261.840012 17.000779 
L 261.853504 14.746466 
L 261.862905 12.492153 
L 261.869177 10.23784 
L 261.873182 7.983527 
L 261.875628 5.729214 
L 261.877057 3.474901 
L 261.877855 1.220588 
L 261.878281 -1.033724 
L 261.878498 -3.288037 
L 261.878603 -5.54235 
L 261.87865 -7.796663 
L 261.878666 -10.050976 
L 261.878661 -12.305289 
L 261.878632 -14.559602 
L 261.878562 -16.813915 
L 261.878413 -19.068228 
L 261.878117 -21.32254 
L 261.877556 -23.576853 
L 261.876544 -25.831166 
L 261.874806 -28.085479 
L 261.871962 -30.339792 
L 261.867539 -32.594105 
L 261.861003 -34.848418 
L 261.851841 -37.102731 
L 261.839687 -39.357043 
L 261.824466 -41.611356 
L 261.806544 -43.865669 
L 261.786826 -46.119982 
L 261.766746 -48.374295 
L 261.74814 -50.628608 
L 261.732986 -52.882921 
L 261.723061 -55.137234 
L 261.719605 -57.391546 
L 262.037779 -57.391546 
L 262.037779 -57.391546 
L 262.034322 -55.137234 
L 262.024398 -52.882921 
L 262.009243 -50.628608 
L 261.990637 -48.374295 
L 261.970557 -46.119982 
L 261.950839 -43.865669 
L 261.932918 -41.611356 
L 261.917696 -39.357043 
L 261.905542 -37.102731 
L 261.896381 -34.848418 
L 261.889844 -32.594105 
L 261.885421 -30.339792 
L 261.882577 -28.085479 
L 261.880839 -25.831166 
L 261.879827 -23.576853 
L 261.879267 -21.32254 
L 261.87897 -19.068228 
L 261.878822 -16.813915 
L 261.878751 -14.559602 
L 261.878722 -12.305289 
L 261.878717 -10.050976 
L 261.878733 -7.796663 
L 261.87878 -5.54235 
L 261.878885 -3.288037 
L 261.879102 -1.033724 
L 261.879528 1.220588 
L 261.880326 3.474901 
L 261.881755 5.729214 
L 261.884201 7.983527 
L 261.888206 10.23784 
L 261.894478 12.492153 
L 261.903879 14.746466 
L 261.917371 17.000779 
L 261.935924 19.255091 
L 261.960383 21.509404 
L 261.99132 23.763717 
L 262.028882 26.01803 
L 262.072673 28.272343 
L 262.121677 30.526656 
L 262.174239 32.780969 
L 262.228115 35.035282 
L 262.280579 37.289594 
L 262.328614 39.543907 
L 262.369175 41.79822 
L 262.399533 44.052533 
L 262.417667 46.306846 
L 262.422651 48.561159 
L 262.414929 50.815472 
L 262.396424 53.069785 
L 262.370384 55.324098 
L 262.340985 57.57841 
L 262.312761 59.832723 
L 262.289961 62.087036 
L 262.27599 64.341349 
L 262.273024 66.595662 
L 262.281868 68.849975 
L 262.302027 71.104288 
L 262.331955 73.358601 
L 262.369395 75.612913 
L 262.411783 77.867226 
L 262.456676 80.121539 
L 262.502198 82.375852 
L 262.547466 84.630165 
L 262.592924 86.884478 
L 262.640495 89.138791 
L 262.69344 91.393104 
L 262.755926 93.647416 
L 262.832391 95.901729 
L 262.926938 98.156042 
L 263.043057 100.410355 
L 263.183942 102.664668 
L 263.353487 104.918981 
L 263.557803 107.173294 
L 263.806763 109.427607 
L 264.114952 111.681919 
L 264.501342 113.936232 
L 264.987318 116.190545 
L 265.593092 118.444858 
L 266.333021 120.699171 
L 267.210789 122.953484 
L 268.215516 125.207797 
L 269.31974 127.46211 
L 270.479821 129.716423 
L 271.638786 131.970735 
L 272.731188 134.225048 
L 273.689209 136.479361 
L 274.449176 138.733674 
L 274.957701 140.987987 
L 275.176853 143.2423 
L 275.087901 145.496613 
L 274.693309 147.750926 
L 274.016702 150.005238 
L 273.100693 152.259551 
L 272.002637 154.513864 
L 270.788753 156.768177 
L 269.52735 159.02249 
L 268.282173 161.276803 
L 267.106888 163.531116 
L 266.041483 165.785429 
z
" clip-path="url(#pf32b2309f7)" style="fill: #0080ff; fill-opacity: 0.3"/>
   </g>
   <g id="PolyCollection_6">
    <path d="M 306.631091 164.789227 
L 293.115784 164.789227 
L 291.202094 159.887559 
L 289.367504 154.98589 
L 287.850214 150.084221 
L 286.870303 145.182552 
L 286.575276 140.280884 
L 287.000475 135.379215 
L 288.059185 130.477546 
L 289.566771 125.575877 
L 291.290254 120.674209 
L 293.005506 115.77254 
L 294.542929 110.870871 
L 295.809301 105.969202 
L 296.784266 101.067534 
L 297.4993 96.165865 
L 298.010971 91.264196 
L 298.378524 86.362527 
L 298.650733 81.460859 
L 298.861797 76.55919 
L 299.033054 71.657521 
L 299.17683 66.755852 
L 299.299945 61.854184 
L 299.405949 56.952515 
L 299.496247 52.050846 
L 299.570639 47.149177 
L 299.627771 42.247509 
L 299.66578 37.34584 
L 299.683236 32.444171 
L 299.680289 27.542502 
L 299.659665 22.640834 
L 299.627079 17.739165 
L 299.59064 12.837496 
L 299.559239 7.935827 
L 299.540372 3.034159 
L 299.538213 -1.86751 
L 299.552703 -6.769179 
L 299.580017 -11.670848 
L 299.614176 -16.572516 
L 299.649137 -21.474185 
L 299.680557 -26.375854 
L 299.706657 -31.277523 
L 299.728019 -36.179191 
L 299.746589 -41.08086 
L 299.764403 -45.982529 
L 299.782622 -50.884198 
L 299.801191 -55.785866 
L 299.819123 -60.687535 
L 299.835126 -65.589204 
L 299.848201 -70.490873 
L 299.857958 -75.392541 
L 299.864613 -80.29421 
L 299.868767 -85.195879 
L 299.871144 -90.097548 
L 299.872393 -94.999216 
L 299.872997 -99.900885 
L 299.873265 -104.802554 
L 299.873375 -109.704223 
L 299.873417 -114.605891 
L 299.873431 -119.50756 
L 299.873436 -124.409229 
L 299.873437 -129.310898 
L 299.873437 -134.212566 
L 299.873437 -139.114235 
L 299.873437 -144.015904 
L 299.873436 -148.917573 
L 299.873432 -153.819241 
L 299.873419 -158.72091 
L 299.873381 -163.622579 
L 299.87328 -168.524248 
L 299.873031 -173.425916 
L 299.872469 -178.327585 
L 299.8713 -183.229254 
L 299.869063 -188.130922 
L 299.865142 -193.032591 
L 299.858861 -197.93426 
L 299.849702 -202.835929 
L 299.837622 -207.737597 
L 299.823355 -212.639266 
L 299.808538 -217.540935 
L 299.795504 -222.442604 
L 299.786713 -227.344272 
L 299.784005 -232.245941 
L 299.787973 -237.14761 
L 299.797749 -242.049279 
L 299.811312 -246.950947 
L 299.826154 -251.852616 
L 299.840008 -256.754285 
L 299.851327 -261.655954 
L 299.859388 -266.557622 
L 299.864072 -271.459291 
L 299.865506 -276.36096 
L 299.863765 -281.262629 
L 299.858761 -286.164297 
L 299.850374 -291.065966 
L 299.838767 -295.967635 
L 299.824737 -300.869304 
L 299.809911 -305.770972 
L 299.796606 -310.672641 
L 299.787315 -315.57431 
L 299.783974 -320.475979 
L 299.962901 -320.475979 
L 299.962901 -320.475979 
L 299.959561 -315.57431 
L 299.950269 -310.672641 
L 299.936964 -305.770972 
L 299.922138 -300.869304 
L 299.908108 -295.967635 
L 299.896501 -291.065966 
L 299.888114 -286.164297 
L 299.88311 -281.262629 
L 299.881369 -276.36096 
L 299.882803 -271.459291 
L 299.887487 -266.557622 
L 299.895548 -261.655954 
L 299.906867 -256.754285 
L 299.920722 -251.852616 
L 299.935563 -246.950947 
L 299.949126 -242.049279 
L 299.958902 -237.14761 
L 299.96287 -232.245941 
L 299.960162 -227.344272 
L 299.951371 -222.442604 
L 299.938337 -217.540935 
L 299.92352 -212.639266 
L 299.909253 -207.737597 
L 299.897173 -202.835929 
L 299.888014 -197.93426 
L 299.881733 -193.032591 
L 299.877812 -188.130922 
L 299.875576 -183.229254 
L 299.874406 -178.327585 
L 299.873844 -173.425916 
L 299.873596 -168.524248 
L 299.873495 -163.622579 
L 299.873457 -158.72091 
L 299.873443 -153.819241 
L 299.873439 -148.917573 
L 299.873438 -144.015904 
L 299.873438 -139.114235 
L 299.873438 -134.212566 
L 299.873438 -129.310898 
L 299.873439 -124.409229 
L 299.873444 -119.50756 
L 299.873459 -114.605891 
L 299.8735 -109.704223 
L 299.87361 -104.802554 
L 299.873879 -99.900885 
L 299.874482 -94.999216 
L 299.875731 -90.097548 
L 299.878109 -85.195879 
L 299.882262 -80.29421 
L 299.888917 -75.392541 
L 299.898674 -70.490873 
L 299.911749 -65.589204 
L 299.927752 -60.687535 
L 299.945684 -55.785866 
L 299.964253 -50.884198 
L 299.982472 -45.982529 
L 300.000286 -41.08086 
L 300.018856 -36.179191 
L 300.040219 -31.277523 
L 300.066318 -26.375854 
L 300.097738 -21.474185 
L 300.132699 -16.572516 
L 300.166858 -11.670848 
L 300.194172 -6.769179 
L 300.208662 -1.86751 
L 300.206504 3.034159 
L 300.187636 7.935827 
L 300.156235 12.837496 
L 300.119796 17.739165 
L 300.08721 22.640834 
L 300.066587 27.542502 
L 300.063639 32.444171 
L 300.081096 37.34584 
L 300.119104 42.247509 
L 300.176236 47.149177 
L 300.250628 52.050846 
L 300.340926 56.952515 
L 300.44693 61.854184 
L 300.570045 66.755852 
L 300.713821 71.657521 
L 300.885078 76.55919 
L 301.096142 81.460859 
L 301.368351 86.362527 
L 301.735904 91.264196 
L 302.247575 96.165865 
L 302.962609 101.067534 
L 303.937574 105.969202 
L 305.203946 110.870871 
L 306.741369 115.77254 
L 308.456621 120.674209 
L 310.180104 125.575877 
L 311.68769 130.477546 
L 312.7464 135.379215 
L 313.171599 140.280884 
L 312.876572 145.182552 
L 311.896662 150.084221 
L 310.379371 154.98589 
L 308.544781 159.887559 
L 306.631091 164.789227 
z
" clip-path="url(#pf32b2309f7)" style="fill: #ff8000; fill-opacity: 0.3"/>
   </g>
   <g id="matplotlib.axis_5">
    <g id="xtick_5">
     <g id="line2d_9">
      <g>
       <use xlink:href="#m5316568ad4" x="261.878692" y="179.399" style="stroke: #000000; stroke-width: 0.8"/>
      </g>
     </g>
     <g id="text_16">
      <!-- MSR -->
      <g transform="translate(235.212442 194.34525) scale(0.12 -0.12)">
       <use xlink:href="#TimesNewRomanPS-BoldMT-4d"/>
       <use xlink:href="#TimesNewRomanPS-BoldMT-53" x="94.384766"/>
       <use xlink:href="#TimesNewRomanPS-BoldMT-52" x="150"/>
      </g>
     </g>
    </g>
    <g id="xtick_6">
     <g id="line2d_10">
      <g>
       <use xlink:href="#m5316568ad4" x="299.873438" y="179.399" style="stroke: #000000; stroke-width: 0.8"/>
      </g>
     </g>
     <g id="text_17">
      <!-- SBO -->
      <g transform="translate(275.862188 194.34525) scale(0.12 -0.12)">
       <use xlink:href="#TimesNewRomanPS-BoldMT-53"/>
       <use xlink:href="#TimesNewRomanPS-BoldMT-42" x="55.615234"/>
       <use xlink:href="#TimesNewRomanPS-BoldMT-4f" x="122.314453"/>
      </g>
     </g>
    </g>
   </g>
   <g id="matplotlib.axis_6"/>
   <g id="LineCollection_11">
    <path d="M 255.229611 135.251504 
L 268.527772 135.251504 
" clip-path="url(#pf32b2309f7)" style="fill: none; stroke: #000000; stroke-width: 2"/>
    <path d="M 293.224357 128.110965 
L 306.522518 128.110965 
" clip-path="url(#pf32b2309f7)" style="fill: none; stroke: #000000; stroke-width: 2"/>
   </g>
   <g id="LineCollection_12">
    <path clip-path="url(#pf32b2309f7)" style="fill: none; stroke: #1f77b4; stroke-width: 1.5"/>
    <path clip-path="url(#pf32b2309f7)" style="fill: none; stroke: #1f77b4; stroke-width: 1.5"/>
   </g>
   <g id="LineCollection_13">
    <path d="M 255.229611 165.785429 
L 268.527772 165.785429 
" clip-path="url(#pf32b2309f7)" style="fill: none; stroke: #1f77b4; stroke-width: 1.5"/>
    <path d="M 293.224357 164.789227 
L 306.522518 164.789227 
" clip-path="url(#pf32b2309f7)" style="fill: none; stroke: #1f77b4; stroke-width: 1.5"/>
   </g>
   <g id="LineCollection_14">
    <path d="M 261.878692 165.785429 
L 261.878692 -1 
" clip-path="url(#pf32b2309f7)" style="fill: none; stroke: #1f77b4; stroke-width: 1.5"/>
    <path d="M 299.873438 164.789227 
L 299.873438 -1 
" clip-path="url(#pf32b2309f7)" style="fill: none; stroke: #1f77b4; stroke-width: 1.5"/>
   </g>
   <g id="LineCollection_15">
    <path d="M 255.229611 141.564122 
L 268.527772 141.564122 
" clip-path="url(#pf32b2309f7)" style="fill: none; stroke-dasharray: 2,3.3; stroke-dashoffset: 0; stroke: #808080; stroke-width: 2"/>
    <path d="M 293.224357 139.804675 
L 306.522518 139.804675 
" clip-path="url(#pf32b2309f7)" style="fill: none; stroke-dasharray: 2,3.3; stroke-dashoffset: 0; stroke: #808080; stroke-width: 2"/>
   </g>
   <g id="patch_13">
    <path d="M 245.350977 179.399 
L 245.350977 23.199 
" style="fill: none; stroke: #000000; stroke-width: 0.8; stroke-linejoin: miter; stroke-linecap: square"/>
   </g>
   <g id="patch_14">
    <path d="M 316.401152 179.399 
L 316.401152 23.199 
" style="fill: none; stroke: #000000; stroke-width: 0.8; stroke-linejoin: miter; stroke-linecap: square"/>
   </g>
   <g id="patch_15">
    <path d="M 245.350977 179.399 
L 316.401152 179.399 
" style="fill: none; stroke: #000000; stroke-width: 0.8; stroke-linejoin: miter; stroke-linecap: square"/>
   </g>
   <g id="patch_16">
    <path d="M 245.350977 23.199 
L 316.401152 23.199 
" style="fill: none; stroke: #000000; stroke-width: 0.8; stroke-linejoin: miter; stroke-linecap: square"/>
   </g>
   <g id="text_18">
    <!-- 129 -->
    <g transform="translate(254.378692 39.183952) scale(0.1 -0.1)">
     <use xlink:href="#TimesNewRomanPSMT-31"/>
     <use xlink:href="#TimesNewRomanPSMT-32" x="50"/>
     <use xlink:href="#TimesNewRomanPSMT-39" x="100"/>
    </g>
   </g>
   <g id="text_19">
    <!-- 195 -->
    <g transform="translate(292.373438 39.183952) scale(0.1 -0.1)">
     <use xlink:href="#TimesNewRomanPSMT-31"/>
     <use xlink:href="#TimesNewRomanPSMT-39" x="50"/>
     <use xlink:href="#TimesNewRomanPSMT-35" x="100"/>
    </g>
   </g>
   <g id="text_20">
    <!-- 5 Vessels -->
    <g transform="translate(254.40369 17.199) scale(0.144 -0.144)">
     <use xlink:href="#TimesNewRomanPSMT-35"/>
     <use xlink:href="#TimesNewRomanPSMT-20" x="50"/>
     <use xlink:href="#TimesNewRomanPSMT-56" x="73.25"/>
     <use xlink:href="#TimesNewRomanPSMT-65" x="134.341797"/>
     <use xlink:href="#TimesNewRomanPSMT-73" x="178.726562"/>
     <use xlink:href="#TimesNewRomanPSMT-73" x="217.642578"/>
     <use xlink:href="#TimesNewRomanPSMT-65" x="256.558594"/>
     <use xlink:href="#TimesNewRomanPSMT-6c" x="300.943359"/>
     <use xlink:href="#TimesNewRomanPSMT-73" x="328.726562"/>
    </g>
   </g>
  </g>
  <g id="axes_4">
   <g id="patch_17">
    <path d="M 341.930919 179.399 
L 412.981094 179.399 
L 412.981094 23.199 
L 341.930919 23.199 
z
" style="fill: #ffffff"/>
   </g>
   <g id="PolyCollection_7">
    <path d="M 363.960955 163.043564 
L 352.956312 163.043564 
L 351.169111 159.908643 
L 349.321611 156.773722 
L 347.609534 153.638801 
L 346.239928 150.50388 
L 345.388229 147.368958 
L 345.160472 144.234037 
L 345.572493 141.099116 
L 346.551542 137.964195 
L 347.957484 134.829274 
L 349.614944 131.694352 
L 351.346361 128.559431 
L 352.998558 125.42451 
L 354.459351 122.289589 
L 355.663987 119.154668 
L 356.592907 116.019746 
L 357.263083 112.884825 
L 357.715543 109.749904 
L 358.001975 106.614983 
L 358.173135 103.480062 
L 358.271019 100.34514 
L 358.325536 97.210219 
L 358.355091 94.075298 
L 358.369622 90.940377 
L 358.374346 87.805456 
L 358.372814 84.670535 
L 358.36853 81.535613 
L 358.365132 78.400692 
L 358.36566 75.265771 
L 358.371687 72.13085 
L 358.382936 68.995929 
L 358.397597 65.861007 
L 358.413171 62.726086 
L 358.427394 59.591165 
L 358.438841 56.456244 
L 358.447073 53.321323 
L 358.452399 50.186401 
L 358.455501 47.05148 
L 358.457083 43.916559 
L 358.45766 40.781638 
L 358.457465 37.646717 
L 358.456415 34.511796 
L 358.454126 31.376874 
L 358.449966 28.241953 
L 358.44321 25.107032 
L 358.433326 21.972111 
L 358.420367 18.83719 
L 358.40532 15.702268 
L 358.390191 12.567347 
L 358.377675 9.432426 
L 358.370395 6.297505 
L 358.370017 3.162584 
L 358.376632 0.027662 
L 358.388716 -3.107259 
L 358.403704 -6.24218 
L 358.41887 -9.377101 
L 358.43211 -12.512022 
L 358.442332 -15.646944 
L 358.449402 -18.781865 
L 358.453816 -21.916786 
L 358.456317 -25.051707 
L 358.457607 -28.186628 
L 358.458214 -31.321549 
L 358.458476 -34.456471 
L 358.458579 -37.591392 
L 358.458616 -40.726313 
L 358.458628 -43.861234 
L 358.458632 -46.996155 
L 358.458633 -50.131077 
L 358.458633 -53.265998 
L 358.458633 -56.400919 
L 358.458633 -59.53584 
L 358.458633 -62.670761 
L 358.458633 -65.805683 
L 358.458633 -68.940604 
L 358.458632 -72.075525 
L 358.458628 -75.210446 
L 358.458616 -78.345367 
L 358.45858 -81.480288 
L 358.458478 -84.61521 
L 358.458221 -87.750131 
L 358.457621 -90.885052 
L 358.456346 -94.019973 
L 358.453868 -97.154894 
L 358.449484 -100.289816 
L 358.442442 -103.424737 
L 358.432213 -106.559658 
L 358.418857 -109.694579 
L 358.403323 -112.8295 
L 358.387451 -115.964422 
L 358.373543 -119.099343 
L 358.36356 -122.234264 
L 358.358301 -125.369185 
L 358.357031 -128.504106 
L 358.35784 -131.639028 
L 358.358646 -134.773949 
L 358.358316 -137.90887 
L 358.357284 -141.043791 
L 358.357314 -144.178712 
L 358.360541 -147.313633 
L 358.556725 -147.313633 
L 358.556725 -147.313633 
L 358.559953 -144.178712 
L 358.559983 -141.043791 
L 358.55895 -137.90887 
L 358.55862 -134.773949 
L 358.559427 -131.639028 
L 358.560236 -128.504106 
L 358.558965 -125.369185 
L 358.553707 -122.234264 
L 358.543724 -119.099343 
L 358.529816 -115.964422 
L 358.513944 -112.8295 
L 358.498409 -109.694579 
L 358.485054 -106.559658 
L 358.474825 -103.424737 
L 358.467783 -100.289816 
L 358.463399 -97.154894 
L 358.460921 -94.019973 
L 358.459645 -90.885052 
L 358.459046 -87.750131 
L 358.458788 -84.61521 
L 358.458687 -81.480288 
L 358.45865 -78.345367 
L 358.458638 -75.210446 
L 358.458635 -72.075525 
L 358.458634 -68.940604 
L 358.458633 -65.805683 
L 358.458633 -62.670761 
L 358.458633 -59.53584 
L 358.458633 -56.400919 
L 358.458633 -53.265998 
L 358.458634 -50.131077 
L 358.458635 -46.996155 
L 358.458638 -43.861234 
L 358.458651 -40.726313 
L 358.458688 -37.591392 
L 358.458791 -34.456471 
L 358.459052 -31.321549 
L 358.459659 -28.186628 
L 358.460949 -25.051707 
L 358.46345 -21.916786 
L 358.467864 -18.781865 
L 358.474934 -15.646944 
L 358.485156 -12.512022 
L 358.498397 -9.377101 
L 358.513563 -6.24218 
L 358.528551 -3.107259 
L 358.540634 0.027662 
L 358.547249 3.162584 
L 358.546872 6.297505 
L 358.539592 9.432426 
L 358.527075 12.567347 
L 358.511947 15.702268 
L 358.496899 18.83719 
L 358.483941 21.972111 
L 358.474057 25.107032 
L 358.4673 28.241953 
L 358.46314 31.376874 
L 358.460851 34.511796 
L 358.459801 37.646717 
L 358.459606 40.781638 
L 358.460184 43.916559 
L 358.461765 47.05148 
L 358.464867 50.186401 
L 358.470194 53.321323 
L 358.478425 56.456244 
L 358.489872 59.591165 
L 358.504095 62.726086 
L 358.51967 65.861007 
L 358.53433 68.995929 
L 358.545579 72.13085 
L 358.551607 75.265771 
L 358.552134 78.400692 
L 358.548736 81.535613 
L 358.544453 84.670535 
L 358.54292 87.805456 
L 358.547644 90.940377 
L 358.562176 94.075298 
L 358.591731 97.210219 
L 358.646248 100.34514 
L 358.744131 103.480062 
L 358.915291 106.614983 
L 359.201724 109.749904 
L 359.654184 112.884825 
L 360.32436 116.019746 
L 361.25328 119.154668 
L 362.457915 122.289589 
L 363.918708 125.42451 
L 365.570905 128.559431 
L 367.302322 131.694352 
L 368.959782 134.829274 
L 370.365725 137.964195 
L 371.344773 141.099116 
L 371.756794 144.234037 
L 371.529037 147.368958 
L 370.677338 150.50388 
L 369.307733 153.638801 
L 367.595656 156.773722 
L 365.748155 159.908643 
L 363.960955 163.043564 
z
" clip-path="url(#p7c3463c075)" style="fill: #0080ff; fill-opacity: 0.3"/>
   </g>
   <g id="PolyCollection_8">
    <path d="M 399.257933 163.340569 
L 393.648825 163.340569 
L 392.502542 160.974778 
L 391.147354 158.608986 
L 389.639564 156.243195 
L 388.066146 153.877403 
L 386.538299 151.511611 
L 385.179131 149.14582 
L 384.106316 146.780028 
L 383.413339 144.414236 
L 383.155218 142.048445 
L 383.343684 139.682653 
L 383.952229 137.316861 
L 384.925864 134.95107 
L 386.188698 132.585278 
L 387.646487 130.219486 
L 389.188004 127.853695 
L 390.692398 125.487903 
L 392.046108 123.122111 
L 393.164969 120.75632 
L 394.011415 118.390528 
L 394.597838 116.024737 
L 394.974415 113.658945 
L 395.207732 111.293153 
L 395.360053 108.927362 
L 395.47667 106.56157 
L 395.583146 104.195778 
L 395.689377 101.829987 
L 395.795754 99.464195 
L 395.89809 97.098403 
L 395.990448 94.732612 
L 396.066745 92.36682 
L 396.122222 90.001028 
L 396.155104 87.635237 
L 396.167878 85.269445 
L 396.167345 82.903653 
L 396.163012 80.537862 
L 396.164257 78.17207 
L 396.177326 75.806279 
L 396.203411 73.440487 
L 396.238571 71.074695 
L 396.275501 68.708904 
L 396.306351 66.343112 
L 396.325454 63.97732 
L 396.330961 61.611529 
L 396.324938 59.245737 
L 396.312181 56.879945 
L 396.29843 54.514154 
L 396.288771 52.148362 
L 396.286658 49.78257 
L 396.293584 47.416779 
L 396.309139 45.050987 
L 396.331306 42.685195 
L 396.356965 40.319404 
L 396.382648 37.953612 
L 396.405388 35.58782 
L 396.423375 33.222029 
L 396.436143 30.856237 
L 396.444292 28.490446 
L 396.448955 26.124654 
L 396.451282 23.758862 
L 396.452112 21.393071 
L 396.451818 19.027279 
L 396.45028 16.661487 
L 396.446917 14.295696 
L 396.440827 11.929904 
L 396.431102 9.564112 
L 396.417353 7.198321 
L 396.400313 4.832529 
L 396.38219 2.466737 
L 396.3664 0.100946 
L 396.356592 -2.264846 
L 396.355289 -4.630638 
L 396.362841 -6.996429 
L 396.377269 -9.362221 
L 396.395108 -11.728012 
L 396.412748 -14.093804 
L 396.427576 -16.459596 
L 396.438455 -18.825387 
L 396.445518 -21.191179 
L 396.449608 -23.556971 
L 396.451731 -25.922762 
L 396.452723 -28.288554 
L 396.453141 -30.654346 
L 396.4533 -33.020137 
L 396.453353 -35.385929 
L 396.453362 -37.751721 
L 396.453341 -40.117512 
L 396.453261 -42.483304 
L 396.453034 -44.849096 
L 396.452458 -47.214887 
L 396.451141 -49.580679 
L 396.448424 -51.946471 
L 396.443389 -54.312262 
L 396.435037 -56.678054 
L 396.422708 -59.043845 
L 396.406667 -61.409637 
L 396.388587 -63.775429 
L 396.37153 -66.14122 
L 396.359209 -68.507012 
L 396.354703 -70.872804 
L 396.552055 -70.872804 
L 396.552055 -70.872804 
L 396.547549 -68.507012 
L 396.535229 -66.14122 
L 396.518171 -63.775429 
L 396.500091 -61.409637 
L 396.484051 -59.043845 
L 396.471721 -56.678054 
L 396.463369 -54.312262 
L 396.458335 -51.946471 
L 396.455618 -49.580679 
L 396.4543 -47.214887 
L 396.453724 -44.849096 
L 396.453497 -42.483304 
L 396.453417 -40.117512 
L 396.453396 -37.751721 
L 396.453406 -35.385929 
L 396.453458 -33.020137 
L 396.453617 -30.654346 
L 396.454035 -28.288554 
L 396.455027 -25.922762 
L 396.457151 -23.556971 
L 396.461241 -21.191179 
L 396.468304 -18.825387 
L 396.479183 -16.459596 
L 396.494011 -14.093804 
L 396.51165 -11.728012 
L 396.529489 -9.362221 
L 396.543918 -6.996429 
L 396.551469 -4.630638 
L 396.550167 -2.264846 
L 396.540359 0.100946 
L 396.524569 2.466737 
L 396.506445 4.832529 
L 396.489406 7.198321 
L 396.475657 9.564112 
L 396.465931 11.929904 
L 396.459841 14.295696 
L 396.456479 16.661487 
L 396.45494 19.027279 
L 396.454647 21.393071 
L 396.455476 23.758862 
L 396.457803 26.124654 
L 396.462466 28.490446 
L 396.470615 30.856237 
L 396.483384 33.222029 
L 396.50137 35.58782 
L 396.52411 37.953612 
L 396.549793 40.319404 
L 396.575453 42.685195 
L 396.59762 45.050987 
L 396.613175 47.416779 
L 396.6201 49.78257 
L 396.617988 52.148362 
L 396.608328 54.514154 
L 396.594577 56.879945 
L 396.58182 59.245737 
L 396.575798 61.611529 
L 396.581305 63.97732 
L 396.600408 66.343112 
L 396.631258 68.708904 
L 396.668188 71.074695 
L 396.703348 73.440487 
L 396.729433 75.806279 
L 396.742502 78.17207 
L 396.743747 80.537862 
L 396.739414 82.903653 
L 396.73888 85.269445 
L 396.751655 87.635237 
L 396.784536 90.001028 
L 396.840014 92.36682 
L 396.916311 94.732612 
L 397.008669 97.098403 
L 397.111004 99.464195 
L 397.217381 101.829987 
L 397.323613 104.195778 
L 397.430089 106.56157 
L 397.546706 108.927362 
L 397.699027 111.293153 
L 397.932344 113.658945 
L 398.30892 116.024737 
L 398.895343 118.390528 
L 399.74179 120.75632 
L 400.860651 123.122111 
L 402.21436 125.487903 
L 403.718755 127.853695 
L 405.260271 130.219486 
L 406.71806 132.585278 
L 407.980895 134.95107 
L 408.954529 137.316861 
L 409.563074 139.682653 
L 409.75154 142.048445 
L 409.493419 144.414236 
L 408.800443 146.780028 
L 407.727627 149.14582 
L 406.368459 151.511611 
L 404.840612 153.877403 
L 403.267194 156.243195 
L 401.759405 158.608986 
L 400.404216 160.974778 
L 399.257933 163.340569 
z
" clip-path="url(#p7c3463c075)" style="fill: #ff8000; fill-opacity: 0.3"/>
   </g>
   <g id="matplotlib.axis_7">
    <g id="xtick_7">
     <g id="line2d_11">
      <g>
       <use xlink:href="#m5316568ad4" x="358.458633" y="179.399" style="stroke: #000000; stroke-width: 0.8"/>
      </g>
     </g>
     <g id="text_21">
      <!-- MSR -->
      <g transform="translate(331.792383 194.34525) scale(0.12 -0.12)">
       <use xlink:href="#TimesNewRomanPS-BoldMT-4d"/>
       <use xlink:href="#TimesNewRomanPS-BoldMT-53" x="94.384766"/>
       <use xlink:href="#TimesNewRomanPS-BoldMT-52" x="150"/>
      </g>
     </g>
    </g>
    <g id="xtick_8">
     <g id="line2d_12">
      <g>
       <use xlink:href="#m5316568ad4" x="396.453379" y="179.399" style="stroke: #000000; stroke-width: 0.8"/>
      </g>
     </g>
     <g id="text_22">
      <!-- SBO -->
      <g transform="translate(372.442129 194.34525) scale(0.12 -0.12)">
       <use xlink:href="#TimesNewRomanPS-BoldMT-53"/>
       <use xlink:href="#TimesNewRomanPS-BoldMT-42" x="55.615234"/>
       <use xlink:href="#TimesNewRomanPS-BoldMT-4f" x="122.314453"/>
      </g>
     </g>
    </g>
   </g>
   <g id="matplotlib.axis_8"/>
   <g id="LineCollection_16">
    <path d="M 351.809553 140.042464 
L 365.107714 140.042464 
" clip-path="url(#p7c3463c075)" style="fill: none; stroke: #000000; stroke-width: 2"/>
    <path d="M 389.804299 136.934982 
L 403.10246 136.934982 
" clip-path="url(#p7c3463c075)" style="fill: none; stroke: #000000; stroke-width: 2"/>
   </g>
   <g id="LineCollection_17">
    <path clip-path="url(#p7c3463c075)" style="fill: none; stroke: #1f77b4; stroke-width: 1.5"/>
    <path clip-path="url(#p7c3463c075)" style="fill: none; stroke: #1f77b4; stroke-width: 1.5"/>
   </g>
   <g id="LineCollection_18">
    <path d="M 351.809553 163.043564 
L 365.107714 163.043564 
" clip-path="url(#p7c3463c075)" style="fill: none; stroke: #1f77b4; stroke-width: 1.5"/>
    <path d="M 389.804299 163.340569 
L 403.10246 163.340569 
" clip-path="url(#p7c3463c075)" style="fill: none; stroke: #1f77b4; stroke-width: 1.5"/>
   </g>
   <g id="LineCollection_19">
    <path d="M 358.458633 163.043564 
L 358.458633 -1 
" clip-path="url(#p7c3463c075)" style="fill: none; stroke: #1f77b4; stroke-width: 1.5"/>
    <path d="M 396.453379 163.340569 
L 396.453379 -1 
" clip-path="url(#p7c3463c075)" style="fill: none; stroke: #1f77b4; stroke-width: 1.5"/>
   </g>
   <g id="LineCollection_20">
    <path d="M 351.809553 144.496317 
L 365.107714 144.496317 
" clip-path="url(#p7c3463c075)" style="fill: none; stroke-dasharray: 2,3.3; stroke-dashoffset: 0; stroke: #808080; stroke-width: 2"/>
    <path d="M 389.804299 140.841972 
L 403.10246 140.841972 
" clip-path="url(#p7c3463c075)" style="fill: none; stroke-dasharray: 2,3.3; stroke-dashoffset: 0; stroke: #808080; stroke-width: 2"/>
   </g>
   <g id="patch_18">
    <path d="M 341.930919 179.399 
L 341.930919 23.199 
" style="fill: none; stroke: #000000; stroke-width: 0.8; stroke-linejoin: miter; stroke-linecap: square"/>
   </g>
   <g id="patch_19">
    <path d="M 412.981094 179.399 
L 412.981094 23.199 
" style="fill: none; stroke: #000000; stroke-width: 0.8; stroke-linejoin: miter; stroke-linecap: square"/>
   </g>
   <g id="patch_20">
    <path d="M 341.930919 179.399 
L 412.981094 179.399 
" style="fill: none; stroke: #000000; stroke-width: 0.8; stroke-linejoin: miter; stroke-linecap: square"/>
   </g>
   <g id="patch_21">
    <path d="M 341.930919 23.199 
L 412.981094 23.199 
" style="fill: none; stroke: #000000; stroke-width: 0.8; stroke-linejoin: miter; stroke-linecap: square"/>
   </g>
   <g id="text_23">
    <!-- 196 -->
    <g transform="translate(350.958633 39.183952) scale(0.1 -0.1)">
     <defs>
      <path id="TimesNewRomanPSMT-36" d="M 2869 4325 
L 2869 4209 
Q 2456 4169 2195 4045 
Q 1934 3922 1679 3669 
Q 1425 3416 1258 3105 
Q 1091 2794 978 2366 
Q 1428 2675 1881 2675 
Q 2316 2675 2634 2325 
Q 2953 1975 2953 1425 
Q 2953 894 2631 456 
Q 2244 -75 1606 -75 
Q 1172 -75 869 213 
Q 275 772 275 1663 
Q 275 2231 503 2743 
Q 731 3256 1154 3653 
Q 1578 4050 1965 4187 
Q 2353 4325 2688 4325 
L 2869 4325 
z
M 925 2138 
Q 869 1716 869 1456 
Q 869 1156 980 804 
Q 1091 453 1309 247 
Q 1469 100 1697 100 
Q 1969 100 2183 356 
Q 2397 613 2397 1088 
Q 2397 1622 2184 2012 
Q 1972 2403 1581 2403 
Q 1463 2403 1327 2353 
Q 1191 2303 925 2138 
z
" transform="scale(0.015625)"/>
     </defs>
     <use xlink:href="#TimesNewRomanPSMT-31"/>
     <use xlink:href="#TimesNewRomanPSMT-39" x="50"/>
     <use xlink:href="#TimesNewRomanPSMT-36" x="100"/>
    </g>
   </g>
   <g id="text_24">
    <!-- 232 -->
    <g transform="translate(388.953379 39.183952) scale(0.1 -0.1)">
     <use xlink:href="#TimesNewRomanPSMT-32"/>
     <use xlink:href="#TimesNewRomanPSMT-33" x="50"/>
     <use xlink:href="#TimesNewRomanPSMT-32" x="100"/>
    </g>
   </g>
   <g id="text_25">
    <!-- 6 Vessels -->
    <g transform="translate(350.983631 17.199) scale(0.144 -0.144)">
     <use xlink:href="#TimesNewRomanPSMT-36"/>
     <use xlink:href="#TimesNewRomanPSMT-20" x="50"/>
     <use xlink:href="#TimesNewRomanPSMT-56" x="73.25"/>
     <use xlink:href="#TimesNewRomanPSMT-65" x="134.341797"/>
     <use xlink:href="#TimesNewRomanPSMT-73" x="178.726562"/>
     <use xlink:href="#TimesNewRomanPSMT-73" x="217.642578"/>
     <use xlink:href="#TimesNewRomanPSMT-65" x="256.558594"/>
     <use xlink:href="#TimesNewRomanPSMT-6c" x="300.943359"/>
     <use xlink:href="#TimesNewRomanPSMT-73" x="328.726562"/>
    </g>
   </g>
  </g>
 </g>
 <defs>
  <clipPath id="pd13f9fab09">
   <rect x="52.191094" y="23.199" width="71.050175" height="156.2"/>
  </clipPath>
  <clipPath id="pc4eaee599d">
   <rect x="148.771035" y="23.199" width="71.050175" height="156.2"/>
  </clipPath>
  <clipPath id="pf32b2309f7">
   <rect x="245.350977" y="23.199" width="71.050175" height="156.2"/>
  </clipPath>
  <clipPath id="p7c3463c075">
   <rect x="341.930919" y="23.199" width="71.050175" height="156.2"/>
  </clipPath>
 </defs>
</svg>
