<?xml version="1.0" encoding="utf-8" standalone="no"?>
<!DOCTYPE svg PUBLIC "-//W3C//DTD SVG 1.1//EN"
  "http://www.w3.org/Graphics/SVG/1.1/DTD/svg11.dtd">
<svg xmlns:xlink="http://www.w3.org/1999/xlink" width="591.64925pt" height="265.7035pt" viewBox="0 0 591.64925 265.7035" xmlns="http://www.w3.org/2000/svg" version="1.1">
 <metadata>
  <rdf:RDF xmlns:dc="http://purl.org/dc/elements/1.1/" xmlns:cc="http://creativecommons.org/ns#" xmlns:rdf="http://www.w3.org/1999/02/22-rdf-syntax-ns#">
   <cc:Work>
    <dc:type rdf:resource="http://purl.org/dc/dcmitype/StillImage"/>
    <dc:date>2025-05-24T17:25:08.316726</dc:date>
    <dc:format>image/svg+xml</dc:format>
    <dc:creator>
     <cc:Agent>
      <dc:title>Matplotlib v3.9.0, https://matplotlib.org/</dc:title>
     </cc:Agent>
    </dc:creator>
   </cc:Work>
  </rdf:RDF>
 </metadata>
 <defs>
  <style type="text/css">*{stroke-linejoin: round; stroke-linecap: butt}</style>
 </defs>
 <g id="figure_1">
  <g id="patch_1">
   <path d="M 0 265.7035 
L 591.64925 265.7035 
L 591.64925 0 
L 0 0 
z
" style="fill: #ffffff"/>
  </g>
  <g id="axes_1">
   <g id="patch_2">
    <path d="M 82.24925 67.0875 
L 182.68925 67.0875 
L 182.68925 22.7355 
L 82.24925 22.7355 
z
" style="fill: #ffffff"/>
   </g>
   <g id="patch_3">
    <path d="M 86.814705 67.0875 
L 106.037671 67.0875 
L 106.037671 28.25934 
L 86.814705 28.25934 
z
" clip-path="url(#pc1216077bd)" style="fill: #0080ff; fill-opacity: 0.7; stroke: #000000; stroke-width: 1.5; stroke-linejoin: miter"/>
   </g>
   <g id="patch_4">
    <path d="M 110.843413 67.0875 
L 130.066379 67.0875 
L 130.066379 27.53358 
L 110.843413 27.53358 
z
" clip-path="url(#pc1216077bd)" style="fill: #5580aa; fill-opacity: 0.7; stroke: #000000; stroke-width: 1.5; stroke-linejoin: miter"/>
   </g>
   <g id="patch_5">
    <path d="M 134.872121 67.0875 
L 154.095087 67.0875 
L 154.095087 26.7675 
L 134.872121 26.7675 
z
" clip-path="url(#pc1216077bd)" style="fill: #aa8055; fill-opacity: 0.7; stroke: #000000; stroke-width: 1.5; stroke-linejoin: miter"/>
   </g>
   <g id="patch_6">
    <path d="M 158.900829 67.0875 
L 178.123795 67.0875 
L 178.123795 26.7675 
L 158.900829 26.7675 
z
" clip-path="url(#pc1216077bd)" style="fill: #ff8000; fill-opacity: 0.7; stroke: #000000; stroke-width: 1.5; stroke-linejoin: miter"/>
   </g>
   <g id="matplotlib.axis_1"/>
   <g id="matplotlib.axis_2">
    <g id="ytick_1">
     <g id="line2d_1">
      <defs>
       <path id="mb54da89a8f" d="M 0 0 
L -3.5 0 
" style="stroke: #000000; stroke-width: 0.8"/>
      </defs>
      <g>
       <use xlink:href="#mb54da89a8f" x="82.24925" y="67.0875" style="stroke: #000000; stroke-width: 0.8"/>
      </g>
     </g>
     <g id="text_1">
      <!-- 0% -->
      <g transform="translate(59.253625 71.25375) scale(0.12 -0.12)">
       <defs>
        <path id="TimesNewRomanPSMT-30" d="M 231 2094 
Q 231 2819 450 3342 
Q 669 3866 1031 4122 
Q 1313 4325 1613 4325 
Q 2100 4325 2488 3828 
Q 2972 3213 2972 2159 
Q 2972 1422 2759 906 
Q 2547 391 2217 158 
Q 1888 -75 1581 -75 
Q 975 -75 572 641 
Q 231 1244 231 2094 
z
M 844 2016 
Q 844 1141 1059 588 
Q 1238 122 1591 122 
Q 1759 122 1940 273 
Q 2122 425 2216 781 
Q 2359 1319 2359 2297 
Q 2359 3022 2209 3506 
Q 2097 3866 1919 4016 
Q 1791 4119 1609 4119 
Q 1397 4119 1231 3928 
Q 1006 3669 925 3112 
Q 844 2556 844 2016 
z
" transform="scale(0.015625)"/>
        <path id="TimesNewRomanPSMT-25" d="M 4350 4334 
L 1263 -175 
L 984 -175 
L 4072 4334 
L 4350 4334 
z
M 1138 4334 
Q 1559 4334 1792 3984 
Q 2025 3634 2025 3181 
Q 2025 2638 1762 2341 
Q 1500 2044 1131 2044 
Q 884 2044 678 2180 
Q 472 2316 348 2584 
Q 225 2853 225 3181 
Q 225 3509 350 3786 
Q 475 4063 692 4198 
Q 909 4334 1138 4334 
z
M 1128 4159 
Q 969 4159 845 3971 
Q 722 3784 722 3184 
Q 722 2750 791 2522 
Q 844 2350 956 2256 
Q 1022 2200 1119 2200 
Q 1269 2200 1375 2363 
Q 1531 2603 1531 3166 
Q 1531 3759 1378 4000 
Q 1278 4159 1128 4159 
z
M 4206 2103 
Q 4428 2103 4648 1962 
Q 4869 1822 4989 1553 
Q 5109 1284 5109 963 
Q 5109 409 4843 117 
Q 4578 -175 4216 -175 
Q 3988 -175 3773 -34 
Q 3559 106 3436 367 
Q 3313 628 3313 963 
Q 3313 1291 3436 1562 
Q 3559 1834 3773 1968 
Q 3988 2103 4206 2103 
z
M 4209 1938 
Q 4059 1938 3950 1769 
Q 3809 1550 3809 941 
Q 3809 381 3953 159 
Q 4059 0 4209 0 
Q 4353 0 4466 172 
Q 4616 400 4616 956 
Q 4616 1544 4466 1778 
Q 4363 1938 4209 1938 
z
" transform="scale(0.015625)"/>
       </defs>
       <use xlink:href="#TimesNewRomanPSMT-30"/>
       <use xlink:href="#TimesNewRomanPSMT-25" x="50"/>
      </g>
     </g>
    </g>
    <g id="ytick_2">
     <g id="line2d_2">
      <g>
       <use xlink:href="#mb54da89a8f" x="82.24925" y="26.7675" style="stroke: #000000; stroke-width: 0.8"/>
      </g>
     </g>
     <g id="text_2">
      <!-- 100% -->
      <g transform="translate(47.253625 30.93375) scale(0.12 -0.12)">
       <defs>
        <path id="TimesNewRomanPSMT-31" d="M 750 3822 
L 1781 4325 
L 1884 4325 
L 1884 747 
Q 1884 391 1914 303 
Q 1944 216 2037 169 
Q 2131 122 2419 116 
L 2419 0 
L 825 0 
L 825 116 
Q 1125 122 1212 167 
Q 1300 213 1334 289 
Q 1369 366 1369 747 
L 1369 3034 
Q 1369 3497 1338 3628 
Q 1316 3728 1258 3775 
Q 1200 3822 1119 3822 
Q 1003 3822 797 3725 
L 750 3822 
z
" transform="scale(0.015625)"/>
       </defs>
       <use xlink:href="#TimesNewRomanPSMT-31"/>
       <use xlink:href="#TimesNewRomanPSMT-30" x="50"/>
       <use xlink:href="#TimesNewRomanPSMT-30" x="100"/>
       <use xlink:href="#TimesNewRomanPSMT-25" x="150"/>
      </g>
     </g>
    </g>
    <g id="ytick_3">
     <g id="line2d_3">
      <g>
       <use xlink:href="#mb54da89a8f" x="82.24925" y="67.0875" style="stroke: #000000; stroke-width: 0.8"/>
      </g>
     </g>
     <g id="text_3">
      <!-- 0% -->
      <g transform="translate(59.253625 71.25375) scale(0.12 -0.12)">
       <use xlink:href="#TimesNewRomanPSMT-30"/>
       <use xlink:href="#TimesNewRomanPSMT-25" x="50"/>
      </g>
     </g>
    </g>
    <g id="ytick_4">
     <g id="line2d_4">
      <g>
       <use xlink:href="#mb54da89a8f" x="82.24925" y="46.9275" style="stroke: #000000; stroke-width: 0.8"/>
      </g>
     </g>
     <g id="text_4">
      <!-- 50% -->
      <g transform="translate(53.253625 51.09375) scale(0.12 -0.12)">
       <defs>
        <path id="TimesNewRomanPSMT-35" d="M 2778 4238 
L 2534 3706 
L 1259 3706 
L 981 3138 
Q 1809 3016 2294 2522 
Q 2709 2097 2709 1522 
Q 2709 1188 2573 903 
Q 2438 619 2231 419 
Q 2025 219 1772 97 
Q 1413 -75 1034 -75 
Q 653 -75 479 54 
Q 306 184 306 341 
Q 306 428 378 495 
Q 450 563 559 563 
Q 641 563 702 538 
Q 763 513 909 409 
Q 1144 247 1384 247 
Q 1750 247 2026 523 
Q 2303 800 2303 1197 
Q 2303 1581 2056 1914 
Q 1809 2247 1375 2428 
Q 1034 2569 447 2591 
L 1259 4238 
L 2778 4238 
z
" transform="scale(0.015625)"/>
       </defs>
       <use xlink:href="#TimesNewRomanPSMT-35"/>
       <use xlink:href="#TimesNewRomanPSMT-30" x="50"/>
       <use xlink:href="#TimesNewRomanPSMT-25" x="100"/>
      </g>
     </g>
    </g>
    <g id="ytick_5">
     <g id="line2d_5">
      <g>
       <use xlink:href="#mb54da89a8f" x="82.24925" y="26.7675" style="stroke: #000000; stroke-width: 0.8"/>
      </g>
     </g>
     <g id="text_5">
      <!-- 100% -->
      <g transform="translate(47.253625 30.93375) scale(0.12 -0.12)">
       <use xlink:href="#TimesNewRomanPSMT-31"/>
       <use xlink:href="#TimesNewRomanPSMT-30" x="50"/>
       <use xlink:href="#TimesNewRomanPSMT-30" x="100"/>
       <use xlink:href="#TimesNewRomanPSMT-25" x="150"/>
      </g>
     </g>
    </g>
    <g id="text_6">
     <!-- Relevant -->
     <g transform="translate(15.555 66.23775) rotate(-90) scale(0.12 -0.12)">
      <defs>
       <path id="TimesNewRomanPSMT-52" d="M 4325 0 
L 3194 0 
L 1759 1981 
Q 1600 1975 1500 1975 
Q 1459 1975 1412 1976 
Q 1366 1978 1316 1981 
L 1316 750 
Q 1316 350 1403 253 
Q 1522 116 1759 116 
L 1925 116 
L 1925 0 
L 109 0 
L 109 116 
L 269 116 
Q 538 116 653 291 
Q 719 388 719 750 
L 719 3488 
Q 719 3888 631 3984 
Q 509 4122 269 4122 
L 109 4122 
L 109 4238 
L 1653 4238 
Q 2328 4238 2648 4139 
Q 2969 4041 3192 3777 
Q 3416 3513 3416 3147 
Q 3416 2756 3161 2468 
Q 2906 2181 2372 2063 
L 3247 847 
Q 3547 428 3762 290 
Q 3978 153 4325 116 
L 4325 0 
z
M 1316 2178 
Q 1375 2178 1419 2176 
Q 1463 2175 1491 2175 
Q 2097 2175 2405 2437 
Q 2713 2700 2713 3106 
Q 2713 3503 2464 3751 
Q 2216 4000 1806 4000 
Q 1625 4000 1316 3941 
L 1316 2178 
z
" transform="scale(0.015625)"/>
       <path id="TimesNewRomanPSMT-65" d="M 681 1784 
Q 678 1147 991 784 
Q 1303 422 1725 422 
Q 2006 422 2214 576 
Q 2422 731 2563 1106 
L 2659 1044 
Q 2594 616 2278 264 
Q 1963 -88 1488 -88 
Q 972 -88 605 314 
Q 238 716 238 1394 
Q 238 2128 614 2539 
Q 991 2950 1559 2950 
Q 2041 2950 2350 2633 
Q 2659 2316 2659 1784 
L 681 1784 
z
M 681 1966 
L 2006 1966 
Q 1991 2241 1941 2353 
Q 1863 2528 1708 2628 
Q 1553 2728 1384 2728 
Q 1125 2728 920 2526 
Q 716 2325 681 1966 
z
" transform="scale(0.015625)"/>
       <path id="TimesNewRomanPSMT-6c" d="M 1184 4444 
L 1184 647 
Q 1184 378 1223 290 
Q 1263 203 1344 158 
Q 1425 113 1647 113 
L 1647 0 
L 244 0 
L 244 113 
Q 441 113 512 153 
Q 584 194 625 287 
Q 666 381 666 647 
L 666 3247 
Q 666 3731 644 3842 
Q 622 3953 573 3993 
Q 525 4034 450 4034 
Q 369 4034 244 3984 
L 191 4094 
L 1044 4444 
L 1184 4444 
z
" transform="scale(0.015625)"/>
       <path id="TimesNewRomanPSMT-76" d="M 53 2863 
L 1400 2863 
L 1400 2747 
L 1313 2747 
Q 1191 2747 1127 2687 
Q 1063 2628 1063 2528 
Q 1063 2419 1128 2269 
L 1794 688 
L 2463 2328 
Q 2534 2503 2534 2594 
Q 2534 2638 2509 2666 
Q 2475 2713 2422 2730 
Q 2369 2747 2206 2747 
L 2206 2863 
L 3141 2863 
L 3141 2747 
Q 2978 2734 2916 2681 
Q 2806 2588 2719 2369 
L 1703 -88 
L 1575 -88 
L 553 2328 
Q 484 2497 421 2570 
Q 359 2644 263 2694 
Q 209 2722 53 2747 
L 53 2863 
z
" transform="scale(0.015625)"/>
       <path id="TimesNewRomanPSMT-61" d="M 1822 413 
Q 1381 72 1269 19 
Q 1100 -59 909 -59 
Q 613 -59 420 144 
Q 228 347 228 678 
Q 228 888 322 1041 
Q 450 1253 767 1440 
Q 1084 1628 1822 1897 
L 1822 2009 
Q 1822 2438 1686 2597 
Q 1550 2756 1291 2756 
Q 1094 2756 978 2650 
Q 859 2544 859 2406 
L 866 2225 
Q 866 2081 792 2003 
Q 719 1925 600 1925 
Q 484 1925 411 2006 
Q 338 2088 338 2228 
Q 338 2497 613 2722 
Q 888 2947 1384 2947 
Q 1766 2947 2009 2819 
Q 2194 2722 2281 2516 
Q 2338 2381 2338 1966 
L 2338 994 
Q 2338 584 2353 492 
Q 2369 400 2405 369 
Q 2441 338 2488 338 
Q 2538 338 2575 359 
Q 2641 400 2828 588 
L 2828 413 
Q 2478 -56 2159 -56 
Q 2006 -56 1915 50 
Q 1825 156 1822 413 
z
M 1822 616 
L 1822 1706 
Q 1350 1519 1213 1441 
Q 966 1303 859 1153 
Q 753 1003 753 825 
Q 753 600 887 451 
Q 1022 303 1197 303 
Q 1434 303 1822 616 
z
" transform="scale(0.015625)"/>
       <path id="TimesNewRomanPSMT-6e" d="M 1034 2341 
Q 1538 2947 1994 2947 
Q 2228 2947 2397 2830 
Q 2566 2713 2666 2444 
Q 2734 2256 2734 1869 
L 2734 647 
Q 2734 375 2778 278 
Q 2813 200 2889 156 
Q 2966 113 3172 113 
L 3172 0 
L 1756 0 
L 1756 113 
L 1816 113 
Q 2016 113 2095 173 
Q 2175 234 2206 353 
Q 2219 400 2219 647 
L 2219 1819 
Q 2219 2209 2117 2386 
Q 2016 2563 1775 2563 
Q 1403 2563 1034 2156 
L 1034 647 
Q 1034 356 1069 288 
Q 1113 197 1189 155 
Q 1266 113 1500 113 
L 1500 0 
L 84 0 
L 84 113 
L 147 113 
Q 366 113 442 223 
Q 519 334 519 647 
L 519 1709 
Q 519 2225 495 2337 
Q 472 2450 423 2490 
Q 375 2531 294 2531 
Q 206 2531 84 2484 
L 38 2597 
L 900 2947 
L 1034 2947 
L 1034 2341 
z
" transform="scale(0.015625)"/>
       <path id="TimesNewRomanPSMT-74" d="M 1031 3803 
L 1031 2863 
L 1700 2863 
L 1700 2644 
L 1031 2644 
L 1031 788 
Q 1031 509 1111 412 
Q 1191 316 1316 316 
Q 1419 316 1516 380 
Q 1613 444 1666 569 
L 1788 569 
Q 1678 263 1478 108 
Q 1278 -47 1066 -47 
Q 922 -47 784 33 
Q 647 113 581 261 
Q 516 409 516 719 
L 516 2644 
L 63 2644 
L 63 2747 
Q 234 2816 414 2980 
Q 594 3144 734 3369 
Q 806 3488 934 3803 
L 1031 3803 
z
" transform="scale(0.015625)"/>
      </defs>
      <use xlink:href="#TimesNewRomanPSMT-52"/>
      <use xlink:href="#TimesNewRomanPSMT-65" x="66.699219"/>
      <use xlink:href="#TimesNewRomanPSMT-6c" x="111.083984"/>
      <use xlink:href="#TimesNewRomanPSMT-65" x="138.867188"/>
      <use xlink:href="#TimesNewRomanPSMT-76" x="183.251953"/>
      <use xlink:href="#TimesNewRomanPSMT-61" x="233.251953"/>
      <use xlink:href="#TimesNewRomanPSMT-6e" x="277.636719"/>
      <use xlink:href="#TimesNewRomanPSMT-74" x="327.636719"/>
     </g>
     <!-- consistent -->
     <g transform="translate(28.120875 68.909625) rotate(-90) scale(0.12 -0.12)">
      <defs>
       <path id="TimesNewRomanPSMT-63" d="M 2631 1088 
Q 2516 522 2178 217 
Q 1841 -88 1431 -88 
Q 944 -88 581 321 
Q 219 731 219 1428 
Q 219 2103 620 2525 
Q 1022 2947 1584 2947 
Q 2006 2947 2278 2723 
Q 2550 2500 2550 2259 
Q 2550 2141 2473 2067 
Q 2397 1994 2259 1994 
Q 2075 1994 1981 2113 
Q 1928 2178 1911 2362 
Q 1894 2547 1784 2644 
Q 1675 2738 1481 2738 
Q 1169 2738 978 2506 
Q 725 2200 725 1697 
Q 725 1184 976 792 
Q 1228 400 1656 400 
Q 1963 400 2206 609 
Q 2378 753 2541 1131 
L 2631 1088 
z
" transform="scale(0.015625)"/>
       <path id="TimesNewRomanPSMT-6f" d="M 1600 2947 
Q 2250 2947 2644 2453 
Q 2978 2031 2978 1484 
Q 2978 1100 2793 706 
Q 2609 313 2286 112 
Q 1963 -88 1566 -88 
Q 919 -88 538 428 
Q 216 863 216 1403 
Q 216 1797 411 2186 
Q 606 2575 925 2761 
Q 1244 2947 1600 2947 
z
M 1503 2744 
Q 1338 2744 1170 2645 
Q 1003 2547 900 2300 
Q 797 2053 797 1666 
Q 797 1041 1045 587 
Q 1294 134 1700 134 
Q 2003 134 2200 384 
Q 2397 634 2397 1244 
Q 2397 2006 2069 2444 
Q 1847 2744 1503 2744 
z
" transform="scale(0.015625)"/>
       <path id="TimesNewRomanPSMT-73" d="M 2050 2947 
L 2050 1972 
L 1947 1972 
Q 1828 2431 1642 2597 
Q 1456 2763 1169 2763 
Q 950 2763 815 2647 
Q 681 2531 681 2391 
Q 681 2216 781 2091 
Q 878 1963 1175 1819 
L 1631 1597 
Q 2266 1288 2266 781 
Q 2266 391 1970 151 
Q 1675 -88 1309 -88 
Q 1047 -88 709 6 
Q 606 38 541 38 
Q 469 38 428 -44 
L 325 -44 
L 325 978 
L 428 978 
Q 516 541 762 319 
Q 1009 97 1316 97 
Q 1531 97 1667 223 
Q 1803 350 1803 528 
Q 1803 744 1651 891 
Q 1500 1038 1047 1263 
Q 594 1488 453 1669 
Q 313 1847 313 2119 
Q 313 2472 555 2709 
Q 797 2947 1181 2947 
Q 1350 2947 1591 2875 
Q 1750 2828 1803 2828 
Q 1853 2828 1881 2850 
Q 1909 2872 1947 2947 
L 2050 2947 
z
" transform="scale(0.015625)"/>
       <path id="TimesNewRomanPSMT-69" d="M 928 4444 
Q 1059 4444 1151 4351 
Q 1244 4259 1244 4128 
Q 1244 3997 1151 3903 
Q 1059 3809 928 3809 
Q 797 3809 703 3903 
Q 609 3997 609 4128 
Q 609 4259 701 4351 
Q 794 4444 928 4444 
z
M 1188 2947 
L 1188 647 
Q 1188 378 1227 289 
Q 1266 200 1342 156 
Q 1419 113 1622 113 
L 1622 0 
L 231 0 
L 231 113 
Q 441 113 512 153 
Q 584 194 626 287 
Q 669 381 669 647 
L 669 1750 
Q 669 2216 641 2353 
Q 619 2453 572 2492 
Q 525 2531 444 2531 
Q 356 2531 231 2484 
L 188 2597 
L 1050 2947 
L 1188 2947 
z
" transform="scale(0.015625)"/>
      </defs>
      <use xlink:href="#TimesNewRomanPSMT-63"/>
      <use xlink:href="#TimesNewRomanPSMT-6f" x="44.384766"/>
      <use xlink:href="#TimesNewRomanPSMT-6e" x="94.384766"/>
      <use xlink:href="#TimesNewRomanPSMT-73" x="144.384766"/>
      <use xlink:href="#TimesNewRomanPSMT-69" x="183.300781"/>
      <use xlink:href="#TimesNewRomanPSMT-73" x="211.083984"/>
      <use xlink:href="#TimesNewRomanPSMT-74" x="250"/>
      <use xlink:href="#TimesNewRomanPSMT-65" x="277.783203"/>
      <use xlink:href="#TimesNewRomanPSMT-6e" x="322.167969"/>
      <use xlink:href="#TimesNewRomanPSMT-74" x="372.167969"/>
     </g>
     <!-- FEC rate -->
     <g transform="translate(40.68675 66.4065) rotate(-90) scale(0.12 -0.12)">
      <defs>
       <path id="TimesNewRomanPSMT-46" d="M 1309 4006 
L 1309 2341 
L 2081 2341 
Q 2347 2341 2470 2458 
Q 2594 2575 2634 2922 
L 2750 2922 
L 2750 1488 
L 2634 1488 
Q 2631 1734 2570 1850 
Q 2509 1966 2401 2023 
Q 2294 2081 2081 2081 
L 1309 2081 
L 1309 750 
Q 1309 428 1350 325 
Q 1381 247 1481 191 
Q 1619 116 1769 116 
L 1922 116 
L 1922 0 
L 103 0 
L 103 116 
L 253 116 
Q 516 116 634 269 
Q 709 369 709 750 
L 709 3488 
Q 709 3809 669 3913 
Q 638 3991 541 4047 
Q 406 4122 253 4122 
L 103 4122 
L 103 4238 
L 3256 4238 
L 3297 3306 
L 3188 3306 
Q 3106 3603 2998 3742 
Q 2891 3881 2733 3943 
Q 2575 4006 2244 4006 
L 1309 4006 
z
" transform="scale(0.015625)"/>
       <path id="TimesNewRomanPSMT-45" d="M 1338 4006 
L 1338 2331 
L 2269 2331 
Q 2631 2331 2753 2441 
Q 2916 2584 2934 2947 
L 3050 2947 
L 3050 1472 
L 2934 1472 
Q 2891 1781 2847 1869 
Q 2791 1978 2662 2040 
Q 2534 2103 2269 2103 
L 1338 2103 
L 1338 706 
Q 1338 425 1363 364 
Q 1388 303 1450 267 
Q 1513 231 1688 231 
L 2406 231 
Q 2766 231 2928 281 
Q 3091 331 3241 478 
Q 3434 672 3638 1063 
L 3763 1063 
L 3397 0 
L 131 0 
L 131 116 
L 281 116 
Q 431 116 566 188 
Q 666 238 702 338 
Q 738 438 738 747 
L 738 3500 
Q 738 3903 656 3997 
Q 544 4122 281 4122 
L 131 4122 
L 131 4238 
L 3397 4238 
L 3444 3309 
L 3322 3309 
Q 3256 3644 3176 3769 
Q 3097 3894 2941 3959 
Q 2816 4006 2500 4006 
L 1338 4006 
z
" transform="scale(0.015625)"/>
       <path id="TimesNewRomanPSMT-43" d="M 3853 4334 
L 3950 2894 
L 3853 2894 
Q 3659 3541 3300 3825 
Q 2941 4109 2438 4109 
Q 2016 4109 1675 3895 
Q 1334 3681 1139 3212 
Q 944 2744 944 2047 
Q 944 1472 1128 1050 
Q 1313 628 1683 403 
Q 2053 178 2528 178 
Q 2941 178 3256 354 
Q 3572 531 3950 1056 
L 4047 994 
Q 3728 428 3303 165 
Q 2878 -97 2294 -97 
Q 1241 -97 663 684 
Q 231 1266 231 2053 
Q 231 2688 515 3219 
Q 800 3750 1298 4042 
Q 1797 4334 2388 4334 
Q 2847 4334 3294 4109 
Q 3425 4041 3481 4041 
Q 3566 4041 3628 4100 
Q 3709 4184 3744 4334 
L 3853 4334 
z
" transform="scale(0.015625)"/>
       <path id="TimesNewRomanPSMT-20" transform="scale(0.015625)"/>
       <path id="TimesNewRomanPSMT-72" d="M 1038 2947 
L 1038 2303 
Q 1397 2947 1775 2947 
Q 1947 2947 2059 2842 
Q 2172 2738 2172 2600 
Q 2172 2478 2090 2393 
Q 2009 2309 1897 2309 
Q 1788 2309 1652 2417 
Q 1516 2525 1450 2525 
Q 1394 2525 1328 2463 
Q 1188 2334 1038 2041 
L 1038 669 
Q 1038 431 1097 309 
Q 1138 225 1241 169 
Q 1344 113 1538 113 
L 1538 0 
L 72 0 
L 72 113 
Q 291 113 397 181 
Q 475 231 506 341 
Q 522 394 522 644 
L 522 1753 
Q 522 2253 501 2348 
Q 481 2444 426 2487 
Q 372 2531 291 2531 
Q 194 2531 72 2484 
L 41 2597 
L 906 2947 
L 1038 2947 
z
" transform="scale(0.015625)"/>
      </defs>
      <use xlink:href="#TimesNewRomanPSMT-46"/>
      <use xlink:href="#TimesNewRomanPSMT-45" x="55.615234"/>
      <use xlink:href="#TimesNewRomanPSMT-43" x="116.699219"/>
      <use xlink:href="#TimesNewRomanPSMT-20" x="183.398438"/>
      <use xlink:href="#TimesNewRomanPSMT-72" x="208.398438"/>
      <use xlink:href="#TimesNewRomanPSMT-61" x="241.699219"/>
      <use xlink:href="#TimesNewRomanPSMT-74" x="286.083984"/>
      <use xlink:href="#TimesNewRomanPSMT-65" x="313.867188"/>
     </g>
    </g>
   </g>
   <g id="patch_7">
    <path d="M 82.24925 67.0875 
L 82.24925 22.7355 
" style="fill: none; stroke: #000000; stroke-width: 0.8; stroke-linejoin: miter; stroke-linecap: square"/>
   </g>
   <g id="patch_8">
    <path d="M 182.68925 67.0875 
L 182.68925 22.7355 
" style="fill: none; stroke: #000000; stroke-width: 0.8; stroke-linejoin: miter; stroke-linecap: square"/>
   </g>
   <g id="patch_9">
    <path d="M 82.24925 67.0875 
L 182.68925 67.0875 
" style="fill: none; stroke: #000000; stroke-width: 0.8; stroke-linejoin: miter; stroke-linecap: square"/>
   </g>
   <g id="patch_10">
    <path d="M 82.24925 22.7355 
L 182.68925 22.7355 
" style="fill: none; stroke: #000000; stroke-width: 0.8; stroke-linejoin: miter; stroke-linecap: square"/>
   </g>
   <g id="text_7">
    <!-- 2 vessels -->
    <g transform="translate(106.669625 16.7355) scale(0.144 -0.144)">
     <defs>
      <path id="TimesNewRomanPS-BoldMT-32" d="M 2650 0 
L 156 0 
L 156 69 
Q 1303 1434 1548 1906 
Q 1794 2378 1794 2828 
Q 1794 3156 1591 3373 
Q 1388 3591 1094 3591 
Q 613 3591 347 3109 
L 231 3150 
Q 400 3750 744 4037 
Q 1088 4325 1538 4325 
Q 1859 4325 2125 4175 
Q 2391 4025 2541 3764 
Q 2691 3503 2691 3275 
Q 2691 2859 2459 2431 
Q 2144 1853 1081 819 
L 1997 819 
Q 2334 819 2436 847 
Q 2538 875 2603 942 
Q 2669 1009 2775 1225 
L 2888 1225 
L 2650 0 
z
" transform="scale(0.015625)"/>
      <path id="TimesNewRomanPS-BoldMT-20" transform="scale(0.015625)"/>
      <path id="TimesNewRomanPS-BoldMT-76" d="M 1534 -88 
L 550 2178 
Q 372 2588 272 2697 
Q 200 2778 59 2806 
L 59 2922 
L 1613 2922 
L 1613 2806 
Q 1466 2806 1413 2753 
Q 1338 2684 1338 2591 
Q 1338 2475 1475 2156 
L 1956 1059 
L 2341 2006 
Q 2506 2413 2506 2581 
Q 2506 2678 2436 2739 
Q 2366 2800 2188 2806 
L 2188 2922 
L 3144 2922 
L 3144 2806 
Q 3006 2788 2918 2703 
Q 2831 2619 2656 2206 
L 1681 -88 
L 1534 -88 
z
" transform="scale(0.015625)"/>
      <path id="TimesNewRomanPS-BoldMT-65" d="M 2691 1566 
L 1088 1566 
Q 1116 984 1397 647 
Q 1613 388 1916 388 
Q 2103 388 2256 492 
Q 2409 597 2584 869 
L 2691 800 
Q 2453 316 2165 114 
Q 1878 -88 1500 -88 
Q 850 -88 516 413 
Q 247 816 247 1413 
Q 247 2144 642 2576 
Q 1038 3009 1569 3009 
Q 2013 3009 2339 2645 
Q 2666 2281 2691 1566 
z
M 1922 1775 
Q 1922 2278 1867 2465 
Q 1813 2653 1697 2750 
Q 1631 2806 1522 2806 
Q 1359 2806 1256 2647 
Q 1072 2369 1072 1884 
L 1072 1775 
L 1922 1775 
z
" transform="scale(0.015625)"/>
      <path id="TimesNewRomanPS-BoldMT-73" d="M 2063 3003 
L 2109 2006 
L 2003 2006 
Q 1813 2450 1608 2612 
Q 1403 2775 1200 2775 
Q 1072 2775 981 2689 
Q 891 2603 891 2491 
Q 891 2406 953 2328 
Q 1053 2200 1512 1889 
Q 1972 1578 2117 1361 
Q 2263 1144 2263 875 
Q 2263 631 2141 397 
Q 2019 163 1797 37 
Q 1575 -88 1306 -88 
Q 1097 -88 747 44 
Q 653 78 619 78 
Q 516 78 447 -78 
L 344 -78 
L 294 972 
L 400 972 
Q 541 559 786 353 
Q 1031 147 1250 147 
Q 1400 147 1495 239 
Q 1591 331 1591 463 
Q 1591 613 1497 722 
Q 1403 831 1078 1053 
Q 600 1384 459 1559 
Q 253 1816 253 2125 
Q 253 2463 486 2736 
Q 719 3009 1159 3009 
Q 1397 3009 1619 2894 
Q 1703 2847 1756 2847 
Q 1813 2847 1847 2870 
Q 1881 2894 1956 3003 
L 2063 3003 
z
" transform="scale(0.015625)"/>
      <path id="TimesNewRomanPS-BoldMT-6c" d="M 1359 4238 
L 1359 606 
Q 1359 297 1431 211 
Q 1503 125 1713 113 
L 1713 0 
L 134 0 
L 134 113 
Q 328 119 422 225 
Q 484 297 484 606 
L 484 3631 
Q 484 3938 412 4023 
Q 341 4109 134 4122 
L 134 4238 
L 1359 4238 
z
" transform="scale(0.015625)"/>
     </defs>
     <use xlink:href="#TimesNewRomanPS-BoldMT-32"/>
     <use xlink:href="#TimesNewRomanPS-BoldMT-20" x="50"/>
     <use xlink:href="#TimesNewRomanPS-BoldMT-76" x="75"/>
     <use xlink:href="#TimesNewRomanPS-BoldMT-65" x="125"/>
     <use xlink:href="#TimesNewRomanPS-BoldMT-73" x="169.384766"/>
     <use xlink:href="#TimesNewRomanPS-BoldMT-73" x="208.300781"/>
     <use xlink:href="#TimesNewRomanPS-BoldMT-65" x="247.216797"/>
     <use xlink:href="#TimesNewRomanPS-BoldMT-6c" x="291.601562"/>
     <use xlink:href="#TimesNewRomanPS-BoldMT-73" x="319.384766"/>
    </g>
   </g>
  </g>
  <g id="axes_2">
   <g id="patch_11">
    <path d="M 182.68925 67.0875 
L 283.12925 67.0875 
L 283.12925 22.7355 
L 182.68925 22.7355 
z
" style="fill: #ffffff"/>
   </g>
   <g id="patch_12">
    <path d="M 187.254705 67.0875 
L 206.477671 67.0875 
L 206.477671 29.915608 
L 187.254705 29.915608 
z
" clip-path="url(#p61ac6d1104)" style="fill: #0080ff; fill-opacity: 0.7; stroke: #000000; stroke-width: 1.5; stroke-linejoin: miter"/>
   </g>
   <g id="patch_13">
    <path d="M 211.283413 67.0875 
L 230.506379 67.0875 
L 230.506379 28.90446 
L 211.283413 28.90446 
z
" clip-path="url(#p61ac6d1104)" style="fill: #5580aa; fill-opacity: 0.7; stroke: #000000; stroke-width: 1.5; stroke-linejoin: miter"/>
   </g>
   <g id="patch_14">
    <path d="M 235.312121 67.0875 
L 254.535087 67.0875 
L 254.535087 26.7675 
L 235.312121 26.7675 
z
" clip-path="url(#p61ac6d1104)" style="fill: #aa8055; fill-opacity: 0.7; stroke: #000000; stroke-width: 1.5; stroke-linejoin: miter"/>
   </g>
   <g id="patch_15">
    <path d="M 259.340829 67.0875 
L 278.563795 67.0875 
L 278.563795 26.7675 
L 259.340829 26.7675 
z
" clip-path="url(#p61ac6d1104)" style="fill: #ff8000; fill-opacity: 0.7; stroke: #000000; stroke-width: 1.5; stroke-linejoin: miter"/>
   </g>
   <g id="matplotlib.axis_3"/>
   <g id="matplotlib.axis_4"/>
   <g id="patch_16">
    <path d="M 182.68925 67.0875 
L 182.68925 22.7355 
" style="fill: none; stroke: #000000; stroke-width: 0.8; stroke-linejoin: miter; stroke-linecap: square"/>
   </g>
   <g id="patch_17">
    <path d="M 283.12925 67.0875 
L 283.12925 22.7355 
" style="fill: none; stroke: #000000; stroke-width: 0.8; stroke-linejoin: miter; stroke-linecap: square"/>
   </g>
   <g id="patch_18">
    <path d="M 182.68925 67.0875 
L 283.12925 67.0875 
" style="fill: none; stroke: #000000; stroke-width: 0.8; stroke-linejoin: miter; stroke-linecap: square"/>
   </g>
   <g id="patch_19">
    <path d="M 182.68925 22.7355 
L 283.12925 22.7355 
" style="fill: none; stroke: #000000; stroke-width: 0.8; stroke-linejoin: miter; stroke-linecap: square"/>
   </g>
   <g id="text_8">
    <!-- 3 vessels -->
    <g transform="translate(207.109625 16.7355) scale(0.144 -0.144)">
     <defs>
      <path id="TimesNewRomanPS-BoldMT-33" d="M 947 2125 
L 947 2234 
Q 1303 2338 1440 2427 
Q 1578 2516 1678 2698 
Q 1778 2881 1778 3069 
Q 1778 3328 1589 3514 
Q 1400 3700 1119 3700 
Q 681 3700 375 3238 
L 259 3278 
Q 484 3800 836 4062 
Q 1188 4325 1619 4325 
Q 2059 4325 2345 4056 
Q 2631 3788 2631 3428 
Q 2631 3194 2498 2976 
Q 2366 2759 2081 2594 
Q 2447 2416 2639 2155 
Q 2831 1894 2831 1500 
Q 2831 838 2351 373 
Q 1872 -91 1066 -91 
Q 528 -91 281 88 
Q 103 213 103 409 
Q 103 553 206 654 
Q 309 756 444 756 
Q 547 756 638 713 
Q 688 688 992 439 
Q 1297 191 1563 191 
Q 1794 191 1959 373 
Q 2125 556 2125 838 
Q 2125 1266 1825 1627 
Q 1525 1988 947 2125 
z
" transform="scale(0.015625)"/>
     </defs>
     <use xlink:href="#TimesNewRomanPS-BoldMT-33"/>
     <use xlink:href="#TimesNewRomanPS-BoldMT-20" x="50"/>
     <use xlink:href="#TimesNewRomanPS-BoldMT-76" x="75"/>
     <use xlink:href="#TimesNewRomanPS-BoldMT-65" x="125"/>
     <use xlink:href="#TimesNewRomanPS-BoldMT-73" x="169.384766"/>
     <use xlink:href="#TimesNewRomanPS-BoldMT-73" x="208.300781"/>
     <use xlink:href="#TimesNewRomanPS-BoldMT-65" x="247.216797"/>
     <use xlink:href="#TimesNewRomanPS-BoldMT-6c" x="291.601562"/>
     <use xlink:href="#TimesNewRomanPS-BoldMT-73" x="319.384766"/>
    </g>
   </g>
  </g>
  <g id="axes_3">
   <g id="patch_20">
    <path d="M 283.12925 67.0875 
L 383.56925 67.0875 
L 383.56925 22.7355 
L 283.12925 22.7355 
z
" style="fill: #ffffff"/>
   </g>
   <g id="patch_21">
    <path d="M 287.694705 67.0875 
L 306.917671 67.0875 
L 306.917671 32.108167 
L 287.694705 32.108167 
z
" clip-path="url(#pa7d1f70f27)" style="fill: #0080ff; fill-opacity: 0.7; stroke: #000000; stroke-width: 1.5; stroke-linejoin: miter"/>
   </g>
   <g id="patch_22">
    <path d="M 311.723413 67.0875 
L 330.946379 67.0875 
L 330.946379 30.07374 
L 311.723413 30.07374 
z
" clip-path="url(#pa7d1f70f27)" style="fill: #5580aa; fill-opacity: 0.7; stroke: #000000; stroke-width: 1.5; stroke-linejoin: miter"/>
   </g>
   <g id="patch_23">
    <path d="M 335.752121 67.0875 
L 354.975087 67.0875 
L 354.975087 26.7675 
L 335.752121 26.7675 
z
" clip-path="url(#pa7d1f70f27)" style="fill: #aa8055; fill-opacity: 0.7; stroke: #000000; stroke-width: 1.5; stroke-linejoin: miter"/>
   </g>
   <g id="patch_24">
    <path d="M 359.780829 67.0875 
L 379.003795 67.0875 
L 379.003795 26.7675 
L 359.780829 26.7675 
z
" clip-path="url(#pa7d1f70f27)" style="fill: #ff8000; fill-opacity: 0.7; stroke: #000000; stroke-width: 1.5; stroke-linejoin: miter"/>
   </g>
   <g id="matplotlib.axis_5"/>
   <g id="matplotlib.axis_6"/>
   <g id="patch_25">
    <path d="M 283.12925 67.0875 
L 283.12925 22.7355 
" style="fill: none; stroke: #000000; stroke-width: 0.8; stroke-linejoin: miter; stroke-linecap: square"/>
   </g>
   <g id="patch_26">
    <path d="M 383.56925 67.0875 
L 383.56925 22.7355 
" style="fill: none; stroke: #000000; stroke-width: 0.8; stroke-linejoin: miter; stroke-linecap: square"/>
   </g>
   <g id="patch_27">
    <path d="M 283.12925 67.0875 
L 383.56925 67.0875 
" style="fill: none; stroke: #000000; stroke-width: 0.8; stroke-linejoin: miter; stroke-linecap: square"/>
   </g>
   <g id="patch_28">
    <path d="M 283.12925 22.7355 
L 383.56925 22.7355 
" style="fill: none; stroke: #000000; stroke-width: 0.8; stroke-linejoin: miter; stroke-linecap: square"/>
   </g>
   <g id="text_9">
    <!-- 4 vessels -->
    <g transform="translate(307.549625 16.7355) scale(0.144 -0.144)">
     <defs>
      <path id="TimesNewRomanPS-BoldMT-34" d="M 159 1597 
L 2172 4325 
L 2553 4325 
L 2553 1597 
L 2941 1597 
L 2941 950 
L 2553 950 
L 2553 0 
L 1694 0 
L 1694 950 
L 159 950 
L 159 1597 
z
M 463 1597 
L 1694 1597 
L 1694 3269 
L 463 1597 
z
" transform="scale(0.015625)"/>
     </defs>
     <use xlink:href="#TimesNewRomanPS-BoldMT-34"/>
     <use xlink:href="#TimesNewRomanPS-BoldMT-20" x="50"/>
     <use xlink:href="#TimesNewRomanPS-BoldMT-76" x="75"/>
     <use xlink:href="#TimesNewRomanPS-BoldMT-65" x="125"/>
     <use xlink:href="#TimesNewRomanPS-BoldMT-73" x="169.384766"/>
     <use xlink:href="#TimesNewRomanPS-BoldMT-73" x="208.300781"/>
     <use xlink:href="#TimesNewRomanPS-BoldMT-65" x="247.216797"/>
     <use xlink:href="#TimesNewRomanPS-BoldMT-6c" x="291.601562"/>
     <use xlink:href="#TimesNewRomanPS-BoldMT-73" x="319.384766"/>
    </g>
   </g>
  </g>
  <g id="axes_4">
   <g id="patch_29">
    <path d="M 383.56925 67.0875 
L 484.00925 67.0875 
L 484.00925 22.7355 
L 383.56925 22.7355 
z
" style="fill: #ffffff"/>
   </g>
   <g id="patch_30">
    <path d="M 388.134705 67.0875 
L 407.357671 67.0875 
L 407.357671 33.736389 
L 388.134705 33.736389 
z
" clip-path="url(#pc38ba753e3)" style="fill: #0080ff; fill-opacity: 0.7; stroke: #000000; stroke-width: 1.5; stroke-linejoin: miter"/>
   </g>
   <g id="patch_31">
    <path d="M 412.163413 67.0875 
L 431.386379 67.0875 
L 431.386379 31.443472 
L 412.163413 31.443472 
z
" clip-path="url(#pc38ba753e3)" style="fill: #5580aa; fill-opacity: 0.7; stroke: #000000; stroke-width: 1.5; stroke-linejoin: miter"/>
   </g>
   <g id="patch_32">
    <path d="M 436.192121 67.0875 
L 455.415087 67.0875 
L 455.415087 26.7675 
L 436.192121 26.7675 
z
" clip-path="url(#pc38ba753e3)" style="fill: #aa8055; fill-opacity: 0.7; stroke: #000000; stroke-width: 1.5; stroke-linejoin: miter"/>
   </g>
   <g id="patch_33">
    <path d="M 460.220829 67.0875 
L 479.443795 67.0875 
L 479.443795 26.7675 
L 460.220829 26.7675 
z
" clip-path="url(#pc38ba753e3)" style="fill: #ff8000; fill-opacity: 0.7; stroke: #000000; stroke-width: 1.5; stroke-linejoin: miter"/>
   </g>
   <g id="matplotlib.axis_7"/>
   <g id="matplotlib.axis_8"/>
   <g id="patch_34">
    <path d="M 383.56925 67.0875 
L 383.56925 22.7355 
" style="fill: none; stroke: #000000; stroke-width: 0.8; stroke-linejoin: miter; stroke-linecap: square"/>
   </g>
   <g id="patch_35">
    <path d="M 484.00925 67.0875 
L 484.00925 22.7355 
" style="fill: none; stroke: #000000; stroke-width: 0.8; stroke-linejoin: miter; stroke-linecap: square"/>
   </g>
   <g id="patch_36">
    <path d="M 383.56925 67.0875 
L 484.00925 67.0875 
" style="fill: none; stroke: #000000; stroke-width: 0.8; stroke-linejoin: miter; stroke-linecap: square"/>
   </g>
   <g id="patch_37">
    <path d="M 383.56925 22.7355 
L 484.00925 22.7355 
" style="fill: none; stroke: #000000; stroke-width: 0.8; stroke-linejoin: miter; stroke-linecap: square"/>
   </g>
   <g id="text_10">
    <!-- 5 vessels -->
    <g transform="translate(407.989625 16.7355) scale(0.144 -0.144)">
     <defs>
      <path id="TimesNewRomanPS-BoldMT-35" d="M 975 4238 
L 2959 4238 
L 2644 3431 
L 975 3431 
L 816 3009 
Q 1894 2969 2475 2472 
Q 2953 2063 2953 1453 
Q 2953 1063 2731 689 
Q 2509 316 2106 114 
Q 1703 -88 1222 -88 
Q 703 -88 425 106 
Q 231 244 231 419 
Q 231 553 332 656 
Q 434 759 569 759 
Q 691 759 816 709 
Q 941 659 1244 447 
Q 1434 316 1572 266 
Q 1669 228 1791 228 
Q 2047 228 2226 415 
Q 2406 603 2406 866 
Q 2406 1416 1856 1759 
Q 1306 2103 469 2103 
Q 384 2103 216 2100 
L 975 4238 
z
" transform="scale(0.015625)"/>
     </defs>
     <use xlink:href="#TimesNewRomanPS-BoldMT-35"/>
     <use xlink:href="#TimesNewRomanPS-BoldMT-20" x="50"/>
     <use xlink:href="#TimesNewRomanPS-BoldMT-76" x="75"/>
     <use xlink:href="#TimesNewRomanPS-BoldMT-65" x="125"/>
     <use xlink:href="#TimesNewRomanPS-BoldMT-73" x="169.384766"/>
     <use xlink:href="#TimesNewRomanPS-BoldMT-73" x="208.300781"/>
     <use xlink:href="#TimesNewRomanPS-BoldMT-65" x="247.216797"/>
     <use xlink:href="#TimesNewRomanPS-BoldMT-6c" x="291.601562"/>
     <use xlink:href="#TimesNewRomanPS-BoldMT-73" x="319.384766"/>
    </g>
   </g>
  </g>
  <g id="axes_5">
   <g id="patch_38">
    <path d="M 484.00925 67.0875 
L 584.44925 67.0875 
L 584.44925 22.7355 
L 484.00925 22.7355 
z
" style="fill: #ffffff"/>
   </g>
   <g id="patch_39">
    <path d="M 488.574705 67.0875 
L 507.797671 67.0875 
L 507.797671 37.644128 
L 488.574705 37.644128 
z
" clip-path="url(#p674bf5e312)" style="fill: #0080ff; fill-opacity: 0.7; stroke: #000000; stroke-width: 1.5; stroke-linejoin: miter"/>
   </g>
   <g id="patch_40">
    <path d="M 512.603413 67.0875 
L 531.826379 67.0875 
L 531.826379 31.850824 
L 512.603413 31.850824 
z
" clip-path="url(#p674bf5e312)" style="fill: #5580aa; fill-opacity: 0.7; stroke: #000000; stroke-width: 1.5; stroke-linejoin: miter"/>
   </g>
   <g id="patch_41">
    <path d="M 536.632121 67.0875 
L 555.855087 67.0875 
L 555.855087 26.7675 
L 536.632121 26.7675 
z
" clip-path="url(#p674bf5e312)" style="fill: #aa8055; fill-opacity: 0.7; stroke: #000000; stroke-width: 1.5; stroke-linejoin: miter"/>
   </g>
   <g id="patch_42">
    <path d="M 560.660829 67.0875 
L 579.883795 67.0875 
L 579.883795 26.7675 
L 560.660829 26.7675 
z
" clip-path="url(#p674bf5e312)" style="fill: #ff8000; fill-opacity: 0.7; stroke: #000000; stroke-width: 1.5; stroke-linejoin: miter"/>
   </g>
   <g id="matplotlib.axis_9"/>
   <g id="matplotlib.axis_10"/>
   <g id="patch_43">
    <path d="M 484.00925 67.0875 
L 484.00925 22.7355 
" style="fill: none; stroke: #000000; stroke-width: 0.8; stroke-linejoin: miter; stroke-linecap: square"/>
   </g>
   <g id="patch_44">
    <path d="M 584.44925 67.0875 
L 584.44925 22.7355 
" style="fill: none; stroke: #000000; stroke-width: 0.8; stroke-linejoin: miter; stroke-linecap: square"/>
   </g>
   <g id="patch_45">
    <path d="M 484.00925 67.0875 
L 584.44925 67.0875 
" style="fill: none; stroke: #000000; stroke-width: 0.8; stroke-linejoin: miter; stroke-linecap: square"/>
   </g>
   <g id="patch_46">
    <path d="M 484.00925 22.7355 
L 584.44925 22.7355 
" style="fill: none; stroke: #000000; stroke-width: 0.8; stroke-linejoin: miter; stroke-linecap: square"/>
   </g>
   <g id="text_11">
    <!-- 6 vessels -->
    <g transform="translate(508.429625 16.7355) scale(0.144 -0.144)">
     <defs>
      <path id="TimesNewRomanPS-BoldMT-36" d="M 3006 4325 
L 3006 4238 
Q 2441 4094 2098 3867 
Q 1756 3641 1557 3317 
Q 1359 2994 1250 2516 
Q 1388 2609 1478 2638 
Q 1681 2700 1888 2700 
Q 2363 2700 2680 2354 
Q 2997 2009 2997 1413 
Q 2997 994 2825 644 
Q 2653 294 2337 103 
Q 2022 -88 1663 -88 
Q 1272 -88 940 126 
Q 609 341 423 753 
Q 238 1166 238 1650 
Q 238 2363 580 2977 
Q 922 3591 1551 3955 
Q 2181 4319 3006 4325 
z
M 1209 2263 
Q 1184 1831 1184 1631 
Q 1184 1200 1267 797 
Q 1350 394 1494 231 
Q 1597 116 1738 116 
Q 1881 116 1993 283 
Q 2106 450 2106 963 
Q 2106 1825 1897 2153 
Q 1763 2366 1534 2366 
Q 1409 2366 1209 2263 
z
" transform="scale(0.015625)"/>
     </defs>
     <use xlink:href="#TimesNewRomanPS-BoldMT-36"/>
     <use xlink:href="#TimesNewRomanPS-BoldMT-20" x="50"/>
     <use xlink:href="#TimesNewRomanPS-BoldMT-76" x="75"/>
     <use xlink:href="#TimesNewRomanPS-BoldMT-65" x="125"/>
     <use xlink:href="#TimesNewRomanPS-BoldMT-73" x="169.384766"/>
     <use xlink:href="#TimesNewRomanPS-BoldMT-73" x="208.300781"/>
     <use xlink:href="#TimesNewRomanPS-BoldMT-65" x="247.216797"/>
     <use xlink:href="#TimesNewRomanPS-BoldMT-6c" x="291.601562"/>
     <use xlink:href="#TimesNewRomanPS-BoldMT-73" x="319.384766"/>
    </g>
   </g>
  </g>
  <g id="axes_6">
   <g id="patch_47">
    <path d="M 82.24925 122.5275 
L 182.68925 122.5275 
L 182.68925 78.1755 
L 82.24925 78.1755 
z
" style="fill: #ffffff"/>
   </g>
   <g id="patch_48">
    <path d="M 86.814705 122.5275 
L 106.037671 122.5275 
L 106.037671 122.5275 
L 86.814705 122.5275 
z
" clip-path="url(#pc3c5f75ea8)" style="fill: #0080ff; fill-opacity: 0.7; stroke: #000000; stroke-width: 1.5; stroke-linejoin: miter"/>
   </g>
   <g id="patch_49">
    <path d="M 110.843413 122.5275 
L 130.066379 122.5275 
L 130.066379 122.5275 
L 110.843413 122.5275 
z
" clip-path="url(#pc3c5f75ea8)" style="fill: #5580aa; fill-opacity: 0.7; stroke: #000000; stroke-width: 1.5; stroke-linejoin: miter"/>
   </g>
   <g id="patch_50">
    <path d="M 134.872121 122.5275 
L 154.095087 122.5275 
L 154.095087 122.5275 
L 134.872121 122.5275 
z
" clip-path="url(#pc3c5f75ea8)" style="fill: #aa8055; fill-opacity: 0.7; stroke: #000000; stroke-width: 1.5; stroke-linejoin: miter"/>
   </g>
   <g id="patch_51">
    <path d="M 158.900829 122.5275 
L 178.123795 122.5275 
L 178.123795 122.5275 
L 158.900829 122.5275 
z
" clip-path="url(#pc3c5f75ea8)" style="fill: #ff8000; fill-opacity: 0.7; stroke: #000000; stroke-width: 1.5; stroke-linejoin: miter"/>
   </g>
   <g id="matplotlib.axis_11"/>
   <g id="matplotlib.axis_12">
    <g id="ytick_6">
     <g id="line2d_6">
      <g>
       <use xlink:href="#mb54da89a8f" x="82.24925" y="122.5275" style="stroke: #000000; stroke-width: 0.8"/>
      </g>
     </g>
     <g id="text_12">
      <!-- 0% -->
      <g transform="translate(59.253625 126.69375) scale(0.12 -0.12)">
       <use xlink:href="#TimesNewRomanPSMT-30"/>
       <use xlink:href="#TimesNewRomanPSMT-25" x="50"/>
      </g>
     </g>
    </g>
    <g id="ytick_7">
     <g id="line2d_7">
      <g>
       <use xlink:href="#mb54da89a8f" x="82.24925" y="82.2075" style="stroke: #000000; stroke-width: 0.8"/>
      </g>
     </g>
     <g id="text_13">
      <!-- 100% -->
      <g transform="translate(47.253625 86.37375) scale(0.12 -0.12)">
       <use xlink:href="#TimesNewRomanPSMT-31"/>
       <use xlink:href="#TimesNewRomanPSMT-30" x="50"/>
       <use xlink:href="#TimesNewRomanPSMT-30" x="100"/>
       <use xlink:href="#TimesNewRomanPSMT-25" x="150"/>
      </g>
     </g>
    </g>
    <g id="ytick_8">
     <g id="line2d_8">
      <g>
       <use xlink:href="#mb54da89a8f" x="82.24925" y="122.5275" style="stroke: #000000; stroke-width: 0.8"/>
      </g>
     </g>
     <g id="text_14">
      <!-- 0% -->
      <g transform="translate(59.253625 126.69375) scale(0.12 -0.12)">
       <use xlink:href="#TimesNewRomanPSMT-30"/>
       <use xlink:href="#TimesNewRomanPSMT-25" x="50"/>
      </g>
     </g>
    </g>
    <g id="ytick_9">
     <g id="line2d_9">
      <g>
       <use xlink:href="#mb54da89a8f" x="82.24925" y="102.3675" style="stroke: #000000; stroke-width: 0.8"/>
      </g>
     </g>
     <g id="text_15">
      <!-- 50% -->
      <g transform="translate(53.253625 106.53375) scale(0.12 -0.12)">
       <use xlink:href="#TimesNewRomanPSMT-35"/>
       <use xlink:href="#TimesNewRomanPSMT-30" x="50"/>
       <use xlink:href="#TimesNewRomanPSMT-25" x="100"/>
      </g>
     </g>
    </g>
    <g id="ytick_10">
     <g id="line2d_10">
      <g>
       <use xlink:href="#mb54da89a8f" x="82.24925" y="82.2075" style="stroke: #000000; stroke-width: 0.8"/>
      </g>
     </g>
     <g id="text_16">
      <!-- 100% -->
      <g transform="translate(47.253625 86.37375) scale(0.12 -0.12)">
       <use xlink:href="#TimesNewRomanPSMT-31"/>
       <use xlink:href="#TimesNewRomanPSMT-30" x="50"/>
       <use xlink:href="#TimesNewRomanPSMT-30" x="100"/>
       <use xlink:href="#TimesNewRomanPSMT-25" x="150"/>
      </g>
     </g>
    </g>
    <g id="text_17">
     <!-- Ambiguous -->
     <g transform="translate(15.5325 128.353687) rotate(-90) scale(0.12 -0.12)">
      <defs>
       <path id="TimesNewRomanPSMT-41" d="M 2928 1419 
L 1288 1419 
L 1000 750 
Q 894 503 894 381 
Q 894 284 986 211 
Q 1078 138 1384 116 
L 1384 0 
L 50 0 
L 50 116 
Q 316 163 394 238 
Q 553 388 747 847 
L 2238 4334 
L 2347 4334 
L 3822 809 
Q 4000 384 4145 257 
Q 4291 131 4550 116 
L 4550 0 
L 2878 0 
L 2878 116 
Q 3131 128 3220 200 
Q 3309 272 3309 375 
Q 3309 513 3184 809 
L 2928 1419 
z
M 2841 1650 
L 2122 3363 
L 1384 1650 
L 2841 1650 
z
" transform="scale(0.015625)"/>
       <path id="TimesNewRomanPSMT-6d" d="M 1050 2338 
Q 1363 2650 1419 2697 
Q 1559 2816 1721 2881 
Q 1884 2947 2044 2947 
Q 2313 2947 2506 2790 
Q 2700 2634 2766 2338 
Q 3088 2713 3309 2830 
Q 3531 2947 3766 2947 
Q 3994 2947 4170 2830 
Q 4347 2713 4450 2447 
Q 4519 2266 4519 1878 
L 4519 647 
Q 4519 378 4559 278 
Q 4591 209 4675 161 
Q 4759 113 4950 113 
L 4950 0 
L 3538 0 
L 3538 113 
L 3597 113 
Q 3781 113 3884 184 
Q 3956 234 3988 344 
Q 4000 397 4000 647 
L 4000 1878 
Q 4000 2228 3916 2372 
Q 3794 2572 3525 2572 
Q 3359 2572 3192 2489 
Q 3025 2406 2788 2181 
L 2781 2147 
L 2788 2013 
L 2788 647 
Q 2788 353 2820 281 
Q 2853 209 2943 161 
Q 3034 113 3253 113 
L 3253 0 
L 1806 0 
L 1806 113 
Q 2044 113 2133 169 
Q 2222 225 2256 338 
Q 2272 391 2272 647 
L 2272 1878 
Q 2272 2228 2169 2381 
Q 2031 2581 1784 2581 
Q 1616 2581 1450 2491 
Q 1191 2353 1050 2181 
L 1050 647 
Q 1050 366 1089 281 
Q 1128 197 1204 155 
Q 1281 113 1516 113 
L 1516 0 
L 100 0 
L 100 113 
Q 297 113 375 155 
Q 453 197 493 289 
Q 534 381 534 647 
L 534 1741 
Q 534 2213 506 2350 
Q 484 2453 437 2492 
Q 391 2531 309 2531 
Q 222 2531 100 2484 
L 53 2597 
L 916 2947 
L 1050 2947 
L 1050 2338 
z
" transform="scale(0.015625)"/>
       <path id="TimesNewRomanPSMT-62" d="M 984 2369 
Q 1400 2947 1881 2947 
Q 2322 2947 2650 2570 
Q 2978 2194 2978 1541 
Q 2978 778 2472 313 
Q 2038 -88 1503 -88 
Q 1253 -88 995 3 
Q 738 94 469 275 
L 469 3241 
Q 469 3728 445 3840 
Q 422 3953 372 3993 
Q 322 4034 247 4034 
Q 159 4034 28 3984 
L -16 4094 
L 844 4444 
L 984 4444 
L 984 2369 
z
M 984 2169 
L 984 456 
Q 1144 300 1314 220 
Q 1484 141 1663 141 
Q 1947 141 2192 453 
Q 2438 766 2438 1363 
Q 2438 1913 2192 2208 
Q 1947 2503 1634 2503 
Q 1469 2503 1303 2419 
Q 1178 2356 984 2169 
z
" transform="scale(0.015625)"/>
       <path id="TimesNewRomanPSMT-67" d="M 966 1044 
Q 703 1172 562 1401 
Q 422 1631 422 1909 
Q 422 2334 742 2640 
Q 1063 2947 1563 2947 
Q 1972 2947 2272 2747 
L 2878 2747 
Q 3013 2747 3034 2739 
Q 3056 2731 3066 2713 
Q 3084 2684 3084 2613 
Q 3084 2531 3069 2500 
Q 3059 2484 3036 2475 
Q 3013 2466 2878 2466 
L 2506 2466 
Q 2681 2241 2681 1891 
Q 2681 1491 2375 1206 
Q 2069 922 1553 922 
Q 1341 922 1119 984 
Q 981 866 932 777 
Q 884 688 884 625 
Q 884 572 936 522 
Q 988 472 1138 450 
Q 1225 438 1575 428 
Q 2219 413 2409 384 
Q 2700 344 2873 169 
Q 3047 -6 3047 -263 
Q 3047 -616 2716 -925 
Q 2228 -1381 1444 -1381 
Q 841 -1381 425 -1109 
Q 191 -953 191 -784 
Q 191 -709 225 -634 
Q 278 -519 444 -313 
Q 466 -284 763 25 
Q 600 122 533 198 
Q 466 275 466 372 
Q 466 481 555 628 
Q 644 775 966 1044 
z
M 1509 2797 
Q 1278 2797 1122 2612 
Q 966 2428 966 2047 
Q 966 1553 1178 1281 
Q 1341 1075 1591 1075 
Q 1828 1075 1981 1253 
Q 2134 1431 2134 1813 
Q 2134 2309 1919 2591 
Q 1759 2797 1509 2797 
z
M 934 0 
Q 788 -159 713 -296 
Q 638 -434 638 -550 
Q 638 -700 819 -813 
Q 1131 -1006 1722 -1006 
Q 2284 -1006 2551 -807 
Q 2819 -609 2819 -384 
Q 2819 -222 2659 -153 
Q 2497 -84 2016 -72 
Q 1313 -53 934 0 
z
" transform="scale(0.015625)"/>
       <path id="TimesNewRomanPSMT-75" d="M 2709 2863 
L 2709 1128 
Q 2709 631 2732 520 
Q 2756 409 2807 365 
Q 2859 322 2928 322 
Q 3025 322 3147 375 
L 3191 266 
L 2334 -88 
L 2194 -88 
L 2194 519 
Q 1825 119 1631 15 
Q 1438 -88 1222 -88 
Q 981 -88 804 51 
Q 628 191 559 409 
Q 491 628 491 1028 
L 491 2306 
Q 491 2509 447 2587 
Q 403 2666 317 2708 
Q 231 2750 6 2747 
L 6 2863 
L 1009 2863 
L 1009 947 
Q 1009 547 1148 422 
Q 1288 297 1484 297 
Q 1619 297 1789 381 
Q 1959 466 2194 703 
L 2194 2325 
Q 2194 2569 2105 2655 
Q 2016 2741 1734 2747 
L 1734 2863 
L 2709 2863 
z
" transform="scale(0.015625)"/>
      </defs>
      <use xlink:href="#TimesNewRomanPSMT-41"/>
      <use xlink:href="#TimesNewRomanPSMT-6d" x="72.216797"/>
      <use xlink:href="#TimesNewRomanPSMT-62" x="150"/>
      <use xlink:href="#TimesNewRomanPSMT-69" x="200"/>
      <use xlink:href="#TimesNewRomanPSMT-67" x="227.783203"/>
      <use xlink:href="#TimesNewRomanPSMT-75" x="277.783203"/>
      <use xlink:href="#TimesNewRomanPSMT-6f" x="327.783203"/>
      <use xlink:href="#TimesNewRomanPSMT-75" x="377.783203"/>
      <use xlink:href="#TimesNewRomanPSMT-73" x="427.783203"/>
     </g>
     <!-- consistent -->
     <g transform="translate(28.120875 124.349625) rotate(-90) scale(0.12 -0.12)">
      <use xlink:href="#TimesNewRomanPSMT-63"/>
      <use xlink:href="#TimesNewRomanPSMT-6f" x="44.384766"/>
      <use xlink:href="#TimesNewRomanPSMT-6e" x="94.384766"/>
      <use xlink:href="#TimesNewRomanPSMT-73" x="144.384766"/>
      <use xlink:href="#TimesNewRomanPSMT-69" x="183.300781"/>
      <use xlink:href="#TimesNewRomanPSMT-73" x="211.083984"/>
      <use xlink:href="#TimesNewRomanPSMT-74" x="250"/>
      <use xlink:href="#TimesNewRomanPSMT-65" x="277.783203"/>
      <use xlink:href="#TimesNewRomanPSMT-6e" x="322.167969"/>
      <use xlink:href="#TimesNewRomanPSMT-74" x="372.167969"/>
     </g>
     <!-- FEC rate -->
     <g transform="translate(40.68675 121.8465) rotate(-90) scale(0.12 -0.12)">
      <use xlink:href="#TimesNewRomanPSMT-46"/>
      <use xlink:href="#TimesNewRomanPSMT-45" x="55.615234"/>
      <use xlink:href="#TimesNewRomanPSMT-43" x="116.699219"/>
      <use xlink:href="#TimesNewRomanPSMT-20" x="183.398438"/>
      <use xlink:href="#TimesNewRomanPSMT-72" x="208.398438"/>
      <use xlink:href="#TimesNewRomanPSMT-61" x="241.699219"/>
      <use xlink:href="#TimesNewRomanPSMT-74" x="286.083984"/>
      <use xlink:href="#TimesNewRomanPSMT-65" x="313.867188"/>
     </g>
    </g>
   </g>
   <g id="patch_52">
    <path d="M 82.24925 122.5275 
L 82.24925 78.1755 
" style="fill: none; stroke: #000000; stroke-width: 0.8; stroke-linejoin: miter; stroke-linecap: square"/>
   </g>
   <g id="patch_53">
    <path d="M 182.68925 122.5275 
L 182.68925 78.1755 
" style="fill: none; stroke: #000000; stroke-width: 0.8; stroke-linejoin: miter; stroke-linecap: square"/>
   </g>
   <g id="patch_54">
    <path d="M 82.24925 122.5275 
L 182.68925 122.5275 
" style="fill: none; stroke: #000000; stroke-width: 0.8; stroke-linejoin: miter; stroke-linecap: square"/>
   </g>
   <g id="patch_55">
    <path d="M 82.24925 78.1755 
L 182.68925 78.1755 
" style="fill: none; stroke: #000000; stroke-width: 0.8; stroke-linejoin: miter; stroke-linecap: square"/>
   </g>
  </g>
  <g id="axes_7">
   <g id="patch_56">
    <path d="M 182.68925 122.5275 
L 283.12925 122.5275 
L 283.12925 78.1755 
L 182.68925 78.1755 
z
" style="fill: #ffffff"/>
   </g>
   <g id="patch_57">
    <path d="M 187.254705 122.5275 
L 206.477671 122.5275 
L 206.477671 103.881014 
L 187.254705 103.881014 
z
" clip-path="url(#pd4c0cec5e4)" style="fill: #0080ff; fill-opacity: 0.7; stroke: #000000; stroke-width: 1.5; stroke-linejoin: miter"/>
   </g>
   <g id="patch_58">
    <path d="M 211.283413 122.5275 
L 230.506379 122.5275 
L 230.506379 102.64974 
L 211.283413 102.64974 
z
" clip-path="url(#pd4c0cec5e4)" style="fill: #5580aa; fill-opacity: 0.7; stroke: #000000; stroke-width: 1.5; stroke-linejoin: miter"/>
   </g>
   <g id="patch_59">
    <path d="M 235.312121 122.5275 
L 254.535087 122.5275 
L 254.535087 104.781021 
L 235.312121 104.781021 
z
" clip-path="url(#pd4c0cec5e4)" style="fill: #aa8055; fill-opacity: 0.7; stroke: #000000; stroke-width: 1.5; stroke-linejoin: miter"/>
   </g>
   <g id="patch_60">
    <path d="M 259.340829 122.5275 
L 278.563795 122.5275 
L 278.563795 105.31086 
L 259.340829 105.31086 
z
" clip-path="url(#pd4c0cec5e4)" style="fill: #ff8000; fill-opacity: 0.7; stroke: #000000; stroke-width: 1.5; stroke-linejoin: miter"/>
   </g>
   <g id="matplotlib.axis_13"/>
   <g id="matplotlib.axis_14"/>
   <g id="patch_61">
    <path d="M 182.68925 122.5275 
L 182.68925 78.1755 
" style="fill: none; stroke: #000000; stroke-width: 0.8; stroke-linejoin: miter; stroke-linecap: square"/>
   </g>
   <g id="patch_62">
    <path d="M 283.12925 122.5275 
L 283.12925 78.1755 
" style="fill: none; stroke: #000000; stroke-width: 0.8; stroke-linejoin: miter; stroke-linecap: square"/>
   </g>
   <g id="patch_63">
    <path d="M 182.68925 122.5275 
L 283.12925 122.5275 
" style="fill: none; stroke: #000000; stroke-width: 0.8; stroke-linejoin: miter; stroke-linecap: square"/>
   </g>
   <g id="patch_64">
    <path d="M 182.68925 78.1755 
L 283.12925 78.1755 
" style="fill: none; stroke: #000000; stroke-width: 0.8; stroke-linejoin: miter; stroke-linecap: square"/>
   </g>
  </g>
  <g id="axes_8">
   <g id="patch_65">
    <path d="M 283.12925 122.5275 
L 383.56925 122.5275 
L 383.56925 78.1755 
L 283.12925 78.1755 
z
" style="fill: #ffffff"/>
   </g>
   <g id="patch_66">
    <path d="M 287.694705 122.5275 
L 306.917671 122.5275 
L 306.917671 95.824163 
L 287.694705 95.824163 
z
" clip-path="url(#p46cc51db8f)" style="fill: #0080ff; fill-opacity: 0.7; stroke: #000000; stroke-width: 1.5; stroke-linejoin: miter"/>
   </g>
   <g id="patch_67">
    <path d="M 311.723413 122.5275 
L 330.946379 122.5275 
L 330.946379 93.73902 
L 311.723413 93.73902 
z
" clip-path="url(#p46cc51db8f)" style="fill: #5580aa; fill-opacity: 0.7; stroke: #000000; stroke-width: 1.5; stroke-linejoin: miter"/>
   </g>
   <g id="patch_68">
    <path d="M 335.752121 122.5275 
L 354.975087 122.5275 
L 354.975087 95.389038 
L 335.752121 95.389038 
z
" clip-path="url(#p46cc51db8f)" style="fill: #aa8055; fill-opacity: 0.7; stroke: #000000; stroke-width: 1.5; stroke-linejoin: miter"/>
   </g>
   <g id="patch_69">
    <path d="M 359.780829 122.5275 
L 379.003795 122.5275 
L 379.003795 96.526373 
L 359.780829 96.526373 
z
" clip-path="url(#p46cc51db8f)" style="fill: #ff8000; fill-opacity: 0.7; stroke: #000000; stroke-width: 1.5; stroke-linejoin: miter"/>
   </g>
   <g id="matplotlib.axis_15"/>
   <g id="matplotlib.axis_16"/>
   <g id="patch_70">
    <path d="M 283.12925 122.5275 
L 283.12925 78.1755 
" style="fill: none; stroke: #000000; stroke-width: 0.8; stroke-linejoin: miter; stroke-linecap: square"/>
   </g>
   <g id="patch_71">
    <path d="M 383.56925 122.5275 
L 383.56925 78.1755 
" style="fill: none; stroke: #000000; stroke-width: 0.8; stroke-linejoin: miter; stroke-linecap: square"/>
   </g>
   <g id="patch_72">
    <path d="M 283.12925 122.5275 
L 383.56925 122.5275 
" style="fill: none; stroke: #000000; stroke-width: 0.8; stroke-linejoin: miter; stroke-linecap: square"/>
   </g>
   <g id="patch_73">
    <path d="M 283.12925 78.1755 
L 383.56925 78.1755 
" style="fill: none; stroke: #000000; stroke-width: 0.8; stroke-linejoin: miter; stroke-linecap: square"/>
   </g>
  </g>
  <g id="axes_9">
   <g id="patch_74">
    <path d="M 383.56925 122.5275 
L 484.00925 122.5275 
L 484.00925 78.1755 
L 383.56925 78.1755 
z
" style="fill: #ffffff"/>
   </g>
   <g id="patch_75">
    <path d="M 388.134705 122.5275 
L 407.357671 122.5275 
L 407.357671 93.11713 
L 388.134705 93.11713 
z
" clip-path="url(#p6f19726985)" style="fill: #0080ff; fill-opacity: 0.7; stroke: #000000; stroke-width: 1.5; stroke-linejoin: miter"/>
   </g>
   <g id="patch_76">
    <path d="M 412.163413 122.5275 
L 431.386379 122.5275 
L 431.386379 90.534011 
L 412.163413 90.534011 
z
" clip-path="url(#p6f19726985)" style="fill: #5580aa; fill-opacity: 0.7; stroke: #000000; stroke-width: 1.5; stroke-linejoin: miter"/>
   </g>
   <g id="patch_77">
    <path d="M 436.192121 122.5275 
L 455.415087 122.5275 
L 455.415087 89.636646 
L 436.192121 89.636646 
z
" clip-path="url(#p6f19726985)" style="fill: #aa8055; fill-opacity: 0.7; stroke: #000000; stroke-width: 1.5; stroke-linejoin: miter"/>
   </g>
   <g id="patch_78">
    <path d="M 460.220829 122.5275 
L 479.443795 122.5275 
L 479.443795 90.940018 
L 460.220829 90.940018 
z
" clip-path="url(#p6f19726985)" style="fill: #ff8000; fill-opacity: 0.7; stroke: #000000; stroke-width: 1.5; stroke-linejoin: miter"/>
   </g>
   <g id="matplotlib.axis_17"/>
   <g id="matplotlib.axis_18"/>
   <g id="patch_79">
    <path d="M 383.56925 122.5275 
L 383.56925 78.1755 
" style="fill: none; stroke: #000000; stroke-width: 0.8; stroke-linejoin: miter; stroke-linecap: square"/>
   </g>
   <g id="patch_80">
    <path d="M 484.00925 122.5275 
L 484.00925 78.1755 
" style="fill: none; stroke: #000000; stroke-width: 0.8; stroke-linejoin: miter; stroke-linecap: square"/>
   </g>
   <g id="patch_81">
    <path d="M 383.56925 122.5275 
L 484.00925 122.5275 
" style="fill: none; stroke: #000000; stroke-width: 0.8; stroke-linejoin: miter; stroke-linecap: square"/>
   </g>
   <g id="patch_82">
    <path d="M 383.56925 78.1755 
L 484.00925 78.1755 
" style="fill: none; stroke: #000000; stroke-width: 0.8; stroke-linejoin: miter; stroke-linecap: square"/>
   </g>
  </g>
  <g id="axes_10">
   <g id="patch_83">
    <path d="M 484.00925 122.5275 
L 584.44925 122.5275 
L 584.44925 78.1755 
L 484.00925 78.1755 
z
" style="fill: #ffffff"/>
   </g>
   <g id="patch_84">
    <path d="M 488.574705 122.5275 
L 507.797671 122.5275 
L 507.797671 95.33593 
L 488.574705 95.33593 
z
" clip-path="url(#p7fb3db0ed7)" style="fill: #0080ff; fill-opacity: 0.7; stroke: #000000; stroke-width: 1.5; stroke-linejoin: miter"/>
   </g>
   <g id="patch_85">
    <path d="M 512.603413 122.5275 
L 531.826379 122.5275 
L 531.826379 89.023775 
L 512.603413 89.023775 
z
" clip-path="url(#p7fb3db0ed7)" style="fill: #5580aa; fill-opacity: 0.7; stroke: #000000; stroke-width: 1.5; stroke-linejoin: miter"/>
   </g>
   <g id="patch_86">
    <path d="M 536.632121 122.5275 
L 555.855087 122.5275 
L 555.855087 86.438078 
L 536.632121 86.438078 
z
" clip-path="url(#p7fb3db0ed7)" style="fill: #aa8055; fill-opacity: 0.7; stroke: #000000; stroke-width: 1.5; stroke-linejoin: miter"/>
   </g>
   <g id="patch_87">
    <path d="M 560.660829 122.5275 
L 579.883795 122.5275 
L 579.883795 86.6875 
L 560.660829 86.6875 
z
" clip-path="url(#p7fb3db0ed7)" style="fill: #ff8000; fill-opacity: 0.7; stroke: #000000; stroke-width: 1.5; stroke-linejoin: miter"/>
   </g>
   <g id="matplotlib.axis_19"/>
   <g id="matplotlib.axis_20"/>
   <g id="patch_88">
    <path d="M 484.00925 122.5275 
L 484.00925 78.1755 
" style="fill: none; stroke: #000000; stroke-width: 0.8; stroke-linejoin: miter; stroke-linecap: square"/>
   </g>
   <g id="patch_89">
    <path d="M 584.44925 122.5275 
L 584.44925 78.1755 
" style="fill: none; stroke: #000000; stroke-width: 0.8; stroke-linejoin: miter; stroke-linecap: square"/>
   </g>
   <g id="patch_90">
    <path d="M 484.00925 122.5275 
L 584.44925 122.5275 
" style="fill: none; stroke: #000000; stroke-width: 0.8; stroke-linejoin: miter; stroke-linecap: square"/>
   </g>
   <g id="patch_91">
    <path d="M 484.00925 78.1755 
L 584.44925 78.1755 
" style="fill: none; stroke: #000000; stroke-width: 0.8; stroke-linejoin: miter; stroke-linecap: square"/>
   </g>
  </g>
  <g id="axes_11">
   <g id="patch_92">
    <path d="M 82.24925 177.9675 
L 182.68925 177.9675 
L 182.68925 133.6155 
L 82.24925 133.6155 
z
" style="fill: #ffffff"/>
   </g>
   <g id="patch_93">
    <path d="M 86.814705 177.9675 
L 106.037671 177.9675 
L 106.037671 137.6475 
L 86.814705 137.6475 
z
" clip-path="url(#p9d5830fa1b)" style="fill: #0080ff; fill-opacity: 0.7; stroke: #000000; stroke-width: 1.5; stroke-linejoin: miter"/>
   </g>
   <g id="patch_94">
    <path d="M 110.843413 177.9675 
L 130.066379 177.9675 
L 130.066379 137.6475 
L 110.843413 137.6475 
z
" clip-path="url(#p9d5830fa1b)" style="fill: #5580aa; fill-opacity: 0.7; stroke: #000000; stroke-width: 1.5; stroke-linejoin: miter"/>
   </g>
   <g id="patch_95">
    <path d="M 134.872121 177.9675 
L 154.095087 177.9675 
L 154.095087 137.6475 
L 134.872121 137.6475 
z
" clip-path="url(#p9d5830fa1b)" style="fill: #aa8055; fill-opacity: 0.7; stroke: #000000; stroke-width: 1.5; stroke-linejoin: miter"/>
   </g>
   <g id="patch_96">
    <path d="M 158.900829 177.9675 
L 178.123795 177.9675 
L 178.123795 137.6475 
L 158.900829 137.6475 
z
" clip-path="url(#p9d5830fa1b)" style="fill: #ff8000; fill-opacity: 0.7; stroke: #000000; stroke-width: 1.5; stroke-linejoin: miter"/>
   </g>
   <g id="matplotlib.axis_21"/>
   <g id="matplotlib.axis_22">
    <g id="ytick_11">
     <g id="line2d_11">
      <g>
       <use xlink:href="#mb54da89a8f" x="82.24925" y="177.9675" style="stroke: #000000; stroke-width: 0.8"/>
      </g>
     </g>
     <g id="text_18">
      <!-- 0% -->
      <g transform="translate(59.253625 182.13375) scale(0.12 -0.12)">
       <use xlink:href="#TimesNewRomanPSMT-30"/>
       <use xlink:href="#TimesNewRomanPSMT-25" x="50"/>
      </g>
     </g>
    </g>
    <g id="ytick_12">
     <g id="line2d_12">
      <g>
       <use xlink:href="#mb54da89a8f" x="82.24925" y="137.6475" style="stroke: #000000; stroke-width: 0.8"/>
      </g>
     </g>
     <g id="text_19">
      <!-- 100% -->
      <g transform="translate(47.253625 141.81375) scale(0.12 -0.12)">
       <use xlink:href="#TimesNewRomanPSMT-31"/>
       <use xlink:href="#TimesNewRomanPSMT-30" x="50"/>
       <use xlink:href="#TimesNewRomanPSMT-30" x="100"/>
       <use xlink:href="#TimesNewRomanPSMT-25" x="150"/>
      </g>
     </g>
    </g>
    <g id="ytick_13">
     <g id="line2d_13">
      <g>
       <use xlink:href="#mb54da89a8f" x="82.24925" y="177.9675" style="stroke: #000000; stroke-width: 0.8"/>
      </g>
     </g>
     <g id="text_20">
      <!-- 0% -->
      <g transform="translate(59.253625 182.13375) scale(0.12 -0.12)">
       <use xlink:href="#TimesNewRomanPSMT-30"/>
       <use xlink:href="#TimesNewRomanPSMT-25" x="50"/>
      </g>
     </g>
    </g>
    <g id="ytick_14">
     <g id="line2d_14">
      <g>
       <use xlink:href="#mb54da89a8f" x="82.24925" y="157.8075" style="stroke: #000000; stroke-width: 0.8"/>
      </g>
     </g>
     <g id="text_21">
      <!-- 50% -->
      <g transform="translate(53.253625 161.97375) scale(0.12 -0.12)">
       <use xlink:href="#TimesNewRomanPSMT-35"/>
       <use xlink:href="#TimesNewRomanPSMT-30" x="50"/>
       <use xlink:href="#TimesNewRomanPSMT-25" x="100"/>
      </g>
     </g>
    </g>
    <g id="ytick_15">
     <g id="line2d_15">
      <g>
       <use xlink:href="#mb54da89a8f" x="82.24925" y="137.6475" style="stroke: #000000; stroke-width: 0.8"/>
      </g>
     </g>
     <g id="text_22">
      <!-- 100% -->
      <g transform="translate(47.253625 141.81375) scale(0.12 -0.12)">
       <use xlink:href="#TimesNewRomanPSMT-31"/>
       <use xlink:href="#TimesNewRomanPSMT-30" x="50"/>
       <use xlink:href="#TimesNewRomanPSMT-30" x="100"/>
       <use xlink:href="#TimesNewRomanPSMT-25" x="150"/>
      </g>
     </g>
    </g>
    <g id="text_23">
     <!-- Relevant -->
     <g transform="translate(28.120875 177.11775) rotate(-90) scale(0.12 -0.12)">
      <use xlink:href="#TimesNewRomanPSMT-52"/>
      <use xlink:href="#TimesNewRomanPSMT-65" x="66.699219"/>
      <use xlink:href="#TimesNewRomanPSMT-6c" x="111.083984"/>
      <use xlink:href="#TimesNewRomanPSMT-65" x="138.867188"/>
      <use xlink:href="#TimesNewRomanPSMT-76" x="183.251953"/>
      <use xlink:href="#TimesNewRomanPSMT-61" x="233.251953"/>
      <use xlink:href="#TimesNewRomanPSMT-6e" x="277.636719"/>
      <use xlink:href="#TimesNewRomanPSMT-74" x="327.636719"/>
     </g>
     <!-- FSM rate -->
     <g transform="translate(40.68675 178.2915) rotate(-90) scale(0.12 -0.12)">
      <defs>
       <path id="TimesNewRomanPSMT-53" d="M 2934 4334 
L 2934 2869 
L 2819 2869 
Q 2763 3291 2617 3541 
Q 2472 3791 2203 3937 
Q 1934 4084 1647 4084 
Q 1322 4084 1109 3886 
Q 897 3688 897 3434 
Q 897 3241 1031 3081 
Q 1225 2847 1953 2456 
Q 2547 2138 2764 1967 
Q 2981 1797 3098 1565 
Q 3216 1334 3216 1081 
Q 3216 600 2842 251 
Q 2469 -97 1881 -97 
Q 1697 -97 1534 -69 
Q 1438 -53 1133 45 
Q 828 144 747 144 
Q 669 144 623 97 
Q 578 50 556 -97 
L 441 -97 
L 441 1356 
L 556 1356 
Q 638 900 775 673 
Q 913 447 1195 297 
Q 1478 147 1816 147 
Q 2206 147 2432 353 
Q 2659 559 2659 841 
Q 2659 997 2573 1156 
Q 2488 1316 2306 1453 
Q 2184 1547 1640 1851 
Q 1097 2156 867 2337 
Q 638 2519 519 2737 
Q 400 2956 400 3219 
Q 400 3675 750 4004 
Q 1100 4334 1641 4334 
Q 1978 4334 2356 4169 
Q 2531 4091 2603 4091 
Q 2684 4091 2736 4139 
Q 2788 4188 2819 4334 
L 2934 4334 
z
" transform="scale(0.015625)"/>
       <path id="TimesNewRomanPSMT-4d" d="M 2619 0 
L 981 3566 
L 981 734 
Q 981 344 1066 247 
Q 1181 116 1431 116 
L 1581 116 
L 1581 0 
L 106 0 
L 106 116 
L 256 116 
Q 525 116 638 278 
Q 706 378 706 734 
L 706 3503 
Q 706 3784 644 3909 
Q 600 4000 483 4061 
Q 366 4122 106 4122 
L 106 4238 
L 1306 4238 
L 2844 922 
L 4356 4238 
L 5556 4238 
L 5556 4122 
L 5409 4122 
Q 5138 4122 5025 3959 
Q 4956 3859 4956 3503 
L 4956 734 
Q 4956 344 5044 247 
Q 5159 116 5409 116 
L 5556 116 
L 5556 0 
L 3756 0 
L 3756 116 
L 3906 116 
Q 4178 116 4288 278 
Q 4356 378 4356 734 
L 4356 3566 
L 2722 0 
L 2619 0 
z
" transform="scale(0.015625)"/>
      </defs>
      <use xlink:href="#TimesNewRomanPSMT-46"/>
      <use xlink:href="#TimesNewRomanPSMT-53" x="55.615234"/>
      <use xlink:href="#TimesNewRomanPSMT-4d" x="111.230469"/>
      <use xlink:href="#TimesNewRomanPSMT-20" x="200.146484"/>
      <use xlink:href="#TimesNewRomanPSMT-72" x="225.146484"/>
      <use xlink:href="#TimesNewRomanPSMT-61" x="258.447266"/>
      <use xlink:href="#TimesNewRomanPSMT-74" x="302.832031"/>
      <use xlink:href="#TimesNewRomanPSMT-65" x="330.615234"/>
     </g>
    </g>
   </g>
   <g id="patch_97">
    <path d="M 82.24925 177.9675 
L 82.24925 133.6155 
" style="fill: none; stroke: #000000; stroke-width: 0.8; stroke-linejoin: miter; stroke-linecap: square"/>
   </g>
   <g id="patch_98">
    <path d="M 182.68925 177.9675 
L 182.68925 133.6155 
" style="fill: none; stroke: #000000; stroke-width: 0.8; stroke-linejoin: miter; stroke-linecap: square"/>
   </g>
   <g id="patch_99">
    <path d="M 82.24925 177.9675 
L 182.68925 177.9675 
" style="fill: none; stroke: #000000; stroke-width: 0.8; stroke-linejoin: miter; stroke-linecap: square"/>
   </g>
   <g id="patch_100">
    <path d="M 82.24925 133.6155 
L 182.68925 133.6155 
" style="fill: none; stroke: #000000; stroke-width: 0.8; stroke-linejoin: miter; stroke-linecap: square"/>
   </g>
  </g>
  <g id="axes_12">
   <g id="patch_101">
    <path d="M 182.68925 177.9675 
L 283.12925 177.9675 
L 283.12925 133.6155 
L 182.68925 133.6155 
z
" style="fill: #ffffff"/>
   </g>
   <g id="patch_102">
    <path d="M 187.254705 177.9675 
L 206.477671 177.9675 
L 206.477671 137.6475 
L 187.254705 137.6475 
z
" clip-path="url(#p9a3350fc6d)" style="fill: #0080ff; fill-opacity: 0.7; stroke: #000000; stroke-width: 1.5; stroke-linejoin: miter"/>
   </g>
   <g id="patch_103">
    <path d="M 211.283413 177.9675 
L 230.506379 177.9675 
L 230.506379 137.6475 
L 211.283413 137.6475 
z
" clip-path="url(#p9a3350fc6d)" style="fill: #5580aa; fill-opacity: 0.7; stroke: #000000; stroke-width: 1.5; stroke-linejoin: miter"/>
   </g>
   <g id="patch_104">
    <path d="M 235.312121 177.9675 
L 254.535087 177.9675 
L 254.535087 137.6475 
L 235.312121 137.6475 
z
" clip-path="url(#p9a3350fc6d)" style="fill: #aa8055; fill-opacity: 0.7; stroke: #000000; stroke-width: 1.5; stroke-linejoin: miter"/>
   </g>
   <g id="patch_105">
    <path d="M 259.340829 177.9675 
L 278.563795 177.9675 
L 278.563795 137.6475 
L 259.340829 137.6475 
z
" clip-path="url(#p9a3350fc6d)" style="fill: #ff8000; fill-opacity: 0.7; stroke: #000000; stroke-width: 1.5; stroke-linejoin: miter"/>
   </g>
   <g id="matplotlib.axis_23"/>
   <g id="matplotlib.axis_24"/>
   <g id="patch_106">
    <path d="M 182.68925 177.9675 
L 182.68925 133.6155 
" style="fill: none; stroke: #000000; stroke-width: 0.8; stroke-linejoin: miter; stroke-linecap: square"/>
   </g>
   <g id="patch_107">
    <path d="M 283.12925 177.9675 
L 283.12925 133.6155 
" style="fill: none; stroke: #000000; stroke-width: 0.8; stroke-linejoin: miter; stroke-linecap: square"/>
   </g>
   <g id="patch_108">
    <path d="M 182.68925 177.9675 
L 283.12925 177.9675 
" style="fill: none; stroke: #000000; stroke-width: 0.8; stroke-linejoin: miter; stroke-linecap: square"/>
   </g>
   <g id="patch_109">
    <path d="M 182.68925 133.6155 
L 283.12925 133.6155 
" style="fill: none; stroke: #000000; stroke-width: 0.8; stroke-linejoin: miter; stroke-linecap: square"/>
   </g>
  </g>
  <g id="axes_13">
   <g id="patch_110">
    <path d="M 283.12925 177.9675 
L 383.56925 177.9675 
L 383.56925 133.6155 
L 283.12925 133.6155 
z
" style="fill: #ffffff"/>
   </g>
   <g id="patch_111">
    <path d="M 287.694705 177.9675 
L 306.917671 177.9675 
L 306.917671 137.6475 
L 287.694705 137.6475 
z
" clip-path="url(#p7511ac70d9)" style="fill: #0080ff; fill-opacity: 0.7; stroke: #000000; stroke-width: 1.5; stroke-linejoin: miter"/>
   </g>
   <g id="patch_112">
    <path d="M 311.723413 177.9675 
L 330.946379 177.9675 
L 330.946379 137.6475 
L 311.723413 137.6475 
z
" clip-path="url(#p7511ac70d9)" style="fill: #5580aa; fill-opacity: 0.7; stroke: #000000; stroke-width: 1.5; stroke-linejoin: miter"/>
   </g>
   <g id="patch_113">
    <path d="M 335.752121 177.9675 
L 354.975087 177.9675 
L 354.975087 137.6475 
L 335.752121 137.6475 
z
" clip-path="url(#p7511ac70d9)" style="fill: #aa8055; fill-opacity: 0.7; stroke: #000000; stroke-width: 1.5; stroke-linejoin: miter"/>
   </g>
   <g id="patch_114">
    <path d="M 359.780829 177.9675 
L 379.003795 177.9675 
L 379.003795 137.6475 
L 359.780829 137.6475 
z
" clip-path="url(#p7511ac70d9)" style="fill: #ff8000; fill-opacity: 0.7; stroke: #000000; stroke-width: 1.5; stroke-linejoin: miter"/>
   </g>
   <g id="matplotlib.axis_25"/>
   <g id="matplotlib.axis_26"/>
   <g id="patch_115">
    <path d="M 283.12925 177.9675 
L 283.12925 133.6155 
" style="fill: none; stroke: #000000; stroke-width: 0.8; stroke-linejoin: miter; stroke-linecap: square"/>
   </g>
   <g id="patch_116">
    <path d="M 383.56925 177.9675 
L 383.56925 133.6155 
" style="fill: none; stroke: #000000; stroke-width: 0.8; stroke-linejoin: miter; stroke-linecap: square"/>
   </g>
   <g id="patch_117">
    <path d="M 283.12925 177.9675 
L 383.56925 177.9675 
" style="fill: none; stroke: #000000; stroke-width: 0.8; stroke-linejoin: miter; stroke-linecap: square"/>
   </g>
   <g id="patch_118">
    <path d="M 283.12925 133.6155 
L 383.56925 133.6155 
" style="fill: none; stroke: #000000; stroke-width: 0.8; stroke-linejoin: miter; stroke-linecap: square"/>
   </g>
  </g>
  <g id="axes_14">
   <g id="patch_119">
    <path d="M 383.56925 177.9675 
L 484.00925 177.9675 
L 484.00925 133.6155 
L 383.56925 133.6155 
z
" style="fill: #ffffff"/>
   </g>
   <g id="patch_120">
    <path d="M 388.134705 177.9675 
L 407.357671 177.9675 
L 407.357671 137.6475 
L 388.134705 137.6475 
z
" clip-path="url(#pa385858e2c)" style="fill: #0080ff; fill-opacity: 0.7; stroke: #000000; stroke-width: 1.5; stroke-linejoin: miter"/>
   </g>
   <g id="patch_121">
    <path d="M 412.163413 177.9675 
L 431.386379 177.9675 
L 431.386379 137.6475 
L 412.163413 137.6475 
z
" clip-path="url(#pa385858e2c)" style="fill: #5580aa; fill-opacity: 0.7; stroke: #000000; stroke-width: 1.5; stroke-linejoin: miter"/>
   </g>
   <g id="patch_122">
    <path d="M 436.192121 177.9675 
L 455.415087 177.9675 
L 455.415087 137.6475 
L 436.192121 137.6475 
z
" clip-path="url(#pa385858e2c)" style="fill: #aa8055; fill-opacity: 0.7; stroke: #000000; stroke-width: 1.5; stroke-linejoin: miter"/>
   </g>
   <g id="patch_123">
    <path d="M 460.220829 177.9675 
L 479.443795 177.9675 
L 479.443795 137.6475 
L 460.220829 137.6475 
z
" clip-path="url(#pa385858e2c)" style="fill: #ff8000; fill-opacity: 0.7; stroke: #000000; stroke-width: 1.5; stroke-linejoin: miter"/>
   </g>
   <g id="matplotlib.axis_27"/>
   <g id="matplotlib.axis_28"/>
   <g id="patch_124">
    <path d="M 383.56925 177.9675 
L 383.56925 133.6155 
" style="fill: none; stroke: #000000; stroke-width: 0.8; stroke-linejoin: miter; stroke-linecap: square"/>
   </g>
   <g id="patch_125">
    <path d="M 484.00925 177.9675 
L 484.00925 133.6155 
" style="fill: none; stroke: #000000; stroke-width: 0.8; stroke-linejoin: miter; stroke-linecap: square"/>
   </g>
   <g id="patch_126">
    <path d="M 383.56925 177.9675 
L 484.00925 177.9675 
" style="fill: none; stroke: #000000; stroke-width: 0.8; stroke-linejoin: miter; stroke-linecap: square"/>
   </g>
   <g id="patch_127">
    <path d="M 383.56925 133.6155 
L 484.00925 133.6155 
" style="fill: none; stroke: #000000; stroke-width: 0.8; stroke-linejoin: miter; stroke-linecap: square"/>
   </g>
  </g>
  <g id="axes_15">
   <g id="patch_128">
    <path d="M 484.00925 177.9675 
L 584.44925 177.9675 
L 584.44925 133.6155 
L 484.00925 133.6155 
z
" style="fill: #ffffff"/>
   </g>
   <g id="patch_129">
    <path d="M 488.574705 177.9675 
L 507.797671 177.9675 
L 507.797671 137.6475 
L 488.574705 137.6475 
z
" clip-path="url(#p002076c43a)" style="fill: #0080ff; fill-opacity: 0.7; stroke: #000000; stroke-width: 1.5; stroke-linejoin: miter"/>
   </g>
   <g id="patch_130">
    <path d="M 512.603413 177.9675 
L 531.826379 177.9675 
L 531.826379 137.6475 
L 512.603413 137.6475 
z
" clip-path="url(#p002076c43a)" style="fill: #5580aa; fill-opacity: 0.7; stroke: #000000; stroke-width: 1.5; stroke-linejoin: miter"/>
   </g>
   <g id="patch_131">
    <path d="M 536.632121 177.9675 
L 555.855087 177.9675 
L 555.855087 137.6475 
L 536.632121 137.6475 
z
" clip-path="url(#p002076c43a)" style="fill: #aa8055; fill-opacity: 0.7; stroke: #000000; stroke-width: 1.5; stroke-linejoin: miter"/>
   </g>
   <g id="patch_132">
    <path d="M 560.660829 177.9675 
L 579.883795 177.9675 
L 579.883795 137.6475 
L 560.660829 137.6475 
z
" clip-path="url(#p002076c43a)" style="fill: #ff8000; fill-opacity: 0.7; stroke: #000000; stroke-width: 1.5; stroke-linejoin: miter"/>
   </g>
   <g id="matplotlib.axis_29"/>
   <g id="matplotlib.axis_30"/>
   <g id="patch_133">
    <path d="M 484.00925 177.9675 
L 484.00925 133.6155 
" style="fill: none; stroke: #000000; stroke-width: 0.8; stroke-linejoin: miter; stroke-linecap: square"/>
   </g>
   <g id="patch_134">
    <path d="M 584.44925 177.9675 
L 584.44925 133.6155 
" style="fill: none; stroke: #000000; stroke-width: 0.8; stroke-linejoin: miter; stroke-linecap: square"/>
   </g>
   <g id="patch_135">
    <path d="M 484.00925 177.9675 
L 584.44925 177.9675 
" style="fill: none; stroke: #000000; stroke-width: 0.8; stroke-linejoin: miter; stroke-linecap: square"/>
   </g>
   <g id="patch_136">
    <path d="M 484.00925 133.6155 
L 584.44925 133.6155 
" style="fill: none; stroke: #000000; stroke-width: 0.8; stroke-linejoin: miter; stroke-linecap: square"/>
   </g>
  </g>
  <g id="axes_16">
   <g id="patch_137">
    <path d="M 82.24925 233.4075 
L 182.68925 233.4075 
L 182.68925 189.0555 
L 82.24925 189.0555 
z
" style="fill: #ffffff"/>
   </g>
   <g id="patch_138">
    <path d="M 86.814705 233.4075 
L 106.037671 233.4075 
L 106.037671 233.4075 
L 86.814705 233.4075 
z
" clip-path="url(#p385382efe7)" style="fill: #0080ff; fill-opacity: 0.7; stroke: #000000; stroke-width: 1.5; stroke-linejoin: miter"/>
   </g>
   <g id="patch_139">
    <path d="M 110.843413 233.4075 
L 130.066379 233.4075 
L 130.066379 233.4075 
L 110.843413 233.4075 
z
" clip-path="url(#p385382efe7)" style="fill: #5580aa; fill-opacity: 0.7; stroke: #000000; stroke-width: 1.5; stroke-linejoin: miter"/>
   </g>
   <g id="patch_140">
    <path d="M 134.872121 233.4075 
L 154.095087 233.4075 
L 154.095087 233.4075 
L 134.872121 233.4075 
z
" clip-path="url(#p385382efe7)" style="fill: #aa8055; fill-opacity: 0.7; stroke: #000000; stroke-width: 1.5; stroke-linejoin: miter"/>
   </g>
   <g id="patch_141">
    <path d="M 158.900829 233.4075 
L 178.123795 233.4075 
L 178.123795 233.4075 
L 158.900829 233.4075 
z
" clip-path="url(#p385382efe7)" style="fill: #ff8000; fill-opacity: 0.7; stroke: #000000; stroke-width: 1.5; stroke-linejoin: miter"/>
   </g>
   <g id="matplotlib.axis_31"/>
   <g id="matplotlib.axis_32">
    <g id="ytick_16">
     <g id="line2d_16">
      <g>
       <use xlink:href="#mb54da89a8f" x="82.24925" y="233.4075" style="stroke: #000000; stroke-width: 0.8"/>
      </g>
     </g>
     <g id="text_24">
      <!-- 0% -->
      <g transform="translate(59.253625 237.57375) scale(0.12 -0.12)">
       <use xlink:href="#TimesNewRomanPSMT-30"/>
       <use xlink:href="#TimesNewRomanPSMT-25" x="50"/>
      </g>
     </g>
    </g>
    <g id="ytick_17">
     <g id="line2d_17">
      <g>
       <use xlink:href="#mb54da89a8f" x="82.24925" y="193.0875" style="stroke: #000000; stroke-width: 0.8"/>
      </g>
     </g>
     <g id="text_25">
      <!-- 100% -->
      <g transform="translate(47.253625 197.25375) scale(0.12 -0.12)">
       <use xlink:href="#TimesNewRomanPSMT-31"/>
       <use xlink:href="#TimesNewRomanPSMT-30" x="50"/>
       <use xlink:href="#TimesNewRomanPSMT-30" x="100"/>
       <use xlink:href="#TimesNewRomanPSMT-25" x="150"/>
      </g>
     </g>
    </g>
    <g id="ytick_18">
     <g id="line2d_18">
      <g>
       <use xlink:href="#mb54da89a8f" x="82.24925" y="233.4075" style="stroke: #000000; stroke-width: 0.8"/>
      </g>
     </g>
     <g id="text_26">
      <!-- 0% -->
      <g transform="translate(59.253625 237.57375) scale(0.12 -0.12)">
       <use xlink:href="#TimesNewRomanPSMT-30"/>
       <use xlink:href="#TimesNewRomanPSMT-25" x="50"/>
      </g>
     </g>
    </g>
    <g id="ytick_19">
     <g id="line2d_19">
      <g>
       <use xlink:href="#mb54da89a8f" x="82.24925" y="213.2475" style="stroke: #000000; stroke-width: 0.8"/>
      </g>
     </g>
     <g id="text_27">
      <!-- 50% -->
      <g transform="translate(53.253625 217.41375) scale(0.12 -0.12)">
       <use xlink:href="#TimesNewRomanPSMT-35"/>
       <use xlink:href="#TimesNewRomanPSMT-30" x="50"/>
       <use xlink:href="#TimesNewRomanPSMT-25" x="100"/>
      </g>
     </g>
    </g>
    <g id="ytick_20">
     <g id="line2d_20">
      <g>
       <use xlink:href="#mb54da89a8f" x="82.24925" y="193.0875" style="stroke: #000000; stroke-width: 0.8"/>
      </g>
     </g>
     <g id="text_28">
      <!-- 100% -->
      <g transform="translate(47.253625 197.25375) scale(0.12 -0.12)">
       <use xlink:href="#TimesNewRomanPSMT-31"/>
       <use xlink:href="#TimesNewRomanPSMT-30" x="50"/>
       <use xlink:href="#TimesNewRomanPSMT-30" x="100"/>
       <use xlink:href="#TimesNewRomanPSMT-25" x="150"/>
      </g>
     </g>
    </g>
    <g id="text_29">
     <!-- Ambiguous -->
     <g transform="translate(28.098375 239.233687) rotate(-90) scale(0.12 -0.12)">
      <use xlink:href="#TimesNewRomanPSMT-41"/>
      <use xlink:href="#TimesNewRomanPSMT-6d" x="72.216797"/>
      <use xlink:href="#TimesNewRomanPSMT-62" x="150"/>
      <use xlink:href="#TimesNewRomanPSMT-69" x="200"/>
      <use xlink:href="#TimesNewRomanPSMT-67" x="227.783203"/>
      <use xlink:href="#TimesNewRomanPSMT-75" x="277.783203"/>
      <use xlink:href="#TimesNewRomanPSMT-6f" x="327.783203"/>
      <use xlink:href="#TimesNewRomanPSMT-75" x="377.783203"/>
      <use xlink:href="#TimesNewRomanPSMT-73" x="427.783203"/>
     </g>
     <!-- FSM rate -->
     <g transform="translate(40.68675 233.7315) rotate(-90) scale(0.12 -0.12)">
      <use xlink:href="#TimesNewRomanPSMT-46"/>
      <use xlink:href="#TimesNewRomanPSMT-53" x="55.615234"/>
      <use xlink:href="#TimesNewRomanPSMT-4d" x="111.230469"/>
      <use xlink:href="#TimesNewRomanPSMT-20" x="200.146484"/>
      <use xlink:href="#TimesNewRomanPSMT-72" x="225.146484"/>
      <use xlink:href="#TimesNewRomanPSMT-61" x="258.447266"/>
      <use xlink:href="#TimesNewRomanPSMT-74" x="302.832031"/>
      <use xlink:href="#TimesNewRomanPSMT-65" x="330.615234"/>
     </g>
    </g>
   </g>
   <g id="patch_142">
    <path d="M 82.24925 233.4075 
L 82.24925 189.0555 
" style="fill: none; stroke: #000000; stroke-width: 0.8; stroke-linejoin: miter; stroke-linecap: square"/>
   </g>
   <g id="patch_143">
    <path d="M 182.68925 233.4075 
L 182.68925 189.0555 
" style="fill: none; stroke: #000000; stroke-width: 0.8; stroke-linejoin: miter; stroke-linecap: square"/>
   </g>
   <g id="patch_144">
    <path d="M 82.24925 233.4075 
L 182.68925 233.4075 
" style="fill: none; stroke: #000000; stroke-width: 0.8; stroke-linejoin: miter; stroke-linecap: square"/>
   </g>
   <g id="patch_145">
    <path d="M 82.24925 189.0555 
L 182.68925 189.0555 
" style="fill: none; stroke: #000000; stroke-width: 0.8; stroke-linejoin: miter; stroke-linecap: square"/>
   </g>
  </g>
  <g id="axes_17">
   <g id="patch_146">
    <path d="M 182.68925 233.4075 
L 283.12925 233.4075 
L 283.12925 189.0555 
L 182.68925 189.0555 
z
" style="fill: #ffffff"/>
   </g>
   <g id="patch_147">
    <path d="M 187.254705 233.4075 
L 206.477671 233.4075 
L 206.477671 214.761014 
L 187.254705 214.761014 
z
" clip-path="url(#p28e6bad98f)" style="fill: #0080ff; fill-opacity: 0.7; stroke: #000000; stroke-width: 1.5; stroke-linejoin: miter"/>
   </g>
   <g id="patch_148">
    <path d="M 211.283413 233.4075 
L 230.506379 233.4075 
L 230.506379 213.52974 
L 211.283413 213.52974 
z
" clip-path="url(#p28e6bad98f)" style="fill: #5580aa; fill-opacity: 0.7; stroke: #000000; stroke-width: 1.5; stroke-linejoin: miter"/>
   </g>
   <g id="patch_149">
    <path d="M 235.312121 233.4075 
L 254.535087 233.4075 
L 254.535087 215.661021 
L 235.312121 215.661021 
z
" clip-path="url(#p28e6bad98f)" style="fill: #aa8055; fill-opacity: 0.7; stroke: #000000; stroke-width: 1.5; stroke-linejoin: miter"/>
   </g>
   <g id="patch_150">
    <path d="M 259.340829 233.4075 
L 278.563795 233.4075 
L 278.563795 216.19086 
L 259.340829 216.19086 
z
" clip-path="url(#p28e6bad98f)" style="fill: #ff8000; fill-opacity: 0.7; stroke: #000000; stroke-width: 1.5; stroke-linejoin: miter"/>
   </g>
   <g id="matplotlib.axis_33"/>
   <g id="matplotlib.axis_34"/>
   <g id="patch_151">
    <path d="M 182.68925 233.4075 
L 182.68925 189.0555 
" style="fill: none; stroke: #000000; stroke-width: 0.8; stroke-linejoin: miter; stroke-linecap: square"/>
   </g>
   <g id="patch_152">
    <path d="M 283.12925 233.4075 
L 283.12925 189.0555 
" style="fill: none; stroke: #000000; stroke-width: 0.8; stroke-linejoin: miter; stroke-linecap: square"/>
   </g>
   <g id="patch_153">
    <path d="M 182.68925 233.4075 
L 283.12925 233.4075 
" style="fill: none; stroke: #000000; stroke-width: 0.8; stroke-linejoin: miter; stroke-linecap: square"/>
   </g>
   <g id="patch_154">
    <path d="M 182.68925 189.0555 
L 283.12925 189.0555 
" style="fill: none; stroke: #000000; stroke-width: 0.8; stroke-linejoin: miter; stroke-linecap: square"/>
   </g>
  </g>
  <g id="axes_18">
   <g id="patch_155">
    <path d="M 283.12925 233.4075 
L 383.56925 233.4075 
L 383.56925 189.0555 
L 283.12925 189.0555 
z
" style="fill: #ffffff"/>
   </g>
   <g id="patch_156">
    <path d="M 287.694705 233.4075 
L 306.917671 233.4075 
L 306.917671 204.910351 
L 287.694705 204.910351 
z
" clip-path="url(#p53a97686dc)" style="fill: #0080ff; fill-opacity: 0.7; stroke: #000000; stroke-width: 1.5; stroke-linejoin: miter"/>
   </g>
   <g id="patch_157">
    <path d="M 311.723413 233.4075 
L 330.946379 233.4075 
L 330.946379 202.9659 
L 311.723413 202.9659 
z
" clip-path="url(#p53a97686dc)" style="fill: #5580aa; fill-opacity: 0.7; stroke: #000000; stroke-width: 1.5; stroke-linejoin: miter"/>
   </g>
   <g id="patch_158">
    <path d="M 335.752121 233.4075 
L 354.975087 233.4075 
L 354.975087 206.269038 
L 335.752121 206.269038 
z
" clip-path="url(#p53a97686dc)" style="fill: #aa8055; fill-opacity: 0.7; stroke: #000000; stroke-width: 1.5; stroke-linejoin: miter"/>
   </g>
   <g id="patch_159">
    <path d="M 359.780829 233.4075 
L 379.003795 233.4075 
L 379.003795 207.406373 
L 359.780829 207.406373 
z
" clip-path="url(#p53a97686dc)" style="fill: #ff8000; fill-opacity: 0.7; stroke: #000000; stroke-width: 1.5; stroke-linejoin: miter"/>
   </g>
   <g id="matplotlib.axis_35"/>
   <g id="matplotlib.axis_36"/>
   <g id="patch_160">
    <path d="M 283.12925 233.4075 
L 283.12925 189.0555 
" style="fill: none; stroke: #000000; stroke-width: 0.8; stroke-linejoin: miter; stroke-linecap: square"/>
   </g>
   <g id="patch_161">
    <path d="M 383.56925 233.4075 
L 383.56925 189.0555 
" style="fill: none; stroke: #000000; stroke-width: 0.8; stroke-linejoin: miter; stroke-linecap: square"/>
   </g>
   <g id="patch_162">
    <path d="M 283.12925 233.4075 
L 383.56925 233.4075 
" style="fill: none; stroke: #000000; stroke-width: 0.8; stroke-linejoin: miter; stroke-linecap: square"/>
   </g>
   <g id="patch_163">
    <path d="M 283.12925 189.0555 
L 383.56925 189.0555 
" style="fill: none; stroke: #000000; stroke-width: 0.8; stroke-linejoin: miter; stroke-linecap: square"/>
   </g>
  </g>
  <g id="axes_19">
   <g id="patch_164">
    <path d="M 383.56925 233.4075 
L 484.00925 233.4075 
L 484.00925 189.0555 
L 383.56925 189.0555 
z
" style="fill: #ffffff"/>
   </g>
   <g id="patch_165">
    <path d="M 388.134705 233.4075 
L 407.357671 233.4075 
L 407.357671 199.309722 
L 388.134705 199.309722 
z
" clip-path="url(#pbb320140ad)" style="fill: #0080ff; fill-opacity: 0.7; stroke: #000000; stroke-width: 1.5; stroke-linejoin: miter"/>
   </g>
   <g id="patch_166">
    <path d="M 412.163413 233.4075 
L 431.386379 233.4075 
L 431.386379 197.886523 
L 412.163413 197.886523 
z
" clip-path="url(#pbb320140ad)" style="fill: #5580aa; fill-opacity: 0.7; stroke: #000000; stroke-width: 1.5; stroke-linejoin: miter"/>
   </g>
   <g id="patch_167">
    <path d="M 436.192121 233.4075 
L 455.415087 233.4075 
L 455.415087 200.516646 
L 436.192121 200.516646 
z
" clip-path="url(#pbb320140ad)" style="fill: #aa8055; fill-opacity: 0.7; stroke: #000000; stroke-width: 1.5; stroke-linejoin: miter"/>
   </g>
   <g id="patch_168">
    <path d="M 460.220829 233.4075 
L 479.443795 233.4075 
L 479.443795 201.820018 
L 460.220829 201.820018 
z
" clip-path="url(#pbb320140ad)" style="fill: #ff8000; fill-opacity: 0.7; stroke: #000000; stroke-width: 1.5; stroke-linejoin: miter"/>
   </g>
   <g id="matplotlib.axis_37"/>
   <g id="matplotlib.axis_38"/>
   <g id="patch_169">
    <path d="M 383.56925 233.4075 
L 383.56925 189.0555 
" style="fill: none; stroke: #000000; stroke-width: 0.8; stroke-linejoin: miter; stroke-linecap: square"/>
   </g>
   <g id="patch_170">
    <path d="M 484.00925 233.4075 
L 484.00925 189.0555 
" style="fill: none; stroke: #000000; stroke-width: 0.8; stroke-linejoin: miter; stroke-linecap: square"/>
   </g>
   <g id="patch_171">
    <path d="M 383.56925 233.4075 
L 484.00925 233.4075 
" style="fill: none; stroke: #000000; stroke-width: 0.8; stroke-linejoin: miter; stroke-linecap: square"/>
   </g>
   <g id="patch_172">
    <path d="M 383.56925 189.0555 
L 484.00925 189.0555 
" style="fill: none; stroke: #000000; stroke-width: 0.8; stroke-linejoin: miter; stroke-linecap: square"/>
   </g>
  </g>
  <g id="axes_20">
   <g id="patch_173">
    <path d="M 484.00925 233.4075 
L 584.44925 233.4075 
L 584.44925 189.0555 
L 484.00925 189.0555 
z
" style="fill: #ffffff"/>
   </g>
   <g id="patch_174">
    <path d="M 488.574705 233.4075 
L 507.797671 233.4075 
L 507.797671 197.718564 
L 488.574705 197.718564 
z
" clip-path="url(#p6f28a1a9f6)" style="fill: #0080ff; fill-opacity: 0.7; stroke: #000000; stroke-width: 1.5; stroke-linejoin: miter"/>
   </g>
   <g id="patch_175">
    <path d="M 512.603413 233.4075 
L 531.826379 233.4075 
L 531.826379 195.744692 
L 512.603413 195.744692 
z
" clip-path="url(#p6f28a1a9f6)" style="fill: #5580aa; fill-opacity: 0.7; stroke: #000000; stroke-width: 1.5; stroke-linejoin: miter"/>
   </g>
   <g id="patch_176">
    <path d="M 536.632121 233.4075 
L 555.855087 233.4075 
L 555.855087 197.318078 
L 536.632121 197.318078 
z
" clip-path="url(#p6f28a1a9f6)" style="fill: #aa8055; fill-opacity: 0.7; stroke: #000000; stroke-width: 1.5; stroke-linejoin: miter"/>
   </g>
   <g id="patch_177">
    <path d="M 560.660829 233.4075 
L 579.883795 233.4075 
L 579.883795 197.5675 
L 560.660829 197.5675 
z
" clip-path="url(#p6f28a1a9f6)" style="fill: #ff8000; fill-opacity: 0.7; stroke: #000000; stroke-width: 1.5; stroke-linejoin: miter"/>
   </g>
   <g id="matplotlib.axis_39"/>
   <g id="matplotlib.axis_40"/>
   <g id="patch_178">
    <path d="M 484.00925 233.4075 
L 484.00925 189.0555 
" style="fill: none; stroke: #000000; stroke-width: 0.8; stroke-linejoin: miter; stroke-linecap: square"/>
   </g>
   <g id="patch_179">
    <path d="M 584.44925 233.4075 
L 584.44925 189.0555 
" style="fill: none; stroke: #000000; stroke-width: 0.8; stroke-linejoin: miter; stroke-linecap: square"/>
   </g>
   <g id="patch_180">
    <path d="M 484.00925 233.4075 
L 584.44925 233.4075 
" style="fill: none; stroke: #000000; stroke-width: 0.8; stroke-linejoin: miter; stroke-linecap: square"/>
   </g>
   <g id="patch_181">
    <path d="M 484.00925 189.0555 
L 584.44925 189.0555 
" style="fill: none; stroke: #000000; stroke-width: 0.8; stroke-linejoin: miter; stroke-linecap: square"/>
   </g>
  </g>
  <g id="legend_1">
   <g id="patch_182">
    <path d="M 135.874625 260.7035 
L 455.774625 260.7035 
Q 457.774625 260.7035 457.774625 258.7035 
L 457.774625 245.564437 
Q 457.774625 243.564437 455.774625 243.564437 
L 135.874625 243.564437 
Q 133.874625 243.564437 133.874625 245.564437 
L 133.874625 258.7035 
Q 133.874625 260.7035 135.874625 260.7035 
z
" style="fill: #ffffff; opacity: 0.8; stroke: #cccccc; stroke-linejoin: miter"/>
   </g>
   <g id="patch_183">
    <path d="M 137.874625 254.564437 
L 157.874625 254.564437 
L 157.874625 247.564437 
L 137.874625 247.564437 
z
" style="fill: #0080ff; fill-opacity: 0.7; stroke: #000000; stroke-width: 1.5; stroke-linejoin: miter"/>
   </g>
   <g id="text_30">
    <!-- $\bf{SB-B}$ -->
    <g transform="translate(165.874625 254.564437) scale(0.1 -0.1)">
     <defs>
      <path id="DejaVuSans-Bold-53" d="M 3834 4519 
L 3834 3531 
Q 3450 3703 3084 3790 
Q 2719 3878 2394 3878 
Q 1963 3878 1756 3759 
Q 1550 3641 1550 3391 
Q 1550 3203 1689 3098 
Q 1828 2994 2194 2919 
L 2706 2816 
Q 3484 2659 3812 2340 
Q 4141 2022 4141 1434 
Q 4141 663 3683 286 
Q 3225 -91 2284 -91 
Q 1841 -91 1394 -6 
Q 947 78 500 244 
L 500 1259 
Q 947 1022 1364 901 
Q 1781 781 2169 781 
Q 2563 781 2772 912 
Q 2981 1044 2981 1288 
Q 2981 1506 2839 1625 
Q 2697 1744 2272 1838 
L 1806 1941 
Q 1106 2091 782 2419 
Q 459 2747 459 3303 
Q 459 4000 909 4375 
Q 1359 4750 2203 4750 
Q 2588 4750 2994 4692 
Q 3400 4634 3834 4519 
z
" transform="scale(0.015625)"/>
      <path id="DejaVuSans-Bold-42" d="M 2456 2859 
Q 2741 2859 2887 2984 
Q 3034 3109 3034 3353 
Q 3034 3594 2887 3720 
Q 2741 3847 2456 3847 
L 1791 3847 
L 1791 2859 
L 2456 2859 
z
M 2497 819 
Q 2859 819 3042 972 
Q 3225 1125 3225 1434 
Q 3225 1738 3044 1889 
Q 2863 2041 2497 2041 
L 1791 2041 
L 1791 819 
L 2497 819 
z
M 3616 2497 
Q 4003 2384 4215 2081 
Q 4428 1778 4428 1338 
Q 4428 663 3972 331 
Q 3516 0 2584 0 
L 588 0 
L 588 4666 
L 2394 4666 
Q 3366 4666 3802 4372 
Q 4238 4078 4238 3431 
Q 4238 3091 4078 2852 
Q 3919 2613 3616 2497 
z
" transform="scale(0.015625)"/>
      <path id="DejaVuSans-Bold-2212" d="M 678 2375 
L 4684 2375 
L 4684 1638 
L 678 1638 
L 678 2375 
z
" transform="scale(0.015625)"/>
     </defs>
     <use xlink:href="#DejaVuSans-Bold-53" transform="translate(0 0.78125)"/>
     <use xlink:href="#DejaVuSans-Bold-42" transform="translate(72.021484 0.78125)"/>
     <use xlink:href="#DejaVuSans-Bold-2212" transform="translate(167.724609 0.78125)"/>
     <use xlink:href="#DejaVuSans-Bold-42" transform="translate(270.996094 0.78125)"/>
    </g>
   </g>
   <g id="patch_184">
    <path d="M 220.674625 254.564437 
L 240.674625 254.564437 
L 240.674625 247.564437 
L 220.674625 247.564437 
z
" style="fill: #5580aa; fill-opacity: 0.7; stroke: #000000; stroke-width: 1.5; stroke-linejoin: miter"/>
   </g>
   <g id="text_31">
    <!-- $\bf{RS-B}$ -->
    <g transform="translate(248.674625 254.564437) scale(0.1 -0.1)">
     <defs>
      <path id="DejaVuSans-Bold-52" d="M 2297 2597 
Q 2675 2597 2839 2737 
Q 3003 2878 3003 3200 
Q 3003 3519 2839 3656 
Q 2675 3794 2297 3794 
L 1791 3794 
L 1791 2597 
L 2297 2597 
z
M 1791 1766 
L 1791 0 
L 588 0 
L 588 4666 
L 2425 4666 
Q 3347 4666 3776 4356 
Q 4206 4047 4206 3378 
Q 4206 2916 3982 2619 
Q 3759 2322 3309 2181 
Q 3556 2125 3751 1926 
Q 3947 1728 4147 1325 
L 4800 0 
L 3519 0 
L 2950 1159 
Q 2778 1509 2601 1637 
Q 2425 1766 2131 1766 
L 1791 1766 
z
" transform="scale(0.015625)"/>
     </defs>
     <use xlink:href="#DejaVuSans-Bold-52" transform="translate(0 0.78125)"/>
     <use xlink:href="#DejaVuSans-Bold-53" transform="translate(77.001953 0.78125)"/>
     <use xlink:href="#DejaVuSans-Bold-2212" transform="translate(168.505859 0.78125)"/>
     <use xlink:href="#DejaVuSans-Bold-42" transform="translate(271.777344 0.78125)"/>
    </g>
   </g>
   <g id="patch_185">
    <path d="M 303.474625 254.564437 
L 323.474625 254.564437 
L 323.474625 247.564437 
L 303.474625 247.564437 
z
" style="fill: #aa8055; fill-opacity: 0.7; stroke: #000000; stroke-width: 1.5; stroke-linejoin: miter"/>
   </g>
   <g id="text_32">
    <!-- $\bf{SB-M}$ -->
    <g transform="translate(331.474625 254.564437) scale(0.1 -0.1)">
     <defs>
      <path id="DejaVuSans-Bold-4d" d="M 588 4666 
L 2119 4666 
L 3181 2169 
L 4250 4666 
L 5778 4666 
L 5778 0 
L 4641 0 
L 4641 3413 
L 3566 897 
L 2803 897 
L 1728 3413 
L 1728 0 
L 588 0 
L 588 4666 
z
" transform="scale(0.015625)"/>
     </defs>
     <use xlink:href="#DejaVuSans-Bold-53" transform="translate(0 0.78125)"/>
     <use xlink:href="#DejaVuSans-Bold-42" transform="translate(72.021484 0.78125)"/>
     <use xlink:href="#DejaVuSans-Bold-2212" transform="translate(167.724609 0.78125)"/>
     <use xlink:href="#DejaVuSans-Bold-4d" transform="translate(270.996094 0.78125)"/>
    </g>
   </g>
   <g id="patch_186">
    <path d="M 388.574625 254.564437 
L 408.574625 254.564437 
L 408.574625 247.564437 
L 388.574625 247.564437 
z
" style="fill: #ff8000; fill-opacity: 0.7; stroke: #000000; stroke-width: 1.5; stroke-linejoin: miter"/>
   </g>
   <g id="text_33">
    <!-- $\bf{RS-M}$ -->
    <g transform="translate(416.574625 254.564437) scale(0.1 -0.1)">
     <use xlink:href="#DejaVuSans-Bold-52" transform="translate(0 0.78125)"/>
     <use xlink:href="#DejaVuSans-Bold-53" transform="translate(77.001953 0.78125)"/>
     <use xlink:href="#DejaVuSans-Bold-2212" transform="translate(168.505859 0.78125)"/>
     <use xlink:href="#DejaVuSans-Bold-4d" transform="translate(271.777344 0.78125)"/>
    </g>
   </g>
  </g>
 </g>
 <defs>
  <clipPath id="pc1216077bd">
   <rect x="82.24925" y="22.7355" width="100.44" height="44.352"/>
  </clipPath>
  <clipPath id="p61ac6d1104">
   <rect x="182.68925" y="22.7355" width="100.44" height="44.352"/>
  </clipPath>
  <clipPath id="pa7d1f70f27">
   <rect x="283.12925" y="22.7355" width="100.44" height="44.352"/>
  </clipPath>
  <clipPath id="pc38ba753e3">
   <rect x="383.56925" y="22.7355" width="100.44" height="44.352"/>
  </clipPath>
  <clipPath id="p674bf5e312">
   <rect x="484.00925" y="22.7355" width="100.44" height="44.352"/>
  </clipPath>
  <clipPath id="pc3c5f75ea8">
   <rect x="82.24925" y="78.1755" width="100.44" height="44.352"/>
  </clipPath>
  <clipPath id="pd4c0cec5e4">
   <rect x="182.68925" y="78.1755" width="100.44" height="44.352"/>
  </clipPath>
  <clipPath id="p46cc51db8f">
   <rect x="283.12925" y="78.1755" width="100.44" height="44.352"/>
  </clipPath>
  <clipPath id="p6f19726985">
   <rect x="383.56925" y="78.1755" width="100.44" height="44.352"/>
  </clipPath>
  <clipPath id="p7fb3db0ed7">
   <rect x="484.00925" y="78.1755" width="100.44" height="44.352"/>
  </clipPath>
  <clipPath id="p9d5830fa1b">
   <rect x="82.24925" y="133.6155" width="100.44" height="44.352"/>
  </clipPath>
  <clipPath id="p9a3350fc6d">
   <rect x="182.68925" y="133.6155" width="100.44" height="44.352"/>
  </clipPath>
  <clipPath id="p7511ac70d9">
   <rect x="283.12925" y="133.6155" width="100.44" height="44.352"/>
  </clipPath>
  <clipPath id="pa385858e2c">
   <rect x="383.56925" y="133.6155" width="100.44" height="44.352"/>
  </clipPath>
  <clipPath id="p002076c43a">
   <rect x="484.00925" y="133.6155" width="100.44" height="44.352"/>
  </clipPath>
  <clipPath id="p385382efe7">
   <rect x="82.24925" y="189.0555" width="100.44" height="44.352"/>
  </clipPath>
  <clipPath id="p28e6bad98f">
   <rect x="182.68925" y="189.0555" width="100.44" height="44.352"/>
  </clipPath>
  <clipPath id="p53a97686dc">
   <rect x="283.12925" y="189.0555" width="100.44" height="44.352"/>
  </clipPath>
  <clipPath id="pbb320140ad">
   <rect x="383.56925" y="189.0555" width="100.44" height="44.352"/>
  </clipPath>
  <clipPath id="p6f28a1a9f6">
   <rect x="484.00925" y="189.0555" width="100.44" height="44.352"/>
  </clipPath>
 </defs>
</svg>
