<svg width="52" height="112" xmlns="http://www.w3.org/2000/svg">

 <g>
  <title>Layer 1</title>
  <ellipse stroke="#000" stroke-width="8" ry="44.81659" rx="20.85153" id="svg_5" cy="59.91703" cx="26.0917" fill="#fff"/>
  <path stroke="#000" id="svg_9" d="m6.44105,76.79173c0,-3.55286 2.23347,-6.53846 4.8913,-6.53846l29.51869,0c2.65783,0 4.8913,2.9856 4.8913,6.53846l0,24.04097c0,3.55286 -2.23347,6.53846 -4.8913,6.53846l-29.51869,0c-2.65783,0 -4.8913,-2.9856 -4.8913,-6.53846l0,-24.04097z" opacity="undefined" stroke-width="8" fill="#fff"/>
  <path transform="rotate(-88.8226 26.1846 29.5576)" stroke="#000" id="svg_47" d="m19.73606,47.8802c-1.51984,-1.01901 -1.32044,-1.63606 2.37475,-7.34824c1.86589,-2.88435 3.39252,-5.3281 3.39252,-5.43054c0,-0.10244 -5.15237,-0.18626 -11.44974,-0.18626l-11.44974,0l0,-5.4021l0,-5.4021l11.54048,0c8.89836,0 11.44114,-0.16274 11.10664,-0.7108c-0.23861,-0.39094 -1.86631,-2.98516 -3.6171,-5.76492c-3.30027,-5.23992 -3.29923,-6.64513 0.0051,-7.0807c1.64444,-0.21676 27.24645,16.4378 28.12644,18.29677c-8.52781,6.63752 -18.72142,13.5853 -28.1114,19.71126c-0.49511,0 -1.35818,-0.30707 -1.91794,-0.68237l0,0z" stroke-width="8" fill="#fff"/>
  <path d="m21.68662,22.65503c0,0 -0.43668,0 -1.74672,0c0,0 -0.87336,0 -1.74673,0c0,0 -0.35971,0.64902 -1.31004,0.87336c-0.425,0.10033 -0.87336,0 -0.87336,0.43668c0,0.43668 0.25377,1.05627 -0.43668,1.74672c-0.69045,0.69045 -1.31004,1.74673 -1.31004,1.74673c0,0 0,-0.43668 0,-1.31004c0,-0.43668 0.20035,-0.30281 0.43668,-0.87336c0.33422,-0.80688 0.93929,-1.06316 1.74672,-2.18341c0.51066,-0.70851 0.43668,-0.87336 1.31004,-0.87336c0.43668,0 0.46992,0.16711 0.87336,0c0.57055,-0.23633 0.53913,-1.37653 0.87336,-2.18341c0.23633,-0.57055 1.46122,-1.18142 2.18341,-2.18341c0.57094,-0.79213 1.23338,-0.47943 1.74672,-1.31004c0.22958,-0.37146 0,-0.87336 0,-0.87336c0.43668,0 0.43668,-0.43668 0.43668,-0.43668c0.43668,-0.43668 0.87336,-0.87336 0.87336,-0.43668c0,0.87336 0,2.62009 0,3.49345c0,0.43668 -0.16711,1.34328 0,1.74672c0.23633,0.57055 0.43668,0.43668 1.74673,0.43668c0.43668,0 1.31004,0 2.1834,0c0,0 0,0 0.43668,0.43668c0.43668,0.43668 0.1279,1.00126 0.43668,1.31004c0.30878,0.30878 0.63703,-0.13387 0.87336,0.43668c0.16711,0.40344 0,0.87336 0,1.31004c0,0 -0.43668,0 -1.31004,0c-0.43668,0 -1.31004,0 -2.18341,0c0,0 -0.43668,0 -0.87336,0c-0.43668,0 -0.87336,0 -1.74672,0c-0.43668,0 -0.87336,0 -1.31004,0c-0.87336,0 -1.31004,0.43668 -1.31004,0.43668c-0.43668,0.43668 -1.23308,1.0857 -2.18341,1.31004c-0.85,0.20066 -1.32172,-0.10033 -1.74672,0c-0.95033,0.22434 -1.31004,0.43668 -1.74672,0.43668c-0.87336,0 -1.31004,0.43668 -2.62009,0.43668c-0.43668,0 -1.31004,0.87336 -1.74673,0.87336c-0.43668,0 -0.43668,0 -0.43668,0c-0.43668,0 -0.63703,0.30281 -0.87336,0.87336c-0.16711,0.40344 -0.43668,0.87336 -0.43668,0.87336c0.43668,0 0.87336,0 2.18341,0c1.31004,0 2.68657,0.33422 3.49345,0c0.57055,-0.23633 0.87336,-0.87336 1.74673,-0.87336c0.87336,0 1.31004,0 2.1834,0c0.43668,0 1.12917,0.61756 1.74673,0c0.30878,-0.30878 0.30281,-0.63703 0.87336,-0.87336c0.80688,-0.33422 1.31004,0 1.74673,0c0.87336,0 1.31004,0 1.74672,0c0.87336,0 1.74672,0 1.74672,0c0.43668,0.43668 1.2454,2.28312 1.74673,3.49345c0.70899,1.71165 2.69567,2.99246 3.05677,3.49345c0.57094,0.79214 0.56458,1.43795 0.87336,1.74673c0.30878,0.30878 0.26957,0.46992 0.43668,0.87336c0.23633,0.57055 0.30281,0.63704 0.87336,0.87336c0.40344,0.16711 0.87336,0 1.31004,0c0,0 0.87336,0 1.74673,0c0,0 0.30281,0.20035 0.87336,0.43668c0.40344,0.16711 0.87336,0.43668 0.87336,0.43668c0.43668,0.43668 0.56458,0.56458 0.87337,0.87336c0.30878,0.30878 -0.16711,0.9066 0,1.31004c0.23633,0.57055 0.43668,1.31004 0.87336,2.18341c0,0 0.69248,1.12917 1.31004,1.74673c0.30878,0.30878 -0.35487,0.34637 -1.31004,-0.43668c-1.21761,-0.9982 -3.76028,-2.152 -4.80349,-3.05677c-0.73766,-0.63977 -1.55775,-1.43373 -2.18341,-2.18341c-1.39901,-1.67631 -2.87947,-2.40742 -3.93013,-3.05677c-1.17467,-0.72599 -0.91611,-1.23338 -1.74672,-1.74673c-0.37146,-0.22958 -1.31004,0 -1.31004,-0.43668c0,0 -0.30281,0.20035 -0.87336,0.43668c-0.40344,0.16711 -0.87336,0.43668 -0.87336,0.87336c0,0.87336 0,1.31004 0,2.18341c0,0.43668 -0.43668,0.43668 -0.43668,0.43668c-0.87336,0 -1.31004,0 -2.1834,0c-0.87336,0 -1.74673,0 -2.62009,0c0,0 -1.74673,0 -2.18341,0c-0.43668,0 -1.31004,0.87336 -1.31004,1.74672c0,0.87336 0,2.18341 0,3.05677c0,0.43668 0,0.87336 0,1.31004c0,0.43668 0,0.87336 0,0.87336l0,0.43668l0,0.87337l0,0" id="svg_57" stroke-width="8" stroke="#000" fill="none"/>
  <path d="m14.24851,60.64629c0,0.43668 0,0 0,0c0,-0.87337 0,-3.05677 0,-5.24017c0,-0.87337 -0.43668,-1.74673 -0.43668,-3.49345c0,-1.31004 0,-1.74672 0,-3.49345c0,-1.31004 0,-2.62009 0,-3.93013c0,-0.87336 0,-1.31004 0,-1.31004c0,-0.43668 0,-0.87336 0,-1.74672c0,0 0,-0.43668 0,-1.74673c0,0 0,-0.43668 0,-1.74672c0,0 0,-0.87336 0,-1.74672c0,0 0,-0.43668 0,-0.87336c0,-0.43668 -0.71757,-0.07743 -1.31004,2.62009c-0.84829,3.86226 -0.61829,6.0092 -1.31004,7.42358c-0.6067,1.24049 -0.43668,1.31004 -0.43668,2.18341c0,0.43668 0,0.87336 0,1.31004c0,0.43668 0,0.87336 0,1.31004c0,0.87336 0,1.74672 0,3.05676c0,0.43668 0,1.31004 0,1.74673c0,0.43668 0.20035,0.30281 0.43668,0.87336c0.16711,0.40344 0.43668,0.43668 0.43668,0.87337c0,0.43668 0.63704,0.30281 0.87336,0.87336c0.16711,0.40344 -0.10033,1.32172 0,1.74673c0.22434,0.95033 0.51227,1.24573 0.87336,1.74672c0.57095,0.79214 0.56458,1.00127 0.87336,1.31004c0.61757,0.61756 0,1.31004 0,1.74673c0,0 -0.16711,0.46992 0,0.87336c0.23633,0.57056 0.93985,0.7709 1.74673,0.43668c1.71165,-0.70899 3.30991,-4.87199 4.36681,-7.42358c0.74734,-1.80424 0.76531,-3.49792 0.87336,-4.8035c0.21909,-2.64718 0.43668,-3.05676 0.43668,-3.05676c0,-0.43668 0,-0.87337 0,-1.74673c0,-0.43668 0,-0.87336 0,-1.74673c0,-0.87336 0,-1.31004 0.43668,-1.74672c0.87337,-0.87336 1.81266,-1.06316 2.62009,-2.18341c0.25533,-0.35426 1.34328,-1.14293 1.74673,-1.31004c0.57055,-0.23633 0.73949,-1.07372 1.31004,-1.31004c0.40344,-0.16711 0.50663,0.44232 0.43668,0.87336c-0.2212,1.36308 -1.82795,3.3592 -2.62009,3.93013c-0.50099,0.36109 -0.67271,1.77008 -0.87336,2.62009c-0.22434,0.95033 -0.43668,0.87336 -0.43668,1.74672c0,0.43668 -0.87336,0.87337 -0.43668,0.87337c0.43668,0 0.09275,-1.70335 0.87336,-3.49345c1.49134,-3.41998 1.57079,-6.81081 3.49345,-10.48034c1.01333,-1.93402 2.26649,-3.00504 3.05677,-4.36681c0.49011,-0.84454 1.74673,-1.31004 2.18341,-1.74672c0,0 0,-0.87336 0.43668,-0.87336c0,0 0.87336,0 1.31004,-0.43668c0.43668,-0.43668 0.9066,-0.70625 1.31004,-0.87336c0.57055,-0.23633 0.87337,-0.43668 1.31004,-0.43668c0.43668,0 0.43668,-0.43668 0.87337,-0.43668c0,0 0.2558,0.18088 0.87336,-0.43668c0.30878,-0.30878 0,0 0,0.87336c0,2.62009 -0.43097,4.69743 -0.87336,7.42358c-0.20985,1.29313 0,2.18341 0,3.05677c0,0 0,0.87336 0,1.31004c0,0.43668 -0.39394,0.79669 0.43668,1.31004c0.37147,0.22958 0.30281,0.63703 0.87337,0.87336c0.40343,0.16711 0.64902,0.79639 0.87336,1.74672c0.10033,0.425 0.64902,0.7964 0.87336,1.74673c0.20065,0.85 0.20036,1.17617 0.43668,1.74672c0.33423,0.80688 0.1279,1.43794 0.43668,1.74673c0.30878,0.30878 0.1279,1.00127 0.43668,1.31004c0.30878,0.30878 -0.1279,0.12791 -0.43668,0.43668c-0.30878,0.30878 -0.5019,0.2071 -0.87337,0.43668c-0.83062,0.51335 -0.87336,0.87337 -1.31004,0.87337c-0.43668,0 -0.93637,0.02876 -1.31004,-0.87337c-0.52845,-1.27579 -0.87336,-1.74672 -0.87336,-2.1834c0,-0.43668 0,-0.87336 0,-1.74673c0,-0.87336 0,-1.74672 0,-2.1834c0,-0.87336 0,-1.31004 0,-1.74672c0,-0.43668 0.06995,0.00564 0,0.43668c-0.2212,1.36308 -0.43668,3.49345 -0.43668,4.80349c0,1.31004 0,3.49345 0,3.93013c0,0.43668 0,0.87337 0,1.31004c0,0.43668 0.22958,0.5019 0,0.87337c-0.51335,0.83061 -1.87716,1.23191 -2.62009,2.62009c-0.20605,0.38501 -0.46992,0.26957 -0.87336,0.43668c-0.57055,0.23633 -0.87336,0.43668 -1.31004,0.43668c-1.31004,0 -1.74673,0 -2.62009,0c-0.43668,0 -0.23603,-0.46004 -0.43668,-1.31004c-0.67303,-2.85098 -1.31004,-3.05677 -1.31004,-4.36681c0,-1.31004 1.03582,-1.91489 2.62009,-3.05676c0.501,-0.3611 1.31004,-0.43668 2.18341,-0.43668c0.43668,0 0.87336,0.43668 0.87336,0.87336c0,1.31004 0.43668,2.62009 0.43668,4.36681c0,1.31004 0,3.05677 0,3.49345c0,0.87337 0,1.31004 0,1.74673c0,0 0,0.43668 0,0.87336c0,0.43668 0,0.87337 0,0.87337c-0.43668,0 -1.31004,0.43668 -3.05677,0.87336c-1.74673,0.43668 -2.62009,0.87336 -3.49345,0.87336c0,0 -0.20035,0.13387 -0.43668,-0.43668c-0.50134,-1.21032 0.30878,-1.43794 0,-1.74673c-0.30878,-0.30878 -0.87336,0 -1.31004,0c-0.43668,0 -1.00126,-0.30878 -1.31004,0c-0.30878,0.30878 0.06431,0.94894 -0.43668,1.31004c-0.79213,0.57094 -1.61285,1.07372 -2.1834,1.31004c-0.80688,0.33422 -1.5928,0.86136 -3.49345,1.31004c-0.425,0.10033 -0.88504,0.33636 -1.31004,0.43668c-0.95033,0.22434 -1.12917,0.18088 -1.74672,-0.43668c-0.30878,-0.30878 -0.87336,0 -1.74673,0c0,0 -0.87336,0 -1.31004,0c-0.43668,0 -0.43668,0 -0.87336,0c-0.43668,0 -0.87336,0 -1.31004,0c-0.43668,0 -1.31004,0 -0.43668,0c0.43668,0 0.43668,0 2.18341,0c1.31004,0 2.18341,0 4.80349,0c1.31004,0 1.74672,0 2.1834,0c1.31004,0 1.74673,0 2.18341,0c0.43668,0 1.31004,0 1.74672,0c1.31004,0 2.62572,0.06995 3.05677,0c1.36308,-0.2212 2.1834,-0.43668 3.49345,-0.43668c0.87336,0 1.34328,0.16711 1.74673,0c0.57055,-0.23633 0.87336,-0.43668 1.31004,-0.43668c0.43668,0 0.43668,0 0.87336,0c0.43668,0 0.87336,0 1.31004,0c0,0 1.31004,0 1.74673,0c0,0 0.43668,0 0.87336,0c0.43668,0 0.1279,-0.56458 0.43668,-0.87337c0.30878,-0.30878 0.43668,0 0.43668,-0.87336c0,-0.43668 0,-0.87336 0,-0.87336c0,-0.87337 0,-1.74673 0,-2.18341c0,-0.43668 0,-0.87336 0,-1.31004c0,-0.43668 -0.61756,-1.12916 0,-1.74672c0.61756,-0.61756 1.00126,-0.56458 1.31004,-0.87337c0.30878,-0.30878 0.43668,-0.43668 0.43668,0c0,2.18341 0,3.49345 0,5.67686c0,1.31004 0,2.62009 0,3.05677c0,0.43668 0,0.87336 0,0.87336c0,0.87336 0,1.74673 0,1.74673c0,0.43668 -0.66383,0.57802 -1.31004,1.31004c-1.04199,1.18035 -1.61285,2.85641 -2.1834,2.62009c-1.21032,-0.50134 -0.87336,-1.74673 -2.18341,-1.74673c-1.74672,0 -4.36681,0 -6.55022,0c-2.18341,0 -4.80349,0.43668 -6.55022,0.43668c-0.87336,0 -2.18341,0 -3.49345,0c-0.43668,0 -1.81194,0.22958 -2.1834,0c-0.83062,-0.51335 -0.30243,-0.95459 -0.87336,-1.74673c-0.72219,-1.00198 -1.34328,-0.70625 -1.74672,-0.87336c-0.57055,-0.23633 -1.17617,-0.63704 -1.74673,-0.87337c-0.80688,-0.33422 -0.87336,0 -1.31004,0c-0.43668,0 -1.31004,0 -1.31004,0c0,0.43668 0,0.87337 0,0.87337c0.87336,0.43668 0.98537,1.65807 1.31004,2.1834c0.72599,1.17467 0.15074,1.82401 0.87336,3.93013c0.31689,0.92359 0.26957,2.21664 0.43668,2.62009c0.23633,0.57056 0.63704,2.04954 0.87336,2.62009c0.33422,0.80688 0.21548,1.25701 0.43668,2.62009c0.1399,0.86208 0.86136,1.5928 1.31004,3.49345c0.40131,1.7 -0.33423,4.4333 0,5.24018c0.23633,0.57055 0.80341,1.75236 0.87336,2.1834c0.2212,1.36308 0.43668,1.74673 0.43668,2.62009c0,0.43668 0,0.87336 0,1.31004c0,0.43668 0.20035,1.00723 0.43668,0.43668c0.50134,-1.21032 0.82154,-2.6311 1.31004,-4.8035c0.395,-1.75661 0.76665,-4.37335 0.87336,-5.24017c0.21999,-1.78699 0.43668,-2.1834 0.43668,-3.49345c0,-0.87337 -0.13426,-2.70132 0.43668,-3.49345c0.36109,-0.50098 0.95459,-1.17578 1.74672,-1.74672c0.501,-0.36109 1.74673,-0.87337 2.18341,-1.31004c0.43668,-0.43668 1.74672,-1.74673 1.74672,-1.74673c0.43668,-0.43668 1.10294,-0.80814 0.87336,-0.43668c-0.51335,0.83062 -0.40681,2.35773 -4.36681,3.49345c-1.67904,0.48154 -1.74673,0.43668 -2.18341,0.43668c-0.87336,0 -1.31004,0 -1.31004,0c-0.43668,0 -0.73949,-0.20035 -1.31004,-0.43668c-0.40344,-0.16711 -0.43104,-0.50663 0,-0.43668c1.36308,0.2212 2.18341,0.43668 3.05677,0.43668c0.87336,0 1.31004,0 1.74673,0c0.43668,0 1.31004,0 1.74672,0c0,0 0.43668,0 0.87336,0c0.43668,0 1.31004,0 1.74672,0c0.87336,0 1.31004,0 2.62009,0c0.43668,0 0.87336,0 1.74672,0c0.43668,0 0.87336,0 1.74673,0c0,0 0.87336,0 1.31004,0c0.43668,0 0.43668,0 1.31004,0c0.43668,0 0.87336,0 1.74672,0c0.43668,0 0.87336,0 0.87336,0c0.87336,0 1.31004,0 1.74673,0c0,0 0,0.87336 0,1.31004c0,0.87336 -0.43668,2.1834 -0.43668,2.62009c0,0.43668 0,0.87336 0,1.31004c0,0 0,0.43668 0,0.87336c0,0.43668 0,0.87336 0,1.31004c0,1.31004 0,1.31004 0,2.18341c0,0.87336 0.43668,1.74672 0.43668,2.62009c0,0.87336 0,1.31004 0,2.1834c0,0.87336 0,1.31004 0,1.31004c0,0 0,0.87336 0,1.31004c0,0.43668 0,0.43668 0,1.74673c0,0.43668 0,0.43668 0,0.87336c0,0.43668 0,0.87336 0,1.31004c0,0 0,0.43668 0,0.87336c0,0.43668 0,0.87337 0,0.87337c0,0.43668 -0.10033,1.32172 0,1.74672c0.22434,0.95033 -0.00001,1.74673 0.43668,1.74673c0.43668,0 0.16711,-0.9066 0,-1.31004c-0.23633,-0.57055 -0.43668,-0.43668 -0.43668,-0.43668c-0.43668,0 -0.87337,0 -1.31004,0c-0.43668,0 -0.87337,0 -1.31005,0c-0.43668,0 -0.87336,0 -0.87336,0c-0.87336,0 -1.31004,0 -1.74672,0c0,0 -0.43668,0 -0.87336,0c-0.43668,0 -0.87336,0 -0.87336,0c-0.87336,0 -1.31004,0 -1.74673,0c0,0 -0.87336,0 -1.74672,0c0,0 -0.43668,0 -0.87336,0c-0.43668,0 -0.87336,0 -0.87336,0c-0.87336,0 -1.17617,0.20036 -1.74673,0.43668c-0.80688,0.33422 -1.31004,0.43668 -1.74672,0.43668c0,0 -0.43668,0 -0.87336,0c-0.43668,0 -0.87336,0 -0.87336,0c-0.87336,0 -1.31004,0 -1.74673,0c0,0 -0.87336,0 -1.31004,0c-0.43668,0 -0.43668,0 -0.87336,0c-0.43668,0 -0.87336,0 -1.31004,0c0,0 -0.43668,0 -0.87336,0c-0.87336,0 -0.9066,-0.16711 -1.31004,0c-0.57055,0.23633 -0.87336,0.43668 -1.31004,0.43668c0,0 -0.43668,0 -0.43668,-0.43668c0,-0.87337 0,-1.74673 0,-2.62009c0,-0.87337 -0.50133,-2.71981 0,-3.93013c0.23633,-0.57055 0.43668,-0.87337 0.43668,-1.31004c0,0 -0.33422,-0.50317 0,-1.31004c0.23633,-0.57055 0.30281,-0.63704 0.87336,-0.87337c0.40344,-0.16711 0.87336,0 1.31004,0c1.31004,0 1.23308,0.21234 2.1834,0.43668c0.85,0.20066 1.87716,-0.02247 2.62009,0.43668c0.83062,0.51334 0.56458,1.00126 0.87336,1.31004c0.30878,0.30878 0.87336,0.43668 0.87336,1.31004c0,0.43668 0,0.87336 0,1.31004c0,0.87336 -0.87336,1.74672 0,1.74672c0.87336,0 -0.14407,-1.75267 0,-3.49345c0.21909,-2.64718 1.74672,-5.24017 1.74672,-7.86026c0,-3.05677 0,-4.36681 0,-4.8035c0,-0.43668 0,-0.87336 0,-1.31004c0,-0.43668 -0.43668,-0.43668 -0.43668,-0.87336c0,0 0.26957,-0.03324 0.43668,-0.43668c0.23633,-0.57055 0.87336,-0.43668 1.31004,-0.43668c0.43668,0 0.56458,0.12789 0.87336,0.43668c0.61757,0.61756 0.94895,1.24574 1.31004,1.74673c0.57094,0.79214 0.43668,1.31004 0.87336,1.31004c0.43668,0 0.87336,0 0.87336,0c0.43668,0 0.70625,0.03324 0.87336,0.43668c0.23633,0.57055 0.87336,0.43668 0.87336,0.43668c0,0 0.63704,0.30282 0.87336,0.87337c0.33422,0.80688 0.87336,0.87336 0.87336,0.87336c0,0 0,0.43668 0,0.87337c0,0.43668 0,1.31004 0,1.74672c0,0.87337 0,2.62009 0,3.05677c0,1.31004 0,1.31004 0,1.74673c0,0.87336 -0.01168,0.77303 -0.43668,0.87336c-0.95033,0.22434 -1.10051,0.57803 -1.74672,1.31004c-1.04199,1.18035 -1.31004,0.87336 -2.18341,0.87336c-0.87336,0 -1.37652,0.33421 -2.1834,0c-0.57055,-0.23633 -0.87336,-0.87336 -0.87336,-1.31004c0,-0.43668 -0.45042,-2.36335 0.43668,-3.93013c0.30427,-0.5374 1.67006,-1.35278 2.18341,-2.1834c0.45915,-0.74293 0.69248,-1.12917 1.31004,-1.74673c0.30878,-0.30878 0.43668,-0.43668 1.74672,-0.43668c0.87336,0 0.87336,0.43668 1.31004,0.87336c0.43668,0.43668 0.52845,2.21765 0,3.49345c-0.74734,1.80424 -0.87336,2.18341 -1.31004,1.31004c-0.87336,-1.74672 -0.76916,-2.20291 -1.31004,-4.80349c-0.36663,-1.76276 -0.64653,-3.51037 -0.43668,-4.8035c0.2212,-1.36308 0.56458,-1.87462 0.87336,-2.1834c0.30878,-0.30878 0.63703,-0.30281 0.87336,-0.87336c0.16711,-0.40344 0.1279,-0.1279 0.43668,-0.43668c0.30878,-0.30878 0.87336,-0.43668 1.31004,-0.43668c0,0 0.87336,0 1.74672,0c0,0 0.43668,0.43668 0.87336,0.87337c0.43668,0.43668 0.87336,0.87336 0.87336,0.87336c0,0.43668 -0.10033,1.32172 0,1.74673c0.22434,0.95033 0.87336,2.1834 0.87336,3.05677c0,1.31004 0,1.74672 0,2.1834c0,0.87336 0,1.31004 0.43668,1.74673c0.43668,0.43668 0.23602,0.89672 0.43668,1.74672c0.22434,0.95033 0.87336,1.74673 1.31004,2.62009c0.43668,0.87337 0.43668,1.74673 0.87336,2.62009c0.43668,0.87337 0.42294,1.92667 1.31004,3.49345c0.30428,0.5374 0.43668,0.87336 0.87337,0.87336c0.43668,0 0.43668,0.43668 0.43668,0.87336c0,0 -0.50189,-0.22958 -0.87336,0c-0.83062,0.51335 -1.23308,1.52238 -2.1834,1.74673c-0.425,0.10033 -0.87337,0 -1.31004,0c-0.43668,0 -1.68242,-0.07559 -2.18341,-0.43668c-0.79213,-0.57094 -1.52238,-1.23308 -1.74672,-2.1834c-0.50164,-2.12499 -0.87336,-4.36681 -1.31004,-6.9869c-0.43668,-2.62009 -0.43668,-6.11353 -0.43668,-7.86026c0,-2.1834 -0.21812,-5.22532 -0.43668,-10.04366c-0.15831,-3.48987 -0.07327,-6.57554 -0.43668,-9.1703c-0.44094,-3.14836 -0.27139,-4.4369 -0.87336,-6.9869c-0.22434,-0.95033 -0.87336,-1.74673 -0.87336,-4.36681c0,-1.74672 -0.43668,-3.05676 -0.43668,-4.36681c0,-1.74673 0,-3.05677 0,-3.49345c0,-0.87336 -0.45041,-1.92666 0.43668,-3.49345c0.60854,-1.0748 1.14141,-1.00306 2.1834,-2.18341c0.64622,-0.73202 0.87336,-1.31004 0.87336,-1.74672c0,-0.43668 0.30878,-0.74546 0,-0.43668c-0.30878,0.30878 -3.05017,4.20574 -3.93013,11.35371c-0.42684,3.46727 -0.43668,6.55022 0,6.55022c0.43668,0 0,-1.31004 0,-3.05677c0,-2.62009 -0.06593,-4.11993 -0.87336,-5.24017c-1.27666,-1.77127 -3.66239,-2.14743 -4.80349,-2.62009c-1.61377,-0.66844 -2.82044,-1.61285 -3.05677,-2.18341c-0.16711,-0.40344 0,-1.31004 0,-2.1834c0,-1.74673 0.67271,-2.64345 0.87336,-3.49345c0.22434,-0.95033 0.87336,-2.62009 0.43668,-2.62009c-0.87336,0 -1.30791,5.17537 -1.74672,9.60699c-0.43029,4.34555 0,6.11353 0,7.42358c0,0.43668 -0.09177,1.3443 0.43668,2.62009c0.37367,0.90212 1.31004,3.05677 1.74673,3.93013c0.43668,0.87336 0.26665,1.81628 0.87336,3.05677c0.69175,1.41438 1.54312,3.97231 2.18341,6.55022c0.66574,2.68037 1.62945,6.14711 2.18341,7.86026c0.72351,2.23753 0.94895,3.42914 1.31004,3.93013c0.57094,0.79214 0.44836,1.41037 0.87336,1.31004c0.95033,-0.22434 2.40141,-5.22204 2.62009,-9.1703c0.16904,-3.05209 0,-6.55022 0,-9.1703c0,-1.31004 0,-2.62009 0,-3.05677c0,-0.87336 0,-1.31004 0,-2.1834c0,-0.43668 0,-1.31004 0,-1.74673c0,-0.87336 0.21548,-1.25701 0.43668,-2.62009c0.2798,-1.72417 0,-2.62009 0,-3.49345c0,0 0,-0.43668 0,-0.87337c0,-0.87336 0.14737,-2.31878 0.87336,-3.49345c0.32467,-0.52533 0.64902,-0.79639 0.87336,-1.74672c0.10033,-0.425 0.21234,-1.23308 0.43668,-2.18341c0.10033,-0.425 0,-0.87336 0.43668,-0.87336c0.43668,0 0.87336,0.43668 0.87336,0.87336c0,1.74672 0,4.80349 0,8.29694c0,1.74672 0,1.74672 0,3.05676c0,0.43668 -0.14737,0.57206 -0.87336,1.74673c-0.32467,0.52533 -0.95459,1.61246 -1.74673,2.1834c-0.50099,0.36109 -1.31004,1.31004 -1.74672,1.74673c-0.43668,0.43668 -0.43668,0.87336 -0.87336,1.74673c0,0 -0.1279,0.1279 -0.43668,0.43668c-0.30878,0.30878 -0.43668,1.31004 -0.43668,1.31004l0,0.43668l-0.43668,0l-0.43668,0" id="svg_58" stroke-width="8" stroke="#000" fill="none"/>
  <path stroke="#000" id="svg_59" d="m10.49953,87.23566l5.84706,-47.34197l19.49021,0l5.84706,47.34197l-31.18433,0z" stroke-width="8" fill="#fff"/>
 </g>
</svg>