<?xml version="1.0" encoding="UTF-8" standalone="no"?>
<!-- Created with Inkscape (http://www.inkscape.org/) -->

<svg
   width="201.3038mm"
   height="122.08247mm"
   viewBox="0 0 201.3038 122.08247"
   version="1.1"
   id="svg1"
   xmlns="http://www.w3.org/2000/svg"
   xmlns:svg="http://www.w3.org/2000/svg">
  <defs
     id="defs1">
    <clipPath
       clipPathUnits="userSpaceOnUse"
       id="clipPath4">
      <rect
         style="fill:#ffffff;stroke-width:3.52349"
         id="rect5"
         width="779.56415"
         height="481.45673"
         x="714.31488"
         y="181.87401" />
    </clipPath>
  </defs>
  <g
     id="layer1"
     transform="translate(-4.2961974,-62.190136)">
    <g
       clip-path="url(#clipPath4)"
       transform="matrix(0.26458333,0,0,0.26458333,-186.2038,8.7663512)"
       id="g19">
      <path
         d="M 856,487.5 C 856,330.927 982.927,204 1139.5,204 1296.07,204 1423,330.927 1423,487.5 1423,644.073 1296.07,771 1139.5,771 982.927,771 856,644.073 856,487.5 Z"
         stroke="#172c51"
         stroke-width="4.16667"
         stroke-miterlimit="8"
         fill="#f4b183"
         fill-rule="evenodd"
         id="path1" />
      <path
         d="M 900,490.5 C 900,359.332 1006.33,253 1137.5,253 1268.67,253 1375,359.332 1375,490.5 1375,621.668 1268.67,728 1137.5,728 1006.33,728 900,621.668 900,490.5 Z"
         stroke="#172c51"
         stroke-width="4.16667"
         stroke-miterlimit="8"
         fill="#ffffff"
         fill-rule="evenodd"
         id="path2" />
      <path
         d="m 722.5,485.5 c 0,-91.127 73.873,-165 165,-165 91.127,0 165,73.873 165,165 0,91.127 -73.873,165 -165,165 -91.127,0 -165,-73.873 -165,-165 z"
         stroke="#ff0000"
         stroke-width="5"
         stroke-miterlimit="8"
         fill="#ff0000"
         fill-rule="evenodd"
         fill-opacity="0.160784"
         id="path3" />
      <text
         fill="#ff0000"
         font-family="'Cambria Math', 'Cambria Math_MSFontService', sans-serif"
         font-weight="400"
         font-size="30px"
         transform="translate(824.834,495)"
         id="text3">ğ©<tspan
   font-size="20px"
   x="18.333401"
   y="7"
   id="tspan3">ğ£</tspan></text>
      <path
         d="M 1.93471,-2.96653 19.7339,8.64175 15.8645,14.5748 -1.93471,2.96653 Z M 25.6669,12.5112 43.4661,24.1195 39.5967,30.0525 21.7975,18.4442 Z M 49.3992,27.9889 67.1983,39.5972 63.3289,45.5302 45.5297,33.9219 Z M 73.1314,43.4666 90.9305,55.0749 87.0611,61.0079 69.262,49.3996 Z m 23.7322,15.4777 10.3084,6.7229 -3.869,5.9331 -10.3088,-6.723 z M 108.075,57.7995 131.936,86.0462 96.4667,75.5986 Z"
         fill="#ff0000"
         fill-opacity="0.529412"
         transform="matrix(1,0,0,-1,878.5,487.546)"
         id="path4" />
      <path
         d="M 0,0 231.626,1.2164"
         stroke="#000000"
         stroke-width="3.75"
         stroke-miterlimit="8"
         stroke-dasharray="11.25, 3.75"
         fill="none"
         fill-rule="evenodd"
         transform="matrix(1,0,0,-1,887,487.216)"
         id="path5" />
      <text
         fill="#ff0000"
         font-family="Calibri, Calibri_MSFontService, sans-serif"
         font-weight="700"
         font-size="30px"
         transform="translate(1028.53,309)"
         id="text5">v</text>
      <text
         fill="#ff0000"
         font-family="'Cambria Math', 'Cambria Math_MSFontService', sans-serif"
         font-weight="400"
         font-size="20px"
         transform="translate(1042.7,316)"
         id="text6">ğ£<tspan
   fill="#0000ff"
   font-size="30px"
   x="100.319"
   y="197"
   id="tspan5">ğ©</tspan><tspan
   fill="#0000ff"
   font-size="20px"
   x="118.653"
   y="204"
   id="tspan6">ğ¢</tspan></text>
      <text
         font-family="'Times New Roman', 'Times New Roman_MSFontService', sans-serif"
         font-weight="400"
         font-size="30px"
         transform="translate(1061.05,309)"
         id="text10">sampling region<tspan
   font-size="30px"
   x="-289.03299"
   y="86"
   id="tspan7">velocity</tspan><tspan
   font-size="30px"
   x="-289.03299"
   y="122"
   id="tspan8">spac</tspan><tspan
   font-size="30px"
   x="-235.7"
   y="122"
   id="tspan9">e</tspan><tspan
   font-size="30px"
   x="-19.1586"
   y="276"
   id="tspan10">visibility distance region</tspan></text>
      <path
         d="M 2.55444,-2.45321 71.0855,68.9054 65.9766,73.8118 -2.55444,2.45321 Z M 73.7411,61.4446 90.61,94.3486 58.4145,76.1639 Z"
         fill="#0000ff"
         fill-opacity="0.560784"
         transform="matrix(1,0,0,-1,876.5,486.849)"
         id="path10" />
      <text
         font-family="'Times New Roman', 'Times New Roman_MSFontService', sans-serif"
         font-weight="700"
         font-size="30px"
         transform="translate(969.808,514)"
         id="text12">p<tspan
   font-size="20px"
   x="16.666599"
   y="7"
   id="tspan11">i</tspan><tspan
   font-size="20px"
   x="22.291599"
   y="7"
   id="tspan12">j</tspan></text>
      <path
         d="M 1480,512 966,394 1480,276 Z"
         stroke="#0000ff"
         stroke-width="1.66667"
         stroke-miterlimit="8"
         fill="#0000ff"
         fill-rule="evenodd"
         fill-opacity="0.14902"
         id="path12" />
      <text
         fill="#0000ff"
         font-family="Calibri, Calibri_MSFontService, sans-serif"
         font-weight="700"
         font-size="30px"
         transform="translate(1203.93,438)"
         id="text13">v<tspan
   font-size="20px"
   x="14.1667"
   y="7"
   id="tspan13">i</tspan></text>
      <path
         d="M 2.55444,-2.45321 71.0855,68.9054 65.9766,73.8118 -2.55444,2.45321 Z M 73.7411,61.4446 90.61,94.3486 58.4145,76.1639 Z"
         fill="#0000ff"
         transform="matrix(1,0,0,-1,1125.5,489.849)"
         id="path13" />
      <path
         d="M 0,0 513.543,0.334383"
         stroke="#000000"
         stroke-width="3.75"
         stroke-miterlimit="8"
         stroke-dasharray="11.25, 3.75"
         fill="none"
         fill-rule="evenodd"
         transform="matrix(1,0,0,-1,966,394.334)"
         id="path14" />
      <text
         font-family="'Times New Roman', 'Times New Roman_MSFontService', sans-serif"
         font-style="italic"
         font-weight="400"
         font-size="30px"
         transform="translate(1391.58,322)"
         id="text14">VOC<tspan
   font-style="normal"
   font-size="20px"
   x="59.108398"
   y="7"
   id="tspan14">ij</tspan></text>
      <path
         d="M 0,0 73.9841,68.5255"
         stroke="#000000"
         stroke-width="2.5"
         stroke-miterlimit="8"
         fill="none"
         fill-rule="evenodd"
         transform="matrix(1,0,0,-1,993.5,394.025)"
         id="path15" />
      <path
         d="M 965,394.717 1034,410 1026.5,395.226 1017,383 Z"
         fill="#000000"
         fill-rule="evenodd"
         fill-opacity="0.619608"
         id="path16" />
      <path
         d="M 0,0 181.032,26.4377"
         stroke="#000000"
         stroke-width="2.5"
         stroke-miterlimit="8"
         fill="none"
         fill-rule="evenodd"
         transform="matrix(-1,0,0,1,1397.53,534.5)"
         id="path17" />
      <path
         d="m 866,487.5 c 0,-5.799 4.701,-10.5 10.5,-10.5 5.799,0 10.5,4.701 10.5,10.5 0,5.799 -4.701,10.5 -10.5,10.5 -5.799,0 -10.5,-4.701 -10.5,-10.5 z"
         stroke="#ff0000"
         stroke-width="1.66667"
         stroke-miterlimit="8"
         fill="#ff0000"
         fill-rule="evenodd"
         id="path18" />
      <path
         d="m 1118,486.5 c 0,-5.799 4.7,-10.5 10.5,-10.5 5.8,0 10.5,4.701 10.5,10.5 0,5.799 -4.7,10.5 -10.5,10.5 -5.8,0 -10.5,-4.701 -10.5,-10.5 z"
         fill="#0000ff"
         fill-rule="evenodd"
         id="path19" />
    </g>
  </g>
</svg>
