<?xml version="1.0" encoding="utf-8" standalone="no"?>
<!DOCTYPE svg PUBLIC "-//W3C//DTD SVG 1.1//EN"
  "http://www.w3.org/Graphics/SVG/1.1/DTD/svg11.dtd">
<svg xmlns:xlink="http://www.w3.org/1999/xlink" width="852.95952pt" height="168.23952pt" viewBox="0 0 852.95952 168.23952" xmlns="http://www.w3.org/2000/svg" version="1.1">
 <metadata>
  <rdf:RDF xmlns:dc="http://purl.org/dc/elements/1.1/" xmlns:cc="http://creativecommons.org/ns#" xmlns:rdf="http://www.w3.org/1999/02/22-rdf-syntax-ns#">
   <cc:Work>
    <dc:type rdf:resource="http://purl.org/dc/dcmitype/StillImage"/>
    <dc:date>2025-02-25T20:58:54.908128</dc:date>
    <dc:format>image/svg+xml</dc:format>
    <dc:creator>
     <cc:Agent>
      <dc:title>Matplotlib v3.10.0, https://matplotlib.org/</dc:title>
     </cc:Agent>
    </dc:creator>
   </cc:Work>
  </rdf:RDF>
 </metadata>
 <defs>
  <style type="text/css">*{stroke-linejoin: round; stroke-linecap: butt}</style>
 </defs>
 <g id="figure_1">
  <g id="patch_1">
   <path d="M 0 168.23952 
L 852.95952 168.23952 
L 852.95952 0 
L 0 0 
z
" style="fill: #ffffff"/>
  </g>
  <g id="axes_1">
   <g id="patch_2">
    <path d="M 47.099375 143.117645 
L 182.03102 143.117645 
L 182.03102 21.14625 
L 47.099375 21.14625 
z
" style="fill: #ffffff"/>
   </g>
   <g id="patch_3">
    <path d="M 53.232632 143.117645 
L 88.279812 143.117645 
L 88.279812 47.36119 
L 53.232632 47.36119 
z
" clip-path="url(#pab1f7d9db5)" style="fill: #0080ff; fill-opacity: 0.7"/>
   </g>
   <g id="patch_4">
    <path d="M 97.041607 143.117645 
L 132.088788 143.117645 
L 132.088788 140.970639 
L 97.041607 140.970639 
z
" clip-path="url(#pab1f7d9db5)" style="fill: #0080ff; fill-opacity: 0.7"/>
   </g>
   <g id="patch_5">
    <path d="M 140.850583 143.117645 
L 175.897763 143.117645 
L 175.897763 37.055562 
L 140.850583 37.055562 
z
" clip-path="url(#pab1f7d9db5)" style="fill: #0080ff; fill-opacity: 0.7"/>
   </g>
   <g id="matplotlib.axis_1">
    <g id="xtick_1">
     <g id="line2d_1">
      <defs>
       <path id="m54b99e847d" d="M 0 0 
L 0 3.5 
" style="stroke: #000000; stroke-width: 0.8"/>
      </defs>
      <g>
       <use xlink:href="#m54b99e847d" x="70.756222" y="143.117645" style="stroke: #000000; stroke-width: 0.8"/>
      </g>
     </g>
     <g id="text_1">
      <!-- Overtake -->
      <g transform="translate(48.768097 158.450145) scale(0.12 -0.12)">
       <defs>
        <path id="TimesNewRomanPSMT-4f" d="M 2341 4334 
Q 3166 4334 3770 3707 
Q 4375 3081 4375 2144 
Q 4375 1178 3765 540 
Q 3156 -97 2291 -97 
Q 1416 -97 820 525 
Q 225 1147 225 2134 
Q 225 3144 913 3781 
Q 1509 4334 2341 4334 
z
M 2281 4106 
Q 1713 4106 1369 3684 
Q 941 3159 941 2147 
Q 941 1109 1384 550 
Q 1725 125 2284 125 
Q 2881 125 3270 590 
Q 3659 1056 3659 2059 
Q 3659 3147 3231 3681 
Q 2888 4106 2281 4106 
z
" transform="scale(0.015625)"/>
        <path id="TimesNewRomanPSMT-76" d="M 53 2863 
L 1400 2863 
L 1400 2747 
L 1313 2747 
Q 1191 2747 1127 2687 
Q 1063 2628 1063 2528 
Q 1063 2419 1128 2269 
L 1794 688 
L 2463 2328 
Q 2534 2503 2534 2594 
Q 2534 2638 2509 2666 
Q 2475 2713 2422 2730 
Q 2369 2747 2206 2747 
L 2206 2863 
L 3141 2863 
L 3141 2747 
Q 2978 2734 2916 2681 
Q 2806 2588 2719 2369 
L 1703 -88 
L 1575 -88 
L 553 2328 
Q 484 2497 421 2570 
Q 359 2644 263 2694 
Q 209 2722 53 2747 
L 53 2863 
z
" transform="scale(0.015625)"/>
        <path id="TimesNewRomanPSMT-65" d="M 681 1784 
Q 678 1147 991 784 
Q 1303 422 1725 422 
Q 2006 422 2214 576 
Q 2422 731 2563 1106 
L 2659 1044 
Q 2594 616 2278 264 
Q 1963 -88 1488 -88 
Q 972 -88 605 314 
Q 238 716 238 1394 
Q 238 2128 614 2539 
Q 991 2950 1559 2950 
Q 2041 2950 2350 2633 
Q 2659 2316 2659 1784 
L 681 1784 
z
M 681 1966 
L 2006 1966 
Q 1991 2241 1941 2353 
Q 1863 2528 1708 2628 
Q 1553 2728 1384 2728 
Q 1125 2728 920 2526 
Q 716 2325 681 1966 
z
" transform="scale(0.015625)"/>
        <path id="TimesNewRomanPSMT-72" d="M 1038 2947 
L 1038 2303 
Q 1397 2947 1775 2947 
Q 1947 2947 2059 2842 
Q 2172 2738 2172 2600 
Q 2172 2478 2090 2393 
Q 2009 2309 1897 2309 
Q 1788 2309 1652 2417 
Q 1516 2525 1450 2525 
Q 1394 2525 1328 2463 
Q 1188 2334 1038 2041 
L 1038 669 
Q 1038 431 1097 309 
Q 1138 225 1241 169 
Q 1344 113 1538 113 
L 1538 0 
L 72 0 
L 72 113 
Q 291 113 397 181 
Q 475 231 506 341 
Q 522 394 522 644 
L 522 1753 
Q 522 2253 501 2348 
Q 481 2444 426 2487 
Q 372 2531 291 2531 
Q 194 2531 72 2484 
L 41 2597 
L 906 2947 
L 1038 2947 
z
" transform="scale(0.015625)"/>
        <path id="TimesNewRomanPSMT-74" d="M 1031 3803 
L 1031 2863 
L 1700 2863 
L 1700 2644 
L 1031 2644 
L 1031 788 
Q 1031 509 1111 412 
Q 1191 316 1316 316 
Q 1419 316 1516 380 
Q 1613 444 1666 569 
L 1788 569 
Q 1678 263 1478 108 
Q 1278 -47 1066 -47 
Q 922 -47 784 33 
Q 647 113 581 261 
Q 516 409 516 719 
L 516 2644 
L 63 2644 
L 63 2747 
Q 234 2816 414 2980 
Q 594 3144 734 3369 
Q 806 3488 934 3803 
L 1031 3803 
z
" transform="scale(0.015625)"/>
        <path id="TimesNewRomanPSMT-61" d="M 1822 413 
Q 1381 72 1269 19 
Q 1100 -59 909 -59 
Q 613 -59 420 144 
Q 228 347 228 678 
Q 228 888 322 1041 
Q 450 1253 767 1440 
Q 1084 1628 1822 1897 
L 1822 2009 
Q 1822 2438 1686 2597 
Q 1550 2756 1291 2756 
Q 1094 2756 978 2650 
Q 859 2544 859 2406 
L 866 2225 
Q 866 2081 792 2003 
Q 719 1925 600 1925 
Q 484 1925 411 2006 
Q 338 2088 338 2228 
Q 338 2497 613 2722 
Q 888 2947 1384 2947 
Q 1766 2947 2009 2819 
Q 2194 2722 2281 2516 
Q 2338 2381 2338 1966 
L 2338 994 
Q 2338 584 2353 492 
Q 2369 400 2405 369 
Q 2441 338 2488 338 
Q 2538 338 2575 359 
Q 2641 400 2828 588 
L 2828 413 
Q 2478 -56 2159 -56 
Q 2006 -56 1915 50 
Q 1825 156 1822 413 
z
M 1822 616 
L 1822 1706 
Q 1350 1519 1213 1441 
Q 966 1303 859 1153 
Q 753 1003 753 825 
Q 753 600 887 451 
Q 1022 303 1197 303 
Q 1434 303 1822 616 
z
" transform="scale(0.015625)"/>
        <path id="TimesNewRomanPSMT-6b" d="M 1047 4444 
L 1047 1597 
L 1775 2259 
Q 2006 2472 2044 2528 
Q 2069 2566 2069 2603 
Q 2069 2666 2017 2711 
Q 1966 2756 1847 2763 
L 1847 2863 
L 3091 2863 
L 3091 2763 
Q 2834 2756 2664 2684 
Q 2494 2613 2291 2428 
L 1556 1750 
L 2291 822 
Q 2597 438 2703 334 
Q 2853 188 2966 144 
Q 3044 113 3238 113 
L 3238 0 
L 1847 0 
L 1847 113 
Q 1966 116 2008 148 
Q 2050 181 2050 241 
Q 2050 313 1925 472 
L 1047 1594 
L 1047 644 
Q 1047 366 1086 278 
Q 1125 191 1197 153 
Q 1269 116 1509 113 
L 1509 0 
L 53 0 
L 53 113 
Q 272 113 381 166 
Q 447 200 481 272 
Q 528 375 528 628 
L 528 3234 
Q 528 3731 506 3842 
Q 484 3953 434 3995 
Q 384 4038 303 4038 
Q 238 4038 106 3984 
L 53 4094 
L 903 4444 
L 1047 4444 
z
" transform="scale(0.015625)"/>
       </defs>
       <use xlink:href="#TimesNewRomanPSMT-4f"/>
       <use xlink:href="#TimesNewRomanPSMT-76" transform="translate(72.216797 0)"/>
       <use xlink:href="#TimesNewRomanPSMT-65" transform="translate(122.216797 0)"/>
       <use xlink:href="#TimesNewRomanPSMT-72" transform="translate(166.601562 0)"/>
       <use xlink:href="#TimesNewRomanPSMT-74" transform="translate(199.902344 0)"/>
       <use xlink:href="#TimesNewRomanPSMT-61" transform="translate(227.685547 0)"/>
       <use xlink:href="#TimesNewRomanPSMT-6b" transform="translate(272.070312 0)"/>
       <use xlink:href="#TimesNewRomanPSMT-65" transform="translate(322.070312 0)"/>
      </g>
     </g>
    </g>
    <g id="xtick_2">
     <g id="line2d_2">
      <g>
       <use xlink:href="#m54b99e847d" x="114.565197" y="143.117645" style="stroke: #000000; stroke-width: 0.8"/>
      </g>
     </g>
     <g id="text_2">
      <!-- Head-on -->
      <g transform="translate(93.907385 158.450145) scale(0.12 -0.12)">
       <defs>
        <path id="TimesNewRomanPSMT-48" d="M 1316 2272 
L 3284 2272 
L 3284 3484 
Q 3284 3809 3244 3913 
Q 3213 3991 3113 4047 
Q 2978 4122 2828 4122 
L 2678 4122 
L 2678 4238 
L 4491 4238 
L 4491 4122 
L 4341 4122 
Q 4191 4122 4056 4050 
Q 3956 4000 3920 3898 
Q 3884 3797 3884 3484 
L 3884 750 
Q 3884 428 3925 325 
Q 3956 247 4053 191 
Q 4191 116 4341 116 
L 4491 116 
L 4491 0 
L 2678 0 
L 2678 116 
L 2828 116 
Q 3088 116 3206 269 
Q 3284 369 3284 750 
L 3284 2041 
L 1316 2041 
L 1316 750 
Q 1316 428 1356 325 
Q 1388 247 1488 191 
Q 1622 116 1772 116 
L 1925 116 
L 1925 0 
L 109 0 
L 109 116 
L 259 116 
Q 522 116 641 269 
Q 716 369 716 750 
L 716 3484 
Q 716 3809 675 3913 
Q 644 3991 547 4047 
Q 409 4122 259 4122 
L 109 4122 
L 109 4238 
L 1925 4238 
L 1925 4122 
L 1772 4122 
Q 1622 4122 1488 4050 
Q 1391 4000 1353 3898 
Q 1316 3797 1316 3484 
L 1316 2272 
z
" transform="scale(0.015625)"/>
        <path id="TimesNewRomanPSMT-64" d="M 2222 322 
Q 2013 103 1813 7 
Q 1613 -88 1381 -88 
Q 913 -88 563 304 
Q 213 697 213 1313 
Q 213 1928 600 2439 
Q 988 2950 1597 2950 
Q 1975 2950 2222 2709 
L 2222 3238 
Q 2222 3728 2198 3840 
Q 2175 3953 2125 3993 
Q 2075 4034 2000 4034 
Q 1919 4034 1784 3984 
L 1744 4094 
L 2597 4444 
L 2738 4444 
L 2738 1134 
Q 2738 631 2761 520 
Q 2784 409 2836 365 
Q 2888 322 2956 322 
Q 3041 322 3181 375 
L 3216 266 
L 2366 -88 
L 2222 -88 
L 2222 322 
z
M 2222 541 
L 2222 2016 
Q 2203 2228 2109 2403 
Q 2016 2578 1861 2667 
Q 1706 2756 1559 2756 
Q 1284 2756 1069 2509 
Q 784 2184 784 1559 
Q 784 928 1059 592 
Q 1334 256 1672 256 
Q 1956 256 2222 541 
z
" transform="scale(0.015625)"/>
        <path id="TimesNewRomanPSMT-2d" d="M 259 1672 
L 1875 1672 
L 1875 1200 
L 259 1200 
L 259 1672 
z
" transform="scale(0.015625)"/>
        <path id="TimesNewRomanPSMT-6f" d="M 1600 2947 
Q 2250 2947 2644 2453 
Q 2978 2031 2978 1484 
Q 2978 1100 2793 706 
Q 2609 313 2286 112 
Q 1963 -88 1566 -88 
Q 919 -88 538 428 
Q 216 863 216 1403 
Q 216 1797 411 2186 
Q 606 2575 925 2761 
Q 1244 2947 1600 2947 
z
M 1503 2744 
Q 1338 2744 1170 2645 
Q 1003 2547 900 2300 
Q 797 2053 797 1666 
Q 797 1041 1045 587 
Q 1294 134 1700 134 
Q 2003 134 2200 384 
Q 2397 634 2397 1244 
Q 2397 2006 2069 2444 
Q 1847 2744 1503 2744 
z
" transform="scale(0.015625)"/>
        <path id="TimesNewRomanPSMT-6e" d="M 1034 2341 
Q 1538 2947 1994 2947 
Q 2228 2947 2397 2830 
Q 2566 2713 2666 2444 
Q 2734 2256 2734 1869 
L 2734 647 
Q 2734 375 2778 278 
Q 2813 200 2889 156 
Q 2966 113 3172 113 
L 3172 0 
L 1756 0 
L 1756 113 
L 1816 113 
Q 2016 113 2095 173 
Q 2175 234 2206 353 
Q 2219 400 2219 647 
L 2219 1819 
Q 2219 2209 2117 2386 
Q 2016 2563 1775 2563 
Q 1403 2563 1034 2156 
L 1034 647 
Q 1034 356 1069 288 
Q 1113 197 1189 155 
Q 1266 113 1500 113 
L 1500 0 
L 84 0 
L 84 113 
L 147 113 
Q 366 113 442 223 
Q 519 334 519 647 
L 519 1709 
Q 519 2225 495 2337 
Q 472 2450 423 2490 
Q 375 2531 294 2531 
Q 206 2531 84 2484 
L 38 2597 
L 900 2947 
L 1034 2947 
L 1034 2341 
z
" transform="scale(0.015625)"/>
       </defs>
       <use xlink:href="#TimesNewRomanPSMT-48"/>
       <use xlink:href="#TimesNewRomanPSMT-65" transform="translate(72.216797 0)"/>
       <use xlink:href="#TimesNewRomanPSMT-61" transform="translate(116.601562 0)"/>
       <use xlink:href="#TimesNewRomanPSMT-64" transform="translate(160.986328 0)"/>
       <use xlink:href="#TimesNewRomanPSMT-2d" transform="translate(210.986328 0)"/>
       <use xlink:href="#TimesNewRomanPSMT-6f" transform="translate(244.287109 0)"/>
       <use xlink:href="#TimesNewRomanPSMT-6e" transform="translate(294.287109 0)"/>
      </g>
     </g>
    </g>
    <g id="xtick_3">
     <g id="line2d_3">
      <g>
       <use xlink:href="#m54b99e847d" x="158.374173" y="143.117645" style="stroke: #000000; stroke-width: 0.8"/>
      </g>
     </g>
     <g id="text_3">
      <!-- Crossing -->
      <g transform="translate(137.036673 158.450145) scale(0.12 -0.12)">
       <defs>
        <path id="TimesNewRomanPSMT-43" d="M 3853 4334 
L 3950 2894 
L 3853 2894 
Q 3659 3541 3300 3825 
Q 2941 4109 2438 4109 
Q 2016 4109 1675 3895 
Q 1334 3681 1139 3212 
Q 944 2744 944 2047 
Q 944 1472 1128 1050 
Q 1313 628 1683 403 
Q 2053 178 2528 178 
Q 2941 178 3256 354 
Q 3572 531 3950 1056 
L 4047 994 
Q 3728 428 3303 165 
Q 2878 -97 2294 -97 
Q 1241 -97 663 684 
Q 231 1266 231 2053 
Q 231 2688 515 3219 
Q 800 3750 1298 4042 
Q 1797 4334 2388 4334 
Q 2847 4334 3294 4109 
Q 3425 4041 3481 4041 
Q 3566 4041 3628 4100 
Q 3709 4184 3744 4334 
L 3853 4334 
z
" transform="scale(0.015625)"/>
        <path id="TimesNewRomanPSMT-73" d="M 2050 2947 
L 2050 1972 
L 1947 1972 
Q 1828 2431 1642 2597 
Q 1456 2763 1169 2763 
Q 950 2763 815 2647 
Q 681 2531 681 2391 
Q 681 2216 781 2091 
Q 878 1963 1175 1819 
L 1631 1597 
Q 2266 1288 2266 781 
Q 2266 391 1970 151 
Q 1675 -88 1309 -88 
Q 1047 -88 709 6 
Q 606 38 541 38 
Q 469 38 428 -44 
L 325 -44 
L 325 978 
L 428 978 
Q 516 541 762 319 
Q 1009 97 1316 97 
Q 1531 97 1667 223 
Q 1803 350 1803 528 
Q 1803 744 1651 891 
Q 1500 1038 1047 1263 
Q 594 1488 453 1669 
Q 313 1847 313 2119 
Q 313 2472 555 2709 
Q 797 2947 1181 2947 
Q 1350 2947 1591 2875 
Q 1750 2828 1803 2828 
Q 1853 2828 1881 2850 
Q 1909 2872 1947 2947 
L 2050 2947 
z
" transform="scale(0.015625)"/>
        <path id="TimesNewRomanPSMT-69" d="M 928 4444 
Q 1059 4444 1151 4351 
Q 1244 4259 1244 4128 
Q 1244 3997 1151 3903 
Q 1059 3809 928 3809 
Q 797 3809 703 3903 
Q 609 3997 609 4128 
Q 609 4259 701 4351 
Q 794 4444 928 4444 
z
M 1188 2947 
L 1188 647 
Q 1188 378 1227 289 
Q 1266 200 1342 156 
Q 1419 113 1622 113 
L 1622 0 
L 231 0 
L 231 113 
Q 441 113 512 153 
Q 584 194 626 287 
Q 669 381 669 647 
L 669 1750 
Q 669 2216 641 2353 
Q 619 2453 572 2492 
Q 525 2531 444 2531 
Q 356 2531 231 2484 
L 188 2597 
L 1050 2947 
L 1188 2947 
z
" transform="scale(0.015625)"/>
        <path id="TimesNewRomanPSMT-67" d="M 966 1044 
Q 703 1172 562 1401 
Q 422 1631 422 1909 
Q 422 2334 742 2640 
Q 1063 2947 1563 2947 
Q 1972 2947 2272 2747 
L 2878 2747 
Q 3013 2747 3034 2739 
Q 3056 2731 3066 2713 
Q 3084 2684 3084 2613 
Q 3084 2531 3069 2500 
Q 3059 2484 3036 2475 
Q 3013 2466 2878 2466 
L 2506 2466 
Q 2681 2241 2681 1891 
Q 2681 1491 2375 1206 
Q 2069 922 1553 922 
Q 1341 922 1119 984 
Q 981 866 932 777 
Q 884 688 884 625 
Q 884 572 936 522 
Q 988 472 1138 450 
Q 1225 438 1575 428 
Q 2219 413 2409 384 
Q 2700 344 2873 169 
Q 3047 -6 3047 -263 
Q 3047 -616 2716 -925 
Q 2228 -1381 1444 -1381 
Q 841 -1381 425 -1109 
Q 191 -953 191 -784 
Q 191 -709 225 -634 
Q 278 -519 444 -313 
Q 466 -284 763 25 
Q 600 122 533 198 
Q 466 275 466 372 
Q 466 481 555 628 
Q 644 775 966 1044 
z
M 1509 2797 
Q 1278 2797 1122 2612 
Q 966 2428 966 2047 
Q 966 1553 1178 1281 
Q 1341 1075 1591 1075 
Q 1828 1075 1981 1253 
Q 2134 1431 2134 1813 
Q 2134 2309 1919 2591 
Q 1759 2797 1509 2797 
z
M 934 0 
Q 788 -159 713 -296 
Q 638 -434 638 -550 
Q 638 -700 819 -813 
Q 1131 -1006 1722 -1006 
Q 2284 -1006 2551 -807 
Q 2819 -609 2819 -384 
Q 2819 -222 2659 -153 
Q 2497 -84 2016 -72 
Q 1313 -53 934 0 
z
" transform="scale(0.015625)"/>
       </defs>
       <use xlink:href="#TimesNewRomanPSMT-43"/>
       <use xlink:href="#TimesNewRomanPSMT-72" transform="translate(66.699219 0)"/>
       <use xlink:href="#TimesNewRomanPSMT-6f" transform="translate(100 0)"/>
       <use xlink:href="#TimesNewRomanPSMT-73" transform="translate(150 0)"/>
       <use xlink:href="#TimesNewRomanPSMT-73" transform="translate(188.916016 0)"/>
       <use xlink:href="#TimesNewRomanPSMT-69" transform="translate(227.832031 0)"/>
       <use xlink:href="#TimesNewRomanPSMT-6e" transform="translate(255.615234 0)"/>
       <use xlink:href="#TimesNewRomanPSMT-67" transform="translate(305.615234 0)"/>
      </g>
     </g>
    </g>
   </g>
   <g id="matplotlib.axis_2">
    <g id="ytick_1">
     <g id="line2d_4">
      <defs>
       <path id="md155bdad64" d="M 0 0 
L -3.5 0 
" style="stroke: #000000; stroke-width: 0.8"/>
      </defs>
      <g>
       <use xlink:href="#md155bdad64" x="47.099375" y="143.117645" style="stroke: #000000; stroke-width: 0.8"/>
      </g>
     </g>
     <g id="text_4">
      <!-- 0 -->
      <g transform="translate(34.099375 147.283895) scale(0.12 -0.12)">
       <defs>
        <path id="TimesNewRomanPSMT-30" d="M 231 2094 
Q 231 2819 450 3342 
Q 669 3866 1031 4122 
Q 1313 4325 1613 4325 
Q 2100 4325 2488 3828 
Q 2972 3213 2972 2159 
Q 2972 1422 2759 906 
Q 2547 391 2217 158 
Q 1888 -75 1581 -75 
Q 975 -75 572 641 
Q 231 1244 231 2094 
z
M 844 2016 
Q 844 1141 1059 588 
Q 1238 122 1591 122 
Q 1759 122 1940 273 
Q 2122 425 2216 781 
Q 2359 1319 2359 2297 
Q 2359 3022 2209 3506 
Q 2097 3866 1919 4016 
Q 1791 4119 1609 4119 
Q 1397 4119 1231 3928 
Q 1006 3669 925 3112 
Q 844 2556 844 2016 
z
" transform="scale(0.015625)"/>
       </defs>
       <use xlink:href="#TimesNewRomanPSMT-30"/>
      </g>
     </g>
    </g>
    <g id="ytick_2">
     <g id="line2d_5">
      <g>
       <use xlink:href="#md155bdad64" x="47.099375" y="37.055562" style="stroke: #000000; stroke-width: 0.8"/>
      </g>
     </g>
     <g id="text_5">
      <!-- 494 -->
      <g transform="translate(22.099375 41.221812) scale(0.12 -0.12)">
       <defs>
        <path id="TimesNewRomanPSMT-34" d="M 2978 1563 
L 2978 1119 
L 2409 1119 
L 2409 0 
L 1894 0 
L 1894 1119 
L 100 1119 
L 100 1519 
L 2066 4325 
L 2409 4325 
L 2409 1563 
L 2978 1563 
z
M 1894 1563 
L 1894 3666 
L 406 1563 
L 1894 1563 
z
" transform="scale(0.015625)"/>
        <path id="TimesNewRomanPSMT-39" d="M 338 -88 
L 338 28 
Q 744 34 1094 217 
Q 1444 400 1770 856 
Q 2097 1313 2225 1859 
Q 1734 1544 1338 1544 
Q 891 1544 572 1889 
Q 253 2234 253 2806 
Q 253 3363 572 3797 
Q 956 4325 1575 4325 
Q 2097 4325 2469 3894 
Q 2925 3359 2925 2575 
Q 2925 1869 2578 1258 
Q 2231 647 1613 244 
Q 1109 -88 516 -88 
L 338 -88 
z
M 2275 2091 
Q 2331 2497 2331 2741 
Q 2331 3044 2228 3395 
Q 2125 3747 1936 3934 
Q 1747 4122 1506 4122 
Q 1228 4122 1018 3872 
Q 809 3622 809 3128 
Q 809 2469 1088 2097 
Q 1291 1828 1588 1828 
Q 1731 1828 1928 1897 
Q 2125 1966 2275 2091 
z
" transform="scale(0.015625)"/>
       </defs>
       <use xlink:href="#TimesNewRomanPSMT-34"/>
       <use xlink:href="#TimesNewRomanPSMT-39" transform="translate(50 0)"/>
       <use xlink:href="#TimesNewRomanPSMT-34" transform="translate(100 0)"/>
      </g>
     </g>
    </g>
    <g id="ytick_3">
     <g id="line2d_6">
      <g>
       <use xlink:href="#md155bdad64" x="47.099375" y="143.117645" style="stroke: #000000; stroke-width: 0.8"/>
      </g>
     </g>
     <g id="text_6">
      <!-- 0 -->
      <g transform="translate(34.099375 147.283895) scale(0.12 -0.12)">
       <use xlink:href="#TimesNewRomanPSMT-30"/>
      </g>
     </g>
    </g>
    <g id="ytick_4">
     <g id="line2d_7">
      <g>
       <use xlink:href="#md155bdad64" x="47.099375" y="121.862288" style="stroke: #000000; stroke-width: 0.8"/>
      </g>
     </g>
     <g id="text_7">
      <!-- 99 -->
      <g transform="translate(28.099375 126.028538) scale(0.12 -0.12)">
       <use xlink:href="#TimesNewRomanPSMT-39"/>
       <use xlink:href="#TimesNewRomanPSMT-39" transform="translate(50 0)"/>
      </g>
     </g>
    </g>
    <g id="ytick_5">
     <g id="line2d_8">
      <g>
       <use xlink:href="#md155bdad64" x="47.099375" y="100.606932" style="stroke: #000000; stroke-width: 0.8"/>
      </g>
     </g>
     <g id="text_8">
      <!-- 198 -->
      <g transform="translate(22.099375 104.773182) scale(0.12 -0.12)">
       <defs>
        <path id="TimesNewRomanPSMT-31" d="M 750 3822 
L 1781 4325 
L 1884 4325 
L 1884 747 
Q 1884 391 1914 303 
Q 1944 216 2037 169 
Q 2131 122 2419 116 
L 2419 0 
L 825 0 
L 825 116 
Q 1125 122 1212 167 
Q 1300 213 1334 289 
Q 1369 366 1369 747 
L 1369 3034 
Q 1369 3497 1338 3628 
Q 1316 3728 1258 3775 
Q 1200 3822 1119 3822 
Q 1003 3822 797 3725 
L 750 3822 
z
" transform="scale(0.015625)"/>
        <path id="TimesNewRomanPSMT-38" d="M 1228 2134 
Q 725 2547 579 2797 
Q 434 3047 434 3316 
Q 434 3728 753 4026 
Q 1072 4325 1600 4325 
Q 2113 4325 2425 4047 
Q 2738 3769 2738 3413 
Q 2738 3175 2569 2928 
Q 2400 2681 1866 2347 
Q 2416 1922 2594 1678 
Q 2831 1359 2831 1006 
Q 2831 559 2490 242 
Q 2150 -75 1597 -75 
Q 994 -75 656 303 
Q 388 606 388 966 
Q 388 1247 577 1523 
Q 766 1800 1228 2134 
z
M 1719 2469 
Q 2094 2806 2194 3001 
Q 2294 3197 2294 3444 
Q 2294 3772 2109 3958 
Q 1925 4144 1606 4144 
Q 1288 4144 1088 3959 
Q 888 3775 888 3528 
Q 888 3366 970 3203 
Q 1053 3041 1206 2894 
L 1719 2469 
z
M 1375 2016 
Q 1116 1797 991 1539 
Q 866 1281 866 981 
Q 866 578 1086 336 
Q 1306 94 1647 94 
Q 1984 94 2187 284 
Q 2391 475 2391 747 
Q 2391 972 2272 1150 
Q 2050 1481 1375 2016 
z
" transform="scale(0.015625)"/>
       </defs>
       <use xlink:href="#TimesNewRomanPSMT-31"/>
       <use xlink:href="#TimesNewRomanPSMT-39" transform="translate(50 0)"/>
       <use xlink:href="#TimesNewRomanPSMT-38" transform="translate(100 0)"/>
      </g>
     </g>
    </g>
    <g id="ytick_6">
     <g id="line2d_9">
      <g>
       <use xlink:href="#md155bdad64" x="47.099375" y="79.566276" style="stroke: #000000; stroke-width: 0.8"/>
      </g>
     </g>
     <g id="text_9">
      <!-- 296 -->
      <g transform="translate(22.099375 83.732526) scale(0.12 -0.12)">
       <defs>
        <path id="TimesNewRomanPSMT-32" d="M 2934 816 
L 2638 0 
L 138 0 
L 138 116 
Q 1241 1122 1691 1759 
Q 2141 2397 2141 2925 
Q 2141 3328 1894 3587 
Q 1647 3847 1303 3847 
Q 991 3847 742 3664 
Q 494 3481 375 3128 
L 259 3128 
Q 338 3706 661 4015 
Q 984 4325 1469 4325 
Q 1984 4325 2329 3994 
Q 2675 3663 2675 3213 
Q 2675 2891 2525 2569 
Q 2294 2063 1775 1497 
Q 997 647 803 472 
L 1909 472 
Q 2247 472 2383 497 
Q 2519 522 2628 598 
Q 2738 675 2819 816 
L 2934 816 
z
" transform="scale(0.015625)"/>
        <path id="TimesNewRomanPSMT-36" d="M 2869 4325 
L 2869 4209 
Q 2456 4169 2195 4045 
Q 1934 3922 1679 3669 
Q 1425 3416 1258 3105 
Q 1091 2794 978 2366 
Q 1428 2675 1881 2675 
Q 2316 2675 2634 2325 
Q 2953 1975 2953 1425 
Q 2953 894 2631 456 
Q 2244 -75 1606 -75 
Q 1172 -75 869 213 
Q 275 772 275 1663 
Q 275 2231 503 2743 
Q 731 3256 1154 3653 
Q 1578 4050 1965 4187 
Q 2353 4325 2688 4325 
L 2869 4325 
z
M 925 2138 
Q 869 1716 869 1456 
Q 869 1156 980 804 
Q 1091 453 1309 247 
Q 1469 100 1697 100 
Q 1969 100 2183 356 
Q 2397 613 2397 1088 
Q 2397 1622 2184 2012 
Q 1972 2403 1581 2403 
Q 1463 2403 1327 2353 
Q 1191 2303 925 2138 
z
" transform="scale(0.015625)"/>
       </defs>
       <use xlink:href="#TimesNewRomanPSMT-32"/>
       <use xlink:href="#TimesNewRomanPSMT-39" transform="translate(50 0)"/>
       <use xlink:href="#TimesNewRomanPSMT-36" transform="translate(100 0)"/>
      </g>
     </g>
    </g>
    <g id="ytick_7">
     <g id="line2d_10">
      <g>
       <use xlink:href="#md155bdad64" x="47.099375" y="58.310919" style="stroke: #000000; stroke-width: 0.8"/>
      </g>
     </g>
     <g id="text_10">
      <!-- 395 -->
      <g transform="translate(22.099375 62.477169) scale(0.12 -0.12)">
       <defs>
        <path id="TimesNewRomanPSMT-33" d="M 325 3431 
Q 506 3859 782 4092 
Q 1059 4325 1472 4325 
Q 1981 4325 2253 3994 
Q 2459 3747 2459 3466 
Q 2459 3003 1878 2509 
Q 2269 2356 2469 2072 
Q 2669 1788 2669 1403 
Q 2669 853 2319 450 
Q 1863 -75 997 -75 
Q 569 -75 414 31 
Q 259 138 259 259 
Q 259 350 332 419 
Q 406 488 509 488 
Q 588 488 669 463 
Q 722 447 909 348 
Q 1097 250 1169 231 
Q 1284 197 1416 197 
Q 1734 197 1970 444 
Q 2206 691 2206 1028 
Q 2206 1275 2097 1509 
Q 2016 1684 1919 1775 
Q 1784 1900 1550 2001 
Q 1316 2103 1072 2103 
L 972 2103 
L 972 2197 
Q 1219 2228 1467 2375 
Q 1716 2522 1828 2728 
Q 1941 2934 1941 3181 
Q 1941 3503 1739 3701 
Q 1538 3900 1238 3900 
Q 753 3900 428 3381 
L 325 3431 
z
" transform="scale(0.015625)"/>
        <path id="TimesNewRomanPSMT-35" d="M 2778 4238 
L 2534 3706 
L 1259 3706 
L 981 3138 
Q 1809 3016 2294 2522 
Q 2709 2097 2709 1522 
Q 2709 1188 2573 903 
Q 2438 619 2231 419 
Q 2025 219 1772 97 
Q 1413 -75 1034 -75 
Q 653 -75 479 54 
Q 306 184 306 341 
Q 306 428 378 495 
Q 450 563 559 563 
Q 641 563 702 538 
Q 763 513 909 409 
Q 1144 247 1384 247 
Q 1750 247 2026 523 
Q 2303 800 2303 1197 
Q 2303 1581 2056 1914 
Q 1809 2247 1375 2428 
Q 1034 2569 447 2591 
L 1259 4238 
L 2778 4238 
z
" transform="scale(0.015625)"/>
       </defs>
       <use xlink:href="#TimesNewRomanPSMT-33"/>
       <use xlink:href="#TimesNewRomanPSMT-39" transform="translate(50 0)"/>
       <use xlink:href="#TimesNewRomanPSMT-35" transform="translate(100 0)"/>
      </g>
     </g>
    </g>
    <g id="ytick_8">
     <g id="line2d_11">
      <g>
       <use xlink:href="#md155bdad64" x="47.099375" y="37.055562" style="stroke: #000000; stroke-width: 0.8"/>
      </g>
     </g>
     <g id="text_11">
      <!-- 494 -->
      <g transform="translate(22.099375 41.221812) scale(0.12 -0.12)">
       <use xlink:href="#TimesNewRomanPSMT-34"/>
       <use xlink:href="#TimesNewRomanPSMT-39" transform="translate(50 0)"/>
       <use xlink:href="#TimesNewRomanPSMT-34" transform="translate(100 0)"/>
      </g>
     </g>
    </g>
    <g id="text_12">
     <!-- 2-vessel samples -->
     <g transform="translate(15.5325 122.625385) rotate(-90) scale(0.12 -0.12)">
      <defs>
       <path id="TimesNewRomanPSMT-6c" d="M 1184 4444 
L 1184 647 
Q 1184 378 1223 290 
Q 1263 203 1344 158 
Q 1425 113 1647 113 
L 1647 0 
L 244 0 
L 244 113 
Q 441 113 512 153 
Q 584 194 625 287 
Q 666 381 666 647 
L 666 3247 
Q 666 3731 644 3842 
Q 622 3953 573 3993 
Q 525 4034 450 4034 
Q 369 4034 244 3984 
L 191 4094 
L 1044 4444 
L 1184 4444 
z
" transform="scale(0.015625)"/>
       <path id="TimesNewRomanPSMT-20" transform="scale(0.015625)"/>
       <path id="TimesNewRomanPSMT-6d" d="M 1050 2338 
Q 1363 2650 1419 2697 
Q 1559 2816 1721 2881 
Q 1884 2947 2044 2947 
Q 2313 2947 2506 2790 
Q 2700 2634 2766 2338 
Q 3088 2713 3309 2830 
Q 3531 2947 3766 2947 
Q 3994 2947 4170 2830 
Q 4347 2713 4450 2447 
Q 4519 2266 4519 1878 
L 4519 647 
Q 4519 378 4559 278 
Q 4591 209 4675 161 
Q 4759 113 4950 113 
L 4950 0 
L 3538 0 
L 3538 113 
L 3597 113 
Q 3781 113 3884 184 
Q 3956 234 3988 344 
Q 4000 397 4000 647 
L 4000 1878 
Q 4000 2228 3916 2372 
Q 3794 2572 3525 2572 
Q 3359 2572 3192 2489 
Q 3025 2406 2788 2181 
L 2781 2147 
L 2788 2013 
L 2788 647 
Q 2788 353 2820 281 
Q 2853 209 2943 161 
Q 3034 113 3253 113 
L 3253 0 
L 1806 0 
L 1806 113 
Q 2044 113 2133 169 
Q 2222 225 2256 338 
Q 2272 391 2272 647 
L 2272 1878 
Q 2272 2228 2169 2381 
Q 2031 2581 1784 2581 
Q 1616 2581 1450 2491 
Q 1191 2353 1050 2181 
L 1050 647 
Q 1050 366 1089 281 
Q 1128 197 1204 155 
Q 1281 113 1516 113 
L 1516 0 
L 100 0 
L 100 113 
Q 297 113 375 155 
Q 453 197 493 289 
Q 534 381 534 647 
L 534 1741 
Q 534 2213 506 2350 
Q 484 2453 437 2492 
Q 391 2531 309 2531 
Q 222 2531 100 2484 
L 53 2597 
L 916 2947 
L 1050 2947 
L 1050 2338 
z
" transform="scale(0.015625)"/>
       <path id="TimesNewRomanPSMT-70" d="M -6 2578 
L 875 2934 
L 994 2934 
L 994 2266 
Q 1216 2644 1439 2795 
Q 1663 2947 1909 2947 
Q 2341 2947 2628 2609 
Q 2981 2197 2981 1534 
Q 2981 794 2556 309 
Q 2206 -88 1675 -88 
Q 1444 -88 1275 -22 
Q 1150 25 994 166 
L 994 -706 
Q 994 -1000 1030 -1079 
Q 1066 -1159 1155 -1206 
Q 1244 -1253 1478 -1253 
L 1478 -1369 
L -22 -1369 
L -22 -1253 
L 56 -1253 
Q 228 -1256 350 -1188 
Q 409 -1153 442 -1076 
Q 475 -1000 475 -688 
L 475 2019 
Q 475 2297 450 2372 
Q 425 2447 370 2484 
Q 316 2522 222 2522 
Q 147 2522 31 2478 
L -6 2578 
z
M 994 2081 
L 994 1013 
Q 994 666 1022 556 
Q 1066 375 1236 237 
Q 1406 100 1666 100 
Q 1978 100 2172 344 
Q 2425 663 2425 1241 
Q 2425 1897 2138 2250 
Q 1938 2494 1663 2494 
Q 1513 2494 1366 2419 
Q 1253 2363 994 2081 
z
" transform="scale(0.015625)"/>
      </defs>
      <use xlink:href="#TimesNewRomanPSMT-32"/>
      <use xlink:href="#TimesNewRomanPSMT-2d" transform="translate(50 0)"/>
      <use xlink:href="#TimesNewRomanPSMT-76" transform="translate(83.300781 0)"/>
      <use xlink:href="#TimesNewRomanPSMT-65" transform="translate(133.300781 0)"/>
      <use xlink:href="#TimesNewRomanPSMT-73" transform="translate(177.685547 0)"/>
      <use xlink:href="#TimesNewRomanPSMT-73" transform="translate(216.601562 0)"/>
      <use xlink:href="#TimesNewRomanPSMT-65" transform="translate(255.517578 0)"/>
      <use xlink:href="#TimesNewRomanPSMT-6c" transform="translate(299.902344 0)"/>
      <use xlink:href="#TimesNewRomanPSMT-20" transform="translate(327.685547 0)"/>
      <use xlink:href="#TimesNewRomanPSMT-73" transform="translate(352.685547 0)"/>
      <use xlink:href="#TimesNewRomanPSMT-61" transform="translate(391.601562 0)"/>
      <use xlink:href="#TimesNewRomanPSMT-6d" transform="translate(435.986328 0)"/>
      <use xlink:href="#TimesNewRomanPSMT-70" transform="translate(513.769531 0)"/>
      <use xlink:href="#TimesNewRomanPSMT-6c" transform="translate(563.769531 0)"/>
      <use xlink:href="#TimesNewRomanPSMT-65" transform="translate(591.552734 0)"/>
      <use xlink:href="#TimesNewRomanPSMT-73" transform="translate(635.9375 0)"/>
     </g>
    </g>
   </g>
   <g id="patch_6">
    <path d="M 47.099375 143.117645 
L 47.099375 21.14625 
" style="fill: none; stroke: #000000; stroke-width: 0.8; stroke-linejoin: miter; stroke-linecap: square"/>
   </g>
   <g id="patch_7">
    <path d="M 182.03102 143.117645 
L 182.03102 21.14625 
" style="fill: none; stroke: #000000; stroke-width: 0.8; stroke-linejoin: miter; stroke-linecap: square"/>
   </g>
   <g id="patch_8">
    <path d="M 47.099375 143.117645 
L 182.03102 143.117645 
" style="fill: none; stroke: #000000; stroke-width: 0.8; stroke-linejoin: miter; stroke-linecap: square"/>
   </g>
   <g id="patch_9">
    <path d="M 47.099375 21.14625 
L 182.03102 21.14625 
" style="fill: none; stroke: #000000; stroke-width: 0.8; stroke-linejoin: miter; stroke-linecap: square"/>
   </g>
   <g id="text_13">
    <!-- 46.9% -->
    <g transform="translate(57.841378 43.306998) scale(0.1 -0.1)">
     <defs>
      <path id="TimesNewRomanPSMT-2e" d="M 800 606 
Q 947 606 1047 504 
Q 1147 403 1147 259 
Q 1147 116 1045 14 
Q 944 -88 800 -88 
Q 656 -88 554 14 
Q 453 116 453 259 
Q 453 406 554 506 
Q 656 606 800 606 
z
" transform="scale(0.015625)"/>
      <path id="TimesNewRomanPSMT-25" d="M 4350 4334 
L 1263 -175 
L 984 -175 
L 4072 4334 
L 4350 4334 
z
M 1138 4334 
Q 1559 4334 1792 3984 
Q 2025 3634 2025 3181 
Q 2025 2638 1762 2341 
Q 1500 2044 1131 2044 
Q 884 2044 678 2180 
Q 472 2316 348 2584 
Q 225 2853 225 3181 
Q 225 3509 350 3786 
Q 475 4063 692 4198 
Q 909 4334 1138 4334 
z
M 1128 4159 
Q 969 4159 845 3971 
Q 722 3784 722 3184 
Q 722 2750 791 2522 
Q 844 2350 956 2256 
Q 1022 2200 1119 2200 
Q 1269 2200 1375 2363 
Q 1531 2603 1531 3166 
Q 1531 3759 1378 4000 
Q 1278 4159 1128 4159 
z
M 4206 2103 
Q 4428 2103 4648 1962 
Q 4869 1822 4989 1553 
Q 5109 1284 5109 963 
Q 5109 409 4843 117 
Q 4578 -175 4216 -175 
Q 3988 -175 3773 -34 
Q 3559 106 3436 367 
Q 3313 628 3313 963 
Q 3313 1291 3436 1562 
Q 3559 1834 3773 1968 
Q 3988 2103 4206 2103 
z
M 4209 1938 
Q 4059 1938 3950 1769 
Q 3809 1550 3809 941 
Q 3809 381 3953 159 
Q 4059 0 4209 0 
Q 4353 0 4466 172 
Q 4616 400 4616 956 
Q 4616 1544 4466 1778 
Q 4363 1938 4209 1938 
z
" transform="scale(0.015625)"/>
     </defs>
     <use xlink:href="#TimesNewRomanPSMT-34"/>
     <use xlink:href="#TimesNewRomanPSMT-36" transform="translate(50 0)"/>
     <use xlink:href="#TimesNewRomanPSMT-2e" transform="translate(100 0)"/>
     <use xlink:href="#TimesNewRomanPSMT-39" transform="translate(125 0)"/>
     <use xlink:href="#TimesNewRomanPSMT-25" transform="translate(175 0)"/>
    </g>
   </g>
   <g id="text_14">
    <!-- 1.1% -->
    <g transform="translate(104.150354 138.788637) scale(0.1 -0.1)">
     <use xlink:href="#TimesNewRomanPSMT-31"/>
     <use xlink:href="#TimesNewRomanPSMT-2e" transform="translate(50 0)"/>
     <use xlink:href="#TimesNewRomanPSMT-31" transform="translate(75 0)"/>
     <use xlink:href="#TimesNewRomanPSMT-25" transform="translate(125 0)"/>
    </g>
   </g>
   <g id="text_15">
    <!-- 52.0% -->
    <g transform="translate(145.459329 32.795258) scale(0.1 -0.1)">
     <use xlink:href="#TimesNewRomanPSMT-35"/>
     <use xlink:href="#TimesNewRomanPSMT-32" transform="translate(50 0)"/>
     <use xlink:href="#TimesNewRomanPSMT-2e" transform="translate(100 0)"/>
     <use xlink:href="#TimesNewRomanPSMT-30" transform="translate(125 0)"/>
     <use xlink:href="#TimesNewRomanPSMT-25" transform="translate(175 0)"/>
    </g>
   </g>
   <g id="text_16">
    <!-- total: 950 -->
    <g transform="translate(92.418244 38.188024) scale(0.11 -0.11)">
     <defs>
      <path id="TimesNewRomanPS-BoldMT-74" d="M 1375 3991 
L 1375 2922 
L 2069 2922 
L 2069 2613 
L 1375 2613 
L 1375 809 
Q 1375 556 1398 482 
Q 1422 409 1481 364 
Q 1541 319 1591 319 
Q 1794 319 1975 628 
L 2069 559 
Q 1816 -41 1247 -41 
Q 969 -41 776 114 
Q 584 269 531 459 
Q 500 566 500 1034 
L 500 2613 
L 119 2613 
L 119 2722 
Q 513 3000 789 3306 
Q 1066 3613 1272 3991 
L 1375 3991 
z
" transform="scale(0.015625)"/>
      <path id="TimesNewRomanPS-BoldMT-6f" d="M 1594 3009 
Q 1975 3009 2303 2812 
Q 2631 2616 2801 2253 
Q 2972 1891 2972 1459 
Q 2972 838 2656 419 
Q 2275 -88 1603 -88 
Q 944 -88 587 375 
Q 231 838 231 1447 
Q 231 2075 595 2542 
Q 959 3009 1594 3009 
z
M 1606 2788 
Q 1447 2788 1333 2667 
Q 1219 2547 1183 2192 
Q 1147 1838 1147 1206 
Q 1147 872 1191 581 
Q 1225 359 1337 243 
Q 1450 128 1594 128 
Q 1734 128 1828 206 
Q 1950 313 1991 503 
Q 2053 800 2053 1703 
Q 2053 2234 1993 2432 
Q 1934 2631 1819 2722 
Q 1738 2788 1606 2788 
z
" transform="scale(0.015625)"/>
      <path id="TimesNewRomanPS-BoldMT-61" d="M 1828 431 
Q 1294 -41 869 -41 
Q 619 -41 453 123 
Q 288 288 288 534 
Q 288 869 575 1136 
Q 863 1403 1828 1847 
L 1828 2141 
Q 1828 2472 1792 2558 
Q 1756 2644 1656 2708 
Q 1556 2772 1431 2772 
Q 1228 2772 1097 2681 
Q 1016 2625 1016 2550 
Q 1016 2484 1103 2388 
Q 1222 2253 1222 2128 
Q 1222 1975 1108 1867 
Q 994 1759 809 1759 
Q 613 1759 480 1878 
Q 347 1997 347 2156 
Q 347 2381 525 2586 
Q 703 2791 1022 2900 
Q 1341 3009 1684 3009 
Q 2100 3009 2342 2832 
Q 2584 2656 2656 2450 
Q 2700 2319 2700 1847 
L 2700 713 
Q 2700 513 2715 461 
Q 2731 409 2762 384 
Q 2794 359 2834 359 
Q 2916 359 3000 475 
L 3094 400 
Q 2938 169 2770 64 
Q 2603 -41 2391 -41 
Q 2141 -41 2000 76 
Q 1859 194 1828 431 
z
M 1828 659 
L 1828 1638 
Q 1450 1416 1266 1163 
Q 1144 994 1144 822 
Q 1144 678 1247 569 
Q 1325 484 1466 484 
Q 1622 484 1828 659 
z
" transform="scale(0.015625)"/>
      <path id="TimesNewRomanPS-BoldMT-6c" d="M 1359 4238 
L 1359 606 
Q 1359 297 1431 211 
Q 1503 125 1713 113 
L 1713 0 
L 134 0 
L 134 113 
Q 328 119 422 225 
Q 484 297 484 606 
L 484 3631 
Q 484 3938 412 4023 
Q 341 4109 134 4122 
L 134 4238 
L 1359 4238 
z
" transform="scale(0.015625)"/>
      <path id="TimesNewRomanPS-BoldMT-3a" d="M 1069 3006 
Q 1284 3006 1436 2854 
Q 1588 2703 1588 2488 
Q 1588 2272 1436 2120 
Q 1284 1969 1069 1969 
Q 853 1969 701 2120 
Q 550 2272 550 2488 
Q 550 2703 701 2854 
Q 853 3006 1069 3006 
z
M 1066 963 
Q 1284 963 1436 809 
Q 1588 656 1588 441 
Q 1588 225 1434 73 
Q 1281 -78 1066 -78 
Q 850 -78 698 73 
Q 547 225 547 441 
Q 547 656 698 809 
Q 850 963 1066 963 
z
" transform="scale(0.015625)"/>
      <path id="TimesNewRomanPS-BoldMT-20" transform="scale(0.015625)"/>
      <path id="TimesNewRomanPS-BoldMT-39" d="M 197 -88 
L 197 0 
Q 716 119 1077 350 
Q 1438 581 1648 922 
Q 1859 1263 1944 1706 
Q 1750 1606 1614 1567 
Q 1478 1528 1328 1528 
Q 847 1528 526 1875 
Q 206 2222 206 2825 
Q 206 3244 379 3592 
Q 553 3941 875 4133 
Q 1197 4325 1544 4325 
Q 1916 4325 2247 4112 
Q 2578 3900 2775 3497 
Q 2972 3094 2972 2578 
Q 2972 1909 2651 1296 
Q 2331 684 1697 314 
Q 1063 -56 197 -88 
z
M 1991 1969 
Q 2022 2319 2022 2584 
Q 2022 3153 1891 3644 
Q 1816 3916 1669 4044 
Q 1591 4113 1466 4113 
Q 1309 4113 1222 3978 
Q 1100 3794 1100 3275 
Q 1100 2409 1306 2081 
Q 1441 1869 1669 1869 
Q 1791 1869 1991 1969 
z
" transform="scale(0.015625)"/>
      <path id="TimesNewRomanPS-BoldMT-35" d="M 975 4238 
L 2959 4238 
L 2644 3431 
L 975 3431 
L 816 3009 
Q 1894 2969 2475 2472 
Q 2953 2063 2953 1453 
Q 2953 1063 2731 689 
Q 2509 316 2106 114 
Q 1703 -88 1222 -88 
Q 703 -88 425 106 
Q 231 244 231 419 
Q 231 553 332 656 
Q 434 759 569 759 
Q 691 759 816 709 
Q 941 659 1244 447 
Q 1434 316 1572 266 
Q 1669 228 1791 228 
Q 2047 228 2226 415 
Q 2406 603 2406 866 
Q 2406 1416 1856 1759 
Q 1306 2103 469 2103 
Q 384 2103 216 2100 
L 975 4238 
z
" transform="scale(0.015625)"/>
      <path id="TimesNewRomanPS-BoldMT-30" d="M 2966 2119 
Q 2966 1484 2788 934 
Q 2681 597 2501 381 
Q 2322 166 2094 39 
Q 1866 -88 1597 -88 
Q 1291 -88 1044 68 
Q 797 225 606 516 
Q 469 728 366 1081 
Q 231 1559 231 2069 
Q 231 2759 425 3338 
Q 584 3816 909 4070 
Q 1234 4325 1597 4325 
Q 1966 4325 2286 4073 
Q 2606 3822 2756 3397 
Q 2966 2813 2966 2119 
z
M 2003 2125 
Q 2003 3238 1991 3422 
Q 1959 3856 1841 4009 
Q 1763 4109 1588 4109 
Q 1453 4109 1375 4034 
Q 1259 3925 1218 3648 
Q 1178 3372 1178 1719 
Q 1178 819 1241 513 
Q 1288 291 1375 216 
Q 1463 141 1606 141 
Q 1763 141 1841 241 
Q 1972 416 1991 781 
L 2003 2125 
z
" transform="scale(0.015625)"/>
     </defs>
     <use xlink:href="#TimesNewRomanPS-BoldMT-74"/>
     <use xlink:href="#TimesNewRomanPS-BoldMT-6f" transform="translate(33.300781 0)"/>
     <use xlink:href="#TimesNewRomanPS-BoldMT-74" transform="translate(83.300781 0)"/>
     <use xlink:href="#TimesNewRomanPS-BoldMT-61" transform="translate(116.601562 0)"/>
     <use xlink:href="#TimesNewRomanPS-BoldMT-6c" transform="translate(166.601562 0)"/>
     <use xlink:href="#TimesNewRomanPS-BoldMT-3a" transform="translate(194.384766 0)"/>
     <use xlink:href="#TimesNewRomanPS-BoldMT-20" transform="translate(227.685547 0)"/>
     <use xlink:href="#TimesNewRomanPS-BoldMT-39" transform="translate(252.685547 0)"/>
     <use xlink:href="#TimesNewRomanPS-BoldMT-35" transform="translate(302.685547 0)"/>
     <use xlink:href="#TimesNewRomanPS-BoldMT-30" transform="translate(352.685547 0)"/>
    </g>
   </g>
   <g id="text_17">
    <!-- SB -->
    <g transform="translate(107.226447 15.14625) scale(0.12 -0.12)">
     <defs>
      <path id="TimesNewRomanPS-BoldMT-53" d="M 3006 4334 
L 3041 2922 
L 2913 2922 
Q 2822 3453 2467 3776 
Q 2113 4100 1700 4100 
Q 1381 4100 1195 3929 
Q 1009 3759 1009 3538 
Q 1009 3397 1075 3288 
Q 1166 3141 1366 2997 
Q 1513 2894 2044 2631 
Q 2788 2266 3047 1941 
Q 3303 1616 3303 1197 
Q 3303 666 2889 283 
Q 2475 -100 1838 -100 
Q 1638 -100 1459 -59 
Q 1281 -19 1013 94 
Q 863 156 766 156 
Q 684 156 593 93 
Q 503 31 447 -97 
L 331 -97 
L 331 1503 
L 447 1503 
Q 584 828 976 473 
Q 1369 119 1822 119 
Q 2172 119 2380 309 
Q 2588 500 2588 753 
Q 2588 903 2508 1043 
Q 2428 1184 2265 1311 
Q 2103 1438 1691 1641 
Q 1113 1925 859 2125 
Q 606 2325 470 2572 
Q 334 2819 334 3116 
Q 334 3622 706 3978 
Q 1078 4334 1644 4334 
Q 1850 4334 2044 4284 
Q 2191 4247 2402 4145 
Q 2613 4044 2697 4044 
Q 2778 4044 2825 4094 
Q 2872 4144 2913 4334 
L 3006 4334 
z
" transform="scale(0.015625)"/>
      <path id="TimesNewRomanPS-BoldMT-42" d="M 2847 2247 
Q 3450 2106 3694 1906 
Q 4044 1622 4044 1169 
Q 4044 691 3659 378 
Q 3188 0 2288 0 
L 134 0 
L 134 116 
Q 428 116 533 170 
Q 638 225 680 312 
Q 722 400 722 744 
L 722 3494 
Q 722 3838 680 3927 
Q 638 4016 531 4069 
Q 425 4122 134 4122 
L 134 4238 
L 2166 4238 
Q 2894 4238 3197 4108 
Q 3500 3978 3675 3720 
Q 3850 3463 3850 3172 
Q 3850 2866 3628 2627 
Q 3406 2388 2847 2247 
z
M 1709 2331 
Q 2153 2331 2364 2431 
Q 2575 2531 2687 2712 
Q 2800 2894 2800 3175 
Q 2800 3456 2689 3636 
Q 2578 3816 2372 3909 
Q 2166 4003 1709 4000 
L 1709 2331 
z
M 1709 2088 
L 1709 728 
L 1706 572 
Q 1706 403 1792 317 
Q 1878 231 2047 231 
Q 2297 231 2508 342 
Q 2719 453 2831 664 
Q 2944 875 2944 1134 
Q 2944 1431 2806 1667 
Q 2669 1903 2428 1997 
Q 2188 2091 1709 2088 
z
" transform="scale(0.015625)"/>
     </defs>
     <use xlink:href="#TimesNewRomanPS-BoldMT-53"/>
     <use xlink:href="#TimesNewRomanPS-BoldMT-42" transform="translate(55.615234 0)"/>
    </g>
   </g>
  </g>
  <g id="axes_2">
   <g id="patch_10">
    <path d="M 213.0315 143.117645 
L 347.963145 143.117645 
L 347.963145 21.14625 
L 213.0315 21.14625 
z
" style="fill: #ffffff"/>
   </g>
   <g id="patch_11">
    <path d="M 219.164757 143.117645 
L 254.211937 143.117645 
L 254.211937 63.620277 
L 219.164757 63.620277 
z
" clip-path="url(#pbfec805c20)" style="fill: #4080bf; fill-opacity: 0.7"/>
   </g>
   <g id="patch_12">
    <path d="M 262.973732 143.117645 
L 298.020913 143.117645 
L 298.020913 140.953113 
L 262.973732 140.953113 
z
" clip-path="url(#pbfec805c20)" style="fill: #4080bf; fill-opacity: 0.7"/>
   </g>
   <g id="patch_13">
    <path d="M 306.782708 143.117645 
L 341.829888 143.117645 
L 341.829888 37.055562 
L 306.782708 37.055562 
z
" clip-path="url(#pbfec805c20)" style="fill: #4080bf; fill-opacity: 0.7"/>
   </g>
   <g id="matplotlib.axis_3">
    <g id="xtick_4">
     <g id="line2d_12">
      <g>
       <use xlink:href="#m54b99e847d" x="236.688347" y="143.117645" style="stroke: #000000; stroke-width: 0.8"/>
      </g>
     </g>
     <g id="text_18">
      <!-- Overtake -->
      <g transform="translate(214.700222 158.450145) scale(0.12 -0.12)">
       <use xlink:href="#TimesNewRomanPSMT-4f"/>
       <use xlink:href="#TimesNewRomanPSMT-76" transform="translate(72.216797 0)"/>
       <use xlink:href="#TimesNewRomanPSMT-65" transform="translate(122.216797 0)"/>
       <use xlink:href="#TimesNewRomanPSMT-72" transform="translate(166.601562 0)"/>
       <use xlink:href="#TimesNewRomanPSMT-74" transform="translate(199.902344 0)"/>
       <use xlink:href="#TimesNewRomanPSMT-61" transform="translate(227.685547 0)"/>
       <use xlink:href="#TimesNewRomanPSMT-6b" transform="translate(272.070312 0)"/>
       <use xlink:href="#TimesNewRomanPSMT-65" transform="translate(322.070312 0)"/>
      </g>
     </g>
    </g>
    <g id="xtick_5">
     <g id="line2d_13">
      <g>
       <use xlink:href="#m54b99e847d" x="280.497322" y="143.117645" style="stroke: #000000; stroke-width: 0.8"/>
      </g>
     </g>
     <g id="text_19">
      <!-- Head-on -->
      <g transform="translate(259.83951 158.450145) scale(0.12 -0.12)">
       <use xlink:href="#TimesNewRomanPSMT-48"/>
       <use xlink:href="#TimesNewRomanPSMT-65" transform="translate(72.216797 0)"/>
       <use xlink:href="#TimesNewRomanPSMT-61" transform="translate(116.601562 0)"/>
       <use xlink:href="#TimesNewRomanPSMT-64" transform="translate(160.986328 0)"/>
       <use xlink:href="#TimesNewRomanPSMT-2d" transform="translate(210.986328 0)"/>
       <use xlink:href="#TimesNewRomanPSMT-6f" transform="translate(244.287109 0)"/>
       <use xlink:href="#TimesNewRomanPSMT-6e" transform="translate(294.287109 0)"/>
      </g>
     </g>
    </g>
    <g id="xtick_6">
     <g id="line2d_14">
      <g>
       <use xlink:href="#m54b99e847d" x="324.306298" y="143.117645" style="stroke: #000000; stroke-width: 0.8"/>
      </g>
     </g>
     <g id="text_20">
      <!-- Crossing -->
      <g transform="translate(302.968798 158.450145) scale(0.12 -0.12)">
       <use xlink:href="#TimesNewRomanPSMT-43"/>
       <use xlink:href="#TimesNewRomanPSMT-72" transform="translate(66.699219 0)"/>
       <use xlink:href="#TimesNewRomanPSMT-6f" transform="translate(100 0)"/>
       <use xlink:href="#TimesNewRomanPSMT-73" transform="translate(150 0)"/>
       <use xlink:href="#TimesNewRomanPSMT-73" transform="translate(188.916016 0)"/>
       <use xlink:href="#TimesNewRomanPSMT-69" transform="translate(227.832031 0)"/>
       <use xlink:href="#TimesNewRomanPSMT-6e" transform="translate(255.615234 0)"/>
       <use xlink:href="#TimesNewRomanPSMT-67" transform="translate(305.615234 0)"/>
      </g>
     </g>
    </g>
   </g>
   <g id="matplotlib.axis_4">
    <g id="ytick_9">
     <g id="line2d_15">
      <g>
       <use xlink:href="#md155bdad64" x="213.0315" y="143.117645" style="stroke: #000000; stroke-width: 0.8"/>
      </g>
     </g>
     <g id="text_21">
      <!-- 0 -->
      <g transform="translate(200.0315 147.283895) scale(0.12 -0.12)">
       <use xlink:href="#TimesNewRomanPSMT-30"/>
      </g>
     </g>
    </g>
    <g id="ytick_10">
     <g id="line2d_16">
      <g>
       <use xlink:href="#md155bdad64" x="213.0315" y="37.055562" style="stroke: #000000; stroke-width: 0.8"/>
      </g>
     </g>
     <g id="text_22">
      <!-- 539 -->
      <g transform="translate(188.0315 41.221812) scale(0.12 -0.12)">
       <use xlink:href="#TimesNewRomanPSMT-35"/>
       <use xlink:href="#TimesNewRomanPSMT-33" transform="translate(50 0)"/>
       <use xlink:href="#TimesNewRomanPSMT-39" transform="translate(100 0)"/>
      </g>
     </g>
    </g>
    <g id="ytick_11">
     <g id="line2d_17">
      <g>
       <use xlink:href="#md155bdad64" x="213.0315" y="143.117645" style="stroke: #000000; stroke-width: 0.8"/>
      </g>
     </g>
     <g id="text_23">
      <!-- 0 -->
      <g transform="translate(200.0315 147.283895) scale(0.12 -0.12)">
       <use xlink:href="#TimesNewRomanPSMT-30"/>
      </g>
     </g>
    </g>
    <g id="ytick_12">
     <g id="line2d_18">
      <g>
       <use xlink:href="#md155bdad64" x="213.0315" y="121.865873" style="stroke: #000000; stroke-width: 0.8"/>
      </g>
     </g>
     <g id="text_24">
      <!-- 108 -->
      <g transform="translate(188.0315 126.032123) scale(0.12 -0.12)">
       <use xlink:href="#TimesNewRomanPSMT-31"/>
       <use xlink:href="#TimesNewRomanPSMT-30" transform="translate(50 0)"/>
       <use xlink:href="#TimesNewRomanPSMT-38" transform="translate(100 0)"/>
      </g>
     </g>
    </g>
    <g id="ytick_13">
     <g id="line2d_19">
      <g>
       <use xlink:href="#md155bdad64" x="213.0315" y="100.614102" style="stroke: #000000; stroke-width: 0.8"/>
      </g>
     </g>
     <g id="text_25">
      <!-- 216 -->
      <g transform="translate(188.0315 104.780352) scale(0.12 -0.12)">
       <use xlink:href="#TimesNewRomanPSMT-32"/>
       <use xlink:href="#TimesNewRomanPSMT-31" transform="translate(50 0)"/>
       <use xlink:href="#TimesNewRomanPSMT-36" transform="translate(100 0)"/>
      </g>
     </g>
    </g>
    <g id="ytick_14">
     <g id="line2d_20">
      <g>
       <use xlink:href="#md155bdad64" x="213.0315" y="79.559106" style="stroke: #000000; stroke-width: 0.8"/>
      </g>
     </g>
     <g id="text_26">
      <!-- 323 -->
      <g transform="translate(188.0315 83.725356) scale(0.12 -0.12)">
       <use xlink:href="#TimesNewRomanPSMT-33"/>
       <use xlink:href="#TimesNewRomanPSMT-32" transform="translate(50 0)"/>
       <use xlink:href="#TimesNewRomanPSMT-33" transform="translate(100 0)"/>
      </g>
     </g>
    </g>
    <g id="ytick_15">
     <g id="line2d_21">
      <g>
       <use xlink:href="#md155bdad64" x="213.0315" y="58.307334" style="stroke: #000000; stroke-width: 0.8"/>
      </g>
     </g>
     <g id="text_27">
      <!-- 431 -->
      <g transform="translate(188.0315 62.473584) scale(0.12 -0.12)">
       <use xlink:href="#TimesNewRomanPSMT-34"/>
       <use xlink:href="#TimesNewRomanPSMT-33" transform="translate(50 0)"/>
       <use xlink:href="#TimesNewRomanPSMT-31" transform="translate(100 0)"/>
      </g>
     </g>
    </g>
    <g id="ytick_16">
     <g id="line2d_22">
      <g>
       <use xlink:href="#md155bdad64" x="213.0315" y="37.055562" style="stroke: #000000; stroke-width: 0.8"/>
      </g>
     </g>
     <g id="text_28">
      <!-- 539 -->
      <g transform="translate(188.0315 41.221812) scale(0.12 -0.12)">
       <use xlink:href="#TimesNewRomanPSMT-35"/>
       <use xlink:href="#TimesNewRomanPSMT-33" transform="translate(50 0)"/>
       <use xlink:href="#TimesNewRomanPSMT-39" transform="translate(100 0)"/>
      </g>
     </g>
    </g>
   </g>
   <g id="patch_14">
    <path d="M 213.0315 143.117645 
L 213.0315 21.14625 
" style="fill: none; stroke: #000000; stroke-width: 0.8; stroke-linejoin: miter; stroke-linecap: square"/>
   </g>
   <g id="patch_15">
    <path d="M 347.963145 143.117645 
L 347.963145 21.14625 
" style="fill: none; stroke: #000000; stroke-width: 0.8; stroke-linejoin: miter; stroke-linecap: square"/>
   </g>
   <g id="patch_16">
    <path d="M 213.0315 143.117645 
L 347.963145 143.117645 
" style="fill: none; stroke: #000000; stroke-width: 0.8; stroke-linejoin: miter; stroke-linecap: square"/>
   </g>
   <g id="patch_17">
    <path d="M 213.0315 21.14625 
L 347.963145 21.14625 
" style="fill: none; stroke: #000000; stroke-width: 0.8; stroke-linejoin: miter; stroke-linecap: square"/>
   </g>
   <g id="text_29">
    <!-- 42.3% -->
    <g transform="translate(223.773503 59.891267) scale(0.1 -0.1)">
     <use xlink:href="#TimesNewRomanPSMT-34"/>
     <use xlink:href="#TimesNewRomanPSMT-32" transform="translate(50 0)"/>
     <use xlink:href="#TimesNewRomanPSMT-2e" transform="translate(100 0)"/>
     <use xlink:href="#TimesNewRomanPSMT-33" transform="translate(125 0)"/>
     <use xlink:href="#TimesNewRomanPSMT-25" transform="translate(175 0)"/>
    </g>
   </g>
   <g id="text_30">
    <!-- 1.2% -->
    <g transform="translate(270.082479 138.77076) scale(0.1 -0.1)">
     <use xlink:href="#TimesNewRomanPSMT-31"/>
     <use xlink:href="#TimesNewRomanPSMT-2e" transform="translate(50 0)"/>
     <use xlink:href="#TimesNewRomanPSMT-32" transform="translate(75 0)"/>
     <use xlink:href="#TimesNewRomanPSMT-25" transform="translate(125 0)"/>
    </g>
   </g>
   <g id="text_31">
    <!-- 56.5% -->
    <g transform="translate(311.391454 32.795258) scale(0.1 -0.1)">
     <use xlink:href="#TimesNewRomanPSMT-35"/>
     <use xlink:href="#TimesNewRomanPSMT-36" transform="translate(50 0)"/>
     <use xlink:href="#TimesNewRomanPSMT-2e" transform="translate(100 0)"/>
     <use xlink:href="#TimesNewRomanPSMT-35" transform="translate(125 0)"/>
     <use xlink:href="#TimesNewRomanPSMT-25" transform="translate(175 0)"/>
    </g>
   </g>
   <g id="text_32">
    <!-- total: 954 -->
    <g transform="translate(258.350369 38.188024) scale(0.11 -0.11)">
     <defs>
      <path id="TimesNewRomanPS-BoldMT-34" d="M 159 1597 
L 2172 4325 
L 2553 4325 
L 2553 1597 
L 2941 1597 
L 2941 950 
L 2553 950 
L 2553 0 
L 1694 0 
L 1694 950 
L 159 950 
L 159 1597 
z
M 463 1597 
L 1694 1597 
L 1694 3269 
L 463 1597 
z
" transform="scale(0.015625)"/>
     </defs>
     <use xlink:href="#TimesNewRomanPS-BoldMT-74"/>
     <use xlink:href="#TimesNewRomanPS-BoldMT-6f" transform="translate(33.300781 0)"/>
     <use xlink:href="#TimesNewRomanPS-BoldMT-74" transform="translate(83.300781 0)"/>
     <use xlink:href="#TimesNewRomanPS-BoldMT-61" transform="translate(116.601562 0)"/>
     <use xlink:href="#TimesNewRomanPS-BoldMT-6c" transform="translate(166.601562 0)"/>
     <use xlink:href="#TimesNewRomanPS-BoldMT-3a" transform="translate(194.384766 0)"/>
     <use xlink:href="#TimesNewRomanPS-BoldMT-20" transform="translate(227.685547 0)"/>
     <use xlink:href="#TimesNewRomanPS-BoldMT-39" transform="translate(252.685547 0)"/>
     <use xlink:href="#TimesNewRomanPS-BoldMT-35" transform="translate(302.685547 0)"/>
     <use xlink:href="#TimesNewRomanPS-BoldMT-34" transform="translate(352.685547 0)"/>
    </g>
   </g>
   <g id="text_33">
    <!-- Scenic -->
    <g transform="translate(264.16701 15.14625) scale(0.12 -0.12)">
     <defs>
      <path id="TimesNewRomanPS-BoldMT-63" d="M 2600 753 
L 2697 678 
Q 2491 291 2183 101 
Q 1875 -88 1528 -88 
Q 944 -88 594 353 
Q 244 794 244 1413 
Q 244 2009 563 2463 
Q 947 3009 1622 3009 
Q 2075 3009 2342 2781 
Q 2609 2553 2609 2272 
Q 2609 2094 2501 1987 
Q 2394 1881 2219 1881 
Q 2034 1881 1914 2003 
Q 1794 2125 1766 2438 
Q 1747 2634 1675 2713 
Q 1603 2791 1506 2791 
Q 1356 2791 1250 2631 
Q 1088 2391 1088 1894 
Q 1088 1481 1219 1104 
Q 1350 728 1578 544 
Q 1750 409 1984 409 
Q 2138 409 2275 481 
Q 2413 553 2600 753 
z
" transform="scale(0.015625)"/>
      <path id="TimesNewRomanPS-BoldMT-65" d="M 2691 1566 
L 1088 1566 
Q 1116 984 1397 647 
Q 1613 388 1916 388 
Q 2103 388 2256 492 
Q 2409 597 2584 869 
L 2691 800 
Q 2453 316 2165 114 
Q 1878 -88 1500 -88 
Q 850 -88 516 413 
Q 247 816 247 1413 
Q 247 2144 642 2576 
Q 1038 3009 1569 3009 
Q 2013 3009 2339 2645 
Q 2666 2281 2691 1566 
z
M 1922 1775 
Q 1922 2278 1867 2465 
Q 1813 2653 1697 2750 
Q 1631 2806 1522 2806 
Q 1359 2806 1256 2647 
Q 1072 2369 1072 1884 
L 1072 1775 
L 1922 1775 
z
" transform="scale(0.015625)"/>
      <path id="TimesNewRomanPS-BoldMT-6e" d="M 1409 2922 
L 1409 2544 
Q 1634 2788 1840 2898 
Q 2047 3009 2284 3009 
Q 2569 3009 2756 2851 
Q 2944 2694 3006 2459 
Q 3056 2281 3056 1775 
L 3056 638 
Q 3056 300 3117 217 
Q 3178 134 3372 113 
L 3372 0 
L 1894 0 
L 1894 113 
Q 2059 134 2131 250 
Q 2181 328 2181 638 
L 2181 1938 
Q 2181 2297 2153 2390 
Q 2125 2484 2058 2536 
Q 1991 2588 1909 2588 
Q 1641 2588 1409 2203 
L 1409 638 
Q 1409 309 1470 221 
Q 1531 134 1697 113 
L 1697 0 
L 219 0 
L 219 113 
Q 403 131 481 231 
Q 534 300 534 638 
L 534 2288 
Q 534 2619 473 2700 
Q 413 2781 219 2806 
L 219 2922 
L 1409 2922 
z
" transform="scale(0.015625)"/>
      <path id="TimesNewRomanPS-BoldMT-69" d="M 919 4338 
Q 1122 4338 1262 4195 
Q 1403 4053 1403 3853 
Q 1403 3653 1261 3512 
Q 1119 3372 919 3372 
Q 719 3372 578 3512 
Q 438 3653 438 3853 
Q 438 4053 578 4195 
Q 719 4338 919 4338 
z
M 1356 2922 
L 1356 606 
Q 1356 297 1428 211 
Q 1500 125 1709 113 
L 1709 0 
L 131 0 
L 131 113 
Q 325 119 419 225 
Q 481 297 481 606 
L 481 2313 
Q 481 2622 409 2708 
Q 338 2794 131 2806 
L 131 2922 
L 1356 2922 
z
" transform="scale(0.015625)"/>
     </defs>
     <use xlink:href="#TimesNewRomanPS-BoldMT-53"/>
     <use xlink:href="#TimesNewRomanPS-BoldMT-63" transform="translate(55.615234 0)"/>
     <use xlink:href="#TimesNewRomanPS-BoldMT-65" transform="translate(100 0)"/>
     <use xlink:href="#TimesNewRomanPS-BoldMT-6e" transform="translate(144.384766 0)"/>
     <use xlink:href="#TimesNewRomanPS-BoldMT-69" transform="translate(200 0)"/>
     <use xlink:href="#TimesNewRomanPS-BoldMT-63" transform="translate(227.783203 0)"/>
    </g>
   </g>
  </g>
  <g id="axes_3">
   <g id="patch_18">
    <path d="M 378.963625 143.117645 
L 513.89527 143.117645 
L 513.89527 21.14625 
L 378.963625 21.14625 
z
" style="fill: #ffffff"/>
   </g>
   <g id="patch_19">
    <path d="M 385.096882 143.117645 
L 420.144062 143.117645 
L 420.144062 141.28154 
L 385.096882 141.28154 
z
" clip-path="url(#p1f29dc70c9)" style="fill: #808080; fill-opacity: 0.7"/>
   </g>
   <g id="patch_20">
    <path d="M 428.905857 143.117645 
L 463.953038 143.117645 
L 463.953038 140.093472 
L 428.905857 140.093472 
z
" clip-path="url(#p1f29dc70c9)" style="fill: #808080; fill-opacity: 0.7"/>
   </g>
   <g id="patch_21">
    <path d="M 472.714833 143.117645 
L 507.762013 143.117645 
L 507.762013 37.055562 
L 472.714833 37.055562 
z
" clip-path="url(#p1f29dc70c9)" style="fill: #808080; fill-opacity: 0.7"/>
   </g>
   <g id="matplotlib.axis_5">
    <g id="xtick_7">
     <g id="line2d_23">
      <g>
       <use xlink:href="#m54b99e847d" x="402.620472" y="143.117645" style="stroke: #000000; stroke-width: 0.8"/>
      </g>
     </g>
     <g id="text_34">
      <!-- Overtake -->
      <g transform="translate(380.632347 158.450145) scale(0.12 -0.12)">
       <use xlink:href="#TimesNewRomanPSMT-4f"/>
       <use xlink:href="#TimesNewRomanPSMT-76" transform="translate(72.216797 0)"/>
       <use xlink:href="#TimesNewRomanPSMT-65" transform="translate(122.216797 0)"/>
       <use xlink:href="#TimesNewRomanPSMT-72" transform="translate(166.601562 0)"/>
       <use xlink:href="#TimesNewRomanPSMT-74" transform="translate(199.902344 0)"/>
       <use xlink:href="#TimesNewRomanPSMT-61" transform="translate(227.685547 0)"/>
       <use xlink:href="#TimesNewRomanPSMT-6b" transform="translate(272.070312 0)"/>
       <use xlink:href="#TimesNewRomanPSMT-65" transform="translate(322.070312 0)"/>
      </g>
     </g>
    </g>
    <g id="xtick_8">
     <g id="line2d_24">
      <g>
       <use xlink:href="#m54b99e847d" x="446.429447" y="143.117645" style="stroke: #000000; stroke-width: 0.8"/>
      </g>
     </g>
     <g id="text_35">
      <!-- Head-on -->
      <g transform="translate(425.771635 158.450145) scale(0.12 -0.12)">
       <use xlink:href="#TimesNewRomanPSMT-48"/>
       <use xlink:href="#TimesNewRomanPSMT-65" transform="translate(72.216797 0)"/>
       <use xlink:href="#TimesNewRomanPSMT-61" transform="translate(116.601562 0)"/>
       <use xlink:href="#TimesNewRomanPSMT-64" transform="translate(160.986328 0)"/>
       <use xlink:href="#TimesNewRomanPSMT-2d" transform="translate(210.986328 0)"/>
       <use xlink:href="#TimesNewRomanPSMT-6f" transform="translate(244.287109 0)"/>
       <use xlink:href="#TimesNewRomanPSMT-6e" transform="translate(294.287109 0)"/>
      </g>
     </g>
    </g>
    <g id="xtick_9">
     <g id="line2d_25">
      <g>
       <use xlink:href="#m54b99e847d" x="490.238423" y="143.117645" style="stroke: #000000; stroke-width: 0.8"/>
      </g>
     </g>
     <g id="text_36">
      <!-- Crossing -->
      <g transform="translate(468.900923 158.450145) scale(0.12 -0.12)">
       <use xlink:href="#TimesNewRomanPSMT-43"/>
       <use xlink:href="#TimesNewRomanPSMT-72" transform="translate(66.699219 0)"/>
       <use xlink:href="#TimesNewRomanPSMT-6f" transform="translate(100 0)"/>
       <use xlink:href="#TimesNewRomanPSMT-73" transform="translate(150 0)"/>
       <use xlink:href="#TimesNewRomanPSMT-73" transform="translate(188.916016 0)"/>
       <use xlink:href="#TimesNewRomanPSMT-69" transform="translate(227.832031 0)"/>
       <use xlink:href="#TimesNewRomanPSMT-6e" transform="translate(255.615234 0)"/>
       <use xlink:href="#TimesNewRomanPSMT-67" transform="translate(305.615234 0)"/>
      </g>
     </g>
    </g>
   </g>
   <g id="matplotlib.axis_6">
    <g id="ytick_17">
     <g id="line2d_26">
      <g>
       <use xlink:href="#md155bdad64" x="378.963625" y="143.117645" style="stroke: #000000; stroke-width: 0.8"/>
      </g>
     </g>
     <g id="text_37">
      <!-- 0 -->
      <g transform="translate(365.963625 147.283895) scale(0.12 -0.12)">
       <use xlink:href="#TimesNewRomanPSMT-30"/>
      </g>
     </g>
    </g>
    <g id="ytick_18">
     <g id="line2d_27">
      <g>
       <use xlink:href="#md155bdad64" x="378.963625" y="37.055562" style="stroke: #000000; stroke-width: 0.8"/>
      </g>
     </g>
     <g id="text_38">
      <!-- 982 -->
      <g transform="translate(353.963625 41.221812) scale(0.12 -0.12)">
       <use xlink:href="#TimesNewRomanPSMT-39"/>
       <use xlink:href="#TimesNewRomanPSMT-38" transform="translate(50 0)"/>
       <use xlink:href="#TimesNewRomanPSMT-32" transform="translate(100 0)"/>
      </g>
     </g>
    </g>
    <g id="ytick_19">
     <g id="line2d_28">
      <g>
       <use xlink:href="#md155bdad64" x="378.963625" y="143.117645" style="stroke: #000000; stroke-width: 0.8"/>
      </g>
     </g>
     <g id="text_39">
      <!-- 0 -->
      <g transform="translate(365.963625 147.283895) scale(0.12 -0.12)">
       <use xlink:href="#TimesNewRomanPSMT-30"/>
      </g>
     </g>
    </g>
    <g id="ytick_20">
     <g id="line2d_29">
      <g>
       <use xlink:href="#md155bdad64" x="378.963625" y="121.948431" style="stroke: #000000; stroke-width: 0.8"/>
      </g>
     </g>
     <g id="text_40">
      <!-- 196 -->
      <g transform="translate(353.963625 126.114681) scale(0.12 -0.12)">
       <use xlink:href="#TimesNewRomanPSMT-31"/>
       <use xlink:href="#TimesNewRomanPSMT-39" transform="translate(50 0)"/>
       <use xlink:href="#TimesNewRomanPSMT-36" transform="translate(100 0)"/>
      </g>
     </g>
    </g>
    <g id="ytick_21">
     <g id="line2d_30">
      <g>
       <use xlink:href="#md155bdad64" x="378.963625" y="100.671211" style="stroke: #000000; stroke-width: 0.8"/>
      </g>
     </g>
     <g id="text_41">
      <!-- 393 -->
      <g transform="translate(353.963625 104.837461) scale(0.12 -0.12)">
       <use xlink:href="#TimesNewRomanPSMT-33"/>
       <use xlink:href="#TimesNewRomanPSMT-39" transform="translate(50 0)"/>
       <use xlink:href="#TimesNewRomanPSMT-33" transform="translate(100 0)"/>
      </g>
     </g>
    </g>
    <g id="ytick_22">
     <g id="line2d_31">
      <g>
       <use xlink:href="#md155bdad64" x="378.963625" y="79.501997" style="stroke: #000000; stroke-width: 0.8"/>
      </g>
     </g>
     <g id="text_42">
      <!-- 589 -->
      <g transform="translate(353.963625 83.668247) scale(0.12 -0.12)">
       <use xlink:href="#TimesNewRomanPSMT-35"/>
       <use xlink:href="#TimesNewRomanPSMT-38" transform="translate(50 0)"/>
       <use xlink:href="#TimesNewRomanPSMT-39" transform="translate(100 0)"/>
      </g>
     </g>
    </g>
    <g id="ytick_23">
     <g id="line2d_32">
      <g>
       <use xlink:href="#md155bdad64" x="378.963625" y="58.224776" style="stroke: #000000; stroke-width: 0.8"/>
      </g>
     </g>
     <g id="text_43">
      <!-- 786 -->
      <g transform="translate(353.963625 62.391026) scale(0.12 -0.12)">
       <defs>
        <path id="TimesNewRomanPSMT-37" d="M 644 4238 
L 2916 4238 
L 2916 4119 
L 1503 -88 
L 1153 -88 
L 2419 3728 
L 1253 3728 
Q 900 3728 750 3644 
Q 488 3500 328 3200 
L 238 3234 
L 644 4238 
z
" transform="scale(0.015625)"/>
       </defs>
       <use xlink:href="#TimesNewRomanPSMT-37"/>
       <use xlink:href="#TimesNewRomanPSMT-38" transform="translate(50 0)"/>
       <use xlink:href="#TimesNewRomanPSMT-36" transform="translate(100 0)"/>
      </g>
     </g>
    </g>
    <g id="ytick_24">
     <g id="line2d_33">
      <g>
       <use xlink:href="#md155bdad64" x="378.963625" y="37.055562" style="stroke: #000000; stroke-width: 0.8"/>
      </g>
     </g>
     <g id="text_44">
      <!-- 982 -->
      <g transform="translate(353.963625 41.221812) scale(0.12 -0.12)">
       <use xlink:href="#TimesNewRomanPSMT-39"/>
       <use xlink:href="#TimesNewRomanPSMT-38" transform="translate(50 0)"/>
       <use xlink:href="#TimesNewRomanPSMT-32" transform="translate(100 0)"/>
      </g>
     </g>
    </g>
   </g>
   <g id="patch_22">
    <path d="M 378.963625 143.117645 
L 378.963625 21.14625 
" style="fill: none; stroke: #000000; stroke-width: 0.8; stroke-linejoin: miter; stroke-linecap: square"/>
   </g>
   <g id="patch_23">
    <path d="M 513.89527 143.117645 
L 513.89527 21.14625 
" style="fill: none; stroke: #000000; stroke-width: 0.8; stroke-linejoin: miter; stroke-linecap: square"/>
   </g>
   <g id="patch_24">
    <path d="M 378.963625 143.117645 
L 513.89527 143.117645 
" style="fill: none; stroke: #000000; stroke-width: 0.8; stroke-linejoin: miter; stroke-linecap: square"/>
   </g>
   <g id="patch_25">
    <path d="M 378.963625 21.14625 
L 513.89527 21.14625 
" style="fill: none; stroke: #000000; stroke-width: 0.8; stroke-linejoin: miter; stroke-linecap: square"/>
   </g>
   <g id="text_45">
    <!-- 1.7% -->
    <g transform="translate(392.205628 139.105755) scale(0.1 -0.1)">
     <use xlink:href="#TimesNewRomanPSMT-31"/>
     <use xlink:href="#TimesNewRomanPSMT-2e" transform="translate(50 0)"/>
     <use xlink:href="#TimesNewRomanPSMT-37" transform="translate(75 0)"/>
     <use xlink:href="#TimesNewRomanPSMT-25" transform="translate(125 0)"/>
    </g>
   </g>
   <g id="text_46">
    <!-- 2.7% -->
    <g transform="translate(436.014604 137.893926) scale(0.1 -0.1)">
     <use xlink:href="#TimesNewRomanPSMT-32"/>
     <use xlink:href="#TimesNewRomanPSMT-2e" transform="translate(50 0)"/>
     <use xlink:href="#TimesNewRomanPSMT-37" transform="translate(75 0)"/>
     <use xlink:href="#TimesNewRomanPSMT-25" transform="translate(125 0)"/>
    </g>
   </g>
   <g id="text_47">
    <!-- 95.6% -->
    <g transform="translate(477.323579 32.795258) scale(0.1 -0.1)">
     <use xlink:href="#TimesNewRomanPSMT-39"/>
     <use xlink:href="#TimesNewRomanPSMT-35" transform="translate(50 0)"/>
     <use xlink:href="#TimesNewRomanPSMT-2e" transform="translate(100 0)"/>
     <use xlink:href="#TimesNewRomanPSMT-36" transform="translate(125 0)"/>
     <use xlink:href="#TimesNewRomanPSMT-25" transform="translate(175 0)"/>
    </g>
   </g>
   <g id="text_48">
    <!-- total: 1027 -->
    <g transform="translate(421.532494 38.188024) scale(0.11 -0.11)">
     <defs>
      <path id="TimesNewRomanPS-BoldMT-31" d="M 2084 4325 
L 2084 859 
Q 2084 469 2118 361 
Q 2153 253 2262 184 
Q 2372 116 2613 116 
L 2709 116 
L 2709 0 
L 478 0 
L 478 116 
L 591 116 
Q 863 116 978 178 
Q 1094 241 1134 350 
Q 1175 459 1175 859 
L 1175 3056 
Q 1175 3350 1147 3423 
Q 1119 3497 1042 3548 
Q 966 3600 866 3600 
Q 706 3600 478 3500 
L 422 3613 
L 1981 4325 
L 2084 4325 
z
" transform="scale(0.015625)"/>
      <path id="TimesNewRomanPS-BoldMT-32" d="M 2650 0 
L 156 0 
L 156 69 
Q 1303 1434 1548 1906 
Q 1794 2378 1794 2828 
Q 1794 3156 1591 3373 
Q 1388 3591 1094 3591 
Q 613 3591 347 3109 
L 231 3150 
Q 400 3750 744 4037 
Q 1088 4325 1538 4325 
Q 1859 4325 2125 4175 
Q 2391 4025 2541 3764 
Q 2691 3503 2691 3275 
Q 2691 2859 2459 2431 
Q 2144 1853 1081 819 
L 1997 819 
Q 2334 819 2436 847 
Q 2538 875 2603 942 
Q 2669 1009 2775 1225 
L 2888 1225 
L 2650 0 
z
" transform="scale(0.015625)"/>
      <path id="TimesNewRomanPS-BoldMT-37" d="M 1134 -88 
L 2288 3409 
L 1409 3409 
Q 894 3409 634 3275 
Q 453 3181 334 2922 
L 216 2922 
L 522 4238 
L 3047 4238 
L 1625 -88 
L 1134 -88 
z
" transform="scale(0.015625)"/>
     </defs>
     <use xlink:href="#TimesNewRomanPS-BoldMT-74"/>
     <use xlink:href="#TimesNewRomanPS-BoldMT-6f" transform="translate(33.300781 0)"/>
     <use xlink:href="#TimesNewRomanPS-BoldMT-74" transform="translate(83.300781 0)"/>
     <use xlink:href="#TimesNewRomanPS-BoldMT-61" transform="translate(116.601562 0)"/>
     <use xlink:href="#TimesNewRomanPS-BoldMT-6c" transform="translate(166.601562 0)"/>
     <use xlink:href="#TimesNewRomanPS-BoldMT-3a" transform="translate(194.384766 0)"/>
     <use xlink:href="#TimesNewRomanPS-BoldMT-20" transform="translate(227.685547 0)"/>
     <use xlink:href="#TimesNewRomanPS-BoldMT-31" transform="translate(252.685547 0)"/>
     <use xlink:href="#TimesNewRomanPS-BoldMT-30" transform="translate(302.685547 0)"/>
     <use xlink:href="#TimesNewRomanPS-BoldMT-32" transform="translate(352.685547 0)"/>
     <use xlink:href="#TimesNewRomanPS-BoldMT-37" transform="translate(402.685547 0)"/>
    </g>
   </g>
   <g id="text_49">
    <!-- CO -->
    <g transform="translate(437.429447 15.14625) scale(0.12 -0.12)">
     <defs>
      <path id="TimesNewRomanPS-BoldMT-43" d="M 4272 4334 
L 4272 2866 
L 4150 2866 
Q 4013 3441 3638 3747 
Q 3263 4053 2788 4053 
Q 2391 4053 2059 3825 
Q 1728 3597 1575 3228 
Q 1378 2756 1378 2178 
Q 1378 1609 1522 1142 
Q 1666 675 1972 436 
Q 2278 197 2766 197 
Q 3166 197 3498 372 
Q 3831 547 4200 975 
L 4200 609 
Q 3844 238 3458 70 
Q 3072 -97 2556 -97 
Q 1878 -97 1351 175 
Q 825 447 539 956 
Q 253 1466 253 2041 
Q 253 2647 570 3190 
Q 888 3734 1427 4034 
Q 1966 4334 2572 4334 
Q 3019 4334 3516 4141 
Q 3803 4028 3881 4028 
Q 3981 4028 4054 4101 
Q 4128 4175 4150 4334 
L 4272 4334 
z
" transform="scale(0.015625)"/>
      <path id="TimesNewRomanPS-BoldMT-4f" d="M 2472 4297 
Q 3484 4334 4117 3706 
Q 4750 3078 4750 2134 
Q 4750 1328 4278 716 
Q 3653 -97 2513 -97 
Q 1369 -97 744 678 
Q 250 1291 250 2131 
Q 250 3075 892 3704 
Q 1534 4334 2472 4297 
z
M 2509 4097 
Q 1928 4097 1625 3503 
Q 1378 3016 1378 2103 
Q 1378 1019 1759 500 
Q 2025 138 2503 138 
Q 2825 138 3041 294 
Q 3316 494 3469 933 
Q 3622 1372 3622 2078 
Q 3622 2919 3465 3336 
Q 3309 3753 3067 3925 
Q 2825 4097 2509 4097 
z
" transform="scale(0.015625)"/>
     </defs>
     <use xlink:href="#TimesNewRomanPS-BoldMT-43"/>
     <use xlink:href="#TimesNewRomanPS-BoldMT-4f" transform="translate(72.216797 0)"/>
    </g>
   </g>
  </g>
  <g id="axes_4">
   <g id="patch_26">
    <path d="M 556.89575 143.117645 
L 691.827395 143.117645 
L 691.827395 21.14625 
L 556.89575 21.14625 
z
" style="fill: #ffffff"/>
   </g>
   <g id="patch_27">
    <path d="M 563.029007 143.117645 
L 598.076187 143.117645 
L 598.076187 127.092117 
L 563.029007 127.092117 
z
" clip-path="url(#p3c41e42af7)" style="fill: #bf8040; fill-opacity: 0.7"/>
   </g>
   <g id="patch_28">
    <path d="M 606.837982 143.117645 
L 641.885163 143.117645 
L 641.885163 142.87298 
L 606.837982 142.87298 
z
" clip-path="url(#p3c41e42af7)" style="fill: #bf8040; fill-opacity: 0.7"/>
   </g>
   <g id="patch_29">
    <path d="M 650.646958 143.117645 
L 685.694138 143.117645 
L 685.694138 37.055562 
L 650.646958 37.055562 
z
" clip-path="url(#p3c41e42af7)" style="fill: #bf8040; fill-opacity: 0.7"/>
   </g>
   <g id="matplotlib.axis_7">
    <g id="xtick_10">
     <g id="line2d_34">
      <g>
       <use xlink:href="#m54b99e847d" x="580.552597" y="143.117645" style="stroke: #000000; stroke-width: 0.8"/>
      </g>
     </g>
     <g id="text_50">
      <!-- Overtake -->
      <g transform="translate(558.564472 158.450145) scale(0.12 -0.12)">
       <use xlink:href="#TimesNewRomanPSMT-4f"/>
       <use xlink:href="#TimesNewRomanPSMT-76" transform="translate(72.216797 0)"/>
       <use xlink:href="#TimesNewRomanPSMT-65" transform="translate(122.216797 0)"/>
       <use xlink:href="#TimesNewRomanPSMT-72" transform="translate(166.601562 0)"/>
       <use xlink:href="#TimesNewRomanPSMT-74" transform="translate(199.902344 0)"/>
       <use xlink:href="#TimesNewRomanPSMT-61" transform="translate(227.685547 0)"/>
       <use xlink:href="#TimesNewRomanPSMT-6b" transform="translate(272.070312 0)"/>
       <use xlink:href="#TimesNewRomanPSMT-65" transform="translate(322.070312 0)"/>
      </g>
     </g>
    </g>
    <g id="xtick_11">
     <g id="line2d_35">
      <g>
       <use xlink:href="#m54b99e847d" x="624.361572" y="143.117645" style="stroke: #000000; stroke-width: 0.8"/>
      </g>
     </g>
     <g id="text_51">
      <!-- Head-on -->
      <g transform="translate(603.70376 158.450145) scale(0.12 -0.12)">
       <use xlink:href="#TimesNewRomanPSMT-48"/>
       <use xlink:href="#TimesNewRomanPSMT-65" transform="translate(72.216797 0)"/>
       <use xlink:href="#TimesNewRomanPSMT-61" transform="translate(116.601562 0)"/>
       <use xlink:href="#TimesNewRomanPSMT-64" transform="translate(160.986328 0)"/>
       <use xlink:href="#TimesNewRomanPSMT-2d" transform="translate(210.986328 0)"/>
       <use xlink:href="#TimesNewRomanPSMT-6f" transform="translate(244.287109 0)"/>
       <use xlink:href="#TimesNewRomanPSMT-6e" transform="translate(294.287109 0)"/>
      </g>
     </g>
    </g>
    <g id="xtick_12">
     <g id="line2d_36">
      <g>
       <use xlink:href="#m54b99e847d" x="668.170548" y="143.117645" style="stroke: #000000; stroke-width: 0.8"/>
      </g>
     </g>
     <g id="text_52">
      <!-- Crossing -->
      <g transform="translate(646.833048 158.450145) scale(0.12 -0.12)">
       <use xlink:href="#TimesNewRomanPSMT-43"/>
       <use xlink:href="#TimesNewRomanPSMT-72" transform="translate(66.699219 0)"/>
       <use xlink:href="#TimesNewRomanPSMT-6f" transform="translate(100 0)"/>
       <use xlink:href="#TimesNewRomanPSMT-73" transform="translate(150 0)"/>
       <use xlink:href="#TimesNewRomanPSMT-73" transform="translate(188.916016 0)"/>
       <use xlink:href="#TimesNewRomanPSMT-69" transform="translate(227.832031 0)"/>
       <use xlink:href="#TimesNewRomanPSMT-6e" transform="translate(255.615234 0)"/>
       <use xlink:href="#TimesNewRomanPSMT-67" transform="translate(305.615234 0)"/>
      </g>
     </g>
    </g>
   </g>
   <g id="matplotlib.axis_8">
    <g id="ytick_25">
     <g id="line2d_37">
      <g>
       <use xlink:href="#md155bdad64" x="556.89575" y="143.117645" style="stroke: #000000; stroke-width: 0.8"/>
      </g>
     </g>
     <g id="text_53">
      <!-- 0 -->
      <g transform="translate(543.89575 147.283895) scale(0.12 -0.12)">
       <use xlink:href="#TimesNewRomanPSMT-30"/>
      </g>
     </g>
    </g>
    <g id="ytick_26">
     <g id="line2d_38">
      <g>
       <use xlink:href="#md155bdad64" x="556.89575" y="37.056387" style="stroke: #000000; stroke-width: 0.8"/>
      </g>
     </g>
     <g id="text_54">
      <!-- 49377 -->
      <g transform="translate(519.89575 41.222637) scale(0.12 -0.12)">
       <use xlink:href="#TimesNewRomanPSMT-34"/>
       <use xlink:href="#TimesNewRomanPSMT-39" transform="translate(50 0)"/>
       <use xlink:href="#TimesNewRomanPSMT-33" transform="translate(100 0)"/>
       <use xlink:href="#TimesNewRomanPSMT-37" transform="translate(150 0)"/>
       <use xlink:href="#TimesNewRomanPSMT-37" transform="translate(200 0)"/>
      </g>
     </g>
    </g>
    <g id="ytick_27">
     <g id="line2d_39">
      <g>
       <use xlink:href="#md155bdad64" x="556.89575" y="143.117645" style="stroke: #000000; stroke-width: 0.8"/>
      </g>
     </g>
     <g id="text_55">
      <!-- 0 -->
      <g transform="translate(543.89575 147.283895) scale(0.12 -0.12)">
       <use xlink:href="#TimesNewRomanPSMT-30"/>
      </g>
     </g>
    </g>
    <g id="ytick_28">
     <g id="line2d_40">
      <g>
       <use xlink:href="#md155bdad64" x="556.89575" y="121.906253" style="stroke: #000000; stroke-width: 0.8"/>
      </g>
     </g>
     <g id="text_56">
      <!-- 9875 -->
      <g transform="translate(525.89575 126.072503) scale(0.12 -0.12)">
       <use xlink:href="#TimesNewRomanPSMT-39"/>
       <use xlink:href="#TimesNewRomanPSMT-38" transform="translate(50 0)"/>
       <use xlink:href="#TimesNewRomanPSMT-37" transform="translate(100 0)"/>
       <use xlink:href="#TimesNewRomanPSMT-35" transform="translate(150 0)"/>
      </g>
     </g>
    </g>
    <g id="ytick_29">
     <g id="line2d_41">
      <g>
       <use xlink:href="#md155bdad64" x="556.89575" y="100.692712" style="stroke: #000000; stroke-width: 0.8"/>
      </g>
     </g>
     <g id="text_57">
      <!-- 19751 -->
      <g transform="translate(519.89575 104.858962) scale(0.12 -0.12)">
       <use xlink:href="#TimesNewRomanPSMT-31"/>
       <use xlink:href="#TimesNewRomanPSMT-39" transform="translate(50 0)"/>
       <use xlink:href="#TimesNewRomanPSMT-37" transform="translate(100 0)"/>
       <use xlink:href="#TimesNewRomanPSMT-35" transform="translate(150 0)"/>
       <use xlink:href="#TimesNewRomanPSMT-31" transform="translate(200 0)"/>
      </g>
     </g>
    </g>
    <g id="ytick_30">
     <g id="line2d_42">
      <g>
       <use xlink:href="#md155bdad64" x="556.89575" y="79.48132" style="stroke: #000000; stroke-width: 0.8"/>
      </g>
     </g>
     <g id="text_58">
      <!-- 29626 -->
      <g transform="translate(519.89575 83.64757) scale(0.12 -0.12)">
       <use xlink:href="#TimesNewRomanPSMT-32"/>
       <use xlink:href="#TimesNewRomanPSMT-39" transform="translate(50 0)"/>
       <use xlink:href="#TimesNewRomanPSMT-36" transform="translate(100 0)"/>
       <use xlink:href="#TimesNewRomanPSMT-32" transform="translate(150 0)"/>
       <use xlink:href="#TimesNewRomanPSMT-36" transform="translate(200 0)"/>
      </g>
     </g>
    </g>
    <g id="ytick_31">
     <g id="line2d_43">
      <g>
       <use xlink:href="#md155bdad64" x="556.89575" y="58.26778" style="stroke: #000000; stroke-width: 0.8"/>
      </g>
     </g>
     <g id="text_59">
      <!-- 39502 -->
      <g transform="translate(519.89575 62.43403) scale(0.12 -0.12)">
       <use xlink:href="#TimesNewRomanPSMT-33"/>
       <use xlink:href="#TimesNewRomanPSMT-39" transform="translate(50 0)"/>
       <use xlink:href="#TimesNewRomanPSMT-35" transform="translate(100 0)"/>
       <use xlink:href="#TimesNewRomanPSMT-30" transform="translate(150 0)"/>
       <use xlink:href="#TimesNewRomanPSMT-32" transform="translate(200 0)"/>
      </g>
     </g>
    </g>
    <g id="ytick_32">
     <g id="line2d_44">
      <g>
       <use xlink:href="#md155bdad64" x="556.89575" y="37.056387" style="stroke: #000000; stroke-width: 0.8"/>
      </g>
     </g>
     <g id="text_60">
      <!-- 49377 -->
      <g transform="translate(519.89575 41.222637) scale(0.12 -0.12)">
       <use xlink:href="#TimesNewRomanPSMT-34"/>
       <use xlink:href="#TimesNewRomanPSMT-39" transform="translate(50 0)"/>
       <use xlink:href="#TimesNewRomanPSMT-33" transform="translate(100 0)"/>
       <use xlink:href="#TimesNewRomanPSMT-37" transform="translate(150 0)"/>
       <use xlink:href="#TimesNewRomanPSMT-37" transform="translate(200 0)"/>
      </g>
     </g>
    </g>
   </g>
   <g id="patch_30">
    <path d="M 556.89575 143.117645 
L 556.89575 21.14625 
" style="fill: none; stroke: #000000; stroke-width: 0.8; stroke-linejoin: miter; stroke-linecap: square"/>
   </g>
   <g id="patch_31">
    <path d="M 691.827395 143.117645 
L 691.827395 21.14625 
" style="fill: none; stroke: #000000; stroke-width: 0.8; stroke-linejoin: miter; stroke-linecap: square"/>
   </g>
   <g id="patch_32">
    <path d="M 556.89575 143.117645 
L 691.827395 143.117645 
" style="fill: none; stroke: #000000; stroke-width: 0.8; stroke-linejoin: miter; stroke-linecap: square"/>
   </g>
   <g id="patch_33">
    <path d="M 556.89575 21.14625 
L 691.827395 21.14625 
" style="fill: none; stroke: #000000; stroke-width: 0.8; stroke-linejoin: miter; stroke-linecap: square"/>
   </g>
   <g id="text_61">
    <!-- 13.1% -->
    <g transform="translate(567.637753 124.632544) scale(0.1 -0.1)">
     <use xlink:href="#TimesNewRomanPSMT-31"/>
     <use xlink:href="#TimesNewRomanPSMT-33" transform="translate(50 0)"/>
     <use xlink:href="#TimesNewRomanPSMT-2e" transform="translate(100 0)"/>
     <use xlink:href="#TimesNewRomanPSMT-31" transform="translate(125 0)"/>
     <use xlink:href="#TimesNewRomanPSMT-25" transform="translate(175 0)"/>
    </g>
   </g>
   <g id="text_62">
    <!-- 0.2% -->
    <g transform="translate(613.946729 140.729025) scale(0.1 -0.1)">
     <use xlink:href="#TimesNewRomanPSMT-30"/>
     <use xlink:href="#TimesNewRomanPSMT-2e" transform="translate(50 0)"/>
     <use xlink:href="#TimesNewRomanPSMT-32" transform="translate(75 0)"/>
     <use xlink:href="#TimesNewRomanPSMT-25" transform="translate(125 0)"/>
    </g>
   </g>
   <g id="text_63">
    <!-- 86.7% -->
    <g transform="translate(655.255704 32.795258) scale(0.1 -0.1)">
     <use xlink:href="#TimesNewRomanPSMT-38"/>
     <use xlink:href="#TimesNewRomanPSMT-36" transform="translate(50 0)"/>
     <use xlink:href="#TimesNewRomanPSMT-2e" transform="translate(100 0)"/>
     <use xlink:href="#TimesNewRomanPSMT-37" transform="translate(125 0)"/>
     <use xlink:href="#TimesNewRomanPSMT-25" transform="translate(175 0)"/>
    </g>
   </g>
   <g id="text_64">
    <!-- total: 56952 -->
    <g transform="translate(596.714619 38.188024) scale(0.11 -0.11)">
     <defs>
      <path id="TimesNewRomanPS-BoldMT-36" d="M 3006 4325 
L 3006 4238 
Q 2441 4094 2098 3867 
Q 1756 3641 1557 3317 
Q 1359 2994 1250 2516 
Q 1388 2609 1478 2638 
Q 1681 2700 1888 2700 
Q 2363 2700 2680 2354 
Q 2997 2009 2997 1413 
Q 2997 994 2825 644 
Q 2653 294 2337 103 
Q 2022 -88 1663 -88 
Q 1272 -88 940 126 
Q 609 341 423 753 
Q 238 1166 238 1650 
Q 238 2363 580 2977 
Q 922 3591 1551 3955 
Q 2181 4319 3006 4325 
z
M 1209 2263 
Q 1184 1831 1184 1631 
Q 1184 1200 1267 797 
Q 1350 394 1494 231 
Q 1597 116 1738 116 
Q 1881 116 1993 283 
Q 2106 450 2106 963 
Q 2106 1825 1897 2153 
Q 1763 2366 1534 2366 
Q 1409 2366 1209 2263 
z
" transform="scale(0.015625)"/>
     </defs>
     <use xlink:href="#TimesNewRomanPS-BoldMT-74"/>
     <use xlink:href="#TimesNewRomanPS-BoldMT-6f" transform="translate(33.300781 0)"/>
     <use xlink:href="#TimesNewRomanPS-BoldMT-74" transform="translate(83.300781 0)"/>
     <use xlink:href="#TimesNewRomanPS-BoldMT-61" transform="translate(116.601562 0)"/>
     <use xlink:href="#TimesNewRomanPS-BoldMT-6c" transform="translate(166.601562 0)"/>
     <use xlink:href="#TimesNewRomanPS-BoldMT-3a" transform="translate(194.384766 0)"/>
     <use xlink:href="#TimesNewRomanPS-BoldMT-20" transform="translate(227.685547 0)"/>
     <use xlink:href="#TimesNewRomanPS-BoldMT-35" transform="translate(252.685547 0)"/>
     <use xlink:href="#TimesNewRomanPS-BoldMT-36" transform="translate(302.685547 0)"/>
     <use xlink:href="#TimesNewRomanPS-BoldMT-39" transform="translate(352.685547 0)"/>
     <use xlink:href="#TimesNewRomanPS-BoldMT-35" transform="translate(402.685547 0)"/>
     <use xlink:href="#TimesNewRomanPS-BoldMT-32" transform="translate(452.685547 0)"/>
    </g>
   </g>
   <g id="text_65">
    <!-- Zhu -->
    <g transform="translate(613.68626 15.14625) scale(0.12 -0.12)">
     <defs>
      <path id="TimesNewRomanPS-BoldMT-5a" d="M 3906 4238 
L 1416 238 
L 2222 238 
Q 2794 238 3022 309 
Q 3394 422 3662 723 
Q 3931 1025 4034 1531 
L 4156 1531 
L 3984 0 
L 103 0 
L 2597 4006 
L 1969 4006 
Q 1603 4006 1488 3984 
Q 1269 3944 1076 3823 
Q 884 3703 757 3503 
Q 631 3303 559 2997 
L 444 2997 
L 559 4238 
L 3906 4238 
z
" transform="scale(0.015625)"/>
      <path id="TimesNewRomanPS-BoldMT-68" d="M 1409 4238 
L 1409 2547 
Q 1650 2800 1850 2904 
Q 2050 3009 2266 3009 
Q 2541 3009 2736 2853 
Q 2931 2697 2995 2486 
Q 3059 2275 3059 1775 
L 3059 634 
Q 3059 300 3121 217 
Q 3184 134 3375 113 
L 3375 0 
L 1894 0 
L 1894 113 
Q 2050 134 2128 238 
Q 2184 319 2184 634 
L 2184 1938 
Q 2184 2300 2156 2392 
Q 2128 2484 2061 2536 
Q 1994 2588 1909 2588 
Q 1784 2588 1665 2502 
Q 1547 2416 1409 2200 
L 1409 634 
Q 1409 322 1456 244 
Q 1516 138 1700 113 
L 1700 0 
L 219 0 
L 219 113 
Q 403 131 481 231 
Q 534 300 534 634 
L 534 3603 
Q 534 3934 473 4015 
Q 413 4097 219 4122 
L 219 4238 
L 1409 4238 
z
" transform="scale(0.015625)"/>
      <path id="TimesNewRomanPS-BoldMT-75" d="M 3038 2922 
L 3038 634 
Q 3038 300 3100 217 
Q 3163 134 3353 113 
L 3353 0 
L 2163 0 
L 2163 391 
Q 1953 141 1743 26 
Q 1534 -88 1275 -88 
Q 1028 -88 836 64 
Q 644 216 578 419 
Q 513 622 513 1128 
L 513 2288 
Q 513 2619 452 2700 
Q 391 2781 197 2806 
L 197 2922 
L 1388 2922 
L 1388 925 
Q 1388 613 1417 522 
Q 1447 431 1511 384 
Q 1575 338 1659 338 
Q 1772 338 1863 397 
Q 1988 478 2163 725 
L 2163 2288 
Q 2163 2619 2102 2700 
Q 2041 2781 1847 2806 
L 1847 2922 
L 3038 2922 
z
" transform="scale(0.015625)"/>
     </defs>
     <use xlink:href="#TimesNewRomanPS-BoldMT-5a"/>
     <use xlink:href="#TimesNewRomanPS-BoldMT-68" transform="translate(66.699219 0)"/>
     <use xlink:href="#TimesNewRomanPS-BoldMT-75" transform="translate(122.314453 0)"/>
    </g>
   </g>
  </g>
  <g id="axes_5">
   <g id="patch_34">
    <path d="M 710.827875 143.117645 
L 845.75952 143.117645 
L 845.75952 21.14625 
L 710.827875 21.14625 
z
" style="fill: #ffffff"/>
   </g>
   <g id="patch_35">
    <path d="M 716.961132 143.117645 
L 752.008312 143.117645 
L 752.008312 37.055562 
L 716.961132 37.055562 
z
" clip-path="url(#p96a99ef1e1)" style="fill: #ff8000; fill-opacity: 0.7"/>
   </g>
   <g id="patch_36">
    <path d="M 760.770107 143.117645 
L 795.817288 143.117645 
L 795.817288 90.086604 
L 760.770107 90.086604 
z
" clip-path="url(#p96a99ef1e1)" style="fill: #ff8000; fill-opacity: 0.7"/>
   </g>
   <g id="patch_37">
    <path d="M 804.579083 143.117645 
L 839.626263 143.117645 
L 839.626263 37.055562 
L 804.579083 37.055562 
z
" clip-path="url(#p96a99ef1e1)" style="fill: #ff8000; fill-opacity: 0.7"/>
   </g>
   <g id="matplotlib.axis_9">
    <g id="xtick_13">
     <g id="line2d_45">
      <g>
       <use xlink:href="#m54b99e847d" x="734.484722" y="143.117645" style="stroke: #000000; stroke-width: 0.8"/>
      </g>
     </g>
     <g id="text_66">
      <!-- Overtake -->
      <g transform="translate(712.496597 158.450145) scale(0.12 -0.12)">
       <use xlink:href="#TimesNewRomanPSMT-4f"/>
       <use xlink:href="#TimesNewRomanPSMT-76" transform="translate(72.216797 0)"/>
       <use xlink:href="#TimesNewRomanPSMT-65" transform="translate(122.216797 0)"/>
       <use xlink:href="#TimesNewRomanPSMT-72" transform="translate(166.601562 0)"/>
       <use xlink:href="#TimesNewRomanPSMT-74" transform="translate(199.902344 0)"/>
       <use xlink:href="#TimesNewRomanPSMT-61" transform="translate(227.685547 0)"/>
       <use xlink:href="#TimesNewRomanPSMT-6b" transform="translate(272.070312 0)"/>
       <use xlink:href="#TimesNewRomanPSMT-65" transform="translate(322.070312 0)"/>
      </g>
     </g>
    </g>
    <g id="xtick_14">
     <g id="line2d_46">
      <g>
       <use xlink:href="#m54b99e847d" x="778.293698" y="143.117645" style="stroke: #000000; stroke-width: 0.8"/>
      </g>
     </g>
     <g id="text_67">
      <!-- Head-on -->
      <g transform="translate(757.635885 158.450145) scale(0.12 -0.12)">
       <use xlink:href="#TimesNewRomanPSMT-48"/>
       <use xlink:href="#TimesNewRomanPSMT-65" transform="translate(72.216797 0)"/>
       <use xlink:href="#TimesNewRomanPSMT-61" transform="translate(116.601562 0)"/>
       <use xlink:href="#TimesNewRomanPSMT-64" transform="translate(160.986328 0)"/>
       <use xlink:href="#TimesNewRomanPSMT-2d" transform="translate(210.986328 0)"/>
       <use xlink:href="#TimesNewRomanPSMT-6f" transform="translate(244.287109 0)"/>
       <use xlink:href="#TimesNewRomanPSMT-6e" transform="translate(294.287109 0)"/>
      </g>
     </g>
    </g>
    <g id="xtick_15">
     <g id="line2d_47">
      <g>
       <use xlink:href="#m54b99e847d" x="822.102673" y="143.117645" style="stroke: #000000; stroke-width: 0.8"/>
      </g>
     </g>
     <g id="text_68">
      <!-- Crossing -->
      <g transform="translate(800.765173 158.450145) scale(0.12 -0.12)">
       <use xlink:href="#TimesNewRomanPSMT-43"/>
       <use xlink:href="#TimesNewRomanPSMT-72" transform="translate(66.699219 0)"/>
       <use xlink:href="#TimesNewRomanPSMT-6f" transform="translate(100 0)"/>
       <use xlink:href="#TimesNewRomanPSMT-73" transform="translate(150 0)"/>
       <use xlink:href="#TimesNewRomanPSMT-73" transform="translate(188.916016 0)"/>
       <use xlink:href="#TimesNewRomanPSMT-69" transform="translate(227.832031 0)"/>
       <use xlink:href="#TimesNewRomanPSMT-6e" transform="translate(255.615234 0)"/>
       <use xlink:href="#TimesNewRomanPSMT-67" transform="translate(305.615234 0)"/>
      </g>
     </g>
    </g>
   </g>
   <g id="matplotlib.axis_10">
    <g id="ytick_33">
     <g id="line2d_48">
      <g>
       <use xlink:href="#md155bdad64" x="710.827875" y="143.117645" style="stroke: #000000; stroke-width: 0.8"/>
      </g>
     </g>
     <g id="text_69">
      <!-- 0 -->
      <g transform="translate(697.827875 147.283895) scale(0.12 -0.12)">
       <use xlink:href="#TimesNewRomanPSMT-30"/>
      </g>
     </g>
    </g>
    <g id="ytick_34">
     <g id="line2d_49">
      <g>
       <use xlink:href="#md155bdad64" x="710.827875" y="37.055562" style="stroke: #000000; stroke-width: 0.8"/>
      </g>
     </g>
     <g id="text_70">
      <!-- 2 -->
      <g transform="translate(697.827875 41.221812) scale(0.12 -0.12)">
       <use xlink:href="#TimesNewRomanPSMT-32"/>
      </g>
     </g>
    </g>
    <g id="ytick_35">
     <g id="line2d_50">
      <g>
       <use xlink:href="#md155bdad64" x="710.827875" y="143.117645" style="stroke: #000000; stroke-width: 0.8"/>
      </g>
     </g>
     <g id="text_71">
      <!-- 0 -->
      <g transform="translate(697.827875 147.283895) scale(0.12 -0.12)">
       <use xlink:href="#TimesNewRomanPSMT-30"/>
      </g>
     </g>
    </g>
    <g id="ytick_36">
     <g id="line2d_51">
      <g>
       <use xlink:href="#md155bdad64" x="710.827875" y="143.117645" style="stroke: #000000; stroke-width: 0.8"/>
      </g>
     </g>
     <g id="text_72">
      <!-- 0 -->
      <g transform="translate(697.827875 147.283895) scale(0.12 -0.12)">
       <use xlink:href="#TimesNewRomanPSMT-30"/>
      </g>
     </g>
    </g>
    <g id="ytick_37">
     <g id="line2d_52">
      <g>
       <use xlink:href="#md155bdad64" x="710.827875" y="90.086604" style="stroke: #000000; stroke-width: 0.8"/>
      </g>
     </g>
     <g id="text_73">
      <!-- 1 -->
      <g transform="translate(697.827875 94.252854) scale(0.12 -0.12)">
       <use xlink:href="#TimesNewRomanPSMT-31"/>
      </g>
     </g>
    </g>
    <g id="ytick_38">
     <g id="line2d_53">
      <g>
       <use xlink:href="#md155bdad64" x="710.827875" y="90.086604" style="stroke: #000000; stroke-width: 0.8"/>
      </g>
     </g>
     <g id="text_74">
      <!-- 1 -->
      <g transform="translate(697.827875 94.252854) scale(0.12 -0.12)">
       <use xlink:href="#TimesNewRomanPSMT-31"/>
      </g>
     </g>
    </g>
    <g id="ytick_39">
     <g id="line2d_54">
      <g>
       <use xlink:href="#md155bdad64" x="710.827875" y="37.055562" style="stroke: #000000; stroke-width: 0.8"/>
      </g>
     </g>
     <g id="text_75">
      <!-- 2 -->
      <g transform="translate(697.827875 41.221812) scale(0.12 -0.12)">
       <use xlink:href="#TimesNewRomanPSMT-32"/>
      </g>
     </g>
    </g>
    <g id="ytick_40">
     <g id="line2d_55">
      <g>
       <use xlink:href="#md155bdad64" x="710.827875" y="37.055562" style="stroke: #000000; stroke-width: 0.8"/>
      </g>
     </g>
     <g id="text_76">
      <!-- 2 -->
      <g transform="translate(697.827875 41.221812) scale(0.12 -0.12)">
       <use xlink:href="#TimesNewRomanPSMT-32"/>
      </g>
     </g>
    </g>
   </g>
   <g id="patch_38">
    <path d="M 710.827875 143.117645 
L 710.827875 21.14625 
" style="fill: none; stroke: #000000; stroke-width: 0.8; stroke-linejoin: miter; stroke-linecap: square"/>
   </g>
   <g id="patch_39">
    <path d="M 845.75952 143.117645 
L 845.75952 21.14625 
" style="fill: none; stroke: #000000; stroke-width: 0.8; stroke-linejoin: miter; stroke-linecap: square"/>
   </g>
   <g id="patch_40">
    <path d="M 710.827875 143.117645 
L 845.75952 143.117645 
" style="fill: none; stroke: #000000; stroke-width: 0.8; stroke-linejoin: miter; stroke-linecap: square"/>
   </g>
   <g id="patch_41">
    <path d="M 710.827875 21.14625 
L 845.75952 21.14625 
" style="fill: none; stroke: #000000; stroke-width: 0.8; stroke-linejoin: miter; stroke-linecap: square"/>
   </g>
   <g id="text_77">
    <!-- 40.0% -->
    <g transform="translate(721.569878 32.795258) scale(0.1 -0.1)">
     <use xlink:href="#TimesNewRomanPSMT-34"/>
     <use xlink:href="#TimesNewRomanPSMT-30" transform="translate(50 0)"/>
     <use xlink:href="#TimesNewRomanPSMT-2e" transform="translate(100 0)"/>
     <use xlink:href="#TimesNewRomanPSMT-30" transform="translate(125 0)"/>
     <use xlink:href="#TimesNewRomanPSMT-25" transform="translate(175 0)"/>
    </g>
   </g>
   <g id="text_78">
    <!-- 20.0% -->
    <g transform="translate(765.378854 86.88692) scale(0.1 -0.1)">
     <use xlink:href="#TimesNewRomanPSMT-32"/>
     <use xlink:href="#TimesNewRomanPSMT-30" transform="translate(50 0)"/>
     <use xlink:href="#TimesNewRomanPSMT-2e" transform="translate(100 0)"/>
     <use xlink:href="#TimesNewRomanPSMT-30" transform="translate(125 0)"/>
     <use xlink:href="#TimesNewRomanPSMT-25" transform="translate(175 0)"/>
    </g>
   </g>
   <g id="text_79">
    <!-- 40.0% -->
    <g transform="translate(809.187829 32.795258) scale(0.1 -0.1)">
     <use xlink:href="#TimesNewRomanPSMT-34"/>
     <use xlink:href="#TimesNewRomanPSMT-30" transform="translate(50 0)"/>
     <use xlink:href="#TimesNewRomanPSMT-2e" transform="translate(100 0)"/>
     <use xlink:href="#TimesNewRomanPSMT-30" transform="translate(125 0)"/>
     <use xlink:href="#TimesNewRomanPSMT-25" transform="translate(175 0)"/>
    </g>
   </g>
   <g id="text_80">
    <!-- total: 5 -->
    <g transform="translate(761.646744 38.188024) scale(0.11 -0.11)">
     <use xlink:href="#TimesNewRomanPS-BoldMT-74"/>
     <use xlink:href="#TimesNewRomanPS-BoldMT-6f" transform="translate(33.300781 0)"/>
     <use xlink:href="#TimesNewRomanPS-BoldMT-74" transform="translate(83.300781 0)"/>
     <use xlink:href="#TimesNewRomanPS-BoldMT-61" transform="translate(116.601562 0)"/>
     <use xlink:href="#TimesNewRomanPS-BoldMT-6c" transform="translate(166.601562 0)"/>
     <use xlink:href="#TimesNewRomanPS-BoldMT-3a" transform="translate(194.384766 0)"/>
     <use xlink:href="#TimesNewRomanPS-BoldMT-20" transform="translate(227.685547 0)"/>
     <use xlink:href="#TimesNewRomanPS-BoldMT-35" transform="translate(252.685547 0)"/>
    </g>
   </g>
   <g id="text_81">
    <!-- BaseRef -->
    <g transform="translate(757.298385 15.14625) scale(0.12 -0.12)">
     <defs>
      <path id="TimesNewRomanPS-BoldMT-73" d="M 2063 3003 
L 2109 2006 
L 2003 2006 
Q 1813 2450 1608 2612 
Q 1403 2775 1200 2775 
Q 1072 2775 981 2689 
Q 891 2603 891 2491 
Q 891 2406 953 2328 
Q 1053 2200 1512 1889 
Q 1972 1578 2117 1361 
Q 2263 1144 2263 875 
Q 2263 631 2141 397 
Q 2019 163 1797 37 
Q 1575 -88 1306 -88 
Q 1097 -88 747 44 
Q 653 78 619 78 
Q 516 78 447 -78 
L 344 -78 
L 294 972 
L 400 972 
Q 541 559 786 353 
Q 1031 147 1250 147 
Q 1400 147 1495 239 
Q 1591 331 1591 463 
Q 1591 613 1497 722 
Q 1403 831 1078 1053 
Q 600 1384 459 1559 
Q 253 1816 253 2125 
Q 253 2463 486 2736 
Q 719 3009 1159 3009 
Q 1397 3009 1619 2894 
Q 1703 2847 1756 2847 
Q 1813 2847 1847 2870 
Q 1881 2894 1956 3003 
L 2063 3003 
z
" transform="scale(0.015625)"/>
      <path id="TimesNewRomanPS-BoldMT-52" d="M 1700 1931 
L 1700 744 
Q 1700 400 1742 311 
Q 1784 222 1890 169 
Q 1997 116 2288 116 
L 2288 0 
L 119 0 
L 119 116 
Q 413 116 517 170 
Q 622 225 664 312 
Q 706 400 706 744 
L 706 3494 
Q 706 3838 664 3927 
Q 622 4016 515 4069 
Q 409 4122 119 4122 
L 119 4238 
L 2088 4238 
Q 2856 4238 3212 4131 
Q 3569 4025 3794 3739 
Q 4019 3453 4019 3069 
Q 4019 2600 3681 2294 
Q 3466 2100 3078 2003 
L 4097 569 
Q 4297 291 4381 222 
Q 4509 125 4678 116 
L 4678 0 
L 3344 0 
L 1978 1931 
L 1700 1931 
z
M 1700 4009 
L 1700 2153 
L 1878 2153 
Q 2313 2153 2528 2233 
Q 2744 2313 2867 2520 
Q 2991 2728 2991 3063 
Q 2991 3547 2764 3778 
Q 2538 4009 2034 4009 
L 1700 4009 
z
" transform="scale(0.015625)"/>
      <path id="TimesNewRomanPS-BoldMT-66" d="M 1497 2616 
L 1497 588 
Q 1497 294 1559 219 
Q 1659 103 1928 113 
L 1928 0 
L 206 0 
L 206 113 
Q 403 116 486 158 
Q 569 200 600 275 
Q 631 350 631 588 
L 631 2616 
L 206 2616 
L 206 2922 
L 631 2922 
L 631 3138 
L 628 3284 
Q 628 3734 958 4034 
Q 1288 4334 1850 4334 
Q 2234 4334 2420 4190 
Q 2606 4047 2606 3872 
Q 2606 3731 2490 3628 
Q 2375 3525 2184 3525 
Q 2022 3525 1926 3609 
Q 1831 3694 1831 3797 
Q 1831 3825 1850 3913 
Q 1863 3966 1863 4013 
Q 1863 4078 1825 4109 
Q 1775 4156 1703 4156 
Q 1613 4156 1552 4081 
Q 1491 4006 1491 3841 
L 1497 3294 
L 1497 2922 
L 1928 2922 
L 1928 2616 
L 1497 2616 
z
" transform="scale(0.015625)"/>
     </defs>
     <use xlink:href="#TimesNewRomanPS-BoldMT-42"/>
     <use xlink:href="#TimesNewRomanPS-BoldMT-61" transform="translate(66.699219 0)"/>
     <use xlink:href="#TimesNewRomanPS-BoldMT-73" transform="translate(116.699219 0)"/>
     <use xlink:href="#TimesNewRomanPS-BoldMT-65" transform="translate(155.615234 0)"/>
     <use xlink:href="#TimesNewRomanPS-BoldMT-52" transform="translate(200 0)"/>
     <use xlink:href="#TimesNewRomanPS-BoldMT-65" transform="translate(272.216797 0)"/>
     <use xlink:href="#TimesNewRomanPS-BoldMT-66" transform="translate(316.601562 0)"/>
    </g>
   </g>
  </g>
 </g>
 <defs>
  <clipPath id="pab1f7d9db5">
   <rect x="47.099375" y="21.14625" width="134.931645" height="121.971395"/>
  </clipPath>
  <clipPath id="pbfec805c20">
   <rect x="213.0315" y="21.14625" width="134.931645" height="121.971395"/>
  </clipPath>
  <clipPath id="p1f29dc70c9">
   <rect x="378.963625" y="21.14625" width="134.931645" height="121.971395"/>
  </clipPath>
  <clipPath id="p3c41e42af7">
   <rect x="556.89575" y="21.14625" width="134.931645" height="121.971395"/>
  </clipPath>
  <clipPath id="p96a99ef1e1">
   <rect x="710.827875" y="21.14625" width="134.931645" height="121.971395"/>
  </clipPath>
 </defs>
</svg>
