<?xml version="1.0" encoding="UTF-8" standalone="no"?>
<!-- Created with Inkscape (http://www.inkscape.org/) -->

<svg
   width="400.71146mm"
   height="60.192711mm"
   viewBox="0 0 400.71146 60.192711"
   version="1.1"
   id="svg1"
   xmlns:inkscape="http://www.inkscape.org/namespaces/inkscape"
   xmlns:sodipodi="http://sodipodi.sourceforge.net/DTD/sodipodi-0.dtd"
   xmlns:xlink="http://www.w3.org/1999/xlink"
   xmlns="http://www.w3.org/2000/svg"
   xmlns:svg="http://www.w3.org/2000/svg">
  <sodipodi:namedview
     id="namedview1"
     pagecolor="#ffffff"
     bordercolor="#000000"
     borderopacity="0.25"
     inkscape:showpageshadow="2"
     inkscape:pageopacity="0.0"
     inkscape:pagecheckerboard="0"
     inkscape:deskcolor="#d1d1d1"
     inkscape:document-units="mm" />
  <defs
     id="defs1">
    <clipPath
       id="clip0">
      <rect
         x="386"
         y="69"
         width="1529"
         height="229"
         id="rect1" />
    </clipPath>
    <linearGradient
       x1="54.5"
       y1="-3.8193999e-15"
       x2="54.5"
       y2="68"
       gradientUnits="userSpaceOnUse"
       spreadMethod="reflect"
       id="fill1">
      <stop
         offset="0"
         stop-color="#008000"
         id="stop1" />
      <stop
         offset="0.78"
         stop-color="#008000"
         id="stop2" />
      <stop
         offset="0.83"
         stop-color="#FFFFFF"
         id="stop3" />
      <stop
         offset="1"
         stop-color="#FFFFFF"
         id="stop4" />
    </linearGradient>
    <linearGradient
       x1="54.5"
       y1="0"
       x2="54.5"
       y2="69"
       gradientUnits="userSpaceOnUse"
       spreadMethod="reflect"
       id="fill2">
      <stop
         offset="0"
         stop-color="#FF3B3B"
         id="stop5" />
      <stop
         offset="0.78"
         stop-color="#FF3B3B"
         id="stop6" />
      <stop
         offset="0.83"
         stop-color="#FFFFFF"
         id="stop7" />
      <stop
         offset="1"
         stop-color="#FFFFFF"
         id="stop8" />
    </linearGradient>
    <linearGradient
       x1="54.5"
       y1="0"
       x2="54.5"
       y2="69"
       gradientUnits="userSpaceOnUse"
       spreadMethod="reflect"
       id="fill3">
      <stop
         offset="0"
         stop-color="#0000FF"
         id="stop9" />
      <stop
         offset="0.78"
         stop-color="#0000FF"
         id="stop10" />
      <stop
         offset="0.83"
         stop-color="#FFFFFF"
         id="stop11" />
      <stop
         offset="1"
         stop-color="#FFFFFF"
         id="stop12" />
    </linearGradient>
    <linearGradient
       x1="54"
       y1="-3.8193999e-15"
       x2="54"
       y2="68"
       gradientUnits="userSpaceOnUse"
       spreadMethod="reflect"
       id="fill4">
      <stop
         offset="0"
         stop-color="#008000"
         id="stop13" />
      <stop
         offset="0.78"
         stop-color="#008000"
         id="stop14" />
      <stop
         offset="0.83"
         stop-color="#FFFFFF"
         id="stop15" />
      <stop
         offset="1"
         stop-color="#FFFFFF"
         id="stop16" />
    </linearGradient>
    <linearGradient
       x1="54"
       y1="0"
       x2="54"
       y2="69"
       gradientUnits="userSpaceOnUse"
       spreadMethod="reflect"
       id="fill5">
      <stop
         offset="0"
         stop-color="#FF3B3B"
         id="stop17" />
      <stop
         offset="0.78"
         stop-color="#FF3B3B"
         id="stop18" />
      <stop
         offset="0.83"
         stop-color="#FFFFFF"
         id="stop19" />
      <stop
         offset="1"
         stop-color="#FFFFFF"
         id="stop20" />
    </linearGradient>
    <linearGradient
       inkscape:collect="always"
       xlink:href="#fill1"
       id="linearGradient1"
       gradientUnits="userSpaceOnUse"
       x1="54.5"
       y1="-3.8193999e-15"
       x2="54.5"
       y2="68"
       spreadMethod="reflect" />
    <linearGradient
       inkscape:collect="always"
       xlink:href="#fill2"
       id="linearGradient2"
       gradientUnits="userSpaceOnUse"
       x1="54.5"
       y1="0"
       x2="54.5"
       y2="69"
       spreadMethod="reflect" />
    <linearGradient
       inkscape:collect="always"
       xlink:href="#fill3"
       id="linearGradient3"
       gradientUnits="userSpaceOnUse"
       x1="54.5"
       y1="0"
       x2="54.5"
       y2="69"
       spreadMethod="reflect" />
    <linearGradient
       inkscape:collect="always"
       xlink:href="#fill4"
       id="linearGradient4"
       gradientUnits="userSpaceOnUse"
       x1="54"
       y1="-3.8193999e-15"
       x2="54"
       y2="68"
       spreadMethod="reflect" />
    <linearGradient
       inkscape:collect="always"
       xlink:href="#fill5"
       id="linearGradient5"
       gradientUnits="userSpaceOnUse"
       x1="54"
       y1="0"
       x2="54"
       y2="69"
       spreadMethod="reflect" />
    <linearGradient
       inkscape:collect="always"
       xlink:href="#fill3"
       id="linearGradient6"
       gradientUnits="userSpaceOnUse"
       x1="54.5"
       y1="0"
       x2="54.5"
       y2="69"
       spreadMethod="reflect" />
    <linearGradient
       inkscape:collect="always"
       xlink:href="#fill4"
       id="linearGradient7"
       gradientUnits="userSpaceOnUse"
       x1="54"
       y1="-3.8193999e-15"
       x2="54"
       y2="68"
       spreadMethod="reflect" />
    <linearGradient
       inkscape:collect="always"
       xlink:href="#fill5"
       id="linearGradient8"
       gradientUnits="userSpaceOnUse"
       x1="54"
       y1="0"
       x2="54"
       y2="69"
       spreadMethod="reflect" />
    <linearGradient
       inkscape:collect="always"
       xlink:href="#fill3"
       id="linearGradient9"
       gradientUnits="userSpaceOnUse"
       x1="54.5"
       y1="0"
       x2="54.5"
       y2="69"
       spreadMethod="reflect" />
    <linearGradient
       inkscape:collect="always"
       xlink:href="#fill1"
       id="linearGradient10"
       gradientUnits="userSpaceOnUse"
       x1="54.5"
       y1="-3.8193999e-15"
       x2="54.5"
       y2="68"
       spreadMethod="reflect" />
    <linearGradient
       inkscape:collect="always"
       xlink:href="#fill2"
       id="linearGradient11"
       gradientUnits="userSpaceOnUse"
       x1="54.5"
       y1="0"
       x2="54.5"
       y2="69"
       spreadMethod="reflect" />
    <linearGradient
       inkscape:collect="always"
       xlink:href="#fill3"
       id="linearGradient12"
       gradientUnits="userSpaceOnUse"
       x1="54.5"
       y1="0"
       x2="54.5"
       y2="69"
       spreadMethod="reflect" />
  </defs>
  <g
     inkscape:label="Réteg 1"
     inkscape:groupmode="layer"
     id="layer1"
     transform="translate(-19.909892,-65.418226)">
    <g
       clip-path="url(#clip0)"
       transform="matrix(0.26458333,0,0,0.26458333,-85.989587,46.83125)"
       id="g85">
      <rect
         x="779.5"
         y="71.5"
         width="378"
         height="225"
         stroke="#172c51"
         stroke-width="2.5"
         stroke-miterlimit="8"
         fill="#008000"
         fill-opacity="0.180392"
         id="rect48" />
      <rect
         x="1157.5"
         y="71.5"
         width="756"
         height="225"
         stroke="#172c51"
         stroke-width="2.5"
         stroke-miterlimit="8"
         fill="#0000ff"
         fill-opacity="0.180392"
         id="rect49" />
      <rect
         x="401.5"
         y="71.5"
         width="378"
         height="225"
         stroke="#172c51"
         stroke-width="2.5"
         stroke-miterlimit="8"
         fill="#ff3b3b"
         fill-opacity="0.180392"
         id="rect50" />
      <path
         d="M 0,11.3336 C 0,5.0742 5.0742,0 11.3335,0 h 86.333 C 103.926,0 109,5.0742 109,11.3336 V 56.6665 C 109,62.9258 103.926,68 97.6665,68 H 11.3335 C 5.0742,68 0,62.9258 0,56.6665 Z"
         stroke="#000000"
         stroke-width="6.66667"
         stroke-miterlimit="8"
         fill="url(#fill1)"
         fill-rule="evenodd"
         transform="matrix(-1,0,0,1,1494.5,216.5)"
         id="path50"
         style="fill:url(#linearGradient1)" />
      <path
         d="M 0,0 109.843,1.31234e-4"
         stroke="#000000"
         stroke-width="6.66667"
         stroke-miterlimit="8"
         fill="none"
         fill-rule="evenodd"
         transform="matrix(-1,0,0,1,1494.34,270.5)"
         id="path51" />
      <text
         fill="#181f2b"
         font-family="'Times New Roman', 'Times New Roman_MSFontService', sans-serif"
         font-weight="700"
         font-size="30px"
         transform="translate(1416.82,254)"
         id="text52">TS<tspan
   font-size="20px"
   x="36.666599"
   y="7"
   id="tspan51">2</tspan><tspan
   font-style="italic"
   font-weight="400"
   font-size="30px"
   x="-16.244301"
   y="-80"
   id="tspan52">overtaking</tspan></text>
      <path
         d="m 1439.09,217.082 -59.83,-40.182 1.39,-2.075 59.83,40.181 z m -62.4,-33.372 -9.19,-16.21 18.48,2.373 z"
         id="path52" />
      <path
         d="M 0,11.5002 C 0,5.14881 5.14881,0 11.5002,0 H 97.4998 C 103.851,0 109,5.14881 109,11.5002 V 57.4998 C 109,63.8512 103.851,69 97.4998,69 H 11.5002 C 5.14881,69 0,63.8512 0,57.4998 Z"
         stroke="#000000"
         stroke-width="6.66667"
         stroke-miterlimit="8"
         fill="url(#fill2)"
         fill-rule="evenodd"
         transform="matrix(-1,0,0,1,1275.5,217.5)"
         id="path53"
         style="fill:url(#linearGradient2)" />
      <path
         d="M 0,0 108.661,1.31234e-4"
         stroke="#000000"
         stroke-width="6.66667"
         stroke-miterlimit="8"
         fill="none"
         fill-rule="evenodd"
         transform="matrix(-1,0,0,1,1275.16,271.5)"
         id="path54" />
      <text
         fill="#181f2b"
         font-family="'Times New Roman', 'Times New Roman_MSFontService', sans-serif"
         font-weight="700"
         font-size="30px"
         transform="translate(1197.31,255)"
         id="text54">TS<tspan
   font-size="20px"
   x="36.666698"
   y="7"
   id="tspan54">1</tspan></text>
      <path
         d="M 0,11.5002 C 0,5.14881 5.14881,0 11.5002,0 H 97.4998 C 103.851,0 109,5.14881 109,11.5002 V 57.4998 C 109,63.8512 103.851,69 97.4998,69 H 11.5002 C 5.14881,69 0,63.8512 0,57.4998 Z"
         stroke="#000000"
         stroke-width="6.66667"
         stroke-miterlimit="8"
         fill="url(#fill3)"
         fill-rule="evenodd"
         transform="matrix(-1,0,0,1,1384.5,86.5)"
         id="path55"
         style="fill:url(#linearGradient3)" />
      <path
         d="M 0,0 108.661,1.31234e-4"
         stroke="#000000"
         stroke-width="6.66667"
         stroke-miterlimit="8"
         fill="none"
         fill-rule="evenodd"
         transform="matrix(-1,0,0,1,1384.16,140.5)"
         id="path56" />
      <text
         fill="#ffffff"
         font-family="'Times New Roman', 'Times New Roman_MSFontService', sans-serif"
         font-weight="700"
         font-size="30px"
         transform="translate(1308.34,127)"
         id="text56">OS<tspan
   fill="#181f2b"
   font-style="italic"
   font-weight="400"
   font-size="30px"
   x="-139.03101"
   y="45"
   id="tspan56">crossing</tspan></text>
      <path
         d="M 0.53842,-1.1281 93.869,43.4169 92.7922,45.6731 -0.53842,1.1281 Z M 95.4159,36.3064 106.868,51.006 88.237,51.3477 Z"
         transform="matrix(-1,0,0,1,1330.37,155.5)"
         id="path57" />
      <path
         d="M 0,11.3335 C 0,5.07419 5.07418,0 11.3335,0 h 85.333 C 102.926,0 108,5.07419 108,11.3335 v 45.333 C 108,62.9258 102.926,68 96.6665,68 H 11.3335 C 5.07418,68 0,62.9258 0,56.6665 Z"
         stroke="#000000"
         stroke-width="6.66667"
         stroke-miterlimit="8"
         fill="url(#fill4)"
         fill-rule="evenodd"
         transform="matrix(-1,0,0,1,1900.5,216.5)"
         id="path58"
         style="fill:url(#linearGradient4)" />
      <path
         d="M 0,0 109.843,1.31234e-4"
         stroke="#000000"
         stroke-width="6.66667"
         stroke-miterlimit="8"
         fill="none"
         fill-rule="evenodd"
         transform="matrix(-1,0,0,1,1901.34,270.5)"
         id="path59" />
      <text
         fill="#181f2b"
         font-family="'Times New Roman', 'Times New Roman_MSFontService', sans-serif"
         font-weight="700"
         font-size="30px"
         transform="translate(1823.41,254)"
         id="text60">TS<tspan
   font-size="20px"
   x="36.666599"
   y="7"
   id="tspan59">2</tspan><tspan
   font-style="italic"
   font-weight="400"
   font-size="30px"
   x="-29.596399"
   y="-80"
   id="tspan60">crossing</tspan></text>
      <path
         d="m 1737.01,154.357 95.54,42.386 -1.02,2.285 -95.54,-42.385 z m 96.89,35.236 11.85,14.376 -18.61,0.858 z"
         id="path60" />
      <path
         d="M 0,11.5003 C 0,5.14885 5.14885,0 11.5003,0 H 96.4997 C 102.851,0 108,5.14885 108,11.5003 V 57.4997 C 108,63.8512 102.851,69 96.4997,69 H 11.5003 C 5.14885,69 0,63.8512 0,57.4997 Z"
         stroke="#000000"
         stroke-width="6.66667"
         stroke-miterlimit="8"
         fill="url(#fill5)"
         fill-rule="evenodd"
         transform="matrix(-1,0,0,1,1681.5,217.5)"
         id="path61"
         style="fill:url(#linearGradient5)" />
      <path
         d="M 0,0 108.661,1.31234e-4"
         stroke="#000000"
         stroke-width="6.66667"
         stroke-miterlimit="8"
         fill="none"
         fill-rule="evenodd"
         transform="matrix(-1,0,0,1,1682.16,271.5)"
         id="path62" />
      <text
         fill="#181f2b"
         font-family="'Times New Roman', 'Times New Roman_MSFontService', sans-serif"
         font-weight="700"
         font-size="30px"
         transform="translate(1603.9,255)"
         id="text62">TS<tspan
   font-size="20px"
   x="36.666698"
   y="7"
   id="tspan62">1</tspan></text>
      <path
         d="M 0,11.5002 C 0,5.14881 5.14881,0 11.5002,0 H 97.4998 C 103.851,0 109,5.14881 109,11.5002 V 57.4998 C 109,63.8512 103.851,69 97.4998,69 H 11.5002 C 5.14881,69 0,63.8512 0,57.4998 Z"
         stroke="#000000"
         stroke-width="6.66667"
         stroke-miterlimit="8"
         fill="url(#fill6)"
         fill-rule="evenodd"
         transform="matrix(-1,0,0,1,1791.5,86.5)"
         id="path63"
         style="fill:url(#linearGradient6)" />
      <path
         d="M 0,0 108.661,1.31234e-4"
         stroke="#000000"
         stroke-width="6.66667"
         stroke-miterlimit="8"
         fill="none"
         fill-rule="evenodd"
         transform="matrix(-1,0,0,1,1791.16,141.5)"
         id="path64" />
      <text
         fill="#ffffff"
         font-family="'Times New Roman', 'Times New Roman_MSFontService', sans-serif"
         font-weight="700"
         font-size="30px"
         transform="translate(1714.93,127)"
         id="text64">OS<tspan
   fill="#181f2b"
   font-style="italic"
   font-weight="400"
   font-size="30px"
   x="-170.30099"
   y="47"
   id="tspan64">overtaking</tspan></text>
      <path
         d="M 0.732084,-1.01319 59.1651,41.2078 57.701,43.2342 -0.732084,1.01319 Z M 61.9627,34.4903 70.5913,51.006 52.2016,47.9995 Z"
         transform="matrix(1,0,0,-1,1627.5,217.506)"
         id="path65" />
      <path
         d="M 0,11.3335 C 0,5.07419 5.07418,0 11.3335,0 h 85.333 C 102.926,0 108,5.07419 108,11.3335 v 45.333 C 108,62.9258 102.926,68 96.6665,68 H 11.3335 C 5.07418,68 0,62.9258 0,56.6665 Z"
         stroke="#000000"
         stroke-width="6.66667"
         stroke-miterlimit="8"
         fill="url(#fill7)"
         fill-rule="evenodd"
         transform="matrix(-1,0,0,1,746.5,215.5)"
         id="path66"
         style="fill:url(#linearGradient7)" />
      <path
         d="M 0,0 109.843,1.31234e-4"
         stroke="#000000"
         stroke-width="6.66667"
         stroke-miterlimit="8"
         fill="none"
         fill-rule="evenodd"
         transform="matrix(-1,0,0,1,747.343,269.5)"
         id="path67" />
      <text
         fill="#181f2b"
         font-family="'Times New Roman', 'Times New Roman_MSFontService', sans-serif"
         font-weight="700"
         font-size="30px"
         transform="translate(669.371,253)"
         id="text68">TS<tspan
   font-size="20px"
   x="36.666698"
   y="7"
   id="tspan67">2</tspan><tspan
   font-style="italic"
   font-weight="400"
   font-size="30px"
   x="-28.198099"
   y="-81"
   id="tspan68">overtaking</tspan></text>
      <path
         d="m 586.053,152.379 89.952,44.413 -1.107,2.241 -89.951,-44.412 z m 91.594,37.323 11.255,14.851 -18.634,0.094 z"
         id="path68" />
      <path
         d="M 0,11.5003 C 0,5.14885 5.14885,0 11.5003,0 H 96.4997 C 102.851,0 108,5.14885 108,11.5003 V 57.4997 C 108,63.8512 102.851,69 96.4997,69 H 11.5003 C 5.14885,69 0,63.8512 0,57.4997 Z"
         stroke="#000000"
         stroke-width="6.66667"
         stroke-miterlimit="8"
         fill="url(#fill8)"
         fill-rule="evenodd"
         transform="matrix(-1,0,0,1,527.5,216.5)"
         id="path69"
         style="fill:url(#linearGradient8)" />
      <path
         d="M 0,0 108.661,1.31234e-4"
         stroke="#000000"
         stroke-width="6.66667"
         stroke-miterlimit="8"
         fill="none"
         fill-rule="evenodd"
         transform="matrix(-1,0,0,1,528.161,270.5)"
         id="path70" />
      <text
         fill="#181f2b"
         font-family="'Times New Roman', 'Times New Roman_MSFontService', sans-serif"
         font-weight="700"
         font-size="30px"
         transform="translate(449.86,254)"
         id="text70">TS<tspan
   font-size="20px"
   x="36.666698"
   y="7"
   id="tspan70">1</tspan></text>
      <path
         d="M 0,11.5002 C 0,5.14881 5.14881,0 11.5002,0 H 97.4998 C 103.851,0 109,5.14881 109,11.5002 V 57.4998 C 109,63.8512 103.851,69 97.4998,69 H 11.5002 C 5.14881,69 0,63.8512 0,57.4998 Z"
         stroke="#000000"
         stroke-width="6.66667"
         stroke-miterlimit="8"
         fill="url(#fill9)"
         fill-rule="evenodd"
         transform="matrix(-1,0,0,1,637.5,85.5)"
         id="path71"
         style="fill:url(#linearGradient9)" />
      <path
         d="M 0,0 108.661,1.31234e-4"
         stroke="#000000"
         stroke-width="6.66667"
         stroke-miterlimit="8"
         fill="none"
         fill-rule="evenodd"
         transform="matrix(-1,0,0,1,637.161,139.5)"
         id="path72" />
      <text
         fill="#ffffff"
         font-family="'Times New Roman', 'Times New Roman_MSFontService', sans-serif"
         font-weight="700"
         font-size="30px"
         transform="translate(560.885,126)"
         id="text72">OS<tspan
   fill="#181f2b"
   font-style="italic"
   font-weight="400"
   font-size="30px"
   x="-148.97"
   y="46"
   id="tspan72">crossing</tspan></text>
      <path
         d="M 0.69022,-1.04216 58.8176,37.4555 57.4372,39.5398 -0.69022,1.04216 Z M 61.3393,30.6297 70.6333,46.7803 52.1364,44.5251 Z"
         transform="matrix(1,0,0,-1,466.5,214.28)"
         id="path73" />
      <path
         d="M 0,11.3336 C 0,5.0742 5.0742,0 11.3335,0 h 86.333 C 103.926,0 109,5.0742 109,11.3336 V 56.6665 C 109,62.9258 103.926,68 97.6665,68 H 11.3335 C 5.0742,68 0,62.9258 0,56.6665 Z"
         stroke="#000000"
         stroke-width="6.66667"
         stroke-miterlimit="8"
         fill="url(#fill10)"
         fill-rule="evenodd"
         transform="matrix(-1,0,0,1,1130.5,215.5)"
         id="path74"
         style="fill:url(#linearGradient10)" />
      <path
         d="M 0,0 109.843,1.31234e-4"
         stroke="#000000"
         stroke-width="6.66667"
         stroke-miterlimit="8"
         fill="none"
         fill-rule="evenodd"
         transform="matrix(-1,0,0,1,1130.34,269.5)"
         id="path75" />
      <text
         fill="#181f2b"
         font-family="'Times New Roman', 'Times New Roman_MSFontService', sans-serif"
         font-weight="700"
         font-size="30px"
         transform="translate(1052.81,253)"
         id="text76">TS<tspan
   font-size="20px"
   x="36.666599"
   y="7"
   id="tspan75">2</tspan><tspan
   font-style="italic"
   font-weight="400"
   font-size="30px"
   x="-12.266"
   y="-80"
   id="tspan76">crossing</tspan></text>
      <path
         d="m 970.045,152.375 88.095,42.7 -1.09,2.25 -88.095,-42.7 z m 89.685,35.599 11.36,14.768 -18.63,0.23 z"
         id="path76" />
      <path
         d="M 0,11.5002 C 0,5.14881 5.14881,0 11.5002,0 H 97.4998 C 103.851,0 109,5.14881 109,11.5002 V 57.4998 C 109,63.8512 103.851,69 97.4998,69 H 11.5002 C 5.14881,69 0,63.8512 0,57.4998 Z"
         stroke="#000000"
         stroke-width="6.66667"
         stroke-miterlimit="8"
         fill="url(#fill11)"
         fill-rule="evenodd"
         transform="matrix(-1,0,0,1,911.5,216.5)"
         id="path77"
         style="fill:url(#linearGradient11)" />
      <path
         d="M 0,0 108.661,1.31234e-4"
         stroke="#000000"
         stroke-width="6.66667"
         stroke-miterlimit="8"
         fill="none"
         fill-rule="evenodd"
         transform="matrix(-1,0,0,1,911.161,270.5)"
         id="path78" />
      <text
         fill="#181f2b"
         font-family="'Times New Roman', 'Times New Roman_MSFontService', sans-serif"
         font-weight="700"
         font-size="30px"
         transform="translate(833.297,254)"
         id="text78">TS<tspan
   font-size="20px"
   x="36.666698"
   y="7"
   id="tspan78">1</tspan></text>
      <path
         d="M 0,11.5002 C 0,5.14881 5.14881,0 11.5002,0 H 97.4998 C 103.851,0 109,5.14881 109,11.5002 V 57.4998 C 109,63.8512 103.851,69 97.4998,69 H 11.5002 C 5.14881,69 0,63.8512 0,57.4998 Z"
         stroke="#000000"
         stroke-width="6.66667"
         stroke-miterlimit="8"
         fill="url(#fill12)"
         fill-rule="evenodd"
         transform="matrix(-1,0,0,1,1020.5,85.5)"
         id="path79"
         style="fill:url(#linearGradient12)" />
      <path
         d="M 0,0 108.661,1.31234e-4"
         stroke="#000000"
         stroke-width="6.66667"
         stroke-miterlimit="8"
         fill="none"
         fill-rule="evenodd"
         transform="matrix(-1,0,0,1,1020.16,139.5)"
         id="path80" />
      <text
         fill="#ffffff"
         font-family="'Times New Roman', 'Times New Roman_MSFontService', sans-serif"
         font-weight="700"
         font-size="30px"
         transform="translate(944.322,126)"
         id="text80">OS<tspan
   fill="#181f2b"
   font-style="italic"
   font-weight="400"
   font-size="30px"
   x="-144.51199"
   y="45"
   id="tspan80">crossing</tspan></text>
      <path
         d="M 0.654821,-1.06476 63.9445,37.8581 62.6349,39.9876 -0.654821,1.06476 Z M 66.2355,30.9514 76.0668,46.7807 57.5046,45.1482 Z"
         transform="matrix(1,0,0,-1,853.5,216.281)"
         id="path81" />
      <text
         font-family="Calibri, Calibri_MSFontService, sans-serif"
         font-weight="700"
         font-size="27px"
         transform="translate(1170.63,104)"
         id="text85">Shape<tspan
   font-size="27px"
   x="73.958397"
   y="0"
   id="tspan81">3</tspan><tspan
   font-size="27px"
   x="-756.82599"
   y="-1"
   id="tspan82">Shape</tspan><tspan
   font-size="27px"
   x="-682.86798"
   y="-1"
   id="tspan83">1</tspan><tspan
   font-size="27px"
   x="-378.76501"
   y="-1"
   id="tspan84">Shape</tspan><tspan
   font-size="27px"
   x="-304.80701"
   y="-1"
   id="tspan85">2</tspan></text>
    </g>
  </g>
</svg>
