<?xml version="1.0" encoding="utf-8" standalone="no"?>
<!DOCTYPE svg PUBLIC "-//W3C//DTD SVG 1.1//EN"
  "http://www.w3.org/Graphics/SVG/1.1/DTD/svg11.dtd">
<svg xmlns:xlink="http://www.w3.org/1999/xlink" width="420.181094pt" height="204.112125pt" viewBox="0 0 420.181094 204.112125" xmlns="http://www.w3.org/2000/svg" version="1.1">
 <metadata>
  <rdf:RDF xmlns:dc="http://purl.org/dc/elements/1.1/" xmlns:cc="http://creativecommons.org/ns#" xmlns:rdf="http://www.w3.org/1999/02/22-rdf-syntax-ns#">
   <cc:Work>
    <dc:type rdf:resource="http://purl.org/dc/dcmitype/StillImage"/>
    <dc:date>2024-10-29T17:10:42.753563</dc:date>
    <dc:format>image/svg+xml</dc:format>
    <dc:creator>
     <cc:Agent>
      <dc:title>Matplotlib v3.9.0, https://matplotlib.org/</dc:title>
     </cc:Agent>
    </dc:creator>
   </cc:Work>
  </rdf:RDF>
 </metadata>
 <defs>
  <style type="text/css">*{stroke-linejoin: round; stroke-linecap: butt}</style>
 </defs>
 <g id="figure_1">
  <g id="patch_1">
   <path d="M 0 204.112125 
L 420.181094 204.112125 
L 420.181094 0 
L 0 0 
z
" style="fill: #ffffff"/>
  </g>
  <g id="axes_1">
   <g id="patch_2">
    <path d="M 52.191094 179.399 
L 123.241269 179.399 
L 123.241269 23.199 
L 52.191094 23.199 
z
" style="fill: #ffffff"/>
   </g>
   <g id="PolyCollection_1">
    <path d="M 78.654926 163.327845 
L 58.78269 163.327845 
L 56.795417 153.045572 
L 55.596122 142.763299 
L 55.420647 132.481026 
L 56.240625 122.198753 
L 57.79001 111.91648 
L 59.68602 101.634207 
L 61.573163 91.351933 
L 63.219216 81.06966 
L 64.534806 70.787387 
L 65.535435 60.505114 
L 66.285123 50.222841 
L 66.852193 39.940568 
L 67.287711 29.658295 
L 67.622449 19.376022 
L 67.873539 9.093749 
L 68.05322 -1.188524 
L 68.174994 -11.470797 
L 68.25531 -21.75307 
L 68.31146 -32.035343 
L 68.358036 -42.317616 
L 68.404368 -52.599889 
L 68.454049 -62.882162 
L 68.506203 -73.164436 
L 68.557454 -83.446709 
L 68.60378 -93.728982 
L 68.64183 -104.011255 
L 68.669602 -114.293528 
L 68.686447 -124.575801 
L 68.692643 -134.858074 
L 68.688925 -145.140347 
L 68.676429 -155.42262 
L 68.65711 -165.704893 
L 68.634227 -175.987166 
L 68.61224 -186.269439 
L 68.595751 -196.551712 
L 68.587842 -206.833985 
L 68.588817 -217.116258 
L 68.596282 -227.398531 
L 68.606654 -237.680805 
L 68.617151 -247.963078 
L 68.626941 -258.245351 
L 68.636767 -268.527624 
L 68.647521 -278.809897 
L 68.658897 -289.09217 
L 68.66909 -299.374443 
L 68.675631 -309.656716 
L 68.676753 -319.938989 
L 68.672455 -330.221262 
L 68.664715 -340.503535 
L 68.656698 -350.785808 
L 68.651323 -361.068081 
L 68.649872 -371.350354 
L 68.651454 -381.632627 
L 68.653703 -391.9149 
L 68.654355 -402.197174 
L 68.652715 -412.479447 
L 68.650047 -422.76172 
L 68.64863 -433.043993 
L 68.65011 -443.326266 
L 68.654271 -453.608539 
L 68.659065 -463.890812 
L 68.661872 -474.173085 
L 68.661183 -484.455358 
L 68.657639 -494.737631 
L 68.653794 -505.019904 
L 68.652766 -515.302177 
L 68.656612 -525.58445 
L 68.665371 -535.866723 
L 68.677243 -546.148996 
L 68.68964 -556.431269 
L 68.700371 -566.713543 
L 68.708318 -576.995816 
L 68.713438 -587.278089 
L 68.716334 -597.560362 
L 68.717783 -607.842635 
L 68.718426 -618.124908 
L 68.71868 -628.407181 
L 68.71877 -638.689454 
L 68.718798 -648.971727 
L 68.718806 -659.254 
L 68.718808 -669.536273 
L 68.718808 -679.818546 
L 68.718808 -690.100819 
L 68.718808 -700.383092 
L 68.718806 -710.665365 
L 68.7188 -720.947638 
L 68.718777 -731.229912 
L 68.718703 -741.512185 
L 68.718489 -751.794458 
L 68.717936 -762.076731 
L 68.716665 -772.359004 
L 68.714071 -782.641277 
L 68.709388 -792.92355 
L 68.701956 -803.205823 
L 68.691685 -813.488096 
L 68.679536 -823.770369 
L 68.667651 -834.052642 
L 68.658857 -844.334915 
L 68.655602 -854.617188 
L 68.782015 -854.617188 
L 68.782015 -854.617188 
L 68.778759 -844.334915 
L 68.769965 -834.052642 
L 68.758081 -823.770369 
L 68.745931 -813.488096 
L 68.735661 -803.205823 
L 68.728228 -792.92355 
L 68.723546 -782.641277 
L 68.720951 -772.359004 
L 68.719681 -762.076731 
L 68.719128 -751.794458 
L 68.718913 -741.512185 
L 68.718839 -731.229912 
L 68.718817 -720.947638 
L 68.71881 -710.665365 
L 68.718809 -700.383092 
L 68.718808 -690.100819 
L 68.718808 -679.818546 
L 68.718809 -669.536273 
L 68.718811 -659.254 
L 68.718819 -648.971727 
L 68.718847 -638.689454 
L 68.718937 -628.407181 
L 68.719191 -618.124908 
L 68.719834 -607.842635 
L 68.721282 -597.560362 
L 68.724179 -587.278089 
L 68.729298 -576.995816 
L 68.737245 -566.713543 
L 68.747976 -556.431269 
L 68.760374 -546.148996 
L 68.772246 -535.866723 
L 68.781005 -525.58445 
L 68.784851 -515.302177 
L 68.783823 -505.019904 
L 68.779977 -494.737631 
L 68.776433 -484.455358 
L 68.775745 -474.173085 
L 68.778552 -463.890812 
L 68.783346 -453.608539 
L 68.787507 -443.326266 
L 68.788986 -433.043993 
L 68.78757 -422.76172 
L 68.784902 -412.479447 
L 68.783261 -402.197174 
L 68.783913 -391.9149 
L 68.786163 -381.632627 
L 68.787745 -371.350354 
L 68.786294 -361.068081 
L 68.780919 -350.785808 
L 68.772902 -340.503535 
L 68.765161 -330.221262 
L 68.760864 -319.938989 
L 68.761985 -309.656716 
L 68.768526 -299.374443 
L 68.778719 -289.09217 
L 68.790096 -278.809897 
L 68.800849 -268.527624 
L 68.810676 -258.245351 
L 68.820465 -247.963078 
L 68.830963 -237.680805 
L 68.841335 -227.398531 
L 68.8488 -217.116258 
L 68.849775 -206.833985 
L 68.841866 -196.551712 
L 68.825377 -186.269439 
L 68.80339 -175.987166 
L 68.780506 -165.704893 
L 68.761187 -155.42262 
L 68.748692 -145.140347 
L 68.744974 -134.858074 
L 68.751169 -124.575801 
L 68.768015 -114.293528 
L 68.795786 -104.011255 
L 68.833837 -93.728982 
L 68.880162 -83.446709 
L 68.931414 -73.164436 
L 68.983567 -62.882162 
L 69.033248 -52.599889 
L 69.07958 -42.317616 
L 69.126157 -32.035343 
L 69.182307 -21.75307 
L 69.262623 -11.470797 
L 69.384397 -1.188524 
L 69.564077 9.093749 
L 69.815167 19.376022 
L 70.149906 29.658295 
L 70.585423 39.940568 
L 71.152493 50.222841 
L 71.902181 60.505114 
L 72.90281 70.787387 
L 74.2184 81.06966 
L 75.864453 91.351933 
L 77.751597 101.634207 
L 79.647606 111.91648 
L 81.196992 122.198753 
L 82.016969 132.481026 
L 81.841495 142.763299 
L 80.6422 153.045572 
L 78.654926 163.327845 
z
" clip-path="url(#p10e452c7de)" style="fill: #0080ff; fill-opacity: 0.3"/>
   </g>
   <g id="PolyCollection_2">
    <path d="M 120.011715 166.656037 
L 93.415393 166.656037 
L 93.935859 57.204376 
L 97.420823 -52.247286 
L 101.574256 -161.698947 
L 104.534674 -271.150608 
L 105.995828 -380.60227 
L 106.526056 -490.053931 
L 106.673665 -599.505593 
L 106.706472 -708.957254 
L 106.712495 -818.408915 
L 106.713422 -927.860577 
L 106.713541 -1037.312238 
L 106.713553 -1146.763899 
L 106.713554 -1256.215561 
L 106.713554 -1365.667222 
L 106.713554 -1475.118884 
L 106.713554 -1584.570545 
L 106.713554 -1694.022206 
L 106.713554 -1803.473868 
L 106.713554 -1912.925529 
L 106.713554 -2022.377191 
L 106.713554 -2131.828852 
L 106.713554 -2241.280513 
L 106.713554 -2350.732175 
L 106.713554 -2460.183836 
L 106.713554 -2569.635497 
L 106.713554 -2679.087159 
L 106.713554 -2788.53882 
L 106.713554 -2897.990482 
L 106.713554 -3007.442143 
L 106.713554 -3116.893804 
L 106.713554 -3226.345466 
L 106.713554 -3335.797127 
L 106.713554 -3445.248788 
L 106.713554 -3554.70045 
L 106.713554 -3664.152111 
L 106.713554 -3773.603773 
L 106.713554 -3883.055434 
L 106.713554 -3992.507095 
L 106.713554 -4101.958757 
L 106.713554 -4211.410418 
L 106.713554 -4320.86208 
L 106.713554 -4430.313741 
L 106.713554 -4539.765402 
L 106.713554 -4649.217064 
L 106.713554 -4758.668725 
L 106.713554 -4868.120386 
L 106.713554 -4977.572048 
L 106.713554 -5087.023709 
L 106.713554 -5196.475371 
L 106.713554 -5305.927032 
L 106.713554 -5415.378693 
L 106.713554 -5524.830355 
L 106.713554 -5634.282016 
L 106.713554 -5743.733678 
L 106.713554 -5853.185339 
L 106.713554 -5962.637 
L 106.713554 -6072.088662 
L 106.713554 -6181.540323 
L 106.713554 -6290.991984 
L 106.713554 -6400.443646 
L 106.713554 -6509.895307 
L 106.713554 -6619.346969 
L 106.713554 -6728.79863 
L 106.713554 -6838.250291 
L 106.713554 -6947.701953 
L 106.713554 -7057.153614 
L 106.713554 -7166.605275 
L 106.713554 -7276.056937 
L 106.713554 -7385.508598 
L 106.713554 -7494.96026 
L 106.713554 -7604.411921 
L 106.713554 -7713.863582 
L 106.713554 -7823.315244 
L 106.713554 -7932.766905 
L 106.713554 -8042.218567 
L 106.713554 -8151.670228 
L 106.713554 -8261.121889 
L 106.713554 -8370.573551 
L 106.713554 -8480.025212 
L 106.713554 -8589.476873 
L 106.713554 -8698.928535 
L 106.713554 -8808.380196 
L 106.713554 -8917.831858 
L 106.713554 -9027.283519 
L 106.713554 -9136.73518 
L 106.713554 -9246.186842 
L 106.713554 -9355.638503 
L 106.713554 -9465.090164 
L 106.713554 -9574.541826 
L 106.713554 -9683.993487 
L 106.71355 -9793.445149 
L 106.713514 -9902.89681 
L 106.713289 -10012.348471 
L 106.712262 -10121.800133 
L 106.708826 -10231.251794 
L 106.700587 -10340.703456 
L 106.686899 -10450.155117 
L 106.672481 -10559.606778 
L 106.666114 -10669.05844 
L 106.760994 -10669.05844 
L 106.760994 -10669.05844 
L 106.754627 -10559.606778 
L 106.74021 -10450.155117 
L 106.726521 -10340.703456 
L 106.718283 -10231.251794 
L 106.714847 -10121.800133 
L 106.713819 -10012.348471 
L 106.713595 -9902.89681 
L 106.713559 -9793.445149 
L 106.713555 -9683.993487 
L 106.713554 -9574.541826 
L 106.713554 -9465.090164 
L 106.713554 -9355.638503 
L 106.713554 -9246.186842 
L 106.713554 -9136.73518 
L 106.713554 -9027.283519 
L 106.713554 -8917.831858 
L 106.713554 -8808.380196 
L 106.713554 -8698.928535 
L 106.713554 -8589.476873 
L 106.713554 -8480.025212 
L 106.713554 -8370.573551 
L 106.713554 -8261.121889 
L 106.713554 -8151.670228 
L 106.713554 -8042.218567 
L 106.713554 -7932.766905 
L 106.713554 -7823.315244 
L 106.713554 -7713.863582 
L 106.713554 -7604.411921 
L 106.713554 -7494.96026 
L 106.713554 -7385.508598 
L 106.713554 -7276.056937 
L 106.713554 -7166.605275 
L 106.713554 -7057.153614 
L 106.713554 -6947.701953 
L 106.713554 -6838.250291 
L 106.713554 -6728.79863 
L 106.713554 -6619.346969 
L 106.713554 -6509.895307 
L 106.713554 -6400.443646 
L 106.713554 -6290.991984 
L 106.713554 -6181.540323 
L 106.713554 -6072.088662 
L 106.713554 -5962.637 
L 106.713554 -5853.185339 
L 106.713554 -5743.733678 
L 106.713554 -5634.282016 
L 106.713554 -5524.830355 
L 106.713554 -5415.378693 
L 106.713554 -5305.927032 
L 106.713554 -5196.475371 
L 106.713554 -5087.023709 
L 106.713554 -4977.572048 
L 106.713554 -4868.120386 
L 106.713554 -4758.668725 
L 106.713554 -4649.217064 
L 106.713554 -4539.765402 
L 106.713554 -4430.313741 
L 106.713554 -4320.86208 
L 106.713554 -4211.410418 
L 106.713554 -4101.958757 
L 106.713554 -3992.507095 
L 106.713554 -3883.055434 
L 106.713554 -3773.603773 
L 106.713554 -3664.152111 
L 106.713554 -3554.70045 
L 106.713554 -3445.248788 
L 106.713554 -3335.797127 
L 106.713554 -3226.345466 
L 106.713554 -3116.893804 
L 106.713554 -3007.442143 
L 106.713554 -2897.990482 
L 106.713554 -2788.53882 
L 106.713554 -2679.087159 
L 106.713554 -2569.635497 
L 106.713554 -2460.183836 
L 106.713554 -2350.732175 
L 106.713554 -2241.280513 
L 106.713554 -2131.828852 
L 106.713554 -2022.377191 
L 106.713554 -1912.925529 
L 106.713554 -1803.473868 
L 106.713554 -1694.022206 
L 106.713554 -1584.570545 
L 106.713554 -1475.118884 
L 106.713554 -1365.667222 
L 106.713554 -1256.215561 
L 106.713555 -1146.763899 
L 106.713568 -1037.312238 
L 106.713686 -927.860577 
L 106.714614 -818.408915 
L 106.720637 -708.957254 
L 106.753443 -599.505593 
L 106.901053 -490.053931 
L 107.43128 -380.60227 
L 108.892435 -271.150608 
L 111.852853 -161.698947 
L 116.006285 -52.247286 
L 119.491249 57.204376 
L 120.011715 166.656037 
z
" clip-path="url(#p10e452c7de)" style="fill: #ff8000; fill-opacity: 0.3"/>
   </g>
   <g id="matplotlib.axis_1">
    <g id="xtick_1">
     <g id="line2d_1">
      <defs>
       <path id="m2b1417d1fd" d="M 0 0 
L 0 3.5 
" style="stroke: #000000; stroke-width: 0.8"/>
      </defs>
      <g>
       <use xlink:href="#m2b1417d1fd" x="68.718808" y="179.399" style="stroke: #000000; stroke-width: 0.8"/>
      </g>
     </g>
     <g id="text_1">
      <!-- MSR -->
      <g transform="translate(42.052558 194.34525) scale(0.12 -0.12)">
       <defs>
        <path id="TimesNewRomanPS-BoldMT-4d" d="M 3050 1444 
L 4200 4238 
L 5925 4238 
L 5925 4122 
L 5788 4122 
Q 5600 4122 5488 4056 
Q 5409 4013 5363 3909 
Q 5328 3834 5328 3519 
L 5328 725 
Q 5328 400 5362 319 
Q 5397 238 5503 177 
Q 5609 116 5788 116 
L 5925 116 
L 5925 0 
L 3713 0 
L 3713 116 
L 3850 116 
Q 4038 116 4150 181 
Q 4228 225 4275 331 
Q 4309 406 4309 725 
L 4309 3866 
L 2684 0 
L 2609 0 
L 959 3838 
L 959 853 
Q 959 541 975 469 
Q 1016 313 1152 214 
Q 1288 116 1578 116 
L 1578 0 
L 128 0 
L 128 116 
L 172 116 
Q 313 113 434 161 
Q 556 209 618 290 
Q 681 372 716 519 
Q 722 553 722 838 
L 722 3519 
Q 722 3841 687 3920 
Q 653 4000 547 4061 
Q 441 4122 263 4122 
L 128 4122 
L 128 4238 
L 1859 4238 
L 3050 1444 
z
" transform="scale(0.015625)"/>
        <path id="TimesNewRomanPS-BoldMT-53" d="M 3006 4334 
L 3041 2922 
L 2913 2922 
Q 2822 3453 2467 3776 
Q 2113 4100 1700 4100 
Q 1381 4100 1195 3929 
Q 1009 3759 1009 3538 
Q 1009 3397 1075 3288 
Q 1166 3141 1366 2997 
Q 1513 2894 2044 2631 
Q 2788 2266 3047 1941 
Q 3303 1616 3303 1197 
Q 3303 666 2889 283 
Q 2475 -100 1838 -100 
Q 1638 -100 1459 -59 
Q 1281 -19 1013 94 
Q 863 156 766 156 
Q 684 156 593 93 
Q 503 31 447 -97 
L 331 -97 
L 331 1503 
L 447 1503 
Q 584 828 976 473 
Q 1369 119 1822 119 
Q 2172 119 2380 309 
Q 2588 500 2588 753 
Q 2588 903 2508 1043 
Q 2428 1184 2265 1311 
Q 2103 1438 1691 1641 
Q 1113 1925 859 2125 
Q 606 2325 470 2572 
Q 334 2819 334 3116 
Q 334 3622 706 3978 
Q 1078 4334 1644 4334 
Q 1850 4334 2044 4284 
Q 2191 4247 2402 4145 
Q 2613 4044 2697 4044 
Q 2778 4044 2825 4094 
Q 2872 4144 2913 4334 
L 3006 4334 
z
" transform="scale(0.015625)"/>
        <path id="TimesNewRomanPS-BoldMT-52" d="M 1700 1931 
L 1700 744 
Q 1700 400 1742 311 
Q 1784 222 1890 169 
Q 1997 116 2288 116 
L 2288 0 
L 119 0 
L 119 116 
Q 413 116 517 170 
Q 622 225 664 312 
Q 706 400 706 744 
L 706 3494 
Q 706 3838 664 3927 
Q 622 4016 515 4069 
Q 409 4122 119 4122 
L 119 4238 
L 2088 4238 
Q 2856 4238 3212 4131 
Q 3569 4025 3794 3739 
Q 4019 3453 4019 3069 
Q 4019 2600 3681 2294 
Q 3466 2100 3078 2003 
L 4097 569 
Q 4297 291 4381 222 
Q 4509 125 4678 116 
L 4678 0 
L 3344 0 
L 1978 1931 
L 1700 1931 
z
M 1700 4009 
L 1700 2153 
L 1878 2153 
Q 2313 2153 2528 2233 
Q 2744 2313 2867 2520 
Q 2991 2728 2991 3063 
Q 2991 3547 2764 3778 
Q 2538 4009 2034 4009 
L 1700 4009 
z
" transform="scale(0.015625)"/>
       </defs>
       <use xlink:href="#TimesNewRomanPS-BoldMT-4d"/>
       <use xlink:href="#TimesNewRomanPS-BoldMT-53" x="94.384766"/>
       <use xlink:href="#TimesNewRomanPS-BoldMT-52" x="150"/>
      </g>
     </g>
    </g>
    <g id="xtick_2">
     <g id="line2d_2">
      <g>
       <use xlink:href="#m2b1417d1fd" x="106.713554" y="179.399" style="stroke: #000000; stroke-width: 0.8"/>
      </g>
     </g>
     <g id="text_2">
      <!-- SBO -->
      <g transform="translate(82.702304 194.34525) scale(0.12 -0.12)">
       <defs>
        <path id="TimesNewRomanPS-BoldMT-42" d="M 2847 2247 
Q 3450 2106 3694 1906 
Q 4044 1622 4044 1169 
Q 4044 691 3659 378 
Q 3188 0 2288 0 
L 134 0 
L 134 116 
Q 428 116 533 170 
Q 638 225 680 312 
Q 722 400 722 744 
L 722 3494 
Q 722 3838 680 3927 
Q 638 4016 531 4069 
Q 425 4122 134 4122 
L 134 4238 
L 2166 4238 
Q 2894 4238 3197 4108 
Q 3500 3978 3675 3720 
Q 3850 3463 3850 3172 
Q 3850 2866 3628 2627 
Q 3406 2388 2847 2247 
z
M 1709 2331 
Q 2153 2331 2364 2431 
Q 2575 2531 2687 2712 
Q 2800 2894 2800 3175 
Q 2800 3456 2689 3636 
Q 2578 3816 2372 3909 
Q 2166 4003 1709 4000 
L 1709 2331 
z
M 1709 2088 
L 1709 728 
L 1706 572 
Q 1706 403 1792 317 
Q 1878 231 2047 231 
Q 2297 231 2508 342 
Q 2719 453 2831 664 
Q 2944 875 2944 1134 
Q 2944 1431 2806 1667 
Q 2669 1903 2428 1997 
Q 2188 2091 1709 2088 
z
" transform="scale(0.015625)"/>
        <path id="TimesNewRomanPS-BoldMT-4f" d="M 2472 4297 
Q 3484 4334 4117 3706 
Q 4750 3078 4750 2134 
Q 4750 1328 4278 716 
Q 3653 -97 2513 -97 
Q 1369 -97 744 678 
Q 250 1291 250 2131 
Q 250 3075 892 3704 
Q 1534 4334 2472 4297 
z
M 2509 4097 
Q 1928 4097 1625 3503 
Q 1378 3016 1378 2103 
Q 1378 1019 1759 500 
Q 2025 138 2503 138 
Q 2825 138 3041 294 
Q 3316 494 3469 933 
Q 3622 1372 3622 2078 
Q 3622 2919 3465 3336 
Q 3309 3753 3067 3925 
Q 2825 4097 2509 4097 
z
" transform="scale(0.015625)"/>
       </defs>
       <use xlink:href="#TimesNewRomanPS-BoldMT-53"/>
       <use xlink:href="#TimesNewRomanPS-BoldMT-42" x="55.615234"/>
       <use xlink:href="#TimesNewRomanPS-BoldMT-4f" x="122.314453"/>
      </g>
     </g>
    </g>
   </g>
   <g id="matplotlib.axis_2">
    <g id="ytick_1">
     <g id="line2d_3">
      <defs>
       <path id="m4b02e10c97" d="M 0 0 
L -3.5 0 
" style="stroke: #000000; stroke-width: 0.8"/>
      </defs>
      <g>
       <use xlink:href="#m4b02e10c97" x="52.191094" y="179.399" style="stroke: #000000; stroke-width: 0.8"/>
      </g>
     </g>
     <g id="text_3">
      <!-- 0 -->
      <g transform="translate(39.191094 183.56525) scale(0.12 -0.12)">
       <defs>
        <path id="TimesNewRomanPSMT-30" d="M 231 2094 
Q 231 2819 450 3342 
Q 669 3866 1031 4122 
Q 1313 4325 1613 4325 
Q 2100 4325 2488 3828 
Q 2972 3213 2972 2159 
Q 2972 1422 2759 906 
Q 2547 391 2217 158 
Q 1888 -75 1581 -75 
Q 975 -75 572 641 
Q 231 1244 231 2094 
z
M 844 2016 
Q 844 1141 1059 588 
Q 1238 122 1591 122 
Q 1759 122 1940 273 
Q 2122 425 2216 781 
Q 2359 1319 2359 2297 
Q 2359 3022 2209 3506 
Q 2097 3866 1919 4016 
Q 1791 4119 1609 4119 
Q 1397 4119 1231 3928 
Q 1006 3669 925 3112 
Q 844 2556 844 2016 
z
" transform="scale(0.015625)"/>
       </defs>
       <use xlink:href="#TimesNewRomanPSMT-30"/>
      </g>
     </g>
    </g>
    <g id="ytick_2">
     <g id="line2d_4">
      <g>
       <use xlink:href="#m4b02e10c97" x="52.191094" y="134.123638" style="stroke: #000000; stroke-width: 0.8"/>
      </g>
     </g>
     <g id="text_4">
      <!-- 500 -->
      <g transform="translate(27.191094 138.289888) scale(0.12 -0.12)">
       <defs>
        <path id="TimesNewRomanPSMT-35" d="M 2778 4238 
L 2534 3706 
L 1259 3706 
L 981 3138 
Q 1809 3016 2294 2522 
Q 2709 2097 2709 1522 
Q 2709 1188 2573 903 
Q 2438 619 2231 419 
Q 2025 219 1772 97 
Q 1413 -75 1034 -75 
Q 653 -75 479 54 
Q 306 184 306 341 
Q 306 428 378 495 
Q 450 563 559 563 
Q 641 563 702 538 
Q 763 513 909 409 
Q 1144 247 1384 247 
Q 1750 247 2026 523 
Q 2303 800 2303 1197 
Q 2303 1581 2056 1914 
Q 1809 2247 1375 2428 
Q 1034 2569 447 2591 
L 1259 4238 
L 2778 4238 
z
" transform="scale(0.015625)"/>
       </defs>
       <use xlink:href="#TimesNewRomanPSMT-35"/>
       <use xlink:href="#TimesNewRomanPSMT-30" x="50"/>
       <use xlink:href="#TimesNewRomanPSMT-30" x="100"/>
      </g>
     </g>
    </g>
    <g id="ytick_3">
     <g id="line2d_5">
      <g>
       <use xlink:href="#m4b02e10c97" x="52.191094" y="88.848275" style="stroke: #000000; stroke-width: 0.8"/>
      </g>
     </g>
     <g id="text_5">
      <!-- 1000 -->
      <g transform="translate(21.191094 93.014525) scale(0.12 -0.12)">
       <defs>
        <path id="TimesNewRomanPSMT-31" d="M 750 3822 
L 1781 4325 
L 1884 4325 
L 1884 747 
Q 1884 391 1914 303 
Q 1944 216 2037 169 
Q 2131 122 2419 116 
L 2419 0 
L 825 0 
L 825 116 
Q 1125 122 1212 167 
Q 1300 213 1334 289 
Q 1369 366 1369 747 
L 1369 3034 
Q 1369 3497 1338 3628 
Q 1316 3728 1258 3775 
Q 1200 3822 1119 3822 
Q 1003 3822 797 3725 
L 750 3822 
z
" transform="scale(0.015625)"/>
       </defs>
       <use xlink:href="#TimesNewRomanPSMT-31"/>
       <use xlink:href="#TimesNewRomanPSMT-30" x="50"/>
       <use xlink:href="#TimesNewRomanPSMT-30" x="100"/>
       <use xlink:href="#TimesNewRomanPSMT-30" x="150"/>
      </g>
     </g>
    </g>
    <g id="ytick_4">
     <g id="line2d_6">
      <g>
       <use xlink:href="#m4b02e10c97" x="52.191094" y="43.572913" style="stroke: #000000; stroke-width: 0.8"/>
      </g>
     </g>
     <g id="text_6">
      <!-- 1500 -->
      <g transform="translate(21.191094 47.739163) scale(0.12 -0.12)">
       <use xlink:href="#TimesNewRomanPSMT-31"/>
       <use xlink:href="#TimesNewRomanPSMT-35" x="50"/>
       <use xlink:href="#TimesNewRomanPSMT-30" x="100"/>
       <use xlink:href="#TimesNewRomanPSMT-30" x="150"/>
      </g>
     </g>
    </g>
    <g id="text_7">
     <!-- TCPA of OS to closest TS (s) -->
     <g transform="translate(14.838125 165.788219) rotate(-90) scale(0.11 -0.11)">
      <defs>
       <path id="TimesNewRomanPSMT-54" d="M 3703 4238 
L 3750 3244 
L 3631 3244 
Q 3597 3506 3538 3619 
Q 3441 3800 3280 3886 
Q 3119 3972 2856 3972 
L 2259 3972 
L 2259 734 
Q 2259 344 2344 247 
Q 2463 116 2709 116 
L 2856 116 
L 2856 0 
L 1059 0 
L 1059 116 
L 1209 116 
Q 1478 116 1591 278 
Q 1659 378 1659 734 
L 1659 3972 
L 1150 3972 
Q 853 3972 728 3928 
Q 566 3869 450 3700 
Q 334 3531 313 3244 
L 194 3244 
L 244 4238 
L 3703 4238 
z
" transform="scale(0.015625)"/>
       <path id="TimesNewRomanPSMT-43" d="M 3853 4334 
L 3950 2894 
L 3853 2894 
Q 3659 3541 3300 3825 
Q 2941 4109 2438 4109 
Q 2016 4109 1675 3895 
Q 1334 3681 1139 3212 
Q 944 2744 944 2047 
Q 944 1472 1128 1050 
Q 1313 628 1683 403 
Q 2053 178 2528 178 
Q 2941 178 3256 354 
Q 3572 531 3950 1056 
L 4047 994 
Q 3728 428 3303 165 
Q 2878 -97 2294 -97 
Q 1241 -97 663 684 
Q 231 1266 231 2053 
Q 231 2688 515 3219 
Q 800 3750 1298 4042 
Q 1797 4334 2388 4334 
Q 2847 4334 3294 4109 
Q 3425 4041 3481 4041 
Q 3566 4041 3628 4100 
Q 3709 4184 3744 4334 
L 3853 4334 
z
" transform="scale(0.015625)"/>
       <path id="TimesNewRomanPSMT-50" d="M 1313 1984 
L 1313 750 
Q 1313 350 1400 253 
Q 1519 116 1759 116 
L 1922 116 
L 1922 0 
L 106 0 
L 106 116 
L 266 116 
Q 534 116 650 291 
Q 713 388 713 750 
L 713 3488 
Q 713 3888 628 3984 
Q 506 4122 266 4122 
L 106 4122 
L 106 4238 
L 1659 4238 
Q 2228 4238 2556 4120 
Q 2884 4003 3109 3725 
Q 3334 3447 3334 3066 
Q 3334 2547 2992 2222 
Q 2650 1897 2025 1897 
Q 1872 1897 1694 1919 
Q 1516 1941 1313 1984 
z
M 1313 2163 
Q 1478 2131 1606 2115 
Q 1734 2100 1825 2100 
Q 2150 2100 2386 2351 
Q 2622 2603 2622 3003 
Q 2622 3278 2509 3514 
Q 2397 3750 2190 3867 
Q 1984 3984 1722 3984 
Q 1563 3984 1313 3925 
L 1313 2163 
z
" transform="scale(0.015625)"/>
       <path id="TimesNewRomanPSMT-41" d="M 2928 1419 
L 1288 1419 
L 1000 750 
Q 894 503 894 381 
Q 894 284 986 211 
Q 1078 138 1384 116 
L 1384 0 
L 50 0 
L 50 116 
Q 316 163 394 238 
Q 553 388 747 847 
L 2238 4334 
L 2347 4334 
L 3822 809 
Q 4000 384 4145 257 
Q 4291 131 4550 116 
L 4550 0 
L 2878 0 
L 2878 116 
Q 3131 128 3220 200 
Q 3309 272 3309 375 
Q 3309 513 3184 809 
L 2928 1419 
z
M 2841 1650 
L 2122 3363 
L 1384 1650 
L 2841 1650 
z
" transform="scale(0.015625)"/>
       <path id="TimesNewRomanPSMT-20" transform="scale(0.015625)"/>
       <path id="TimesNewRomanPSMT-6f" d="M 1600 2947 
Q 2250 2947 2644 2453 
Q 2978 2031 2978 1484 
Q 2978 1100 2793 706 
Q 2609 313 2286 112 
Q 1963 -88 1566 -88 
Q 919 -88 538 428 
Q 216 863 216 1403 
Q 216 1797 411 2186 
Q 606 2575 925 2761 
Q 1244 2947 1600 2947 
z
M 1503 2744 
Q 1338 2744 1170 2645 
Q 1003 2547 900 2300 
Q 797 2053 797 1666 
Q 797 1041 1045 587 
Q 1294 134 1700 134 
Q 2003 134 2200 384 
Q 2397 634 2397 1244 
Q 2397 2006 2069 2444 
Q 1847 2744 1503 2744 
z
" transform="scale(0.015625)"/>
       <path id="TimesNewRomanPSMT-66" d="M 1319 2638 
L 1319 756 
Q 1319 356 1406 250 
Q 1522 113 1716 113 
L 1975 113 
L 1975 0 
L 266 0 
L 266 113 
L 394 113 
Q 519 113 622 175 
Q 725 238 764 344 
Q 803 450 803 756 
L 803 2638 
L 247 2638 
L 247 2863 
L 803 2863 
L 803 3050 
Q 803 3478 940 3775 
Q 1078 4072 1361 4255 
Q 1644 4438 1997 4438 
Q 2325 4438 2600 4225 
Q 2781 4084 2781 3909 
Q 2781 3816 2700 3733 
Q 2619 3650 2525 3650 
Q 2453 3650 2373 3701 
Q 2294 3753 2178 3923 
Q 2063 4094 1966 4153 
Q 1869 4213 1750 4213 
Q 1606 4213 1506 4136 
Q 1406 4059 1362 3898 
Q 1319 3738 1319 3069 
L 1319 2863 
L 2056 2863 
L 2056 2638 
L 1319 2638 
z
" transform="scale(0.015625)"/>
       <path id="TimesNewRomanPSMT-4f" d="M 2341 4334 
Q 3166 4334 3770 3707 
Q 4375 3081 4375 2144 
Q 4375 1178 3765 540 
Q 3156 -97 2291 -97 
Q 1416 -97 820 525 
Q 225 1147 225 2134 
Q 225 3144 913 3781 
Q 1509 4334 2341 4334 
z
M 2281 4106 
Q 1713 4106 1369 3684 
Q 941 3159 941 2147 
Q 941 1109 1384 550 
Q 1725 125 2284 125 
Q 2881 125 3270 590 
Q 3659 1056 3659 2059 
Q 3659 3147 3231 3681 
Q 2888 4106 2281 4106 
z
" transform="scale(0.015625)"/>
       <path id="TimesNewRomanPSMT-53" d="M 2934 4334 
L 2934 2869 
L 2819 2869 
Q 2763 3291 2617 3541 
Q 2472 3791 2203 3937 
Q 1934 4084 1647 4084 
Q 1322 4084 1109 3886 
Q 897 3688 897 3434 
Q 897 3241 1031 3081 
Q 1225 2847 1953 2456 
Q 2547 2138 2764 1967 
Q 2981 1797 3098 1565 
Q 3216 1334 3216 1081 
Q 3216 600 2842 251 
Q 2469 -97 1881 -97 
Q 1697 -97 1534 -69 
Q 1438 -53 1133 45 
Q 828 144 747 144 
Q 669 144 623 97 
Q 578 50 556 -97 
L 441 -97 
L 441 1356 
L 556 1356 
Q 638 900 775 673 
Q 913 447 1195 297 
Q 1478 147 1816 147 
Q 2206 147 2432 353 
Q 2659 559 2659 841 
Q 2659 997 2573 1156 
Q 2488 1316 2306 1453 
Q 2184 1547 1640 1851 
Q 1097 2156 867 2337 
Q 638 2519 519 2737 
Q 400 2956 400 3219 
Q 400 3675 750 4004 
Q 1100 4334 1641 4334 
Q 1978 4334 2356 4169 
Q 2531 4091 2603 4091 
Q 2684 4091 2736 4139 
Q 2788 4188 2819 4334 
L 2934 4334 
z
" transform="scale(0.015625)"/>
       <path id="TimesNewRomanPSMT-74" d="M 1031 3803 
L 1031 2863 
L 1700 2863 
L 1700 2644 
L 1031 2644 
L 1031 788 
Q 1031 509 1111 412 
Q 1191 316 1316 316 
Q 1419 316 1516 380 
Q 1613 444 1666 569 
L 1788 569 
Q 1678 263 1478 108 
Q 1278 -47 1066 -47 
Q 922 -47 784 33 
Q 647 113 581 261 
Q 516 409 516 719 
L 516 2644 
L 63 2644 
L 63 2747 
Q 234 2816 414 2980 
Q 594 3144 734 3369 
Q 806 3488 934 3803 
L 1031 3803 
z
" transform="scale(0.015625)"/>
       <path id="TimesNewRomanPSMT-63" d="M 2631 1088 
Q 2516 522 2178 217 
Q 1841 -88 1431 -88 
Q 944 -88 581 321 
Q 219 731 219 1428 
Q 219 2103 620 2525 
Q 1022 2947 1584 2947 
Q 2006 2947 2278 2723 
Q 2550 2500 2550 2259 
Q 2550 2141 2473 2067 
Q 2397 1994 2259 1994 
Q 2075 1994 1981 2113 
Q 1928 2178 1911 2362 
Q 1894 2547 1784 2644 
Q 1675 2738 1481 2738 
Q 1169 2738 978 2506 
Q 725 2200 725 1697 
Q 725 1184 976 792 
Q 1228 400 1656 400 
Q 1963 400 2206 609 
Q 2378 753 2541 1131 
L 2631 1088 
z
" transform="scale(0.015625)"/>
       <path id="TimesNewRomanPSMT-6c" d="M 1184 4444 
L 1184 647 
Q 1184 378 1223 290 
Q 1263 203 1344 158 
Q 1425 113 1647 113 
L 1647 0 
L 244 0 
L 244 113 
Q 441 113 512 153 
Q 584 194 625 287 
Q 666 381 666 647 
L 666 3247 
Q 666 3731 644 3842 
Q 622 3953 573 3993 
Q 525 4034 450 4034 
Q 369 4034 244 3984 
L 191 4094 
L 1044 4444 
L 1184 4444 
z
" transform="scale(0.015625)"/>
       <path id="TimesNewRomanPSMT-73" d="M 2050 2947 
L 2050 1972 
L 1947 1972 
Q 1828 2431 1642 2597 
Q 1456 2763 1169 2763 
Q 950 2763 815 2647 
Q 681 2531 681 2391 
Q 681 2216 781 2091 
Q 878 1963 1175 1819 
L 1631 1597 
Q 2266 1288 2266 781 
Q 2266 391 1970 151 
Q 1675 -88 1309 -88 
Q 1047 -88 709 6 
Q 606 38 541 38 
Q 469 38 428 -44 
L 325 -44 
L 325 978 
L 428 978 
Q 516 541 762 319 
Q 1009 97 1316 97 
Q 1531 97 1667 223 
Q 1803 350 1803 528 
Q 1803 744 1651 891 
Q 1500 1038 1047 1263 
Q 594 1488 453 1669 
Q 313 1847 313 2119 
Q 313 2472 555 2709 
Q 797 2947 1181 2947 
Q 1350 2947 1591 2875 
Q 1750 2828 1803 2828 
Q 1853 2828 1881 2850 
Q 1909 2872 1947 2947 
L 2050 2947 
z
" transform="scale(0.015625)"/>
       <path id="TimesNewRomanPSMT-65" d="M 681 1784 
Q 678 1147 991 784 
Q 1303 422 1725 422 
Q 2006 422 2214 576 
Q 2422 731 2563 1106 
L 2659 1044 
Q 2594 616 2278 264 
Q 1963 -88 1488 -88 
Q 972 -88 605 314 
Q 238 716 238 1394 
Q 238 2128 614 2539 
Q 991 2950 1559 2950 
Q 2041 2950 2350 2633 
Q 2659 2316 2659 1784 
L 681 1784 
z
M 681 1966 
L 2006 1966 
Q 1991 2241 1941 2353 
Q 1863 2528 1708 2628 
Q 1553 2728 1384 2728 
Q 1125 2728 920 2526 
Q 716 2325 681 1966 
z
" transform="scale(0.015625)"/>
       <path id="TimesNewRomanPSMT-28" d="M 1988 -1253 
L 1988 -1369 
Q 1516 -1131 1200 -813 
Q 750 -359 506 256 
Q 263 872 263 1534 
Q 263 2503 741 3301 
Q 1219 4100 1988 4444 
L 1988 4313 
Q 1603 4100 1356 3731 
Q 1109 3363 987 2797 
Q 866 2231 866 1616 
Q 866 947 969 400 
Q 1050 -31 1165 -292 
Q 1281 -553 1476 -793 
Q 1672 -1034 1988 -1253 
z
" transform="scale(0.015625)"/>
       <path id="TimesNewRomanPSMT-29" d="M 144 4313 
L 144 4444 
Q 619 4209 934 3891 
Q 1381 3434 1625 2820 
Q 1869 2206 1869 1541 
Q 1869 572 1392 -226 
Q 916 -1025 144 -1369 
L 144 -1253 
Q 528 -1038 776 -670 
Q 1025 -303 1145 264 
Q 1266 831 1266 1447 
Q 1266 2113 1163 2663 
Q 1084 3094 967 3353 
Q 850 3613 656 3853 
Q 463 4094 144 4313 
z
" transform="scale(0.015625)"/>
      </defs>
      <use xlink:href="#TimesNewRomanPSMT-54"/>
      <use xlink:href="#TimesNewRomanPSMT-43" x="61.083984"/>
      <use xlink:href="#TimesNewRomanPSMT-50" x="127.783203"/>
      <use xlink:href="#TimesNewRomanPSMT-41" x="174.273438"/>
      <use xlink:href="#TimesNewRomanPSMT-20" x="240.990234"/>
      <use xlink:href="#TimesNewRomanPSMT-6f" x="265.990234"/>
      <use xlink:href="#TimesNewRomanPSMT-66" x="315.990234"/>
      <use xlink:href="#TimesNewRomanPSMT-20" x="349.291016"/>
      <use xlink:href="#TimesNewRomanPSMT-4f" x="374.291016"/>
      <use xlink:href="#TimesNewRomanPSMT-53" x="446.507812"/>
      <use xlink:href="#TimesNewRomanPSMT-20" x="502.123047"/>
      <use xlink:href="#TimesNewRomanPSMT-74" x="527.123047"/>
      <use xlink:href="#TimesNewRomanPSMT-6f" x="554.90625"/>
      <use xlink:href="#TimesNewRomanPSMT-20" x="604.90625"/>
      <use xlink:href="#TimesNewRomanPSMT-63" x="629.90625"/>
      <use xlink:href="#TimesNewRomanPSMT-6c" x="674.291016"/>
      <use xlink:href="#TimesNewRomanPSMT-6f" x="702.074219"/>
      <use xlink:href="#TimesNewRomanPSMT-73" x="752.074219"/>
      <use xlink:href="#TimesNewRomanPSMT-65" x="790.990234"/>
      <use xlink:href="#TimesNewRomanPSMT-73" x="835.375"/>
      <use xlink:href="#TimesNewRomanPSMT-74" x="874.291016"/>
      <use xlink:href="#TimesNewRomanPSMT-20" x="902.074219"/>
      <use xlink:href="#TimesNewRomanPSMT-54" x="925.324219"/>
      <use xlink:href="#TimesNewRomanPSMT-53" x="986.408203"/>
      <use xlink:href="#TimesNewRomanPSMT-20" x="1042.023438"/>
      <use xlink:href="#TimesNewRomanPSMT-28" x="1067.023438"/>
      <use xlink:href="#TimesNewRomanPSMT-73" x="1100.324219"/>
      <use xlink:href="#TimesNewRomanPSMT-29" x="1139.240234"/>
     </g>
    </g>
   </g>
   <g id="LineCollection_1">
    <path d="M 62.069728 109.355797 
L 75.367889 109.355797 
" clip-path="url(#p10e452c7de)" style="fill: none; stroke: #000000; stroke-width: 2"/>
    <path d="M 100.064474 88.149851 
L 113.362635 88.149851 
" clip-path="url(#p10e452c7de)" style="fill: none; stroke: #000000; stroke-width: 2"/>
   </g>
   <g id="LineCollection_2">
    <path clip-path="url(#p10e452c7de)" style="fill: none; stroke: #1f77b4; stroke-width: 1.5"/>
    <path clip-path="url(#p10e452c7de)" style="fill: none; stroke: #1f77b4; stroke-width: 1.5"/>
   </g>
   <g id="LineCollection_3">
    <path d="M 62.069728 163.327845 
L 75.367889 163.327845 
" clip-path="url(#p10e452c7de)" style="fill: none; stroke: #1f77b4; stroke-width: 1.5"/>
    <path d="M 100.064474 166.656037 
L 113.362635 166.656037 
" clip-path="url(#p10e452c7de)" style="fill: none; stroke: #1f77b4; stroke-width: 1.5"/>
   </g>
   <g id="LineCollection_4">
    <path d="M 68.718808 163.327845 
L 68.718808 -1 
" clip-path="url(#p10e452c7de)" style="fill: none; stroke: #1f77b4; stroke-width: 1.5"/>
    <path d="M 106.713554 166.656037 
L 106.713554 -1 
" clip-path="url(#p10e452c7de)" style="fill: none; stroke: #1f77b4; stroke-width: 1.5"/>
   </g>
   <g id="LineCollection_5">
    <path d="M 62.069728 134.648177 
L 75.367889 134.648177 
" clip-path="url(#p10e452c7de)" style="fill: none; stroke-dasharray: 2,3.3; stroke-dashoffset: 0; stroke: #808080; stroke-width: 2"/>
    <path d="M 100.064474 134.879314 
L 113.362635 134.879314 
" clip-path="url(#p10e452c7de)" style="fill: none; stroke-dasharray: 2,3.3; stroke-dashoffset: 0; stroke: #808080; stroke-width: 2"/>
   </g>
   <g id="patch_3">
    <path d="M 52.191094 179.399 
L 52.191094 23.199 
" style="fill: none; stroke: #000000; stroke-width: 0.8; stroke-linejoin: miter; stroke-linecap: square"/>
   </g>
   <g id="patch_4">
    <path d="M 123.241269 179.399 
L 123.241269 23.199 
" style="fill: none; stroke: #000000; stroke-width: 0.8; stroke-linejoin: miter; stroke-linecap: square"/>
   </g>
   <g id="patch_5">
    <path d="M 52.191094 179.399 
L 123.241269 179.399 
" style="fill: none; stroke: #000000; stroke-width: 0.8; stroke-linejoin: miter; stroke-linecap: square"/>
   </g>
   <g id="patch_6">
    <path d="M 52.191094 23.199 
L 123.241269 23.199 
" style="fill: none; stroke: #000000; stroke-width: 0.8; stroke-linejoin: miter; stroke-linecap: square"/>
   </g>
   <g id="text_8">
    <!-- 278 -->
    <g transform="translate(61.218808 39.183952) scale(0.1 -0.1)">
     <defs>
      <path id="TimesNewRomanPSMT-32" d="M 2934 816 
L 2638 0 
L 138 0 
L 138 116 
Q 1241 1122 1691 1759 
Q 2141 2397 2141 2925 
Q 2141 3328 1894 3587 
Q 1647 3847 1303 3847 
Q 991 3847 742 3664 
Q 494 3481 375 3128 
L 259 3128 
Q 338 3706 661 4015 
Q 984 4325 1469 4325 
Q 1984 4325 2329 3994 
Q 2675 3663 2675 3213 
Q 2675 2891 2525 2569 
Q 2294 2063 1775 1497 
Q 997 647 803 472 
L 1909 472 
Q 2247 472 2383 497 
Q 2519 522 2628 598 
Q 2738 675 2819 816 
L 2934 816 
z
" transform="scale(0.015625)"/>
      <path id="TimesNewRomanPSMT-37" d="M 644 4238 
L 2916 4238 
L 2916 4119 
L 1503 -88 
L 1153 -88 
L 2419 3728 
L 1253 3728 
Q 900 3728 750 3644 
Q 488 3500 328 3200 
L 238 3234 
L 644 4238 
z
" transform="scale(0.015625)"/>
      <path id="TimesNewRomanPSMT-38" d="M 1228 2134 
Q 725 2547 579 2797 
Q 434 3047 434 3316 
Q 434 3728 753 4026 
Q 1072 4325 1600 4325 
Q 2113 4325 2425 4047 
Q 2738 3769 2738 3413 
Q 2738 3175 2569 2928 
Q 2400 2681 1866 2347 
Q 2416 1922 2594 1678 
Q 2831 1359 2831 1006 
Q 2831 559 2490 242 
Q 2150 -75 1597 -75 
Q 994 -75 656 303 
Q 388 606 388 966 
Q 388 1247 577 1523 
Q 766 1800 1228 2134 
z
M 1719 2469 
Q 2094 2806 2194 3001 
Q 2294 3197 2294 3444 
Q 2294 3772 2109 3958 
Q 1925 4144 1606 4144 
Q 1288 4144 1088 3959 
Q 888 3775 888 3528 
Q 888 3366 970 3203 
Q 1053 3041 1206 2894 
L 1719 2469 
z
M 1375 2016 
Q 1116 1797 991 1539 
Q 866 1281 866 981 
Q 866 578 1086 336 
Q 1306 94 1647 94 
Q 1984 94 2187 284 
Q 2391 475 2391 747 
Q 2391 972 2272 1150 
Q 2050 1481 1375 2016 
z
" transform="scale(0.015625)"/>
     </defs>
     <use xlink:href="#TimesNewRomanPSMT-32"/>
     <use xlink:href="#TimesNewRomanPSMT-37" x="50"/>
     <use xlink:href="#TimesNewRomanPSMT-38" x="100"/>
    </g>
   </g>
   <g id="text_9">
    <!-- 291 -->
    <g transform="translate(99.213554 39.183952) scale(0.1 -0.1)">
     <defs>
      <path id="TimesNewRomanPSMT-39" d="M 338 -88 
L 338 28 
Q 744 34 1094 217 
Q 1444 400 1770 856 
Q 2097 1313 2225 1859 
Q 1734 1544 1338 1544 
Q 891 1544 572 1889 
Q 253 2234 253 2806 
Q 253 3363 572 3797 
Q 956 4325 1575 4325 
Q 2097 4325 2469 3894 
Q 2925 3359 2925 2575 
Q 2925 1869 2578 1258 
Q 2231 647 1613 244 
Q 1109 -88 516 -88 
L 338 -88 
z
M 2275 2091 
Q 2331 2497 2331 2741 
Q 2331 3044 2228 3395 
Q 2125 3747 1936 3934 
Q 1747 4122 1506 4122 
Q 1228 4122 1018 3872 
Q 809 3622 809 3128 
Q 809 2469 1088 2097 
Q 1291 1828 1588 1828 
Q 1731 1828 1928 1897 
Q 2125 1966 2275 2091 
z
" transform="scale(0.015625)"/>
     </defs>
     <use xlink:href="#TimesNewRomanPSMT-32"/>
     <use xlink:href="#TimesNewRomanPSMT-39" x="50"/>
     <use xlink:href="#TimesNewRomanPSMT-31" x="100"/>
    </g>
   </g>
   <g id="text_10">
    <!-- 3 Vessels -->
    <g transform="translate(61.243806 17.199) scale(0.144 -0.144)">
     <defs>
      <path id="TimesNewRomanPSMT-33" d="M 325 3431 
Q 506 3859 782 4092 
Q 1059 4325 1472 4325 
Q 1981 4325 2253 3994 
Q 2459 3747 2459 3466 
Q 2459 3003 1878 2509 
Q 2269 2356 2469 2072 
Q 2669 1788 2669 1403 
Q 2669 853 2319 450 
Q 1863 -75 997 -75 
Q 569 -75 414 31 
Q 259 138 259 259 
Q 259 350 332 419 
Q 406 488 509 488 
Q 588 488 669 463 
Q 722 447 909 348 
Q 1097 250 1169 231 
Q 1284 197 1416 197 
Q 1734 197 1970 444 
Q 2206 691 2206 1028 
Q 2206 1275 2097 1509 
Q 2016 1684 1919 1775 
Q 1784 1900 1550 2001 
Q 1316 2103 1072 2103 
L 972 2103 
L 972 2197 
Q 1219 2228 1467 2375 
Q 1716 2522 1828 2728 
Q 1941 2934 1941 3181 
Q 1941 3503 1739 3701 
Q 1538 3900 1238 3900 
Q 753 3900 428 3381 
L 325 3431 
z
" transform="scale(0.015625)"/>
      <path id="TimesNewRomanPSMT-56" d="M 4544 4238 
L 4544 4122 
Q 4319 4081 4203 3978 
Q 4038 3825 3909 3509 
L 2431 -97 
L 2316 -97 
L 728 3556 
Q 606 3838 556 3900 
Q 478 3997 364 4051 
Q 250 4106 56 4122 
L 56 4238 
L 1788 4238 
L 1788 4122 
Q 1494 4094 1406 4022 
Q 1319 3950 1319 3838 
Q 1319 3681 1463 3350 
L 2541 866 
L 3541 3319 
Q 3688 3681 3688 3822 
Q 3688 3913 3597 3995 
Q 3506 4078 3291 4113 
Q 3275 4116 3238 4122 
L 3238 4238 
L 4544 4238 
z
" transform="scale(0.015625)"/>
     </defs>
     <use xlink:href="#TimesNewRomanPSMT-33"/>
     <use xlink:href="#TimesNewRomanPSMT-20" x="50"/>
     <use xlink:href="#TimesNewRomanPSMT-56" x="73.25"/>
     <use xlink:href="#TimesNewRomanPSMT-65" x="134.341797"/>
     <use xlink:href="#TimesNewRomanPSMT-73" x="178.726562"/>
     <use xlink:href="#TimesNewRomanPSMT-73" x="217.642578"/>
     <use xlink:href="#TimesNewRomanPSMT-65" x="256.558594"/>
     <use xlink:href="#TimesNewRomanPSMT-6c" x="300.943359"/>
     <use xlink:href="#TimesNewRomanPSMT-73" x="328.726562"/>
    </g>
   </g>
  </g>
  <g id="axes_2">
   <g id="patch_7">
    <path d="M 148.771035 179.399 
L 219.82121 179.399 
L 219.82121 23.199 
L 148.771035 23.199 
z
" style="fill: #ffffff"/>
   </g>
   <g id="PolyCollection_3">
    <path d="M 173.702011 165.092389 
L 156.895488 165.092389 
L 154.334672 156.669041 
L 152.538706 148.245693 
L 152.000589 139.822345 
L 152.819681 131.398996 
L 154.670839 122.975648 
L 156.992235 114.5523 
L 159.251359 106.128952 
L 161.121516 97.705604 
L 162.503156 89.282256 
L 163.442469 80.858908 
L 164.037566 72.43556 
L 164.38399 64.012212 
L 164.559787 55.588863 
L 164.628614 47.165515 
L 164.643996 38.742167 
L 164.648968 30.318819 
L 164.672561 21.895471 
L 164.727319 13.472123 
L 164.810921 5.048775 
L 164.911624 -3.374573 
L 165.014668 -11.797922 
L 165.107187 -20.22127 
L 165.180953 -28.644618 
L 165.233238 -37.067966 
L 165.266058 -45.491314 
L 165.284213 -53.914662 
L 165.293022 -62.33801 
L 165.296759 -70.761358 
L 165.298142 -79.184707 
L 165.298587 -87.608055 
L 165.298712 -96.031403 
L 165.298742 -104.454751 
L 165.298749 -112.878099 
L 165.29875 -121.301447 
L 165.29875 -129.724795 
L 165.29875 -138.148143 
L 165.29875 -146.571492 
L 165.29875 -154.99484 
L 165.29875 -163.418188 
L 165.29875 -171.841536 
L 165.29875 -180.264884 
L 165.29875 -188.688232 
L 165.29875 -197.11158 
L 165.29875 -205.534928 
L 165.29875 -213.958276 
L 165.29875 -222.381625 
L 165.29875 -230.804973 
L 165.29875 -239.228321 
L 165.29875 -247.651669 
L 165.29875 -256.075017 
L 165.29875 -264.498365 
L 165.29875 -272.921713 
L 165.29875 -281.345061 
L 165.29875 -289.76841 
L 165.29875 -298.191758 
L 165.29875 -306.615106 
L 165.29875 -315.038454 
L 165.29875 -323.461802 
L 165.29875 -331.88515 
L 165.29875 -340.308498 
L 165.29875 -348.731846 
L 165.29875 -357.155195 
L 165.29875 -365.578543 
L 165.29875 -374.001891 
L 165.29875 -382.425239 
L 165.29875 -390.848587 
L 165.29875 -399.271935 
L 165.29875 -407.695283 
L 165.29875 -416.118631 
L 165.29875 -424.54198 
L 165.29875 -432.965328 
L 165.298749 -441.388676 
L 165.298746 -449.812024 
L 165.298729 -458.235372 
L 165.298662 -466.65872 
L 165.298432 -475.082068 
L 165.297747 -483.505416 
L 165.296004 -491.928765 
L 165.292226 -500.352113 
L 165.285304 -508.775461 
L 165.2747 -517.198809 
L 165.261424 -525.622157 
L 165.248481 -534.045505 
L 165.240004 -542.468853 
L 165.239178 -550.892201 
L 165.246329 -559.315549 
L 165.258722 -567.738898 
L 165.272218 -576.162246 
L 165.283452 -584.585594 
L 165.29095 -593.008942 
L 165.294813 -601.43229 
L 165.295648 -609.855638 
L 165.293658 -618.278986 
L 165.288406 -626.702334 
L 165.279352 -635.125683 
L 165.266919 -643.549031 
L 165.253377 -651.972379 
L 165.242619 -660.395727 
L 165.238493 -668.819075 
L 165.359007 -668.819075 
L 165.359007 -668.819075 
L 165.354881 -660.395727 
L 165.344123 -651.972379 
L 165.33058 -643.549031 
L 165.318148 -635.125683 
L 165.309094 -626.702334 
L 165.303842 -618.278986 
L 165.301852 -609.855638 
L 165.302687 -601.43229 
L 165.30655 -593.008942 
L 165.314048 -584.585594 
L 165.325282 -576.162246 
L 165.338778 -567.738898 
L 165.35117 -559.315549 
L 165.358322 -550.892201 
L 165.357495 -542.468853 
L 165.349019 -534.045505 
L 165.336076 -525.622157 
L 165.3228 -517.198809 
L 165.312196 -508.775461 
L 165.305274 -500.352113 
L 165.301496 -491.928765 
L 165.299753 -483.505416 
L 165.299068 -475.082068 
L 165.298837 -466.65872 
L 165.298771 -458.235372 
L 165.298754 -449.812024 
L 165.298751 -441.388676 
L 165.29875 -432.965328 
L 165.29875 -424.54198 
L 165.29875 -416.118631 
L 165.29875 -407.695283 
L 165.29875 -399.271935 
L 165.29875 -390.848587 
L 165.29875 -382.425239 
L 165.29875 -374.001891 
L 165.29875 -365.578543 
L 165.29875 -357.155195 
L 165.29875 -348.731846 
L 165.29875 -340.308498 
L 165.29875 -331.88515 
L 165.29875 -323.461802 
L 165.29875 -315.038454 
L 165.29875 -306.615106 
L 165.29875 -298.191758 
L 165.29875 -289.76841 
L 165.29875 -281.345061 
L 165.29875 -272.921713 
L 165.29875 -264.498365 
L 165.29875 -256.075017 
L 165.29875 -247.651669 
L 165.29875 -239.228321 
L 165.29875 -230.804973 
L 165.29875 -222.381625 
L 165.29875 -213.958276 
L 165.29875 -205.534928 
L 165.29875 -197.11158 
L 165.29875 -188.688232 
L 165.29875 -180.264884 
L 165.29875 -171.841536 
L 165.29875 -163.418188 
L 165.29875 -154.99484 
L 165.29875 -146.571492 
L 165.29875 -138.148143 
L 165.29875 -129.724795 
L 165.29875 -121.301447 
L 165.298751 -112.878099 
L 165.298758 -104.454751 
L 165.298788 -96.031403 
L 165.298913 -87.608055 
L 165.299358 -79.184707 
L 165.300741 -70.761358 
L 165.304478 -62.33801 
L 165.313287 -53.914662 
L 165.331442 -45.491314 
L 165.364262 -37.067966 
L 165.416547 -28.644618 
L 165.490312 -20.22127 
L 165.582832 -11.797922 
L 165.685876 -3.374573 
L 165.786579 5.048775 
L 165.870181 13.472123 
L 165.924939 21.895471 
L 165.948532 30.318819 
L 165.953504 38.742167 
L 165.968886 47.165515 
L 166.037713 55.588863 
L 166.21351 64.012212 
L 166.559933 72.43556 
L 167.155031 80.858908 
L 168.094344 89.282256 
L 169.475984 97.705604 
L 171.346141 106.128952 
L 173.605265 114.5523 
L 175.926661 122.975648 
L 177.777819 131.398996 
L 178.596911 139.822345 
L 178.058794 148.245693 
L 176.262827 156.669041 
L 173.702011 165.092389 
z
" clip-path="url(#pdce4249a81)" style="fill: #0080ff; fill-opacity: 0.3"/>
   </g>
   <g id="PolyCollection_4">
    <path d="M 208.191782 165.120568 
L 198.39521 165.120568 
L 196.854334 161.659643 
L 195.198463 158.198717 
L 193.55503 154.737792 
L 192.075522 151.276867 
L 190.912477 147.815942 
L 190.193028 144.355016 
L 189.995335 140.894091 
L 190.333842 137.433166 
L 191.15704 133.972241 
L 192.358096 130.511315 
L 193.795442 127.05039 
L 195.318187 123.589465 
L 196.790424 120.12854 
L 198.109307 116.667614 
L 199.21386 113.206689 
L 200.084155 109.745764 
L 200.73305 106.284838 
L 201.19416 102.823913 
L 201.509813 99.362988 
L 201.721648 95.902063 
L 201.864912 92.441137 
L 201.966174 88.980212 
L 202.043502 85.519287 
L 202.108024 82.058362 
L 202.165995 78.597436 
L 202.220765 75.136511 
L 202.274258 71.675586 
L 202.327856 68.214661 
L 202.382771 64.753735 
L 202.4401 61.29281 
L 202.500733 57.831885 
L 202.565203 54.370959 
L 202.633472 50.910034 
L 202.704745 47.449109 
L 202.777382 43.988184 
L 202.849074 40.527258 
L 202.917262 37.066333 
L 202.979692 33.605408 
L 203.034874 30.144483 
L 203.082248 26.683557 
L 203.121991 23.222632 
L 203.154591 19.761707 
L 203.180399 16.300782 
L 203.199378 12.839856 
L 203.211174 9.378931 
L 203.215487 5.918006 
L 203.212572 2.45708 
L 203.203658 -1.003845 
L 203.191073 -4.46477 
L 203.177944 -7.925695 
L 203.16753 -11.386621 
L 203.162353 -14.847546 
L 203.163447 -18.308471 
L 203.170016 -21.769396 
L 203.179637 -25.230322 
L 203.189006 -28.691247 
L 203.194953 -32.152172 
L 203.195426 -35.613097 
L 203.190115 -39.074023 
L 203.180515 -42.534948 
L 203.169423 -45.995873 
L 203.160012 -49.456799 
L 203.15482 -52.917724 
L 203.154993 -56.378649 
L 203.16007 -59.839574 
L 203.168353 -63.3005 
L 203.17767 -66.761425 
L 203.186176 -70.22235 
L 203.192852 -73.683275 
L 203.197535 -77.144201 
L 203.20058 -80.605126 
L 203.2024 -84.066051 
L 203.203161 -87.526976 
L 203.20277 -90.987902 
L 203.201085 -94.448827 
L 203.19818 -97.909752 
L 203.19449 -101.370678 
L 203.190771 -104.831603 
L 203.187938 -108.292528 
L 203.18687 -111.753453 
L 203.188273 -115.214379 
L 203.192588 -118.675304 
L 203.199923 -122.136229 
L 203.209996 -125.597154 
L 203.222111 -129.05808 
L 203.235224 -132.519005 
L 203.248106 -135.97993 
L 203.259547 -139.440855 
L 203.268554 -142.901781 
L 203.274443 -146.362706 
L 203.276856 -149.823631 
L 203.275728 -153.284557 
L 203.271282 -156.745482 
L 203.26407 -160.206407 
L 203.255034 -163.667332 
L 203.2455 -167.128258 
L 203.237049 -170.589183 
L 203.231218 -174.050108 
L 203.229146 -177.511033 
L 203.357846 -177.511033 
L 203.357846 -177.511033 
L 203.355773 -174.050108 
L 203.349943 -170.589183 
L 203.341492 -167.128258 
L 203.331958 -163.667332 
L 203.322921 -160.206407 
L 203.31571 -156.745482 
L 203.311264 -153.284557 
L 203.310136 -149.823631 
L 203.312549 -146.362706 
L 203.318438 -142.901781 
L 203.327445 -139.440855 
L 203.338886 -135.97993 
L 203.351767 -132.519005 
L 203.364881 -129.05808 
L 203.376996 -125.597154 
L 203.387068 -122.136229 
L 203.394404 -118.675304 
L 203.398719 -115.214379 
L 203.400122 -111.753453 
L 203.399054 -108.292528 
L 203.396221 -104.831603 
L 203.392502 -101.370678 
L 203.388812 -97.909752 
L 203.385907 -94.448827 
L 203.384222 -90.987902 
L 203.383831 -87.526976 
L 203.384592 -84.066051 
L 203.386411 -80.605126 
L 203.389457 -77.144201 
L 203.39414 -73.683275 
L 203.400815 -70.22235 
L 203.409322 -66.761425 
L 203.418638 -63.3005 
L 203.426922 -59.839574 
L 203.431999 -56.378649 
L 203.432172 -52.917724 
L 203.42698 -49.456799 
L 203.417569 -45.995873 
L 203.406477 -42.534948 
L 203.396877 -39.074023 
L 203.391566 -35.613097 
L 203.392039 -32.152172 
L 203.397986 -28.691247 
L 203.407354 -25.230322 
L 203.416976 -21.769396 
L 203.423544 -18.308471 
L 203.424639 -14.847546 
L 203.419462 -11.386621 
L 203.409047 -7.925695 
L 203.395919 -4.46477 
L 203.383333 -1.003845 
L 203.37442 2.45708 
L 203.371505 5.918006 
L 203.375818 9.378931 
L 203.387614 12.839856 
L 203.406593 16.300782 
L 203.432401 19.761707 
L 203.465001 23.222632 
L 203.504744 26.683557 
L 203.552117 30.144483 
L 203.6073 33.605408 
L 203.66973 37.066333 
L 203.737918 40.527258 
L 203.80961 43.988184 
L 203.882247 47.449109 
L 203.953519 50.910034 
L 204.021789 54.370959 
L 204.086259 57.831885 
L 204.146892 61.29281 
L 204.204221 64.753735 
L 204.259136 68.214661 
L 204.312734 71.675586 
L 204.366227 75.136511 
L 204.420997 78.597436 
L 204.478968 82.058362 
L 204.543489 85.519287 
L 204.620818 88.980212 
L 204.72208 92.441137 
L 204.865344 95.902063 
L 205.077179 99.362988 
L 205.392831 102.823913 
L 205.853942 106.284838 
L 206.502837 109.745764 
L 207.373132 113.206689 
L 208.477684 116.667614 
L 209.796568 120.12854 
L 211.268804 123.589465 
L 212.79155 127.05039 
L 214.228896 130.511315 
L 215.429952 133.972241 
L 216.25315 137.433166 
L 216.591657 140.894091 
L 216.393964 144.355016 
L 215.674515 147.815942 
L 214.51147 151.276867 
L 213.031962 154.737792 
L 211.388529 158.198717 
L 209.732658 161.659643 
L 208.191782 165.120568 
z
" clip-path="url(#pdce4249a81)" style="fill: #ff8000; fill-opacity: 0.3"/>
   </g>
   <g id="matplotlib.axis_3">
    <g id="xtick_3">
     <g id="line2d_7">
      <g>
       <use xlink:href="#m2b1417d1fd" x="165.29875" y="179.399" style="stroke: #000000; stroke-width: 0.8"/>
      </g>
     </g>
     <g id="text_11">
      <!-- MSR -->
      <g transform="translate(138.6325 194.34525) scale(0.12 -0.12)">
       <use xlink:href="#TimesNewRomanPS-BoldMT-4d"/>
       <use xlink:href="#TimesNewRomanPS-BoldMT-53" x="94.384766"/>
       <use xlink:href="#TimesNewRomanPS-BoldMT-52" x="150"/>
      </g>
     </g>
    </g>
    <g id="xtick_4">
     <g id="line2d_8">
      <g>
       <use xlink:href="#m2b1417d1fd" x="203.293496" y="179.399" style="stroke: #000000; stroke-width: 0.8"/>
      </g>
     </g>
     <g id="text_12">
      <!-- SBO -->
      <g transform="translate(179.282246 194.34525) scale(0.12 -0.12)">
       <use xlink:href="#TimesNewRomanPS-BoldMT-53"/>
       <use xlink:href="#TimesNewRomanPS-BoldMT-42" x="55.615234"/>
       <use xlink:href="#TimesNewRomanPS-BoldMT-4f" x="122.314453"/>
      </g>
     </g>
    </g>
   </g>
   <g id="matplotlib.axis_4"/>
   <g id="LineCollection_6">
    <path d="M 158.649669 126.564132 
L 171.94783 126.564132 
" clip-path="url(#pdce4249a81)" style="fill: none; stroke: #000000; stroke-width: 2"/>
    <path d="M 196.644415 127.689975 
L 209.942576 127.689975 
" clip-path="url(#pdce4249a81)" style="fill: none; stroke: #000000; stroke-width: 2"/>
   </g>
   <g id="LineCollection_7">
    <path clip-path="url(#pdce4249a81)" style="fill: none; stroke: #1f77b4; stroke-width: 1.5"/>
    <path clip-path="url(#pdce4249a81)" style="fill: none; stroke: #1f77b4; stroke-width: 1.5"/>
   </g>
   <g id="LineCollection_8">
    <path d="M 158.649669 165.092389 
L 171.94783 165.092389 
" clip-path="url(#pdce4249a81)" style="fill: none; stroke: #1f77b4; stroke-width: 1.5"/>
    <path d="M 196.644415 165.120568 
L 209.942576 165.120568 
" clip-path="url(#pdce4249a81)" style="fill: none; stroke: #1f77b4; stroke-width: 1.5"/>
   </g>
   <g id="LineCollection_9">
    <path d="M 165.29875 165.092389 
L 165.29875 -1 
" clip-path="url(#pdce4249a81)" style="fill: none; stroke: #1f77b4; stroke-width: 1.5"/>
    <path d="M 203.293496 165.120568 
L 203.293496 -1 
" clip-path="url(#pdce4249a81)" style="fill: none; stroke: #1f77b4; stroke-width: 1.5"/>
   </g>
   <g id="LineCollection_10">
    <path d="M 158.649669 139.64085 
L 171.94783 139.64085 
" clip-path="url(#pdce4249a81)" style="fill: none; stroke-dasharray: 2,3.3; stroke-dashoffset: 0; stroke: #808080; stroke-width: 2"/>
    <path d="M 196.644415 139.445051 
L 209.942576 139.445051 
" clip-path="url(#pdce4249a81)" style="fill: none; stroke-dasharray: 2,3.3; stroke-dashoffset: 0; stroke: #808080; stroke-width: 2"/>
   </g>
   <g id="patch_8">
    <path d="M 148.771035 179.399 
L 148.771035 23.199 
" style="fill: none; stroke: #000000; stroke-width: 0.8; stroke-linejoin: miter; stroke-linecap: square"/>
   </g>
   <g id="patch_9">
    <path d="M 219.82121 179.399 
L 219.82121 23.199 
" style="fill: none; stroke: #000000; stroke-width: 0.8; stroke-linejoin: miter; stroke-linecap: square"/>
   </g>
   <g id="patch_10">
    <path d="M 148.771035 179.399 
L 219.82121 179.399 
" style="fill: none; stroke: #000000; stroke-width: 0.8; stroke-linejoin: miter; stroke-linecap: square"/>
   </g>
   <g id="patch_11">
    <path d="M 148.771035 23.199 
L 219.82121 23.199 
" style="fill: none; stroke: #000000; stroke-width: 0.8; stroke-linejoin: miter; stroke-linecap: square"/>
   </g>
   <g id="text_13">
    <!-- 281 -->
    <g transform="translate(157.79875 39.183952) scale(0.1 -0.1)">
     <use xlink:href="#TimesNewRomanPSMT-32"/>
     <use xlink:href="#TimesNewRomanPSMT-38" x="50"/>
     <use xlink:href="#TimesNewRomanPSMT-31" x="100"/>
    </g>
   </g>
   <g id="text_14">
    <!-- 306 -->
    <g transform="translate(195.793496 39.183952) scale(0.1 -0.1)">
     <defs>
      <path id="TimesNewRomanPSMT-36" d="M 2869 4325 
L 2869 4209 
Q 2456 4169 2195 4045 
Q 1934 3922 1679 3669 
Q 1425 3416 1258 3105 
Q 1091 2794 978 2366 
Q 1428 2675 1881 2675 
Q 2316 2675 2634 2325 
Q 2953 1975 2953 1425 
Q 2953 894 2631 456 
Q 2244 -75 1606 -75 
Q 1172 -75 869 213 
Q 275 772 275 1663 
Q 275 2231 503 2743 
Q 731 3256 1154 3653 
Q 1578 4050 1965 4187 
Q 2353 4325 2688 4325 
L 2869 4325 
z
M 925 2138 
Q 869 1716 869 1456 
Q 869 1156 980 804 
Q 1091 453 1309 247 
Q 1469 100 1697 100 
Q 1969 100 2183 356 
Q 2397 613 2397 1088 
Q 2397 1622 2184 2012 
Q 1972 2403 1581 2403 
Q 1463 2403 1327 2353 
Q 1191 2303 925 2138 
z
" transform="scale(0.015625)"/>
     </defs>
     <use xlink:href="#TimesNewRomanPSMT-33"/>
     <use xlink:href="#TimesNewRomanPSMT-30" x="50"/>
     <use xlink:href="#TimesNewRomanPSMT-36" x="100"/>
    </g>
   </g>
   <g id="text_15">
    <!-- 4 Vessels -->
    <g transform="translate(157.823748 17.199) scale(0.144 -0.144)">
     <defs>
      <path id="TimesNewRomanPSMT-34" d="M 2978 1563 
L 2978 1119 
L 2409 1119 
L 2409 0 
L 1894 0 
L 1894 1119 
L 100 1119 
L 100 1519 
L 2066 4325 
L 2409 4325 
L 2409 1563 
L 2978 1563 
z
M 1894 1563 
L 1894 3666 
L 406 1563 
L 1894 1563 
z
" transform="scale(0.015625)"/>
     </defs>
     <use xlink:href="#TimesNewRomanPSMT-34"/>
     <use xlink:href="#TimesNewRomanPSMT-20" x="50"/>
     <use xlink:href="#TimesNewRomanPSMT-56" x="73.25"/>
     <use xlink:href="#TimesNewRomanPSMT-65" x="134.341797"/>
     <use xlink:href="#TimesNewRomanPSMT-73" x="178.726562"/>
     <use xlink:href="#TimesNewRomanPSMT-73" x="217.642578"/>
     <use xlink:href="#TimesNewRomanPSMT-65" x="256.558594"/>
     <use xlink:href="#TimesNewRomanPSMT-6c" x="300.943359"/>
     <use xlink:href="#TimesNewRomanPSMT-73" x="328.726562"/>
    </g>
   </g>
  </g>
  <g id="axes_3">
   <g id="patch_12">
    <path d="M 245.350977 179.399 
L 316.401152 179.399 
L 316.401152 23.199 
L 245.350977 23.199 
z
" style="fill: #ffffff"/>
   </g>
   <g id="PolyCollection_5">
    <path d="M 266.41718 166.214157 
L 257.340204 166.214157 
L 254.710489 160.714628 
L 251.901162 155.2151 
L 249.624724 149.715571 
L 248.58053 144.216042 
L 249.100044 138.716514 
L 250.966367 133.216985 
L 253.543393 127.717456 
L 256.115899 122.217927 
L 258.198449 116.718399 
L 259.63716 111.21887 
L 260.515224 105.719341 
L 260.998497 100.219812 
L 261.236763 94.720284 
L 261.339323 89.220755 
L 261.38305 83.721226 
L 261.41872 78.221698 
L 261.471857 72.722169 
L 261.546151 67.22264 
L 261.631607 61.723111 
L 261.713808 56.223583 
L 261.781018 50.724054 
L 261.827922 45.224525 
L 261.855772 39.724996 
L 261.869717 34.225468 
L 261.875358 28.725939 
L 261.876455 23.22641 
L 261.874277 17.726882 
L 261.868149 12.227353 
L 261.856913 6.727824 
L 261.841115 1.228295 
L 261.824694 -4.271233 
L 261.814084 -9.770762 
L 261.814327 -15.270291 
L 261.825302 -20.76982 
L 261.841817 -26.269348 
L 261.857486 -31.768877 
L 261.868537 -37.268406 
L 261.874636 -42.767934 
L 261.877304 -48.267463 
L 261.878112 -53.766992 
L 261.877796 -59.266521 
L 261.876043 -64.766049 
L 261.871571 -70.265578 
L 261.862665 -75.765107 
L 261.848647 -81.264636 
L 261.831795 -86.764164 
L 261.817744 -92.263693 
L 261.812739 -97.763222 
L 261.819268 -103.26275 
L 261.834112 -108.762279 
L 261.850846 -114.261808 
L 261.864209 -119.761337 
L 261.87242 -125.260865 
L 261.87643 -130.760394 
L 261.878013 -136.259923 
L 261.878522 -141.759452 
L 261.878656 -147.25898 
L 261.878685 -152.758509 
L 261.878691 -158.258038 
L 261.878691 -163.757566 
L 261.878692 -169.257095 
L 261.878692 -174.756624 
L 261.878692 -180.256153 
L 261.878692 -185.755681 
L 261.878692 -191.25521 
L 261.878692 -196.754739 
L 261.878692 -202.254268 
L 261.878692 -207.753796 
L 261.878692 -213.253325 
L 261.878692 -218.752854 
L 261.878692 -224.252382 
L 261.878692 -229.751911 
L 261.878692 -235.25144 
L 261.878692 -240.750969 
L 261.878692 -246.250497 
L 261.878692 -251.750026 
L 261.878692 -257.249555 
L 261.878692 -262.749084 
L 261.878692 -268.248612 
L 261.878692 -273.748141 
L 261.878692 -279.24767 
L 261.878692 -284.747198 
L 261.878692 -290.246727 
L 261.878692 -295.746256 
L 261.878692 -301.245785 
L 261.878692 -306.745313 
L 261.878691 -312.244842 
L 261.878691 -317.744371 
L 261.878685 -323.2439 
L 261.878652 -328.743428 
L 261.878504 -334.242957 
L 261.877949 -339.742486 
L 261.876251 -345.242014 
L 261.872007 -350.741543 
L 261.86345 -356.241072 
L 261.849755 -361.740601 
L 261.832948 -367.240129 
L 261.818484 -372.739658 
L 261.81271 -378.239187 
L 261.944673 -378.239187 
L 261.944673 -378.239187 
L 261.938899 -372.739658 
L 261.924435 -367.240129 
L 261.907629 -361.740601 
L 261.893933 -356.241072 
L 261.885376 -350.741543 
L 261.881132 -345.242014 
L 261.879434 -339.742486 
L 261.878879 -334.242957 
L 261.878731 -328.743428 
L 261.878699 -323.2439 
L 261.878693 -317.744371 
L 261.878692 -312.244842 
L 261.878692 -306.745313 
L 261.878692 -301.245785 
L 261.878692 -295.746256 
L 261.878692 -290.246727 
L 261.878692 -284.747198 
L 261.878692 -279.24767 
L 261.878692 -273.748141 
L 261.878692 -268.248612 
L 261.878692 -262.749084 
L 261.878692 -257.249555 
L 261.878692 -251.750026 
L 261.878692 -246.250497 
L 261.878692 -240.750969 
L 261.878692 -235.25144 
L 261.878692 -229.751911 
L 261.878692 -224.252382 
L 261.878692 -218.752854 
L 261.878692 -213.253325 
L 261.878692 -207.753796 
L 261.878692 -202.254268 
L 261.878692 -196.754739 
L 261.878692 -191.25521 
L 261.878692 -185.755681 
L 261.878692 -180.256153 
L 261.878692 -174.756624 
L 261.878692 -169.257095 
L 261.878692 -163.757566 
L 261.878692 -158.258038 
L 261.878698 -152.758509 
L 261.878727 -147.25898 
L 261.878861 -141.759452 
L 261.87937 -136.259923 
L 261.880953 -130.760394 
L 261.884963 -125.260865 
L 261.893174 -119.761337 
L 261.906538 -114.261808 
L 261.923271 -108.762279 
L 261.938115 -103.26275 
L 261.944645 -97.763222 
L 261.93964 -92.263693 
L 261.925588 -86.764164 
L 261.908736 -81.264636 
L 261.894719 -75.765107 
L 261.885812 -70.265578 
L 261.88134 -64.766049 
L 261.879588 -59.266521 
L 261.879271 -53.766992 
L 261.88008 -48.267463 
L 261.882747 -42.767934 
L 261.888846 -37.268406 
L 261.899897 -31.768877 
L 261.915566 -26.269348 
L 261.932082 -20.76982 
L 261.943056 -15.270291 
L 261.943299 -9.770762 
L 261.932689 -4.271233 
L 261.916268 1.228295 
L 261.90047 6.727824 
L 261.889234 12.227353 
L 261.883107 17.726882 
L 261.880928 23.22641 
L 261.882025 28.725939 
L 261.887666 34.225468 
L 261.901611 39.724996 
L 261.929461 45.224525 
L 261.976365 50.724054 
L 262.043575 56.223583 
L 262.125776 61.723111 
L 262.211232 67.22264 
L 262.285526 72.722169 
L 262.338664 78.221698 
L 262.374333 83.721226 
L 262.418061 89.220755 
L 262.520621 94.720284 
L 262.758886 100.219812 
L 263.242159 105.719341 
L 264.120223 111.21887 
L 265.558934 116.718399 
L 267.641484 122.217927 
L 270.21399 127.717456 
L 272.791016 133.216985 
L 274.65734 138.716514 
L 275.176853 144.216042 
L 274.132659 149.715571 
L 271.856221 155.2151 
L 269.046894 160.714628 
L 266.41718 166.214157 
z
" clip-path="url(#pa9497401ba)" style="fill: #0080ff; fill-opacity: 0.3"/>
   </g>
   <g id="PolyCollection_6">
    <path d="M 303.342184 167.077279 
L 296.404691 167.077279 
L 294.853641 163.242401 
L 293.019271 159.407522 
L 291.049672 155.572644 
L 289.171778 151.737765 
L 287.65246 147.902887 
L 286.735558 144.068008 
L 286.575276 140.23313 
L 287.191189 136.398251 
L 288.462912 132.563373 
L 290.166568 128.728494 
L 292.038417 124.893616 
L 293.841288 121.058737 
L 295.410935 117.223859 
L 296.670715 113.38898 
L 297.617754 109.554102 
L 298.294151 105.719223 
L 298.758445 101.884344 
L 299.066792 98.049466 
L 299.265214 94.214587 
L 299.388971 90.379709 
L 299.464228 86.54483 
L 299.509324 82.709952 
L 299.53553 78.875073 
L 299.548351 75.040195 
L 299.549914 71.205316 
L 299.541876 67.370438 
L 299.527608 63.535559 
L 299.512754 59.700681 
L 299.504092 55.865802 
L 299.507375 52.030924 
L 299.525166 48.196045 
L 299.555619 44.361167 
L 299.592916 40.526288 
L 299.629348 36.69141 
L 299.658281 32.856531 
L 299.676561 29.021652 
L 299.685119 25.186774 
L 299.687585 21.351895 
L 299.687958 17.517017 
L 299.688932 13.682138 
L 299.691713 9.84726 
L 299.696913 6.012381 
L 299.705226 2.177503 
L 299.717084 -1.657376 
L 299.731606 -5.492254 
L 299.745998 -9.327133 
L 299.756317 -13.162011 
L 299.759432 -16.99689 
L 299.755049 -20.831768 
L 299.74642 -24.666647 
L 299.739117 -28.501525 
L 299.738392 -32.336404 
L 299.746547 -36.171282 
L 299.76176 -40.006161 
L 299.77893 -43.84104 
L 299.791978 -47.675918 
L 299.796417 -51.510797 
L 299.791054 -55.345675 
L 299.778346 -59.180554 
L 299.763418 -63.015432 
L 299.752206 -66.850311 
L 299.749374 -70.685189 
L 299.756776 -74.520068 
L 299.77307 -78.354946 
L 299.794581 -82.189825 
L 299.816913 -86.024703 
L 299.836497 -89.859582 
L 299.851441 -93.69446 
L 299.861511 -97.529339 
L 299.867553 -101.364217 
L 299.870797 -105.199096 
L 299.872361 -109.033974 
L 299.873039 -112.868853 
L 299.873303 -116.703732 
L 299.873397 -120.53861 
L 299.873426 -124.373489 
L 299.873435 -128.208367 
L 299.873437 -132.043246 
L 299.873437 -135.878124 
L 299.873438 -139.713003 
L 299.873438 -143.547881 
L 299.873438 -147.38276 
L 299.873437 -151.217638 
L 299.873437 -155.052517 
L 299.873434 -158.887395 
L 299.873424 -162.722274 
L 299.87339 -166.557152 
L 299.873286 -170.392031 
L 299.873004 -174.226909 
L 299.872317 -178.061788 
L 299.870816 -181.896666 
L 299.867885 -185.731545 
L 299.8628 -189.566423 
L 299.854995 -193.401302 
L 299.844509 -197.236181 
L 299.832381 -201.071059 
L 299.820714 -204.905938 
L 299.812178 -208.740816 
L 299.809036 -212.575695 
L 299.937839 -212.575695 
L 299.937839 -212.575695 
L 299.934697 -208.740816 
L 299.926161 -204.905938 
L 299.914495 -201.071059 
L 299.902366 -197.236181 
L 299.89188 -193.401302 
L 299.884076 -189.566423 
L 299.87899 -185.731545 
L 299.876059 -181.896666 
L 299.874558 -178.061788 
L 299.873871 -174.226909 
L 299.873589 -170.392031 
L 299.873486 -166.557152 
L 299.873451 -162.722274 
L 299.873441 -158.887395 
L 299.873438 -155.052517 
L 299.873438 -151.217638 
L 299.873438 -147.38276 
L 299.873438 -143.547881 
L 299.873438 -139.713003 
L 299.873438 -135.878124 
L 299.873438 -132.043246 
L 299.87344 -128.208367 
L 299.873449 -124.373489 
L 299.873479 -120.53861 
L 299.873572 -116.703732 
L 299.873837 -112.868853 
L 299.874515 -109.033974 
L 299.876078 -105.199096 
L 299.879322 -101.364217 
L 299.885364 -97.529339 
L 299.895434 -93.69446 
L 299.910378 -89.859582 
L 299.929962 -86.024703 
L 299.952294 -82.189825 
L 299.973805 -78.354946 
L 299.990099 -74.520068 
L 299.997501 -70.685189 
L 299.994669 -66.850311 
L 299.983457 -63.015432 
L 299.968529 -59.180554 
L 299.955821 -55.345675 
L 299.950459 -51.510797 
L 299.954897 -47.675918 
L 299.967946 -43.84104 
L 299.985115 -40.006161 
L 300.000328 -36.171282 
L 300.008483 -32.336404 
L 300.007758 -28.501525 
L 300.000455 -24.666647 
L 299.991827 -20.831768 
L 299.987443 -16.99689 
L 299.990558 -13.162011 
L 300.000877 -9.327133 
L 300.01527 -5.492254 
L 300.029791 -1.657376 
L 300.041649 2.177503 
L 300.049962 6.012381 
L 300.055162 9.84726 
L 300.057943 13.682138 
L 300.058917 17.517017 
L 300.059291 21.351895 
L 300.061756 25.186774 
L 300.070314 29.021652 
L 300.088594 32.856531 
L 300.117527 36.69141 
L 300.153959 40.526288 
L 300.191256 44.361167 
L 300.22171 48.196045 
L 300.2395 52.030924 
L 300.242784 55.865802 
L 300.234121 59.700681 
L 300.219268 63.535559 
L 300.205 67.370438 
L 300.196961 71.205316 
L 300.198524 75.040195 
L 300.211345 78.875073 
L 300.237551 82.709952 
L 300.282647 86.54483 
L 300.357905 90.379709 
L 300.481661 94.214587 
L 300.680083 98.049466 
L 300.98843 101.884344 
L 301.452725 105.719223 
L 302.129121 109.554102 
L 303.076161 113.38898 
L 304.33594 117.223859 
L 305.905587 121.058737 
L 307.708458 124.893616 
L 309.580307 128.728494 
L 311.283963 132.563373 
L 312.555686 136.398251 
L 313.171599 140.23313 
L 313.011317 144.068008 
L 312.094415 147.902887 
L 310.575097 151.737765 
L 308.697203 155.572644 
L 306.727604 159.407522 
L 304.893234 163.242401 
L 303.342184 167.077279 
z
" clip-path="url(#pa9497401ba)" style="fill: #ff8000; fill-opacity: 0.3"/>
   </g>
   <g id="matplotlib.axis_5">
    <g id="xtick_5">
     <g id="line2d_9">
      <g>
       <use xlink:href="#m2b1417d1fd" x="261.878692" y="179.399" style="stroke: #000000; stroke-width: 0.8"/>
      </g>
     </g>
     <g id="text_16">
      <!-- MSR -->
      <g transform="translate(235.212442 194.34525) scale(0.12 -0.12)">
       <use xlink:href="#TimesNewRomanPS-BoldMT-4d"/>
       <use xlink:href="#TimesNewRomanPS-BoldMT-53" x="94.384766"/>
       <use xlink:href="#TimesNewRomanPS-BoldMT-52" x="150"/>
      </g>
     </g>
    </g>
    <g id="xtick_6">
     <g id="line2d_10">
      <g>
       <use xlink:href="#m2b1417d1fd" x="299.873438" y="179.399" style="stroke: #000000; stroke-width: 0.8"/>
      </g>
     </g>
     <g id="text_17">
      <!-- SBO -->
      <g transform="translate(275.862188 194.34525) scale(0.12 -0.12)">
       <use xlink:href="#TimesNewRomanPS-BoldMT-53"/>
       <use xlink:href="#TimesNewRomanPS-BoldMT-42" x="55.615234"/>
       <use xlink:href="#TimesNewRomanPS-BoldMT-4f" x="122.314453"/>
      </g>
     </g>
    </g>
   </g>
   <g id="matplotlib.axis_6"/>
   <g id="LineCollection_11">
    <path d="M 255.229611 136.729001 
L 268.527772 136.729001 
" clip-path="url(#pa9497401ba)" style="fill: none; stroke: #000000; stroke-width: 2"/>
    <path d="M 293.224357 132.092042 
L 306.522518 132.092042 
" clip-path="url(#pa9497401ba)" style="fill: none; stroke: #000000; stroke-width: 2"/>
   </g>
   <g id="LineCollection_12">
    <path clip-path="url(#pa9497401ba)" style="fill: none; stroke: #1f77b4; stroke-width: 1.5"/>
    <path clip-path="url(#pa9497401ba)" style="fill: none; stroke: #1f77b4; stroke-width: 1.5"/>
   </g>
   <g id="LineCollection_13">
    <path d="M 255.229611 166.214157 
L 268.527772 166.214157 
" clip-path="url(#pa9497401ba)" style="fill: none; stroke: #1f77b4; stroke-width: 1.5"/>
    <path d="M 293.224357 167.077279 
L 306.522518 167.077279 
" clip-path="url(#pa9497401ba)" style="fill: none; stroke: #1f77b4; stroke-width: 1.5"/>
   </g>
   <g id="LineCollection_14">
    <path d="M 261.878692 166.214157 
L 261.878692 -1 
" clip-path="url(#pa9497401ba)" style="fill: none; stroke: #1f77b4; stroke-width: 1.5"/>
    <path d="M 299.873438 167.077279 
L 299.873438 -1 
" clip-path="url(#pa9497401ba)" style="fill: none; stroke: #1f77b4; stroke-width: 1.5"/>
   </g>
   <g id="LineCollection_15">
    <path d="M 255.229611 142.567925 
L 268.527772 142.567925 
" clip-path="url(#pa9497401ba)" style="fill: none; stroke-dasharray: 2,3.3; stroke-dashoffset: 0; stroke: #808080; stroke-width: 2"/>
    <path d="M 293.224357 139.865571 
L 306.522518 139.865571 
" clip-path="url(#pa9497401ba)" style="fill: none; stroke-dasharray: 2,3.3; stroke-dashoffset: 0; stroke: #808080; stroke-width: 2"/>
   </g>
   <g id="patch_13">
    <path d="M 245.350977 179.399 
L 245.350977 23.199 
" style="fill: none; stroke: #000000; stroke-width: 0.8; stroke-linejoin: miter; stroke-linecap: square"/>
   </g>
   <g id="patch_14">
    <path d="M 316.401152 179.399 
L 316.401152 23.199 
" style="fill: none; stroke: #000000; stroke-width: 0.8; stroke-linejoin: miter; stroke-linecap: square"/>
   </g>
   <g id="patch_15">
    <path d="M 245.350977 179.399 
L 316.401152 179.399 
" style="fill: none; stroke: #000000; stroke-width: 0.8; stroke-linejoin: miter; stroke-linecap: square"/>
   </g>
   <g id="patch_16">
    <path d="M 245.350977 23.199 
L 316.401152 23.199 
" style="fill: none; stroke: #000000; stroke-width: 0.8; stroke-linejoin: miter; stroke-linecap: square"/>
   </g>
   <g id="text_18">
    <!-- 265 -->
    <g transform="translate(254.378692 39.183952) scale(0.1 -0.1)">
     <use xlink:href="#TimesNewRomanPSMT-32"/>
     <use xlink:href="#TimesNewRomanPSMT-36" x="50"/>
     <use xlink:href="#TimesNewRomanPSMT-35" x="100"/>
    </g>
   </g>
   <g id="text_19">
    <!-- 295 -->
    <g transform="translate(292.373438 39.183952) scale(0.1 -0.1)">
     <use xlink:href="#TimesNewRomanPSMT-32"/>
     <use xlink:href="#TimesNewRomanPSMT-39" x="50"/>
     <use xlink:href="#TimesNewRomanPSMT-35" x="100"/>
    </g>
   </g>
   <g id="text_20">
    <!-- 5 Vessels -->
    <g transform="translate(254.40369 17.199) scale(0.144 -0.144)">
     <use xlink:href="#TimesNewRomanPSMT-35"/>
     <use xlink:href="#TimesNewRomanPSMT-20" x="50"/>
     <use xlink:href="#TimesNewRomanPSMT-56" x="73.25"/>
     <use xlink:href="#TimesNewRomanPSMT-65" x="134.341797"/>
     <use xlink:href="#TimesNewRomanPSMT-73" x="178.726562"/>
     <use xlink:href="#TimesNewRomanPSMT-73" x="217.642578"/>
     <use xlink:href="#TimesNewRomanPSMT-65" x="256.558594"/>
     <use xlink:href="#TimesNewRomanPSMT-6c" x="300.943359"/>
     <use xlink:href="#TimesNewRomanPSMT-73" x="328.726562"/>
    </g>
   </g>
  </g>
  <g id="axes_4">
   <g id="patch_17">
    <path d="M 341.930919 179.399 
L 412.981094 179.399 
L 412.981094 23.199 
L 341.930919 23.199 
z
" style="fill: #ffffff"/>
   </g>
   <g id="PolyCollection_7">
    <path d="M 360.444389 166.526863 
L 356.472877 166.526863 
L 355.727593 164.700463 
L 354.849251 162.874062 
L 353.840293 161.047661 
L 352.701119 159.221261 
L 351.436315 157.39486 
L 350.070696 155.56846 
L 348.668281 153.742059 
L 347.339791 151.915658 
L 346.227389 150.089258 
L 345.469288 148.262857 
L 345.160472 146.436457 
L 345.327956 144.610056 
L 345.929206 142.783655 
L 346.869765 140.957255 
L 348.02942 139.130854 
L 349.287232 137.304453 
L 350.540728 135.478053 
L 351.718388 133.651652 
L 352.784837 131.825252 
L 353.736815 129.998851 
L 354.589428 128.17245 
L 355.357713 126.34605 
L 356.043228 124.519649 
L 356.633224 122.693249 
L 357.111284 120.866848 
L 357.470583 119.040447 
L 357.720578 117.214047 
L 357.884198 115.387646 
L 357.989327 113.561246 
L 358.060591 111.734845 
L 358.115177 109.908444 
L 358.162751 108.082044 
L 358.20731 106.255643 
L 358.24897 104.429242 
L 358.285178 102.602842 
L 358.31198 100.776441 
L 358.325911 98.950041 
L 358.326094 97.12364 
L 358.315392 95.297239 
L 358.29972 93.470839 
L 358.285776 91.644438 
L 358.278496 89.818038 
L 358.279622 87.991637 
L 358.28784 86.165236 
L 358.299826 84.338836 
L 358.31123 82.512435 
L 358.317361 80.686035 
L 358.314148 78.859634 
L 358.299835 77.033233 
L 358.276776 75.206833 
L 358.251862 73.380432 
L 358.234473 71.554032 
L 358.232508 69.727631 
L 358.248583 67.90123 
L 358.278665 66.07483 
L 358.31396 64.248429 
L 358.344959 62.422028 
L 358.365435 60.595628 
L 358.374482 58.769227 
L 358.37594 56.942827 
L 358.375853 55.116426 
L 358.379384 53.290025 
L 358.388718 51.463625 
L 358.402771 49.637224 
L 358.418483 47.810824 
L 358.432662 45.984423 
L 358.443255 44.158022 
L 358.449555 42.331622 
L 358.451634 40.505221 
L 358.44962 38.678821 
L 358.443392 36.85242 
L 358.432883 35.026019 
L 358.418819 33.199619 
L 358.403342 31.373218 
L 358.389919 29.546817 
L 358.382266 27.720417 
L 358.382743 25.894016 
L 358.391201 24.067616 
L 358.405059 22.241215 
L 358.420575 20.414814 
L 358.43446 18.588414 
L 358.444904 16.762013 
L 358.451662 14.935613 
L 358.455468 13.109212 
L 358.457347 11.282811 
L 358.458161 9.456411 
L 358.458457 7.63001 
L 358.458501 5.80361 
L 358.458335 3.977209 
L 358.4578 2.150808 
L 358.456482 0.324408 
L 358.453655 -1.501993 
L 358.448331 -3.328394 
L 358.439569 -5.154794 
L 358.427089 -6.981195 
L 358.411967 -8.807595 
L 358.396903 -10.633996 
L 358.385621 -12.460397 
L 358.38142 -14.286797 
L 358.535847 -14.286797 
L 358.535847 -14.286797 
L 358.531645 -12.460397 
L 358.520364 -10.633996 
L 358.5053 -8.807595 
L 358.490177 -6.981195 
L 358.477698 -5.154794 
L 358.468936 -3.328394 
L 358.463611 -1.501993 
L 358.460785 0.324408 
L 358.459467 2.150808 
L 358.458932 3.977209 
L 358.458766 5.80361 
L 358.458809 7.63001 
L 358.459106 9.456411 
L 358.45992 11.282811 
L 358.461799 13.109212 
L 358.465605 14.935613 
L 358.472362 16.762013 
L 358.482807 18.588414 
L 358.496691 20.414814 
L 358.512208 22.241215 
L 358.526066 24.067616 
L 358.534523 25.894016 
L 358.535 27.720417 
L 358.527347 29.546817 
L 358.513924 31.373218 
L 358.498448 33.199619 
L 358.484383 35.026019 
L 358.473875 36.85242 
L 358.467646 38.678821 
L 358.465633 40.505221 
L 358.467712 42.331622 
L 358.474012 44.158022 
L 358.484604 45.984423 
L 358.498784 47.810824 
L 358.514496 49.637224 
L 358.528548 51.463625 
L 358.537883 53.290025 
L 358.541414 55.116426 
L 358.541326 56.942827 
L 358.542785 58.769227 
L 358.551831 60.595628 
L 358.572307 62.422028 
L 358.603306 64.248429 
L 358.638601 66.07483 
L 358.668684 67.90123 
L 358.684759 69.727631 
L 358.682793 71.554032 
L 358.665404 73.380432 
L 358.640491 75.206833 
L 358.617432 77.033233 
L 358.603118 78.859634 
L 358.599906 80.686035 
L 358.606037 82.512435 
L 358.617441 84.338836 
L 358.629427 86.165236 
L 358.637645 87.991637 
L 358.63877 89.818038 
L 358.631491 91.644438 
L 358.617547 93.470839 
L 358.601874 95.297239 
L 358.591172 97.12364 
L 358.591356 98.950041 
L 358.605286 100.776441 
L 358.632088 102.602842 
L 358.668297 104.429242 
L 358.709957 106.255643 
L 358.754515 108.082044 
L 358.802089 109.908444 
L 358.856676 111.734845 
L 358.927939 113.561246 
L 359.033068 115.387646 
L 359.196688 117.214047 
L 359.446683 119.040447 
L 359.805983 120.866848 
L 360.284042 122.693249 
L 360.874038 124.519649 
L 361.559554 126.34605 
L 362.327839 128.17245 
L 363.180452 129.998851 
L 364.132429 131.825252 
L 365.198879 133.651652 
L 366.376539 135.478053 
L 367.630035 137.304453 
L 368.887846 139.130854 
L 370.047501 140.957255 
L 370.988061 142.783655 
L 371.58931 144.610056 
L 371.756794 146.436457 
L 371.447978 148.262857 
L 370.689877 150.089258 
L 369.577476 151.915658 
L 368.248986 153.742059 
L 366.846571 155.56846 
L 365.480952 157.39486 
L 364.216147 159.221261 
L 363.076974 161.047661 
L 362.068015 162.874062 
L 361.189673 164.700463 
L 360.444389 166.526863 
z
" clip-path="url(#p91d0fcdf7c)" style="fill: #0080ff; fill-opacity: 0.3"/>
   </g>
   <g id="PolyCollection_8">
    <path d="M 403.147887 163.406523 
L 389.758871 163.406523 
L 387.247908 158.596102 
L 385.008341 153.785682 
L 383.531251 148.975262 
L 383.155218 144.164841 
L 383.94592 139.354421 
L 385.681618 134.544001 
L 387.942414 129.73358 
L 390.259781 124.92316 
L 392.263618 120.11274 
L 393.767932 115.302319 
L 394.767968 110.491899 
L 395.370425 105.681479 
L 395.710239 100.871058 
L 395.898082 96.060638 
L 396.006965 91.250218 
L 396.079921 86.439797 
L 396.14001 81.629377 
L 396.19666 76.818957 
L 396.250562 72.008536 
L 396.298582 67.198116 
L 396.337235 62.387696 
L 396.3637 57.577275 
L 396.375663 52.766855 
L 396.371861 47.956435 
L 396.353439 43.146014 
L 396.324703 38.335594 
L 396.292308 33.525174 
L 396.263506 28.714753 
L 396.244704 23.904333 
L 396.24062 19.093913 
L 396.253407 14.283492 
L 396.281543 9.473072 
L 396.319499 4.662652 
L 396.359238 -0.147769 
L 396.393049 -4.958189 
L 396.416013 -9.768609 
L 396.426802 -14.57903 
L 396.427112 -19.38945 
L 396.42072 -24.19987 
L 396.412561 -29.010291 
L 396.407438 -33.820711 
L 396.408321 -38.631131 
L 396.415195 -43.441552 
L 396.425479 -48.251972 
L 396.435812 -53.062392 
L 396.443849 -57.872813 
L 396.448924 -62.683233 
L 396.451585 -67.493653 
L 396.452757 -72.304074 
L 396.453193 -77.114494 
L 396.453331 -81.924914 
L 396.453369 -86.735334 
L 396.453377 -91.545755 
L 396.453379 -96.356175 
L 396.453379 -101.166595 
L 396.453379 -105.977016 
L 396.453379 -110.787436 
L 396.453379 -115.597856 
L 396.453379 -120.408277 
L 396.453378 -125.218697 
L 396.453375 -130.029117 
L 396.453358 -134.839538 
L 396.45329 -139.649958 
L 396.453055 -144.460378 
L 396.452364 -149.270799 
L 396.45064 -154.081219 
L 396.447014 -158.891639 
L 396.440635 -163.70206 
L 396.431396 -168.51248 
L 396.420708 -173.3229 
L 396.411544 -178.133321 
L 396.407223 -182.943741 
L 396.409505 -187.754161 
L 396.417447 -192.564582 
L 396.428024 -197.375002 
L 396.437963 -202.185422 
L 396.445296 -206.995843 
L 396.449697 -211.806263 
L 396.45181 -216.616683 
L 396.452385 -221.427104 
L 396.451709 -226.237524 
L 396.449448 -231.047944 
L 396.444835 -235.858365 
L 396.437269 -240.668785 
L 396.427187 -245.479205 
L 396.416689 -250.289626 
L 396.409095 -255.100046 
L 396.407324 -259.910466 
L 396.412094 -264.720887 
L 396.421419 -269.531307 
L 396.431803 -274.341727 
L 396.440039 -279.152148 
L 396.444221 -283.962568 
L 396.443647 -288.772988 
L 396.438402 -293.583409 
L 396.429431 -298.393829 
L 396.418971 -303.204249 
L 396.410436 -308.01467 
L 396.407132 -312.82509 
L 396.499627 -312.82509 
L 396.499627 -312.82509 
L 396.496322 -308.01467 
L 396.487788 -303.204249 
L 396.477328 -298.393829 
L 396.468356 -293.583409 
L 396.463111 -288.772988 
L 396.462538 -283.962568 
L 396.46672 -279.152148 
L 396.474955 -274.341727 
L 396.485339 -269.531307 
L 396.494665 -264.720887 
L 396.499435 -259.910466 
L 396.497664 -255.100046 
L 396.49007 -250.289626 
L 396.479571 -245.479205 
L 396.46949 -240.668785 
L 396.461923 -235.858365 
L 396.457311 -231.047944 
L 396.45505 -226.237524 
L 396.454374 -221.427104 
L 396.454948 -216.616683 
L 396.457062 -211.806263 
L 396.461462 -206.995843 
L 396.468796 -202.185422 
L 396.478734 -197.375002 
L 396.489312 -192.564582 
L 396.497253 -187.754161 
L 396.499535 -182.943741 
L 396.495215 -178.133321 
L 396.48605 -173.3229 
L 396.475362 -168.51248 
L 396.466123 -163.70206 
L 396.459744 -158.891639 
L 396.456118 -154.081219 
L 396.454395 -149.270799 
L 396.453704 -144.460378 
L 396.453469 -139.649958 
L 396.4534 -134.839538 
L 396.453384 -130.029117 
L 396.45338 -125.218697 
L 396.453379 -120.408277 
L 396.453379 -115.597856 
L 396.453379 -110.787436 
L 396.453379 -105.977016 
L 396.453379 -101.166595 
L 396.45338 -96.356175 
L 396.453381 -91.545755 
L 396.45339 -86.735334 
L 396.453427 -81.924914 
L 396.453565 -77.114494 
L 396.454002 -72.304074 
L 396.455173 -67.493653 
L 396.457834 -62.683233 
L 396.46291 -57.872813 
L 396.470946 -53.062392 
L 396.481279 -48.251972 
L 396.491563 -43.441552 
L 396.498438 -38.631131 
L 396.49932 -33.820711 
L 396.494197 -29.010291 
L 396.486039 -24.19987 
L 396.479647 -19.38945 
L 396.479957 -14.57903 
L 396.490746 -9.768609 
L 396.513709 -4.958189 
L 396.547521 -0.147769 
L 396.587259 4.662652 
L 396.625216 9.473072 
L 396.653351 14.283492 
L 396.666139 19.093913 
L 396.662055 23.904333 
L 396.643253 28.714753 
L 396.614451 33.525174 
L 396.582055 38.335594 
L 396.553319 43.146014 
L 396.534898 47.956435 
L 396.531095 52.766855 
L 396.543058 57.577275 
L 396.569523 62.387696 
L 396.608177 67.198116 
L 396.656196 72.008536 
L 396.710098 76.818957 
L 396.766748 81.629377 
L 396.826838 86.439797 
L 396.899794 91.250218 
L 397.008676 96.060638 
L 397.19652 100.871058 
L 397.536334 105.681479 
L 398.13879 110.491899 
L 399.138826 115.302319 
L 400.64314 120.11274 
L 402.646978 124.92316 
L 404.964345 129.73358 
L 407.22514 134.544001 
L 408.960839 139.354421 
L 409.75154 144.164841 
L 409.375507 148.975262 
L 407.898417 153.785682 
L 405.658851 158.596102 
L 403.147887 163.406523 
z
" clip-path="url(#p91d0fcdf7c)" style="fill: #ff8000; fill-opacity: 0.3"/>
   </g>
   <g id="matplotlib.axis_7">
    <g id="xtick_7">
     <g id="line2d_11">
      <g>
       <use xlink:href="#m2b1417d1fd" x="358.458633" y="179.399" style="stroke: #000000; stroke-width: 0.8"/>
      </g>
     </g>
     <g id="text_21">
      <!-- MSR -->
      <g transform="translate(331.792383 194.34525) scale(0.12 -0.12)">
       <use xlink:href="#TimesNewRomanPS-BoldMT-4d"/>
       <use xlink:href="#TimesNewRomanPS-BoldMT-53" x="94.384766"/>
       <use xlink:href="#TimesNewRomanPS-BoldMT-52" x="150"/>
      </g>
     </g>
    </g>
    <g id="xtick_8">
     <g id="line2d_12">
      <g>
       <use xlink:href="#m2b1417d1fd" x="396.453379" y="179.399" style="stroke: #000000; stroke-width: 0.8"/>
      </g>
     </g>
     <g id="text_22">
      <!-- SBO -->
      <g transform="translate(372.442129 194.34525) scale(0.12 -0.12)">
       <use xlink:href="#TimesNewRomanPS-BoldMT-53"/>
       <use xlink:href="#TimesNewRomanPS-BoldMT-42" x="55.615234"/>
       <use xlink:href="#TimesNewRomanPS-BoldMT-4f" x="122.314453"/>
      </g>
     </g>
    </g>
   </g>
   <g id="matplotlib.axis_8"/>
   <g id="LineCollection_16">
    <path d="M 351.809553 142.616084 
L 365.107714 142.616084 
" clip-path="url(#p91d0fcdf7c)" style="fill: none; stroke: #000000; stroke-width: 2"/>
    <path d="M 389.804299 137.258277 
L 403.10246 137.258277 
" clip-path="url(#p91d0fcdf7c)" style="fill: none; stroke: #000000; stroke-width: 2"/>
   </g>
   <g id="LineCollection_17">
    <path clip-path="url(#p91d0fcdf7c)" style="fill: none; stroke: #1f77b4; stroke-width: 1.5"/>
    <path clip-path="url(#p91d0fcdf7c)" style="fill: none; stroke: #1f77b4; stroke-width: 1.5"/>
   </g>
   <g id="LineCollection_18">
    <path d="M 351.809553 166.526863 
L 365.107714 166.526863 
" clip-path="url(#p91d0fcdf7c)" style="fill: none; stroke: #1f77b4; stroke-width: 1.5"/>
    <path d="M 389.804299 163.406523 
L 403.10246 163.406523 
" clip-path="url(#p91d0fcdf7c)" style="fill: none; stroke: #1f77b4; stroke-width: 1.5"/>
   </g>
   <g id="LineCollection_19">
    <path d="M 358.458633 166.526863 
L 358.458633 -1 
" clip-path="url(#p91d0fcdf7c)" style="fill: none; stroke: #1f77b4; stroke-width: 1.5"/>
    <path d="M 396.453379 163.406523 
L 396.453379 -1 
" clip-path="url(#p91d0fcdf7c)" style="fill: none; stroke: #1f77b4; stroke-width: 1.5"/>
   </g>
   <g id="LineCollection_20">
    <path d="M 351.809553 145.274275 
L 365.107714 145.274275 
" clip-path="url(#p91d0fcdf7c)" style="fill: none; stroke-dasharray: 2,3.3; stroke-dashoffset: 0; stroke: #808080; stroke-width: 2"/>
    <path d="M 389.804299 144.411312 
L 403.10246 144.411312 
" clip-path="url(#p91d0fcdf7c)" style="fill: none; stroke-dasharray: 2,3.3; stroke-dashoffset: 0; stroke: #808080; stroke-width: 2"/>
   </g>
   <g id="patch_18">
    <path d="M 341.930919 179.399 
L 341.930919 23.199 
" style="fill: none; stroke: #000000; stroke-width: 0.8; stroke-linejoin: miter; stroke-linecap: square"/>
   </g>
   <g id="patch_19">
    <path d="M 412.981094 179.399 
L 412.981094 23.199 
" style="fill: none; stroke: #000000; stroke-width: 0.8; stroke-linejoin: miter; stroke-linecap: square"/>
   </g>
   <g id="patch_20">
    <path d="M 341.930919 179.399 
L 412.981094 179.399 
" style="fill: none; stroke: #000000; stroke-width: 0.8; stroke-linejoin: miter; stroke-linecap: square"/>
   </g>
   <g id="patch_21">
    <path d="M 341.930919 23.199 
L 412.981094 23.199 
" style="fill: none; stroke: #000000; stroke-width: 0.8; stroke-linejoin: miter; stroke-linecap: square"/>
   </g>
   <g id="text_23">
    <!-- 348 -->
    <g transform="translate(350.958633 39.183952) scale(0.1 -0.1)">
     <use xlink:href="#TimesNewRomanPSMT-33"/>
     <use xlink:href="#TimesNewRomanPSMT-34" x="50"/>
     <use xlink:href="#TimesNewRomanPSMT-38" x="100"/>
    </g>
   </g>
   <g id="text_24">
    <!-- 389 -->
    <g transform="translate(388.953379 39.183952) scale(0.1 -0.1)">
     <use xlink:href="#TimesNewRomanPSMT-33"/>
     <use xlink:href="#TimesNewRomanPSMT-38" x="50"/>
     <use xlink:href="#TimesNewRomanPSMT-39" x="100"/>
    </g>
   </g>
   <g id="text_25">
    <!-- 6 Vessels -->
    <g transform="translate(350.983631 17.199) scale(0.144 -0.144)">
     <use xlink:href="#TimesNewRomanPSMT-36"/>
     <use xlink:href="#TimesNewRomanPSMT-20" x="50"/>
     <use xlink:href="#TimesNewRomanPSMT-56" x="73.25"/>
     <use xlink:href="#TimesNewRomanPSMT-65" x="134.341797"/>
     <use xlink:href="#TimesNewRomanPSMT-73" x="178.726562"/>
     <use xlink:href="#TimesNewRomanPSMT-73" x="217.642578"/>
     <use xlink:href="#TimesNewRomanPSMT-65" x="256.558594"/>
     <use xlink:href="#TimesNewRomanPSMT-6c" x="300.943359"/>
     <use xlink:href="#TimesNewRomanPSMT-73" x="328.726562"/>
    </g>
   </g>
  </g>
 </g>
 <defs>
  <clipPath id="p10e452c7de">
   <rect x="52.191094" y="23.199" width="71.050175" height="156.2"/>
  </clipPath>
  <clipPath id="pdce4249a81">
   <rect x="148.771035" y="23.199" width="71.050175" height="156.2"/>
  </clipPath>
  <clipPath id="pa9497401ba">
   <rect x="245.350977" y="23.199" width="71.050175" height="156.2"/>
  </clipPath>
  <clipPath id="p91d0fcdf7c">
   <rect x="341.930919" y="23.199" width="71.050175" height="156.2"/>
  </clipPath>
 </defs>
</svg>
