<?xml version="1.0" encoding="utf-8" standalone="no"?>
<!DOCTYPE svg PUBLIC "-//W3C//DTD SVG 1.1//EN"
  "http://www.w3.org/Graphics/SVG/1.1/DTD/svg11.dtd">
<svg xmlns:xlink="http://www.w3.org/1999/xlink" width="420.181094pt" height="204.112125pt" viewBox="0 0 420.181094 204.112125" xmlns="http://www.w3.org/2000/svg" version="1.1">
 <metadata>
  <rdf:RDF xmlns:dc="http://purl.org/dc/elements/1.1/" xmlns:cc="http://creativecommons.org/ns#" xmlns:rdf="http://www.w3.org/1999/02/22-rdf-syntax-ns#">
   <cc:Work>
    <dc:type rdf:resource="http://purl.org/dc/dcmitype/StillImage"/>
    <dc:date>2024-10-31T16:50:59.048871</dc:date>
    <dc:format>image/svg+xml</dc:format>
    <dc:creator>
     <cc:Agent>
      <dc:title>Matplotlib v3.9.0, https://matplotlib.org/</dc:title>
     </cc:Agent>
    </dc:creator>
   </cc:Work>
  </rdf:RDF>
 </metadata>
 <defs>
  <style type="text/css">*{stroke-linejoin: round; stroke-linecap: butt}</style>
 </defs>
 <g id="figure_1">
  <g id="patch_1">
   <path d="M 0 204.112125 
L 420.181094 204.112125 
L 420.181094 0 
L 0 0 
z
" style="fill: #ffffff"/>
  </g>
  <g id="axes_1">
   <g id="patch_2">
    <path d="M 52.191094 179.399 
L 123.241269 179.399 
L 123.241269 23.199 
L 52.191094 23.199 
z
" style="fill: #ffffff"/>
   </g>
   <g id="PolyCollection_1">
    <path d="M 72.188245 163.327845 
L 65.249372 163.327845 
L 64.318413 161.342589 
L 63.282148 159.357332 
L 62.166607 157.372076 
L 61.008038 155.38682 
L 59.851538 153.401564 
L 58.747644 151.416307 
L 57.747067 149.431051 
L 56.894605 147.445795 
L 56.223779 145.460538 
L 55.753663 143.475282 
L 55.488615 141.490026 
L 55.420647 139.50477 
L 55.533368 137.519513 
L 55.806127 135.534257 
L 56.217199 133.549001 
L 56.745397 131.563745 
L 57.370108 129.578488 
L 58.070252 127.593232 
L 58.823009 125.607976 
L 59.603176 123.622719 
L 60.383825 121.637463 
L 61.138373 119.652207 
L 61.84361 117.666951 
L 62.482731 115.681694 
L 63.047357 113.696438 
L 63.537851 111.711182 
L 63.961834 109.725926 
L 64.331378 107.740669 
L 64.659725 105.755413 
L 64.958421 103.770157 
L 65.235517 101.7849 
L 65.495094 99.799644 
L 65.737997 97.814388 
L 65.963322 95.829132 
L 66.170054 93.843875 
L 66.358261 91.858619 
L 66.529526 89.873363 
L 66.686581 87.888107 
L 66.832496 85.90285 
L 66.96986 83.917594 
L 67.100371 81.932338 
L 67.224953 79.947081 
L 67.344234 77.961825 
L 67.459042 75.976569 
L 67.570596 73.991313 
L 67.680231 72.006056 
L 67.788795 70.0208 
L 67.895991 68.035544 
L 68.000018 66.050287 
L 68.097735 64.065031 
L 68.185364 62.079775 
L 68.259516 60.094519 
L 68.318199 58.109262 
L 68.361455 56.124006 
L 68.391386 54.13875 
L 68.411582 52.153494 
L 68.426166 50.168237 
L 68.438802 48.182981 
L 68.452012 46.197725 
L 68.466987 44.212468 
L 68.483859 42.227212 
L 68.502226 40.241956 
L 68.52164 38.2567 
L 68.541858 36.271443 
L 68.562817 34.286187 
L 68.58442 32.300931 
L 68.606326 30.315675 
L 68.627867 28.330418 
L 68.648148 26.345162 
L 68.666265 24.359906 
L 68.681537 22.374649 
L 68.693649 20.389393 
L 68.702675 18.404137 
L 68.708992 16.418881 
L 68.713145 14.433624 
L 68.71571 12.448368 
L 68.717193 10.463112 
L 68.717984 8.477856 
L 68.718345 6.492599 
L 68.718414 4.507343 
L 68.718217 2.522087 
L 68.717671 0.53683 
L 68.71657 -1.448426 
L 68.714567 -3.433682 
L 68.711164 -5.418938 
L 68.705728 -7.404195 
L 68.697555 -9.389451 
L 68.685993 -11.374707 
L 68.670619 -13.359963 
L 68.651441 -15.34522 
L 68.629058 -17.330476 
L 68.60473 -19.315732 
L 68.580317 -21.300989 
L 68.558053 -23.286245 
L 68.540228 -25.271501 
L 68.528813 -27.256757 
L 68.525124 -29.242014 
L 68.529596 -31.22727 
L 68.541702 -33.212526 
L 68.895915 -33.212526 
L 68.895915 -33.212526 
L 68.908021 -31.22727 
L 68.912492 -29.242014 
L 68.908803 -27.256757 
L 68.897389 -25.271501 
L 68.879564 -23.286245 
L 68.8573 -21.300989 
L 68.832886 -19.315732 
L 68.808559 -17.330476 
L 68.786175 -15.34522 
L 68.766997 -13.359963 
L 68.751624 -11.374707 
L 68.740061 -9.389451 
L 68.731888 -7.404195 
L 68.726453 -5.418938 
L 68.72305 -3.433682 
L 68.721047 -1.448426 
L 68.719945 0.53683 
L 68.719399 2.522087 
L 68.719203 4.507343 
L 68.719271 6.492599 
L 68.719632 8.477856 
L 68.720424 10.463112 
L 68.721907 12.448368 
L 68.724471 14.433624 
L 68.728625 16.418881 
L 68.734942 18.404137 
L 68.743968 20.389393 
L 68.75608 22.374649 
L 68.771352 24.359906 
L 68.789469 26.345162 
L 68.809749 28.330418 
L 68.83129 30.315675 
L 68.853196 32.300931 
L 68.8748 34.286187 
L 68.895758 36.271443 
L 68.915977 38.2567 
L 68.93539 40.241956 
L 68.953758 42.227212 
L 68.97063 44.212468 
L 68.985604 46.197725 
L 68.998814 48.182981 
L 69.011451 50.168237 
L 69.026035 52.153494 
L 69.046231 54.13875 
L 69.076161 56.124006 
L 69.119417 58.109262 
L 69.178101 60.094519 
L 69.252252 62.079775 
L 69.339881 64.065031 
L 69.437599 66.050287 
L 69.541626 68.035544 
L 69.648821 70.0208 
L 69.757386 72.006056 
L 69.867021 73.991313 
L 69.978574 75.976569 
L 70.093383 77.961825 
L 70.212663 79.947081 
L 70.337245 81.932338 
L 70.467757 83.917594 
L 70.60512 85.90285 
L 70.751035 87.888107 
L 70.908091 89.873363 
L 71.079355 91.858619 
L 71.267563 93.843875 
L 71.474294 95.829132 
L 71.69962 97.814388 
L 71.942523 99.799644 
L 72.2021 101.7849 
L 72.479196 103.770157 
L 72.777892 105.755413 
L 73.106238 107.740669 
L 73.475782 109.725926 
L 73.899766 111.711182 
L 74.39026 113.696438 
L 74.954885 115.681694 
L 75.594006 117.666951 
L 76.299244 119.652207 
L 77.053792 121.637463 
L 77.83444 123.622719 
L 78.614607 125.607976 
L 79.367364 127.593232 
L 80.067509 129.578488 
L 80.692219 131.563745 
L 81.220417 133.549001 
L 81.631489 135.534257 
L 81.904248 137.519513 
L 82.016969 139.50477 
L 81.949001 141.490026 
L 81.683953 143.475282 
L 81.213838 145.460538 
L 80.543012 147.445795 
L 79.690549 149.431051 
L 78.689972 151.416307 
L 77.586078 153.401564 
L 76.429579 155.38682 
L 75.271009 157.372076 
L 74.155469 159.357332 
L 73.119204 161.342589 
L 72.188245 163.327845 
z
" clip-path="url(#pdcc629f766)" style="fill: #0080ff; fill-opacity: 0.3"/>
   </g>
   <g id="PolyCollection_2">
    <path d="M 109.432898 166.656037 
L 103.99421 166.656037 
L 102.772934 163.559945 
L 101.306983 160.463852 
L 99.670829 157.36776 
L 97.985106 154.271668 
L 96.399753 151.175576 
L 95.063585 148.079483 
L 94.09138 144.983391 
L 93.542106 141.887299 
L 93.415393 138.791206 
L 93.663639 135.695114 
L 94.211909 132.599022 
L 94.978571 129.502929 
L 95.892114 126.406837 
L 96.900619 123.310745 
L 97.97122 120.214652 
L 99.080181 117.11856 
L 100.199493 114.022468 
L 101.288582 110.926375 
L 102.296709 107.830283 
L 103.174566 104.734191 
L 103.888121 101.638099 
L 104.427843 98.542006 
L 104.810353 95.445914 
L 105.072992 92.349822 
L 105.262927 89.253729 
L 105.423354 86.157637 
L 105.581337 83.061545 
L 105.742889 79.965452 
L 105.897828 76.86936 
L 106.031039 73.773268 
L 106.132878 70.677175 
L 106.203202 67.581083 
L 106.248948 64.484991 
L 106.279237 61.388898 
L 106.301853 58.292806 
L 106.322219 55.196714 
L 106.343891 52.100622 
L 106.369338 49.004529 
L 106.400374 45.908437 
L 106.438022 42.812345 
L 106.481864 39.716252 
L 106.529394 36.62016 
L 106.576088 33.524068 
L 106.616494 30.427975 
L 106.645857 27.331883 
L 106.66148 24.235791 
L 106.66338 21.139698 
L 106.654336 18.043606 
L 106.639457 14.947514 
L 106.625119 11.851421 
L 106.617167 8.755329 
L 106.618872 5.659237 
L 106.62968 2.563145 
L 106.645545 -0.532948 
L 106.6607 -3.62904 
L 106.669876 -6.725132 
L 106.670005 -9.821225 
L 106.661044 -12.917317 
L 106.645993 -16.013409 
L 106.630095 -19.109502 
L 106.619177 -22.205594 
L 106.617487 -25.301686 
L 106.626008 -28.397779 
L 106.642251 -31.493871 
L 106.661678 -34.589963 
L 106.679846 -37.686056 
L 106.693994 -40.782148 
L 106.703417 -43.87824 
L 106.708863 -46.974332 
L 106.711615 -50.070425 
L 106.712838 -53.166517 
L 106.713318 -56.262609 
L 106.713485 -59.358702 
L 106.713536 -62.454794 
L 106.71355 -65.550886 
L 106.713553 -68.646979 
L 106.713554 -71.743071 
L 106.713554 -74.839163 
L 106.713554 -77.935256 
L 106.713554 -81.031348 
L 106.713554 -84.12744 
L 106.713554 -87.223533 
L 106.713554 -90.319625 
L 106.713554 -93.415717 
L 106.713553 -96.511809 
L 106.713547 -99.607902 
L 106.713526 -102.703994 
L 106.713451 -105.800086 
L 106.713217 -108.896179 
L 106.712566 -111.992271 
L 106.71097 -115.088363 
L 106.707518 -118.184456 
L 106.700964 -121.280548 
L 106.690101 -124.37664 
L 106.674536 -127.472733 
L 106.655585 -130.568825 
L 106.63664 -133.664917 
L 106.622418 -136.76101 
L 106.617116 -139.857102 
L 106.809993 -139.857102 
L 106.809993 -139.857102 
L 106.80469 -136.76101 
L 106.790468 -133.664917 
L 106.771523 -130.568825 
L 106.752572 -127.472733 
L 106.737008 -124.37664 
L 106.726144 -121.280548 
L 106.71959 -118.184456 
L 106.716138 -115.088363 
L 106.714542 -111.992271 
L 106.713892 -108.896179 
L 106.713657 -105.800086 
L 106.713582 -102.703994 
L 106.713561 -99.607902 
L 106.713556 -96.511809 
L 106.713555 -93.415717 
L 106.713554 -90.319625 
L 106.713554 -87.223533 
L 106.713554 -84.12744 
L 106.713554 -81.031348 
L 106.713554 -77.935256 
L 106.713554 -74.839163 
L 106.713554 -71.743071 
L 106.713555 -68.646979 
L 106.713559 -65.550886 
L 106.713573 -62.454794 
L 106.713624 -59.358702 
L 106.71379 -56.262609 
L 106.71427 -53.166517 
L 106.715493 -50.070425 
L 106.718246 -46.974332 
L 106.723691 -43.87824 
L 106.733115 -40.782148 
L 106.747262 -37.686056 
L 106.76543 -34.589963 
L 106.784858 -31.493871 
L 106.801101 -28.397779 
L 106.809622 -25.301686 
L 106.807931 -22.205594 
L 106.797013 -19.109502 
L 106.781115 -16.013409 
L 106.766064 -12.917317 
L 106.757104 -9.821225 
L 106.757232 -6.725132 
L 106.766409 -3.62904 
L 106.781564 -0.532948 
L 106.797428 2.563145 
L 106.808236 5.659237 
L 106.809942 8.755329 
L 106.80199 11.851421 
L 106.787651 14.947514 
L 106.772772 18.043606 
L 106.763729 21.139698 
L 106.765629 24.235791 
L 106.781252 27.331883 
L 106.810615 30.427975 
L 106.85102 33.524068 
L 106.897714 36.62016 
L 106.945245 39.716252 
L 106.989087 42.812345 
L 107.026734 45.908437 
L 107.057771 49.004529 
L 107.083218 52.100622 
L 107.10489 55.196714 
L 107.125256 58.292806 
L 107.147872 61.388898 
L 107.17816 64.484991 
L 107.223906 67.581083 
L 107.294231 70.677175 
L 107.39607 73.773268 
L 107.529281 76.86936 
L 107.684219 79.965452 
L 107.845771 83.061545 
L 108.003755 86.157637 
L 108.164181 89.253729 
L 108.354117 92.349822 
L 108.616755 95.445914 
L 108.999266 98.542006 
L 109.538988 101.638099 
L 110.252543 104.734191 
L 111.130399 107.830283 
L 112.138526 110.926375 
L 113.227615 114.022468 
L 114.346928 117.11856 
L 115.455889 120.214652 
L 116.526489 123.310745 
L 117.534995 126.406837 
L 118.448537 129.502929 
L 119.2152 132.599022 
L 119.763469 135.695114 
L 120.011715 138.791206 
L 119.885003 141.887299 
L 119.335729 144.983391 
L 118.363523 148.079483 
L 117.027355 151.175576 
L 115.442002 154.271668 
L 113.75628 157.36776 
L 112.120125 160.463852 
L 110.654175 163.559945 
L 109.432898 166.656037 
z
" clip-path="url(#pdcc629f766)" style="fill: #ff8000; fill-opacity: 0.3"/>
   </g>
   <g id="matplotlib.axis_1">
    <g id="xtick_1">
     <g id="line2d_1">
      <defs>
       <path id="me63fc338cc" d="M 0 0 
L 0 3.5 
" style="stroke: #000000; stroke-width: 0.8"/>
      </defs>
      <g>
       <use xlink:href="#me63fc338cc" x="68.718808" y="179.399" style="stroke: #000000; stroke-width: 0.8"/>
      </g>
     </g>
     <g id="text_1">
      <!-- MSR -->
      <g transform="translate(42.052558 194.34525) scale(0.12 -0.12)">
       <defs>
        <path id="TimesNewRomanPS-BoldMT-4d" d="M 3050 1444 
L 4200 4238 
L 5925 4238 
L 5925 4122 
L 5788 4122 
Q 5600 4122 5488 4056 
Q 5409 4013 5363 3909 
Q 5328 3834 5328 3519 
L 5328 725 
Q 5328 400 5362 319 
Q 5397 238 5503 177 
Q 5609 116 5788 116 
L 5925 116 
L 5925 0 
L 3713 0 
L 3713 116 
L 3850 116 
Q 4038 116 4150 181 
Q 4228 225 4275 331 
Q 4309 406 4309 725 
L 4309 3866 
L 2684 0 
L 2609 0 
L 959 3838 
L 959 853 
Q 959 541 975 469 
Q 1016 313 1152 214 
Q 1288 116 1578 116 
L 1578 0 
L 128 0 
L 128 116 
L 172 116 
Q 313 113 434 161 
Q 556 209 618 290 
Q 681 372 716 519 
Q 722 553 722 838 
L 722 3519 
Q 722 3841 687 3920 
Q 653 4000 547 4061 
Q 441 4122 263 4122 
L 128 4122 
L 128 4238 
L 1859 4238 
L 3050 1444 
z
" transform="scale(0.015625)"/>
        <path id="TimesNewRomanPS-BoldMT-53" d="M 3006 4334 
L 3041 2922 
L 2913 2922 
Q 2822 3453 2467 3776 
Q 2113 4100 1700 4100 
Q 1381 4100 1195 3929 
Q 1009 3759 1009 3538 
Q 1009 3397 1075 3288 
Q 1166 3141 1366 2997 
Q 1513 2894 2044 2631 
Q 2788 2266 3047 1941 
Q 3303 1616 3303 1197 
Q 3303 666 2889 283 
Q 2475 -100 1838 -100 
Q 1638 -100 1459 -59 
Q 1281 -19 1013 94 
Q 863 156 766 156 
Q 684 156 593 93 
Q 503 31 447 -97 
L 331 -97 
L 331 1503 
L 447 1503 
Q 584 828 976 473 
Q 1369 119 1822 119 
Q 2172 119 2380 309 
Q 2588 500 2588 753 
Q 2588 903 2508 1043 
Q 2428 1184 2265 1311 
Q 2103 1438 1691 1641 
Q 1113 1925 859 2125 
Q 606 2325 470 2572 
Q 334 2819 334 3116 
Q 334 3622 706 3978 
Q 1078 4334 1644 4334 
Q 1850 4334 2044 4284 
Q 2191 4247 2402 4145 
Q 2613 4044 2697 4044 
Q 2778 4044 2825 4094 
Q 2872 4144 2913 4334 
L 3006 4334 
z
" transform="scale(0.015625)"/>
        <path id="TimesNewRomanPS-BoldMT-52" d="M 1700 1931 
L 1700 744 
Q 1700 400 1742 311 
Q 1784 222 1890 169 
Q 1997 116 2288 116 
L 2288 0 
L 119 0 
L 119 116 
Q 413 116 517 170 
Q 622 225 664 312 
Q 706 400 706 744 
L 706 3494 
Q 706 3838 664 3927 
Q 622 4016 515 4069 
Q 409 4122 119 4122 
L 119 4238 
L 2088 4238 
Q 2856 4238 3212 4131 
Q 3569 4025 3794 3739 
Q 4019 3453 4019 3069 
Q 4019 2600 3681 2294 
Q 3466 2100 3078 2003 
L 4097 569 
Q 4297 291 4381 222 
Q 4509 125 4678 116 
L 4678 0 
L 3344 0 
L 1978 1931 
L 1700 1931 
z
M 1700 4009 
L 1700 2153 
L 1878 2153 
Q 2313 2153 2528 2233 
Q 2744 2313 2867 2520 
Q 2991 2728 2991 3063 
Q 2991 3547 2764 3778 
Q 2538 4009 2034 4009 
L 1700 4009 
z
" transform="scale(0.015625)"/>
       </defs>
       <use xlink:href="#TimesNewRomanPS-BoldMT-4d"/>
       <use xlink:href="#TimesNewRomanPS-BoldMT-53" x="94.384766"/>
       <use xlink:href="#TimesNewRomanPS-BoldMT-52" x="150"/>
      </g>
     </g>
    </g>
    <g id="xtick_2">
     <g id="line2d_2">
      <g>
       <use xlink:href="#me63fc338cc" x="106.713554" y="179.399" style="stroke: #000000; stroke-width: 0.8"/>
      </g>
     </g>
     <g id="text_2">
      <!-- SBO -->
      <g transform="translate(82.702304 194.34525) scale(0.12 -0.12)">
       <defs>
        <path id="TimesNewRomanPS-BoldMT-42" d="M 2847 2247 
Q 3450 2106 3694 1906 
Q 4044 1622 4044 1169 
Q 4044 691 3659 378 
Q 3188 0 2288 0 
L 134 0 
L 134 116 
Q 428 116 533 170 
Q 638 225 680 312 
Q 722 400 722 744 
L 722 3494 
Q 722 3838 680 3927 
Q 638 4016 531 4069 
Q 425 4122 134 4122 
L 134 4238 
L 2166 4238 
Q 2894 4238 3197 4108 
Q 3500 3978 3675 3720 
Q 3850 3463 3850 3172 
Q 3850 2866 3628 2627 
Q 3406 2388 2847 2247 
z
M 1709 2331 
Q 2153 2331 2364 2431 
Q 2575 2531 2687 2712 
Q 2800 2894 2800 3175 
Q 2800 3456 2689 3636 
Q 2578 3816 2372 3909 
Q 2166 4003 1709 4000 
L 1709 2331 
z
M 1709 2088 
L 1709 728 
L 1706 572 
Q 1706 403 1792 317 
Q 1878 231 2047 231 
Q 2297 231 2508 342 
Q 2719 453 2831 664 
Q 2944 875 2944 1134 
Q 2944 1431 2806 1667 
Q 2669 1903 2428 1997 
Q 2188 2091 1709 2088 
z
" transform="scale(0.015625)"/>
        <path id="TimesNewRomanPS-BoldMT-4f" d="M 2472 4297 
Q 3484 4334 4117 3706 
Q 4750 3078 4750 2134 
Q 4750 1328 4278 716 
Q 3653 -97 2513 -97 
Q 1369 -97 744 678 
Q 250 1291 250 2131 
Q 250 3075 892 3704 
Q 1534 4334 2472 4297 
z
M 2509 4097 
Q 1928 4097 1625 3503 
Q 1378 3016 1378 2103 
Q 1378 1019 1759 500 
Q 2025 138 2503 138 
Q 2825 138 3041 294 
Q 3316 494 3469 933 
Q 3622 1372 3622 2078 
Q 3622 2919 3465 3336 
Q 3309 3753 3067 3925 
Q 2825 4097 2509 4097 
z
" transform="scale(0.015625)"/>
       </defs>
       <use xlink:href="#TimesNewRomanPS-BoldMT-53"/>
       <use xlink:href="#TimesNewRomanPS-BoldMT-42" x="55.615234"/>
       <use xlink:href="#TimesNewRomanPS-BoldMT-4f" x="122.314453"/>
      </g>
     </g>
    </g>
   </g>
   <g id="matplotlib.axis_2">
    <g id="ytick_1">
     <g id="line2d_3">
      <defs>
       <path id="m54cc395b45" d="M 0 0 
L -3.5 0 
" style="stroke: #000000; stroke-width: 0.8"/>
      </defs>
      <g>
       <use xlink:href="#m54cc395b45" x="52.191094" y="179.399" style="stroke: #000000; stroke-width: 0.8"/>
      </g>
     </g>
     <g id="text_3">
      <!-- 0 -->
      <g transform="translate(39.191094 183.56525) scale(0.12 -0.12)">
       <defs>
        <path id="TimesNewRomanPSMT-30" d="M 231 2094 
Q 231 2819 450 3342 
Q 669 3866 1031 4122 
Q 1313 4325 1613 4325 
Q 2100 4325 2488 3828 
Q 2972 3213 2972 2159 
Q 2972 1422 2759 906 
Q 2547 391 2217 158 
Q 1888 -75 1581 -75 
Q 975 -75 572 641 
Q 231 1244 231 2094 
z
M 844 2016 
Q 844 1141 1059 588 
Q 1238 122 1591 122 
Q 1759 122 1940 273 
Q 2122 425 2216 781 
Q 2359 1319 2359 2297 
Q 2359 3022 2209 3506 
Q 2097 3866 1919 4016 
Q 1791 4119 1609 4119 
Q 1397 4119 1231 3928 
Q 1006 3669 925 3112 
Q 844 2556 844 2016 
z
" transform="scale(0.015625)"/>
       </defs>
       <use xlink:href="#TimesNewRomanPSMT-30"/>
      </g>
     </g>
    </g>
    <g id="ytick_2">
     <g id="line2d_4">
      <g>
       <use xlink:href="#m54cc395b45" x="52.191094" y="134.123638" style="stroke: #000000; stroke-width: 0.8"/>
      </g>
     </g>
     <g id="text_4">
      <!-- 500 -->
      <g transform="translate(27.191094 138.289888) scale(0.12 -0.12)">
       <defs>
        <path id="TimesNewRomanPSMT-35" d="M 2778 4238 
L 2534 3706 
L 1259 3706 
L 981 3138 
Q 1809 3016 2294 2522 
Q 2709 2097 2709 1522 
Q 2709 1188 2573 903 
Q 2438 619 2231 419 
Q 2025 219 1772 97 
Q 1413 -75 1034 -75 
Q 653 -75 479 54 
Q 306 184 306 341 
Q 306 428 378 495 
Q 450 563 559 563 
Q 641 563 702 538 
Q 763 513 909 409 
Q 1144 247 1384 247 
Q 1750 247 2026 523 
Q 2303 800 2303 1197 
Q 2303 1581 2056 1914 
Q 1809 2247 1375 2428 
Q 1034 2569 447 2591 
L 1259 4238 
L 2778 4238 
z
" transform="scale(0.015625)"/>
       </defs>
       <use xlink:href="#TimesNewRomanPSMT-35"/>
       <use xlink:href="#TimesNewRomanPSMT-30" x="50"/>
       <use xlink:href="#TimesNewRomanPSMT-30" x="100"/>
      </g>
     </g>
    </g>
    <g id="ytick_3">
     <g id="line2d_5">
      <g>
       <use xlink:href="#m54cc395b45" x="52.191094" y="88.848275" style="stroke: #000000; stroke-width: 0.8"/>
      </g>
     </g>
     <g id="text_5">
      <!-- 1000 -->
      <g transform="translate(21.191094 93.014525) scale(0.12 -0.12)">
       <defs>
        <path id="TimesNewRomanPSMT-31" d="M 750 3822 
L 1781 4325 
L 1884 4325 
L 1884 747 
Q 1884 391 1914 303 
Q 1944 216 2037 169 
Q 2131 122 2419 116 
L 2419 0 
L 825 0 
L 825 116 
Q 1125 122 1212 167 
Q 1300 213 1334 289 
Q 1369 366 1369 747 
L 1369 3034 
Q 1369 3497 1338 3628 
Q 1316 3728 1258 3775 
Q 1200 3822 1119 3822 
Q 1003 3822 797 3725 
L 750 3822 
z
" transform="scale(0.015625)"/>
       </defs>
       <use xlink:href="#TimesNewRomanPSMT-31"/>
       <use xlink:href="#TimesNewRomanPSMT-30" x="50"/>
       <use xlink:href="#TimesNewRomanPSMT-30" x="100"/>
       <use xlink:href="#TimesNewRomanPSMT-30" x="150"/>
      </g>
     </g>
    </g>
    <g id="ytick_4">
     <g id="line2d_6">
      <g>
       <use xlink:href="#m54cc395b45" x="52.191094" y="43.572913" style="stroke: #000000; stroke-width: 0.8"/>
      </g>
     </g>
     <g id="text_6">
      <!-- 1500 -->
      <g transform="translate(21.191094 47.739163) scale(0.12 -0.12)">
       <use xlink:href="#TimesNewRomanPSMT-31"/>
       <use xlink:href="#TimesNewRomanPSMT-35" x="50"/>
       <use xlink:href="#TimesNewRomanPSMT-30" x="100"/>
       <use xlink:href="#TimesNewRomanPSMT-30" x="150"/>
      </g>
     </g>
    </g>
    <g id="text_7">
     <!-- TCPA of OS to closest TS (s) -->
     <g transform="translate(14.838125 165.788219) rotate(-90) scale(0.11 -0.11)">
      <defs>
       <path id="TimesNewRomanPSMT-54" d="M 3703 4238 
L 3750 3244 
L 3631 3244 
Q 3597 3506 3538 3619 
Q 3441 3800 3280 3886 
Q 3119 3972 2856 3972 
L 2259 3972 
L 2259 734 
Q 2259 344 2344 247 
Q 2463 116 2709 116 
L 2856 116 
L 2856 0 
L 1059 0 
L 1059 116 
L 1209 116 
Q 1478 116 1591 278 
Q 1659 378 1659 734 
L 1659 3972 
L 1150 3972 
Q 853 3972 728 3928 
Q 566 3869 450 3700 
Q 334 3531 313 3244 
L 194 3244 
L 244 4238 
L 3703 4238 
z
" transform="scale(0.015625)"/>
       <path id="TimesNewRomanPSMT-43" d="M 3853 4334 
L 3950 2894 
L 3853 2894 
Q 3659 3541 3300 3825 
Q 2941 4109 2438 4109 
Q 2016 4109 1675 3895 
Q 1334 3681 1139 3212 
Q 944 2744 944 2047 
Q 944 1472 1128 1050 
Q 1313 628 1683 403 
Q 2053 178 2528 178 
Q 2941 178 3256 354 
Q 3572 531 3950 1056 
L 4047 994 
Q 3728 428 3303 165 
Q 2878 -97 2294 -97 
Q 1241 -97 663 684 
Q 231 1266 231 2053 
Q 231 2688 515 3219 
Q 800 3750 1298 4042 
Q 1797 4334 2388 4334 
Q 2847 4334 3294 4109 
Q 3425 4041 3481 4041 
Q 3566 4041 3628 4100 
Q 3709 4184 3744 4334 
L 3853 4334 
z
" transform="scale(0.015625)"/>
       <path id="TimesNewRomanPSMT-50" d="M 1313 1984 
L 1313 750 
Q 1313 350 1400 253 
Q 1519 116 1759 116 
L 1922 116 
L 1922 0 
L 106 0 
L 106 116 
L 266 116 
Q 534 116 650 291 
Q 713 388 713 750 
L 713 3488 
Q 713 3888 628 3984 
Q 506 4122 266 4122 
L 106 4122 
L 106 4238 
L 1659 4238 
Q 2228 4238 2556 4120 
Q 2884 4003 3109 3725 
Q 3334 3447 3334 3066 
Q 3334 2547 2992 2222 
Q 2650 1897 2025 1897 
Q 1872 1897 1694 1919 
Q 1516 1941 1313 1984 
z
M 1313 2163 
Q 1478 2131 1606 2115 
Q 1734 2100 1825 2100 
Q 2150 2100 2386 2351 
Q 2622 2603 2622 3003 
Q 2622 3278 2509 3514 
Q 2397 3750 2190 3867 
Q 1984 3984 1722 3984 
Q 1563 3984 1313 3925 
L 1313 2163 
z
" transform="scale(0.015625)"/>
       <path id="TimesNewRomanPSMT-41" d="M 2928 1419 
L 1288 1419 
L 1000 750 
Q 894 503 894 381 
Q 894 284 986 211 
Q 1078 138 1384 116 
L 1384 0 
L 50 0 
L 50 116 
Q 316 163 394 238 
Q 553 388 747 847 
L 2238 4334 
L 2347 4334 
L 3822 809 
Q 4000 384 4145 257 
Q 4291 131 4550 116 
L 4550 0 
L 2878 0 
L 2878 116 
Q 3131 128 3220 200 
Q 3309 272 3309 375 
Q 3309 513 3184 809 
L 2928 1419 
z
M 2841 1650 
L 2122 3363 
L 1384 1650 
L 2841 1650 
z
" transform="scale(0.015625)"/>
       <path id="TimesNewRomanPSMT-20" transform="scale(0.015625)"/>
       <path id="TimesNewRomanPSMT-6f" d="M 1600 2947 
Q 2250 2947 2644 2453 
Q 2978 2031 2978 1484 
Q 2978 1100 2793 706 
Q 2609 313 2286 112 
Q 1963 -88 1566 -88 
Q 919 -88 538 428 
Q 216 863 216 1403 
Q 216 1797 411 2186 
Q 606 2575 925 2761 
Q 1244 2947 1600 2947 
z
M 1503 2744 
Q 1338 2744 1170 2645 
Q 1003 2547 900 2300 
Q 797 2053 797 1666 
Q 797 1041 1045 587 
Q 1294 134 1700 134 
Q 2003 134 2200 384 
Q 2397 634 2397 1244 
Q 2397 2006 2069 2444 
Q 1847 2744 1503 2744 
z
" transform="scale(0.015625)"/>
       <path id="TimesNewRomanPSMT-66" d="M 1319 2638 
L 1319 756 
Q 1319 356 1406 250 
Q 1522 113 1716 113 
L 1975 113 
L 1975 0 
L 266 0 
L 266 113 
L 394 113 
Q 519 113 622 175 
Q 725 238 764 344 
Q 803 450 803 756 
L 803 2638 
L 247 2638 
L 247 2863 
L 803 2863 
L 803 3050 
Q 803 3478 940 3775 
Q 1078 4072 1361 4255 
Q 1644 4438 1997 4438 
Q 2325 4438 2600 4225 
Q 2781 4084 2781 3909 
Q 2781 3816 2700 3733 
Q 2619 3650 2525 3650 
Q 2453 3650 2373 3701 
Q 2294 3753 2178 3923 
Q 2063 4094 1966 4153 
Q 1869 4213 1750 4213 
Q 1606 4213 1506 4136 
Q 1406 4059 1362 3898 
Q 1319 3738 1319 3069 
L 1319 2863 
L 2056 2863 
L 2056 2638 
L 1319 2638 
z
" transform="scale(0.015625)"/>
       <path id="TimesNewRomanPSMT-4f" d="M 2341 4334 
Q 3166 4334 3770 3707 
Q 4375 3081 4375 2144 
Q 4375 1178 3765 540 
Q 3156 -97 2291 -97 
Q 1416 -97 820 525 
Q 225 1147 225 2134 
Q 225 3144 913 3781 
Q 1509 4334 2341 4334 
z
M 2281 4106 
Q 1713 4106 1369 3684 
Q 941 3159 941 2147 
Q 941 1109 1384 550 
Q 1725 125 2284 125 
Q 2881 125 3270 590 
Q 3659 1056 3659 2059 
Q 3659 3147 3231 3681 
Q 2888 4106 2281 4106 
z
" transform="scale(0.015625)"/>
       <path id="TimesNewRomanPSMT-53" d="M 2934 4334 
L 2934 2869 
L 2819 2869 
Q 2763 3291 2617 3541 
Q 2472 3791 2203 3937 
Q 1934 4084 1647 4084 
Q 1322 4084 1109 3886 
Q 897 3688 897 3434 
Q 897 3241 1031 3081 
Q 1225 2847 1953 2456 
Q 2547 2138 2764 1967 
Q 2981 1797 3098 1565 
Q 3216 1334 3216 1081 
Q 3216 600 2842 251 
Q 2469 -97 1881 -97 
Q 1697 -97 1534 -69 
Q 1438 -53 1133 45 
Q 828 144 747 144 
Q 669 144 623 97 
Q 578 50 556 -97 
L 441 -97 
L 441 1356 
L 556 1356 
Q 638 900 775 673 
Q 913 447 1195 297 
Q 1478 147 1816 147 
Q 2206 147 2432 353 
Q 2659 559 2659 841 
Q 2659 997 2573 1156 
Q 2488 1316 2306 1453 
Q 2184 1547 1640 1851 
Q 1097 2156 867 2337 
Q 638 2519 519 2737 
Q 400 2956 400 3219 
Q 400 3675 750 4004 
Q 1100 4334 1641 4334 
Q 1978 4334 2356 4169 
Q 2531 4091 2603 4091 
Q 2684 4091 2736 4139 
Q 2788 4188 2819 4334 
L 2934 4334 
z
" transform="scale(0.015625)"/>
       <path id="TimesNewRomanPSMT-74" d="M 1031 3803 
L 1031 2863 
L 1700 2863 
L 1700 2644 
L 1031 2644 
L 1031 788 
Q 1031 509 1111 412 
Q 1191 316 1316 316 
Q 1419 316 1516 380 
Q 1613 444 1666 569 
L 1788 569 
Q 1678 263 1478 108 
Q 1278 -47 1066 -47 
Q 922 -47 784 33 
Q 647 113 581 261 
Q 516 409 516 719 
L 516 2644 
L 63 2644 
L 63 2747 
Q 234 2816 414 2980 
Q 594 3144 734 3369 
Q 806 3488 934 3803 
L 1031 3803 
z
" transform="scale(0.015625)"/>
       <path id="TimesNewRomanPSMT-63" d="M 2631 1088 
Q 2516 522 2178 217 
Q 1841 -88 1431 -88 
Q 944 -88 581 321 
Q 219 731 219 1428 
Q 219 2103 620 2525 
Q 1022 2947 1584 2947 
Q 2006 2947 2278 2723 
Q 2550 2500 2550 2259 
Q 2550 2141 2473 2067 
Q 2397 1994 2259 1994 
Q 2075 1994 1981 2113 
Q 1928 2178 1911 2362 
Q 1894 2547 1784 2644 
Q 1675 2738 1481 2738 
Q 1169 2738 978 2506 
Q 725 2200 725 1697 
Q 725 1184 976 792 
Q 1228 400 1656 400 
Q 1963 400 2206 609 
Q 2378 753 2541 1131 
L 2631 1088 
z
" transform="scale(0.015625)"/>
       <path id="TimesNewRomanPSMT-6c" d="M 1184 4444 
L 1184 647 
Q 1184 378 1223 290 
Q 1263 203 1344 158 
Q 1425 113 1647 113 
L 1647 0 
L 244 0 
L 244 113 
Q 441 113 512 153 
Q 584 194 625 287 
Q 666 381 666 647 
L 666 3247 
Q 666 3731 644 3842 
Q 622 3953 573 3993 
Q 525 4034 450 4034 
Q 369 4034 244 3984 
L 191 4094 
L 1044 4444 
L 1184 4444 
z
" transform="scale(0.015625)"/>
       <path id="TimesNewRomanPSMT-73" d="M 2050 2947 
L 2050 1972 
L 1947 1972 
Q 1828 2431 1642 2597 
Q 1456 2763 1169 2763 
Q 950 2763 815 2647 
Q 681 2531 681 2391 
Q 681 2216 781 2091 
Q 878 1963 1175 1819 
L 1631 1597 
Q 2266 1288 2266 781 
Q 2266 391 1970 151 
Q 1675 -88 1309 -88 
Q 1047 -88 709 6 
Q 606 38 541 38 
Q 469 38 428 -44 
L 325 -44 
L 325 978 
L 428 978 
Q 516 541 762 319 
Q 1009 97 1316 97 
Q 1531 97 1667 223 
Q 1803 350 1803 528 
Q 1803 744 1651 891 
Q 1500 1038 1047 1263 
Q 594 1488 453 1669 
Q 313 1847 313 2119 
Q 313 2472 555 2709 
Q 797 2947 1181 2947 
Q 1350 2947 1591 2875 
Q 1750 2828 1803 2828 
Q 1853 2828 1881 2850 
Q 1909 2872 1947 2947 
L 2050 2947 
z
" transform="scale(0.015625)"/>
       <path id="TimesNewRomanPSMT-65" d="M 681 1784 
Q 678 1147 991 784 
Q 1303 422 1725 422 
Q 2006 422 2214 576 
Q 2422 731 2563 1106 
L 2659 1044 
Q 2594 616 2278 264 
Q 1963 -88 1488 -88 
Q 972 -88 605 314 
Q 238 716 238 1394 
Q 238 2128 614 2539 
Q 991 2950 1559 2950 
Q 2041 2950 2350 2633 
Q 2659 2316 2659 1784 
L 681 1784 
z
M 681 1966 
L 2006 1966 
Q 1991 2241 1941 2353 
Q 1863 2528 1708 2628 
Q 1553 2728 1384 2728 
Q 1125 2728 920 2526 
Q 716 2325 681 1966 
z
" transform="scale(0.015625)"/>
       <path id="TimesNewRomanPSMT-28" d="M 1988 -1253 
L 1988 -1369 
Q 1516 -1131 1200 -813 
Q 750 -359 506 256 
Q 263 872 263 1534 
Q 263 2503 741 3301 
Q 1219 4100 1988 4444 
L 1988 4313 
Q 1603 4100 1356 3731 
Q 1109 3363 987 2797 
Q 866 2231 866 1616 
Q 866 947 969 400 
Q 1050 -31 1165 -292 
Q 1281 -553 1476 -793 
Q 1672 -1034 1988 -1253 
z
" transform="scale(0.015625)"/>
       <path id="TimesNewRomanPSMT-29" d="M 144 4313 
L 144 4444 
Q 619 4209 934 3891 
Q 1381 3434 1625 2820 
Q 1869 2206 1869 1541 
Q 1869 572 1392 -226 
Q 916 -1025 144 -1369 
L 144 -1253 
Q 528 -1038 776 -670 
Q 1025 -303 1145 264 
Q 1266 831 1266 1447 
Q 1266 2113 1163 2663 
Q 1084 3094 967 3353 
Q 850 3613 656 3853 
Q 463 4094 144 4313 
z
" transform="scale(0.015625)"/>
      </defs>
      <use xlink:href="#TimesNewRomanPSMT-54"/>
      <use xlink:href="#TimesNewRomanPSMT-43" x="61.083984"/>
      <use xlink:href="#TimesNewRomanPSMT-50" x="127.783203"/>
      <use xlink:href="#TimesNewRomanPSMT-41" x="174.273438"/>
      <use xlink:href="#TimesNewRomanPSMT-20" x="240.990234"/>
      <use xlink:href="#TimesNewRomanPSMT-6f" x="265.990234"/>
      <use xlink:href="#TimesNewRomanPSMT-66" x="315.990234"/>
      <use xlink:href="#TimesNewRomanPSMT-20" x="349.291016"/>
      <use xlink:href="#TimesNewRomanPSMT-4f" x="374.291016"/>
      <use xlink:href="#TimesNewRomanPSMT-53" x="446.507812"/>
      <use xlink:href="#TimesNewRomanPSMT-20" x="502.123047"/>
      <use xlink:href="#TimesNewRomanPSMT-74" x="527.123047"/>
      <use xlink:href="#TimesNewRomanPSMT-6f" x="554.90625"/>
      <use xlink:href="#TimesNewRomanPSMT-20" x="604.90625"/>
      <use xlink:href="#TimesNewRomanPSMT-63" x="629.90625"/>
      <use xlink:href="#TimesNewRomanPSMT-6c" x="674.291016"/>
      <use xlink:href="#TimesNewRomanPSMT-6f" x="702.074219"/>
      <use xlink:href="#TimesNewRomanPSMT-73" x="752.074219"/>
      <use xlink:href="#TimesNewRomanPSMT-65" x="790.990234"/>
      <use xlink:href="#TimesNewRomanPSMT-73" x="835.375"/>
      <use xlink:href="#TimesNewRomanPSMT-74" x="874.291016"/>
      <use xlink:href="#TimesNewRomanPSMT-20" x="902.074219"/>
      <use xlink:href="#TimesNewRomanPSMT-54" x="925.324219"/>
      <use xlink:href="#TimesNewRomanPSMT-53" x="986.408203"/>
      <use xlink:href="#TimesNewRomanPSMT-20" x="1042.023438"/>
      <use xlink:href="#TimesNewRomanPSMT-28" x="1067.023438"/>
      <use xlink:href="#TimesNewRomanPSMT-73" x="1100.324219"/>
      <use xlink:href="#TimesNewRomanPSMT-29" x="1139.240234"/>
     </g>
    </g>
   </g>
   <g id="LineCollection_1">
    <path d="M 62.069728 128.522023 
L 75.367889 128.522023 
" clip-path="url(#pdcc629f766)" style="fill: none; stroke: #000000; stroke-width: 2"/>
    <path d="M 100.064474 129.758157 
L 113.362635 129.758157 
" clip-path="url(#pdcc629f766)" style="fill: none; stroke: #000000; stroke-width: 2"/>
   </g>
   <g id="LineCollection_2">
    <path clip-path="url(#pdcc629f766)" style="fill: none; stroke: #1f77b4; stroke-width: 1.5"/>
    <path clip-path="url(#pdcc629f766)" style="fill: none; stroke: #1f77b4; stroke-width: 1.5"/>
   </g>
   <g id="LineCollection_3">
    <path d="M 62.069728 163.327845 
L 75.367889 163.327845 
" clip-path="url(#pdcc629f766)" style="fill: none; stroke: #1f77b4; stroke-width: 1.5"/>
    <path d="M 100.064474 166.656037 
L 113.362635 166.656037 
" clip-path="url(#pdcc629f766)" style="fill: none; stroke: #1f77b4; stroke-width: 1.5"/>
   </g>
   <g id="LineCollection_4">
    <path d="M 68.718808 163.327845 
L 68.718808 -1 
" clip-path="url(#pdcc629f766)" style="fill: none; stroke: #1f77b4; stroke-width: 1.5"/>
    <path d="M 106.713554 166.656037 
L 106.713554 -1 
" clip-path="url(#pdcc629f766)" style="fill: none; stroke: #1f77b4; stroke-width: 1.5"/>
   </g>
   <g id="LineCollection_5">
    <path d="M 62.069728 134.648177 
L 75.367889 134.648177 
" clip-path="url(#pdcc629f766)" style="fill: none; stroke-dasharray: 2,3.3; stroke-dashoffset: 0; stroke: #808080; stroke-width: 2"/>
    <path d="M 100.064474 134.879314 
L 113.362635 134.879314 
" clip-path="url(#pdcc629f766)" style="fill: none; stroke-dasharray: 2,3.3; stroke-dashoffset: 0; stroke: #808080; stroke-width: 2"/>
   </g>
   <g id="patch_3">
    <path d="M 52.191094 179.399 
L 52.191094 23.199 
" style="fill: none; stroke: #000000; stroke-width: 0.8; stroke-linejoin: miter; stroke-linecap: square"/>
   </g>
   <g id="patch_4">
    <path d="M 123.241269 179.399 
L 123.241269 23.199 
" style="fill: none; stroke: #000000; stroke-width: 0.8; stroke-linejoin: miter; stroke-linecap: square"/>
   </g>
   <g id="patch_5">
    <path d="M 52.191094 179.399 
L 123.241269 179.399 
" style="fill: none; stroke: #000000; stroke-width: 0.8; stroke-linejoin: miter; stroke-linecap: square"/>
   </g>
   <g id="patch_6">
    <path d="M 52.191094 23.199 
L 123.241269 23.199 
" style="fill: none; stroke: #000000; stroke-width: 0.8; stroke-linejoin: miter; stroke-linecap: square"/>
   </g>
   <g id="text_8">
    <!-- 278 -->
    <g transform="translate(61.218808 39.183952) scale(0.1 -0.1)">
     <defs>
      <path id="TimesNewRomanPSMT-32" d="M 2934 816 
L 2638 0 
L 138 0 
L 138 116 
Q 1241 1122 1691 1759 
Q 2141 2397 2141 2925 
Q 2141 3328 1894 3587 
Q 1647 3847 1303 3847 
Q 991 3847 742 3664 
Q 494 3481 375 3128 
L 259 3128 
Q 338 3706 661 4015 
Q 984 4325 1469 4325 
Q 1984 4325 2329 3994 
Q 2675 3663 2675 3213 
Q 2675 2891 2525 2569 
Q 2294 2063 1775 1497 
Q 997 647 803 472 
L 1909 472 
Q 2247 472 2383 497 
Q 2519 522 2628 598 
Q 2738 675 2819 816 
L 2934 816 
z
" transform="scale(0.015625)"/>
      <path id="TimesNewRomanPSMT-37" d="M 644 4238 
L 2916 4238 
L 2916 4119 
L 1503 -88 
L 1153 -88 
L 2419 3728 
L 1253 3728 
Q 900 3728 750 3644 
Q 488 3500 328 3200 
L 238 3234 
L 644 4238 
z
" transform="scale(0.015625)"/>
      <path id="TimesNewRomanPSMT-38" d="M 1228 2134 
Q 725 2547 579 2797 
Q 434 3047 434 3316 
Q 434 3728 753 4026 
Q 1072 4325 1600 4325 
Q 2113 4325 2425 4047 
Q 2738 3769 2738 3413 
Q 2738 3175 2569 2928 
Q 2400 2681 1866 2347 
Q 2416 1922 2594 1678 
Q 2831 1359 2831 1006 
Q 2831 559 2490 242 
Q 2150 -75 1597 -75 
Q 994 -75 656 303 
Q 388 606 388 966 
Q 388 1247 577 1523 
Q 766 1800 1228 2134 
z
M 1719 2469 
Q 2094 2806 2194 3001 
Q 2294 3197 2294 3444 
Q 2294 3772 2109 3958 
Q 1925 4144 1606 4144 
Q 1288 4144 1088 3959 
Q 888 3775 888 3528 
Q 888 3366 970 3203 
Q 1053 3041 1206 2894 
L 1719 2469 
z
M 1375 2016 
Q 1116 1797 991 1539 
Q 866 1281 866 981 
Q 866 578 1086 336 
Q 1306 94 1647 94 
Q 1984 94 2187 284 
Q 2391 475 2391 747 
Q 2391 972 2272 1150 
Q 2050 1481 1375 2016 
z
" transform="scale(0.015625)"/>
     </defs>
     <use xlink:href="#TimesNewRomanPSMT-32"/>
     <use xlink:href="#TimesNewRomanPSMT-37" x="50"/>
     <use xlink:href="#TimesNewRomanPSMT-38" x="100"/>
    </g>
   </g>
   <g id="text_9">
    <!-- 291 -->
    <g transform="translate(99.213554 39.183952) scale(0.1 -0.1)">
     <defs>
      <path id="TimesNewRomanPSMT-39" d="M 338 -88 
L 338 28 
Q 744 34 1094 217 
Q 1444 400 1770 856 
Q 2097 1313 2225 1859 
Q 1734 1544 1338 1544 
Q 891 1544 572 1889 
Q 253 2234 253 2806 
Q 253 3363 572 3797 
Q 956 4325 1575 4325 
Q 2097 4325 2469 3894 
Q 2925 3359 2925 2575 
Q 2925 1869 2578 1258 
Q 2231 647 1613 244 
Q 1109 -88 516 -88 
L 338 -88 
z
M 2275 2091 
Q 2331 2497 2331 2741 
Q 2331 3044 2228 3395 
Q 2125 3747 1936 3934 
Q 1747 4122 1506 4122 
Q 1228 4122 1018 3872 
Q 809 3622 809 3128 
Q 809 2469 1088 2097 
Q 1291 1828 1588 1828 
Q 1731 1828 1928 1897 
Q 2125 1966 2275 2091 
z
" transform="scale(0.015625)"/>
     </defs>
     <use xlink:href="#TimesNewRomanPSMT-32"/>
     <use xlink:href="#TimesNewRomanPSMT-39" x="50"/>
     <use xlink:href="#TimesNewRomanPSMT-31" x="100"/>
    </g>
   </g>
   <g id="text_10">
    <!-- 3 Vessels -->
    <g transform="translate(61.243806 17.199) scale(0.144 -0.144)">
     <defs>
      <path id="TimesNewRomanPSMT-33" d="M 325 3431 
Q 506 3859 782 4092 
Q 1059 4325 1472 4325 
Q 1981 4325 2253 3994 
Q 2459 3747 2459 3466 
Q 2459 3003 1878 2509 
Q 2269 2356 2469 2072 
Q 2669 1788 2669 1403 
Q 2669 853 2319 450 
Q 1863 -75 997 -75 
Q 569 -75 414 31 
Q 259 138 259 259 
Q 259 350 332 419 
Q 406 488 509 488 
Q 588 488 669 463 
Q 722 447 909 348 
Q 1097 250 1169 231 
Q 1284 197 1416 197 
Q 1734 197 1970 444 
Q 2206 691 2206 1028 
Q 2206 1275 2097 1509 
Q 2016 1684 1919 1775 
Q 1784 1900 1550 2001 
Q 1316 2103 1072 2103 
L 972 2103 
L 972 2197 
Q 1219 2228 1467 2375 
Q 1716 2522 1828 2728 
Q 1941 2934 1941 3181 
Q 1941 3503 1739 3701 
Q 1538 3900 1238 3900 
Q 753 3900 428 3381 
L 325 3431 
z
" transform="scale(0.015625)"/>
      <path id="TimesNewRomanPSMT-56" d="M 4544 4238 
L 4544 4122 
Q 4319 4081 4203 3978 
Q 4038 3825 3909 3509 
L 2431 -97 
L 2316 -97 
L 728 3556 
Q 606 3838 556 3900 
Q 478 3997 364 4051 
Q 250 4106 56 4122 
L 56 4238 
L 1788 4238 
L 1788 4122 
Q 1494 4094 1406 4022 
Q 1319 3950 1319 3838 
Q 1319 3681 1463 3350 
L 2541 866 
L 3541 3319 
Q 3688 3681 3688 3822 
Q 3688 3913 3597 3995 
Q 3506 4078 3291 4113 
Q 3275 4116 3238 4122 
L 3238 4238 
L 4544 4238 
z
" transform="scale(0.015625)"/>
     </defs>
     <use xlink:href="#TimesNewRomanPSMT-33"/>
     <use xlink:href="#TimesNewRomanPSMT-20" x="50"/>
     <use xlink:href="#TimesNewRomanPSMT-56" x="73.25"/>
     <use xlink:href="#TimesNewRomanPSMT-65" x="134.341797"/>
     <use xlink:href="#TimesNewRomanPSMT-73" x="178.726562"/>
     <use xlink:href="#TimesNewRomanPSMT-73" x="217.642578"/>
     <use xlink:href="#TimesNewRomanPSMT-65" x="256.558594"/>
     <use xlink:href="#TimesNewRomanPSMT-6c" x="300.943359"/>
     <use xlink:href="#TimesNewRomanPSMT-73" x="328.726562"/>
    </g>
   </g>
  </g>
  <g id="axes_2">
   <g id="patch_7">
    <path d="M 148.771035 179.399 
L 219.82121 179.399 
L 219.82121 23.199 
L 148.771035 23.199 
z
" style="fill: #ffffff"/>
   </g>
   <g id="PolyCollection_3">
    <path d="M 167.033711 165.092389 
L 163.563789 165.092389 
L 163.102675 164.01894 
L 162.570972 162.945491 
L 161.970365 161.872041 
L 161.305038 160.798592 
L 160.581618 159.725143 
L 159.809083 158.651694 
L 158.998655 157.578244 
L 158.163677 156.504795 
L 157.319424 155.431346 
L 156.482791 154.357897 
L 155.671804 153.284448 
L 154.904942 152.210998 
L 154.200292 151.137549 
L 153.574579 150.0641 
L 153.042146 148.990651 
L 152.61399 147.917202 
L 152.29697 146.843752 
L 152.093322 145.770303 
L 152.000589 144.696854 
L 152.012031 143.623405 
L 152.11745 142.549955 
L 152.304287 141.476506 
L 152.558803 140.403057 
L 152.867134 139.329608 
L 153.216133 138.256159 
L 153.59399 137.182709 
L 153.990687 136.10926 
L 154.398363 135.035811 
L 154.811574 133.962362 
L 155.227375 132.888913 
L 155.645084 131.815463 
L 156.065661 130.742014 
L 156.490736 129.668565 
L 156.921485 128.595116 
L 157.357633 127.521666 
L 157.796889 126.448217 
L 158.234993 125.374768 
L 158.666382 124.301319 
L 159.085281 123.22787 
L 159.486904 122.15442 
L 159.868387 121.080971 
L 160.229199 120.007522 
L 160.570922 118.934073 
L 160.896477 117.860624 
L 161.209091 116.787174 
L 161.511288 115.713725 
L 161.804233 114.640276 
L 162.087568 113.566827 
L 162.35973 112.493377 
L 162.618595 111.419928 
L 162.862188 110.346479 
L 163.089229 109.27303 
L 163.299345 108.199581 
L 163.492931 107.126131 
L 163.670744 106.052682 
L 163.833404 104.979233 
L 163.981 103.905784 
L 164.112941 102.832335 
L 164.228113 101.758885 
L 164.325304 100.685436 
L 164.403765 99.611987 
L 164.46375 98.538538 
L 164.506836 97.465088 
L 164.535953 96.391639 
L 164.555062 95.31819 
L 164.568577 94.244741 
L 164.580661 93.171292 
L 164.594569 92.097842 
L 164.612217 91.024393 
L 164.634051 89.950944 
L 164.659236 88.877495 
L 164.686111 87.804046 
L 164.712738 86.730596 
L 164.737444 85.657147 
L 164.759201 84.583698 
L 164.777794 83.510249 
L 164.793781 82.436799 
L 164.808295 81.36335 
L 164.822769 80.289901 
L 164.838664 79.216452 
L 164.857236 78.143003 
L 164.879383 77.069553 
L 164.905534 75.996104 
L 164.935598 74.922655 
L 164.96895 73.849206 
L 165.004461 72.775757 
L 165.040584 71.702307 
L 165.075511 70.628858 
L 165.107373 69.555409 
L 165.134493 68.48196 
L 165.155621 67.408511 
L 165.170134 66.335061 
L 165.178149 65.261612 
L 165.180523 64.188163 
L 165.178747 63.114714 
L 165.174721 62.041264 
L 165.170475 60.967815 
L 165.16786 59.894366 
L 165.168283 58.820917 
L 165.429216 58.820917 
L 165.429216 58.820917 
L 165.42964 59.894366 
L 165.427025 60.967815 
L 165.422779 62.041264 
L 165.418753 63.114714 
L 165.416977 64.188163 
L 165.419351 65.261612 
L 165.427365 66.335061 
L 165.441879 67.408511 
L 165.463007 68.48196 
L 165.490127 69.555409 
L 165.521989 70.628858 
L 165.556915 71.702307 
L 165.593039 72.775757 
L 165.62855 73.849206 
L 165.661902 74.922655 
L 165.691966 75.996104 
L 165.718117 77.069553 
L 165.740264 78.143003 
L 165.758836 79.216452 
L 165.77473 80.289901 
L 165.789205 81.36335 
L 165.803719 82.436799 
L 165.819706 83.510249 
L 165.838299 84.583698 
L 165.860056 85.657147 
L 165.884762 86.730596 
L 165.911389 87.804046 
L 165.938263 88.877495 
L 165.963449 89.950944 
L 165.985282 91.024393 
L 166.002931 92.097842 
L 166.016839 93.171292 
L 166.028923 94.244741 
L 166.042438 95.31819 
L 166.061547 96.391639 
L 166.090664 97.465088 
L 166.13375 98.538538 
L 166.193734 99.611987 
L 166.272196 100.685436 
L 166.369387 101.758885 
L 166.484559 102.832335 
L 166.6165 103.905784 
L 166.764096 104.979233 
L 166.926756 106.052682 
L 167.104569 107.126131 
L 167.298155 108.199581 
L 167.508271 109.27303 
L 167.735312 110.346479 
L 167.978905 111.419928 
L 168.23777 112.493377 
L 168.509932 113.566827 
L 168.793267 114.640276 
L 169.086212 115.713725 
L 169.388409 116.787174 
L 169.701022 117.860624 
L 170.026578 118.934073 
L 170.3683 120.007522 
L 170.729113 121.080971 
L 171.110596 122.15442 
L 171.512218 123.22787 
L 171.931118 124.301319 
L 172.362506 125.374768 
L 172.800611 126.448217 
L 173.239867 127.521666 
L 173.676015 128.595116 
L 174.106764 129.668565 
L 174.531839 130.742014 
L 174.952416 131.815463 
L 175.370125 132.888913 
L 175.785926 133.962362 
L 176.199137 135.035811 
L 176.606812 136.10926 
L 177.003509 137.182709 
L 177.381367 138.256159 
L 177.730366 139.329608 
L 178.038697 140.403057 
L 178.293213 141.476506 
L 178.48005 142.549955 
L 178.585469 143.623405 
L 178.596911 144.696854 
L 178.504178 145.770303 
L 178.30053 146.843752 
L 177.98351 147.917202 
L 177.555354 148.990651 
L 177.022921 150.0641 
L 176.397208 151.137549 
L 175.692558 152.210998 
L 174.925696 153.284448 
L 174.114709 154.357897 
L 173.278076 155.431346 
L 172.433823 156.504795 
L 171.598845 157.578244 
L 170.788416 158.651694 
L 170.015882 159.725143 
L 169.292462 160.798592 
L 168.627135 161.872041 
L 168.026528 162.945491 
L 167.494825 164.01894 
L 167.033711 165.092389 
z
" clip-path="url(#pdbef636be9)" style="fill: #0080ff; fill-opacity: 0.3"/>
   </g>
   <g id="PolyCollection_4">
    <path d="M 204.67486 165.120568 
L 201.912132 165.120568 
L 201.574279 164.077385 
L 201.186135 163.034203 
L 200.746497 161.99102 
L 200.25548 160.947837 
L 199.714555 159.904655 
L 199.126317 158.861472 
L 198.494073 157.818289 
L 197.821459 156.775106 
L 197.112368 155.731924 
L 196.371384 154.688741 
L 195.604716 153.645558 
L 194.821389 152.602376 
L 194.03426 151.559193 
L 193.260423 150.51601 
L 192.520733 149.472828 
L 191.83842 148.429645 
L 191.237021 147.386462 
L 190.738031 146.343279 
L 190.358638 145.300097 
L 190.109867 144.256914 
L 189.995335 143.213731 
L 190.01077 142.170549 
L 190.144417 141.127366 
L 190.378387 140.084183 
L 190.690894 139.041001 
L 191.059096 137.997818 
L 191.462074 136.954635 
L 191.883319 135.911453 
L 192.312175 134.86827 
L 192.743918 133.825087 
L 193.17851 132.781904 
L 193.618434 131.738722 
L 194.066268 130.695539 
L 194.522665 129.652356 
L 194.985294 128.609174 
L 195.448921 127.565991 
L 195.90653 126.522808 
L 196.351044 125.479626 
L 196.777056 124.436443 
L 197.182051 123.39326 
L 197.566729 122.350078 
L 197.934374 121.306895 
L 198.289506 120.263712 
L 198.636241 119.220529 
L 198.976881 118.177347 
L 199.311093 117.134164 
L 199.635882 116.090981 
L 199.946276 115.047799 
L 200.236478 114.004616 
L 200.501161 112.961433 
L 200.736603 111.918251 
L 200.94147 110.875068 
L 201.117122 109.831885 
L 201.267466 108.788703 
L 201.398367 107.74552 
L 201.516736 106.702337 
L 201.62942 105.659154 
L 201.742075 104.615972 
L 201.858257 103.572789 
L 201.978935 102.529606 
L 202.102555 101.486424 
L 202.225674 100.443241 
L 202.344002 99.400058 
L 202.453564 98.356876 
L 202.551684 97.313693 
L 202.637515 96.27051 
L 202.712016 95.227328 
L 202.777439 94.184145 
L 202.836529 93.140962 
L 202.891698 92.097779 
L 202.944408 91.054597 
L 202.994897 90.011414 
L 203.042254 88.968231 
L 203.084753 87.925049 
L 203.120324 86.881866 
L 203.147026 85.838683 
L 203.163434 84.795501 
L 203.168901 83.752318 
L 203.163695 82.709135 
L 203.14902 81.665953 
L 203.126928 80.62277 
L 203.100124 79.579587 
L 203.071675 78.536404 
L 203.044643 77.493222 
L 203.021709 76.450039 
L 203.004836 75.406856 
L 202.995065 74.363674 
L 202.992468 73.320491 
L 202.996274 72.277308 
L 203.005121 71.234126 
L 203.017375 70.190943 
L 203.031443 69.14776 
L 203.046029 68.104578 
L 203.060299 67.061395 
L 203.073933 66.018212 
L 203.087085 64.975029 
L 203.100247 63.931847 
L 203.114049 62.888664 
L 203.129045 61.845481 
L 203.457946 61.845481 
L 203.457946 61.845481 
L 203.472943 62.888664 
L 203.486744 63.931847 
L 203.499906 64.975029 
L 203.513059 66.018212 
L 203.526693 67.061395 
L 203.540962 68.104578 
L 203.555549 69.14776 
L 203.569617 70.190943 
L 203.581871 71.234126 
L 203.590718 72.277308 
L 203.594524 73.320491 
L 203.591927 74.363674 
L 203.582156 75.406856 
L 203.565283 76.450039 
L 203.542349 77.493222 
L 203.515317 78.536404 
L 203.486868 79.579587 
L 203.460064 80.62277 
L 203.437972 81.665953 
L 203.423297 82.709135 
L 203.418091 83.752318 
L 203.423558 84.795501 
L 203.439966 85.838683 
L 203.466668 86.881866 
L 203.502239 87.925049 
L 203.544738 88.968231 
L 203.592094 90.011414 
L 203.642584 91.054597 
L 203.695294 92.097779 
L 203.750462 93.140962 
L 203.809553 94.184145 
L 203.874976 95.227328 
L 203.949477 96.27051 
L 204.035308 97.313693 
L 204.133428 98.356876 
L 204.24299 99.400058 
L 204.361318 100.443241 
L 204.484437 101.486424 
L 204.608057 102.529606 
L 204.728735 103.572789 
L 204.844917 104.615972 
L 204.957572 105.659154 
L 205.070256 106.702337 
L 205.188625 107.74552 
L 205.319526 108.788703 
L 205.46987 109.831885 
L 205.645522 110.875068 
L 205.850389 111.918251 
L 206.085831 112.961433 
L 206.350514 114.004616 
L 206.640716 115.047799 
L 206.95111 116.090981 
L 207.275899 117.134164 
L 207.610111 118.177347 
L 207.95075 119.220529 
L 208.297486 120.263712 
L 208.652617 121.306895 
L 209.020263 122.350078 
L 209.404941 123.39326 
L 209.809936 124.436443 
L 210.235948 125.479626 
L 210.680461 126.522808 
L 211.138071 127.565991 
L 211.601698 128.609174 
L 212.064326 129.652356 
L 212.520724 130.695539 
L 212.968557 131.738722 
L 213.408482 132.781904 
L 213.843074 133.825087 
L 214.274817 134.86827 
L 214.703673 135.911453 
L 215.124918 136.954635 
L 215.527896 137.997818 
L 215.896098 139.041001 
L 216.208605 140.084183 
L 216.442575 141.127366 
L 216.576222 142.170549 
L 216.591657 143.213731 
L 216.477125 144.256914 
L 216.228354 145.300097 
L 215.848961 146.343279 
L 215.349971 147.386462 
L 214.748572 148.429645 
L 214.066258 149.472828 
L 213.326569 150.51601 
L 212.552732 151.559193 
L 211.765602 152.602376 
L 210.982276 153.645558 
L 210.215608 154.688741 
L 209.474624 155.731924 
L 208.765533 156.775106 
L 208.092919 157.818289 
L 207.460675 158.861472 
L 206.872437 159.904655 
L 206.331512 160.947837 
L 205.840495 161.99102 
L 205.400857 163.034203 
L 205.012713 164.077385 
L 204.67486 165.120568 
z
" clip-path="url(#pdbef636be9)" style="fill: #ff8000; fill-opacity: 0.3"/>
   </g>
   <g id="matplotlib.axis_3">
    <g id="xtick_3">
     <g id="line2d_7">
      <g>
       <use xlink:href="#me63fc338cc" x="165.29875" y="179.399" style="stroke: #000000; stroke-width: 0.8"/>
      </g>
     </g>
     <g id="text_11">
      <!-- MSR -->
      <g transform="translate(138.6325 194.34525) scale(0.12 -0.12)">
       <use xlink:href="#TimesNewRomanPS-BoldMT-4d"/>
       <use xlink:href="#TimesNewRomanPS-BoldMT-53" x="94.384766"/>
       <use xlink:href="#TimesNewRomanPS-BoldMT-52" x="150"/>
      </g>
     </g>
    </g>
    <g id="xtick_4">
     <g id="line2d_8">
      <g>
       <use xlink:href="#me63fc338cc" x="203.293496" y="179.399" style="stroke: #000000; stroke-width: 0.8"/>
      </g>
     </g>
     <g id="text_12">
      <!-- SBO -->
      <g transform="translate(179.282246 194.34525) scale(0.12 -0.12)">
       <use xlink:href="#TimesNewRomanPS-BoldMT-53"/>
       <use xlink:href="#TimesNewRomanPS-BoldMT-42" x="55.615234"/>
       <use xlink:href="#TimesNewRomanPS-BoldMT-4f" x="122.314453"/>
      </g>
     </g>
    </g>
   </g>
   <g id="matplotlib.axis_4"/>
   <g id="LineCollection_6">
    <path d="M 158.649669 136.550531 
L 171.94783 136.550531 
" clip-path="url(#pdbef636be9)" style="fill: none; stroke: #000000; stroke-width: 2"/>
    <path d="M 196.644415 136.364425 
L 209.942576 136.364425 
" clip-path="url(#pdbef636be9)" style="fill: none; stroke: #000000; stroke-width: 2"/>
   </g>
   <g id="LineCollection_7">
    <path d="M 158.649669 58.820917 
L 171.94783 58.820917 
" clip-path="url(#pdbef636be9)" style="fill: none; stroke: #1f77b4; stroke-width: 1.5"/>
    <path d="M 196.644415 61.845481 
L 209.942576 61.845481 
" clip-path="url(#pdbef636be9)" style="fill: none; stroke: #1f77b4; stroke-width: 1.5"/>
   </g>
   <g id="LineCollection_8">
    <path d="M 158.649669 165.092389 
L 171.94783 165.092389 
" clip-path="url(#pdbef636be9)" style="fill: none; stroke: #1f77b4; stroke-width: 1.5"/>
    <path d="M 196.644415 165.120568 
L 209.942576 165.120568 
" clip-path="url(#pdbef636be9)" style="fill: none; stroke: #1f77b4; stroke-width: 1.5"/>
   </g>
   <g id="LineCollection_9">
    <path d="M 165.29875 165.092389 
L 165.29875 58.820917 
" clip-path="url(#pdbef636be9)" style="fill: none; stroke: #1f77b4; stroke-width: 1.5"/>
    <path d="M 203.293496 165.120568 
L 203.293496 61.845481 
" clip-path="url(#pdbef636be9)" style="fill: none; stroke: #1f77b4; stroke-width: 1.5"/>
   </g>
   <g id="LineCollection_10">
    <path d="M 158.649669 139.64085 
L 171.94783 139.64085 
" clip-path="url(#pdbef636be9)" style="fill: none; stroke-dasharray: 2,3.3; stroke-dashoffset: 0; stroke: #808080; stroke-width: 2"/>
    <path d="M 196.644415 139.445051 
L 209.942576 139.445051 
" clip-path="url(#pdbef636be9)" style="fill: none; stroke-dasharray: 2,3.3; stroke-dashoffset: 0; stroke: #808080; stroke-width: 2"/>
   </g>
   <g id="patch_8">
    <path d="M 148.771035 179.399 
L 148.771035 23.199 
" style="fill: none; stroke: #000000; stroke-width: 0.8; stroke-linejoin: miter; stroke-linecap: square"/>
   </g>
   <g id="patch_9">
    <path d="M 219.82121 179.399 
L 219.82121 23.199 
" style="fill: none; stroke: #000000; stroke-width: 0.8; stroke-linejoin: miter; stroke-linecap: square"/>
   </g>
   <g id="patch_10">
    <path d="M 148.771035 179.399 
L 219.82121 179.399 
" style="fill: none; stroke: #000000; stroke-width: 0.8; stroke-linejoin: miter; stroke-linecap: square"/>
   </g>
   <g id="patch_11">
    <path d="M 148.771035 23.199 
L 219.82121 23.199 
" style="fill: none; stroke: #000000; stroke-width: 0.8; stroke-linejoin: miter; stroke-linecap: square"/>
   </g>
   <g id="text_13">
    <!-- 281 -->
    <g transform="translate(157.79875 39.183952) scale(0.1 -0.1)">
     <use xlink:href="#TimesNewRomanPSMT-32"/>
     <use xlink:href="#TimesNewRomanPSMT-38" x="50"/>
     <use xlink:href="#TimesNewRomanPSMT-31" x="100"/>
    </g>
   </g>
   <g id="text_14">
    <!-- 306 -->
    <g transform="translate(195.793496 39.183952) scale(0.1 -0.1)">
     <defs>
      <path id="TimesNewRomanPSMT-36" d="M 2869 4325 
L 2869 4209 
Q 2456 4169 2195 4045 
Q 1934 3922 1679 3669 
Q 1425 3416 1258 3105 
Q 1091 2794 978 2366 
Q 1428 2675 1881 2675 
Q 2316 2675 2634 2325 
Q 2953 1975 2953 1425 
Q 2953 894 2631 456 
Q 2244 -75 1606 -75 
Q 1172 -75 869 213 
Q 275 772 275 1663 
Q 275 2231 503 2743 
Q 731 3256 1154 3653 
Q 1578 4050 1965 4187 
Q 2353 4325 2688 4325 
L 2869 4325 
z
M 925 2138 
Q 869 1716 869 1456 
Q 869 1156 980 804 
Q 1091 453 1309 247 
Q 1469 100 1697 100 
Q 1969 100 2183 356 
Q 2397 613 2397 1088 
Q 2397 1622 2184 2012 
Q 1972 2403 1581 2403 
Q 1463 2403 1327 2353 
Q 1191 2303 925 2138 
z
" transform="scale(0.015625)"/>
     </defs>
     <use xlink:href="#TimesNewRomanPSMT-33"/>
     <use xlink:href="#TimesNewRomanPSMT-30" x="50"/>
     <use xlink:href="#TimesNewRomanPSMT-36" x="100"/>
    </g>
   </g>
   <g id="text_15">
    <!-- 4 Vessels -->
    <g transform="translate(157.823748 17.199) scale(0.144 -0.144)">
     <defs>
      <path id="TimesNewRomanPSMT-34" d="M 2978 1563 
L 2978 1119 
L 2409 1119 
L 2409 0 
L 1894 0 
L 1894 1119 
L 100 1119 
L 100 1519 
L 2066 4325 
L 2409 4325 
L 2409 1563 
L 2978 1563 
z
M 1894 1563 
L 1894 3666 
L 406 1563 
L 1894 1563 
z
" transform="scale(0.015625)"/>
     </defs>
     <use xlink:href="#TimesNewRomanPSMT-34"/>
     <use xlink:href="#TimesNewRomanPSMT-20" x="50"/>
     <use xlink:href="#TimesNewRomanPSMT-56" x="73.25"/>
     <use xlink:href="#TimesNewRomanPSMT-65" x="134.341797"/>
     <use xlink:href="#TimesNewRomanPSMT-73" x="178.726562"/>
     <use xlink:href="#TimesNewRomanPSMT-73" x="217.642578"/>
     <use xlink:href="#TimesNewRomanPSMT-65" x="256.558594"/>
     <use xlink:href="#TimesNewRomanPSMT-6c" x="300.943359"/>
     <use xlink:href="#TimesNewRomanPSMT-73" x="328.726562"/>
    </g>
   </g>
  </g>
  <g id="axes_3">
   <g id="patch_12">
    <path d="M 245.350977 179.399 
L 316.401152 179.399 
L 316.401152 23.199 
L 245.350977 23.199 
z
" style="fill: #ffffff"/>
   </g>
   <g id="PolyCollection_5">
    <path d="M 262.737038 166.214157 
L 261.020345 166.214157 
L 260.748902 165.163886 
L 260.430214 164.113614 
L 260.067274 163.063342 
L 259.663159 162.013071 
L 259.217396 160.962799 
L 258.722637 159.912528 
L 258.163852 158.862256 
L 257.521608 157.811985 
L 256.779293 156.761713 
L 255.932018 155.711441 
L 254.993578 154.66117 
L 253.998126 153.610898 
L 252.995105 152.560627 
L 252.038779 151.510355 
L 251.176056 150.460084 
L 250.437137 149.409812 
L 249.832448 148.35954 
L 249.35667 147.309269 
L 248.997735 146.258997 
L 248.746665 145.208726 
L 248.604031 144.158454 
L 248.58053 143.108183 
L 248.691991 142.057911 
L 248.951453 141.007639 
L 249.361956 139.957368 
L 249.912888 138.907096 
L 250.580835 137.856825 
L 251.333913 136.806553 
L 252.137433 135.756282 
L 252.958894 134.70601 
L 253.771181 133.655738 
L 254.55391 132.605467 
L 255.293402 131.555195 
L 255.981806 130.504924 
L 256.615617 129.454652 
L 257.193807 128.404381 
L 257.715925 127.354109 
L 258.180802 126.303838 
L 258.586425 125.253566 
L 258.931118 124.203294 
L 259.215468 123.153023 
L 259.444027 122.102751 
L 259.625876 121.05248 
L 259.77377 120.002208 
L 259.902189 118.951937 
L 260.025065 117.901665 
L 260.153775 116.851393 
L 260.295676 115.801122 
L 260.453203 114.75085 
L 260.623561 113.700579 
L 260.799244 112.650307 
L 260.96962 111.600036 
L 261.123467 110.549764 
L 261.25187 109.499492 
L 261.350502 108.449221 
L 261.420448 107.398949 
L 261.467289 106.348678 
L 261.498912 105.298406 
L 261.52302 104.248135 
L 261.5453 103.197863 
L 261.568757 102.147591 
L 261.59409 101.09732 
L 261.620571 100.047048 
L 261.646846 98.996777 
L 261.671383 97.946505 
L 261.692653 96.896234 
L 261.709306 95.845962 
L 261.720515 94.79569 
L 261.72642 93.745419 
L 261.728401 92.695147 
L 261.728936 91.644876 
L 261.730966 90.594604 
L 261.737008 89.544333 
L 261.748364 88.494061 
L 261.764772 87.443789 
L 261.784615 86.393518 
L 261.805552 85.343246 
L 261.825271 84.292975 
L 261.842079 83.242703 
L 261.855162 82.192432 
L 261.864516 81.14216 
L 261.870682 80.091888 
L 261.874431 79.041617 
L 261.876511 77.991345 
L 261.877502 76.941074 
L 261.877745 75.890802 
L 261.877334 74.840531 
L 261.876113 73.790259 
L 261.873679 72.739987 
L 261.869406 71.689716 
L 261.862524 70.639444 
L 261.852308 69.589173 
L 261.838355 68.538901 
L 261.820921 67.48863 
L 261.801182 66.438358 
L 261.781274 65.388086 
L 261.763995 64.337815 
L 261.752188 63.287543 
L 261.747989 62.237272 
L 262.009394 62.237272 
L 262.009394 62.237272 
L 262.005195 63.287543 
L 261.993389 64.337815 
L 261.976109 65.388086 
L 261.956201 66.438358 
L 261.936462 67.48863 
L 261.919028 68.538901 
L 261.905075 69.589173 
L 261.894859 70.639444 
L 261.887978 71.689716 
L 261.883704 72.739987 
L 261.88127 73.790259 
L 261.880049 74.840531 
L 261.879639 75.890802 
L 261.879881 76.941074 
L 261.880872 77.991345 
L 261.882952 79.041617 
L 261.886701 80.091888 
L 261.892867 81.14216 
L 261.902221 82.192432 
L 261.915304 83.242703 
L 261.932112 84.292975 
L 261.951831 85.343246 
L 261.972768 86.393518 
L 261.992611 87.443789 
L 262.009019 88.494061 
L 262.020375 89.544333 
L 262.026417 90.594604 
L 262.028448 91.644876 
L 262.028982 92.695147 
L 262.030963 93.745419 
L 262.036868 94.79569 
L 262.048077 95.845962 
L 262.06473 96.896234 
L 262.086 97.946505 
L 262.110537 98.996777 
L 262.136812 100.047048 
L 262.163293 101.09732 
L 262.188627 102.147591 
L 262.212083 103.197863 
L 262.234363 104.248135 
L 262.258471 105.298406 
L 262.290094 106.348678 
L 262.336935 107.398949 
L 262.406881 108.449221 
L 262.505513 109.499492 
L 262.633916 110.549764 
L 262.787763 111.600036 
L 262.958139 112.650307 
L 263.133822 113.700579 
L 263.30418 114.75085 
L 263.461707 115.801122 
L 263.603609 116.851393 
L 263.732318 117.901665 
L 263.855194 118.951937 
L 263.983614 120.002208 
L 264.131507 121.05248 
L 264.313357 122.102751 
L 264.541915 123.153023 
L 264.826266 124.203294 
L 265.170958 125.253566 
L 265.576581 126.303838 
L 266.041458 127.354109 
L 266.563577 128.404381 
L 267.141767 129.454652 
L 267.775577 130.504924 
L 268.463981 131.555195 
L 269.203473 132.605467 
L 269.986202 133.655738 
L 270.79849 134.70601 
L 271.61995 135.756282 
L 272.42347 136.806553 
L 273.176548 137.856825 
L 273.844495 138.907096 
L 274.395427 139.957368 
L 274.80593 141.007639 
L 275.065392 142.057911 
L 275.176853 143.108183 
L 275.153352 144.158454 
L 275.010718 145.208726 
L 274.759649 146.258997 
L 274.400713 147.309269 
L 273.924935 148.35954 
L 273.320247 149.409812 
L 272.581328 150.460084 
L 271.718604 151.510355 
L 270.762278 152.560627 
L 269.759257 153.610898 
L 268.763805 154.66117 
L 267.825366 155.711441 
L 266.97809 156.761713 
L 266.235775 157.811985 
L 265.593531 158.862256 
L 265.034746 159.912528 
L 264.539987 160.962799 
L 264.094224 162.013071 
L 263.69011 163.063342 
L 263.327169 164.113614 
L 263.008481 165.163886 
L 262.737038 166.214157 
z
" clip-path="url(#p4f68b6e684)" style="fill: #0080ff; fill-opacity: 0.3"/>
   </g>
   <g id="PolyCollection_6">
    <path d="M 300.923993 167.077279 
L 298.822882 167.077279 
L 298.672713 166.349975 
L 298.524952 165.62267 
L 298.381263 164.895366 
L 298.241339 164.168061 
L 298.102651 163.440757 
L 297.960485 162.713453 
L 297.808264 161.986148 
L 297.638069 161.258844 
L 297.441279 160.531539 
L 297.209218 159.804235 
L 296.933759 159.07693 
L 296.607855 158.349626 
L 296.226012 157.622321 
L 295.784742 156.895017 
L 295.283023 156.167712 
L 294.722764 155.440408 
L 294.109225 154.713103 
L 293.451284 153.985799 
L 292.761451 153.258494 
L 292.05548 152.53119 
L 291.351518 151.803885 
L 290.668775 151.076581 
L 290.025818 150.349277 
L 289.438664 149.621972 
L 288.918992 148.894668 
L 288.472772 148.167363 
L 288.099653 147.440059 
L 287.793311 146.712754 
L 287.542829 145.98545 
L 287.334943 145.258145 
L 287.156811 144.530841 
L 286.998773 143.803536 
L 286.856549 143.076232 
L 286.732382 142.348927 
L 286.634841 141.621623 
L 286.577283 140.894318 
L 286.575276 140.167014 
L 286.643503 139.439709 
L 286.792801 138.712405 
L 287.027928 137.9851 
L 287.346482 137.257796 
L 287.739126 136.530492 
L 288.190995 135.803187 
L 288.683936 135.075883 
L 289.199089 134.348578 
L 289.719304 133.621274 
L 290.230986 132.893969 
L 290.725103 132.166665 
L 291.197283 131.43936 
L 291.647111 130.712056 
L 292.07686 129.984751 
L 292.489975 129.257447 
L 292.889626 128.530142 
L 293.277617 127.802838 
L 293.653803 127.075533 
L 294.016089 126.348229 
L 294.360937 125.620924 
L 294.684219 124.89362 
L 294.982227 124.166315 
L 295.252595 123.439011 
L 295.49498 122.711707 
L 295.711363 121.984402 
L 295.905948 121.257098 
L 296.08468 120.529793 
L 296.254473 119.802489 
L 296.422294 119.075184 
L 296.594222 118.34788 
L 296.774658 117.620575 
L 296.965781 116.893271 
L 297.167358 116.165966 
L 297.376917 115.438662 
L 297.590262 114.711357 
L 297.802232 113.984053 
L 298.007564 113.256748 
L 298.201688 112.529444 
L 298.381322 111.802139 
L 298.544763 111.074835 
L 298.69184 110.347531 
L 298.823582 109.620226 
L 298.941693 108.892922 
L 299.047977 108.165617 
L 299.143827 107.438313 
L 299.229887 106.711008 
L 299.305948 105.983704 
L 299.371049 105.256399 
L 299.42379 104.529095 
L 299.462741 103.80179 
L 299.4869 103.074486 
L 299.496101 102.347181 
L 299.491303 101.619877 
L 299.474708 100.892572 
L 299.449681 100.165268 
L 299.420478 99.437963 
L 299.391808 98.710659 
L 299.368294 97.983354 
L 299.35393 97.25605 
L 299.351602 96.528746 
L 299.362769 95.801441 
L 299.387353 95.074137 
L 300.359522 95.074137 
L 300.359522 95.074137 
L 300.384106 95.801441 
L 300.395273 96.528746 
L 300.392945 97.25605 
L 300.378581 97.983354 
L 300.355068 98.710659 
L 300.326397 99.437963 
L 300.297194 100.165268 
L 300.272167 100.892572 
L 300.255572 101.619877 
L 300.250774 102.347181 
L 300.259975 103.074486 
L 300.284134 103.80179 
L 300.323085 104.529095 
L 300.375826 105.256399 
L 300.440928 105.983704 
L 300.516988 106.711008 
L 300.603049 107.438313 
L 300.698898 108.165617 
L 300.805182 108.892922 
L 300.923294 109.620226 
L 301.055035 110.347531 
L 301.202112 111.074835 
L 301.365553 111.802139 
L 301.545187 112.529444 
L 301.739311 113.256748 
L 301.944643 113.984053 
L 302.156614 114.711357 
L 302.369958 115.438662 
L 302.579517 116.165966 
L 302.781094 116.893271 
L 302.972217 117.620575 
L 303.152653 118.34788 
L 303.324581 119.075184 
L 303.492402 119.802489 
L 303.662195 120.529793 
L 303.840927 121.257098 
L 304.035512 121.984402 
L 304.251895 122.711707 
L 304.49428 123.439011 
L 304.764648 124.166315 
L 305.062656 124.89362 
L 305.385939 125.620924 
L 305.730786 126.348229 
L 306.093072 127.075533 
L 306.469258 127.802838 
L 306.857249 128.530142 
L 307.2569 129.257447 
L 307.670015 129.984751 
L 308.099764 130.712056 
L 308.549592 131.43936 
L 309.021772 132.166665 
L 309.515889 132.893969 
L 310.027571 133.621274 
L 310.547786 134.348578 
L 311.062939 135.075883 
L 311.55588 135.803187 
L 312.007749 136.530492 
L 312.400393 137.257796 
L 312.718947 137.9851 
L 312.954074 138.712405 
L 313.103372 139.439709 
L 313.171599 140.167014 
L 313.169592 140.894318 
L 313.112035 141.621623 
L 313.014493 142.348927 
L 312.890326 143.076232 
L 312.748102 143.803536 
L 312.590064 144.530841 
L 312.411932 145.258145 
L 312.204047 145.98545 
L 311.953564 146.712754 
L 311.647222 147.440059 
L 311.274103 148.167363 
L 310.827883 148.894668 
L 310.308211 149.621972 
L 309.721057 150.349277 
L 309.0781 151.076581 
L 308.395357 151.803885 
L 307.691395 152.53119 
L 306.985424 153.258494 
L 306.295591 153.985799 
L 305.637651 154.713103 
L 305.024111 155.440408 
L 304.463852 156.167712 
L 303.962133 156.895017 
L 303.520863 157.622321 
L 303.13902 158.349626 
L 302.813116 159.07693 
L 302.537657 159.804235 
L 302.305596 160.531539 
L 302.108806 161.258844 
L 301.938611 161.986148 
L 301.78639 162.713453 
L 301.644224 163.440757 
L 301.505536 164.168061 
L 301.365612 164.895366 
L 301.221923 165.62267 
L 301.074162 166.349975 
L 300.923993 167.077279 
z
" clip-path="url(#p4f68b6e684)" style="fill: #ff8000; fill-opacity: 0.3"/>
   </g>
   <g id="matplotlib.axis_5">
    <g id="xtick_5">
     <g id="line2d_9">
      <g>
       <use xlink:href="#me63fc338cc" x="261.878692" y="179.399" style="stroke: #000000; stroke-width: 0.8"/>
      </g>
     </g>
     <g id="text_16">
      <!-- MSR -->
      <g transform="translate(235.212442 194.34525) scale(0.12 -0.12)">
       <use xlink:href="#TimesNewRomanPS-BoldMT-4d"/>
       <use xlink:href="#TimesNewRomanPS-BoldMT-53" x="94.384766"/>
       <use xlink:href="#TimesNewRomanPS-BoldMT-52" x="150"/>
      </g>
     </g>
    </g>
    <g id="xtick_6">
     <g id="line2d_10">
      <g>
       <use xlink:href="#me63fc338cc" x="299.873438" y="179.399" style="stroke: #000000; stroke-width: 0.8"/>
      </g>
     </g>
     <g id="text_17">
      <!-- SBO -->
      <g transform="translate(275.862188 194.34525) scale(0.12 -0.12)">
       <use xlink:href="#TimesNewRomanPS-BoldMT-53"/>
       <use xlink:href="#TimesNewRomanPS-BoldMT-42" x="55.615234"/>
       <use xlink:href="#TimesNewRomanPS-BoldMT-4f" x="122.314453"/>
      </g>
     </g>
    </g>
   </g>
   <g id="matplotlib.axis_6"/>
   <g id="LineCollection_11">
    <path d="M 255.229611 140.887022 
L 268.527772 140.887022 
" clip-path="url(#p4f68b6e684)" style="fill: none; stroke: #000000; stroke-width: 2"/>
    <path d="M 293.224357 138.865356 
L 306.522518 138.865356 
" clip-path="url(#p4f68b6e684)" style="fill: none; stroke: #000000; stroke-width: 2"/>
   </g>
   <g id="LineCollection_12">
    <path d="M 255.229611 62.237272 
L 268.527772 62.237272 
" clip-path="url(#p4f68b6e684)" style="fill: none; stroke: #1f77b4; stroke-width: 1.5"/>
    <path d="M 293.224357 95.074137 
L 306.522518 95.074137 
" clip-path="url(#p4f68b6e684)" style="fill: none; stroke: #1f77b4; stroke-width: 1.5"/>
   </g>
   <g id="LineCollection_13">
    <path d="M 255.229611 166.214157 
L 268.527772 166.214157 
" clip-path="url(#p4f68b6e684)" style="fill: none; stroke: #1f77b4; stroke-width: 1.5"/>
    <path d="M 293.224357 167.077279 
L 306.522518 167.077279 
" clip-path="url(#p4f68b6e684)" style="fill: none; stroke: #1f77b4; stroke-width: 1.5"/>
   </g>
   <g id="LineCollection_14">
    <path d="M 261.878692 166.214157 
L 261.878692 62.237272 
" clip-path="url(#p4f68b6e684)" style="fill: none; stroke: #1f77b4; stroke-width: 1.5"/>
    <path d="M 299.873438 167.077279 
L 299.873438 95.074137 
" clip-path="url(#p4f68b6e684)" style="fill: none; stroke: #1f77b4; stroke-width: 1.5"/>
   </g>
   <g id="LineCollection_15">
    <path d="M 255.229611 142.567925 
L 268.527772 142.567925 
" clip-path="url(#p4f68b6e684)" style="fill: none; stroke-dasharray: 2,3.3; stroke-dashoffset: 0; stroke: #808080; stroke-width: 2"/>
    <path d="M 293.224357 139.865571 
L 306.522518 139.865571 
" clip-path="url(#p4f68b6e684)" style="fill: none; stroke-dasharray: 2,3.3; stroke-dashoffset: 0; stroke: #808080; stroke-width: 2"/>
   </g>
   <g id="patch_13">
    <path d="M 245.350977 179.399 
L 245.350977 23.199 
" style="fill: none; stroke: #000000; stroke-width: 0.8; stroke-linejoin: miter; stroke-linecap: square"/>
   </g>
   <g id="patch_14">
    <path d="M 316.401152 179.399 
L 316.401152 23.199 
" style="fill: none; stroke: #000000; stroke-width: 0.8; stroke-linejoin: miter; stroke-linecap: square"/>
   </g>
   <g id="patch_15">
    <path d="M 245.350977 179.399 
L 316.401152 179.399 
" style="fill: none; stroke: #000000; stroke-width: 0.8; stroke-linejoin: miter; stroke-linecap: square"/>
   </g>
   <g id="patch_16">
    <path d="M 245.350977 23.199 
L 316.401152 23.199 
" style="fill: none; stroke: #000000; stroke-width: 0.8; stroke-linejoin: miter; stroke-linecap: square"/>
   </g>
   <g id="text_18">
    <!-- 265 -->
    <g transform="translate(254.378692 39.183952) scale(0.1 -0.1)">
     <use xlink:href="#TimesNewRomanPSMT-32"/>
     <use xlink:href="#TimesNewRomanPSMT-36" x="50"/>
     <use xlink:href="#TimesNewRomanPSMT-35" x="100"/>
    </g>
   </g>
   <g id="text_19">
    <!-- 295 -->
    <g transform="translate(292.373438 39.183952) scale(0.1 -0.1)">
     <use xlink:href="#TimesNewRomanPSMT-32"/>
     <use xlink:href="#TimesNewRomanPSMT-39" x="50"/>
     <use xlink:href="#TimesNewRomanPSMT-35" x="100"/>
    </g>
   </g>
   <g id="text_20">
    <!-- 5 Vessels -->
    <g transform="translate(254.40369 17.199) scale(0.144 -0.144)">
     <use xlink:href="#TimesNewRomanPSMT-35"/>
     <use xlink:href="#TimesNewRomanPSMT-20" x="50"/>
     <use xlink:href="#TimesNewRomanPSMT-56" x="73.25"/>
     <use xlink:href="#TimesNewRomanPSMT-65" x="134.341797"/>
     <use xlink:href="#TimesNewRomanPSMT-73" x="178.726562"/>
     <use xlink:href="#TimesNewRomanPSMT-73" x="217.642578"/>
     <use xlink:href="#TimesNewRomanPSMT-65" x="256.558594"/>
     <use xlink:href="#TimesNewRomanPSMT-6c" x="300.943359"/>
     <use xlink:href="#TimesNewRomanPSMT-73" x="328.726562"/>
    </g>
   </g>
  </g>
  <g id="axes_4">
   <g id="patch_17">
    <path d="M 341.930919 179.399 
L 412.981094 179.399 
L 412.981094 23.199 
L 341.930919 23.199 
z
" style="fill: #ffffff"/>
   </g>
   <g id="PolyCollection_7">
    <path d="M 359.93042 166.526863 
L 356.986846 166.526863 
L 356.631747 165.533326 
L 356.23685 164.539789 
L 355.799741 163.546251 
L 355.322273 162.552714 
L 354.812851 161.559177 
L 354.284106 160.565639 
L 353.745881 159.572102 
L 353.196923 158.578565 
L 352.620653 157.585027 
L 351.988944 156.59149 
L 351.273724 155.597953 
L 350.461604 154.604415 
L 349.564711 153.610878 
L 348.62265 152.617341 
L 347.694901 151.623803 
L 346.84731 150.630266 
L 346.138295 149.636729 
L 345.609438 148.643191 
L 345.282295 147.649654 
L 345.160472 146.656117 
L 345.234371 145.662579 
L 345.485938 144.669042 
L 345.891843 143.675505 
L 346.425046 142.681967 
L 347.055877 141.68843 
L 347.753916 140.694893 
L 348.490952 139.701355 
L 349.24389 138.707818 
L 349.995699 137.714281 
L 350.733392 136.720743 
L 351.444032 135.727206 
L 352.1116 134.733669 
L 352.717545 133.740131 
L 353.245665 132.746594 
L 353.688985 131.753057 
L 354.05463 130.759519 
L 354.363495 129.765982 
L 354.644319 128.772445 
L 354.924689 127.778907 
L 355.222793 126.78537 
L 355.543011 125.791833 
L 355.876495 124.798295 
L 356.205842 123.804758 
L 356.511752 122.811221 
L 356.779283 121.817683 
L 357.001775 120.824146 
L 357.181541 119.830609 
L 357.327606 118.837071 
L 357.451779 117.843534 
L 357.564773 116.849997 
L 357.673754 115.856459 
L 357.781759 114.862922 
L 357.888532 113.869385 
L 357.991885 112.875847 
L 358.08887 111.88231 
L 358.176525 110.888773 
L 358.252331 109.895235 
L 358.314559 108.901698 
L 358.362521 107.908161 
L 358.396613 106.914623 
L 358.418086 105.921086 
L 358.428632 104.927549 
L 358.430014 103.934011 
L 358.423921 102.940474 
L 358.412112 101.946937 
L 358.3967 100.953399 
L 358.380317 99.959862 
L 358.365934 98.966325 
L 358.35629 97.972787 
L 358.353115 96.97925 
L 358.356497 95.985713 
L 358.364721 94.992175 
L 358.374724 93.998638 
L 358.383022 93.005101 
L 358.386797 92.011563 
L 358.384782 91.018026 
L 358.377652 90.024489 
L 358.367818 89.030951 
L 358.35867 88.037414 
L 358.353522 87.043877 
L 358.354593 86.050339 
L 358.362393 85.056802 
L 358.375715 84.063265 
L 358.392187 83.069727 
L 358.409114 82.07619 
L 358.42424 81.082653 
L 358.436167 80.089115 
L 358.444351 79.095578 
L 358.448805 78.102041 
L 358.449708 77.108503 
L 358.447111 76.114966 
L 358.44088 75.121429 
L 358.430869 74.127891 
L 358.417291 73.134354 
L 358.401087 72.140817 
L 358.38412 71.147279 
L 358.368993 70.153742 
L 358.358475 69.160205 
L 358.354701 68.166667 
L 358.562565 68.166667 
L 358.562565 68.166667 
L 358.558792 69.160205 
L 358.548274 70.153742 
L 358.533147 71.147279 
L 358.516179 72.140817 
L 358.499976 73.134354 
L 358.486397 74.127891 
L 358.476387 75.121429 
L 358.470155 76.114966 
L 358.467559 77.108503 
L 358.468461 78.102041 
L 358.472915 79.095578 
L 358.481099 80.089115 
L 358.493026 81.082653 
L 358.508153 82.07619 
L 358.525079 83.069727 
L 358.541551 84.063265 
L 358.554873 85.056802 
L 358.562674 86.050339 
L 358.563745 87.043877 
L 358.558596 88.037414 
L 358.549449 89.030951 
L 358.539614 90.024489 
L 358.532485 91.018026 
L 358.53047 92.011563 
L 358.534245 93.005101 
L 358.542542 93.998638 
L 358.552545 94.992175 
L 358.56077 95.985713 
L 358.564151 96.97925 
L 358.560976 97.972787 
L 358.551332 98.966325 
L 358.53695 99.959862 
L 358.520567 100.953399 
L 358.505155 101.946937 
L 358.493346 102.940474 
L 358.487253 103.934011 
L 358.488634 104.927549 
L 358.49918 105.921086 
L 358.520653 106.914623 
L 358.554746 107.908161 
L 358.602708 108.901698 
L 358.664936 109.895235 
L 358.740741 110.888773 
L 358.828396 111.88231 
L 358.925381 112.875847 
L 359.028735 113.869385 
L 359.135507 114.862922 
L 359.243512 115.856459 
L 359.352493 116.849997 
L 359.465487 117.843534 
L 359.58966 118.837071 
L 359.735726 119.830609 
L 359.915492 120.824146 
L 360.137983 121.817683 
L 360.405514 122.811221 
L 360.711425 123.804758 
L 361.040771 124.798295 
L 361.374255 125.791833 
L 361.694474 126.78537 
L 361.992577 127.778907 
L 362.272948 128.772445 
L 362.553772 129.765982 
L 362.862636 130.759519 
L 363.228282 131.753057 
L 363.671602 132.746594 
L 364.199721 133.740131 
L 364.805667 134.733669 
L 365.473235 135.727206 
L 366.183874 136.720743 
L 366.921567 137.714281 
L 367.673376 138.707818 
L 368.426314 139.701355 
L 369.163351 140.694893 
L 369.861389 141.68843 
L 370.49222 142.681967 
L 371.025424 143.675505 
L 371.431329 144.669042 
L 371.682896 145.662579 
L 371.756794 146.656117 
L 371.634971 147.649654 
L 371.307828 148.643191 
L 370.778971 149.636729 
L 370.069957 150.630266 
L 369.222365 151.623803 
L 368.294617 152.617341 
L 367.352556 153.610878 
L 366.455662 154.604415 
L 365.643542 155.597953 
L 364.928322 156.59149 
L 364.296614 157.585027 
L 363.720343 158.578565 
L 363.171386 159.572102 
L 362.63316 160.565639 
L 362.104416 161.559177 
L 361.594993 162.552714 
L 361.117526 163.546251 
L 360.680417 164.539789 
L 360.285519 165.533326 
L 359.93042 166.526863 
z
" clip-path="url(#p018475361a)" style="fill: #0080ff; fill-opacity: 0.3"/>
   </g>
   <g id="PolyCollection_8">
    <path d="M 398.956904 163.406523 
L 393.949854 163.406523 
L 393.447187 162.738781 
L 392.908083 162.07104 
L 392.341247 161.403299 
L 391.755347 160.735557 
L 391.158067 160.067816 
L 390.555416 159.400075 
L 389.951522 158.732334 
L 389.348961 158.064592 
L 388.749584 157.396851 
L 388.155602 156.72911 
L 387.570614 156.061368 
L 387.000227 155.393627 
L 386.452009 154.725886 
L 385.934729 154.058144 
L 385.457039 153.390403 
L 385.025973 152.722662 
L 384.645691 152.054921 
L 384.316878 151.387179 
L 384.037013 150.719438 
L 383.801452 150.051697 
L 383.605031 149.383955 
L 383.443726 148.716214 
L 383.315877 148.048473 
L 383.222637 147.380731 
L 383.167518 146.71299 
L 383.155218 146.045249 
L 383.190114 145.377508 
L 383.274859 144.709766 
L 383.409487 144.042025 
L 383.59119 143.374284 
L 383.814704 142.706542 
L 384.073081 142.038801 
L 384.358512 141.37106 
L 384.663007 140.703319 
L 384.978818 140.035577 
L 385.298721 139.367836 
L 385.616324 138.700095 
L 385.926538 138.032353 
L 386.226257 137.364612 
L 386.515125 136.696871 
L 386.796118 136.029129 
L 387.075704 135.361388 
L 387.36335 134.693647 
L 387.670347 134.025906 
L 388.008065 133.358164 
L 388.385931 132.690423 
L 388.809483 132.022682 
L 389.278885 131.35494 
L 389.788197 130.687199 
L 390.325598 130.019458 
L 390.874556 129.351717 
L 391.415792 128.683975 
L 391.929735 128.016234 
L 392.399038 127.348493 
L 392.810745 126.680751 
L 393.157748 126.01301 
L 393.439315 125.345269 
L 393.660648 124.677527 
L 393.831633 124.009786 
L 393.965033 123.342045 
L 394.074499 122.674304 
L 394.172704 122.006562 
L 394.269898 121.338821 
L 394.373007 120.67108 
L 394.485333 120.003338 
L 394.606797 119.335597 
L 394.734578 118.667856 
L 394.864005 118.000114 
L 394.989534 117.332373 
L 395.105661 116.664632 
L 395.207699 115.996891 
L 395.292328 115.329149 
L 395.357935 114.661408 
L 395.404732 113.993667 
L 395.434695 113.325925 
L 395.451343 112.658184 
L 395.459379 111.990443 
L 395.46422 111.322702 
L 395.471435 110.65496 
L 395.486136 109.987219 
L 395.512384 109.319478 
L 395.552704 108.651736 
L 395.607781 107.983995 
L 395.676408 107.316254 
L 395.755698 106.648512 
L 395.841537 105.980771 
L 395.929171 105.31303 
L 396.013856 104.645289 
L 396.091428 103.977547 
L 396.158743 103.309806 
L 396.213917 102.642065 
L 396.256386 101.974323 
L 396.286788 101.306582 
L 396.306728 100.638841 
L 396.318469 99.9711 
L 396.324589 99.303358 
L 396.32765 98.635617 
L 396.329915 97.967876 
L 396.33313 97.300134 
L 396.573629 97.300134 
L 396.573629 97.300134 
L 396.576844 97.967876 
L 396.579108 98.635617 
L 396.58217 99.303358 
L 396.58829 99.9711 
L 396.600031 100.638841 
L 396.619971 101.306582 
L 396.650372 101.974323 
L 396.692841 102.642065 
L 396.748016 103.309806 
L 396.81533 103.977547 
L 396.892903 104.645289 
L 396.977587 105.31303 
L 397.065222 105.980771 
L 397.15106 106.648512 
L 397.230351 107.316254 
L 397.298977 107.983995 
L 397.354054 108.651736 
L 397.394374 109.319478 
L 397.420623 109.987219 
L 397.435324 110.65496 
L 397.442539 111.322702 
L 397.44738 111.990443 
L 397.455415 112.658184 
L 397.472063 113.325925 
L 397.502026 113.993667 
L 397.548823 114.661408 
L 397.61443 115.329149 
L 397.699059 115.996891 
L 397.801097 116.664632 
L 397.917225 117.332373 
L 398.042753 118.000114 
L 398.172181 118.667856 
L 398.299961 119.335597 
L 398.421425 120.003338 
L 398.533751 120.67108 
L 398.63686 121.338821 
L 398.734054 122.006562 
L 398.83226 122.674304 
L 398.941725 123.342045 
L 399.075126 124.009786 
L 399.24611 124.677527 
L 399.467444 125.345269 
L 399.74901 126.01301 
L 400.096013 126.680751 
L 400.50772 127.348493 
L 400.977023 128.016234 
L 401.490966 128.683975 
L 402.032203 129.351717 
L 402.58116 130.019458 
L 403.118561 130.687199 
L 403.627874 131.35494 
L 404.097275 132.022682 
L 404.520828 132.690423 
L 404.898694 133.358164 
L 405.236412 134.025906 
L 405.543408 134.693647 
L 405.831055 135.361388 
L 406.110641 136.029129 
L 406.391634 136.696871 
L 406.680501 137.364612 
L 406.980221 138.032353 
L 407.290434 138.700095 
L 407.608037 139.367836 
L 407.927941 140.035577 
L 408.243751 140.703319 
L 408.548246 141.37106 
L 408.833678 142.038801 
L 409.092054 142.706542 
L 409.315569 143.374284 
L 409.497271 144.042025 
L 409.6319 144.709766 
L 409.716645 145.377508 
L 409.75154 146.045249 
L 409.739241 146.71299 
L 409.684121 147.380731 
L 409.590881 148.048473 
L 409.463033 148.716214 
L 409.301727 149.383955 
L 409.105306 150.051697 
L 408.869745 150.719438 
L 408.589881 151.387179 
L 408.261068 152.054921 
L 407.880785 152.722662 
L 407.449719 153.390403 
L 406.97203 154.058144 
L 406.454749 154.725886 
L 405.906531 155.393627 
L 405.336144 156.061368 
L 404.751157 156.72911 
L 404.157174 157.396851 
L 403.557797 158.064592 
L 402.955237 158.732334 
L 402.351343 159.400075 
L 401.748692 160.067816 
L 401.151411 160.735557 
L 400.565512 161.403299 
L 399.998675 162.07104 
L 399.459572 162.738781 
L 398.956904 163.406523 
z
" clip-path="url(#p018475361a)" style="fill: #ff8000; fill-opacity: 0.3"/>
   </g>
   <g id="matplotlib.axis_7">
    <g id="xtick_7">
     <g id="line2d_11">
      <g>
       <use xlink:href="#me63fc338cc" x="358.458633" y="179.399" style="stroke: #000000; stroke-width: 0.8"/>
      </g>
     </g>
     <g id="text_21">
      <!-- MSR -->
      <g transform="translate(331.792383 194.34525) scale(0.12 -0.12)">
       <use xlink:href="#TimesNewRomanPS-BoldMT-4d"/>
       <use xlink:href="#TimesNewRomanPS-BoldMT-53" x="94.384766"/>
       <use xlink:href="#TimesNewRomanPS-BoldMT-52" x="150"/>
      </g>
     </g>
    </g>
    <g id="xtick_8">
     <g id="line2d_12">
      <g>
       <use xlink:href="#me63fc338cc" x="396.453379" y="179.399" style="stroke: #000000; stroke-width: 0.8"/>
      </g>
     </g>
     <g id="text_22">
      <!-- SBO -->
      <g transform="translate(372.442129 194.34525) scale(0.12 -0.12)">
       <use xlink:href="#TimesNewRomanPS-BoldMT-53"/>
       <use xlink:href="#TimesNewRomanPS-BoldMT-42" x="55.615234"/>
       <use xlink:href="#TimesNewRomanPS-BoldMT-4f" x="122.314453"/>
      </g>
     </g>
    </g>
   </g>
   <g id="matplotlib.axis_8"/>
   <g id="LineCollection_16">
    <path d="M 351.809553 143.960883 
L 365.107714 143.960883 
" clip-path="url(#p018475361a)" style="fill: none; stroke: #000000; stroke-width: 2"/>
    <path d="M 389.804299 142.767205 
L 403.10246 142.767205 
" clip-path="url(#p018475361a)" style="fill: none; stroke: #000000; stroke-width: 2"/>
   </g>
   <g id="LineCollection_17">
    <path d="M 351.809553 68.166667 
L 365.107714 68.166667 
" clip-path="url(#p018475361a)" style="fill: none; stroke: #1f77b4; stroke-width: 1.5"/>
    <path d="M 389.804299 97.300134 
L 403.10246 97.300134 
" clip-path="url(#p018475361a)" style="fill: none; stroke: #1f77b4; stroke-width: 1.5"/>
   </g>
   <g id="LineCollection_18">
    <path d="M 351.809553 166.526863 
L 365.107714 166.526863 
" clip-path="url(#p018475361a)" style="fill: none; stroke: #1f77b4; stroke-width: 1.5"/>
    <path d="M 389.804299 163.406523 
L 403.10246 163.406523 
" clip-path="url(#p018475361a)" style="fill: none; stroke: #1f77b4; stroke-width: 1.5"/>
   </g>
   <g id="LineCollection_19">
    <path d="M 358.458633 166.526863 
L 358.458633 68.166667 
" clip-path="url(#p018475361a)" style="fill: none; stroke: #1f77b4; stroke-width: 1.5"/>
    <path d="M 396.453379 163.406523 
L 396.453379 97.300134 
" clip-path="url(#p018475361a)" style="fill: none; stroke: #1f77b4; stroke-width: 1.5"/>
   </g>
   <g id="LineCollection_20">
    <path d="M 351.809553 145.274275 
L 365.107714 145.274275 
" clip-path="url(#p018475361a)" style="fill: none; stroke-dasharray: 2,3.3; stroke-dashoffset: 0; stroke: #808080; stroke-width: 2"/>
    <path d="M 389.804299 144.411312 
L 403.10246 144.411312 
" clip-path="url(#p018475361a)" style="fill: none; stroke-dasharray: 2,3.3; stroke-dashoffset: 0; stroke: #808080; stroke-width: 2"/>
   </g>
   <g id="patch_18">
    <path d="M 341.930919 179.399 
L 341.930919 23.199 
" style="fill: none; stroke: #000000; stroke-width: 0.8; stroke-linejoin: miter; stroke-linecap: square"/>
   </g>
   <g id="patch_19">
    <path d="M 412.981094 179.399 
L 412.981094 23.199 
" style="fill: none; stroke: #000000; stroke-width: 0.8; stroke-linejoin: miter; stroke-linecap: square"/>
   </g>
   <g id="patch_20">
    <path d="M 341.930919 179.399 
L 412.981094 179.399 
" style="fill: none; stroke: #000000; stroke-width: 0.8; stroke-linejoin: miter; stroke-linecap: square"/>
   </g>
   <g id="patch_21">
    <path d="M 341.930919 23.199 
L 412.981094 23.199 
" style="fill: none; stroke: #000000; stroke-width: 0.8; stroke-linejoin: miter; stroke-linecap: square"/>
   </g>
   <g id="text_23">
    <!-- 348 -->
    <g transform="translate(350.958633 39.183952) scale(0.1 -0.1)">
     <use xlink:href="#TimesNewRomanPSMT-33"/>
     <use xlink:href="#TimesNewRomanPSMT-34" x="50"/>
     <use xlink:href="#TimesNewRomanPSMT-38" x="100"/>
    </g>
   </g>
   <g id="text_24">
    <!-- 389 -->
    <g transform="translate(388.953379 39.183952) scale(0.1 -0.1)">
     <use xlink:href="#TimesNewRomanPSMT-33"/>
     <use xlink:href="#TimesNewRomanPSMT-38" x="50"/>
     <use xlink:href="#TimesNewRomanPSMT-39" x="100"/>
    </g>
   </g>
   <g id="text_25">
    <!-- 6 Vessels -->
    <g transform="translate(350.983631 17.199) scale(0.144 -0.144)">
     <use xlink:href="#TimesNewRomanPSMT-36"/>
     <use xlink:href="#TimesNewRomanPSMT-20" x="50"/>
     <use xlink:href="#TimesNewRomanPSMT-56" x="73.25"/>
     <use xlink:href="#TimesNewRomanPSMT-65" x="134.341797"/>
     <use xlink:href="#TimesNewRomanPSMT-73" x="178.726562"/>
     <use xlink:href="#TimesNewRomanPSMT-73" x="217.642578"/>
     <use xlink:href="#TimesNewRomanPSMT-65" x="256.558594"/>
     <use xlink:href="#TimesNewRomanPSMT-6c" x="300.943359"/>
     <use xlink:href="#TimesNewRomanPSMT-73" x="328.726562"/>
    </g>
   </g>
  </g>
 </g>
 <defs>
  <clipPath id="pdcc629f766">
   <rect x="52.191094" y="23.199" width="71.050175" height="156.2"/>
  </clipPath>
  <clipPath id="pdbef636be9">
   <rect x="148.771035" y="23.199" width="71.050175" height="156.2"/>
  </clipPath>
  <clipPath id="p4f68b6e684">
   <rect x="245.350977" y="23.199" width="71.050175" height="156.2"/>
  </clipPath>
  <clipPath id="p018475361a">
   <rect x="341.930919" y="23.199" width="71.050175" height="156.2"/>
  </clipPath>
 </defs>
</svg>
