<?xml version="1.0" encoding="UTF-8" standalone="no"?>
<!-- Created with Inkscape (http://www.inkscape.org/) -->

<svg
   width="160.77846mm"
   height="57.326397mm"
   viewBox="0 0 160.77846 57.326397"
   version="1.1"
   id="svg1"
   xmlns:inkscape="http://www.inkscape.org/namespaces/inkscape"
   xmlns:sodipodi="http://sodipodi.sourceforge.net/DTD/sodipodi-0.dtd"
   xmlns="http://www.w3.org/2000/svg"
   xmlns:svg="http://www.w3.org/2000/svg">
  <sodipodi:namedview
     id="namedview1"
     pagecolor="#ffffff"
     bordercolor="#000000"
     borderopacity="0.25"
     inkscape:showpageshadow="2"
     inkscape:pageopacity="0.0"
     inkscape:pagecheckerboard="0"
     inkscape:deskcolor="#d1d1d1"
     inkscape:document-units="mm" />
  <defs
     id="defs1">
    <clipPath
       id="clip0">
      <rect
         x="1300"
         y="268"
         width="608"
         height="225"
         id="rect1" />
    </clipPath>
    <linearGradient
       x1="1793.5"
       y1="272.5"
       x2="1793.5"
       y2="341.5"
       gradientUnits="userSpaceOnUse"
       spreadMethod="reflect"
       id="fill1">
      <stop
         offset="0"
         stop-color="#E06B75"
         id="stop1" />
      <stop
         offset="0.78"
         stop-color="#E06B75"
         id="stop2" />
      <stop
         offset="0.83"
         stop-color="#FFFFFF"
         id="stop3" />
      <stop
         offset="1"
         stop-color="#FFFFFF"
         id="stop4" />
    </linearGradient>
    <linearGradient
       x1="1414.5"
       y1="271.5"
       x2="1414.5"
       y2="340.5"
       gradientUnits="userSpaceOnUse"
       spreadMethod="reflect"
       id="fill2">
      <stop
         offset="0"
         stop-color="#E06B75"
         id="stop5" />
      <stop
         offset="0.78"
         stop-color="#E06B75"
         id="stop6" />
      <stop
         offset="0.83"
         stop-color="#FFFFFF"
         id="stop7" />
      <stop
         offset="1"
         stop-color="#FFFFFF"
         id="stop8" />
    </linearGradient>
    <linearGradient
       x1="1793.5"
       y1="413.5"
       x2="1793.5"
       y2="481.5"
       gradientUnits="userSpaceOnUse"
       spreadMethod="reflect"
       id="fill3">
      <stop
         offset="0"
         stop-color="#E06B75"
         id="stop9" />
      <stop
         offset="0.78"
         stop-color="#E06B75"
         id="stop10" />
      <stop
         offset="0.83"
         stop-color="#FFFFFF"
         id="stop11" />
      <stop
         offset="1"
         stop-color="#FFFFFF"
         id="stop12" />
    </linearGradient>
    <linearGradient
       x1="1416"
       y1="413.5"
       x2="1416"
       y2="481.5"
       gradientUnits="userSpaceOnUse"
       spreadMethod="reflect"
       id="fill4">
      <stop
         offset="0"
         stop-color="#E06B75"
         id="stop13" />
      <stop
         offset="0.78"
         stop-color="#E06B75"
         id="stop14" />
      <stop
         offset="0.83"
         stop-color="#FFFFFF"
         id="stop15" />
      <stop
         offset="1"
         stop-color="#FFFFFF"
         id="stop16" />
    </linearGradient>
  </defs>
  <g
     inkscape:label="Réteg 1"
     inkscape:groupmode="layer"
     id="layer1"
     transform="translate(-33.254395,-113.05178)">
    <g
       clip-path="url(#clip0)"
       transform="matrix(0.26458333,0,0,0.26458333,-310.74803,42.099342)"
       id="g28">
      <path
         d="m 1682.5,284 c 0,-6.351 5.15,-11.5 11.5,-11.5 h 199 c 6.35,0 11.5,5.149 11.5,11.5 v 46 c 0,6.351 -5.15,11.5 -11.5,11.5 h -199 c -6.35,0 -11.5,-5.149 -11.5,-11.5 z"
         stroke="#000000"
         stroke-width="6.66667"
         stroke-miterlimit="8"
         fill="url(#fill1)"
         fill-rule="evenodd"
         id="path16"
         style="fill:url(#fill1)" />
      <path
         d="m 1682.5,326.5 h 221.67"
         stroke="#000000"
         stroke-width="6.66667"
         stroke-miterlimit="8"
         fill="none"
         fill-rule="evenodd"
         id="path17" />
      <text
         fill="#181f2b"
         font-family="'Times New Roman', 'Times New Roman_MSFontService', sans-serif"
         font-weight="700"
         font-size="30px"
         transform="translate(1768.89,309)"
         id="text19">TS<tspan
   font-size="20px"
   x="36.666599"
   y="7"
   id="tspan17">3</tspan><tspan
   font-weight="400"
   font-size="30px"
   x="-232.526"
   y="158"
   id="tspan18">O</tspan><tspan
   font-weight="400"
   font-size="30px"
   x="-210.86"
   y="158"
   id="tspan19">vertaking</tspan></text>
      <path
         d="m 1681.08,438.327 -123.59,-0.515 0.02,-2.5 123.59,0.515 z m -121.95,6.576 -16.63,-8.403 16.7,-8.264 z"
         id="path19" />
      <text
         fill="#181f2b"
         font-family="'Times New Roman', 'Times New Roman_MSFontService', sans-serif"
         font-weight="400"
         font-size="30px"
         transform="translate(1391.85,389)"
         id="text20">Head<tspan
   font-size="30px"
   x="63.333401"
   y="0"
   id="tspan20">-</tspan>on</text>
      <path
         d="M 1.25,-2.82545e-6 1.2501,43.0587 h -2.5 L -1.25,2.82545e-6 Z M 8.33343,41.392 1.31234e-4,58.0587 -8.33324,41.392 Z"
         transform="matrix(1,0,0,-1,1378.5,415.559)"
         id="path20" />
      <path
         d="m 1350.75,335.479 0.8,46.576 -2.5,0.043 -0.8,-46.577 z m 7.85,44.789 -8.04,16.807 -8.62,-16.522 z"
         id="path21" />
      <text
         fill="#181f2b"
         font-family="'Times New Roman', 'Times New Roman_MSFontService', sans-serif"
         font-weight="400"
         font-size="30px"
         transform="translate(1551.45,342)"
         id="text21">Crossing <tspan
   font-size="30px"
   x="8.3333702"
   y="35"
   id="tspan21">from port</tspan></text>
      <path
         d="M 0.28343,-1.21744 258.741,58.9535 258.174,61.3883 -0.28343,1.21744 Z M 258.724,51.6768 l 14.343,11.8954 -18.122,4.3372 z"
         transform="matrix(1,0,0,-1,1520.5,417.072)"
         id="path22" />
      <path
         d="m 1303.5,283 c 0,-6.351 5.15,-11.5 11.5,-11.5 h 199 c 6.35,0 11.5,5.149 11.5,11.5 v 46 c 0,6.351 -5.15,11.5 -11.5,11.5 h -199 c -6.35,0 -11.5,-5.149 -11.5,-11.5 z"
         stroke="#000000"
         stroke-width="6.66667"
         stroke-miterlimit="8"
         fill="url(#fill2)"
         fill-rule="evenodd"
         id="path23"
         style="fill:url(#fill2)" />
      <path
         d="m 1303.5,325.5 h 221.67"
         stroke="#000000"
         stroke-width="6.66667"
         stroke-miterlimit="8"
         fill="none"
         fill-rule="evenodd"
         id="path24" />
      <text
         fill="#181f2b"
         font-family="'Times New Roman', 'Times New Roman_MSFontService', sans-serif"
         font-weight="700"
         font-size="30px"
         transform="translate(1389.92,307)"
         id="text24">TS<tspan
   font-size="20px"
   x="36.666698"
   y="7"
   id="tspan24">2</tspan></text>
      <path
         d="m 1682.5,424.834 c 0,-6.26 5.07,-11.334 11.33,-11.334 h 199.34 c 6.26,0 11.33,5.074 11.33,11.334 v 45.332 c 0,6.26 -5.07,11.334 -11.33,11.334 h -199.34 c -6.26,0 -11.33,-5.074 -11.33,-11.334 z"
         stroke="#000000"
         stroke-width="6.66667"
         stroke-miterlimit="8"
         fill="url(#fill3)"
         fill-rule="evenodd"
         id="path25"
         style="fill:url(#fill3)" />
      <path
         d="m 1682.5,467.5 h 221.67"
         stroke="#000000"
         stroke-width="6.66667"
         stroke-miterlimit="8"
         fill="none"
         fill-rule="evenodd"
         id="path26" />
      <text
         fill="#181f2b"
         font-family="'Times New Roman', 'Times New Roman_MSFontService', sans-serif"
         font-weight="700"
         font-size="30px"
         transform="translate(1774.61,451)"
         id="text26">TS<tspan
   font-size="20px"
   x="36.666698"
   y="7"
   id="tspan26">1</tspan></text>
      <path
         d="m 1305.5,424.834 c 0,-6.26 5.07,-11.334 11.33,-11.334 h 198.34 c 6.26,0 11.33,5.074 11.33,11.334 v 45.332 c 0,6.26 -5.07,11.334 -11.33,11.334 h -198.34 c -6.26,0 -11.33,-5.074 -11.33,-11.334 z"
         stroke="#000000"
         stroke-width="6.66667"
         stroke-miterlimit="8"
         fill="url(#fill4)"
         fill-rule="evenodd"
         id="path27"
         style="fill:url(#fill4)" />
      <path
         d="m 1305.5,467.5 h 221.67"
         stroke="#000000"
         stroke-width="6.66667"
         stroke-miterlimit="8"
         fill="none"
         fill-rule="evenodd"
         id="path28" />
      <text
         fill="#181f2b"
         font-family="'Times New Roman', 'Times New Roman_MSFontService', sans-serif"
         font-weight="700"
         font-size="30px"
         transform="translate(1398.24,453)"
         id="text28">OS</text>
    </g>
  </g>
</svg>
